<svg viewBox="0 0 1000 600" xmlns="http://www.w3.org/2000/svg" xmlns:xlink="http://www.w3.org/1999/xlink" width="100%" height="100%">

<rect x="50.0" y="30.0" width="940.0" height="467.99999999999994" stroke="#000" fill="#fff"/>
<line x1="42.0" y1="497.9999999999999" x2="50.0" y2="497.9999999999999" stroke="#000"/>
<text x="26.000000000000004" y="497.9999999999999" text-anchor="end" font-weight="bold" font-size="small" fill="#111">
0.0
</text>
<line x1="42.0" y1="415.75607502799545" x2="50.0" y2="415.75607502799545" stroke="#000"/>
<text x="26.000000000000004" y="415.75607502799545" text-anchor="end" font-weight="bold" font-size="small" fill="#111">
0.5
</text>
<line x1="42.0" y1="333.512150055991" x2="50.0" y2="333.512150055991" stroke="#000"/>
<text x="26.000000000000004" y="333.512150055991" text-anchor="end" font-weight="bold" font-size="small" fill="#111">
1.0
</text>
<line x1="42.0" y1="251.2682250839865" x2="50.0" y2="251.2682250839865" stroke="#000"/>
<text x="26.000000000000004" y="251.2682250839865" text-anchor="end" font-weight="bold" font-size="small" fill="#111">
1.5
</text>
<line x1="42.0" y1="169.02430011198206" x2="50.0" y2="169.02430011198206" stroke="#000"/>
<text x="26.000000000000004" y="169.02430011198206" text-anchor="end" font-weight="bold" font-size="small" fill="#111">
2.0
</text>
<line x1="142.75" y1="54.60000000000001" x2="262.75" y2="54.60000000000001" stroke="#648FFF" stroke-width="2"/>
<text x="202.75" y="49.500000000000014" font-size="small" text-anchor="middle" font-weight="bold" fill="#000">
CRuby 3.3.4
</text>
<rect x="354.25" y="35.400000000000006" width="120.0" height="19.2" fill="#785EF0" stroke="none"/>
<text x="414.25" y="49.500000000000014" font-size="small" text-anchor="middle" font-weight="bold" fill="#fff" style="text-shadow: 0 0 1px #000;">
CRuby 3.4.0dev
</text>
<rect x="565.75" y="35.400000000000006" width="120.0" height="19.2" fill="#FFB000" stroke="none"/>
<text x="625.7499999999999" y="49.500000000000014" font-size="small" text-anchor="middle" font-weight="bold" fill="#fff" style="text-shadow: 0 0 1px #000;">
YJIT 3.3.4
</text>
<rect x="777.25" y="35.400000000000006" width="120.0" height="19.2" fill="#DC267F" stroke="none"/>
<text x="837.2499999999999" y="49.500000000000014" font-size="small" text-anchor="middle" font-weight="bold" fill="#fff" style="text-shadow: 0 0 1px #000;">
YJIT 3.4.0dev
</text>
<rect x="54.77157360406092" y="351.2266939351191" width="4.771573604060913" height="146.77330606488087" fill="#785EF0" data-tooltip="0.89x baseline (CRuby 3.4.0dev)"/>
<rect x="59.54314720812183" y="328.53626845149904" width="4.771573604060913" height="169.46373154850085" fill="#FFB000" data-tooltip="1.03x baseline (YJIT 3.3.4)"/>
<rect x="64.31472081218274" y="324.2089742659225" width="4.771573604060913" height="173.79102573407735" fill="#DC267F" data-tooltip="1.06x baseline (YJIT 3.4.0dev)"/>
<line x1="61.92893401015229" y1="498.0" x2="61.92893401015229" y2="502.79999999999995" stroke="#000"/>
<text x="61.92893401015229" y="512.4" fill="#111" font-size="small" text-anchor="end" transform="rotate(-60, 61.92893401015229, 512.4)">
activerecord
</text>
<rect x="73.85786802030456" y="368.26675726585734" width="4.771573604060913" height="129.73324273414266" fill="#785EF0" data-tooltip="0.79x baseline (CRuby 3.4.0dev)"/>
<rect x="78.62944162436548" y="391.03880587053084" width="4.771573604060913" height="106.96119412946906" fill="#FFB000" data-tooltip="0.65x baseline (YJIT 3.3.4)"/>
<rect x="83.4010152284264" y="316.95183908323" width="4.771573604060913" height="181.04816091676983" fill="#DC267F" data-tooltip="1.10x baseline (YJIT 3.4.0dev)"/>
<line x1="81.01522842639594" y1="498.0" x2="81.01522842639594" y2="502.79999999999995" stroke="#000"/>
<text x="81.01522842639594" y="512.4" fill="#111" font-size="small" text-anchor="end" transform="rotate(-60, 81.01522842639594, 512.4)">
chunky-png
</text>
<rect x="92.94416243654823" y="321.99832673054283" width="4.771573604060913" height="176.0016732694571" fill="#785EF0" data-tooltip="1.07x baseline (CRuby 3.4.0dev)"/>
<rect x="97.71573604060914" y="321.79610093842444" width="4.771573604060913" height="176.20389906157544" fill="#FFB000" data-tooltip="1.07x baseline (YJIT 3.3.4)"/>
<rect x="102.48730964467005" y="304.76999392458896" width="4.771573604060913" height="193.230006075411" fill="#DC267F" data-tooltip="1.17x baseline (YJIT 3.4.0dev)"/>
<line x1="100.1015228426396" y1="498.0" x2="100.1015228426396" y2="502.79999999999995" stroke="#000"/>
<text x="100.1015228426396" y="512.4" fill="#111" font-size="small" text-anchor="end" transform="rotate(-60, 100.1015228426396, 512.4)">
erubi-rails
</text>
<rect x="112.03045685279189" y="315.4670292709145" width="4.771573604060913" height="182.53297072908543" fill="#785EF0" data-tooltip="1.11x baseline (CRuby 3.4.0dev)"/>
<rect x="116.80203045685279" y="166.3661223405795" width="4.771573604060913" height="331.6338776594204" fill="#FFB000" data-tooltip="2.02x baseline (YJIT 3.3.4)"/>
<rect x="121.57360406091371" y="166.308957227216" width="4.771573604060913" height="331.6910427727839" fill="#DC267F" data-tooltip="2.02x baseline (YJIT 3.4.0dev)"/>
<line x1="119.18781725888324" y1="498.0" x2="119.18781725888324" y2="502.79999999999995" stroke="#000"/>
<text x="119.18781725888324" y="512.4" fill="#111" font-size="small" text-anchor="end" transform="rotate(-60, 119.18781725888324, 512.4)">
hexapdf
</text>
<rect x="131.11675126903552" y="323.42227776052687" width="4.771573604060913" height="174.57772223947308" fill="#785EF0" data-tooltip="1.06x baseline (CRuby 3.4.0dev)"/>
<rect x="135.88832487309642" y="311.15391031036035" width="4.771573604060913" height="186.8460896896396" fill="#FFB000" data-tooltip="1.14x baseline (YJIT 3.3.4)"/>
<rect x="140.65989847715736" y="306.4070840259034" width="4.771573604060913" height="191.59291597409657" fill="#DC267F" data-tooltip="1.16x baseline (YJIT 3.4.0dev)"/>
<line x1="138.27411167512687" y1="498.0" x2="138.27411167512687" y2="502.79999999999995" stroke="#000"/>
<text x="138.27411167512687" y="512.4" fill="#111" font-size="small" text-anchor="end" transform="rotate(-60, 138.27411167512687, 512.4)">
liquid-c
</text>
<rect x="150.20304568527916" y="317.54323237098913" width="4.771573604060913" height="180.45676762901078" fill="#785EF0" data-tooltip="1.10x baseline (CRuby 3.4.0dev)"/>
<rect x="154.9746192893401" y="310.2652448451035" width="4.771573604060913" height="187.73475515489642" fill="#FFB000" data-tooltip="1.14x baseline (YJIT 3.3.4)"/>
<rect x="159.746192893401" y="298.48183646986007" width="4.771573604060913" height="199.5181635301399" fill="#DC267F" data-tooltip="1.21x baseline (YJIT 3.4.0dev)"/>
<line x1="157.36040609137052" y1="498.0" x2="157.36040609137052" y2="502.79999999999995" stroke="#000"/>
<text x="157.36040609137052" y="512.4" fill="#111" font-size="small" text-anchor="end" transform="rotate(-60, 157.36040609137052, 512.4)">
liquid-compile
</text>
<rect x="169.28934010152284" y="323.43994273404917" width="4.771573604060913" height="174.56005726595083" fill="#785EF0" data-tooltip="1.06x baseline (CRuby 3.4.0dev)"/>
<rect x="174.06091370558374" y="295.08854434636083" width="4.771573604060913" height="202.91145565363908" fill="#FFB000" data-tooltip="1.23x baseline (YJIT 3.3.4)"/>
<rect x="178.83248730964465" y="275.64047983831506" width="4.771573604060913" height="222.35952016168488" fill="#DC267F" data-tooltip="1.35x baseline (YJIT 3.4.0dev)"/>
<line x1="176.4467005076142" y1="498.0" x2="176.4467005076142" y2="502.79999999999995" stroke="#000"/>
<text x="176.4467005076142" y="512.4" fill="#111" font-size="small" text-anchor="end" transform="rotate(-60, 176.4467005076142, 512.4)">
liquid-render
</text>
<rect x="188.37563451776649" y="335.94134100635915" width="4.771573604060913" height="162.05865899364082" fill="#785EF0" data-tooltip="0.99x baseline (CRuby 3.4.0dev)"/>
<rect x="193.1472081218274" y="307.0018669625259" width="4.771573604060913" height="190.99813303747396" fill="#FFB000" data-tooltip="1.16x baseline (YJIT 3.3.4)"/>
<rect x="197.91878172588832" y="297.5606031209079" width="4.771573604060913" height="200.43939687909202" fill="#DC267F" data-tooltip="1.22x baseline (YJIT 3.4.0dev)"/>
<line x1="195.53299492385784" y1="498.0" x2="195.53299492385784" y2="502.79999999999995" stroke="#000"/>
<text x="195.53299492385784" y="512.4" fill="#111" font-size="small" text-anchor="end" transform="rotate(-60, 195.53299492385784, 512.4)">
lobsters
</text>
<rect x="207.46192893401013" y="321.31778118219086" width="4.771573604060913" height="176.6822188178091" fill="#785EF0" data-tooltip="1.07x baseline (CRuby 3.4.0dev)"/>
<rect x="212.23350253807104" y="313.43657920734944" width="4.771573604060913" height="184.5634207926505" fill="#FFB000" data-tooltip="1.12x baseline (YJIT 3.3.4)"/>
<rect x="217.00507614213197" y="295.5964038279356" width="4.771573604060913" height="202.40359617206434" fill="#DC267F" data-tooltip="1.23x baseline (YJIT 3.4.0dev)"/>
<line x1="214.6192893401015" y1="498.0" x2="214.6192893401015" y2="502.79999999999995" stroke="#000"/>
<text x="214.6192893401015" y="512.4" fill="#111" font-size="small" text-anchor="end" transform="rotate(-60, 214.6192893401015, 512.4)">
mail
</text>
<rect x="226.54822335025378" y="335.0419307684907" width="4.771573604060913" height="162.95806923150928" fill="#785EF0" data-tooltip="0.99x baseline (CRuby 3.4.0dev)"/>
<rect x="231.3197969543147" y="330.59828203218217" width="4.771573604060913" height="167.40171796781777" fill="#FFB000" data-tooltip="1.02x baseline (YJIT 3.3.4)"/>
<rect x="236.09137055837562" y="329.7969683256347" width="4.771573604060913" height="168.20303167436523" fill="#DC267F" data-tooltip="1.02x baseline (YJIT 3.4.0dev)"/>
<line x1="233.70558375634513" y1="498.0" x2="233.70558375634513" y2="502.79999999999995" stroke="#000"/>
<text x="233.70558375634513" y="512.4" fill="#111" font-size="small" text-anchor="end" transform="rotate(-60, 233.70558375634513, 512.4)">
psych-load
</text>
<rect x="245.63451776649745" y="336.63256884684847" width="4.771573604060913" height="161.36743115315144" fill="#785EF0" data-tooltip="0.98x baseline (CRuby 3.4.0dev)"/>
<rect x="250.40609137055836" y="307.4586115741662" width="4.771573604060913" height="190.54138842583376" fill="#FFB000" data-tooltip="1.16x baseline (YJIT 3.3.4)"/>
<rect x="255.17766497461923" y="289.59780443653835" width="4.771573604060913" height="208.40219556346156" fill="#DC267F" data-tooltip="1.27x baseline (YJIT 3.4.0dev)"/>
<line x1="252.79187817258875" y1="498.0" x2="252.79187817258875" y2="502.79999999999995" stroke="#000"/>
<text x="252.79187817258875" y="512.4" fill="#111" font-size="small" text-anchor="end" transform="rotate(-60, 252.79187817258875, 512.4)">
railsbench
</text>
<rect x="264.72081218274104" y="333.65283148234244" width="4.771573604060913" height="164.34716851765754" fill="#785EF0" data-tooltip="1.00x baseline (CRuby 3.4.0dev)"/>
<rect x="269.4923857868019" y="259.6934793954776" width="4.771573604060913" height="238.30652060452232" fill="#FFB000" data-tooltip="1.45x baseline (YJIT 3.3.4)"/>
<rect x="274.2639593908628" y="245.46902406438875" width="4.771573604060913" height="252.5309759356112" fill="#DC267F" data-tooltip="1.54x baseline (YJIT 3.4.0dev)"/>
<line x1="271.8781725888323" y1="498.0" x2="271.8781725888323" y2="502.79999999999995" stroke="#000"/>
<text x="271.8781725888323" y="512.4" fill="#111" font-size="small" text-anchor="end" transform="rotate(-60, 271.8781725888323, 512.4)">
rubocop
</text>
<rect x="283.80710659898455" y="337.73114627160714" width="4.771573604060913" height="160.2688537283928" fill="#785EF0" data-tooltip="0.97x baseline (CRuby 3.4.0dev)"/>
<rect x="288.57868020304545" y="322.0000146535811" width="4.771573604060913" height="175.99998534641878" fill="#FFB000" data-tooltip="1.07x baseline (YJIT 3.3.4)"/>
<rect x="293.35025380710636" y="317.9824278050422" width="4.771573604060913" height="180.01757219495775" fill="#DC267F" data-tooltip="1.09x baseline (YJIT 3.4.0dev)"/>
<line x1="290.96446700507585" y1="498.0" x2="290.96446700507585" y2="502.79999999999995" stroke="#000"/>
<text x="290.96446700507585" y="512.4" fill="#111" font-size="small" text-anchor="end" transform="rotate(-60, 290.96446700507585, 512.4)">
ruby-lsp
</text>
<rect x="302.8934010152281" y="327.3380467148934" width="4.771573604060913" height="170.66195328510656" fill="#785EF0" data-tooltip="1.04x baseline (CRuby 3.4.0dev)"/>
<rect x="307.664974619289" y="319.48210877191974" width="4.771573604060913" height="178.5178912280802" fill="#FFB000" data-tooltip="1.09x baseline (YJIT 3.3.4)"/>
<rect x="312.43654822334986" y="310.4311830855078" width="4.771573604060913" height="187.56881691449212" fill="#DC267F" data-tooltip="1.14x baseline (YJIT 3.4.0dev)"/>
<line x1="310.05076142131935" y1="498.0" x2="310.05076142131935" y2="502.79999999999995" stroke="#000"/>
<text x="310.05076142131935" y="512.4" fill="#111" font-size="small" text-anchor="end" transform="rotate(-60, 310.05076142131935, 512.4)">
sequel
</text>
<rect x="321.97969543147167" y="301.51231305103863" width="4.771573604060913" height="196.48768694896137" fill="#785EF0" data-tooltip="1.19x baseline (CRuby 3.4.0dev)"/>
<rect x="326.7512690355325" y="315.77468384283867" width="4.771573604060913" height="182.2253161571613" fill="#FFB000" data-tooltip="1.11x baseline (YJIT 3.3.4)"/>
<rect x="331.5228426395934" y="296.22727209773194" width="4.771573604060913" height="201.772727902268" fill="#DC267F" data-tooltip="1.23x baseline (YJIT 3.4.0dev)"/>
<line x1="329.1370558375629" y1="498.0" x2="329.1370558375629" y2="502.79999999999995" stroke="#000"/>
<text x="329.1370558375629" y="512.4" fill="#111" font-size="small" text-anchor="end" transform="rotate(-60, 329.1370558375629, 512.4)">
binarytrees
</text>
<rect x="341.0659898477152" y="325.0041578175078" width="4.771573604060913" height="172.99584218249217" fill="#785EF0" data-tooltip="1.05x baseline (CRuby 3.4.0dev)"/>
<rect x="345.8375634517761" y="326.42215652392167" width="4.771573604060913" height="171.57784347607827" fill="#FFB000" data-tooltip="1.04x baseline (YJIT 3.3.4)"/>
<rect x="350.609137055837" y="315.9762327200061" width="4.771573604060913" height="182.0237672799938" fill="#DC267F" data-tooltip="1.11x baseline (YJIT 3.4.0dev)"/>
<line x1="348.2233502538065" y1="498.0" x2="348.2233502538065" y2="502.79999999999995" stroke="#000"/>
<text x="348.2233502538065" y="512.4" fill="#111" font-size="small" text-anchor="end" transform="rotate(-60, 348.2233502538065, 512.4)">
blurhash
</text>
<rect x="360.15228426395873" y="327.84452250257857" width="4.771573604060913" height="170.15547749742137" fill="#785EF0" data-tooltip="1.03x baseline (CRuby 3.4.0dev)"/>
<rect x="364.92385786801964" y="318.69399533533726" width="4.771573604060913" height="179.3060046646627" fill="#FFB000" data-tooltip="1.09x baseline (YJIT 3.3.4)"/>
<rect x="369.6954314720805" y="165.12978508924613" width="4.771573604060913" height="332.87021491075376" fill="#DC267F" data-tooltip="2.02x baseline (YJIT 3.4.0dev)"/>
<line x1="367.30964467005003" y1="498.0" x2="367.30964467005003" y2="502.79999999999995" stroke="#000"/>
<text x="367.30964467005003" y="512.4" fill="#111" font-size="small" text-anchor="end" transform="rotate(-60, 367.30964467005003, 512.4)">
erubi
</text>
<rect x="379.2385786802023" y="285.3879958154063" width="4.771573604060913" height="212.61200418459362" fill="#785EF0" data-tooltip="1.29x baseline (CRuby 3.4.0dev)"/>
<rect x="384.01015228426314" y="325.91583294041374" width="4.771573604060913" height="172.08416705958624" fill="#FFB000" data-tooltip="1.05x baseline (YJIT 3.3.4)"/>
<rect x="388.78172588832405" y="280.2954927211646" width="4.771573604060913" height="217.70450727883537" fill="#DC267F" data-tooltip="1.32x baseline (YJIT 3.4.0dev)"/>
<line x1="386.39593908629354" y1="498.0" x2="386.39593908629354" y2="502.79999999999995" stroke="#000"/>
<text x="386.39593908629354" y="512.4" fill="#111" font-size="small" text-anchor="end" transform="rotate(-60, 386.39593908629354, 512.4)">
etanni
</text>
<rect x="398.3248730964458" y="323.4907212396255" width="4.771573604060913" height="174.5092787603744" fill="#785EF0" data-tooltip="1.06x baseline (CRuby 3.4.0dev)"/>
<rect x="403.0964467005067" y="328.42273332726086" width="4.771573604060913" height="169.57726667273906" fill="#FFB000" data-tooltip="1.03x baseline (YJIT 3.3.4)"/>
<rect x="407.8680203045676" y="315.72542561228477" width="4.771573604060913" height="182.27457438771515" fill="#DC267F" data-tooltip="1.11x baseline (YJIT 3.4.0dev)"/>
<line x1="405.4822335025371" y1="498.0" x2="405.4822335025371" y2="502.79999999999995" stroke="#000"/>
<text x="405.4822335025371" y="512.4" fill="#111" font-size="small" text-anchor="end" transform="rotate(-60, 405.4822335025371, 512.4)">
fannkuchredux
</text>
<rect x="417.41116751268936" y="284.2929670354135" width="4.771573604060913" height="213.70703296458646" fill="#785EF0" data-tooltip="1.30x baseline (CRuby 3.4.0dev)"/>
<rect x="422.18274111675026" y="319.84298081611115" width="4.771573604060913" height="178.1570191838888" fill="#FFB000" data-tooltip="1.08x baseline (YJIT 3.3.4)"/>
<rect x="426.9543147208111" y="299.7643446599239" width="4.771573604060913" height="198.235655340076" fill="#DC267F" data-tooltip="1.21x baseline (YJIT 3.4.0dev)"/>
<line x1="424.56852791878066" y1="498.0" x2="424.56852791878066" y2="502.79999999999995" stroke="#000"/>
<text x="424.56852791878066" y="512.4" fill="#111" font-size="small" text-anchor="end" transform="rotate(-60, 424.56852791878066, 512.4)">
fluentd
</text>
<rect x="436.4974619289329" y="320.0692137536925" width="4.771573604060913" height="177.9307862463074" fill="#785EF0" data-tooltip="1.08x baseline (CRuby 3.4.0dev)"/>
<rect x="441.26903553299377" y="323.1808162563426" width="4.771573604060913" height="174.81918374365733" fill="#FFB000" data-tooltip="1.06x baseline (YJIT 3.3.4)"/>
<rect x="446.0406091370547" y="302.4164623007499" width="4.771573604060913" height="195.58353769925003" fill="#DC267F" data-tooltip="1.19x baseline (YJIT 3.4.0dev)"/>
<line x1="443.65482233502416" y1="498.0" x2="443.65482233502416" y2="502.79999999999995" stroke="#000"/>
<text x="443.65482233502416" y="512.4" fill="#111" font-size="small" text-anchor="end" transform="rotate(-60, 443.65482233502416, 512.4)">
graphql
</text>
<rect x="455.5837563451764" y="296.7055230191206" width="4.771573604060913" height="201.29447698087932" fill="#785EF0" data-tooltip="1.22x baseline (CRuby 3.4.0dev)"/>
<rect x="460.35532994923733" y="318.07357081558536" width="4.771573604060913" height="179.9264291844146" fill="#FFB000" data-tooltip="1.09x baseline (YJIT 3.3.4)"/>
<rect x="465.12690355329823" y="265.23541768270337" width="4.771573604060913" height="232.76458231729654" fill="#DC267F" data-tooltip="1.42x baseline (YJIT 3.4.0dev)"/>
<line x1="462.7411167512677" y1="498.0" x2="462.7411167512677" y2="502.79999999999995" stroke="#000"/>
<text x="462.7411167512677" y="512.4" fill="#111" font-size="small" text-anchor="end" transform="rotate(-60, 462.7411167512677, 512.4)">
graphql-native
</text>
<rect x="474.67005076142" y="305.6013824700787" width="4.771573604060913" height="192.39861752992124" fill="#785EF0" data-tooltip="1.17x baseline (CRuby 3.4.0dev)"/>
<rect x="479.4416243654809" y="315.82845359184387" width="4.771573604060913" height="182.1715464081561" fill="#FFB000" data-tooltip="1.11x baseline (YJIT 3.3.4)"/>
<rect x="484.21319796954174" y="288.2713599352145" width="4.771573604060913" height="209.72864006478548" fill="#DC267F" data-tooltip="1.28x baseline (YJIT 3.4.0dev)"/>
<line x1="481.8274111675113" y1="498.0" x2="481.8274111675113" y2="502.79999999999995" stroke="#000"/>
<text x="481.8274111675113" y="512.4" fill="#111" font-size="small" text-anchor="end" transform="rotate(-60, 481.8274111675113, 512.4)">
lee
</text>
<rect x="493.75634517766355" y="305.32047692564055" width="4.771573604060913" height="192.67952307435948" fill="#785EF0" data-tooltip="1.17x baseline (CRuby 3.4.0dev)"/>
<rect x="498.5279187817244" y="330.6711287327774" width="4.771573604060913" height="167.32887126722258" fill="#FFB000" data-tooltip="1.02x baseline (YJIT 3.3.4)"/>
<rect x="503.2994923857853" y="292.4994576208816" width="4.771573604060913" height="205.50054237911834" fill="#DC267F" data-tooltip="1.25x baseline (YJIT 3.4.0dev)"/>
<line x1="500.9137055837548" y1="498.0" x2="500.9137055837548" y2="502.79999999999995" stroke="#000"/>
<text x="500.9137055837548" y="512.4" fill="#111" font-size="small" text-anchor="end" transform="rotate(-60, 500.9137055837548, 512.4)">
matmul
</text>
<rect x="512.842639593907" y="323.50667892882353" width="4.771573604060913" height="174.49332107117635" fill="#785EF0" data-tooltip="1.06x baseline (CRuby 3.4.0dev)"/>
<rect x="517.614213197968" y="327.43552884786845" width="4.771573604060913" height="170.56447115213157" fill="#FFB000" data-tooltip="1.04x baseline (YJIT 3.3.4)"/>
<rect x="522.3857868020289" y="313.55359246724345" width="4.771573604060913" height="184.44640753275652" fill="#DC267F" data-tooltip="1.12x baseline (YJIT 3.4.0dev)"/>
<line x1="519.9999999999984" y1="498.0" x2="519.9999999999984" y2="502.79999999999995" stroke="#000"/>
<text x="519.9999999999984" y="512.4" fill="#111" font-size="small" text-anchor="end" transform="rotate(-60, 519.9999999999984, 512.4)">
nbody
</text>
<rect x="531.9289340101507" y="325.33821395447893" width="4.771573604060913" height="172.661786045521" fill="#785EF0" data-tooltip="1.05x baseline (CRuby 3.4.0dev)"/>
<rect x="536.7005076142115" y="329.8792895664301" width="4.771573604060913" height="168.12071043356988" fill="#FFB000" data-tooltip="1.02x baseline (YJIT 3.3.4)"/>
<rect x="541.4720812182724" y="298.29358586552524" width="4.771573604060913" height="199.70641413447467" fill="#DC267F" data-tooltip="1.21x baseline (YJIT 3.4.0dev)"/>
<line x1="539.0862944162419" y1="498.0" x2="539.0862944162419" y2="502.79999999999995" stroke="#000"/>
<text x="539.0862944162419" y="512.4" fill="#111" font-size="small" text-anchor="end" transform="rotate(-60, 539.0862944162419, 512.4)">
nqueens
</text>
<rect x="551.0152284263942" y="350.9948863521156" width="4.771573604060913" height="147.00511364788434" fill="#785EF0" data-tooltip="0.89x baseline (CRuby 3.4.0dev)"/>
<rect x="555.7868020304551" y="316.7679504039548" width="4.771573604060913" height="181.2320495960452" fill="#FFB000" data-tooltip="1.10x baseline (YJIT 3.3.4)"/>
<rect x="560.558375634516" y="337.38644064792993" width="4.771573604060913" height="160.61355935206998" fill="#DC267F" data-tooltip="0.98x baseline (YJIT 3.4.0dev)"/>
<line x1="558.1725888324854" y1="498.0" x2="558.1725888324854" y2="502.79999999999995" stroke="#000"/>
<text x="558.1725888324854" y="512.4" fill="#111" font-size="small" text-anchor="end" transform="rotate(-60, 558.1725888324854, 512.4)">
optcarrot
</text>
<rect x="570.1015228426377" y="335.2568650229869" width="4.771573604060913" height="162.74313497701297" fill="#785EF0" data-tooltip="0.99x baseline (CRuby 3.4.0dev)"/>
<rect x="574.8730964466986" y="294.4741526694562" width="4.771573604060913" height="203.52584733054377" fill="#FFB000" data-tooltip="1.24x baseline (YJIT 3.3.4)"/>
<rect x="579.6446700507595" y="286.69563177493245" width="4.771573604060913" height="211.30436822506746" fill="#DC267F" data-tooltip="1.28x baseline (YJIT 3.4.0dev)"/>
<line x1="577.258883248729" y1="498.0" x2="577.258883248729" y2="502.79999999999995" stroke="#000"/>
<text x="577.258883248729" y="512.4" fill="#111" font-size="small" text-anchor="end" transform="rotate(-60, 577.258883248729, 512.4)">
protoboeuf
</text>
<rect x="589.1878172588813" y="357.9707684353774" width="4.771573604060913" height="140.02923156462256" fill="#785EF0" data-tooltip="0.85x baseline (CRuby 3.4.0dev)"/>
<rect x="593.9593908629421" y="317.8487746577399" width="4.771573604060913" height="180.15122534226003" fill="#FFB000" data-tooltip="1.10x baseline (YJIT 3.3.4)"/>
<rect x="598.730964467003" y="157.28237062888678" width="4.771573604060913" height="340.71762937111316" fill="#DC267F" data-tooltip="2.07x baseline (YJIT 3.4.0dev)"/>
<line x1="596.3451776649725" y1="498.0" x2="596.3451776649725" y2="502.79999999999995" stroke="#000"/>
<text x="596.3451776649725" y="512.4" fill="#111" font-size="small" text-anchor="end" transform="rotate(-60, 596.3451776649725, 512.4)">
protoboeuf-encode
</text>
<rect x="608.2741116751248" y="337.61249157570774" width="4.771573604060913" height="160.38750842429224" fill="#785EF0" data-tooltip="0.98x baseline (CRuby 3.4.0dev)"/>
<rect x="613.0456852791857" y="318.6449253620523" width="4.771573604060913" height="179.35507463794767" fill="#FFB000" data-tooltip="1.09x baseline (YJIT 3.3.4)"/>
<rect x="617.8172588832466" y="318.9517536390378" width="4.771573604060913" height="179.04824636096208" fill="#DC267F" data-tooltip="1.09x baseline (YJIT 3.4.0dev)"/>
<line x1="615.431472081216" y1="498.0" x2="615.431472081216" y2="502.79999999999995" stroke="#000"/>
<text x="615.431472081216" y="512.4" fill="#111" font-size="small" text-anchor="end" transform="rotate(-60, 615.431472081216, 512.4)">
rack
</text>
<rect x="627.3604060913683" y="322.08658642768927" width="4.771573604060913" height="175.91341357231067" fill="#785EF0" data-tooltip="1.07x baseline (CRuby 3.4.0dev)"/>
<rect x="632.1319796954292" y="328.6801936316872" width="4.771573604060913" height="169.31980636831275" fill="#FFB000" data-tooltip="1.03x baseline (YJIT 3.3.4)"/>
<rect x="636.9035532994901" y="313.98299284109646" width="4.771573604060913" height="184.01700715890354" fill="#DC267F" data-tooltip="1.12x baseline (YJIT 3.4.0dev)"/>
<line x1="634.5177664974597" y1="498.0" x2="634.5177664974597" y2="502.79999999999995" stroke="#000"/>
<text x="634.5177664974597" y="512.4" fill="#111" font-size="small" text-anchor="end" transform="rotate(-60, 634.5177664974597, 512.4)">
ruby-json
</text>
<rect x="646.4467005076119" y="327.06164613661804" width="4.771573604060913" height="170.93835386338185" fill="#785EF0" data-tooltip="1.04x baseline (CRuby 3.4.0dev)"/>
<rect x="651.2182741116727" y="320.26964495092545" width="4.771573604060913" height="177.7303550490745" fill="#FFB000" data-tooltip="1.08x baseline (YJIT 3.3.4)"/>
<rect x="655.9898477157336" y="300.5007476450826" width="4.771573604060913" height="197.49925235491727" fill="#DC267F" data-tooltip="1.20x baseline (YJIT 3.4.0dev)"/>
<line x1="653.6040609137032" y1="498.0" x2="653.6040609137032" y2="502.79999999999995" stroke="#000"/>
<text x="653.6040609137032" y="512.4" fill="#111" font-size="small" text-anchor="end" transform="rotate(-60, 653.6040609137032, 512.4)">
rubykon
</text>
<rect x="665.5329949238554" y="320.69290916833586" width="4.771573604060913" height="177.30709083166408" fill="#785EF0" data-tooltip="1.08x baseline (CRuby 3.4.0dev)"/>
<rect x="670.3045685279163" y="327.849031591565" width="4.771573604060913" height="170.15096840843492" fill="#FFB000" data-tooltip="1.03x baseline (YJIT 3.3.4)"/>
<rect x="675.0761421319772" y="312.1467485765657" width="4.771573604060913" height="185.85325142343424" fill="#DC267F" data-tooltip="1.13x baseline (YJIT 3.4.0dev)"/>
<line x1="672.6903553299467" y1="498.0" x2="672.6903553299467" y2="502.79999999999995" stroke="#000"/>
<text x="672.6903553299467" y="512.4" fill="#111" font-size="small" text-anchor="end" transform="rotate(-60, 672.6903553299467, 512.4)">
sudoku
</text>
<rect x="684.6192893400989" y="317.6874844175875" width="4.771573604060913" height="180.31251558241243" fill="#785EF0" data-tooltip="1.10x baseline (CRuby 3.4.0dev)"/>
<rect x="689.3908629441598" y="315.67529632994564" width="4.771573604060913" height="182.32470367005433" fill="#FFB000" data-tooltip="1.11x baseline (YJIT 3.3.4)"/>
<rect x="694.1624365482207" y="298.04307190094863" width="4.771573604060913" height="199.9569280990513" fill="#DC267F" data-tooltip="1.22x baseline (YJIT 3.4.0dev)"/>
<line x1="691.7766497461903" y1="498.0" x2="691.7766497461903" y2="502.79999999999995" stroke="#000"/>
<text x="691.7766497461903" y="512.4" fill="#111" font-size="small" text-anchor="end" transform="rotate(-60, 691.7766497461903, 512.4)">
tinygql
</text>
<rect x="703.7055837563425" y="149.99305711086222" width="4.771573604060913" height="348.0069428891377" fill="#785EF0" data-tooltip="2.12x baseline (CRuby 3.4.0dev)"/>
<rect x="708.4771573604035" y="223.0616461366181" width="4.771573604060913" height="274.93835386338185" fill="#FFB000" data-tooltip="1.67x baseline (YJIT 3.3.4)"/>
<rect x="713.2487309644642" y="100.19999999999999" width="4.771573604060913" height="397.79999999999995" fill="#DC267F" data-tooltip="2.42x baseline (YJIT 3.4.0dev)"/>
<line x1="710.8629441624338" y1="498.0" x2="710.8629441624338" y2="502.79999999999995" stroke="#000"/>
<text x="710.8629441624338" y="512.4" fill="#111" font-size="small" text-anchor="end" transform="rotate(-60, 710.8629441624338, 512.4)">
30k_ifelse
</text>
<rect x="722.791878172586" y="285.1976491945781" width="4.771573604060913" height="212.80235080542184" fill="#785EF0" data-tooltip="1.29x baseline (CRuby 3.4.0dev)"/>
<rect x="727.563451776647" y="290.6144930714473" width="4.771573604060913" height="207.38550692855264" fill="#FFB000" data-tooltip="1.26x baseline (YJIT 3.3.4)"/>
<rect x="732.3350253807079" y="263.9361467153392" width="4.771573604060913" height="234.06385328466075" fill="#DC267F" data-tooltip="1.42x baseline (YJIT 3.4.0dev)"/>
<line x1="729.9492385786773" y1="498.0" x2="729.9492385786773" y2="502.79999999999995" stroke="#000"/>
<text x="729.9492385786773" y="512.4" fill="#111" font-size="small" text-anchor="end" transform="rotate(-60, 729.9492385786773, 512.4)">
30k_methods
</text>
<rect x="741.8781725888296" y="323.3133803456311" width="4.771573604060913" height="174.6866196543688" fill="#785EF0" data-tooltip="1.06x baseline (CRuby 3.4.0dev)"/>
<rect x="746.6497461928905" y="328.0728062104658" width="4.771573604060913" height="169.92719378953421" fill="#FFB000" data-tooltip="1.03x baseline (YJIT 3.3.4)"/>
<rect x="751.4213197969514" y="313.5330217003116" width="4.771573604060913" height="184.46697829968826" fill="#DC267F" data-tooltip="1.12x baseline (YJIT 3.4.0dev)"/>
<line x1="749.0355329949209" y1="498.0" x2="749.0355329949209" y2="502.79999999999995" stroke="#000"/>
<text x="749.0355329949209" y="512.4" fill="#111" font-size="small" text-anchor="end" transform="rotate(-60, 749.0355329949209, 512.4)">
cfunc_itself
</text>
<rect x="760.9644670050732" y="323.4189358695897" width="4.771573604060913" height="174.58106413041028" fill="#785EF0" data-tooltip="1.06x baseline (CRuby 3.4.0dev)"/>
<rect x="765.7360406091341" y="327.2564600133777" width="4.771573604060913" height="170.74353998662224" fill="#FFB000" data-tooltip="1.04x baseline (YJIT 3.3.4)"/>
<rect x="770.5076142131949" y="312.5371893248757" width="4.771573604060913" height="185.46281067512416" fill="#DC267F" data-tooltip="1.13x baseline (YJIT 3.4.0dev)"/>
<line x1="768.1218274111644" y1="498.0" x2="768.1218274111644" y2="502.79999999999995" stroke="#000"/>
<text x="768.1218274111644" y="512.4" fill="#111" font-size="small" text-anchor="end" transform="rotate(-60, 768.1218274111644, 512.4)">
fib
</text>
<rect x="780.0507614213167" y="324.25774781820024" width="4.771573604060913" height="173.74225218179964" fill="#785EF0" data-tooltip="1.06x baseline (CRuby 3.4.0dev)"/>
<rect x="784.8223350253776" y="328.0745351818089" width="4.771573604060913" height="169.92546481819105" fill="#FFB000" data-tooltip="1.03x baseline (YJIT 3.3.4)"/>
<rect x="789.5939086294385" y="313.5916571034585" width="4.771573604060913" height="184.4083428965415" fill="#DC267F" data-tooltip="1.12x baseline (YJIT 3.4.0dev)"/>
<line x1="787.2081218274079" y1="498.0" x2="787.2081218274079" y2="502.79999999999995" stroke="#000"/>
<text x="787.2081218274079" y="512.4" fill="#111" font-size="small" text-anchor="end" transform="rotate(-60, 787.2081218274079, 512.4)">
getivar
</text>
<rect x="799.1370558375602" y="323.26122939792714" width="4.771573604060913" height="174.73877060207278" fill="#785EF0" data-tooltip="1.06x baseline (CRuby 3.4.0dev)"/>
<rect x="803.9086294416211" y="327.1513223656027" width="4.771573604060913" height="170.84867763439726" fill="#FFB000" data-tooltip="1.04x baseline (YJIT 3.3.4)"/>
<rect x="808.680203045682" y="312.5897581487632" width="4.771573604060913" height="185.41024185123666" fill="#DC267F" data-tooltip="1.13x baseline (YJIT 3.4.0dev)"/>
<line x1="806.2944162436515" y1="498.0" x2="806.2944162436515" y2="502.79999999999995" stroke="#000"/>
<text x="806.2944162436515" y="512.4" fill="#111" font-size="small" text-anchor="end" transform="rotate(-60, 806.2944162436515, 512.4)">
keyword_args
</text>
<rect x="818.2233502538038" y="322.69126222523937" width="4.771573604060913" height="175.30873777476054" fill="#785EF0" data-tooltip="1.07x baseline (CRuby 3.4.0dev)"/>
<rect x="822.9949238578647" y="329.99147841727756" width="4.771573604060913" height="168.00852158272238" fill="#FFB000" data-tooltip="1.02x baseline (YJIT 3.3.4)"/>
<rect x="827.7664974619255" y="315.753468113657" width="4.771573604060913" height="182.2465318863429" fill="#DC267F" data-tooltip="1.11x baseline (YJIT 3.4.0dev)"/>
<line x1="825.380710659895" y1="498.0" x2="825.380710659895" y2="502.79999999999995" stroke="#000"/>
<text x="825.380710659895" y="512.4" fill="#111" font-size="small" text-anchor="end" transform="rotate(-60, 825.380710659895, 512.4)">
object-new
</text>
<rect x="837.3096446700473" y="323.3793204871453" width="4.771573604060913" height="174.6206795128547" fill="#785EF0" data-tooltip="1.06x baseline (CRuby 3.4.0dev)"/>
<rect x="842.0812182741082" y="327.474453680772" width="4.771573604060913" height="170.5255463192279" fill="#FFB000" data-tooltip="1.04x baseline (YJIT 3.3.4)"/>
<rect x="846.8527918781691" y="312.1964567660875" width="4.771573604060913" height="185.80354323391242" fill="#DC267F" data-tooltip="1.13x baseline (YJIT 3.4.0dev)"/>
<line x1="844.4670050761385" y1="498.0" x2="844.4670050761385" y2="502.79999999999995" stroke="#000"/>
<text x="844.4670050761385" y="512.4" fill="#111" font-size="small" text-anchor="end" transform="rotate(-60, 844.4670050761385, 512.4)">
respond_to
</text>
<rect x="856.3959390862908" y="312.42149482312334" width="4.771573604060913" height="185.57850517687663" fill="#785EF0" data-tooltip="1.13x baseline (CRuby 3.4.0dev)"/>
<rect x="861.1675126903517" y="329.99704085051303" width="4.771573604060913" height="168.00295914948688" fill="#FFB000" data-tooltip="1.02x baseline (YJIT 3.3.4)"/>
<rect x="865.9390862944126" y="305.6801894975492" width="4.771573604060913" height="192.31981050245076" fill="#DC267F" data-tooltip="1.17x baseline (YJIT 3.4.0dev)"/>
<line x1="863.5532994923822" y1="498.0" x2="863.5532994923822" y2="502.79999999999995" stroke="#000"/>
<text x="863.5532994923822" y="512.4" fill="#111" font-size="small" text-anchor="end" transform="rotate(-60, 863.5532994923822, 512.4)">
ruby-xor
</text>
<rect x="875.4822335025344" y="323.5825737793457" width="4.771573604060913" height="174.41742622065422" fill="#785EF0" data-tooltip="1.06x baseline (CRuby 3.4.0dev)"/>
<rect x="880.2538071065953" y="329.0932286763321" width="4.771573604060913" height="168.90677132366787" fill="#FFB000" data-tooltip="1.03x baseline (YJIT 3.3.4)"/>
<rect x="885.0253807106561" y="313.8609467440961" width="4.771573604060913" height="184.1390532559038" fill="#DC267F" data-tooltip="1.12x baseline (YJIT 3.4.0dev)"/>
<line x1="882.6395939086257" y1="498.0" x2="882.6395939086257" y2="502.79999999999995" stroke="#000"/>
<text x="882.6395939086257" y="512.4" fill="#111" font-size="small" text-anchor="end" transform="rotate(-60, 882.6395939086257, 512.4)">
setivar
</text>
<rect x="894.5685279187779" y="323.7596998532232" width="4.771573604060913" height="174.24030014677672" fill="#785EF0" data-tooltip="1.06x baseline (CRuby 3.4.0dev)"/>
<rect x="899.3401015228388" y="328.3490881839375" width="4.771573604060913" height="169.6509118160625" fill="#FFB000" data-tooltip="1.03x baseline (YJIT 3.3.4)"/>
<rect x="904.1116751268997" y="314.8938360325252" width="4.771573604060913" height="183.10616396747474" fill="#DC267F" data-tooltip="1.11x baseline (YJIT 3.4.0dev)"/>
<line x1="901.7258883248692" y1="498.0" x2="901.7258883248692" y2="502.79999999999995" stroke="#000"/>
<text x="901.7258883248692" y="512.4" fill="#111" font-size="small" text-anchor="end" transform="rotate(-60, 901.7258883248692, 512.4)">
setivar_object
</text>
<rect x="913.6548223350214" y="323.31662216689955" width="4.771573604060913" height="174.6833778331004" fill="#785EF0" data-tooltip="1.06x baseline (CRuby 3.4.0dev)"/>
<rect x="918.4263959390823" y="328.0745351818089" width="4.771573604060913" height="169.92546481819105" fill="#FFB000" data-tooltip="1.03x baseline (YJIT 3.3.4)"/>
<rect x="923.1979695431432" y="314.42821323794806" width="4.771573604060913" height="183.57178676205194" fill="#DC267F" data-tooltip="1.12x baseline (YJIT 3.4.0dev)"/>
<line x1="920.8121827411128" y1="498.0" x2="920.8121827411128" y2="502.79999999999995" stroke="#000"/>
<text x="920.8121827411128" y="512.4" fill="#111" font-size="small" text-anchor="end" transform="rotate(-60, 920.8121827411128, 512.4)">
setivar_young
</text>
<rect x="932.741116751265" y="329.2743266307533" width="4.771573604060913" height="168.72567336924666" fill="#785EF0" data-tooltip="1.03x baseline (CRuby 3.4.0dev)"/>
<rect x="937.512690355326" y="276.1759066386445" width="4.771573604060913" height="221.82409336135544" fill="#FFB000" data-tooltip="1.35x baseline (YJIT 3.3.4)"/>
<rect x="942.2842639593867" y="198.8063161201743" width="4.771573604060913" height="299.19368387982564" fill="#DC267F" data-tooltip="1.82x baseline (YJIT 3.4.0dev)"/>
<line x1="939.8984771573563" y1="498.0" x2="939.8984771573563" y2="502.79999999999995" stroke="#000"/>
<text x="939.8984771573563" y="512.4" fill="#111" font-size="small" text-anchor="end" transform="rotate(-60, 939.8984771573563, 512.4)">
str_concat
</text>
<rect x="951.8274111675086" y="322.63948764231714" width="4.771573604060913" height="175.36051235768278" fill="#785EF0" data-tooltip="1.07x baseline (CRuby 3.4.0dev)"/>
<rect x="956.5989847715695" y="329.8361546685108" width="4.771573604060913" height="168.1638453314891" fill="#FFB000" data-tooltip="1.02x baseline (YJIT 3.3.4)"/>
<rect x="961.3705583756304" y="315.2357222844344" width="4.771573604060913" height="182.76427771556553" fill="#DC267F" data-tooltip="1.11x baseline (YJIT 3.4.0dev)"/>
<line x1="958.9847715735998" y1="498.0" x2="958.9847715735998" y2="502.79999999999995" stroke="#000"/>
<text x="958.9847715735998" y="512.4" fill="#111" font-size="small" text-anchor="end" transform="rotate(-60, 958.9847715735998, 512.4)">
throw
</text>
<rect x="970.9137055837521" y="321.7037598557861" width="4.771573604060913" height="176.2962401442139" fill="#785EF0" data-tooltip="1.07x baseline (CRuby 3.4.0dev)"/>
<rect x="975.685279187813" y="316.9365759745875" width="4.771573604060913" height="181.06342402541242" fill="#FFB000" data-tooltip="1.10x baseline (YJIT 3.3.4)"/>
<rect x="980.4568527918739" y="292.77839308627324" width="4.771573604060913" height="205.22160691372673" fill="#DC267F" data-tooltip="1.25x baseline (YJIT 3.4.0dev)"/>
<line x1="978.0710659898434" y1="498.0" x2="978.0710659898434" y2="502.79999999999995" stroke="#000"/>
<text x="978.0710659898434" y="512.4" fill="#111" font-size="small" text-anchor="end" transform="rotate(-60, 978.0710659898434, 512.4)" font-style="italic">
geomean*
</text>
<line x1="50.0" y1="333.512150055991" x2="990.0" y2="333.512150055991" stroke="#648FFF" stroke-width="2"/>
<rect x="56.596573604060914" y="337.06669393511913" width="17.85" height="7.2" transform="rotate(-60, 59.15736040609138, 343.7266939351191)" fill="#fffa"/>
<text x="56.77157360406092" y="343.7266939351191" fill="#111" font-size="0.5em" text-anchor="start" textLength="17.5" transform="rotate(-60, 59.15736040609138, 343.7266939351191)" style="text-shadow: 0 0 1px #fff;">
0.89
</text>
<rect x="61.36814720812183" y="314.3762684514991" width="17.85" height="7.2" transform="rotate(-60, 63.92893401015229, 321.0362684514991)" fill="#fffa"/>
<text x="61.54314720812183" y="321.0362684514991" fill="#111" font-size="0.5em" text-anchor="start" textLength="17.5" transform="rotate(-60, 63.92893401015229, 321.0362684514991)" style="text-shadow: 0 0 1px #fff;">
1.03
</text>
<rect x="66.13972081218274" y="310.04897426592254" width="17.85" height="7.2" transform="rotate(-60, 68.70050761421321, 316.70897426592256)" fill="#fffa"/>
<text x="66.31472081218274" y="316.70897426592256" fill="#111" font-size="0.5em" text-anchor="start" textLength="17.5" transform="rotate(-60, 68.70050761421321, 316.70897426592256)" style="text-shadow: 0 0 1px #fff;">
1.06
</text>
<rect x="75.68286802030458" y="354.10675726585737" width="17.85" height="7.2" transform="rotate(-60, 78.24365482233503, 360.76675726585734)" fill="#fffa"/>
<text x="75.85786802030458" y="360.76675726585734" fill="#111" font-size="0.5em" text-anchor="start" textLength="17.5" transform="rotate(-60, 78.24365482233503, 360.76675726585734)" style="text-shadow: 0 0 1px #fff;">
0.79
</text>
<rect x="80.45444162436549" y="376.87880587053087" width="17.85" height="7.2" transform="rotate(-60, 83.01522842639594, 383.5388058705309)" fill="#fffa"/>
<text x="80.62944162436548" y="383.5388058705309" fill="#111" font-size="0.5em" text-anchor="start" textLength="17.5" transform="rotate(-60, 83.01522842639594, 383.5388058705309)" style="text-shadow: 0 0 1px #fff;">
0.65
</text>
<rect x="85.2260152284264" y="302.79183908323006" width="17.85" height="7.2" transform="rotate(-60, 87.78680203045685, 309.4518390832301)" fill="#fffa"/>
<text x="85.4010152284264" y="309.4518390832301" fill="#111" font-size="0.5em" text-anchor="start" textLength="17.5" transform="rotate(-60, 87.78680203045685, 309.4518390832301)" style="text-shadow: 0 0 1px #fff;">
1.10
</text>
<rect x="94.76916243654823" y="307.83832673054286" width="17.85" height="7.2" transform="rotate(-60, 97.32994923857868, 314.4983267305429)" fill="#fffa"/>
<text x="94.94416243654823" y="314.4983267305429" fill="#111" font-size="0.5em" text-anchor="start" textLength="17.5" transform="rotate(-60, 97.32994923857868, 314.4983267305429)" style="text-shadow: 0 0 1px #fff;">
1.07
</text>
<rect x="99.54073604060915" y="307.6361009384245" width="17.85" height="7.2" transform="rotate(-60, 102.1015228426396, 314.2961009384245)" fill="#fffa"/>
<text x="99.71573604060914" y="314.2961009384245" fill="#111" font-size="0.5em" text-anchor="start" textLength="17.5" transform="rotate(-60, 102.1015228426396, 314.2961009384245)" style="text-shadow: 0 0 1px #fff;">
1.07
</text>
<rect x="104.31230964467007" y="290.60999392458893" width="17.85" height="7.2" transform="rotate(-60, 106.87309644670052, 297.26999392458896)" fill="#fffa"/>
<text x="104.48730964467005" y="297.26999392458896" fill="#111" font-size="0.5em" text-anchor="start" textLength="17.5" transform="rotate(-60, 106.87309644670052, 297.26999392458896)" style="text-shadow: 0 0 1px #fff;">
1.17
</text>
<rect x="113.85545685279189" y="301.30702927091454" width="17.85" height="7.2" transform="rotate(-60, 116.41624365482234, 307.9670292709145)" fill="#fffa"/>
<text x="114.03045685279189" y="307.9670292709145" fill="#111" font-size="0.5em" text-anchor="start" textLength="17.5" transform="rotate(-60, 116.41624365482234, 307.9670292709145)" style="text-shadow: 0 0 1px #fff;">
1.11
</text>
<rect x="118.6270304568528" y="152.2061223405795" width="17.85" height="7.2" transform="rotate(-60, 121.18781725888326, 158.8661223405795)" fill="#fffa"/>
<text x="118.80203045685279" y="158.8661223405795" fill="#111" font-size="0.5em" text-anchor="start" textLength="17.5" transform="rotate(-60, 121.18781725888326, 158.8661223405795)" style="text-shadow: 0 0 1px #fff;">
2.02
</text>
<rect x="123.39860406091371" y="152.14895722721602" width="17.85" height="7.2" transform="rotate(-60, 125.95939086294416, 158.808957227216)" fill="#fffa"/>
<text x="123.57360406091371" y="158.808957227216" fill="#111" font-size="0.5em" text-anchor="start" textLength="17.5" transform="rotate(-60, 125.95939086294416, 158.808957227216)" style="text-shadow: 0 0 1px #fff;">
2.02
</text>
<rect x="132.9417512690355" y="309.2622777605269" width="17.85" height="7.2" transform="rotate(-60, 135.502538071066, 315.9222777605269)" fill="#fffa"/>
<text x="133.11675126903552" y="315.9222777605269" fill="#111" font-size="0.5em" text-anchor="start" textLength="17.5" transform="rotate(-60, 135.502538071066, 315.9222777605269)" style="text-shadow: 0 0 1px #fff;">
1.06
</text>
<rect x="137.71332487309644" y="296.9939103103604" width="17.85" height="7.2" transform="rotate(-60, 140.27411167512687, 303.6539103103604)" fill="#fffa"/>
<text x="137.88832487309642" y="303.6539103103604" fill="#111" font-size="0.5em" text-anchor="start" textLength="17.5" transform="rotate(-60, 140.27411167512687, 303.6539103103604)" style="text-shadow: 0 0 1px #fff;">
1.14
</text>
<rect x="142.48489847715734" y="292.24708402590335" width="17.85" height="7.2" transform="rotate(-60, 145.0456852791878, 298.9070840259034)" fill="#fffa"/>
<text x="142.65989847715736" y="298.9070840259034" fill="#111" font-size="0.5em" text-anchor="start" textLength="17.5" transform="rotate(-60, 145.0456852791878, 298.9070840259034)" style="text-shadow: 0 0 1px #fff;">
1.16
</text>
<rect x="152.02804568527915" y="303.38323237098916" width="17.85" height="7.2" transform="rotate(-60, 154.58883248730965, 310.0432323709892)" fill="#fffa"/>
<text x="152.20304568527916" y="310.0432323709892" fill="#111" font-size="0.5em" text-anchor="start" textLength="17.5" transform="rotate(-60, 154.58883248730965, 310.0432323709892)" style="text-shadow: 0 0 1px #fff;">
1.10
</text>
<rect x="156.7996192893401" y="296.1052448451035" width="17.85" height="7.2" transform="rotate(-60, 159.36040609137052, 302.7652448451035)" fill="#fffa"/>
<text x="156.9746192893401" y="302.7652448451035" fill="#111" font-size="0.5em" text-anchor="start" textLength="17.5" transform="rotate(-60, 159.36040609137052, 302.7652448451035)" style="text-shadow: 0 0 1px #fff;">
1.14
</text>
<rect x="161.571192893401" y="284.32183646986005" width="17.85" height="7.2" transform="rotate(-60, 164.13197969543148, 290.98183646986007)" fill="#fffa"/>
<text x="161.746192893401" y="290.98183646986007" fill="#111" font-size="0.5em" text-anchor="start" textLength="17.5" transform="rotate(-60, 164.13197969543148, 290.98183646986007)" style="text-shadow: 0 0 1px #fff;">
1.21
</text>
<rect x="171.11434010152283" y="309.2799427340492" width="17.85" height="7.2" transform="rotate(-60, 173.6751269035533, 315.93994273404917)" fill="#fffa"/>
<text x="171.28934010152284" y="315.93994273404917" fill="#111" font-size="0.5em" text-anchor="start" textLength="17.5" transform="rotate(-60, 173.6751269035533, 315.93994273404917)" style="text-shadow: 0 0 1px #fff;">
1.06
</text>
<rect x="175.88591370558373" y="280.92854434636087" width="17.85" height="7.2" transform="rotate(-60, 178.4467005076142, 287.58854434636083)" fill="#fffa"/>
<text x="176.06091370558374" y="287.58854434636083" fill="#111" font-size="0.5em" text-anchor="start" textLength="17.5" transform="rotate(-60, 178.4467005076142, 287.58854434636083)" style="text-shadow: 0 0 1px #fff;">
1.23
</text>
<rect x="180.65748730964464" y="261.48047983831503" width="17.85" height="7.2" transform="rotate(-60, 183.21827411167513, 268.14047983831506)" fill="#fffa"/>
<text x="180.83248730964465" y="268.14047983831506" fill="#111" font-size="0.5em" text-anchor="start" textLength="17.5" transform="rotate(-60, 183.21827411167513, 268.14047983831506)" style="text-shadow: 0 0 1px #fff;">
1.35
</text>
<rect x="190.20063451776647" y="321.7813410063592" width="17.85" height="7.2" transform="rotate(-60, 192.76142131979697, 328.44134100635915)" fill="#fffa"/>
<text x="190.37563451776649" y="328.44134100635915" fill="#111" font-size="0.5em" text-anchor="start" textLength="17.5" transform="rotate(-60, 192.76142131979697, 328.44134100635915)" style="text-shadow: 0 0 1px #fff;">
0.99
</text>
<rect x="194.97220812182738" y="292.84186696252596" width="17.85" height="7.2" transform="rotate(-60, 197.53299492385784, 299.5018669625259)" fill="#fffa"/>
<text x="195.1472081218274" y="299.5018669625259" fill="#111" font-size="0.5em" text-anchor="start" textLength="17.5" transform="rotate(-60, 197.53299492385784, 299.5018669625259)" style="text-shadow: 0 0 1px #fff;">
1.16
</text>
<rect x="199.7437817258883" y="283.40060312090793" width="17.85" height="7.2" transform="rotate(-60, 202.30456852791878, 290.0606031209079)" fill="#fffa"/>
<text x="199.91878172588832" y="290.0606031209079" fill="#111" font-size="0.5em" text-anchor="start" textLength="17.5" transform="rotate(-60, 202.30456852791878, 290.0606031209079)" style="text-shadow: 0 0 1px #fff;">
1.22
</text>
<rect x="209.28692893401012" y="307.15778118219083" width="17.85" height="7.2" transform="rotate(-60, 211.8477157360406, 313.81778118219086)" fill="#fffa"/>
<text x="209.46192893401013" y="313.81778118219086" fill="#111" font-size="0.5em" text-anchor="start" textLength="17.5" transform="rotate(-60, 211.8477157360406, 313.81778118219086)" style="text-shadow: 0 0 1px #fff;">
1.07
</text>
<rect x="214.05850253807105" y="299.27657920734947" width="17.85" height="7.2" transform="rotate(-60, 216.6192893401015, 305.9365792073495)" fill="#fffa"/>
<text x="214.23350253807106" y="305.9365792073495" fill="#111" font-size="0.5em" text-anchor="start" textLength="17.5" transform="rotate(-60, 216.6192893401015, 305.9365792073495)" style="text-shadow: 0 0 1px #fff;">
1.12
</text>
<rect x="218.83007614213196" y="281.43640382793564" width="17.85" height="7.2" transform="rotate(-60, 221.39086294416245, 288.0964038279356)" fill="#fffa"/>
<text x="219.00507614213197" y="288.0964038279356" fill="#111" font-size="0.5em" text-anchor="start" textLength="17.5" transform="rotate(-60, 221.39086294416245, 288.0964038279356)" style="text-shadow: 0 0 1px #fff;">
1.23
</text>
<rect x="228.3732233502538" y="320.88193076849075" width="17.85" height="7.2" transform="rotate(-60, 230.93401015228426, 327.5419307684907)" fill="#fffa"/>
<text x="228.5482233502538" y="327.5419307684907" fill="#111" font-size="0.5em" text-anchor="start" textLength="17.5" transform="rotate(-60, 230.93401015228426, 327.5419307684907)" style="text-shadow: 0 0 1px #fff;">
0.99
</text>
<rect x="233.1447969543147" y="316.4382820321822" width="17.85" height="7.2" transform="rotate(-60, 235.70558375634516, 323.09828203218217)" fill="#fffa"/>
<text x="233.3197969543147" y="323.09828203218217" fill="#111" font-size="0.5em" text-anchor="start" textLength="17.5" transform="rotate(-60, 235.70558375634516, 323.09828203218217)" style="text-shadow: 0 0 1px #fff;">
1.02
</text>
<rect x="237.9163705583756" y="315.6369683256347" width="17.85" height="7.2" transform="rotate(-60, 240.4771573604061, 322.29696832563474)" fill="#fffa"/>
<text x="238.09137055837562" y="322.29696832563474" fill="#111" font-size="0.5em" text-anchor="start" textLength="17.5" transform="rotate(-60, 240.4771573604061, 322.29696832563474)" style="text-shadow: 0 0 1px #fff;">
1.02
</text>
<rect x="247.45951776649744" y="322.4725688468485" width="17.85" height="7.2" transform="rotate(-60, 250.0203045685279, 329.13256884684847)" fill="#fffa"/>
<text x="247.63451776649745" y="329.13256884684847" fill="#111" font-size="0.5em" text-anchor="start" textLength="17.5" transform="rotate(-60, 250.0203045685279, 329.13256884684847)" style="text-shadow: 0 0 1px #fff;">
0.98
</text>
<rect x="252.23109137055837" y="293.2986115741662" width="17.85" height="7.2" transform="rotate(-60, 254.7918781725888, 299.9586115741662)" fill="#fffa"/>
<text x="252.40609137055836" y="299.9586115741662" fill="#111" font-size="0.5em" text-anchor="start" textLength="17.5" transform="rotate(-60, 254.7918781725888, 299.9586115741662)" style="text-shadow: 0 0 1px #fff;">
1.16
</text>
<rect x="257.0026649746193" y="275.4378044365384" width="17.85" height="7.2" transform="rotate(-60, 259.5634517766497, 282.09780443653835)" fill="#fffa"/>
<text x="257.17766497461923" y="282.09780443653835" fill="#111" font-size="0.5em" text-anchor="start" textLength="17.5" transform="rotate(-60, 259.5634517766497, 282.09780443653835)" style="text-shadow: 0 0 1px #fff;">
1.27
</text>
<rect x="266.54581218274103" y="319.49283148234247" width="17.85" height="7.2" transform="rotate(-60, 269.10659898477144, 326.15283148234244)" fill="#fffa"/>
<text x="266.72081218274104" y="326.15283148234244" fill="#111" font-size="0.5em" text-anchor="start" textLength="17.5" transform="rotate(-60, 269.10659898477144, 326.15283148234244)" style="text-shadow: 0 0 1px #fff;">
1.00
</text>
<rect x="271.31738578680194" y="245.5334793954776" width="17.85" height="7.2" transform="rotate(-60, 273.87817258883234, 252.1934793954776)" fill="#fffa"/>
<text x="271.4923857868019" y="252.1934793954776" fill="#111" font-size="0.5em" text-anchor="start" textLength="17.5" transform="rotate(-60, 273.87817258883234, 252.1934793954776)" style="text-shadow: 0 0 1px #fff;">
1.45
</text>
<rect x="276.0889593908628" y="231.30902406438875" width="17.85" height="7.2" transform="rotate(-60, 278.64974619289325, 237.96902406438875)" fill="#fffa"/>
<text x="276.2639593908628" y="237.96902406438875" fill="#111" font-size="0.5em" text-anchor="start" textLength="17.5" transform="rotate(-60, 278.64974619289325, 237.96902406438875)" style="text-shadow: 0 0 1px #fff;">
1.54
</text>
<rect x="285.6321065989846" y="323.5711462716072" width="17.85" height="7.2" transform="rotate(-60, 288.192893401015, 330.23114627160714)" fill="#fffa"/>
<text x="285.80710659898455" y="330.23114627160714" fill="#111" font-size="0.5em" text-anchor="start" textLength="17.5" transform="rotate(-60, 288.192893401015, 330.23114627160714)" style="text-shadow: 0 0 1px #fff;">
0.97
</text>
<rect x="290.40368020304544" y="307.84001465358114" width="17.85" height="7.2" transform="rotate(-60, 292.9644670050759, 314.50001465358116)" fill="#fffa"/>
<text x="290.57868020304545" y="314.50001465358116" fill="#111" font-size="0.5em" text-anchor="start" textLength="17.5" transform="rotate(-60, 292.9644670050759, 314.50001465358116)" style="text-shadow: 0 0 1px #fff;">
1.07
</text>
<rect x="295.17525380710634" y="303.82242780504225" width="17.85" height="7.2" transform="rotate(-60, 297.73604060913675, 310.4824278050422)" fill="#fffa"/>
<text x="295.35025380710636" y="310.4824278050422" fill="#111" font-size="0.5em" text-anchor="start" textLength="17.5" transform="rotate(-60, 297.73604060913675, 310.4824278050422)" style="text-shadow: 0 0 1px #fff;">
1.09
</text>
<rect x="304.7184010152281" y="313.1780467148934" width="17.85" height="7.2" transform="rotate(-60, 307.27918781725856, 319.83804671489344)" fill="#fffa"/>
<text x="304.8934010152281" y="319.83804671489344" fill="#111" font-size="0.5em" text-anchor="start" textLength="17.5" transform="rotate(-60, 307.27918781725856, 319.83804671489344)" style="text-shadow: 0 0 1px #fff;">
1.04
</text>
<rect x="309.489974619289" y="305.3221087719198" width="17.85" height="7.2" transform="rotate(-60, 312.0507614213194, 311.98210877191974)" fill="#fffa"/>
<text x="309.664974619289" y="311.98210877191974" fill="#111" font-size="0.5em" text-anchor="start" textLength="17.5" transform="rotate(-60, 312.0507614213194, 311.98210877191974)" style="text-shadow: 0 0 1px #fff;">
1.09
</text>
<rect x="314.2615482233499" y="296.27118308550786" width="17.85" height="7.2" transform="rotate(-60, 316.8223350253803, 302.9311830855078)" fill="#fffa"/>
<text x="314.43654822334986" y="302.9311830855078" fill="#111" font-size="0.5em" text-anchor="start" textLength="17.5" transform="rotate(-60, 316.8223350253803, 302.9311830855078)" style="text-shadow: 0 0 1px #fff;">
1.14
</text>
<rect x="323.80469543147166" y="287.3523130510386" width="17.85" height="7.2" transform="rotate(-60, 326.36548223350206, 294.0123130510386)" fill="#fffa"/>
<text x="323.97969543147167" y="294.0123130510386" fill="#111" font-size="0.5em" text-anchor="start" textLength="17.5" transform="rotate(-60, 326.36548223350206, 294.0123130510386)" style="text-shadow: 0 0 1px #fff;">
1.19
</text>
<rect x="328.57626903553256" y="301.61468384283864" width="17.85" height="7.2" transform="rotate(-60, 331.13705583756297, 308.27468384283867)" fill="#fffa"/>
<text x="328.7512690355325" y="308.27468384283867" fill="#111" font-size="0.5em" text-anchor="start" textLength="17.5" transform="rotate(-60, 331.13705583756297, 308.27468384283867)" style="text-shadow: 0 0 1px #fff;">
1.11
</text>
<rect x="333.34784263959347" y="282.0672720977319" width="17.85" height="7.2" transform="rotate(-60, 335.9086294416239, 288.72727209773194)" fill="#fffa"/>
<text x="333.5228426395934" y="288.72727209773194" fill="#111" font-size="0.5em" text-anchor="start" textLength="17.5" transform="rotate(-60, 335.9086294416239, 288.72727209773194)" style="text-shadow: 0 0 1px #fff;">
1.23
</text>
<rect x="342.8909898477152" y="310.84415781750783" width="17.85" height="7.2" transform="rotate(-60, 345.4517766497456, 317.5041578175078)" fill="#fffa"/>
<text x="343.0659898477152" y="317.5041578175078" fill="#111" font-size="0.5em" text-anchor="start" textLength="17.5" transform="rotate(-60, 345.4517766497456, 317.5041578175078)" style="text-shadow: 0 0 1px #fff;">
1.05
</text>
<rect x="347.6625634517761" y="312.2621565239217" width="17.85" height="7.2" transform="rotate(-60, 350.22335025380653, 318.92215652392167)" fill="#fffa"/>
<text x="347.8375634517761" y="318.92215652392167" fill="#111" font-size="0.5em" text-anchor="start" textLength="17.5" transform="rotate(-60, 350.22335025380653, 318.92215652392167)" style="text-shadow: 0 0 1px #fff;">
1.04
</text>
<rect x="352.43413705583697" y="301.81623272000616" width="17.85" height="7.2" transform="rotate(-60, 354.99492385786743, 308.4762327200062)" fill="#fffa"/>
<text x="352.609137055837" y="308.4762327200062" fill="#111" font-size="0.5em" text-anchor="start" textLength="17.5" transform="rotate(-60, 354.99492385786743, 308.4762327200062)" style="text-shadow: 0 0 1px #fff;">
1.11
</text>
<rect x="361.9772842639588" y="313.6845225025786" width="17.85" height="7.2" transform="rotate(-60, 364.5380710659892, 320.34452250257857)" fill="#fffa"/>
<text x="362.15228426395873" y="320.34452250257857" fill="#111" font-size="0.5em" text-anchor="start" textLength="17.5" transform="rotate(-60, 364.5380710659892, 320.34452250257857)" style="text-shadow: 0 0 1px #fff;">
1.03
</text>
<rect x="366.7488578680196" y="304.5339953353373" width="17.85" height="7.2" transform="rotate(-60, 369.3096446700501, 311.19399533533726)" fill="#fffa"/>
<text x="366.92385786801964" y="311.19399533533726" fill="#111" font-size="0.5em" text-anchor="start" textLength="17.5" transform="rotate(-60, 369.3096446700501, 311.19399533533726)" style="text-shadow: 0 0 1px #fff;">
1.09
</text>
<rect x="371.52043147208053" y="150.96978508924613" width="17.85" height="7.2" transform="rotate(-60, 374.08121827411094, 157.62978508924613)" fill="#fffa"/>
<text x="371.6954314720805" y="157.62978508924613" fill="#111" font-size="0.5em" text-anchor="start" textLength="17.5" transform="rotate(-60, 374.08121827411094, 157.62978508924613)" style="text-shadow: 0 0 1px #fff;">
2.02
</text>
<rect x="381.0635786802023" y="271.2279958154063" width="17.85" height="7.2" transform="rotate(-60, 383.62436548223275, 277.8879958154063)" fill="#fffa"/>
<text x="381.2385786802023" y="277.8879958154063" fill="#111" font-size="0.5em" text-anchor="start" textLength="17.5" transform="rotate(-60, 383.62436548223275, 277.8879958154063)" style="text-shadow: 0 0 1px #fff;">
1.29
</text>
<rect x="385.8351522842632" y="311.75583294041377" width="17.85" height="7.2" transform="rotate(-60, 388.3959390862936, 318.4158329404138)" fill="#fffa"/>
<text x="386.01015228426314" y="318.4158329404138" fill="#111" font-size="0.5em" text-anchor="start" textLength="17.5" transform="rotate(-60, 388.3959390862936, 318.4158329404138)" style="text-shadow: 0 0 1px #fff;">
1.05
</text>
<rect x="390.6067258883241" y="266.13549272116455" width="17.85" height="7.2" transform="rotate(-60, 393.1675126903545, 272.7954927211646)" fill="#fffa"/>
<text x="390.78172588832405" y="272.7954927211646" fill="#111" font-size="0.5em" text-anchor="start" textLength="17.5" transform="rotate(-60, 393.1675126903545, 272.7954927211646)" style="text-shadow: 0 0 1px #fff;">
1.32
</text>
<rect x="400.14987309644584" y="309.3307212396255" width="17.85" height="7.2" transform="rotate(-60, 402.71065989847625, 315.99072123962554)" fill="#fffa"/>
<text x="400.3248730964458" y="315.99072123962554" fill="#111" font-size="0.5em" text-anchor="start" textLength="17.5" transform="rotate(-60, 402.71065989847625, 315.99072123962554)" style="text-shadow: 0 0 1px #fff;">
1.06
</text>
<rect x="404.92144670050675" y="314.2627333272609" width="17.85" height="7.2" transform="rotate(-60, 407.48223350253716, 320.9227333272609)" fill="#fffa"/>
<text x="405.0964467005067" y="320.9227333272609" fill="#111" font-size="0.5em" text-anchor="start" textLength="17.5" transform="rotate(-60, 407.48223350253716, 320.9227333272609)" style="text-shadow: 0 0 1px #fff;">
1.03
</text>
<rect x="409.6930203045676" y="301.5654256122848" width="17.85" height="7.2" transform="rotate(-60, 412.25380710659806, 308.2254256122848)" fill="#fffa"/>
<text x="409.8680203045676" y="308.2254256122848" fill="#111" font-size="0.5em" text-anchor="start" textLength="17.5" transform="rotate(-60, 412.25380710659806, 308.2254256122848)" style="text-shadow: 0 0 1px #fff;">
1.11
</text>
<rect x="419.2361675126894" y="270.13296703541346" width="17.85" height="7.2" transform="rotate(-60, 421.7969543147198, 276.7929670354135)" fill="#fffa"/>
<text x="419.41116751268936" y="276.7929670354135" fill="#111" font-size="0.5em" text-anchor="start" textLength="17.5" transform="rotate(-60, 421.7969543147198, 276.7929670354135)" style="text-shadow: 0 0 1px #fff;">
1.30
</text>
<rect x="424.00774111675025" y="305.6829808161112" width="17.85" height="7.2" transform="rotate(-60, 426.5685279187807, 312.3429808161112)" fill="#fffa"/>
<text x="424.18274111675026" y="312.3429808161112" fill="#111" font-size="0.5em" text-anchor="start" textLength="17.5" transform="rotate(-60, 426.5685279187807, 312.3429808161112)" style="text-shadow: 0 0 1px #fff;">
1.08
</text>
<rect x="428.77931472081116" y="285.6043446599239" width="17.85" height="7.2" transform="rotate(-60, 431.34010152284156, 292.2643446599239)" fill="#fffa"/>
<text x="428.9543147208111" y="292.2643446599239" fill="#111" font-size="0.5em" text-anchor="start" textLength="17.5" transform="rotate(-60, 431.34010152284156, 292.2643446599239)" style="text-shadow: 0 0 1px #fff;">
1.21
</text>
<rect x="438.3224619289329" y="305.90921375369254" width="17.85" height="7.2" transform="rotate(-60, 440.8832487309634, 312.56921375369257)" fill="#fffa"/>
<text x="438.4974619289329" y="312.56921375369257" fill="#111" font-size="0.5em" text-anchor="start" textLength="17.5" transform="rotate(-60, 440.8832487309634, 312.56921375369257)" style="text-shadow: 0 0 1px #fff;">
1.08
</text>
<rect x="443.0940355329938" y="309.02081625634264" width="17.85" height="7.2" transform="rotate(-60, 445.6548223350242, 315.68081625634267)" fill="#fffa"/>
<text x="443.26903553299377" y="315.68081625634267" fill="#111" font-size="0.5em" text-anchor="start" textLength="17.5" transform="rotate(-60, 445.6548223350242, 315.68081625634267)" style="text-shadow: 0 0 1px #fff;">
1.06
</text>
<rect x="447.8656091370547" y="288.2564623007499" width="17.85" height="7.2" transform="rotate(-60, 450.4263959390851, 294.9164623007499)" fill="#fffa"/>
<text x="448.0406091370547" y="294.9164623007499" fill="#111" font-size="0.5em" text-anchor="start" textLength="17.5" transform="rotate(-60, 450.4263959390851, 294.9164623007499)" style="text-shadow: 0 0 1px #fff;">
1.19
</text>
<rect x="457.40875634517647" y="282.5455230191206" width="17.85" height="7.2" transform="rotate(-60, 459.9695431472069, 289.2055230191206)" fill="#fffa"/>
<text x="457.5837563451764" y="289.2055230191206" fill="#111" font-size="0.5em" text-anchor="start" textLength="17.5" transform="rotate(-60, 459.9695431472069, 289.2055230191206)" style="text-shadow: 0 0 1px #fff;">
1.22
</text>
<rect x="462.1803299492374" y="303.9135708155854" width="17.85" height="7.2" transform="rotate(-60, 464.7411167512678, 310.5735708155854)" fill="#fffa"/>
<text x="462.35532994923733" y="310.5735708155854" fill="#111" font-size="0.5em" text-anchor="start" textLength="17.5" transform="rotate(-60, 464.7411167512678, 310.5735708155854)" style="text-shadow: 0 0 1px #fff;">
1.09
</text>
<rect x="466.9519035532982" y="251.07541768270337" width="17.85" height="7.2" transform="rotate(-60, 469.5126903553287, 257.73541768270337)" fill="#fffa"/>
<text x="467.12690355329823" y="257.73541768270337" fill="#111" font-size="0.5em" text-anchor="start" textLength="17.5" transform="rotate(-60, 469.5126903553287, 257.73541768270337)" style="text-shadow: 0 0 1px #fff;">
1.42
</text>
<rect x="476.49505076142003" y="291.44138247007874" width="17.85" height="7.2" transform="rotate(-60, 479.05583756345044, 298.1013824700787)" fill="#fffa"/>
<text x="476.67005076142" y="298.1013824700787" fill="#111" font-size="0.5em" text-anchor="start" textLength="17.5" transform="rotate(-60, 479.05583756345044, 298.1013824700787)" style="text-shadow: 0 0 1px #fff;">
1.17
</text>
<rect x="481.2666243654809" y="301.6684535918439" width="17.85" height="7.2" transform="rotate(-60, 483.82741116751134, 308.32845359184387)" fill="#fffa"/>
<text x="481.4416243654809" y="308.32845359184387" fill="#111" font-size="0.5em" text-anchor="start" textLength="17.5" transform="rotate(-60, 483.82741116751134, 308.32845359184387)" style="text-shadow: 0 0 1px #fff;">
1.11
</text>
<rect x="486.0381979695418" y="274.11135993521447" width="17.85" height="7.2" transform="rotate(-60, 488.5989847715722, 280.77135993521443)" fill="#fffa"/>
<text x="486.21319796954174" y="280.77135993521443" fill="#111" font-size="0.5em" text-anchor="start" textLength="17.5" transform="rotate(-60, 488.5989847715722, 280.77135993521443)" style="text-shadow: 0 0 1px #fff;">
1.28
</text>
<rect x="495.58134517766354" y="291.1604769256405" width="17.85" height="7.2" transform="rotate(-60, 498.142131979694, 297.82047692564055)" fill="#fffa"/>
<text x="495.75634517766355" y="297.82047692564055" fill="#111" font-size="0.5em" text-anchor="start" textLength="17.5" transform="rotate(-60, 498.142131979694, 297.82047692564055)" style="text-shadow: 0 0 1px #fff;">
1.17
</text>
<rect x="500.3529187817244" y="316.5111287327774" width="17.85" height="7.2" transform="rotate(-60, 502.9137055837549, 323.17112873277745)" fill="#fffa"/>
<text x="500.52791878172445" y="323.17112873277745" fill="#111" font-size="0.5em" text-anchor="start" textLength="17.5" transform="rotate(-60, 502.9137055837549, 323.17112873277745)" style="text-shadow: 0 0 1px #fff;">
1.02
</text>
<rect x="505.1244923857853" y="278.3394576208816" width="17.85" height="7.2" transform="rotate(-60, 507.6852791878158, 284.9994576208816)" fill="#fffa"/>
<text x="505.2994923857853" y="284.9994576208816" fill="#111" font-size="0.5em" text-anchor="start" textLength="17.5" transform="rotate(-60, 507.6852791878158, 284.9994576208816)" style="text-shadow: 0 0 1px #fff;">
1.25
</text>
<rect x="514.6676395939071" y="309.34667892882356" width="17.85" height="7.2" transform="rotate(-60, 517.2284263959376, 316.0066789288236)" fill="#fffa"/>
<text x="514.842639593907" y="316.0066789288236" fill="#111" font-size="0.5em" text-anchor="start" textLength="17.5" transform="rotate(-60, 517.2284263959376, 316.0066789288236)" style="text-shadow: 0 0 1px #fff;">
1.06
</text>
<rect x="519.4392131979679" y="313.2755288478685" width="17.85" height="7.2" transform="rotate(-60, 521.9999999999984, 319.93552884786845)" fill="#fffa"/>
<text x="519.614213197968" y="319.93552884786845" fill="#111" font-size="0.5em" text-anchor="start" textLength="17.5" transform="rotate(-60, 521.9999999999984, 319.93552884786845)" style="text-shadow: 0 0 1px #fff;">
1.04
</text>
<rect x="524.2107868020288" y="299.3935924672435" width="17.85" height="7.2" transform="rotate(-60, 526.7715736040593, 306.0535924672435)" fill="#fffa"/>
<text x="524.3857868020289" y="306.0535924672435" fill="#111" font-size="0.5em" text-anchor="start" textLength="17.5" transform="rotate(-60, 526.7715736040593, 306.0535924672435)" style="text-shadow: 0 0 1px #fff;">
1.12
</text>
<rect x="533.7539340101506" y="311.17821395447896" width="17.85" height="7.2" transform="rotate(-60, 536.3147208121811, 317.83821395447893)" fill="#fffa"/>
<text x="533.9289340101507" y="317.83821395447893" fill="#111" font-size="0.5em" text-anchor="start" textLength="17.5" transform="rotate(-60, 536.3147208121811, 317.83821395447893)" style="text-shadow: 0 0 1px #fff;">
1.05
</text>
<rect x="538.5255076142115" y="315.7192895664301" width="17.85" height="7.2" transform="rotate(-60, 541.086294416242, 322.3792895664301)" fill="#fffa"/>
<text x="538.7005076142115" y="322.3792895664301" fill="#111" font-size="0.5em" text-anchor="start" textLength="17.5" transform="rotate(-60, 541.086294416242, 322.3792895664301)" style="text-shadow: 0 0 1px #fff;">
1.02
</text>
<rect x="543.2970812182724" y="284.1335858655253" width="17.85" height="7.2" transform="rotate(-60, 545.8578680203029, 290.79358586552524)" fill="#fffa"/>
<text x="543.4720812182724" y="290.79358586552524" fill="#111" font-size="0.5em" text-anchor="start" textLength="17.5" transform="rotate(-60, 545.8578680203029, 290.79358586552524)" style="text-shadow: 0 0 1px #fff;">
1.21
</text>
<rect x="552.8402284263941" y="336.83488635211563" width="17.85" height="7.2" transform="rotate(-60, 555.4010152284246, 343.4948863521156)" fill="#fffa"/>
<text x="553.0152284263942" y="343.4948863521156" fill="#111" font-size="0.5em" text-anchor="start" textLength="17.5" transform="rotate(-60, 555.4010152284246, 343.4948863521156)" style="text-shadow: 0 0 1px #fff;">
0.89
</text>
<rect x="557.611802030455" y="302.6079504039548" width="17.85" height="7.2" transform="rotate(-60, 560.1725888324855, 309.26795040395484)" fill="#fffa"/>
<text x="557.7868020304551" y="309.26795040395484" fill="#111" font-size="0.5em" text-anchor="start" textLength="17.5" transform="rotate(-60, 560.1725888324855, 309.26795040395484)" style="text-shadow: 0 0 1px #fff;">
1.10
</text>
<rect x="562.3833756345159" y="323.22644064792996" width="17.85" height="7.2" transform="rotate(-60, 564.9441624365464, 329.88644064792993)" fill="#fffa"/>
<text x="562.558375634516" y="329.88644064792993" fill="#111" font-size="0.5em" text-anchor="start" textLength="17.5" transform="rotate(-60, 564.9441624365464, 329.88644064792993)" style="text-shadow: 0 0 1px #fff;">
0.98
</text>
<rect x="571.9265228426377" y="321.09686502298695" width="17.85" height="7.2" transform="rotate(-60, 574.4873096446682, 327.756865022987)" fill="#fffa"/>
<text x="572.1015228426377" y="327.756865022987" fill="#111" font-size="0.5em" text-anchor="start" textLength="17.5" transform="rotate(-60, 574.4873096446682, 327.756865022987)" style="text-shadow: 0 0 1px #fff;">
0.99
</text>
<rect x="576.6980964466985" y="280.3141526694562" width="17.85" height="7.2" transform="rotate(-60, 579.2588832487291, 286.97415266945615)" fill="#fffa"/>
<text x="576.8730964466986" y="286.97415266945615" fill="#111" font-size="0.5em" text-anchor="start" textLength="17.5" transform="rotate(-60, 579.2588832487291, 286.97415266945615)" style="text-shadow: 0 0 1px #fff;">
1.24
</text>
<rect x="581.4696700507594" y="272.5356317749325" width="17.85" height="7.2" transform="rotate(-60, 584.0304568527899, 279.19563177493245)" fill="#fffa"/>
<text x="581.6446700507595" y="279.19563177493245" fill="#111" font-size="0.5em" text-anchor="start" textLength="17.5" transform="rotate(-60, 584.0304568527899, 279.19563177493245)" style="text-shadow: 0 0 1px #fff;">
1.28
</text>
<rect x="591.0128172588812" y="343.81076843537744" width="17.85" height="7.2" transform="rotate(-60, 593.5736040609117, 350.4707684353774)" fill="#fffa"/>
<text x="591.1878172588813" y="350.4707684353774" fill="#111" font-size="0.5em" text-anchor="start" textLength="17.5" transform="rotate(-60, 593.5736040609117, 350.4707684353774)" style="text-shadow: 0 0 1px #fff;">
0.85
</text>
<rect x="595.7843908629421" y="303.68877465773994" width="17.85" height="7.2" transform="rotate(-60, 598.3451776649727, 310.3487746577399)" fill="#fffa"/>
<text x="595.9593908629421" y="310.3487746577399" fill="#111" font-size="0.5em" text-anchor="start" textLength="17.5" transform="rotate(-60, 598.3451776649727, 310.3487746577399)" style="text-shadow: 0 0 1px #fff;">
1.10
</text>
<rect x="600.555964467003" y="143.12237062888678" width="17.85" height="7.2" transform="rotate(-60, 603.1167512690336, 149.78237062888678)" fill="#fffa"/>
<text x="600.730964467003" y="149.78237062888678" fill="#111" font-size="0.5em" text-anchor="start" textLength="17.5" transform="rotate(-60, 603.1167512690336, 149.78237062888678)" style="text-shadow: 0 0 1px #fff;">
2.07
</text>
<rect x="610.0991116751247" y="323.45249157570777" width="17.85" height="7.2" transform="rotate(-60, 612.6598984771553, 330.1124915757078)" fill="#fffa"/>
<text x="610.2741116751248" y="330.1124915757078" fill="#111" font-size="0.5em" text-anchor="start" textLength="17.5" transform="rotate(-60, 612.6598984771553, 330.1124915757078)" style="text-shadow: 0 0 1px #fff;">
0.98
</text>
<rect x="614.8706852791856" y="304.4849253620523" width="17.85" height="7.2" transform="rotate(-60, 617.4314720812162, 311.14492536205233)" fill="#fffa"/>
<text x="615.0456852791857" y="311.14492536205233" fill="#111" font-size="0.5em" text-anchor="start" textLength="17.5" transform="rotate(-60, 617.4314720812162, 311.14492536205233)" style="text-shadow: 0 0 1px #fff;">
1.09
</text>
<rect x="619.6422588832465" y="304.79175363903784" width="17.85" height="7.2" transform="rotate(-60, 622.2030456852771, 311.45175363903786)" fill="#fffa"/>
<text x="619.8172588832466" y="311.45175363903786" fill="#111" font-size="0.5em" text-anchor="start" textLength="17.5" transform="rotate(-60, 622.2030456852771, 311.45175363903786)" style="text-shadow: 0 0 1px #fff;">
1.09
</text>
<rect x="629.1854060913683" y="307.9265864276893" width="17.85" height="7.2" transform="rotate(-60, 631.7461928933989, 314.5865864276893)" fill="#fffa"/>
<text x="629.3604060913683" y="314.5865864276893" fill="#111" font-size="0.5em" text-anchor="start" textLength="17.5" transform="rotate(-60, 631.7461928933989, 314.5865864276893)" style="text-shadow: 0 0 1px #fff;">
1.07
</text>
<rect x="633.9569796954291" y="314.5201936316872" width="17.85" height="7.2" transform="rotate(-60, 636.5177664974598, 321.1801936316872)" fill="#fffa"/>
<text x="634.1319796954292" y="321.1801936316872" fill="#111" font-size="0.5em" text-anchor="start" textLength="17.5" transform="rotate(-60, 636.5177664974598, 321.1801936316872)" style="text-shadow: 0 0 1px #fff;">
1.03
</text>
<rect x="638.72855329949" y="299.8229928410965" width="17.85" height="7.2" transform="rotate(-60, 641.2893401015206, 306.4829928410965)" fill="#fffa"/>
<text x="638.9035532994901" y="306.4829928410965" fill="#111" font-size="0.5em" text-anchor="start" textLength="17.5" transform="rotate(-60, 641.2893401015206, 306.4829928410965)" style="text-shadow: 0 0 1px #fff;">
1.12
</text>
<rect x="648.2717005076119" y="312.90164613661807" width="17.85" height="7.2" transform="rotate(-60, 650.8324873096424, 319.56164613661804)" fill="#fffa"/>
<text x="648.4467005076119" y="319.56164613661804" fill="#111" font-size="0.5em" text-anchor="start" textLength="17.5" transform="rotate(-60, 650.8324873096424, 319.56164613661804)" style="text-shadow: 0 0 1px #fff;">
1.04
</text>
<rect x="653.0432741116728" y="306.10964495092543" width="17.85" height="7.2" transform="rotate(-60, 655.6040609137033, 312.76964495092545)" fill="#fffa"/>
<text x="653.2182741116728" y="312.76964495092545" fill="#111" font-size="0.5em" text-anchor="start" textLength="17.5" transform="rotate(-60, 655.6040609137033, 312.76964495092545)" style="text-shadow: 0 0 1px #fff;">
1.08
</text>
<rect x="657.8148477157337" y="286.34074764508256" width="17.85" height="7.2" transform="rotate(-60, 660.3756345177642, 293.0007476450826)" fill="#fffa"/>
<text x="657.9898477157336" y="293.0007476450826" fill="#111" font-size="0.5em" text-anchor="start" textLength="17.5" transform="rotate(-60, 660.3756345177642, 293.0007476450826)" style="text-shadow: 0 0 1px #fff;">
1.20
</text>
<rect x="667.3579949238554" y="306.5329091683359" width="17.85" height="7.2" transform="rotate(-60, 669.9187817258859, 313.1929091683359)" fill="#fffa"/>
<text x="667.5329949238554" y="313.1929091683359" fill="#111" font-size="0.5em" text-anchor="start" textLength="17.5" transform="rotate(-60, 669.9187817258859, 313.1929091683359)" style="text-shadow: 0 0 1px #fff;">
1.08
</text>
<rect x="672.1295685279163" y="313.689031591565" width="17.85" height="7.2" transform="rotate(-60, 674.6903553299468, 320.34903159156505)" fill="#fffa"/>
<text x="672.3045685279163" y="320.34903159156505" fill="#111" font-size="0.5em" text-anchor="start" textLength="17.5" transform="rotate(-60, 674.6903553299468, 320.34903159156505)" style="text-shadow: 0 0 1px #fff;">
1.03
</text>
<rect x="676.9011421319772" y="297.98674857656573" width="17.85" height="7.2" transform="rotate(-60, 679.4619289340077, 304.64674857656576)" fill="#fffa"/>
<text x="677.0761421319772" y="304.64674857656576" fill="#111" font-size="0.5em" text-anchor="start" textLength="17.5" transform="rotate(-60, 679.4619289340077, 304.64674857656576)" style="text-shadow: 0 0 1px #fff;">
1.13
</text>
<rect x="686.444289340099" y="303.5274844175875" width="17.85" height="7.2" transform="rotate(-60, 689.0050761421295, 310.1874844175875)" fill="#fffa"/>
<text x="686.6192893400989" y="310.1874844175875" fill="#111" font-size="0.5em" text-anchor="start" textLength="17.5" transform="rotate(-60, 689.0050761421295, 310.1874844175875)" style="text-shadow: 0 0 1px #fff;">
1.10
</text>
<rect x="691.2158629441598" y="301.51529632994567" width="17.85" height="7.2" transform="rotate(-60, 693.7766497461904, 308.17529632994564)" fill="#fffa"/>
<text x="691.3908629441598" y="308.17529632994564" fill="#111" font-size="0.5em" text-anchor="start" textLength="17.5" transform="rotate(-60, 693.7766497461904, 308.17529632994564)" style="text-shadow: 0 0 1px #fff;">
1.11
</text>
<rect x="695.9874365482207" y="283.8830719009486" width="17.85" height="7.2" transform="rotate(-60, 698.5482233502512, 290.54307190094863)" fill="#fffa"/>
<text x="696.1624365482207" y="290.54307190094863" fill="#111" font-size="0.5em" text-anchor="start" textLength="17.5" transform="rotate(-60, 698.5482233502512, 290.54307190094863)" style="text-shadow: 0 0 1px #fff;">
1.22
</text>
<rect x="705.5305837563425" y="135.83305711086223" width="17.85" height="7.2" transform="rotate(-60, 708.091370558373, 142.49305711086222)" fill="#fffa"/>
<text x="705.7055837563425" y="142.49305711086222" fill="#111" font-size="0.5em" text-anchor="start" textLength="17.5" transform="rotate(-60, 708.091370558373, 142.49305711086222)" style="text-shadow: 0 0 1px #fff;">
2.12
</text>
<rect x="710.3021573604034" y="208.9016461366181" width="17.85" height="7.2" transform="rotate(-60, 712.8629441624339, 215.5616461366181)" fill="#fffa"/>
<text x="710.4771573604035" y="215.5616461366181" fill="#111" font-size="0.5em" text-anchor="start" textLength="17.5" transform="rotate(-60, 712.8629441624339, 215.5616461366181)" style="text-shadow: 0 0 1px #fff;">
1.67
</text>
<rect x="715.0737309644643" y="86.03999999999998" width="17.85" height="7.2" transform="rotate(-60, 717.6345177664948, 92.69999999999999)" fill="#fffa"/>
<text x="715.2487309644642" y="92.69999999999999" fill="#111" font-size="0.5em" text-anchor="start" textLength="17.5" transform="rotate(-60, 717.6345177664948, 92.69999999999999)" style="text-shadow: 0 0 1px #fff;">
2.42
</text>
<rect x="724.616878172586" y="271.0376491945781" width="17.85" height="7.2" transform="rotate(-60, 727.1776649746165, 277.6976491945781)" fill="#fffa"/>
<text x="724.791878172586" y="277.6976491945781" fill="#111" font-size="0.5em" text-anchor="start" textLength="17.5" transform="rotate(-60, 727.1776649746165, 277.6976491945781)" style="text-shadow: 0 0 1px #fff;">
1.29
</text>
<rect x="729.3884517766469" y="276.4544930714473" width="17.85" height="7.2" transform="rotate(-60, 731.9492385786774, 283.11449307144727)" fill="#fffa"/>
<text x="729.563451776647" y="283.11449307144727" fill="#111" font-size="0.5em" text-anchor="start" textLength="17.5" transform="rotate(-60, 731.9492385786774, 283.11449307144727)" style="text-shadow: 0 0 1px #fff;">
1.26
</text>
<rect x="734.1600253807078" y="249.7761467153392" width="17.85" height="7.2" transform="rotate(-60, 736.7208121827383, 256.4361467153392)" fill="#fffa"/>
<text x="734.3350253807079" y="256.4361467153392" fill="#111" font-size="0.5em" text-anchor="start" textLength="17.5" transform="rotate(-60, 736.7208121827383, 256.4361467153392)" style="text-shadow: 0 0 1px #fff;">
1.42
</text>
<rect x="743.7031725888296" y="309.15338034563115" width="17.85" height="7.2" transform="rotate(-60, 746.2639593908601, 315.8133803456311)" fill="#fffa"/>
<text x="743.8781725888296" y="315.8133803456311" fill="#111" font-size="0.5em" text-anchor="start" textLength="17.5" transform="rotate(-60, 746.2639593908601, 315.8133803456311)" style="text-shadow: 0 0 1px #fff;">
1.06
</text>
<rect x="748.4747461928905" y="313.9128062104658" width="17.85" height="7.2" transform="rotate(-60, 751.035532994921, 320.5728062104658)" fill="#fffa"/>
<text x="748.6497461928905" y="320.5728062104658" fill="#111" font-size="0.5em" text-anchor="start" textLength="17.5" transform="rotate(-60, 751.035532994921, 320.5728062104658)" style="text-shadow: 0 0 1px #fff;">
1.03
</text>
<rect x="753.2463197969513" y="299.37302170031165" width="17.85" height="7.2" transform="rotate(-60, 755.8071065989818, 306.0330217003116)" fill="#fffa"/>
<text x="753.4213197969514" y="306.0330217003116" fill="#111" font-size="0.5em" text-anchor="start" textLength="17.5" transform="rotate(-60, 755.8071065989818, 306.0330217003116)" style="text-shadow: 0 0 1px #fff;">
1.12
</text>
<rect x="762.7894670050731" y="309.2589358695897" width="17.85" height="7.2" transform="rotate(-60, 765.3502538071036, 315.91893586958975)" fill="#fffa"/>
<text x="762.9644670050732" y="315.91893586958975" fill="#111" font-size="0.5em" text-anchor="start" textLength="17.5" transform="rotate(-60, 765.3502538071036, 315.91893586958975)" style="text-shadow: 0 0 1px #fff;">
1.06
</text>
<rect x="767.561040609134" y="313.09646001337774" width="17.85" height="7.2" transform="rotate(-60, 770.1218274111645, 319.7564600133777)" fill="#fffa"/>
<text x="767.7360406091341" y="319.7564600133777" fill="#111" font-size="0.5em" text-anchor="start" textLength="17.5" transform="rotate(-60, 770.1218274111645, 319.7564600133777)" style="text-shadow: 0 0 1px #fff;">
1.04
</text>
<rect x="772.3326142131949" y="298.37718932487576" width="17.85" height="7.2" transform="rotate(-60, 774.8934010152254, 305.0371893248757)" fill="#fffa"/>
<text x="772.5076142131949" y="305.0371893248757" fill="#111" font-size="0.5em" text-anchor="start" textLength="17.5" transform="rotate(-60, 774.8934010152254, 305.0371893248757)" style="text-shadow: 0 0 1px #fff;">
1.13
</text>
<rect x="781.8757614213166" y="310.0977478182003" width="17.85" height="7.2" transform="rotate(-60, 784.4365482233471, 316.7577478182003)" fill="#fffa"/>
<text x="782.0507614213167" y="316.7577478182003" fill="#111" font-size="0.5em" text-anchor="start" textLength="17.5" transform="rotate(-60, 784.4365482233471, 316.7577478182003)" style="text-shadow: 0 0 1px #fff;">
1.06
</text>
<rect x="786.6473350253775" y="313.91453518180896" width="17.85" height="7.2" transform="rotate(-60, 789.208121827408, 320.574535181809)" fill="#fffa"/>
<text x="786.8223350253776" y="320.574535181809" fill="#111" font-size="0.5em" text-anchor="start" textLength="17.5" transform="rotate(-60, 789.208121827408, 320.574535181809)" style="text-shadow: 0 0 1px #fff;">
1.03
</text>
<rect x="791.4189086294384" y="299.4316571034585" width="17.85" height="7.2" transform="rotate(-60, 793.9796954314689, 306.0916571034585)" fill="#fffa"/>
<text x="791.5939086294385" y="306.0916571034585" fill="#111" font-size="0.5em" text-anchor="start" textLength="17.5" transform="rotate(-60, 793.9796954314689, 306.0916571034585)" style="text-shadow: 0 0 1px #fff;">
1.12
</text>
<rect x="800.9620558375602" y="309.10122939792717" width="17.85" height="7.2" transform="rotate(-60, 803.5228426395907, 315.7612293979272)" fill="#fffa"/>
<text x="801.1370558375602" y="315.7612293979272" fill="#111" font-size="0.5em" text-anchor="start" textLength="17.5" transform="rotate(-60, 803.5228426395907, 315.7612293979272)" style="text-shadow: 0 0 1px #fff;">
1.06
</text>
<rect x="805.7336294416211" y="312.99132236560274" width="17.85" height="7.2" transform="rotate(-60, 808.2944162436517, 319.6513223656027)" fill="#fffa"/>
<text x="805.9086294416211" y="319.6513223656027" fill="#111" font-size="0.5em" text-anchor="start" textLength="17.5" transform="rotate(-60, 808.2944162436517, 319.6513223656027)" style="text-shadow: 0 0 1px #fff;">
1.04
</text>
<rect x="810.5052030456819" y="298.42975814876326" width="17.85" height="7.2" transform="rotate(-60, 813.0659898477124, 305.0897581487633)" fill="#fffa"/>
<text x="810.680203045682" y="305.0897581487633" fill="#111" font-size="0.5em" text-anchor="start" textLength="17.5" transform="rotate(-60, 813.0659898477124, 305.0897581487633)" style="text-shadow: 0 0 1px #fff;">
1.13
</text>
<rect x="820.0483502538037" y="308.5312622252394" width="17.85" height="7.2" transform="rotate(-60, 822.6091370558343, 315.19126222523937)" fill="#fffa"/>
<text x="820.2233502538038" y="315.19126222523937" fill="#111" font-size="0.5em" text-anchor="start" textLength="17.5" transform="rotate(-60, 822.6091370558343, 315.19126222523937)" style="text-shadow: 0 0 1px #fff;">
1.07
</text>
<rect x="824.8199238578646" y="315.8314784172776" width="17.85" height="7.2" transform="rotate(-60, 827.3807106598952, 322.49147841727756)" fill="#fffa"/>
<text x="824.9949238578647" y="322.49147841727756" fill="#111" font-size="0.5em" text-anchor="start" textLength="17.5" transform="rotate(-60, 827.3807106598952, 322.49147841727756)" style="text-shadow: 0 0 1px #fff;">
1.02
</text>
<rect x="829.5914974619255" y="301.593468113657" width="17.85" height="7.2" transform="rotate(-60, 832.1522842639561, 308.253468113657)" fill="#fffa"/>
<text x="829.7664974619255" y="308.253468113657" fill="#111" font-size="0.5em" text-anchor="start" textLength="17.5" transform="rotate(-60, 832.1522842639561, 308.253468113657)" style="text-shadow: 0 0 1px #fff;">
1.11
</text>
<rect x="839.1346446700472" y="309.21932048714535" width="17.85" height="7.2" transform="rotate(-60, 841.6954314720779, 315.8793204871453)" fill="#fffa"/>
<text x="839.3096446700473" y="315.8793204871453" fill="#111" font-size="0.5em" text-anchor="start" textLength="17.5" transform="rotate(-60, 841.6954314720779, 315.8793204871453)" style="text-shadow: 0 0 1px #fff;">
1.06
</text>
<rect x="843.9062182741081" y="313.31445368077203" width="17.85" height="7.2" transform="rotate(-60, 846.4670050761387, 319.97445368077206)" fill="#fffa"/>
<text x="844.0812182741082" y="319.97445368077206" fill="#111" font-size="0.5em" text-anchor="start" textLength="17.5" transform="rotate(-60, 846.4670050761387, 319.97445368077206)" style="text-shadow: 0 0 1px #fff;">
1.04
</text>
<rect x="848.677791878169" y="298.03645676608755" width="17.85" height="7.2" transform="rotate(-60, 851.2385786801996, 304.6964567660875)" fill="#fffa"/>
<text x="848.8527918781691" y="304.6964567660875" fill="#111" font-size="0.5em" text-anchor="start" textLength="17.5" transform="rotate(-60, 851.2385786801996, 304.6964567660875)" style="text-shadow: 0 0 1px #fff;">
1.13
</text>
<rect x="858.2209390862909" y="298.2614948231233" width="17.85" height="7.2" transform="rotate(-60, 860.7817258883214, 304.92149482312334)" fill="#fffa"/>
<text x="858.3959390862908" y="304.92149482312334" fill="#111" font-size="0.5em" text-anchor="start" textLength="17.5" transform="rotate(-60, 860.7817258883214, 304.92149482312334)" style="text-shadow: 0 0 1px #fff;">
1.13
</text>
<rect x="862.9925126903518" y="315.83704085051306" width="17.85" height="7.2" transform="rotate(-60, 865.5532994923823, 322.4970408505131)" fill="#fffa"/>
<text x="863.1675126903517" y="322.4970408505131" fill="#111" font-size="0.5em" text-anchor="start" textLength="17.5" transform="rotate(-60, 865.5532994923823, 322.4970408505131)" style="text-shadow: 0 0 1px #fff;">
1.02
</text>
<rect x="867.7640862944126" y="291.52018949754915" width="17.85" height="7.2" transform="rotate(-60, 870.3248730964432, 298.1801894975492)" fill="#fffa"/>
<text x="867.9390862944126" y="298.1801894975492" fill="#111" font-size="0.5em" text-anchor="start" textLength="17.5" transform="rotate(-60, 870.3248730964432, 298.1801894975492)" style="text-shadow: 0 0 1px #fff;">
1.17
</text>
<rect x="877.3072335025344" y="309.4225737793457" width="17.85" height="7.2" transform="rotate(-60, 879.8680203045649, 316.08257377934575)" fill="#fffa"/>
<text x="877.4822335025344" y="316.08257377934575" fill="#111" font-size="0.5em" text-anchor="start" textLength="17.5" transform="rotate(-60, 879.8680203045649, 316.08257377934575)" style="text-shadow: 0 0 1px #fff;">
1.06
</text>
<rect x="882.0788071065953" y="314.93322867633213" width="17.85" height="7.2" transform="rotate(-60, 884.6395939086258, 321.5932286763321)" fill="#fffa"/>
<text x="882.2538071065953" y="321.5932286763321" fill="#111" font-size="0.5em" text-anchor="start" textLength="17.5" transform="rotate(-60, 884.6395939086258, 321.5932286763321)" style="text-shadow: 0 0 1px #fff;">
1.03
</text>
<rect x="886.8503807106562" y="299.70094674409614" width="17.85" height="7.2" transform="rotate(-60, 889.4111675126867, 306.36094674409617)" fill="#fffa"/>
<text x="887.0253807106561" y="306.36094674409617" fill="#111" font-size="0.5em" text-anchor="start" textLength="17.5" transform="rotate(-60, 889.4111675126867, 306.36094674409617)" style="text-shadow: 0 0 1px #fff;">
1.12
</text>
<rect x="896.3935279187779" y="309.5996998532232" width="17.85" height="7.2" transform="rotate(-60, 898.9543147208085, 316.25969985322325)" fill="#fffa"/>
<text x="896.5685279187779" y="316.25969985322325" fill="#111" font-size="0.5em" text-anchor="start" textLength="17.5" transform="rotate(-60, 898.9543147208085, 316.25969985322325)" style="text-shadow: 0 0 1px #fff;">
1.06
</text>
<rect x="901.1651015228388" y="314.18908818393754" width="17.85" height="7.2" transform="rotate(-60, 903.7258883248693, 320.8490881839375)" fill="#fffa"/>
<text x="901.3401015228388" y="320.8490881839375" fill="#111" font-size="0.5em" text-anchor="start" textLength="17.5" transform="rotate(-60, 903.7258883248693, 320.8490881839375)" style="text-shadow: 0 0 1px #fff;">
1.03
</text>
<rect x="905.9366751268997" y="300.73383603252523" width="17.85" height="7.2" transform="rotate(-60, 908.4974619289302, 307.3938360325252)" fill="#fffa"/>
<text x="906.1116751268997" y="307.3938360325252" fill="#111" font-size="0.5em" text-anchor="start" textLength="17.5" transform="rotate(-60, 908.4974619289302, 307.3938360325252)" style="text-shadow: 0 0 1px #fff;">
1.11
</text>
<rect x="915.4798223350215" y="309.1566221668996" width="17.85" height="7.2" transform="rotate(-60, 918.040609137052, 315.81662216689955)" fill="#fffa"/>
<text x="915.6548223350214" y="315.81662216689955" fill="#111" font-size="0.5em" text-anchor="start" textLength="17.5" transform="rotate(-60, 918.040609137052, 315.81662216689955)" style="text-shadow: 0 0 1px #fff;">
1.06
</text>
<rect x="920.2513959390824" y="313.91453518180896" width="17.85" height="7.2" transform="rotate(-60, 922.8121827411129, 320.574535181809)" fill="#fffa"/>
<text x="920.4263959390823" y="320.574535181809" fill="#111" font-size="0.5em" text-anchor="start" textLength="17.5" transform="rotate(-60, 922.8121827411129, 320.574535181809)" style="text-shadow: 0 0 1px #fff;">
1.03
</text>
<rect x="925.0229695431432" y="300.26821323794803" width="17.85" height="7.2" transform="rotate(-60, 927.5837563451738, 306.92821323794806)" fill="#fffa"/>
<text x="925.1979695431432" y="306.92821323794806" fill="#111" font-size="0.5em" text-anchor="start" textLength="17.5" transform="rotate(-60, 927.5837563451738, 306.92821323794806)" style="text-shadow: 0 0 1px #fff;">
1.12
</text>
<rect x="934.566116751265" y="315.11432663075334" width="17.85" height="7.2" transform="rotate(-60, 937.1269035532955, 321.77432663075336)" fill="#fffa"/>
<text x="934.741116751265" y="321.77432663075336" fill="#111" font-size="0.5em" text-anchor="start" textLength="17.5" transform="rotate(-60, 937.1269035532955, 321.77432663075336)" style="text-shadow: 0 0 1px #fff;">
1.03
</text>
<rect x="939.3376903553259" y="262.01590663864454" width="17.85" height="7.2" transform="rotate(-60, 941.8984771573564, 268.6759066386445)" fill="#fffa"/>
<text x="939.512690355326" y="268.6759066386445" fill="#111" font-size="0.5em" text-anchor="start" textLength="17.5" transform="rotate(-60, 941.8984771573564, 268.6759066386445)" style="text-shadow: 0 0 1px #fff;">
1.35
</text>
<rect x="944.1092639593868" y="184.6463161201743" width="17.85" height="7.2" transform="rotate(-60, 946.6700507614173, 191.3063161201743)" fill="#fffa"/>
<text x="944.2842639593867" y="191.3063161201743" fill="#111" font-size="0.5em" text-anchor="start" textLength="17.5" transform="rotate(-60, 946.6700507614173, 191.3063161201743)" style="text-shadow: 0 0 1px #fff;">
1.82
</text>
<rect x="953.6524111675085" y="308.47948764231717" width="17.85" height="7.2" transform="rotate(-60, 956.2131979695391, 315.1394876423172)" fill="#fffa"/>
<text x="953.8274111675086" y="315.1394876423172" fill="#111" font-size="0.5em" text-anchor="start" textLength="17.5" transform="rotate(-60, 956.2131979695391, 315.1394876423172)" style="text-shadow: 0 0 1px #fff;">
1.07
</text>
<rect x="958.4239847715694" y="315.67615466851083" width="17.85" height="7.2" transform="rotate(-60, 960.9847715735999, 322.33615466851086)" fill="#fffa"/>
<text x="958.5989847715695" y="322.33615466851086" fill="#111" font-size="0.5em" text-anchor="start" textLength="17.5" transform="rotate(-60, 960.9847715735999, 322.33615466851086)" style="text-shadow: 0 0 1px #fff;">
1.02
</text>
<rect x="963.1955583756303" y="301.07572228443445" width="17.85" height="7.2" transform="rotate(-60, 965.7563451776608, 307.7357222844344)" fill="#fffa"/>
<text x="963.3705583756304" y="307.7357222844344" fill="#111" font-size="0.5em" text-anchor="start" textLength="17.5" transform="rotate(-60, 965.7563451776608, 307.7357222844344)" style="text-shadow: 0 0 1px #fff;">
1.11
</text>
<rect x="972.7387055837521" y="307.5437598557861" width="17.85" height="7.2" transform="rotate(-60, 975.2994923857826, 314.2037598557861)" fill="#fffa"/>
<text x="972.9137055837522" y="314.2037598557861" fill="#111" font-size="0.5em" text-anchor="start" textLength="17.5" transform="rotate(-60, 975.2994923857826, 314.2037598557861)" style="text-shadow: 0 0 1px #fff;">
1.07
</text>
<rect x="977.510279187813" y="302.77657597458756" width="17.85" height="7.2" transform="rotate(-60, 980.0710659898435, 309.4365759745876)" fill="#fffa"/>
<text x="977.685279187813" y="309.4365759745876" fill="#111" font-size="0.5em" text-anchor="start" textLength="17.5" transform="rotate(-60, 980.0710659898435, 309.4365759745876)" style="text-shadow: 0 0 1px #fff;">
1.10
</text>
<rect x="982.2818527918738" y="278.6183930862732" width="17.85" height="7.2" transform="rotate(-60, 984.8426395939044, 285.2783930862732)" fill="#fffa"/>
<text x="982.4568527918739" y="285.2783930862732" fill="#111" font-size="0.5em" text-anchor="start" textLength="17.5" transform="rotate(-60, 984.8426395939044, 285.2783930862732)" style="text-shadow: 0 0 1px #fff;">
1.25
</text>
</svg>