<svg viewBox="0 0 1000 600" xmlns="http://www.w3.org/2000/svg" xmlns:xlink="http://www.w3.org/1999/xlink" width="100%" height="100%">

<rect x="50.0" y="30.0" width="940.0" height="467.99999999999994" stroke="#000" fill="#fff"/>
<line x1="42.0" y1="497.9999999999999" x2="50.0" y2="497.9999999999999" stroke="#000"/>
<text x="26.000000000000004" y="497.9999999999999" text-anchor="end" font-weight="bold" font-size="small" fill="#111">
0.0
</text>
<line x1="42.0" y1="448.178086844368" x2="50.0" y2="448.178086844368" stroke="#000"/>
<text x="26.000000000000004" y="448.178086844368" text-anchor="end" font-weight="bold" font-size="small" fill="#111">
0.2
</text>
<line x1="42.0" y1="398.356173688736" x2="50.0" y2="398.356173688736" stroke="#000"/>
<text x="26.000000000000004" y="398.356173688736" text-anchor="end" font-weight="bold" font-size="small" fill="#111">
0.4
</text>
<line x1="42.0" y1="348.534260533104" x2="50.0" y2="348.534260533104" stroke="#000"/>
<text x="26.000000000000004" y="348.534260533104" text-anchor="end" font-weight="bold" font-size="small" fill="#111">
0.6
</text>
<line x1="42.0" y1="298.712347377472" x2="50.0" y2="298.712347377472" stroke="#000"/>
<text x="26.000000000000004" y="298.712347377472" text-anchor="end" font-weight="bold" font-size="small" fill="#111">
0.8
</text>
<line x1="42.0" y1="248.89043422184005" x2="50.0" y2="248.89043422184005" stroke="#000"/>
<text x="26.000000000000004" y="248.89043422184005" text-anchor="end" font-weight="bold" font-size="small" fill="#111">
1.0
</text>
<line x1="42.0" y1="199.06852106620806" x2="50.0" y2="199.06852106620806" stroke="#000"/>
<text x="26.000000000000004" y="199.06852106620806" text-anchor="end" font-weight="bold" font-size="small" fill="#111">
1.2
</text>
<line x1="42.0" y1="149.24660791057607" x2="50.0" y2="149.24660791057607" stroke="#000"/>
<text x="26.000000000000004" y="149.24660791057607" text-anchor="end" font-weight="bold" font-size="small" fill="#111">
1.4
</text>
<line x1="248.5" y1="54.60000000000001" x2="368.5" y2="54.60000000000001" stroke="#648FFF" stroke-width="2"/>
<text x="308.5" y="49.500000000000014" font-size="small" text-anchor="middle" font-weight="bold" fill="#000">
CRuby 3.2.0dev
</text>
<rect x="671.5" y="35.400000000000006" width="120.0" height="19.2" fill="#785EF0" stroke="none"/>
<text x="731.4999999999999" y="49.500000000000014" font-size="small" text-anchor="middle" font-weight="bold" fill="#fff" style="text-shadow: 0 0 1px #000;">
YJIT 3.2.0dev
</text>
<rect x="90.86956521739131" y="233.75257858467242" width="40.869565217391305" height="264.2474214153275" fill="#785EF0" data-tooltip="1.06x baseline (YJIT 3.2.0dev)"/>
<line x1="111.30434782608697" y1="498.0" x2="111.30434782608697" y2="502.79999999999995" stroke="#000"/>
<text x="111.30434782608697" y="512.4" fill="#111" font-size="small" text-anchor="end" transform="rotate(-60, 111.30434782608697, 512.4)">
binarytrees
</text>
<rect x="172.6086956521739" y="206.64246292842498" width="40.869565217391305" height="291.357537071575" fill="#785EF0" data-tooltip="1.17x baseline (YJIT 3.2.0dev)"/>
<line x1="193.04347826086953" y1="498.0" x2="193.04347826086953" y2="502.79999999999995" stroke="#000"/>
<text x="193.04347826086953" y="512.4" fill="#111" font-size="small" text-anchor="end" transform="rotate(-60, 193.04347826086953, 512.4)">
chunky_png
</text>
<rect x="254.3478260869565" y="100.19999999999999" width="40.869565217391305" height="397.79999999999995" fill="#785EF0" data-tooltip="1.60x baseline (YJIT 3.2.0dev)"/>
<line x1="274.7826086956522" y1="498.0" x2="274.7826086956522" y2="502.79999999999995" stroke="#000"/>
<text x="274.7826086956522" y="512.4" fill="#111" font-size="small" text-anchor="end" transform="rotate(-60, 274.7826086956522, 512.4)">
erubi
</text>
<rect x="336.0869565217391" y="191.9975951933877" width="40.869565217391305" height="306.0024048066123" fill="#785EF0" data-tooltip="1.23x baseline (YJIT 3.2.0dev)"/>
<line x1="356.5217391304348" y1="498.0" x2="356.5217391304348" y2="502.79999999999995" stroke="#000"/>
<text x="356.5217391304348" y="512.4" fill="#111" font-size="small" text-anchor="end" transform="rotate(-60, 356.5217391304348, 512.4)">
erubi_rails
</text>
<rect x="417.8260869565218" y="199.5207778150536" width="40.869565217391305" height="298.4792221849463" fill="#785EF0" data-tooltip="1.20x baseline (YJIT 3.2.0dev)"/>
<line x1="438.2608695652175" y1="498.0" x2="438.2608695652175" y2="502.79999999999995" stroke="#000"/>
<text x="438.2608695652175" y="512.4" fill="#111" font-size="small" text-anchor="end" transform="rotate(-60, 438.2608695652175, 512.4)">
etanni
</text>
<rect x="499.56521739130443" y="230.41199362492495" width="40.869565217391305" height="267.588006375075" fill="#785EF0" data-tooltip="1.07x baseline (YJIT 3.2.0dev)"/>
<line x1="520.0" y1="498.0" x2="520.0" y2="502.79999999999995" stroke="#000"/>
<text x="520.0" y="512.4" fill="#111" font-size="small" text-anchor="end" transform="rotate(-60, 520.0, 512.4)">
fannkuchredux
</text>
<rect x="581.304347826087" y="171.64670057180774" width="40.869565217391305" height="326.3532994281922" fill="#785EF0" data-tooltip="1.31x baseline (YJIT 3.2.0dev)"/>
<line x1="601.7391304347825" y1="498.0" x2="601.7391304347825" y2="502.79999999999995" stroke="#000"/>
<text x="601.7391304347825" y="512.4" fill="#111" font-size="small" text-anchor="end" transform="rotate(-60, 601.7391304347825, 512.4)">
lee
</text>
<rect x="663.0434782608695" y="230.57755682500633" width="40.869565217391305" height="267.4224431749936" fill="#785EF0" data-tooltip="1.07x baseline (YJIT 3.2.0dev)"/>
<line x1="683.4782608695651" y1="498.0" x2="683.4782608695651" y2="502.79999999999995" stroke="#000"/>
<text x="683.4782608695651" y="512.4" fill="#111" font-size="small" text-anchor="end" transform="rotate(-60, 683.4782608695651, 512.4)">
nbody
</text>
<rect x="744.782608695652" y="220.15540523309474" width="40.869565217391305" height="277.8445947669052" fill="#785EF0" data-tooltip="1.12x baseline (YJIT 3.2.0dev)"/>
<line x1="765.2173913043476" y1="498.0" x2="765.2173913043476" y2="502.79999999999995" stroke="#000"/>
<text x="765.2173913043476" y="512.4" fill="#111" font-size="small" text-anchor="end" transform="rotate(-60, 765.2173913043476, 512.4)">
optcarrot
</text>
<rect x="826.5217391304346" y="233.6524896353109" width="40.869565217391305" height="264.3475103646891" fill="#785EF0" data-tooltip="1.06x baseline (YJIT 3.2.0dev)"/>
<line x1="846.9565217391302" y1="498.0" x2="846.9565217391302" y2="502.79999999999995" stroke="#000"/>
<text x="846.9565217391302" y="512.4" fill="#111" font-size="small" text-anchor="end" transform="rotate(-60, 846.9565217391302, 512.4)">
rubykon
</text>
<rect x="908.2608695652171" y="204.16262074150077" width="40.869565217391305" height="293.83737925849914" fill="#785EF0" data-tooltip="1.18x baseline (YJIT 3.2.0dev)"/>
<line x1="928.6956521739127" y1="498.0" x2="928.6956521739127" y2="502.79999999999995" stroke="#000"/>
<text x="928.6956521739127" y="512.4" fill="#111" font-size="small" text-anchor="end" transform="rotate(-60, 928.6956521739127, 512.4)" font-style="italic">
geomean*
</text>
<line x1="50.0" y1="248.89043422184005" x2="990.0" y2="248.89043422184005" stroke="#648FFF" stroke-width="2"/>
</svg>