<svg viewBox="0 0 1000 600" xmlns="http://www.w3.org/2000/svg" xmlns:xlink="http://www.w3.org/1999/xlink" width="100%" height="100%">

<rect x="50.0" y="30.0" width="940.0" height="467.99999999999994" stroke="#000" fill="#EEE"/>
<line x1="42.0" y1="497.9999999999999" x2="50.0" y2="497.9999999999999" stroke="#000"/>
<text x="26.000000000000004" y="497.9999999999999" text-anchor="end" font-weight="bold" font-size="small" fill="#111">
0.0
</text>
<line x1="42.0" y1="415.5126691099913" x2="50.0" y2="415.5126691099913" stroke="#000"/>
<text x="26.000000000000004" y="415.5126691099913" text-anchor="end" font-weight="bold" font-size="small" fill="#111">
0.5
</text>
<line x1="42.0" y1="333.0253382199827" x2="50.0" y2="333.0253382199827" stroke="#000"/>
<text x="26.000000000000004" y="333.0253382199827" text-anchor="end" font-weight="bold" font-size="small" fill="#111">
1.0
</text>
<line x1="42.0" y1="250.53800732997408" x2="50.0" y2="250.53800732997408" stroke="#000"/>
<text x="26.000000000000004" y="250.53800732997408" text-anchor="end" font-weight="bold" font-size="small" fill="#111">
1.5
</text>
<line x1="42.0" y1="168.05067643996537" x2="50.0" y2="168.05067643996537" stroke="#000"/>
<text x="26.000000000000004" y="168.05067643996537" text-anchor="end" font-weight="bold" font-size="small" fill="#111">
2.0
</text>
<rect x="268.5" y="36.00000000000001" width="80.0" height="18.0" fill="#7070f8" stroke="#888"/>
<text x="308.5" y="52.50000000000001" font-size="small" text-anchor="middle" font-weight="bold" fill="#EEE">
No JIT
</text>
<rect x="691.4999999999999" y="36.00000000000001" width="80.0" height="18.0" fill="orange" stroke="#888"/>
<text x="731.4999999999999" y="52.50000000000001" font-size="small" text-anchor="middle" font-weight="bold" fill="#EEE">
YJIT
</text>
<rect x="97.0" y="333.0253382199827" width="21.69230769230769" height="164.97466178001727" fill="#7070f8" data-tooltip="1.00x baseline speed (No JIT)"/>
<line x1="97.0" y1="329.75307214755816" x2="118.6923076923077" y2="329.75307214755816" stroke="#000"/>
<line x1="97.0" y1="336.29760429240724" x2="118.6923076923077" y2="336.29760429240724" stroke="#000"/>
<line x1="107.84615384615384" y1="329.75307214755816" x2="107.84615384615384" y2="336.29760429240724" stroke="#000"/>
<rect x="118.6923076923077" y="170.94390641955812" width="21.69230769230769" height="327.0560935804418" fill="orange" data-tooltip="1.98x baseline speed (YJIT)"/>
<line x1="118.6923076923077" y1="155.69933615569366" x2="140.3846153846154" y2="155.69933615569366" stroke="#000"/>
<line x1="118.6923076923077" y1="186.1884766834226" x2="140.3846153846154" y2="186.1884766834226" stroke="#000"/>
<line x1="129.53846153846155" y1="155.69933615569366" x2="129.53846153846155" y2="186.1884766834226" stroke="#000"/>
<line x1="129.53846153846155" y1="498.0" x2="129.53846153846155" y2="502.79999999999995" stroke="#000"/>
<text x="129.53846153846155" y="512.4" fill="#111" font-size="small" font-family="monospace" font-weight="bold" text-anchor="end" transform="rotate(-60, 129.53846153846155, 512.4)">
activerecord
</text>
<rect x="162.07692307692307" y="333.0253382199827" width="21.69230769230769" height="164.97466178001727" fill="#7070f8" data-tooltip="1.00x baseline speed (No JIT)"/>
<line x1="162.07692307692307" y1="332.7622526223851" x2="183.76923076923075" y2="332.7622526223851" stroke="#000"/>
<line x1="162.07692307692307" y1="333.2884238175802" x2="183.76923076923075" y2="333.2884238175802" stroke="#000"/>
<line x1="172.9230769230769" y1="332.7622526223851" x2="172.9230769230769" y2="333.2884238175802" stroke="#000"/>
<rect x="183.76923076923075" y="215.71550836635572" width="21.69230769230769" height="282.2844916336442" fill="orange" data-tooltip="1.71x baseline speed (YJIT)"/>
<line x1="183.76923076923075" y1="214.63737339891915" x2="205.46153846153842" y2="214.63737339891915" stroke="#000"/>
<line x1="183.76923076923075" y1="216.79364333379232" x2="205.46153846153842" y2="216.79364333379232" stroke="#000"/>
<line x1="194.61538461538458" y1="214.63737339891915" x2="194.61538461538458" y2="216.79364333379232" stroke="#000"/>
<line x1="194.6153846153846" y1="498.0" x2="194.6153846153846" y2="502.79999999999995" stroke="#000"/>
<text x="194.6153846153846" y="512.4" fill="#111" font-size="small" font-family="monospace" font-weight="bold" text-anchor="end" transform="rotate(-60, 194.6153846153846, 512.4)">
chunky-png
</text>
<rect x="227.15384615384616" y="333.0253382199827" width="21.69230769230769" height="164.97466178001727" fill="#7070f8" data-tooltip="1.00x baseline speed (No JIT)"/>
<line x1="227.15384615384616" y1="312.626599958436" x2="248.84615384615384" y2="312.626599958436" stroke="#000"/>
<line x1="227.15384615384616" y1="353.42407648152937" x2="248.84615384615384" y2="353.42407648152937" stroke="#000"/>
<line x1="238.0" y1="312.626599958436" x2="238.0" y2="353.42407648152937" stroke="#000"/>
<rect x="248.84615384615384" y="197.9891425943874" width="21.69230769230769" height="300.0108574056125" fill="orange" data-tooltip="1.82x baseline speed (YJIT)"/>
<line x1="248.84615384615384" y1="121.27945805387711" x2="270.5384615384615" y2="121.27945805387711" stroke="#000"/>
<line x1="248.84615384615384" y1="274.69882713489767" x2="270.5384615384615" y2="274.69882713489767" stroke="#000"/>
<line x1="259.6923076923077" y1="121.27945805387711" x2="259.6923076923077" y2="274.69882713489767" stroke="#000"/>
<line x1="259.6923076923077" y1="498.0" x2="259.6923076923077" y2="502.79999999999995" stroke="#000"/>
<text x="259.6923076923077" y="512.4" fill="#111" font-size="small" font-family="monospace" font-weight="bold" text-anchor="end" transform="rotate(-60, 259.6923076923077, 512.4)">
erubi-rails
</text>
<rect x="292.23076923076917" y="333.0253382199827" width="21.69230769230769" height="164.97466178001727" fill="#7070f8" data-tooltip="1.00x baseline speed (No JIT)"/>
<line x1="292.23076923076917" y1="332.0114676404592" x2="313.92307692307685" y2="332.0114676404592" stroke="#000"/>
<line x1="292.23076923076917" y1="334.0392087995061" x2="313.92307692307685" y2="334.0392087995061" stroke="#000"/>
<line x1="303.07692307692304" y1="332.0114676404592" x2="303.07692307692304" y2="334.0392087995061" stroke="#000"/>
<rect x="313.92307692307685" y="232.5077556048834" width="21.69230769230769" height="265.4922443951165" fill="orange" data-tooltip="1.61x baseline speed (YJIT)"/>
<line x1="313.92307692307685" y1="227.7392079644295" x2="335.6153846153845" y2="227.7392079644295" stroke="#000"/>
<line x1="313.92307692307685" y1="237.27630324533732" x2="335.6153846153845" y2="237.27630324533732" stroke="#000"/>
<line x1="324.7692307692307" y1="227.7392079644295" x2="324.7692307692307" y2="237.27630324533732" stroke="#000"/>
<line x1="324.7692307692307" y1="498.0" x2="324.7692307692307" y2="502.79999999999995" stroke="#000"/>
<text x="324.7692307692307" y="512.4" fill="#111" font-size="small" font-family="monospace" font-weight="bold" text-anchor="end" transform="rotate(-60, 324.7692307692307, 512.4)">
hexapdf
</text>
<rect x="357.3076923076923" y="333.0253382199827" width="21.69230769230769" height="164.97466178001727" fill="#7070f8" data-tooltip="1.00x baseline speed (No JIT)"/>
<line x1="357.3076923076923" y1="332.35214206002956" x2="379.0" y2="332.35214206002956" stroke="#000"/>
<line x1="357.3076923076923" y1="333.6985343799358" x2="379.0" y2="333.6985343799358" stroke="#000"/>
<line x1="368.1538461538462" y1="332.35214206002956" x2="368.1538461538462" y2="333.6985343799358" stroke="#000"/>
<rect x="379.0" y="261.06673794427206" width="21.69230769230769" height="236.93326205572788" fill="orange" data-tooltip="1.44x baseline speed (YJIT)"/>
<line x1="379.0" y1="259.35521738458965" x2="400.6923076923077" y2="259.35521738458965" stroke="#000"/>
<line x1="379.0" y1="262.7782585039544" x2="400.6923076923077" y2="262.7782585039544" stroke="#000"/>
<line x1="389.84615384615387" y1="259.35521738458965" x2="389.84615384615387" y2="262.7782585039544" stroke="#000"/>
<line x1="389.84615384615387" y1="498.0" x2="389.84615384615387" y2="502.79999999999995" stroke="#000"/>
<text x="389.84615384615387" y="512.4" fill="#111" font-size="small" font-family="monospace" font-weight="bold" text-anchor="end" transform="rotate(-60, 389.84615384615387, 512.4)">
liquid-c
</text>
<rect x="422.38461538461536" y="333.0253382199827" width="21.69230769230769" height="164.97466178001727" fill="#7070f8" data-tooltip="1.00x baseline speed (No JIT)"/>
<line x1="422.38461538461536" y1="327.1994495652929" x2="444.07692307692304" y2="327.1994495652929" stroke="#000"/>
<line x1="422.38461538461536" y1="338.8512268746724" x2="444.07692307692304" y2="338.8512268746724" stroke="#000"/>
<line x1="433.23076923076917" y1="327.1994495652929" x2="433.23076923076917" y2="338.8512268746724" stroke="#000"/>
<rect x="444.07692307692304" y="263.8093555798875" width="21.69230769230769" height="234.19064442011245" fill="orange" data-tooltip="1.42x baseline speed (YJIT)"/>
<line x1="444.07692307692304" y1="247.91960410783201" x2="465.7692307692307" y2="247.91960410783201" stroke="#000"/>
<line x1="444.07692307692304" y1="279.6991070519429" x2="465.7692307692307" y2="279.6991070519429" stroke="#000"/>
<line x1="454.92307692307685" y1="247.91960410783201" x2="454.92307692307685" y2="279.6991070519429" stroke="#000"/>
<line x1="454.92307692307685" y1="498.0" x2="454.92307692307685" y2="502.79999999999995" stroke="#000"/>
<text x="454.92307692307685" y="512.4" fill="#111" font-size="small" font-family="monospace" font-weight="bold" text-anchor="end" transform="rotate(-60, 454.92307692307685, 512.4)">
liquid-compile
</text>
<rect x="487.4615384615384" y="333.0253382199827" width="21.69230769230769" height="164.97466178001727" fill="#7070f8" data-tooltip="1.00x baseline speed (No JIT)"/>
<line x1="487.4615384615384" y1="332.8578848802934" x2="509.1538461538461" y2="332.8578848802934" stroke="#000"/>
<line x1="487.4615384615384" y1="333.19279155967195" x2="509.1538461538461" y2="333.19279155967195" stroke="#000"/>
<line x1="498.3076923076922" y1="332.8578848802934" x2="498.3076923076922" y2="333.19279155967195" stroke="#000"/>
<rect x="509.1538461538461" y="100.19999999999999" width="21.69230769230769" height="397.79999999999995" fill="orange" data-tooltip="2.41x baseline speed (YJIT)"/>
<line x1="509.1538461538461" y1="99.1238177420095" x2="530.8461538461537" y2="99.1238177420095" stroke="#000"/>
<line x1="509.1538461538461" y1="101.27618225799047" x2="530.8461538461537" y2="101.27618225799047" stroke="#000"/>
<line x1="519.9999999999999" y1="99.1238177420095" x2="519.9999999999999" y2="101.27618225799047" stroke="#000"/>
<line x1="519.9999999999999" y1="498.0" x2="519.9999999999999" y2="502.79999999999995" stroke="#000"/>
<text x="519.9999999999999" y="512.4" fill="#111" font-size="small" font-family="monospace" font-weight="bold" text-anchor="end" transform="rotate(-60, 519.9999999999999, 512.4)">
liquid-render
</text>
<rect x="552.5384615384615" y="333.0253382199827" width="21.69230769230769" height="164.97466178001727" fill="#7070f8" data-tooltip="1.00x baseline speed (No JIT)"/>
<line x1="552.5384615384615" y1="329.88605080379153" x2="574.2307692307692" y2="329.88605080379153" stroke="#000"/>
<line x1="552.5384615384615" y1="336.16462563617387" x2="574.2307692307692" y2="336.16462563617387" stroke="#000"/>
<line x1="563.3846153846154" y1="329.88605080379153" x2="563.3846153846154" y2="336.16462563617387" stroke="#000"/>
<rect x="574.2307692307692" y="257.17164499244154" width="21.69230769230769" height="240.82835500755843" fill="orange" data-tooltip="1.46x baseline speed (YJIT)"/>
<line x1="574.2307692307692" y1="247.65777299797114" x2="595.9230769230769" y2="247.65777299797114" stroke="#000"/>
<line x1="574.2307692307692" y1="266.68551698691186" x2="595.9230769230769" y2="266.68551698691186" stroke="#000"/>
<line x1="585.0769230769231" y1="247.65777299797114" x2="585.0769230769231" y2="266.68551698691186" stroke="#000"/>
<line x1="585.0769230769231" y1="498.0" x2="585.0769230769231" y2="502.79999999999995" stroke="#000"/>
<text x="585.0769230769231" y="512.4" fill="#111" font-size="small" font-family="monospace" font-weight="bold" text-anchor="end" transform="rotate(-60, 585.0769230769231, 512.4)">
lobsters
</text>
<rect x="617.6153846153845" y="333.0253382199827" width="21.69230769230769" height="164.97466178001727" fill="#7070f8" data-tooltip="1.00x baseline speed (No JIT)"/>
<line x1="617.6153846153845" y1="332.698487045826" x2="639.3076923076923" y2="332.698487045826" stroke="#000"/>
<line x1="617.6153846153845" y1="333.3521893941393" x2="639.3076923076923" y2="333.3521893941393" stroke="#000"/>
<line x1="628.4615384615385" y1="332.698487045826" x2="628.4615384615385" y2="333.3521893941393" stroke="#000"/>
<rect x="639.3076923076923" y="274.3439143296069" width="21.69230769230769" height="223.65608567039305" fill="orange" data-tooltip="1.36x baseline speed (YJIT)"/>
<line x1="639.3076923076923" y1="273.6283126275653" x2="660.9999999999999" y2="273.6283126275653" stroke="#000"/>
<line x1="639.3076923076923" y1="275.05951603164846" x2="660.9999999999999" y2="275.05951603164846" stroke="#000"/>
<line x1="650.1538461538461" y1="273.6283126275653" x2="650.1538461538461" y2="275.05951603164846" stroke="#000"/>
<line x1="650.1538461538461" y1="498.0" x2="650.1538461538461" y2="502.79999999999995" stroke="#000"/>
<text x="650.1538461538461" y="512.4" fill="#111" font-size="small" font-family="monospace" font-weight="bold" text-anchor="end" transform="rotate(-60, 650.1538461538461, 512.4)">
mail
</text>
<rect x="682.6923076923076" y="333.0253382199827" width="21.69230769230769" height="164.97466178001727" fill="#7070f8" data-tooltip="1.00x baseline speed (No JIT)"/>
<line x1="682.6923076923076" y1="332.92911258021184" x2="704.3846153846152" y2="332.92911258021184" stroke="#000"/>
<line x1="682.6923076923076" y1="333.1215638597535" x2="704.3846153846152" y2="333.1215638597535" stroke="#000"/>
<line x1="693.5384615384614" y1="332.92911258021184" x2="693.5384615384614" y2="333.1215638597535" stroke="#000"/>
<rect x="704.3846153846152" y="255.2970536603465" width="21.69230769230769" height="242.70294633965344" fill="orange" data-tooltip="1.47x baseline speed (YJIT)"/>
<line x1="704.3846153846152" y1="255.01788394976512" x2="726.076923076923" y2="255.01788394976512" stroke="#000"/>
<line x1="704.3846153846152" y1="255.5762233709279" x2="726.076923076923" y2="255.5762233709279" stroke="#000"/>
<line x1="715.2307692307692" y1="255.01788394976512" x2="715.2307692307692" y2="255.5762233709279" stroke="#000"/>
<line x1="715.2307692307692" y1="498.0" x2="715.2307692307692" y2="502.79999999999995" stroke="#000"/>
<text x="715.2307692307692" y="512.4" fill="#111" font-size="small" font-family="monospace" font-weight="bold" text-anchor="end" transform="rotate(-60, 715.2307692307692, 512.4)">
psych-load
</text>
<rect x="747.7692307692307" y="333.0253382199827" width="21.69230769230769" height="164.97466178001727" fill="#7070f8" data-tooltip="1.00x baseline speed (No JIT)"/>
<line x1="747.7692307692307" y1="332.23191575682984" x2="769.4615384615385" y2="332.23191575682984" stroke="#000"/>
<line x1="747.7692307692307" y1="333.81876068313557" x2="769.4615384615385" y2="333.81876068313557" stroke="#000"/>
<line x1="758.6153846153845" y1="332.23191575682984" x2="758.6153846153845" y2="333.81876068313557" stroke="#000"/>
<rect x="769.4615384615385" y="218.87704396440378" width="21.69230769230769" height="279.1229560355962" fill="orange" data-tooltip="1.69x baseline speed (YJIT)"/>
<line x1="769.4615384615385" y1="215.62926375891576" x2="791.1538461538461" y2="215.62926375891576" stroke="#000"/>
<line x1="769.4615384615385" y1="222.12482416989178" x2="791.1538461538461" y2="222.12482416989178" stroke="#000"/>
<line x1="780.3076923076923" y1="215.62926375891576" x2="780.3076923076923" y2="222.12482416989178" stroke="#000"/>
<line x1="780.3076923076923" y1="498.0" x2="780.3076923076923" y2="502.79999999999995" stroke="#000"/>
<text x="780.3076923076923" y="512.4" fill="#111" font-size="small" font-family="monospace" font-weight="bold" text-anchor="end" transform="rotate(-60, 780.3076923076923, 512.4)">
railsbench
</text>
<rect x="812.8461538461538" y="333.0253382199827" width="21.69230769230769" height="164.97466178001727" fill="#7070f8" data-tooltip="1.00x baseline speed (No JIT)"/>
<line x1="812.8461538461538" y1="327.6423165448631" x2="834.5384615384614" y2="327.6423165448631" stroke="#000"/>
<line x1="812.8461538461538" y1="338.40835989510225" x2="834.5384615384614" y2="338.40835989510225" stroke="#000"/>
<line x1="823.6923076923076" y1="327.6423165448631" x2="823.6923076923076" y2="338.40835989510225" stroke="#000"/>
<rect x="834.5384615384614" y="246.17951263759215" width="21.69230769230769" height="251.82048736240776" fill="orange" data-tooltip="1.53x baseline speed (YJIT)"/>
<line x1="834.5384615384614" y1="227.374853101884" x2="856.2307692307692" y2="227.374853101884" stroke="#000"/>
<line x1="834.5384615384614" y1="264.98417217330035" x2="856.2307692307692" y2="264.98417217330035" stroke="#000"/>
<line x1="845.3846153846152" y1="227.374853101884" x2="845.3846153846152" y2="264.98417217330035" stroke="#000"/>
<line x1="845.3846153846152" y1="498.0" x2="845.3846153846152" y2="502.79999999999995" stroke="#000"/>
<text x="845.3846153846152" y="512.4" fill="#111" font-size="small" font-family="monospace" font-weight="bold" text-anchor="end" transform="rotate(-60, 845.3846153846152, 512.4)">
ruby-lsp
</text>
<rect x="877.9230769230768" y="333.0253382199827" width="21.69230769230769" height="164.97466178001727" fill="#7070f8" data-tooltip="1.00x baseline speed (No JIT)"/>
<line x1="877.9230769230768" y1="331.3546436934336" x2="899.6153846153845" y2="331.3546436934336" stroke="#000"/>
<line x1="877.9230769230768" y1="334.6960327465318" x2="899.6153846153845" y2="334.6960327465318" stroke="#000"/>
<line x1="888.7692307692306" y1="331.3546436934336" x2="888.7692307692306" y2="334.6960327465318" stroke="#000"/>
<rect x="899.6153846153845" y="274.0038778204974" width="21.69230769230769" height="223.99612217950258" fill="orange" data-tooltip="1.36x baseline speed (YJIT)"/>
<line x1="899.6153846153845" y1="270.0562045108369" x2="921.3076923076922" y2="270.0562045108369" stroke="#000"/>
<line x1="899.6153846153845" y1="277.95155113015784" x2="921.3076923076922" y2="277.95155113015784" stroke="#000"/>
<line x1="910.4615384615383" y1="270.0562045108369" x2="910.4615384615383" y2="277.95155113015784" stroke="#000"/>
<line x1="910.4615384615383" y1="498.0" x2="910.4615384615383" y2="502.79999999999995" stroke="#000"/>
<text x="910.4615384615383" y="512.4" fill="#111" font-size="small" font-family="monospace" font-weight="bold" text-anchor="end" transform="rotate(-60, 910.4615384615383, 512.4)">
sequel
</text>
</svg>