<svg viewBox="0 0 1000 600" xmlns="http://www.w3.org/2000/svg" xmlns:xlink="http://www.w3.org/1999/xlink" width="100%" height="100%">

<rect x="50.0" y="30.0" width="940.0" height="467.99999999999994" stroke="#000" fill="#fff"/>
<line x1="42.0" y1="497.9999999999999" x2="50.0" y2="497.9999999999999" stroke="#000"/>
<text x="26.000000000000004" y="497.9999999999999" text-anchor="end" font-weight="bold" font-size="small" fill="#111">
0.0
</text>
<line x1="42.0" y1="418.8064782738182" x2="50.0" y2="418.8064782738182" stroke="#000"/>
<text x="26.000000000000004" y="418.8064782738182" text-anchor="end" font-weight="bold" font-size="small" fill="#111">
0.5
</text>
<line x1="42.0" y1="339.61295654763626" x2="50.0" y2="339.61295654763626" stroke="#000"/>
<text x="26.000000000000004" y="339.61295654763626" text-anchor="end" font-weight="bold" font-size="small" fill="#111">
1.0
</text>
<line x1="42.0" y1="260.41943482145456" x2="50.0" y2="260.41943482145456" stroke="#000"/>
<text x="26.000000000000004" y="260.41943482145456" text-anchor="end" font-weight="bold" font-size="small" fill="#111">
1.5
</text>
<line x1="42.0" y1="181.22591309527274" x2="50.0" y2="181.22591309527274" stroke="#000"/>
<text x="26.000000000000004" y="181.22591309527274" text-anchor="end" font-weight="bold" font-size="small" fill="#111">
2.0
</text>
<line x1="42.0" y1="102.03239136909093" x2="50.0" y2="102.03239136909093" stroke="#000"/>
<text x="26.000000000000004" y="102.03239136909093" text-anchor="end" font-weight="bold" font-size="small" fill="#111">
2.5
</text>
<line x1="142.75" y1="54.60000000000001" x2="262.75" y2="54.60000000000001" stroke="#648FFF" stroke-width="2"/>
<text x="202.75" y="49.500000000000014" font-size="small" text-anchor="middle" font-weight="bold" fill="#000">
CRuby 3.3.3
</text>
<rect x="354.25" y="35.400000000000006" width="120.0" height="19.2" fill="#785EF0" stroke="none"/>
<text x="414.25" y="49.500000000000014" font-size="small" text-anchor="middle" font-weight="bold" fill="#fff" style="text-shadow: 0 0 1px #000;">
CRuby 3.4.0dev
</text>
<rect x="565.75" y="35.400000000000006" width="120.0" height="19.2" fill="#FFB000" stroke="none"/>
<text x="625.7499999999999" y="49.500000000000014" font-size="small" text-anchor="middle" font-weight="bold" fill="#fff" style="text-shadow: 0 0 1px #000;">
YJIT 3.3.3
</text>
<rect x="777.25" y="35.400000000000006" width="120.0" height="19.2" fill="#DC267F" stroke="none"/>
<text x="837.2499999999999" y="49.500000000000014" font-size="small" text-anchor="middle" font-weight="bold" fill="#fff" style="text-shadow: 0 0 1px #000;">
YJIT 3.4.0dev
</text>
<rect x="65.40983606557377" y="344.41498940471257" width="15.40983606557377" height="153.58501059528737" fill="#785EF0" data-tooltip="0.97x baseline (CRuby 3.4.0dev)"/>
<line x1="65.40983606557377" y1="343.85607442932496" x2="80.81967213114753" y2="343.85607442932496" stroke-dasharray="1,0.5" stroke="#333c"/>
<line x1="65.40983606557377" y1="344.9739043801001" x2="80.81967213114753" y2="344.9739043801001" stroke-dasharray="1,0.5" stroke="#333c"/>
<line x1="73.11475409836066" y1="343.85607442932496" x2="73.11475409836066" y2="344.9739043801001" stroke-dasharray="1,0.5" stroke="#333c"/>
<rect x="80.81967213114753" y="170.7176061166121" width="15.40983606557377" height="327.28239388338784" fill="#FFB000" data-tooltip="2.07x baseline (YJIT 3.3.3)"/>
<line x1="80.81967213114753" y1="169.21587858844364" x2="96.2295081967213" y2="169.21587858844364" stroke-dasharray="1,0.5" stroke="#333c"/>
<line x1="80.81967213114753" y1="172.21933364478053" x2="96.2295081967213" y2="172.21933364478053" stroke-dasharray="1,0.5" stroke="#333c"/>
<line x1="88.52459016393442" y1="169.21587858844364" x2="88.52459016393442" y2="172.21933364478053" stroke-dasharray="1,0.5" stroke="#333c"/>
<rect x="96.2295081967213" y="145.68128827489812" width="15.40983606557377" height="352.3187117251018" fill="#DC267F" data-tooltip="2.22x baseline (YJIT 3.4.0dev)"/>
<line x1="96.2295081967213" y1="144.1825899480563" x2="111.63934426229507" y2="144.1825899480563" stroke-dasharray="1,0.5" stroke="#333c"/>
<line x1="96.2295081967213" y1="147.17998660173998" x2="111.63934426229507" y2="147.17998660173998" stroke-dasharray="1,0.5" stroke="#333c"/>
<line x1="103.93442622950819" y1="144.1825899480563" x2="103.93442622950819" y2="147.17998660173998" stroke-dasharray="1,0.5" stroke="#333c"/>
<line x1="88.5245901639344" y1="498.0" x2="88.5245901639344" y2="502.79999999999995" stroke="#000"/>
<text x="88.5245901639344" y="512.4" fill="#111" font-size="small" text-anchor="end" transform="rotate(-60, 88.5245901639344, 512.4)">
activerecord
</text>
<rect x="127.04918032786883" y="348.20416804333325" width="15.40983606557377" height="149.79583195666675" fill="#785EF0" data-tooltip="0.95x baseline (CRuby 3.4.0dev)"/>
<line x1="127.04918032786883" y1="347.78250722032254" x2="142.4590163934426" y2="347.78250722032254" stroke-dasharray="1,0.5" stroke="#333c"/>
<line x1="127.04918032786883" y1="348.6258288663439" x2="142.4590163934426" y2="348.6258288663439" stroke-dasharray="1,0.5" stroke="#333c"/>
<line x1="134.75409836065572" y1="347.78250722032254" x2="134.75409836065572" y2="348.6258288663439" stroke-dasharray="1,0.5" stroke="#333c"/>
<rect x="142.4590163934426" y="234.60210199811598" width="15.40983606557377" height="263.39789800188396" fill="#FFB000" data-tooltip="1.66x baseline (YJIT 3.3.3)"/>
<line x1="142.4590163934426" y1="233.56807138779254" x2="157.86885245901638" y2="233.56807138779254" stroke-dasharray="1,0.5" stroke="#333c"/>
<line x1="142.4590163934426" y1="235.6361326084394" x2="157.86885245901638" y2="235.6361326084394" stroke-dasharray="1,0.5" stroke="#333c"/>
<line x1="150.1639344262295" y1="233.56807138779254" x2="150.1639344262295" y2="235.6361326084394" stroke-dasharray="1,0.5" stroke="#333c"/>
<rect x="157.86885245901638" y="230.5693840312123" width="15.40983606557377" height="267.4306159687876" fill="#DC267F" data-tooltip="1.69x baseline (YJIT 3.4.0dev)"/>
<line x1="157.86885245901638" y1="229.72246763444699" x2="173.27868852459017" y2="229.72246763444699" stroke-dasharray="1,0.5" stroke="#333c"/>
<line x1="157.86885245901638" y1="231.41630042797763" x2="173.27868852459017" y2="231.41630042797763" stroke-dasharray="1,0.5" stroke="#333c"/>
<line x1="165.5737704918033" y1="229.72246763444699" x2="165.5737704918033" y2="231.41630042797763" stroke-dasharray="1,0.5" stroke="#333c"/>
<line x1="150.1639344262295" y1="498.0" x2="150.1639344262295" y2="502.79999999999995" stroke="#000"/>
<text x="150.1639344262295" y="512.4" fill="#111" font-size="small" text-anchor="end" transform="rotate(-60, 150.1639344262295, 512.4)">
chunky-png
</text>
<rect x="188.68852459016395" y="346.4929258230479" width="15.40983606557377" height="151.50707417695202" fill="#785EF0" data-tooltip="0.96x baseline (CRuby 3.4.0dev)"/>
<line x1="188.68852459016395" y1="345.9699043838733" x2="204.0983606557377" y2="345.9699043838733" stroke-dasharray="1,0.5" stroke="#333c"/>
<line x1="188.68852459016395" y1="347.01594726222254" x2="204.0983606557377" y2="347.01594726222254" stroke-dasharray="1,0.5" stroke="#333c"/>
<line x1="196.39344262295083" y1="345.9699043838733" x2="196.39344262295083" y2="347.01594726222254" stroke-dasharray="1,0.5" stroke="#333c"/>
<rect x="204.0983606557377" y="209.7796161283052" width="15.40983606557377" height="288.2203838716947" fill="#FFB000" data-tooltip="1.82x baseline (YJIT 3.3.3)"/>
<line x1="204.0983606557377" y1="208.86183549962806" x2="219.5081967213115" y2="208.86183549962806" stroke-dasharray="1,0.5" stroke="#333c"/>
<line x1="204.0983606557377" y1="210.69739675698236" x2="219.5081967213115" y2="210.69739675698236" stroke-dasharray="1,0.5" stroke="#333c"/>
<line x1="211.8032786885246" y1="208.86183549962806" x2="211.8032786885246" y2="210.69739675698236" stroke-dasharray="1,0.5" stroke="#333c"/>
<rect x="219.5081967213115" y="213.1991245135381" width="15.40983606557377" height="284.80087548646185" fill="#DC267F" data-tooltip="1.80x baseline (YJIT 3.4.0dev)"/>
<line x1="219.5081967213115" y1="211.71196655058205" x2="234.91803278688528" y2="211.71196655058205" stroke-dasharray="1,0.5" stroke="#333c"/>
<line x1="219.5081967213115" y1="214.68628247649417" x2="234.91803278688528" y2="214.68628247649417" stroke-dasharray="1,0.5" stroke="#333c"/>
<line x1="227.2131147540984" y1="211.71196655058205" x2="227.2131147540984" y2="214.68628247649417" stroke-dasharray="1,0.5" stroke="#333c"/>
<line x1="211.8032786885246" y1="498.0" x2="211.8032786885246" y2="502.79999999999995" stroke="#000"/>
<text x="211.8032786885246" y="512.4" fill="#111" font-size="small" text-anchor="end" transform="rotate(-60, 211.8032786885246, 512.4)">
erubi-rails
</text>
<rect x="250.32786885245906" y="340.7217001287081" width="15.40983606557377" height="157.27829987129178" fill="#785EF0" data-tooltip="0.99x baseline (CRuby 3.4.0dev)"/>
<line x1="250.32786885245906" y1="338.9301483040447" x2="265.7377049180328" y2="338.9301483040447" stroke-dasharray="1,0.5" stroke="#333c"/>
<line x1="250.32786885245906" y1="342.5132519533716" x2="265.7377049180328" y2="342.5132519533716" stroke-dasharray="1,0.5" stroke="#333c"/>
<line x1="258.03278688524597" y1="338.9301483040447" x2="258.03278688524597" y2="342.5132519533716" stroke-dasharray="1,0.5" stroke="#333c"/>
<rect x="265.7377049180328" y="239.52155552601792" width="15.40983606557377" height="258.478444473982" fill="#FFB000" data-tooltip="1.63x baseline (YJIT 3.3.3)"/>
<line x1="265.7377049180328" y1="233.7141928470854" x2="281.14754098360663" y2="233.7141928470854" stroke-dasharray="1,0.5" stroke="#333c"/>
<line x1="265.7377049180328" y1="245.32891820495044" x2="281.14754098360663" y2="245.32891820495044" stroke-dasharray="1,0.5" stroke="#333c"/>
<line x1="273.4426229508197" y1="233.7141928470854" x2="273.4426229508197" y2="245.32891820495044" stroke-dasharray="1,0.5" stroke="#333c"/>
<rect x="281.14754098360663" y="212.92212635659456" width="15.40983606557377" height="285.0778736434054" fill="#DC267F" data-tooltip="1.80x baseline (YJIT 3.4.0dev)"/>
<line x1="281.14754098360663" y1="208.61447867269655" x2="296.5573770491804" y2="208.61447867269655" stroke-dasharray="1,0.5" stroke="#333c"/>
<line x1="281.14754098360663" y1="217.22977404049257" x2="296.5573770491804" y2="217.22977404049257" stroke-dasharray="1,0.5" stroke="#333c"/>
<line x1="288.8524590163935" y1="208.61447867269655" x2="288.8524590163935" y2="217.22977404049257" stroke-dasharray="1,0.5" stroke="#333c"/>
<line x1="273.4426229508197" y1="498.0" x2="273.4426229508197" y2="502.79999999999995" stroke="#000"/>
<text x="273.4426229508197" y="512.4" fill="#111" font-size="small" text-anchor="end" transform="rotate(-60, 273.4426229508197, 512.4)">
hexapdf
</text>
<rect x="311.96721311475414" y="347.51260613577597" width="15.40983606557377" height="150.487393864224" fill="#785EF0" data-tooltip="0.95x baseline (CRuby 3.4.0dev)"/>
<line x1="311.96721311475414" y1="346.39824202554047" x2="327.37704918032796" y2="346.39824202554047" stroke-dasharray="1,0.5" stroke="#333c"/>
<line x1="311.96721311475414" y1="348.6269702460114" x2="327.37704918032796" y2="348.6269702460114" stroke-dasharray="1,0.5" stroke="#333c"/>
<line x1="319.67213114754105" y1="346.39824202554047" x2="319.67213114754105" y2="348.6269702460114" stroke-dasharray="1,0.5" stroke="#333c"/>
<rect x="327.37704918032796" y="273.0120087842531" width="15.40983606557377" height="224.98799121574683" fill="#FFB000" data-tooltip="1.42x baseline (YJIT 3.3.3)"/>
<line x1="327.37704918032796" y1="271.37789019941494" x2="342.7868852459017" y2="271.37789019941494" stroke-dasharray="1,0.5" stroke="#333c"/>
<line x1="327.37704918032796" y1="274.6461273690913" x2="342.7868852459017" y2="274.6461273690913" stroke-dasharray="1,0.5" stroke="#333c"/>
<line x1="335.08196721311486" y1="271.37789019941494" x2="335.08196721311486" y2="274.6461273690913" stroke-dasharray="1,0.5" stroke="#333c"/>
<rect x="342.7868852459017" y="283.58056043069973" width="15.40983606557377" height="214.4194395693002" fill="#DC267F" data-tooltip="1.35x baseline (YJIT 3.4.0dev)"/>
<line x1="342.7868852459017" y1="281.68424367419357" x2="358.1967213114755" y2="281.68424367419357" stroke-dasharray="1,0.5" stroke="#333c"/>
<line x1="342.7868852459017" y1="285.4768771872059" x2="358.1967213114755" y2="285.4768771872059" stroke-dasharray="1,0.5" stroke="#333c"/>
<line x1="350.4918032786886" y1="281.68424367419357" x2="350.4918032786886" y2="285.4768771872059" stroke-dasharray="1,0.5" stroke="#333c"/>
<line x1="335.08196721311486" y1="498.0" x2="335.08196721311486" y2="502.79999999999995" stroke="#000"/>
<text x="335.08196721311486" y="512.4" fill="#111" font-size="small" text-anchor="end" transform="rotate(-60, 335.08196721311486, 512.4)">
liquid-c
</text>
<rect x="373.6065573770493" y="348.07912924848193" width="15.40983606557377" height="149.920870751518" fill="#785EF0" data-tooltip="0.95x baseline (CRuby 3.4.0dev)"/>
<line x1="373.6065573770493" y1="345.00244721892864" x2="389.01639344262304" y2="345.00244721892864" stroke-dasharray="1,0.5" stroke="#333c"/>
<line x1="373.6065573770493" y1="351.1558112780353" x2="389.01639344262304" y2="351.1558112780353" stroke-dasharray="1,0.5" stroke="#333c"/>
<line x1="381.3114754098362" y1="345.00244721892864" x2="381.3114754098362" y2="351.1558112780353" stroke-dasharray="1,0.5" stroke="#333c"/>
<rect x="389.01639344262304" y="282.4632158096512" width="15.40983606557377" height="215.53678419034873" fill="#FFB000" data-tooltip="1.36x baseline (YJIT 3.3.3)"/>
<line x1="389.01639344262304" y1="277.06311654637113" x2="404.42622950819685" y2="277.06311654637113" stroke-dasharray="1,0.5" stroke="#333c"/>
<line x1="389.01639344262304" y1="287.86331507293124" x2="404.42622950819685" y2="287.86331507293124" stroke-dasharray="1,0.5" stroke="#333c"/>
<line x1="396.72131147540995" y1="277.06311654637113" x2="396.72131147540995" y2="287.86331507293124" stroke-dasharray="1,0.5" stroke="#333c"/>
<rect x="404.42622950819685" y="280.0511251216965" width="15.40983606557377" height="217.94887487830346" fill="#DC267F" data-tooltip="1.38x baseline (YJIT 3.4.0dev)"/>
<line x1="404.42622950819685" y1="275.4920762110237" x2="419.8360655737706" y2="275.4920762110237" stroke-dasharray="1,0.5" stroke="#333c"/>
<line x1="404.42622950819685" y1="284.61017403236923" x2="419.8360655737706" y2="284.61017403236923" stroke-dasharray="1,0.5" stroke="#333c"/>
<line x1="412.13114754098376" y1="275.4920762110237" x2="412.13114754098376" y2="284.61017403236923" stroke-dasharray="1,0.5" stroke="#333c"/>
<line x1="396.72131147540995" y1="498.0" x2="396.72131147540995" y2="502.79999999999995" stroke="#000"/>
<text x="396.72131147540995" y="512.4" fill="#111" font-size="small" text-anchor="end" transform="rotate(-60, 396.72131147540995, 512.4)">
liquid-compile
</text>
<rect x="435.2459016393444" y="341.59634926858746" width="15.40983606557377" height="156.40365073141248" fill="#785EF0" data-tooltip="0.99x baseline (CRuby 3.4.0dev)"/>
<line x1="435.2459016393444" y1="340.8804740260215" x2="450.6557377049182" y2="340.8804740260215" stroke-dasharray="1,0.5" stroke="#333c"/>
<line x1="435.2459016393444" y1="342.31222451115343" x2="450.6557377049182" y2="342.31222451115343" stroke-dasharray="1,0.5" stroke="#333c"/>
<line x1="442.9508196721313" y1="340.8804740260215" x2="442.9508196721313" y2="342.31222451115343" stroke-dasharray="1,0.5" stroke="#333c"/>
<rect x="450.6557377049182" y="106.27441374684666" width="15.40983606557377" height="391.72558625315327" fill="#FFB000" data-tooltip="2.47x baseline (YJIT 3.3.3)"/>
<line x1="450.6557377049182" y1="103.89394833881144" x2="466.06557377049194" y2="103.89394833881144" stroke-dasharray="1,0.5" stroke="#333c"/>
<line x1="450.6557377049182" y1="108.65487915488188" x2="466.06557377049194" y2="108.65487915488188" stroke-dasharray="1,0.5" stroke="#333c"/>
<line x1="458.3606557377051" y1="103.89394833881144" x2="458.3606557377051" y2="108.65487915488188" stroke-dasharray="1,0.5" stroke="#333c"/>
<rect x="466.06557377049194" y="100.19999999999999" width="15.40983606557377" height="397.79999999999995" fill="#DC267F" data-tooltip="2.51x baseline (YJIT 3.4.0dev)"/>
<line x1="466.06557377049194" y1="97.26432209516435" x2="481.47540983606575" y2="97.26432209516435" stroke-dasharray="1,0.5" stroke="#333c"/>
<line x1="466.06557377049194" y1="103.13567790483563" x2="481.47540983606575" y2="103.13567790483563" stroke-dasharray="1,0.5" stroke="#333c"/>
<line x1="473.77049180327884" y1="97.26432209516435" x2="473.77049180327884" y2="103.13567790483563" stroke-dasharray="1,0.5" stroke="#333c"/>
<line x1="458.3606557377051" y1="498.0" x2="458.3606557377051" y2="502.79999999999995" stroke="#000"/>
<text x="458.3606557377051" y="512.4" fill="#111" font-size="small" text-anchor="end" transform="rotate(-60, 458.3606557377051, 512.4)">
liquid-render
</text>
<rect x="496.8852459016395" y="346.8600212422684" width="15.40983606557377" height="151.1399787577316" fill="#785EF0" data-tooltip="0.95x baseline (CRuby 3.4.0dev)"/>
<line x1="496.8852459016395" y1="344.705535117112" x2="512.2950819672133" y2="344.705535117112" stroke-dasharray="1,0.5" stroke="#333c"/>
<line x1="496.8852459016395" y1="349.01450736742476" x2="512.2950819672133" y2="349.01450736742476" stroke-dasharray="1,0.5" stroke="#333c"/>
<line x1="504.59016393442636" y1="344.705535117112" x2="504.59016393442636" y2="349.01450736742476" stroke-dasharray="1,0.5" stroke="#333c"/>
<rect x="512.2950819672133" y="262.07729421449164" width="15.40983606557377" height="235.92270578550827" fill="#FFB000" data-tooltip="1.49x baseline (YJIT 3.3.3)"/>
<line x1="512.2950819672133" y1="257.8403997289055" x2="527.7049180327871" y2="257.8403997289055" stroke-dasharray="1,0.5" stroke="#333c"/>
<line x1="512.2950819672133" y1="266.31418870007786" x2="527.7049180327871" y2="266.31418870007786" stroke-dasharray="1,0.5" stroke="#333c"/>
<line x1="520.0000000000001" y1="257.8403997289055" x2="520.0000000000001" y2="266.31418870007786" stroke-dasharray="1,0.5" stroke="#333c"/>
<rect x="527.7049180327871" y="264.0760338829576" width="15.40983606557377" height="233.92396611704237" fill="#DC267F" data-tooltip="1.48x baseline (YJIT 3.4.0dev)"/>
<line x1="527.7049180327871" y1="259.8605415266761" x2="543.1147540983609" y2="259.8605415266761" stroke-dasharray="1,0.5" stroke="#333c"/>
<line x1="527.7049180327871" y1="268.29152623923903" x2="543.1147540983609" y2="268.29152623923903" stroke-dasharray="1,0.5" stroke="#333c"/>
<line x1="535.4098360655739" y1="259.8605415266761" x2="535.4098360655739" y2="268.29152623923903" stroke-dasharray="1,0.5" stroke="#333c"/>
<line x1="520.0000000000002" y1="498.0" x2="520.0000000000002" y2="502.79999999999995" stroke="#000"/>
<text x="520.0000000000002" y="512.4" fill="#111" font-size="small" text-anchor="end" transform="rotate(-60, 520.0000000000002, 512.4)">
lobsters
</text>
<rect x="558.5245901639346" y="349.30700389218987" width="15.40983606557377" height="148.69299610781007" fill="#785EF0" data-tooltip="0.94x baseline (CRuby 3.4.0dev)"/>
<line x1="558.5245901639346" y1="348.6156192301731" x2="573.9344262295084" y2="348.6156192301731" stroke-dasharray="1,0.5" stroke="#333c"/>
<line x1="558.5245901639346" y1="349.9983885542066" x2="573.9344262295084" y2="349.9983885542066" stroke-dasharray="1,0.5" stroke="#333c"/>
<line x1="566.2295081967214" y1="348.6156192301731" x2="566.2295081967214" y2="349.9983885542066" stroke-dasharray="1,0.5" stroke="#333c"/>
<rect x="573.9344262295084" y="268.6084748650459" width="15.40983606557377" height="229.39152513495404" fill="#FFB000" data-tooltip="1.45x baseline (YJIT 3.3.3)"/>
<line x1="573.9344262295084" y1="267.51525303903793" x2="589.3442622950822" y2="267.51525303903793" stroke-dasharray="1,0.5" stroke="#333c"/>
<line x1="573.9344262295084" y1="269.7016966910539" x2="589.3442622950822" y2="269.7016966910539" stroke-dasharray="1,0.5" stroke="#333c"/>
<line x1="581.6393442622953" y1="267.51525303903793" x2="581.6393442622953" y2="269.7016966910539" stroke-dasharray="1,0.5" stroke="#333c"/>
<rect x="589.3442622950822" y="283.2851549173412" width="15.40983606557377" height="214.71484508265874" fill="#DC267F" data-tooltip="1.36x baseline (YJIT 3.4.0dev)"/>
<line x1="589.3442622950822" y1="282.2560374752127" x2="604.7540983606559" y2="282.2560374752127" stroke-dasharray="1,0.5" stroke="#333c"/>
<line x1="589.3442622950822" y1="284.3142723594697" x2="604.7540983606559" y2="284.3142723594697" stroke-dasharray="1,0.5" stroke="#333c"/>
<line x1="597.0491803278691" y1="282.2560374752127" x2="597.0491803278691" y2="284.3142723594697" stroke-dasharray="1,0.5" stroke="#333c"/>
<line x1="581.6393442622954" y1="498.0" x2="581.6393442622954" y2="502.79999999999995" stroke="#000"/>
<text x="581.6393442622954" y="512.4" fill="#111" font-size="small" text-anchor="end" transform="rotate(-60, 581.6393442622954, 512.4)">
mail
</text>
<rect x="620.1639344262297" y="342.5453206058775" width="15.40983606557377" height="155.45467939412242" fill="#785EF0" data-tooltip="0.98x baseline (CRuby 3.4.0dev)"/>
<line x1="620.1639344262297" y1="342.42638250516984" x2="635.5737704918035" y2="342.42638250516984" stroke-dasharray="1,0.5" stroke="#333c"/>
<line x1="620.1639344262297" y1="342.6642587065852" x2="635.5737704918035" y2="342.6642587065852" stroke-dasharray="1,0.5" stroke="#333c"/>
<line x1="627.8688524590166" y1="342.42638250516984" x2="627.8688524590166" y2="342.6642587065852" stroke-dasharray="1,0.5" stroke="#333c"/>
<rect x="635.5737704918035" y="262.6486946618534" width="15.40983606557377" height="235.3513053381465" fill="#FFB000" data-tooltip="1.49x baseline (YJIT 3.3.3)"/>
<line x1="635.5737704918035" y1="262.4775097595226" x2="650.9836065573774" y2="262.4775097595226" stroke-dasharray="1,0.5" stroke="#333c"/>
<line x1="635.5737704918035" y1="262.8198795641843" x2="650.9836065573774" y2="262.8198795641843" stroke-dasharray="1,0.5" stroke="#333c"/>
<line x1="643.2786885245904" y1="262.4775097595226" x2="643.2786885245904" y2="262.8198795641843" stroke-dasharray="1,0.5" stroke="#333c"/>
<rect x="650.9836065573774" y="230.3064135307549" width="15.40983606557377" height="267.6935864692451" fill="#DC267F" data-tooltip="1.69x baseline (YJIT 3.4.0dev)"/>
<line x1="650.9836065573774" y1="230.07563942297762" x2="666.393442622951" y2="230.07563942297762" stroke-dasharray="1,0.5" stroke="#333c"/>
<line x1="650.9836065573774" y1="230.53718763853217" x2="666.393442622951" y2="230.53718763853217" stroke-dasharray="1,0.5" stroke="#333c"/>
<line x1="658.6885245901641" y1="230.07563942297762" x2="658.6885245901641" y2="230.53718763853217" stroke-dasharray="1,0.5" stroke="#333c"/>
<line x1="643.2786885245905" y1="498.0" x2="643.2786885245905" y2="502.79999999999995" stroke="#000"/>
<text x="643.2786885245905" y="512.4" fill="#111" font-size="small" text-anchor="end" transform="rotate(-60, 643.2786885245905, 512.4)">
psych-load
</text>
<rect x="681.8032786885249" y="345.3715157533338" width="15.40983606557377" height="152.62848424666612" fill="#785EF0" data-tooltip="0.96x baseline (CRuby 3.4.0dev)"/>
<line x1="681.8032786885249" y1="345.10710036272707" x2="697.2131147540987" y2="345.10710036272707" stroke-dasharray="1,0.5" stroke="#333c"/>
<line x1="681.8032786885249" y1="345.63593114394064" x2="697.2131147540987" y2="345.63593114394064" stroke-dasharray="1,0.5" stroke="#333c"/>
<line x1="689.5081967213117" y1="345.10710036272707" x2="689.5081967213117" y2="345.63593114394064" stroke-dasharray="1,0.5" stroke="#333c"/>
<rect x="697.2131147540987" y="226.90089285120675" width="15.40983606557377" height="271.0991071487932" fill="#FFB000" data-tooltip="1.71x baseline (YJIT 3.3.3)"/>
<line x1="697.2131147540987" y1="226.38154311683638" x2="712.6229508196724" y2="226.38154311683638" stroke-dasharray="1,0.5" stroke="#333c"/>
<line x1="697.2131147540987" y1="227.4202425855771" x2="712.6229508196724" y2="227.4202425855771" stroke-dasharray="1,0.5" stroke="#333c"/>
<line x1="704.9180327868854" y1="226.38154311683638" x2="704.9180327868854" y2="227.4202425855771" stroke-dasharray="1,0.5" stroke="#333c"/>
<rect x="712.6229508196724" y="224.70793680676226" width="15.40983606557377" height="273.29206319323765" fill="#DC267F" data-tooltip="1.73x baseline (YJIT 3.4.0dev)"/>
<line x1="712.6229508196724" y1="223.97880008641005" x2="728.0327868852462" y2="223.97880008641005" stroke-dasharray="1,0.5" stroke="#333c"/>
<line x1="712.6229508196724" y1="225.4370735271145" x2="728.0327868852462" y2="225.4370735271145" stroke-dasharray="1,0.5" stroke="#333c"/>
<line x1="720.3278688524592" y1="223.97880008641005" x2="720.3278688524592" y2="225.4370735271145" stroke-dasharray="1,0.5" stroke="#333c"/>
<line x1="704.9180327868855" y1="498.0" x2="704.9180327868855" y2="502.79999999999995" stroke="#000"/>
<text x="704.9180327868855" y="512.4" fill="#111" font-size="small" text-anchor="end" transform="rotate(-60, 704.9180327868855, 512.4)">
railsbench
</text>
<rect x="743.44262295082" y="345.02608337718385" width="15.40983606557377" height="152.97391662281615" fill="#785EF0" data-tooltip="0.97x baseline (CRuby 3.4.0dev)"/>
<line x1="743.44262295082" y1="342.14206684122735" x2="758.8524590163937" y2="342.14206684122735" stroke-dasharray="1,0.5" stroke="#333c"/>
<line x1="743.44262295082" y1="347.91009991314036" x2="758.8524590163937" y2="347.91009991314036" stroke-dasharray="1,0.5" stroke="#333c"/>
<line x1="751.1475409836069" y1="342.14206684122735" x2="751.1475409836069" y2="347.91009991314036" stroke-dasharray="1,0.5" stroke="#333c"/>
<rect x="758.8524590163937" y="231.40355978015822" width="15.40983606557377" height="266.5964402198417" fill="#FFB000" data-tooltip="1.68x baseline (YJIT 3.3.3)"/>
<line x1="758.8524590163937" y1="220.63791473232192" x2="774.2622950819675" y2="220.63791473232192" stroke-dasharray="1,0.5" stroke="#333c"/>
<line x1="758.8524590163937" y1="242.1692048279945" x2="774.2622950819675" y2="242.1692048279945" stroke-dasharray="1,0.5" stroke="#333c"/>
<line x1="766.5573770491806" y1="220.63791473232192" x2="766.5573770491806" y2="242.1692048279945" stroke-dasharray="1,0.5" stroke="#333c"/>
<rect x="774.2622950819675" y="211.98122103690392" width="15.40983606557377" height="286.018778963096" fill="#DC267F" data-tooltip="1.81x baseline (YJIT 3.4.0dev)"/>
<line x1="774.2622950819675" y1="201.58136139015605" x2="789.6721311475413" y2="201.58136139015605" stroke-dasharray="1,0.5" stroke="#333c"/>
<line x1="774.2622950819675" y1="222.3810806836518" x2="789.6721311475413" y2="222.3810806836518" stroke-dasharray="1,0.5" stroke="#333c"/>
<line x1="781.9672131147544" y1="201.58136139015605" x2="781.9672131147544" y2="222.3810806836518" stroke-dasharray="1,0.5" stroke="#333c"/>
<line x1="766.5573770491807" y1="498.0" x2="766.5573770491807" y2="502.79999999999995" stroke="#000"/>
<text x="766.5573770491807" y="512.4" fill="#111" font-size="small" text-anchor="end" transform="rotate(-60, 766.5573770491807, 512.4)">
rubocop
</text>
<rect x="805.081967213115" y="339.03822022905354" width="15.40983606557377" height="158.9617797709464" fill="#785EF0" data-tooltip="1.00x baseline (CRuby 3.4.0dev)"/>
<line x1="805.081967213115" y1="336.5909693298867" x2="820.4918032786888" y2="336.5909693298867" stroke-dasharray="1,0.5" stroke="#333c"/>
<line x1="805.081967213115" y1="341.48547112822035" x2="820.4918032786888" y2="341.48547112822035" stroke-dasharray="1,0.5" stroke="#333c"/>
<line x1="812.7868852459019" y1="336.5909693298867" x2="812.7868852459019" y2="341.48547112822035" stroke-dasharray="1,0.5" stroke="#333c"/>
<rect x="820.4918032786888" y="243.2059736505431" width="15.40983606557377" height="254.79402634945686" fill="#FFB000" data-tooltip="1.61x baseline (YJIT 3.3.3)"/>
<line x1="820.4918032786888" y1="238.28614906836722" x2="835.9016393442627" y2="238.28614906836722" stroke-dasharray="1,0.5" stroke="#333c"/>
<line x1="820.4918032786888" y1="248.12579823271895" x2="835.9016393442627" y2="248.12579823271895" stroke-dasharray="1,0.5" stroke="#333c"/>
<line x1="828.1967213114757" y1="238.28614906836722" x2="828.1967213114757" y2="248.12579823271895" stroke-dasharray="1,0.5" stroke="#333c"/>
<rect x="835.9016393442627" y="258.8682246142623" width="15.40983606557377" height="239.1317753857376" fill="#DC267F" data-tooltip="1.51x baseline (YJIT 3.4.0dev)"/>
<line x1="835.9016393442627" y1="239.90619276849065" x2="851.3114754098365" y2="239.90619276849065" stroke-dasharray="1,0.5" stroke="#333c"/>
<line x1="835.9016393442627" y1="277.83025646003404" x2="851.3114754098365" y2="277.83025646003404" stroke-dasharray="1,0.5" stroke="#333c"/>
<line x1="843.6065573770495" y1="239.90619276849065" x2="843.6065573770495" y2="277.83025646003404" stroke-dasharray="1,0.5" stroke="#333c"/>
<line x1="828.1967213114758" y1="498.0" x2="828.1967213114758" y2="502.79999999999995" stroke="#000"/>
<text x="828.1967213114758" y="512.4" fill="#111" font-size="small" text-anchor="end" transform="rotate(-60, 828.1967213114758, 512.4)">
ruby-lsp
</text>
<rect x="866.7213114754102" y="344.9549919362204" width="15.40983606557377" height="153.04500806377956" fill="#785EF0" data-tooltip="0.97x baseline (CRuby 3.4.0dev)"/>
<line x1="866.7213114754102" y1="343.86626137123807" x2="882.131147540984" y2="343.86626137123807" stroke-dasharray="1,0.5" stroke="#333c"/>
<line x1="866.7213114754102" y1="346.0437225012027" x2="882.131147540984" y2="346.0437225012027" stroke-dasharray="1,0.5" stroke="#333c"/>
<line x1="874.426229508197" y1="343.86626137123807" x2="874.426229508197" y2="346.0437225012027" stroke-dasharray="1,0.5" stroke="#333c"/>
<rect x="882.131147540984" y="286.8437770124944" width="15.40983606557377" height="211.15622298750557" fill="#FFB000" data-tooltip="1.33x baseline (YJIT 3.3.3)"/>
<line x1="882.131147540984" y1="285.33378967637753" x2="897.5409836065578" y2="285.33378967637753" stroke-dasharray="1,0.5" stroke="#333c"/>
<line x1="882.131147540984" y1="288.35376434861126" x2="897.5409836065578" y2="288.35376434861126" stroke-dasharray="1,0.5" stroke="#333c"/>
<line x1="889.8360655737708" y1="285.33378967637753" x2="889.8360655737708" y2="288.35376434861126" stroke-dasharray="1,0.5" stroke="#333c"/>
<rect x="897.5409836065578" y="293.8538776484586" width="15.40983606557377" height="204.14612235154135" fill="#DC267F" data-tooltip="1.29x baseline (YJIT 3.4.0dev)"/>
<line x1="897.5409836065578" y1="292.2575337605772" x2="912.9508196721315" y2="292.2575337605772" stroke-dasharray="1,0.5" stroke="#333c"/>
<line x1="897.5409836065578" y1="295.45022153634005" x2="912.9508196721315" y2="295.45022153634005" stroke-dasharray="1,0.5" stroke="#333c"/>
<line x1="905.2459016393447" y1="292.2575337605772" x2="905.2459016393447" y2="295.45022153634005" stroke-dasharray="1,0.5" stroke="#333c"/>
<line x1="889.836065573771" y1="498.0" x2="889.836065573771" y2="502.79999999999995" stroke="#000"/>
<text x="889.836065573771" y="512.4" fill="#111" font-size="small" text-anchor="end" transform="rotate(-60, 889.836065573771, 512.4)">
sequel
</text>
<rect x="928.3606557377053" y="345.03729142853314" width="15.40983606557377" height="152.96270857146686" fill="#785EF0" data-tooltip="0.97x baseline (CRuby 3.4.0dev)"/>
<rect x="943.7704918032791" y="239.21335990011792" width="15.40983606557377" height="258.786640099882" fill="#FFB000" data-tooltip="1.63x baseline (YJIT 3.3.3)"/>
<rect x="959.1803278688528" y="235.7028510997817" width="15.40983606557377" height="262.29714890021825" fill="#DC267F" data-tooltip="1.66x baseline (YJIT 3.4.0dev)"/>
<line x1="951.4754098360661" y1="498.0" x2="951.4754098360661" y2="502.79999999999995" stroke="#000"/>
<text x="951.4754098360661" y="512.4" fill="#111" font-size="small" text-anchor="end" transform="rotate(-60, 951.4754098360661, 512.4)" font-style="italic">
geomean*
</text>
<line x1="50.0" y1="339.61295654763626" x2="990.0" y2="339.61295654763626" stroke="#648FFF" stroke-width="2"/>
<rect x="67.23483606557377" y="330.2549894047126" width="17.85" height="7.2" transform="rotate(-60, 75.11475409836066, 336.91498940471257)" fill="#fffa"/>
<text x="67.40983606557377" y="336.91498940471257" fill="#111" font-size="0.5em" text-anchor="start" textLength="17.5" transform="rotate(-60, 75.11475409836066, 336.91498940471257)" style="text-shadow: 0 0 1px #fff;">
0.97
</text>
<rect x="82.64467213114754" y="156.55760611661208" width="17.85" height="7.2" transform="rotate(-60, 90.52459016393442, 163.2176061166121)" fill="#fffa"/>
<text x="82.81967213114753" y="163.2176061166121" fill="#111" font-size="0.5em" text-anchor="start" textLength="17.5" transform="rotate(-60, 90.52459016393442, 163.2176061166121)" style="text-shadow: 0 0 1px #fff;">
2.07
</text>
<rect x="98.0545081967213" y="131.52128827489813" width="17.85" height="7.2" transform="rotate(-60, 105.93442622950819, 138.18128827489812)" fill="#fffa"/>
<text x="98.2295081967213" y="138.18128827489812" fill="#111" font-size="0.5em" text-anchor="start" textLength="17.5" transform="rotate(-60, 105.93442622950819, 138.18128827489812)" style="text-shadow: 0 0 1px #fff;">
2.22
</text>
<rect x="128.87418032786883" y="334.04416804333323" width="17.85" height="7.2" transform="rotate(-60, 136.75409836065572, 340.70416804333325)" fill="#fffa"/>
<text x="129.04918032786884" y="340.70416804333325" fill="#111" font-size="0.5em" text-anchor="start" textLength="17.5" transform="rotate(-60, 136.75409836065572, 340.70416804333325)" style="text-shadow: 0 0 1px #fff;">
0.95
</text>
<rect x="144.2840163934426" y="220.44210199811596" width="17.85" height="7.2" transform="rotate(-60, 152.1639344262295, 227.10210199811596)" fill="#fffa"/>
<text x="144.4590163934426" y="227.10210199811596" fill="#111" font-size="0.5em" text-anchor="start" textLength="17.5" transform="rotate(-60, 152.1639344262295, 227.10210199811596)" style="text-shadow: 0 0 1px #fff;">
1.66
</text>
<rect x="159.69385245901637" y="216.4093840312123" width="17.85" height="7.2" transform="rotate(-60, 167.5737704918033, 223.0693840312123)" fill="#fffa"/>
<text x="159.86885245901638" y="223.0693840312123" fill="#111" font-size="0.5em" text-anchor="start" textLength="17.5" transform="rotate(-60, 167.5737704918033, 223.0693840312123)" style="text-shadow: 0 0 1px #fff;">
1.69
</text>
<rect x="190.51352459016394" y="332.33292582304796" width="17.85" height="7.2" transform="rotate(-60, 198.39344262295083, 338.9929258230479)" fill="#fffa"/>
<text x="190.68852459016395" y="338.9929258230479" fill="#111" font-size="0.5em" text-anchor="start" textLength="17.5" transform="rotate(-60, 198.39344262295083, 338.9929258230479)" style="text-shadow: 0 0 1px #fff;">
0.96
</text>
<rect x="205.92336065573772" y="195.6196161283052" width="17.85" height="7.2" transform="rotate(-60, 213.8032786885246, 202.2796161283052)" fill="#fffa"/>
<text x="206.09836065573774" y="202.2796161283052" fill="#111" font-size="0.5em" text-anchor="start" textLength="17.5" transform="rotate(-60, 213.8032786885246, 202.2796161283052)" style="text-shadow: 0 0 1px #fff;">
1.82
</text>
<rect x="221.33319672131148" y="199.0391245135381" width="17.85" height="7.2" transform="rotate(-60, 229.2131147540984, 205.6991245135381)" fill="#fffa"/>
<text x="221.5081967213115" y="205.6991245135381" fill="#111" font-size="0.5em" text-anchor="start" textLength="17.5" transform="rotate(-60, 229.2131147540984, 205.6991245135381)" style="text-shadow: 0 0 1px #fff;">
1.80
</text>
<rect x="252.15286885245908" y="326.56170012870814" width="17.85" height="7.2" transform="rotate(-60, 260.03278688524597, 333.22170012870816)" fill="#fffa"/>
<text x="252.32786885245906" y="333.22170012870816" fill="#111" font-size="0.5em" text-anchor="start" textLength="17.5" transform="rotate(-60, 260.03278688524597, 333.22170012870816)" style="text-shadow: 0 0 1px #fff;">
0.99
</text>
<rect x="267.56270491803286" y="225.36155552601792" width="17.85" height="7.2" transform="rotate(-60, 275.4426229508197, 232.02155552601792)" fill="#fffa"/>
<text x="267.7377049180328" y="232.02155552601792" fill="#111" font-size="0.5em" text-anchor="start" textLength="17.5" transform="rotate(-60, 275.4426229508197, 232.02155552601792)" style="text-shadow: 0 0 1px #fff;">
1.63
</text>
<rect x="282.9725409836066" y="198.76212635659456" width="17.85" height="7.2" transform="rotate(-60, 290.8524590163935, 205.42212635659456)" fill="#fffa"/>
<text x="283.14754098360663" y="205.42212635659456" fill="#111" font-size="0.5em" text-anchor="start" textLength="17.5" transform="rotate(-60, 290.8524590163935, 205.42212635659456)" style="text-shadow: 0 0 1px #fff;">
1.80
</text>
<rect x="313.7922131147542" y="333.352606135776" width="17.85" height="7.2" transform="rotate(-60, 321.67213114754105, 340.01260613577597)" fill="#fffa"/>
<text x="313.96721311475414" y="340.01260613577597" fill="#111" font-size="0.5em" text-anchor="start" textLength="17.5" transform="rotate(-60, 321.67213114754105, 340.01260613577597)" style="text-shadow: 0 0 1px #fff;">
0.95
</text>
<rect x="329.20204918032795" y="258.8520087842531" width="17.85" height="7.2" transform="rotate(-60, 337.08196721311486, 265.5120087842531)" fill="#fffa"/>
<text x="329.37704918032796" y="265.5120087842531" fill="#111" font-size="0.5em" text-anchor="start" textLength="17.5" transform="rotate(-60, 337.08196721311486, 265.5120087842531)" style="text-shadow: 0 0 1px #fff;">
1.42
</text>
<rect x="344.61188524590176" y="269.4205604306997" width="17.85" height="7.2" transform="rotate(-60, 352.4918032786886, 276.08056043069973)" fill="#fffa"/>
<text x="344.7868852459017" y="276.08056043069973" fill="#111" font-size="0.5em" text-anchor="start" textLength="17.5" transform="rotate(-60, 352.4918032786886, 276.08056043069973)" style="text-shadow: 0 0 1px #fff;">
1.35
</text>
<rect x="375.43155737704933" y="333.91912924848197" width="17.85" height="7.2" transform="rotate(-60, 383.3114754098362, 340.579129248482)" fill="#fffa"/>
<text x="375.6065573770493" y="340.579129248482" fill="#111" font-size="0.5em" text-anchor="start" textLength="17.5" transform="rotate(-60, 383.3114754098362, 340.579129248482)" style="text-shadow: 0 0 1px #fff;">
0.95
</text>
<rect x="390.8413934426231" y="268.3032158096512" width="17.85" height="7.2" transform="rotate(-60, 398.72131147540995, 274.9632158096512)" fill="#fffa"/>
<text x="391.01639344262304" y="274.9632158096512" fill="#111" font-size="0.5em" text-anchor="start" textLength="17.5" transform="rotate(-60, 398.72131147540995, 274.9632158096512)" style="text-shadow: 0 0 1px #fff;">
1.36
</text>
<rect x="406.25122950819684" y="265.89112512169646" width="17.85" height="7.2" transform="rotate(-60, 414.13114754098376, 272.5511251216965)" fill="#fffa"/>
<text x="406.42622950819685" y="272.5511251216965" fill="#111" font-size="0.5em" text-anchor="start" textLength="17.5" transform="rotate(-60, 414.13114754098376, 272.5511251216965)" style="text-shadow: 0 0 1px #fff;">
1.38
</text>
<rect x="437.0709016393444" y="327.4363492685875" width="17.85" height="7.2" transform="rotate(-60, 444.9508196721313, 334.09634926858746)" fill="#fffa"/>
<text x="437.2459016393444" y="334.09634926858746" fill="#111" font-size="0.5em" text-anchor="start" textLength="17.5" transform="rotate(-60, 444.9508196721313, 334.09634926858746)" style="text-shadow: 0 0 1px #fff;">
0.99
</text>
<rect x="452.4807377049182" y="92.11441374684665" width="17.85" height="7.2" transform="rotate(-60, 460.3606557377051, 98.77441374684666)" fill="#fffa"/>
<text x="452.6557377049182" y="98.77441374684666" fill="#111" font-size="0.5em" text-anchor="start" textLength="17.5" transform="rotate(-60, 460.3606557377051, 98.77441374684666)" style="text-shadow: 0 0 1px #fff;">
2.47
</text>
<rect x="467.890573770492" y="86.03999999999998" width="17.85" height="7.2" transform="rotate(-60, 475.77049180327884, 92.69999999999999)" fill="#fffa"/>
<text x="468.06557377049194" y="92.69999999999999" fill="#111" font-size="0.5em" text-anchor="start" textLength="17.5" transform="rotate(-60, 475.77049180327884, 92.69999999999999)" style="text-shadow: 0 0 1px #fff;">
2.51
</text>
<rect x="498.71024590163955" y="332.7000212422684" width="17.85" height="7.2" transform="rotate(-60, 506.59016393442636, 339.36002124226843)" fill="#fffa"/>
<text x="498.8852459016395" y="339.36002124226843" fill="#111" font-size="0.5em" text-anchor="start" textLength="17.5" transform="rotate(-60, 506.59016393442636, 339.36002124226843)" style="text-shadow: 0 0 1px #fff;">
0.95
</text>
<rect x="514.1200819672133" y="247.91729421449165" width="17.85" height="7.2" transform="rotate(-60, 522.0000000000001, 254.57729421449164)" fill="#fffa"/>
<text x="514.2950819672133" y="254.57729421449164" fill="#111" font-size="0.5em" text-anchor="start" textLength="17.5" transform="rotate(-60, 522.0000000000001, 254.57729421449164)" style="text-shadow: 0 0 1px #fff;">
1.49
</text>
<rect x="529.529918032787" y="249.91603388295758" width="17.85" height="7.2" transform="rotate(-60, 537.4098360655739, 256.5760338829576)" fill="#fffa"/>
<text x="529.7049180327871" y="256.5760338829576" fill="#111" font-size="0.5em" text-anchor="start" textLength="17.5" transform="rotate(-60, 537.4098360655739, 256.5760338829576)" style="text-shadow: 0 0 1px #fff;">
1.48
</text>
<rect x="560.3495901639346" y="335.1470038921899" width="17.85" height="7.2" transform="rotate(-60, 568.2295081967214, 341.80700389218987)" fill="#fffa"/>
<text x="560.5245901639346" y="341.80700389218987" fill="#111" font-size="0.5em" text-anchor="start" textLength="17.5" transform="rotate(-60, 568.2295081967214, 341.80700389218987)" style="text-shadow: 0 0 1px #fff;">
0.94
</text>
<rect x="575.7594262295083" y="254.44847486504588" width="17.85" height="7.2" transform="rotate(-60, 583.6393442622953, 261.1084748650459)" fill="#fffa"/>
<text x="575.9344262295084" y="261.1084748650459" fill="#111" font-size="0.5em" text-anchor="start" textLength="17.5" transform="rotate(-60, 583.6393442622953, 261.1084748650459)" style="text-shadow: 0 0 1px #fff;">
1.45
</text>
<rect x="591.1692622950821" y="269.1251549173412" width="17.85" height="7.2" transform="rotate(-60, 599.0491803278691, 275.7851549173412)" fill="#fffa"/>
<text x="591.3442622950822" y="275.7851549173412" fill="#111" font-size="0.5em" text-anchor="start" textLength="17.5" transform="rotate(-60, 599.0491803278691, 275.7851549173412)" style="text-shadow: 0 0 1px #fff;">
1.36
</text>
<rect x="621.9889344262297" y="328.38532060587755" width="17.85" height="7.2" transform="rotate(-60, 629.8688524590166, 335.0453206058776)" fill="#fffa"/>
<text x="622.1639344262297" y="335.0453206058776" fill="#111" font-size="0.5em" text-anchor="start" textLength="17.5" transform="rotate(-60, 629.8688524590166, 335.0453206058776)" style="text-shadow: 0 0 1px #fff;">
0.98
</text>
<rect x="637.3987704918035" y="248.48869466185343" width="17.85" height="7.2" transform="rotate(-60, 645.2786885245904, 255.14869466185343)" fill="#fffa"/>
<text x="637.5737704918035" y="255.14869466185343" fill="#111" font-size="0.5em" text-anchor="start" textLength="17.5" transform="rotate(-60, 645.2786885245904, 255.14869466185343)" style="text-shadow: 0 0 1px #fff;">
1.49
</text>
<rect x="652.8086065573773" y="216.1464135307549" width="17.85" height="7.2" transform="rotate(-60, 660.6885245901641, 222.8064135307549)" fill="#fffa"/>
<text x="652.9836065573774" y="222.8064135307549" fill="#111" font-size="0.5em" text-anchor="start" textLength="17.5" transform="rotate(-60, 660.6885245901641, 222.8064135307549)" style="text-shadow: 0 0 1px #fff;">
1.69
</text>
<rect x="683.6282786885248" y="331.21151575333386" width="17.85" height="7.2" transform="rotate(-60, 691.5081967213117, 337.8715157533339)" fill="#fffa"/>
<text x="683.8032786885249" y="337.8715157533339" fill="#111" font-size="0.5em" text-anchor="start" textLength="17.5" transform="rotate(-60, 691.5081967213117, 337.8715157533339)" style="text-shadow: 0 0 1px #fff;">
0.96
</text>
<rect x="699.0381147540986" y="212.74089285120675" width="17.85" height="7.2" transform="rotate(-60, 706.9180327868854, 219.40089285120675)" fill="#fffa"/>
<text x="699.2131147540987" y="219.40089285120675" fill="#111" font-size="0.5em" text-anchor="start" textLength="17.5" transform="rotate(-60, 706.9180327868854, 219.40089285120675)" style="text-shadow: 0 0 1px #fff;">
1.71
</text>
<rect x="714.4479508196724" y="210.54793680676227" width="17.85" height="7.2" transform="rotate(-60, 722.3278688524592, 217.20793680676226)" fill="#fffa"/>
<text x="714.6229508196724" y="217.20793680676226" fill="#111" font-size="0.5em" text-anchor="start" textLength="17.5" transform="rotate(-60, 722.3278688524592, 217.20793680676226)" style="text-shadow: 0 0 1px #fff;">
1.73
</text>
<rect x="745.2676229508199" y="330.8660833771839" width="17.85" height="7.2" transform="rotate(-60, 753.1475409836069, 337.52608337718385)" fill="#fffa"/>
<text x="745.44262295082" y="337.52608337718385" fill="#111" font-size="0.5em" text-anchor="start" textLength="17.5" transform="rotate(-60, 753.1475409836069, 337.52608337718385)" style="text-shadow: 0 0 1px #fff;">
0.97
</text>
<rect x="760.6774590163938" y="217.2435597801582" width="17.85" height="7.2" transform="rotate(-60, 768.5573770491806, 223.9035597801582)" fill="#fffa"/>
<text x="760.8524590163937" y="223.9035597801582" fill="#111" font-size="0.5em" text-anchor="start" textLength="17.5" transform="rotate(-60, 768.5573770491806, 223.9035597801582)" style="text-shadow: 0 0 1px #fff;">
1.68
</text>
<rect x="776.0872950819675" y="197.82122103690392" width="17.85" height="7.2" transform="rotate(-60, 783.9672131147544, 204.48122103690392)" fill="#fffa"/>
<text x="776.2622950819675" y="204.48122103690392" fill="#111" font-size="0.5em" text-anchor="start" textLength="17.5" transform="rotate(-60, 783.9672131147544, 204.48122103690392)" style="text-shadow: 0 0 1px #fff;">
1.81
</text>
<rect x="806.9069672131151" y="324.87822022905357" width="17.85" height="7.2" transform="rotate(-60, 814.7868852459019, 331.5382202290536)" fill="#fffa"/>
<text x="807.0819672131151" y="331.5382202290536" fill="#111" font-size="0.5em" text-anchor="start" textLength="17.5" transform="rotate(-60, 814.7868852459019, 331.5382202290536)" style="text-shadow: 0 0 1px #fff;">
1.00
</text>
<rect x="822.3168032786888" y="229.0459736505431" width="17.85" height="7.2" transform="rotate(-60, 830.1967213114757, 235.7059736505431)" fill="#fffa"/>
<text x="822.4918032786888" y="235.7059736505431" fill="#111" font-size="0.5em" text-anchor="start" textLength="17.5" transform="rotate(-60, 830.1967213114757, 235.7059736505431)" style="text-shadow: 0 0 1px #fff;">
1.61
</text>
<rect x="837.7266393442626" y="244.70822461426235" width="17.85" height="7.2" transform="rotate(-60, 845.6065573770495, 251.36822461426235)" fill="#fffa"/>
<text x="837.9016393442627" y="251.36822461426235" fill="#111" font-size="0.5em" text-anchor="start" textLength="17.5" transform="rotate(-60, 845.6065573770495, 251.36822461426235)" style="text-shadow: 0 0 1px #fff;">
1.51
</text>
<rect x="868.5463114754102" y="330.7949919362204" width="17.85" height="7.2" transform="rotate(-60, 876.426229508197, 337.4549919362204)" fill="#fffa"/>
<text x="868.7213114754102" y="337.4549919362204" fill="#111" font-size="0.5em" text-anchor="start" textLength="17.5" transform="rotate(-60, 876.426229508197, 337.4549919362204)" style="text-shadow: 0 0 1px #fff;">
0.97
</text>
<rect x="883.9561475409839" y="272.6837770124944" width="17.85" height="7.2" transform="rotate(-60, 891.8360655737708, 279.3437770124944)" fill="#fffa"/>
<text x="884.131147540984" y="279.3437770124944" fill="#111" font-size="0.5em" text-anchor="start" textLength="17.5" transform="rotate(-60, 891.8360655737708, 279.3437770124944)" style="text-shadow: 0 0 1px #fff;">
1.33
</text>
<rect x="899.3659836065577" y="279.6938776484586" width="17.85" height="7.2" transform="rotate(-60, 907.2459016393447, 286.3538776484586)" fill="#fffa"/>
<text x="899.5409836065578" y="286.3538776484586" fill="#111" font-size="0.5em" text-anchor="start" textLength="17.5" transform="rotate(-60, 907.2459016393447, 286.3538776484586)" style="text-shadow: 0 0 1px #fff;">
1.29
</text>
<rect x="930.1856557377052" y="330.87729142853317" width="17.85" height="7.2" transform="rotate(-60, 938.0655737704922, 337.53729142853314)" fill="#fffa"/>
<text x="930.3606557377053" y="337.53729142853314" fill="#111" font-size="0.5em" text-anchor="start" textLength="17.5" transform="rotate(-60, 938.0655737704922, 337.53729142853314)" style="text-shadow: 0 0 1px #fff;">
0.97
</text>
<rect x="945.5954918032791" y="225.05335990011793" width="17.85" height="7.2" transform="rotate(-60, 953.475409836066, 231.71335990011792)" fill="#fffa"/>
<text x="945.7704918032791" y="231.71335990011792" fill="#111" font-size="0.5em" text-anchor="start" textLength="17.5" transform="rotate(-60, 953.475409836066, 231.71335990011792)" style="text-shadow: 0 0 1px #fff;">
1.63
</text>
<rect x="961.0053278688529" y="221.54285109978167" width="17.85" height="7.2" transform="rotate(-60, 968.8852459016397, 228.20285109978167)" fill="#fffa"/>
<text x="961.1803278688528" y="228.20285109978167" fill="#111" font-size="0.5em" text-anchor="start" textLength="17.5" transform="rotate(-60, 968.8852459016397, 228.20285109978167)" style="text-shadow: 0 0 1px #fff;">
1.66
</text>
</svg>