<svg viewBox="0 0 1000 600" xmlns="http://www.w3.org/2000/svg" xmlns:xlink="http://www.w3.org/1999/xlink" width="100%" height="100%">

<rect x="50.0" y="30.0" width="940.0" height="467.99999999999994" stroke="#000" fill="#fff"/>
<line x1="42.0" y1="497.9999999999999" x2="50.0" y2="497.9999999999999" stroke="#000"/>
<text x="26.000000000000004" y="497.9999999999999" text-anchor="end" font-weight="bold" font-size="small" fill="#111">
0.0
</text>
<line x1="42.0" y1="454.9788468594391" x2="50.0" y2="454.9788468594391" stroke="#000"/>
<text x="26.000000000000004" y="454.9788468594391" text-anchor="end" font-weight="bold" font-size="small" fill="#111">
0.2
</text>
<line x1="42.0" y1="411.95769371887826" x2="50.0" y2="411.95769371887826" stroke="#000"/>
<text x="26.000000000000004" y="411.95769371887826" text-anchor="end" font-weight="bold" font-size="small" fill="#111">
0.4
</text>
<line x1="42.0" y1="368.9365405783174" x2="50.0" y2="368.9365405783174" stroke="#000"/>
<text x="26.000000000000004" y="368.9365405783174" text-anchor="end" font-weight="bold" font-size="small" fill="#111">
0.6
</text>
<line x1="42.0" y1="325.9153874377566" x2="50.0" y2="325.9153874377566" stroke="#000"/>
<text x="26.000000000000004" y="325.9153874377566" text-anchor="end" font-weight="bold" font-size="small" fill="#111">
0.8
</text>
<line x1="42.0" y1="282.89423429719574" x2="50.0" y2="282.89423429719574" stroke="#000"/>
<text x="26.000000000000004" y="282.89423429719574" text-anchor="end" font-weight="bold" font-size="small" fill="#111">
1.0
</text>
<line x1="42.0" y1="239.87308115663492" x2="50.0" y2="239.87308115663492" stroke="#000"/>
<text x="26.000000000000004" y="239.87308115663492" text-anchor="end" font-weight="bold" font-size="small" fill="#111">
1.2
</text>
<line x1="42.0" y1="196.85192801607408" x2="50.0" y2="196.85192801607408" stroke="#000"/>
<text x="26.000000000000004" y="196.85192801607408" text-anchor="end" font-weight="bold" font-size="small" fill="#111">
1.4
</text>
<line x1="42.0" y1="153.83077487551327" x2="50.0" y2="153.83077487551327" stroke="#000"/>
<text x="26.000000000000004" y="153.83077487551327" text-anchor="end" font-weight="bold" font-size="small" fill="#111">
1.6
</text>
<line x1="42.0" y1="110.80962173495242" x2="50.0" y2="110.80962173495242" stroke="#000"/>
<text x="26.000000000000004" y="110.80962173495242" text-anchor="end" font-weight="bold" font-size="small" fill="#111">
1.8
</text>
<line x1="248.5" y1="54.60000000000001" x2="368.5" y2="54.60000000000001" stroke="#648FFF" stroke-width="2"/>
<text x="308.5" y="49.500000000000014" font-size="small" text-anchor="middle" font-weight="bold" fill="#000">
CRuby 3.4.0dev
</text>
<rect x="671.5" y="35.400000000000006" width="120.0" height="19.2" fill="#785EF0" stroke="none"/>
<text x="731.4999999999999" y="49.500000000000014" font-size="small" text-anchor="middle" font-weight="bold" fill="#fff" style="text-shadow: 0 0 1px #000;">
YJIT 3.4.0dev
</text>
<rect x="80.3225806451613" y="262.7747224503096" width="30.32258064516129" height="235.22527754969033" fill="#785EF0" data-tooltip="1.09x baseline (YJIT 3.4.0dev)"/>
<line x1="95.48387096774194" y1="498.0" x2="95.48387096774194" y2="502.79999999999995" stroke="#000"/>
<text x="95.48387096774194" y="512.4" fill="#111" font-size="small" text-anchor="end" transform="rotate(-60, 95.48387096774194, 512.4)">
activerecord
</text>
<rect x="140.96774193548387" y="253.444316224615" width="30.32258064516129" height="244.55568377538495" fill="#785EF0" data-tooltip="1.14x baseline (YJIT 3.4.0dev)"/>
<line x1="156.12903225806448" y1="498.0" x2="156.12903225806448" y2="502.79999999999995" stroke="#000"/>
<text x="156.12903225806448" y="512.4" fill="#111" font-size="small" text-anchor="end" transform="rotate(-60, 156.12903225806448, 512.4)">
chunky-png
</text>
<rect x="201.61290322580643" y="273.3380179844637" width="30.32258064516129" height="224.66198201553627" fill="#785EF0" data-tooltip="1.04x baseline (YJIT 3.4.0dev)"/>
<line x1="216.7741935483871" y1="498.0" x2="216.7741935483871" y2="502.79999999999995" stroke="#000"/>
<text x="216.7741935483871" y="512.4" fill="#111" font-size="small" text-anchor="end" transform="rotate(-60, 216.7741935483871, 512.4)">
erubi-rails
</text>
<rect x="262.258064516129" y="100.19999999999999" width="30.32258064516129" height="397.79999999999995" fill="#785EF0" data-tooltip="1.85x baseline (YJIT 3.4.0dev)"/>
<line x1="277.4193548387097" y1="498.0" x2="277.4193548387097" y2="502.79999999999995" stroke="#000"/>
<text x="277.4193548387097" y="512.4" fill="#111" font-size="small" text-anchor="end" transform="rotate(-60, 277.4193548387097, 512.4)">
hexapdf
</text>
<rect x="322.90322580645164" y="267.79751632828874" width="30.32258064516129" height="230.20248367171118" fill="#785EF0" data-tooltip="1.07x baseline (YJIT 3.4.0dev)"/>
<line x1="338.0645161290323" y1="498.0" x2="338.0645161290323" y2="502.79999999999995" stroke="#000"/>
<text x="338.0645161290323" y="512.4" fill="#111" font-size="small" text-anchor="end" transform="rotate(-60, 338.0645161290323, 512.4)">
liquid-c
</text>
<rect x="383.54838709677426" y="265.97796317847656" width="30.32258064516129" height="232.02203682152336" fill="#785EF0" data-tooltip="1.08x baseline (YJIT 3.4.0dev)"/>
<line x1="398.70967741935493" y1="498.0" x2="398.70967741935493" y2="502.79999999999995" stroke="#000"/>
<text x="398.70967741935493" y="512.4" fill="#111" font-size="small" text-anchor="end" transform="rotate(-60, 398.70967741935493, 512.4)">
liquid-compile
</text>
<rect x="444.1935483870968" y="258.0869924281357" width="30.32258064516129" height="239.9130075718642" fill="#785EF0" data-tooltip="1.12x baseline (YJIT 3.4.0dev)"/>
<line x1="459.35483870967755" y1="498.0" x2="459.35483870967755" y2="502.79999999999995" stroke="#000"/>
<text x="459.35483870967755" y="512.4" fill="#111" font-size="small" text-anchor="end" transform="rotate(-60, 459.35483870967755, 512.4)">
liquid-render
</text>
<rect x="504.8387096774194" y="248.68666890788904" width="30.32258064516129" height="249.3133310921109" fill="#785EF0" data-tooltip="1.16x baseline (YJIT 3.4.0dev)"/>
<line x1="520.0" y1="498.0" x2="520.0" y2="502.79999999999995" stroke="#000"/>
<text x="520.0" y="512.4" fill="#111" font-size="small" text-anchor="end" transform="rotate(-60, 520.0, 512.4)">
lobsters
</text>
<rect x="565.4838709677418" y="269.99632971702414" width="30.32258064516129" height="228.0036702829758" fill="#785EF0" data-tooltip="1.06x baseline (YJIT 3.4.0dev)"/>
<line x1="580.6451612903226" y1="498.0" x2="580.6451612903226" y2="502.79999999999995" stroke="#000"/>
<text x="580.6451612903226" y="512.4" fill="#111" font-size="small" text-anchor="end" transform="rotate(-60, 580.6451612903226, 512.4)">
mail
</text>
<rect x="626.1290322580644" y="270.9466231892413" width="30.32258064516129" height="227.05337681075866" fill="#785EF0" data-tooltip="1.06x baseline (YJIT 3.4.0dev)"/>
<line x1="641.290322580645" y1="498.0" x2="641.290322580645" y2="502.79999999999995" stroke="#000"/>
<text x="641.290322580645" y="512.4" fill="#111" font-size="small" text-anchor="end" transform="rotate(-60, 641.290322580645, 512.4)">
psych-load
</text>
<rect x="686.7741935483868" y="262.0854413729566" width="30.32258064516129" height="235.9145586270433" fill="#785EF0" data-tooltip="1.10x baseline (YJIT 3.4.0dev)"/>
<line x1="701.9354838709675" y1="498.0" x2="701.9354838709675" y2="502.79999999999995" stroke="#000"/>
<text x="701.9354838709675" y="512.4" fill="#111" font-size="small" text-anchor="end" transform="rotate(-60, 701.9354838709675, 512.4)">
railsbench
</text>
<rect x="747.4193548387094" y="213.5137276051978" width="30.32258064516129" height="284.48627239480214" fill="#785EF0" data-tooltip="1.32x baseline (YJIT 3.4.0dev)"/>
<line x1="762.58064516129" y1="498.0" x2="762.58064516129" y2="502.79999999999995" stroke="#000"/>
<text x="762.58064516129" y="512.4" fill="#111" font-size="small" text-anchor="end" transform="rotate(-60, 762.58064516129, 512.4)">
rubocop
</text>
<rect x="808.0645161290319" y="274.08835081492674" width="30.32258064516129" height="223.91164918507323" fill="#785EF0" data-tooltip="1.04x baseline (YJIT 3.4.0dev)"/>
<line x1="823.2258064516125" y1="498.0" x2="823.2258064516125" y2="502.79999999999995" stroke="#000"/>
<text x="823.2258064516125" y="512.4" fill="#111" font-size="small" text-anchor="end" transform="rotate(-60, 823.2258064516125, 512.4)">
ruby-lsp
</text>
<rect x="868.7096774193543" y="268.35539694423846" width="30.32258064516129" height="229.64460305576148" fill="#785EF0" data-tooltip="1.07x baseline (YJIT 3.4.0dev)"/>
<line x1="883.8709677419349" y1="498.0" x2="883.8709677419349" y2="502.79999999999995" stroke="#000"/>
<text x="883.8709677419349" y="512.4" fill="#111" font-size="small" text-anchor="end" transform="rotate(-60, 883.8709677419349, 512.4)">
sequel
</text>
<rect x="929.3548387096769" y="252.22558298740958" width="30.32258064516129" height="245.77441701259036" fill="#785EF0" data-tooltip="1.14x baseline (YJIT 3.4.0dev)"/>
<line x1="944.5161290322575" y1="498.0" x2="944.5161290322575" y2="502.79999999999995" stroke="#000"/>
<text x="944.5161290322575" y="512.4" fill="#111" font-size="small" text-anchor="end" transform="rotate(-60, 944.5161290322575, 512.4)" font-style="italic">
geomean*
</text>
<line x1="50.0" y1="282.89423429719574" x2="990.0" y2="282.89423429719574" stroke="#648FFF" stroke-width="2"/>
</svg>