<svg viewBox="0 0 1000 600" xmlns="http://www.w3.org/2000/svg" xmlns:xlink="http://www.w3.org/1999/xlink" width="100%" height="100%">

<rect x="50.0" y="30.0" width="940.0" height="467.99999999999994" stroke="#000" fill="#fff"/>
<line x1="42.0" y1="497.9999999999999" x2="50.0" y2="497.9999999999999" stroke="#000"/>
<text x="26.000000000000004" y="497.9999999999999" text-anchor="end" font-weight="bold" font-size="small" fill="#111">
0.0
</text>
<line x1="42.0" y1="432.7197752313794" x2="50.0" y2="432.7197752313794" stroke="#000"/>
<text x="26.000000000000004" y="432.7197752313794" text-anchor="end" font-weight="bold" font-size="small" fill="#111">
0.2
</text>
<line x1="42.0" y1="367.43955046275886" x2="50.0" y2="367.43955046275886" stroke="#000"/>
<text x="26.000000000000004" y="367.43955046275886" text-anchor="end" font-weight="bold" font-size="small" fill="#111">
0.4
</text>
<line x1="42.0" y1="302.1593256941384" x2="50.0" y2="302.1593256941384" stroke="#000"/>
<text x="26.000000000000004" y="302.1593256941384" text-anchor="end" font-weight="bold" font-size="small" fill="#111">
0.6
</text>
<line x1="42.0" y1="236.8791009255178" x2="50.0" y2="236.8791009255178" stroke="#000"/>
<text x="26.000000000000004" y="236.8791009255178" text-anchor="end" font-weight="bold" font-size="small" fill="#111">
0.8
</text>
<line x1="42.0" y1="171.59887615689732" x2="50.0" y2="171.59887615689732" stroke="#000"/>
<text x="26.000000000000004" y="171.59887615689732" text-anchor="end" font-weight="bold" font-size="small" fill="#111">
1.0
</text>
<line x1="42.0" y1="106.31865138827679" x2="50.0" y2="106.31865138827679" stroke="#000"/>
<text x="26.000000000000004" y="106.31865138827679" text-anchor="end" font-weight="bold" font-size="small" fill="#111">
1.2
</text>
<line x1="248.5" y1="54.60000000000001" x2="368.5" y2="54.60000000000001" stroke="#648FFF" stroke-width="2"/>
<text x="308.5" y="49.500000000000014" font-size="small" text-anchor="middle" font-weight="bold" fill="#000">
CRuby 3.4.0dev
</text>
<rect x="671.5" y="35.400000000000006" width="120.0" height="19.2" fill="#785EF0" stroke="none"/>
<text x="731.4999999999999" y="49.500000000000014" font-size="small" text-anchor="middle" font-weight="bold" fill="#fff" style="text-shadow: 0 0 1px #000;">
YJIT 3.4.0dev
</text>
<rect x="74.1025641025641" y="167.79108572319754" width="24.1025641025641" height="330.2089142768024" fill="#785EF0" data-tooltip="1.01x baseline (YJIT 3.4.0dev)"/>
<line x1="86.15384615384616" y1="498.0" x2="86.15384615384616" y2="502.79999999999995" stroke="#000"/>
<text x="86.15384615384616" y="512.4" fill="#111" font-size="small" text-anchor="end" transform="rotate(-60, 86.15384615384616, 512.4)">
binarytrees
</text>
<rect x="122.3076923076923" y="162.2782022369828" width="24.1025641025641" height="335.7217977630172" fill="#785EF0" data-tooltip="1.03x baseline (YJIT 3.4.0dev)"/>
<line x1="134.35897435897434" y1="498.0" x2="134.35897435897434" y2="502.79999999999995" stroke="#000"/>
<text x="134.35897435897434" y="512.4" fill="#111" font-size="small" text-anchor="end" transform="rotate(-60, 134.35897435897434, 512.4)">
blurhash
</text>
<rect x="170.5128205128205" y="147.89059038045173" width="24.1025641025641" height="350.1094096195482" fill="#785EF0" data-tooltip="1.07x baseline (YJIT 3.4.0dev)"/>
<line x1="182.56410256410254" y1="498.0" x2="182.56410256410254" y2="502.79999999999995" stroke="#000"/>
<text x="182.56410256410254" y="512.4" fill="#111" font-size="small" text-anchor="end" transform="rotate(-60, 182.56410256410254, 512.4)">
erubi
</text>
<rect x="218.71794871794867" y="167.7412651901071" width="24.1025641025641" height="330.25873480989287" fill="#785EF0" data-tooltip="1.01x baseline (YJIT 3.4.0dev)"/>
<line x1="230.76923076923072" y1="498.0" x2="230.76923076923072" y2="502.79999999999995" stroke="#000"/>
<text x="230.76923076923072" y="512.4" fill="#111" font-size="small" text-anchor="end" transform="rotate(-60, 230.76923076923072, 512.4)">
etanni
</text>
<rect x="266.92307692307685" y="162.25627092487113" width="24.1025641025641" height="335.74372907512884" fill="#785EF0" data-tooltip="1.03x baseline (YJIT 3.4.0dev)"/>
<line x1="278.97435897435895" y1="498.0" x2="278.97435897435895" y2="502.79999999999995" stroke="#000"/>
<text x="278.97435897435895" y="512.4" fill="#111" font-size="small" text-anchor="end" transform="rotate(-60, 278.97435897435895, 512.4)">
fannkuchredux
</text>
<rect x="315.1282051282051" y="143.25608772779478" width="24.1025641025641" height="354.74391227220514" fill="#785EF0" data-tooltip="1.09x baseline (YJIT 3.4.0dev)"/>
<line x1="327.1794871794872" y1="498.0" x2="327.1794871794872" y2="502.79999999999995" stroke="#000"/>
<text x="327.1794871794872" y="512.4" fill="#111" font-size="small" text-anchor="end" transform="rotate(-60, 327.1794871794872, 512.4)">
fluentd
</text>
<rect x="363.3333333333333" y="139.34517727991522" width="24.1025641025641" height="358.6548227200848" fill="#785EF0" data-tooltip="1.10x baseline (YJIT 3.4.0dev)"/>
<line x1="375.3846153846154" y1="498.0" x2="375.3846153846154" y2="502.79999999999995" stroke="#000"/>
<text x="375.3846153846154" y="512.4" fill="#111" font-size="small" text-anchor="end" transform="rotate(-60, 375.3846153846154, 512.4)">
graphql
</text>
<rect x="411.53846153846155" y="100.19999999999999" width="24.1025641025641" height="397.79999999999995" fill="#785EF0" data-tooltip="1.22x baseline (YJIT 3.4.0dev)"/>
<line x1="423.58974358974365" y1="498.0" x2="423.58974358974365" y2="502.79999999999995" stroke="#000"/>
<text x="423.58974358974365" y="512.4" fill="#111" font-size="small" text-anchor="end" transform="rotate(-60, 423.58974358974365, 512.4)">
graphql-native
</text>
<rect x="459.74358974358984" y="149.34088165327609" width="24.1025641025641" height="348.65911834672386" fill="#785EF0" data-tooltip="1.07x baseline (YJIT 3.4.0dev)"/>
<line x1="471.7948717948719" y1="498.0" x2="471.7948717948719" y2="502.79999999999995" stroke="#000"/>
<text x="471.7948717948719" y="512.4" fill="#111" font-size="small" text-anchor="end" transform="rotate(-60, 471.7948717948719, 512.4)">
lee
</text>
<rect x="507.948717948718" y="167.64001685474335" width="24.1025641025641" height="330.3599831452566" fill="#785EF0" data-tooltip="1.01x baseline (YJIT 3.4.0dev)"/>
<line x1="520.0" y1="498.0" x2="520.0" y2="502.79999999999995" stroke="#000"/>
<text x="520.0" y="512.4" fill="#111" font-size="small" text-anchor="end" transform="rotate(-60, 520.0, 512.4)">
matmul
</text>
<rect x="556.1538461538461" y="164.42414503959932" width="24.1025641025641" height="333.5758549604006" fill="#785EF0" data-tooltip="1.02x baseline (YJIT 3.4.0dev)"/>
<line x1="568.2051282051282" y1="498.0" x2="568.2051282051282" y2="502.79999999999995" stroke="#000"/>
<text x="568.2051282051282" y="512.4" fill="#111" font-size="small" text-anchor="end" transform="rotate(-60, 568.2051282051282, 512.4)">
nbody
</text>
<rect x="604.3589743589743" y="162.95570447524415" width="24.1025641025641" height="335.04429552475574" fill="#785EF0" data-tooltip="1.03x baseline (YJIT 3.4.0dev)"/>
<line x1="616.4102564102562" y1="498.0" x2="616.4102564102562" y2="502.79999999999995" stroke="#000"/>
<text x="616.4102564102562" y="512.4" fill="#111" font-size="small" text-anchor="end" transform="rotate(-60, 616.4102564102562, 512.4)">
nqueens
</text>
<rect x="652.5641025641023" y="155.64908301971252" width="24.1025641025641" height="342.3509169802874" fill="#785EF0" data-tooltip="1.05x baseline (YJIT 3.4.0dev)"/>
<line x1="664.6153846153844" y1="498.0" x2="664.6153846153844" y2="502.79999999999995" stroke="#000"/>
<text x="664.6153846153844" y="512.4" fill="#111" font-size="small" text-anchor="end" transform="rotate(-60, 664.6153846153844, 512.4)">
optcarrot
</text>
<rect x="700.7692307692305" y="139.96175230063866" width="24.1025641025641" height="358.03824769936125" fill="#785EF0" data-tooltip="1.10x baseline (YJIT 3.4.0dev)"/>
<line x1="712.8205128205125" y1="498.0" x2="712.8205128205125" y2="502.79999999999995" stroke="#000"/>
<text x="712.8205128205125" y="512.4" fill="#111" font-size="small" text-anchor="end" transform="rotate(-60, 712.8205128205125, 512.4)">
rack
</text>
<rect x="748.9743589743586" y="164.60002164954034" width="24.1025641025641" height="333.3999783504596" fill="#785EF0" data-tooltip="1.02x baseline (YJIT 3.4.0dev)"/>
<line x1="761.0256410256407" y1="498.0" x2="761.0256410256407" y2="502.79999999999995" stroke="#000"/>
<text x="761.0256410256407" y="512.4" fill="#111" font-size="small" text-anchor="end" transform="rotate(-60, 761.0256410256407, 512.4)">
ruby-json
</text>
<rect x="797.1794871794867" y="167.07084180893705" width="24.1025641025641" height="330.9291581910629" fill="#785EF0" data-tooltip="1.01x baseline (YJIT 3.4.0dev)"/>
<line x1="809.2307692307687" y1="498.0" x2="809.2307692307687" y2="502.79999999999995" stroke="#000"/>
<text x="809.2307692307687" y="512.4" fill="#111" font-size="small" text-anchor="end" transform="rotate(-60, 809.2307692307687, 512.4)">
rubykon
</text>
<rect x="845.3846153846148" y="161.3531009689972" width="24.1025641025641" height="336.64689903100276" fill="#785EF0" data-tooltip="1.03x baseline (YJIT 3.4.0dev)"/>
<line x1="857.4358974358969" y1="498.0" x2="857.4358974358969" y2="502.79999999999995" stroke="#000"/>
<text x="857.4358974358969" y="512.4" fill="#111" font-size="small" text-anchor="end" transform="rotate(-60, 857.4358974358969, 512.4)">
sudoku
</text>
<rect x="893.589743589743" y="144.58470592196102" width="24.1025641025641" height="353.4152940780389" fill="#785EF0" data-tooltip="1.08x baseline (YJIT 3.4.0dev)"/>
<line x1="905.641025641025" y1="498.0" x2="905.641025641025" y2="502.79999999999995" stroke="#000"/>
<text x="905.641025641025" y="512.4" fill="#111" font-size="small" text-anchor="end" transform="rotate(-60, 905.641025641025, 512.4)">
tinygql
</text>
<rect x="941.7948717948711" y="154.16341517661215" width="24.1025641025641" height="343.8365848233878" fill="#785EF0" data-tooltip="1.05x baseline (YJIT 3.4.0dev)"/>
<line x1="953.8461538461531" y1="498.0" x2="953.8461538461531" y2="502.79999999999995" stroke="#000"/>
<text x="953.8461538461531" y="512.4" fill="#111" font-size="small" text-anchor="end" transform="rotate(-60, 953.8461538461531, 512.4)" font-style="italic">
geomean*
</text>
<line x1="50.0" y1="171.59887615689732" x2="990.0" y2="171.59887615689732" stroke="#648FFF" stroke-width="2"/>
</svg>