<svg viewBox="0 0 1000 600" xmlns="http://www.w3.org/2000/svg" xmlns:xlink="http://www.w3.org/1999/xlink" width="100%" height="100%">

<rect x="50.0" y="30.0" width="940.0" height="467.99999999999994" stroke="#000" fill="#fff"/>
<line x1="42.0" y1="497.9999999999999" x2="50.0" y2="497.9999999999999" stroke="#000"/>
<text x="26.000000000000004" y="497.9999999999999" text-anchor="end" font-weight="bold" font-size="small" fill="#111">
0.0
</text>
<line x1="42.0" y1="429.9763852242744" x2="50.0" y2="429.9763852242744" stroke="#000"/>
<text x="26.000000000000004" y="429.9763852242744" text-anchor="end" font-weight="bold" font-size="small" fill="#111">
0.5
</text>
<line x1="42.0" y1="361.95277044854873" x2="50.0" y2="361.95277044854873" stroke="#000"/>
<text x="26.000000000000004" y="361.95277044854873" text-anchor="end" font-weight="bold" font-size="small" fill="#111">
1.0
</text>
<line x1="42.0" y1="293.9291556728232" x2="50.0" y2="293.9291556728232" stroke="#000"/>
<text x="26.000000000000004" y="293.9291556728232" text-anchor="end" font-weight="bold" font-size="small" fill="#111">
1.5
</text>
<line x1="42.0" y1="225.90554089709758" x2="50.0" y2="225.90554089709758" stroke="#000"/>
<text x="26.000000000000004" y="225.90554089709758" text-anchor="end" font-weight="bold" font-size="small" fill="#111">
2.0
</text>
<line x1="42.0" y1="157.88192612137203" x2="50.0" y2="157.88192612137203" stroke="#000"/>
<text x="26.000000000000004" y="157.88192612137203" text-anchor="end" font-weight="bold" font-size="small" fill="#111">
2.5
</text>
<line x1="142.75" y1="54.60000000000001" x2="262.75" y2="54.60000000000001" stroke="#648FFF" stroke-width="2"/>
<text x="202.75" y="49.500000000000014" font-size="small" text-anchor="middle" font-weight="bold" fill="#000">
CRuby 3.3.3
</text>
<rect x="354.25" y="35.400000000000006" width="120.0" height="19.2" fill="#785EF0" stroke="none"/>
<text x="414.25" y="49.500000000000014" font-size="small" text-anchor="middle" font-weight="bold" fill="#fff" style="text-shadow: 0 0 1px #000;">
CRuby 3.4.0dev
</text>
<rect x="565.75" y="35.400000000000006" width="120.0" height="19.2" fill="#FFB000" stroke="none"/>
<text x="625.7499999999999" y="49.500000000000014" font-size="small" text-anchor="middle" font-weight="bold" fill="#fff" style="text-shadow: 0 0 1px #000;">
YJIT 3.3.3
</text>
<rect x="777.25" y="35.400000000000006" width="120.0" height="19.2" fill="#DC267F" stroke="none"/>
<text x="837.2499999999999" y="49.500000000000014" font-size="small" text-anchor="middle" font-weight="bold" fill="#fff" style="text-shadow: 0 0 1px #000;">
YJIT 3.4.0dev
</text>
<rect x="54.870466321243526" y="355.25230769972313" width="4.870466321243523" height="142.74769230027673" fill="#785EF0" data-tooltip="1.05x baseline (CRuby 3.4.0dev)"/>
<rect x="59.740932642487046" y="336.0356986589519" width="4.870466321243523" height="161.964301341048" fill="#FFB000" data-tooltip="1.19x baseline (YJIT 3.3.3)"/>
<rect x="64.61139896373057" y="329.6334760918248" width="4.870466321243523" height="168.3665239081751" fill="#DC267F" data-tooltip="1.24x baseline (YJIT 3.4.0dev)"/>
<line x1="62.17616580310881" y1="498.0" x2="62.17616580310881" y2="502.79999999999995" stroke="#000"/>
<text x="62.17616580310881" y="512.4" fill="#111" font-size="small" text-anchor="end" transform="rotate(-60, 62.17616580310881, 512.4)">
activerecord
</text>
<rect x="74.35233160621762" y="337.7704183942706" width="4.870466321243523" height="160.22958160572932" fill="#785EF0" data-tooltip="1.18x baseline (CRuby 3.4.0dev)"/>
<rect x="79.22279792746113" y="356.27696946852615" width="4.870466321243523" height="141.72303053147377" fill="#FFB000" data-tooltip="1.04x baseline (YJIT 3.3.3)"/>
<rect x="84.09326424870466" y="325.21485865058423" width="4.870466321243523" height="172.78514134941574" fill="#DC267F" data-tooltip="1.27x baseline (YJIT 3.4.0dev)"/>
<line x1="81.6580310880829" y1="498.0" x2="81.6580310880829" y2="502.79999999999995" stroke="#000"/>
<text x="81.6580310880829" y="512.4" fill="#111" font-size="small" text-anchor="end" transform="rotate(-60, 81.6580310880829, 512.4)">
chunky-png
</text>
<rect x="93.8341968911917" y="345.6798484080205" width="4.870466321243523" height="152.32015159197942" fill="#785EF0" data-tooltip="1.12x baseline (CRuby 3.4.0dev)"/>
<rect x="98.70466321243522" y="344.18617037203086" width="4.870466321243523" height="153.81382962796908" fill="#FFB000" data-tooltip="1.13x baseline (YJIT 3.3.3)"/>
<rect x="103.57512953367875" y="336.11680816978975" width="4.870466321243523" height="161.88319183021022" fill="#DC267F" data-tooltip="1.19x baseline (YJIT 3.4.0dev)"/>
<line x1="101.13989637305698" y1="498.0" x2="101.13989637305698" y2="502.79999999999995" stroke="#000"/>
<text x="101.13989637305698" y="512.4" fill="#111" font-size="small" text-anchor="end" transform="rotate(-60, 101.13989637305698, 512.4)">
erubi-rails
</text>
<rect x="113.31606217616579" y="377.7517106842674" width="4.870466321243523" height="120.24828931573255" fill="#785EF0" data-tooltip="0.88x baseline (CRuby 3.4.0dev)"/>
<rect x="118.18652849740931" y="271.6360952422631" width="4.870466321243523" height="226.36390475773686" fill="#FFB000" data-tooltip="1.66x baseline (YJIT 3.3.3)"/>
<rect x="123.05699481865283" y="269.37242020621136" width="4.870466321243523" height="228.62757979378856" fill="#DC267F" data-tooltip="1.68x baseline (YJIT 3.4.0dev)"/>
<line x1="120.62176165803108" y1="498.0" x2="120.62176165803108" y2="502.79999999999995" stroke="#000"/>
<text x="120.62176165803108" y="512.4" fill="#111" font-size="small" text-anchor="end" transform="rotate(-60, 120.62176165803108, 512.4)">
hexapdf
</text>
<rect x="132.7979274611399" y="357.92525124545836" width="4.870466321243523" height="140.07474875454156" fill="#785EF0" data-tooltip="1.03x baseline (CRuby 3.4.0dev)"/>
<rect x="137.66839378238342" y="341.42031960926437" width="4.870466321243523" height="156.57968039073563" fill="#FFB000" data-tooltip="1.15x baseline (YJIT 3.3.3)"/>
<rect x="142.53886010362692" y="339.44604549010234" width="4.870466321243523" height="158.5539545098976" fill="#DC267F" data-tooltip="1.17x baseline (YJIT 3.4.0dev)"/>
<line x1="140.10362694300517" y1="498.0" x2="140.10362694300517" y2="502.79999999999995" stroke="#000"/>
<text x="140.10362694300517" y="512.4" fill="#111" font-size="small" text-anchor="end" transform="rotate(-60, 140.10362694300517, 512.4)">
liquid-c
</text>
<rect x="152.27979274611397" y="345.54681845645587" width="4.870466321243523" height="152.45318154354405" fill="#785EF0" data-tooltip="1.12x baseline (CRuby 3.4.0dev)"/>
<rect x="157.1502590673575" y="343.2997266277517" width="4.870466321243523" height="154.70027337224826" fill="#FFB000" data-tooltip="1.14x baseline (YJIT 3.3.3)"/>
<rect x="162.02072538860102" y="326.98104033774433" width="4.870466321243523" height="171.01895966225555" fill="#DC267F" data-tooltip="1.26x baseline (YJIT 3.4.0dev)"/>
<line x1="159.58549222797924" y1="498.0" x2="159.58549222797924" y2="502.79999999999995" stroke="#000"/>
<text x="159.58549222797924" y="512.4" fill="#111" font-size="small" text-anchor="end" transform="rotate(-60, 159.58549222797924, 512.4)">
liquid-compile
</text>
<rect x="171.76165803108805" y="347.77087742863995" width="4.870466321243523" height="150.22912257136002" fill="#785EF0" data-tooltip="1.10x baseline (CRuby 3.4.0dev)"/>
<rect x="176.63212435233157" y="335.62969285200285" width="4.870466321243523" height="162.3703071479971" fill="#FFB000" data-tooltip="1.19x baseline (YJIT 3.3.3)"/>
<rect x="181.5025906735751" y="325.44676385224267" width="4.870466321243523" height="172.55323614775722" fill="#DC267F" data-tooltip="1.27x baseline (YJIT 3.4.0dev)"/>
<line x1="179.06735751295332" y1="498.0" x2="179.06735751295332" y2="502.79999999999995" stroke="#000"/>
<text x="179.06735751295332" y="512.4" fill="#111" font-size="small" text-anchor="end" transform="rotate(-60, 179.06735751295332, 512.4)">
liquid-render
</text>
<rect x="191.24352331606215" y="362.60278896344573" width="4.870466321243523" height="135.39721103655415" fill="#785EF0" data-tooltip="1.00x baseline (CRuby 3.4.0dev)"/>
<rect x="196.11398963730568" y="331.9202694438134" width="4.870466321243523" height="166.07973055618655" fill="#FFB000" data-tooltip="1.22x baseline (YJIT 3.3.3)"/>
<rect x="200.98445595854918" y="335.53239764684866" width="4.870466321243523" height="162.46760235315122" fill="#DC267F" data-tooltip="1.19x baseline (YJIT 3.4.0dev)"/>
<line x1="198.54922279792743" y1="498.0" x2="198.54922279792743" y2="502.79999999999995" stroke="#000"/>
<text x="198.54922279792743" y="512.4" fill="#111" font-size="small" text-anchor="end" transform="rotate(-60, 198.54922279792743, 512.4)">
lobsters
</text>
<rect x="210.72538860103623" y="306.57417889818305" width="4.870466321243523" height="191.4258211018169" fill="#785EF0" data-tooltip="1.41x baseline (CRuby 3.4.0dev)"/>
<rect x="215.59585492227976" y="348.2427743087589" width="4.870466321243523" height="149.75722569124108" fill="#FFB000" data-tooltip="1.10x baseline (YJIT 3.3.3)"/>
<rect x="220.46632124352328" y="292.36229897113293" width="4.870466321243523" height="205.637701028867" fill="#DC267F" data-tooltip="1.51x baseline (YJIT 3.4.0dev)"/>
<line x1="218.0310880829015" y1="498.0" x2="218.0310880829015" y2="502.79999999999995" stroke="#000"/>
<text x="218.0310880829015" y="512.4" fill="#111" font-size="small" text-anchor="end" transform="rotate(-60, 218.0310880829015, 512.4)">
mail
</text>
<rect x="230.20725388601034" y="344.93100796969924" width="4.870466321243523" height="153.06899203030076" fill="#785EF0" data-tooltip="1.13x baseline (CRuby 3.4.0dev)"/>
<rect x="235.07772020725383" y="350.9362011920511" width="4.870466321243523" height="147.06379880794884" fill="#FFB000" data-tooltip="1.08x baseline (YJIT 3.3.3)"/>
<rect x="239.94818652849736" y="332.92062152499545" width="4.870466321243523" height="165.07937847500455" fill="#DC267F" data-tooltip="1.21x baseline (YJIT 3.4.0dev)"/>
<line x1="237.51295336787558" y1="498.0" x2="237.51295336787558" y2="502.79999999999995" stroke="#000"/>
<text x="237.51295336787558" y="512.4" fill="#111" font-size="small" text-anchor="end" transform="rotate(-60, 237.51295336787558, 512.4)">
psych-load
</text>
<rect x="249.6891191709844" y="354.0963865526952" width="4.870466321243523" height="143.90361344730474" fill="#785EF0" data-tooltip="1.06x baseline (CRuby 3.4.0dev)"/>
<rect x="254.55958549222797" y="341.0589748320743" width="4.870466321243523" height="156.94102516792566" fill="#FFB000" data-tooltip="1.15x baseline (YJIT 3.3.3)"/>
<rect x="259.4300518134715" y="339.0680121745218" width="4.870466321243523" height="158.93198782547816" fill="#DC267F" data-tooltip="1.17x baseline (YJIT 3.4.0dev)"/>
<line x1="256.9948186528498" y1="498.0" x2="256.9948186528498" y2="502.79999999999995" stroke="#000"/>
<text x="256.9948186528498" y="512.4" fill="#111" font-size="small" text-anchor="end" transform="rotate(-60, 256.9948186528498, 512.4)">
railsbench
</text>
<rect x="269.1709844559586" y="354.9882529906536" width="4.870466321243523" height="143.0117470093463" fill="#785EF0" data-tooltip="1.05x baseline (CRuby 3.4.0dev)"/>
<rect x="274.04145077720216" y="302.49557766360203" width="4.870466321243523" height="195.50442233639794" fill="#FFB000" data-tooltip="1.44x baseline (YJIT 3.3.3)"/>
<rect x="278.9119170984457" y="293.5982919553973" width="4.870466321243523" height="204.40170804460263" fill="#DC267F" data-tooltip="1.50x baseline (YJIT 3.4.0dev)"/>
<line x1="276.47668393782396" y1="498.0" x2="276.47668393782396" y2="502.79999999999995" stroke="#000"/>
<text x="276.47668393782396" y="512.4" fill="#111" font-size="small" text-anchor="end" transform="rotate(-60, 276.47668393782396, 512.4)">
rubocop
</text>
<rect x="288.6528497409328" y="328.56480398856314" width="4.870466321243523" height="169.4351960114368" fill="#785EF0" data-tooltip="1.25x baseline (CRuby 3.4.0dev)"/>
<rect x="293.5233160621764" y="347.16025436672555" width="4.870466321243523" height="150.8397456332744" fill="#FFB000" data-tooltip="1.11x baseline (YJIT 3.3.3)"/>
<rect x="298.3937823834199" y="312.85399406090477" width="4.870466321243523" height="185.14600593909518" fill="#DC267F" data-tooltip="1.36x baseline (YJIT 3.4.0dev)"/>
<line x1="295.9585492227982" y1="498.0" x2="295.9585492227982" y2="502.79999999999995" stroke="#000"/>
<text x="295.9585492227982" y="512.4" fill="#111" font-size="small" text-anchor="end" transform="rotate(-60, 295.9585492227982, 512.4)">
ruby-lsp
</text>
<rect x="308.134715025907" y="348.66332805771043" width="4.870466321243523" height="149.33667194228948" fill="#785EF0" data-tooltip="1.10x baseline (CRuby 3.4.0dev)"/>
<rect x="313.00518134715054" y="342.11942332180803" width="4.870466321243523" height="155.88057667819194" fill="#FFB000" data-tooltip="1.15x baseline (YJIT 3.3.3)"/>
<rect x="317.8756476683941" y="335.09893168637205" width="4.870466321243523" height="162.90106831362795" fill="#DC267F" data-tooltip="1.20x baseline (YJIT 3.4.0dev)"/>
<line x1="315.4404145077724" y1="498.0" x2="315.4404145077724" y2="502.79999999999995" stroke="#000"/>
<text x="315.4404145077724" y="512.4" fill="#111" font-size="small" text-anchor="end" transform="rotate(-60, 315.4404145077724, 512.4)">
sequel
</text>
<rect x="327.6165803108812" y="355.7754908364829" width="4.870466321243523" height="142.22450916351707" fill="#785EF0" data-tooltip="1.05x baseline (CRuby 3.4.0dev)"/>
<rect x="332.48704663212476" y="360.8349769949369" width="4.870466321243523" height="137.1650230050631" fill="#FFB000" data-tooltip="1.01x baseline (YJIT 3.3.3)"/>
<rect x="337.3575129533683" y="352.0985386864437" width="4.870466321243523" height="145.90146131355624" fill="#DC267F" data-tooltip="1.07x baseline (YJIT 3.4.0dev)"/>
<line x1="334.92227979274656" y1="498.0" x2="334.92227979274656" y2="502.79999999999995" stroke="#000"/>
<text x="334.92227979274656" y="512.4" fill="#111" font-size="small" text-anchor="end" transform="rotate(-60, 334.92227979274656, 512.4)">
binarytrees
</text>
<rect x="347.0984455958554" y="343.8538116591928" width="4.870466321243523" height="154.14618834080716" fill="#785EF0" data-tooltip="1.13x baseline (CRuby 3.4.0dev)"/>
<rect x="351.9689119170989" y="358.2923068731734" width="4.870466321243523" height="139.70769312682654" fill="#FFB000" data-tooltip="1.03x baseline (YJIT 3.3.3)"/>
<rect x="356.8393782383425" y="339.78662990877575" width="4.870466321243523" height="158.21337009122425" fill="#DC267F" data-tooltip="1.16x baseline (YJIT 3.4.0dev)"/>
<line x1="354.4041450777208" y1="498.0" x2="354.4041450777208" y2="502.79999999999995" stroke="#000"/>
<text x="354.4041450777208" y="512.4" fill="#111" font-size="small" text-anchor="end" transform="rotate(-60, 354.4041450777208, 512.4)">
blurhash
</text>
<rect x="366.5803108808296" y="350.7465319476129" width="4.870466321243523" height="147.25346805238706" fill="#785EF0" data-tooltip="1.08x baseline (CRuby 3.4.0dev)"/>
<rect x="371.45077720207314" y="351.4952783953369" width="4.870466321243523" height="146.50472160466305" fill="#FFB000" data-tooltip="1.08x baseline (YJIT 3.3.3)"/>
<rect x="376.3212435233167" y="341.16257741674565" width="4.870466321243523" height="156.83742258325424" fill="#DC267F" data-tooltip="1.15x baseline (YJIT 3.4.0dev)"/>
<line x1="373.886010362695" y1="498.0" x2="373.886010362695" y2="502.79999999999995" stroke="#000"/>
<text x="373.886010362695" y="512.4" fill="#111" font-size="small" text-anchor="end" transform="rotate(-60, 373.886010362695, 512.4)">
erubi
</text>
<rect x="386.0621761658038" y="349.5623123837535" width="4.870466321243523" height="148.43768761624636" fill="#785EF0" data-tooltip="1.09x baseline (CRuby 3.4.0dev)"/>
<rect x="390.93264248704736" y="358.8728565867283" width="4.870466321243523" height="139.12714341327168" fill="#FFB000" data-tooltip="1.02x baseline (YJIT 3.3.3)"/>
<rect x="395.8031088082909" y="344.8185370103748" width="4.870466321243523" height="153.1814629896251" fill="#DC267F" data-tooltip="1.13x baseline (YJIT 3.4.0dev)"/>
<line x1="393.36787564766917" y1="498.0" x2="393.36787564766917" y2="502.79999999999995" stroke="#000"/>
<text x="393.36787564766917" y="512.4" fill="#111" font-size="small" text-anchor="end" transform="rotate(-60, 393.36787564766917, 512.4)">
etanni
</text>
<rect x="405.54404145077797" y="344.1685260850565" width="4.870466321243523" height="153.83147391494347" fill="#785EF0" data-tooltip="1.13x baseline (CRuby 3.4.0dev)"/>
<rect x="410.4145077720215" y="359.84733093952076" width="4.870466321243523" height="138.1526690604792" fill="#FFB000" data-tooltip="1.02x baseline (YJIT 3.3.3)"/>
<rect x="415.2849740932651" y="339.24090170222485" width="4.870466321243523" height="158.75909829777507" fill="#DC267F" data-tooltip="1.17x baseline (YJIT 3.4.0dev)"/>
<line x1="412.8497409326434" y1="498.0" x2="412.8497409326434" y2="502.79999999999995" stroke="#000"/>
<text x="412.8497409326434" y="512.4" fill="#111" font-size="small" text-anchor="end" transform="rotate(-60, 412.8497409326434, 512.4)">
fannkuchredux
</text>
<rect x="425.0259067357522" y="360.0513779811626" width="4.870466321243523" height="137.94862201883734" fill="#785EF0" data-tooltip="1.01x baseline (CRuby 3.4.0dev)"/>
<rect x="429.89637305699574" y="352.4753773629957" width="4.870466321243523" height="145.52462263700428" fill="#FFB000" data-tooltip="1.07x baseline (YJIT 3.3.3)"/>
<rect x="434.7668393782393" y="347.94590567466525" width="4.870466321243523" height="150.0540943253347" fill="#DC267F" data-tooltip="1.10x baseline (YJIT 3.4.0dev)"/>
<line x1="432.33160621761755" y1="498.0" x2="432.33160621761755" y2="502.79999999999995" stroke="#000"/>
<text x="432.33160621761755" y="512.4" fill="#111" font-size="small" text-anchor="end" transform="rotate(-60, 432.33160621761755, 512.4)">
fluentd
</text>
<rect x="444.5077720207264" y="360.88785355056655" width="4.870466321243523" height="137.1121464494334" fill="#785EF0" data-tooltip="1.01x baseline (CRuby 3.4.0dev)"/>
<rect x="449.37823834196996" y="350.1076178756081" width="4.870466321243523" height="147.89238212439182" fill="#FFB000" data-tooltip="1.09x baseline (YJIT 3.3.3)"/>
<rect x="454.24870466321346" y="341.4080659859381" width="4.870466321243523" height="156.5919340140619" fill="#DC267F" data-tooltip="1.15x baseline (YJIT 3.4.0dev)"/>
<line x1="451.81347150259177" y1="498.0" x2="451.81347150259177" y2="502.79999999999995" stroke="#000"/>
<text x="451.81347150259177" y="512.4" fill="#111" font-size="small" text-anchor="end" transform="rotate(-60, 451.81347150259177, 512.4)">
graphql
</text>
<rect x="463.98963730570057" y="343.1691995882882" width="4.870466321243523" height="154.83080041171178" fill="#785EF0" data-tooltip="1.14x baseline (CRuby 3.4.0dev)"/>
<rect x="468.8601036269441" y="350.6541139728322" width="4.870466321243523" height="147.3458860271677" fill="#FFB000" data-tooltip="1.08x baseline (YJIT 3.3.3)"/>
<rect x="473.7305699481877" y="330.15970553896153" width="4.870466321243523" height="167.8402944610384" fill="#DC267F" data-tooltip="1.23x baseline (YJIT 3.4.0dev)"/>
<line x1="471.295336787566" y1="498.0" x2="471.295336787566" y2="502.79999999999995" stroke="#000"/>
<text x="471.295336787566" y="512.4" fill="#111" font-size="small" text-anchor="end" transform="rotate(-60, 471.295336787566, 512.4)">
graphql-native
</text>
<rect x="483.4715025906748" y="356.81002125917917" width="4.870466321243523" height="141.18997874082078" fill="#785EF0" data-tooltip="1.04x baseline (CRuby 3.4.0dev)"/>
<rect x="488.34196891191834" y="347.8153324379311" width="4.870466321243523" height="150.18466756206882" fill="#FFB000" data-tooltip="1.10x baseline (YJIT 3.3.3)"/>
<rect x="493.2124352331619" y="346.25816535270366" width="4.870466321243523" height="151.74183464729626" fill="#DC267F" data-tooltip="1.12x baseline (YJIT 3.4.0dev)"/>
<line x1="490.77720207254015" y1="498.0" x2="490.77720207254015" y2="502.79999999999995" stroke="#000"/>
<text x="490.77720207254015" y="512.4" fill="#111" font-size="small" text-anchor="end" transform="rotate(-60, 490.77720207254015, 512.4)">
lee
</text>
<rect x="502.95336787564895" y="309.81506922705256" width="4.870466321243523" height="188.1849307729473" fill="#785EF0" data-tooltip="1.38x baseline (CRuby 3.4.0dev)"/>
<rect x="507.82383419689245" y="360.22459575227276" width="4.870466321243523" height="137.77540424772718" fill="#FFB000" data-tooltip="1.01x baseline (YJIT 3.3.3)"/>
<rect x="512.6943005181361" y="320.98173649529764" width="4.870466321243523" height="177.01826350470233" fill="#DC267F" data-tooltip="1.30x baseline (YJIT 3.4.0dev)"/>
<line x1="510.25906735751425" y1="498.0" x2="510.25906735751425" y2="502.79999999999995" stroke="#000"/>
<text x="510.25906735751425" y="512.4" fill="#111" font-size="small" text-anchor="end" transform="rotate(-60, 510.25906735751425, 512.4)">
matmul
</text>
<rect x="522.4352331606232" y="344.14718104983865" width="4.870466321243523" height="153.85281895016132" fill="#785EF0" data-tooltip="1.13x baseline (CRuby 3.4.0dev)"/>
<rect x="527.3056994818667" y="359.402723725618" width="4.870466321243523" height="138.59727627438198" fill="#FFB000" data-tooltip="1.02x baseline (YJIT 3.3.3)"/>
<rect x="532.1761658031103" y="339.8523655164814" width="4.870466321243523" height="158.14763448351854" fill="#DC267F" data-tooltip="1.16x baseline (YJIT 3.4.0dev)"/>
<line x1="529.7409326424885" y1="498.0" x2="529.7409326424885" y2="502.79999999999995" stroke="#000"/>
<text x="529.7409326424885" y="512.4" fill="#111" font-size="small" text-anchor="end" transform="rotate(-60, 529.7409326424885, 512.4)">
nbody
</text>
<rect x="541.9170984455973" y="345.6781261116471" width="4.870466321243523" height="152.32187388835285" fill="#785EF0" data-tooltip="1.12x baseline (CRuby 3.4.0dev)"/>
<rect x="546.7875647668409" y="360.193349439154" width="4.870466321243523" height="137.80665056084595" fill="#FFB000" data-tooltip="1.01x baseline (YJIT 3.3.3)"/>
<rect x="551.6580310880844" y="331.42681593554937" width="4.870466321243523" height="166.57318406445057" fill="#DC267F" data-tooltip="1.22x baseline (YJIT 3.4.0dev)"/>
<line x1="549.2227979274627" y1="498.0" x2="549.2227979274627" y2="502.79999999999995" stroke="#000"/>
<text x="549.2227979274627" y="512.4" fill="#111" font-size="small" text-anchor="end" transform="rotate(-60, 549.2227979274627, 512.4)">
nqueens
</text>
<rect x="561.3989637305715" y="368.21102273087456" width="4.870466321243523" height="129.78897726912538" fill="#785EF0" data-tooltip="0.95x baseline (CRuby 3.4.0dev)"/>
<rect x="566.2694300518151" y="353.77120178009426" width="4.870466321243523" height="144.2287982199057" fill="#FFB000" data-tooltip="1.06x baseline (YJIT 3.3.3)"/>
<rect x="571.1398963730586" y="360.916371981412" width="4.870466321243523" height="137.08362801858792" fill="#DC267F" data-tooltip="1.01x baseline (YJIT 3.4.0dev)"/>
<line x1="568.7046632124368" y1="498.0" x2="568.7046632124368" y2="502.79999999999995" stroke="#000"/>
<text x="568.7046632124368" y="512.4" fill="#111" font-size="small" text-anchor="end" transform="rotate(-60, 568.7046632124368, 512.4)">
optcarrot
</text>
<rect x="580.8808290155457" y="330.0631163041108" width="4.870466321243523" height="167.93688369588912" fill="#785EF0" data-tooltip="1.23x baseline (CRuby 3.4.0dev)"/>
<rect x="585.7512953367892" y="328.8905151125487" width="4.870466321243523" height="169.10948488745117" fill="#FFB000" data-tooltip="1.24x baseline (YJIT 3.3.3)"/>
<rect x="590.6217616580328" y="325.34722020761114" width="4.870466321243523" height="172.65277979238874" fill="#DC267F" data-tooltip="1.27x baseline (YJIT 3.4.0dev)"/>
<line x1="588.186528497411" y1="498.0" x2="588.186528497411" y2="502.79999999999995" stroke="#000"/>
<text x="588.186528497411" y="512.4" fill="#111" font-size="small" text-anchor="end" transform="rotate(-60, 588.186528497411, 512.4)">
protoboeuf
</text>
<rect x="600.3626943005199" y="349.09771126540653" width="4.870466321243523" height="148.9022887345934" fill="#785EF0" data-tooltip="1.09x baseline (CRuby 3.4.0dev)"/>
<rect x="605.2331606217634" y="351.9314918468608" width="4.870466321243523" height="146.0685081531392" fill="#FFB000" data-tooltip="1.07x baseline (YJIT 3.3.3)"/>
<rect x="610.103626943007" y="340.96991332496293" width="4.870466321243523" height="157.03008667503704" fill="#DC267F" data-tooltip="1.15x baseline (YJIT 3.4.0dev)"/>
<line x1="607.6683937823852" y1="498.0" x2="607.6683937823852" y2="502.79999999999995" stroke="#000"/>
<text x="607.6683937823852" y="512.4" fill="#111" font-size="small" text-anchor="end" transform="rotate(-60, 607.6683937823852, 512.4)">
protoboeuf-encode
</text>
<rect x="619.8445595854942" y="349.28007325335074" width="4.870466321243523" height="148.71992674664924" fill="#785EF0" data-tooltip="1.09x baseline (CRuby 3.4.0dev)"/>
<rect x="624.7150259067377" y="349.5178349268066" width="4.870466321243523" height="148.48216507319339" fill="#FFB000" data-tooltip="1.09x baseline (YJIT 3.3.3)"/>
<rect x="629.5854922279813" y="335.70388169902026" width="4.870466321243523" height="162.29611830097966" fill="#DC267F" data-tooltip="1.19x baseline (YJIT 3.4.0dev)"/>
<line x1="627.1502590673595" y1="498.0" x2="627.1502590673595" y2="502.79999999999995" stroke="#000"/>
<text x="627.1502590673595" y="512.4" fill="#111" font-size="small" text-anchor="end" transform="rotate(-60, 627.1502590673595, 512.4)">
rack
</text>
<rect x="639.3264248704683" y="347.58830861614047" width="4.870466321243523" height="150.4116913838595" fill="#785EF0" data-tooltip="1.11x baseline (CRuby 3.4.0dev)"/>
<rect x="644.1968911917119" y="359.83546538076604" width="4.870466321243523" height="138.1645346192339" fill="#FFB000" data-tooltip="1.02x baseline (YJIT 3.3.3)"/>
<rect x="649.0673575129554" y="344.10098262214535" width="4.870466321243523" height="153.8990173778546" fill="#DC267F" data-tooltip="1.13x baseline (YJIT 3.4.0dev)"/>
<line x1="646.6321243523337" y1="498.0" x2="646.6321243523337" y2="502.79999999999995" stroke="#000"/>
<text x="646.6321243523337" y="512.4" fill="#111" font-size="small" text-anchor="end" transform="rotate(-60, 646.6321243523337, 512.4)">
ruby-json
</text>
<rect x="658.8082901554425" y="349.6774011541415" width="4.870466321243523" height="148.3225988458585" fill="#785EF0" data-tooltip="1.09x baseline (CRuby 3.4.0dev)"/>
<rect x="663.6787564766861" y="357.86576081197626" width="4.870466321243523" height="140.1342391880237" fill="#FFB000" data-tooltip="1.03x baseline (YJIT 3.3.3)"/>
<rect x="668.5492227979296" y="345.1745203615668" width="4.870466321243523" height="152.82547963843314" fill="#DC267F" data-tooltip="1.12x baseline (YJIT 3.4.0dev)"/>
<line x1="666.1139896373078" y1="498.0" x2="666.1139896373078" y2="502.79999999999995" stroke="#000"/>
<text x="666.1139896373078" y="512.4" fill="#111" font-size="small" text-anchor="end" transform="rotate(-60, 666.1139896373078, 512.4)">
rubykon
</text>
<rect x="678.2901554404167" y="343.4750429989352" width="4.870466321243523" height="154.5249570010648" fill="#785EF0" data-tooltip="1.14x baseline (CRuby 3.4.0dev)"/>
<rect x="683.1606217616603" y="358.5571021582856" width="4.870466321243523" height="139.44289784171428" fill="#FFB000" data-tooltip="1.02x baseline (YJIT 3.3.3)"/>
<rect x="688.0310880829038" y="338.71228747492967" width="4.870466321243523" height="159.28771252507025" fill="#DC267F" data-tooltip="1.17x baseline (YJIT 3.4.0dev)"/>
<line x1="685.595854922282" y1="498.0" x2="685.595854922282" y2="502.79999999999995" stroke="#000"/>
<text x="685.595854922282" y="512.4" fill="#111" font-size="small" text-anchor="end" transform="rotate(-60, 685.595854922282, 512.4)">
sudoku
</text>
<rect x="697.7720207253909" y="347.02243095369516" width="4.870466321243523" height="150.97756904630478" fill="#785EF0" data-tooltip="1.11x baseline (CRuby 3.4.0dev)"/>
<rect x="702.6424870466344" y="348.5868231434133" width="4.870466321243523" height="149.41317685658666" fill="#FFB000" data-tooltip="1.10x baseline (YJIT 3.3.3)"/>
<rect x="707.512953367878" y="330.66492665418644" width="4.870466321243523" height="167.33507334581356" fill="#DC267F" data-tooltip="1.23x baseline (YJIT 3.4.0dev)"/>
<line x1="705.0777202072562" y1="498.0" x2="705.0777202072562" y2="502.79999999999995" stroke="#000"/>
<text x="705.0777202072562" y="512.4" fill="#111" font-size="small" text-anchor="end" transform="rotate(-60, 705.0777202072562, 512.4)">
tinygql
</text>
<rect x="717.2538860103651" y="133.64327176780998" width="4.870466321243523" height="364.35672823218994" fill="#785EF0" data-tooltip="2.68x baseline (CRuby 3.4.0dev)"/>
<rect x="722.1243523316086" y="270.9664907651715" width="4.870466321243523" height="227.03350923482844" fill="#FFB000" data-tooltip="1.67x baseline (YJIT 3.3.3)"/>
<rect x="726.9948186528522" y="100.19999999999999" width="4.870466321243523" height="397.79999999999995" fill="#DC267F" data-tooltip="2.92x baseline (YJIT 3.4.0dev)"/>
<line x1="724.5595854922304" y1="498.0" x2="724.5595854922304" y2="502.79999999999995" stroke="#000"/>
<text x="724.5595854922304" y="512.4" fill="#111" font-size="small" text-anchor="end" transform="rotate(-60, 724.5595854922304, 512.4)">
30k_ifelse
</text>
<rect x="736.7357512953394" y="215.91601358638758" width="4.870466321243523" height="282.08398641361237" fill="#785EF0" data-tooltip="2.07x baseline (CRuby 3.4.0dev)"/>
<rect x="741.6062176165829" y="327.3206770670755" width="4.870466321243523" height="170.67932293292438" fill="#FFB000" data-tooltip="1.25x baseline (YJIT 3.3.3)"/>
<rect x="746.4766839378264" y="181.53073557409968" width="4.870466321243523" height="316.4692644259003" fill="#DC267F" data-tooltip="2.33x baseline (YJIT 3.4.0dev)"/>
<line x1="744.0414507772047" y1="498.0" x2="744.0414507772047" y2="502.79999999999995" stroke="#000"/>
<text x="744.0414507772047" y="512.4" fill="#111" font-size="small" text-anchor="end" transform="rotate(-60, 744.0414507772047, 512.4)">
30k_methods
</text>
<rect x="756.2176165803135" y="344.12155548257783" width="4.870466321243523" height="153.87844451742214" fill="#785EF0" data-tooltip="1.13x baseline (CRuby 3.4.0dev)"/>
<rect x="761.0880829015571" y="357.820599725956" width="4.870466321243523" height="140.17940027404393" fill="#FFB000" data-tooltip="1.03x baseline (YJIT 3.3.3)"/>
<rect x="765.9585492228006" y="341.0673423397918" width="4.870466321243523" height="156.93265766020812" fill="#DC267F" data-tooltip="1.15x baseline (YJIT 3.4.0dev)"/>
<line x1="763.5233160621789" y1="498.0" x2="763.5233160621789" y2="502.79999999999995" stroke="#000"/>
<text x="763.5233160621789" y="512.4" fill="#111" font-size="small" text-anchor="end" transform="rotate(-60, 763.5233160621789, 512.4)">
cfunc_itself
</text>
<rect x="775.6994818652877" y="344.1664703817364" width="4.870466321243523" height="153.83352961826355" fill="#785EF0" data-tooltip="1.13x baseline (CRuby 3.4.0dev)"/>
<rect x="780.5699481865313" y="359.6621105914593" width="4.870466321243523" height="138.33788940854063" fill="#FFB000" data-tooltip="1.02x baseline (YJIT 3.3.3)"/>
<rect x="785.4404145077748" y="341.11225723895046" width="4.870466321243523" height="156.88774276104948" fill="#DC267F" data-tooltip="1.15x baseline (YJIT 3.4.0dev)"/>
<line x1="783.005181347153" y1="498.0" x2="783.005181347153" y2="502.79999999999995" stroke="#000"/>
<text x="783.005181347153" y="512.4" fill="#111" font-size="small" text-anchor="end" transform="rotate(-60, 783.005181347153, 512.4)">
fib
</text>
<rect x="795.1813471502619" y="344.7560414326393" width="4.870466321243523" height="153.2439585673607" fill="#785EF0" data-tooltip="1.13x baseline (CRuby 3.4.0dev)"/>
<rect x="800.0518134715054" y="358.1811640847462" width="4.870466321243523" height="139.81883591525377" fill="#FFB000" data-tooltip="1.03x baseline (YJIT 3.3.3)"/>
<rect x="804.922279792749" y="341.38853575067265" width="4.870466321243523" height="156.6114642493273" fill="#DC267F" data-tooltip="1.15x baseline (YJIT 3.4.0dev)"/>
<line x1="802.4870466321272" y1="498.0" x2="802.4870466321272" y2="502.79999999999995" stroke="#000"/>
<text x="802.4870466321272" y="512.4" fill="#111" font-size="small" text-anchor="end" transform="rotate(-60, 802.4870466321272, 512.4)">
getivar
</text>
<rect x="814.6632124352361" y="344.1664703817364" width="4.870466321243523" height="153.83352961826355" fill="#785EF0" data-tooltip="1.13x baseline (CRuby 3.4.0dev)"/>
<rect x="819.5336787564796" y="358.8536424066042" width="4.870466321243523" height="139.14635759339575" fill="#FFB000" data-tooltip="1.02x baseline (YJIT 3.3.3)"/>
<rect x="824.4041450777232" y="340.9775125414746" width="4.870466321243523" height="157.02248745852535" fill="#DC267F" data-tooltip="1.15x baseline (YJIT 3.4.0dev)"/>
<line x1="821.9689119171014" y1="498.0" x2="821.9689119171014" y2="502.79999999999995" stroke="#000"/>
<text x="821.9689119171014" y="512.4" fill="#111" font-size="small" text-anchor="end" transform="rotate(-60, 821.9689119171014, 512.4)">
keyword_args
</text>
<rect x="834.1450777202103" y="344.40983821691424" width="4.870466321243523" height="153.59016178308568" fill="#785EF0" data-tooltip="1.13x baseline (CRuby 3.4.0dev)"/>
<rect x="839.0155440414538" y="358.10406592834323" width="4.870466321243523" height="139.89593407165668" fill="#FFB000" data-tooltip="1.03x baseline (YJIT 3.3.3)"/>
<rect x="843.8860103626974" y="340.9191527218441" width="4.870466321243523" height="157.08084727815574" fill="#DC267F" data-tooltip="1.15x baseline (YJIT 3.4.0dev)"/>
<line x1="841.4507772020756" y1="498.0" x2="841.4507772020756" y2="502.79999999999995" stroke="#000"/>
<text x="841.4507772020756" y="512.4" fill="#111" font-size="small" text-anchor="end" transform="rotate(-60, 841.4507772020756, 512.4)">
respond_to
</text>
<rect x="853.6269430051844" y="347.6982696806206" width="4.870466321243523" height="150.30173031937932" fill="#785EF0" data-tooltip="1.10x baseline (CRuby 3.4.0dev)"/>
<rect x="858.497409326428" y="360.1658814633954" width="4.870466321243523" height="137.83411853660456" fill="#FFB000" data-tooltip="1.01x baseline (YJIT 3.3.3)"/>
<rect x="863.3678756476716" y="344.65243618320005" width="4.870466321243523" height="153.34756381679986" fill="#DC267F" data-tooltip="1.13x baseline (YJIT 3.4.0dev)"/>
<line x1="860.9326424870499" y1="498.0" x2="860.9326424870499" y2="502.79999999999995" stroke="#000"/>
<text x="860.9326424870499" y="512.4" fill="#111" font-size="small" text-anchor="end" transform="rotate(-60, 860.9326424870499, 512.4)">
ruby-xor
</text>
<rect x="873.1088082901587" y="345.0696933735493" width="4.870466321243523" height="152.9303066264507" fill="#785EF0" data-tooltip="1.12x baseline (CRuby 3.4.0dev)"/>
<rect x="877.9792746114023" y="358.9602673691177" width="4.870466321243523" height="139.03973263088227" fill="#FFB000" data-tooltip="1.02x baseline (YJIT 3.3.3)"/>
<rect x="882.8497409326458" y="342.1665187442504" width="4.870466321243523" height="155.83348125574958" fill="#DC267F" data-tooltip="1.15x baseline (YJIT 3.4.0dev)"/>
<line x1="880.414507772024" y1="498.0" x2="880.414507772024" y2="502.79999999999995" stroke="#000"/>
<text x="880.414507772024" y="512.4" fill="#111" font-size="small" text-anchor="end" transform="rotate(-60, 880.414507772024, 512.4)">
setivar
</text>
<rect x="892.5906735751329" y="344.2621405992841" width="4.870466321243523" height="153.7378594007158" fill="#785EF0" data-tooltip="1.13x baseline (CRuby 3.4.0dev)"/>
<rect x="897.4611398963764" y="359.66286658481147" width="4.870466321243523" height="138.33713341518848" fill="#FFB000" data-tooltip="1.02x baseline (YJIT 3.3.3)"/>
<rect x="902.33160621762" y="341.4334358264322" width="4.870466321243523" height="156.56656417356774" fill="#DC267F" data-tooltip="1.15x baseline (YJIT 3.4.0dev)"/>
<line x1="899.8963730569982" y1="498.0" x2="899.8963730569982" y2="502.79999999999995" stroke="#000"/>
<text x="899.8963730569982" y="512.4" fill="#111" font-size="small" text-anchor="end" transform="rotate(-60, 899.8963730569982, 512.4)">
setivar_object
</text>
<rect x="912.0725388601071" y="344.80094150839886" width="4.870466321243523" height="153.1990584916011" fill="#785EF0" data-tooltip="1.13x baseline (CRuby 3.4.0dev)"/>
<rect x="916.9430051813506" y="359.61796650905194" width="4.870466321243523" height="138.382033490948" fill="#FFB000" data-tooltip="1.02x baseline (YJIT 3.3.3)"/>
<rect x="921.8134715025942" y="341.4334358264322" width="4.870466321243523" height="156.56656417356774" fill="#DC267F" data-tooltip="1.15x baseline (YJIT 3.4.0dev)"/>
<line x1="919.3782383419724" y1="498.0" x2="919.3782383419724" y2="502.79999999999995" stroke="#000"/>
<text x="919.3782383419724" y="512.4" fill="#111" font-size="small" text-anchor="end" transform="rotate(-60, 919.3782383419724, 512.4)">
setivar_young
</text>
<rect x="931.5544041450813" y="352.3410420752613" width="4.870466321243523" height="145.6589579247386" fill="#785EF0" data-tooltip="1.07x baseline (CRuby 3.4.0dev)"/>
<rect x="936.4248704663248" y="359.70024021841886" width="4.870466321243523" height="138.2997597815811" fill="#FFB000" data-tooltip="1.02x baseline (YJIT 3.3.3)"/>
<rect x="941.2953367875684" y="257.48293673190074" width="4.870466321243523" height="240.51706326809924" fill="#DC267F" data-tooltip="1.77x baseline (YJIT 3.4.0dev)"/>
<line x1="938.8601036269466" y1="498.0" x2="938.8601036269466" y2="502.79999999999995" stroke="#000"/>
<text x="938.8601036269466" y="512.4" fill="#111" font-size="small" text-anchor="end" transform="rotate(-60, 938.8601036269466, 512.4)">
str_concat
</text>
<rect x="951.0362694300554" y="346.61042769445277" width="4.870466321243523" height="151.38957230554723" fill="#785EF0" data-tooltip="1.11x baseline (CRuby 3.4.0dev)"/>
<rect x="955.906735751299" y="360.3168434113685" width="4.870466321243523" height="137.68315658863145" fill="#FFB000" data-tooltip="1.01x baseline (YJIT 3.3.3)"/>
<rect x="960.7772020725425" y="343.82493030682144" width="4.870466321243523" height="154.1750696931785" fill="#DC267F" data-tooltip="1.13x baseline (YJIT 3.4.0dev)"/>
<line x1="958.3419689119208" y1="498.0" x2="958.3419689119208" y2="502.79999999999995" stroke="#000"/>
<text x="958.3419689119208" y="512.4" fill="#111" font-size="small" text-anchor="end" transform="rotate(-60, 958.3419689119208, 512.4)">
throw
</text>
<rect x="970.5181347150296" y="342.6327722060249" width="4.870466321243523" height="155.36722779397502" fill="#785EF0" data-tooltip="1.14x baseline (CRuby 3.4.0dev)"/>
<rect x="975.3886010362733" y="348.317285484603" width="4.870466321243523" height="149.68271451539695" fill="#FFB000" data-tooltip="1.10x baseline (YJIT 3.3.3)"/>
<rect x="980.2590673575168" y="328.10831751042065" width="4.870466321243523" height="169.89168248957932" fill="#DC267F" data-tooltip="1.25x baseline (YJIT 3.4.0dev)"/>
<line x1="977.823834196895" y1="498.0" x2="977.823834196895" y2="502.79999999999995" stroke="#000"/>
<text x="977.823834196895" y="512.4" fill="#111" font-size="small" text-anchor="end" transform="rotate(-60, 977.823834196895, 512.4)" font-style="italic">
geomean*
</text>
<line x1="50.0" y1="361.95277044854873" x2="990.0" y2="361.95277044854873" stroke="#648FFF" stroke-width="2"/>
<rect x="56.69546632124352" y="341.09230769972316" width="17.85" height="7.2" transform="rotate(-60, 59.30569948186529, 347.7523076997232)" fill="#fffa"/>
<text x="56.870466321243526" y="347.7523076997232" fill="#111" font-size="0.5em" text-anchor="start" textLength="17.5" transform="rotate(-60, 59.30569948186529, 347.7523076997232)" style="text-shadow: 0 0 1px #fff;">
1.05
</text>
<rect x="61.56593264248705" y="321.87569865895193" width="17.85" height="7.2" transform="rotate(-60, 64.1761658031088, 328.5356986589519)" fill="#fffa"/>
<text x="61.740932642487046" y="328.5356986589519" fill="#111" font-size="0.5em" text-anchor="start" textLength="17.5" transform="rotate(-60, 64.1761658031088, 328.5356986589519)" style="text-shadow: 0 0 1px #fff;">
1.19
</text>
<rect x="66.43639896373058" y="315.4734760918248" width="17.85" height="7.2" transform="rotate(-60, 69.04663212435233, 322.13347609182483)" fill="#fffa"/>
<text x="66.61139896373057" y="322.13347609182483" fill="#111" font-size="0.5em" text-anchor="start" textLength="17.5" transform="rotate(-60, 69.04663212435233, 322.13347609182483)" style="text-shadow: 0 0 1px #fff;">
1.24
</text>
<rect x="76.17733160621762" y="323.61041839427065" width="17.85" height="7.2" transform="rotate(-60, 78.78756476683938, 330.2704183942706)" fill="#fffa"/>
<text x="76.35233160621762" y="330.2704183942706" fill="#111" font-size="0.5em" text-anchor="start" textLength="17.5" transform="rotate(-60, 78.78756476683938, 330.2704183942706)" style="text-shadow: 0 0 1px #fff;">
1.18
</text>
<rect x="81.04779792746115" y="342.1169694685262" width="17.85" height="7.2" transform="rotate(-60, 83.6580310880829, 348.7769694685262)" fill="#fffa"/>
<text x="81.22279792746113" y="348.7769694685262" fill="#111" font-size="0.5em" text-anchor="start" textLength="17.5" transform="rotate(-60, 83.6580310880829, 348.7769694685262)" style="text-shadow: 0 0 1px #fff;">
1.04
</text>
<rect x="85.91826424870466" y="311.05485865058426" width="17.85" height="7.2" transform="rotate(-60, 88.52849740932642, 317.71485865058423)" fill="#fffa"/>
<text x="86.09326424870466" y="317.71485865058423" fill="#111" font-size="0.5em" text-anchor="start" textLength="17.5" transform="rotate(-60, 88.52849740932642, 317.71485865058423)" style="text-shadow: 0 0 1px #fff;">
1.27
</text>
<rect x="95.65919689119171" y="331.51984840802055" width="17.85" height="7.2" transform="rotate(-60, 98.26943005181346, 338.1798484080206)" fill="#fffa"/>
<text x="95.8341968911917" y="338.1798484080206" fill="#111" font-size="0.5em" text-anchor="start" textLength="17.5" transform="rotate(-60, 98.26943005181346, 338.1798484080206)" style="text-shadow: 0 0 1px #fff;">
1.12
</text>
<rect x="100.52966321243522" y="330.0261703720309" width="17.85" height="7.2" transform="rotate(-60, 103.13989637305698, 336.68617037203086)" fill="#fffa"/>
<text x="100.70466321243522" y="336.68617037203086" fill="#111" font-size="0.5em" text-anchor="start" textLength="17.5" transform="rotate(-60, 103.13989637305698, 336.68617037203086)" style="text-shadow: 0 0 1px #fff;">
1.13
</text>
<rect x="105.40012953367875" y="321.9568081697898" width="17.85" height="7.2" transform="rotate(-60, 108.01036269430051, 328.61680816978975)" fill="#fffa"/>
<text x="105.57512953367875" y="328.61680816978975" fill="#111" font-size="0.5em" text-anchor="start" textLength="17.5" transform="rotate(-60, 108.01036269430051, 328.61680816978975)" style="text-shadow: 0 0 1px #fff;">
1.19
</text>
<rect x="115.14106217616579" y="363.5917106842674" width="17.85" height="7.2" transform="rotate(-60, 117.75129533678755, 370.25171068426744)" fill="#fffa"/>
<text x="115.31606217616579" y="370.25171068426744" fill="#111" font-size="0.5em" text-anchor="start" textLength="17.5" transform="rotate(-60, 117.75129533678755, 370.25171068426744)" style="text-shadow: 0 0 1px #fff;">
0.88
</text>
<rect x="120.01152849740932" y="257.47609524226306" width="17.85" height="7.2" transform="rotate(-60, 122.62176165803108, 264.1360952422631)" fill="#fffa"/>
<text x="120.18652849740931" y="264.1360952422631" fill="#111" font-size="0.5em" text-anchor="start" textLength="17.5" transform="rotate(-60, 122.62176165803108, 264.1360952422631)" style="text-shadow: 0 0 1px #fff;">
1.66
</text>
<rect x="124.88199481865283" y="255.2124202062114" width="17.85" height="7.2" transform="rotate(-60, 127.49222797927459, 261.87242020621136)" fill="#fffa"/>
<text x="125.05699481865281" y="261.87242020621136" fill="#111" font-size="0.5em" text-anchor="start" textLength="17.5" transform="rotate(-60, 127.49222797927459, 261.87242020621136)" style="text-shadow: 0 0 1px #fff;">
1.68
</text>
<rect x="134.62292746113988" y="343.7652512454584" width="17.85" height="7.2" transform="rotate(-60, 137.23316062176167, 350.42525124545836)" fill="#fffa"/>
<text x="134.7979274611399" y="350.42525124545836" fill="#111" font-size="0.5em" text-anchor="start" textLength="17.5" transform="rotate(-60, 137.23316062176167, 350.42525124545836)" style="text-shadow: 0 0 1px #fff;">
1.03
</text>
<rect x="139.4933937823834" y="327.2603196092644" width="17.85" height="7.2" transform="rotate(-60, 142.1036269430052, 333.92031960926437)" fill="#fffa"/>
<text x="139.66839378238342" y="333.92031960926437" fill="#111" font-size="0.5em" text-anchor="start" textLength="17.5" transform="rotate(-60, 142.1036269430052, 333.92031960926437)" style="text-shadow: 0 0 1px #fff;">
1.15
</text>
<rect x="144.36386010362693" y="325.2860454901023" width="17.85" height="7.2" transform="rotate(-60, 146.9740932642487, 331.94604549010234)" fill="#fffa"/>
<text x="144.53886010362694" y="331.94604549010234" fill="#111" font-size="0.5em" text-anchor="start" textLength="17.5" transform="rotate(-60, 146.9740932642487, 331.94604549010234)" style="text-shadow: 0 0 1px #fff;">
1.17
</text>
<rect x="154.10479274611396" y="331.3868184564559" width="17.85" height="7.2" transform="rotate(-60, 156.71502590673575, 338.0468184564559)" fill="#fffa"/>
<text x="154.27979274611397" y="338.0468184564559" fill="#111" font-size="0.5em" text-anchor="start" textLength="17.5" transform="rotate(-60, 156.71502590673575, 338.0468184564559)" style="text-shadow: 0 0 1px #fff;">
1.12
</text>
<rect x="158.97525906735748" y="329.13972662775166" width="17.85" height="7.2" transform="rotate(-60, 161.58549222797927, 335.7997266277517)" fill="#fffa"/>
<text x="159.1502590673575" y="335.7997266277517" fill="#111" font-size="0.5em" text-anchor="start" textLength="17.5" transform="rotate(-60, 161.58549222797927, 335.7997266277517)" style="text-shadow: 0 0 1px #fff;">
1.14
</text>
<rect x="163.845725388601" y="312.82104033774436" width="17.85" height="7.2" transform="rotate(-60, 166.4559585492228, 319.48104033774433)" fill="#fffa"/>
<text x="164.02072538860102" y="319.48104033774433" fill="#111" font-size="0.5em" text-anchor="start" textLength="17.5" transform="rotate(-60, 166.4559585492228, 319.48104033774433)" style="text-shadow: 0 0 1px #fff;">
1.26
</text>
<rect x="173.58665803108806" y="333.61087742864" width="17.85" height="7.2" transform="rotate(-60, 176.19689119170982, 340.27087742863995)" fill="#fffa"/>
<text x="173.76165803108807" y="340.27087742863995" fill="#111" font-size="0.5em" text-anchor="start" textLength="17.5" transform="rotate(-60, 176.19689119170982, 340.27087742863995)" style="text-shadow: 0 0 1px #fff;">
1.10
</text>
<rect x="178.45712435233156" y="321.4696928520029" width="17.85" height="7.2" transform="rotate(-60, 181.06735751295335, 328.12969285200285)" fill="#fffa"/>
<text x="178.63212435233157" y="328.12969285200285" fill="#111" font-size="0.5em" text-anchor="start" textLength="17.5" transform="rotate(-60, 181.06735751295335, 328.12969285200285)" style="text-shadow: 0 0 1px #fff;">
1.19
</text>
<rect x="183.3275906735751" y="311.2867638522427" width="17.85" height="7.2" transform="rotate(-60, 185.93782383419688, 317.9467638522427)" fill="#fffa"/>
<text x="183.5025906735751" y="317.9467638522427" fill="#111" font-size="0.5em" text-anchor="start" textLength="17.5" transform="rotate(-60, 185.93782383419688, 317.9467638522427)" style="text-shadow: 0 0 1px #fff;">
1.27
</text>
<rect x="193.06852331606214" y="348.44278896344576" width="17.85" height="7.2" transform="rotate(-60, 195.67875647668393, 355.1027889634458)" fill="#fffa"/>
<text x="193.24352331606215" y="355.1027889634458" fill="#111" font-size="0.5em" text-anchor="start" textLength="17.5" transform="rotate(-60, 195.67875647668393, 355.1027889634458)" style="text-shadow: 0 0 1px #fff;">
1.00
</text>
<rect x="197.93898963730567" y="317.76026944381346" width="17.85" height="7.2" transform="rotate(-60, 200.54922279792746, 324.4202694438134)" fill="#fffa"/>
<text x="198.11398963730568" y="324.4202694438134" fill="#111" font-size="0.5em" text-anchor="start" textLength="17.5" transform="rotate(-60, 200.54922279792746, 324.4202694438134)" style="text-shadow: 0 0 1px #fff;">
1.22
</text>
<rect x="202.8094559585492" y="321.3723976468487" width="17.85" height="7.2" transform="rotate(-60, 205.41968911917095, 328.0323976468487)" fill="#fffa"/>
<text x="202.9844559585492" y="328.0323976468487" fill="#111" font-size="0.5em" text-anchor="start" textLength="17.5" transform="rotate(-60, 205.41968911917095, 328.0323976468487)" style="text-shadow: 0 0 1px #fff;">
1.19
</text>
<rect x="212.55038860103622" y="292.414178898183" width="17.85" height="7.2" transform="rotate(-60, 215.160621761658, 299.07417889818305)" fill="#fffa"/>
<text x="212.72538860103623" y="299.07417889818305" fill="#111" font-size="0.5em" text-anchor="start" textLength="17.5" transform="rotate(-60, 215.160621761658, 299.07417889818305)" style="text-shadow: 0 0 1px #fff;">
1.41
</text>
<rect x="217.42085492227974" y="334.0827743087589" width="17.85" height="7.2" transform="rotate(-60, 220.03108808290153, 340.7427743087589)" fill="#fffa"/>
<text x="217.59585492227976" y="340.7427743087589" fill="#111" font-size="0.5em" text-anchor="start" textLength="17.5" transform="rotate(-60, 220.03108808290153, 340.7427743087589)" style="text-shadow: 0 0 1px #fff;">
1.10
</text>
<rect x="222.29132124352327" y="278.2022989711329" width="17.85" height="7.2" transform="rotate(-60, 224.90155440414506, 284.86229897113293)" fill="#fffa"/>
<text x="222.46632124352328" y="284.86229897113293" fill="#111" font-size="0.5em" text-anchor="start" textLength="17.5" transform="rotate(-60, 224.90155440414506, 284.86229897113293)" style="text-shadow: 0 0 1px #fff;">
1.51
</text>
<rect x="232.03225388601032" y="330.77100796969927" width="17.85" height="7.2" transform="rotate(-60, 234.64248704663208, 337.43100796969924)" fill="#fffa"/>
<text x="232.20725388601034" y="337.43100796969924" fill="#111" font-size="0.5em" text-anchor="start" textLength="17.5" transform="rotate(-60, 234.64248704663208, 337.43100796969924)" style="text-shadow: 0 0 1px #fff;">
1.13
</text>
<rect x="236.90272020725385" y="336.77620119205113" width="17.85" height="7.2" transform="rotate(-60, 239.5129533678756, 343.43620119205116)" fill="#fffa"/>
<text x="237.07772020725383" y="343.43620119205116" fill="#111" font-size="0.5em" text-anchor="start" textLength="17.5" transform="rotate(-60, 239.5129533678756, 343.43620119205116)" style="text-shadow: 0 0 1px #fff;">
1.08
</text>
<rect x="241.77318652849735" y="318.7606215249955" width="17.85" height="7.2" transform="rotate(-60, 244.38341968911914, 325.42062152499545)" fill="#fffa"/>
<text x="241.94818652849736" y="325.42062152499545" fill="#111" font-size="0.5em" text-anchor="start" textLength="17.5" transform="rotate(-60, 244.38341968911914, 325.42062152499545)" style="text-shadow: 0 0 1px #fff;">
1.21
</text>
<rect x="251.51411917098443" y="339.93638655269524" width="17.85" height="7.2" transform="rotate(-60, 254.1243523316062, 346.5963865526952)" fill="#fffa"/>
<text x="251.6891191709844" y="346.5963865526952" fill="#111" font-size="0.5em" text-anchor="start" textLength="17.5" transform="rotate(-60, 254.1243523316062, 346.5963865526952)" style="text-shadow: 0 0 1px #fff;">
1.06
</text>
<rect x="256.384585492228" y="326.89897483207426" width="17.85" height="7.2" transform="rotate(-60, 258.99481865284974, 333.5589748320743)" fill="#fffa"/>
<text x="256.55958549222794" y="333.5589748320743" fill="#111" font-size="0.5em" text-anchor="start" textLength="17.5" transform="rotate(-60, 258.99481865284974, 333.5589748320743)" style="text-shadow: 0 0 1px #fff;">
1.15
</text>
<rect x="261.25505181347154" y="324.90801217452184" width="17.85" height="7.2" transform="rotate(-60, 263.8652849740933, 331.5680121745218)" fill="#fffa"/>
<text x="261.4300518134715" y="331.5680121745218" fill="#111" font-size="0.5em" text-anchor="start" textLength="17.5" transform="rotate(-60, 263.8652849740933, 331.5680121745218)" style="text-shadow: 0 0 1px #fff;">
1.17
</text>
<rect x="270.99598445595865" y="340.82825299065365" width="17.85" height="7.2" transform="rotate(-60, 273.6062176165804, 347.4882529906536)" fill="#fffa"/>
<text x="271.1709844559586" y="347.4882529906536" fill="#111" font-size="0.5em" text-anchor="start" textLength="17.5" transform="rotate(-60, 273.6062176165804, 347.4882529906536)" style="text-shadow: 0 0 1px #fff;">
1.05
</text>
<rect x="275.8664507772022" y="288.33557766360207" width="17.85" height="7.2" transform="rotate(-60, 278.4766839378239, 294.99557766360203)" fill="#fffa"/>
<text x="276.04145077720216" y="294.99557766360203" fill="#111" font-size="0.5em" text-anchor="start" textLength="17.5" transform="rotate(-60, 278.4766839378239, 294.99557766360203)" style="text-shadow: 0 0 1px #fff;">
1.44
</text>
<rect x="280.7369170984457" y="279.4382919553973" width="17.85" height="7.2" transform="rotate(-60, 283.34715025906746, 286.0982919553973)" fill="#fffa"/>
<text x="280.9119170984457" y="286.0982919553973" fill="#111" font-size="0.5em" text-anchor="start" textLength="17.5" transform="rotate(-60, 283.34715025906746, 286.0982919553973)" style="text-shadow: 0 0 1px #fff;">
1.50
</text>
<rect x="290.4778497409328" y="314.4048039885632" width="17.85" height="7.2" transform="rotate(-60, 293.08808290155457, 321.06480398856314)" fill="#fffa"/>
<text x="290.6528497409328" y="321.06480398856314" fill="#111" font-size="0.5em" text-anchor="start" textLength="17.5" transform="rotate(-60, 293.08808290155457, 321.06480398856314)" style="text-shadow: 0 0 1px #fff;">
1.25
</text>
<rect x="295.34831606217637" y="333.0002543667256" width="17.85" height="7.2" transform="rotate(-60, 297.9585492227981, 339.66025436672555)" fill="#fffa"/>
<text x="295.5233160621764" y="339.66025436672555" fill="#111" font-size="0.5em" text-anchor="start" textLength="17.5" transform="rotate(-60, 297.9585492227981, 339.66025436672555)" style="text-shadow: 0 0 1px #fff;">
1.11
</text>
<rect x="300.2187823834199" y="298.6939940609048" width="17.85" height="7.2" transform="rotate(-60, 302.8290155440417, 305.3539940609048)" fill="#fffa"/>
<text x="300.39378238341993" y="305.3539940609048" fill="#111" font-size="0.5em" text-anchor="start" textLength="17.5" transform="rotate(-60, 302.8290155440417, 305.3539940609048)" style="text-shadow: 0 0 1px #fff;">
1.36
</text>
<rect x="309.95971502590703" y="334.50332805771046" width="17.85" height="7.2" transform="rotate(-60, 312.5699481865288, 341.1633280577105)" fill="#fffa"/>
<text x="310.134715025907" y="341.1633280577105" fill="#111" font-size="0.5em" text-anchor="start" textLength="17.5" transform="rotate(-60, 312.5699481865288, 341.1633280577105)" style="text-shadow: 0 0 1px #fff;">
1.10
</text>
<rect x="314.8301813471506" y="327.95942332180806" width="17.85" height="7.2" transform="rotate(-60, 317.44041450777235, 334.61942332180803)" fill="#fffa"/>
<text x="315.00518134715054" y="334.61942332180803" fill="#111" font-size="0.5em" text-anchor="start" textLength="17.5" transform="rotate(-60, 317.44041450777235, 334.61942332180803)" style="text-shadow: 0 0 1px #fff;">
1.15
</text>
<rect x="319.70064766839414" y="320.9389316863721" width="17.85" height="7.2" transform="rotate(-60, 322.3108808290159, 327.59893168637205)" fill="#fffa"/>
<text x="319.8756476683941" y="327.59893168637205" fill="#111" font-size="0.5em" text-anchor="start" textLength="17.5" transform="rotate(-60, 322.3108808290159, 327.59893168637205)" style="text-shadow: 0 0 1px #fff;">
1.20
</text>
<rect x="329.44158031088125" y="341.6154908364829" width="17.85" height="7.2" transform="rotate(-60, 332.05181347150295, 348.2754908364829)" fill="#fffa"/>
<text x="329.6165803108812" y="348.2754908364829" fill="#111" font-size="0.5em" text-anchor="start" textLength="17.5" transform="rotate(-60, 332.05181347150295, 348.2754908364829)" style="text-shadow: 0 0 1px #fff;">
1.05
</text>
<rect x="334.31204663212475" y="346.6749769949369" width="17.85" height="7.2" transform="rotate(-60, 336.9222797927465, 353.3349769949369)" fill="#fffa"/>
<text x="334.48704663212476" y="353.3349769949369" fill="#111" font-size="0.5em" text-anchor="start" textLength="17.5" transform="rotate(-60, 336.9222797927465, 353.3349769949369)" style="text-shadow: 0 0 1px #fff;">
1.01
</text>
<rect x="339.1825129533683" y="337.93853868644374" width="17.85" height="7.2" transform="rotate(-60, 341.79274611399006, 344.5985386864437)" fill="#fffa"/>
<text x="339.3575129533683" y="344.5985386864437" fill="#111" font-size="0.5em" text-anchor="start" textLength="17.5" transform="rotate(-60, 341.79274611399006, 344.5985386864437)" style="text-shadow: 0 0 1px #fff;">
1.07
</text>
<rect x="348.9234455958554" y="329.6938116591928" width="17.85" height="7.2" transform="rotate(-60, 351.5336787564772, 336.3538116591928)" fill="#fffa"/>
<text x="349.0984455958554" y="336.3538116591928" fill="#111" font-size="0.5em" text-anchor="start" textLength="17.5" transform="rotate(-60, 351.5336787564772, 336.3538116591928)" style="text-shadow: 0 0 1px #fff;">
1.13
</text>
<rect x="353.79391191709897" y="344.13230687317343" width="17.85" height="7.2" transform="rotate(-60, 356.4041450777207, 350.7923068731734)" fill="#fffa"/>
<text x="353.9689119170989" y="350.7923068731734" fill="#111" font-size="0.5em" text-anchor="start" textLength="17.5" transform="rotate(-60, 356.4041450777207, 350.7923068731734)" style="text-shadow: 0 0 1px #fff;">
1.03
</text>
<rect x="358.6643782383425" y="325.6266299087758" width="17.85" height="7.2" transform="rotate(-60, 361.2746113989643, 332.28662990877575)" fill="#fffa"/>
<text x="358.8393782383425" y="332.28662990877575" fill="#111" font-size="0.5em" text-anchor="start" textLength="17.5" transform="rotate(-60, 361.2746113989643, 332.28662990877575)" style="text-shadow: 0 0 1px #fff;">
1.16
</text>
<rect x="368.40531088082963" y="336.5865319476129" width="17.85" height="7.2" transform="rotate(-60, 371.0155440414514, 343.2465319476129)" fill="#fffa"/>
<text x="368.5803108808296" y="343.2465319476129" fill="#111" font-size="0.5em" text-anchor="start" textLength="17.5" transform="rotate(-60, 371.0155440414514, 343.2465319476129)" style="text-shadow: 0 0 1px #fff;">
1.08
</text>
<rect x="373.2757772020732" y="337.33527839533696" width="17.85" height="7.2" transform="rotate(-60, 375.88601036269495, 343.995278395337)" fill="#fffa"/>
<text x="373.45077720207314" y="343.995278395337" fill="#111" font-size="0.5em" text-anchor="start" textLength="17.5" transform="rotate(-60, 375.88601036269495, 343.995278395337)" style="text-shadow: 0 0 1px #fff;">
1.08
</text>
<rect x="378.14624352331674" y="327.0025774167457" width="17.85" height="7.2" transform="rotate(-60, 380.75647668393844, 333.66257741674565)" fill="#fffa"/>
<text x="378.3212435233167" y="333.66257741674565" fill="#111" font-size="0.5em" text-anchor="start" textLength="17.5" transform="rotate(-60, 380.75647668393844, 333.66257741674565)" style="text-shadow: 0 0 1px #fff;">
1.15
</text>
<rect x="387.8871761658038" y="335.40231238375355" width="17.85" height="7.2" transform="rotate(-60, 390.49740932642555, 342.0623123837536)" fill="#fffa"/>
<text x="388.0621761658038" y="342.0623123837536" fill="#111" font-size="0.5em" text-anchor="start" textLength="17.5" transform="rotate(-60, 390.49740932642555, 342.0623123837536)" style="text-shadow: 0 0 1px #fff;">
1.09
</text>
<rect x="392.75764248704735" y="344.7128565867283" width="17.85" height="7.2" transform="rotate(-60, 395.3678756476691, 351.3728565867283)" fill="#fffa"/>
<text x="392.93264248704736" y="351.3728565867283" fill="#111" font-size="0.5em" text-anchor="start" textLength="17.5" transform="rotate(-60, 395.3678756476691, 351.3728565867283)" style="text-shadow: 0 0 1px #fff;">
1.02
</text>
<rect x="397.6281088082909" y="330.65853701037486" width="17.85" height="7.2" transform="rotate(-60, 400.23834196891266, 337.3185370103748)" fill="#fffa"/>
<text x="397.8031088082909" y="337.3185370103748" fill="#111" font-size="0.5em" text-anchor="start" textLength="17.5" transform="rotate(-60, 400.23834196891266, 337.3185370103748)" style="text-shadow: 0 0 1px #fff;">
1.13
</text>
<rect x="407.369041450778" y="330.00852608505653" width="17.85" height="7.2" transform="rotate(-60, 409.9792746113998, 336.66852608505656)" fill="#fffa"/>
<text x="407.54404145077797" y="336.66852608505656" fill="#111" font-size="0.5em" text-anchor="start" textLength="17.5" transform="rotate(-60, 409.9792746113998, 336.66852608505656)" style="text-shadow: 0 0 1px #fff;">
1.13
</text>
<rect x="412.23950777202157" y="345.6873309395208" width="17.85" height="7.2" transform="rotate(-60, 414.84974093264333, 352.3473309395208)" fill="#fffa"/>
<text x="412.4145077720215" y="352.3473309395208" fill="#111" font-size="0.5em" text-anchor="start" textLength="17.5" transform="rotate(-60, 414.84974093264333, 352.3473309395208)" style="text-shadow: 0 0 1px #fff;">
1.02
</text>
<rect x="417.1099740932651" y="325.0809017022249" width="17.85" height="7.2" transform="rotate(-60, 419.7202072538869, 331.74090170222485)" fill="#fffa"/>
<text x="417.2849740932651" y="331.74090170222485" fill="#111" font-size="0.5em" text-anchor="start" textLength="17.5" transform="rotate(-60, 419.7202072538869, 331.74090170222485)" style="text-shadow: 0 0 1px #fff;">
1.17
</text>
<rect x="426.85090673575223" y="345.89137798116263" width="17.85" height="7.2" transform="rotate(-60, 429.461139896374, 352.55137798116266)" fill="#fffa"/>
<text x="427.0259067357522" y="352.55137798116266" fill="#111" font-size="0.5em" text-anchor="start" textLength="17.5" transform="rotate(-60, 429.461139896374, 352.55137798116266)" style="text-shadow: 0 0 1px #fff;">
1.01
</text>
<rect x="431.7213730569958" y="338.3153773629957" width="17.85" height="7.2" transform="rotate(-60, 434.3316062176175, 344.97537736299574)" fill="#fffa"/>
<text x="431.89637305699574" y="344.97537736299574" fill="#111" font-size="0.5em" text-anchor="start" textLength="17.5" transform="rotate(-60, 434.3316062176175, 344.97537736299574)" style="text-shadow: 0 0 1px #fff;">
1.07
</text>
<rect x="436.5918393782393" y="333.7859056746653" width="17.85" height="7.2" transform="rotate(-60, 439.20207253886105, 340.4459056746653)" fill="#fffa"/>
<text x="436.7668393782393" y="340.4459056746653" fill="#111" font-size="0.5em" text-anchor="start" textLength="17.5" transform="rotate(-60, 439.20207253886105, 340.4459056746653)" style="text-shadow: 0 0 1px #fff;">
1.10
</text>
<rect x="446.3327720207264" y="346.7278535505666" width="17.85" height="7.2" transform="rotate(-60, 448.94300518134816, 353.3878535505666)" fill="#fffa"/>
<text x="446.5077720207264" y="353.3878535505666" fill="#111" font-size="0.5em" text-anchor="start" textLength="17.5" transform="rotate(-60, 448.94300518134816, 353.3878535505666)" style="text-shadow: 0 0 1px #fff;">
1.01
</text>
<rect x="451.20323834196995" y="335.94761787560816" width="17.85" height="7.2" transform="rotate(-60, 453.8134715025917, 342.6076178756082)" fill="#fffa"/>
<text x="451.37823834196996" y="342.6076178756082" fill="#111" font-size="0.5em" text-anchor="start" textLength="17.5" transform="rotate(-60, 453.8134715025917, 342.6076178756082)" style="text-shadow: 0 0 1px #fff;">
1.09
</text>
<rect x="456.0737046632135" y="327.24806598593807" width="17.85" height="7.2" transform="rotate(-60, 458.68393782383527, 333.9080659859381)" fill="#fffa"/>
<text x="456.2487046632135" y="333.9080659859381" fill="#111" font-size="0.5em" text-anchor="start" textLength="17.5" transform="rotate(-60, 458.68393782383527, 333.9080659859381)" style="text-shadow: 0 0 1px #fff;">
1.15
</text>
<rect x="465.8146373057006" y="329.0091995882882" width="17.85" height="7.2" transform="rotate(-60, 468.4248704663224, 335.6691995882882)" fill="#fffa"/>
<text x="465.98963730570057" y="335.6691995882882" fill="#111" font-size="0.5em" text-anchor="start" textLength="17.5" transform="rotate(-60, 468.4248704663224, 335.6691995882882)" style="text-shadow: 0 0 1px #fff;">
1.14
</text>
<rect x="470.68510362694417" y="336.4941139728322" width="17.85" height="7.2" transform="rotate(-60, 473.29533678756593, 343.15411397283225)" fill="#fffa"/>
<text x="470.8601036269441" y="343.15411397283225" fill="#111" font-size="0.5em" text-anchor="start" textLength="17.5" transform="rotate(-60, 473.29533678756593, 343.15411397283225)" style="text-shadow: 0 0 1px #fff;">
1.08
</text>
<rect x="475.5555699481877" y="315.99970553896156" width="17.85" height="7.2" transform="rotate(-60, 478.1658031088095, 322.65970553896153)" fill="#fffa"/>
<text x="475.7305699481877" y="322.65970553896153" fill="#111" font-size="0.5em" text-anchor="start" textLength="17.5" transform="rotate(-60, 478.1658031088095, 322.65970553896153)" style="text-shadow: 0 0 1px #fff;">
1.23
</text>
<rect x="485.2965025906748" y="342.6500212591792" width="17.85" height="7.2" transform="rotate(-60, 487.90673575129654, 349.31002125917917)" fill="#fffa"/>
<text x="485.4715025906748" y="349.31002125917917" fill="#111" font-size="0.5em" text-anchor="start" textLength="17.5" transform="rotate(-60, 487.90673575129654, 349.31002125917917)" style="text-shadow: 0 0 1px #fff;">
1.04
</text>
<rect x="490.16696891191833" y="333.6553324379311" width="17.85" height="7.2" transform="rotate(-60, 492.7772020725401, 340.3153324379311)" fill="#fffa"/>
<text x="490.34196891191834" y="340.3153324379311" fill="#111" font-size="0.5em" text-anchor="start" textLength="17.5" transform="rotate(-60, 492.7772020725401, 340.3153324379311)" style="text-shadow: 0 0 1px #fff;">
1.10
</text>
<rect x="495.0374352331619" y="332.0981653527037" width="17.85" height="7.2" transform="rotate(-60, 497.64766839378365, 338.7581653527037)" fill="#fffa"/>
<text x="495.2124352331619" y="338.7581653527037" fill="#111" font-size="0.5em" text-anchor="start" textLength="17.5" transform="rotate(-60, 497.64766839378365, 338.7581653527037)" style="text-shadow: 0 0 1px #fff;">
1.12
</text>
<rect x="504.7783678756489" y="295.6550692270526" width="17.85" height="7.2" transform="rotate(-60, 507.3886010362707, 302.3150692270526)" fill="#fffa"/>
<text x="504.95336787564895" y="302.3150692270526" fill="#111" font-size="0.5em" text-anchor="start" textLength="17.5" transform="rotate(-60, 507.3886010362707, 302.3150692270526)" style="text-shadow: 0 0 1px #fff;">
1.38
</text>
<rect x="509.64883419689244" y="346.0645957522728" width="17.85" height="7.2" transform="rotate(-60, 512.2590673575143, 352.7245957522728)" fill="#fffa"/>
<text x="509.8238341968925" y="352.7245957522728" fill="#111" font-size="0.5em" text-anchor="start" textLength="17.5" transform="rotate(-60, 512.2590673575143, 352.7245957522728)" style="text-shadow: 0 0 1px #fff;">
1.01
</text>
<rect x="514.519300518136" y="306.82173649529767" width="17.85" height="7.2" transform="rotate(-60, 517.1295336787578, 313.4817364952977)" fill="#fffa"/>
<text x="514.6943005181361" y="313.4817364952977" fill="#111" font-size="0.5em" text-anchor="start" textLength="17.5" transform="rotate(-60, 517.1295336787578, 313.4817364952977)" style="text-shadow: 0 0 1px #fff;">
1.30
</text>
<rect x="524.2602331606231" y="329.9871810498387" width="17.85" height="7.2" transform="rotate(-60, 526.8704663212449, 336.64718104983865)" fill="#fffa"/>
<text x="524.4352331606232" y="336.64718104983865" fill="#111" font-size="0.5em" text-anchor="start" textLength="17.5" transform="rotate(-60, 526.8704663212449, 336.64718104983865)" style="text-shadow: 0 0 1px #fff;">
1.13
</text>
<rect x="529.1306994818666" y="345.242723725618" width="17.85" height="7.2" transform="rotate(-60, 531.7409326424885, 351.902723725618)" fill="#fffa"/>
<text x="529.3056994818667" y="351.902723725618" fill="#111" font-size="0.5em" text-anchor="start" textLength="17.5" transform="rotate(-60, 531.7409326424885, 351.902723725618)" style="text-shadow: 0 0 1px #fff;">
1.02
</text>
<rect x="534.0011658031102" y="325.69236551648146" width="17.85" height="7.2" transform="rotate(-60, 536.611398963732, 332.3523655164815)" fill="#fffa"/>
<text x="534.1761658031103" y="332.3523655164815" fill="#111" font-size="0.5em" text-anchor="start" textLength="17.5" transform="rotate(-60, 536.611398963732, 332.3523655164815)" style="text-shadow: 0 0 1px #fff;">
1.16
</text>
<rect x="543.7420984455973" y="331.5181261116471" width="17.85" height="7.2" transform="rotate(-60, 546.3523316062191, 338.1781261116471)" fill="#fffa"/>
<text x="543.9170984455973" y="338.1781261116471" fill="#111" font-size="0.5em" text-anchor="start" textLength="17.5" transform="rotate(-60, 546.3523316062191, 338.1781261116471)" style="text-shadow: 0 0 1px #fff;">
1.12
</text>
<rect x="548.6125647668408" y="346.03334943915405" width="17.85" height="7.2" transform="rotate(-60, 551.2227979274627, 352.693349439154)" fill="#fffa"/>
<text x="548.7875647668409" y="352.693349439154" fill="#111" font-size="0.5em" text-anchor="start" textLength="17.5" transform="rotate(-60, 551.2227979274627, 352.693349439154)" style="text-shadow: 0 0 1px #fff;">
1.01
</text>
<rect x="553.4830310880844" y="317.2668159355494" width="17.85" height="7.2" transform="rotate(-60, 556.0932642487062, 323.92681593554937)" fill="#fffa"/>
<text x="553.6580310880844" y="323.92681593554937" fill="#111" font-size="0.5em" text-anchor="start" textLength="17.5" transform="rotate(-60, 556.0932642487062, 323.92681593554937)" style="text-shadow: 0 0 1px #fff;">
1.22
</text>
<rect x="563.2239637305715" y="354.0510227308746" width="17.85" height="7.2" transform="rotate(-60, 565.8341968911933, 360.71102273087456)" fill="#fffa"/>
<text x="563.3989637305715" y="360.71102273087456" fill="#111" font-size="0.5em" text-anchor="start" textLength="17.5" transform="rotate(-60, 565.8341968911933, 360.71102273087456)" style="text-shadow: 0 0 1px #fff;">
0.95
</text>
<rect x="568.094430051815" y="339.6112017800943" width="17.85" height="7.2" transform="rotate(-60, 570.7046632124368, 346.27120178009426)" fill="#fffa"/>
<text x="568.2694300518151" y="346.27120178009426" fill="#111" font-size="0.5em" text-anchor="start" textLength="17.5" transform="rotate(-60, 570.7046632124368, 346.27120178009426)" style="text-shadow: 0 0 1px #fff;">
1.06
</text>
<rect x="572.9648963730585" y="346.75637198141203" width="17.85" height="7.2" transform="rotate(-60, 575.5751295336804, 353.416371981412)" fill="#fffa"/>
<text x="573.1398963730586" y="353.416371981412" fill="#111" font-size="0.5em" text-anchor="start" textLength="17.5" transform="rotate(-60, 575.5751295336804, 353.416371981412)" style="text-shadow: 0 0 1px #fff;">
1.01
</text>
<rect x="582.7058290155456" y="315.9031163041108" width="17.85" height="7.2" transform="rotate(-60, 585.3160621761675, 322.5631163041108)" fill="#fffa"/>
<text x="582.8808290155457" y="322.5631163041108" fill="#111" font-size="0.5em" text-anchor="start" textLength="17.5" transform="rotate(-60, 585.3160621761675, 322.5631163041108)" style="text-shadow: 0 0 1px #fff;">
1.23
</text>
<rect x="587.5762953367893" y="314.73051511254874" width="17.85" height="7.2" transform="rotate(-60, 590.186528497411, 321.3905151125487)" fill="#fffa"/>
<text x="587.7512953367893" y="321.3905151125487" fill="#111" font-size="0.5em" text-anchor="start" textLength="17.5" transform="rotate(-60, 590.186528497411, 321.3905151125487)" style="text-shadow: 0 0 1px #fff;">
1.24
</text>
<rect x="592.4467616580328" y="311.1872202076112" width="17.85" height="7.2" transform="rotate(-60, 595.0569948186546, 317.84722020761114)" fill="#fffa"/>
<text x="592.6217616580328" y="317.84722020761114" fill="#111" font-size="0.5em" text-anchor="start" textLength="17.5" transform="rotate(-60, 595.0569948186546, 317.84722020761114)" style="text-shadow: 0 0 1px #fff;">
1.27
</text>
<rect x="602.1876943005199" y="334.93771126540656" width="17.85" height="7.2" transform="rotate(-60, 604.7979274611417, 341.5977112654066)" fill="#fffa"/>
<text x="602.3626943005199" y="341.5977112654066" fill="#111" font-size="0.5em" text-anchor="start" textLength="17.5" transform="rotate(-60, 604.7979274611417, 341.5977112654066)" style="text-shadow: 0 0 1px #fff;">
1.09
</text>
<rect x="607.0581606217635" y="337.77149184686084" width="17.85" height="7.2" transform="rotate(-60, 609.6683937823852, 344.4314918468608)" fill="#fffa"/>
<text x="607.2331606217634" y="344.4314918468608" fill="#111" font-size="0.5em" text-anchor="start" textLength="17.5" transform="rotate(-60, 609.6683937823852, 344.4314918468608)" style="text-shadow: 0 0 1px #fff;">
1.07
</text>
<rect x="611.928626943007" y="326.80991332496296" width="17.85" height="7.2" transform="rotate(-60, 614.5388601036288, 333.469913324963)" fill="#fffa"/>
<text x="612.103626943007" y="333.469913324963" fill="#111" font-size="0.5em" text-anchor="start" textLength="17.5" transform="rotate(-60, 614.5388601036288, 333.469913324963)" style="text-shadow: 0 0 1px #fff;">
1.15
</text>
<rect x="621.6695595854941" y="335.12007325335077" width="17.85" height="7.2" transform="rotate(-60, 624.2797927461158, 341.7800732533508)" fill="#fffa"/>
<text x="621.8445595854942" y="341.7800732533508" fill="#111" font-size="0.5em" text-anchor="start" textLength="17.5" transform="rotate(-60, 624.2797927461158, 341.7800732533508)" style="text-shadow: 0 0 1px #fff;">
1.09
</text>
<rect x="626.5400259067376" y="335.3578349268066" width="17.85" height="7.2" transform="rotate(-60, 629.1502590673595, 342.01783492680664)" fill="#fffa"/>
<text x="626.7150259067377" y="342.01783492680664" fill="#111" font-size="0.5em" text-anchor="start" textLength="17.5" transform="rotate(-60, 629.1502590673595, 342.01783492680664)" style="text-shadow: 0 0 1px #fff;">
1.09
</text>
<rect x="631.4104922279812" y="321.5438816990203" width="17.85" height="7.2" transform="rotate(-60, 634.020725388603, 328.2038816990203)" fill="#fffa"/>
<text x="631.5854922279813" y="328.2038816990203" fill="#111" font-size="0.5em" text-anchor="start" textLength="17.5" transform="rotate(-60, 634.020725388603, 328.2038816990203)" style="text-shadow: 0 0 1px #fff;">
1.19
</text>
<rect x="641.1514248704683" y="333.4283086161405" width="17.85" height="7.2" transform="rotate(-60, 643.7616580310901, 340.08830861614047)" fill="#fffa"/>
<text x="641.3264248704683" y="340.08830861614047" fill="#111" font-size="0.5em" text-anchor="start" textLength="17.5" transform="rotate(-60, 643.7616580310901, 340.08830861614047)" style="text-shadow: 0 0 1px #fff;">
1.11
</text>
<rect x="646.0218911917118" y="345.67546538076607" width="17.85" height="7.2" transform="rotate(-60, 648.6321243523337, 352.33546538076604)" fill="#fffa"/>
<text x="646.1968911917119" y="352.33546538076604" fill="#111" font-size="0.5em" text-anchor="start" textLength="17.5" transform="rotate(-60, 648.6321243523337, 352.33546538076604)" style="text-shadow: 0 0 1px #fff;">
1.02
</text>
<rect x="650.8923575129554" y="329.9409826221453" width="17.85" height="7.2" transform="rotate(-60, 653.5025906735772, 336.60098262214535)" fill="#fffa"/>
<text x="651.0673575129554" y="336.60098262214535" fill="#111" font-size="0.5em" text-anchor="start" textLength="17.5" transform="rotate(-60, 653.5025906735772, 336.60098262214535)" style="text-shadow: 0 0 1px #fff;">
1.13
</text>
<rect x="660.6332901554425" y="335.5174011541415" width="17.85" height="7.2" transform="rotate(-60, 663.2435233160643, 342.1774011541415)" fill="#fffa"/>
<text x="660.8082901554425" y="342.1774011541415" fill="#111" font-size="0.5em" text-anchor="start" textLength="17.5" transform="rotate(-60, 663.2435233160643, 342.1774011541415)" style="text-shadow: 0 0 1px #fff;">
1.09
</text>
<rect x="665.503756476686" y="343.7057608119763" width="17.85" height="7.2" transform="rotate(-60, 668.1139896373078, 350.3657608119763)" fill="#fffa"/>
<text x="665.6787564766861" y="350.3657608119763" fill="#111" font-size="0.5em" text-anchor="start" textLength="17.5" transform="rotate(-60, 668.1139896373078, 350.3657608119763)" style="text-shadow: 0 0 1px #fff;">
1.03
</text>
<rect x="670.3742227979295" y="331.01452036156684" width="17.85" height="7.2" transform="rotate(-60, 672.9844559585514, 337.67452036156686)" fill="#fffa"/>
<text x="670.5492227979296" y="337.67452036156686" fill="#111" font-size="0.5em" text-anchor="start" textLength="17.5" transform="rotate(-60, 672.9844559585514, 337.67452036156686)" style="text-shadow: 0 0 1px #fff;">
1.12
</text>
<rect x="680.1151554404166" y="329.3150429989352" width="17.85" height="7.2" transform="rotate(-60, 682.7253886010385, 335.97504299893524)" fill="#fffa"/>
<text x="680.2901554404167" y="335.97504299893524" fill="#111" font-size="0.5em" text-anchor="start" textLength="17.5" transform="rotate(-60, 682.7253886010385, 335.97504299893524)" style="text-shadow: 0 0 1px #fff;">
1.14
</text>
<rect x="684.9856217616602" y="344.39710215828563" width="17.85" height="7.2" transform="rotate(-60, 687.595854922282, 351.05710215828566)" fill="#fffa"/>
<text x="685.1606217616603" y="351.05710215828566" fill="#111" font-size="0.5em" text-anchor="start" textLength="17.5" transform="rotate(-60, 687.595854922282, 351.05710215828566)" style="text-shadow: 0 0 1px #fff;">
1.02
</text>
<rect x="689.8560880829037" y="324.5522874749297" width="17.85" height="7.2" transform="rotate(-60, 692.4663212435256, 331.2122874749297)" fill="#fffa"/>
<text x="690.0310880829038" y="331.2122874749297" fill="#111" font-size="0.5em" text-anchor="start" textLength="17.5" transform="rotate(-60, 692.4663212435256, 331.2122874749297)" style="text-shadow: 0 0 1px #fff;">
1.17
</text>
<rect x="699.5970207253908" y="332.8624309536952" width="17.85" height="7.2" transform="rotate(-60, 702.2072538860127, 339.52243095369516)" fill="#fffa"/>
<text x="699.7720207253909" y="339.52243095369516" fill="#111" font-size="0.5em" text-anchor="start" textLength="17.5" transform="rotate(-60, 702.2072538860127, 339.52243095369516)" style="text-shadow: 0 0 1px #fff;">
1.11
</text>
<rect x="704.4674870466345" y="334.42682314341334" width="17.85" height="7.2" transform="rotate(-60, 707.0777202072562, 341.08682314341337)" fill="#fffa"/>
<text x="704.6424870466344" y="341.08682314341337" fill="#111" font-size="0.5em" text-anchor="start" textLength="17.5" transform="rotate(-60, 707.0777202072562, 341.08682314341337)" style="text-shadow: 0 0 1px #fff;">
1.10
</text>
<rect x="709.337953367878" y="316.5049266541865" width="17.85" height="7.2" transform="rotate(-60, 711.9481865284998, 323.16492665418644)" fill="#fffa"/>
<text x="709.512953367878" y="323.16492665418644" fill="#111" font-size="0.5em" text-anchor="start" textLength="17.5" transform="rotate(-60, 711.9481865284998, 323.16492665418644)" style="text-shadow: 0 0 1px #fff;">
1.23
</text>
<rect x="719.0788860103651" y="119.48327176780997" width="17.85" height="7.2" transform="rotate(-60, 721.6891191709868, 126.14327176780998)" fill="#fffa"/>
<text x="719.2538860103651" y="126.14327176780998" fill="#111" font-size="0.5em" text-anchor="start" textLength="17.5" transform="rotate(-60, 721.6891191709868, 126.14327176780998)" style="text-shadow: 0 0 1px #fff;">
2.68
</text>
<rect x="723.9493523316086" y="256.8064907651715" width="17.85" height="7.2" transform="rotate(-60, 726.5595854922304, 263.4664907651715)" fill="#fffa"/>
<text x="724.1243523316086" y="263.4664907651715" fill="#111" font-size="0.5em" text-anchor="start" textLength="17.5" transform="rotate(-60, 726.5595854922304, 263.4664907651715)" style="text-shadow: 0 0 1px #fff;">
1.67
</text>
<rect x="728.8198186528522" y="86.03999999999998" width="17.85" height="7.2" transform="rotate(-60, 731.4300518134739, 92.69999999999999)" fill="#fffa"/>
<text x="728.9948186528522" y="92.69999999999999" fill="#111" font-size="0.5em" text-anchor="start" textLength="17.5" transform="rotate(-60, 731.4300518134739, 92.69999999999999)" style="text-shadow: 0 0 1px #fff;">
2.92
</text>
<rect x="738.5607512953393" y="201.75601358638758" width="17.85" height="7.2" transform="rotate(-60, 741.170984455961, 208.41601358638758)" fill="#fffa"/>
<text x="738.7357512953394" y="208.41601358638758" fill="#111" font-size="0.5em" text-anchor="start" textLength="17.5" transform="rotate(-60, 741.170984455961, 208.41601358638758)" style="text-shadow: 0 0 1px #fff;">
2.07
</text>
<rect x="743.4312176165828" y="313.16067706707554" width="17.85" height="7.2" transform="rotate(-60, 746.0414507772047, 319.82067706707556)" fill="#fffa"/>
<text x="743.6062176165829" y="319.82067706707556" fill="#111" font-size="0.5em" text-anchor="start" textLength="17.5" transform="rotate(-60, 746.0414507772047, 319.82067706707556)" style="text-shadow: 0 0 1px #fff;">
1.25
</text>
<rect x="748.3016839378264" y="167.37073557409968" width="17.85" height="7.2" transform="rotate(-60, 750.9119170984482, 174.03073557409968)" fill="#fffa"/>
<text x="748.4766839378264" y="174.03073557409968" fill="#111" font-size="0.5em" text-anchor="start" textLength="17.5" transform="rotate(-60, 750.9119170984482, 174.03073557409968)" style="text-shadow: 0 0 1px #fff;">
2.33
</text>
<rect x="758.0426165803135" y="329.96155548257786" width="17.85" height="7.2" transform="rotate(-60, 760.6528497409353, 336.62155548257783)" fill="#fffa"/>
<text x="758.2176165803135" y="336.62155548257783" fill="#111" font-size="0.5em" text-anchor="start" textLength="17.5" transform="rotate(-60, 760.6528497409353, 336.62155548257783)" style="text-shadow: 0 0 1px #fff;">
1.13
</text>
<rect x="762.913082901557" y="343.660599725956" width="17.85" height="7.2" transform="rotate(-60, 765.5233160621789, 350.320599725956)" fill="#fffa"/>
<text x="763.0880829015571" y="350.320599725956" fill="#111" font-size="0.5em" text-anchor="start" textLength="17.5" transform="rotate(-60, 765.5233160621789, 350.320599725956)" style="text-shadow: 0 0 1px #fff;">
1.03
</text>
<rect x="767.7835492228006" y="326.90734233979185" width="17.85" height="7.2" transform="rotate(-60, 770.3937823834224, 333.5673423397919)" fill="#fffa"/>
<text x="767.9585492228006" y="333.5673423397919" fill="#111" font-size="0.5em" text-anchor="start" textLength="17.5" transform="rotate(-60, 770.3937823834224, 333.5673423397919)" style="text-shadow: 0 0 1px #fff;">
1.15
</text>
<rect x="777.5244818652876" y="330.00647038173645" width="17.85" height="7.2" transform="rotate(-60, 780.1347150259095, 336.6664703817364)" fill="#fffa"/>
<text x="777.6994818652877" y="336.6664703817364" fill="#111" font-size="0.5em" text-anchor="start" textLength="17.5" transform="rotate(-60, 780.1347150259095, 336.6664703817364)" style="text-shadow: 0 0 1px #fff;">
1.13
</text>
<rect x="782.3949481865312" y="345.5021105914593" width="17.85" height="7.2" transform="rotate(-60, 785.005181347153, 352.16211059145934)" fill="#fffa"/>
<text x="782.5699481865313" y="352.16211059145934" fill="#111" font-size="0.5em" text-anchor="start" textLength="17.5" transform="rotate(-60, 785.005181347153, 352.16211059145934)" style="text-shadow: 0 0 1px #fff;">
1.02
</text>
<rect x="787.2654145077747" y="326.9522572389505" width="17.85" height="7.2" transform="rotate(-60, 789.8756476683966, 333.6122572389505)" fill="#fffa"/>
<text x="787.4404145077748" y="333.6122572389505" fill="#111" font-size="0.5em" text-anchor="start" textLength="17.5" transform="rotate(-60, 789.8756476683966, 333.6122572389505)" style="text-shadow: 0 0 1px #fff;">
1.15
</text>
<rect x="797.0063471502618" y="330.5960414326393" width="17.85" height="7.2" transform="rotate(-60, 799.6165803108837, 337.25604143263934)" fill="#fffa"/>
<text x="797.1813471502619" y="337.25604143263934" fill="#111" font-size="0.5em" text-anchor="start" textLength="17.5" transform="rotate(-60, 799.6165803108837, 337.25604143263934)" style="text-shadow: 0 0 1px #fff;">
1.13
</text>
<rect x="801.8768134715054" y="344.0211640847462" width="17.85" height="7.2" transform="rotate(-60, 804.4870466321272, 350.68116408474623)" fill="#fffa"/>
<text x="802.0518134715054" y="350.68116408474623" fill="#111" font-size="0.5em" text-anchor="start" textLength="17.5" transform="rotate(-60, 804.4870466321272, 350.68116408474623)" style="text-shadow: 0 0 1px #fff;">
1.03
</text>
<rect x="806.7472797927489" y="327.2285357506727" width="17.85" height="7.2" transform="rotate(-60, 809.3575129533708, 333.8885357506727)" fill="#fffa"/>
<text x="806.922279792749" y="333.8885357506727" fill="#111" font-size="0.5em" text-anchor="start" textLength="17.5" transform="rotate(-60, 809.3575129533708, 333.8885357506727)" style="text-shadow: 0 0 1px #fff;">
1.15
</text>
<rect x="816.488212435236" y="330.00647038173645" width="17.85" height="7.2" transform="rotate(-60, 819.0984455958579, 336.6664703817364)" fill="#fffa"/>
<text x="816.6632124352361" y="336.6664703817364" fill="#111" font-size="0.5em" text-anchor="start" textLength="17.5" transform="rotate(-60, 819.0984455958579, 336.6664703817364)" style="text-shadow: 0 0 1px #fff;">
1.13
</text>
<rect x="821.3586787564797" y="344.6936424066042" width="17.85" height="7.2" transform="rotate(-60, 823.9689119171014, 351.3536424066042)" fill="#fffa"/>
<text x="821.5336787564796" y="351.3536424066042" fill="#111" font-size="0.5em" text-anchor="start" textLength="17.5" transform="rotate(-60, 823.9689119171014, 351.3536424066042)" style="text-shadow: 0 0 1px #fff;">
1.02
</text>
<rect x="826.2291450777232" y="326.8175125414746" width="17.85" height="7.2" transform="rotate(-60, 828.8393782383449, 333.4775125414746)" fill="#fffa"/>
<text x="826.4041450777232" y="333.4775125414746" fill="#111" font-size="0.5em" text-anchor="start" textLength="17.5" transform="rotate(-60, 828.8393782383449, 333.4775125414746)" style="text-shadow: 0 0 1px #fff;">
1.15
</text>
<rect x="835.9700777202103" y="330.24983821691427" width="17.85" height="7.2" transform="rotate(-60, 838.580310880832, 336.9098382169143)" fill="#fffa"/>
<text x="836.1450777202103" y="336.9098382169143" fill="#111" font-size="0.5em" text-anchor="start" textLength="17.5" transform="rotate(-60, 838.580310880832, 336.9098382169143)" style="text-shadow: 0 0 1px #fff;">
1.13
</text>
<rect x="840.8405440414538" y="343.9440659283432" width="17.85" height="7.2" transform="rotate(-60, 843.4507772020756, 350.60406592834323)" fill="#fffa"/>
<text x="841.0155440414538" y="350.60406592834323" fill="#111" font-size="0.5em" text-anchor="start" textLength="17.5" transform="rotate(-60, 843.4507772020756, 350.60406592834323)" style="text-shadow: 0 0 1px #fff;">
1.03
</text>
<rect x="845.7110103626974" y="326.75915272184415" width="17.85" height="7.2" transform="rotate(-60, 848.3212435233191, 333.41915272184417)" fill="#fffa"/>
<text x="845.8860103626974" y="333.41915272184417" fill="#111" font-size="0.5em" text-anchor="start" textLength="17.5" transform="rotate(-60, 848.3212435233191, 333.41915272184417)" style="text-shadow: 0 0 1px #fff;">
1.15
</text>
<rect x="855.4519430051845" y="333.53826968062066" width="17.85" height="7.2" transform="rotate(-60, 858.0621761658062, 340.1982696806207)" fill="#fffa"/>
<text x="855.6269430051844" y="340.1982696806207" fill="#111" font-size="0.5em" text-anchor="start" textLength="17.5" transform="rotate(-60, 858.0621761658062, 340.1982696806207)" style="text-shadow: 0 0 1px #fff;">
1.10
</text>
<rect x="860.322409326428" y="346.00588146339544" width="17.85" height="7.2" transform="rotate(-60, 862.9326424870499, 352.6658814633954)" fill="#fffa"/>
<text x="860.497409326428" y="352.6658814633954" fill="#111" font-size="0.5em" text-anchor="start" textLength="17.5" transform="rotate(-60, 862.9326424870499, 352.6658814633954)" style="text-shadow: 0 0 1px #fff;">
1.01
</text>
<rect x="865.1928756476716" y="330.4924361832001" width="17.85" height="7.2" transform="rotate(-60, 867.8031088082934, 337.15243618320005)" fill="#fffa"/>
<text x="865.3678756476716" y="337.15243618320005" fill="#111" font-size="0.5em" text-anchor="start" textLength="17.5" transform="rotate(-60, 867.8031088082934, 337.15243618320005)" style="text-shadow: 0 0 1px #fff;">
1.13
</text>
<rect x="874.9338082901587" y="330.9096933735493" width="17.85" height="7.2" transform="rotate(-60, 877.5440414507805, 337.5696933735493)" fill="#fffa"/>
<text x="875.1088082901587" y="337.5696933735493" fill="#111" font-size="0.5em" text-anchor="start" textLength="17.5" transform="rotate(-60, 877.5440414507805, 337.5696933735493)" style="text-shadow: 0 0 1px #fff;">
1.12
</text>
<rect x="879.8042746114022" y="344.8002673691177" width="17.85" height="7.2" transform="rotate(-60, 882.414507772024, 351.46026736911773)" fill="#fffa"/>
<text x="879.9792746114023" y="351.46026736911773" fill="#111" font-size="0.5em" text-anchor="start" textLength="17.5" transform="rotate(-60, 882.414507772024, 351.46026736911773)" style="text-shadow: 0 0 1px #fff;">
1.02
</text>
<rect x="884.6747409326457" y="328.00651874425046" width="17.85" height="7.2" transform="rotate(-60, 887.2849740932676, 334.6665187442504)" fill="#fffa"/>
<text x="884.8497409326458" y="334.6665187442504" fill="#111" font-size="0.5em" text-anchor="start" textLength="17.5" transform="rotate(-60, 887.2849740932676, 334.6665187442504)" style="text-shadow: 0 0 1px #fff;">
1.15
</text>
<rect x="894.4156735751328" y="330.10214059928416" width="17.85" height="7.2" transform="rotate(-60, 897.0259067357547, 336.7621405992842)" fill="#fffa"/>
<text x="894.5906735751329" y="336.7621405992842" fill="#111" font-size="0.5em" text-anchor="start" textLength="17.5" transform="rotate(-60, 897.0259067357547, 336.7621405992842)" style="text-shadow: 0 0 1px #fff;">
1.13
</text>
<rect x="899.2861398963764" y="345.5028665848115" width="17.85" height="7.2" transform="rotate(-60, 901.8963730569982, 352.1628665848115)" fill="#fffa"/>
<text x="899.4611398963765" y="352.1628665848115" fill="#111" font-size="0.5em" text-anchor="start" textLength="17.5" transform="rotate(-60, 901.8963730569982, 352.1628665848115)" style="text-shadow: 0 0 1px #fff;">
1.02
</text>
<rect x="904.1566062176199" y="327.2734358264322" width="17.85" height="7.2" transform="rotate(-60, 906.7668393782418, 333.93343582643223)" fill="#fffa"/>
<text x="904.33160621762" y="333.93343582643223" fill="#111" font-size="0.5em" text-anchor="start" textLength="17.5" transform="rotate(-60, 906.7668393782418, 333.93343582643223)" style="text-shadow: 0 0 1px #fff;">
1.15
</text>
<rect x="913.897538860107" y="330.64094150839884" width="17.85" height="7.2" transform="rotate(-60, 916.5077720207289, 337.30094150839886)" fill="#fffa"/>
<text x="914.0725388601071" y="337.30094150839886" fill="#111" font-size="0.5em" text-anchor="start" textLength="17.5" transform="rotate(-60, 916.5077720207289, 337.30094150839886)" style="text-shadow: 0 0 1px #fff;">
1.13
</text>
<rect x="918.7680051813506" y="345.45796650905197" width="17.85" height="7.2" transform="rotate(-60, 921.3782383419724, 352.11796650905194)" fill="#fffa"/>
<text x="918.9430051813506" y="352.11796650905194" fill="#111" font-size="0.5em" text-anchor="start" textLength="17.5" transform="rotate(-60, 921.3782383419724, 352.11796650905194)" style="text-shadow: 0 0 1px #fff;">
1.02
</text>
<rect x="923.6384715025941" y="327.2734358264322" width="17.85" height="7.2" transform="rotate(-60, 926.2487046632159, 333.93343582643223)" fill="#fffa"/>
<text x="923.8134715025942" y="333.93343582643223" fill="#111" font-size="0.5em" text-anchor="start" textLength="17.5" transform="rotate(-60, 926.2487046632159, 333.93343582643223)" style="text-shadow: 0 0 1px #fff;">
1.15
</text>
<rect x="933.3794041450813" y="338.18104207526136" width="17.85" height="7.2" transform="rotate(-60, 935.989637305703, 344.8410420752613)" fill="#fffa"/>
<text x="933.5544041450813" y="344.8410420752613" fill="#111" font-size="0.5em" text-anchor="start" textLength="17.5" transform="rotate(-60, 935.989637305703, 344.8410420752613)" style="text-shadow: 0 0 1px #fff;">
1.07
</text>
<rect x="938.2498704663248" y="345.5402402184189" width="17.85" height="7.2" transform="rotate(-60, 940.8601036269466, 352.20024021841886)" fill="#fffa"/>
<text x="938.4248704663248" y="352.20024021841886" fill="#111" font-size="0.5em" text-anchor="start" textLength="17.5" transform="rotate(-60, 940.8601036269466, 352.20024021841886)" style="text-shadow: 0 0 1px #fff;">
1.02
</text>
<rect x="943.1203367875684" y="243.3229367319007" width="17.85" height="7.2" transform="rotate(-60, 945.7305699481901, 249.9829367319007)" fill="#fffa"/>
<text x="943.2953367875684" y="249.9829367319007" fill="#111" font-size="0.5em" text-anchor="start" textLength="17.5" transform="rotate(-60, 945.7305699481901, 249.9829367319007)" style="text-shadow: 0 0 1px #fff;">
1.77
</text>
<rect x="952.8612694300555" y="332.4504276944528" width="17.85" height="7.2" transform="rotate(-60, 955.4715025906772, 339.1104276944528)" fill="#fffa"/>
<text x="953.0362694300554" y="339.1104276944528" fill="#111" font-size="0.5em" text-anchor="start" textLength="17.5" transform="rotate(-60, 955.4715025906772, 339.1104276944528)" style="text-shadow: 0 0 1px #fff;">
1.11
</text>
<rect x="957.731735751299" y="346.15684341136847" width="17.85" height="7.2" transform="rotate(-60, 960.3419689119208, 352.8168434113685)" fill="#fffa"/>
<text x="957.906735751299" y="352.8168434113685" fill="#111" font-size="0.5em" text-anchor="start" textLength="17.5" transform="rotate(-60, 960.3419689119208, 352.8168434113685)" style="text-shadow: 0 0 1px #fff;">
1.01
</text>
<rect x="962.6022020725426" y="329.6649303068215" width="17.85" height="7.2" transform="rotate(-60, 965.2124352331643, 336.32493030682144)" fill="#fffa"/>
<text x="962.7772020725425" y="336.32493030682144" fill="#111" font-size="0.5em" text-anchor="start" textLength="17.5" transform="rotate(-60, 965.2124352331643, 336.32493030682144)" style="text-shadow: 0 0 1px #fff;">
1.13
</text>
<rect x="972.3431347150297" y="328.47277220602496" width="17.85" height="7.2" transform="rotate(-60, 974.9533678756515, 335.1327722060249)" fill="#fffa"/>
<text x="972.5181347150296" y="335.1327722060249" fill="#111" font-size="0.5em" text-anchor="start" textLength="17.5" transform="rotate(-60, 974.9533678756515, 335.1327722060249)" style="text-shadow: 0 0 1px #fff;">
1.14
</text>
<rect x="977.2136010362732" y="334.15728548460305" width="17.85" height="7.2" transform="rotate(-60, 979.823834196895, 340.817285484603)" fill="#fffa"/>
<text x="977.3886010362733" y="340.817285484603" fill="#111" font-size="0.5em" text-anchor="start" textLength="17.5" transform="rotate(-60, 979.823834196895, 340.817285484603)" style="text-shadow: 0 0 1px #fff;">
1.10
</text>
<rect x="982.0840673575167" y="313.9483175104207" width="17.85" height="7.2" transform="rotate(-60, 984.6943005181386, 320.60831751042065)" fill="#fffa"/>
<text x="982.2590673575168" y="320.60831751042065" fill="#111" font-size="0.5em" text-anchor="start" textLength="17.5" transform="rotate(-60, 984.6943005181386, 320.60831751042065)" style="text-shadow: 0 0 1px #fff;">
1.25
</text>
</svg>