<svg viewBox="0 0 1000 600" xmlns="http://www.w3.org/2000/svg" xmlns:xlink="http://www.w3.org/1999/xlink" width="100%" height="100%">

<rect x="50.0" y="30.0" width="940.0" height="467.99999999999994" stroke="#000" fill="#EEE"/>
<line x1="42.0" y1="497.9999999999999" x2="50.0" y2="497.9999999999999" stroke="#000"/>
<text x="26.000000000000004" y="497.9999999999999" text-anchor="end" font-weight="bold" font-size="small" fill="#111">
0.0
</text>
<line x1="42.0" y1="401.19572846605774" x2="50.0" y2="401.19572846605774" stroke="#000"/>
<text x="26.000000000000004" y="401.19572846605774" text-anchor="end" font-weight="bold" font-size="small" fill="#111">
0.5
</text>
<line x1="42.0" y1="304.3914569321155" x2="50.0" y2="304.3914569321155" stroke="#000"/>
<text x="26.000000000000004" y="304.3914569321155" text-anchor="end" font-weight="bold" font-size="small" fill="#111">
1.0
</text>
<line x1="42.0" y1="207.5871853981732" x2="50.0" y2="207.5871853981732" stroke="#000"/>
<text x="26.000000000000004" y="207.5871853981732" text-anchor="end" font-weight="bold" font-size="small" fill="#111">
1.5
</text>
<line x1="42.0" y1="110.78291386423099" x2="50.0" y2="110.78291386423099" stroke="#000"/>
<text x="26.000000000000004" y="110.78291386423099" text-anchor="end" font-weight="bold" font-size="small" fill="#111">
2.0
</text>
<rect x="268.5" y="36.00000000000001" width="80.0" height="18.0" fill="#7070f8" stroke="#888"/>
<text x="308.5" y="52.50000000000001" font-size="small" text-anchor="middle" font-weight="bold" fill="#EEE">
No JIT
</text>
<rect x="691.4999999999999" y="36.00000000000001" width="80.0" height="18.0" fill="orange" stroke="#888"/>
<text x="731.4999999999999" y="52.50000000000001" font-size="small" text-anchor="middle" font-weight="bold" fill="#EEE">
YJIT
</text>
<rect x="97.0" y="304.3914569321155" width="20.142857142857142" height="193.60854306788448" fill="#7070f8" data-tooltip="1.00x baseline speed (No JIT)"/>
<line x1="97.0" y1="303.8695899273201" x2="117.14285714285714" y2="303.8695899273201" stroke="#000"/>
<line x1="97.0" y1="304.91332393691084" x2="117.14285714285714" y2="304.91332393691084" stroke="#000"/>
<line x1="107.07142857142857" y1="303.8695899273201" x2="107.07142857142857" y2="304.91332393691084" stroke="#000"/>
<rect x="117.14285714285714" y="185.67198703428792" width="20.142857142857142" height="312.32801296571205" fill="orange" data-tooltip="1.61x baseline speed (YJIT)"/>
<line x1="117.14285714285714" y1="184.07231476449485" x2="137.28571428571428" y2="184.07231476449485" stroke="#000"/>
<line x1="117.14285714285714" y1="187.27165930408097" x2="137.28571428571428" y2="187.27165930408097" stroke="#000"/>
<line x1="127.21428571428572" y1="184.07231476449485" x2="127.21428571428572" y2="187.27165930408097" stroke="#000"/>
<line x1="127.21428571428572" y1="498.0" x2="127.21428571428572" y2="502.79999999999995" stroke="#000"/>
<text x="127.21428571428572" y="512.4" fill="#111" font-size="small" font-family="monospace" font-weight="bold" text-anchor="end" transform="rotate(-60, 127.21428571428572, 512.4)">
activerecord
</text>
<rect x="157.42857142857142" y="304.3914569321155" width="20.142857142857142" height="193.60854306788448" fill="#7070f8" data-tooltip="1.00x baseline speed (No JIT)"/>
<line x1="157.42857142857142" y1="303.4086717646256" x2="177.57142857142856" y2="303.4086717646256" stroke="#000"/>
<line x1="157.42857142857142" y1="305.37424209960534" x2="177.57142857142856" y2="305.37424209960534" stroke="#000"/>
<line x1="167.49999999999997" y1="303.4086717646256" x2="167.49999999999997" y2="305.37424209960534" stroke="#000"/>
<rect x="177.57142857142856" y="110.00810411695144" width="20.142857142857142" height="387.9918958830485" fill="orange" data-tooltip="2.00x baseline speed (YJIT)"/>
<line x1="177.57142857142856" y1="108.02573405335808" x2="197.71428571428567" y2="108.02573405335808" stroke="#000"/>
<line x1="177.57142857142856" y1="111.99047418054481" x2="197.71428571428567" y2="111.99047418054481" stroke="#000"/>
<line x1="187.6428571428571" y1="108.02573405335808" x2="187.6428571428571" y2="111.99047418054481" stroke="#000"/>
<line x1="187.64285714285714" y1="498.0" x2="187.64285714285714" y2="502.79999999999995" stroke="#000"/>
<text x="187.64285714285714" y="512.4" fill="#111" font-size="small" font-family="monospace" font-weight="bold" text-anchor="end" transform="rotate(-60, 187.64285714285714, 512.4)">
chunky-png
</text>
<rect x="217.85714285714286" y="304.3914569321155" width="20.142857142857142" height="193.60854306788448" fill="#7070f8" data-tooltip="1.00x baseline speed (No JIT)"/>
<line x1="217.85714285714286" y1="304.26671587332066" x2="238.0" y2="304.26671587332066" stroke="#000"/>
<line x1="217.85714285714286" y1="304.51619799091026" x2="238.0" y2="304.51619799091026" stroke="#000"/>
<line x1="227.92857142857142" y1="304.26671587332066" x2="227.92857142857142" y2="304.51619799091026" stroke="#000"/>
<rect x="238.0" y="211.80257250011303" width="20.142857142857142" height="286.19742749988694" fill="orange" data-tooltip="1.48x baseline speed (YJIT)"/>
<line x1="238.0" y1="211.51663913310833" x2="258.1428571428571" y2="211.51663913310833" stroke="#000"/>
<line x1="238.0" y1="212.0885058671177" x2="258.1428571428571" y2="212.0885058671177" stroke="#000"/>
<line x1="248.07142857142856" y1="211.51663913310833" x2="248.07142857142856" y2="212.0885058671177" stroke="#000"/>
<line x1="248.07142857142858" y1="498.0" x2="248.07142857142858" y2="502.79999999999995" stroke="#000"/>
<text x="248.07142857142858" y="512.4" fill="#111" font-size="small" font-family="monospace" font-weight="bold" text-anchor="end" transform="rotate(-60, 248.07142857142858, 512.4)">
erubi-rails
</text>
<rect x="278.2857142857142" y="304.3914569321155" width="20.142857142857142" height="193.60854306788448" fill="#7070f8" data-tooltip="1.00x baseline speed (No JIT)"/>
<line x1="278.2857142857142" y1="303.52345470164124" x2="298.4285714285714" y2="303.52345470164124" stroke="#000"/>
<line x1="278.2857142857142" y1="305.2594591625897" x2="298.4285714285714" y2="305.2594591625897" stroke="#000"/>
<line x1="288.35714285714283" y1="303.52345470164124" x2="288.35714285714283" y2="305.2594591625897" stroke="#000"/>
<rect x="298.4285714285714" y="176.57928964399446" width="20.142857142857142" height="321.42071035600543" fill="orange" data-tooltip="1.66x baseline speed (YJIT)"/>
<line x1="298.4285714285714" y1="168.6362290775358" x2="318.5714285714285" y2="168.6362290775358" stroke="#000"/>
<line x1="298.4285714285714" y1="184.5223502104531" x2="318.5714285714285" y2="184.5223502104531" stroke="#000"/>
<line x1="308.49999999999994" y1="168.6362290775358" x2="308.49999999999994" y2="184.5223502104531" stroke="#000"/>
<line x1="308.49999999999994" y1="498.0" x2="308.49999999999994" y2="502.79999999999995" stroke="#000"/>
<text x="308.49999999999994" y="512.4" fill="#111" font-size="small" font-family="monospace" font-weight="bold" text-anchor="end" transform="rotate(-60, 308.49999999999994, 512.4)">
hexapdf
</text>
<rect x="338.7142857142857" y="304.3914569321155" width="20.142857142857142" height="193.60854306788448" fill="#7070f8" data-tooltip="1.00x baseline speed (No JIT)"/>
<line x1="338.7142857142857" y1="303.42858308758116" x2="358.8571428571429" y2="303.42858308758116" stroke="#000"/>
<line x1="338.7142857142857" y1="305.35433077664976" x2="358.8571428571429" y2="305.35433077664976" stroke="#000"/>
<line x1="348.78571428571433" y1="303.42858308758116" x2="348.78571428571433" y2="305.35433077664976" stroke="#000"/>
<rect x="358.8571428571429" y="242.22623505074574" width="20.142857142857142" height="255.7737649492542" fill="orange" data-tooltip="1.32x baseline speed (YJIT)"/>
<line x1="358.8571428571429" y1="240.16088910238423" x2="379.0" y2="240.16088910238423" stroke="#000"/>
<line x1="358.8571428571429" y1="244.29158099910723" x2="379.0" y2="244.29158099910723" stroke="#000"/>
<line x1="368.92857142857144" y1="240.16088910238423" x2="368.92857142857144" y2="244.29158099910723" stroke="#000"/>
<line x1="368.92857142857144" y1="498.0" x2="368.92857142857144" y2="502.79999999999995" stroke="#000"/>
<text x="368.92857142857144" y="512.4" fill="#111" font-size="small" font-family="monospace" font-weight="bold" text-anchor="end" transform="rotate(-60, 368.92857142857144, 512.4)">
liquid-c
</text>
<rect x="399.1428571428571" y="304.3914569321155" width="20.142857142857142" height="193.60854306788448" fill="#7070f8" data-tooltip="1.00x baseline speed (No JIT)"/>
<line x1="399.1428571428571" y1="304.21367100997406" x2="419.2857142857143" y2="304.21367100997406" stroke="#000"/>
<line x1="399.1428571428571" y1="304.56924285425686" x2="419.2857142857143" y2="304.56924285425686" stroke="#000"/>
<line x1="409.2142857142857" y1="304.21367100997406" x2="409.2142857142857" y2="304.56924285425686" stroke="#000"/>
<rect x="419.2857142857143" y="241.1938185679917" width="20.142857142857142" height="256.8061814320082" fill="orange" data-tooltip="1.33x baseline speed (YJIT)"/>
<line x1="419.2857142857143" y1="233.5031574908566" x2="439.4285714285714" y2="233.5031574908566" stroke="#000"/>
<line x1="419.2857142857143" y1="248.88447964512685" x2="439.4285714285714" y2="248.88447964512685" stroke="#000"/>
<line x1="429.35714285714283" y1="233.5031574908566" x2="429.35714285714283" y2="248.88447964512685" stroke="#000"/>
<line x1="429.35714285714283" y1="498.0" x2="429.35714285714283" y2="502.79999999999995" stroke="#000"/>
<text x="429.35714285714283" y="512.4" fill="#111" font-size="small" font-family="monospace" font-weight="bold" text-anchor="end" transform="rotate(-60, 429.35714285714283, 512.4)">
liquid-compile
</text>
<rect x="459.5714285714285" y="304.3914569321155" width="20.142857142857142" height="193.60854306788448" fill="#7070f8" data-tooltip="1.00x baseline speed (No JIT)"/>
<line x1="459.5714285714285" y1="304.1877998467198" x2="479.71428571428567" y2="304.1877998467198" stroke="#000"/>
<line x1="459.5714285714285" y1="304.5951140175111" x2="479.71428571428567" y2="304.5951140175111" stroke="#000"/>
<line x1="469.6428571428571" y1="304.1877998467198" x2="469.6428571428571" y2="304.5951140175111" stroke="#000"/>
<rect x="479.71428571428567" y="100.19999999999999" width="20.142857142857142" height="397.79999999999995" fill="orange" data-tooltip="2.05x baseline speed (YJIT)"/>
<line x1="479.71428571428567" y1="99.55165242558468" x2="499.8571428571428" y2="99.55165242558468" stroke="#000"/>
<line x1="479.71428571428567" y1="100.8483475744153" x2="499.8571428571428" y2="100.8483475744153" stroke="#000"/>
<line x1="489.7857142857142" y1="99.55165242558468" x2="489.7857142857142" y2="100.8483475744153" stroke="#000"/>
<line x1="489.7857142857142" y1="498.0" x2="489.7857142857142" y2="502.79999999999995" stroke="#000"/>
<text x="489.7857142857142" y="512.4" fill="#111" font-size="small" font-family="monospace" font-weight="bold" text-anchor="end" transform="rotate(-60, 489.7857142857142, 512.4)">
liquid-render
</text>
<rect x="520.0" y="304.3914569321155" width="20.142857142857142" height="193.60854306788448" fill="#7070f8" data-tooltip="1.00x baseline speed (No JIT)"/>
<line x1="520.0" y1="303.389208957535" x2="540.1428571428571" y2="303.389208957535" stroke="#000"/>
<line x1="520.0" y1="305.3937049066959" x2="540.1428571428571" y2="305.3937049066959" stroke="#000"/>
<line x1="530.0714285714287" y1="303.389208957535" x2="530.0714285714287" y2="305.3937049066959" stroke="#000"/>
<rect x="540.1428571428571" y="222.13076700016975" width="20.142857142857142" height="275.86923299983016" fill="orange" data-tooltip="1.42x baseline speed (YJIT)"/>
<line x1="540.1428571428571" y1="218.99766709590693" x2="560.2857142857142" y2="218.99766709590693" stroke="#000"/>
<line x1="540.1428571428571" y1="225.2638669044326" x2="560.2857142857142" y2="225.2638669044326" stroke="#000"/>
<line x1="550.2142857142858" y1="218.99766709590693" x2="550.2142857142858" y2="225.2638669044326" stroke="#000"/>
<line x1="550.2142857142858" y1="498.0" x2="550.2142857142858" y2="502.79999999999995" stroke="#000"/>
<text x="550.2142857142858" y="512.4" fill="#111" font-size="small" font-family="monospace" font-weight="bold" text-anchor="end" transform="rotate(-60, 550.2142857142858, 512.4)">
lobsters
</text>
<rect x="580.4285714285714" y="304.3914569321155" width="20.142857142857142" height="193.60854306788448" fill="#7070f8" data-tooltip="1.00x baseline speed (No JIT)"/>
<line x1="580.4285714285714" y1="304.0569814982016" x2="600.5714285714286" y2="304.0569814982016" stroke="#000"/>
<line x1="580.4285714285714" y1="304.7259323660294" x2="600.5714285714286" y2="304.7259323660294" stroke="#000"/>
<line x1="590.5" y1="304.0569814982016" x2="590.5" y2="304.7259323660294" stroke="#000"/>
<rect x="600.5714285714286" y="223.16592024009233" width="20.142857142857142" height="274.83407975990764" fill="orange" data-tooltip="1.42x baseline speed (YJIT)"/>
<line x1="600.5714285714286" y1="222.4309864627619" x2="620.7142857142857" y2="222.4309864627619" stroke="#000"/>
<line x1="600.5714285714286" y1="223.90085401742277" x2="620.7142857142857" y2="223.90085401742277" stroke="#000"/>
<line x1="610.6428571428571" y1="222.4309864627619" x2="610.6428571428571" y2="223.90085401742277" stroke="#000"/>
<line x1="610.6428571428571" y1="498.0" x2="610.6428571428571" y2="502.79999999999995" stroke="#000"/>
<text x="610.6428571428571" y="512.4" fill="#111" font-size="small" font-family="monospace" font-weight="bold" text-anchor="end" transform="rotate(-60, 610.6428571428571, 512.4)">
mail
</text>
<rect x="640.8571428571428" y="304.3914569321155" width="20.142857142857142" height="193.60854306788448" fill="#7070f8" data-tooltip="1.00x baseline speed (No JIT)"/>
<line x1="640.8571428571428" y1="304.29944043367846" x2="660.9999999999999" y2="304.29944043367846" stroke="#000"/>
<line x1="640.8571428571428" y1="304.48347343055246" x2="660.9999999999999" y2="304.48347343055246" stroke="#000"/>
<line x1="650.9285714285714" y1="304.29944043367846" x2="650.9285714285714" y2="304.48347343055246" stroke="#000"/>
<rect x="660.9999999999999" y="155.81054238032493" width="20.142857142857142" height="342.18945761967495" fill="orange" data-tooltip="1.77x baseline speed (YJIT)"/>
<line x1="660.9999999999999" y1="155.62026134909138" x2="681.142857142857" y2="155.62026134909138" stroke="#000"/>
<line x1="660.9999999999999" y1="156.0008234115585" x2="681.142857142857" y2="156.0008234115585" stroke="#000"/>
<line x1="671.0714285714286" y1="155.62026134909138" x2="671.0714285714286" y2="156.0008234115585" stroke="#000"/>
<line x1="671.0714285714286" y1="498.0" x2="671.0714285714286" y2="502.79999999999995" stroke="#000"/>
<text x="671.0714285714286" y="512.4" fill="#111" font-size="small" font-family="monospace" font-weight="bold" text-anchor="end" transform="rotate(-60, 671.0714285714286, 512.4)">
psych-load
</text>
<rect x="701.2857142857143" y="304.3914569321155" width="20.142857142857142" height="193.60854306788448" fill="#7070f8" data-tooltip="1.00x baseline speed (No JIT)"/>
<line x1="701.2857142857143" y1="304.36271866999334" x2="721.4285714285714" y2="304.36271866999334" stroke="#000"/>
<line x1="701.2857142857143" y1="304.42019519423764" x2="721.4285714285714" y2="304.42019519423764" stroke="#000"/>
<line x1="711.3571428571429" y1="304.36271866999334" x2="711.3571428571429" y2="304.42019519423764" stroke="#000"/>
<rect x="721.4285714285714" y="182.263555241235" width="20.142857142857142" height="315.73644475876495" fill="orange" data-tooltip="1.63x baseline speed (YJIT)"/>
<line x1="721.4285714285714" y1="182.0611045507176" x2="741.5714285714286" y2="182.0611045507176" stroke="#000"/>
<line x1="721.4285714285714" y1="182.4660059317524" x2="741.5714285714286" y2="182.4660059317524" stroke="#000"/>
<line x1="731.5" y1="182.0611045507176" x2="731.5" y2="182.4660059317524" stroke="#000"/>
<line x1="731.5" y1="498.0" x2="731.5" y2="502.79999999999995" stroke="#000"/>
<text x="731.5" y="512.4" fill="#111" font-size="small" font-family="monospace" font-weight="bold" text-anchor="end" transform="rotate(-60, 731.5, 512.4)">
railsbench
</text>
<rect x="761.7142857142857" y="304.3914569321155" width="20.142857142857142" height="193.60854306788448" fill="#7070f8" data-tooltip="1.00x baseline speed (No JIT)"/>
<line x1="761.7142857142857" y1="303.6508586039729" x2="781.8571428571428" y2="303.6508586039729" stroke="#000"/>
<line x1="761.7142857142857" y1="305.132055260258" x2="781.8571428571428" y2="305.132055260258" stroke="#000"/>
<line x1="771.7857142857143" y1="303.6508586039729" x2="771.7857142857143" y2="305.132055260258" stroke="#000"/>
<rect x="781.8571428571428" y="212.38602547555345" width="20.142857142857142" height="285.61397452444646" fill="orange" data-tooltip="1.48x baseline speed (YJIT)"/>
<line x1="781.8571428571428" y1="201.01121468935088" x2="801.9999999999999" y2="201.01121468935088" stroke="#000"/>
<line x1="781.8571428571428" y1="223.76083626175605" x2="801.9999999999999" y2="223.76083626175605" stroke="#000"/>
<line x1="791.9285714285714" y1="201.01121468935088" x2="791.9285714285714" y2="223.76083626175605" stroke="#000"/>
<line x1="791.9285714285714" y1="498.0" x2="791.9285714285714" y2="502.79999999999995" stroke="#000"/>
<text x="791.9285714285714" y="512.4" fill="#111" font-size="small" font-family="monospace" font-weight="bold" text-anchor="end" transform="rotate(-60, 791.9285714285714, 512.4)">
rubocop
</text>
<rect x="822.1428571428571" y="304.3914569321155" width="20.142857142857142" height="193.60854306788448" fill="#7070f8" data-tooltip="1.00x baseline speed (No JIT)"/>
<line x1="822.1428571428571" y1="304.11554600460147" x2="842.2857142857142" y2="304.11554600460147" stroke="#000"/>
<line x1="822.1428571428571" y1="304.6673678596295" x2="842.2857142857142" y2="304.6673678596295" stroke="#000"/>
<line x1="832.2142857142857" y1="304.11554600460147" x2="832.2142857142857" y2="304.6673678596295" stroke="#000"/>
<rect x="842.2857142857142" y="249.20088070986165" width="20.142857142857142" height="248.7991192901383" fill="orange" data-tooltip="1.29x baseline speed (YJIT)"/>
<line x1="842.2857142857142" y1="247.58283366374118" x2="862.4285714285713" y2="247.58283366374118" stroke="#000"/>
<line x1="842.2857142857142" y1="250.8189277559821" x2="862.4285714285713" y2="250.8189277559821" stroke="#000"/>
<line x1="852.3571428571428" y1="247.58283366374118" x2="852.3571428571428" y2="250.8189277559821" stroke="#000"/>
<line x1="852.3571428571428" y1="498.0" x2="852.3571428571428" y2="502.79999999999995" stroke="#000"/>
<text x="852.3571428571428" y="512.4" fill="#111" font-size="small" font-family="monospace" font-weight="bold" text-anchor="end" transform="rotate(-60, 852.3571428571428, 512.4)">
ruby-lsp
</text>
<rect x="882.5714285714286" y="304.3914569321155" width="20.142857142857142" height="193.60854306788448" fill="#7070f8" data-tooltip="1.00x baseline speed (No JIT)"/>
<line x1="882.5714285714286" y1="304.22678204075544" x2="902.7142857142857" y2="304.22678204075544" stroke="#000"/>
<line x1="882.5714285714286" y1="304.5561318234755" x2="902.7142857142857" y2="304.5561318234755" stroke="#000"/>
<line x1="892.6428571428572" y1="304.22678204075544" x2="892.6428571428572" y2="304.5561318234755" stroke="#000"/>
<rect x="902.7142857142857" y="264.3703502391737" width="20.142857142857142" height="233.62964976082623" fill="orange" data-tooltip="1.21x baseline speed (YJIT)"/>
<line x1="902.7142857142857" y1="263.88757857648596" x2="922.8571428571428" y2="263.88757857648596" stroke="#000"/>
<line x1="902.7142857142857" y1="264.85312190186147" x2="922.8571428571428" y2="264.85312190186147" stroke="#000"/>
<line x1="912.7857142857143" y1="263.88757857648596" x2="912.7857142857143" y2="264.85312190186147" stroke="#000"/>
<line x1="912.7857142857143" y1="498.0" x2="912.7857142857143" y2="502.79999999999995" stroke="#000"/>
<text x="912.7857142857143" y="512.4" fill="#111" font-size="small" font-family="monospace" font-weight="bold" text-anchor="end" transform="rotate(-60, 912.7857142857143, 512.4)">
sequel
</text>
</svg>