<svg viewBox="0 0 1000 600" xmlns="http://www.w3.org/2000/svg" xmlns:xlink="http://www.w3.org/1999/xlink" width="100%" height="100%">

<rect x="50.0" y="30.0" width="940.0" height="467.99999999999994" stroke="#000" fill="#fff"/>
<line x1="42.0" y1="497.9999999999999" x2="50.0" y2="497.9999999999999" stroke="#000"/>
<text x="26.000000000000004" y="497.9999999999999" text-anchor="end" font-weight="bold" font-size="small" fill="#111">
0.0
</text>
<line x1="42.0" y1="403.7969119331213" x2="50.0" y2="403.7969119331213" stroke="#000"/>
<text x="26.000000000000004" y="403.7969119331213" text-anchor="end" font-weight="bold" font-size="small" fill="#111">
5.0
</text>
<line x1="42.0" y1="309.59382386624264" x2="50.0" y2="309.59382386624264" stroke="#000"/>
<text x="26.000000000000004" y="309.59382386624264" text-anchor="end" font-weight="bold" font-size="small" fill="#111">
10.0
</text>
<line x1="42.0" y1="215.39073579936397" x2="50.0" y2="215.39073579936397" stroke="#000"/>
<text x="26.000000000000004" y="215.39073579936397" text-anchor="end" font-weight="bold" font-size="small" fill="#111">
15.0
</text>
<line x1="42.0" y1="121.18764773248529" x2="50.0" y2="121.18764773248529" stroke="#000"/>
<text x="26.000000000000004" y="121.18764773248529" text-anchor="end" font-weight="bold" font-size="small" fill="#111">
20.0
</text>
<line x1="142.75" y1="54.60000000000001" x2="262.75" y2="54.60000000000001" stroke="#648FFF" stroke-width="2"/>
<text x="202.75" y="49.500000000000014" font-size="small" text-anchor="middle" font-weight="bold" fill="#000">
CRuby 3.3.1
</text>
<rect x="354.25" y="35.400000000000006" width="120.0" height="19.2" fill="#785EF0" stroke="none"/>
<text x="414.25" y="49.500000000000014" font-size="small" text-anchor="middle" font-weight="bold" fill="#fff" style="text-shadow: 0 0 1px #000;">
CRuby 3.4.0dev
</text>
<rect x="565.75" y="35.400000000000006" width="120.0" height="19.2" fill="#FFB000" stroke="none"/>
<text x="625.7499999999999" y="49.500000000000014" font-size="small" text-anchor="middle" font-weight="bold" fill="#fff" style="text-shadow: 0 0 1px #000;">
YJIT 3.3.1
</text>
<rect x="777.25" y="35.400000000000006" width="120.0" height="19.2" fill="#DC267F" stroke="none"/>
<text x="837.2499999999999" y="49.500000000000014" font-size="small" text-anchor="middle" font-weight="bold" fill="#fff" style="text-shadow: 0 0 1px #000;">
YJIT 3.4.0dev
</text>
<rect x="113.26923076923077" y="480.9350556201838" width="16.26923076923077" height="17.064944379816193" fill="#785EF0" data-tooltip="0.91x baseline speed (CRuby 3.4.0dev)"/>
<line x1="113.26923076923077" y1="480.8773311757694" x2="129.53846153846155" y2="480.8773311757694" stroke-dasharray="1,0.5" stroke="#333c"/>
<line x1="113.26923076923077" y1="480.9927800645982" x2="129.53846153846155" y2="480.9927800645982" stroke-dasharray="1,0.5" stroke="#333c"/>
<line x1="121.40384615384616" y1="480.8773311757694" x2="121.40384615384616" y2="480.9927800645982" stroke-dasharray="1,0.5" stroke="#333c"/>
<rect x="129.53846153846155" y="415.5160947383416" width="16.26923076923077" height="82.4839052616583" fill="#FFB000" data-tooltip="4.38x baseline speed (YJIT 3.3.1)"/>
<line x1="129.53846153846155" y1="415.23815110812205" x2="145.8076923076923" y2="415.23815110812205" stroke-dasharray="1,0.5" stroke="#333c"/>
<line x1="129.53846153846155" y1="415.7940383685612" x2="145.8076923076923" y2="415.7940383685612" stroke-dasharray="1,0.5" stroke="#333c"/>
<line x1="137.67307692307693" y1="415.23815110812205" x2="137.67307692307693" y2="415.7940383685612" stroke-dasharray="1,0.5" stroke="#333c"/>
<rect x="145.8076923076923" y="413.1234751197816" width="16.26923076923077" height="84.87652488021834" fill="#DC267F" data-tooltip="4.50x baseline speed (YJIT 3.4.0dev)"/>
<line x1="145.8076923076923" y1="412.83668059632424" x2="162.07692307692307" y2="412.83668059632424" stroke-dasharray="1,0.5" stroke="#333c"/>
<line x1="145.8076923076923" y1="413.41026964323896" x2="162.07692307692307" y2="413.41026964323896" stroke-dasharray="1,0.5" stroke="#333c"/>
<line x1="153.94230769230768" y1="412.83668059632424" x2="153.94230769230768" y2="413.41026964323896" stroke-dasharray="1,0.5" stroke="#333c"/>
<line x1="129.53846153846155" y1="498.0" x2="129.53846153846155" y2="502.79999999999995" stroke="#000"/>
<text x="129.53846153846155" y="512.4" fill="#111" font-size="small" font-family="monospace" font-weight="bold" text-anchor="end" transform="rotate(-60, 129.53846153846155, 512.4)">
30k_ifelse
</text>
<rect x="178.3461538461538" y="478.9652496757601" width="16.26923076923077" height="19.03475032423986" fill="#785EF0" data-tooltip="1.01x baseline speed (CRuby 3.4.0dev)"/>
<line x1="178.3461538461538" y1="478.93953841016645" x2="194.61538461538458" y2="478.93953841016645" stroke-dasharray="1,0.5" stroke="#333c"/>
<line x1="178.3461538461538" y1="478.99096094135376" x2="194.61538461538458" y2="478.99096094135376" stroke-dasharray="1,0.5" stroke="#333c"/>
<line x1="186.4807692307692" y1="478.93953841016645" x2="186.4807692307692" y2="478.99096094135376" stroke-dasharray="1,0.5" stroke="#333c"/>
<rect x="194.6153846153846" y="390.93892919546016" width="16.26923076923077" height="107.06107080453977" fill="#FFB000" data-tooltip="5.68x baseline speed (YJIT 3.3.1)"/>
<line x1="194.6153846153846" y1="390.8459103072358" x2="210.88461538461536" y2="390.8459103072358" stroke-dasharray="1,0.5" stroke="#333c"/>
<line x1="194.6153846153846" y1="391.0319480836845" x2="210.88461538461536" y2="391.0319480836845" stroke-dasharray="1,0.5" stroke="#333c"/>
<line x1="202.75" y1="390.8459103072358" x2="202.75" y2="391.0319480836845" stroke-dasharray="1,0.5" stroke="#333c"/>
<rect x="210.88461538461536" y="389.9755889677918" width="16.26923076923077" height="108.02441103220814" fill="#DC267F" data-tooltip="5.73x baseline speed (YJIT 3.4.0dev)"/>
<line x1="210.88461538461536" y1="389.8818357502121" x2="227.15384615384613" y2="389.8818357502121" stroke-dasharray="1,0.5" stroke="#333c"/>
<line x1="210.88461538461536" y1="390.0693421853715" x2="227.15384615384613" y2="390.0693421853715" stroke-dasharray="1,0.5" stroke="#333c"/>
<line x1="219.01923076923075" y1="389.8818357502121" x2="219.01923076923075" y2="390.0693421853715" stroke-dasharray="1,0.5" stroke="#333c"/>
<line x1="194.6153846153846" y1="498.0" x2="194.6153846153846" y2="502.79999999999995" stroke="#000"/>
<text x="194.6153846153846" y="512.4" fill="#111" font-size="small" font-family="monospace" font-weight="bold" text-anchor="end" transform="rotate(-60, 194.6153846153846, 512.4)">
30k_methods
</text>
<rect x="243.4230769230769" y="478.69508364236316" width="16.26923076923077" height="19.304916357636724" fill="#785EF0" data-tooltip="1.02x baseline speed (CRuby 3.4.0dev)"/>
<line x1="243.4230769230769" y1="478.5144094340128" x2="259.6923076923077" y2="478.5144094340128" stroke-dasharray="1,0.5" stroke="#333c"/>
<line x1="243.4230769230769" y1="478.87575785071357" x2="259.6923076923077" y2="478.87575785071357" stroke-dasharray="1,0.5" stroke="#333c"/>
<line x1="251.55769230769232" y1="478.5144094340128" x2="251.55769230769232" y2="478.87575785071357" stroke-dasharray="1,0.5" stroke="#333c"/>
<rect x="259.6923076923077" y="387.5589304610516" width="16.26923076923077" height="110.44106953894835" fill="#FFB000" data-tooltip="5.86x baseline speed (YJIT 3.3.1)"/>
<line x1="259.6923076923077" y1="372.58131803369656" x2="275.96153846153845" y2="372.58131803369656" stroke-dasharray="1,0.5" stroke="#333c"/>
<line x1="259.6923076923077" y1="402.53654288840664" x2="275.96153846153845" y2="402.53654288840664" stroke-dasharray="1,0.5" stroke="#333c"/>
<line x1="267.8269230769231" y1="372.58131803369656" x2="267.8269230769231" y2="402.53654288840664" stroke-dasharray="1,0.5" stroke="#333c"/>
<rect x="275.96153846153845" y="373.21933132209466" width="16.26923076923077" height="124.78066867790523" fill="#DC267F" data-tooltip="6.62x baseline speed (YJIT 3.4.0dev)"/>
<line x1="275.96153846153845" y1="355.97062614806185" x2="292.2307692307692" y2="355.97062614806185" stroke-dasharray="1,0.5" stroke="#333c"/>
<line x1="275.96153846153845" y1="390.4680364961275" x2="292.2307692307692" y2="390.4680364961275" stroke-dasharray="1,0.5" stroke="#333c"/>
<line x1="284.09615384615387" y1="355.97062614806185" x2="284.09615384615387" y2="390.4680364961275" stroke-dasharray="1,0.5" stroke="#333c"/>
<line x1="259.6923076923077" y1="498.0" x2="259.6923076923077" y2="502.79999999999995" stroke="#000"/>
<text x="259.6923076923077" y="512.4" fill="#111" font-size="small" font-family="monospace" font-weight="bold" text-anchor="end" transform="rotate(-60, 259.6923076923077, 512.4)">
cfunc_itself
</text>
<rect x="308.49999999999994" y="479.2613516816338" width="16.26923076923077" height="18.738648318366195" fill="#785EF0" data-tooltip="0.99x baseline speed (CRuby 3.4.0dev)"/>
<line x1="308.49999999999994" y1="478.76560494840305" x2="324.7692307692307" y2="478.76560494840305" stroke-dasharray="1,0.5" stroke="#333c"/>
<line x1="308.49999999999994" y1="479.7570984148646" x2="324.7692307692307" y2="479.7570984148646" stroke-dasharray="1,0.5" stroke="#333c"/>
<line x1="316.63461538461536" y1="478.76560494840305" x2="316.63461538461536" y2="479.7570984148646" stroke-dasharray="1,0.5" stroke="#333c"/>
<rect x="324.7692307692307" y="412.95418982011876" width="16.26923076923077" height="85.04581017988124" fill="#FFB000" data-tooltip="4.51x baseline speed (YJIT 3.3.1)"/>
<line x1="324.7692307692307" y1="411.85505823266345" x2="341.03846153846143" y2="411.85505823266345" stroke-dasharray="1,0.5" stroke="#333c"/>
<line x1="324.7692307692307" y1="414.053321407574" x2="341.03846153846143" y2="414.053321407574" stroke-dasharray="1,0.5" stroke="#333c"/>
<line x1="332.90384615384613" y1="411.85505823266345" x2="332.90384615384613" y2="414.053321407574" stroke-dasharray="1,0.5" stroke="#333c"/>
<rect x="341.0384615384615" y="401.5427748231804" width="16.26923076923077" height="96.45722517681945" fill="#DC267F" data-tooltip="5.12x baseline speed (YJIT 3.4.0dev)"/>
<line x1="341.0384615384615" y1="398.83120787900623" x2="357.30769230769226" y2="398.83120787900623" stroke-dasharray="1,0.5" stroke="#333c"/>
<line x1="341.0384615384615" y1="404.2543417673546" x2="357.30769230769226" y2="404.2543417673546" stroke-dasharray="1,0.5" stroke="#333c"/>
<line x1="349.1730769230769" y1="398.83120787900623" x2="349.1730769230769" y2="404.2543417673546" stroke-dasharray="1,0.5" stroke="#333c"/>
<line x1="324.7692307692307" y1="498.0" x2="324.7692307692307" y2="502.79999999999995" stroke="#000"/>
<text x="324.7692307692307" y="512.4" fill="#111" font-size="small" font-family="monospace" font-weight="bold" text-anchor="end" transform="rotate(-60, 324.7692307692307, 512.4)">
fib
</text>
<rect x="373.5769230769231" y="479.42773715407844" width="16.26923076923077" height="18.572262845921536" fill="#785EF0" data-tooltip="0.99x baseline speed (CRuby 3.4.0dev)"/>
<line x1="373.5769230769231" y1="479.1203917259548" x2="389.84615384615387" y2="479.1203917259548" stroke-dasharray="1,0.5" stroke="#333c"/>
<line x1="373.5769230769231" y1="479.7350825822021" x2="389.84615384615387" y2="479.7350825822021" stroke-dasharray="1,0.5" stroke="#333c"/>
<line x1="381.7115384615385" y1="479.1203917259548" x2="381.7115384615385" y2="479.7350825822021" stroke-dasharray="1,0.5" stroke="#333c"/>
<rect x="389.84615384615387" y="400.4949710489006" width="16.26923076923077" height="97.50502895109933" fill="#FFB000" data-tooltip="5.18x baseline speed (YJIT 3.3.1)"/>
<line x1="389.84615384615387" y1="325.7286987163886" x2="406.1153846153846" y2="325.7286987163886" stroke-dasharray="1,0.5" stroke="#333c"/>
<line x1="389.84615384615387" y1="475.26124338141256" x2="406.1153846153846" y2="475.26124338141256" stroke-dasharray="1,0.5" stroke="#333c"/>
<line x1="397.9807692307692" y1="325.7286987163886" x2="397.9807692307692" y2="475.26124338141256" stroke-dasharray="1,0.5" stroke="#333c"/>
<rect x="406.11538461538464" y="393.9715752978113" width="16.26923076923077" height="104.02842470218862" fill="#DC267F" data-tooltip="5.52x baseline speed (YJIT 3.4.0dev)"/>
<line x1="406.11538461538464" y1="309.6384609522143" x2="422.3846153846154" y2="309.6384609522143" stroke-dasharray="1,0.5" stroke="#333c"/>
<line x1="406.11538461538464" y1="478.30468964340827" x2="422.3846153846154" y2="478.30468964340827" stroke-dasharray="1,0.5" stroke="#333c"/>
<line x1="414.25000000000006" y1="309.6384609522143" x2="414.25000000000006" y2="478.30468964340827" stroke-dasharray="1,0.5" stroke="#333c"/>
<line x1="389.84615384615387" y1="498.0" x2="389.84615384615387" y2="502.79999999999995" stroke="#000"/>
<text x="389.84615384615387" y="512.4" fill="#111" font-size="small" font-family="monospace" font-weight="bold" text-anchor="end" transform="rotate(-60, 389.84615384615387, 512.4)">
getivar
</text>
<rect x="438.65384615384613" y="480.1906783297663" width="16.26923076923077" height="17.809321670233633" fill="#785EF0" data-tooltip="0.95x baseline speed (CRuby 3.4.0dev)"/>
<line x1="438.65384615384613" y1="480.08543164060995" x2="454.92307692307685" y2="480.08543164060995" stroke-dasharray="1,0.5" stroke="#333c"/>
<line x1="438.65384615384613" y1="480.2959250189226" x2="454.92307692307685" y2="480.2959250189226" stroke-dasharray="1,0.5" stroke="#333c"/>
<line x1="446.78846153846155" y1="480.08543164060995" x2="446.78846153846155" y2="480.2959250189226" stroke-dasharray="1,0.5" stroke="#333c"/>
<rect x="454.92307692307685" y="347.1349217859832" width="16.26923076923077" height="150.86507821401676" fill="#FFB000" data-tooltip="8.01x baseline speed (YJIT 3.3.1)"/>
<line x1="454.92307692307685" y1="332.43598278911094" x2="471.1923076923076" y2="332.43598278911094" stroke-dasharray="1,0.5" stroke="#333c"/>
<line x1="454.92307692307685" y1="361.8338607828554" x2="471.1923076923076" y2="361.8338607828554" stroke-dasharray="1,0.5" stroke="#333c"/>
<line x1="463.05769230769226" y1="332.43598278911094" x2="463.05769230769226" y2="361.8338607828554" stroke-dasharray="1,0.5" stroke="#333c"/>
<rect x="471.1923076923077" y="319.25744251752195" width="16.26923076923077" height="178.742557482478" fill="#DC267F" data-tooltip="9.49x baseline speed (YJIT 3.4.0dev)"/>
<line x1="471.1923076923077" y1="290.2913514660573" x2="487.46153846153845" y2="290.2913514660573" stroke-dasharray="1,0.5" stroke="#333c"/>
<line x1="471.1923076923077" y1="348.22353356898657" x2="487.46153846153845" y2="348.22353356898657" stroke-dasharray="1,0.5" stroke="#333c"/>
<line x1="479.3269230769231" y1="290.2913514660573" x2="479.3269230769231" y2="348.22353356898657" stroke-dasharray="1,0.5" stroke="#333c"/>
<line x1="454.92307692307685" y1="498.0" x2="454.92307692307685" y2="502.79999999999995" stroke="#000"/>
<text x="454.92307692307685" y="512.4" fill="#111" font-size="small" font-family="monospace" font-weight="bold" text-anchor="end" transform="rotate(-60, 454.92307692307685, 512.4)">
keyword_args
</text>
<rect x="503.7307692307692" y="478.95666838786036" width="16.26923076923077" height="19.04333161213958" fill="#785EF0" data-tooltip="1.01x baseline speed (CRuby 3.4.0dev)"/>
<line x1="503.7307692307692" y1="478.79195911380907" x2="520.0" y2="478.79195911380907" stroke-dasharray="1,0.5" stroke="#333c"/>
<line x1="503.7307692307692" y1="479.12137766191165" x2="520.0" y2="479.12137766191165" stroke-dasharray="1,0.5" stroke="#333c"/>
<line x1="511.8653846153845" y1="478.79195911380907" x2="511.8653846153845" y2="479.12137766191165" stroke-dasharray="1,0.5" stroke="#333c"/>
<rect x="519.9999999999999" y="152.5990164017504" width="16.26923076923077" height="345.4009835982495" fill="#FFB000" data-tooltip="18.33x baseline speed (YJIT 3.3.1)"/>
<line x1="519.9999999999999" y1="110.8770621435241" x2="536.2692307692307" y2="110.8770621435241" stroke-dasharray="1,0.5" stroke="#333c"/>
<line x1="519.9999999999999" y1="194.32097065997672" x2="536.2692307692307" y2="194.32097065997672" stroke-dasharray="1,0.5" stroke="#333c"/>
<line x1="528.1346153846152" y1="110.8770621435241" x2="528.1346153846152" y2="194.32097065997672" stroke-dasharray="1,0.5" stroke="#333c"/>
<rect x="536.2692307692307" y="100.19999999999999" width="16.26923076923077" height="397.79999999999995" fill="#DC267F" data-tooltip="21.11x baseline speed (YJIT 3.4.0dev)"/>
<line x1="536.2692307692307" y1="38.8087458679908" x2="552.5384615384615" y2="38.8087458679908" stroke-dasharray="1,0.5" stroke="#333c"/>
<line x1="536.2692307692307" y1="161.59125413200917" x2="552.5384615384615" y2="161.59125413200917" stroke-dasharray="1,0.5" stroke="#333c"/>
<line x1="544.4038461538461" y1="38.8087458679908" x2="544.4038461538461" y2="161.59125413200917" stroke-dasharray="1,0.5" stroke="#333c"/>
<line x1="519.9999999999999" y1="498.0" x2="519.9999999999999" y2="502.79999999999995" stroke="#000"/>
<text x="519.9999999999999" y="512.4" fill="#111" font-size="small" font-family="monospace" font-weight="bold" text-anchor="end" transform="rotate(-60, 519.9999999999999, 512.4)">
respond_to
</text>
<rect x="568.8076923076924" y="480.87839567485025" width="16.26923076923077" height="17.1216043251497" fill="#785EF0" data-tooltip="0.91x baseline speed (CRuby 3.4.0dev)"/>
<line x1="568.8076923076924" y1="480.01029946408124" x2="585.0769230769232" y2="480.01029946408124" stroke-dasharray="1,0.5" stroke="#333c"/>
<line x1="568.8076923076924" y1="481.7464918856193" x2="585.0769230769232" y2="481.7464918856193" stroke-dasharray="1,0.5" stroke="#333c"/>
<line x1="576.9423076923077" y1="480.01029946408124" x2="576.9423076923077" y2="481.7464918856193" stroke-dasharray="1,0.5" stroke="#333c"/>
<rect x="585.0769230769231" y="436.23807275485274" width="16.26923076923077" height="61.76192724514719" fill="#FFB000" data-tooltip="3.28x baseline speed (YJIT 3.3.1)"/>
<line x1="585.0769230769231" y1="436.16558441305193" x2="601.3461538461538" y2="436.16558441305193" stroke-dasharray="1,0.5" stroke="#333c"/>
<line x1="585.0769230769231" y1="436.3105610966535" x2="601.3461538461538" y2="436.3105610966535" stroke-dasharray="1,0.5" stroke="#333c"/>
<line x1="593.2115384615385" y1="436.16558441305193" x2="593.2115384615385" y2="436.3105610966535" stroke-dasharray="1,0.5" stroke="#333c"/>
<rect x="601.3461538461538" y="399.9362974631653" width="16.26923076923077" height="98.06370253683461" fill="#DC267F" data-tooltip="5.20x baseline speed (YJIT 3.4.0dev)"/>
<line x1="601.3461538461538" y1="399.81725073757366" x2="617.6153846153846" y2="399.81725073757366" stroke-dasharray="1,0.5" stroke="#333c"/>
<line x1="601.3461538461538" y1="400.055344188757" x2="617.6153846153846" y2="400.055344188757" stroke-dasharray="1,0.5" stroke="#333c"/>
<line x1="609.4807692307692" y1="399.81725073757366" x2="609.4807692307692" y2="400.055344188757" stroke-dasharray="1,0.5" stroke="#333c"/>
<line x1="585.0769230769231" y1="498.0" x2="585.0769230769231" y2="502.79999999999995" stroke="#000"/>
<text x="585.0769230769231" y="512.4" fill="#111" font-size="small" font-family="monospace" font-weight="bold" text-anchor="end" transform="rotate(-60, 585.0769230769231, 512.4)">
ruby-xor
</text>
<rect x="633.8846153846154" y="479.34714874345224" width="16.26923076923077" height="18.652851256547688" fill="#785EF0" data-tooltip="0.99x baseline speed (CRuby 3.4.0dev)"/>
<line x1="633.8846153846154" y1="479.2825149946299" x2="650.1538461538462" y2="479.2825149946299" stroke-dasharray="1,0.5" stroke="#333c"/>
<line x1="633.8846153846154" y1="479.4117824922746" x2="650.1538461538462" y2="479.4117824922746" stroke-dasharray="1,0.5" stroke="#333c"/>
<line x1="642.0192307692307" y1="479.2825149946299" x2="642.0192307692307" y2="479.4117824922746" stroke-dasharray="1,0.5" stroke="#333c"/>
<rect x="650.1538461538461" y="395.14094207450853" width="16.26923076923077" height="102.8590579254914" fill="#FFB000" data-tooltip="5.46x baseline speed (YJIT 3.3.1)"/>
<line x1="650.1538461538461" y1="324.1466445872608" x2="666.4230769230769" y2="324.1466445872608" stroke-dasharray="1,0.5" stroke="#333c"/>
<line x1="650.1538461538461" y1="466.13523956175624" x2="666.4230769230769" y2="466.13523956175624" stroke-dasharray="1,0.5" stroke="#333c"/>
<line x1="658.2884615384614" y1="324.1466445872608" x2="658.2884615384614" y2="466.13523956175624" stroke-dasharray="1,0.5" stroke="#333c"/>
<rect x="666.4230769230769" y="384.290813949536" width="16.26923076923077" height="113.709186050464" fill="#DC267F" data-tooltip="6.04x baseline speed (YJIT 3.4.0dev)"/>
<line x1="666.4230769230769" y1="299.3161365961213" x2="682.6923076923077" y2="299.3161365961213" stroke-dasharray="1,0.5" stroke="#333c"/>
<line x1="666.4230769230769" y1="469.26549130295075" x2="682.6923076923077" y2="469.26549130295075" stroke-dasharray="1,0.5" stroke="#333c"/>
<line x1="674.5576923076923" y1="299.3161365961213" x2="674.5576923076923" y2="469.26549130295075" stroke-dasharray="1,0.5" stroke="#333c"/>
<line x1="650.1538461538461" y1="498.0" x2="650.1538461538461" y2="502.79999999999995" stroke="#000"/>
<text x="650.1538461538461" y="512.4" fill="#111" font-size="small" font-family="monospace" font-weight="bold" text-anchor="end" transform="rotate(-60, 650.1538461538461, 512.4)">
setivar
</text>
<rect x="698.9615384615385" y="479.541494439146" width="16.26923076923077" height="18.458505560854" fill="#785EF0" data-tooltip="0.98x baseline speed (CRuby 3.4.0dev)"/>
<line x1="698.9615384615385" y1="479.5055363148071" x2="715.2307692307692" y2="479.5055363148071" stroke-dasharray="1,0.5" stroke="#333c"/>
<line x1="698.9615384615385" y1="479.5774525634849" x2="715.2307692307692" y2="479.5774525634849" stroke-dasharray="1,0.5" stroke="#333c"/>
<line x1="707.0961538461538" y1="479.5055363148071" x2="707.0961538461538" y2="479.5774525634849" stroke-dasharray="1,0.5" stroke="#333c"/>
<rect x="715.2307692307692" y="454.38869091059007" width="16.26923076923077" height="43.61130908940991" fill="#FFB000" data-tooltip="2.31x baseline speed (YJIT 3.3.1)"/>
<line x1="715.2307692307692" y1="436.11912165709134" x2="731.4999999999999" y2="436.11912165709134" stroke-dasharray="1,0.5" stroke="#333c"/>
<line x1="715.2307692307692" y1="472.65826016408874" x2="731.4999999999999" y2="472.65826016408874" stroke-dasharray="1,0.5" stroke="#333c"/>
<line x1="723.3653846153844" y1="436.11912165709134" x2="723.3653846153844" y2="472.65826016408874" stroke-dasharray="1,0.5" stroke="#333c"/>
<rect x="731.4999999999999" y="453.4981360042151" width="16.26923076923077" height="44.50186399578487" fill="#DC267F" data-tooltip="2.36x baseline speed (YJIT 3.4.0dev)"/>
<line x1="731.4999999999999" y1="433.7762422915767" x2="747.7692307692307" y2="433.7762422915767" stroke-dasharray="1,0.5" stroke="#333c"/>
<line x1="731.4999999999999" y1="473.2200297168535" x2="747.7692307692307" y2="473.2200297168535" stroke-dasharray="1,0.5" stroke="#333c"/>
<line x1="739.6346153846152" y1="433.7762422915767" x2="739.6346153846152" y2="473.2200297168535" stroke-dasharray="1,0.5" stroke="#333c"/>
<line x1="715.2307692307692" y1="498.0" x2="715.2307692307692" y2="502.79999999999995" stroke="#000"/>
<text x="715.2307692307692" y="512.4" fill="#111" font-size="small" font-family="monospace" font-weight="bold" text-anchor="end" transform="rotate(-60, 715.2307692307692, 512.4)">
setivar_object
</text>
<rect x="764.0384615384615" y="479.73208907271385" width="16.26923076923077" height="18.26791092728605" fill="#785EF0" data-tooltip="0.97x baseline speed (CRuby 3.4.0dev)"/>
<line x1="764.0384615384615" y1="479.3855327302007" x2="780.3076923076924" y2="479.3855327302007" stroke-dasharray="1,0.5" stroke="#333c"/>
<line x1="764.0384615384615" y1="480.0786454152271" x2="780.3076923076924" y2="480.0786454152271" stroke-dasharray="1,0.5" stroke="#333c"/>
<line x1="772.1730769230769" y1="479.3855327302007" x2="772.1730769230769" y2="480.0786454152271" stroke-dasharray="1,0.5" stroke="#333c"/>
<rect x="780.3076923076923" y="454.3212255476838" width="16.26923076923077" height="43.678774452316176" fill="#FFB000" data-tooltip="2.32x baseline speed (YJIT 3.3.1)"/>
<line x1="780.3076923076923" y1="435.59736336968956" x2="796.5769230769231" y2="435.59736336968956" stroke-dasharray="1,0.5" stroke="#333c"/>
<line x1="780.3076923076923" y1="473.045087725678" x2="796.5769230769231" y2="473.045087725678" stroke-dasharray="1,0.5" stroke="#333c"/>
<line x1="788.4423076923076" y1="435.59736336968956" x2="788.4423076923076" y2="473.045087725678" stroke-dasharray="1,0.5" stroke="#333c"/>
<rect x="796.5769230769231" y="453.48870437094604" width="16.26923076923077" height="44.511295629053876" fill="#DC267F" data-tooltip="2.36x baseline speed (YJIT 3.4.0dev)"/>
<line x1="796.5769230769231" y1="433.1900468472811" x2="812.8461538461539" y2="433.1900468472811" stroke-dasharray="1,0.5" stroke="#333c"/>
<line x1="796.5769230769231" y1="473.78736189461097" x2="812.8461538461539" y2="473.78736189461097" stroke-dasharray="1,0.5" stroke="#333c"/>
<line x1="804.7115384615385" y1="433.1900468472811" x2="804.7115384615385" y2="473.78736189461097" stroke-dasharray="1,0.5" stroke="#333c"/>
<line x1="780.3076923076923" y1="498.0" x2="780.3076923076923" y2="502.79999999999995" stroke="#000"/>
<text x="780.3076923076923" y="512.4" fill="#111" font-size="small" font-family="monospace" font-weight="bold" text-anchor="end" transform="rotate(-60, 780.3076923076923, 512.4)">
setivar_young
</text>
<rect x="829.1153846153846" y="479.90842740755" width="16.26923076923077" height="18.091572592449992" fill="#785EF0" data-tooltip="0.96x baseline speed (CRuby 3.4.0dev)"/>
<line x1="829.1153846153846" y1="479.4764957455445" x2="845.3846153846154" y2="479.4764957455445" stroke-dasharray="1,0.5" stroke="#333c"/>
<line x1="829.1153846153846" y1="480.3403590695554" x2="845.3846153846154" y2="480.3403590695554" stroke-dasharray="1,0.5" stroke="#333c"/>
<line x1="837.2499999999999" y1="479.4764957455445" x2="837.2499999999999" y2="480.3403590695554" stroke-dasharray="1,0.5" stroke="#333c"/>
<rect x="845.3846153846152" y="458.1617426904758" width="16.26923076923077" height="39.838257309524074" fill="#FFB000" data-tooltip="2.11x baseline speed (YJIT 3.3.1)"/>
<line x1="845.3846153846152" y1="457.5887667819322" x2="861.6538461538461" y2="457.5887667819322" stroke-dasharray="1,0.5" stroke="#333c"/>
<line x1="845.3846153846152" y1="458.73471859901946" x2="861.6538461538461" y2="458.73471859901946" stroke-dasharray="1,0.5" stroke="#333c"/>
<line x1="853.5192307692306" y1="457.5887667819322" x2="853.5192307692306" y2="458.73471859901946" stroke-dasharray="1,0.5" stroke="#333c"/>
<rect x="861.6538461538461" y="460.6616588646518" width="16.26923076923077" height="37.33834113534815" fill="#DC267F" data-tooltip="1.98x baseline speed (YJIT 3.4.0dev)"/>
<line x1="861.6538461538461" y1="460.35339721110347" x2="877.9230769230769" y2="460.35339721110347" stroke-dasharray="1,0.5" stroke="#333c"/>
<line x1="861.6538461538461" y1="460.9699205182001" x2="877.9230769230769" y2="460.9699205182001" stroke-dasharray="1,0.5" stroke="#333c"/>
<line x1="869.7884615384614" y1="460.35339721110347" x2="869.7884615384614" y2="460.9699205182001" stroke-dasharray="1,0.5" stroke="#333c"/>
<line x1="845.3846153846152" y1="498.0" x2="845.3846153846152" y2="502.79999999999995" stroke="#000"/>
<text x="845.3846153846152" y="512.4" fill="#111" font-size="small" font-family="monospace" font-weight="bold" text-anchor="end" transform="rotate(-60, 845.3846153846152, 512.4)">
str_concat
</text>
<rect x="894.1923076923076" y="481.34154254052174" width="16.26923076923077" height="16.658457459478196" fill="#785EF0" data-tooltip="0.88x baseline speed (CRuby 3.4.0dev)"/>
<line x1="894.1923076923076" y1="481.2847706339909" x2="910.4615384615385" y2="481.2847706339909" stroke-dasharray="1,0.5" stroke="#333c"/>
<line x1="894.1923076923076" y1="481.3983144470526" x2="910.4615384615385" y2="481.3983144470526" stroke-dasharray="1,0.5" stroke="#333c"/>
<line x1="902.326923076923" y1="481.2847706339909" x2="902.326923076923" y2="481.3983144470526" stroke-dasharray="1,0.5" stroke="#333c"/>
<rect x="910.4615384615383" y="474.3232744218928" width="16.26923076923077" height="23.676725578107064" fill="#FFB000" data-tooltip="1.26x baseline speed (YJIT 3.3.1)"/>
<line x1="910.4615384615383" y1="474.2432050278637" x2="926.7307692307692" y2="474.2432050278637" stroke-dasharray="1,0.5" stroke="#333c"/>
<line x1="910.4615384615383" y1="474.4033438159219" x2="926.7307692307692" y2="474.4033438159219" stroke-dasharray="1,0.5" stroke="#333c"/>
<line x1="918.5961538461537" y1="474.2432050278637" x2="918.5961538461537" y2="474.4033438159219" stroke-dasharray="1,0.5" stroke="#333c"/>
<rect x="926.7307692307692" y="473.6845781412178" width="16.26923076923077" height="24.3154218587822" fill="#DC267F" data-tooltip="1.29x baseline speed (YJIT 3.4.0dev)"/>
<line x1="926.7307692307692" y1="473.59324678428277" x2="943.0" y2="473.59324678428277" stroke-dasharray="1,0.5" stroke="#333c"/>
<line x1="926.7307692307692" y1="473.7759094981528" x2="943.0" y2="473.7759094981528" stroke-dasharray="1,0.5" stroke="#333c"/>
<line x1="934.8653846153845" y1="473.59324678428277" x2="934.8653846153845" y2="473.7759094981528" stroke-dasharray="1,0.5" stroke="#333c"/>
<line x1="910.4615384615383" y1="498.0" x2="910.4615384615383" y2="502.79999999999995" stroke="#000"/>
<text x="910.4615384615383" y="512.4" fill="#111" font-size="small" font-family="monospace" font-weight="bold" text-anchor="end" transform="rotate(-60, 910.4615384615383, 512.4)">
throw
</text>
<line x1="50.0" y1="479.1593823866242" x2="990.0" y2="479.1593823866242" stroke="#648FFF" stroke-width="2"/>
</svg>