<svg viewBox="0 0 1000 600" xmlns="http://www.w3.org/2000/svg" xmlns:xlink="http://www.w3.org/1999/xlink" width="100%" height="100%">

<rect x="50.0" y="30.0" width="940.0" height="467.99999999999994" stroke="#000" fill="#EEE"/>
<line x1="42.0" y1="497.9999999999999" x2="50.0" y2="497.9999999999999" stroke="#000"/>
<text x="26.000000000000004" y="497.9999999999999" text-anchor="end" font-weight="bold" font-size="small" fill="#111">
0.0
</text>
<line x1="42.0" y1="407.29763631824557" x2="50.0" y2="407.29763631824557" stroke="#000"/>
<text x="26.000000000000004" y="407.29763631824557" text-anchor="end" font-weight="bold" font-size="small" fill="#111">
5.0
</text>
<line x1="42.0" y1="316.59527263649125" x2="50.0" y2="316.59527263649125" stroke="#000"/>
<text x="26.000000000000004" y="316.59527263649125" text-anchor="end" font-weight="bold" font-size="small" fill="#111">
10.0
</text>
<line x1="42.0" y1="225.89290895473687" x2="50.0" y2="225.89290895473687" stroke="#000"/>
<text x="26.000000000000004" y="225.89290895473687" text-anchor="end" font-weight="bold" font-size="small" fill="#111">
15.0
</text>
<line x1="42.0" y1="135.19054527298243" x2="50.0" y2="135.19054527298243" stroke="#000"/>
<text x="26.000000000000004" y="135.19054527298243" text-anchor="end" font-weight="bold" font-size="small" fill="#111">
20.0
</text>
<rect x="268.5" y="36.00000000000001" width="80.0" height="18.0" fill="#7070f8" stroke="#888"/>
<text x="308.5" y="52.50000000000001" font-size="small" text-anchor="middle" font-weight="bold" fill="#EEE">
No JIT
</text>
<rect x="691.4999999999999" y="36.00000000000001" width="80.0" height="18.0" fill="orange" stroke="#888"/>
<text x="731.4999999999999" y="52.50000000000001" font-size="small" text-anchor="middle" font-weight="bold" fill="#EEE">
YJIT
</text>
<rect x="97.0" y="479.85952726364906" width="21.69230769230769" height="18.140472736350873" fill="#7070f8" data-tooltip="1.00x baseline speed (No JIT)"/>
<line x1="97.0" y1="479.84894296004023" x2="118.6923076923077" y2="479.84894296004023" stroke="#000"/>
<line x1="97.0" y1="479.8701115672579" x2="118.6923076923077" y2="479.8701115672579" stroke="#000"/>
<line x1="107.84615384615384" y1="479.84894296004023" x2="107.84615384615384" y2="479.8701115672579" stroke="#000"/>
<rect x="118.6923076923077" y="375.5686860165987" width="21.69230769230769" height="122.43131398340122" fill="orange" data-tooltip="6.75x baseline speed (YJIT)"/>
<line x1="118.6923076923077" y1="375.4595030185207" x2="140.3846153846154" y2="375.4595030185207" stroke="#000"/>
<line x1="118.6923076923077" y1="375.67786901467673" x2="140.3846153846154" y2="375.67786901467673" stroke="#000"/>
<line x1="129.53846153846155" y1="375.4595030185207" x2="129.53846153846155" y2="375.67786901467673" stroke="#000"/>
<line x1="129.53846153846155" y1="498.0" x2="129.53846153846155" y2="502.79999999999995" stroke="#000"/>
<text x="129.53846153846155" y="512.4" fill="#111" font-size="small" font-family="monospace" font-weight="bold" text-anchor="end" transform="rotate(-60, 129.53846153846155, 512.4)">
30k_ifelse
</text>
<rect x="162.07692307692307" y="479.85952726364906" width="21.69230769230769" height="18.140472736350873" fill="#7070f8" data-tooltip="1.00x baseline speed (No JIT)"/>
<line x1="162.07692307692307" y1="479.85587925357174" x2="183.76923076923075" y2="479.85587925357174" stroke="#000"/>
<line x1="162.07692307692307" y1="479.8631752737263" x2="183.76923076923075" y2="479.8631752737263" stroke="#000"/>
<line x1="172.9230769230769" y1="479.85587925357174" x2="172.9230769230769" y2="479.8631752737263" stroke="#000"/>
<rect x="183.76923076923075" y="353.1270991187777" width="21.69230769230769" height="144.87290088122222" fill="orange" data-tooltip="7.99x baseline speed (YJIT)"/>
<line x1="183.76923076923075" y1="353.0833092334293" x2="205.46153846153842" y2="353.0833092334293" stroke="#000"/>
<line x1="183.76923076923075" y1="353.17088900412614" x2="205.46153846153842" y2="353.17088900412614" stroke="#000"/>
<line x1="194.61538461538458" y1="353.0833092334293" x2="194.61538461538458" y2="353.17088900412614" stroke="#000"/>
<line x1="194.6153846153846" y1="498.0" x2="194.6153846153846" y2="502.79999999999995" stroke="#000"/>
<text x="194.6153846153846" y="512.4" fill="#111" font-size="small" font-family="monospace" font-weight="bold" text-anchor="end" transform="rotate(-60, 194.6153846153846, 512.4)">
30k_methods
</text>
<rect x="227.15384615384616" y="479.85952726364906" width="21.69230769230769" height="18.140472736350873" fill="#7070f8" data-tooltip="1.00x baseline speed (No JIT)"/>
<line x1="227.15384615384616" y1="479.7914494492605" x2="248.84615384615384" y2="479.7914494492605" stroke="#000"/>
<line x1="227.15384615384616" y1="479.92760507803763" x2="248.84615384615384" y2="479.92760507803763" stroke="#000"/>
<line x1="238.0" y1="479.7914494492605" x2="238.0" y2="479.92760507803763" stroke="#000"/>
<rect x="248.84615384615384" y="411.2163644610444" width="21.69230769230769" height="86.7836355389555" fill="orange" data-tooltip="4.78x baseline speed (YJIT)"/>
<line x1="248.84615384615384" y1="410.8890783759004" x2="270.5384615384615" y2="410.8890783759004" stroke="#000"/>
<line x1="248.84615384615384" y1="411.54365054618836" x2="270.5384615384615" y2="411.54365054618836" stroke="#000"/>
<line x1="259.6923076923077" y1="410.8890783759004" x2="259.6923076923077" y2="411.54365054618836" stroke="#000"/>
<line x1="259.6923076923077" y1="498.0" x2="259.6923076923077" y2="502.79999999999995" stroke="#000"/>
<text x="259.6923076923077" y="512.4" fill="#111" font-size="small" font-family="monospace" font-weight="bold" text-anchor="end" transform="rotate(-60, 259.6923076923077, 512.4)">
cfunc_itself
</text>
<rect x="292.23076923076917" y="479.85952726364906" width="21.69230769230769" height="18.140472736350873" fill="#7070f8" data-tooltip="1.00x baseline speed (No JIT)"/>
<line x1="292.23076923076917" y1="479.8533795332925" x2="313.92307692307685" y2="479.8533795332925" stroke="#000"/>
<line x1="292.23076923076917" y1="479.8656749940056" x2="313.92307692307685" y2="479.8656749940056" stroke="#000"/>
<line x1="303.07692307692304" y1="479.8533795332925" x2="303.07692307692304" y2="479.8656749940056" stroke="#000"/>
<rect x="313.92307692307685" y="398.9388127470329" width="21.69230769230769" height="99.06118725296706" fill="orange" data-tooltip="5.46x baseline speed (YJIT)"/>
<line x1="313.92307692307685" y1="398.7915669547604" x2="335.6153846153845" y2="398.7915669547604" stroke="#000"/>
<line x1="313.92307692307685" y1="399.0860585393054" x2="335.6153846153845" y2="399.0860585393054" stroke="#000"/>
<line x1="324.7692307692307" y1="398.7915669547604" x2="324.7692307692307" y2="399.0860585393054" stroke="#000"/>
<line x1="324.7692307692307" y1="498.0" x2="324.7692307692307" y2="502.79999999999995" stroke="#000"/>
<text x="324.7692307692307" y="512.4" fill="#111" font-size="small" font-family="monospace" font-weight="bold" text-anchor="end" transform="rotate(-60, 324.7692307692307, 512.4)">
fib
</text>
<rect x="357.3076923076923" y="479.85952726364906" width="21.69230769230769" height="18.140472736350873" fill="#7070f8" data-tooltip="1.00x baseline speed (No JIT)"/>
<line x1="357.3076923076923" y1="479.807232821803" x2="379.0" y2="479.807232821803" stroke="#000"/>
<line x1="357.3076923076923" y1="479.9118217054951" x2="379.0" y2="479.9118217054951" stroke="#000"/>
<line x1="368.1538461538462" y1="479.807232821803" x2="368.1538461538462" y2="479.9118217054951" stroke="#000"/>
<rect x="379.0" y="381.4982834790383" width="21.69230769230769" height="116.50171652096162" fill="orange" data-tooltip="6.42x baseline speed (YJIT)"/>
<line x1="379.0" y1="380.53108425950614" x2="400.6923076923077" y2="380.53108425950614" stroke="#000"/>
<line x1="379.0" y1="382.46548269857044" x2="400.6923076923077" y2="382.46548269857044" stroke="#000"/>
<line x1="389.84615384615387" y1="380.53108425950614" x2="389.84615384615387" y2="382.46548269857044" stroke="#000"/>
<line x1="389.84615384615387" y1="498.0" x2="389.84615384615387" y2="502.79999999999995" stroke="#000"/>
<text x="389.84615384615387" y="512.4" fill="#111" font-size="small" font-family="monospace" font-weight="bold" text-anchor="end" transform="rotate(-60, 389.84615384615387, 512.4)">
getivar
</text>
<rect x="422.38461538461536" y="479.85952726364906" width="21.69230769230769" height="18.140472736350873" fill="#7070f8" data-tooltip="1.00x baseline speed (No JIT)"/>
<line x1="422.38461538461536" y1="479.84716313472813" x2="444.07692307692304" y2="479.84716313472813" stroke="#000"/>
<line x1="422.38461538461536" y1="479.8718913925699" x2="444.07692307692304" y2="479.8718913925699" stroke="#000"/>
<line x1="433.23076923076917" y1="479.84716313472813" x2="433.23076923076917" y2="479.8718913925699" stroke="#000"/>
<rect x="444.07692307692304" y="352.2626566507578" width="21.69230769230769" height="145.7373433492422" fill="orange" data-tooltip="8.03x baseline speed (YJIT)"/>
<line x1="444.07692307692304" y1="352.0853224610612" x2="465.7692307692307" y2="352.0853224610612" stroke="#000"/>
<line x1="444.07692307692304" y1="352.4399908404543" x2="465.7692307692307" y2="352.4399908404543" stroke="#000"/>
<line x1="454.92307692307685" y1="352.0853224610612" x2="454.92307692307685" y2="352.4399908404543" stroke="#000"/>
<line x1="454.92307692307685" y1="498.0" x2="454.92307692307685" y2="502.79999999999995" stroke="#000"/>
<text x="454.92307692307685" y="512.4" fill="#111" font-size="small" font-family="monospace" font-weight="bold" text-anchor="end" transform="rotate(-60, 454.92307692307685, 512.4)">
keyword_args
</text>
<rect x="487.4615384615384" y="479.85952726364906" width="21.69230769230769" height="18.140472736350873" fill="#7070f8" data-tooltip="1.00x baseline speed (No JIT)"/>
<line x1="487.4615384615384" y1="479.7881467646757" x2="509.1538461538461" y2="479.7881467646757" stroke="#000"/>
<line x1="487.4615384615384" y1="479.93090776262244" x2="509.1538461538461" y2="479.93090776262244" stroke="#000"/>
<line x1="498.3076923076922" y1="479.7881467646757" x2="498.3076923076922" y2="479.93090776262244" stroke="#000"/>
<rect x="509.1538461538461" y="100.19999999999999" width="21.69230769230769" height="397.79999999999995" fill="orange" data-tooltip="21.93x baseline speed (YJIT)"/>
<line x1="509.1538461538461" y1="97.09101553070411" x2="530.8461538461537" y2="97.09101553070411" stroke="#000"/>
<line x1="509.1538461538461" y1="103.30898446929586" x2="530.8461538461537" y2="103.30898446929586" stroke="#000"/>
<line x1="519.9999999999999" y1="97.09101553070411" x2="519.9999999999999" y2="103.30898446929586" stroke="#000"/>
<line x1="519.9999999999999" y1="498.0" x2="519.9999999999999" y2="502.79999999999995" stroke="#000"/>
<text x="519.9999999999999" y="512.4" fill="#111" font-size="small" font-family="monospace" font-weight="bold" text-anchor="end" transform="rotate(-60, 519.9999999999999, 512.4)">
respond_to
</text>
<rect x="552.5384615384615" y="479.85952726364906" width="21.69230769230769" height="18.140472736350873" fill="#7070f8" data-tooltip="1.00x baseline speed (No JIT)"/>
<line x1="552.5384615384615" y1="479.84519444926445" x2="574.2307692307692" y2="479.84519444926445" stroke="#000"/>
<line x1="552.5384615384615" y1="479.87386007803366" x2="574.2307692307692" y2="479.87386007803366" stroke="#000"/>
<line x1="563.3846153846154" y1="479.84519444926445" x2="563.3846153846154" y2="479.87386007803366" stroke="#000"/>
<rect x="574.2307692307692" y="434.8609510416163" width="21.69230769230769" height="63.139048958383654" fill="orange" data-tooltip="3.48x baseline speed (YJIT)"/>
<line x1="574.2307692307692" y1="434.7813910835492" x2="595.9230769230769" y2="434.7813910835492" stroke="#000"/>
<line x1="574.2307692307692" y1="434.9405109996835" x2="595.9230769230769" y2="434.9405109996835" stroke="#000"/>
<line x1="585.0769230769231" y1="434.7813910835492" x2="585.0769230769231" y2="434.9405109996835" stroke="#000"/>
<line x1="585.0769230769231" y1="498.0" x2="585.0769230769231" y2="502.79999999999995" stroke="#000"/>
<text x="585.0769230769231" y="512.4" fill="#111" font-size="small" font-family="monospace" font-weight="bold" text-anchor="end" transform="rotate(-60, 585.0769230769231, 512.4)">
ruby-xor
</text>
<rect x="617.6153846153845" y="479.85952726364906" width="21.69230769230769" height="18.140472736350873" fill="#7070f8" data-tooltip="1.00x baseline speed (No JIT)"/>
<line x1="617.6153846153845" y1="479.79649244112903" x2="639.3076923076923" y2="479.79649244112903" stroke="#000"/>
<line x1="617.6153846153845" y1="479.9225620861691" x2="639.3076923076923" y2="479.9225620861691" stroke="#000"/>
<line x1="628.4615384615385" y1="479.79649244112903" x2="628.4615384615385" y2="479.9225620861691" stroke="#000"/>
<rect x="639.3076923076923" y="391.4797524069716" width="21.69230769230769" height="106.5202475930283" fill="orange" data-tooltip="5.87x baseline speed (YJIT)"/>
<line x1="639.3076923076923" y1="391.1045880024128" x2="660.9999999999999" y2="391.1045880024128" stroke="#000"/>
<line x1="639.3076923076923" y1="391.8549168115305" x2="660.9999999999999" y2="391.8549168115305" stroke="#000"/>
<line x1="650.1538461538461" y1="391.1045880024128" x2="650.1538461538461" y2="391.8549168115305" stroke="#000"/>
<line x1="650.1538461538461" y1="498.0" x2="650.1538461538461" y2="502.79999999999995" stroke="#000"/>
<text x="650.1538461538461" y="512.4" fill="#111" font-size="small" font-family="monospace" font-weight="bold" text-anchor="end" transform="rotate(-60, 650.1538461538461, 512.4)">
setivar
</text>
<rect x="682.6923076923076" y="479.85952726364906" width="21.69230769230769" height="18.140472736350873" fill="#7070f8" data-tooltip="1.00x baseline speed (No JIT)"/>
<line x1="682.6923076923076" y1="476.30984934248875" x2="704.3846153846152" y2="476.30984934248875" stroke="#000"/>
<line x1="682.6923076923076" y1="483.4092051848093" x2="704.3846153846152" y2="483.4092051848093" stroke="#000"/>
<line x1="693.5384615384614" y1="476.30984934248875" x2="693.5384615384614" y2="483.4092051848093" stroke="#000"/>
<rect x="704.3846153846152" y="460.0989169837371" width="21.69230769230769" height="37.901083016262774" fill="orange" data-tooltip="2.09x baseline speed (YJIT)"/>
<line x1="704.3846153846152" y1="443.3814111857288" x2="726.076923076923" y2="443.3814111857288" stroke="#000"/>
<line x1="704.3846153846152" y1="476.8164227817455" x2="726.076923076923" y2="476.8164227817455" stroke="#000"/>
<line x1="715.2307692307692" y1="443.3814111857288" x2="715.2307692307692" y2="476.8164227817455" stroke="#000"/>
<line x1="715.2307692307692" y1="498.0" x2="715.2307692307692" y2="502.79999999999995" stroke="#000"/>
<text x="715.2307692307692" y="512.4" fill="#111" font-size="small" font-family="monospace" font-weight="bold" text-anchor="end" transform="rotate(-60, 715.2307692307692, 512.4)">
setivar_object
</text>
<rect x="747.7692307692307" y="479.85952726364906" width="21.69230769230769" height="18.140472736350873" fill="#7070f8" data-tooltip="1.00x baseline speed (No JIT)"/>
<line x1="747.7692307692307" y1="477.64158509130783" x2="769.4615384615385" y2="477.64158509130783" stroke="#000"/>
<line x1="747.7692307692307" y1="482.0774694359903" x2="769.4615384615385" y2="482.0774694359903" stroke="#000"/>
<line x1="758.6153846153845" y1="477.64158509130783" x2="758.6153846153845" y2="482.0774694359903" stroke="#000"/>
<rect x="769.4615384615385" y="457.3188484965335" width="21.69230769230769" height="40.68115150346633" fill="orange" data-tooltip="2.24x baseline speed (YJIT)"/>
<line x1="769.4615384615385" y1="445.1376860263672" x2="791.1538461538461" y2="445.1376860263672" stroke="#000"/>
<line x1="769.4615384615385" y1="469.50001096669996" x2="791.1538461538461" y2="469.50001096669996" stroke="#000"/>
<line x1="780.3076923076923" y1="445.1376860263672" x2="780.3076923076923" y2="469.50001096669996" stroke="#000"/>
<line x1="780.3076923076923" y1="498.0" x2="780.3076923076923" y2="502.79999999999995" stroke="#000"/>
<text x="780.3076923076923" y="512.4" fill="#111" font-size="small" font-family="monospace" font-weight="bold" text-anchor="end" transform="rotate(-60, 780.3076923076923, 512.4)">
setivar_young
</text>
<rect x="812.8461538461538" y="479.85952726364906" width="21.69230769230769" height="18.140472736350873" fill="#7070f8" data-tooltip="1.00x baseline speed (No JIT)"/>
<line x1="812.8461538461538" y1="479.6997739123965" x2="834.5384615384614" y2="479.6997739123965" stroke="#000"/>
<line x1="812.8461538461538" y1="480.0192806149016" x2="834.5384615384614" y2="480.0192806149016" stroke="#000"/>
<line x1="823.6923076923076" y1="479.6997739123965" x2="823.6923076923076" y2="480.0192806149016" stroke="#000"/>
<rect x="834.5384615384614" y="463.28453607422836" width="21.69230769230769" height="34.71546392577159" fill="orange" data-tooltip="1.91x baseline speed (YJIT)"/>
<line x1="834.5384615384614" y1="462.5937016287936" x2="856.2307692307692" y2="462.5937016287936" stroke="#000"/>
<line x1="834.5384615384614" y1="463.9753705196631" x2="856.2307692307692" y2="463.9753705196631" stroke="#000"/>
<line x1="845.3846153846152" y1="462.5937016287936" x2="845.3846153846152" y2="463.9753705196631" stroke="#000"/>
<line x1="845.3846153846152" y1="498.0" x2="845.3846153846152" y2="502.79999999999995" stroke="#000"/>
<text x="845.3846153846152" y="512.4" fill="#111" font-size="small" font-family="monospace" font-weight="bold" text-anchor="end" transform="rotate(-60, 845.3846153846152, 512.4)">
str_concat
</text>
<rect x="877.9230769230768" y="479.85952726364906" width="21.69230769230769" height="18.140472736350873" fill="#7070f8" data-tooltip="1.00x baseline speed (No JIT)"/>
<line x1="877.9230769230768" y1="479.8251487083862" x2="899.6153846153845" y2="479.8251487083862" stroke="#000"/>
<line x1="877.9230769230768" y1="479.8939058189119" x2="899.6153846153845" y2="479.8939058189119" stroke="#000"/>
<line x1="888.7692307692306" y1="479.8251487083862" x2="888.7692307692306" y2="479.8939058189119" stroke="#000"/>
<rect x="899.6153846153845" y="475.5300843249246" width="21.69230769230769" height="22.469915675075327" fill="orange" data-tooltip="1.24x baseline speed (YJIT)"/>
<line x1="899.6153846153845" y1="475.4578094470282" x2="921.3076923076922" y2="475.4578094470282" stroke="#000"/>
<line x1="899.6153846153845" y1="475.60235920282094" x2="921.3076923076922" y2="475.60235920282094" stroke="#000"/>
<line x1="910.4615384615383" y1="475.4578094470282" x2="910.4615384615383" y2="475.60235920282094" stroke="#000"/>
<line x1="910.4615384615383" y1="498.0" x2="910.4615384615383" y2="502.79999999999995" stroke="#000"/>
<text x="910.4615384615383" y="512.4" fill="#111" font-size="small" font-family="monospace" font-weight="bold" text-anchor="end" transform="rotate(-60, 910.4615384615383, 512.4)">
throw
</text>
</svg>