<svg viewBox="0 0 1000 600" xmlns="http://www.w3.org/2000/svg" xmlns:xlink="http://www.w3.org/1999/xlink" width="100%" height="100%">

<rect x="50.0" y="30.0" width="940.0" height="467.99999999999994" stroke="#000" fill="#EEE"/>
<line x1="42.0" y1="497.9999999999999" x2="50.0" y2="497.9999999999999" stroke="#000"/>
<text x="26.000000000000004" y="497.9999999999999" text-anchor="end" font-weight="bold" font-size="small" fill="#111">
0.0
</text>
<line x1="42.0" y1="400.1376278740974" x2="50.0" y2="400.1376278740974" stroke="#000"/>
<text x="26.000000000000004" y="400.1376278740974" text-anchor="end" font-weight="bold" font-size="small" fill="#111">
0.5
</text>
<line x1="42.0" y1="302.27525574819487" x2="50.0" y2="302.27525574819487" stroke="#000"/>
<text x="26.000000000000004" y="302.27525574819487" text-anchor="end" font-weight="bold" font-size="small" fill="#111">
1.0
</text>
<line x1="42.0" y1="204.41288362229233" x2="50.0" y2="204.41288362229233" stroke="#000"/>
<text x="26.000000000000004" y="204.41288362229233" text-anchor="end" font-weight="bold" font-size="small" fill="#111">
1.5
</text>
<line x1="42.0" y1="106.55051149638975" x2="50.0" y2="106.55051149638975" stroke="#000"/>
<text x="26.000000000000004" y="106.55051149638975" text-anchor="end" font-weight="bold" font-size="small" fill="#111">
2.0
</text>
<rect x="268.5" y="36.00000000000001" width="80.0" height="18.0" fill="#7070f8" stroke="#888"/>
<text x="308.5" y="52.50000000000001" font-size="small" text-anchor="middle" font-weight="bold" fill="#EEE">
No JIT
</text>
<rect x="691.4999999999999" y="36.00000000000001" width="80.0" height="18.0" fill="orange" stroke="#888"/>
<text x="731.4999999999999" y="52.50000000000001" font-size="small" text-anchor="middle" font-weight="bold" fill="#EEE">
YJIT
</text>
<rect x="97.0" y="302.27525574819487" width="20.142857142857142" height="195.7247442518051" fill="#7070f8" data-tooltip="1.00x baseline speed (No JIT)"/>
<line x1="97.0" y1="301.703776355083" x2="117.14285714285714" y2="301.703776355083" stroke="#000"/>
<line x1="97.0" y1="302.84673514130674" x2="117.14285714285714" y2="302.84673514130674" stroke="#000"/>
<line x1="107.07142857142857" y1="301.703776355083" x2="107.07142857142857" y2="302.84673514130674" stroke="#000"/>
<rect x="117.14285714285714" y="179.00562816217757" width="20.142857142857142" height="318.9943718378224" fill="orange" data-tooltip="1.63x baseline speed (YJIT)"/>
<line x1="117.14285714285714" y1="177.23317054800026" x2="137.28571428571428" y2="177.23317054800026" stroke="#000"/>
<line x1="117.14285714285714" y1="180.77808577635489" x2="137.28571428571428" y2="180.77808577635489" stroke="#000"/>
<line x1="127.21428571428572" y1="177.23317054800026" x2="127.21428571428572" y2="180.77808577635489" stroke="#000"/>
<line x1="127.21428571428572" y1="498.0" x2="127.21428571428572" y2="502.79999999999995" stroke="#000"/>
<text x="127.21428571428572" y="512.4" fill="#111" font-size="small" font-family="monospace" font-weight="bold" text-anchor="end" transform="rotate(-60, 127.21428571428572, 512.4)">
activerecord
</text>
<rect x="157.42857142857142" y="302.27525574819487" width="20.142857142857142" height="195.7247442518051" fill="#7070f8" data-tooltip="1.00x baseline speed (No JIT)"/>
<line x1="157.42857142857142" y1="300.5625829313812" x2="177.57142857142856" y2="300.5625829313812" stroke="#000"/>
<line x1="157.42857142857142" y1="303.98792856500853" x2="177.57142857142856" y2="303.98792856500853" stroke="#000"/>
<line x1="167.49999999999997" y1="300.5625829313812" x2="167.49999999999997" y2="303.98792856500853" stroke="#000"/>
<rect x="177.57142857142856" y="116.9451788622723" width="20.142857142857142" height="381.05482113772763" fill="orange" data-tooltip="1.95x baseline speed (YJIT)"/>
<line x1="177.57142857142856" y1="113.46405062465753" x2="197.71428571428567" y2="113.46405062465753" stroke="#000"/>
<line x1="177.57142857142856" y1="120.42630709988707" x2="197.71428571428567" y2="120.42630709988707" stroke="#000"/>
<line x1="187.6428571428571" y1="113.46405062465753" x2="187.6428571428571" y2="120.42630709988707" stroke="#000"/>
<line x1="187.64285714285714" y1="498.0" x2="187.64285714285714" y2="502.79999999999995" stroke="#000"/>
<text x="187.64285714285714" y="512.4" fill="#111" font-size="small" font-family="monospace" font-weight="bold" text-anchor="end" transform="rotate(-60, 187.64285714285714, 512.4)">
chunky-png
</text>
<rect x="217.85714285714286" y="302.27525574819487" width="20.142857142857142" height="195.7247442518051" fill="#7070f8" data-tooltip="1.00x baseline speed (No JIT)"/>
<line x1="217.85714285714286" y1="302.17180101208123" x2="238.0" y2="302.17180101208123" stroke="#000"/>
<line x1="217.85714285714286" y1="302.3787104843085" x2="238.0" y2="302.3787104843085" stroke="#000"/>
<line x1="227.92857142857142" y1="302.17180101208123" x2="227.92857142857142" y2="302.3787104843085" stroke="#000"/>
<rect x="238.0" y="200.64948628016126" width="20.142857142857142" height="297.3505137198387" fill="orange" data-tooltip="1.52x baseline speed (YJIT)"/>
<line x1="238.0" y1="200.2988033513832" x2="258.1428571428571" y2="200.2988033513832" stroke="#000"/>
<line x1="238.0" y1="201.00016920893927" x2="258.1428571428571" y2="201.00016920893927" stroke="#000"/>
<line x1="248.07142857142856" y1="200.2988033513832" x2="248.07142857142856" y2="201.00016920893927" stroke="#000"/>
<line x1="248.07142857142858" y1="498.0" x2="248.07142857142858" y2="502.79999999999995" stroke="#000"/>
<text x="248.07142857142858" y="512.4" fill="#111" font-size="small" font-family="monospace" font-weight="bold" text-anchor="end" transform="rotate(-60, 248.07142857142858, 512.4)">
erubi-rails
</text>
<rect x="278.2857142857142" y="302.27525574819487" width="20.142857142857142" height="195.7247442518051" fill="#7070f8" data-tooltip="1.00x baseline speed (No JIT)"/>
<line x1="278.2857142857142" y1="301.6663840046377" x2="298.4285714285714" y2="301.6663840046377" stroke="#000"/>
<line x1="278.2857142857142" y1="302.88412749175205" x2="298.4285714285714" y2="302.88412749175205" stroke="#000"/>
<line x1="288.35714285714283" y1="301.6663840046377" x2="288.35714285714283" y2="302.88412749175205" stroke="#000"/>
<rect x="298.4285714285714" y="177.16408699924006" width="20.142857142857142" height="320.8359130007599" fill="orange" data-tooltip="1.64x baseline speed (YJIT)"/>
<line x1="298.4285714285714" y1="172.09468692616704" x2="318.5714285714285" y2="172.09468692616704" stroke="#000"/>
<line x1="298.4285714285714" y1="182.23348707231304" x2="318.5714285714285" y2="182.23348707231304" stroke="#000"/>
<line x1="308.49999999999994" y1="172.09468692616704" x2="308.49999999999994" y2="182.23348707231304" stroke="#000"/>
<line x1="308.49999999999994" y1="498.0" x2="308.49999999999994" y2="502.79999999999995" stroke="#000"/>
<text x="308.49999999999994" y="512.4" fill="#111" font-size="small" font-family="monospace" font-weight="bold" text-anchor="end" transform="rotate(-60, 308.49999999999994, 512.4)">
hexapdf
</text>
<rect x="338.7142857142857" y="302.27525574819487" width="20.142857142857142" height="195.7247442518051" fill="#7070f8" data-tooltip="1.00x baseline speed (No JIT)"/>
<line x1="338.7142857142857" y1="301.3851160627491" x2="358.8571428571429" y2="301.3851160627491" stroke="#000"/>
<line x1="338.7142857142857" y1="303.16539543364064" x2="358.8571428571429" y2="303.16539543364064" stroke="#000"/>
<line x1="348.78571428571433" y1="301.3851160627491" x2="348.78571428571433" y2="303.16539543364064" stroke="#000"/>
<rect x="358.8571428571429" y="239.40437175448852" width="20.142857142857142" height="258.5956282455114" fill="orange" data-tooltip="1.32x baseline speed (YJIT)"/>
<line x1="358.8571428571429" y1="237.59766531533305" x2="379.0" y2="237.59766531533305" stroke="#000"/>
<line x1="358.8571428571429" y1="241.211078193644" x2="379.0" y2="241.211078193644" stroke="#000"/>
<line x1="368.92857142857144" y1="237.59766531533305" x2="368.92857142857144" y2="241.211078193644" stroke="#000"/>
<line x1="368.92857142857144" y1="498.0" x2="368.92857142857144" y2="502.79999999999995" stroke="#000"/>
<text x="368.92857142857144" y="512.4" fill="#111" font-size="small" font-family="monospace" font-weight="bold" text-anchor="end" transform="rotate(-60, 368.92857142857144, 512.4)">
liquid-c
</text>
<rect x="399.1428571428571" y="302.27525574819487" width="20.142857142857142" height="195.7247442518051" fill="#7070f8" data-tooltip="1.00x baseline speed (No JIT)"/>
<line x1="399.1428571428571" y1="301.9793289460466" x2="419.2857142857143" y2="301.9793289460466" stroke="#000"/>
<line x1="399.1428571428571" y1="302.5711825503431" x2="419.2857142857143" y2="302.5711825503431" stroke="#000"/>
<line x1="409.2142857142857" y1="301.9793289460466" x2="409.2142857142857" y2="302.5711825503431" stroke="#000"/>
<rect x="419.2857142857143" y="243.13494197254852" width="20.142857142857142" height="254.8650580274514" fill="orange" data-tooltip="1.30x baseline speed (YJIT)"/>
<line x1="419.2857142857143" y1="233.68506744039604" x2="439.4285714285714" y2="233.68506744039604" stroke="#000"/>
<line x1="419.2857142857143" y1="252.584816504701" x2="439.4285714285714" y2="252.584816504701" stroke="#000"/>
<line x1="429.35714285714283" y1="233.68506744039604" x2="429.35714285714283" y2="252.584816504701" stroke="#000"/>
<line x1="429.35714285714283" y1="498.0" x2="429.35714285714283" y2="502.79999999999995" stroke="#000"/>
<text x="429.35714285714283" y="512.4" fill="#111" font-size="small" font-family="monospace" font-weight="bold" text-anchor="end" transform="rotate(-60, 429.35714285714283, 512.4)">
liquid-compile
</text>
<rect x="459.5714285714285" y="302.27525574819487" width="20.142857142857142" height="195.7247442518051" fill="#7070f8" data-tooltip="1.00x baseline speed (No JIT)"/>
<line x1="459.5714285714285" y1="302.0680519896393" x2="479.71428571428567" y2="302.0680519896393" stroke="#000"/>
<line x1="459.5714285714285" y1="302.48245950675044" x2="479.71428571428567" y2="302.48245950675044" stroke="#000"/>
<line x1="469.6428571428571" y1="302.0680519896393" x2="469.6428571428571" y2="302.48245950675044" stroke="#000"/>
<rect x="479.71428571428567" y="100.19999999999999" width="20.142857142857142" height="397.79999999999995" fill="orange" data-tooltip="2.03x baseline speed (YJIT)"/>
<line x1="479.71428571428567" y1="99.53142656837883" x2="499.8571428571428" y2="99.53142656837883" stroke="#000"/>
<line x1="479.71428571428567" y1="100.86857343162114" x2="499.8571428571428" y2="100.86857343162114" stroke="#000"/>
<line x1="489.7857142857142" y1="99.53142656837883" x2="489.7857142857142" y2="100.86857343162114" stroke="#000"/>
<line x1="489.7857142857142" y1="498.0" x2="489.7857142857142" y2="502.79999999999995" stroke="#000"/>
<text x="489.7857142857142" y="512.4" fill="#111" font-size="small" font-family="monospace" font-weight="bold" text-anchor="end" transform="rotate(-60, 489.7857142857142, 512.4)">
liquid-render
</text>
<rect x="520.0" y="302.27525574819487" width="20.142857142857142" height="195.7247442518051" fill="#7070f8" data-tooltip="1.00x baseline speed (No JIT)"/>
<line x1="520.0" y1="301.5591476368174" x2="540.1428571428571" y2="301.5591476368174" stroke="#000"/>
<line x1="520.0" y1="302.99136385957235" x2="540.1428571428571" y2="302.99136385957235" stroke="#000"/>
<line x1="530.0714285714287" y1="301.5591476368174" x2="530.0714285714287" y2="302.99136385957235" stroke="#000"/>
<rect x="540.1428571428571" y="216.42326109499675" width="20.142857142857142" height="281.5767389050032" fill="orange" data-tooltip="1.44x baseline speed (YJIT)"/>
<line x1="540.1428571428571" y1="212.5357425304587" x2="560.2857142857142" y2="212.5357425304587" stroke="#000"/>
<line x1="540.1428571428571" y1="220.31077965953483" x2="560.2857142857142" y2="220.31077965953483" stroke="#000"/>
<line x1="550.2142857142858" y1="212.5357425304587" x2="550.2142857142858" y2="220.31077965953483" stroke="#000"/>
<line x1="550.2142857142858" y1="498.0" x2="550.2142857142858" y2="502.79999999999995" stroke="#000"/>
<text x="550.2142857142858" y="512.4" fill="#111" font-size="small" font-family="monospace" font-weight="bold" text-anchor="end" transform="rotate(-60, 550.2142857142858, 512.4)">
lobsters
</text>
<rect x="580.4285714285714" y="302.27525574819487" width="20.142857142857142" height="195.7247442518051" fill="#7070f8" data-tooltip="1.00x baseline speed (No JIT)"/>
<line x1="580.4285714285714" y1="302.0038510568205" x2="600.5714285714286" y2="302.0038510568205" stroke="#000"/>
<line x1="580.4285714285714" y1="302.5466604395693" x2="600.5714285714286" y2="302.5466604395693" stroke="#000"/>
<line x1="590.5" y1="302.0038510568205" x2="590.5" y2="302.5466604395693" stroke="#000"/>
<rect x="600.5714285714286" y="225.58551313322155" width="20.142857142857142" height="272.4144868667784" fill="orange" data-tooltip="1.39x baseline speed (YJIT)"/>
<line x1="600.5714285714286" y1="224.98083128926305" x2="620.7142857142857" y2="224.98083128926305" stroke="#000"/>
<line x1="600.5714285714286" y1="226.19019497718003" x2="620.7142857142857" y2="226.19019497718003" stroke="#000"/>
<line x1="610.6428571428571" y1="224.98083128926305" x2="610.6428571428571" y2="226.19019497718003" stroke="#000"/>
<line x1="610.6428571428571" y1="498.0" x2="610.6428571428571" y2="502.79999999999995" stroke="#000"/>
<text x="610.6428571428571" y="512.4" fill="#111" font-size="small" font-family="monospace" font-weight="bold" text-anchor="end" transform="rotate(-60, 610.6428571428571, 512.4)">
mail
</text>
<rect x="640.8571428571428" y="302.27525574819487" width="20.142857142857142" height="195.7247442518051" fill="#7070f8" data-tooltip="1.00x baseline speed (No JIT)"/>
<line x1="640.8571428571428" y1="302.1293954020188" x2="660.9999999999999" y2="302.1293954020188" stroke="#000"/>
<line x1="640.8571428571428" y1="302.4211160943709" x2="660.9999999999999" y2="302.4211160943709" stroke="#000"/>
<line x1="650.9285714285714" y1="302.1293954020188" x2="650.9285714285714" y2="302.4211160943709" stroke="#000"/>
<rect x="660.9999999999999" y="153.65151486762937" width="20.142857142857142" height="344.34848513237057" fill="orange" data-tooltip="1.76x baseline speed (YJIT)"/>
<line x1="660.9999999999999" y1="153.19469846945998" x2="681.142857142857" y2="153.19469846945998" stroke="#000"/>
<line x1="660.9999999999999" y1="154.10833126579877" x2="681.142857142857" y2="154.10833126579877" stroke="#000"/>
<line x1="671.0714285714286" y1="153.19469846945998" x2="671.0714285714286" y2="154.10833126579877" stroke="#000"/>
<line x1="671.0714285714286" y1="498.0" x2="671.0714285714286" y2="502.79999999999995" stroke="#000"/>
<text x="671.0714285714286" y="512.4" fill="#111" font-size="small" font-family="monospace" font-weight="bold" text-anchor="end" transform="rotate(-60, 671.0714285714286, 512.4)">
psych-load
</text>
<rect x="701.2857142857143" y="302.27525574819487" width="20.142857142857142" height="195.7247442518051" fill="#7070f8" data-tooltip="1.00x baseline speed (No JIT)"/>
<line x1="701.2857142857143" y1="302.1910010505632" x2="721.4285714285714" y2="302.1910010505632" stroke="#000"/>
<line x1="701.2857142857143" y1="302.3595104458265" x2="721.4285714285714" y2="302.3595104458265" stroke="#000"/>
<line x1="711.3571428571429" y1="302.1910010505632" x2="711.3571428571429" y2="302.3595104458265" stroke="#000"/>
<rect x="721.4285714285714" y="178.77209136827338" width="20.142857142857142" height="319.2279086317265" fill="orange" data-tooltip="1.63x baseline speed (YJIT)"/>
<line x1="721.4285714285714" y1="178.5797955822449" x2="741.5714285714286" y2="178.5797955822449" stroke="#000"/>
<line x1="721.4285714285714" y1="178.96438715430185" x2="741.5714285714286" y2="178.96438715430185" stroke="#000"/>
<line x1="731.5" y1="178.5797955822449" x2="731.5" y2="178.96438715430185" stroke="#000"/>
<line x1="731.5" y1="498.0" x2="731.5" y2="502.79999999999995" stroke="#000"/>
<text x="731.5" y="512.4" fill="#111" font-size="small" font-family="monospace" font-weight="bold" text-anchor="end" transform="rotate(-60, 731.5, 512.4)">
railsbench
</text>
<rect x="761.7142857142857" y="302.27525574819487" width="20.142857142857142" height="195.7247442518051" fill="#7070f8" data-tooltip="1.00x baseline speed (No JIT)"/>
<line x1="761.7142857142857" y1="301.52205813654024" x2="781.8571428571428" y2="301.52205813654024" stroke="#000"/>
<line x1="761.7142857142857" y1="303.0284533598495" x2="781.8571428571428" y2="303.0284533598495" stroke="#000"/>
<line x1="771.7857142857143" y1="301.52205813654024" x2="771.7857142857143" y2="303.0284533598495" stroke="#000"/>
<rect x="781.8571428571428" y="214.01231906902197" width="20.142857142857142" height="283.987680930978" fill="orange" data-tooltip="1.45x baseline speed (YJIT)"/>
<line x1="781.8571428571428" y1="193.2652448343151" x2="801.9999999999999" y2="193.2652448343151" stroke="#000"/>
<line x1="781.8571428571428" y1="234.75939330372884" x2="801.9999999999999" y2="234.75939330372884" stroke="#000"/>
<line x1="791.9285714285714" y1="193.2652448343151" x2="791.9285714285714" y2="234.75939330372884" stroke="#000"/>
<line x1="791.9285714285714" y1="498.0" x2="791.9285714285714" y2="502.79999999999995" stroke="#000"/>
<text x="791.9285714285714" y="512.4" fill="#111" font-size="small" font-family="monospace" font-weight="bold" text-anchor="end" transform="rotate(-60, 791.9285714285714, 512.4)">
rubocop
</text>
<rect x="822.1428571428571" y="302.27525574819487" width="20.142857142857142" height="195.7247442518051" fill="#7070f8" data-tooltip="1.00x baseline speed (No JIT)"/>
<line x1="822.1428571428571" y1="301.972650715197" x2="842.2857142857142" y2="301.972650715197" stroke="#000"/>
<line x1="822.1428571428571" y1="302.5778607811927" x2="842.2857142857142" y2="302.5778607811927" stroke="#000"/>
<line x1="832.2142857142857" y1="301.972650715197" x2="832.2142857142857" y2="302.5778607811927" stroke="#000"/>
<rect x="842.2857142857142" y="244.4423847546569" width="20.142857142857142" height="253.55761524534304" fill="orange" data-tooltip="1.30x baseline speed (YJIT)"/>
<line x1="842.2857142857142" y1="243.96907184874337" x2="862.4285714285713" y2="243.96907184874337" stroke="#000"/>
<line x1="842.2857142857142" y1="244.91569766057046" x2="862.4285714285713" y2="244.91569766057046" stroke="#000"/>
<line x1="852.3571428571428" y1="243.96907184874337" x2="852.3571428571428" y2="244.91569766057046" stroke="#000"/>
<line x1="852.3571428571428" y1="498.0" x2="852.3571428571428" y2="502.79999999999995" stroke="#000"/>
<text x="852.3571428571428" y="512.4" fill="#111" font-size="small" font-family="monospace" font-weight="bold" text-anchor="end" transform="rotate(-60, 852.3571428571428, 512.4)">
ruby-lsp
</text>
<rect x="882.5714285714286" y="302.27525574819487" width="20.142857142857142" height="195.7247442518051" fill="#7070f8" data-tooltip="1.00x baseline speed (No JIT)"/>
<line x1="882.5714285714286" y1="302.0444784660046" x2="902.7142857142857" y2="302.0444784660046" stroke="#000"/>
<line x1="882.5714285714286" y1="302.50603303038514" x2="902.7142857142857" y2="302.50603303038514" stroke="#000"/>
<line x1="892.6428571428572" y1="302.0444784660046" x2="892.6428571428572" y2="302.50603303038514" stroke="#000"/>
<rect x="902.7142857142857" y="265.78089385069325" width="20.142857142857142" height="232.21910614930667" fill="orange" data-tooltip="1.19x baseline speed (YJIT)"/>
<line x1="902.7142857142857" y1="265.4432097837596" x2="922.8571428571428" y2="265.4432097837596" stroke="#000"/>
<line x1="902.7142857142857" y1="266.11857791762696" x2="922.8571428571428" y2="266.11857791762696" stroke="#000"/>
<line x1="912.7857142857143" y1="265.4432097837596" x2="912.7857142857143" y2="266.11857791762696" stroke="#000"/>
<line x1="912.7857142857143" y1="498.0" x2="912.7857142857143" y2="502.79999999999995" stroke="#000"/>
<text x="912.7857142857143" y="512.4" fill="#111" font-size="small" font-family="monospace" font-weight="bold" text-anchor="end" transform="rotate(-60, 912.7857142857143, 512.4)">
sequel
</text>
</svg>