<svg viewBox="0 0 1000 600" xmlns="http://www.w3.org/2000/svg" xmlns:xlink="http://www.w3.org/1999/xlink" width="100%" height="100%">

<rect x="50.0" y="30.0" width="940.0" height="467.99999999999994" stroke="#000" fill="#EEE"/>
<line x1="42.0" y1="497.9999999999999" x2="50.0" y2="497.9999999999999" stroke="#000"/>
<text x="26.000000000000004" y="497.9999999999999" text-anchor="end" font-weight="bold" font-size="small" fill="#111">
0.0
</text>
<line x1="42.0" y1="402.8784507791364" x2="50.0" y2="402.8784507791364" stroke="#000"/>
<text x="26.000000000000004" y="402.8784507791364" text-anchor="end" font-weight="bold" font-size="small" fill="#111">
5.0
</text>
<line x1="42.0" y1="307.7569015582728" x2="50.0" y2="307.7569015582728" stroke="#000"/>
<text x="26.000000000000004" y="307.7569015582728" text-anchor="end" font-weight="bold" font-size="small" fill="#111">
10.0
</text>
<line x1="42.0" y1="212.6353523374092" x2="50.0" y2="212.6353523374092" stroke="#000"/>
<text x="26.000000000000004" y="212.6353523374092" text-anchor="end" font-weight="bold" font-size="small" fill="#111">
15.0
</text>
<line x1="42.0" y1="117.51380311654562" x2="50.0" y2="117.51380311654562" stroke="#000"/>
<text x="26.000000000000004" y="117.51380311654562" text-anchor="end" font-weight="bold" font-size="small" fill="#111">
20.0
</text>
<rect x="188.0" y="36.00000000000001" width="100.0" height="18.0" fill="#7070f8" stroke="#888"/>
<text x="238.0" y="52.50000000000001" font-size="small" text-anchor="middle" font-weight="bold" fill="#EEE">
CRuby 3.4.0dev
</text>
<rect x="469.99999999999994" y="36.00000000000001" width="100.0" height="18.0" fill="orange" stroke="#888"/>
<text x="519.9999999999999" y="52.50000000000001" font-size="small" text-anchor="middle" font-weight="bold" fill="#EEE">
YJIT 3.3.1
</text>
<rect x="751.9999999999999" y="36.00000000000001" width="100.0" height="18.0" fill="green" stroke="#888"/>
<text x="801.9999999999999" y="52.50000000000001" font-size="small" text-anchor="middle" font-weight="bold" fill="#EEE">
YJIT 3.4.0dev
</text>
<rect x="97.0" y="478.97569015582724" width="4.597826086956522" height="19.024309844172716" fill="#7070f8" data-tooltip="1.00x baseline speed (CRuby 3.4.0dev)"/>
<line x1="97.0" y1="478.9551499844618" x2="101.59782608695653" y2="478.9551499844618" stroke="#000"/>
<line x1="97.0" y1="478.9962303271927" x2="101.59782608695653" y2="478.9962303271927" stroke="#000"/>
<line x1="99.29891304347827" y1="478.9551499844618" x2="99.29891304347827" y2="478.9962303271927" stroke="#000"/>
<rect x="101.59782608695653" y="468.4961079957836" width="4.597826086956522" height="29.503892004216354" fill="orange" data-tooltip="1.55x baseline speed (YJIT 3.3.1)"/>
<line x1="101.59782608695653" y1="468.46300590905497" x2="106.19565217391305" y2="468.46300590905497" stroke="#000"/>
<line x1="101.59782608695653" y1="468.5292100825122" x2="106.19565217391305" y2="468.5292100825122" stroke="#000"/>
<line x1="103.8967391304348" y1="468.46300590905497" x2="103.8967391304348" y2="468.5292100825122" stroke="#000"/>
<rect x="106.19565217391305" y="467.15369822977806" width="4.597826086956522" height="30.84630177022192" fill="green" data-tooltip="1.62x baseline speed (YJIT 3.4.0dev)"/>
<line x1="106.19565217391305" y1="467.1170179493631" x2="110.79347826086958" y2="467.1170179493631" stroke="#000"/>
<line x1="106.19565217391305" y1="467.190378510193" x2="110.79347826086958" y2="467.190378510193" stroke="#000"/>
<line x1="108.49456521739131" y1="467.1170179493631" x2="108.49456521739131" y2="467.190378510193" stroke="#000"/>
<line x1="106.19565217391305" y1="498.0" x2="106.19565217391305" y2="502.79999999999995" stroke="#000"/>
<text x="106.19565217391305" y="512.4" fill="#111" font-size="small" font-family="monospace" font-weight="bold" text-anchor="end" transform="rotate(-60, 106.19565217391305, 512.4)">
activerecord
</text>
<rect x="115.3913043478261" y="478.97569015582724" width="4.597826086956522" height="19.024309844172716" fill="#7070f8" data-tooltip="1.00x baseline speed (CRuby 3.4.0dev)"/>
<line x1="115.3913043478261" y1="478.85403838078827" x2="119.98913043478261" y2="478.85403838078827" stroke="#000"/>
<line x1="115.3913043478261" y1="479.09734193086626" x2="119.98913043478261" y2="479.09734193086626" stroke="#000"/>
<line x1="117.69021739130434" y1="478.85403838078827" x2="117.69021739130434" y2="479.09734193086626" stroke="#000"/>
<rect x="119.98913043478261" y="464.70107993466104" width="4.597826086956522" height="33.29892006533898" fill="orange" data-tooltip="1.75x baseline speed (YJIT 3.3.1)"/>
<line x1="119.98913043478261" y1="464.48645718471573" x2="124.58695652173914" y2="464.48645718471573" stroke="#000"/>
<line x1="119.98913043478261" y1="464.9157026846063" x2="124.58695652173914" y2="464.9157026846063" stroke="#000"/>
<line x1="122.28804347826087" y1="464.48645718471573" x2="122.28804347826087" y2="464.9157026846063" stroke="#000"/>
<rect x="124.58695652173914" y="460.8012024836708" width="4.597826086956522" height="37.198797516329186" fill="green" data-tooltip="1.96x baseline speed (YJIT 3.4.0dev)"/>
<line x1="124.58695652173914" y1="460.56073870729597" x2="129.18478260869566" y2="460.56073870729597" stroke="#000"/>
<line x1="124.58695652173914" y1="461.0416662600456" x2="129.18478260869566" y2="461.0416662600456" stroke="#000"/>
<line x1="126.88586956521739" y1="460.56073870729597" x2="126.88586956521739" y2="461.0416662600456" stroke="#000"/>
<line x1="124.58695652173914" y1="498.0" x2="124.58695652173914" y2="502.79999999999995" stroke="#000"/>
<text x="124.58695652173914" y="512.4" fill="#111" font-size="small" font-family="monospace" font-weight="bold" text-anchor="end" transform="rotate(-60, 124.58695652173914, 512.4)">
chunky-png
</text>
<rect x="133.7826086956522" y="478.97569015582724" width="4.597826086956522" height="19.024309844172716" fill="#7070f8" data-tooltip="1.00x baseline speed (CRuby 3.4.0dev)"/>
<line x1="133.7826086956522" y1="478.967812327953" x2="138.3804347826087" y2="478.967812327953" stroke="#000"/>
<line x1="133.7826086956522" y1="478.9835679837015" x2="138.3804347826087" y2="478.9835679837015" stroke="#000"/>
<line x1="136.08152173913044" y1="478.967812327953" x2="136.08152173913044" y2="478.9835679837015" stroke="#000"/>
<rect x="138.3804347826087" y="470.75794822277237" width="4.597826086956522" height="27.242051777227513" fill="orange" data-tooltip="1.43x baseline speed (YJIT 3.3.1)"/>
<line x1="138.3804347826087" y1="470.7356054747818" x2="142.97826086956522" y2="470.7356054747818" stroke="#000"/>
<line x1="138.3804347826087" y1="470.780290970763" x2="142.97826086956522" y2="470.780290970763" stroke="#000"/>
<line x1="140.67934782608697" y1="470.7356054747818" x2="140.67934782608697" y2="470.780290970763" stroke="#000"/>
<rect x="142.97826086956522" y="469.082012100173" width="4.597826086956522" height="28.917987899826965" fill="green" data-tooltip="1.52x baseline speed (YJIT 3.4.0dev)"/>
<line x1="142.97826086956522" y1="469.03990450605573" x2="147.57608695652175" y2="469.03990450605573" stroke="#000"/>
<line x1="142.97826086956522" y1="469.12411969429036" x2="147.57608695652175" y2="469.12411969429036" stroke="#000"/>
<line x1="145.27717391304347" y1="469.03990450605573" x2="145.27717391304347" y2="469.12411969429036" stroke="#000"/>
<line x1="142.97826086956522" y1="498.0" x2="142.97826086956522" y2="502.79999999999995" stroke="#000"/>
<text x="142.97826086956522" y="512.4" fill="#111" font-size="small" font-family="monospace" font-weight="bold" text-anchor="end" transform="rotate(-60, 142.97826086956522, 512.4)">
erubi-rails
</text>
<rect x="152.17391304347828" y="478.97569015582724" width="4.597826086956522" height="19.024309844172716" fill="#7070f8" data-tooltip="1.00x baseline speed (CRuby 3.4.0dev)"/>
<line x1="152.17391304347828" y1="478.9056190243108" x2="156.77173913043478" y2="478.9056190243108" stroke="#000"/>
<line x1="152.17391304347828" y1="479.04576128734374" x2="156.77173913043478" y2="479.04576128734374" stroke="#000"/>
<line x1="154.47282608695653" y1="478.9056190243108" x2="154.47282608695653" y2="479.04576128734374" stroke="#000"/>
<rect x="156.77173913043478" y="472.71393292824104" width="4.597826086956522" height="25.286067071758932" fill="orange" data-tooltip="1.33x baseline speed (YJIT 3.3.1)"/>
<line x1="156.77173913043478" y1="472.5357672901105" x2="161.3695652173913" y2="472.5357672901105" stroke="#000"/>
<line x1="156.77173913043478" y1="472.89209856637154" x2="161.3695652173913" y2="472.89209856637154" stroke="#000"/>
<line x1="159.07065217391306" y1="472.5357672901105" x2="159.07065217391306" y2="472.89209856637154" stroke="#000"/>
<rect x="161.3695652173913" y="466.769572425101" width="4.597826086956522" height="31.230427574898915" fill="green" data-tooltip="1.64x baseline speed (YJIT 3.4.0dev)"/>
<line x1="161.3695652173913" y1="466.1493432196164" x2="165.96739130434784" y2="466.1493432196164" stroke="#000"/>
<line x1="161.3695652173913" y1="467.38980163058557" x2="165.96739130434784" y2="467.38980163058557" stroke="#000"/>
<line x1="163.6684782608696" y1="466.1493432196164" x2="163.6684782608696" y2="467.38980163058557" stroke="#000"/>
<line x1="161.3695652173913" y1="498.0" x2="161.3695652173913" y2="502.79999999999995" stroke="#000"/>
<text x="161.3695652173913" y="512.4" fill="#111" font-size="small" font-family="monospace" font-weight="bold" text-anchor="end" transform="rotate(-60, 161.3695652173913, 512.4)">
hexapdf
</text>
<rect x="170.56521739130437" y="478.97569015582724" width="4.597826086956522" height="19.024309844172716" fill="#7070f8" data-tooltip="1.00x baseline speed (CRuby 3.4.0dev)"/>
<line x1="170.56521739130437" y1="478.88691674132804" x2="175.1630434782609" y2="478.88691674132804" stroke="#000"/>
<line x1="170.56521739130437" y1="479.0644635703265" x2="175.1630434782609" y2="479.0644635703265" stroke="#000"/>
<line x1="172.86413043478262" y1="478.88691674132804" x2="172.86413043478262" y2="479.0644635703265" stroke="#000"/>
<rect x="175.1630434782609" y="475.18923733170305" width="4.597826086956522" height="22.81076266829696" fill="orange" data-tooltip="1.20x baseline speed (YJIT 3.3.1)"/>
<line x1="175.1630434782609" y1="475.0753548685429" x2="179.7608695652174" y2="475.0753548685429" stroke="#000"/>
<line x1="175.1630434782609" y1="475.3031197948632" x2="179.7608695652174" y2="475.3031197948632" stroke="#000"/>
<line x1="177.46195652173915" y1="475.0753548685429" x2="177.46195652173915" y2="475.3031197948632" stroke="#000"/>
<rect x="179.7608695652174" y="473.0690424124431" width="4.597826086956522" height="24.93095758755689" fill="green" data-tooltip="1.31x baseline speed (YJIT 3.4.0dev)"/>
<line x1="179.7608695652174" y1="472.8794246891551" x2="184.35869565217394" y2="472.8794246891551" stroke="#000"/>
<line x1="179.7608695652174" y1="473.258660135731" x2="184.35869565217394" y2="473.258660135731" stroke="#000"/>
<line x1="182.05978260869568" y1="472.8794246891551" x2="182.05978260869568" y2="473.258660135731" stroke="#000"/>
<line x1="179.7608695652174" y1="498.0" x2="179.7608695652174" y2="502.79999999999995" stroke="#000"/>
<text x="179.7608695652174" y="512.4" fill="#111" font-size="small" font-family="monospace" font-weight="bold" text-anchor="end" transform="rotate(-60, 179.7608695652174, 512.4)">
liquid-c
</text>
<rect x="188.95652173913044" y="478.97569015582724" width="4.597826086956522" height="19.024309844172716" fill="#7070f8" data-tooltip="1.00x baseline speed (CRuby 3.4.0dev)"/>
<line x1="188.95652173913044" y1="478.7800576688992" x2="193.55434782608697" y2="478.7800576688992" stroke="#000"/>
<line x1="188.95652173913044" y1="479.1713226427553" x2="193.55434782608697" y2="479.1713226427553" stroke="#000"/>
<line x1="191.2554347826087" y1="478.7800576688992" x2="191.2554347826087" y2="479.1713226427553" stroke="#000"/>
<rect x="193.55434782608697" y="474.50653419087286" width="4.597826086956522" height="23.493465809127155" fill="orange" data-tooltip="1.23x baseline speed (YJIT 3.3.1)"/>
<line x1="193.55434782608697" y1="473.80455121113874" x2="198.1521739130435" y2="473.80455121113874" stroke="#000"/>
<line x1="193.55434782608697" y1="475.208517170607" x2="198.1521739130435" y2="475.208517170607" stroke="#000"/>
<line x1="195.85326086956522" y1="473.80455121113874" x2="195.85326086956522" y2="475.208517170607" stroke="#000"/>
<rect x="198.1521739130435" y="473.6241920194575" width="4.597826086956522" height="24.375807980542483" fill="green" data-tooltip="1.28x baseline speed (YJIT 3.4.0dev)"/>
<line x1="198.1521739130435" y1="473.3625308518439" x2="202.75" y2="473.3625308518439" stroke="#000"/>
<line x1="198.1521739130435" y1="473.88585318707106" x2="202.75" y2="473.88585318707106" stroke="#000"/>
<line x1="200.45108695652175" y1="473.3625308518439" x2="200.45108695652175" y2="473.88585318707106" stroke="#000"/>
<line x1="198.1521739130435" y1="498.0" x2="198.1521739130435" y2="502.79999999999995" stroke="#000"/>
<text x="198.1521739130435" y="512.4" fill="#111" font-size="small" font-family="monospace" font-weight="bold" text-anchor="end" transform="rotate(-60, 198.1521739130435, 512.4)">
liquid-compile
</text>
<rect x="207.34782608695653" y="478.97569015582724" width="4.597826086956522" height="19.024309844172716" fill="#7070f8" data-tooltip="1.00x baseline speed (CRuby 3.4.0dev)"/>
<line x1="207.34782608695653" y1="478.9623724181241" x2="211.94565217391306" y2="478.9623724181241" stroke="#000"/>
<line x1="207.34782608695653" y1="478.9890078935304" x2="211.94565217391306" y2="478.9890078935304" stroke="#000"/>
<line x1="209.6467391304348" y1="478.9623724181241" x2="209.6467391304348" y2="478.9890078935304" stroke="#000"/>
<rect x="211.94565217391306" y="463.22385024994315" width="4.597826086956522" height="34.77614975005685" fill="orange" data-tooltip="1.83x baseline speed (YJIT 3.3.1)"/>
<line x1="211.94565217391306" y1="463.17612416590157" x2="216.5434782608696" y2="463.17612416590157" stroke="#000"/>
<line x1="211.94565217391306" y1="463.27157633398474" x2="216.5434782608696" y2="463.27157633398474" stroke="#000"/>
<line x1="214.2445652173913" y1="463.17612416590157" x2="214.2445652173913" y2="463.27157633398474" stroke="#000"/>
<rect x="216.5434782608696" y="459.14107167625474" width="4.597826086956522" height="38.8589283237452" fill="green" data-tooltip="2.04x baseline speed (YJIT 3.4.0dev)"/>
<line x1="216.5434782608696" y1="459.09623457826643" x2="221.14130434782612" y2="459.09623457826643" stroke="#000"/>
<line x1="216.5434782608696" y1="459.185908774243" x2="221.14130434782612" y2="459.185908774243" stroke="#000"/>
<line x1="218.84239130434784" y1="459.09623457826643" x2="218.84239130434784" y2="459.185908774243" stroke="#000"/>
<line x1="216.5434782608696" y1="498.0" x2="216.5434782608696" y2="502.79999999999995" stroke="#000"/>
<text x="216.5434782608696" y="512.4" fill="#111" font-size="small" font-family="monospace" font-weight="bold" text-anchor="end" transform="rotate(-60, 216.5434782608696, 512.4)">
liquid-render
</text>
<rect x="225.7391304347826" y="478.97569015582724" width="4.597826086956522" height="19.024309844172716" fill="#7070f8" data-tooltip="1.00x baseline speed (CRuby 3.4.0dev)"/>
<line x1="225.7391304347826" y1="478.91194303804974" x2="230.33695652173913" y2="478.91194303804974" stroke="#000"/>
<line x1="225.7391304347826" y1="479.0394372736048" x2="230.33695652173913" y2="479.0394372736048" stroke="#000"/>
<line x1="228.03804347826087" y1="478.91194303804974" x2="228.03804347826087" y2="479.0394372736048" stroke="#000"/>
<rect x="230.33695652173913" y="471.9752077463422" width="4.597826086956522" height="26.02479225365778" fill="orange" data-tooltip="1.37x baseline speed (YJIT 3.3.1)"/>
<line x1="230.33695652173913" y1="471.57947820731687" x2="234.93478260869566" y2="471.57947820731687" stroke="#000"/>
<line x1="230.33695652173913" y1="472.3709372853675" x2="234.93478260869566" y2="472.3709372853675" stroke="#000"/>
<line x1="232.6358695652174" y1="471.57947820731687" x2="232.6358695652174" y2="472.3709372853675" stroke="#000"/>
<rect x="234.93478260869566" y="470.6451545530941" width="4.597826086956522" height="27.354845446905838" fill="green" data-tooltip="1.44x baseline speed (YJIT 3.4.0dev)"/>
<line x1="234.93478260869566" y1="470.3760174872658" x2="239.5326086956522" y2="470.3760174872658" stroke="#000"/>
<line x1="234.93478260869566" y1="470.91429161892233" x2="239.5326086956522" y2="470.91429161892233" stroke="#000"/>
<line x1="237.2336956521739" y1="470.3760174872658" x2="237.2336956521739" y2="470.91429161892233" stroke="#000"/>
<line x1="234.93478260869566" y1="498.0" x2="234.93478260869566" y2="502.79999999999995" stroke="#000"/>
<text x="234.93478260869566" y="512.4" fill="#111" font-size="small" font-family="monospace" font-weight="bold" text-anchor="end" transform="rotate(-60, 234.93478260869566, 512.4)">
lobsters
</text>
<rect x="244.13043478260872" y="478.97569015582724" width="4.597826086956522" height="19.024309844172716" fill="#7070f8" data-tooltip="1.00x baseline speed (CRuby 3.4.0dev)"/>
<line x1="244.13043478260872" y1="478.9463874708259" x2="248.72826086956522" y2="478.9463874708259" stroke="#000"/>
<line x1="244.13043478260872" y1="479.0049928408286" x2="248.72826086956522" y2="479.0049928408286" stroke="#000"/>
<line x1="246.42934782608697" y1="478.9463874708259" x2="246.42934782608697" y2="479.0049928408286" stroke="#000"/>
<rect x="248.72826086956522" y="472.84893298357684" width="4.597826086956522" height="25.151067016423063" fill="orange" data-tooltip="1.32x baseline speed (YJIT 3.3.1)"/>
<line x1="248.72826086956522" y1="472.78753325691616" x2="253.32608695652175" y2="472.78753325691616" stroke="#000"/>
<line x1="248.72826086956522" y1="472.9103327102376" x2="253.32608695652175" y2="472.9103327102376" stroke="#000"/>
<line x1="251.02717391304347" y1="472.78753325691616" x2="251.02717391304347" y2="472.9103327102376" stroke="#000"/>
<rect x="253.32608695652175" y="470.8893895560076" width="4.597826086956522" height="27.110610443992297" fill="green" data-tooltip="1.43x baseline speed (YJIT 3.4.0dev)"/>
<line x1="253.32608695652175" y1="470.82615631279623" x2="257.9239130434783" y2="470.82615631279623" stroke="#000"/>
<line x1="253.32608695652175" y1="470.95262279921894" x2="257.9239130434783" y2="470.95262279921894" stroke="#000"/>
<line x1="255.625" y1="470.82615631279623" x2="255.625" y2="470.95262279921894" stroke="#000"/>
<line x1="253.32608695652175" y1="498.0" x2="253.32608695652175" y2="502.79999999999995" stroke="#000"/>
<text x="253.32608695652175" y="512.4" fill="#111" font-size="small" font-family="monospace" font-weight="bold" text-anchor="end" transform="rotate(-60, 253.32608695652175, 512.4)">
mail
</text>
<rect x="262.5217391304348" y="478.97569015582724" width="4.597826086956522" height="19.024309844172716" fill="#7070f8" data-tooltip="1.00x baseline speed (CRuby 3.4.0dev)"/>
<line x1="262.5217391304348" y1="478.9555271507967" x2="267.1195652173913" y2="478.9555271507967" stroke="#000"/>
<line x1="262.5217391304348" y1="478.99585316085785" x2="267.1195652173913" y2="478.99585316085785" stroke="#000"/>
<line x1="264.82065217391306" y1="478.9555271507967" x2="264.82065217391306" y2="478.99585316085785" stroke="#000"/>
<rect x="267.1195652173913" y="468.6690411071465" width="4.597826086956522" height="29.330958892853406" fill="orange" data-tooltip="1.54x baseline speed (YJIT 3.3.1)"/>
<line x1="267.1195652173913" y1="468.6348172134482" x2="271.71739130434787" y2="468.6348172134482" stroke="#000"/>
<line x1="267.1195652173913" y1="468.70326500084485" x2="271.71739130434787" y2="468.70326500084485" stroke="#000"/>
<line x1="269.41847826086956" y1="468.6348172134482" x2="269.41847826086956" y2="468.70326500084485" stroke="#000"/>
<rect x="271.71739130434787" y="464.11259176026675" width="4.597826086956522" height="33.887408239733205" fill="green" data-tooltip="1.78x baseline speed (YJIT 3.4.0dev)"/>
<line x1="271.71739130434787" y1="464.07507861891423" x2="276.3152173913044" y2="464.07507861891423" stroke="#000"/>
<line x1="271.71739130434787" y1="464.1501049016193" x2="276.3152173913044" y2="464.1501049016193" stroke="#000"/>
<line x1="274.01630434782606" y1="464.07507861891423" x2="274.01630434782606" y2="464.1501049016193" stroke="#000"/>
<line x1="271.71739130434787" y1="498.0" x2="271.71739130434787" y2="502.79999999999995" stroke="#000"/>
<text x="271.71739130434787" y="512.4" fill="#111" font-size="small" font-family="monospace" font-weight="bold" text-anchor="end" transform="rotate(-60, 271.71739130434787, 512.4)">
psych-load
</text>
<rect x="280.9130434782609" y="478.97569015582724" width="4.597826086956522" height="19.024309844172716" fill="#7070f8" data-tooltip="1.00x baseline speed (CRuby 3.4.0dev)"/>
<line x1="280.9130434782609" y1="478.9698883358063" x2="285.5108695652174" y2="478.9698883358063" stroke="#000"/>
<line x1="280.9130434782609" y1="478.98149197584826" x2="285.5108695652174" y2="478.98149197584826" stroke="#000"/>
<line x1="283.21195652173907" y1="478.9698883358063" x2="283.21195652173907" y2="478.98149197584826" stroke="#000"/>
<rect x="285.5108695652174" y="469.15351636617794" width="4.597826086956522" height="28.846483633822025" fill="orange" data-tooltip="1.52x baseline speed (YJIT 3.3.1)"/>
<line x1="285.5108695652174" y1="468.99868000889734" x2="290.1086956521739" y2="468.99868000889734" stroke="#000"/>
<line x1="285.5108695652174" y1="469.3083527234585" x2="290.1086956521739" y2="469.3083527234585" stroke="#000"/>
<line x1="287.8097826086956" y1="468.99868000889734" x2="287.8097826086956" y2="469.3083527234585" stroke="#000"/>
<rect x="290.1086956521739" y="466.5877117104428" width="4.597826086956522" height="31.412288289557164" fill="green" data-tooltip="1.65x baseline speed (YJIT 3.4.0dev)"/>
<line x1="290.1086956521739" y1="466.5718839438205" x2="294.70652173913044" y2="466.5718839438205" stroke="#000"/>
<line x1="290.1086956521739" y1="466.60353947706506" x2="294.70652173913044" y2="466.60353947706506" stroke="#000"/>
<line x1="292.40760869565213" y1="466.5718839438205" x2="292.40760869565213" y2="466.60353947706506" stroke="#000"/>
<line x1="290.1086956521739" y1="498.0" x2="290.1086956521739" y2="502.79999999999995" stroke="#000"/>
<text x="290.1086956521739" y="512.4" fill="#111" font-size="small" font-family="monospace" font-weight="bold" text-anchor="end" transform="rotate(-60, 290.1086956521739, 512.4)">
railsbench
</text>
<rect x="299.30434782608694" y="478.97569015582724" width="4.597826086956522" height="19.024309844172716" fill="#7070f8" data-tooltip="1.00x baseline speed (CRuby 3.4.0dev)"/>
<line x1="299.30434782608694" y1="478.8839872040711" x2="303.9021739130435" y2="478.8839872040711" stroke="#000"/>
<line x1="299.30434782608694" y1="479.06739310758337" x2="303.9021739130435" y2="479.06739310758337" stroke="#000"/>
<line x1="301.6032608695652" y1="478.8839872040711" x2="301.6032608695652" y2="479.06739310758337" stroke="#000"/>
<rect x="303.9021739130435" y="472.6988980981579" width="4.597826086956522" height="25.301101901842042" fill="orange" data-tooltip="1.33x baseline speed (YJIT 3.3.1)"/>
<line x1="303.9021739130435" y1="471.5743929521418" x2="308.5" y2="471.5743929521418" stroke="#000"/>
<line x1="303.9021739130435" y1="473.8234032441739" x2="308.5" y2="473.8234032441739" stroke="#000"/>
<line x1="306.2010869565217" y1="471.5743929521418" x2="306.2010869565217" y2="473.8234032441739" stroke="#000"/>
<rect x="308.5" y="469.83543537886516" width="4.597826086956522" height="28.16456462113481" fill="green" data-tooltip="1.48x baseline speed (YJIT 3.4.0dev)"/>
<line x1="308.5" y1="468.6826346731907" x2="313.0978260869565" y2="468.6826346731907" stroke="#000"/>
<line x1="308.5" y1="470.9882360845396" x2="313.0978260869565" y2="470.9882360845396" stroke="#000"/>
<line x1="310.79891304347825" y1="468.6826346731907" x2="310.79891304347825" y2="470.9882360845396" stroke="#000"/>
<line x1="308.5" y1="498.0" x2="308.5" y2="502.79999999999995" stroke="#000"/>
<text x="308.5" y="512.4" fill="#111" font-size="small" font-family="monospace" font-weight="bold" text-anchor="end" transform="rotate(-60, 308.5, 512.4)">
rubocop
</text>
<rect x="317.69565217391306" y="478.97569015582724" width="4.597826086956522" height="19.024309844172716" fill="#7070f8" data-tooltip="1.00x baseline speed (CRuby 3.4.0dev)"/>
<line x1="317.69565217391306" y1="478.9436977865711" x2="322.29347826086956" y2="478.9436977865711" stroke="#000"/>
<line x1="317.69565217391306" y1="479.00768252508345" x2="322.29347826086956" y2="479.00768252508345" stroke="#000"/>
<line x1="319.99456521739125" y1="478.9436977865711" x2="319.99456521739125" y2="479.00768252508345" stroke="#000"/>
<rect x="322.29347826086956" y="472.25870866321486" width="4.597826086956522" height="25.741291336785046" fill="orange" data-tooltip="1.35x baseline speed (YJIT 3.3.1)"/>
<line x1="322.29347826086956" y1="471.9911802525521" x2="326.8913043478261" y2="471.9911802525521" stroke="#000"/>
<line x1="322.29347826086956" y1="472.52623707387755" x2="326.8913043478261" y2="472.52623707387755" stroke="#000"/>
<line x1="324.5923913043478" y1="471.9911802525521" x2="324.5923913043478" y2="472.52623707387755" stroke="#000"/>
<rect x="326.8913043478261" y="473.7801666847318" width="4.597826086956522" height="24.21983331526818" fill="green" data-tooltip="1.27x baseline speed (YJIT 3.4.0dev)"/>
<line x1="326.8913043478261" y1="473.61824842541563" x2="331.4891304347826" y2="473.61824842541563" stroke="#000"/>
<line x1="326.8913043478261" y1="473.94208494404796" x2="331.4891304347826" y2="473.94208494404796" stroke="#000"/>
<line x1="329.1902173913043" y1="473.61824842541563" x2="329.1902173913043" y2="473.94208494404796" stroke="#000"/>
<line x1="326.8913043478261" y1="498.0" x2="326.8913043478261" y2="502.79999999999995" stroke="#000"/>
<text x="326.8913043478261" y="512.4" fill="#111" font-size="small" font-family="monospace" font-weight="bold" text-anchor="end" transform="rotate(-60, 326.8913043478261, 512.4)">
ruby-lsp
</text>
<rect x="336.0869565217391" y="478.97569015582724" width="4.597826086956522" height="19.024309844172716" fill="#7070f8" data-tooltip="1.00x baseline speed (CRuby 3.4.0dev)"/>
<line x1="336.0869565217391" y1="478.93824974543435" x2="340.6847826086957" y2="478.93824974543435" stroke="#000"/>
<line x1="336.0869565217391" y1="479.0131305662202" x2="340.6847826086957" y2="479.0131305662202" stroke="#000"/>
<line x1="338.3858695652174" y1="478.93824974543435" x2="338.3858695652174" y2="479.0131305662202" stroke="#000"/>
<rect x="340.6847826086957" y="476.8754487744146" width="4.597826086956522" height="21.1245512255853" fill="orange" data-tooltip="1.11x baseline speed (YJIT 3.3.1)"/>
<line x1="340.6847826086957" y1="476.82077418161117" x2="345.2826086956522" y2="476.82077418161117" stroke="#000"/>
<line x1="340.6847826086957" y1="476.9301233672181" x2="345.2826086956522" y2="476.9301233672181" stroke="#000"/>
<line x1="342.9836956521739" y1="476.82077418161117" x2="342.9836956521739" y2="476.9301233672181" stroke="#000"/>
<rect x="345.2826086956522" y="475.4561358463224" width="4.597826086956522" height="22.54386415367753" fill="green" data-tooltip="1.19x baseline speed (YJIT 3.4.0dev)"/>
<line x1="345.2826086956522" y1="475.3831193816442" x2="349.88043478260875" y2="475.3831193816442" stroke="#000"/>
<line x1="345.2826086956522" y1="475.52915231100064" x2="349.88043478260875" y2="475.52915231100064" stroke="#000"/>
<line x1="347.58152173913044" y1="475.3831193816442" x2="347.58152173913044" y2="475.52915231100064" stroke="#000"/>
<line x1="345.2826086956522" y1="498.0" x2="345.2826086956522" y2="502.79999999999995" stroke="#000"/>
<text x="345.2826086956522" y="512.4" fill="#111" font-size="small" font-family="monospace" font-weight="bold" text-anchor="end" transform="rotate(-60, 345.2826086956522, 512.4)">
sequel
</text>
<rect x="354.47826086956525" y="478.97569015582724" width="4.597826086956522" height="19.024309844172716" fill="#7070f8" data-tooltip="1.00x baseline speed (CRuby 3.4.0dev)"/>
<line x1="354.47826086956525" y1="478.7491863999919" x2="359.07608695652175" y2="478.7491863999919" stroke="#000"/>
<line x1="354.47826086956525" y1="479.20219391166256" x2="359.07608695652175" y2="479.20219391166256" stroke="#000"/>
<line x1="356.7771739130435" y1="478.7491863999919" x2="356.7771739130435" y2="479.20219391166256" stroke="#000"/>
<rect x="359.07608695652175" y="459.6912029845206" width="4.597826086956522" height="38.30879701547931" fill="orange" data-tooltip="2.01x baseline speed (YJIT 3.3.1)"/>
<line x1="359.07608695652175" y1="458.70802649688324" x2="363.6739130434783" y2="458.70802649688324" stroke="#000"/>
<line x1="359.07608695652175" y1="460.67437947215797" x2="363.6739130434783" y2="460.67437947215797" stroke="#000"/>
<line x1="361.375" y1="458.70802649688324" x2="361.375" y2="460.67437947215797" stroke="#000"/>
<rect x="363.6739130434783" y="456.91875144151555" width="4.597826086956522" height="41.081248558484326" fill="green" data-tooltip="2.16x baseline speed (YJIT 3.4.0dev)"/>
<line x1="363.6739130434783" y1="455.91561801286" x2="368.2717391304348" y2="455.91561801286" stroke="#000"/>
<line x1="363.6739130434783" y1="457.92188487017114" x2="368.2717391304348" y2="457.92188487017114" stroke="#000"/>
<line x1="365.9728260869565" y1="455.91561801286" x2="365.9728260869565" y2="457.92188487017114" stroke="#000"/>
<line x1="363.6739130434783" y1="498.0" x2="363.6739130434783" y2="502.79999999999995" stroke="#000"/>
<text x="363.6739130434783" y="512.4" fill="#111" font-size="small" font-family="monospace" font-weight="bold" text-anchor="end" transform="rotate(-60, 363.6739130434783, 512.4)">
binarytrees
</text>
<rect x="372.86956521739137" y="478.97569015582724" width="4.597826086956522" height="19.024309844172716" fill="#7070f8" data-tooltip="1.00x baseline speed (CRuby 3.4.0dev)"/>
<line x1="372.86956521739137" y1="478.8843402080599" x2="377.46739130434787" y2="478.8843402080599" stroke="#000"/>
<line x1="372.86956521739137" y1="479.06704010359465" x2="377.46739130434787" y2="479.06704010359465" stroke="#000"/>
<line x1="375.16847826086956" y1="478.8843402080599" x2="375.16847826086956" y2="479.06704010359465" stroke="#000"/>
<rect x="377.46739130434787" y="451.5962749390716" width="4.597826086956522" height="46.40372506092834" fill="orange" data-tooltip="2.44x baseline speed (YJIT 3.3.1)"/>
<line x1="377.46739130434787" y1="451.3198618836602" x2="382.0652173913044" y2="451.3198618836602" stroke="#000"/>
<line x1="377.46739130434787" y1="451.87268799448293" x2="382.0652173913044" y2="451.87268799448293" stroke="#000"/>
<line x1="379.7663043478261" y1="451.3198618836602" x2="379.7663043478261" y2="451.87268799448293" stroke="#000"/>
<rect x="382.0652173913044" y="448.7840961613589" width="4.597826086956522" height="49.215903838641054" fill="green" data-tooltip="2.59x baseline speed (YJIT 3.4.0dev)"/>
<line x1="382.0652173913044" y1="448.4919840571464" x2="386.66304347826093" y2="448.4919840571464" stroke="#000"/>
<line x1="382.0652173913044" y1="449.0762082655714" x2="386.66304347826093" y2="449.0762082655714" stroke="#000"/>
<line x1="384.3641304347826" y1="448.4919840571464" x2="384.3641304347826" y2="449.0762082655714" stroke="#000"/>
<line x1="382.0652173913044" y1="498.0" x2="382.0652173913044" y2="502.79999999999995" stroke="#000"/>
<text x="382.0652173913044" y="512.4" fill="#111" font-size="small" font-family="monospace" font-weight="bold" text-anchor="end" transform="rotate(-60, 382.0652173913044, 512.4)">
blurhash
</text>
<rect x="391.26086956521743" y="478.97569015582724" width="4.597826086956522" height="19.024309844172716" fill="#7070f8" data-tooltip="1.00x baseline speed (CRuby 3.4.0dev)"/>
<line x1="391.26086956521743" y1="478.9217305537442" x2="395.858695652174" y2="478.9217305537442" stroke="#000"/>
<line x1="391.26086956521743" y1="479.02964975791025" x2="395.858695652174" y2="479.02964975791025" stroke="#000"/>
<line x1="393.5597826086957" y1="478.9217305537442" x2="393.5597826086957" y2="479.02964975791025" stroke="#000"/>
<rect x="395.858695652174" y="478.229195487819" width="4.597826086956522" height="19.770804512180902" fill="orange" data-tooltip="1.04x baseline speed (YJIT 3.3.1)"/>
<line x1="395.858695652174" y1="478.1695880397257" x2="400.4565217391305" y2="478.1695880397257" stroke="#000"/>
<line x1="395.858695652174" y1="478.2888029359124" x2="400.4565217391305" y2="478.2888029359124" stroke="#000"/>
<line x1="398.1576086956522" y1="478.1695880397257" x2="398.1576086956522" y2="478.2888029359124" stroke="#000"/>
<rect x="400.4565217391305" y="476.80229056946195" width="4.597826086956522" height="21.197709430537937" fill="green" data-tooltip="1.11x baseline speed (YJIT 3.4.0dev)"/>
<line x1="400.4565217391305" y1="476.7272933543039" x2="405.054347826087" y2="476.7272933543039" stroke="#000"/>
<line x1="400.4565217391305" y1="476.87728778461997" x2="405.054347826087" y2="476.87728778461997" stroke="#000"/>
<line x1="402.75543478260875" y1="476.7272933543039" x2="402.75543478260875" y2="476.87728778461997" stroke="#000"/>
<line x1="400.4565217391305" y1="498.0" x2="400.4565217391305" y2="502.79999999999995" stroke="#000"/>
<text x="400.4565217391305" y="512.4" fill="#111" font-size="small" font-family="monospace" font-weight="bold" text-anchor="end" transform="rotate(-60, 400.4565217391305, 512.4)">
erubi
</text>
<rect x="409.65217391304355" y="478.97569015582724" width="4.597826086956522" height="19.024309844172716" fill="#7070f8" data-tooltip="1.00x baseline speed (CRuby 3.4.0dev)"/>
<line x1="409.65217391304355" y1="478.96961983013676" x2="414.25000000000006" y2="478.96961983013676" stroke="#000"/>
<line x1="409.65217391304355" y1="478.98176048151777" x2="414.25000000000006" y2="478.98176048151777" stroke="#000"/>
<line x1="411.95108695652175" y1="478.96961983013676" x2="411.95108695652175" y2="478.98176048151777" stroke="#000"/>
<rect x="414.25000000000006" y="445.7732652759824" width="4.597826086956522" height="52.22673472401756" fill="orange" data-tooltip="2.75x baseline speed (YJIT 3.3.1)"/>
<line x1="414.25000000000006" y1="445.704814068217" x2="418.8478260869566" y2="445.704814068217" stroke="#000"/>
<line x1="414.25000000000006" y1="445.8417164837478" x2="418.8478260869566" y2="445.8417164837478" stroke="#000"/>
<line x1="416.5489130434783" y1="445.704814068217" x2="416.5489130434783" y2="445.8417164837478" stroke="#000"/>
<rect x="418.8478260869566" y="477.7263295276756" width="4.597826086956522" height="20.27367047232429" fill="green" data-tooltip="1.07x baseline speed (YJIT 3.4.0dev)"/>
<line x1="418.8478260869566" y1="477.7142540535374" x2="423.4456521739131" y2="477.7142540535374" stroke="#000"/>
<line x1="418.8478260869566" y1="477.7384050018138" x2="423.4456521739131" y2="477.7384050018138" stroke="#000"/>
<line x1="421.1467391304348" y1="477.7142540535374" x2="421.1467391304348" y2="477.7384050018138" stroke="#000"/>
<line x1="418.8478260869566" y1="498.0" x2="418.8478260869566" y2="502.79999999999995" stroke="#000"/>
<text x="418.8478260869566" y="512.4" fill="#111" font-size="small" font-family="monospace" font-weight="bold" text-anchor="end" transform="rotate(-60, 418.8478260869566, 512.4)">
etanni
</text>
<rect x="428.0434782608696" y="478.97569015582724" width="4.597826086956522" height="19.024309844172716" fill="#7070f8" data-tooltip="1.00x baseline speed (CRuby 3.4.0dev)"/>
<line x1="428.0434782608696" y1="478.79835746249853" x2="432.6413043478262" y2="478.79835746249853" stroke="#000"/>
<line x1="428.0434782608696" y1="479.15302284915595" x2="432.6413043478262" y2="479.15302284915595" stroke="#000"/>
<line x1="430.34239130434787" y1="478.79835746249853" x2="430.34239130434787" y2="479.15302284915595" stroke="#000"/>
<rect x="432.6413043478262" y="432.65096484112564" width="4.597826086956522" height="65.3490351588743" fill="orange" data-tooltip="3.44x baseline speed (YJIT 3.3.1)"/>
<line x1="432.6413043478262" y1="431.0499696476835" x2="437.2391304347827" y2="431.0499696476835" stroke="#000"/>
<line x1="432.6413043478262" y1="434.2519600345678" x2="437.2391304347827" y2="434.2519600345678" stroke="#000"/>
<line x1="434.9402173913044" y1="431.0499696476835" x2="434.9402173913044" y2="434.2519600345678" stroke="#000"/>
<rect x="437.2391304347827" y="416.28420510017327" width="4.597826086956522" height="81.71579489982672" fill="green" data-tooltip="4.30x baseline speed (YJIT 3.4.0dev)"/>
<line x1="437.2391304347827" y1="415.50949688546007" x2="441.8369565217392" y2="415.50949688546007" stroke="#000"/>
<line x1="437.2391304347827" y1="417.05891331488647" x2="441.8369565217392" y2="417.05891331488647" stroke="#000"/>
<line x1="439.53804347826093" y1="415.50949688546007" x2="439.53804347826093" y2="417.05891331488647" stroke="#000"/>
<line x1="437.2391304347827" y1="498.0" x2="437.2391304347827" y2="502.79999999999995" stroke="#000"/>
<text x="437.2391304347827" y="512.4" fill="#111" font-size="small" font-family="monospace" font-weight="bold" text-anchor="end" transform="rotate(-60, 437.2391304347827, 512.4)">
fannkuchredux
</text>
<rect x="446.4347826086956" y="478.97569015582724" width="4.597826086956522" height="19.024309844172716" fill="#7070f8" data-tooltip="1.00x baseline speed (CRuby 3.4.0dev)"/>
<line x1="446.4347826086956" y1="478.92771352600437" x2="451.03260869565213" y2="478.92771352600437" stroke="#000"/>
<line x1="446.4347826086956" y1="479.02366678565016" x2="451.03260869565213" y2="479.02366678565016" stroke="#000"/>
<line x1="448.7336956521739" y1="478.92771352600437" x2="448.7336956521739" y2="479.02366678565016" stroke="#000"/>
<rect x="451.03260869565213" y="479.59232938245077" width="4.597826086956522" height="18.4076706175492" fill="orange" data-tooltip="0.97x baseline speed (YJIT 3.3.1)"/>
<line x1="451.03260869565213" y1="479.4934903266732" x2="455.6304347826087" y2="479.4934903266732" stroke="#000"/>
<line x1="451.03260869565213" y1="479.6911684382284" x2="455.6304347826087" y2="479.6911684382284" stroke="#000"/>
<line x1="453.3315217391304" y1="479.4934903266732" x2="453.3315217391304" y2="479.6911684382284" stroke="#000"/>
<rect x="455.6304347826087" y="476.0042556258884" width="4.597826086956522" height="21.995744374111464" fill="green" data-tooltip="1.16x baseline speed (YJIT 3.4.0dev)"/>
<line x1="455.6304347826087" y1="475.9427084295839" x2="460.2282608695652" y2="475.9427084295839" stroke="#000"/>
<line x1="455.6304347826087" y1="476.06580282219295" x2="460.2282608695652" y2="476.06580282219295" stroke="#000"/>
<line x1="457.9293478260869" y1="475.9427084295839" x2="457.9293478260869" y2="476.06580282219295" stroke="#000"/>
<line x1="455.6304347826087" y1="498.0" x2="455.6304347826087" y2="502.79999999999995" stroke="#000"/>
<text x="455.6304347826087" y="512.4" fill="#111" font-size="small" font-family="monospace" font-weight="bold" text-anchor="end" transform="rotate(-60, 455.6304347826087, 512.4)">
fluentd
</text>
<rect x="464.82608695652175" y="478.97569015582724" width="4.597826086956522" height="19.024309844172716" fill="#7070f8" data-tooltip="1.00x baseline speed (CRuby 3.4.0dev)"/>
<line x1="464.82608695652175" y1="478.9638621317683" x2="469.42391304347825" y2="478.9638621317683" stroke="#000"/>
<line x1="464.82608695652175" y1="478.98751817988625" x2="469.42391304347825" y2="478.98751817988625" stroke="#000"/>
<line x1="467.12499999999994" y1="478.9638621317683" x2="467.12499999999994" y2="478.98751817988625" stroke="#000"/>
<rect x="469.42391304347825" y="475.1906603318747" width="4.597826086956522" height="22.80933966812516" fill="orange" data-tooltip="1.20x baseline speed (YJIT 3.3.1)"/>
<line x1="469.42391304347825" y1="475.1608936297137" x2="474.02173913043475" y2="475.1608936297137" stroke="#000"/>
<line x1="469.42391304347825" y1="475.22042703403577" x2="474.02173913043475" y2="475.22042703403577" stroke="#000"/>
<line x1="471.7228260869565" y1="475.1608936297137" x2="471.7228260869565" y2="475.22042703403577" stroke="#000"/>
<rect x="474.02173913043475" y="474.48336793247006" width="4.597826086956522" height="23.516632067529816" fill="green" data-tooltip="1.24x baseline speed (YJIT 3.4.0dev)"/>
<line x1="474.02173913043475" y1="474.46221428697766" x2="478.6195652173913" y2="474.46221428697766" stroke="#000"/>
<line x1="474.02173913043475" y1="474.50452157796246" x2="478.6195652173913" y2="474.50452157796246" stroke="#000"/>
<line x1="476.320652173913" y1="474.46221428697766" x2="476.320652173913" y2="474.50452157796246" stroke="#000"/>
<line x1="474.02173913043475" y1="498.0" x2="474.02173913043475" y2="502.79999999999995" stroke="#000"/>
<text x="474.02173913043475" y="512.4" fill="#111" font-size="small" font-family="monospace" font-weight="bold" text-anchor="end" transform="rotate(-60, 474.02173913043475, 512.4)">
graphql
</text>
<rect x="483.2173913043478" y="478.97569015582724" width="4.597826086956522" height="19.024309844172716" fill="#7070f8" data-tooltip="1.00x baseline speed (CRuby 3.4.0dev)"/>
<line x1="483.2173913043478" y1="478.3977111724818" x2="487.8152173913044" y2="478.3977111724818" stroke="#000"/>
<line x1="483.2173913043478" y1="479.5536691391727" x2="487.8152173913044" y2="479.5536691391727" stroke="#000"/>
<line x1="485.51630434782606" y1="478.3977111724818" x2="485.51630434782606" y2="479.5536691391727" stroke="#000"/>
<rect x="487.8152173913044" y="478.1985876851823" width="4.597826086956522" height="19.801412314817586" fill="orange" data-tooltip="1.04x baseline speed (YJIT 3.3.1)"/>
<line x1="487.8152173913044" y1="477.5969086764695" x2="492.4130434782609" y2="477.5969086764695" stroke="#000"/>
<line x1="487.8152173913044" y1="478.80026669389514" x2="492.4130434782609" y2="478.80026669389514" stroke="#000"/>
<line x1="490.11413043478257" y1="477.5969086764695" x2="490.11413043478257" y2="478.80026669389514" stroke="#000"/>
<rect x="492.4130434782609" y="476.1264014260661" width="4.597826086956522" height="21.873598573933833" fill="green" data-tooltip="1.15x baseline speed (YJIT 3.4.0dev)"/>
<line x1="492.4130434782609" y1="475.4610553280712" x2="497.0108695652174" y2="475.4610553280712" stroke="#000"/>
<line x1="492.4130434782609" y1="476.79174752406095" x2="497.0108695652174" y2="476.79174752406095" stroke="#000"/>
<line x1="494.7119565217391" y1="475.4610553280712" x2="494.7119565217391" y2="476.79174752406095" stroke="#000"/>
<line x1="492.4130434782609" y1="498.0" x2="492.4130434782609" y2="502.79999999999995" stroke="#000"/>
<text x="492.4130434782609" y="512.4" fill="#111" font-size="small" font-family="monospace" font-weight="bold" text-anchor="end" transform="rotate(-60, 492.4130434782609, 512.4)">
graphql-native
</text>
<rect x="501.60869565217394" y="478.97569015582724" width="4.597826086956522" height="19.024309844172716" fill="#7070f8" data-tooltip="1.00x baseline speed (CRuby 3.4.0dev)"/>
<line x1="501.60869565217394" y1="478.8017007444269" x2="506.2065217391304" y2="478.8017007444269" stroke="#000"/>
<line x1="501.60869565217394" y1="479.1496795672276" x2="506.2065217391304" y2="479.1496795672276" stroke="#000"/>
<line x1="503.9076086956522" y1="478.8017007444269" x2="503.9076086956522" y2="479.1496795672276" stroke="#000"/>
<rect x="506.2065217391304" y="473.9004816651382" width="4.597826086956522" height="24.09951833486167" fill="orange" data-tooltip="1.27x baseline speed (YJIT 3.3.1)"/>
<line x1="506.2065217391304" y1="473.5599949400366" x2="510.8043478260869" y2="473.5599949400366" stroke="#000"/>
<line x1="506.2065217391304" y1="474.24096839023986" x2="510.8043478260869" y2="474.24096839023986" stroke="#000"/>
<line x1="508.5054347826087" y1="473.5599949400366" x2="508.5054347826087" y2="474.24096839023986" stroke="#000"/>
<rect x="510.804347826087" y="471.15503518540834" width="4.597826086956522" height="26.84496481459154" fill="green" data-tooltip="1.41x baseline speed (YJIT 3.4.0dev)"/>
<line x1="510.804347826087" y1="470.83275658268474" x2="515.4021739130434" y2="470.83275658268474" stroke="#000"/>
<line x1="510.804347826087" y1="471.47731378813194" x2="515.4021739130434" y2="471.47731378813194" stroke="#000"/>
<line x1="513.1032608695652" y1="470.83275658268474" x2="513.1032608695652" y2="471.47731378813194" stroke="#000"/>
<line x1="510.804347826087" y1="498.0" x2="510.804347826087" y2="502.79999999999995" stroke="#000"/>
<text x="510.804347826087" y="512.4" fill="#111" font-size="small" font-family="monospace" font-weight="bold" text-anchor="end" transform="rotate(-60, 510.804347826087, 512.4)">
lee
</text>
<rect x="520.0" y="478.97569015582724" width="4.597826086956522" height="19.024309844172716" fill="#7070f8" data-tooltip="1.00x baseline speed (CRuby 3.4.0dev)"/>
<line x1="520.0" y1="478.2236111145724" x2="524.5978260869565" y2="478.2236111145724" stroke="#000"/>
<line x1="520.0" y1="479.7277691970821" x2="524.5978260869565" y2="479.7277691970821" stroke="#000"/>
<line x1="522.2989130434783" y1="478.2236111145724" x2="522.2989130434783" y2="479.7277691970821" stroke="#000"/>
<rect x="524.5978260869565" y="460.11898044008706" width="4.597826086956522" height="37.881019559912886" fill="orange" data-tooltip="1.99x baseline speed (YJIT 3.3.1)"/>
<line x1="524.5978260869565" y1="458.6143764309453" x2="529.195652173913" y2="458.6143764309453" stroke="#000"/>
<line x1="524.5978260869565" y1="461.6235844492288" x2="529.195652173913" y2="461.6235844492288" stroke="#000"/>
<line x1="526.8967391304348" y1="458.6143764309453" x2="526.8967391304348" y2="461.6235844492288" stroke="#000"/>
<rect x="529.1956521739131" y="459.3148355653637" width="4.597826086956522" height="38.68516443463632" fill="green" data-tooltip="2.03x baseline speed (YJIT 3.4.0dev)"/>
<line x1="529.1956521739131" y1="457.7851815605023" x2="533.7934782608695" y2="457.7851815605023" stroke="#000"/>
<line x1="529.1956521739131" y1="460.8444895702251" x2="533.7934782608695" y2="460.8444895702251" stroke="#000"/>
<line x1="531.4945652173914" y1="457.7851815605023" x2="531.4945652173914" y2="460.8444895702251" stroke="#000"/>
<line x1="529.1956521739131" y1="498.0" x2="529.1956521739131" y2="502.79999999999995" stroke="#000"/>
<text x="529.1956521739131" y="512.4" fill="#111" font-size="small" font-family="monospace" font-weight="bold" text-anchor="end" transform="rotate(-60, 529.1956521739131, 512.4)">
matmul
</text>
<rect x="538.3913043478261" y="478.97569015582724" width="4.597826086956522" height="19.024309844172716" fill="#7070f8" data-tooltip="1.00x baseline speed (CRuby 3.4.0dev)"/>
<line x1="538.3913043478261" y1="478.69590213550805" x2="542.9891304347826" y2="478.69590213550805" stroke="#000"/>
<line x1="538.3913043478261" y1="479.2554781761465" x2="542.9891304347826" y2="479.2554781761465" stroke="#000"/>
<line x1="540.6902173913044" y1="478.69590213550805" x2="540.6902173913044" y2="479.2554781761465" stroke="#000"/>
<rect x="542.9891304347826" y="454.09966964320165" width="4.597826086956522" height="43.900330356798335" fill="orange" data-tooltip="2.31x baseline speed (YJIT 3.3.1)"/>
<line x1="542.9891304347826" y1="453.4286512884324" x2="547.586956521739" y2="453.4286512884324" stroke="#000"/>
<line x1="542.9891304347826" y1="454.77068799797087" x2="547.586956521739" y2="454.77068799797087" stroke="#000"/>
<line x1="545.2880434782609" y1="453.4286512884324" x2="545.2880434782609" y2="454.77068799797087" stroke="#000"/>
<rect x="547.5869565217391" y="453.5498504909841" width="4.597826086956522" height="44.45014950901583" fill="green" data-tooltip="2.34x baseline speed (YJIT 3.4.0dev)"/>
<line x1="547.5869565217391" y1="452.8612286941531" x2="552.1847826086956" y2="452.8612286941531" stroke="#000"/>
<line x1="547.5869565217391" y1="454.2384722878151" x2="552.1847826086956" y2="454.2384722878151" stroke="#000"/>
<line x1="549.8858695652175" y1="452.8612286941531" x2="549.8858695652175" y2="454.2384722878151" stroke="#000"/>
<line x1="547.5869565217391" y1="498.0" x2="547.5869565217391" y2="502.79999999999995" stroke="#000"/>
<text x="547.5869565217391" y="512.4" fill="#111" font-size="small" font-family="monospace" font-weight="bold" text-anchor="end" transform="rotate(-60, 547.5869565217391, 512.4)">
nbody
</text>
<rect x="556.7826086956522" y="478.97569015582724" width="4.597826086956522" height="19.024309844172716" fill="#7070f8" data-tooltip="1.00x baseline speed (CRuby 3.4.0dev)"/>
<line x1="556.7826086956522" y1="478.56717311358943" x2="561.3804347826086" y2="478.56717311358943" stroke="#000"/>
<line x1="556.7826086956522" y1="479.3842071980651" x2="561.3804347826086" y2="479.3842071980651" stroke="#000"/>
<line x1="559.0815217391305" y1="478.56717311358943" x2="559.0815217391305" y2="479.3842071980651" stroke="#000"/>
<rect x="561.3804347826086" y="479.678271744459" width="4.597826086956522" height="18.321728255540943" fill="orange" data-tooltip="0.96x baseline speed (YJIT 3.3.1)"/>
<line x1="561.3804347826086" y1="479.03428643914174" x2="565.9782608695651" y2="479.03428643914174" stroke="#000"/>
<line x1="561.3804347826086" y1="480.3222570497762" x2="565.9782608695651" y2="480.3222570497762" stroke="#000"/>
<line x1="563.679347826087" y1="479.03428643914174" x2="563.679347826087" y2="480.3222570497762" stroke="#000"/>
<rect x="565.9782608695652" y="389.87618182833506" width="4.597826086956522" height="108.1238181716649" fill="green" data-tooltip="5.68x baseline speed (YJIT 3.4.0dev)"/>
<line x1="565.9782608695652" y1="387.5317948068976" x2="570.5760869565217" y2="387.5317948068976" stroke="#000"/>
<line x1="565.9782608695652" y1="392.2205688497725" x2="570.5760869565217" y2="392.2205688497725" stroke="#000"/>
<line x1="568.2771739130435" y1="387.5317948068976" x2="568.2771739130435" y2="392.2205688497725" stroke="#000"/>
<line x1="565.9782608695652" y1="498.0" x2="565.9782608695652" y2="502.79999999999995" stroke="#000"/>
<text x="565.9782608695652" y="512.4" fill="#111" font-size="small" font-family="monospace" font-weight="bold" text-anchor="end" transform="rotate(-60, 565.9782608695652, 512.4)">
nqueens
</text>
<rect x="575.1739130434784" y="478.97569015582724" width="4.597826086956522" height="19.024309844172716" fill="#7070f8" data-tooltip="1.00x baseline speed (CRuby 3.4.0dev)"/>
<line x1="575.1739130434784" y1="478.90291611134097" x2="579.7717391304348" y2="478.90291611134097" stroke="#000"/>
<line x1="575.1739130434784" y1="479.04846420031356" x2="579.7717391304348" y2="479.04846420031356" stroke="#000"/>
<line x1="577.4728260869566" y1="478.90291611134097" x2="577.4728260869566" y2="479.04846420031356" stroke="#000"/>
<rect x="579.7717391304348" y="456.38580289540937" width="4.597826086956522" height="41.61419710459056" fill="orange" data-tooltip="2.19x baseline speed (YJIT 3.3.1)"/>
<line x1="579.7717391304348" y1="456.12863009644747" x2="584.3695652173913" y2="456.12863009644747" stroke="#000"/>
<line x1="579.7717391304348" y1="456.6429756943712" x2="584.3695652173913" y2="456.6429756943712" stroke="#000"/>
<line x1="582.0706521739131" y1="456.12863009644747" x2="582.0706521739131" y2="456.6429756943712" stroke="#000"/>
<rect x="584.3695652173914" y="450.8774358250314" width="4.597826086956522" height="47.12256417496854" fill="green" data-tooltip="2.48x baseline speed (YJIT 3.4.0dev)"/>
<line x1="584.3695652173914" y1="450.6194276138029" x2="588.9673913043479" y2="450.6194276138029" stroke="#000"/>
<line x1="584.3695652173914" y1="451.1354440362599" x2="588.9673913043479" y2="451.1354440362599" stroke="#000"/>
<line x1="586.6684782608696" y1="450.6194276138029" x2="586.6684782608696" y2="451.1354440362599" stroke="#000"/>
<line x1="584.3695652173914" y1="498.0" x2="584.3695652173914" y2="502.79999999999995" stroke="#000"/>
<text x="584.3695652173914" y="512.4" fill="#111" font-size="small" font-family="monospace" font-weight="bold" text-anchor="end" transform="rotate(-60, 584.3695652173914, 512.4)">
optcarrot
</text>
<rect x="593.5652173913044" y="478.97569015582724" width="4.597826086956522" height="19.024309844172716" fill="#7070f8" data-tooltip="1.00x baseline speed (CRuby 3.4.0dev)"/>
<line x1="593.5652173913044" y1="478.721959078159" x2="598.1630434782609" y2="478.721959078159" stroke="#000"/>
<line x1="593.5652173913044" y1="479.22942123349554" x2="598.1630434782609" y2="479.22942123349554" stroke="#000"/>
<line x1="595.8641304347827" y1="478.721959078159" x2="595.8641304347827" y2="479.22942123349554" stroke="#000"/>
<rect x="598.1630434782609" y="457.41039578848523" width="4.597826086956522" height="40.58960421151467" fill="orange" data-tooltip="2.13x baseline speed (YJIT 3.3.1)"/>
<line x1="598.1630434782609" y1="456.86596146845767" x2="602.7608695652174" y2="456.86596146845767" stroke="#000"/>
<line x1="598.1630434782609" y1="457.9548301085128" x2="602.7608695652174" y2="457.9548301085128" stroke="#000"/>
<line x1="600.4619565217391" y1="456.86596146845767" x2="600.4619565217391" y2="457.9548301085128" stroke="#000"/>
<rect x="602.7608695652175" y="440.93285685803096" width="4.597826086956522" height="57.067143141969" fill="green" data-tooltip="3.00x baseline speed (YJIT 3.4.0dev)"/>
<line x1="602.7608695652175" y1="440.16274471105345" x2="607.3586956521739" y2="440.16274471105345" stroke="#000"/>
<line x1="602.7608695652175" y1="441.7029690050084" x2="607.3586956521739" y2="441.7029690050084" stroke="#000"/>
<line x1="605.0597826086957" y1="440.16274471105345" x2="605.0597826086957" y2="441.7029690050084" stroke="#000"/>
<line x1="602.7608695652175" y1="498.0" x2="602.7608695652175" y2="502.79999999999995" stroke="#000"/>
<text x="602.7608695652175" y="512.4" fill="#111" font-size="small" font-family="monospace" font-weight="bold" text-anchor="end" transform="rotate(-60, 602.7608695652175, 512.4)">
protoboeuf
</text>
<rect x="611.9565217391304" y="478.97569015582724" width="4.597826086956522" height="19.024309844172716" fill="#7070f8" data-tooltip="1.00x baseline speed (CRuby 3.4.0dev)"/>
<line x1="611.9565217391304" y1="478.8999628439431" x2="616.5543478260869" y2="478.8999628439431" stroke="#000"/>
<line x1="611.9565217391304" y1="479.0514174677114" x2="616.5543478260869" y2="479.0514174677114" stroke="#000"/>
<line x1="614.2554347826087" y1="478.8999628439431" x2="614.2554347826087" y2="479.0514174677114" stroke="#000"/>
<rect x="616.5543478260869" y="472.3504451375078" width="4.597826086956522" height="25.64955486249216" fill="orange" data-tooltip="1.35x baseline speed (YJIT 3.3.1)"/>
<line x1="616.5543478260869" y1="472.1950664593608" x2="621.1521739130434" y2="472.1950664593608" stroke="#000"/>
<line x1="616.5543478260869" y1="472.50582381565476" x2="621.1521739130434" y2="472.50582381565476" stroke="#000"/>
<line x1="618.8532608695651" y1="472.1950664593608" x2="618.8532608695651" y2="472.50582381565476" stroke="#000"/>
<rect x="621.1521739130435" y="469.7193849518236" width="4.597826086956522" height="28.280615048176305" fill="green" data-tooltip="1.49x baseline speed (YJIT 3.4.0dev)"/>
<line x1="621.1521739130435" y1="469.4219217941354" x2="625.7499999999999" y2="469.4219217941354" stroke="#000"/>
<line x1="621.1521739130435" y1="470.0168481095117" x2="625.7499999999999" y2="470.0168481095117" stroke="#000"/>
<line x1="623.4510869565217" y1="469.4219217941354" x2="623.4510869565217" y2="470.0168481095117" stroke="#000"/>
<line x1="621.1521739130435" y1="498.0" x2="621.1521739130435" y2="502.79999999999995" stroke="#000"/>
<text x="621.1521739130435" y="512.4" fill="#111" font-size="small" font-family="monospace" font-weight="bold" text-anchor="end" transform="rotate(-60, 621.1521739130435, 512.4)">
rack
</text>
<rect x="630.3478260869565" y="478.97569015582724" width="4.597826086956522" height="19.024309844172716" fill="#7070f8" data-tooltip="1.00x baseline speed (CRuby 3.4.0dev)"/>
<line x1="630.3478260869565" y1="478.8334768711363" x2="634.945652173913" y2="478.8334768711363" stroke="#000"/>
<line x1="630.3478260869565" y1="479.11790344051815" x2="634.945652173913" y2="479.11790344051815" stroke="#000"/>
<line x1="632.6467391304348" y1="478.8334768711363" x2="632.6467391304348" y2="479.11790344051815" stroke="#000"/>
<rect x="634.945652173913" y="475.61232087489776" width="4.597826086956522" height="22.387679125102103" fill="orange" data-tooltip="1.18x baseline speed (YJIT 3.3.1)"/>
<line x1="634.945652173913" y1="475.4433462824481" x2="639.5434782608694" y2="475.4433462824481" stroke="#000"/>
<line x1="634.945652173913" y1="475.7812954673475" x2="639.5434782608694" y2="475.7812954673475" stroke="#000"/>
<line x1="637.2445652173913" y1="475.4433462824481" x2="637.2445652173913" y2="475.7812954673475" stroke="#000"/>
<rect x="639.5434782608695" y="476.17622448682584" width="4.597826086956522" height="21.823775513174184" fill="green" data-tooltip="1.15x baseline speed (YJIT 3.4.0dev)"/>
<line x1="639.5434782608695" y1="476.0126374179756" x2="644.141304347826" y2="476.0126374179756" stroke="#000"/>
<line x1="639.5434782608695" y1="476.339811555676" x2="644.141304347826" y2="476.339811555676" stroke="#000"/>
<line x1="641.8423913043479" y1="476.0126374179756" x2="641.8423913043479" y2="476.339811555676" stroke="#000"/>
<line x1="639.5434782608695" y1="498.0" x2="639.5434782608695" y2="502.79999999999995" stroke="#000"/>
<text x="639.5434782608695" y="512.4" fill="#111" font-size="small" font-family="monospace" font-weight="bold" text-anchor="end" transform="rotate(-60, 639.5434782608695, 512.4)">
ruby-json
</text>
<rect x="648.7391304347826" y="478.97569015582724" width="4.597826086956522" height="19.024309844172716" fill="#7070f8" data-tooltip="1.00x baseline speed (CRuby 3.4.0dev)"/>
<line x1="648.7391304347826" y1="478.82194859690463" x2="653.336956521739" y2="478.82194859690463" stroke="#000"/>
<line x1="648.7391304347826" y1="479.12943171474984" x2="653.336956521739" y2="479.12943171474984" stroke="#000"/>
<line x1="651.0380434782609" y1="478.82194859690463" x2="651.0380434782609" y2="479.12943171474984" stroke="#000"/>
<rect x="653.336956521739" y="466.30147934243956" width="4.597826086956522" height="31.69852065756039" fill="orange" data-tooltip="1.67x baseline speed (YJIT 3.3.1)"/>
<line x1="653.336956521739" y1="465.9433230370015" x2="657.9347826086955" y2="465.9433230370015" stroke="#000"/>
<line x1="653.336956521739" y1="466.6596356478776" x2="657.9347826086955" y2="466.6596356478776" stroke="#000"/>
<line x1="655.6358695652174" y1="465.9433230370015" x2="655.6358695652174" y2="466.6596356478776" stroke="#000"/>
<rect x="657.9347826086956" y="463.71905888810716" width="4.597826086956522" height="34.28094111189287" fill="green" data-tooltip="1.80x baseline speed (YJIT 3.4.0dev)"/>
<line x1="657.9347826086956" y1="463.36197754771564" x2="662.5326086956521" y2="463.36197754771564" stroke="#000"/>
<line x1="657.9347826086956" y1="464.0761402284986" x2="662.5326086956521" y2="464.0761402284986" stroke="#000"/>
<line x1="660.233695652174" y1="463.36197754771564" x2="660.233695652174" y2="464.0761402284986" stroke="#000"/>
<line x1="657.9347826086956" y1="498.0" x2="657.9347826086956" y2="502.79999999999995" stroke="#000"/>
<text x="657.9347826086956" y="512.4" fill="#111" font-size="small" font-family="monospace" font-weight="bold" text-anchor="end" transform="rotate(-60, 657.9347826086956, 512.4)">
rubykon
</text>
<rect x="667.1304347826087" y="478.97569015582724" width="4.597826086956522" height="19.024309844172716" fill="#7070f8" data-tooltip="1.00x baseline speed (CRuby 3.4.0dev)"/>
<line x1="667.1304347826087" y1="478.92371386932" x2="671.7282608695651" y2="478.92371386932" stroke="#000"/>
<line x1="667.1304347826087" y1="479.0276664423345" x2="671.7282608695651" y2="479.0276664423345" stroke="#000"/>
<line x1="669.429347826087" y1="478.92371386932" x2="669.429347826087" y2="479.0276664423345" stroke="#000"/>
<rect x="671.7282608695651" y="441.37588049502807" width="4.597826086956522" height="56.62411950497194" fill="orange" data-tooltip="2.98x baseline speed (YJIT 3.3.1)"/>
<line x1="671.7282608695651" y1="441.21540618550057" x2="676.3260869565216" y2="441.21540618550057" stroke="#000"/>
<line x1="671.7282608695651" y1="441.5363548045556" x2="676.3260869565216" y2="441.5363548045556" stroke="#000"/>
<line x1="674.0271739130435" y1="441.21540618550057" x2="674.0271739130435" y2="441.5363548045556" stroke="#000"/>
<rect x="676.3260869565217" y="430.73952385594765" width="4.597826086956522" height="67.26047614405229" fill="green" data-tooltip="3.54x baseline speed (YJIT 3.4.0dev)"/>
<line x1="676.3260869565217" y1="430.5436279530289" x2="680.9239130434783" y2="430.5436279530289" stroke="#000"/>
<line x1="676.3260869565217" y1="430.9354197588665" x2="680.9239130434783" y2="430.9354197588665" stroke="#000"/>
<line x1="678.625" y1="430.5436279530289" x2="678.625" y2="430.9354197588665" stroke="#000"/>
<line x1="676.3260869565217" y1="498.0" x2="676.3260869565217" y2="502.79999999999995" stroke="#000"/>
<text x="676.3260869565217" y="512.4" fill="#111" font-size="small" font-family="monospace" font-weight="bold" text-anchor="end" transform="rotate(-60, 676.3260869565217, 512.4)">
sudoku
</text>
<rect x="685.5217391304348" y="478.97569015582724" width="4.597826086956522" height="19.024309844172716" fill="#7070f8" data-tooltip="1.00x baseline speed (CRuby 3.4.0dev)"/>
<line x1="685.5217391304348" y1="478.9216239436968" x2="690.1195652173913" y2="478.9216239436968" stroke="#000"/>
<line x1="685.5217391304348" y1="479.0297563679577" x2="690.1195652173913" y2="479.0297563679577" stroke="#000"/>
<line x1="687.8206521739131" y1="478.9216239436968" x2="687.8206521739131" y2="479.0297563679577" stroke="#000"/>
<rect x="690.1195652173913" y="462.90384237682184" width="4.597826086956522" height="35.09615762317806" fill="orange" data-tooltip="1.84x baseline speed (YJIT 3.3.1)"/>
<line x1="690.1195652173913" y1="462.7963467107181" x2="694.7173913043478" y2="462.7963467107181" stroke="#000"/>
<line x1="690.1195652173913" y1="463.01133804292556" x2="694.7173913043478" y2="463.01133804292556" stroke="#000"/>
<line x1="692.4184782608695" y1="462.7963467107181" x2="692.4184782608695" y2="463.01133804292556" stroke="#000"/>
<rect x="694.7173913043479" y="460.0080757348176" width="4.597826086956522" height="37.99192426518238" fill="green" data-tooltip="2.00x baseline speed (YJIT 3.4.0dev)"/>
<line x1="694.7173913043479" y1="459.8276375126388" x2="699.3152173913043" y2="459.8276375126388" stroke="#000"/>
<line x1="694.7173913043479" y1="460.1885139569965" x2="699.3152173913043" y2="460.1885139569965" stroke="#000"/>
<line x1="697.0163043478261" y1="459.8276375126388" x2="697.0163043478261" y2="460.1885139569965" stroke="#000"/>
<line x1="694.7173913043479" y1="498.0" x2="694.7173913043479" y2="502.79999999999995" stroke="#000"/>
<text x="694.7173913043479" y="512.4" fill="#111" font-size="small" font-family="monospace" font-weight="bold" text-anchor="end" transform="rotate(-60, 694.7173913043479, 512.4)">
tinygql
</text>
<rect x="703.9130434782609" y="478.97569015582724" width="4.597826086956522" height="19.024309844172716" fill="#7070f8" data-tooltip="1.00x baseline speed (CRuby 3.4.0dev)"/>
<line x1="703.9130434782609" y1="478.95216082752836" x2="708.5108695652174" y2="478.95216082752836" stroke="#000"/>
<line x1="703.9130434782609" y1="478.9992194841261" x2="708.5108695652174" y2="478.9992194841261" stroke="#000"/>
<line x1="706.2119565217391" y1="478.95216082752836" x2="706.2119565217391" y2="478.9992194841261" stroke="#000"/>
<rect x="708.5108695652174" y="409.66760706045534" width="4.597826086956522" height="88.33239293954465" fill="orange" data-tooltip="4.64x baseline speed (YJIT 3.3.1)"/>
<line x1="708.5108695652174" y1="409.5545798323772" x2="713.1086956521739" y2="409.5545798323772" stroke="#000"/>
<line x1="708.5108695652174" y1="409.78063428853346" x2="713.1086956521739" y2="409.78063428853346" stroke="#000"/>
<line x1="710.8097826086956" y1="409.5545798323772" x2="710.8097826086956" y2="409.78063428853346" stroke="#000"/>
<rect x="713.108695652174" y="407.2909890936035" width="4.597826086956522" height="90.70901090639641" fill="green" data-tooltip="4.77x baseline speed (YJIT 3.4.0dev)"/>
<line x1="713.108695652174" y1="407.17625830385396" x2="717.7065217391304" y2="407.17625830385396" stroke="#000"/>
<line x1="713.108695652174" y1="407.40571988335313" x2="717.7065217391304" y2="407.40571988335313" stroke="#000"/>
<line x1="715.4076086956522" y1="407.17625830385396" x2="715.4076086956522" y2="407.40571988335313" stroke="#000"/>
<line x1="713.108695652174" y1="498.0" x2="713.108695652174" y2="502.79999999999995" stroke="#000"/>
<text x="713.108695652174" y="512.4" fill="#111" font-size="small" font-family="monospace" font-weight="bold" text-anchor="end" transform="rotate(-60, 713.108695652174, 512.4)">
30k_ifelse
</text>
<rect x="722.304347826087" y="478.97569015582724" width="4.597826086956522" height="19.024309844172716" fill="#7070f8" data-tooltip="1.00x baseline speed (CRuby 3.4.0dev)"/>
<line x1="722.304347826087" y1="478.9532082826638" x2="726.9021739130435" y2="478.9532082826638" stroke="#000"/>
<line x1="722.304347826087" y1="478.9981720289907" x2="726.9021739130435" y2="478.9981720289907" stroke="#000"/>
<line x1="724.6032608695652" y1="478.9532082826638" x2="724.6032608695652" y2="478.9981720289907" stroke="#000"/>
<rect x="726.9021739130435" y="389.18136047966135" width="4.597826086956522" height="108.81863952033859" fill="orange" data-tooltip="5.72x baseline speed (YJIT 3.3.1)"/>
<line x1="726.9021739130435" y1="389.03880994201364" x2="731.4999999999999" y2="389.03880994201364" stroke="#000"/>
<line x1="726.9021739130435" y1="389.3239110173091" x2="731.4999999999999" y2="389.3239110173091" stroke="#000"/>
<line x1="729.2010869565217" y1="389.03880994201364" x2="729.2010869565217" y2="389.3239110173091" stroke="#000"/>
<rect x="731.5" y="387.3536289850555" width="4.597826086956522" height="110.64637101494445" fill="green" data-tooltip="5.82x baseline speed (YJIT 3.4.0dev)"/>
<line x1="731.5" y1="387.19174336936317" x2="736.0978260869565" y2="387.19174336936317" stroke="#000"/>
<line x1="731.5" y1="387.5155146007478" x2="736.0978260869565" y2="387.5155146007478" stroke="#000"/>
<line x1="733.7989130434784" y1="387.19174336936317" x2="733.7989130434784" y2="387.5155146007478" stroke="#000"/>
<line x1="731.5" y1="498.0" x2="731.5" y2="502.79999999999995" stroke="#000"/>
<text x="731.5" y="512.4" fill="#111" font-size="small" font-family="monospace" font-weight="bold" text-anchor="end" transform="rotate(-60, 731.5, 512.4)">
30k_methods
</text>
<rect x="740.6956521739131" y="478.97569015582724" width="4.597826086956522" height="19.024309844172716" fill="#7070f8" data-tooltip="1.00x baseline speed (CRuby 3.4.0dev)"/>
<line x1="740.6956521739131" y1="478.88234615008764" x2="745.2934782608695" y2="478.88234615008764" stroke="#000"/>
<line x1="740.6956521739131" y1="479.0690341615669" x2="745.2934782608695" y2="479.0690341615669" stroke="#000"/>
<line x1="742.9945652173914" y1="478.88234615008764" x2="742.9945652173914" y2="479.0690341615669" stroke="#000"/>
<rect x="745.2934782608695" y="388.3074668582023" width="4.597826086956522" height="109.69253314179767" fill="orange" data-tooltip="5.77x baseline speed (YJIT 3.3.1)"/>
<line x1="745.2934782608695" y1="374.0184439657869" x2="749.891304347826" y2="374.0184439657869" stroke="#000"/>
<line x1="745.2934782608695" y1="402.59648975061765" x2="749.891304347826" y2="402.59648975061765" stroke="#000"/>
<line x1="747.5923913043479" y1="374.0184439657869" x2="747.5923913043479" y2="402.59648975061765" stroke="#000"/>
<rect x="749.8913043478261" y="374.333991961774" width="4.597826086956522" height="123.66600803822594" fill="green" data-tooltip="6.50x baseline speed (YJIT 3.4.0dev)"/>
<line x1="749.8913043478261" y1="357.2031249142042" x2="754.4891304347826" y2="357.2031249142042" stroke="#000"/>
<line x1="749.8913043478261" y1="391.46485900934385" x2="754.4891304347826" y2="391.46485900934385" stroke="#000"/>
<line x1="752.1902173913044" y1="357.2031249142042" x2="752.1902173913044" y2="391.46485900934385" stroke="#000"/>
<line x1="749.8913043478261" y1="498.0" x2="749.8913043478261" y2="502.79999999999995" stroke="#000"/>
<text x="749.8913043478261" y="512.4" fill="#111" font-size="small" font-family="monospace" font-weight="bold" text-anchor="end" transform="rotate(-60, 749.8913043478261, 512.4)">
cfunc_itself
</text>
<rect x="759.0869565217392" y="478.97569015582724" width="4.597826086956522" height="19.024309844172716" fill="#7070f8" data-tooltip="1.00x baseline speed (CRuby 3.4.0dev)"/>
<line x1="759.0869565217392" y1="478.52523360238354" x2="763.6847826086956" y2="478.52523360238354" stroke="#000"/>
<line x1="759.0869565217392" y1="479.426146709271" x2="763.6847826086956" y2="479.426146709271" stroke="#000"/>
<line x1="761.3858695652175" y1="478.52523360238354" x2="761.3858695652175" y2="479.426146709271" stroke="#000"/>
<rect x="763.6847826086956" y="415.22851262394107" width="4.597826086956522" height="82.77148737605886" fill="orange" data-tooltip="4.35x baseline speed (YJIT 3.3.1)"/>
<line x1="763.6847826086956" y1="413.2682075069044" x2="768.2826086956521" y2="413.2682075069044" stroke="#000"/>
<line x1="763.6847826086956" y1="417.18881774097775" x2="768.2826086956521" y2="417.18881774097775" stroke="#000"/>
<line x1="765.983695652174" y1="413.2682075069044" x2="765.983695652174" y2="417.18881774097775" stroke="#000"/>
<rect x="768.2826086956522" y="405.6589055835662" width="4.597826086956522" height="92.34109441643373" fill="green" data-tooltip="4.85x baseline speed (YJIT 3.4.0dev)"/>
<line x1="768.2826086956522" y1="401.89514198433704" x2="772.8804347826087" y2="401.89514198433704" stroke="#000"/>
<line x1="768.2826086956522" y1="409.4226691827954" x2="772.8804347826087" y2="409.4226691827954" stroke="#000"/>
<line x1="770.5815217391305" y1="401.89514198433704" x2="770.5815217391305" y2="409.4226691827954" stroke="#000"/>
<line x1="768.2826086956522" y1="498.0" x2="768.2826086956522" y2="502.79999999999995" stroke="#000"/>
<text x="768.2826086956522" y="512.4" fill="#111" font-size="small" font-family="monospace" font-weight="bold" text-anchor="end" transform="rotate(-60, 768.2826086956522, 512.4)">
fib
</text>
<rect x="777.4782608695652" y="478.97569015582724" width="4.597826086956522" height="19.024309844172716" fill="#7070f8" data-tooltip="1.00x baseline speed (CRuby 3.4.0dev)"/>
<line x1="777.4782608695652" y1="478.942786309952" x2="782.0760869565217" y2="478.942786309952" stroke="#000"/>
<line x1="777.4782608695652" y1="479.00859400170253" x2="782.0760869565217" y2="479.00859400170253" stroke="#000"/>
<line x1="779.7771739130436" y1="478.942786309952" x2="779.7771739130436" y2="479.00859400170253" stroke="#000"/>
<rect x="782.0760869565217" y="398.58403002627944" width="4.597826086956522" height="99.41596997372051" fill="orange" data-tooltip="5.23x baseline speed (YJIT 3.3.1)"/>
<line x1="782.0760869565217" y1="322.44094984986396" x2="786.6739130434783" y2="322.44094984986396" stroke="#000"/>
<line x1="782.0760869565217" y1="474.7271102026949" x2="786.6739130434783" y2="474.7271102026949" stroke="#000"/>
<line x1="784.375" y1="322.44094984986396" x2="784.375" y2="474.7271102026949" stroke="#000"/>
<rect x="786.6739130434784" y="391.90875789904163" width="4.597826086956522" height="106.09124210095831" fill="green" data-tooltip="5.58x baseline speed (YJIT 3.4.0dev)"/>
<line x1="786.6739130434784" y1="305.7380991084546" x2="791.2717391304348" y2="305.7380991084546" stroke="#000"/>
<line x1="786.6739130434784" y1="478.0794166896287" x2="791.2717391304348" y2="478.0794166896287" stroke="#000"/>
<line x1="788.9728260869566" y1="305.7380991084546" x2="788.9728260869566" y2="478.0794166896287" stroke="#000"/>
<line x1="786.6739130434784" y1="498.0" x2="786.6739130434784" y2="502.79999999999995" stroke="#000"/>
<text x="786.6739130434784" y="512.4" fill="#111" font-size="small" font-family="monospace" font-weight="bold" text-anchor="end" transform="rotate(-60, 786.6739130434784, 512.4)">
getivar
</text>
<rect x="795.8695652173913" y="478.97569015582724" width="4.597826086956522" height="19.024309844172716" fill="#7070f8" data-tooltip="1.00x baseline speed (CRuby 3.4.0dev)"/>
<line x1="795.8695652173913" y1="478.9594557632248" x2="800.4673913043478" y2="478.9594557632248" stroke="#000"/>
<line x1="795.8695652173913" y1="478.99192454842967" x2="800.4673913043478" y2="478.99192454842967" stroke="#000"/>
<line x1="798.1684782608695" y1="478.9594557632248" x2="798.1684782608695" y2="478.99192454842967" stroke="#000"/>
<rect x="800.4673913043478" y="336.66674696444596" width="4.597826086956522" height="161.33325303555398" fill="orange" data-tooltip="8.48x baseline speed (YJIT 3.3.1)"/>
<line x1="800.4673913043478" y1="321.12944112018465" x2="805.0652173913043" y2="321.12944112018465" stroke="#000"/>
<line x1="800.4673913043478" y1="352.2040528087073" x2="805.0652173913043" y2="352.2040528087073" stroke="#000"/>
<line x1="802.766304347826" y1="321.12944112018465" x2="802.766304347826" y2="352.2040528087073" stroke="#000"/>
<rect x="805.0652173913044" y="307.16818088505846" width="4.597826086956522" height="190.83181911494154" fill="green" data-tooltip="10.03x baseline speed (YJIT 3.4.0dev)"/>
<line x1="805.0652173913044" y1="275.10957070257905" x2="809.6630434782608" y2="275.10957070257905" stroke="#000"/>
<line x1="805.0652173913044" y1="339.2267910675379" x2="809.6630434782608" y2="339.2267910675379" stroke="#000"/>
<line x1="807.3641304347826" y1="275.10957070257905" x2="807.3641304347826" y2="339.2267910675379" stroke="#000"/>
<line x1="805.0652173913044" y1="498.0" x2="805.0652173913044" y2="502.79999999999995" stroke="#000"/>
<text x="805.0652173913044" y="512.4" fill="#111" font-size="small" font-family="monospace" font-weight="bold" text-anchor="end" transform="rotate(-60, 805.0652173913044, 512.4)">
keyword_args
</text>
<rect x="814.2608695652174" y="478.97569015582724" width="4.597826086956522" height="19.024309844172716" fill="#7070f8" data-tooltip="1.00x baseline speed (CRuby 3.4.0dev)"/>
<line x1="814.2608695652174" y1="478.8164490437765" x2="818.8586956521739" y2="478.8164490437765" stroke="#000"/>
<line x1="814.2608695652174" y1="479.134931267878" x2="818.8586956521739" y2="479.134931267878" stroke="#000"/>
<line x1="816.5597826086956" y1="478.8164490437765" x2="816.5597826086956" y2="479.134931267878" stroke="#000"/>
<rect x="818.8586956521739" y="152.77112351811095" width="4.597826086956522" height="345.228876481889" fill="orange" data-tooltip="18.15x baseline speed (YJIT 3.3.1)"/>
<line x1="818.8586956521739" y1="109.57201958260194" x2="823.4565217391303" y2="109.57201958260194" stroke="#000"/>
<line x1="818.8586956521739" y1="195.97022745361994" x2="823.4565217391303" y2="195.97022745361994" stroke="#000"/>
<line x1="821.1576086956521" y1="109.57201958260194" x2="821.1576086956521" y2="195.97022745361994" stroke="#000"/>
<rect x="823.4565217391304" y="100.19999999999999" width="4.597826086956522" height="397.79999999999995" fill="green" data-tooltip="20.91x baseline speed (YJIT 3.4.0dev)"/>
<line x1="823.4565217391304" y1="39.56538660029137" x2="828.0543478260869" y2="39.56538660029137" stroke="#000"/>
<line x1="823.4565217391304" y1="160.8346133997086" x2="828.0543478260869" y2="160.8346133997086" stroke="#000"/>
<line x1="825.7554347826087" y1="39.56538660029137" x2="825.7554347826087" y2="160.8346133997086" stroke="#000"/>
<line x1="823.4565217391304" y1="498.0" x2="823.4565217391304" y2="502.79999999999995" stroke="#000"/>
<text x="823.4565217391304" y="512.4" fill="#111" font-size="small" font-family="monospace" font-weight="bold" text-anchor="end" transform="rotate(-60, 823.4565217391304, 512.4)">
respond_to
</text>
<rect x="832.6521739130435" y="478.97569015582724" width="4.597826086956522" height="19.024309844172716" fill="#7070f8" data-tooltip="1.00x baseline speed (CRuby 3.4.0dev)"/>
<line x1="832.6521739130435" y1="478.50904693945705" x2="837.2499999999999" y2="478.50904693945705" stroke="#000"/>
<line x1="832.6521739130435" y1="479.4423333721975" x2="837.2499999999999" y2="479.4423333721975" stroke="#000"/>
<line x1="834.9510869565217" y1="478.50904693945705" x2="834.9510869565217" y2="479.4423333721975" stroke="#000"/>
<rect x="837.2499999999999" y="432.37222734867777" width="4.597826086956522" height="65.62777265132218" fill="orange" data-tooltip="3.45x baseline speed (YJIT 3.3.1)"/>
<line x1="837.2499999999999" y1="430.76224512332817" x2="841.8478260869564" y2="430.76224512332817" stroke="#000"/>
<line x1="837.2499999999999" y1="433.98220957402737" x2="841.8478260869564" y2="433.98220957402737" stroke="#000"/>
<line x1="839.5489130434783" y1="430.76224512332817" x2="839.5489130434783" y2="433.98220957402737" stroke="#000"/>
<rect x="841.8478260869565" y="386.6445304941926" width="4.597826086956522" height="111.35546950580726" fill="green" data-tooltip="5.85x baseline speed (YJIT 3.4.0dev)"/>
<line x1="841.8478260869565" y1="383.91191153477433" x2="846.445652173913" y2="383.91191153477433" stroke="#000"/>
<line x1="841.8478260869565" y1="389.37714945361097" x2="846.445652173913" y2="389.37714945361097" stroke="#000"/>
<line x1="844.1467391304348" y1="383.91191153477433" x2="844.1467391304348" y2="389.37714945361097" stroke="#000"/>
<line x1="841.8478260869565" y1="498.0" x2="841.8478260869565" y2="502.79999999999995" stroke="#000"/>
<text x="841.8478260869565" y="512.4" fill="#111" font-size="small" font-family="monospace" font-weight="bold" text-anchor="end" transform="rotate(-60, 841.8478260869565, 512.4)">
ruby-xor
</text>
<rect x="851.0434782608696" y="478.97569015582724" width="4.597826086956522" height="19.024309844172716" fill="#7070f8" data-tooltip="1.00x baseline speed (CRuby 3.4.0dev)"/>
<line x1="851.0434782608696" y1="478.91348450342514" x2="855.641304347826" y2="478.91348450342514" stroke="#000"/>
<line x1="851.0434782608696" y1="479.0378958082294" x2="855.641304347826" y2="479.0378958082294" stroke="#000"/>
<line x1="853.3423913043479" y1="478.91348450342514" x2="853.3423913043479" y2="479.0378958082294" stroke="#000"/>
<rect x="855.641304347826" y="393.3341128602481" width="4.597826086956522" height="104.6658871397518" fill="orange" data-tooltip="5.50x baseline speed (YJIT 3.3.1)"/>
<line x1="855.641304347826" y1="321.0854657703591" x2="860.2391304347825" y2="321.0854657703591" stroke="#000"/>
<line x1="855.641304347826" y1="465.5827599501372" x2="860.2391304347825" y2="465.5827599501372" stroke="#000"/>
<line x1="857.9402173913044" y1="321.0854657703591" x2="857.9402173913044" y2="465.5827599501372" stroke="#000"/>
<rect x="860.2391304347826" y="382.3094432840582" width="4.597826086956522" height="115.69055671594181" fill="green" data-tooltip="6.08x baseline speed (YJIT 3.4.0dev)"/>
<line x1="860.2391304347826" y1="295.7087948842637" x2="864.8369565217391" y2="295.7087948842637" stroke="#000"/>
<line x1="860.2391304347826" y1="468.91009168385267" x2="864.8369565217391" y2="468.91009168385267" stroke="#000"/>
<line x1="862.5380434782609" y1="295.7087948842637" x2="862.5380434782609" y2="468.91009168385267" stroke="#000"/>
<line x1="860.2391304347826" y1="498.0" x2="860.2391304347826" y2="502.79999999999995" stroke="#000"/>
<text x="860.2391304347826" y="512.4" fill="#111" font-size="small" font-family="monospace" font-weight="bold" text-anchor="end" transform="rotate(-60, 860.2391304347826, 512.4)">
setivar
</text>
<rect x="869.4347826086956" y="478.97569015582724" width="4.597826086956522" height="19.024309844172716" fill="#7070f8" data-tooltip="1.00x baseline speed (CRuby 3.4.0dev)"/>
<line x1="869.4347826086956" y1="478.97144747003193" x2="874.0326086956521" y2="478.97144747003193" stroke="#000"/>
<line x1="869.4347826086956" y1="478.9799328416226" x2="874.0326086956521" y2="478.9799328416226" stroke="#000"/>
<line x1="871.733695652174" y1="478.97144747003193" x2="871.733695652174" y2="478.9799328416226" stroke="#000"/>
<rect x="874.0326086956521" y="453.1483817076897" width="4.597826086956522" height="44.85161829231029" fill="orange" data-tooltip="2.36x baseline speed (YJIT 3.3.1)"/>
<line x1="874.0326086956521" y1="434.35475823473615" x2="878.6304347826086" y2="434.35475823473615" stroke="#000"/>
<line x1="874.0326086956521" y1="471.94200518064326" x2="878.6304347826086" y2="471.94200518064326" stroke="#000"/>
<line x1="876.3315217391304" y1="434.35475823473615" x2="876.3315217391304" y2="471.94200518064326" stroke="#000"/>
<rect x="878.6304347826087" y="452.37040430134834" width="4.597826086956522" height="45.62959569865163" fill="green" data-tooltip="2.40x baseline speed (YJIT 3.4.0dev)"/>
<line x1="878.6304347826087" y1="431.8167580668392" x2="883.2282608695651" y2="431.8167580668392" stroke="#000"/>
<line x1="878.6304347826087" y1="472.9240505358575" x2="883.2282608695651" y2="472.9240505358575" stroke="#000"/>
<line x1="880.929347826087" y1="431.8167580668392" x2="880.929347826087" y2="472.9240505358575" stroke="#000"/>
<line x1="878.6304347826087" y1="498.0" x2="878.6304347826087" y2="502.79999999999995" stroke="#000"/>
<text x="878.6304347826087" y="512.4" fill="#111" font-size="small" font-family="monospace" font-weight="bold" text-anchor="end" transform="rotate(-60, 878.6304347826087, 512.4)">
setivar_object
</text>
<rect x="887.8260869565217" y="478.97569015582724" width="4.597826086956522" height="19.024309844172716" fill="#7070f8" data-tooltip="1.00x baseline speed (CRuby 3.4.0dev)"/>
<line x1="887.8260869565217" y1="478.94297738062124" x2="892.4239130434783" y2="478.94297738062124" stroke="#000"/>
<line x1="887.8260869565217" y1="479.0084029310333" x2="892.4239130434783" y2="479.0084029310333" stroke="#000"/>
<line x1="890.125" y1="478.94297738062124" x2="890.125" y2="479.0084029310333" stroke="#000"/>
<rect x="892.4239130434783" y="453.1892456304285" width="4.597826086956522" height="44.810754369571484" fill="orange" data-tooltip="2.36x baseline speed (YJIT 3.3.1)"/>
<line x1="892.4239130434783" y1="434.2782892733459" x2="897.0217391304348" y2="434.2782892733459" stroke="#000"/>
<line x1="892.4239130434783" y1="472.1002019875111" x2="897.0217391304348" y2="472.1002019875111" stroke="#000"/>
<line x1="894.7228260869565" y1="434.2782892733459" x2="894.7228260869565" y2="472.1002019875111" stroke="#000"/>
<rect x="897.0217391304349" y="452.2346566550121" width="4.597826086956522" height="45.7653433449879" fill="green" data-tooltip="2.41x baseline speed (YJIT 3.4.0dev)"/>
<line x1="897.0217391304349" y1="431.9077876896828" x2="901.6195652173913" y2="431.9077876896828" stroke="#000"/>
<line x1="897.0217391304349" y1="472.5615256203414" x2="901.6195652173913" y2="472.5615256203414" stroke="#000"/>
<line x1="899.3206521739131" y1="431.9077876896828" x2="899.3206521739131" y2="472.5615256203414" stroke="#000"/>
<line x1="897.0217391304349" y1="498.0" x2="897.0217391304349" y2="502.79999999999995" stroke="#000"/>
<text x="897.0217391304349" y="512.4" fill="#111" font-size="small" font-family="monospace" font-weight="bold" text-anchor="end" transform="rotate(-60, 897.0217391304349, 512.4)">
setivar_young
</text>
<rect x="906.2173913043479" y="478.97569015582724" width="4.597826086956522" height="19.024309844172716" fill="#7070f8" data-tooltip="1.00x baseline speed (CRuby 3.4.0dev)"/>
<line x1="906.2173913043479" y1="477.78810919518804" x2="910.8152173913044" y2="477.78810919518804" stroke="#000"/>
<line x1="906.2173913043479" y1="480.1632711164665" x2="910.8152173913044" y2="480.1632711164665" stroke="#000"/>
<line x1="908.5163043478261" y1="477.78810919518804" x2="908.5163043478261" y2="480.1632711164665" stroke="#000"/>
<rect x="910.8152173913044" y="457.3360917909821" width="4.597826086956522" height="40.66390820901787" fill="orange" data-tooltip="2.14x baseline speed (YJIT 3.3.1)"/>
<line x1="910.8152173913044" y1="454.75430147578817" x2="915.4130434782608" y2="454.75430147578817" stroke="#000"/>
<line x1="910.8152173913044" y1="459.9178821061761" x2="915.4130434782608" y2="459.9178821061761" stroke="#000"/>
<line x1="913.1141304347826" y1="454.75430147578817" x2="913.1141304347826" y2="459.9178821061761" stroke="#000"/>
<rect x="915.4130434782609" y="453.3962762434216" width="4.597826086956522" height="44.603723756578304" fill="green" data-tooltip="2.34x baseline speed (YJIT 3.4.0dev)"/>
<line x1="915.4130434782609" y1="450.6097274117405" x2="920.0108695652174" y2="450.6097274117405" stroke="#000"/>
<line x1="915.4130434782609" y1="456.1828250751027" x2="920.0108695652174" y2="456.1828250751027" stroke="#000"/>
<line x1="917.7119565217392" y1="450.6097274117405" x2="917.7119565217392" y2="456.1828250751027" stroke="#000"/>
<line x1="915.4130434782609" y1="498.0" x2="915.4130434782609" y2="502.79999999999995" stroke="#000"/>
<text x="915.4130434782609" y="512.4" fill="#111" font-size="small" font-family="monospace" font-weight="bold" text-anchor="end" transform="rotate(-60, 915.4130434782609, 512.4)">
str_concat
</text>
<rect x="924.608695652174" y="478.97569015582724" width="4.597826086956522" height="19.024309844172716" fill="#7070f8" data-tooltip="1.00x baseline speed (CRuby 3.4.0dev)"/>
<line x1="924.608695652174" y1="478.9178449147564" x2="929.2065217391304" y2="478.9178449147564" stroke="#000"/>
<line x1="924.608695652174" y1="479.0335353968981" x2="929.2065217391304" y2="479.0335353968981" stroke="#000"/>
<line x1="926.9076086956522" y1="478.9178449147564" x2="926.9076086956522" y2="479.0335353968981" stroke="#000"/>
<rect x="929.2065217391304" y="473.07326751560146" width="4.597826086956522" height="24.926732484398453" fill="orange" data-tooltip="1.31x baseline speed (YJIT 3.3.1)"/>
<line x1="929.2065217391304" y1="472.9754493583628" x2="933.8043478260869" y2="472.9754493583628" stroke="#000"/>
<line x1="929.2065217391304" y1="473.17108567284015" x2="933.8043478260869" y2="473.17108567284015" stroke="#000"/>
<line x1="931.5054347826087" y1="472.9754493583628" x2="931.5054347826087" y2="473.17108567284015" stroke="#000"/>
<rect x="933.804347826087" y="469.6070782578164" width="4.597826086956522" height="28.39292174218354" fill="green" data-tooltip="1.49x baseline speed (YJIT 3.4.0dev)"/>
<line x1="933.804347826087" y1="469.45032466052385" x2="938.4021739130435" y2="469.45032466052385" stroke="#000"/>
<line x1="933.804347826087" y1="469.7638318551089" x2="938.4021739130435" y2="469.7638318551089" stroke="#000"/>
<line x1="936.1032608695652" y1="469.45032466052385" x2="936.1032608695652" y2="469.7638318551089" stroke="#000"/>
<line x1="933.804347826087" y1="498.0" x2="933.804347826087" y2="502.79999999999995" stroke="#000"/>
<text x="933.804347826087" y="512.4" fill="#111" font-size="small" font-family="monospace" font-weight="bold" text-anchor="end" transform="rotate(-60, 933.804347826087, 512.4)">
throw
</text>
</svg>