<svg viewBox="0 0 1000 600" xmlns="http://www.w3.org/2000/svg" xmlns:xlink="http://www.w3.org/1999/xlink" width="100%" height="100%">

<rect x="50.0" y="30.0" width="940.0" height="467.99999999999994" stroke="#000" fill="#EEE"/>
<line x1="42.0" y1="497.9999999999999" x2="50.0" y2="497.9999999999999" stroke="#000"/>
<text x="26.000000000000004" y="497.9999999999999" text-anchor="end" font-weight="bold" font-size="small" fill="#111">
0.0
</text>
<line x1="42.0" y1="455.52133607463446" x2="50.0" y2="455.52133607463446" stroke="#000"/>
<text x="26.000000000000004" y="455.52133607463446" text-anchor="end" font-weight="bold" font-size="small" fill="#111">
0.2
</text>
<line x1="42.0" y1="413.042672149269" x2="50.0" y2="413.042672149269" stroke="#000"/>
<text x="26.000000000000004" y="413.042672149269" text-anchor="end" font-weight="bold" font-size="small" fill="#111">
0.4
</text>
<line x1="42.0" y1="370.56400822390356" x2="50.0" y2="370.56400822390356" stroke="#000"/>
<text x="26.000000000000004" y="370.56400822390356" text-anchor="end" font-weight="bold" font-size="small" fill="#111">
0.6
</text>
<line x1="42.0" y1="328.0853442985381" x2="50.0" y2="328.0853442985381" stroke="#000"/>
<text x="26.000000000000004" y="328.0853442985381" text-anchor="end" font-weight="bold" font-size="small" fill="#111">
0.8
</text>
<line x1="42.0" y1="285.6066803731727" x2="50.0" y2="285.6066803731727" stroke="#000"/>
<text x="26.000000000000004" y="285.6066803731727" text-anchor="end" font-weight="bold" font-size="small" fill="#111">
1.0
</text>
<line x1="42.0" y1="243.12801644780723" x2="50.0" y2="243.12801644780723" stroke="#000"/>
<text x="26.000000000000004" y="243.12801644780723" text-anchor="end" font-weight="bold" font-size="small" fill="#111">
1.2
</text>
<line x1="42.0" y1="200.6493525224418" x2="50.0" y2="200.6493525224418" stroke="#000"/>
<text x="26.000000000000004" y="200.6493525224418" text-anchor="end" font-weight="bold" font-size="small" fill="#111">
1.4
</text>
<line x1="42.0" y1="158.17068859707638" x2="50.0" y2="158.17068859707638" stroke="#000"/>
<text x="26.000000000000004" y="158.17068859707638" text-anchor="end" font-weight="bold" font-size="small" fill="#111">
1.6
</text>
<line x1="42.0" y1="115.69202467171094" x2="50.0" y2="115.69202467171094" stroke="#000"/>
<text x="26.000000000000004" y="115.69202467171094" text-anchor="end" font-weight="bold" font-size="small" fill="#111">
1.8
</text>
<rect x="197.99999999999997" y="36.00000000000001" width="80.0" height="18.0" fill="#7070f8" stroke="#888"/>
<text x="238.0" y="52.50000000000001" font-size="small" text-anchor="middle" font-weight="bold" fill="#EEE">
No JIT
</text>
<rect x="479.99999999999994" y="36.00000000000001" width="80.0" height="18.0" fill="orange" stroke="#888"/>
<text x="519.9999999999999" y="52.50000000000001" font-size="small" text-anchor="middle" font-weight="bold" fill="#EEE">
MJIT3.0
</text>
<rect x="761.9999999999999" y="36.00000000000001" width="80.0" height="18.0" fill="green" stroke="#888"/>
<text x="801.9999999999999" y="52.50000000000001" font-size="small" text-anchor="middle" font-weight="bold" fill="#EEE">
YJIT
</text>
<rect x="97.0" y="285.6066803731727" width="35.25" height="212.3933196268272" fill="#7070f8" data-tooltip="1.00x baseline speed (No JIT)"/>
<line x1="97.0" y1="285.43101742766095" x2="132.25" y2="285.43101742766095" stroke="#000"/>
<line x1="97.0" y1="285.78234331868447" x2="132.25" y2="285.78234331868447" stroke="#000"/>
<line x1="114.625" y1="285.43101742766095" x2="114.625" y2="285.78234331868447" stroke="#000"/>
<rect x="132.25" y="186.74541745808554" width="35.25" height="311.2545825419144" fill="orange" data-tooltip="1.47x baseline speed (MJIT3.0)"/>
<line x1="132.25" y1="185.84166924137088" x2="167.5" y2="185.84166924137088" stroke="#000"/>
<line x1="132.25" y1="187.64916567480023" x2="167.5" y2="187.64916567480023" stroke="#000"/>
<line x1="149.875" y1="185.84166924137088" x2="149.875" y2="187.64916567480023" stroke="#000"/>
<rect x="167.49999999999997" y="234.15418006440635" width="35.25" height="263.8458199355936" fill="green" data-tooltip="1.24x baseline speed (YJIT)"/>
<line x1="167.49999999999997" y1="227.27839692865285" x2="202.75" y2="227.27839692865285" stroke="#000"/>
<line x1="167.49999999999997" y1="241.0299632001598" x2="202.75" y2="241.0299632001598" stroke="#000"/>
<line x1="185.12499999999997" y1="227.27839692865285" x2="185.12499999999997" y2="241.0299632001598" stroke="#000"/>
<line x1="167.49999999999997" y1="498.0" x2="167.49999999999997" y2="502.79999999999995" stroke="#000"/>
<text x="167.49999999999997" y="512.4" fill="#111" font-size="small" font-family="monospace" font-weight="bold" text-anchor="end" transform="rotate(-60, 167.49999999999997, 512.4)">
binarytrees
</text>
<rect x="238.0" y="285.6066803731727" width="35.25" height="212.3933196268272" fill="#7070f8" data-tooltip="1.00x baseline speed (No JIT)"/>
<line x1="238.0" y1="285.50115085528205" x2="273.25" y2="285.50115085528205" stroke="#000"/>
<line x1="238.0" y1="285.7122098910634" x2="273.25" y2="285.7122098910634" stroke="#000"/>
<line x1="255.625" y1="285.50115085528205" x2="255.625" y2="285.7122098910634" stroke="#000"/>
<rect x="273.25" y="202.63062804330636" width="35.25" height="295.36937195669356" fill="orange" data-tooltip="1.39x baseline speed (MJIT3.0)"/>
<line x1="273.25" y1="202.41979597268787" x2="308.5" y2="202.41979597268787" stroke="#000"/>
<line x1="273.25" y1="202.84146011392485" x2="308.5" y2="202.84146011392485" stroke="#000"/>
<line x1="290.875" y1="202.41979597268787" x2="290.875" y2="202.84146011392485" stroke="#000"/>
<rect x="308.5" y="282.204350125108" width="35.25" height="215.79564987489195" fill="green" data-tooltip="1.02x baseline speed (YJIT)"/>
<line x1="308.5" y1="282.03992508177714" x2="343.75" y2="282.03992508177714" stroke="#000"/>
<line x1="308.5" y1="282.36877516843884" x2="343.75" y2="282.36877516843884" stroke="#000"/>
<line x1="326.125" y1="282.03992508177714" x2="326.125" y2="282.36877516843884" stroke="#000"/>
<line x1="308.5" y1="498.0" x2="308.5" y2="502.79999999999995" stroke="#000"/>
<text x="308.5" y="512.4" fill="#111" font-size="small" font-family="monospace" font-weight="bold" text-anchor="end" transform="rotate(-60, 308.5, 512.4)">
fannkuchredux
</text>
<rect x="379.0" y="285.6066803731727" width="35.25" height="212.3933196268272" fill="#7070f8" data-tooltip="1.00x baseline speed (No JIT)"/>
<line x1="379.0" y1="282.582564863941" x2="414.25" y2="282.582564863941" stroke="#000"/>
<line x1="379.0" y1="288.63079588240447" x2="414.25" y2="288.63079588240447" stroke="#000"/>
<line x1="396.625" y1="282.582564863941" x2="396.625" y2="288.63079588240447" stroke="#000"/>
<rect x="414.25" y="281.02641737681915" width="35.25" height="216.97358262318082" fill="orange" data-tooltip="1.02x baseline speed (MJIT3.0)"/>
<line x1="414.25" y1="276.4183382597783" x2="449.5" y2="276.4183382597783" stroke="#000"/>
<line x1="414.25" y1="285.63449649386" x2="449.5" y2="285.63449649386" stroke="#000"/>
<line x1="431.875" y1="276.4183382597783" x2="431.875" y2="285.63449649386" stroke="#000"/>
<rect x="449.5" y="259.7435207853701" width="35.25" height="238.25647921462982" fill="green" data-tooltip="1.12x baseline speed (YJIT)"/>
<line x1="449.5" y1="254.3001201033744" x2="484.75" y2="254.3001201033744" stroke="#000"/>
<line x1="449.5" y1="265.18692146736583" x2="484.75" y2="265.18692146736583" stroke="#000"/>
<line x1="467.125" y1="254.3001201033744" x2="467.125" y2="265.18692146736583" stroke="#000"/>
<line x1="449.5" y1="498.0" x2="449.5" y2="502.79999999999995" stroke="#000"/>
<text x="449.5" y="512.4" fill="#111" font-size="small" font-family="monospace" font-weight="bold" text-anchor="end" transform="rotate(-60, 449.5, 512.4)">
jekyll
</text>
<rect x="519.9999999999999" y="285.6066803731727" width="35.25" height="212.3933196268272" fill="#7070f8" data-tooltip="1.00x baseline speed (No JIT)"/>
<line x1="519.9999999999999" y1="283.97824349172544" x2="555.2499999999999" y2="283.97824349172544" stroke="#000"/>
<line x1="519.9999999999999" y1="287.23511725462004" x2="555.2499999999999" y2="287.23511725462004" stroke="#000"/>
<line x1="537.6249999999999" y1="283.97824349172544" x2="537.6249999999999" y2="287.23511725462004" stroke="#000"/>
<rect x="555.2499999999999" y="233.8497194943422" width="35.25" height="264.1502805056578" fill="orange" data-tooltip="1.24x baseline speed (MJIT3.0)"/>
<line x1="555.2499999999999" y1="231.24059657861383" x2="590.4999999999999" y2="231.24059657861383" stroke="#000"/>
<line x1="555.2499999999999" y1="236.45884241007056" x2="590.4999999999999" y2="236.45884241007056" stroke="#000"/>
<line x1="572.8749999999999" y1="231.24059657861383" x2="572.8749999999999" y2="236.45884241007056" stroke="#000"/>
<rect x="590.4999999999999" y="201.13423718658058" width="35.25" height="296.8657628134194" fill="green" data-tooltip="1.40x baseline speed (YJIT)"/>
<line x1="590.4999999999999" y1="197.4451745440408" x2="625.7499999999999" y2="197.4451745440408" stroke="#000"/>
<line x1="590.4999999999999" y1="204.82329982912032" x2="625.7499999999999" y2="204.82329982912032" stroke="#000"/>
<line x1="608.1249999999999" y1="197.4451745440408" x2="608.1249999999999" y2="204.82329982912032" stroke="#000"/>
<line x1="590.4999999999999" y1="498.0" x2="590.4999999999999" y2="502.79999999999995" stroke="#000"/>
<text x="590.4999999999999" y="512.4" fill="#111" font-size="small" font-family="monospace" font-weight="bold" text-anchor="end" transform="rotate(-60, 590.4999999999999, 512.4)">
lee
</text>
<rect x="660.9999999999999" y="285.6066803731727" width="35.25" height="212.3933196268272" fill="#7070f8" data-tooltip="1.00x baseline speed (No JIT)"/>
<line x1="660.9999999999999" y1="284.94730154017975" x2="696.2499999999999" y2="284.94730154017975" stroke="#000"/>
<line x1="660.9999999999999" y1="286.2660592061657" x2="696.2499999999999" y2="286.2660592061657" stroke="#000"/>
<line x1="678.6249999999999" y1="284.94730154017975" x2="678.6249999999999" y2="286.2660592061657" stroke="#000"/>
<rect x="696.2499999999999" y="100.19999999999999" width="35.25" height="397.79999999999995" fill="orange" data-tooltip="1.87x baseline speed (MJIT3.0)"/>
<line x1="696.2499999999999" y1="95.24464413085276" x2="731.4999999999999" y2="95.24464413085276" stroke="#000"/>
<line x1="696.2499999999999" y1="105.15535586914721" x2="731.4999999999999" y2="105.15535586914721" stroke="#000"/>
<line x1="713.8749999999999" y1="95.24464413085276" x2="713.8749999999999" y2="105.15535586914721" stroke="#000"/>
<rect x="731.4999999999999" y="194.04786163951326" width="35.25" height="303.9521383604867" fill="green" data-tooltip="1.43x baseline speed (YJIT)"/>
<line x1="731.4999999999999" y1="193.09792492387993" x2="766.7499999999999" y2="193.09792492387993" stroke="#000"/>
<line x1="731.4999999999999" y1="194.9977983551466" x2="766.7499999999999" y2="194.9977983551466" stroke="#000"/>
<line x1="749.1249999999999" y1="193.09792492387993" x2="749.1249999999999" y2="194.9977983551466" stroke="#000"/>
<line x1="731.4999999999999" y1="498.0" x2="731.4999999999999" y2="502.79999999999995" stroke="#000"/>
<text x="731.4999999999999" y="512.4" fill="#111" font-size="small" font-family="monospace" font-weight="bold" text-anchor="end" transform="rotate(-60, 731.4999999999999, 512.4)">
nbody
</text>
<rect x="801.9999999999999" y="285.6066803731727" width="35.25" height="212.3933196268272" fill="#7070f8" data-tooltip="1.00x baseline speed (No JIT)"/>
<line x1="801.9999999999999" y1="284.1976358565981" x2="837.2499999999999" y2="284.1976358565981" stroke="#000"/>
<line x1="801.9999999999999" y1="287.0157248897474" x2="837.2499999999999" y2="287.0157248897474" stroke="#000"/>
<line x1="819.6249999999999" y1="284.1976358565981" x2="819.6249999999999" y2="287.0157248897474" stroke="#000"/>
<rect x="837.2499999999999" y="248.07642245423503" width="35.25" height="249.92357754576494" fill="orange" data-tooltip="1.18x baseline speed (MJIT3.0)"/>
<line x1="837.2499999999999" y1="245.1913330508437" x2="872.4999999999999" y2="245.1913330508437" stroke="#000"/>
<line x1="837.2499999999999" y1="250.96151185762636" x2="872.4999999999999" y2="250.96151185762636" stroke="#000"/>
<line x1="854.8749999999999" y1="245.1913330508437" x2="854.8749999999999" y2="250.96151185762636" stroke="#000"/>
<rect x="872.4999999999999" y="162.31548676212807" width="35.25" height="335.68451323787184" fill="green" data-tooltip="1.58x baseline speed (YJIT)"/>
<line x1="872.4999999999999" y1="159.5801481262836" x2="907.75" y2="159.5801481262836" stroke="#000"/>
<line x1="872.4999999999999" y1="165.05082539797255" x2="907.75" y2="165.05082539797255" stroke="#000"/>
<line x1="890.125" y1="159.5801481262836" x2="890.125" y2="165.05082539797255" stroke="#000"/>
<line x1="872.4999999999999" y1="498.0" x2="872.4999999999999" y2="502.79999999999995" stroke="#000"/>
<text x="872.4999999999999" y="512.4" fill="#111" font-size="small" font-family="monospace" font-weight="bold" text-anchor="end" transform="rotate(-60, 872.4999999999999, 512.4)">
optcarrot
</text>
</svg>