<svg viewBox="0 0 1000 600" xmlns="http://www.w3.org/2000/svg" xmlns:xlink="http://www.w3.org/1999/xlink" width="100%" height="100%">

<rect x="50.0" y="30.0" width="940.0" height="467.99999999999994" stroke="#000" fill="#fff"/>
<line x1="42.0" y1="497.9999999999999" x2="50.0" y2="497.9999999999999" stroke="#000"/>
<text x="26.000000000000004" y="497.9999999999999" text-anchor="end" font-weight="bold" font-size="small" fill="#111">
0.0
</text>
<line x1="42.0" y1="398.6846927775781" x2="50.0" y2="398.6846927775781" stroke="#000"/>
<text x="26.000000000000004" y="398.6846927775781" text-anchor="end" font-weight="bold" font-size="small" fill="#111">
0.5
</text>
<line x1="42.0" y1="299.36938555515627" x2="50.0" y2="299.36938555515627" stroke="#000"/>
<text x="26.000000000000004" y="299.36938555515627" text-anchor="end" font-weight="bold" font-size="small" fill="#111">
1.0
</text>
<line x1="42.0" y1="200.0540783327344" x2="50.0" y2="200.0540783327344" stroke="#000"/>
<text x="26.000000000000004" y="200.0540783327344" text-anchor="end" font-weight="bold" font-size="small" fill="#111">
1.5
</text>
<line x1="42.0" y1="100.73877111031258" x2="50.0" y2="100.73877111031258" stroke="#000"/>
<text x="26.000000000000004" y="100.73877111031258" text-anchor="end" font-weight="bold" font-size="small" fill="#111">
2.0
</text>
<line x1="142.75" y1="54.60000000000001" x2="262.75" y2="54.60000000000001" stroke="#648FFF" stroke-width="2"/>
<text x="202.75" y="49.500000000000014" font-size="small" text-anchor="middle" font-weight="bold" fill="#000">
CRuby 3.3.4
</text>
<rect x="354.25" y="35.400000000000006" width="120.0" height="19.2" fill="#785EF0" stroke="none"/>
<text x="414.25" y="49.500000000000014" font-size="small" text-anchor="middle" font-weight="bold" fill="#fff" style="text-shadow: 0 0 1px #000;">
CRuby 3.4.0dev
</text>
<rect x="565.75" y="35.400000000000006" width="120.0" height="19.2" fill="#FFB000" stroke="none"/>
<text x="625.7499999999999" y="49.500000000000014" font-size="small" text-anchor="middle" font-weight="bold" fill="#fff" style="text-shadow: 0 0 1px #000;">
YJIT 3.3.4
</text>
<rect x="777.25" y="35.400000000000006" width="120.0" height="19.2" fill="#DC267F" stroke="none"/>
<text x="837.2499999999999" y="49.500000000000014" font-size="small" text-anchor="middle" font-weight="bold" fill="#fff" style="text-shadow: 0 0 1px #000;">
YJIT 3.4.0dev
</text>
<rect x="65.40983606557377" y="302.51636456714385" width="15.40983606557377" height="195.48363543285612" fill="#785EF0" data-tooltip="0.98x baseline (CRuby 3.4.0dev)"/>
<rect x="80.81967213114753" y="278.2379599461446" width="15.40983606557377" height="219.76204005385534" fill="#FFB000" data-tooltip="1.11x baseline (YJIT 3.3.4)"/>
<rect x="96.2295081967213" y="272.26707581313394" width="15.40983606557377" height="225.732924186866" fill="#DC267F" data-tooltip="1.14x baseline (YJIT 3.4.0dev)"/>
<line x1="88.5245901639344" y1="498.0" x2="88.5245901639344" y2="502.79999999999995" stroke="#000"/>
<text x="88.5245901639344" y="512.4" fill="#111" font-size="small" text-anchor="end" transform="rotate(-60, 88.5245901639344, 512.4)">
activerecord
</text>
<rect x="127.04918032786883" y="215.83162395087103" width="15.40983606557377" height="282.16837604912894" fill="#785EF0" data-tooltip="1.42x baseline (CRuby 3.4.0dev)"/>
<rect x="142.4590163934426" y="170.50736732996253" width="15.40983606557377" height="327.49263267003744" fill="#FFB000" data-tooltip="1.65x baseline (YJIT 3.3.4)"/>
<rect x="157.86885245901638" y="276.30015314331666" width="15.40983606557377" height="221.6998468566833" fill="#DC267F" data-tooltip="1.12x baseline (YJIT 3.4.0dev)"/>
<line x1="150.1639344262295" y1="498.0" x2="150.1639344262295" y2="502.79999999999995" stroke="#000"/>
<text x="150.1639344262295" y="512.4" fill="#111" font-size="small" text-anchor="end" transform="rotate(-60, 150.1639344262295, 512.4)">
chunky-png
</text>
<rect x="188.68852459016395" y="283.2174427772019" width="15.40983606557377" height="214.78255722279803" fill="#785EF0" data-tooltip="1.08x baseline (CRuby 3.4.0dev)"/>
<rect x="204.0983606557377" y="286.08121020683916" width="15.40983606557377" height="211.91878979316076" fill="#FFB000" data-tooltip="1.07x baseline (YJIT 3.3.4)"/>
<rect x="219.5081967213115" y="265.26184184947596" width="15.40983606557377" height="232.738158150524" fill="#DC267F" data-tooltip="1.17x baseline (YJIT 3.4.0dev)"/>
<line x1="211.8032786885246" y1="498.0" x2="211.8032786885246" y2="502.79999999999995" stroke="#000"/>
<text x="211.8032786885246" y="512.4" fill="#111" font-size="small" text-anchor="end" transform="rotate(-60, 211.8032786885246, 512.4)">
erubi-rails
</text>
<rect x="250.32786885245906" y="307.9897233201581" width="15.40983606557377" height="190.01027667984187" fill="#785EF0" data-tooltip="0.96x baseline (CRuby 3.4.0dev)"/>
<rect x="265.7377049180328" y="100.19999999999999" width="15.40983606557377" height="397.79999999999995" fill="#FFB000" data-tooltip="2.00x baseline (YJIT 3.3.4)"/>
<rect x="281.14754098360663" y="132.2238950772547" width="15.40983606557377" height="365.7761049227452" fill="#DC267F" data-tooltip="1.84x baseline (YJIT 3.4.0dev)"/>
<line x1="273.4426229508197" y1="498.0" x2="273.4426229508197" y2="502.79999999999995" stroke="#000"/>
<text x="273.4426229508197" y="512.4" fill="#111" font-size="small" text-anchor="end" transform="rotate(-60, 273.4426229508197, 512.4)">
hexapdf
</text>
<rect x="311.96721311475414" y="296.3016484490311" width="15.40983606557377" height="201.69835155096882" fill="#785EF0" data-tooltip="1.02x baseline (CRuby 3.4.0dev)"/>
<rect x="327.37704918032796" y="276.80113775345245" width="15.40983606557377" height="221.1988622465475" fill="#FFB000" data-tooltip="1.11x baseline (YJIT 3.3.4)"/>
<rect x="342.7868852459017" y="271.0732649748831" width="15.40983606557377" height="226.92673502511684" fill="#DC267F" data-tooltip="1.14x baseline (YJIT 3.4.0dev)"/>
<line x1="335.08196721311486" y1="498.0" x2="335.08196721311486" y2="502.79999999999995" stroke="#000"/>
<text x="335.08196721311486" y="512.4" fill="#111" font-size="small" text-anchor="end" transform="rotate(-60, 335.08196721311486, 512.4)">
liquid-c
</text>
<rect x="373.6065573770493" y="294.97839022393026" width="15.40983606557377" height="203.02160977606968" fill="#785EF0" data-tooltip="1.02x baseline (CRuby 3.4.0dev)"/>
<rect x="389.01639344262304" y="292.794151520705" width="15.40983606557377" height="205.20584847929493" fill="#FFB000" data-tooltip="1.03x baseline (YJIT 3.3.4)"/>
<rect x="404.42622950819685" y="274.6672220764131" width="15.40983606557377" height="223.33277792358683" fill="#DC267F" data-tooltip="1.12x baseline (YJIT 3.4.0dev)"/>
<line x1="396.72131147540995" y1="498.0" x2="396.72131147540995" y2="502.79999999999995" stroke="#000"/>
<text x="396.72131147540995" y="512.4" fill="#111" font-size="small" text-anchor="end" transform="rotate(-60, 396.72131147540995, 512.4)">
liquid-compile
</text>
<rect x="435.2459016393444" y="289.8413933272716" width="15.40983606557377" height="208.15860667272835" fill="#785EF0" data-tooltip="1.05x baseline (CRuby 3.4.0dev)"/>
<rect x="450.6557377049182" y="269.68688741464007" width="15.40983606557377" height="228.31311258535985" fill="#FFB000" data-tooltip="1.15x baseline (YJIT 3.3.4)"/>
<rect x="466.06557377049194" y="250.38429610120778" width="15.40983606557377" height="247.61570389879216" fill="#DC267F" data-tooltip="1.25x baseline (YJIT 3.4.0dev)"/>
<line x1="458.3606557377051" y1="498.0" x2="458.3606557377051" y2="502.79999999999995" stroke="#000"/>
<text x="458.3606557377051" y="512.4" fill="#111" font-size="small" text-anchor="end" transform="rotate(-60, 458.3606557377051, 512.4)">
liquid-render
</text>
<rect x="496.8852459016395" y="303.5723823042959" width="15.40983606557377" height="194.42761769570407" fill="#785EF0" data-tooltip="0.98x baseline (CRuby 3.4.0dev)"/>
<rect x="512.2950819672133" y="270.9560322875199" width="15.40983606557377" height="227.04396771248" fill="#FFB000" data-tooltip="1.14x baseline (YJIT 3.3.4)"/>
<rect x="527.7049180327871" y="272.33056282046334" width="15.40983606557377" height="225.66943717953663" fill="#DC267F" data-tooltip="1.14x baseline (YJIT 3.4.0dev)"/>
<line x1="520.0000000000002" y1="498.0" x2="520.0000000000002" y2="502.79999999999995" stroke="#000"/>
<text x="520.0000000000002" y="512.4" fill="#111" font-size="small" text-anchor="end" transform="rotate(-60, 520.0000000000002, 512.4)">
lobsters
</text>
<rect x="558.5245901639346" y="286.7869061778133" width="15.40983606557377" height="211.21309382218666" fill="#785EF0" data-tooltip="1.06x baseline (CRuby 3.4.0dev)"/>
<rect x="573.9344262295084" y="283.364471787176" width="15.40983606557377" height="214.6355282128239" fill="#FFB000" data-tooltip="1.08x baseline (YJIT 3.3.4)"/>
<rect x="589.3442622950822" y="271.7885907600205" width="15.40983606557377" height="226.21140923997945" fill="#DC267F" data-tooltip="1.14x baseline (YJIT 3.4.0dev)"/>
<line x1="581.6393442622954" y1="498.0" x2="581.6393442622954" y2="502.79999999999995" stroke="#000"/>
<text x="581.6393442622954" y="512.4" fill="#111" font-size="small" text-anchor="end" transform="rotate(-60, 581.6393442622954, 512.4)">
mail
</text>
<rect x="620.1639344262297" y="297.51346378801935" width="15.40983606557377" height="200.4865362119806" fill="#785EF0" data-tooltip="1.01x baseline (CRuby 3.4.0dev)"/>
<rect x="635.5737704918035" y="288.4217963971081" width="15.40983606557377" height="209.57820360289188" fill="#FFB000" data-tooltip="1.06x baseline (YJIT 3.3.4)"/>
<rect x="650.9836065573774" y="283.04197254047074" width="15.40983606557377" height="214.9580274595292" fill="#DC267F" data-tooltip="1.08x baseline (YJIT 3.4.0dev)"/>
<line x1="643.2786885245905" y1="498.0" x2="643.2786885245905" y2="502.79999999999995" stroke="#000"/>
<text x="643.2786885245905" y="512.4" fill="#111" font-size="small" text-anchor="end" transform="rotate(-60, 643.2786885245905, 512.4)">
psych-load
</text>
<rect x="681.8032786885249" y="291.37025059603513" width="15.40983606557377" height="206.62974940396484" fill="#785EF0" data-tooltip="1.04x baseline (CRuby 3.4.0dev)"/>
<rect x="697.2131147540987" y="271.60553917153993" width="15.40983606557377" height="226.39446082846" fill="#FFB000" data-tooltip="1.14x baseline (YJIT 3.3.4)"/>
<rect x="712.6229508196724" y="268.6331830118665" width="15.40983606557377" height="229.36681698813345" fill="#DC267F" data-tooltip="1.15x baseline (YJIT 3.4.0dev)"/>
<line x1="704.9180327868855" y1="498.0" x2="704.9180327868855" y2="502.79999999999995" stroke="#000"/>
<text x="704.9180327868855" y="512.4" fill="#111" font-size="small" text-anchor="end" transform="rotate(-60, 704.9180327868855, 512.4)">
railsbench
</text>
<rect x="743.44262295082" y="298.4416823683156" width="15.40983606557377" height="199.55831763168433" fill="#785EF0" data-tooltip="1.00x baseline (CRuby 3.4.0dev)"/>
<rect x="758.8524590163937" y="229.91931211827546" width="15.40983606557377" height="268.0806878817245" fill="#FFB000" data-tooltip="1.35x baseline (YJIT 3.3.4)"/>
<rect x="774.2622950819675" y="216.5399597355822" width="15.40983606557377" height="281.4600402644177" fill="#DC267F" data-tooltip="1.42x baseline (YJIT 3.4.0dev)"/>
<line x1="766.5573770491807" y1="498.0" x2="766.5573770491807" y2="502.79999999999995" stroke="#000"/>
<text x="766.5573770491807" y="512.4" fill="#111" font-size="small" text-anchor="end" transform="rotate(-60, 766.5573770491807, 512.4)">
rubocop
</text>
<rect x="805.081967213115" y="284.6757328462238" width="15.40983606557377" height="213.3242671537761" fill="#785EF0" data-tooltip="1.07x baseline (CRuby 3.4.0dev)"/>
<rect x="820.4918032786888" y="298.56525530740373" width="15.40983606557377" height="199.4347446925962" fill="#FFB000" data-tooltip="1.00x baseline (YJIT 3.3.4)"/>
<rect x="835.9016393442627" y="281.5323146050094" width="15.40983606557377" height="216.46768539499055" fill="#DC267F" data-tooltip="1.09x baseline (YJIT 3.4.0dev)"/>
<line x1="828.1967213114758" y1="498.0" x2="828.1967213114758" y2="502.79999999999995" stroke="#000"/>
<text x="828.1967213114758" y="512.4" fill="#111" font-size="small" text-anchor="end" transform="rotate(-60, 828.1967213114758, 512.4)">
ruby-lsp
</text>
<rect x="866.7213114754102" y="295.3743009151594" width="15.40983606557377" height="202.62569908484056" fill="#785EF0" data-tooltip="1.02x baseline (CRuby 3.4.0dev)"/>
<rect x="882.131147540984" y="287.94594041266527" width="15.40983606557377" height="210.05405958733468" fill="#FFB000" data-tooltip="1.06x baseline (YJIT 3.3.4)"/>
<rect x="897.5409836065578" y="275.2740313201752" width="15.40983606557377" height="222.72596867982475" fill="#DC267F" data-tooltip="1.12x baseline (YJIT 3.4.0dev)"/>
<line x1="889.836065573771" y1="498.0" x2="889.836065573771" y2="502.79999999999995" stroke="#000"/>
<text x="889.836065573771" y="512.4" fill="#111" font-size="small" text-anchor="end" transform="rotate(-60, 889.836065573771, 512.4)">
sequel
</text>
<rect x="928.3606557377053" y="290.1125670762316" width="15.40983606557377" height="207.88743292376836" fill="#785EF0" data-tooltip="1.05x baseline (CRuby 3.4.0dev)"/>
<rect x="943.7704918032791" y="262.3047022854024" width="15.40983606557377" height="235.69529771459753" fill="#FFB000" data-tooltip="1.19x baseline (YJIT 3.3.4)"/>
<rect x="959.1803278688528" y="260.4132230725244" width="15.40983606557377" height="237.58677692747554" fill="#DC267F" data-tooltip="1.20x baseline (YJIT 3.4.0dev)"/>
<line x1="951.4754098360661" y1="498.0" x2="951.4754098360661" y2="502.79999999999995" stroke="#000"/>
<text x="951.4754098360661" y="512.4" fill="#111" font-size="small" text-anchor="end" transform="rotate(-60, 951.4754098360661, 512.4)" font-style="italic">
geomean*
</text>
<line x1="50.0" y1="299.36938555515627" x2="990.0" y2="299.36938555515627" stroke="#648FFF" stroke-width="2"/>
<rect x="67.23483606557377" y="288.3563645671438" width="17.85" height="7.2" transform="rotate(-60, 75.11475409836066, 295.01636456714385)" fill="#fffa"/>
<text x="67.40983606557377" y="295.01636456714385" fill="#111" font-size="0.5em" text-anchor="start" textLength="17.5" transform="rotate(-60, 75.11475409836066, 295.01636456714385)" style="text-shadow: 0 0 1px #fff;">
0.98
</text>
<rect x="82.64467213114754" y="264.0779599461446" width="17.85" height="7.2" transform="rotate(-60, 90.52459016393442, 270.7379599461446)" fill="#fffa"/>
<text x="82.81967213114753" y="270.7379599461446" fill="#111" font-size="0.5em" text-anchor="start" textLength="17.5" transform="rotate(-60, 90.52459016393442, 270.7379599461446)" style="text-shadow: 0 0 1px #fff;">
1.11
</text>
<rect x="98.0545081967213" y="258.1070758131339" width="17.85" height="7.2" transform="rotate(-60, 105.93442622950819, 264.76707581313394)" fill="#fffa"/>
<text x="98.2295081967213" y="264.76707581313394" fill="#111" font-size="0.5em" text-anchor="start" textLength="17.5" transform="rotate(-60, 105.93442622950819, 264.76707581313394)" style="text-shadow: 0 0 1px #fff;">
1.14
</text>
<rect x="128.87418032786883" y="201.671623950871" width="17.85" height="7.2" transform="rotate(-60, 136.75409836065572, 208.331623950871)" fill="#fffa"/>
<text x="129.04918032786884" y="208.331623950871" fill="#111" font-size="0.5em" text-anchor="start" textLength="17.5" transform="rotate(-60, 136.75409836065572, 208.331623950871)" style="text-shadow: 0 0 1px #fff;">
1.42
</text>
<rect x="144.2840163934426" y="156.34736732996254" width="17.85" height="7.2" transform="rotate(-60, 152.1639344262295, 163.00736732996253)" fill="#fffa"/>
<text x="144.4590163934426" y="163.00736732996253" fill="#111" font-size="0.5em" text-anchor="start" textLength="17.5" transform="rotate(-60, 152.1639344262295, 163.00736732996253)" style="text-shadow: 0 0 1px #fff;">
1.65
</text>
<rect x="159.69385245901637" y="262.14015314331664" width="17.85" height="7.2" transform="rotate(-60, 167.5737704918033, 268.8001531433166)" fill="#fffa"/>
<text x="159.86885245901638" y="268.8001531433166" fill="#111" font-size="0.5em" text-anchor="start" textLength="17.5" transform="rotate(-60, 167.5737704918033, 268.8001531433166)" style="text-shadow: 0 0 1px #fff;">
1.12
</text>
<rect x="190.51352459016394" y="269.0574427772019" width="17.85" height="7.2" transform="rotate(-60, 198.39344262295083, 275.7174427772019)" fill="#fffa"/>
<text x="190.68852459016395" y="275.7174427772019" fill="#111" font-size="0.5em" text-anchor="start" textLength="17.5" transform="rotate(-60, 198.39344262295083, 275.7174427772019)" style="text-shadow: 0 0 1px #fff;">
1.08
</text>
<rect x="205.92336065573772" y="271.9212102068392" width="17.85" height="7.2" transform="rotate(-60, 213.8032786885246, 278.58121020683916)" fill="#fffa"/>
<text x="206.09836065573774" y="278.58121020683916" fill="#111" font-size="0.5em" text-anchor="start" textLength="17.5" transform="rotate(-60, 213.8032786885246, 278.58121020683916)" style="text-shadow: 0 0 1px #fff;">
1.07
</text>
<rect x="221.33319672131148" y="251.10184184947596" width="17.85" height="7.2" transform="rotate(-60, 229.2131147540984, 257.76184184947596)" fill="#fffa"/>
<text x="221.5081967213115" y="257.76184184947596" fill="#111" font-size="0.5em" text-anchor="start" textLength="17.5" transform="rotate(-60, 229.2131147540984, 257.76184184947596)" style="text-shadow: 0 0 1px #fff;">
1.17
</text>
<rect x="252.15286885245908" y="293.8297233201581" width="17.85" height="7.2" transform="rotate(-60, 260.03278688524597, 300.48972332015813)" fill="#fffa"/>
<text x="252.32786885245906" y="300.48972332015813" fill="#111" font-size="0.5em" text-anchor="start" textLength="17.5" transform="rotate(-60, 260.03278688524597, 300.48972332015813)" style="text-shadow: 0 0 1px #fff;">
0.96
</text>
<rect x="267.56270491803286" y="86.03999999999998" width="17.85" height="7.2" transform="rotate(-60, 275.4426229508197, 92.69999999999999)" fill="#fffa"/>
<text x="267.7377049180328" y="92.69999999999999" fill="#111" font-size="0.5em" text-anchor="start" textLength="17.5" transform="rotate(-60, 275.4426229508197, 92.69999999999999)" style="text-shadow: 0 0 1px #fff;">
2.00
</text>
<rect x="282.9725409836066" y="118.06389507725468" width="17.85" height="7.2" transform="rotate(-60, 290.8524590163935, 124.72389507725468)" fill="#fffa"/>
<text x="283.14754098360663" y="124.72389507725468" fill="#111" font-size="0.5em" text-anchor="start" textLength="17.5" transform="rotate(-60, 290.8524590163935, 124.72389507725468)" style="text-shadow: 0 0 1px #fff;">
1.84
</text>
<rect x="313.7922131147542" y="282.1416484490311" width="17.85" height="7.2" transform="rotate(-60, 321.67213114754105, 288.8016484490311)" fill="#fffa"/>
<text x="313.96721311475414" y="288.8016484490311" fill="#111" font-size="0.5em" text-anchor="start" textLength="17.5" transform="rotate(-60, 321.67213114754105, 288.8016484490311)" style="text-shadow: 0 0 1px #fff;">
1.02
</text>
<rect x="329.20204918032795" y="262.6411377534524" width="17.85" height="7.2" transform="rotate(-60, 337.08196721311486, 269.30113775345245)" fill="#fffa"/>
<text x="329.37704918032796" y="269.30113775345245" fill="#111" font-size="0.5em" text-anchor="start" textLength="17.5" transform="rotate(-60, 337.08196721311486, 269.30113775345245)" style="text-shadow: 0 0 1px #fff;">
1.11
</text>
<rect x="344.61188524590176" y="256.9132649748831" width="17.85" height="7.2" transform="rotate(-60, 352.4918032786886, 263.5732649748831)" fill="#fffa"/>
<text x="344.7868852459017" y="263.5732649748831" fill="#111" font-size="0.5em" text-anchor="start" textLength="17.5" transform="rotate(-60, 352.4918032786886, 263.5732649748831)" style="text-shadow: 0 0 1px #fff;">
1.14
</text>
<rect x="375.43155737704933" y="280.8183902239303" width="17.85" height="7.2" transform="rotate(-60, 383.3114754098362, 287.47839022393026)" fill="#fffa"/>
<text x="375.6065573770493" y="287.47839022393026" fill="#111" font-size="0.5em" text-anchor="start" textLength="17.5" transform="rotate(-60, 383.3114754098362, 287.47839022393026)" style="text-shadow: 0 0 1px #fff;">
1.02
</text>
<rect x="390.8413934426231" y="278.634151520705" width="17.85" height="7.2" transform="rotate(-60, 398.72131147540995, 285.294151520705)" fill="#fffa"/>
<text x="391.01639344262304" y="285.294151520705" fill="#111" font-size="0.5em" text-anchor="start" textLength="17.5" transform="rotate(-60, 398.72131147540995, 285.294151520705)" style="text-shadow: 0 0 1px #fff;">
1.03
</text>
<rect x="406.25122950819684" y="260.5072220764131" width="17.85" height="7.2" transform="rotate(-60, 414.13114754098376, 267.1672220764131)" fill="#fffa"/>
<text x="406.42622950819685" y="267.1672220764131" fill="#111" font-size="0.5em" text-anchor="start" textLength="17.5" transform="rotate(-60, 414.13114754098376, 267.1672220764131)" style="text-shadow: 0 0 1px #fff;">
1.12
</text>
<rect x="437.0709016393444" y="275.68139332727156" width="17.85" height="7.2" transform="rotate(-60, 444.9508196721313, 282.3413933272716)" fill="#fffa"/>
<text x="437.2459016393444" y="282.3413933272716" fill="#111" font-size="0.5em" text-anchor="start" textLength="17.5" transform="rotate(-60, 444.9508196721313, 282.3413933272716)" style="text-shadow: 0 0 1px #fff;">
1.05
</text>
<rect x="452.4807377049182" y="255.52688741464007" width="17.85" height="7.2" transform="rotate(-60, 460.3606557377051, 262.18688741464007)" fill="#fffa"/>
<text x="452.6557377049182" y="262.18688741464007" fill="#111" font-size="0.5em" text-anchor="start" textLength="17.5" transform="rotate(-60, 460.3606557377051, 262.18688741464007)" style="text-shadow: 0 0 1px #fff;">
1.15
</text>
<rect x="467.890573770492" y="236.22429610120778" width="17.85" height="7.2" transform="rotate(-60, 475.77049180327884, 242.88429610120778)" fill="#fffa"/>
<text x="468.06557377049194" y="242.88429610120778" fill="#111" font-size="0.5em" text-anchor="start" textLength="17.5" transform="rotate(-60, 475.77049180327884, 242.88429610120778)" style="text-shadow: 0 0 1px #fff;">
1.25
</text>
<rect x="498.71024590163955" y="289.4123823042959" width="17.85" height="7.2" transform="rotate(-60, 506.59016393442636, 296.0723823042959)" fill="#fffa"/>
<text x="498.8852459016395" y="296.0723823042959" fill="#111" font-size="0.5em" text-anchor="start" textLength="17.5" transform="rotate(-60, 506.59016393442636, 296.0723823042959)" style="text-shadow: 0 0 1px #fff;">
0.98
</text>
<rect x="514.1200819672133" y="256.79603228751995" width="17.85" height="7.2" transform="rotate(-60, 522.0000000000001, 263.4560322875199)" fill="#fffa"/>
<text x="514.2950819672133" y="263.4560322875199" fill="#111" font-size="0.5em" text-anchor="start" textLength="17.5" transform="rotate(-60, 522.0000000000001, 263.4560322875199)" style="text-shadow: 0 0 1px #fff;">
1.14
</text>
<rect x="529.529918032787" y="258.1705628204633" width="17.85" height="7.2" transform="rotate(-60, 537.4098360655739, 264.8305628204633)" fill="#fffa"/>
<text x="529.7049180327871" y="264.8305628204633" fill="#111" font-size="0.5em" text-anchor="start" textLength="17.5" transform="rotate(-60, 537.4098360655739, 264.8305628204633)" style="text-shadow: 0 0 1px #fff;">
1.14
</text>
<rect x="560.3495901639346" y="272.6269061778133" width="17.85" height="7.2" transform="rotate(-60, 568.2295081967214, 279.28690617781325)" fill="#fffa"/>
<text x="560.5245901639346" y="279.28690617781325" fill="#111" font-size="0.5em" text-anchor="start" textLength="17.5" transform="rotate(-60, 568.2295081967214, 279.28690617781325)" style="text-shadow: 0 0 1px #fff;">
1.06
</text>
<rect x="575.7594262295083" y="269.20447178717603" width="17.85" height="7.2" transform="rotate(-60, 583.6393442622953, 275.864471787176)" fill="#fffa"/>
<text x="575.9344262295084" y="275.864471787176" fill="#111" font-size="0.5em" text-anchor="start" textLength="17.5" transform="rotate(-60, 583.6393442622953, 275.864471787176)" style="text-shadow: 0 0 1px #fff;">
1.08
</text>
<rect x="591.1692622950821" y="257.6285907600205" width="17.85" height="7.2" transform="rotate(-60, 599.0491803278691, 264.2885907600205)" fill="#fffa"/>
<text x="591.3442622950822" y="264.2885907600205" fill="#111" font-size="0.5em" text-anchor="start" textLength="17.5" transform="rotate(-60, 599.0491803278691, 264.2885907600205)" style="text-shadow: 0 0 1px #fff;">
1.14
</text>
<rect x="621.9889344262297" y="283.3534637880193" width="17.85" height="7.2" transform="rotate(-60, 629.8688524590166, 290.01346378801935)" fill="#fffa"/>
<text x="622.1639344262297" y="290.01346378801935" fill="#111" font-size="0.5em" text-anchor="start" textLength="17.5" transform="rotate(-60, 629.8688524590166, 290.01346378801935)" style="text-shadow: 0 0 1px #fff;">
1.01
</text>
<rect x="637.3987704918035" y="274.26179639710807" width="17.85" height="7.2" transform="rotate(-60, 645.2786885245904, 280.9217963971081)" fill="#fffa"/>
<text x="637.5737704918035" y="280.9217963971081" fill="#111" font-size="0.5em" text-anchor="start" textLength="17.5" transform="rotate(-60, 645.2786885245904, 280.9217963971081)" style="text-shadow: 0 0 1px #fff;">
1.06
</text>
<rect x="652.8086065573773" y="268.8819725404707" width="17.85" height="7.2" transform="rotate(-60, 660.6885245901641, 275.54197254047074)" fill="#fffa"/>
<text x="652.9836065573774" y="275.54197254047074" fill="#111" font-size="0.5em" text-anchor="start" textLength="17.5" transform="rotate(-60, 660.6885245901641, 275.54197254047074)" style="text-shadow: 0 0 1px #fff;">
1.08
</text>
<rect x="683.6282786885248" y="277.2102505960351" width="17.85" height="7.2" transform="rotate(-60, 691.5081967213117, 283.8702505960351)" fill="#fffa"/>
<text x="683.8032786885249" y="283.8702505960351" fill="#111" font-size="0.5em" text-anchor="start" textLength="17.5" transform="rotate(-60, 691.5081967213117, 283.8702505960351)" style="text-shadow: 0 0 1px #fff;">
1.04
</text>
<rect x="699.0381147540986" y="257.44553917153996" width="17.85" height="7.2" transform="rotate(-60, 706.9180327868854, 264.10553917153993)" fill="#fffa"/>
<text x="699.2131147540987" y="264.10553917153993" fill="#111" font-size="0.5em" text-anchor="start" textLength="17.5" transform="rotate(-60, 706.9180327868854, 264.10553917153993)" style="text-shadow: 0 0 1px #fff;">
1.14
</text>
<rect x="714.4479508196724" y="254.4731830118665" width="17.85" height="7.2" transform="rotate(-60, 722.3278688524592, 261.1331830118665)" fill="#fffa"/>
<text x="714.6229508196724" y="261.1331830118665" fill="#111" font-size="0.5em" text-anchor="start" textLength="17.5" transform="rotate(-60, 722.3278688524592, 261.1331830118665)" style="text-shadow: 0 0 1px #fff;">
1.15
</text>
<rect x="745.2676229508199" y="284.2816823683156" width="17.85" height="7.2" transform="rotate(-60, 753.1475409836069, 290.9416823683156)" fill="#fffa"/>
<text x="745.44262295082" y="290.9416823683156" fill="#111" font-size="0.5em" text-anchor="start" textLength="17.5" transform="rotate(-60, 753.1475409836069, 290.9416823683156)" style="text-shadow: 0 0 1px #fff;">
1.00
</text>
<rect x="760.6774590163938" y="215.75931211827543" width="17.85" height="7.2" transform="rotate(-60, 768.5573770491806, 222.41931211827543)" fill="#fffa"/>
<text x="760.8524590163937" y="222.41931211827543" fill="#111" font-size="0.5em" text-anchor="start" textLength="17.5" transform="rotate(-60, 768.5573770491806, 222.41931211827543)" style="text-shadow: 0 0 1px #fff;">
1.35
</text>
<rect x="776.0872950819675" y="202.3799597355822" width="17.85" height="7.2" transform="rotate(-60, 783.9672131147544, 209.0399597355822)" fill="#fffa"/>
<text x="776.2622950819675" y="209.0399597355822" fill="#111" font-size="0.5em" text-anchor="start" textLength="17.5" transform="rotate(-60, 783.9672131147544, 209.0399597355822)" style="text-shadow: 0 0 1px #fff;">
1.42
</text>
<rect x="806.9069672131151" y="270.51573284622384" width="17.85" height="7.2" transform="rotate(-60, 814.7868852459019, 277.1757328462238)" fill="#fffa"/>
<text x="807.0819672131151" y="277.1757328462238" fill="#111" font-size="0.5em" text-anchor="start" textLength="17.5" transform="rotate(-60, 814.7868852459019, 277.1757328462238)" style="text-shadow: 0 0 1px #fff;">
1.07
</text>
<rect x="822.3168032786888" y="284.40525530740376" width="17.85" height="7.2" transform="rotate(-60, 830.1967213114757, 291.06525530740373)" fill="#fffa"/>
<text x="822.4918032786888" y="291.06525530740373" fill="#111" font-size="0.5em" text-anchor="start" textLength="17.5" transform="rotate(-60, 830.1967213114757, 291.06525530740373)" style="text-shadow: 0 0 1px #fff;">
1.00
</text>
<rect x="837.7266393442626" y="267.37231460500936" width="17.85" height="7.2" transform="rotate(-60, 845.6065573770495, 274.0323146050094)" fill="#fffa"/>
<text x="837.9016393442627" y="274.0323146050094" fill="#111" font-size="0.5em" text-anchor="start" textLength="17.5" transform="rotate(-60, 845.6065573770495, 274.0323146050094)" style="text-shadow: 0 0 1px #fff;">
1.09
</text>
<rect x="868.5463114754102" y="281.2143009151594" width="17.85" height="7.2" transform="rotate(-60, 876.426229508197, 287.8743009151594)" fill="#fffa"/>
<text x="868.7213114754102" y="287.8743009151594" fill="#111" font-size="0.5em" text-anchor="start" textLength="17.5" transform="rotate(-60, 876.426229508197, 287.8743009151594)" style="text-shadow: 0 0 1px #fff;">
1.02
</text>
<rect x="883.9561475409839" y="273.78594041266524" width="17.85" height="7.2" transform="rotate(-60, 891.8360655737708, 280.44594041266527)" fill="#fffa"/>
<text x="884.131147540984" y="280.44594041266527" fill="#111" font-size="0.5em" text-anchor="start" textLength="17.5" transform="rotate(-60, 891.8360655737708, 280.44594041266527)" style="text-shadow: 0 0 1px #fff;">
1.06
</text>
<rect x="899.3659836065577" y="261.1140313201752" width="17.85" height="7.2" transform="rotate(-60, 907.2459016393447, 267.7740313201752)" fill="#fffa"/>
<text x="899.5409836065578" y="267.7740313201752" fill="#111" font-size="0.5em" text-anchor="start" textLength="17.5" transform="rotate(-60, 907.2459016393447, 267.7740313201752)" style="text-shadow: 0 0 1px #fff;">
1.12
</text>
<rect x="930.1856557377052" y="275.95256707623156" width="17.85" height="7.2" transform="rotate(-60, 938.0655737704922, 282.6125670762316)" fill="#fffa"/>
<text x="930.3606557377053" y="282.6125670762316" fill="#111" font-size="0.5em" text-anchor="start" textLength="17.5" transform="rotate(-60, 938.0655737704922, 282.6125670762316)" style="text-shadow: 0 0 1px #fff;">
1.05
</text>
<rect x="945.5954918032791" y="248.14470228540242" width="17.85" height="7.2" transform="rotate(-60, 953.475409836066, 254.8047022854024)" fill="#fffa"/>
<text x="945.7704918032791" y="254.8047022854024" fill="#111" font-size="0.5em" text-anchor="start" textLength="17.5" transform="rotate(-60, 953.475409836066, 254.8047022854024)" style="text-shadow: 0 0 1px #fff;">
1.19
</text>
<rect x="961.0053278688529" y="246.2532230725244" width="17.85" height="7.2" transform="rotate(-60, 968.8852459016397, 252.9132230725244)" fill="#fffa"/>
<text x="961.1803278688528" y="252.9132230725244" fill="#111" font-size="0.5em" text-anchor="start" textLength="17.5" transform="rotate(-60, 968.8852459016397, 252.9132230725244)" style="text-shadow: 0 0 1px #fff;">
1.20
</text>
</svg>