<svg viewBox="0 0 1000 600" xmlns="http://www.w3.org/2000/svg" xmlns:xlink="http://www.w3.org/1999/xlink" width="100%" height="100%">

<rect x="50.0" y="30.0" width="940.0" height="467.99999999999994" stroke="#000" fill="#fff"/>
<line x1="42.0" y1="497.9999999999999" x2="50.0" y2="497.9999999999999" stroke="#000"/>
<text x="26.000000000000004" y="497.9999999999999" text-anchor="end" font-weight="bold" font-size="small" fill="#111">
0.0
</text>
<line x1="42.0" y1="451.5972947324989" x2="50.0" y2="451.5972947324989" stroke="#000"/>
<text x="26.000000000000004" y="451.5972947324989" text-anchor="end" font-weight="bold" font-size="small" fill="#111">
0.2
</text>
<line x1="42.0" y1="405.1945894649978" x2="50.0" y2="405.1945894649978" stroke="#000"/>
<text x="26.000000000000004" y="405.1945894649978" text-anchor="end" font-weight="bold" font-size="small" fill="#111">
0.4
</text>
<line x1="42.0" y1="358.79188419749687" x2="50.0" y2="358.79188419749687" stroke="#000"/>
<text x="26.000000000000004" y="358.79188419749687" text-anchor="end" font-weight="bold" font-size="small" fill="#111">
0.6
</text>
<line x1="42.0" y1="312.3891789299958" x2="50.0" y2="312.3891789299958" stroke="#000"/>
<text x="26.000000000000004" y="312.3891789299958" text-anchor="end" font-weight="bold" font-size="small" fill="#111">
0.8
</text>
<line x1="42.0" y1="265.9864736624948" x2="50.0" y2="265.9864736624948" stroke="#000"/>
<text x="26.000000000000004" y="265.9864736624948" text-anchor="end" font-weight="bold" font-size="small" fill="#111">
1.0
</text>
<line x1="42.0" y1="219.5837683949938" x2="50.0" y2="219.5837683949938" stroke="#000"/>
<text x="26.000000000000004" y="219.5837683949938" text-anchor="end" font-weight="bold" font-size="small" fill="#111">
1.2
</text>
<line x1="42.0" y1="173.1810631274928" x2="50.0" y2="173.1810631274928" stroke="#000"/>
<text x="26.000000000000004" y="173.1810631274928" text-anchor="end" font-weight="bold" font-size="small" fill="#111">
1.4
</text>
<line x1="42.0" y1="126.77835785999179" x2="50.0" y2="126.77835785999179" stroke="#000"/>
<text x="26.000000000000004" y="126.77835785999179" text-anchor="end" font-weight="bold" font-size="small" fill="#111">
1.6
</text>
<line x1="248.5" y1="54.60000000000001" x2="368.5" y2="54.60000000000001" stroke="#648FFF" stroke-width="2"/>
<text x="308.5" y="49.500000000000014" font-size="small" text-anchor="middle" font-weight="bold" fill="#000">
CRuby 3.2.0dev
</text>
<rect x="671.5" y="35.400000000000006" width="120.0" height="19.2" fill="#785EF0" stroke="none"/>
<text x="731.4999999999999" y="49.500000000000014" font-size="small" text-anchor="middle" font-weight="bold" fill="#fff" style="text-shadow: 0 0 1px #000;">
YJIT 3.2.0dev
</text>
<rect x="66.49122807017544" y="203.43527367796824" width="16.49122807017544" height="294.56472632203173" fill="#785EF0" data-tooltip="1.27x baseline (YJIT 3.2.0dev)"/>
<line x1="74.73684210526315" y1="498.0" x2="74.73684210526315" y2="502.79999999999995" stroke="#000"/>
<text x="74.73684210526315" y="512.4" fill="#111" font-size="small" text-anchor="end" transform="rotate(-60, 74.73684210526315, 512.4)">
activerecord
</text>
<rect x="99.47368421052633" y="156.16594714501102" width="16.49122807017544" height="341.83405285498895" fill="#785EF0" data-tooltip="1.47x baseline (YJIT 3.2.0dev)"/>
<line x1="107.71929824561404" y1="498.0" x2="107.71929824561404" y2="502.79999999999995" stroke="#000"/>
<text x="107.71929824561404" y="512.4" fill="#111" font-size="small" text-anchor="end" transform="rotate(-60, 107.71929824561404, 512.4)">
hexapdf
</text>
<rect x="132.4561403508772" y="224.05450101795805" width="16.49122807017544" height="273.9454989820419" fill="#785EF0" data-tooltip="1.18x baseline (YJIT 3.2.0dev)"/>
<line x1="140.70175438596493" y1="498.0" x2="140.70175438596493" y2="502.79999999999995" stroke="#000"/>
<text x="140.70175438596493" y="512.4" fill="#111" font-size="small" text-anchor="end" transform="rotate(-60, 140.70175438596493, 512.4)">
liquid-render
</text>
<rect x="165.4385964912281" y="229.17476960321085" width="16.49122807017544" height="268.82523039678904" fill="#785EF0" data-tooltip="1.16x baseline (YJIT 3.2.0dev)"/>
<line x1="173.68421052631584" y1="498.0" x2="173.68421052631584" y2="502.79999999999995" stroke="#000"/>
<text x="173.68421052631584" y="512.4" fill="#111" font-size="small" text-anchor="end" transform="rotate(-60, 173.68421052631584, 512.4)">
mail
</text>
<rect x="198.421052631579" y="215.77704009865" width="16.49122807017544" height="282.22295990134995" fill="#785EF0" data-tooltip="1.22x baseline (YJIT 3.2.0dev)"/>
<line x1="206.6666666666667" y1="498.0" x2="206.6666666666667" y2="502.79999999999995" stroke="#000"/>
<text x="206.6666666666667" y="512.4" fill="#111" font-size="small" text-anchor="end" transform="rotate(-60, 206.6666666666667, 512.4)">
psych-load
</text>
<rect x="231.4035087719299" y="194.77679511697625" width="16.49122807017544" height="303.2232048830237" fill="#785EF0" data-tooltip="1.31x baseline (YJIT 3.2.0dev)"/>
<line x1="239.64912280701762" y1="498.0" x2="239.64912280701762" y2="502.79999999999995" stroke="#000"/>
<text x="239.64912280701762" y="512.4" fill="#111" font-size="small" text-anchor="end" transform="rotate(-60, 239.64912280701762, 512.4)">
railsbench
</text>
<rect x="264.38596491228077" y="148.9524026455176" width="16.49122807017544" height="349.0475973544823" fill="#785EF0" data-tooltip="1.50x baseline (YJIT 3.2.0dev)"/>
<line x1="272.6315789473685" y1="498.0" x2="272.6315789473685" y2="502.79999999999995" stroke="#000"/>
<text x="272.6315789473685" y="512.4" fill="#111" font-size="small" text-anchor="end" transform="rotate(-60, 272.6315789473685, 512.4)">
ruby-lsp
</text>
<rect x="297.3684210526317" y="255.1528088746746" width="16.49122807017544" height="242.84719112532534" fill="#785EF0" data-tooltip="1.05x baseline (YJIT 3.2.0dev)"/>
<line x1="305.6140350877194" y1="498.0" x2="305.6140350877194" y2="502.79999999999995" stroke="#000"/>
<text x="305.6140350877194" y="512.4" fill="#111" font-size="small" text-anchor="end" transform="rotate(-60, 305.6140350877194, 512.4)">
binarytrees
</text>
<rect x="330.3508771929826" y="223.4887158758299" width="16.49122807017544" height="274.51128412417006" fill="#785EF0" data-tooltip="1.18x baseline (YJIT 3.2.0dev)"/>
<line x1="338.5964912280703" y1="498.0" x2="338.5964912280703" y2="502.79999999999995" stroke="#000"/>
<text x="338.5964912280703" y="512.4" fill="#111" font-size="small" text-anchor="end" transform="rotate(-60, 338.5964912280703, 512.4)">
chunky_png
</text>
<rect x="363.3333333333334" y="245.58347957635092" width="16.49122807017544" height="252.41652042364902" fill="#785EF0" data-tooltip="1.09x baseline (YJIT 3.2.0dev)"/>
<line x1="371.57894736842115" y1="498.0" x2="371.57894736842115" y2="502.79999999999995" stroke="#000"/>
<text x="371.57894736842115" y="512.4" fill="#111" font-size="small" text-anchor="end" transform="rotate(-60, 371.57894736842115, 512.4)">
erubi
</text>
<rect x="396.31578947368433" y="213.14902882947598" width="16.49122807017544" height="284.850971170524" fill="#785EF0" data-tooltip="1.23x baseline (YJIT 3.2.0dev)"/>
<line x1="404.56140350877206" y1="498.0" x2="404.56140350877206" y2="502.79999999999995" stroke="#000"/>
<text x="404.56140350877206" y="512.4" fill="#111" font-size="small" text-anchor="end" transform="rotate(-60, 404.56140350877206, 512.4)">
erubi_rails
</text>
<rect x="429.29824561403524" y="260.0901235069727" width="16.49122807017544" height="237.90987649302724" fill="#785EF0" data-tooltip="1.03x baseline (YJIT 3.2.0dev)"/>
<line x1="437.54385964912296" y1="498.0" x2="437.54385964912296" y2="502.79999999999995" stroke="#000"/>
<text x="437.54385964912296" y="512.4" fill="#111" font-size="small" text-anchor="end" transform="rotate(-60, 437.54385964912296, 512.4)">
etanni
</text>
<rect x="462.28070175438614" y="253.97497460166798" width="16.49122807017544" height="244.02502539833196" fill="#785EF0" data-tooltip="1.05x baseline (YJIT 3.2.0dev)"/>
<line x1="470.52631578947387" y1="498.0" x2="470.52631578947387" y2="502.79999999999995" stroke="#000"/>
<text x="470.52631578947387" y="512.4" fill="#111" font-size="small" text-anchor="end" transform="rotate(-60, 470.52631578947387, 512.4)">
fannkuchredux
</text>
<rect x="495.263157894737" y="210.23783304164508" width="16.49122807017544" height="287.7621669583549" fill="#785EF0" data-tooltip="1.24x baseline (YJIT 3.2.0dev)"/>
<line x1="503.50877192982466" y1="498.0" x2="503.50877192982466" y2="502.79999999999995" stroke="#000"/>
<text x="503.50877192982466" y="512.4" fill="#111" font-size="small" text-anchor="end" transform="rotate(-60, 503.50877192982466, 512.4)">
lee
</text>
<rect x="528.2456140350879" y="251.38526831918813" width="16.49122807017544" height="246.61473168081181" fill="#785EF0" data-tooltip="1.06x baseline (YJIT 3.2.0dev)"/>
<line x1="536.4912280701756" y1="498.0" x2="536.4912280701756" y2="502.79999999999995" stroke="#000"/>
<text x="536.4912280701756" y="512.4" fill="#111" font-size="small" text-anchor="end" transform="rotate(-60, 536.4912280701756, 512.4)">
nbody
</text>
<rect x="561.2280701754387" y="245.99462346573725" width="16.49122807017544" height="252.0053765342627" fill="#785EF0" data-tooltip="1.09x baseline (YJIT 3.2.0dev)"/>
<line x1="569.4736842105265" y1="498.0" x2="569.4736842105265" y2="502.79999999999995" stroke="#000"/>
<text x="569.4736842105265" y="512.4" fill="#111" font-size="small" text-anchor="end" transform="rotate(-60, 569.4736842105265, 512.4)">
optcarrot
</text>
<rect x="594.2105263157896" y="259.07709790249254" width="16.49122807017544" height="238.9229020975074" fill="#785EF0" data-tooltip="1.03x baseline (YJIT 3.2.0dev)"/>
<line x1="602.4561403508774" y1="498.0" x2="602.4561403508774" y2="502.79999999999995" stroke="#000"/>
<text x="602.4561403508774" y="512.4" fill="#111" font-size="small" text-anchor="end" transform="rotate(-60, 602.4561403508774, 512.4)">
rubykon
</text>
<rect x="627.1929824561405" y="100.19999999999999" width="16.49122807017544" height="397.79999999999995" fill="#785EF0" data-tooltip="1.71x baseline (YJIT 3.2.0dev)"/>
<line x1="635.4385964912283" y1="498.0" x2="635.4385964912283" y2="502.79999999999995" stroke="#000"/>
<text x="635.4385964912283" y="512.4" fill="#111" font-size="small" text-anchor="end" transform="rotate(-60, 635.4385964912283, 512.4)">
30k_ifelse
</text>
<rect x="660.1754385964914" y="202.21770781729015" width="16.49122807017544" height="295.7822921827098" fill="#785EF0" data-tooltip="1.27x baseline (YJIT 3.2.0dev)"/>
<line x1="668.4210526315792" y1="498.0" x2="668.4210526315792" y2="502.79999999999995" stroke="#000"/>
<text x="668.4210526315792" y="512.4" fill="#111" font-size="small" text-anchor="end" transform="rotate(-60, 668.4210526315792, 512.4)">
30k_methods
</text>
<rect x="693.1578947368423" y="249.05282052111707" width="16.49122807017544" height="248.94717947888287" fill="#785EF0" data-tooltip="1.07x baseline (YJIT 3.2.0dev)"/>
<line x1="701.40350877193" y1="498.0" x2="701.40350877193" y2="502.79999999999995" stroke="#000"/>
<text x="701.40350877193" y="512.4" fill="#111" font-size="small" text-anchor="end" transform="rotate(-60, 701.40350877193, 512.4)">
cfunc_itself
</text>
<rect x="726.1403508771932" y="250.86489687352" width="16.49122807017544" height="247.13510312647995" fill="#785EF0" data-tooltip="1.07x baseline (YJIT 3.2.0dev)"/>
<line x1="734.3859649122809" y1="498.0" x2="734.3859649122809" y2="502.79999999999995" stroke="#000"/>
<text x="734.3859649122809" y="512.4" fill="#111" font-size="small" text-anchor="end" transform="rotate(-60, 734.3859649122809, 512.4)">
fib
</text>
<rect x="759.1228070175441" y="249.29404709354827" width="16.49122807017544" height="248.70595290645167" fill="#785EF0" data-tooltip="1.07x baseline (YJIT 3.2.0dev)"/>
<line x1="767.3684210526318" y1="498.0" x2="767.3684210526318" y2="502.79999999999995" stroke="#000"/>
<text x="767.3684210526318" y="512.4" fill="#111" font-size="small" text-anchor="end" transform="rotate(-60, 767.3684210526318, 512.4)">
getivar
</text>
<rect x="792.105263157895" y="254.6291681774421" width="16.49122807017544" height="243.37083182255785" fill="#785EF0" data-tooltip="1.05x baseline (YJIT 3.2.0dev)"/>
<line x1="800.3508771929827" y1="498.0" x2="800.3508771929827" y2="502.79999999999995" stroke="#000"/>
<text x="800.3508771929827" y="512.4" fill="#111" font-size="small" text-anchor="end" transform="rotate(-60, 800.3508771929827, 512.4)">
keyword_args
</text>
<rect x="825.0877192982458" y="254.18169605045816" width="16.49122807017544" height="243.8183039495418" fill="#785EF0" data-tooltip="1.05x baseline (YJIT 3.2.0dev)"/>
<line x1="833.3333333333336" y1="498.0" x2="833.3333333333336" y2="502.79999999999995" stroke="#000"/>
<text x="833.3333333333336" y="512.4" fill="#111" font-size="small" text-anchor="end" transform="rotate(-60, 833.3333333333336, 512.4)">
respond_to
</text>
<rect x="858.0701754385967" y="251.97671120952728" width="16.49122807017544" height="246.02328879047266" fill="#785EF0" data-tooltip="1.06x baseline (YJIT 3.2.0dev)"/>
<line x1="866.3157894736845" y1="498.0" x2="866.3157894736845" y2="502.79999999999995" stroke="#000"/>
<text x="866.3157894736845" y="512.4" fill="#111" font-size="small" text-anchor="end" transform="rotate(-60, 866.3157894736845, 512.4)">
setivar
</text>
<rect x="891.0526315789476" y="254.29888011512486" width="16.49122807017544" height="243.70111988487508" fill="#785EF0" data-tooltip="1.05x baseline (YJIT 3.2.0dev)"/>
<line x1="899.2982456140354" y1="498.0" x2="899.2982456140354" y2="502.79999999999995" stroke="#000"/>
<text x="899.2982456140354" y="512.4" fill="#111" font-size="small" text-anchor="end" transform="rotate(-60, 899.2982456140354, 512.4)">
setivar_object
</text>
<rect x="924.0350877192985" y="251.92120338328544" width="16.49122807017544" height="246.0787966167145" fill="#785EF0" data-tooltip="1.06x baseline (YJIT 3.2.0dev)"/>
<line x1="932.2807017543863" y1="498.0" x2="932.2807017543863" y2="502.79999999999995" stroke="#000"/>
<text x="932.2807017543863" y="512.4" fill="#111" font-size="small" text-anchor="end" transform="rotate(-60, 932.2807017543863, 512.4)">
str_concat
</text>
<rect x="957.0175438596494" y="228.65885074715365" width="16.49122807017544" height="269.3411492528463" fill="#785EF0" data-tooltip="1.16x baseline (YJIT 3.2.0dev)"/>
<line x1="965.2631578947371" y1="498.0" x2="965.2631578947371" y2="502.79999999999995" stroke="#000"/>
<text x="965.2631578947371" y="512.4" fill="#111" font-size="small" text-anchor="end" transform="rotate(-60, 965.2631578947371, 512.4)" font-style="italic">
geomean*
</text>
<line x1="50.0" y1="265.9864736624948" x2="990.0" y2="265.9864736624948" stroke="#648FFF" stroke-width="2"/>
</svg>