<svg viewBox="0 0 1000 600" xmlns="http://www.w3.org/2000/svg" xmlns:xlink="http://www.w3.org/1999/xlink" width="100%" height="100%">

<rect x="50.0" y="30.0" width="940.0" height="467.99999999999994" stroke="#000" fill="#fff"/>
<line x1="42.0" y1="497.9999999999999" x2="50.0" y2="497.9999999999999" stroke="#000"/>
<text x="26.000000000000004" y="497.9999999999999" text-anchor="end" font-weight="bold" font-size="small" fill="#111">
0.0
</text>
<line x1="42.0" y1="450.963806777217" x2="50.0" y2="450.963806777217" stroke="#000"/>
<text x="26.000000000000004" y="450.963806777217" text-anchor="end" font-weight="bold" font-size="small" fill="#111">
0.2
</text>
<line x1="42.0" y1="403.927613554434" x2="50.0" y2="403.927613554434" stroke="#000"/>
<text x="26.000000000000004" y="403.927613554434" text-anchor="end" font-weight="bold" font-size="small" fill="#111">
0.4
</text>
<line x1="42.0" y1="356.89142033165103" x2="50.0" y2="356.89142033165103" stroke="#000"/>
<text x="26.000000000000004" y="356.89142033165103" text-anchor="end" font-weight="bold" font-size="small" fill="#111">
0.6
</text>
<line x1="42.0" y1="309.85522710886806" x2="50.0" y2="309.85522710886806" stroke="#000"/>
<text x="26.000000000000004" y="309.85522710886806" text-anchor="end" font-weight="bold" font-size="small" fill="#111">
0.8
</text>
<line x1="42.0" y1="262.81903388608504" x2="50.0" y2="262.81903388608504" stroke="#000"/>
<text x="26.000000000000004" y="262.81903388608504" text-anchor="end" font-weight="bold" font-size="small" fill="#111">
1.0
</text>
<line x1="42.0" y1="215.78284066330207" x2="50.0" y2="215.78284066330207" stroke="#000"/>
<text x="26.000000000000004" y="215.78284066330207" text-anchor="end" font-weight="bold" font-size="small" fill="#111">
1.2
</text>
<line x1="42.0" y1="168.7466474405191" x2="50.0" y2="168.7466474405191" stroke="#000"/>
<text x="26.000000000000004" y="168.7466474405191" text-anchor="end" font-weight="bold" font-size="small" fill="#111">
1.4
</text>
<line x1="42.0" y1="121.71045421773613" x2="50.0" y2="121.71045421773613" stroke="#000"/>
<text x="26.000000000000004" y="121.71045421773613" text-anchor="end" font-weight="bold" font-size="small" fill="#111">
1.6
</text>
<line x1="248.5" y1="54.60000000000001" x2="368.5" y2="54.60000000000001" stroke="#648FFF" stroke-width="2"/>
<text x="308.5" y="49.500000000000014" font-size="small" text-anchor="middle" font-weight="bold" fill="#000">
CRuby 3.3.0dev
</text>
<rect x="671.5" y="35.400000000000006" width="120.0" height="19.2" fill="#785EF0" stroke="none"/>
<text x="731.4999999999999" y="49.500000000000014" font-size="small" text-anchor="middle" font-weight="bold" fill="#fff" style="text-shadow: 0 0 1px #000;">
YJIT 3.3.0dev
</text>
<rect x="63.6231884057971" y="231.5780974169976" width="13.6231884057971" height="266.42190258300235" fill="#785EF0" data-tooltip="1.13x baseline (YJIT 3.3.0dev)"/>
<line x1="70.43478260869566" y1="498.0" x2="70.43478260869566" y2="502.79999999999995" stroke="#000"/>
<text x="70.43478260869566" y="512.4" fill="#111" font-size="small" text-anchor="end" transform="rotate(-60, 70.43478260869566, 512.4)">
activerecord
</text>
<rect x="90.8695652173913" y="201.81393858832354" width="13.6231884057971" height="296.1860614116764" fill="#785EF0" data-tooltip="1.26x baseline (YJIT 3.3.0dev)"/>
<line x1="97.68115942028984" y1="498.0" x2="97.68115942028984" y2="502.79999999999995" stroke="#000"/>
<text x="97.68115942028984" y="512.4" fill="#111" font-size="small" text-anchor="end" transform="rotate(-60, 97.68115942028984, 512.4)">
hexapdf
</text>
<rect x="118.1159420289855" y="233.4214131218457" width="13.6231884057971" height="264.5785868781543" fill="#785EF0" data-tooltip="1.12x baseline (YJIT 3.3.0dev)"/>
<line x1="124.92753623188406" y1="498.0" x2="124.92753623188406" y2="502.79999999999995" stroke="#000"/>
<text x="124.92753623188406" y="512.4" fill="#111" font-size="small" text-anchor="end" transform="rotate(-60, 124.92753623188406, 512.4)">
liquid-c
</text>
<rect x="145.36231884057972" y="237.314209979724" width="13.6231884057971" height="260.68579002027593" fill="#785EF0" data-tooltip="1.11x baseline (YJIT 3.3.0dev)"/>
<line x1="152.17391304347828" y1="498.0" x2="152.17391304347828" y2="502.79999999999995" stroke="#000"/>
<text x="152.17391304347828" y="512.4" fill="#111" font-size="small" text-anchor="end" transform="rotate(-60, 152.17391304347828, 512.4)">
liquid-compile
</text>
<rect x="172.6086956521739" y="227.09781369061145" width="13.6231884057971" height="270.9021863093885" fill="#785EF0" data-tooltip="1.15x baseline (YJIT 3.3.0dev)"/>
<line x1="179.42028985507247" y1="498.0" x2="179.42028985507247" y2="502.79999999999995" stroke="#000"/>
<text x="179.42028985507247" y="512.4" fill="#111" font-size="small" text-anchor="end" transform="rotate(-60, 179.42028985507247, 512.4)">
liquid-render
</text>
<rect x="199.8550724637681" y="245.6648666676476" width="13.6231884057971" height="252.33513333235234" fill="#785EF0" data-tooltip="1.07x baseline (YJIT 3.3.0dev)"/>
<line x1="206.66666666666666" y1="498.0" x2="206.66666666666666" y2="502.79999999999995" stroke="#000"/>
<text x="206.66666666666666" y="512.4" fill="#111" font-size="small" text-anchor="end" transform="rotate(-60, 206.66666666666666, 512.4)">
mail
</text>
<rect x="227.1014492753623" y="246.2565237068288" width="13.6231884057971" height="251.74347629317117" fill="#785EF0" data-tooltip="1.07x baseline (YJIT 3.3.0dev)"/>
<line x1="233.91304347826087" y1="498.0" x2="233.91304347826087" y2="502.79999999999995" stroke="#000"/>
<text x="233.91304347826087" y="512.4" fill="#111" font-size="small" text-anchor="end" transform="rotate(-60, 233.91304347826087, 512.4)">
psych-load
</text>
<rect x="254.3478260869565" y="222.97151040290183" width="13.6231884057971" height="275.0284895970981" fill="#785EF0" data-tooltip="1.17x baseline (YJIT 3.3.0dev)"/>
<line x1="261.15942028985506" y1="498.0" x2="261.15942028985506" y2="502.79999999999995" stroke="#000"/>
<text x="261.15942028985506" y="512.4" fill="#111" font-size="small" text-anchor="end" transform="rotate(-60, 261.15942028985506, 512.4)">
railsbench
</text>
<rect x="281.59420289855075" y="150.92187651987246" width="13.6231884057971" height="347.07812348012743" fill="#785EF0" data-tooltip="1.48x baseline (YJIT 3.3.0dev)"/>
<line x1="288.4057971014493" y1="498.0" x2="288.4057971014493" y2="502.79999999999995" stroke="#000"/>
<text x="288.4057971014493" y="512.4" fill="#111" font-size="small" text-anchor="end" transform="rotate(-60, 288.4057971014493, 512.4)">
ruby-lsp
</text>
<rect x="308.840579710145" y="225.20793620883305" width="13.6231884057971" height="272.79206379116687" fill="#785EF0" data-tooltip="1.16x baseline (YJIT 3.3.0dev)"/>
<line x1="315.65217391304355" y1="498.0" x2="315.65217391304355" y2="502.79999999999995" stroke="#000"/>
<text x="315.65217391304355" y="512.4" fill="#111" font-size="small" text-anchor="end" transform="rotate(-60, 315.65217391304355, 512.4)">
sequel
</text>
<rect x="336.08695652173924" y="259.5763355144128" width="13.6231884057971" height="238.42366448558715" fill="#785EF0" data-tooltip="1.01x baseline (YJIT 3.3.0dev)"/>
<line x1="342.8985507246378" y1="498.0" x2="342.8985507246378" y2="502.79999999999995" stroke="#000"/>
<text x="342.8985507246378" y="512.4" fill="#111" font-size="small" text-anchor="end" transform="rotate(-60, 342.8985507246378, 512.4)">
binarytrees
</text>
<rect x="363.3333333333335" y="288.3279081761109" width="13.6231884057971" height="209.67209182388905" fill="#785EF0" data-tooltip="0.89x baseline (YJIT 3.3.0dev)"/>
<line x1="370.14492753623205" y1="498.0" x2="370.14492753623205" y2="502.79999999999995" stroke="#000"/>
<text x="370.14492753623205" y="512.4" fill="#111" font-size="small" text-anchor="end" transform="rotate(-60, 370.14492753623205, 512.4)">
chunky_png
</text>
<rect x="390.5797101449278" y="147.8061458446987" width="13.6231884057971" height="350.19385415530127" fill="#785EF0" data-tooltip="1.49x baseline (YJIT 3.3.0dev)"/>
<line x1="397.39130434782635" y1="498.0" x2="397.39130434782635" y2="502.79999999999995" stroke="#000"/>
<text x="397.39130434782635" y="512.4" fill="#111" font-size="small" text-anchor="end" transform="rotate(-60, 397.39130434782635, 512.4)">
erubi
</text>
<rect x="417.82608695652203" y="241.77829824310467" width="13.6231884057971" height="256.22170175689524" fill="#785EF0" data-tooltip="1.09x baseline (YJIT 3.3.0dev)"/>
<line x1="424.6376811594206" y1="498.0" x2="424.6376811594206" y2="502.79999999999995" stroke="#000"/>
<text x="424.6376811594206" y="512.4" fill="#111" font-size="small" text-anchor="end" transform="rotate(-60, 424.6376811594206, 512.4)">
erubi_rails
</text>
<rect x="445.0724637681163" y="230.16794014183975" width="13.6231884057971" height="267.83205985816016" fill="#785EF0" data-tooltip="1.14x baseline (YJIT 3.3.0dev)"/>
<line x1="451.88405797101484" y1="498.0" x2="451.88405797101484" y2="502.79999999999995" stroke="#000"/>
<text x="451.88405797101484" y="512.4" fill="#111" font-size="small" text-anchor="end" transform="rotate(-60, 451.88405797101484, 512.4)">
etanni
</text>
<rect x="472.3188405797105" y="255.805684996008" width="13.6231884057971" height="242.19431500399193" fill="#785EF0" data-tooltip="1.03x baseline (YJIT 3.3.0dev)"/>
<line x1="479.1304347826091" y1="498.0" x2="479.1304347826091" y2="502.79999999999995" stroke="#000"/>
<text x="479.1304347826091" y="512.4" fill="#111" font-size="small" text-anchor="end" transform="rotate(-60, 479.1304347826091, 512.4)">
fannkuchredux
</text>
<rect x="499.56521739130477" y="222.67490484733648" width="13.6231884057971" height="275.3250951526635" fill="#785EF0" data-tooltip="1.17x baseline (YJIT 3.3.0dev)"/>
<line x1="506.37681159420333" y1="498.0" x2="506.37681159420333" y2="502.79999999999995" stroke="#000"/>
<text x="506.37681159420333" y="512.4" fill="#111" font-size="small" text-anchor="end" transform="rotate(-60, 506.37681159420333, 512.4)">
lee
</text>
<rect x="526.8115942028991" y="256.4739066464391" width="13.6231884057971" height="241.52609335356084" fill="#785EF0" data-tooltip="1.03x baseline (YJIT 3.3.0dev)"/>
<line x1="533.6231884057976" y1="498.0" x2="533.6231884057976" y2="502.79999999999995" stroke="#000"/>
<text x="533.6231884057976" y="512.4" fill="#111" font-size="small" text-anchor="end" transform="rotate(-60, 533.6231884057976, 512.4)">
nbody
</text>
<rect x="554.0579710144933" y="248.9568528265013" width="13.6231884057971" height="249.04314717349862" fill="#785EF0" data-tooltip="1.06x baseline (YJIT 3.3.0dev)"/>
<line x1="560.8695652173918" y1="498.0" x2="560.8695652173918" y2="502.79999999999995" stroke="#000"/>
<text x="560.8695652173918" y="512.4" fill="#111" font-size="small" text-anchor="end" transform="rotate(-60, 560.8695652173918, 512.4)">
optcarrot
</text>
<rect x="581.3043478260876" y="249.54951959154243" width="13.6231884057971" height="248.4504804084575" fill="#785EF0" data-tooltip="1.06x baseline (YJIT 3.3.0dev)"/>
<line x1="588.1159420289861" y1="498.0" x2="588.1159420289861" y2="502.79999999999995" stroke="#000"/>
<text x="588.1159420289861" y="512.4" fill="#111" font-size="small" text-anchor="end" transform="rotate(-60, 588.1159420289861, 512.4)">
ruby-json
</text>
<rect x="608.5507246376818" y="245.70328520754006" width="13.6231884057971" height="252.29671479245988" fill="#785EF0" data-tooltip="1.07x baseline (YJIT 3.3.0dev)"/>
<line x1="615.3623188405803" y1="498.0" x2="615.3623188405803" y2="502.79999999999995" stroke="#000"/>
<text x="615.3623188405803" y="512.4" fill="#111" font-size="small" text-anchor="end" transform="rotate(-60, 615.3623188405803, 512.4)">
rubykon
</text>
<rect x="635.797101449276" y="100.19999999999999" width="13.6231884057971" height="397.79999999999995" fill="#785EF0" data-tooltip="1.69x baseline (YJIT 3.3.0dev)"/>
<line x1="642.6086956521746" y1="498.0" x2="642.6086956521746" y2="502.79999999999995" stroke="#000"/>
<text x="642.6086956521746" y="512.4" fill="#111" font-size="small" text-anchor="end" transform="rotate(-60, 642.6086956521746, 512.4)">
30k_ifelse
</text>
<rect x="663.0434782608703" y="213.17432285809528" width="13.6231884057971" height="284.82567714190463" fill="#785EF0" data-tooltip="1.21x baseline (YJIT 3.3.0dev)"/>
<line x1="669.8550724637688" y1="498.0" x2="669.8550724637688" y2="502.79999999999995" stroke="#000"/>
<text x="669.8550724637688" y="512.4" fill="#111" font-size="small" text-anchor="end" transform="rotate(-60, 669.8550724637688, 512.4)">
30k_methods
</text>
<rect x="690.2898550724645" y="258.700277912111" width="13.6231884057971" height="239.29972208788894" fill="#785EF0" data-tooltip="1.02x baseline (YJIT 3.3.0dev)"/>
<line x1="697.101449275363" y1="498.0" x2="697.101449275363" y2="502.79999999999995" stroke="#000"/>
<text x="697.101449275363" y="512.4" fill="#111" font-size="small" text-anchor="end" transform="rotate(-60, 697.101449275363, 512.4)">
cfunc_itself
</text>
<rect x="717.5362318840588" y="258.8758094792702" width="13.6231884057971" height="239.1241905207298" fill="#785EF0" data-tooltip="1.02x baseline (YJIT 3.3.0dev)"/>
<line x1="724.3478260869574" y1="498.0" x2="724.3478260869574" y2="502.79999999999995" stroke="#000"/>
<text x="724.3478260869574" y="512.4" fill="#111" font-size="small" text-anchor="end" transform="rotate(-60, 724.3478260869574, 512.4)">
fib
</text>
<rect x="744.782608695653" y="258.483360868539" width="13.6231884057971" height="239.51663913146092" fill="#785EF0" data-tooltip="1.02x baseline (YJIT 3.3.0dev)"/>
<line x1="751.5942028985517" y1="498.0" x2="751.5942028985517" y2="502.79999999999995" stroke="#000"/>
<text x="751.5942028985517" y="512.4" fill="#111" font-size="small" text-anchor="end" transform="rotate(-60, 751.5942028985517, 512.4)">
getivar
</text>
<rect x="772.0289855072473" y="258.5237597989408" width="13.6231884057971" height="239.4762402010592" fill="#785EF0" data-tooltip="1.02x baseline (YJIT 3.3.0dev)"/>
<line x1="778.8405797101459" y1="498.0" x2="778.8405797101459" y2="502.79999999999995" stroke="#000"/>
<text x="778.8405797101459" y="512.4" fill="#111" font-size="small" text-anchor="end" transform="rotate(-60, 778.8405797101459, 512.4)">
keyword_args
</text>
<rect x="799.2753623188415" y="258.30759034080074" width="13.6231884057971" height="239.69240965919923" fill="#785EF0" data-tooltip="1.02x baseline (YJIT 3.3.0dev)"/>
<line x1="806.0869565217401" y1="498.0" x2="806.0869565217401" y2="502.79999999999995" stroke="#000"/>
<text x="806.0869565217401" y="512.4" fill="#111" font-size="small" text-anchor="end" transform="rotate(-60, 806.0869565217401, 512.4)">
respond_to
</text>
<rect x="826.5217391304358" y="258.71772157219016" width="13.6231884057971" height="239.2822784278098" fill="#785EF0" data-tooltip="1.02x baseline (YJIT 3.3.0dev)"/>
<line x1="833.3333333333344" y1="498.0" x2="833.3333333333344" y2="502.79999999999995" stroke="#000"/>
<text x="833.3333333333344" y="512.4" fill="#111" font-size="small" text-anchor="end" transform="rotate(-60, 833.3333333333344, 512.4)">
setivar
</text>
<rect x="853.76811594203" y="258.70130811620663" width="13.6231884057971" height="239.29869188379334" fill="#785EF0" data-tooltip="1.02x baseline (YJIT 3.3.0dev)"/>
<line x1="860.5797101449286" y1="498.0" x2="860.5797101449286" y2="502.79999999999995" stroke="#000"/>
<text x="860.5797101449286" y="512.4" fill="#111" font-size="small" text-anchor="end" transform="rotate(-60, 860.5797101449286, 512.4)">
setivar_object
</text>
<rect x="881.0144927536243" y="258.3472416857704" width="13.6231884057971" height="239.65275831422954" fill="#785EF0" data-tooltip="1.02x baseline (YJIT 3.3.0dev)"/>
<line x1="887.8260869565229" y1="498.0" x2="887.8260869565229" y2="502.79999999999995" stroke="#000"/>
<text x="887.8260869565229" y="512.4" fill="#111" font-size="small" text-anchor="end" transform="rotate(-60, 887.8260869565229, 512.4)">
setivar_young
</text>
<rect x="908.2608695652185" y="258.1939016561928" width="13.6231884057971" height="239.80609834380718" fill="#785EF0" data-tooltip="1.02x baseline (YJIT 3.3.0dev)"/>
<line x1="915.0724637681171" y1="498.0" x2="915.0724637681171" y2="502.79999999999995" stroke="#000"/>
<text x="915.0724637681171" y="512.4" fill="#111" font-size="small" text-anchor="end" transform="rotate(-60, 915.0724637681171, 512.4)">
str_concat
</text>
<rect x="935.5072463768129" y="258.95111866965885" width="13.6231884057971" height="239.04888133034112" fill="#785EF0" data-tooltip="1.02x baseline (YJIT 3.3.0dev)"/>
<line x1="942.3188405797114" y1="498.0" x2="942.3188405797114" y2="502.79999999999995" stroke="#000"/>
<text x="942.3188405797114" y="512.4" fill="#111" font-size="small" text-anchor="end" transform="rotate(-60, 942.3188405797114, 512.4)">
throw
</text>
<rect x="962.7536231884071" y="237.65525776281362" width="13.6231884057971" height="260.3447422371863" fill="#785EF0" data-tooltip="1.11x baseline (YJIT 3.3.0dev)"/>
<line x1="969.5652173913056" y1="498.0" x2="969.5652173913056" y2="502.79999999999995" stroke="#000"/>
<text x="969.5652173913056" y="512.4" fill="#111" font-size="small" text-anchor="end" transform="rotate(-60, 969.5652173913056, 512.4)" font-style="italic">
geomean*
</text>
<line x1="50.0" y1="262.81903388608504" x2="990.0" y2="262.81903388608504" stroke="#648FFF" stroke-width="2"/>
</svg>