<svg viewBox="0 0 1000 600" xmlns="http://www.w3.org/2000/svg" xmlns:xlink="http://www.w3.org/1999/xlink" width="100%" height="100%">

<rect x="50.0" y="30.0" width="940.0" height="467.99999999999994" stroke="#000" fill="#fff"/>
<line x1="42.0" y1="497.9999999999999" x2="50.0" y2="497.9999999999999" stroke="#000"/>
<text x="26.000000000000004" y="497.9999999999999" text-anchor="end" font-weight="bold" font-size="small" fill="#111">
0.0
</text>
<line x1="42.0" y1="403.38882378750475" x2="50.0" y2="403.38882378750475" stroke="#000"/>
<text x="26.000000000000004" y="403.38882378750475" text-anchor="end" font-weight="bold" font-size="small" fill="#111">
5.0
</text>
<line x1="42.0" y1="308.77764757500955" x2="50.0" y2="308.77764757500955" stroke="#000"/>
<text x="26.000000000000004" y="308.77764757500955" text-anchor="end" font-weight="bold" font-size="small" fill="#111">
10.0
</text>
<line x1="42.0" y1="214.16647136251444" x2="50.0" y2="214.16647136251444" stroke="#000"/>
<text x="26.000000000000004" y="214.16647136251444" text-anchor="end" font-weight="bold" font-size="small" fill="#111">
15.0
</text>
<line x1="42.0" y1="119.55529515001928" x2="50.0" y2="119.55529515001928" stroke="#000"/>
<text x="26.000000000000004" y="119.55529515001928" text-anchor="end" font-weight="bold" font-size="small" fill="#111">
20.0
</text>
<line x1="142.75" y1="54.60000000000001" x2="262.75" y2="54.60000000000001" stroke="#648FFF" stroke-width="2"/>
<text x="202.75" y="49.500000000000014" font-size="small" text-anchor="middle" font-weight="bold" fill="#000">
CRuby 3.3.4
</text>
<rect x="354.25" y="35.400000000000006" width="120.0" height="19.2" fill="#785EF0" stroke="none"/>
<text x="414.25" y="49.500000000000014" font-size="small" text-anchor="middle" font-weight="bold" fill="#fff" style="text-shadow: 0 0 1px #000;">
CRuby 3.4.0dev
</text>
<rect x="565.75" y="35.400000000000006" width="120.0" height="19.2" fill="#FFB000" stroke="none"/>
<text x="625.7499999999999" y="49.500000000000014" font-size="small" text-anchor="middle" font-weight="bold" fill="#fff" style="text-shadow: 0 0 1px #000;">
YJIT 3.3.4
</text>
<rect x="777.25" y="35.400000000000006" width="120.0" height="19.2" fill="#DC267F" stroke="none"/>
<text x="837.2499999999999" y="49.500000000000014" font-size="small" text-anchor="middle" font-weight="bold" fill="#fff" style="text-shadow: 0 0 1px #000;">
YJIT 3.4.0dev
</text>
<rect x="65.40983606557377" y="481.2181793772516" width="15.40983606557377" height="16.781820622748405" fill="#785EF0" data-tooltip="0.89x baseline (CRuby 3.4.0dev)"/>
<line x1="65.40983606557377" y1="481.2000555171157" x2="80.81967213114753" y2="481.2000555171157" stroke-dasharray="1,0.5" stroke="#333c"/>
<line x1="65.40983606557377" y1="481.2363032373875" x2="80.81967213114753" y2="481.2363032373875" stroke-dasharray="1,0.5" stroke="#333c"/>
<line x1="73.11475409836066" y1="481.2000555171157" x2="73.11475409836066" y2="481.2363032373875" stroke-dasharray="1,0.5" stroke="#333c"/>
<rect x="80.81967213114753" y="417.489436959458" width="15.40983606557377" height="80.51056304054197" fill="#FFB000" data-tooltip="4.25x baseline (YJIT 3.3.4)"/>
<line x1="80.81967213114753" y1="417.4161142408281" x2="96.2295081967213" y2="417.4161142408281" stroke-dasharray="1,0.5" stroke="#333c"/>
<line x1="80.81967213114753" y1="417.5627596780879" x2="96.2295081967213" y2="417.5627596780879" stroke-dasharray="1,0.5" stroke="#333c"/>
<line x1="88.52459016393442" y1="417.4161142408281" x2="88.52459016393442" y2="417.5627596780879" stroke-dasharray="1,0.5" stroke="#333c"/>
<rect x="96.2295081967213" y="414.78182553685315" width="15.40983606557377" height="83.21817446314682" fill="#DC267F" data-tooltip="4.40x baseline (YJIT 3.4.0dev)"/>
<line x1="96.2295081967213" y1="414.70423000493133" x2="111.63934426229507" y2="414.70423000493133" stroke-dasharray="1,0.5" stroke="#333c"/>
<line x1="96.2295081967213" y1="414.85942106877496" x2="111.63934426229507" y2="414.85942106877496" stroke-dasharray="1,0.5" stroke="#333c"/>
<line x1="103.93442622950819" y1="414.70423000493133" x2="103.93442622950819" y2="414.85942106877496" stroke-dasharray="1,0.5" stroke="#333c"/>
<line x1="88.5245901639344" y1="498.0" x2="88.5245901639344" y2="502.79999999999995" stroke="#000"/>
<text x="88.5245901639344" y="512.4" fill="#111" font-size="small" text-anchor="end" transform="rotate(-60, 88.5245901639344, 512.4)">
30k_ifelse
</text>
<rect x="127.04918032786883" y="479.41645755716434" width="15.40983606557377" height="18.583542442835558" fill="#785EF0" data-tooltip="0.98x baseline (CRuby 3.4.0dev)"/>
<line x1="127.04918032786883" y1="479.39530080228513" x2="142.4590163934426" y2="479.39530080228513" stroke-dasharray="1,0.5" stroke="#333c"/>
<line x1="127.04918032786883" y1="479.4376143120436" x2="142.4590163934426" y2="479.4376143120436" stroke-dasharray="1,0.5" stroke="#333c"/>
<line x1="134.75409836065572" y1="479.39530080228513" x2="134.75409836065572" y2="479.4376143120436" stroke-dasharray="1,0.5" stroke="#333c"/>
<rect x="142.4590163934426" y="394.5126311914508" width="15.40983606557377" height="103.48736880854918" fill="#FFB000" data-tooltip="5.47x baseline (YJIT 3.3.4)"/>
<line x1="142.4590163934426" y1="394.4063465623251" x2="157.86885245901638" y2="394.4063465623251" stroke-dasharray="1,0.5" stroke="#333c"/>
<line x1="142.4590163934426" y1="394.6189158205765" x2="157.86885245901638" y2="394.6189158205765" stroke-dasharray="1,0.5" stroke="#333c"/>
<line x1="150.1639344262295" y1="394.4063465623251" x2="150.1639344262295" y2="394.6189158205765" stroke-dasharray="1,0.5" stroke="#333c"/>
<rect x="157.86885245901638" y="390.713311572826" width="15.40983606557377" height="107.28668842717391" fill="#DC267F" data-tooltip="5.67x baseline (YJIT 3.4.0dev)"/>
<line x1="157.86885245901638" y1="390.6097986454249" x2="173.27868852459017" y2="390.6097986454249" stroke-dasharray="1,0.5" stroke="#333c"/>
<line x1="157.86885245901638" y1="390.81682450022714" x2="173.27868852459017" y2="390.81682450022714" stroke-dasharray="1,0.5" stroke="#333c"/>
<line x1="165.5737704918033" y1="390.6097986454249" x2="165.5737704918033" y2="390.81682450022714" stroke-dasharray="1,0.5" stroke="#333c"/>
<line x1="150.1639344262295" y1="498.0" x2="150.1639344262295" y2="502.79999999999995" stroke="#000"/>
<text x="150.1639344262295" y="512.4" fill="#111" font-size="small" text-anchor="end" transform="rotate(-60, 150.1639344262295, 512.4)">
30k_methods
</text>
<rect x="188.68852459016395" y="478.9926576459511" width="15.40983606557377" height="19.007342354048866" fill="#785EF0" data-tooltip="1.00x baseline (CRuby 3.4.0dev)"/>
<line x1="188.68852459016395" y1="478.9011721882233" x2="204.0983606557377" y2="478.9011721882233" stroke-dasharray="1,0.5" stroke="#333c"/>
<line x1="188.68852459016395" y1="479.0841431036789" x2="204.0983606557377" y2="479.0841431036789" stroke-dasharray="1,0.5" stroke="#333c"/>
<line x1="196.39344262295083" y1="478.9011721882233" x2="196.39344262295083" y2="479.0841431036789" stroke-dasharray="1,0.5" stroke="#333c"/>
<rect x="204.0983606557377" y="384.9958828401702" width="15.40983606557377" height="113.00411715982968" fill="#FFB000" data-tooltip="5.97x baseline (YJIT 3.3.4)"/>
<line x1="204.0983606557377" y1="370.158063519484" x2="219.5081967213115" y2="370.158063519484" stroke-dasharray="1,0.5" stroke="#333c"/>
<line x1="204.0983606557377" y1="399.8337021608565" x2="219.5081967213115" y2="399.8337021608565" stroke-dasharray="1,0.5" stroke="#333c"/>
<line x1="211.8032786885246" y1="370.158063519484" x2="211.8032786885246" y2="399.8337021608565" stroke-dasharray="1,0.5" stroke="#333c"/>
<rect x="219.5081967213115" y="366.79506596731017" width="15.40983606557377" height="131.20493403268978" fill="#DC267F" data-tooltip="6.93x baseline (YJIT 3.4.0dev)"/>
<line x1="219.5081967213115" y1="348.63348464285986" x2="234.91803278688528" y2="348.63348464285986" stroke-dasharray="1,0.5" stroke="#333c"/>
<line x1="219.5081967213115" y1="384.9566472917605" x2="234.91803278688528" y2="384.9566472917605" stroke-dasharray="1,0.5" stroke="#333c"/>
<line x1="227.2131147540984" y1="348.63348464285986" x2="227.2131147540984" y2="384.9566472917605" stroke-dasharray="1,0.5" stroke="#333c"/>
<line x1="211.8032786885246" y1="498.0" x2="211.8032786885246" y2="502.79999999999995" stroke="#000"/>
<text x="211.8032786885246" y="512.4" fill="#111" font-size="small" text-anchor="end" transform="rotate(-60, 211.8032786885246, 512.4)">
cfunc_itself
</text>
<rect x="250.32786885245906" y="479.08917674272715" width="15.40983606557377" height="18.910823257272803" fill="#785EF0" data-tooltip="1.00x baseline (CRuby 3.4.0dev)"/>
<line x1="250.32786885245906" y1="478.82543332681036" x2="265.7377049180328" y2="478.82543332681036" stroke-dasharray="1,0.5" stroke="#333c"/>
<line x1="250.32786885245906" y1="479.352920158644" x2="265.7377049180328" y2="479.352920158644" stroke-dasharray="1,0.5" stroke="#333c"/>
<line x1="258.03278688524597" y1="478.82543332681036" x2="258.03278688524597" y2="479.352920158644" stroke-dasharray="1,0.5" stroke="#333c"/>
<rect x="265.7377049180328" y="410.17037988837785" width="15.40983606557377" height="87.82962011162206" fill="#FFB000" data-tooltip="4.64x baseline (YJIT 3.3.4)"/>
<line x1="265.7377049180328" y1="409.1212391685074" x2="281.14754098360663" y2="409.1212391685074" stroke-dasharray="1,0.5" stroke="#333c"/>
<line x1="265.7377049180328" y1="411.2195206082484" x2="281.14754098360663" y2="411.2195206082484" stroke-dasharray="1,0.5" stroke="#333c"/>
<line x1="273.4426229508197" y1="409.1212391685074" x2="273.4426229508197" y2="411.2195206082484" stroke-dasharray="1,0.5" stroke="#333c"/>
<rect x="281.14754098360663" y="399.65712091575693" width="15.40983606557377" height="98.34287908424294" fill="#DC267F" data-tooltip="5.20x baseline (YJIT 3.4.0dev)"/>
<line x1="281.14754098360663" y1="396.1990555527465" x2="296.5573770491804" y2="396.1990555527465" stroke-dasharray="1,0.5" stroke="#333c"/>
<line x1="281.14754098360663" y1="403.1151862787674" x2="296.5573770491804" y2="403.1151862787674" stroke-dasharray="1,0.5" stroke="#333c"/>
<line x1="288.8524590163935" y1="396.1990555527465" x2="288.8524590163935" y2="403.1151862787674" stroke-dasharray="1,0.5" stroke="#333c"/>
<line x1="273.4426229508197" y1="498.0" x2="273.4426229508197" y2="502.79999999999995" stroke="#000"/>
<text x="273.4426229508197" y="512.4" fill="#111" font-size="small" text-anchor="end" transform="rotate(-60, 273.4426229508197, 512.4)">
fib
</text>
<rect x="311.96721311475414" y="478.3230632859113" width="15.40983606557377" height="19.676936714088676" fill="#785EF0" data-tooltip="1.04x baseline (CRuby 3.4.0dev)"/>
<line x1="311.96721311475414" y1="477.8115375940543" x2="327.37704918032796" y2="477.8115375940543" stroke-dasharray="1,0.5" stroke="#333c"/>
<line x1="311.96721311475414" y1="478.83458897776825" x2="327.37704918032796" y2="478.83458897776825" stroke-dasharray="1,0.5" stroke="#333c"/>
<line x1="319.67213114754105" y1="477.8115375940543" x2="319.67213114754105" y2="478.83458897776825" stroke-dasharray="1,0.5" stroke="#333c"/>
<rect x="327.37704918032796" y="393.5824895300951" width="15.40983606557377" height="104.41751046990487" fill="#FFB000" data-tooltip="5.52x baseline (YJIT 3.3.4)"/>
<line x1="327.37704918032796" y1="306.7654370817779" x2="342.7868852459017" y2="306.7654370817779" stroke-dasharray="1,0.5" stroke="#333c"/>
<line x1="327.37704918032796" y1="480.39954197841223" x2="342.7868852459017" y2="480.39954197841223" stroke-dasharray="1,0.5" stroke="#333c"/>
<line x1="335.08196721311486" y1="306.7654370817779" x2="335.08196721311486" y2="480.39954197841223" stroke-dasharray="1,0.5" stroke="#333c"/>
<rect x="342.7868852459017" y="352.004773985357" width="15.40983606557377" height="145.99522601464298" fill="#DC267F" data-tooltip="7.72x baseline (YJIT 3.4.0dev)"/>
<line x1="342.7868852459017" y1="204.83659744022748" x2="358.1967213114755" y2="204.83659744022748" stroke-dasharray="1,0.5" stroke="#333c"/>
<line x1="342.7868852459017" y1="499.17295053048656" x2="358.1967213114755" y2="499.17295053048656" stroke-dasharray="1,0.5" stroke="#333c"/>
<line x1="350.4918032786886" y1="204.83659744022748" x2="350.4918032786886" y2="499.17295053048656" stroke-dasharray="1,0.5" stroke="#333c"/>
<line x1="335.08196721311486" y1="498.0" x2="335.08196721311486" y2="502.79999999999995" stroke="#000"/>
<text x="335.08196721311486" y="512.4" fill="#111" font-size="small" text-anchor="end" transform="rotate(-60, 335.08196721311486, 512.4)">
getivar
</text>
<rect x="373.6065573770493" y="478.80183954038193" width="15.40983606557377" height="19.198160459618013" fill="#785EF0" data-tooltip="1.01x baseline (CRuby 3.4.0dev)"/>
<line x1="373.6065573770493" y1="478.70604166808647" x2="389.01639344262304" y2="478.70604166808647" stroke-dasharray="1,0.5" stroke="#333c"/>
<line x1="373.6065573770493" y1="478.89763741267734" x2="389.01639344262304" y2="478.89763741267734" stroke-dasharray="1,0.5" stroke="#333c"/>
<line x1="381.3114754098362" y1="478.70604166808647" x2="381.3114754098362" y2="478.89763741267734" stroke-dasharray="1,0.5" stroke="#333c"/>
<rect x="389.01639344262304" y="347.4626236296374" width="15.40983606557377" height="150.5373763703626" fill="#FFB000" data-tooltip="7.96x baseline (YJIT 3.3.4)"/>
<line x1="389.01639344262304" y1="330.8542067815164" x2="404.42622950819685" y2="330.8542067815164" stroke-dasharray="1,0.5" stroke="#333c"/>
<line x1="389.01639344262304" y1="364.07104047775834" x2="404.42622950819685" y2="364.07104047775834" stroke-dasharray="1,0.5" stroke="#333c"/>
<line x1="396.72131147540995" y1="330.8542067815164" x2="396.72131147540995" y2="364.07104047775834" stroke-dasharray="1,0.5" stroke="#333c"/>
<rect x="404.42622950819685" y="310.4292990620246" width="15.40983606557377" height="187.5707009379753" fill="#DC267F" data-tooltip="9.91x baseline (YJIT 3.4.0dev)"/>
<line x1="404.42622950819685" y1="287.1006988966887" x2="419.8360655737706" y2="287.1006988966887" stroke-dasharray="1,0.5" stroke="#333c"/>
<line x1="404.42622950819685" y1="333.75789922736044" x2="419.8360655737706" y2="333.75789922736044" stroke-dasharray="1,0.5" stroke="#333c"/>
<line x1="412.13114754098376" y1="287.1006988966887" x2="412.13114754098376" y2="333.75789922736044" stroke-dasharray="1,0.5" stroke="#333c"/>
<line x1="396.72131147540995" y1="498.0" x2="396.72131147540995" y2="502.79999999999995" stroke="#000"/>
<text x="396.72131147540995" y="512.4" fill="#111" font-size="small" text-anchor="end" transform="rotate(-60, 396.72131147540995, 512.4)">
keyword_args
</text>
<rect x="435.2459016393444" y="480.12336902868617" width="15.40983606557377" height="17.876630971313755" fill="#785EF0" data-tooltip="0.94x baseline (CRuby 3.4.0dev)"/>
<line x1="435.2459016393444" y1="480.0909872013011" x2="450.6557377049182" y2="480.0909872013011" stroke-dasharray="1,0.5" stroke="#333c"/>
<line x1="435.2459016393444" y1="480.1557508560712" x2="450.6557377049182" y2="480.1557508560712" stroke-dasharray="1,0.5" stroke="#333c"/>
<line x1="442.9508196721313" y1="480.0909872013011" x2="442.9508196721313" y2="480.1557508560712" stroke-dasharray="1,0.5" stroke="#333c"/>
<rect x="450.6557377049182" y="472.4448544646932" width="15.40983606557377" height="25.555145535306778" fill="#FFB000" data-tooltip="1.35x baseline (YJIT 3.3.4)"/>
<line x1="450.6557377049182" y1="468.8590279262537" x2="466.06557377049194" y2="468.8590279262537" stroke-dasharray="1,0.5" stroke="#333c"/>
<line x1="450.6557377049182" y1="476.03068100313277" x2="466.06557377049194" y2="476.03068100313277" stroke-dasharray="1,0.5" stroke="#333c"/>
<line x1="458.3606557377051" y1="468.8590279262537" x2="458.3606557377051" y2="476.03068100313277" stroke-dasharray="1,0.5" stroke="#333c"/>
<rect x="466.06557377049194" y="474.3581250076971" width="15.40983606557377" height="23.64187499230279" fill="#DC267F" data-tooltip="1.25x baseline (YJIT 3.4.0dev)"/>
<line x1="466.06557377049194" y1="471.1204572228963" x2="481.47540983606575" y2="471.1204572228963" stroke-dasharray="1,0.5" stroke="#333c"/>
<line x1="466.06557377049194" y1="477.5957927924979" x2="481.47540983606575" y2="477.5957927924979" stroke-dasharray="1,0.5" stroke="#333c"/>
<line x1="473.77049180327884" y1="471.1204572228963" x2="473.77049180327884" y2="477.5957927924979" stroke-dasharray="1,0.5" stroke="#333c"/>
<line x1="458.3606557377051" y1="498.0" x2="458.3606557377051" y2="502.79999999999995" stroke="#000"/>
<text x="458.3606557377051" y="512.4" fill="#111" font-size="small" text-anchor="end" transform="rotate(-60, 458.3606557377051, 512.4)">
object-new
</text>
<rect x="496.8852459016395" y="479.7837573881143" width="15.40983606557377" height="18.216242611885647" fill="#785EF0" data-tooltip="0.96x baseline (CRuby 3.4.0dev)"/>
<line x1="496.8852459016395" y1="479.62376900340007" x2="512.2950819672133" y2="479.62376900340007" stroke-dasharray="1,0.5" stroke="#333c"/>
<line x1="496.8852459016395" y1="479.94374577282855" x2="512.2950819672133" y2="479.94374577282855" stroke-dasharray="1,0.5" stroke="#333c"/>
<line x1="504.59016393442636" y1="479.62376900340007" x2="504.59016393442636" y2="479.94374577282855" stroke-dasharray="1,0.5" stroke="#333c"/>
<rect x="512.2950819672133" y="164.57270638903597" width="15.40983606557377" height="333.42729361096394" fill="#FFB000" data-tooltip="17.62x baseline (YJIT 3.3.4)"/>
<line x1="512.2950819672133" y1="129.14021827633715" x2="527.7049180327871" y2="129.14021827633715" stroke-dasharray="1,0.5" stroke="#333c"/>
<line x1="512.2950819672133" y1="200.00519450173482" x2="527.7049180327871" y2="200.00519450173482" stroke-dasharray="1,0.5" stroke="#333c"/>
<line x1="520.0000000000001" y1="129.14021827633715" x2="520.0000000000001" y2="200.00519450173482" stroke-dasharray="1,0.5" stroke="#333c"/>
<rect x="527.7049180327871" y="100.19999999999999" width="15.40983606557377" height="397.79999999999995" fill="#DC267F" data-tooltip="21.02x baseline (YJIT 3.4.0dev)"/>
<line x1="527.7049180327871" y1="42.38831608780345" x2="543.1147540983609" y2="42.38831608780345" stroke-dasharray="1,0.5" stroke="#333c"/>
<line x1="527.7049180327871" y1="158.01168391219653" x2="543.1147540983609" y2="158.01168391219653" stroke-dasharray="1,0.5" stroke="#333c"/>
<line x1="535.4098360655739" y1="42.38831608780345" x2="535.4098360655739" y2="158.01168391219653" stroke-dasharray="1,0.5" stroke="#333c"/>
<line x1="520.0000000000002" y1="498.0" x2="520.0000000000002" y2="502.79999999999995" stroke="#000"/>
<text x="520.0000000000002" y="512.4" fill="#111" font-size="small" text-anchor="end" transform="rotate(-60, 520.0000000000002, 512.4)">
respond_to
</text>
<rect x="558.5245901639346" y="480.53748718410594" width="15.40983606557377" height="17.462512815893962" fill="#785EF0" data-tooltip="0.92x baseline (CRuby 3.4.0dev)"/>
<line x1="558.5245901639346" y1="480.12740873399963" x2="573.9344262295084" y2="480.12740873399963" stroke-dasharray="1,0.5" stroke="#333c"/>
<line x1="558.5245901639346" y1="480.94756563421225" x2="573.9344262295084" y2="480.94756563421225" stroke-dasharray="1,0.5" stroke="#333c"/>
<line x1="566.2295081967214" y1="480.12740873399963" x2="566.2295081967214" y2="480.94756563421225" stroke-dasharray="1,0.5" stroke="#333c"/>
<rect x="573.9344262295084" y="435.00888400420075" width="15.40983606557377" height="62.99111599579925" fill="#FFB000" data-tooltip="3.33x baseline (YJIT 3.3.4)"/>
<line x1="573.9344262295084" y1="433.5447781961887" x2="589.3442622950822" y2="433.5447781961887" stroke-dasharray="1,0.5" stroke="#333c"/>
<line x1="573.9344262295084" y1="436.47298981221275" x2="589.3442622950822" y2="436.47298981221275" stroke-dasharray="1,0.5" stroke="#333c"/>
<line x1="581.6393442622953" y1="433.5447781961887" x2="581.6393442622953" y2="436.47298981221275" stroke-dasharray="1,0.5" stroke="#333c"/>
<rect x="589.3442622950822" y="384.3627097642959" width="15.40983606557377" height="113.63729023570397" fill="#DC267F" data-tooltip="6.01x baseline (YJIT 3.4.0dev)"/>
<line x1="589.3442622950822" y1="381.7178024210706" x2="604.7540983606559" y2="381.7178024210706" stroke-dasharray="1,0.5" stroke="#333c"/>
<line x1="589.3442622950822" y1="387.0076171075213" x2="604.7540983606559" y2="387.0076171075213" stroke-dasharray="1,0.5" stroke="#333c"/>
<line x1="597.0491803278691" y1="381.7178024210706" x2="597.0491803278691" y2="387.0076171075213" stroke-dasharray="1,0.5" stroke="#333c"/>
<line x1="581.6393442622954" y1="498.0" x2="581.6393442622954" y2="502.79999999999995" stroke="#000"/>
<text x="581.6393442622954" y="512.4" fill="#111" font-size="small" text-anchor="end" transform="rotate(-60, 581.6393442622954, 512.4)">
ruby-xor
</text>
<rect x="620.1639344262297" y="479.05719485616663" width="15.40983606557377" height="18.942805143833343" fill="#785EF0" data-tooltip="1.00x baseline (CRuby 3.4.0dev)"/>
<line x1="620.1639344262297" y1="478.9687327287719" x2="635.5737704918035" y2="478.9687327287719" stroke-dasharray="1,0.5" stroke="#333c"/>
<line x1="620.1639344262297" y1="479.14565698356137" x2="635.5737704918035" y2="479.14565698356137" stroke-dasharray="1,0.5" stroke="#333c"/>
<line x1="627.8688524590166" y1="478.9687327287719" x2="627.8688524590166" y2="479.14565698356137" stroke-dasharray="1,0.5" stroke="#333c"/>
<rect x="635.5737704918035" y="376.8428168708337" width="15.40983606557377" height="121.15718312916623" fill="#FFB000" data-tooltip="6.40x baseline (YJIT 3.3.4)"/>
<line x1="635.5737704918035" y1="272.9504534263715" x2="650.9836065573774" y2="272.9504534263715" stroke-dasharray="1,0.5" stroke="#333c"/>
<line x1="635.5737704918035" y1="480.73518031529596" x2="650.9836065573774" y2="480.73518031529596" stroke-dasharray="1,0.5" stroke="#333c"/>
<line x1="643.2786885245904" y1="272.9504534263715" x2="643.2786885245904" y2="480.73518031529596" stroke-dasharray="1,0.5" stroke="#333c"/>
<rect x="650.9836065573774" y="330.70860321533024" width="15.40983606557377" height="167.2913967846697" fill="#DC267F" data-tooltip="8.84x baseline (YJIT 3.4.0dev)"/>
<line x1="650.9836065573774" y1="153.95027423438967" x2="666.393442622951" y2="153.95027423438967" stroke-dasharray="1,0.5" stroke="#333c"/>
<line x1="650.9836065573774" y1="507.4669321962708" x2="666.393442622951" y2="507.4669321962708" stroke-dasharray="1,0.5" stroke="#333c"/>
<line x1="658.6885245901641" y1="153.95027423438967" x2="658.6885245901641" y2="507.4669321962708" stroke-dasharray="1,0.5" stroke="#333c"/>
<line x1="643.2786885245905" y1="498.0" x2="643.2786885245905" y2="502.79999999999995" stroke="#000"/>
<text x="643.2786885245905" y="512.4" fill="#111" font-size="small" text-anchor="end" transform="rotate(-60, 643.2786885245905, 512.4)">
setivar
</text>
<rect x="681.8032786885249" y="479.50655576416307" width="15.40983606557377" height="18.493444235836854" fill="#785EF0" data-tooltip="0.98x baseline (CRuby 3.4.0dev)"/>
<line x1="681.8032786885249" y1="479.371161329121" x2="697.2131147540987" y2="479.371161329121" stroke-dasharray="1,0.5" stroke="#333c"/>
<line x1="681.8032786885249" y1="479.6419501992052" x2="697.2131147540987" y2="479.6419501992052" stroke-dasharray="1,0.5" stroke="#333c"/>
<line x1="689.5081967213117" y1="479.371161329121" x2="689.5081967213117" y2="479.6419501992052" stroke-dasharray="1,0.5" stroke="#333c"/>
<rect x="697.2131147540987" y="452.1313088595492" width="15.40983606557377" height="45.86869114045074" fill="#FFB000" data-tooltip="2.42x baseline (YJIT 3.3.4)"/>
<line x1="697.2131147540987" y1="431.02066909644805" x2="712.6229508196724" y2="431.02066909644805" stroke-dasharray="1,0.5" stroke="#333c"/>
<line x1="697.2131147540987" y1="473.2419486226504" x2="712.6229508196724" y2="473.2419486226504" stroke-dasharray="1,0.5" stroke="#333c"/>
<line x1="704.9180327868854" y1="431.02066909644805" x2="704.9180327868854" y2="473.2419486226504" stroke-dasharray="1,0.5" stroke="#333c"/>
<rect x="712.6229508196724" y="449.9901767173805" width="15.40983606557377" height="48.00982328261944" fill="#DC267F" data-tooltip="2.54x baseline (YJIT 3.4.0dev)"/>
<line x1="712.6229508196724" y1="425.8866794132893" x2="728.0327868852462" y2="425.8866794132893" stroke-dasharray="1,0.5" stroke="#333c"/>
<line x1="712.6229508196724" y1="474.0936740214717" x2="728.0327868852462" y2="474.0936740214717" stroke-dasharray="1,0.5" stroke="#333c"/>
<line x1="720.3278688524592" y1="425.8866794132893" x2="720.3278688524592" y2="474.0936740214717" stroke-dasharray="1,0.5" stroke="#333c"/>
<line x1="704.9180327868855" y1="498.0" x2="704.9180327868855" y2="502.79999999999995" stroke="#000"/>
<text x="704.9180327868855" y="512.4" fill="#111" font-size="small" text-anchor="end" transform="rotate(-60, 704.9180327868855, 512.4)">
setivar_object
</text>
<rect x="743.44262295082" y="479.7167370310907" width="15.40983606557377" height="18.283262968909245" fill="#785EF0" data-tooltip="0.97x baseline (CRuby 3.4.0dev)"/>
<line x1="743.44262295082" y1="479.3840623323279" x2="758.8524590163937" y2="479.3840623323279" stroke-dasharray="1,0.5" stroke="#333c"/>
<line x1="743.44262295082" y1="480.04941172985355" x2="758.8524590163937" y2="480.04941172985355" stroke-dasharray="1,0.5" stroke="#333c"/>
<line x1="751.1475409836069" y1="479.3840623323279" x2="751.1475409836069" y2="480.04941172985355" stroke-dasharray="1,0.5" stroke="#333c"/>
<rect x="758.8524590163937" y="452.1201701169812" width="15.40983606557377" height="45.87982988301874" fill="#FFB000" data-tooltip="2.42x baseline (YJIT 3.3.4)"/>
<line x1="758.8524590163937" y1="431.0368354049074" x2="774.2622950819675" y2="431.0368354049074" stroke-dasharray="1,0.5" stroke="#333c"/>
<line x1="758.8524590163937" y1="473.203504829055" x2="774.2622950819675" y2="473.203504829055" stroke-dasharray="1,0.5" stroke="#333c"/>
<line x1="766.5573770491806" y1="431.0368354049074" x2="766.5573770491806" y2="473.203504829055" stroke-dasharray="1,0.5" stroke="#333c"/>
<rect x="774.2622950819675" y="450.1283190956987" width="15.40983606557377" height="47.87168090430122" fill="#DC267F" data-tooltip="2.53x baseline (YJIT 3.4.0dev)"/>
<line x1="774.2622950819675" y1="425.7864637147879" x2="789.6721311475413" y2="425.7864637147879" stroke-dasharray="1,0.5" stroke="#333c"/>
<line x1="774.2622950819675" y1="474.47017447660954" x2="789.6721311475413" y2="474.47017447660954" stroke-dasharray="1,0.5" stroke="#333c"/>
<line x1="781.9672131147544" y1="425.7864637147879" x2="781.9672131147544" y2="474.47017447660954" stroke-dasharray="1,0.5" stroke="#333c"/>
<line x1="766.5573770491807" y1="498.0" x2="766.5573770491807" y2="502.79999999999995" stroke="#000"/>
<text x="766.5573770491807" y="512.4" fill="#111" font-size="small" text-anchor="end" transform="rotate(-60, 766.5573770491807, 512.4)">
setivar_young
</text>
<rect x="805.081967213115" y="479.701970502497" width="15.40983606557377" height="18.29802949750302" fill="#785EF0" data-tooltip="0.97x baseline (CRuby 3.4.0dev)"/>
<line x1="805.081967213115" y1="478.76420867625285" x2="820.4918032786888" y2="478.76420867625285" stroke-dasharray="1,0.5" stroke="#333c"/>
<line x1="805.081967213115" y1="480.63973232874105" x2="820.4918032786888" y2="480.63973232874105" stroke-dasharray="1,0.5" stroke="#333c"/>
<line x1="812.7868852459019" y1="478.76420867625285" x2="812.7868852459019" y2="480.63973232874105" stroke-dasharray="1,0.5" stroke="#333c"/>
<rect x="820.4918032786888" y="457.6622834410683" width="15.40983606557377" height="40.337716558931575" fill="#FFB000" data-tooltip="2.13x baseline (YJIT 3.3.4)"/>
<line x1="820.4918032786888" y1="456.86296007331396" x2="835.9016393442627" y2="456.86296007331396" stroke-dasharray="1,0.5" stroke="#333c"/>
<line x1="820.4918032786888" y1="458.46160680882264" x2="835.9016393442627" y2="458.46160680882264" stroke-dasharray="1,0.5" stroke="#333c"/>
<line x1="828.1967213114757" y1="456.86296007331396" x2="828.1967213114757" y2="458.46160680882264" stroke-dasharray="1,0.5" stroke="#333c"/>
<rect x="835.9016393442627" y="452.8231819544919" width="15.40983606557377" height="45.176818045508085" fill="#DC267F" data-tooltip="2.39x baseline (YJIT 3.4.0dev)"/>
<line x1="835.9016393442627" y1="451.92369716165507" x2="851.3114754098365" y2="451.92369716165507" stroke-dasharray="1,0.5" stroke="#333c"/>
<line x1="835.9016393442627" y1="453.7226667473286" x2="851.3114754098365" y2="453.7226667473286" stroke-dasharray="1,0.5" stroke="#333c"/>
<line x1="843.6065573770495" y1="451.92369716165507" x2="843.6065573770495" y2="453.7226667473286" stroke-dasharray="1,0.5" stroke="#333c"/>
<line x1="828.1967213114758" y1="498.0" x2="828.1967213114758" y2="502.79999999999995" stroke="#000"/>
<text x="828.1967213114758" y="512.4" fill="#111" font-size="small" text-anchor="end" transform="rotate(-60, 828.1967213114758, 512.4)">
str_concat
</text>
<rect x="866.7213114754102" y="479.68275995196797" width="15.40983606557377" height="18.31724004803202" fill="#785EF0" data-tooltip="0.97x baseline (CRuby 3.4.0dev)"/>
<line x1="866.7213114754102" y1="479.6397554279627" x2="882.131147540984" y2="479.6397554279627" stroke-dasharray="1,0.5" stroke="#333c"/>
<line x1="866.7213114754102" y1="479.7257644759732" x2="882.131147540984" y2="479.7257644759732" stroke-dasharray="1,0.5" stroke="#333c"/>
<line x1="874.426229508197" y1="479.6397554279627" x2="874.426229508197" y2="479.7257644759732" stroke-dasharray="1,0.5" stroke="#333c"/>
<rect x="882.131147540984" y="470.07964132404766" width="15.40983606557377" height="27.92035867595222" fill="#FFB000" data-tooltip="1.48x baseline (YJIT 3.3.4)"/>
<line x1="882.131147540984" y1="469.9936226192698" x2="897.5409836065578" y2="469.9936226192698" stroke-dasharray="1,0.5" stroke="#333c"/>
<line x1="882.131147540984" y1="470.1656600288255" x2="897.5409836065578" y2="470.1656600288255" stroke-dasharray="1,0.5" stroke="#333c"/>
<line x1="889.8360655737708" y1="469.9936226192698" x2="889.8360655737708" y2="470.1656600288255" stroke-dasharray="1,0.5" stroke="#333c"/>
<rect x="897.5409836065578" y="470.80417159933796" width="15.40983606557377" height="27.195828400662" fill="#DC267F" data-tooltip="1.44x baseline (YJIT 3.4.0dev)"/>
<line x1="897.5409836065578" y1="470.73419998888284" x2="912.9508196721315" y2="470.73419998888284" stroke-dasharray="1,0.5" stroke="#333c"/>
<line x1="897.5409836065578" y1="470.87414320979303" x2="912.9508196721315" y2="470.87414320979303" stroke-dasharray="1,0.5" stroke="#333c"/>
<line x1="905.2459016393447" y1="470.73419998888284" x2="905.2459016393447" y2="470.87414320979303" stroke-dasharray="1,0.5" stroke="#333c"/>
<line x1="889.836065573771" y1="498.0" x2="889.836065573771" y2="502.79999999999995" stroke="#000"/>
<text x="889.836065573771" y="512.4" fill="#111" font-size="small" text-anchor="end" transform="rotate(-60, 889.836065573771, 512.4)">
throw
</text>
<rect x="928.3606557377053" y="479.5818384472713" width="15.40983606557377" height="18.41816155272872" fill="#785EF0" data-tooltip="0.97x baseline (CRuby 3.4.0dev)"/>
<rect x="943.7704918032791" y="422.36932608883035" width="15.40983606557377" height="75.63067391116964" fill="#FFB000" data-tooltip="4.00x baseline (YJIT 3.3.4)"/>
<rect x="959.1803278688528" y="410.29806215224704" width="15.40983606557377" height="87.70193784775289" fill="#DC267F" data-tooltip="4.63x baseline (YJIT 3.4.0dev)"/>
<line x1="951.4754098360661" y1="498.0" x2="951.4754098360661" y2="502.79999999999995" stroke="#000"/>
<text x="951.4754098360661" y="512.4" fill="#111" font-size="small" text-anchor="end" transform="rotate(-60, 951.4754098360661, 512.4)" font-style="italic">
geomean*
</text>
<line x1="50.0" y1="479.0777647575009" x2="990.0" y2="479.0777647575009" stroke="#648FFF" stroke-width="2"/>
<rect x="67.23483606557377" y="467.05817937725163" width="17.85" height="7.2" transform="rotate(-60, 75.11475409836066, 473.7181793772516)" fill="#fffa"/>
<text x="67.40983606557377" y="473.7181793772516" fill="#111" font-size="0.5em" text-anchor="start" textLength="17.5" transform="rotate(-60, 75.11475409836066, 473.7181793772516)" style="text-shadow: 0 0 1px #fff;">
0.89
</text>
<rect x="82.64467213114754" y="403.329436959458" width="17.85" height="7.2" transform="rotate(-60, 90.52459016393442, 409.98943695945803)" fill="#fffa"/>
<text x="82.81967213114753" y="409.98943695945803" fill="#111" font-size="0.5em" text-anchor="start" textLength="17.5" transform="rotate(-60, 90.52459016393442, 409.98943695945803)" style="text-shadow: 0 0 1px #fff;">
4.25
</text>
<rect x="98.0545081967213" y="400.6218255368532" width="17.85" height="7.2" transform="rotate(-60, 105.93442622950819, 407.2818255368532)" fill="#fffa"/>
<text x="98.2295081967213" y="407.2818255368532" fill="#111" font-size="0.5em" text-anchor="start" textLength="17.5" transform="rotate(-60, 105.93442622950819, 407.2818255368532)" style="text-shadow: 0 0 1px #fff;">
4.40
</text>
<rect x="128.87418032786883" y="465.25645755716437" width="17.85" height="7.2" transform="rotate(-60, 136.75409836065572, 471.9164575571644)" fill="#fffa"/>
<text x="129.04918032786884" y="471.9164575571644" fill="#111" font-size="0.5em" text-anchor="start" textLength="17.5" transform="rotate(-60, 136.75409836065572, 471.9164575571644)" style="text-shadow: 0 0 1px #fff;">
0.98
</text>
<rect x="144.2840163934426" y="380.35263119145077" width="17.85" height="7.2" transform="rotate(-60, 152.1639344262295, 387.0126311914508)" fill="#fffa"/>
<text x="144.4590163934426" y="387.0126311914508" fill="#111" font-size="0.5em" text-anchor="start" textLength="17.5" transform="rotate(-60, 152.1639344262295, 387.0126311914508)" style="text-shadow: 0 0 1px #fff;">
5.47
</text>
<rect x="159.69385245901637" y="376.55331157282603" width="17.85" height="7.2" transform="rotate(-60, 167.5737704918033, 383.21331157282606)" fill="#fffa"/>
<text x="159.86885245901638" y="383.21331157282606" fill="#111" font-size="0.5em" text-anchor="start" textLength="17.5" transform="rotate(-60, 167.5737704918033, 383.21331157282606)" style="text-shadow: 0 0 1px #fff;">
5.67
</text>
<rect x="190.51352459016394" y="464.83265764595114" width="17.85" height="7.2" transform="rotate(-60, 198.39344262295083, 471.4926576459511)" fill="#fffa"/>
<text x="190.68852459016395" y="471.4926576459511" fill="#111" font-size="0.5em" text-anchor="start" textLength="17.5" transform="rotate(-60, 198.39344262295083, 471.4926576459511)" style="text-shadow: 0 0 1px #fff;">
1.00
</text>
<rect x="205.92336065573772" y="370.83588284017026" width="17.85" height="7.2" transform="rotate(-60, 213.8032786885246, 377.4958828401703)" fill="#fffa"/>
<text x="206.09836065573774" y="377.4958828401703" fill="#111" font-size="0.5em" text-anchor="start" textLength="17.5" transform="rotate(-60, 213.8032786885246, 377.4958828401703)" style="text-shadow: 0 0 1px #fff;">
5.97
</text>
<rect x="221.33319672131148" y="352.6350659673102" width="17.85" height="7.2" transform="rotate(-60, 229.2131147540984, 359.29506596731017)" fill="#fffa"/>
<text x="221.5081967213115" y="359.29506596731017" fill="#111" font-size="0.5em" text-anchor="start" textLength="17.5" transform="rotate(-60, 229.2131147540984, 359.29506596731017)" style="text-shadow: 0 0 1px #fff;">
6.93
</text>
<rect x="252.15286885245908" y="464.9291767427272" width="17.85" height="7.2" transform="rotate(-60, 260.03278688524597, 471.5891767427272)" fill="#fffa"/>
<text x="252.32786885245906" y="471.5891767427272" fill="#111" font-size="0.5em" text-anchor="start" textLength="17.5" transform="rotate(-60, 260.03278688524597, 471.5891767427272)" style="text-shadow: 0 0 1px #fff;">
1.00
</text>
<rect x="267.56270491803286" y="396.0103798883779" width="17.85" height="7.2" transform="rotate(-60, 275.4426229508197, 402.6703798883779)" fill="#fffa"/>
<text x="267.7377049180328" y="402.6703798883779" fill="#111" font-size="0.5em" text-anchor="start" textLength="17.5" transform="rotate(-60, 275.4426229508197, 402.6703798883779)" style="text-shadow: 0 0 1px #fff;">
4.64
</text>
<rect x="282.9725409836066" y="385.49712091575697" width="17.85" height="7.2" transform="rotate(-60, 290.8524590163935, 392.157120915757)" fill="#fffa"/>
<text x="283.14754098360663" y="392.157120915757" fill="#111" font-size="0.5em" text-anchor="start" textLength="17.5" transform="rotate(-60, 290.8524590163935, 392.157120915757)" style="text-shadow: 0 0 1px #fff;">
5.20
</text>
<rect x="313.7922131147542" y="464.1630632859113" width="17.85" height="7.2" transform="rotate(-60, 321.67213114754105, 470.8230632859113)" fill="#fffa"/>
<text x="313.96721311475414" y="470.8230632859113" fill="#111" font-size="0.5em" text-anchor="start" textLength="17.5" transform="rotate(-60, 321.67213114754105, 470.8230632859113)" style="text-shadow: 0 0 1px #fff;">
1.04
</text>
<rect x="329.20204918032795" y="379.4224895300951" width="17.85" height="7.2" transform="rotate(-60, 337.08196721311486, 386.08248953009513)" fill="#fffa"/>
<text x="329.37704918032796" y="386.08248953009513" fill="#111" font-size="0.5em" text-anchor="start" textLength="17.5" transform="rotate(-60, 337.08196721311486, 386.08248953009513)" style="text-shadow: 0 0 1px #fff;">
5.52
</text>
<rect x="344.61188524590176" y="337.84477398535705" width="17.85" height="7.2" transform="rotate(-60, 352.4918032786886, 344.5047739853571)" fill="#fffa"/>
<text x="344.7868852459017" y="344.5047739853571" fill="#111" font-size="0.5em" text-anchor="start" textLength="17.5" transform="rotate(-60, 352.4918032786886, 344.5047739853571)" style="text-shadow: 0 0 1px #fff;">
7.72
</text>
<rect x="375.43155737704933" y="464.64183954038197" width="17.85" height="7.2" transform="rotate(-60, 383.3114754098362, 471.30183954038193)" fill="#fffa"/>
<text x="375.6065573770493" y="471.30183954038193" fill="#111" font-size="0.5em" text-anchor="start" textLength="17.5" transform="rotate(-60, 383.3114754098362, 471.30183954038193)" style="text-shadow: 0 0 1px #fff;">
1.01
</text>
<rect x="390.8413934426231" y="333.3026236296374" width="17.85" height="7.2" transform="rotate(-60, 398.72131147540995, 339.9626236296374)" fill="#fffa"/>
<text x="391.01639344262304" y="339.9626236296374" fill="#111" font-size="0.5em" text-anchor="start" textLength="17.5" transform="rotate(-60, 398.72131147540995, 339.9626236296374)" style="text-shadow: 0 0 1px #fff;">
7.96
</text>
<rect x="406.25122950819684" y="296.26929906202463" width="17.85" height="7.2" transform="rotate(-60, 414.13114754098376, 302.9292990620246)" fill="#fffa"/>
<text x="406.42622950819685" y="302.9292990620246" fill="#111" font-size="0.5em" text-anchor="start" textLength="17.5" transform="rotate(-60, 414.13114754098376, 302.9292990620246)" style="text-shadow: 0 0 1px #fff;">
9.91
</text>
<rect x="437.0709016393444" y="465.9633690286862" width="17.85" height="7.2" transform="rotate(-60, 444.9508196721313, 472.6233690286862)" fill="#fffa"/>
<text x="437.2459016393444" y="472.6233690286862" fill="#111" font-size="0.5em" text-anchor="start" textLength="17.5" transform="rotate(-60, 444.9508196721313, 472.6233690286862)" style="text-shadow: 0 0 1px #fff;">
0.94
</text>
<rect x="452.4807377049182" y="458.28485446469324" width="17.85" height="7.2" transform="rotate(-60, 460.3606557377051, 464.94485446469326)" fill="#fffa"/>
<text x="452.6557377049182" y="464.94485446469326" fill="#111" font-size="0.5em" text-anchor="start" textLength="17.5" transform="rotate(-60, 460.3606557377051, 464.94485446469326)" style="text-shadow: 0 0 1px #fff;">
1.35
</text>
<rect x="467.890573770492" y="460.1981250076971" width="17.85" height="7.2" transform="rotate(-60, 475.77049180327884, 466.85812500769714)" fill="#fffa"/>
<text x="468.06557377049194" y="466.85812500769714" fill="#111" font-size="0.5em" text-anchor="start" textLength="17.5" transform="rotate(-60, 475.77049180327884, 466.85812500769714)" style="text-shadow: 0 0 1px #fff;">
1.25
</text>
<rect x="498.71024590163955" y="465.6237573881143" width="17.85" height="7.2" transform="rotate(-60, 506.59016393442636, 472.28375738811434)" fill="#fffa"/>
<text x="498.8852459016395" y="472.28375738811434" fill="#111" font-size="0.5em" text-anchor="start" textLength="17.5" transform="rotate(-60, 506.59016393442636, 472.28375738811434)" style="text-shadow: 0 0 1px #fff;">
0.96
</text>
<rect x="514.1200819672133" y="150.41270638903598" width="17.85" height="7.2" transform="rotate(-60, 522.0000000000001, 157.07270638903597)" fill="#fffa"/>
<text x="514.2950819672133" y="157.07270638903597" fill="#111" font-size="0.5em" text-anchor="start" textLength="17.5" transform="rotate(-60, 522.0000000000001, 157.07270638903597)" style="text-shadow: 0 0 1px #fff;">
17.62
</text>
<rect x="529.529918032787" y="86.03999999999998" width="17.85" height="7.2" transform="rotate(-60, 537.4098360655739, 92.69999999999999)" fill="#fffa"/>
<text x="529.7049180327871" y="92.69999999999999" fill="#111" font-size="0.5em" text-anchor="start" textLength="17.5" transform="rotate(-60, 537.4098360655739, 92.69999999999999)" style="text-shadow: 0 0 1px #fff;">
21.02
</text>
<rect x="560.3495901639346" y="466.377487184106" width="17.85" height="7.2" transform="rotate(-60, 568.2295081967214, 473.03748718410594)" fill="#fffa"/>
<text x="560.5245901639346" y="473.03748718410594" fill="#111" font-size="0.5em" text-anchor="start" textLength="17.5" transform="rotate(-60, 568.2295081967214, 473.03748718410594)" style="text-shadow: 0 0 1px #fff;">
0.92
</text>
<rect x="575.7594262295083" y="420.8488840042008" width="17.85" height="7.2" transform="rotate(-60, 583.6393442622953, 427.50888400420075)" fill="#fffa"/>
<text x="575.9344262295084" y="427.50888400420075" fill="#111" font-size="0.5em" text-anchor="start" textLength="17.5" transform="rotate(-60, 583.6393442622953, 427.50888400420075)" style="text-shadow: 0 0 1px #fff;">
3.33
</text>
<rect x="591.1692622950821" y="370.20270976429595" width="17.85" height="7.2" transform="rotate(-60, 599.0491803278691, 376.86270976429597)" fill="#fffa"/>
<text x="591.3442622950822" y="376.86270976429597" fill="#111" font-size="0.5em" text-anchor="start" textLength="17.5" transform="rotate(-60, 599.0491803278691, 376.86270976429597)" style="text-shadow: 0 0 1px #fff;">
6.01
</text>
<rect x="621.9889344262297" y="464.89719485616666" width="17.85" height="7.2" transform="rotate(-60, 629.8688524590166, 471.5571948561667)" fill="#fffa"/>
<text x="622.1639344262297" y="471.5571948561667" fill="#111" font-size="0.5em" text-anchor="start" textLength="17.5" transform="rotate(-60, 629.8688524590166, 471.5571948561667)" style="text-shadow: 0 0 1px #fff;">
1.00
</text>
<rect x="637.3987704918035" y="362.68281687083373" width="17.85" height="7.2" transform="rotate(-60, 645.2786885245904, 369.34281687083376)" fill="#fffa"/>
<text x="637.5737704918035" y="369.34281687083376" fill="#111" font-size="0.5em" text-anchor="start" textLength="17.5" transform="rotate(-60, 645.2786885245904, 369.34281687083376)" style="text-shadow: 0 0 1px #fff;">
6.40
</text>
<rect x="652.8086065573773" y="316.5486032153303" width="17.85" height="7.2" transform="rotate(-60, 660.6885245901641, 323.20860321533024)" fill="#fffa"/>
<text x="652.9836065573774" y="323.20860321533024" fill="#111" font-size="0.5em" text-anchor="start" textLength="17.5" transform="rotate(-60, 660.6885245901641, 323.20860321533024)" style="text-shadow: 0 0 1px #fff;">
8.84
</text>
<rect x="683.6282786885248" y="465.3465557641631" width="17.85" height="7.2" transform="rotate(-60, 691.5081967213117, 472.0065557641631)" fill="#fffa"/>
<text x="683.8032786885249" y="472.0065557641631" fill="#111" font-size="0.5em" text-anchor="start" textLength="17.5" transform="rotate(-60, 691.5081967213117, 472.0065557641631)" style="text-shadow: 0 0 1px #fff;">
0.98
</text>
<rect x="699.0381147540986" y="437.97130885954925" width="17.85" height="7.2" transform="rotate(-60, 706.9180327868854, 444.6313088595493)" fill="#fffa"/>
<text x="699.2131147540987" y="444.6313088595493" fill="#111" font-size="0.5em" text-anchor="start" textLength="17.5" transform="rotate(-60, 706.9180327868854, 444.6313088595493)" style="text-shadow: 0 0 1px #fff;">
2.42
</text>
<rect x="714.4479508196724" y="435.83017671738054" width="17.85" height="7.2" transform="rotate(-60, 722.3278688524592, 442.49017671738056)" fill="#fffa"/>
<text x="714.6229508196724" y="442.49017671738056" fill="#111" font-size="0.5em" text-anchor="start" textLength="17.5" transform="rotate(-60, 722.3278688524592, 442.49017671738056)" style="text-shadow: 0 0 1px #fff;">
2.54
</text>
<rect x="745.2676229508199" y="465.55673703109073" width="17.85" height="7.2" transform="rotate(-60, 753.1475409836069, 472.21673703109076)" fill="#fffa"/>
<text x="745.44262295082" y="472.21673703109076" fill="#111" font-size="0.5em" text-anchor="start" textLength="17.5" transform="rotate(-60, 753.1475409836069, 472.21673703109076)" style="text-shadow: 0 0 1px #fff;">
0.97
</text>
<rect x="760.6774590163938" y="437.9601701169812" width="17.85" height="7.2" transform="rotate(-60, 768.5573770491806, 444.6201701169812)" fill="#fffa"/>
<text x="760.8524590163937" y="444.6201701169812" fill="#111" font-size="0.5em" text-anchor="start" textLength="17.5" transform="rotate(-60, 768.5573770491806, 444.6201701169812)" style="text-shadow: 0 0 1px #fff;">
2.42
</text>
<rect x="776.0872950819675" y="435.96831909569875" width="17.85" height="7.2" transform="rotate(-60, 783.9672131147544, 442.6283190956987)" fill="#fffa"/>
<text x="776.2622950819675" y="442.6283190956987" fill="#111" font-size="0.5em" text-anchor="start" textLength="17.5" transform="rotate(-60, 783.9672131147544, 442.6283190956987)" style="text-shadow: 0 0 1px #fff;">
2.53
</text>
<rect x="806.9069672131151" y="465.541970502497" width="17.85" height="7.2" transform="rotate(-60, 814.7868852459019, 472.201970502497)" fill="#fffa"/>
<text x="807.0819672131151" y="472.201970502497" fill="#111" font-size="0.5em" text-anchor="start" textLength="17.5" transform="rotate(-60, 814.7868852459019, 472.201970502497)" style="text-shadow: 0 0 1px #fff;">
0.97
</text>
<rect x="822.3168032786888" y="443.50228344106836" width="17.85" height="7.2" transform="rotate(-60, 830.1967213114757, 450.1622834410683)" fill="#fffa"/>
<text x="822.4918032786888" y="450.1622834410683" fill="#111" font-size="0.5em" text-anchor="start" textLength="17.5" transform="rotate(-60, 830.1967213114757, 450.1622834410683)" style="text-shadow: 0 0 1px #fff;">
2.13
</text>
<rect x="837.7266393442626" y="438.6631819544919" width="17.85" height="7.2" transform="rotate(-60, 845.6065573770495, 445.3231819544919)" fill="#fffa"/>
<text x="837.9016393442627" y="445.3231819544919" fill="#111" font-size="0.5em" text-anchor="start" textLength="17.5" transform="rotate(-60, 845.6065573770495, 445.3231819544919)" style="text-shadow: 0 0 1px #fff;">
2.39
</text>
<rect x="868.5463114754102" y="465.522759951968" width="17.85" height="7.2" transform="rotate(-60, 876.426229508197, 472.18275995196797)" fill="#fffa"/>
<text x="868.7213114754102" y="472.18275995196797" fill="#111" font-size="0.5em" text-anchor="start" textLength="17.5" transform="rotate(-60, 876.426229508197, 472.18275995196797)" style="text-shadow: 0 0 1px #fff;">
0.97
</text>
<rect x="883.9561475409839" y="455.9196413240477" width="17.85" height="7.2" transform="rotate(-60, 891.8360655737708, 462.57964132404766)" fill="#fffa"/>
<text x="884.131147540984" y="462.57964132404766" fill="#111" font-size="0.5em" text-anchor="start" textLength="17.5" transform="rotate(-60, 891.8360655737708, 462.57964132404766)" style="text-shadow: 0 0 1px #fff;">
1.48
</text>
<rect x="899.3659836065577" y="456.644171599338" width="17.85" height="7.2" transform="rotate(-60, 907.2459016393447, 463.30417159933796)" fill="#fffa"/>
<text x="899.5409836065578" y="463.30417159933796" fill="#111" font-size="0.5em" text-anchor="start" textLength="17.5" transform="rotate(-60, 907.2459016393447, 463.30417159933796)" style="text-shadow: 0 0 1px #fff;">
1.44
</text>
<rect x="930.1856557377052" y="465.42183844727134" width="17.85" height="7.2" transform="rotate(-60, 938.0655737704922, 472.0818384472713)" fill="#fffa"/>
<text x="930.3606557377053" y="472.0818384472713" fill="#111" font-size="0.5em" text-anchor="start" textLength="17.5" transform="rotate(-60, 938.0655737704922, 472.0818384472713)" style="text-shadow: 0 0 1px #fff;">
0.97
</text>
<rect x="945.5954918032791" y="408.2093260888304" width="17.85" height="7.2" transform="rotate(-60, 953.475409836066, 414.8693260888304)" fill="#fffa"/>
<text x="945.7704918032791" y="414.8693260888304" fill="#111" font-size="0.5em" text-anchor="start" textLength="17.5" transform="rotate(-60, 953.475409836066, 414.8693260888304)" style="text-shadow: 0 0 1px #fff;">
4.00
</text>
<rect x="961.0053278688529" y="396.1380621522471" width="17.85" height="7.2" transform="rotate(-60, 968.8852459016397, 402.7980621522471)" fill="#fffa"/>
<text x="961.1803278688528" y="402.7980621522471" fill="#111" font-size="0.5em" text-anchor="start" textLength="17.5" transform="rotate(-60, 968.8852459016397, 402.7980621522471)" style="text-shadow: 0 0 1px #fff;">
4.63
</text>
</svg>