<svg viewBox="0 0 1000 600" xmlns="http://www.w3.org/2000/svg" xmlns:xlink="http://www.w3.org/1999/xlink" width="100%" height="100%">

<rect x="50.0" y="30.0" width="940.0" height="467.99999999999994" stroke="#000" fill="#EEE"/>
<line x1="42.0" y1="497.9999999999999" x2="50.0" y2="497.9999999999999" stroke="#000"/>
<text x="26.000000000000004" y="497.9999999999999" text-anchor="end" font-weight="bold" font-size="small" fill="#111">
0.0
</text>
<line x1="42.0" y1="438.62147737727844" x2="50.0" y2="438.62147737727844" stroke="#000"/>
<text x="26.000000000000004" y="438.62147737727844" text-anchor="end" font-weight="bold" font-size="small" fill="#111">
0.2
</text>
<line x1="42.0" y1="379.2429547545568" x2="50.0" y2="379.2429547545568" stroke="#000"/>
<text x="26.000000000000004" y="379.2429547545568" text-anchor="end" font-weight="bold" font-size="small" fill="#111">
0.4
</text>
<line x1="42.0" y1="319.8644321318354" x2="50.0" y2="319.8644321318354" stroke="#000"/>
<text x="26.000000000000004" y="319.8644321318354" text-anchor="end" font-weight="bold" font-size="small" fill="#111">
0.6
</text>
<line x1="42.0" y1="260.4859095091138" x2="50.0" y2="260.4859095091138" stroke="#000"/>
<text x="26.000000000000004" y="260.4859095091138" text-anchor="end" font-weight="bold" font-size="small" fill="#111">
0.8
</text>
<line x1="42.0" y1="201.10738688639233" x2="50.0" y2="201.10738688639233" stroke="#000"/>
<text x="26.000000000000004" y="201.10738688639233" text-anchor="end" font-weight="bold" font-size="small" fill="#111">
1.0
</text>
<line x1="42.0" y1="141.72886426367083" x2="50.0" y2="141.72886426367083" stroke="#000"/>
<text x="26.000000000000004" y="141.72886426367083" text-anchor="end" font-weight="bold" font-size="small" fill="#111">
1.2
</text>
<rect x="197.99999999999997" y="36.00000000000001" width="80.0" height="18.0" fill="#7070f8" stroke="#888"/>
<text x="238.0" y="52.50000000000001" font-size="small" text-anchor="middle" font-weight="bold" fill="#EEE">
No JIT
</text>
<rect x="479.99999999999994" y="36.00000000000001" width="80.0" height="18.0" fill="orange" stroke="#888"/>
<text x="519.9999999999999" y="52.50000000000001" font-size="small" text-anchor="middle" font-weight="bold" fill="#EEE">
MJIT3.0
</text>
<rect x="761.9999999999999" y="36.00000000000001" width="80.0" height="18.0" fill="green" stroke="#888"/>
<text x="801.9999999999999" y="52.50000000000001" font-size="small" text-anchor="middle" font-weight="bold" fill="#EEE">
YJIT
</text>
<rect x="97.0" y="201.10738688639233" width="42.3" height="296.8926131136076" fill="#7070f8" data-tooltip="1.00x baseline speed (No JIT)"/>
<line x1="97.0" y1="196.5105077937974" x2="139.3" y2="196.5105077937974" stroke="#000"/>
<line x1="97.0" y1="205.70426597898728" x2="139.3" y2="205.70426597898728" stroke="#000"/>
<line x1="118.15" y1="196.5105077937974" x2="118.15" y2="205.70426597898728" stroke="#000"/>
<rect x="139.3" y="213.03893611586585" width="42.3" height="284.9610638841341" fill="orange" data-tooltip="0.96x baseline speed (MJIT3.0)"/>
<line x1="139.3" y1="207.9661103128494" x2="181.60000000000002" y2="207.9661103128494" stroke="#000"/>
<line x1="139.3" y1="218.1117619188823" x2="181.60000000000002" y2="218.1117619188823" stroke="#000"/>
<line x1="160.45000000000002" y1="207.9661103128494" x2="160.45000000000002" y2="218.1117619188823" stroke="#000"/>
<rect x="181.6" y="100.19999999999999" width="42.3" height="397.79999999999995" fill="green" data-tooltip="1.34x baseline speed (YJIT)"/>
<line x1="181.6" y1="89.18943398541808" x2="223.89999999999998" y2="89.18943398541808" stroke="#000"/>
<line x1="181.6" y1="111.2105660145819" x2="223.89999999999998" y2="111.2105660145819" stroke="#000"/>
<line x1="202.75" y1="89.18943398541808" x2="202.75" y2="111.2105660145819" stroke="#000"/>
<line x1="181.6" y1="498.0" x2="181.6" y2="502.79999999999995" stroke="#000"/>
<text x="181.6" y="512.4" fill="#111" font-size="small" font-family="monospace" font-weight="bold" text-anchor="end" transform="rotate(-60, 181.6, 512.4)">
activerecord
</text>
<rect x="266.2" y="201.10738688639233" width="42.3" height="296.8926131136076" fill="#7070f8" data-tooltip="1.00x baseline speed (No JIT)"/>
<line x1="266.2" y1="195.94706645736733" x2="308.5" y2="195.94706645736733" stroke="#000"/>
<line x1="266.2" y1="206.26770731541734" x2="308.5" y2="206.26770731541734" stroke="#000"/>
<line x1="287.35" y1="195.94706645736733" x2="287.35" y2="206.26770731541734" stroke="#000"/>
<rect x="308.5" y="159.17090646673776" width="42.3" height="338.8290935332622" fill="orange" data-tooltip="1.14x baseline speed (MJIT3.0)"/>
<line x1="308.5" y1="146.38471476897683" x2="350.8" y2="146.38471476897683" stroke="#000"/>
<line x1="308.5" y1="171.95709816449866" x2="350.8" y2="171.95709816449866" stroke="#000"/>
<line x1="329.65" y1="146.38471476897683" x2="329.65" y2="171.95709816449866" stroke="#000"/>
<rect x="350.8" y="130.1826236151257" width="42.3" height="367.81737638487425" fill="green" data-tooltip="1.24x baseline speed (YJIT)"/>
<line x1="350.8" y1="119.18259123570704" x2="393.1" y2="119.18259123570704" stroke="#000"/>
<line x1="350.8" y1="141.18265599454438" x2="393.1" y2="141.18265599454438" stroke="#000"/>
<line x1="371.95" y1="119.18259123570704" x2="371.95" y2="141.18265599454438" stroke="#000"/>
<line x1="350.8" y1="498.0" x2="350.8" y2="502.79999999999995" stroke="#000"/>
<text x="350.8" y="512.4" fill="#111" font-size="small" font-family="monospace" font-weight="bold" text-anchor="end" transform="rotate(-60, 350.8, 512.4)">
liquid-render
</text>
<rect x="435.40000000000003" y="201.10738688639233" width="42.3" height="296.8926131136076" fill="#7070f8" data-tooltip="1.00x baseline speed (No JIT)"/>
<line x1="435.40000000000003" y1="197.5749234446113" x2="477.7" y2="197.5749234446113" stroke="#000"/>
<line x1="435.40000000000003" y1="204.63985032817337" x2="477.7" y2="204.63985032817337" stroke="#000"/>
<line x1="456.55" y1="197.5749234446113" x2="456.55" y2="204.63985032817337" stroke="#000"/>
<rect x="477.7" y="195.70749784405587" width="42.3" height="302.2925021559441" fill="orange" data-tooltip="1.02x baseline speed (MJIT3.0)"/>
<line x1="477.7" y1="190.33181239311065" x2="520.0" y2="190.33181239311065" stroke="#000"/>
<line x1="477.7" y1="201.08318329500108" x2="520.0" y2="201.08318329500108" stroke="#000"/>
<line x1="498.85" y1="190.33181239311065" x2="498.85" y2="201.08318329500108" stroke="#000"/>
<rect x="520.0" y="169.62067884373076" width="42.3" height="328.37932115626916" fill="green" data-tooltip="1.11x baseline speed (YJIT)"/>
<line x1="520.0" y1="163.47082682536137" x2="562.3000000000001" y2="163.47082682536137" stroke="#000"/>
<line x1="520.0" y1="175.77053086210017" x2="562.3000000000001" y2="175.77053086210017" stroke="#000"/>
<line x1="541.15" y1="163.47082682536137" x2="541.15" y2="175.77053086210017" stroke="#000"/>
<line x1="520.0" y1="498.0" x2="520.0" y2="502.79999999999995" stroke="#000"/>
<text x="520.0" y="512.4" fill="#111" font-size="small" font-family="monospace" font-weight="bold" text-anchor="end" transform="rotate(-60, 520.0, 512.4)">
mail
</text>
<rect x="604.5999999999999" y="201.10738688639233" width="42.3" height="296.8926131136076" fill="#7070f8" data-tooltip="1.00x baseline speed (No JIT)"/>
<line x1="604.5999999999999" y1="200.10923354896383" x2="646.8999999999999" y2="200.10923354896383" stroke="#000"/>
<line x1="604.5999999999999" y1="202.10554022382084" x2="646.8999999999999" y2="202.10554022382084" stroke="#000"/>
<line x1="625.7499999999999" y1="200.10923354896383" x2="625.7499999999999" y2="202.10554022382084" stroke="#000"/>
<rect x="646.8999999999999" y="152.60348322454522" width="42.3" height="345.39651677545476" fill="orange" data-tooltip="1.16x baseline speed (MJIT3.0)"/>
<line x1="646.8999999999999" y1="149.32434857429286" x2="689.1999999999999" y2="149.32434857429286" stroke="#000"/>
<line x1="646.8999999999999" y1="155.88261787479755" x2="689.1999999999999" y2="155.88261787479755" stroke="#000"/>
<line x1="668.05" y1="149.32434857429286" x2="668.05" y2="155.88261787479755" stroke="#000"/>
<rect x="689.1999999999999" y="134.29910407792815" width="42.3" height="363.70089592207177" fill="green" data-tooltip="1.23x baseline speed (YJIT)"/>
<line x1="689.1999999999999" y1="132.13355108406256" x2="731.4999999999999" y2="132.13355108406256" stroke="#000"/>
<line x1="689.1999999999999" y1="136.46465707179374" x2="731.4999999999999" y2="136.46465707179374" stroke="#000"/>
<line x1="710.3499999999999" y1="132.13355108406256" x2="710.3499999999999" y2="136.46465707179374" stroke="#000"/>
<line x1="689.1999999999999" y1="498.0" x2="689.1999999999999" y2="502.79999999999995" stroke="#000"/>
<text x="689.1999999999999" y="512.4" fill="#111" font-size="small" font-family="monospace" font-weight="bold" text-anchor="end" transform="rotate(-60, 689.1999999999999, 512.4)">
psych-load
</text>
<rect x="773.8" y="201.10738688639233" width="42.3" height="296.8926131136076" fill="#7070f8" data-tooltip="1.00x baseline speed (No JIT)"/>
<line x1="773.8" y1="197.88051746647307" x2="816.0999999999999" y2="197.88051746647307" stroke="#000"/>
<line x1="773.8" y1="204.3342563063116" x2="816.0999999999999" y2="204.3342563063116" stroke="#000"/>
<line x1="794.9499999999999" y1="197.88051746647307" x2="794.9499999999999" y2="204.3342563063116" stroke="#000"/>
<rect x="816.0999999999999" y="186.03611816059373" width="42.3" height="311.9638818394062" fill="orange" data-tooltip="1.05x baseline speed (MJIT3.0)"/>
<line x1="816.0999999999999" y1="180.9540022972636" x2="858.4" y2="180.9540022972636" stroke="#000"/>
<line x1="816.0999999999999" y1="191.1182340239239" x2="858.4" y2="191.1182340239239" stroke="#000"/>
<line x1="837.2499999999999" y1="180.9540022972636" x2="837.2499999999999" y2="191.1182340239239" stroke="#000"/>
<rect x="858.4" y="142.18998610617368" width="42.3" height="355.8100138938263" fill="green" data-tooltip="1.20x baseline speed (YJIT)"/>
<line x1="858.4" y1="134.69168341091944" x2="900.6999999999999" y2="134.69168341091944" stroke="#000"/>
<line x1="858.4" y1="149.68828880142794" x2="900.6999999999999" y2="149.68828880142794" stroke="#000"/>
<line x1="879.55" y1="134.69168341091944" x2="879.55" y2="149.68828880142794" stroke="#000"/>
<line x1="858.4" y1="498.0" x2="858.4" y2="502.79999999999995" stroke="#000"/>
<text x="858.4" y="512.4" fill="#111" font-size="small" font-family="monospace" font-weight="bold" text-anchor="end" transform="rotate(-60, 858.4, 512.4)">
railsbench
</text>
</svg>