<svg viewBox="0 0 1000 600" xmlns="http://www.w3.org/2000/svg" xmlns:xlink="http://www.w3.org/1999/xlink" width="100%" height="100%">

<rect x="50.0" y="30.0" width="940.0" height="467.99999999999994" stroke="#000" fill="#fff"/>
<line x1="42.0" y1="497.9999999999999" x2="50.0" y2="497.9999999999999" stroke="#000"/>
<text x="26.000000000000004" y="497.9999999999999" text-anchor="end" font-weight="bold" font-size="small" fill="#111">
0.0
</text>
<line x1="42.0" y1="428.1066405225147" x2="50.0" y2="428.1066405225147" stroke="#000"/>
<text x="26.000000000000004" y="428.1066405225147" text-anchor="end" font-weight="bold" font-size="small" fill="#111">
2.0
</text>
<line x1="42.0" y1="358.2132810450296" x2="50.0" y2="358.2132810450296" stroke="#000"/>
<text x="26.000000000000004" y="358.2132810450296" text-anchor="end" font-weight="bold" font-size="small" fill="#111">
4.0
</text>
<line x1="42.0" y1="288.3199215675444" x2="50.0" y2="288.3199215675444" stroke="#000"/>
<text x="26.000000000000004" y="288.3199215675444" text-anchor="end" font-weight="bold" font-size="small" fill="#111">
6.0
</text>
<line x1="42.0" y1="218.4265620900592" x2="50.0" y2="218.4265620900592" stroke="#000"/>
<text x="26.000000000000004" y="218.4265620900592" text-anchor="end" font-weight="bold" font-size="small" fill="#111">
8.0
</text>
<line x1="42.0" y1="148.53320261257403" x2="50.0" y2="148.53320261257403" stroke="#000"/>
<text x="26.000000000000004" y="148.53320261257403" text-anchor="end" font-weight="bold" font-size="small" fill="#111">
10.0
</text>
<line x1="178.0" y1="54.60000000000001" x2="298.0" y2="54.60000000000001" stroke="#648FFF" stroke-width="2"/>
<text x="238.0" y="49.500000000000014" font-size="small" text-anchor="middle" font-weight="bold" fill="#000">
CRuby 3.2.0dev
</text>
<rect x="459.9999999999999" y="35.400000000000006" width="120.0" height="19.2" fill="#785EF0" stroke="none"/>
<text x="519.9999999999999" y="49.500000000000014" font-size="small" text-anchor="middle" font-weight="bold" fill="#fff" style="text-shadow: 0 0 1px #000;">
MJIT
</text>
<rect x="742.0" y="35.400000000000006" width="120.0" height="19.2" fill="#FFB000" stroke="none"/>
<text x="801.9999999999999" y="49.500000000000014" font-size="small" text-anchor="middle" font-weight="bold" fill="#fff" style="text-shadow: 0 0 1px #000;">
YJIT 3.2.0dev
</text>
<rect x="80.3225806451613" y="459.4590079867024" width="30.32258064516129" height="38.54099201329758" fill="#785EF0" data-tooltip="1.10x baseline (MJIT)"/>
<rect x="110.64516129032258" y="301.8241322136579" width="30.32258064516129" height="196.17586778634202" fill="#FFB000" data-tooltip="5.61x baseline (YJIT 3.2.0dev)"/>
<line x1="110.64516129032258" y1="498.0" x2="110.64516129032258" y2="502.79999999999995" stroke="#000"/>
<text x="110.64516129032258" y="512.4" fill="#111" font-size="small" text-anchor="end" transform="rotate(-60, 110.64516129032258, 512.4)">
30k_ifelse
</text>
<rect x="171.29032258064512" y="410.0208624854469" width="30.32258064516129" height="87.97913751455299" fill="#785EF0" data-tooltip="2.52x baseline (MJIT)"/>
<rect x="201.61290322580643" y="297.6561726698915" width="30.32258064516129" height="200.34382733010847" fill="#FFB000" data-tooltip="5.73x baseline (YJIT 3.2.0dev)"/>
<line x1="201.61290322580643" y1="498.0" x2="201.61290322580643" y2="502.79999999999995" stroke="#000"/>
<text x="201.61290322580643" y="512.4" fill="#111" font-size="small" text-anchor="end" transform="rotate(-60, 201.61290322580643, 512.4)">
30k_methods
</text>
<rect x="262.258064516129" y="386.33287138208107" width="30.32258064516129" height="111.66712861791883" fill="#785EF0" data-tooltip="3.20x baseline (MJIT)"/>
<rect x="292.58064516129036" y="103.09325216768893" width="30.32258064516129" height="394.906747832311" fill="#FFB000" data-tooltip="11.30x baseline (YJIT 3.2.0dev)"/>
<line x1="292.58064516129036" y1="498.0" x2="292.58064516129036" y2="502.79999999999995" stroke="#000"/>
<text x="292.58064516129036" y="512.4" fill="#111" font-size="small" text-anchor="end" transform="rotate(-60, 292.58064516129036, 512.4)">
cfunc_itself
</text>
<rect x="353.2258064516129" y="459.5046868951801" width="30.32258064516129" height="38.495313104819864" fill="#785EF0" data-tooltip="1.10x baseline (MJIT)"/>
<rect x="383.54838709677426" y="100.19999999999999" width="30.32258064516129" height="397.79999999999995" fill="#FFB000" data-tooltip="11.38x baseline (YJIT 3.2.0dev)"/>
<line x1="383.54838709677426" y1="498.0" x2="383.54838709677426" y2="502.79999999999995" stroke="#000"/>
<text x="383.54838709677426" y="512.4" fill="#111" font-size="small" text-anchor="end" transform="rotate(-60, 383.54838709677426, 512.4)">
fib
</text>
<rect x="444.1935483870968" y="459.4114389870062" width="30.32258064516129" height="38.58856101299382" fill="#785EF0" data-tooltip="1.10x baseline (MJIT)"/>
<rect x="474.51612903225816" y="102.27269236907358" width="30.32258064516129" height="395.72730763092636" fill="#FFB000" data-tooltip="11.32x baseline (YJIT 3.2.0dev)"/>
<line x1="474.5161290322581" y1="498.0" x2="474.5161290322581" y2="502.79999999999995" stroke="#000"/>
<text x="474.5161290322581" y="512.4" fill="#111" font-size="small" text-anchor="end" transform="rotate(-60, 474.5161290322581, 512.4)">
getivar
</text>
<rect x="535.1612903225806" y="459.8192364086177" width="30.32258064516129" height="38.18076359138221" fill="#785EF0" data-tooltip="1.09x baseline (MJIT)"/>
<rect x="565.4838709677418" y="102.47283428681135" width="30.32258064516129" height="395.52716571318854" fill="#FFB000" data-tooltip="11.32x baseline (YJIT 3.2.0dev)"/>
<line x1="565.4838709677418" y1="498.0" x2="565.4838709677418" y2="502.79999999999995" stroke="#000"/>
<text x="565.4838709677418" y="512.4" fill="#111" font-size="small" text-anchor="end" transform="rotate(-60, 565.4838709677418, 512.4)">
keyword_args
</text>
<rect x="626.1290322580644" y="458.9792113246888" width="30.32258064516129" height="39.02078867531112" fill="#785EF0" data-tooltip="1.12x baseline (MJIT)"/>
<rect x="656.4516129032256" y="102.49294573263319" width="30.32258064516129" height="395.5070542673668" fill="#FFB000" data-tooltip="11.32x baseline (YJIT 3.2.0dev)"/>
<line x1="656.4516129032256" y1="498.0" x2="656.4516129032256" y2="502.79999999999995" stroke="#000"/>
<text x="656.4516129032256" y="512.4" fill="#111" font-size="small" text-anchor="end" transform="rotate(-60, 656.4516129032256, 512.4)">
respond_to
</text>
<rect x="717.0967741935481" y="459.20252169673506" width="30.32258064516129" height="38.797478303264874" fill="#785EF0" data-tooltip="1.11x baseline (MJIT)"/>
<rect x="747.4193548387094" y="106.03881916806489" width="30.32258064516129" height="391.96118083193505" fill="#FFB000" data-tooltip="11.22x baseline (YJIT 3.2.0dev)"/>
<line x1="747.4193548387094" y1="498.0" x2="747.4193548387094" y2="502.79999999999995" stroke="#000"/>
<text x="747.4193548387094" y="512.4" fill="#111" font-size="small" text-anchor="end" transform="rotate(-60, 747.4193548387094, 512.4)">
setivar
</text>
<rect x="808.0645161290319" y="460.40215551873007" width="30.32258064516129" height="37.597844481269895" fill="#785EF0" data-tooltip="1.08x baseline (MJIT)"/>
<rect x="838.3870967741931" y="387.7132502387171" width="30.32258064516129" height="110.28674976128285" fill="#FFB000" data-tooltip="3.16x baseline (YJIT 3.2.0dev)"/>
<line x1="838.3870967741931" y1="498.0" x2="838.3870967741931" y2="502.79999999999995" stroke="#000"/>
<text x="838.3870967741931" y="512.4" fill="#111" font-size="small" text-anchor="end" transform="rotate(-60, 838.3870967741931, 512.4)">
str_concat
</text>
<rect x="899.0322580645156" y="450.5369415969537" width="30.32258064516129" height="47.46305840304629" fill="#785EF0" data-tooltip="1.36x baseline (MJIT)"/>
<rect x="929.3548387096769" y="203.77818374606335" width="30.32258064516129" height="294.22181625393654" fill="#FFB000" data-tooltip="8.42x baseline (YJIT 3.2.0dev)"/>
<line x1="929.3548387096769" y1="498.0" x2="929.3548387096769" y2="502.79999999999995" stroke="#000"/>
<text x="929.3548387096769" y="512.4" fill="#111" font-size="small" text-anchor="end" transform="rotate(-60, 929.3548387096769, 512.4)" font-style="italic">
geomean*
</text>
<line x1="50.0" y1="463.05332026125734" x2="990.0" y2="463.05332026125734" stroke="#648FFF" stroke-width="2"/>
</svg>