<svg viewBox="0 0 1000 600" xmlns="http://www.w3.org/2000/svg" xmlns:xlink="http://www.w3.org/1999/xlink" width="100%" height="100%">

<rect x="50.0" y="30.0" width="940.0" height="467.99999999999994" stroke="#000" fill="#EEE"/>
<line x1="42.0" y1="497.9999999999999" x2="50.0" y2="497.9999999999999" stroke="#000"/>
<text x="26.000000000000004" y="497.9999999999999" text-anchor="end" font-weight="bold" font-size="small" fill="#111">
0.0
</text>
<line x1="42.0" y1="453.10430685425143" x2="50.0" y2="453.10430685425143" stroke="#000"/>
<text x="26.000000000000004" y="453.10430685425143" text-anchor="end" font-weight="bold" font-size="small" fill="#111">
2.0
</text>
<line x1="42.0" y1="408.2086137085029" x2="50.0" y2="408.2086137085029" stroke="#000"/>
<text x="26.000000000000004" y="408.2086137085029" text-anchor="end" font-weight="bold" font-size="small" fill="#111">
4.0
</text>
<line x1="42.0" y1="363.31292056275447" x2="50.0" y2="363.31292056275447" stroke="#000"/>
<text x="26.000000000000004" y="363.31292056275447" text-anchor="end" font-weight="bold" font-size="small" fill="#111">
6.0
</text>
<line x1="42.0" y1="318.4172274170059" x2="50.0" y2="318.4172274170059" stroke="#000"/>
<text x="26.000000000000004" y="318.4172274170059" text-anchor="end" font-weight="bold" font-size="small" fill="#111">
8.0
</text>
<line x1="42.0" y1="273.5215342712574" x2="50.0" y2="273.5215342712574" stroke="#000"/>
<text x="26.000000000000004" y="273.5215342712574" text-anchor="end" font-weight="bold" font-size="small" fill="#111">
10.0
</text>
<line x1="42.0" y1="228.62584112550888" x2="50.0" y2="228.62584112550888" stroke="#000"/>
<text x="26.000000000000004" y="228.62584112550888" text-anchor="end" font-weight="bold" font-size="small" fill="#111">
12.0
</text>
<line x1="42.0" y1="183.7301479797604" x2="50.0" y2="183.7301479797604" stroke="#000"/>
<text x="26.000000000000004" y="183.7301479797604" text-anchor="end" font-weight="bold" font-size="small" fill="#111">
14.0
</text>
<line x1="42.0" y1="138.8344548340119" x2="50.0" y2="138.8344548340119" stroke="#000"/>
<text x="26.000000000000004" y="138.8344548340119" text-anchor="end" font-weight="bold" font-size="small" fill="#111">
16.0
</text>
<rect x="268.5" y="36.00000000000001" width="80.0" height="18.0" fill="#7070f8" stroke="#888"/>
<text x="308.5" y="52.50000000000001" font-size="small" text-anchor="middle" font-weight="bold" fill="#EEE">
No JIT
</text>
<rect x="691.4999999999999" y="36.00000000000001" width="80.0" height="18.0" fill="orange" stroke="#888"/>
<text x="731.4999999999999" y="52.50000000000001" font-size="small" text-anchor="middle" font-weight="bold" fill="#EEE">
YJIT
</text>
<rect x="97.0" y="475.55215342712575" width="23.499999999999996" height="22.447846572874255" fill="#7070f8" data-tooltip="1.00x baseline speed (No JIT)"/>
<line x1="97.0" y1="475.54019472779004" x2="120.5" y2="475.54019472779004" stroke="#000"/>
<line x1="97.0" y1="475.56411212646145" x2="120.5" y2="475.56411212646145" stroke="#000"/>
<line x1="108.75" y1="475.54019472779004" x2="108.75" y2="475.56411212646145" stroke="#000"/>
<rect x="120.5" y="345.8937512266475" width="23.499999999999996" height="152.1062487733524" fill="orange" data-tooltip="6.78x baseline speed (YJIT)"/>
<line x1="120.5" y1="345.7582258986406" x2="144.0" y2="345.7582258986406" stroke="#000"/>
<line x1="120.5" y1="346.0292765546544" x2="144.0" y2="346.0292765546544" stroke="#000"/>
<line x1="132.25" y1="345.7582258986406" x2="132.25" y2="346.0292765546544" stroke="#000"/>
<line x1="132.25" y1="498.0" x2="132.25" y2="502.79999999999995" stroke="#000"/>
<text x="132.25" y="512.4" fill="#111" font-size="small" font-family="monospace" font-weight="bold" text-anchor="end" transform="rotate(-60, 132.25, 512.4)">
30k_ifelse
</text>
<rect x="167.49999999999997" y="475.55215342712575" width="23.499999999999996" height="22.447846572874255" fill="#7070f8" data-tooltip="1.00x baseline speed (No JIT)"/>
<line x1="167.49999999999997" y1="475.54747692714295" x2="190.99999999999997" y2="475.54747692714295" stroke="#000"/>
<line x1="167.49999999999997" y1="475.55682992710854" x2="190.99999999999997" y2="475.55682992710854" stroke="#000"/>
<line x1="179.25" y1="475.54747692714295" x2="179.25" y2="475.55682992710854" stroke="#000"/>
<rect x="190.99999999999997" y="318.8062465048858" width="23.499999999999996" height="179.19375349511415" fill="orange" data-tooltip="7.98x baseline speed (YJIT)"/>
<line x1="190.99999999999997" y1="318.75834641908654" x2="214.49999999999997" y2="318.75834641908654" stroke="#000"/>
<line x1="190.99999999999997" y1="318.85414659068505" x2="214.49999999999997" y2="318.85414659068505" stroke="#000"/>
<line x1="202.75" y1="318.75834641908654" x2="202.75" y2="318.85414659068505" stroke="#000"/>
<line x1="202.75" y1="498.0" x2="202.75" y2="502.79999999999995" stroke="#000"/>
<text x="202.75" y="512.4" fill="#111" font-size="small" font-family="monospace" font-weight="bold" text-anchor="end" transform="rotate(-60, 202.75, 512.4)">
30k_methods
</text>
<rect x="238.0" y="475.55215342712575" width="23.499999999999996" height="22.447846572874255" fill="#7070f8" data-tooltip="1.00x baseline speed (No JIT)"/>
<line x1="238.0" y1="475.5294151884888" x2="261.5" y2="475.5294151884888" stroke="#000"/>
<line x1="238.0" y1="475.5748916657626" x2="261.5" y2="475.5748916657626" stroke="#000"/>
<line x1="249.75" y1="475.5294151884888" x2="249.75" y2="475.5748916657626" stroke="#000"/>
<rect x="261.5" y="401.2952955256754" width="23.499999999999996" height="96.70470447432454" fill="orange" data-tooltip="4.31x baseline speed (YJIT)"/>
<line x1="261.5" y1="401.15072780546376" x2="285.00000000000006" y2="401.15072780546376" stroke="#000"/>
<line x1="261.5" y1="401.43986324588707" x2="285.00000000000006" y2="401.43986324588707" stroke="#000"/>
<line x1="273.25" y1="401.15072780546376" x2="273.25" y2="401.43986324588707" stroke="#000"/>
<line x1="273.25" y1="498.0" x2="273.25" y2="502.79999999999995" stroke="#000"/>
<text x="273.25" y="512.4" fill="#111" font-size="small" font-family="monospace" font-weight="bold" text-anchor="end" transform="rotate(-60, 273.25, 512.4)">
cfunc_itself
</text>
<rect x="308.5" y="475.55215342712575" width="23.499999999999996" height="22.447846572874255" fill="#7070f8" data-tooltip="1.00x baseline speed (No JIT)"/>
<line x1="308.5" y1="475.5402186855666" x2="332.0" y2="475.5402186855666" stroke="#000"/>
<line x1="308.5" y1="475.5640881686849" x2="332.0" y2="475.5640881686849" stroke="#000"/>
<line x1="320.25" y1="475.5402186855666" x2="320.25" y2="475.5640881686849" stroke="#000"/>
<rect x="332.0" y="375.1449139647579" width="23.499999999999996" height="122.85508603524201" fill="orange" data-tooltip="5.47x baseline speed (YJIT)"/>
<line x1="332.0" y1="374.87173057586307" x2="355.50000000000006" y2="374.87173057586307" stroke="#000"/>
<line x1="332.0" y1="375.4180973536527" x2="355.50000000000006" y2="375.4180973536527" stroke="#000"/>
<line x1="343.75" y1="374.87173057586307" x2="343.75" y2="375.4180973536527" stroke="#000"/>
<line x1="343.75" y1="498.0" x2="343.75" y2="502.79999999999995" stroke="#000"/>
<text x="343.75" y="512.4" fill="#111" font-size="small" font-family="monospace" font-weight="bold" text-anchor="end" transform="rotate(-60, 343.75, 512.4)">
fib
</text>
<rect x="379.0" y="475.55215342712575" width="23.499999999999996" height="22.447846572874255" fill="#7070f8" data-tooltip="1.00x baseline speed (No JIT)"/>
<line x1="379.0" y1="475.5447423792879" x2="402.5" y2="475.5447423792879" stroke="#000"/>
<line x1="379.0" y1="475.55956447496357" x2="402.5" y2="475.55956447496357" stroke="#000"/>
<line x1="390.75" y1="475.5447423792879" x2="390.75" y2="475.55956447496357" stroke="#000"/>
<rect x="402.5" y="355.930979878192" width="23.499999999999996" height="142.069020121808" fill="orange" data-tooltip="6.33x baseline speed (YJIT)"/>
<line x1="402.5" y1="354.56592136330016" x2="426.00000000000006" y2="354.56592136330016" stroke="#000"/>
<line x1="402.5" y1="357.2960383930838" x2="426.00000000000006" y2="357.2960383930838" stroke="#000"/>
<line x1="414.25" y1="354.56592136330016" x2="414.25" y2="357.2960383930838" stroke="#000"/>
<line x1="414.25" y1="498.0" x2="414.25" y2="502.79999999999995" stroke="#000"/>
<text x="414.25" y="512.4" fill="#111" font-size="small" font-family="monospace" font-weight="bold" text-anchor="end" transform="rotate(-60, 414.25, 512.4)">
getivar
</text>
<rect x="449.5" y="475.55215342712575" width="23.499999999999996" height="22.447846572874255" fill="#7070f8" data-tooltip="1.00x baseline speed (No JIT)"/>
<line x1="449.5" y1="475.5326102187066" x2="473.00000000000006" y2="475.5326102187066" stroke="#000"/>
<line x1="449.5" y1="475.5716966355448" x2="473.00000000000006" y2="475.5716966355448" stroke="#000"/>
<line x1="461.25" y1="475.5326102187066" x2="461.25" y2="475.5716966355448" stroke="#000"/>
<rect x="473.00000000000006" y="334.6845545453104" width="23.499999999999996" height="163.31544545468958" fill="orange" data-tooltip="7.28x baseline speed (YJIT)"/>
<line x1="473.00000000000006" y1="334.3398662271776" x2="496.50000000000006" y2="334.3398662271776" stroke="#000"/>
<line x1="473.00000000000006" y1="335.02924286344324" x2="496.50000000000006" y2="335.02924286344324" stroke="#000"/>
<line x1="484.75" y1="334.3398662271776" x2="484.75" y2="335.02924286344324" stroke="#000"/>
<line x1="484.75" y1="498.0" x2="484.75" y2="502.79999999999995" stroke="#000"/>
<text x="484.75" y="512.4" fill="#111" font-size="small" font-family="monospace" font-weight="bold" text-anchor="end" transform="rotate(-60, 484.75, 512.4)">
keyword_args
</text>
<rect x="519.9999999999999" y="475.55215342712575" width="23.499999999999996" height="22.447846572874255" fill="#7070f8" data-tooltip="1.00x baseline speed (No JIT)"/>
<line x1="519.9999999999999" y1="475.426490818567" x2="543.4999999999999" y2="475.426490818567" stroke="#000"/>
<line x1="519.9999999999999" y1="475.67781603568443" x2="543.4999999999999" y2="475.67781603568443" stroke="#000"/>
<line x1="531.75" y1="475.426490818567" x2="531.75" y2="475.67781603568443" stroke="#000"/>
<rect x="543.4999999999999" y="100.19999999999999" width="23.499999999999996" height="397.79999999999995" fill="orange" data-tooltip="17.72x baseline speed (YJIT)"/>
<line x1="543.4999999999999" y1="97.14125082894138" x2="566.9999999999999" y2="97.14125082894138" stroke="#000"/>
<line x1="543.4999999999999" y1="103.2587491710586" x2="566.9999999999999" y2="103.2587491710586" stroke="#000"/>
<line x1="555.2499999999999" y1="97.14125082894138" x2="555.2499999999999" y2="103.2587491710586" stroke="#000"/>
<line x1="555.2499999999999" y1="498.0" x2="555.2499999999999" y2="502.79999999999995" stroke="#000"/>
<text x="555.2499999999999" y="512.4" fill="#111" font-size="small" font-family="monospace" font-weight="bold" text-anchor="end" transform="rotate(-60, 555.2499999999999, 512.4)">
respond_to
</text>
<rect x="590.4999999999999" y="475.55215342712575" width="23.499999999999996" height="22.447846572874255" fill="#7070f8" data-tooltip="1.00x baseline speed (No JIT)"/>
<line x1="590.4999999999999" y1="475.5266616184833" x2="613.9999999999999" y2="475.5266616184833" stroke="#000"/>
<line x1="590.4999999999999" y1="475.57764523576816" x2="613.9999999999999" y2="475.57764523576816" stroke="#000"/>
<line x1="602.25" y1="475.5266616184833" x2="602.25" y2="475.57764523576816" stroke="#000"/>
<rect x="613.9999999999999" y="354.70135824410596" width="23.499999999999996" height="143.298641755894" fill="orange" data-tooltip="6.38x baseline speed (YJIT)"/>
<line x1="613.9999999999999" y1="354.5184893233376" x2="637.4999999999999" y2="354.5184893233376" stroke="#000"/>
<line x1="613.9999999999999" y1="354.88422716487435" x2="637.4999999999999" y2="354.88422716487435" stroke="#000"/>
<line x1="625.7499999999999" y1="354.5184893233376" x2="625.7499999999999" y2="354.88422716487435" stroke="#000"/>
<line x1="625.7499999999999" y1="498.0" x2="625.7499999999999" y2="502.79999999999995" stroke="#000"/>
<text x="625.7499999999999" y="512.4" fill="#111" font-size="small" font-family="monospace" font-weight="bold" text-anchor="end" transform="rotate(-60, 625.7499999999999, 512.4)">
setivar
</text>
<rect x="660.9999999999999" y="475.55215342712575" width="23.499999999999996" height="22.447846572874255" fill="#7070f8" data-tooltip="1.00x baseline speed (No JIT)"/>
<line x1="660.9999999999999" y1="475.45318008326353" x2="684.4999999999999" y2="475.45318008326353" stroke="#000"/>
<line x1="660.9999999999999" y1="475.65112677098796" x2="684.4999999999999" y2="475.65112677098796" stroke="#000"/>
<line x1="672.75" y1="475.45318008326353" x2="672.75" y2="475.65112677098796" stroke="#000"/>
<rect x="684.4999999999999" y="431.68300317690546" width="23.499999999999996" height="66.3169968230945" fill="orange" data-tooltip="2.95x baseline speed (YJIT)"/>
<line x1="684.4999999999999" y1="431.38444514047717" x2="707.9999999999999" y2="431.38444514047717" stroke="#000"/>
<line x1="684.4999999999999" y1="431.98156121333375" x2="707.9999999999999" y2="431.98156121333375" stroke="#000"/>
<line x1="696.2499999999999" y1="431.38444514047717" x2="696.2499999999999" y2="431.98156121333375" stroke="#000"/>
<line x1="696.2499999999999" y1="498.0" x2="696.2499999999999" y2="502.79999999999995" stroke="#000"/>
<text x="696.2499999999999" y="512.4" fill="#111" font-size="small" font-family="monospace" font-weight="bold" text-anchor="end" transform="rotate(-60, 696.2499999999999, 512.4)">
setivar_object
</text>
<rect x="731.4999999999999" y="475.55215342712575" width="23.499999999999996" height="22.447846572874255" fill="#7070f8" data-tooltip="1.00x baseline speed (No JIT)"/>
<line x1="731.4999999999999" y1="475.3508235442482" x2="754.9999999999999" y2="475.3508235442482" stroke="#000"/>
<line x1="731.4999999999999" y1="475.7534833100033" x2="754.9999999999999" y2="475.7534833100033" stroke="#000"/>
<line x1="743.25" y1="475.3508235442482" x2="743.25" y2="475.7534833100033" stroke="#000"/>
<rect x="754.9999999999999" y="432.2500538089958" width="23.499999999999996" height="65.74994619100411" fill="orange" data-tooltip="2.93x baseline speed (YJIT)"/>
<line x1="754.9999999999999" y1="431.22072727243017" x2="778.4999999999999" y2="431.22072727243017" stroke="#000"/>
<line x1="754.9999999999999" y1="433.2793803455615" x2="778.4999999999999" y2="433.2793803455615" stroke="#000"/>
<line x1="766.7499999999999" y1="431.22072727243017" x2="766.7499999999999" y2="433.2793803455615" stroke="#000"/>
<line x1="766.7499999999999" y1="498.0" x2="766.7499999999999" y2="502.79999999999995" stroke="#000"/>
<text x="766.7499999999999" y="512.4" fill="#111" font-size="small" font-family="monospace" font-weight="bold" text-anchor="end" transform="rotate(-60, 766.7499999999999, 512.4)">
setivar_young
</text>
<rect x="801.9999999999999" y="475.55215342712575" width="23.499999999999996" height="22.447846572874255" fill="#7070f8" data-tooltip="1.00x baseline speed (No JIT)"/>
<line x1="801.9999999999999" y1="475.371904917791" x2="825.4999999999999" y2="475.371904917791" stroke="#000"/>
<line x1="801.9999999999999" y1="475.7324019364604" x2="825.4999999999999" y2="475.7324019364604" stroke="#000"/>
<line x1="813.75" y1="475.371904917791" x2="813.75" y2="475.7324019364604" stroke="#000"/>
<rect x="825.4999999999999" y="455.17390219950437" width="23.499999999999996" height="42.82609780049555" fill="orange" data-tooltip="1.91x baseline speed (YJIT)"/>
<line x1="825.4999999999999" y1="454.4026736135866" x2="848.9999999999999" y2="454.4026736135866" stroke="#000"/>
<line x1="825.4999999999999" y1="455.94513078542207" x2="848.9999999999999" y2="455.94513078542207" stroke="#000"/>
<line x1="837.2499999999999" y1="454.4026736135866" x2="837.2499999999999" y2="455.94513078542207" stroke="#000"/>
<line x1="837.2499999999999" y1="498.0" x2="837.2499999999999" y2="502.79999999999995" stroke="#000"/>
<text x="837.2499999999999" y="512.4" fill="#111" font-size="small" font-family="monospace" font-weight="bold" text-anchor="end" transform="rotate(-60, 837.2499999999999, 512.4)">
str_concat
</text>
<rect x="872.4999999999999" y="475.55215342712575" width="23.499999999999996" height="22.447846572874255" fill="#7070f8" data-tooltip="1.00x baseline speed (No JIT)"/>
<line x1="872.4999999999999" y1="475.49615851996657" x2="895.9999999999999" y2="475.49615851996657" stroke="#000"/>
<line x1="872.4999999999999" y1="475.60814833428486" x2="895.9999999999999" y2="475.60814833428486" stroke="#000"/>
<line x1="884.25" y1="475.49615851996657" x2="884.25" y2="475.60814833428486" stroke="#000"/>
<rect x="895.9999999999999" y="469.49787900708884" width="23.499999999999996" height="28.502120992911053" fill="orange" data-tooltip="1.27x baseline speed (YJIT)"/>
<line x1="895.9999999999999" y1="469.37650487121863" x2="919.4999999999999" y2="469.37650487121863" stroke="#000"/>
<line x1="895.9999999999999" y1="469.61925314295905" x2="919.4999999999999" y2="469.61925314295905" stroke="#000"/>
<line x1="907.75" y1="469.37650487121863" x2="907.75" y2="469.61925314295905" stroke="#000"/>
<line x1="907.75" y1="498.0" x2="907.75" y2="502.79999999999995" stroke="#000"/>
<text x="907.75" y="512.4" fill="#111" font-size="small" font-family="monospace" font-weight="bold" text-anchor="end" transform="rotate(-60, 907.75, 512.4)">
throw
</text>
</svg>