<svg viewBox="0 0 1000 600" xmlns="http://www.w3.org/2000/svg" xmlns:xlink="http://www.w3.org/1999/xlink" width="100%" height="100%">

<rect x="50.0" y="30.0" width="940.0" height="467.99999999999994" stroke="#000" fill="#fff"/>
<line x1="42.0" y1="497.9999999999999" x2="50.0" y2="497.9999999999999" stroke="#000"/>
<text x="26.000000000000004" y="497.9999999999999" text-anchor="end" font-weight="bold" font-size="small" fill="#111">
0.0
</text>
<line x1="42.0" y1="455.048215320911" x2="50.0" y2="455.048215320911" stroke="#000"/>
<text x="26.000000000000004" y="455.048215320911" text-anchor="end" font-weight="bold" font-size="small" fill="#111">
0.2
</text>
<line x1="42.0" y1="412.09643064182194" x2="50.0" y2="412.09643064182194" stroke="#000"/>
<text x="26.000000000000004" y="412.09643064182194" text-anchor="end" font-weight="bold" font-size="small" fill="#111">
0.4
</text>
<line x1="42.0" y1="369.1446459627329" x2="50.0" y2="369.1446459627329" stroke="#000"/>
<text x="26.000000000000004" y="369.1446459627329" text-anchor="end" font-weight="bold" font-size="small" fill="#111">
0.6
</text>
<line x1="42.0" y1="326.1928612836439" x2="50.0" y2="326.1928612836439" stroke="#000"/>
<text x="26.000000000000004" y="326.1928612836439" text-anchor="end" font-weight="bold" font-size="small" fill="#111">
0.8
</text>
<line x1="42.0" y1="283.24107660455485" x2="50.0" y2="283.24107660455485" stroke="#000"/>
<text x="26.000000000000004" y="283.24107660455485" text-anchor="end" font-weight="bold" font-size="small" fill="#111">
1.0
</text>
<line x1="42.0" y1="240.28929192546585" x2="50.0" y2="240.28929192546585" stroke="#000"/>
<text x="26.000000000000004" y="240.28929192546585" text-anchor="end" font-weight="bold" font-size="small" fill="#111">
1.2
</text>
<line x1="42.0" y1="197.33750724637684" x2="50.0" y2="197.33750724637684" stroke="#000"/>
<text x="26.000000000000004" y="197.33750724637684" text-anchor="end" font-weight="bold" font-size="small" fill="#111">
1.4
</text>
<line x1="42.0" y1="154.38572256728781" x2="50.0" y2="154.38572256728781" stroke="#000"/>
<text x="26.000000000000004" y="154.38572256728781" text-anchor="end" font-weight="bold" font-size="small" fill="#111">
1.6
</text>
<line x1="42.0" y1="111.43393788819881" x2="50.0" y2="111.43393788819881" stroke="#000"/>
<text x="26.000000000000004" y="111.43393788819881" text-anchor="end" font-weight="bold" font-size="small" fill="#111">
1.8
</text>
<line x1="248.5" y1="54.60000000000001" x2="368.5" y2="54.60000000000001" stroke="#648FFF" stroke-width="2"/>
<text x="308.5" y="49.500000000000014" font-size="small" text-anchor="middle" font-weight="bold" fill="#000">
CRuby 3.4.0dev
</text>
<rect x="671.5" y="35.400000000000006" width="120.0" height="19.2" fill="#785EF0" stroke="none"/>
<text x="731.4999999999999" y="49.500000000000014" font-size="small" text-anchor="middle" font-weight="bold" fill="#fff" style="text-shadow: 0 0 1px #000;">
YJIT 3.4.0dev
</text>
<rect x="59.89473684210527" y="261.77915686900485" width="9.894736842105264" height="236.22084313099512" fill="#785EF0" data-tooltip="1.10x baseline (YJIT 3.4.0dev)"/>
<line x1="64.84210526315789" y1="498.0" x2="64.84210526315789" y2="502.79999999999995" stroke="#000"/>
<text x="64.84210526315789" y="512.4" fill="#111" font-size="small" text-anchor="end" transform="rotate(-60, 64.84210526315789, 512.4)">
activerecord
</text>
<rect x="79.6842105263158" y="301.97732525001294" width="9.894736842105264" height="196.02267474998703" fill="#785EF0" data-tooltip="0.91x baseline (YJIT 3.4.0dev)"/>
<line x1="84.63157894736842" y1="498.0" x2="84.63157894736842" y2="502.79999999999995" stroke="#000"/>
<text x="84.63157894736842" y="512.4" fill="#111" font-size="small" text-anchor="end" transform="rotate(-60, 84.63157894736842, 512.4)">
chunky-png
</text>
<rect x="99.47368421052632" y="276.1219962710042" width="9.894736842105264" height="221.87800372899574" fill="#785EF0" data-tooltip="1.03x baseline (YJIT 3.4.0dev)"/>
<line x1="104.42105263157895" y1="498.0" x2="104.42105263157895" y2="502.79999999999995" stroke="#000"/>
<text x="104.42105263157895" y="512.4" fill="#111" font-size="small" text-anchor="end" transform="rotate(-60, 104.42105263157895, 512.4)">
erubi-rails
</text>
<rect x="119.26315789473684" y="100.19999999999999" width="9.894736842105264" height="397.79999999999995" fill="#785EF0" data-tooltip="1.85x baseline (YJIT 3.4.0dev)"/>
<line x1="124.21052631578948" y1="498.0" x2="124.21052631578948" y2="502.79999999999995" stroke="#000"/>
<text x="124.21052631578948" y="512.4" fill="#111" font-size="small" text-anchor="end" transform="rotate(-60, 124.21052631578948, 512.4)">
hexapdf
</text>
<rect x="139.05263157894737" y="260.24751796941035" width="9.894736842105264" height="237.7524820305896" fill="#785EF0" data-tooltip="1.11x baseline (YJIT 3.4.0dev)"/>
<line x1="144.00000000000003" y1="498.0" x2="144.00000000000003" y2="502.79999999999995" stroke="#000"/>
<text x="144.00000000000003" y="512.4" fill="#111" font-size="small" text-anchor="end" transform="rotate(-60, 144.00000000000003, 512.4)">
liquid-c
</text>
<rect x="158.8421052631579" y="261.9101754136581" width="9.894736842105264" height="236.08982458634182" fill="#785EF0" data-tooltip="1.10x baseline (YJIT 3.4.0dev)"/>
<line x1="163.78947368421055" y1="498.0" x2="163.78947368421055" y2="502.79999999999995" stroke="#000"/>
<text x="163.78947368421055" y="512.4" fill="#111" font-size="small" text-anchor="end" transform="rotate(-60, 163.78947368421055, 512.4)">
liquid-compile
</text>
<rect x="178.6315789473684" y="256.3014318006402" width="9.894736842105264" height="241.69856819935976" fill="#785EF0" data-tooltip="1.13x baseline (YJIT 3.4.0dev)"/>
<line x1="183.57894736842107" y1="498.0" x2="183.57894736842107" y2="502.79999999999995" stroke="#000"/>
<text x="183.57894736842107" y="512.4" fill="#111" font-size="small" text-anchor="end" transform="rotate(-60, 183.57894736842107, 512.4)">
liquid-render
</text>
<rect x="198.42105263157893" y="237.92343552189007" width="9.894736842105264" height="260.07656447810984" fill="#785EF0" data-tooltip="1.21x baseline (YJIT 3.4.0dev)"/>
<line x1="203.3684210526316" y1="498.0" x2="203.3684210526316" y2="502.79999999999995" stroke="#000"/>
<text x="203.3684210526316" y="512.4" fill="#111" font-size="small" text-anchor="end" transform="rotate(-60, 203.3684210526316, 512.4)">
lobsters
</text>
<rect x="218.21052631578948" y="270.4773033472785" width="9.894736842105264" height="227.5226966527214" fill="#785EF0" data-tooltip="1.06x baseline (YJIT 3.4.0dev)"/>
<line x1="223.1578947368421" y1="498.0" x2="223.1578947368421" y2="502.79999999999995" stroke="#000"/>
<text x="223.1578947368421" y="512.4" fill="#111" font-size="small" text-anchor="end" transform="rotate(-60, 223.1578947368421, 512.4)">
mail
</text>
<rect x="238.0" y="282.93876301450166" width="9.894736842105264" height="215.06123698549825" fill="#785EF0" data-tooltip="1.00x baseline (YJIT 3.4.0dev)"/>
<line x1="242.94736842105263" y1="498.0" x2="242.94736842105263" y2="502.79999999999995" stroke="#000"/>
<text x="242.94736842105263" y="512.4" fill="#111" font-size="small" text-anchor="end" transform="rotate(-60, 242.94736842105263, 512.4)">
psych-load
</text>
<rect x="257.7894736842105" y="268.19968576852006" width="9.894736842105264" height="229.80031423147992" fill="#785EF0" data-tooltip="1.07x baseline (YJIT 3.4.0dev)"/>
<line x1="262.7368421052632" y1="498.0" x2="262.7368421052632" y2="502.79999999999995" stroke="#000"/>
<text x="262.7368421052632" y="512.4" fill="#111" font-size="small" text-anchor="end" transform="rotate(-60, 262.7368421052632, 512.4)">
railsbench
</text>
<rect x="277.5789473684211" y="212.19328623054213" width="9.894736842105264" height="285.8067137694578" fill="#785EF0" data-tooltip="1.33x baseline (YJIT 3.4.0dev)"/>
<line x1="282.52631578947376" y1="498.0" x2="282.52631578947376" y2="502.79999999999995" stroke="#000"/>
<text x="282.52631578947376" y="512.4" fill="#111" font-size="small" text-anchor="end" transform="rotate(-60, 282.52631578947376, 512.4)">
rubocop
</text>
<rect x="297.3684210526317" y="270.86784355218816" width="9.894736842105264" height="227.13215644781178" fill="#785EF0" data-tooltip="1.06x baseline (YJIT 3.4.0dev)"/>
<line x1="302.31578947368433" y1="498.0" x2="302.31578947368433" y2="502.79999999999995" stroke="#000"/>
<text x="302.31578947368433" y="512.4" fill="#111" font-size="small" text-anchor="end" transform="rotate(-60, 302.31578947368433, 512.4)">
ruby-lsp
</text>
<rect x="317.15789473684225" y="267.9642554259283" width="9.894736842105264" height="230.03574457407166" fill="#785EF0" data-tooltip="1.07x baseline (YJIT 3.4.0dev)"/>
<line x1="322.1052631578949" y1="498.0" x2="322.1052631578949" y2="502.79999999999995" stroke="#000"/>
<text x="322.1052631578949" y="512.4" fill="#111" font-size="small" text-anchor="end" transform="rotate(-60, 322.1052631578949, 512.4)">
sequel
</text>
<rect x="336.94736842105283" y="280.9196887254403" width="9.894736842105264" height="217.0803112745596" fill="#785EF0" data-tooltip="1.01x baseline (YJIT 3.4.0dev)"/>
<line x1="341.8947368421055" y1="498.0" x2="341.8947368421055" y2="502.79999999999995" stroke="#000"/>
<text x="341.8947368421055" y="512.4" fill="#111" font-size="small" text-anchor="end" transform="rotate(-60, 341.8947368421055, 512.4)">
binarytrees
</text>
<rect x="356.7368421052634" y="279.26338371583716" width="9.894736842105264" height="218.73661628416278" fill="#785EF0" data-tooltip="1.02x baseline (YJIT 3.4.0dev)"/>
<line x1="361.68421052631606" y1="498.0" x2="361.68421052631606" y2="502.79999999999995" stroke="#000"/>
<text x="361.68421052631606" y="512.4" fill="#111" font-size="small" text-anchor="end" transform="rotate(-60, 361.68421052631606, 512.4)">
blurhash
</text>
<rect x="376.526315789474" y="271.7127739908145" width="9.894736842105264" height="226.28722600918542" fill="#785EF0" data-tooltip="1.05x baseline (YJIT 3.4.0dev)"/>
<line x1="381.47368421052664" y1="498.0" x2="381.47368421052664" y2="502.79999999999995" stroke="#000"/>
<text x="381.47368421052664" y="512.4" fill="#111" font-size="small" text-anchor="end" transform="rotate(-60, 381.47368421052664, 512.4)">
erubi
</text>
<rect x="396.31578947368456" y="280.67967060990657" width="9.894736842105264" height="217.32032939009338" fill="#785EF0" data-tooltip="1.01x baseline (YJIT 3.4.0dev)"/>
<line x1="401.2631578947372" y1="498.0" x2="401.2631578947372" y2="502.79999999999995" stroke="#000"/>
<text x="401.2631578947372" y="512.4" fill="#111" font-size="small" text-anchor="end" transform="rotate(-60, 401.2631578947372, 512.4)">
etanni
</text>
<rect x="416.10526315789514" y="279.2364312322814" width="9.894736842105264" height="218.76356876771854" fill="#785EF0" data-tooltip="1.02x baseline (YJIT 3.4.0dev)"/>
<line x1="421.0526315789478" y1="498.0" x2="421.0526315789478" y2="502.79999999999995" stroke="#000"/>
<text x="421.0526315789478" y="512.4" fill="#111" font-size="small" text-anchor="end" transform="rotate(-60, 421.0526315789478, 512.4)">
fannkuchredux
</text>
<rect x="435.8947368421057" y="265.13879187390427" width="9.894736842105264" height="232.86120812609568" fill="#785EF0" data-tooltip="1.08x baseline (YJIT 3.4.0dev)"/>
<line x1="440.8421052631584" y1="498.0" x2="440.8421052631584" y2="502.79999999999995" stroke="#000"/>
<text x="440.8421052631584" y="512.4" fill="#111" font-size="small" text-anchor="end" transform="rotate(-60, 440.8421052631584, 512.4)">
fluentd
</text>
<rect x="455.6842105263163" y="268.4656956925592" width="9.894736842105264" height="229.53430430744075" fill="#785EF0" data-tooltip="1.07x baseline (YJIT 3.4.0dev)"/>
<line x1="460.63157894736895" y1="498.0" x2="460.63157894736895" y2="502.79999999999995" stroke="#000"/>
<text x="460.63157894736895" y="512.4" fill="#111" font-size="small" text-anchor="end" transform="rotate(-60, 460.63157894736895, 512.4)">
graphql
</text>
<rect x="475.47368421052687" y="269.640476024744" width="9.894736842105264" height="228.35952397525594" fill="#785EF0" data-tooltip="1.06x baseline (YJIT 3.4.0dev)"/>
<line x1="480.4210526315795" y1="498.0" x2="480.4210526315795" y2="502.79999999999995" stroke="#000"/>
<text x="480.4210526315795" y="512.4" fill="#111" font-size="small" text-anchor="end" transform="rotate(-60, 480.4210526315795, 512.4)">
graphql-native
</text>
<rect x="495.26315789473745" y="275.3156334694246" width="9.894736842105264" height="222.68436653057537" fill="#785EF0" data-tooltip="1.04x baseline (YJIT 3.4.0dev)"/>
<line x1="500.2105263157901" y1="498.0" x2="500.2105263157901" y2="502.79999999999995" stroke="#000"/>
<text x="500.2105263157901" y="512.4" fill="#111" font-size="small" text-anchor="end" transform="rotate(-60, 500.2105263157901, 512.4)">
lee
</text>
<rect x="515.052631578948" y="281.0059447045155" width="9.894736842105264" height="216.99405529548443" fill="#785EF0" data-tooltip="1.01x baseline (YJIT 3.4.0dev)"/>
<line x1="520.0000000000007" y1="498.0" x2="520.0000000000007" y2="502.79999999999995" stroke="#000"/>
<text x="520.0000000000007" y="512.4" fill="#111" font-size="small" text-anchor="end" transform="rotate(-60, 520.0000000000007, 512.4)">
matmul
</text>
<rect x="534.8421052631586" y="279.74618829184783" width="9.894736842105264" height="218.2538117081521" fill="#785EF0" data-tooltip="1.02x baseline (YJIT 3.4.0dev)"/>
<line x1="539.7894736842113" y1="498.0" x2="539.7894736842113" y2="502.79999999999995" stroke="#000"/>
<text x="539.7894736842113" y="512.4" fill="#111" font-size="small" text-anchor="end" transform="rotate(-60, 539.7894736842113, 512.4)">
nbody
</text>
<rect x="554.6315789473691" y="279.4060958296362" width="9.894736842105264" height="218.59390417036377" fill="#785EF0" data-tooltip="1.02x baseline (YJIT 3.4.0dev)"/>
<line x1="559.5789473684218" y1="498.0" x2="559.5789473684218" y2="502.79999999999995" stroke="#000"/>
<text x="559.5789473684218" y="512.4" fill="#111" font-size="small" text-anchor="end" transform="rotate(-60, 559.5789473684218, 512.4)">
nqueens
</text>
<rect x="574.4210526315798" y="264.3473296782694" width="9.894736842105264" height="233.65267032173057" fill="#785EF0" data-tooltip="1.09x baseline (YJIT 3.4.0dev)"/>
<line x1="579.3684210526325" y1="498.0" x2="579.3684210526325" y2="502.79999999999995" stroke="#000"/>
<text x="579.3684210526325" y="512.4" fill="#111" font-size="small" text-anchor="end" transform="rotate(-60, 579.3684210526325, 512.4)">
optcarrot
</text>
<rect x="594.2105263157903" y="263.64171854710645" width="9.894736842105264" height="234.3582814528935" fill="#785EF0" data-tooltip="1.09x baseline (YJIT 3.4.0dev)"/>
<line x1="599.157894736843" y1="498.0" x2="599.157894736843" y2="502.79999999999995" stroke="#000"/>
<text x="599.157894736843" y="512.4" fill="#111" font-size="small" text-anchor="end" transform="rotate(-60, 599.157894736843, 512.4)">
protoboeuf
</text>
<rect x="614.0000000000009" y="269.595724778347" width="9.894736842105264" height="228.40427522165297" fill="#785EF0" data-tooltip="1.06x baseline (YJIT 3.4.0dev)"/>
<line x1="618.9473684210536" y1="498.0" x2="618.9473684210536" y2="502.79999999999995" stroke="#000"/>
<text x="618.9473684210536" y="512.4" fill="#111" font-size="small" text-anchor="end" transform="rotate(-60, 618.9473684210536, 512.4)">
rack
</text>
<rect x="633.7894736842114" y="280.08831175332637" width="9.894736842105264" height="217.91168824667358" fill="#785EF0" data-tooltip="1.01x baseline (YJIT 3.4.0dev)"/>
<line x1="638.7368421052641" y1="498.0" x2="638.7368421052641" y2="502.79999999999995" stroke="#000"/>
<text x="638.7368421052641" y="512.4" fill="#111" font-size="small" text-anchor="end" transform="rotate(-60, 638.7368421052641, 512.4)">
ruby-json
</text>
<rect x="653.5789473684221" y="278.75707983518583" width="9.894736842105264" height="219.24292016481414" fill="#785EF0" data-tooltip="1.02x baseline (YJIT 3.4.0dev)"/>
<line x1="658.5263157894748" y1="498.0" x2="658.5263157894748" y2="502.79999999999995" stroke="#000"/>
<text x="658.5263157894748" y="512.4" fill="#111" font-size="small" text-anchor="end" transform="rotate(-60, 658.5263157894748, 512.4)">
rubykon
</text>
<rect x="673.3684210526326" y="278.69757211543" width="9.894736842105264" height="219.30242788457" fill="#785EF0" data-tooltip="1.02x baseline (YJIT 3.4.0dev)"/>
<line x1="678.3157894736853" y1="498.0" x2="678.3157894736853" y2="502.79999999999995" stroke="#000"/>
<text x="678.3157894736853" y="512.4" fill="#111" font-size="small" text-anchor="end" transform="rotate(-60, 678.3157894736853, 512.4)">
sudoku
</text>
<rect x="693.1578947368432" y="271.2734416253126" width="9.894736842105264" height="226.72655837468733" fill="#785EF0" data-tooltip="1.06x baseline (YJIT 3.4.0dev)"/>
<line x1="698.1052631578959" y1="498.0" x2="698.1052631578959" y2="502.79999999999995" stroke="#000"/>
<text x="698.1052631578959" y="512.4" fill="#111" font-size="small" text-anchor="end" transform="rotate(-60, 698.1052631578959, 512.4)">
tinygql
</text>
<rect x="712.9473684210537" y="272.18171782010967" width="9.894736842105264" height="225.81828217989028" fill="#785EF0" data-tooltip="1.05x baseline (YJIT 3.4.0dev)"/>
<line x1="717.8947368421065" y1="498.0" x2="717.8947368421065" y2="502.79999999999995" stroke="#000"/>
<text x="717.8947368421065" y="512.4" fill="#111" font-size="small" text-anchor="end" transform="rotate(-60, 717.8947368421065, 512.4)">
30k_ifelse
</text>
<rect x="732.7368421052644" y="276.268207187279" width="9.894736842105264" height="221.7317928127209" fill="#785EF0" data-tooltip="1.03x baseline (YJIT 3.4.0dev)"/>
<line x1="737.6842105263171" y1="498.0" x2="737.6842105263171" y2="502.79999999999995" stroke="#000"/>
<text x="737.6842105263171" y="512.4" fill="#111" font-size="small" text-anchor="end" transform="rotate(-60, 737.6842105263171, 512.4)">
30k_methods
</text>
<rect x="752.5263157894749" y="280.32294213315146" width="9.894736842105264" height="217.6770578668485" fill="#785EF0" data-tooltip="1.01x baseline (YJIT 3.4.0dev)"/>
<line x1="757.4736842105276" y1="498.0" x2="757.4736842105276" y2="502.79999999999995" stroke="#000"/>
<text x="757.4736842105276" y="512.4" fill="#111" font-size="small" text-anchor="end" transform="rotate(-60, 757.4736842105276, 512.4)">
cfunc_itself
</text>
<rect x="772.3157894736855" y="280.3618476958556" width="9.894736842105264" height="217.63815230414437" fill="#785EF0" data-tooltip="1.01x baseline (YJIT 3.4.0dev)"/>
<line x1="777.2631578947382" y1="498.0" x2="777.2631578947382" y2="502.79999999999995" stroke="#000"/>
<text x="777.2631578947382" y="512.4" fill="#111" font-size="small" text-anchor="end" transform="rotate(-60, 777.2631578947382, 512.4)">
fib
</text>
<rect x="792.105263157896" y="280.32561882960294" width="9.894736842105264" height="217.67438117039703" fill="#785EF0" data-tooltip="1.01x baseline (YJIT 3.4.0dev)"/>
<line x1="797.0526315789488" y1="498.0" x2="797.0526315789488" y2="502.79999999999995" stroke="#000"/>
<text x="797.0526315789488" y="512.4" fill="#111" font-size="small" text-anchor="end" transform="rotate(-60, 797.0526315789488, 512.4)">
getivar
</text>
<rect x="811.8947368421067" y="280.2046393843108" width="9.894736842105264" height="217.79536061568916" fill="#785EF0" data-tooltip="1.01x baseline (YJIT 3.4.0dev)"/>
<line x1="816.8421052631594" y1="498.0" x2="816.8421052631594" y2="502.79999999999995" stroke="#000"/>
<text x="816.8421052631594" y="512.4" fill="#111" font-size="small" text-anchor="end" transform="rotate(-60, 816.8421052631594, 512.4)">
keyword_args
</text>
<rect x="831.6842105263172" y="280.2090932709558" width="9.894736842105264" height="217.79090672904414" fill="#785EF0" data-tooltip="1.01x baseline (YJIT 3.4.0dev)"/>
<line x1="836.6315789473699" y1="498.0" x2="836.6315789473699" y2="502.79999999999995" stroke="#000"/>
<text x="836.6315789473699" y="512.4" fill="#111" font-size="small" text-anchor="end" transform="rotate(-60, 836.6315789473699, 512.4)">
respond_to
</text>
<rect x="851.4736842105278" y="280.3686713411452" width="9.894736842105264" height="217.63132865885473" fill="#785EF0" data-tooltip="1.01x baseline (YJIT 3.4.0dev)"/>
<line x1="856.4210526315806" y1="498.0" x2="856.4210526315806" y2="502.79999999999995" stroke="#000"/>
<text x="856.4210526315806" y="512.4" fill="#111" font-size="small" text-anchor="end" transform="rotate(-60, 856.4210526315806, 512.4)">
ruby-xor
</text>
<rect x="871.2631578947384" y="280.28567857617713" width="9.894736842105264" height="217.71432142382278" fill="#785EF0" data-tooltip="1.01x baseline (YJIT 3.4.0dev)"/>
<line x1="876.2105263157911" y1="498.0" x2="876.2105263157911" y2="502.79999999999995" stroke="#000"/>
<text x="876.2105263157911" y="512.4" fill="#111" font-size="small" text-anchor="end" transform="rotate(-60, 876.2105263157911, 512.4)">
setivar
</text>
<rect x="891.052631578949" y="280.1246263936364" width="9.894736842105264" height="217.87537360636355" fill="#785EF0" data-tooltip="1.01x baseline (YJIT 3.4.0dev)"/>
<line x1="896.0000000000017" y1="498.0" x2="896.0000000000017" y2="502.79999999999995" stroke="#000"/>
<text x="896.0000000000017" y="512.4" fill="#111" font-size="small" text-anchor="end" transform="rotate(-60, 896.0000000000017, 512.4)">
setivar_object
</text>
<rect x="910.8421052631595" y="280.28567857617713" width="9.894736842105264" height="217.71432142382278" fill="#785EF0" data-tooltip="1.01x baseline (YJIT 3.4.0dev)"/>
<line x1="915.7894736842122" y1="498.0" x2="915.7894736842122" y2="502.79999999999995" stroke="#000"/>
<text x="915.7894736842122" y="512.4" fill="#111" font-size="small" text-anchor="end" transform="rotate(-60, 915.7894736842122, 512.4)">
setivar_young
</text>
<rect x="930.6315789473701" y="161.60941582290462" width="9.894736842105264" height="336.39058417709526" fill="#785EF0" data-tooltip="1.57x baseline (YJIT 3.4.0dev)"/>
<line x1="935.5789473684229" y1="498.0" x2="935.5789473684229" y2="502.79999999999995" stroke="#000"/>
<text x="935.5789473684229" y="512.4" fill="#111" font-size="small" text-anchor="end" transform="rotate(-60, 935.5789473684229, 512.4)">
str_concat
</text>
<rect x="950.4210526315807" y="280.4427863566054" width="9.894736842105264" height="217.55721364339456" fill="#785EF0" data-tooltip="1.01x baseline (YJIT 3.4.0dev)"/>
<line x1="955.3684210526334" y1="498.0" x2="955.3684210526334" y2="502.79999999999995" stroke="#000"/>
<text x="955.3684210526334" y="512.4" fill="#111" font-size="small" text-anchor="end" transform="rotate(-60, 955.3684210526334, 512.4)">
throw
</text>
<rect x="970.2105263157913" y="268.2275926732655" width="9.894736842105264" height="229.77240732673442" fill="#785EF0" data-tooltip="1.07x baseline (YJIT 3.4.0dev)"/>
<line x1="975.157894736844" y1="498.0" x2="975.157894736844" y2="502.79999999999995" stroke="#000"/>
<text x="975.157894736844" y="512.4" fill="#111" font-size="small" text-anchor="end" transform="rotate(-60, 975.157894736844, 512.4)" font-style="italic">
geomean*
</text>
<line x1="50.0" y1="283.24107660455485" x2="990.0" y2="283.24107660455485" stroke="#648FFF" stroke-width="2"/>
</svg>