<svg viewBox="0 0 1000 600" xmlns="http://www.w3.org/2000/svg" xmlns:xlink="http://www.w3.org/1999/xlink" width="100%" height="100%">

<rect x="50.0" y="30.0" width="940.0" height="467.99999999999994" stroke="#000" fill="#fff"/>
<line x1="42.0" y1="497.9999999999999" x2="50.0" y2="497.9999999999999" stroke="#000"/>
<text x="26.000000000000004" y="497.9999999999999" text-anchor="end" font-weight="bold" font-size="small" fill="#111">
0.0
</text>
<line x1="42.0" y1="442.69617027654937" x2="50.0" y2="442.69617027654937" stroke="#000"/>
<text x="26.000000000000004" y="442.69617027654937" text-anchor="end" font-weight="bold" font-size="small" fill="#111">
0.2
</text>
<line x1="42.0" y1="387.39234055309896" x2="50.0" y2="387.39234055309896" stroke="#000"/>
<text x="26.000000000000004" y="387.39234055309896" text-anchor="end" font-weight="bold" font-size="small" fill="#111">
0.4
</text>
<line x1="42.0" y1="332.08851082964844" x2="50.0" y2="332.08851082964844" stroke="#000"/>
<text x="26.000000000000004" y="332.08851082964844" text-anchor="end" font-weight="bold" font-size="small" fill="#111">
0.6
</text>
<line x1="42.0" y1="276.7846811061979" x2="50.0" y2="276.7846811061979" stroke="#000"/>
<text x="26.000000000000004" y="276.7846811061979" text-anchor="end" font-weight="bold" font-size="small" fill="#111">
0.8
</text>
<line x1="42.0" y1="221.4808513827475" x2="50.0" y2="221.4808513827475" stroke="#000"/>
<text x="26.000000000000004" y="221.4808513827475" text-anchor="end" font-weight="bold" font-size="small" fill="#111">
1.0
</text>
<line x1="42.0" y1="166.17702165929703" x2="50.0" y2="166.17702165929703" stroke="#000"/>
<text x="26.000000000000004" y="166.17702165929703" text-anchor="end" font-weight="bold" font-size="small" fill="#111">
1.2
</text>
<line x1="42.0" y1="110.87319193584648" x2="50.0" y2="110.87319193584648" stroke="#000"/>
<text x="26.000000000000004" y="110.87319193584648" text-anchor="end" font-weight="bold" font-size="small" fill="#111">
1.4
</text>
<line x1="248.5" y1="54.60000000000001" x2="368.5" y2="54.60000000000001" stroke="#648FFF" stroke-width="2"/>
<text x="308.5" y="49.500000000000014" font-size="small" text-anchor="middle" font-weight="bold" fill="#000">
CRuby 3.3.0dev
</text>
<rect x="671.5" y="35.400000000000006" width="120.0" height="19.2" fill="#785EF0" stroke="none"/>
<text x="731.4999999999999" y="49.500000000000014" font-size="small" text-anchor="middle" font-weight="bold" fill="#fff" style="text-shadow: 0 0 1px #000;">
YJIT 3.3.0dev
</text>
<rect x="90.86956521739131" y="193.9966893905276" width="40.869565217391305" height="304.0033106094724" fill="#785EF0" data-tooltip="1.10x baseline (YJIT 3.3.0dev)"/>
<line x1="111.30434782608697" y1="498.0" x2="111.30434782608697" y2="502.79999999999995" stroke="#000"/>
<text x="111.30434782608697" y="512.4" fill="#111" font-size="small" text-anchor="end" transform="rotate(-60, 111.30434782608697, 512.4)">
activerecord
</text>
<rect x="172.6086956521739" y="100.19999999999999" width="40.869565217391305" height="397.79999999999995" fill="#785EF0" data-tooltip="1.44x baseline (YJIT 3.3.0dev)"/>
<line x1="193.04347826086953" y1="498.0" x2="193.04347826086953" y2="502.79999999999995" stroke="#000"/>
<text x="193.04347826086953" y="512.4" fill="#111" font-size="small" text-anchor="end" transform="rotate(-60, 193.04347826086953, 512.4)">
hexapdf
</text>
<rect x="254.3478260869565" y="196.03237051940644" width="40.869565217391305" height="301.9676294805935" fill="#785EF0" data-tooltip="1.09x baseline (YJIT 3.3.0dev)"/>
<line x1="274.7826086956522" y1="498.0" x2="274.7826086956522" y2="502.79999999999995" stroke="#000"/>
<text x="274.7826086956522" y="512.4" fill="#111" font-size="small" text-anchor="end" transform="rotate(-60, 274.7826086956522, 512.4)">
liquid-c
</text>
<rect x="336.0869565217391" y="199.68357647545912" width="40.869565217391305" height="298.3164235245408" fill="#785EF0" data-tooltip="1.08x baseline (YJIT 3.3.0dev)"/>
<line x1="356.5217391304348" y1="498.0" x2="356.5217391304348" y2="502.79999999999995" stroke="#000"/>
<text x="356.5217391304348" y="512.4" fill="#111" font-size="small" text-anchor="end" transform="rotate(-60, 356.5217391304348, 512.4)">
liquid-compile
</text>
<rect x="417.8260869565218" y="192.1596608207081" width="40.869565217391305" height="305.8403391792918" fill="#785EF0" data-tooltip="1.11x baseline (YJIT 3.3.0dev)"/>
<line x1="438.2608695652175" y1="498.0" x2="438.2608695652175" y2="502.79999999999995" stroke="#000"/>
<text x="438.2608695652175" y="512.4" fill="#111" font-size="small" text-anchor="end" transform="rotate(-60, 438.2608695652175, 512.4)">
liquid-render
</text>
<rect x="499.56521739130443" y="207.39713115963954" width="40.869565217391305" height="290.60286884036043" fill="#785EF0" data-tooltip="1.05x baseline (YJIT 3.3.0dev)"/>
<line x1="520.0" y1="498.0" x2="520.0" y2="502.79999999999995" stroke="#000"/>
<text x="520.0" y="512.4" fill="#111" font-size="small" text-anchor="end" transform="rotate(-60, 520.0, 512.4)">
mail
</text>
<rect x="581.304347826087" y="200.10354462784153" width="40.869565217391305" height="297.8964553721584" fill="#785EF0" data-tooltip="1.08x baseline (YJIT 3.3.0dev)"/>
<line x1="601.7391304347825" y1="498.0" x2="601.7391304347825" y2="502.79999999999995" stroke="#000"/>
<text x="601.7391304347825" y="512.4" fill="#111" font-size="small" text-anchor="end" transform="rotate(-60, 601.7391304347825, 512.4)">
psych-load
</text>
<rect x="663.0434782608695" y="180.60174514018485" width="40.869565217391305" height="317.3982548598151" fill="#785EF0" data-tooltip="1.15x baseline (YJIT 3.3.0dev)"/>
<line x1="683.4782608695651" y1="498.0" x2="683.4782608695651" y2="502.79999999999995" stroke="#000"/>
<text x="683.4782608695651" y="512.4" fill="#111" font-size="small" text-anchor="end" transform="rotate(-60, 683.4782608695651, 512.4)">
railsbench
</text>
<rect x="744.782608695652" y="108.92033478033477" width="40.869565217391305" height="389.0796652196652" fill="#785EF0" data-tooltip="1.41x baseline (YJIT 3.3.0dev)"/>
<line x1="765.2173913043476" y1="498.0" x2="765.2173913043476" y2="502.79999999999995" stroke="#000"/>
<text x="765.2173913043476" y="512.4" fill="#111" font-size="small" text-anchor="end" transform="rotate(-60, 765.2173913043476, 512.4)">
ruby-lsp
</text>
<rect x="826.5217391304346" y="188.36089699223578" width="40.869565217391305" height="309.6391030077641" fill="#785EF0" data-tooltip="1.12x baseline (YJIT 3.3.0dev)"/>
<line x1="846.9565217391302" y1="498.0" x2="846.9565217391302" y2="502.79999999999995" stroke="#000"/>
<text x="846.9565217391302" y="512.4" fill="#111" font-size="small" text-anchor="end" transform="rotate(-60, 846.9565217391302, 512.4)">
sequel
</text>
<rect x="908.2608695652171" y="178.65953645340213" width="40.869565217391305" height="319.3404635465978" fill="#785EF0" data-tooltip="1.15x baseline (YJIT 3.3.0dev)"/>
<line x1="928.6956521739127" y1="498.0" x2="928.6956521739127" y2="502.79999999999995" stroke="#000"/>
<text x="928.6956521739127" y="512.4" fill="#111" font-size="small" text-anchor="end" transform="rotate(-60, 928.6956521739127, 512.4)" font-style="italic">
geomean*
</text>
<line x1="50.0" y1="221.4808513827475" x2="990.0" y2="221.4808513827475" stroke="#648FFF" stroke-width="2"/>
</svg>