<svg viewBox="0 0 1000 600" xmlns="http://www.w3.org/2000/svg" xmlns:xlink="http://www.w3.org/1999/xlink" width="100%" height="100%">

<rect x="50.0" y="30.0" width="940.0" height="467.99999999999994" stroke="#000" fill="#fff"/>
<line x1="42.0" y1="497.9999999999999" x2="50.0" y2="497.9999999999999" stroke="#000"/>
<text x="26.000000000000004" y="497.9999999999999" text-anchor="end" font-weight="bold" font-size="small" fill="#111">
0.0
</text>
<line x1="42.0" y1="420.3732943500867" x2="50.0" y2="420.3732943500867" stroke="#000"/>
<text x="26.000000000000004" y="420.3732943500867" text-anchor="end" font-weight="bold" font-size="small" fill="#111">
0.5
</text>
<line x1="42.0" y1="342.7465887001734" x2="50.0" y2="342.7465887001734" stroke="#000"/>
<text x="26.000000000000004" y="342.7465887001734" text-anchor="end" font-weight="bold" font-size="small" fill="#111">
1.0
</text>
<line x1="42.0" y1="265.1198830502602" x2="50.0" y2="265.1198830502602" stroke="#000"/>
<text x="26.000000000000004" y="265.1198830502602" text-anchor="end" font-weight="bold" font-size="small" fill="#111">
1.5
</text>
<line x1="42.0" y1="187.49317740034698" x2="50.0" y2="187.49317740034698" stroke="#000"/>
<text x="26.000000000000004" y="187.49317740034698" text-anchor="end" font-weight="bold" font-size="small" fill="#111">
2.0
</text>
<line x1="42.0" y1="109.8664717504337" x2="50.0" y2="109.8664717504337" stroke="#000"/>
<text x="26.000000000000004" y="109.8664717504337" text-anchor="end" font-weight="bold" font-size="small" fill="#111">
2.5
</text>
<line x1="142.75" y1="54.60000000000001" x2="262.75" y2="54.60000000000001" stroke="#648FFF" stroke-width="2"/>
<text x="202.75" y="49.500000000000014" font-size="small" text-anchor="middle" font-weight="bold" fill="#000">
CRuby 3.3.4
</text>
<rect x="354.25" y="35.400000000000006" width="120.0" height="19.2" fill="#785EF0" stroke="none"/>
<text x="414.25" y="49.500000000000014" font-size="small" text-anchor="middle" font-weight="bold" fill="#fff" style="text-shadow: 0 0 1px #000;">
CRuby 3.4.0dev
</text>
<rect x="565.75" y="35.400000000000006" width="120.0" height="19.2" fill="#FFB000" stroke="none"/>
<text x="625.7499999999999" y="49.500000000000014" font-size="small" text-anchor="middle" font-weight="bold" fill="#fff" style="text-shadow: 0 0 1px #000;">
YJIT 3.3.4
</text>
<rect x="777.25" y="35.400000000000006" width="120.0" height="19.2" fill="#DC267F" stroke="none"/>
<text x="837.2499999999999" y="49.500000000000014" font-size="small" text-anchor="middle" font-weight="bold" fill="#fff" style="text-shadow: 0 0 1px #000;">
YJIT 3.4.0dev
</text>
<rect x="65.40983606557377" y="357.5221098099146" width="15.40983606557377" height="140.47789019008536" fill="#785EF0" data-tooltip="0.90x baseline (CRuby 3.4.0dev)"/>
<line x1="65.40983606557377" y1="356.94323729509904" x2="80.81967213114753" y2="356.94323729509904" stroke-dasharray="1,0.5" stroke="#333c"/>
<line x1="65.40983606557377" y1="358.10098232473007" x2="80.81967213114753" y2="358.10098232473007" stroke-dasharray="1,0.5" stroke="#333c"/>
<line x1="73.11475409836066" y1="356.94323729509904" x2="73.11475409836066" y2="358.10098232473007" stroke-dasharray="1,0.5" stroke="#333c"/>
<rect x="80.81967213114753" y="178.14218263421037" width="15.40983606557377" height="319.8578173657896" fill="#FFB000" data-tooltip="2.06x baseline (YJIT 3.3.4)"/>
<line x1="80.81967213114753" y1="176.6969887737888" x2="96.2295081967213" y2="176.6969887737888" stroke-dasharray="1,0.5" stroke="#333c"/>
<line x1="80.81967213114753" y1="179.5873764946319" x2="96.2295081967213" y2="179.5873764946319" stroke-dasharray="1,0.5" stroke="#333c"/>
<line x1="88.52459016393442" y1="176.6969887737888" x2="88.52459016393442" y2="179.5873764946319" stroke-dasharray="1,0.5" stroke="#333c"/>
<rect x="96.2295081967213" y="183.5789987215075" width="15.40983606557377" height="314.4210012784924" fill="#DC267F" data-tooltip="2.03x baseline (YJIT 3.4.0dev)"/>
<line x1="96.2295081967213" y1="182.10046939202627" x2="111.63934426229507" y2="182.10046939202627" stroke-dasharray="1,0.5" stroke="#333c"/>
<line x1="96.2295081967213" y1="185.05752805098876" x2="111.63934426229507" y2="185.05752805098876" stroke-dasharray="1,0.5" stroke="#333c"/>
<line x1="103.93442622950819" y1="182.10046939202627" x2="103.93442622950819" y2="185.05752805098876" stroke-dasharray="1,0.5" stroke="#333c"/>
<line x1="88.5245901639344" y1="498.0" x2="88.5245901639344" y2="502.79999999999995" stroke="#000"/>
<text x="88.5245901639344" y="512.4" fill="#111" font-size="small" text-anchor="end" transform="rotate(-60, 88.5245901639344, 512.4)">
activerecord
</text>
<rect x="127.04918032786883" y="361.84025886270723" width="15.40983606557377" height="136.15974113729263" fill="#785EF0" data-tooltip="0.88x baseline (CRuby 3.4.0dev)"/>
<line x1="127.04918032786883" y1="361.45013686289036" x2="142.4590163934426" y2="361.45013686289036" stroke-dasharray="1,0.5" stroke="#333c"/>
<line x1="127.04918032786883" y1="362.2303808625241" x2="142.4590163934426" y2="362.2303808625241" stroke-dasharray="1,0.5" stroke="#333c"/>
<line x1="134.75409836065572" y1="361.45013686289036" x2="134.75409836065572" y2="362.2303808625241" stroke-dasharray="1,0.5" stroke="#333c"/>
<rect x="142.4590163934426" y="242.18545471389947" width="15.40983606557377" height="255.8145452861005" fill="#FFB000" data-tooltip="1.65x baseline (YJIT 3.3.4)"/>
<line x1="142.4590163934426" y1="241.39797706471933" x2="157.86885245901638" y2="241.39797706471933" stroke-dasharray="1,0.5" stroke="#333c"/>
<line x1="142.4590163934426" y1="242.97293236307962" x2="157.86885245901638" y2="242.97293236307962" stroke-dasharray="1,0.5" stroke="#333c"/>
<line x1="150.1639344262295" y1="241.39797706471933" x2="150.1639344262295" y2="242.97293236307962" stroke-dasharray="1,0.5" stroke="#333c"/>
<rect x="157.86885245901638" y="245.06494445006138" width="15.40983606557377" height="252.93505554993857" fill="#DC267F" data-tooltip="1.63x baseline (YJIT 3.4.0dev)"/>
<line x1="157.86885245901638" y1="244.3586089127711" x2="173.27868852459017" y2="244.3586089127711" stroke-dasharray="1,0.5" stroke="#333c"/>
<line x1="157.86885245901638" y1="245.77127998735165" x2="173.27868852459017" y2="245.77127998735165" stroke-dasharray="1,0.5" stroke="#333c"/>
<line x1="165.5737704918033" y1="244.3586089127711" x2="165.5737704918033" y2="245.77127998735165" stroke-dasharray="1,0.5" stroke="#333c"/>
<line x1="150.1639344262295" y1="498.0" x2="150.1639344262295" y2="502.79999999999995" stroke="#000"/>
<text x="150.1639344262295" y="512.4" fill="#111" font-size="small" text-anchor="end" transform="rotate(-60, 150.1639344262295, 512.4)">
chunky-png
</text>
<rect x="188.68852459016395" y="352.72056497065483" width="15.40983606557377" height="145.2794350293451" fill="#785EF0" data-tooltip="0.94x baseline (CRuby 3.4.0dev)"/>
<line x1="188.68852459016395" y1="352.2359933020639" x2="204.0983606557377" y2="352.2359933020639" stroke-dasharray="1,0.5" stroke="#333c"/>
<line x1="188.68852459016395" y1="353.20513663924584" x2="204.0983606557377" y2="353.20513663924584" stroke-dasharray="1,0.5" stroke="#333c"/>
<line x1="196.39344262295083" y1="352.2359933020639" x2="196.39344262295083" y2="353.20513663924584" stroke-dasharray="1,0.5" stroke="#333c"/>
<rect x="204.0983606557377" y="214.29157958931765" width="15.40983606557377" height="283.7084204106823" fill="#FFB000" data-tooltip="1.83x baseline (YJIT 3.3.4)"/>
<line x1="204.0983606557377" y1="213.34276121220196" x2="219.5081967213115" y2="213.34276121220196" stroke-dasharray="1,0.5" stroke="#333c"/>
<line x1="204.0983606557377" y1="215.24039796643336" x2="219.5081967213115" y2="215.24039796643336" stroke-dasharray="1,0.5" stroke="#333c"/>
<line x1="211.8032786885246" y1="213.34276121220196" x2="211.8032786885246" y2="215.24039796643336" stroke-dasharray="1,0.5" stroke="#333c"/>
<rect x="219.5081967213115" y="236.2716990855325" width="15.40983606557377" height="261.72830091446747" fill="#DC267F" data-tooltip="1.69x baseline (YJIT 3.4.0dev)"/>
<line x1="219.5081967213115" y1="235.06132642769393" x2="234.91803278688528" y2="235.06132642769393" stroke-dasharray="1,0.5" stroke="#333c"/>
<line x1="219.5081967213115" y1="237.48207174337105" x2="234.91803278688528" y2="237.48207174337105" stroke-dasharray="1,0.5" stroke="#333c"/>
<line x1="227.2131147540984" y1="235.06132642769393" x2="227.2131147540984" y2="237.48207174337105" stroke-dasharray="1,0.5" stroke="#333c"/>
<line x1="211.8032786885246" y1="498.0" x2="211.8032786885246" y2="502.79999999999995" stroke="#000"/>
<text x="211.8032786885246" y="512.4" fill="#111" font-size="small" text-anchor="end" transform="rotate(-60, 211.8032786885246, 512.4)">
erubi-rails
</text>
<rect x="250.32786885245906" y="347.4333754366083" width="15.40983606557377" height="150.5666245633917" fill="#785EF0" data-tooltip="0.97x baseline (CRuby 3.4.0dev)"/>
<line x1="250.32786885245906" y1="346.0592075096918" x2="265.7377049180328" y2="346.0592075096918" stroke-dasharray="1,0.5" stroke="#333c"/>
<line x1="250.32786885245906" y1="348.8075433635247" x2="265.7377049180328" y2="348.8075433635247" stroke-dasharray="1,0.5" stroke="#333c"/>
<line x1="258.03278688524597" y1="346.0592075096918" x2="258.03278688524597" y2="348.8075433635247" stroke-dasharray="1,0.5" stroke="#333c"/>
<rect x="265.7377049180328" y="245.9435365088637" width="15.40983606557377" height="252.05646349113624" fill="#FFB000" data-tooltip="1.62x baseline (YJIT 3.3.4)"/>
<line x1="265.7377049180328" y1="241.45824857979582" x2="281.14754098360663" y2="241.45824857979582" stroke-dasharray="1,0.5" stroke="#333c"/>
<line x1="265.7377049180328" y1="250.4288244379316" x2="281.14754098360663" y2="250.4288244379316" stroke-dasharray="1,0.5" stroke="#333c"/>
<line x1="273.4426229508197" y1="241.45824857979582" x2="273.4426229508197" y2="250.4288244379316" stroke-dasharray="1,0.5" stroke="#333c"/>
<rect x="281.14754098360663" y="213.0887472304427" width="15.40983606557377" height="284.9112527695573" fill="#DC267F" data-tooltip="1.84x baseline (YJIT 3.4.0dev)"/>
<line x1="281.14754098360663" y1="209.77190882324348" x2="296.5573770491804" y2="209.77190882324348" stroke-dasharray="1,0.5" stroke="#333c"/>
<line x1="281.14754098360663" y1="216.4055856376419" x2="296.5573770491804" y2="216.4055856376419" stroke-dasharray="1,0.5" stroke="#333c"/>
<line x1="288.8524590163935" y1="209.77190882324348" x2="288.8524590163935" y2="216.4055856376419" stroke-dasharray="1,0.5" stroke="#333c"/>
<line x1="273.4426229508197" y1="498.0" x2="273.4426229508197" y2="502.79999999999995" stroke="#000"/>
<text x="273.4426229508197" y="512.4" fill="#111" font-size="small" text-anchor="end" transform="rotate(-60, 273.4426229508197, 512.4)">
hexapdf
</text>
<rect x="311.96721311475414" y="348.5777647765964" width="15.40983606557377" height="149.42223522340356" fill="#785EF0" data-tooltip="0.96x baseline (CRuby 3.4.0dev)"/>
<line x1="311.96721311475414" y1="347.09851255131974" x2="327.37704918032796" y2="347.09851255131974" stroke-dasharray="1,0.5" stroke="#333c"/>
<line x1="311.96721311475414" y1="350.0570170018731" x2="327.37704918032796" y2="350.0570170018731" stroke-dasharray="1,0.5" stroke="#333c"/>
<line x1="319.67213114754105" y1="347.09851255131974" x2="319.67213114754105" y2="350.0570170018731" stroke-dasharray="1,0.5" stroke="#333c"/>
<rect x="327.37704918032796" y="279.36459610154327" width="15.40983606557377" height="218.63540389845664" fill="#FFB000" data-tooltip="1.41x baseline (YJIT 3.3.4)"/>
<line x1="327.37704918032796" y1="277.77741658702763" x2="342.7868852459017" y2="277.77741658702763" stroke-dasharray="1,0.5" stroke="#333c"/>
<line x1="327.37704918032796" y1="280.95177561605897" x2="342.7868852459017" y2="280.95177561605897" stroke-dasharray="1,0.5" stroke="#333c"/>
<line x1="335.08196721311486" y1="277.77741658702763" x2="335.08196721311486" y2="280.95177561605897" stroke-dasharray="1,0.5" stroke="#333c"/>
<rect x="342.7868852459017" y="280.76189046372764" width="15.40983606557377" height="217.23810953627233" fill="#DC267F" data-tooltip="1.40x baseline (YJIT 3.4.0dev)"/>
<line x1="342.7868852459017" y1="278.52654554998134" x2="358.1967213114755" y2="278.52654554998134" stroke-dasharray="1,0.5" stroke="#333c"/>
<line x1="342.7868852459017" y1="282.9972353774739" x2="358.1967213114755" y2="282.9972353774739" stroke-dasharray="1,0.5" stroke="#333c"/>
<line x1="350.4918032786886" y1="278.52654554998134" x2="350.4918032786886" y2="282.9972353774739" stroke-dasharray="1,0.5" stroke="#333c"/>
<line x1="335.08196721311486" y1="498.0" x2="335.08196721311486" y2="502.79999999999995" stroke="#000"/>
<text x="335.08196721311486" y="512.4" fill="#111" font-size="small" text-anchor="end" transform="rotate(-60, 335.08196721311486, 512.4)">
liquid-c
</text>
<rect x="373.6065573770493" y="354.06947496296544" width="15.40983606557377" height="143.93052503703447" fill="#785EF0" data-tooltip="0.93x baseline (CRuby 3.4.0dev)"/>
<line x1="373.6065573770493" y1="349.8558378951673" x2="389.01639344262304" y2="349.8558378951673" stroke-dasharray="1,0.5" stroke="#333c"/>
<line x1="373.6065573770493" y1="358.2831120307636" x2="389.01639344262304" y2="358.2831120307636" stroke-dasharray="1,0.5" stroke="#333c"/>
<line x1="381.3114754098362" y1="349.8558378951673" x2="381.3114754098362" y2="358.2831120307636" stroke-dasharray="1,0.5" stroke="#333c"/>
<rect x="389.01639344262304" y="290.11984282118135" width="15.40983606557377" height="207.8801571788186" fill="#FFB000" data-tooltip="1.34x baseline (YJIT 3.3.4)"/>
<line x1="389.01639344262304" y1="283.38482004314926" x2="404.42622950819685" y2="283.38482004314926" stroke-dasharray="1,0.5" stroke="#333c"/>
<line x1="389.01639344262304" y1="296.85486559921344" x2="404.42622950819685" y2="296.85486559921344" stroke-dasharray="1,0.5" stroke="#333c"/>
<line x1="396.72131147540995" y1="283.38482004314926" x2="396.72131147540995" y2="296.85486559921344" stroke-dasharray="1,0.5" stroke="#333c"/>
<rect x="404.42622950819685" y="286.387172227205" width="15.40983606557377" height="211.61282777279496" fill="#DC267F" data-tooltip="1.36x baseline (YJIT 3.4.0dev)"/>
<line x1="404.42622950819685" y1="280.04634788987045" x2="419.8360655737706" y2="280.04634788987045" stroke-dasharray="1,0.5" stroke="#333c"/>
<line x1="404.42622950819685" y1="292.7279965645395" x2="419.8360655737706" y2="292.7279965645395" stroke-dasharray="1,0.5" stroke="#333c"/>
<line x1="412.13114754098376" y1="280.04634788987045" x2="412.13114754098376" y2="292.7279965645395" stroke-dasharray="1,0.5" stroke="#333c"/>
<line x1="396.72131147540995" y1="498.0" x2="396.72131147540995" y2="502.79999999999995" stroke="#000"/>
<text x="396.72131147540995" y="512.4" fill="#111" font-size="small" text-anchor="end" transform="rotate(-60, 396.72131147540995, 512.4)">
liquid-compile
</text>
<rect x="435.2459016393444" y="348.9945506767322" width="15.40983606557377" height="149.00544932326764" fill="#785EF0" data-tooltip="0.96x baseline (CRuby 3.4.0dev)"/>
<line x1="435.2459016393444" y1="348.40986370613865" x2="450.6557377049182" y2="348.40986370613865" stroke-dasharray="1,0.5" stroke="#333c"/>
<line x1="435.2459016393444" y1="349.57923764732584" x2="450.6557377049182" y2="349.57923764732584" stroke-dasharray="1,0.5" stroke="#333c"/>
<line x1="442.9508196721313" y1="348.40986370613865" x2="442.9508196721313" y2="349.57923764732584" stroke-dasharray="1,0.5" stroke="#333c"/>
<rect x="450.6557377049182" y="115.27029914279304" width="15.40983606557377" height="382.7297008572069" fill="#FFB000" data-tooltip="2.47x baseline (YJIT 3.3.4)"/>
<line x1="450.6557377049182" y1="113.1829975106254" x2="466.06557377049194" y2="113.1829975106254" stroke-dasharray="1,0.5" stroke="#333c"/>
<line x1="450.6557377049182" y1="117.35760077496066" x2="466.06557377049194" y2="117.35760077496066" stroke-dasharray="1,0.5" stroke="#333c"/>
<line x1="458.3606557377051" y1="113.1829975106254" x2="458.3606557377051" y2="117.35760077496066" stroke-dasharray="1,0.5" stroke="#333c"/>
<rect x="466.06557377049194" y="100.19999999999999" width="15.40983606557377" height="397.79999999999995" fill="#DC267F" data-tooltip="2.56x baseline (YJIT 3.4.0dev)"/>
<line x1="466.06557377049194" y1="97.72747926781292" x2="481.47540983606575" y2="97.72747926781292" stroke-dasharray="1,0.5" stroke="#333c"/>
<line x1="466.06557377049194" y1="102.67252073218705" x2="481.47540983606575" y2="102.67252073218705" stroke-dasharray="1,0.5" stroke="#333c"/>
<line x1="473.77049180327884" y1="97.72747926781292" x2="473.77049180327884" y2="102.67252073218705" stroke-dasharray="1,0.5" stroke="#333c"/>
<line x1="458.3606557377051" y1="498.0" x2="458.3606557377051" y2="502.79999999999995" stroke="#000"/>
<text x="458.3606557377051" y="512.4" fill="#111" font-size="small" text-anchor="end" transform="rotate(-60, 458.3606557377051, 512.4)">
liquid-render
</text>
<rect x="496.8852459016395" y="351.4629294138818" width="15.40983606557377" height="146.53707058611812" fill="#785EF0" data-tooltip="0.94x baseline (CRuby 3.4.0dev)"/>
<line x1="496.8852459016395" y1="349.58847018338855" x2="512.2950819672133" y2="349.58847018338855" stroke-dasharray="1,0.5" stroke="#333c"/>
<line x1="496.8852459016395" y1="353.33738864437504" x2="512.2950819672133" y2="353.33738864437504" stroke-dasharray="1,0.5" stroke="#333c"/>
<line x1="504.59016393442636" y1="349.58847018338855" x2="504.59016393442636" y2="353.33738864437504" stroke-dasharray="1,0.5" stroke="#333c"/>
<rect x="512.2950819672133" y="266.53732639694465" width="15.40983606557377" height="231.4626736030553" fill="#FFB000" data-tooltip="1.49x baseline (YJIT 3.3.4)"/>
<line x1="512.2950819672133" y1="263.3323397165613" x2="527.7049180327871" y2="263.3323397165613" stroke-dasharray="1,0.5" stroke="#333c"/>
<line x1="512.2950819672133" y1="269.742313077328" x2="527.7049180327871" y2="269.742313077328" stroke-dasharray="1,0.5" stroke="#333c"/>
<line x1="520.0000000000001" y1="263.3323397165613" x2="520.0000000000001" y2="269.742313077328" stroke-dasharray="1,0.5" stroke="#333c"/>
<rect x="527.7049180327871" y="269.47028202664325" width="15.40983606557377" height="228.52971797335667" fill="#DC267F" data-tooltip="1.47x baseline (YJIT 3.4.0dev)"/>
<line x1="527.7049180327871" y1="265.88337417866876" x2="543.1147540983609" y2="265.88337417866876" stroke-dasharray="1,0.5" stroke="#333c"/>
<line x1="527.7049180327871" y1="273.0571898746178" x2="543.1147540983609" y2="273.0571898746178" stroke-dasharray="1,0.5" stroke="#333c"/>
<line x1="535.4098360655739" y1="265.88337417866876" x2="535.4098360655739" y2="273.0571898746178" stroke-dasharray="1,0.5" stroke="#333c"/>
<line x1="520.0000000000002" y1="498.0" x2="520.0000000000002" y2="502.79999999999995" stroke="#000"/>
<text x="520.0000000000002" y="512.4" fill="#111" font-size="small" text-anchor="end" transform="rotate(-60, 520.0000000000002, 512.4)">
lobsters
</text>
<rect x="558.5245901639346" y="352.53878692422523" width="15.40983606557377" height="145.4612130757747" fill="#785EF0" data-tooltip="0.94x baseline (CRuby 3.4.0dev)"/>
<line x1="558.5245901639346" y1="351.83323292723543" x2="573.9344262295084" y2="351.83323292723543" stroke-dasharray="1,0.5" stroke="#333c"/>
<line x1="558.5245901639346" y1="353.2443409212151" x2="573.9344262295084" y2="353.2443409212151" stroke-dasharray="1,0.5" stroke="#333c"/>
<line x1="566.2295081967214" y1="351.83323292723543" x2="566.2295081967214" y2="353.2443409212151" stroke-dasharray="1,0.5" stroke="#333c"/>
<rect x="573.9344262295084" y="276.04916312668576" width="15.40983606557377" height="221.9508368733142" fill="#FFB000" data-tooltip="1.43x baseline (YJIT 3.3.4)"/>
<line x1="573.9344262295084" y1="274.9238146697966" x2="589.3442622950822" y2="274.9238146697966" stroke-dasharray="1,0.5" stroke="#333c"/>
<line x1="573.9344262295084" y1="277.17451158357494" x2="589.3442622950822" y2="277.17451158357494" stroke-dasharray="1,0.5" stroke="#333c"/>
<line x1="581.6393442622953" y1="274.9238146697966" x2="581.6393442622953" y2="277.17451158357494" stroke-dasharray="1,0.5" stroke="#333c"/>
<rect x="589.3442622950822" y="288.7501591577655" width="15.40983606557377" height="209.24984084223448" fill="#DC267F" data-tooltip="1.35x baseline (YJIT 3.4.0dev)"/>
<line x1="589.3442622950822" y1="287.72700896375943" x2="604.7540983606559" y2="287.72700896375943" stroke-dasharray="1,0.5" stroke="#333c"/>
<line x1="589.3442622950822" y1="289.7733093517715" x2="604.7540983606559" y2="289.7733093517715" stroke-dasharray="1,0.5" stroke="#333c"/>
<line x1="597.0491803278691" y1="287.72700896375943" x2="597.0491803278691" y2="289.7733093517715" stroke-dasharray="1,0.5" stroke="#333c"/>
<line x1="581.6393442622954" y1="498.0" x2="581.6393442622954" y2="502.79999999999995" stroke="#000"/>
<text x="581.6393442622954" y="512.4" fill="#111" font-size="small" text-anchor="end" transform="rotate(-60, 581.6393442622954, 512.4)">
mail
</text>
<rect x="620.1639344262297" y="354.48163660695394" width="15.40983606557377" height="143.51836339304606" fill="#785EF0" data-tooltip="0.92x baseline (CRuby 3.4.0dev)"/>
<line x1="620.1639344262297" y1="354.38296288315325" x2="635.5737704918035" y2="354.38296288315325" stroke-dasharray="1,0.5" stroke="#333c"/>
<line x1="620.1639344262297" y1="354.5803103307547" x2="635.5737704918035" y2="354.5803103307547" stroke-dasharray="1,0.5" stroke="#333c"/>
<line x1="627.8688524590166" y1="354.38296288315325" x2="627.8688524590166" y2="354.5803103307547" stroke-dasharray="1,0.5" stroke="#333c"/>
<rect x="635.5737704918035" y="264.29400035725286" width="15.40983606557377" height="233.7059996427471" fill="#FFB000" data-tooltip="1.51x baseline (YJIT 3.3.4)"/>
<line x1="635.5737704918035" y1="264.00711345495307" x2="650.9836065573774" y2="264.00711345495307" stroke-dasharray="1,0.5" stroke="#333c"/>
<line x1="635.5737704918035" y1="264.58088725955264" x2="650.9836065573774" y2="264.58088725955264" stroke-dasharray="1,0.5" stroke="#333c"/>
<line x1="643.2786885245904" y1="264.00711345495307" x2="643.2786885245904" y2="264.58088725955264" stroke-dasharray="1,0.5" stroke="#333c"/>
<rect x="650.9836065573774" y="240.49872585240433" width="15.40983606557377" height="257.5012741475956" fill="#DC267F" data-tooltip="1.66x baseline (YJIT 3.4.0dev)"/>
<line x1="650.9836065573774" y1="240.2771028902633" x2="666.393442622951" y2="240.2771028902633" stroke-dasharray="1,0.5" stroke="#333c"/>
<line x1="650.9836065573774" y1="240.72034881454536" x2="666.393442622951" y2="240.72034881454536" stroke-dasharray="1,0.5" stroke="#333c"/>
<line x1="658.6885245901641" y1="240.2771028902633" x2="658.6885245901641" y2="240.72034881454536" stroke-dasharray="1,0.5" stroke="#333c"/>
<line x1="643.2786885245905" y1="498.0" x2="643.2786885245905" y2="502.79999999999995" stroke="#000"/>
<text x="643.2786885245905" y="512.4" fill="#111" font-size="small" text-anchor="end" transform="rotate(-60, 643.2786885245905, 512.4)">
psych-load
</text>
<rect x="681.8032786885249" y="350.68073397083924" width="15.40983606557377" height="147.31926602916067" fill="#785EF0" data-tooltip="0.95x baseline (CRuby 3.4.0dev)"/>
<line x1="681.8032786885249" y1="350.3967848860886" x2="697.2131147540987" y2="350.3967848860886" stroke-dasharray="1,0.5" stroke="#333c"/>
<line x1="681.8032786885249" y1="350.9646830555899" x2="697.2131147540987" y2="350.9646830555899" stroke-dasharray="1,0.5" stroke="#333c"/>
<line x1="689.5081967213117" y1="350.3967848860886" x2="689.5081967213117" y2="350.9646830555899" stroke-dasharray="1,0.5" stroke="#333c"/>
<rect x="697.2131147540987" y="235.0521083418076" width="15.40983606557377" height="262.94789165819236" fill="#FFB000" data-tooltip="1.69x baseline (YJIT 3.3.4)"/>
<line x1="697.2131147540987" y1="232.6883498835365" x2="712.6229508196724" y2="232.6883498835365" stroke-dasharray="1,0.5" stroke="#333c"/>
<line x1="697.2131147540987" y1="237.4158668000787" x2="712.6229508196724" y2="237.4158668000787" stroke-dasharray="1,0.5" stroke="#333c"/>
<line x1="704.9180327868854" y1="232.6883498835365" x2="704.9180327868854" y2="237.4158668000787" stroke-dasharray="1,0.5" stroke="#333c"/>
<rect x="712.6229508196724" y="231.16872230963475" width="15.40983606557377" height="266.8312776903652" fill="#DC267F" data-tooltip="1.72x baseline (YJIT 3.4.0dev)"/>
<line x1="712.6229508196724" y1="230.6380670365743" x2="728.0327868852462" y2="230.6380670365743" stroke-dasharray="1,0.5" stroke="#333c"/>
<line x1="712.6229508196724" y1="231.69937758269518" x2="728.0327868852462" y2="231.69937758269518" stroke-dasharray="1,0.5" stroke="#333c"/>
<line x1="720.3278688524592" y1="230.6380670365743" x2="720.3278688524592" y2="231.69937758269518" stroke-dasharray="1,0.5" stroke="#333c"/>
<line x1="704.9180327868855" y1="498.0" x2="704.9180327868855" y2="502.79999999999995" stroke="#000"/>
<text x="704.9180327868855" y="512.4" fill="#111" font-size="small" text-anchor="end" transform="rotate(-60, 704.9180327868855, 512.4)">
railsbench
</text>
<rect x="743.44262295082" y="350.7483219075434" width="15.40983606557377" height="147.2516780924565" fill="#785EF0" data-tooltip="0.95x baseline (CRuby 3.4.0dev)"/>
<line x1="743.44262295082" y1="347.9990276531481" x2="758.8524590163937" y2="347.9990276531481" stroke-dasharray="1,0.5" stroke="#333c"/>
<line x1="743.44262295082" y1="353.4976161619387" x2="758.8524590163937" y2="353.4976161619387" stroke-dasharray="1,0.5" stroke="#333c"/>
<line x1="751.1475409836069" y1="347.9990276531481" x2="751.1475409836069" y2="353.4976161619387" stroke-dasharray="1,0.5" stroke="#333c"/>
<rect x="758.8524590163937" y="231.8488158568074" width="15.40983606557377" height="266.15118414319255" fill="#FFB000" data-tooltip="1.71x baseline (YJIT 3.3.4)"/>
<line x1="758.8524590163937" y1="223.9073611027534" x2="774.2622950819675" y2="223.9073611027534" stroke-dasharray="1,0.5" stroke="#333c"/>
<line x1="758.8524590163937" y1="239.79027061086134" x2="774.2622950819675" y2="239.79027061086134" stroke-dasharray="1,0.5" stroke="#333c"/>
<line x1="766.5573770491806" y1="223.9073611027534" x2="766.5573770491806" y2="239.79027061086134" stroke-dasharray="1,0.5" stroke="#333c"/>
<rect x="774.2622950819675" y="218.31027873194813" width="15.40983606557377" height="279.68972126805187" fill="#DC267F" data-tooltip="1.80x baseline (YJIT 3.4.0dev)"/>
<line x1="774.2622950819675" y1="207.10606525523343" x2="789.6721311475413" y2="207.10606525523343" stroke-dasharray="1,0.5" stroke="#333c"/>
<line x1="774.2622950819675" y1="229.51449220866283" x2="789.6721311475413" y2="229.51449220866283" stroke-dasharray="1,0.5" stroke="#333c"/>
<line x1="781.9672131147544" y1="207.10606525523343" x2="781.9672131147544" y2="229.51449220866283" stroke-dasharray="1,0.5" stroke="#333c"/>
<line x1="766.5573770491807" y1="498.0" x2="766.5573770491807" y2="502.79999999999995" stroke="#000"/>
<text x="766.5573770491807" y="512.4" fill="#111" font-size="small" text-anchor="end" transform="rotate(-60, 766.5573770491807, 512.4)">
rubocop
</text>
<rect x="805.081967213115" y="353.41885786151073" width="15.40983606557377" height="144.58114213848924" fill="#785EF0" data-tooltip="0.93x baseline (CRuby 3.4.0dev)"/>
<line x1="805.081967213115" y1="350.26657006808443" x2="820.4918032786888" y2="350.26657006808443" stroke-dasharray="1,0.5" stroke="#333c"/>
<line x1="805.081967213115" y1="356.571145654937" x2="820.4918032786888" y2="356.571145654937" stroke-dasharray="1,0.5" stroke="#333c"/>
<line x1="812.7868852459019" y1="350.26657006808443" x2="812.7868852459019" y2="356.571145654937" stroke-dasharray="1,0.5" stroke="#333c"/>
<rect x="820.4918032786888" y="249.80247387368098" width="15.40983606557377" height="248.197526126319" fill="#FFB000" data-tooltip="1.60x baseline (YJIT 3.3.4)"/>
<line x1="820.4918032786888" y1="246.17921710444082" x2="835.9016393442627" y2="246.17921710444082" stroke-dasharray="1,0.5" stroke="#333c"/>
<line x1="820.4918032786888" y1="253.42573064292114" x2="835.9016393442627" y2="253.42573064292114" stroke-dasharray="1,0.5" stroke="#333c"/>
<line x1="828.1967213114757" y1="246.17921710444082" x2="828.1967213114757" y2="253.42573064292114" stroke-dasharray="1,0.5" stroke="#333c"/>
<rect x="835.9016393442627" y="258.9549806502793" width="15.40983606557377" height="239.0450193497206" fill="#DC267F" data-tooltip="1.54x baseline (YJIT 3.4.0dev)"/>
<line x1="835.9016393442627" y1="255.42099042953365" x2="851.3114754098365" y2="255.42099042953365" stroke-dasharray="1,0.5" stroke="#333c"/>
<line x1="835.9016393442627" y1="262.488970871025" x2="851.3114754098365" y2="262.488970871025" stroke-dasharray="1,0.5" stroke="#333c"/>
<line x1="843.6065573770495" y1="255.42099042953365" x2="843.6065573770495" y2="262.488970871025" stroke-dasharray="1,0.5" stroke="#333c"/>
<line x1="828.1967213114758" y1="498.0" x2="828.1967213114758" y2="502.79999999999995" stroke="#000"/>
<text x="828.1967213114758" y="512.4" fill="#111" font-size="small" text-anchor="end" transform="rotate(-60, 828.1967213114758, 512.4)">
ruby-lsp
</text>
<rect x="866.7213114754102" y="352.43904855326554" width="15.40983606557377" height="145.56095144673438" fill="#785EF0" data-tooltip="0.94x baseline (CRuby 3.4.0dev)"/>
<line x1="866.7213114754102" y1="351.5843407916236" x2="882.131147540984" y2="351.5843407916236" stroke-dasharray="1,0.5" stroke="#333c"/>
<line x1="866.7213114754102" y1="353.2937563149075" x2="882.131147540984" y2="353.2937563149075" stroke-dasharray="1,0.5" stroke="#333c"/>
<line x1="874.426229508197" y1="351.5843407916236" x2="874.426229508197" y2="353.2937563149075" stroke-dasharray="1,0.5" stroke="#333c"/>
<rect x="882.131147540984" y="293.0557630033031" width="15.40983606557377" height="204.94423699669684" fill="#FFB000" data-tooltip="1.32x baseline (YJIT 3.3.4)"/>
<line x1="882.131147540984" y1="291.57517049130064" x2="897.5409836065578" y2="291.57517049130064" stroke-dasharray="1,0.5" stroke="#333c"/>
<line x1="882.131147540984" y1="294.53635551530556" x2="897.5409836065578" y2="294.53635551530556" stroke-dasharray="1,0.5" stroke="#333c"/>
<line x1="889.8360655737708" y1="291.57517049130064" x2="889.8360655737708" y2="294.53635551530556" stroke-dasharray="1,0.5" stroke="#333c"/>
<rect x="897.5409836065578" y="302.17433436332135" width="15.40983606557377" height="195.82566563667862" fill="#DC267F" data-tooltip="1.26x baseline (YJIT 3.4.0dev)"/>
<line x1="897.5409836065578" y1="300.73188392778695" x2="912.9508196721315" y2="300.73188392778695" stroke-dasharray="1,0.5" stroke="#333c"/>
<line x1="897.5409836065578" y1="303.61678479885575" x2="912.9508196721315" y2="303.61678479885575" stroke-dasharray="1,0.5" stroke="#333c"/>
<line x1="905.2459016393447" y1="300.73188392778695" x2="905.2459016393447" y2="303.61678479885575" stroke-dasharray="1,0.5" stroke="#333c"/>
<line x1="889.836065573771" y1="498.0" x2="889.836065573771" y2="502.79999999999995" stroke="#000"/>
<text x="889.836065573771" y="512.4" fill="#111" font-size="small" text-anchor="end" transform="rotate(-60, 889.836065573771, 512.4)">
sequel
</text>
<rect x="928.3606557377053" y="352.6827985063964" width="15.40983606557377" height="145.3172014936036" fill="#785EF0" data-tooltip="0.94x baseline (CRuby 3.4.0dev)"/>
<rect x="943.7704918032791" y="245.21505691706088" width="15.40983606557377" height="252.78494308293907" fill="#FFB000" data-tooltip="1.63x baseline (YJIT 3.3.4)"/>
<rect x="959.1803278688528" y="243.94980741940222" width="15.40983606557377" height="254.05019258059772" fill="#DC267F" data-tooltip="1.64x baseline (YJIT 3.4.0dev)"/>
<line x1="951.4754098360661" y1="498.0" x2="951.4754098360661" y2="502.79999999999995" stroke="#000"/>
<text x="951.4754098360661" y="512.4" fill="#111" font-size="small" text-anchor="end" transform="rotate(-60, 951.4754098360661, 512.4)" font-style="italic">
geomean*
</text>
<line x1="50.0" y1="342.7465887001734" x2="990.0" y2="342.7465887001734" stroke="#648FFF" stroke-width="2"/>
<rect x="67.23483606557377" y="343.3621098099146" width="17.85" height="7.2" transform="rotate(-60, 75.11475409836066, 350.0221098099146)" fill="#fffa"/>
<text x="67.40983606557377" y="350.0221098099146" fill="#111" font-size="0.5em" text-anchor="start" textLength="17.5" transform="rotate(-60, 75.11475409836066, 350.0221098099146)" style="text-shadow: 0 0 1px #fff;">
0.90
</text>
<rect x="82.64467213114754" y="163.98218263421035" width="17.85" height="7.2" transform="rotate(-60, 90.52459016393442, 170.64218263421037)" fill="#fffa"/>
<text x="82.81967213114753" y="170.64218263421037" fill="#111" font-size="0.5em" text-anchor="start" textLength="17.5" transform="rotate(-60, 90.52459016393442, 170.64218263421037)" style="text-shadow: 0 0 1px #fff;">
2.06
</text>
<rect x="98.0545081967213" y="169.4189987215075" width="17.85" height="7.2" transform="rotate(-60, 105.93442622950819, 176.0789987215075)" fill="#fffa"/>
<text x="98.2295081967213" y="176.0789987215075" fill="#111" font-size="0.5em" text-anchor="start" textLength="17.5" transform="rotate(-60, 105.93442622950819, 176.0789987215075)" style="text-shadow: 0 0 1px #fff;">
2.03
</text>
<rect x="128.87418032786883" y="347.68025886270726" width="17.85" height="7.2" transform="rotate(-60, 136.75409836065572, 354.3402588627073)" fill="#fffa"/>
<text x="129.04918032786884" y="354.3402588627073" fill="#111" font-size="0.5em" text-anchor="start" textLength="17.5" transform="rotate(-60, 136.75409836065572, 354.3402588627073)" style="text-shadow: 0 0 1px #fff;">
0.88
</text>
<rect x="144.2840163934426" y="228.02545471389948" width="17.85" height="7.2" transform="rotate(-60, 152.1639344262295, 234.68545471389947)" fill="#fffa"/>
<text x="144.4590163934426" y="234.68545471389947" fill="#111" font-size="0.5em" text-anchor="start" textLength="17.5" transform="rotate(-60, 152.1639344262295, 234.68545471389947)" style="text-shadow: 0 0 1px #fff;">
1.65
</text>
<rect x="159.69385245901637" y="230.90494445006138" width="17.85" height="7.2" transform="rotate(-60, 167.5737704918033, 237.56494445006138)" fill="#fffa"/>
<text x="159.86885245901638" y="237.56494445006138" fill="#111" font-size="0.5em" text-anchor="start" textLength="17.5" transform="rotate(-60, 167.5737704918033, 237.56494445006138)" style="text-shadow: 0 0 1px #fff;">
1.63
</text>
<rect x="190.51352459016394" y="338.56056497065487" width="17.85" height="7.2" transform="rotate(-60, 198.39344262295083, 345.2205649706549)" fill="#fffa"/>
<text x="190.68852459016395" y="345.2205649706549" fill="#111" font-size="0.5em" text-anchor="start" textLength="17.5" transform="rotate(-60, 198.39344262295083, 345.2205649706549)" style="text-shadow: 0 0 1px #fff;">
0.94
</text>
<rect x="205.92336065573772" y="200.13157958931765" width="17.85" height="7.2" transform="rotate(-60, 213.8032786885246, 206.79157958931765)" fill="#fffa"/>
<text x="206.09836065573774" y="206.79157958931765" fill="#111" font-size="0.5em" text-anchor="start" textLength="17.5" transform="rotate(-60, 213.8032786885246, 206.79157958931765)" style="text-shadow: 0 0 1px #fff;">
1.83
</text>
<rect x="221.33319672131148" y="222.11169908553248" width="17.85" height="7.2" transform="rotate(-60, 229.2131147540984, 228.77169908553248)" fill="#fffa"/>
<text x="221.5081967213115" y="228.77169908553248" fill="#111" font-size="0.5em" text-anchor="start" textLength="17.5" transform="rotate(-60, 229.2131147540984, 228.77169908553248)" style="text-shadow: 0 0 1px #fff;">
1.69
</text>
<rect x="252.15286885245908" y="333.27337543660826" width="17.85" height="7.2" transform="rotate(-60, 260.03278688524597, 339.9333754366083)" fill="#fffa"/>
<text x="252.32786885245906" y="339.9333754366083" fill="#111" font-size="0.5em" text-anchor="start" textLength="17.5" transform="rotate(-60, 260.03278688524597, 339.9333754366083)" style="text-shadow: 0 0 1px #fff;">
0.97
</text>
<rect x="267.56270491803286" y="231.7835365088637" width="17.85" height="7.2" transform="rotate(-60, 275.4426229508197, 238.4435365088637)" fill="#fffa"/>
<text x="267.7377049180328" y="238.4435365088637" fill="#111" font-size="0.5em" text-anchor="start" textLength="17.5" transform="rotate(-60, 275.4426229508197, 238.4435365088637)" style="text-shadow: 0 0 1px #fff;">
1.62
</text>
<rect x="282.9725409836066" y="198.9287472304427" width="17.85" height="7.2" transform="rotate(-60, 290.8524590163935, 205.5887472304427)" fill="#fffa"/>
<text x="283.14754098360663" y="205.5887472304427" fill="#111" font-size="0.5em" text-anchor="start" textLength="17.5" transform="rotate(-60, 290.8524590163935, 205.5887472304427)" style="text-shadow: 0 0 1px #fff;">
1.84
</text>
<rect x="313.7922131147542" y="334.4177647765964" width="17.85" height="7.2" transform="rotate(-60, 321.67213114754105, 341.07776477659644)" fill="#fffa"/>
<text x="313.96721311475414" y="341.07776477659644" fill="#111" font-size="0.5em" text-anchor="start" textLength="17.5" transform="rotate(-60, 321.67213114754105, 341.07776477659644)" style="text-shadow: 0 0 1px #fff;">
0.96
</text>
<rect x="329.20204918032795" y="265.2045961015433" width="17.85" height="7.2" transform="rotate(-60, 337.08196721311486, 271.86459610154327)" fill="#fffa"/>
<text x="329.37704918032796" y="271.86459610154327" fill="#111" font-size="0.5em" text-anchor="start" textLength="17.5" transform="rotate(-60, 337.08196721311486, 271.86459610154327)" style="text-shadow: 0 0 1px #fff;">
1.41
</text>
<rect x="344.61188524590176" y="266.6018904637276" width="17.85" height="7.2" transform="rotate(-60, 352.4918032786886, 273.2618904637276)" fill="#fffa"/>
<text x="344.7868852459017" y="273.2618904637276" fill="#111" font-size="0.5em" text-anchor="start" textLength="17.5" transform="rotate(-60, 352.4918032786886, 273.2618904637276)" style="text-shadow: 0 0 1px #fff;">
1.40
</text>
<rect x="375.43155737704933" y="339.9094749629655" width="17.85" height="7.2" transform="rotate(-60, 383.3114754098362, 346.5694749629655)" fill="#fffa"/>
<text x="375.6065573770493" y="346.5694749629655" fill="#111" font-size="0.5em" text-anchor="start" textLength="17.5" transform="rotate(-60, 383.3114754098362, 346.5694749629655)" style="text-shadow: 0 0 1px #fff;">
0.93
</text>
<rect x="390.8413934426231" y="275.9598428211814" width="17.85" height="7.2" transform="rotate(-60, 398.72131147540995, 282.61984282118135)" fill="#fffa"/>
<text x="391.01639344262304" y="282.61984282118135" fill="#111" font-size="0.5em" text-anchor="start" textLength="17.5" transform="rotate(-60, 398.72131147540995, 282.61984282118135)" style="text-shadow: 0 0 1px #fff;">
1.34
</text>
<rect x="406.25122950819684" y="272.22717222720496" width="17.85" height="7.2" transform="rotate(-60, 414.13114754098376, 278.887172227205)" fill="#fffa"/>
<text x="406.42622950819685" y="278.887172227205" fill="#111" font-size="0.5em" text-anchor="start" textLength="17.5" transform="rotate(-60, 414.13114754098376, 278.887172227205)" style="text-shadow: 0 0 1px #fff;">
1.36
</text>
<rect x="437.0709016393444" y="334.83455067673225" width="17.85" height="7.2" transform="rotate(-60, 444.9508196721313, 341.4945506767323)" fill="#fffa"/>
<text x="437.2459016393444" y="341.4945506767323" fill="#111" font-size="0.5em" text-anchor="start" textLength="17.5" transform="rotate(-60, 444.9508196721313, 341.4945506767323)" style="text-shadow: 0 0 1px #fff;">
0.96
</text>
<rect x="452.4807377049182" y="101.11029914279302" width="17.85" height="7.2" transform="rotate(-60, 460.3606557377051, 107.77029914279302)" fill="#fffa"/>
<text x="452.6557377049182" y="107.77029914279302" fill="#111" font-size="0.5em" text-anchor="start" textLength="17.5" transform="rotate(-60, 460.3606557377051, 107.77029914279302)" style="text-shadow: 0 0 1px #fff;">
2.47
</text>
<rect x="467.890573770492" y="86.03999999999998" width="17.85" height="7.2" transform="rotate(-60, 475.77049180327884, 92.69999999999999)" fill="#fffa"/>
<text x="468.06557377049194" y="92.69999999999999" fill="#111" font-size="0.5em" text-anchor="start" textLength="17.5" transform="rotate(-60, 475.77049180327884, 92.69999999999999)" style="text-shadow: 0 0 1px #fff;">
2.56
</text>
<rect x="498.71024590163955" y="337.3029294138818" width="17.85" height="7.2" transform="rotate(-60, 506.59016393442636, 343.96292941388185)" fill="#fffa"/>
<text x="498.8852459016395" y="343.96292941388185" fill="#111" font-size="0.5em" text-anchor="start" textLength="17.5" transform="rotate(-60, 506.59016393442636, 343.96292941388185)" style="text-shadow: 0 0 1px #fff;">
0.94
</text>
<rect x="514.1200819672133" y="252.37732639694462" width="17.85" height="7.2" transform="rotate(-60, 522.0000000000001, 259.03732639694465)" fill="#fffa"/>
<text x="514.2950819672133" y="259.03732639694465" fill="#111" font-size="0.5em" text-anchor="start" textLength="17.5" transform="rotate(-60, 522.0000000000001, 259.03732639694465)" style="text-shadow: 0 0 1px #fff;">
1.49
</text>
<rect x="529.529918032787" y="255.31028202664328" width="17.85" height="7.2" transform="rotate(-60, 537.4098360655739, 261.97028202664325)" fill="#fffa"/>
<text x="529.7049180327871" y="261.97028202664325" fill="#111" font-size="0.5em" text-anchor="start" textLength="17.5" transform="rotate(-60, 537.4098360655739, 261.97028202664325)" style="text-shadow: 0 0 1px #fff;">
1.47
</text>
<rect x="560.3495901639346" y="338.37878692422527" width="17.85" height="7.2" transform="rotate(-60, 568.2295081967214, 345.0387869242253)" fill="#fffa"/>
<text x="560.5245901639346" y="345.0387869242253" fill="#111" font-size="0.5em" text-anchor="start" textLength="17.5" transform="rotate(-60, 568.2295081967214, 345.0387869242253)" style="text-shadow: 0 0 1px #fff;">
0.94
</text>
<rect x="575.7594262295083" y="261.88916312668573" width="17.85" height="7.2" transform="rotate(-60, 583.6393442622953, 268.54916312668576)" fill="#fffa"/>
<text x="575.9344262295084" y="268.54916312668576" fill="#111" font-size="0.5em" text-anchor="start" textLength="17.5" transform="rotate(-60, 583.6393442622953, 268.54916312668576)" style="text-shadow: 0 0 1px #fff;">
1.43
</text>
<rect x="591.1692622950821" y="274.59015915776547" width="17.85" height="7.2" transform="rotate(-60, 599.0491803278691, 281.2501591577655)" fill="#fffa"/>
<text x="591.3442622950822" y="281.2501591577655" fill="#111" font-size="0.5em" text-anchor="start" textLength="17.5" transform="rotate(-60, 599.0491803278691, 281.2501591577655)" style="text-shadow: 0 0 1px #fff;">
1.35
</text>
<rect x="621.9889344262297" y="340.321636606954" width="17.85" height="7.2" transform="rotate(-60, 629.8688524590166, 346.981636606954)" fill="#fffa"/>
<text x="622.1639344262297" y="346.981636606954" fill="#111" font-size="0.5em" text-anchor="start" textLength="17.5" transform="rotate(-60, 629.8688524590166, 346.981636606954)" style="text-shadow: 0 0 1px #fff;">
0.92
</text>
<rect x="637.3987704918035" y="250.13400035725286" width="17.85" height="7.2" transform="rotate(-60, 645.2786885245904, 256.79400035725286)" fill="#fffa"/>
<text x="637.5737704918035" y="256.79400035725286" fill="#111" font-size="0.5em" text-anchor="start" textLength="17.5" transform="rotate(-60, 645.2786885245904, 256.79400035725286)" style="text-shadow: 0 0 1px #fff;">
1.51
</text>
<rect x="652.8086065573773" y="226.3387258524043" width="17.85" height="7.2" transform="rotate(-60, 660.6885245901641, 232.99872585240433)" fill="#fffa"/>
<text x="652.9836065573774" y="232.99872585240433" fill="#111" font-size="0.5em" text-anchor="start" textLength="17.5" transform="rotate(-60, 660.6885245901641, 232.99872585240433)" style="text-shadow: 0 0 1px #fff;">
1.66
</text>
<rect x="683.6282786885248" y="336.5207339708393" width="17.85" height="7.2" transform="rotate(-60, 691.5081967213117, 343.1807339708393)" fill="#fffa"/>
<text x="683.8032786885249" y="343.1807339708393" fill="#111" font-size="0.5em" text-anchor="start" textLength="17.5" transform="rotate(-60, 691.5081967213117, 343.1807339708393)" style="text-shadow: 0 0 1px #fff;">
0.95
</text>
<rect x="699.0381147540986" y="220.89210834180759" width="17.85" height="7.2" transform="rotate(-60, 706.9180327868854, 227.55210834180758)" fill="#fffa"/>
<text x="699.2131147540987" y="227.55210834180758" fill="#111" font-size="0.5em" text-anchor="start" textLength="17.5" transform="rotate(-60, 706.9180327868854, 227.55210834180758)" style="text-shadow: 0 0 1px #fff;">
1.69
</text>
<rect x="714.4479508196724" y="217.00872230963475" width="17.85" height="7.2" transform="rotate(-60, 722.3278688524592, 223.66872230963475)" fill="#fffa"/>
<text x="714.6229508196724" y="223.66872230963475" fill="#111" font-size="0.5em" text-anchor="start" textLength="17.5" transform="rotate(-60, 722.3278688524592, 223.66872230963475)" style="text-shadow: 0 0 1px #fff;">
1.72
</text>
<rect x="745.2676229508199" y="336.58832190754345" width="17.85" height="7.2" transform="rotate(-60, 753.1475409836069, 343.2483219075434)" fill="#fffa"/>
<text x="745.44262295082" y="343.2483219075434" fill="#111" font-size="0.5em" text-anchor="start" textLength="17.5" transform="rotate(-60, 753.1475409836069, 343.2483219075434)" style="text-shadow: 0 0 1px #fff;">
0.95
</text>
<rect x="760.6774590163938" y="217.68881585680737" width="17.85" height="7.2" transform="rotate(-60, 768.5573770491806, 224.34881585680736)" fill="#fffa"/>
<text x="760.8524590163937" y="224.34881585680736" fill="#111" font-size="0.5em" text-anchor="start" textLength="17.5" transform="rotate(-60, 768.5573770491806, 224.34881585680736)" style="text-shadow: 0 0 1px #fff;">
1.71
</text>
<rect x="776.0872950819675" y="204.15027873194813" width="17.85" height="7.2" transform="rotate(-60, 783.9672131147544, 210.81027873194813)" fill="#fffa"/>
<text x="776.2622950819675" y="210.81027873194813" fill="#111" font-size="0.5em" text-anchor="start" textLength="17.5" transform="rotate(-60, 783.9672131147544, 210.81027873194813)" style="text-shadow: 0 0 1px #fff;">
1.80
</text>
<rect x="806.9069672131151" y="339.25885786151076" width="17.85" height="7.2" transform="rotate(-60, 814.7868852459019, 345.91885786151073)" fill="#fffa"/>
<text x="807.0819672131151" y="345.91885786151073" fill="#111" font-size="0.5em" text-anchor="start" textLength="17.5" transform="rotate(-60, 814.7868852459019, 345.91885786151073)" style="text-shadow: 0 0 1px #fff;">
0.93
</text>
<rect x="822.3168032786888" y="235.64247387368096" width="17.85" height="7.2" transform="rotate(-60, 830.1967213114757, 242.30247387368098)" fill="#fffa"/>
<text x="822.4918032786888" y="242.30247387368098" fill="#111" font-size="0.5em" text-anchor="start" textLength="17.5" transform="rotate(-60, 830.1967213114757, 242.30247387368098)" style="text-shadow: 0 0 1px #fff;">
1.60
</text>
<rect x="837.7266393442626" y="244.7949806502793" width="17.85" height="7.2" transform="rotate(-60, 845.6065573770495, 251.45498065027934)" fill="#fffa"/>
<text x="837.9016393442627" y="251.45498065027934" fill="#111" font-size="0.5em" text-anchor="start" textLength="17.5" transform="rotate(-60, 845.6065573770495, 251.45498065027934)" style="text-shadow: 0 0 1px #fff;">
1.54
</text>
<rect x="868.5463114754102" y="338.27904855326557" width="17.85" height="7.2" transform="rotate(-60, 876.426229508197, 344.9390485532656)" fill="#fffa"/>
<text x="868.7213114754102" y="344.9390485532656" fill="#111" font-size="0.5em" text-anchor="start" textLength="17.5" transform="rotate(-60, 876.426229508197, 344.9390485532656)" style="text-shadow: 0 0 1px #fff;">
0.94
</text>
<rect x="883.9561475409839" y="278.8957630033031" width="17.85" height="7.2" transform="rotate(-60, 891.8360655737708, 285.55576300330307)" fill="#fffa"/>
<text x="884.131147540984" y="285.55576300330307" fill="#111" font-size="0.5em" text-anchor="start" textLength="17.5" transform="rotate(-60, 891.8360655737708, 285.55576300330307)" style="text-shadow: 0 0 1px #fff;">
1.32
</text>
<rect x="899.3659836065577" y="288.0143343633213" width="17.85" height="7.2" transform="rotate(-60, 907.2459016393447, 294.67433436332135)" fill="#fffa"/>
<text x="899.5409836065578" y="294.67433436332135" fill="#111" font-size="0.5em" text-anchor="start" textLength="17.5" transform="rotate(-60, 907.2459016393447, 294.67433436332135)" style="text-shadow: 0 0 1px #fff;">
1.26
</text>
<rect x="930.1856557377052" y="338.52279850639644" width="17.85" height="7.2" transform="rotate(-60, 938.0655737704922, 345.18279850639647)" fill="#fffa"/>
<text x="930.3606557377053" y="345.18279850639647" fill="#111" font-size="0.5em" text-anchor="start" textLength="17.5" transform="rotate(-60, 938.0655737704922, 345.18279850639647)" style="text-shadow: 0 0 1px #fff;">
0.94
</text>
<rect x="945.5954918032791" y="231.05505691706085" width="17.85" height="7.2" transform="rotate(-60, 953.475409836066, 237.71505691706085)" fill="#fffa"/>
<text x="945.7704918032791" y="237.71505691706085" fill="#111" font-size="0.5em" text-anchor="start" textLength="17.5" transform="rotate(-60, 953.475409836066, 237.71505691706085)" style="text-shadow: 0 0 1px #fff;">
1.63
</text>
<rect x="961.0053278688529" y="229.7898074194022" width="17.85" height="7.2" transform="rotate(-60, 968.8852459016397, 236.4498074194022)" fill="#fffa"/>
<text x="961.1803278688528" y="236.4498074194022" fill="#111" font-size="0.5em" text-anchor="start" textLength="17.5" transform="rotate(-60, 968.8852459016397, 236.4498074194022)" style="text-shadow: 0 0 1px #fff;">
1.64
</text>
</svg>