<svg viewBox="0 0 1000 600" xmlns="http://www.w3.org/2000/svg" xmlns:xlink="http://www.w3.org/1999/xlink" width="100%" height="100%">

<rect x="50.0" y="30.0" width="940.0" height="467.99999999999994" stroke="#000" fill="#fff"/>
<line x1="42.0" y1="497.9999999999999" x2="50.0" y2="497.9999999999999" stroke="#000"/>
<text x="26.000000000000004" y="497.9999999999999" text-anchor="end" font-weight="bold" font-size="small" fill="#111">
0.0
</text>
<line x1="42.0" y1="433.7557365659533" x2="50.0" y2="433.7557365659533" stroke="#000"/>
<text x="26.000000000000004" y="433.7557365659533" text-anchor="end" font-weight="bold" font-size="small" fill="#111">
0.2
</text>
<line x1="42.0" y1="369.5114731319066" x2="50.0" y2="369.5114731319066" stroke="#000"/>
<text x="26.000000000000004" y="369.5114731319066" text-anchor="end" font-weight="bold" font-size="small" fill="#111">
0.4
</text>
<line x1="42.0" y1="305.26720969786" x2="50.0" y2="305.26720969786" stroke="#000"/>
<text x="26.000000000000004" y="305.26720969786" text-anchor="end" font-weight="bold" font-size="small" fill="#111">
0.6
</text>
<line x1="42.0" y1="241.02294626381337" x2="50.0" y2="241.02294626381337" stroke="#000"/>
<text x="26.000000000000004" y="241.02294626381337" text-anchor="end" font-weight="bold" font-size="small" fill="#111">
0.8
</text>
<line x1="42.0" y1="176.77868282976672" x2="50.0" y2="176.77868282976672" stroke="#000"/>
<text x="26.000000000000004" y="176.77868282976672" text-anchor="end" font-weight="bold" font-size="small" fill="#111">
1.0
</text>
<line x1="42.0" y1="112.5344193957201" x2="50.0" y2="112.5344193957201" stroke="#000"/>
<text x="26.000000000000004" y="112.5344193957201" text-anchor="end" font-weight="bold" font-size="small" fill="#111">
1.2
</text>
<line x1="178.0" y1="54.60000000000001" x2="298.0" y2="54.60000000000001" stroke="#785EF0" stroke-width="2"/>
<text x="238.0" y="49.500000000000014" font-size="small" text-anchor="middle" font-weight="bold" fill="#000">
CRuby 3.1.0dev
</text>
<rect x="459.9999999999999" y="35.400000000000006" width="120.0" height="19.2" fill="" stroke="none"/>
<text x="519.9999999999999" y="49.500000000000014" font-size="small" text-anchor="middle" font-weight="bold" fill="#fff" style="text-shadow: 0 0 1px #000;">
MJIT3.0
</text>
<rect x="742.0" y="35.400000000000006" width="120.0" height="19.2" fill="#DC267F" stroke="none"/>
<text x="801.9999999999999" y="49.500000000000014" font-size="small" text-anchor="middle" font-weight="bold" fill="#fff" style="text-shadow: 0 0 1px #000;">
YJIT 3.1.0dev
</text>
<rect x="184.28571428571428" y="194.24710921715362" width="134.28571428571428" height="303.75289078284635" fill="" data-tooltip="0.95x baseline (MJIT3.0)"/>
<line x1="184.28571428571428" y1="188.86227906226617" x2="318.57142857142856" y2="188.86227906226617" stroke-dasharray="1,0.5" stroke="#333c"/>
<line x1="184.28571428571428" y1="199.6319393720411" x2="318.57142857142856" y2="199.6319393720411" stroke-dasharray="1,0.5" stroke="#333c"/>
<line x1="251.42857142857144" y1="188.86227906226617" x2="251.42857142857144" y2="199.6319393720411" stroke-dasharray="1,0.5" stroke="#333c"/>
<rect x="318.57142857142856" y="100.19999999999999" width="134.28571428571428" height="397.79999999999995" fill="#DC267F" data-tooltip="1.24x baseline (YJIT 3.1.0dev)"/>
<line x1="318.57142857142856" y1="90.95497726285413" x2="452.85714285714283" y2="90.95497726285413" stroke-dasharray="1,0.5" stroke="#333c"/>
<line x1="318.57142857142856" y1="109.44502273714585" x2="452.85714285714283" y2="109.44502273714585" stroke-dasharray="1,0.5" stroke="#333c"/>
<line x1="385.71428571428567" y1="90.95497726285413" x2="385.71428571428567" y2="109.44502273714585" stroke-dasharray="1,0.5" stroke="#333c"/>
<line x1="318.57142857142856" y1="498.0" x2="318.57142857142856" y2="502.79999999999995" stroke="#000"/>
<text x="318.57142857142856" y="512.4" fill="#111" font-size="small" text-anchor="end" transform="rotate(-60, 318.57142857142856, 512.4)">
activerecord
</text>
<rect x="587.1428571428572" y="194.24710921715362" width="134.28571428571428" height="303.75289078284635" fill="" data-tooltip="0.95x baseline (MJIT3.0)"/>
<rect x="721.4285714285716" y="100.19999999999999" width="134.28571428571428" height="397.79999999999995" fill="#DC267F" data-tooltip="1.24x baseline (YJIT 3.1.0dev)"/>
<line x1="721.4285714285716" y1="498.0" x2="721.4285714285716" y2="502.79999999999995" stroke="#000"/>
<text x="721.4285714285716" y="512.4" fill="#111" font-size="small" text-anchor="end" transform="rotate(-60, 721.4285714285716, 512.4)" font-style="italic">
geomean*
</text>
<line x1="50.0" y1="176.77868282976672" x2="990.0" y2="176.77868282976672" stroke="#785EF0" stroke-width="2"/>
<rect x="186.11071428571427" y="180.08710921715362" width="17.85" height="7.2" transform="rotate(-60, 253.42857142857144, 186.74710921715362)" fill="#fffa"/>
<text x="186.28571428571428" y="186.74710921715362" fill="#111" font-size="0.5em" text-anchor="start" textLength="17.5" transform="rotate(-60, 253.42857142857144, 186.74710921715362)" style="text-shadow: 0 0 1px #fff;">
0.95
</text>
<rect x="320.3964285714286" y="86.03999999999998" width="17.85" height="7.2" transform="rotate(-60, 387.71428571428567, 92.69999999999999)" fill="#fffa"/>
<text x="320.57142857142856" y="92.69999999999999" fill="#111" font-size="0.5em" text-anchor="start" textLength="17.5" transform="rotate(-60, 387.71428571428567, 92.69999999999999)" style="text-shadow: 0 0 1px #fff;">
1.24
</text>
<rect x="588.9678571428572" y="180.08710921715362" width="17.85" height="7.2" transform="rotate(-60, 656.2857142857143, 186.74710921715362)" fill="#fffa"/>
<text x="589.1428571428572" y="186.74710921715362" fill="#111" font-size="0.5em" text-anchor="start" textLength="17.5" transform="rotate(-60, 656.2857142857143, 186.74710921715362)" style="text-shadow: 0 0 1px #fff;">
0.95
</text>
<rect x="723.2535714285715" y="86.03999999999998" width="17.85" height="7.2" transform="rotate(-60, 790.5714285714287, 92.69999999999999)" fill="#fffa"/>
<text x="723.4285714285716" y="92.69999999999999" fill="#111" font-size="0.5em" text-anchor="start" textLength="17.5" transform="rotate(-60, 790.5714285714287, 92.69999999999999)" style="text-shadow: 0 0 1px #fff;">
1.24
</text>
</svg>