<svg viewBox="0 0 1000 600" xmlns="http://www.w3.org/2000/svg" xmlns:xlink="http://www.w3.org/1999/xlink" width="100%" height="100%">

<rect x="50.0" y="30.0" width="940.0" height="467.99999999999994" stroke="#000" fill="#fff"/>
<line x1="42.0" y1="497.9999999999999" x2="50.0" y2="497.9999999999999" stroke="#000"/>
<text x="26.000000000000004" y="497.9999999999999" text-anchor="end" font-weight="bold" font-size="small" fill="#111">
0.0
</text>
<line x1="42.0" y1="424.20616961340886" x2="50.0" y2="424.20616961340886" stroke="#000"/>
<text x="26.000000000000004" y="424.20616961340886" text-anchor="end" font-weight="bold" font-size="small" fill="#111">
1.0
</text>
<line x1="42.0" y1="350.4123392268177" x2="50.0" y2="350.4123392268177" stroke="#000"/>
<text x="26.000000000000004" y="350.4123392268177" text-anchor="end" font-weight="bold" font-size="small" fill="#111">
2.0
</text>
<line x1="42.0" y1="276.61850884022664" x2="50.0" y2="276.61850884022664" stroke="#000"/>
<text x="26.000000000000004" y="276.61850884022664" text-anchor="end" font-weight="bold" font-size="small" fill="#111">
3.0
</text>
<line x1="42.0" y1="202.8246784536355" x2="50.0" y2="202.8246784536355" stroke="#000"/>
<text x="26.000000000000004" y="202.8246784536355" text-anchor="end" font-weight="bold" font-size="small" fill="#111">
4.0
</text>
<line x1="42.0" y1="129.0308480670444" x2="50.0" y2="129.0308480670444" stroke="#000"/>
<text x="26.000000000000004" y="129.0308480670444" text-anchor="end" font-weight="bold" font-size="small" fill="#111">
5.0
</text>
<line x1="142.75" y1="54.60000000000001" x2="262.75" y2="54.60000000000001" stroke="#648FFF" stroke-width="2"/>
<text x="202.75" y="49.500000000000014" font-size="small" text-anchor="middle" font-weight="bold" fill="#000">
CRuby 3.3.3
</text>
<rect x="354.25" y="35.400000000000006" width="120.0" height="19.2" fill="#785EF0" stroke="none"/>
<text x="414.25" y="49.500000000000014" font-size="small" text-anchor="middle" font-weight="bold" fill="#fff" style="text-shadow: 0 0 1px #000;">
CRuby 3.4.0dev
</text>
<rect x="565.75" y="35.400000000000006" width="120.0" height="19.2" fill="#FFB000" stroke="none"/>
<text x="625.7499999999999" y="49.500000000000014" font-size="small" text-anchor="middle" font-weight="bold" fill="#fff" style="text-shadow: 0 0 1px #000;">
YJIT 3.3.3
</text>
<rect x="777.25" y="35.400000000000006" width="120.0" height="19.2" fill="#DC267F" stroke="none"/>
<text x="837.2499999999999" y="49.500000000000014" font-size="small" text-anchor="middle" font-weight="bold" fill="#fff" style="text-shadow: 0 0 1px #000;">
YJIT 3.4.0dev
</text>
<rect x="61.05882352941176" y="432.69672616357553" width="11.058823529411763" height="65.30327383642431" fill="#785EF0" data-tooltip="0.88x baseline (CRuby 3.4.0dev)"/>
<line x1="61.05882352941176" y1="431.4748997158503" x2="72.11764705882352" y2="431.4748997158503" stroke-dasharray="1,0.5" stroke="#333c"/>
<line x1="61.05882352941176" y1="433.9185526113008" x2="72.11764705882352" y2="433.9185526113008" stroke-dasharray="1,0.5" stroke="#333c"/>
<line x1="66.58823529411764" y1="431.4748997158503" x2="66.58823529411764" y2="433.9185526113008" stroke-dasharray="1,0.5" stroke="#333c"/>
<rect x="72.11764705882352" y="345.05011723284326" width="11.058823529411763" height="152.94988276715668" fill="#FFB000" data-tooltip="2.07x baseline (YJIT 3.3.3)"/>
<line x1="72.11764705882352" y1="340.6888566975018" x2="83.17647058823528" y2="340.6888566975018" stroke-dasharray="1,0.5" stroke="#333c"/>
<line x1="72.11764705882352" y1="349.4113777681847" x2="83.17647058823528" y2="349.4113777681847" stroke-dasharray="1,0.5" stroke="#333c"/>
<line x1="77.6470588235294" y1="340.6888566975018" x2="77.6470588235294" y2="349.4113777681847" stroke-dasharray="1,0.5" stroke="#333c"/>
<rect x="83.17647058823528" y="360.11630200065997" width="11.058823529411763" height="137.88369799934" fill="#DC267F" data-tooltip="1.87x baseline (YJIT 3.4.0dev)"/>
<line x1="83.17647058823528" y1="356.59684450740366" x2="94.23529411764704" y2="356.59684450740366" stroke-dasharray="1,0.5" stroke="#333c"/>
<line x1="83.17647058823528" y1="363.6357594939162" x2="94.23529411764704" y2="363.6357594939162" stroke-dasharray="1,0.5" stroke="#333c"/>
<line x1="88.70588235294116" y1="356.59684450740366" x2="88.70588235294116" y2="363.6357594939162" stroke-dasharray="1,0.5" stroke="#333c"/>
<line x1="77.6470588235294" y1="498.0" x2="77.6470588235294" y2="502.79999999999995" stroke="#000"/>
<text x="77.6470588235294" y="512.4" fill="#111" font-size="small" text-anchor="end" transform="rotate(-60, 77.6470588235294, 512.4)">
binarytrees
</text>
<rect x="105.2941176470588" y="427.48155248983795" width="11.058823529411763" height="70.51844751016206" fill="#785EF0" data-tooltip="0.96x baseline (CRuby 3.4.0dev)"/>
<line x1="105.2941176470588" y1="426.4917206734811" x2="116.35294117647057" y2="426.4917206734811" stroke-dasharray="1,0.5" stroke="#333c"/>
<line x1="105.2941176470588" y1="428.47138430619486" x2="116.35294117647057" y2="428.47138430619486" stroke-dasharray="1,0.5" stroke="#333c"/>
<line x1="110.82352941176468" y1="426.4917206734811" x2="110.82352941176468" y2="428.47138430619486" stroke-dasharray="1,0.5" stroke="#333c"/>
<rect x="116.35294117647057" y="346.1099208177918" width="11.058823529411763" height="151.89007918220813" fill="#FFB000" data-tooltip="2.06x baseline (YJIT 3.3.3)"/>
<line x1="116.35294117647057" y1="345.16331486156633" x2="127.41176470588233" y2="345.16331486156633" stroke-dasharray="1,0.5" stroke="#333c"/>
<line x1="116.35294117647057" y1="347.05652677401724" x2="127.41176470588233" y2="347.05652677401724" stroke-dasharray="1,0.5" stroke="#333c"/>
<line x1="121.88235294117644" y1="345.16331486156633" x2="121.88235294117644" y2="347.05652677401724" stroke-dasharray="1,0.5" stroke="#333c"/>
<rect x="127.41176470588233" y="313.2243201347951" width="11.058823529411763" height="184.77567986520484" fill="#DC267F" data-tooltip="2.50x baseline (YJIT 3.4.0dev)"/>
<line x1="127.41176470588233" y1="311.9835463281545" x2="138.4705882352941" y2="311.9835463281545" stroke-dasharray="1,0.5" stroke="#333c"/>
<line x1="127.41176470588233" y1="314.4650939414357" x2="138.4705882352941" y2="314.4650939414357" stroke-dasharray="1,0.5" stroke="#333c"/>
<line x1="132.94117647058823" y1="311.9835463281545" x2="132.94117647058823" y2="314.4650939414357" stroke-dasharray="1,0.5" stroke="#333c"/>
<line x1="121.88235294117644" y1="498.0" x2="121.88235294117644" y2="502.79999999999995" stroke="#000"/>
<text x="121.88235294117644" y="512.4" fill="#111" font-size="small" text-anchor="end" transform="rotate(-60, 121.88235294117644, 512.4)">
blurhash
</text>
<rect x="149.52941176470586" y="433.10725397474994" width="11.058823529411763" height="64.89274602524993" fill="#785EF0" data-tooltip="0.88x baseline (CRuby 3.4.0dev)"/>
<line x1="149.52941176470586" y1="432.8378216998735" x2="160.58823529411762" y2="432.8378216998735" stroke-dasharray="1,0.5" stroke="#333c"/>
<line x1="149.52941176470586" y1="433.3766862496264" x2="160.58823529411762" y2="433.3766862496264" stroke-dasharray="1,0.5" stroke="#333c"/>
<line x1="155.05882352941174" y1="432.8378216998735" x2="155.05882352941174" y2="433.3766862496264" stroke-dasharray="1,0.5" stroke="#333c"/>
<rect x="160.58823529411762" y="414.65344704177664" width="11.058823529411763" height="83.34655295822328" fill="#FFB000" data-tooltip="1.13x baseline (YJIT 3.3.3)"/>
<line x1="160.58823529411762" y1="414.3165578163295" x2="171.64705882352936" y2="414.3165578163295" stroke-dasharray="1,0.5" stroke="#333c"/>
<line x1="160.58823529411762" y1="414.99033626722377" x2="171.64705882352936" y2="414.99033626722377" stroke-dasharray="1,0.5" stroke="#333c"/>
<line x1="166.1176470588235" y1="414.3165578163295" x2="166.1176470588235" y2="414.99033626722377" stroke-dasharray="1,0.5" stroke="#333c"/>
<rect x="171.64705882352936" y="415.48386473898637" width="11.058823529411763" height="82.51613526101353" fill="#DC267F" data-tooltip="1.12x baseline (YJIT 3.4.0dev)"/>
<line x1="171.64705882352936" y1="415.2087493499125" x2="182.70588235294113" y2="415.2087493499125" stroke-dasharray="1,0.5" stroke="#333c"/>
<line x1="171.64705882352936" y1="415.7589801280602" x2="182.70588235294113" y2="415.7589801280602" stroke-dasharray="1,0.5" stroke="#333c"/>
<line x1="177.17647058823528" y1="415.2087493499125" x2="177.17647058823528" y2="415.7589801280602" stroke-dasharray="1,0.5" stroke="#333c"/>
<line x1="166.11764705882348" y1="498.0" x2="166.11764705882348" y2="502.79999999999995" stroke="#000"/>
<text x="166.11764705882348" y="512.4" fill="#111" font-size="small" text-anchor="end" transform="rotate(-60, 166.11764705882348, 512.4)">
erubi
</text>
<rect x="193.7647058823529" y="431.3032618548382" width="11.058823529411763" height="66.69673814516182" fill="#785EF0" data-tooltip="0.90x baseline (CRuby 3.4.0dev)"/>
<line x1="193.7647058823529" y1="431.21151266025805" x2="204.82352941176467" y2="431.21151266025805" stroke-dasharray="1,0.5" stroke="#333c"/>
<line x1="193.7647058823529" y1="431.39501104941826" x2="204.82352941176467" y2="431.39501104941826" stroke-dasharray="1,0.5" stroke="#333c"/>
<line x1="199.29411764705878" y1="431.21151266025805" x2="199.29411764705878" y2="431.39501104941826" stroke-dasharray="1,0.5" stroke="#333c"/>
<rect x="204.82352941176467" y="417.1946430513817" width="11.058823529411763" height="80.80535694861823" fill="#FFB000" data-tooltip="1.10x baseline (YJIT 3.3.3)"/>
<line x1="204.82352941176467" y1="417.0652014309207" x2="215.8823529411764" y2="417.0652014309207" stroke-dasharray="1,0.5" stroke="#333c"/>
<line x1="204.82352941176467" y1="417.32408467184274" x2="215.8823529411764" y2="417.32408467184274" stroke-dasharray="1,0.5" stroke="#333c"/>
<line x1="210.35294117647055" y1="417.0652014309207" x2="210.35294117647055" y2="417.32408467184274" stroke-dasharray="1,0.5" stroke="#333c"/>
<rect x="215.8823529411764" y="420.3035253973729" width="11.058823529411763" height="77.69647460262703" fill="#DC267F" data-tooltip="1.05x baseline (YJIT 3.4.0dev)"/>
<line x1="215.8823529411764" y1="420.2153604439127" x2="226.94117647058818" y2="420.2153604439127" stroke-dasharray="1,0.5" stroke="#333c"/>
<line x1="215.8823529411764" y1="420.39169035083313" x2="226.94117647058818" y2="420.39169035083313" stroke-dasharray="1,0.5" stroke="#333c"/>
<line x1="221.41176470588232" y1="420.2153604439127" x2="221.41176470588232" y2="420.39169035083313" stroke-dasharray="1,0.5" stroke="#333c"/>
<line x1="210.35294117647052" y1="498.0" x2="210.35294117647052" y2="502.79999999999995" stroke="#000"/>
<text x="210.35294117647052" y="512.4" fill="#111" font-size="small" text-anchor="end" transform="rotate(-60, 210.35294117647052, 512.4)">
etanni
</text>
<rect x="237.99999999999994" y="424.54001324871854" width="11.058823529411763" height="73.45998675128135" fill="#785EF0" data-tooltip="1.00x baseline (CRuby 3.4.0dev)"/>
<line x1="237.99999999999994" y1="423.453662732453" x2="249.05882352941168" y2="423.453662732453" stroke-dasharray="1,0.5" stroke="#333c"/>
<line x1="237.99999999999994" y1="425.62636376498403" x2="249.05882352941168" y2="425.62636376498403" stroke-dasharray="1,0.5" stroke="#333c"/>
<line x1="243.52941176470583" y1="423.453662732453" x2="243.52941176470583" y2="425.62636376498403" stroke-dasharray="1,0.5" stroke="#333c"/>
<rect x="249.05882352941168" y="225.91357072891483" width="11.058823529411763" height="272.0864292710851" fill="#FFB000" data-tooltip="3.69x baseline (YJIT 3.3.3)"/>
<line x1="249.05882352941168" y1="223.17233326573" x2="260.1176470588235" y2="223.17233326573" stroke-dasharray="1,0.5" stroke="#333c"/>
<line x1="249.05882352941168" y1="228.6548081920997" x2="260.1176470588235" y2="228.6548081920997" stroke-dasharray="1,0.5" stroke="#333c"/>
<line x1="254.58823529411757" y1="223.17233326573" x2="254.58823529411757" y2="228.6548081920997" stroke-dasharray="1,0.5" stroke="#333c"/>
<rect x="260.1176470588235" y="204.31565621329253" width="11.058823529411763" height="293.6843437867074" fill="#DC267F" data-tooltip="3.98x baseline (YJIT 3.4.0dev)"/>
<line x1="260.1176470588235" y1="201.27553777324673" x2="271.17647058823525" y2="201.27553777324673" stroke-dasharray="1,0.5" stroke="#333c"/>
<line x1="260.1176470588235" y1="207.35577465333833" x2="271.17647058823525" y2="207.35577465333833" stroke-dasharray="1,0.5" stroke="#333c"/>
<line x1="265.64705882352933" y1="201.27553777324673" x2="265.64705882352933" y2="207.35577465333833" stroke-dasharray="1,0.5" stroke="#333c"/>
<line x1="254.58823529411757" y1="498.0" x2="254.58823529411757" y2="502.79999999999995" stroke="#000"/>
<text x="254.58823529411757" y="512.4" fill="#111" font-size="small" text-anchor="end" transform="rotate(-60, 254.58823529411757, 512.4)">
fannkuchredux
</text>
<rect x="282.235294117647" y="433.1242823014116" width="11.058823529411763" height="64.87571769858836" fill="#785EF0" data-tooltip="0.88x baseline (CRuby 3.4.0dev)"/>
<line x1="282.235294117647" y1="432.7076540282873" x2="293.29411764705884" y2="432.7076540282873" stroke-dasharray="1,0.5" stroke="#333c"/>
<line x1="282.235294117647" y1="433.54091057453587" x2="293.29411764705884" y2="433.54091057453587" stroke-dasharray="1,0.5" stroke="#333c"/>
<line x1="287.7647058823529" y1="432.7076540282873" x2="287.7647058823529" y2="433.54091057453587" stroke-dasharray="1,0.5" stroke="#333c"/>
<rect x="293.29411764705884" y="413.7856425481932" width="11.058823529411763" height="84.21435745180673" fill="#FFB000" data-tooltip="1.14x baseline (YJIT 3.3.3)"/>
<line x1="293.29411764705884" y1="412.8950578560462" x2="304.3529411764706" y2="412.8950578560462" stroke-dasharray="1,0.5" stroke="#333c"/>
<line x1="293.29411764705884" y1="414.6762272403402" x2="304.3529411764706" y2="414.6762272403402" stroke-dasharray="1,0.5" stroke="#333c"/>
<line x1="298.8235294117647" y1="412.8950578560462" x2="298.8235294117647" y2="414.6762272403402" stroke-dasharray="1,0.5" stroke="#333c"/>
<rect x="304.3529411764706" y="426.64798049854886" width="11.058823529411763" height="71.3520195014511" fill="#DC267F" data-tooltip="0.97x baseline (YJIT 3.4.0dev)"/>
<line x1="304.3529411764706" y1="426.23323106750723" x2="315.4117647058824" y2="426.23323106750723" stroke-dasharray="1,0.5" stroke="#333c"/>
<line x1="304.3529411764706" y1="427.06272992959043" x2="315.4117647058824" y2="427.06272992959043" stroke-dasharray="1,0.5" stroke="#333c"/>
<line x1="309.8823529411765" y1="426.23323106750723" x2="309.8823529411765" y2="427.06272992959043" stroke-dasharray="1,0.5" stroke="#333c"/>
<line x1="298.8235294117647" y1="498.0" x2="298.8235294117647" y2="502.79999999999995" stroke="#000"/>
<text x="298.8235294117647" y="512.4" fill="#111" font-size="small" text-anchor="end" transform="rotate(-60, 298.8235294117647, 512.4)">
fluentd
</text>
<rect x="326.4705882352942" y="427.40076557857446" width="11.058823529411763" height="70.59923442142552" fill="#785EF0" data-tooltip="0.96x baseline (CRuby 3.4.0dev)"/>
<line x1="326.4705882352942" y1="427.2433585612863" x2="337.52941176470597" y2="427.2433585612863" stroke-dasharray="1,0.5" stroke="#333c"/>
<line x1="326.4705882352942" y1="427.5581725958627" x2="337.52941176470597" y2="427.5581725958627" stroke-dasharray="1,0.5" stroke="#333c"/>
<line x1="332.00000000000006" y1="427.2433585612863" x2="332.00000000000006" y2="427.5581725958627" stroke-dasharray="1,0.5" stroke="#333c"/>
<rect x="337.52941176470597" y="407.3347082787743" width="11.058823529411763" height="90.66529172122561" fill="#FFB000" data-tooltip="1.23x baseline (YJIT 3.3.3)"/>
<line x1="337.52941176470597" y1="407.1301304817259" x2="348.58823529411774" y2="407.1301304817259" stroke-dasharray="1,0.5" stroke="#333c"/>
<line x1="337.52941176470597" y1="407.53928607582264" x2="348.58823529411774" y2="407.53928607582264" stroke-dasharray="1,0.5" stroke="#333c"/>
<line x1="343.0588235294119" y1="407.1301304817259" x2="343.0588235294119" y2="407.53928607582264" stroke-dasharray="1,0.5" stroke="#333c"/>
<rect x="348.58823529411774" y="412.8845458047198" width="11.058823529411763" height="85.11545419528014" fill="#DC267F" data-tooltip="1.15x baseline (YJIT 3.4.0dev)"/>
<line x1="348.58823529411774" y1="412.7031959009059" x2="359.64705882352956" y2="412.7031959009059" stroke-dasharray="1,0.5" stroke="#333c"/>
<line x1="348.58823529411774" y1="413.06589570853373" x2="359.64705882352956" y2="413.06589570853373" stroke-dasharray="1,0.5" stroke="#333c"/>
<line x1="354.11764705882365" y1="412.7031959009059" x2="354.11764705882365" y2="413.06589570853373" stroke-dasharray="1,0.5" stroke="#333c"/>
<line x1="343.0588235294119" y1="498.0" x2="343.0588235294119" y2="502.79999999999995" stroke="#000"/>
<text x="343.0588235294119" y="512.4" fill="#111" font-size="small" text-anchor="end" transform="rotate(-60, 343.0588235294119, 512.4)">
graphql
</text>
<rect x="370.70588235294133" y="432.02779114266195" width="11.058823529411763" height="65.97220885733793" fill="#785EF0" data-tooltip="0.89x baseline (CRuby 3.4.0dev)"/>
<line x1="370.70588235294133" y1="431.8725951854051" x2="381.7647058823531" y2="431.8725951854051" stroke-dasharray="1,0.5" stroke="#333c"/>
<line x1="370.70588235294133" y1="432.18298709991876" x2="381.7647058823531" y2="432.18298709991876" stroke-dasharray="1,0.5" stroke="#333c"/>
<line x1="376.23529411764724" y1="431.8725951854051" x2="376.23529411764724" y2="432.18298709991876" stroke-dasharray="1,0.5" stroke="#333c"/>
<rect x="381.7647058823531" y="417.89084598987574" width="11.058823529411763" height="80.1091540101242" fill="#FFB000" data-tooltip="1.09x baseline (YJIT 3.3.3)"/>
<line x1="381.7647058823531" y1="417.7663453443402" x2="392.8235294117649" y2="417.7663453443402" stroke-dasharray="1,0.5" stroke="#333c"/>
<line x1="381.7647058823531" y1="418.01534663541133" x2="392.8235294117649" y2="418.01534663541133" stroke-dasharray="1,0.5" stroke="#333c"/>
<line x1="387.294117647059" y1="417.7663453443402" x2="387.294117647059" y2="418.01534663541133" stroke-dasharray="1,0.5" stroke="#333c"/>
<rect x="392.8235294117649" y="429.43856996949467" width="11.058823529411763" height="68.56143003050525" fill="#DC267F" data-tooltip="0.93x baseline (YJIT 3.4.0dev)"/>
<line x1="392.8235294117649" y1="429.03167348814145" x2="403.8823529411767" y2="429.03167348814145" stroke-dasharray="1,0.5" stroke="#333c"/>
<line x1="392.8235294117649" y1="429.8454664508479" x2="403.8823529411767" y2="429.8454664508479" stroke-dasharray="1,0.5" stroke="#333c"/>
<line x1="398.3529411764708" y1="429.03167348814145" x2="398.3529411764708" y2="429.8454664508479" stroke-dasharray="1,0.5" stroke="#333c"/>
<line x1="387.294117647059" y1="498.0" x2="387.294117647059" y2="502.79999999999995" stroke="#000"/>
<text x="387.294117647059" y="512.4" fill="#111" font-size="small" text-anchor="end" transform="rotate(-60, 387.294117647059, 512.4)">
graphql-native
</text>
<rect x="414.94117647058846" y="430.46733010222374" width="11.058823529411763" height="67.5326698977762" fill="#785EF0" data-tooltip="0.92x baseline (CRuby 3.4.0dev)"/>
<line x1="414.94117647058846" y1="429.7673734321101" x2="426.0000000000003" y2="429.7673734321101" stroke-dasharray="1,0.5" stroke="#333c"/>
<line x1="414.94117647058846" y1="431.1672867723374" x2="426.0000000000003" y2="431.1672867723374" stroke-dasharray="1,0.5" stroke="#333c"/>
<line x1="420.4705882352944" y1="429.7673734321101" x2="420.4705882352944" y2="431.1672867723374" stroke-dasharray="1,0.5" stroke="#333c"/>
<rect x="426.0000000000003" y="391.8669569592692" width="11.058823529411763" height="106.1330430407307" fill="#FFB000" data-tooltip="1.44x baseline (YJIT 3.3.3)"/>
<line x1="426.0000000000003" y1="390.16724537000204" x2="437.05882352941205" y2="390.16724537000204" stroke-dasharray="1,0.5" stroke="#333c"/>
<line x1="426.0000000000003" y1="393.56666854853637" x2="437.05882352941205" y2="393.56666854853637" stroke-dasharray="1,0.5" stroke="#333c"/>
<line x1="431.52941176470614" y1="390.16724537000204" x2="431.52941176470614" y2="393.56666854853637" stroke-dasharray="1,0.5" stroke="#333c"/>
<rect x="437.05882352941205" y="397.85676669978426" width="11.058823529411763" height="100.14323330021571" fill="#DC267F" data-tooltip="1.36x baseline (YJIT 3.4.0dev)"/>
<line x1="437.05882352941205" y1="396.82626129670496" x2="448.1176470588238" y2="396.82626129670496" stroke-dasharray="1,0.5" stroke="#333c"/>
<line x1="437.05882352941205" y1="398.8872721028635" x2="448.1176470588238" y2="398.8872721028635" stroke-dasharray="1,0.5" stroke="#333c"/>
<line x1="442.58823529411796" y1="396.82626129670496" x2="442.58823529411796" y2="398.8872721028635" stroke-dasharray="1,0.5" stroke="#333c"/>
<line x1="431.52941176470614" y1="498.0" x2="431.52941176470614" y2="502.79999999999995" stroke="#000"/>
<text x="431.52941176470614" y="512.4" fill="#111" font-size="small" text-anchor="end" transform="rotate(-60, 431.52941176470614, 512.4)">
lee
</text>
<rect x="459.17647058823565" y="430.8663526585854" width="11.058823529411763" height="67.13364734141457" fill="#785EF0" data-tooltip="0.91x baseline (CRuby 3.4.0dev)"/>
<line x1="459.17647058823565" y1="427.79878777625777" x2="470.2352941176474" y2="427.79878777625777" stroke-dasharray="1,0.5" stroke="#333c"/>
<line x1="459.17647058823565" y1="433.93391754091306" x2="470.2352941176474" y2="433.93391754091306" stroke-dasharray="1,0.5" stroke="#333c"/>
<line x1="464.7058823529415" y1="427.79878777625777" x2="464.7058823529415" y2="433.93391754091306" stroke-dasharray="1,0.5" stroke="#333c"/>
<rect x="470.2352941176474" y="380.55496964839944" width="11.058823529411763" height="117.44503035160042" fill="#FFB000" data-tooltip="1.59x baseline (YJIT 3.3.3)"/>
<line x1="470.2352941176474" y1="380.10180678526746" x2="481.2941176470592" y2="380.10180678526746" stroke-dasharray="1,0.5" stroke="#333c"/>
<line x1="470.2352941176474" y1="381.00813251153147" x2="481.2941176470592" y2="381.00813251153147" stroke-dasharray="1,0.5" stroke="#333c"/>
<line x1="475.7647058823533" y1="380.10180678526746" x2="475.7647058823533" y2="381.00813251153147" stroke-dasharray="1,0.5" stroke="#333c"/>
<rect x="481.2941176470592" y="370.210234602455" width="11.058823529411763" height="127.78976539754498" fill="#DC267F" data-tooltip="1.73x baseline (YJIT 3.4.0dev)"/>
<line x1="481.2941176470592" y1="369.72057143434057" x2="492.352941176471" y2="369.72057143434057" stroke-dasharray="1,0.5" stroke="#333c"/>
<line x1="481.2941176470592" y1="370.6998977705694" x2="492.352941176471" y2="370.6998977705694" stroke-dasharray="1,0.5" stroke="#333c"/>
<line x1="486.8235294117651" y1="369.72057143434057" x2="486.8235294117651" y2="370.6998977705694" stroke-dasharray="1,0.5" stroke="#333c"/>
<line x1="475.7647058823533" y1="498.0" x2="475.7647058823533" y2="502.79999999999995" stroke="#000"/>
<text x="475.7647058823533" y="512.4" fill="#111" font-size="small" text-anchor="end" transform="rotate(-60, 475.7647058823533, 512.4)">
matmul
</text>
<rect x="503.4117647058828" y="425.5942076944399" width="11.058823529411763" height="72.40579230555997" fill="#785EF0" data-tooltip="0.98x baseline (CRuby 3.4.0dev)"/>
<line x1="503.4117647058828" y1="424.52343133261826" x2="514.4705882352946" y2="424.52343133261826" stroke-dasharray="1,0.5" stroke="#333c"/>
<line x1="503.4117647058828" y1="426.6649840562615" x2="514.4705882352946" y2="426.6649840562615" stroke-dasharray="1,0.5" stroke="#333c"/>
<line x1="508.9411764705887" y1="424.52343133261826" x2="508.9411764705887" y2="426.6649840562615" stroke-dasharray="1,0.5" stroke="#333c"/>
<rect x="514.4705882352946" y="353.31755673673587" width="11.058823529411763" height="144.68244326326405" fill="#FFB000" data-tooltip="1.96x baseline (YJIT 3.3.3)"/>
<line x1="514.4705882352946" y1="351.8436220892742" x2="525.5294117647063" y2="351.8436220892742" stroke-dasharray="1,0.5" stroke="#333c"/>
<line x1="514.4705882352946" y1="354.79149138419757" x2="525.5294117647063" y2="354.79149138419757" stroke-dasharray="1,0.5" stroke="#333c"/>
<line x1="520.0000000000005" y1="351.8436220892742" x2="520.0000000000005" y2="354.79149138419757" stroke-dasharray="1,0.5" stroke="#333c"/>
<rect x="525.5294117647063" y="337.0546072942869" width="11.058823529411763" height="160.94539270571312" fill="#DC267F" data-tooltip="2.18x baseline (YJIT 3.4.0dev)"/>
<line x1="525.5294117647063" y1="335.33577210093057" x2="536.5882352941181" y2="335.33577210093057" stroke-dasharray="1,0.5" stroke="#333c"/>
<line x1="525.5294117647063" y1="338.77344248764314" x2="536.5882352941181" y2="338.77344248764314" stroke-dasharray="1,0.5" stroke="#333c"/>
<line x1="531.0588235294123" y1="335.33577210093057" x2="531.0588235294123" y2="338.77344248764314" stroke-dasharray="1,0.5" stroke="#333c"/>
<line x1="520.0000000000005" y1="498.0" x2="520.0000000000005" y2="502.79999999999995" stroke="#000"/>
<text x="520.0000000000005" y="512.4" fill="#111" font-size="small" text-anchor="end" transform="rotate(-60, 520.0000000000005, 512.4)">
nbody
</text>
<rect x="547.64705882353" y="427.49564529157357" width="11.058823529411763" height="70.50435470842642" fill="#785EF0" data-tooltip="0.96x baseline (CRuby 3.4.0dev)"/>
<line x1="547.64705882353" y1="425.39861094674603" x2="558.7058823529417" y2="425.39861094674603" stroke-dasharray="1,0.5" stroke="#333c"/>
<line x1="547.64705882353" y1="429.5926796364011" x2="558.7058823529417" y2="429.5926796364011" stroke-dasharray="1,0.5" stroke="#333c"/>
<line x1="553.1764705882358" y1="425.39861094674603" x2="553.1764705882358" y2="429.5926796364011" stroke-dasharray="1,0.5" stroke="#333c"/>
<rect x="558.7058823529417" y="422.058677618889" width="11.058823529411763" height="75.94132238111101" fill="#FFB000" data-tooltip="1.03x baseline (YJIT 3.3.3)"/>
<line x1="558.7058823529417" y1="419.65243866704293" x2="569.7647058823535" y2="419.65243866704293" stroke-dasharray="1,0.5" stroke="#333c"/>
<line x1="558.7058823529417" y1="424.4649165707351" x2="569.7647058823535" y2="424.4649165707351" stroke-dasharray="1,0.5" stroke="#333c"/>
<line x1="564.2352941176476" y1="419.65243866704293" x2="564.2352941176476" y2="424.4649165707351" stroke-dasharray="1,0.5" stroke="#333c"/>
<rect x="569.7647058823535" y="100.19999999999999" width="11.058823529411763" height="397.79999999999995" fill="#DC267F" data-tooltip="5.39x baseline (YJIT 3.4.0dev)"/>
<line x1="569.7647058823535" y1="93.75767966839118" x2="580.8235294117653" y2="93.75767966839118" stroke-dasharray="1,0.5" stroke="#333c"/>
<line x1="569.7647058823535" y1="106.6423203316088" x2="580.8235294117653" y2="106.6423203316088" stroke-dasharray="1,0.5" stroke="#333c"/>
<line x1="575.2941176470594" y1="93.75767966839118" x2="575.2941176470594" y2="106.6423203316088" stroke-dasharray="1,0.5" stroke="#333c"/>
<line x1="564.2352941176476" y1="498.0" x2="564.2352941176476" y2="502.79999999999995" stroke="#000"/>
<text x="564.2352941176476" y="512.4" fill="#111" font-size="small" text-anchor="end" transform="rotate(-60, 564.2352941176476, 512.4)">
nqueens
</text>
<rect x="591.882352941177" y="425.9429551331708" width="11.058823529411763" height="72.05704486682905" fill="#785EF0" data-tooltip="0.98x baseline (CRuby 3.4.0dev)"/>
<line x1="591.882352941177" y1="425.43385364450893" x2="602.9411764705889" y2="425.43385364450893" stroke-dasharray="1,0.5" stroke="#333c"/>
<line x1="591.882352941177" y1="426.4520566218327" x2="602.9411764705889" y2="426.4520566218327" stroke-dasharray="1,0.5" stroke="#333c"/>
<line x1="597.411764705883" y1="425.43385364450893" x2="597.411764705883" y2="426.4520566218327" stroke-dasharray="1,0.5" stroke="#333c"/>
<rect x="602.9411764705889" y="324.00411623778615" width="11.058823529411763" height="173.99588376221377" fill="#FFB000" data-tooltip="2.36x baseline (YJIT 3.3.3)"/>
<line x1="602.9411764705889" y1="322.7300219266612" x2="614.0000000000007" y2="322.7300219266612" stroke-dasharray="1,0.5" stroke="#333c"/>
<line x1="602.9411764705889" y1="325.27821054891115" x2="614.0000000000007" y2="325.27821054891115" stroke-dasharray="1,0.5" stroke="#333c"/>
<line x1="608.4705882352947" y1="322.7300219266612" x2="608.4705882352947" y2="325.27821054891115" stroke-dasharray="1,0.5" stroke="#333c"/>
<rect x="614.0000000000007" y="340.04001085527534" width="11.058823529411763" height="157.95998914472457" fill="#DC267F" data-tooltip="2.14x baseline (YJIT 3.4.0dev)"/>
<line x1="614.0000000000007" y1="339.05440911808626" x2="625.0588235294124" y2="339.05440911808626" stroke-dasharray="1,0.5" stroke="#333c"/>
<line x1="614.0000000000007" y1="341.0256125924644" x2="625.0588235294124" y2="341.0256125924644" stroke-dasharray="1,0.5" stroke="#333c"/>
<line x1="619.5294117647065" y1="339.05440911808626" x2="619.5294117647065" y2="341.0256125924644" stroke-dasharray="1,0.5" stroke="#333c"/>
<line x1="608.4705882352947" y1="498.0" x2="608.4705882352947" y2="502.79999999999995" stroke="#000"/>
<text x="608.4705882352947" y="512.4" fill="#111" font-size="small" text-anchor="end" transform="rotate(-60, 608.4705882352947, 512.4)">
optcarrot
</text>
<rect x="636.1176470588242" y="425.57564724815586" width="11.058823529411763" height="72.42435275184408" fill="#785EF0" data-tooltip="0.98x baseline (CRuby 3.4.0dev)"/>
<line x1="636.1176470588242" y1="424.22688423376513" x2="647.176470588236" y2="424.22688423376513" stroke-dasharray="1,0.5" stroke="#333c"/>
<line x1="636.1176470588242" y1="426.9244102625466" x2="647.176470588236" y2="426.9244102625466" stroke-dasharray="1,0.5" stroke="#333c"/>
<line x1="641.6470588235301" y1="424.22688423376513" x2="641.6470588235301" y2="426.9244102625466" stroke-dasharray="1,0.5" stroke="#333c"/>
<rect x="647.176470588236" y="340.6431249844751" width="11.058823529411763" height="157.35687501552488" fill="#FFB000" data-tooltip="2.13x baseline (YJIT 3.3.3)"/>
<line x1="647.176470588236" y1="339.22919798475704" x2="658.2352941176478" y2="339.22919798475704" stroke-dasharray="1,0.5" stroke="#333c"/>
<line x1="647.176470588236" y1="342.05705198419315" x2="658.2352941176478" y2="342.05705198419315" stroke-dasharray="1,0.5" stroke="#333c"/>
<line x1="652.7058823529419" y1="339.22919798475704" x2="652.7058823529419" y2="342.05705198419315" stroke-dasharray="1,0.5" stroke="#333c"/>
<rect x="658.2352941176478" y="263.6665653379346" width="11.058823529411763" height="234.3334346620653" fill="#DC267F" data-tooltip="3.18x baseline (YJIT 3.4.0dev)"/>
<line x1="658.2352941176478" y1="261.5561675738996" x2="669.2941176470596" y2="261.5561675738996" stroke-dasharray="1,0.5" stroke="#333c"/>
<line x1="658.2352941176478" y1="265.7769631019697" x2="669.2941176470596" y2="265.7769631019697" stroke-dasharray="1,0.5" stroke="#333c"/>
<line x1="663.7647058823537" y1="261.5561675738996" x2="663.7647058823537" y2="265.7769631019697" stroke-dasharray="1,0.5" stroke="#333c"/>
<line x1="652.7058823529419" y1="498.0" x2="652.7058823529419" y2="502.79999999999995" stroke="#000"/>
<text x="652.7058823529419" y="512.4" fill="#111" font-size="small" text-anchor="end" transform="rotate(-60, 652.7058823529419, 512.4)">
protoboeuf
</text>
<rect x="680.3529411764714" y="423.3044095173698" width="11.058823529411763" height="74.69559048263017" fill="#785EF0" data-tooltip="1.01x baseline (CRuby 3.4.0dev)"/>
<line x1="680.3529411764714" y1="422.4848642336524" x2="691.4117647058831" y2="422.4848642336524" stroke-dasharray="1,0.5" stroke="#333c"/>
<line x1="680.3529411764714" y1="424.1239548010872" x2="691.4117647058831" y2="424.1239548010872" stroke-dasharray="1,0.5" stroke="#333c"/>
<line x1="685.8823529411773" y1="422.4848642336524" x2="685.8823529411773" y2="424.1239548010872" stroke-dasharray="1,0.5" stroke="#333c"/>
<rect x="691.4117647058831" y="389.1734207567147" width="11.058823529411763" height="108.82657924328525" fill="#FFB000" data-tooltip="1.47x baseline (YJIT 3.3.3)"/>
<line x1="691.4117647058831" y1="388.4215411230607" x2="702.4705882352949" y2="388.4215411230607" stroke-dasharray="1,0.5" stroke="#333c"/>
<line x1="691.4117647058831" y1="389.92530039036865" x2="702.4705882352949" y2="389.92530039036865" stroke-dasharray="1,0.5" stroke="#333c"/>
<line x1="696.9411764705891" y1="388.4215411230607" x2="696.9411764705891" y2="389.92530039036865" stroke-dasharray="1,0.5" stroke="#333c"/>
<rect x="702.4705882352949" y="366.06761270523174" width="11.058823529411763" height="131.93238729476823" fill="#DC267F" data-tooltip="1.79x baseline (YJIT 3.4.0dev)"/>
<line x1="702.4705882352949" y1="364.96375524705627" x2="713.5294117647068" y2="364.96375524705627" stroke-dasharray="1,0.5" stroke="#333c"/>
<line x1="702.4705882352949" y1="367.17147016340715" x2="713.5294117647068" y2="367.17147016340715" stroke-dasharray="1,0.5" stroke="#333c"/>
<line x1="708.0000000000008" y1="364.96375524705627" x2="708.0000000000008" y2="367.17147016340715" stroke-dasharray="1,0.5" stroke="#333c"/>
<line x1="696.9411764705891" y1="498.0" x2="696.9411764705891" y2="502.79999999999995" stroke="#000"/>
<text x="696.9411764705891" y="512.4" fill="#111" font-size="small" text-anchor="end" transform="rotate(-60, 696.9411764705891, 512.4)">
protoboeuf-encode
</text>
<rect x="724.5882352941185" y="429.2738514061456" width="11.058823529411763" height="68.72614859385443" fill="#785EF0" data-tooltip="0.93x baseline (CRuby 3.4.0dev)"/>
<line x1="724.5882352941185" y1="428.8368232783007" x2="735.6470588235303" y2="428.8368232783007" stroke-dasharray="1,0.5" stroke="#333c"/>
<line x1="724.5882352941185" y1="429.7108795339904" x2="735.6470588235303" y2="429.7108795339904" stroke-dasharray="1,0.5" stroke="#333c"/>
<line x1="730.1176470588244" y1="428.8368232783007" x2="730.1176470588244" y2="429.7108795339904" stroke-dasharray="1,0.5" stroke="#333c"/>
<rect x="735.6470588235303" y="389.9992615207021" width="11.058823529411763" height="108.00073847929788" fill="#FFB000" data-tooltip="1.46x baseline (YJIT 3.3.3)"/>
<line x1="735.6470588235303" y1="389.2312747301145" x2="746.7058823529421" y2="389.2312747301145" stroke-dasharray="1,0.5" stroke="#333c"/>
<line x1="735.6470588235303" y1="390.7672483112897" x2="746.7058823529421" y2="390.7672483112897" stroke-dasharray="1,0.5" stroke="#333c"/>
<line x1="741.1764705882363" y1="389.2312747301145" x2="741.1764705882363" y2="390.7672483112897" stroke-dasharray="1,0.5" stroke="#333c"/>
<rect x="746.7058823529421" y="396.8491465387182" width="11.058823529411763" height="101.15085346128177" fill="#DC267F" data-tooltip="1.37x baseline (YJIT 3.4.0dev)"/>
<line x1="746.7058823529421" y1="395.70774613792213" x2="757.764705882354" y2="395.70774613792213" stroke-dasharray="1,0.5" stroke="#333c"/>
<line x1="746.7058823529421" y1="397.99054693951416" x2="757.764705882354" y2="397.99054693951416" stroke-dasharray="1,0.5" stroke="#333c"/>
<line x1="752.235294117648" y1="395.70774613792213" x2="752.235294117648" y2="397.99054693951416" stroke-dasharray="1,0.5" stroke="#333c"/>
<line x1="741.1764705882363" y1="498.0" x2="741.1764705882363" y2="502.79999999999995" stroke="#000"/>
<text x="741.1764705882363" y="512.4" fill="#111" font-size="small" text-anchor="end" transform="rotate(-60, 741.1764705882363, 512.4)">
rack
</text>
<rect x="768.8235294117657" y="426.9411897785402" width="11.058823529411763" height="71.05881022145967" fill="#785EF0" data-tooltip="0.96x baseline (CRuby 3.4.0dev)"/>
<line x1="768.8235294117657" y1="426.86837286030743" x2="779.8823529411775" y2="426.86837286030743" stroke-dasharray="1,0.5" stroke="#333c"/>
<line x1="768.8235294117657" y1="427.01400669677304" x2="779.8823529411775" y2="427.01400669677304" stroke-dasharray="1,0.5" stroke="#333c"/>
<line x1="774.3529411764716" y1="426.86837286030743" x2="774.3529411764716" y2="427.01400669677304" stroke-dasharray="1,0.5" stroke="#333c"/>
<rect x="779.8823529411775" y="407.6734600870224" width="11.058823529411763" height="90.32653991297754" fill="#FFB000" data-tooltip="1.22x baseline (YJIT 3.3.3)"/>
<line x1="779.8823529411775" y1="407.5152791234333" x2="790.9411764705893" y2="407.5152791234333" stroke-dasharray="1,0.5" stroke="#333c"/>
<line x1="779.8823529411775" y1="407.8316410506116" x2="790.9411764705893" y2="407.8316410506116" stroke-dasharray="1,0.5" stroke="#333c"/>
<line x1="785.4117647058833" y1="407.5152791234333" x2="785.4117647058833" y2="407.8316410506116" stroke-dasharray="1,0.5" stroke="#333c"/>
<rect x="790.9411764705893" y="412.344454917711" width="11.058823529411763" height="85.65554508228898" fill="#DC267F" data-tooltip="1.16x baseline (YJIT 3.4.0dev)"/>
<line x1="790.9411764705893" y1="412.250194262802" x2="802.000000000001" y2="412.250194262802" stroke-dasharray="1,0.5" stroke="#333c"/>
<line x1="790.9411764705893" y1="412.43871557262" x2="802.000000000001" y2="412.43871557262" stroke-dasharray="1,0.5" stroke="#333c"/>
<line x1="796.4705882352952" y1="412.250194262802" x2="796.4705882352952" y2="412.43871557262" stroke-dasharray="1,0.5" stroke="#333c"/>
<line x1="785.4117647058833" y1="498.0" x2="785.4117647058833" y2="502.79999999999995" stroke="#000"/>
<text x="785.4117647058833" y="512.4" fill="#111" font-size="small" text-anchor="end" transform="rotate(-60, 785.4117647058833, 512.4)">
ruby-json
</text>
<rect x="813.0588235294128" y="431.85748794271996" width="11.058823529411763" height="66.14251205728002" fill="#785EF0" data-tooltip="0.90x baseline (CRuby 3.4.0dev)"/>
<line x1="813.0588235294128" y1="431.32890802222647" x2="824.1176470588247" y2="431.32890802222647" stroke-dasharray="1,0.5" stroke="#333c"/>
<line x1="813.0588235294128" y1="432.38606786321344" x2="824.1176470588247" y2="432.38606786321344" stroke-dasharray="1,0.5" stroke="#333c"/>
<line x1="818.5882352941187" y1="431.32890802222647" x2="818.5882352941187" y2="432.38606786321344" stroke-dasharray="1,0.5" stroke="#333c"/>
<rect x="824.1176470588247" y="365.86045838973763" width="11.058823529411763" height="132.13954161026234" fill="#FFB000" data-tooltip="1.79x baseline (YJIT 3.3.3)"/>
<line x1="824.1176470588247" y1="364.8597992399963" x2="835.1764705882364" y2="364.8597992399963" stroke-dasharray="1,0.5" stroke="#333c"/>
<line x1="824.1176470588247" y1="366.861117539479" x2="835.1764705882364" y2="366.861117539479" stroke-dasharray="1,0.5" stroke="#333c"/>
<line x1="829.6470588235305" y1="364.8597992399963" x2="829.6470588235305" y2="366.861117539479" stroke-dasharray="1,0.5" stroke="#333c"/>
<rect x="835.1764705882364" y="380.3093328918334" width="11.058823529411763" height="117.69066710816656" fill="#DC267F" data-tooltip="1.59x baseline (YJIT 3.4.0dev)"/>
<line x1="835.1764705882364" y1="379.33485870178424" x2="846.2352941176482" y2="379.33485870178424" stroke-dasharray="1,0.5" stroke="#333c"/>
<line x1="835.1764705882364" y1="381.2838070818825" x2="846.2352941176482" y2="381.2838070818825" stroke-dasharray="1,0.5" stroke="#333c"/>
<line x1="840.7058823529424" y1="379.33485870178424" x2="840.7058823529424" y2="381.2838070818825" stroke-dasharray="1,0.5" stroke="#333c"/>
<line x1="829.6470588235305" y1="498.0" x2="829.6470588235305" y2="502.79999999999995" stroke="#000"/>
<text x="829.6470588235305" y="512.4" fill="#111" font-size="small" text-anchor="end" transform="rotate(-60, 829.6470588235305, 512.4)">
rubykon
</text>
<rect x="857.29411764706" y="424.29105049973" width="11.058823529411763" height="73.70894950026995" fill="#785EF0" data-tooltip="1.00x baseline (CRuby 3.4.0dev)"/>
<line x1="857.29411764706" y1="422.9955914358198" x2="868.3529411764717" y2="422.9955914358198" stroke-dasharray="1,0.5" stroke="#333c"/>
<line x1="857.29411764706" y1="425.58650956364016" x2="868.3529411764717" y2="425.58650956364016" stroke-dasharray="1,0.5" stroke="#333c"/>
<line x1="862.8235294117659" y1="422.9955914358198" x2="862.8235294117659" y2="425.58650956364016" stroke-dasharray="1,0.5" stroke="#333c"/>
<rect x="868.3529411764717" y="264.2512787495973" width="11.058823529411763" height="233.74872125040264" fill="#FFB000" data-tooltip="3.17x baseline (YJIT 3.3.3)"/>
<line x1="868.3529411764717" y1="260.1698369273391" x2="879.4117647058836" y2="260.1698369273391" stroke-dasharray="1,0.5" stroke="#333c"/>
<line x1="868.3529411764717" y1="268.33272057185553" x2="879.4117647058836" y2="268.33272057185553" stroke-dasharray="1,0.5" stroke="#333c"/>
<line x1="873.8823529411777" y1="260.1698369273391" x2="873.8823529411777" y2="268.33272057185553" stroke-dasharray="1,0.5" stroke="#333c"/>
<rect x="879.4117647058836" y="252.2176966168483" width="11.058823529411763" height="245.78230338315166" fill="#DC267F" data-tooltip="3.33x baseline (YJIT 3.4.0dev)"/>
<line x1="879.4117647058836" y1="247.92642469096523" x2="890.4705882352954" y2="247.92642469096523" stroke-dasharray="1,0.5" stroke="#333c"/>
<line x1="879.4117647058836" y1="256.50896854273134" x2="890.4705882352954" y2="256.50896854273134" stroke-dasharray="1,0.5" stroke="#333c"/>
<line x1="884.9411764705894" y1="247.92642469096523" x2="884.9411764705894" y2="256.50896854273134" stroke-dasharray="1,0.5" stroke="#333c"/>
<line x1="873.8823529411777" y1="498.0" x2="873.8823529411777" y2="502.79999999999995" stroke="#000"/>
<text x="873.8823529411777" y="512.4" fill="#111" font-size="small" text-anchor="end" transform="rotate(-60, 873.8823529411777, 512.4)">
sudoku
</text>
<rect x="901.5294117647071" y="428.27477481193364" width="11.058823529411763" height="69.72522518806629" fill="#785EF0" data-tooltip="0.94x baseline (CRuby 3.4.0dev)"/>
<line x1="901.5294117647071" y1="427.9763923779224" x2="912.5882352941189" y2="427.9763923779224" stroke-dasharray="1,0.5" stroke="#333c"/>
<line x1="901.5294117647071" y1="428.57315724594486" x2="912.5882352941189" y2="428.57315724594486" stroke-dasharray="1,0.5" stroke="#333c"/>
<line x1="907.0588235294131" y1="427.9763923779224" x2="907.0588235294131" y2="428.57315724594486" stroke-dasharray="1,0.5" stroke="#333c"/>
<rect x="912.5882352941189" y="350.9931665410417" width="11.058823529411763" height="147.00683345895825" fill="#FFB000" data-tooltip="1.99x baseline (YJIT 3.3.3)"/>
<line x1="912.5882352941189" y1="350.5340158311938" x2="923.6470588235308" y2="350.5340158311938" stroke-dasharray="1,0.5" stroke="#333c"/>
<line x1="912.5882352941189" y1="351.45231725088956" x2="923.6470588235308" y2="351.45231725088956" stroke-dasharray="1,0.5" stroke="#333c"/>
<line x1="918.1176470588248" y1="350.5340158311938" x2="918.1176470588248" y2="351.45231725088956" stroke-dasharray="1,0.5" stroke="#333c"/>
<rect x="923.6470588235308" y="367.0308780276951" width="11.058823529411763" height="130.9691219723049" fill="#DC267F" data-tooltip="1.77x baseline (YJIT 3.4.0dev)"/>
<line x1="923.6470588235308" y1="366.5238530343036" x2="934.7058823529425" y2="366.5238530343036" stroke-dasharray="1,0.5" stroke="#333c"/>
<line x1="923.6470588235308" y1="367.53790302108655" x2="934.7058823529425" y2="367.53790302108655" stroke-dasharray="1,0.5" stroke="#333c"/>
<line x1="929.1764705882366" y1="366.5238530343036" x2="929.1764705882366" y2="367.53790302108655" stroke-dasharray="1,0.5" stroke="#333c"/>
<line x1="918.1176470588248" y1="498.0" x2="918.1176470588248" y2="502.79999999999995" stroke="#000"/>
<text x="918.1176470588248" y="512.4" fill="#111" font-size="small" text-anchor="end" transform="rotate(-60, 918.1176470588248, 512.4)">
tinygql
</text>
<rect x="945.7647058823543" y="428.6473380589014" width="11.058823529411763" height="69.35266194109855" fill="#785EF0" data-tooltip="0.94x baseline (CRuby 3.4.0dev)"/>
<rect x="956.8235294117661" y="376.7627272015114" width="11.058823529411763" height="121.23727279848863" fill="#FFB000" data-tooltip="1.64x baseline (YJIT 3.3.3)"/>
<rect x="967.8823529411778" y="365.88787373742144" width="11.058823529411763" height="132.11212626257856" fill="#DC267F" data-tooltip="1.79x baseline (YJIT 3.4.0dev)"/>
<line x1="962.352941176472" y1="498.0" x2="962.352941176472" y2="502.79999999999995" stroke="#000"/>
<text x="962.352941176472" y="512.4" fill="#111" font-size="small" text-anchor="end" transform="rotate(-60, 962.352941176472, 512.4)" font-style="italic">
geomean*
</text>
<line x1="50.0" y1="424.20616961340886" x2="990.0" y2="424.20616961340886" stroke="#648FFF" stroke-width="2"/>
<rect x="62.88382352941177" y="418.53672616357557" width="17.85" height="7.2" transform="rotate(-60, 68.58823529411764, 425.1967261635756)" fill="#fffa"/>
<text x="63.05882352941176" y="425.1967261635756" fill="#111" font-size="0.5em" text-anchor="start" textLength="17.5" transform="rotate(-60, 68.58823529411764, 425.1967261635756)" style="text-shadow: 0 0 1px #fff;">
0.88
</text>
<rect x="73.94264705882352" y="330.8901172328433" width="17.85" height="7.2" transform="rotate(-60, 79.6470588235294, 337.5501172328433)" fill="#fffa"/>
<text x="74.11764705882352" y="337.5501172328433" fill="#111" font-size="0.5em" text-anchor="start" textLength="17.5" transform="rotate(-60, 79.6470588235294, 337.5501172328433)" style="text-shadow: 0 0 1px #fff;">
2.07
</text>
<rect x="85.00147058823529" y="345.95630200066" width="17.85" height="7.2" transform="rotate(-60, 90.70588235294116, 352.61630200065997)" fill="#fffa"/>
<text x="85.17647058823529" y="352.61630200065997" fill="#111" font-size="0.5em" text-anchor="start" textLength="17.5" transform="rotate(-60, 90.70588235294116, 352.61630200065997)" style="text-shadow: 0 0 1px #fff;">
1.87
</text>
<rect x="107.11911764705881" y="413.321552489838" width="17.85" height="7.2" transform="rotate(-60, 112.82352941176468, 419.981552489838)" fill="#fffa"/>
<text x="107.2941176470588" y="419.981552489838" fill="#111" font-size="0.5em" text-anchor="start" textLength="17.5" transform="rotate(-60, 112.82352941176468, 419.981552489838)" style="text-shadow: 0 0 1px #fff;">
0.96
</text>
<rect x="118.17794117647057" y="331.94992081779185" width="17.85" height="7.2" transform="rotate(-60, 123.88235294117645, 338.6099208177918)" fill="#fffa"/>
<text x="118.35294117647057" y="338.6099208177918" fill="#111" font-size="0.5em" text-anchor="start" textLength="17.5" transform="rotate(-60, 123.88235294117645, 338.6099208177918)" style="text-shadow: 0 0 1px #fff;">
2.06
</text>
<rect x="129.23676470588234" y="299.06432013479514" width="17.85" height="7.2" transform="rotate(-60, 134.94117647058823, 305.7243201347951)" fill="#fffa"/>
<text x="129.41176470588235" y="305.7243201347951" fill="#111" font-size="0.5em" text-anchor="start" textLength="17.5" transform="rotate(-60, 134.94117647058823, 305.7243201347951)" style="text-shadow: 0 0 1px #fff;">
2.50
</text>
<rect x="151.35441176470584" y="418.94725397474997" width="17.85" height="7.2" transform="rotate(-60, 157.05882352941174, 425.60725397474994)" fill="#fffa"/>
<text x="151.52941176470586" y="425.60725397474994" fill="#111" font-size="0.5em" text-anchor="start" textLength="17.5" transform="rotate(-60, 157.05882352941174, 425.60725397474994)" style="text-shadow: 0 0 1px #fff;">
0.88
</text>
<rect x="162.4132352941176" y="400.4934470417767" width="17.85" height="7.2" transform="rotate(-60, 168.1176470588235, 407.15344704177664)" fill="#fffa"/>
<text x="162.58823529411762" y="407.15344704177664" fill="#111" font-size="0.5em" text-anchor="start" textLength="17.5" transform="rotate(-60, 168.1176470588235, 407.15344704177664)" style="text-shadow: 0 0 1px #fff;">
1.13
</text>
<rect x="173.47205882352938" y="401.3238647389864" width="17.85" height="7.2" transform="rotate(-60, 179.17647058823528, 407.9838647389864)" fill="#fffa"/>
<text x="173.64705882352936" y="407.9838647389864" fill="#111" font-size="0.5em" text-anchor="start" textLength="17.5" transform="rotate(-60, 179.17647058823528, 407.9838647389864)" style="text-shadow: 0 0 1px #fff;">
1.12
</text>
<rect x="195.5897058823529" y="417.1432618548382" width="17.85" height="7.2" transform="rotate(-60, 201.29411764705878, 423.8032618548382)" fill="#fffa"/>
<text x="195.7647058823529" y="423.8032618548382" fill="#111" font-size="0.5em" text-anchor="start" textLength="17.5" transform="rotate(-60, 201.29411764705878, 423.8032618548382)" style="text-shadow: 0 0 1px #fff;">
0.90
</text>
<rect x="206.64852941176466" y="403.03464305138175" width="17.85" height="7.2" transform="rotate(-60, 212.35294117647055, 409.6946430513817)" fill="#fffa"/>
<text x="206.82352941176467" y="409.6946430513817" fill="#111" font-size="0.5em" text-anchor="start" textLength="17.5" transform="rotate(-60, 212.35294117647055, 409.6946430513817)" style="text-shadow: 0 0 1px #fff;">
1.10
</text>
<rect x="217.7073529411764" y="406.1435253973729" width="17.85" height="7.2" transform="rotate(-60, 223.41176470588232, 412.80352539737294)" fill="#fffa"/>
<text x="217.8823529411764" y="412.80352539737294" fill="#111" font-size="0.5em" text-anchor="start" textLength="17.5" transform="rotate(-60, 223.41176470588232, 412.80352539737294)" style="text-shadow: 0 0 1px #fff;">
1.05
</text>
<rect x="239.82499999999993" y="410.38001324871857" width="17.85" height="7.2" transform="rotate(-60, 245.52941176470583, 417.04001324871854)" fill="#fffa"/>
<text x="239.99999999999994" y="417.04001324871854" fill="#111" font-size="0.5em" text-anchor="start" textLength="17.5" transform="rotate(-60, 245.52941176470583, 417.04001324871854)" style="text-shadow: 0 0 1px #fff;">
1.00
</text>
<rect x="250.8838235294117" y="211.75357072891484" width="17.85" height="7.2" transform="rotate(-60, 256.58823529411757, 218.41357072891483)" fill="#fffa"/>
<text x="251.05882352941165" y="218.41357072891483" fill="#111" font-size="0.5em" text-anchor="start" textLength="17.5" transform="rotate(-60, 256.58823529411757, 218.41357072891483)" style="text-shadow: 0 0 1px #fff;">
3.69
</text>
<rect x="261.94264705882347" y="190.1556562132925" width="17.85" height="7.2" transform="rotate(-60, 267.64705882352933, 196.8156562132925)" fill="#fffa"/>
<text x="262.1176470588235" y="196.8156562132925" fill="#111" font-size="0.5em" text-anchor="start" textLength="17.5" transform="rotate(-60, 267.64705882352933, 196.8156562132925)" style="text-shadow: 0 0 1px #fff;">
3.98
</text>
<rect x="284.06029411764706" y="418.96428230141163" width="17.85" height="7.2" transform="rotate(-60, 289.7647058823529, 425.62428230141165)" fill="#fffa"/>
<text x="284.235294117647" y="425.62428230141165" fill="#111" font-size="0.5em" text-anchor="start" textLength="17.5" transform="rotate(-60, 289.7647058823529, 425.62428230141165)" style="text-shadow: 0 0 1px #fff;">
0.88
</text>
<rect x="295.11911764705883" y="399.62564254819324" width="17.85" height="7.2" transform="rotate(-60, 300.8235294117647, 406.2856425481932)" fill="#fffa"/>
<text x="295.29411764705884" y="406.2856425481932" fill="#111" font-size="0.5em" text-anchor="start" textLength="17.5" transform="rotate(-60, 300.8235294117647, 406.2856425481932)" style="text-shadow: 0 0 1px #fff;">
1.14
</text>
<rect x="306.1779411764706" y="412.4879804985489" width="17.85" height="7.2" transform="rotate(-60, 311.8823529411765, 419.14798049854886)" fill="#fffa"/>
<text x="306.3529411764706" y="419.14798049854886" fill="#111" font-size="0.5em" text-anchor="start" textLength="17.5" transform="rotate(-60, 311.8823529411765, 419.14798049854886)" style="text-shadow: 0 0 1px #fff;">
0.97
</text>
<rect x="328.2955882352942" y="413.2407655785745" width="17.85" height="7.2" transform="rotate(-60, 334.00000000000006, 419.9007655785745)" fill="#fffa"/>
<text x="328.4705882352942" y="419.9007655785745" fill="#111" font-size="0.5em" text-anchor="start" textLength="17.5" transform="rotate(-60, 334.00000000000006, 419.9007655785745)" style="text-shadow: 0 0 1px #fff;">
0.96
</text>
<rect x="339.354411764706" y="393.17470827877435" width="17.85" height="7.2" transform="rotate(-60, 345.0588235294119, 399.8347082787743)" fill="#fffa"/>
<text x="339.52941176470597" y="399.8347082787743" fill="#111" font-size="0.5em" text-anchor="start" textLength="17.5" transform="rotate(-60, 345.0588235294119, 399.8347082787743)" style="text-shadow: 0 0 1px #fff;">
1.23
</text>
<rect x="350.4132352941178" y="398.7245458047198" width="17.85" height="7.2" transform="rotate(-60, 356.11764705882365, 405.38454580471983)" fill="#fffa"/>
<text x="350.58823529411774" y="405.38454580471983" fill="#111" font-size="0.5em" text-anchor="start" textLength="17.5" transform="rotate(-60, 356.11764705882365, 405.38454580471983)" style="text-shadow: 0 0 1px #fff;">
1.15
</text>
<rect x="372.5308823529414" y="417.867791142662" width="17.85" height="7.2" transform="rotate(-60, 378.23529411764724, 424.52779114266195)" fill="#fffa"/>
<text x="372.70588235294133" y="424.52779114266195" fill="#111" font-size="0.5em" text-anchor="start" textLength="17.5" transform="rotate(-60, 378.23529411764724, 424.52779114266195)" style="text-shadow: 0 0 1px #fff;">
0.89
</text>
<rect x="383.58970588235314" y="403.7308459898758" width="17.85" height="7.2" transform="rotate(-60, 389.294117647059, 410.3908459898758)" fill="#fffa"/>
<text x="383.7647058823531" y="410.3908459898758" fill="#111" font-size="0.5em" text-anchor="start" textLength="17.5" transform="rotate(-60, 389.294117647059, 410.3908459898758)" style="text-shadow: 0 0 1px #fff;">
1.09
</text>
<rect x="394.6485294117649" y="415.2785699694947" width="17.85" height="7.2" transform="rotate(-60, 400.3529411764708, 421.93856996949467)" fill="#fffa"/>
<text x="394.8235294117649" y="421.93856996949467" fill="#111" font-size="0.5em" text-anchor="start" textLength="17.5" transform="rotate(-60, 400.3529411764708, 421.93856996949467)" style="text-shadow: 0 0 1px #fff;">
0.93
</text>
<rect x="416.7661764705885" y="416.3073301022238" width="17.85" height="7.2" transform="rotate(-60, 422.4705882352944, 422.9673301022238)" fill="#fffa"/>
<text x="416.94117647058846" y="422.9673301022238" fill="#111" font-size="0.5em" text-anchor="start" textLength="17.5" transform="rotate(-60, 422.4705882352944, 422.9673301022238)" style="text-shadow: 0 0 1px #fff;">
0.92
</text>
<rect x="427.8250000000003" y="377.70695695926923" width="17.85" height="7.2" transform="rotate(-60, 433.52941176470614, 384.36695695926926)" fill="#fffa"/>
<text x="428.0000000000003" y="384.36695695926926" fill="#111" font-size="0.5em" text-anchor="start" textLength="17.5" transform="rotate(-60, 433.52941176470614, 384.36695695926926)" style="text-shadow: 0 0 1px #fff;">
1.44
</text>
<rect x="438.8838235294121" y="383.6967666997843" width="17.85" height="7.2" transform="rotate(-60, 444.58823529411796, 390.35676669978426)" fill="#fffa"/>
<text x="439.05882352941205" y="390.35676669978426" fill="#111" font-size="0.5em" text-anchor="start" textLength="17.5" transform="rotate(-60, 444.58823529411796, 390.35676669978426)" style="text-shadow: 0 0 1px #fff;">
1.36
</text>
<rect x="461.00147058823563" y="416.70635265858544" width="17.85" height="7.2" transform="rotate(-60, 466.7058823529415, 423.36635265858547)" fill="#fffa"/>
<text x="461.17647058823565" y="423.36635265858547" fill="#111" font-size="0.5em" text-anchor="start" textLength="17.5" transform="rotate(-60, 466.7058823529415, 423.36635265858547)" style="text-shadow: 0 0 1px #fff;">
0.91
</text>
<rect x="472.06029411764746" y="366.39496964839947" width="17.85" height="7.2" transform="rotate(-60, 477.7647058823533, 373.0549696483995)" fill="#fffa"/>
<text x="472.2352941176474" y="373.0549696483995" fill="#111" font-size="0.5em" text-anchor="start" textLength="17.5" transform="rotate(-60, 477.7647058823533, 373.0549696483995)" style="text-shadow: 0 0 1px #fff;">
1.59
</text>
<rect x="483.1191176470592" y="356.050234602455" width="17.85" height="7.2" transform="rotate(-60, 488.8235294117651, 362.710234602455)" fill="#fffa"/>
<text x="483.2941176470592" y="362.710234602455" fill="#111" font-size="0.5em" text-anchor="start" textLength="17.5" transform="rotate(-60, 488.8235294117651, 362.710234602455)" style="text-shadow: 0 0 1px #fff;">
1.73
</text>
<rect x="505.23676470588276" y="411.4342076944399" width="17.85" height="7.2" transform="rotate(-60, 510.9411764705887, 418.09420769443994)" fill="#fffa"/>
<text x="505.4117647058828" y="418.09420769443994" fill="#111" font-size="0.5em" text-anchor="start" textLength="17.5" transform="rotate(-60, 510.9411764705887, 418.09420769443994)" style="text-shadow: 0 0 1px #fff;">
0.98
</text>
<rect x="516.2955882352945" y="339.1575567367359" width="17.85" height="7.2" transform="rotate(-60, 522.0000000000005, 345.8175567367359)" fill="#fffa"/>
<text x="516.4705882352946" y="345.8175567367359" fill="#111" font-size="0.5em" text-anchor="start" textLength="17.5" transform="rotate(-60, 522.0000000000005, 345.8175567367359)" style="text-shadow: 0 0 1px #fff;">
1.96
</text>
<rect x="527.3544117647064" y="322.8946072942869" width="17.85" height="7.2" transform="rotate(-60, 533.0588235294123, 329.5546072942869)" fill="#fffa"/>
<text x="527.5294117647063" y="329.5546072942869" fill="#111" font-size="0.5em" text-anchor="start" textLength="17.5" transform="rotate(-60, 533.0588235294123, 329.5546072942869)" style="text-shadow: 0 0 1px #fff;">
2.18
</text>
<rect x="549.4720588235299" y="413.3356452915736" width="17.85" height="7.2" transform="rotate(-60, 555.1764705882358, 419.99564529157357)" fill="#fffa"/>
<text x="549.64705882353" y="419.99564529157357" fill="#111" font-size="0.5em" text-anchor="start" textLength="17.5" transform="rotate(-60, 555.1764705882358, 419.99564529157357)" style="text-shadow: 0 0 1px #fff;">
0.96
</text>
<rect x="560.5308823529417" y="407.89867761888905" width="17.85" height="7.2" transform="rotate(-60, 566.2352941176476, 414.558677618889)" fill="#fffa"/>
<text x="560.7058823529417" y="414.558677618889" fill="#111" font-size="0.5em" text-anchor="start" textLength="17.5" transform="rotate(-60, 566.2352941176476, 414.558677618889)" style="text-shadow: 0 0 1px #fff;">
1.03
</text>
<rect x="571.5897058823534" y="86.03999999999998" width="17.85" height="7.2" transform="rotate(-60, 577.2941176470594, 92.69999999999999)" fill="#fffa"/>
<text x="571.7647058823535" y="92.69999999999999" fill="#111" font-size="0.5em" text-anchor="start" textLength="17.5" transform="rotate(-60, 577.2941176470594, 92.69999999999999)" style="text-shadow: 0 0 1px #fff;">
5.39
</text>
<rect x="593.7073529411771" y="411.78295513317084" width="17.85" height="7.2" transform="rotate(-60, 599.411764705883, 418.44295513317087)" fill="#fffa"/>
<text x="593.882352941177" y="418.44295513317087" fill="#111" font-size="0.5em" text-anchor="start" textLength="17.5" transform="rotate(-60, 599.411764705883, 418.44295513317087)" style="text-shadow: 0 0 1px #fff;">
0.98
</text>
<rect x="604.7661764705888" y="309.8441162377862" width="17.85" height="7.2" transform="rotate(-60, 610.4705882352947, 316.5041162377862)" fill="#fffa"/>
<text x="604.9411764705889" y="316.5041162377862" fill="#111" font-size="0.5em" text-anchor="start" textLength="17.5" transform="rotate(-60, 610.4705882352947, 316.5041162377862)" style="text-shadow: 0 0 1px #fff;">
2.36
</text>
<rect x="615.8250000000006" y="325.8800108552754" width="17.85" height="7.2" transform="rotate(-60, 621.5294117647065, 332.54001085527534)" fill="#fffa"/>
<text x="616.0000000000007" y="332.54001085527534" fill="#111" font-size="0.5em" text-anchor="start" textLength="17.5" transform="rotate(-60, 621.5294117647065, 332.54001085527534)" style="text-shadow: 0 0 1px #fff;">
2.14
</text>
<rect x="637.9426470588242" y="411.4156472481559" width="17.85" height="7.2" transform="rotate(-60, 643.6470588235301, 418.0756472481559)" fill="#fffa"/>
<text x="638.1176470588242" y="418.0756472481559" fill="#111" font-size="0.5em" text-anchor="start" textLength="17.5" transform="rotate(-60, 643.6470588235301, 418.0756472481559)" style="text-shadow: 0 0 1px #fff;">
0.98
</text>
<rect x="649.001470588236" y="326.4831249844751" width="17.85" height="7.2" transform="rotate(-60, 654.7058823529419, 333.14312498447515)" fill="#fffa"/>
<text x="649.176470588236" y="333.14312498447515" fill="#111" font-size="0.5em" text-anchor="start" textLength="17.5" transform="rotate(-60, 654.7058823529419, 333.14312498447515)" style="text-shadow: 0 0 1px #fff;">
2.13
</text>
<rect x="660.0602941176478" y="249.50656533793463" width="17.85" height="7.2" transform="rotate(-60, 665.7647058823537, 256.1665653379346)" fill="#fffa"/>
<text x="660.2352941176478" y="256.1665653379346" fill="#111" font-size="0.5em" text-anchor="start" textLength="17.5" transform="rotate(-60, 665.7647058823537, 256.1665653379346)" style="text-shadow: 0 0 1px #fff;">
3.18
</text>
<rect x="682.1779411764713" y="409.1444095173698" width="17.85" height="7.2" transform="rotate(-60, 687.8823529411773, 415.80440951736983)" fill="#fffa"/>
<text x="682.3529411764714" y="415.80440951736983" fill="#111" font-size="0.5em" text-anchor="start" textLength="17.5" transform="rotate(-60, 687.8823529411773, 415.80440951736983)" style="text-shadow: 0 0 1px #fff;">
1.01
</text>
<rect x="693.2367647058832" y="375.0134207567147" width="17.85" height="7.2" transform="rotate(-60, 698.9411764705891, 381.6734207567147)" fill="#fffa"/>
<text x="693.4117647058831" y="381.6734207567147" fill="#111" font-size="0.5em" text-anchor="start" textLength="17.5" transform="rotate(-60, 698.9411764705891, 381.6734207567147)" style="text-shadow: 0 0 1px #fff;">
1.47
</text>
<rect x="704.2955882352949" y="351.90761270523177" width="17.85" height="7.2" transform="rotate(-60, 710.0000000000009, 358.56761270523174)" fill="#fffa"/>
<text x="704.4705882352949" y="358.56761270523174" fill="#111" font-size="0.5em" text-anchor="start" textLength="17.5" transform="rotate(-60, 710.0000000000009, 358.56761270523174)" style="text-shadow: 0 0 1px #fff;">
1.79
</text>
<rect x="726.4132352941185" y="415.11385140614556" width="17.85" height="7.2" transform="rotate(-60, 732.1176470588244, 421.7738514061456)" fill="#fffa"/>
<text x="726.5882352941186" y="421.7738514061456" fill="#111" font-size="0.5em" text-anchor="start" textLength="17.5" transform="rotate(-60, 732.1176470588244, 421.7738514061456)" style="text-shadow: 0 0 1px #fff;">
0.93
</text>
<rect x="737.4720588235302" y="375.8392615207021" width="17.85" height="7.2" transform="rotate(-60, 743.1764705882363, 382.49926152070213)" fill="#fffa"/>
<text x="737.6470588235303" y="382.49926152070213" fill="#111" font-size="0.5em" text-anchor="start" textLength="17.5" transform="rotate(-60, 743.1764705882363, 382.49926152070213)" style="text-shadow: 0 0 1px #fff;">
1.46
</text>
<rect x="748.5308823529421" y="382.68914653871815" width="17.85" height="7.2" transform="rotate(-60, 754.235294117648, 389.3491465387182)" fill="#fffa"/>
<text x="748.7058823529421" y="389.3491465387182" fill="#111" font-size="0.5em" text-anchor="start" textLength="17.5" transform="rotate(-60, 754.235294117648, 389.3491465387182)" style="text-shadow: 0 0 1px #fff;">
1.37
</text>
<rect x="770.6485294117656" y="412.78118977854024" width="17.85" height="7.2" transform="rotate(-60, 776.3529411764716, 419.44118977854026)" fill="#fffa"/>
<text x="770.8235294117657" y="419.44118977854026" fill="#111" font-size="0.5em" text-anchor="start" textLength="17.5" transform="rotate(-60, 776.3529411764716, 419.44118977854026)" style="text-shadow: 0 0 1px #fff;">
0.96
</text>
<rect x="781.7073529411774" y="393.51346008702245" width="17.85" height="7.2" transform="rotate(-60, 787.4117647058833, 400.1734600870225)" fill="#fffa"/>
<text x="781.8823529411775" y="400.1734600870225" fill="#111" font-size="0.5em" text-anchor="start" textLength="17.5" transform="rotate(-60, 787.4117647058833, 400.1734600870225)" style="text-shadow: 0 0 1px #fff;">
1.22
</text>
<rect x="792.7661764705892" y="398.18445491771104" width="17.85" height="7.2" transform="rotate(-60, 798.4705882352952, 404.84445491771106)" fill="#fffa"/>
<text x="792.9411764705893" y="404.84445491771106" fill="#111" font-size="0.5em" text-anchor="start" textLength="17.5" transform="rotate(-60, 798.4705882352952, 404.84445491771106)" style="text-shadow: 0 0 1px #fff;">
1.16
</text>
<rect x="814.8838235294128" y="417.69748794272" width="17.85" height="7.2" transform="rotate(-60, 820.5882352941187, 424.35748794271996)" fill="#fffa"/>
<text x="815.0588235294128" y="424.35748794271996" fill="#111" font-size="0.5em" text-anchor="start" textLength="17.5" transform="rotate(-60, 820.5882352941187, 424.35748794271996)" style="text-shadow: 0 0 1px #fff;">
0.90
</text>
<rect x="825.9426470588246" y="351.70045838973766" width="17.85" height="7.2" transform="rotate(-60, 831.6470588235305, 358.3604583897377)" fill="#fffa"/>
<text x="826.1176470588247" y="358.3604583897377" fill="#111" font-size="0.5em" text-anchor="start" textLength="17.5" transform="rotate(-60, 831.6470588235305, 358.3604583897377)" style="text-shadow: 0 0 1px #fff;">
1.79
</text>
<rect x="837.0014705882364" y="366.1493328918334" width="17.85" height="7.2" transform="rotate(-60, 842.7058823529424, 372.8093328918334)" fill="#fffa"/>
<text x="837.1764705882364" y="372.8093328918334" fill="#111" font-size="0.5em" text-anchor="start" textLength="17.5" transform="rotate(-60, 842.7058823529424, 372.8093328918334)" style="text-shadow: 0 0 1px #fff;">
1.59
</text>
<rect x="859.11911764706" y="410.13105049973" width="17.85" height="7.2" transform="rotate(-60, 864.8235294117659, 416.79105049973)" fill="#fffa"/>
<text x="859.29411764706" y="416.79105049973" fill="#111" font-size="0.5em" text-anchor="start" textLength="17.5" transform="rotate(-60, 864.8235294117659, 416.79105049973)" style="text-shadow: 0 0 1px #fff;">
1.00
</text>
<rect x="870.1779411764718" y="250.0912787495973" width="17.85" height="7.2" transform="rotate(-60, 875.8823529411777, 256.7512787495973)" fill="#fffa"/>
<text x="870.3529411764717" y="256.7512787495973" fill="#111" font-size="0.5em" text-anchor="start" textLength="17.5" transform="rotate(-60, 875.8823529411777, 256.7512787495973)" style="text-shadow: 0 0 1px #fff;">
3.17
</text>
<rect x="881.2367647058835" y="238.0576966168483" width="17.85" height="7.2" transform="rotate(-60, 886.9411764705894, 244.7176966168483)" fill="#fffa"/>
<text x="881.4117647058836" y="244.7176966168483" fill="#111" font-size="0.5em" text-anchor="start" textLength="17.5" transform="rotate(-60, 886.9411764705894, 244.7176966168483)" style="text-shadow: 0 0 1px #fff;">
3.33
</text>
<rect x="903.3544117647072" y="414.11477481193367" width="17.85" height="7.2" transform="rotate(-60, 909.0588235294131, 420.77477481193364)" fill="#fffa"/>
<text x="903.5294117647071" y="420.77477481193364" fill="#111" font-size="0.5em" text-anchor="start" textLength="17.5" transform="rotate(-60, 909.0588235294131, 420.77477481193364)" style="text-shadow: 0 0 1px #fff;">
0.94
</text>
<rect x="914.4132352941189" y="336.8331665410417" width="17.85" height="7.2" transform="rotate(-60, 920.1176470588248, 343.4931665410417)" fill="#fffa"/>
<text x="914.5882352941189" y="343.4931665410417" fill="#111" font-size="0.5em" text-anchor="start" textLength="17.5" transform="rotate(-60, 920.1176470588248, 343.4931665410417)" style="text-shadow: 0 0 1px #fff;">
1.99
</text>
<rect x="925.4720588235307" y="352.87087802769514" width="17.85" height="7.2" transform="rotate(-60, 931.1764705882366, 359.5308780276951)" fill="#fffa"/>
<text x="925.6470588235308" y="359.5308780276951" fill="#111" font-size="0.5em" text-anchor="start" textLength="17.5" transform="rotate(-60, 931.1764705882366, 359.5308780276951)" style="text-shadow: 0 0 1px #fff;">
1.77
</text>
<rect x="947.5897058823542" y="414.48733805890146" width="17.85" height="7.2" transform="rotate(-60, 953.2941176470601, 421.1473380589014)" fill="#fffa"/>
<text x="947.7647058823543" y="421.1473380589014" fill="#111" font-size="0.5em" text-anchor="start" textLength="17.5" transform="rotate(-60, 953.2941176470601, 421.1473380589014)" style="text-shadow: 0 0 1px #fff;">
0.94
</text>
<rect x="958.648529411766" y="362.6027272015114" width="17.85" height="7.2" transform="rotate(-60, 964.352941176472, 369.2627272015114)" fill="#fffa"/>
<text x="958.8235294117661" y="369.2627272015114" fill="#111" font-size="0.5em" text-anchor="start" textLength="17.5" transform="rotate(-60, 964.352941176472, 369.2627272015114)" style="text-shadow: 0 0 1px #fff;">
1.64
</text>
<rect x="969.7073529411779" y="351.7278737374215" width="17.85" height="7.2" transform="rotate(-60, 975.4117647058838, 358.3878737374215)" fill="#fffa"/>
<text x="969.8823529411778" y="358.3878737374215" fill="#111" font-size="0.5em" text-anchor="start" textLength="17.5" transform="rotate(-60, 975.4117647058838, 358.3878737374215)" style="text-shadow: 0 0 1px #fff;">
1.79
</text>
</svg>