<svg viewBox="0 0 1000 600" xmlns="http://www.w3.org/2000/svg" xmlns:xlink="http://www.w3.org/1999/xlink" width="100%" height="100%">

<rect x="50.0" y="30.0" width="940.0" height="467.99999999999994" stroke="#000" fill="#fff"/>
<line x1="42.0" y1="497.9999999999999" x2="50.0" y2="497.9999999999999" stroke="#000"/>
<text x="26.000000000000004" y="497.9999999999999" text-anchor="end" font-weight="bold" font-size="small" fill="#111">
0.0
</text>
<line x1="42.0" y1="456.04116258992804" x2="50.0" y2="456.04116258992804" stroke="#000"/>
<text x="26.000000000000004" y="456.04116258992804" text-anchor="end" font-weight="bold" font-size="small" fill="#111">
0.2
</text>
<line x1="42.0" y1="414.08232517985607" x2="50.0" y2="414.08232517985607" stroke="#000"/>
<text x="26.000000000000004" y="414.08232517985607" text-anchor="end" font-weight="bold" font-size="small" fill="#111">
0.4
</text>
<line x1="42.0" y1="372.1234877697841" x2="50.0" y2="372.1234877697841" stroke="#000"/>
<text x="26.000000000000004" y="372.1234877697841" text-anchor="end" font-weight="bold" font-size="small" fill="#111">
0.6
</text>
<line x1="42.0" y1="330.1646503597122" x2="50.0" y2="330.1646503597122" stroke="#000"/>
<text x="26.000000000000004" y="330.1646503597122" text-anchor="end" font-weight="bold" font-size="small" fill="#111">
0.8
</text>
<line x1="42.0" y1="288.20581294964023" x2="50.0" y2="288.20581294964023" stroke="#000"/>
<text x="26.000000000000004" y="288.20581294964023" text-anchor="end" font-weight="bold" font-size="small" fill="#111">
1.0
</text>
<line x1="42.0" y1="246.24697553956835" x2="50.0" y2="246.24697553956835" stroke="#000"/>
<text x="26.000000000000004" y="246.24697553956835" text-anchor="end" font-weight="bold" font-size="small" fill="#111">
1.2
</text>
<line x1="42.0" y1="204.28813812949642" x2="50.0" y2="204.28813812949642" stroke="#000"/>
<text x="26.000000000000004" y="204.28813812949642" text-anchor="end" font-weight="bold" font-size="small" fill="#111">
1.4
</text>
<line x1="42.0" y1="162.32930071942445" x2="50.0" y2="162.32930071942445" stroke="#000"/>
<text x="26.000000000000004" y="162.32930071942445" text-anchor="end" font-weight="bold" font-size="small" fill="#111">
1.6
</text>
<line x1="42.0" y1="120.37046330935254" x2="50.0" y2="120.37046330935254" stroke="#000"/>
<text x="26.000000000000004" y="120.37046330935254" text-anchor="end" font-weight="bold" font-size="small" fill="#111">
1.8
</text>
<line x1="248.5" y1="54.60000000000001" x2="368.5" y2="54.60000000000001" stroke="#648FFF" stroke-width="2"/>
<text x="308.5" y="49.500000000000014" font-size="small" text-anchor="middle" font-weight="bold" fill="#000">
CRuby 3.4.0dev
</text>
<rect x="671.5" y="35.400000000000006" width="120.0" height="19.2" fill="#785EF0" stroke="none"/>
<text x="731.4999999999999" y="49.500000000000014" font-size="small" text-anchor="middle" font-weight="bold" fill="#fff" style="text-shadow: 0 0 1px #000;">
YJIT 3.4.0dev
</text>
<rect x="59.89473684210527" y="271.2402346373719" width="9.894736842105264" height="226.75976536262803" fill="#785EF0" data-tooltip="1.08x baseline (YJIT 3.4.0dev)"/>
<line x1="64.84210526315789" y1="498.0" x2="64.84210526315789" y2="502.79999999999995" stroke="#000"/>
<text x="64.84210526315789" y="512.4" fill="#111" font-size="small" text-anchor="end" transform="rotate(-60, 64.84210526315789, 512.4)">
activerecord
</text>
<rect x="79.6842105263158" y="264.90723353929536" width="9.894736842105264" height="233.09276646070455" fill="#785EF0" data-tooltip="1.11x baseline (YJIT 3.4.0dev)"/>
<line x1="84.63157894736842" y1="498.0" x2="84.63157894736842" y2="502.79999999999995" stroke="#000"/>
<text x="84.63157894736842" y="512.4" fill="#111" font-size="small" text-anchor="end" transform="rotate(-60, 84.63157894736842, 512.4)">
chunky-png
</text>
<rect x="99.47368421052632" y="289.18321854349364" width="9.894736842105264" height="208.81678145650633" fill="#785EF0" data-tooltip="1.00x baseline (YJIT 3.4.0dev)"/>
<line x1="104.42105263157895" y1="498.0" x2="104.42105263157895" y2="502.79999999999995" stroke="#000"/>
<text x="104.42105263157895" y="512.4" fill="#111" font-size="small" text-anchor="end" transform="rotate(-60, 104.42105263157895, 512.4)">
erubi-rails
</text>
<rect x="119.26315789473684" y="100.19999999999999" width="9.894736842105264" height="397.79999999999995" fill="#785EF0" data-tooltip="1.90x baseline (YJIT 3.4.0dev)"/>
<line x1="124.21052631578948" y1="498.0" x2="124.21052631578948" y2="502.79999999999995" stroke="#000"/>
<text x="124.21052631578948" y="512.4" fill="#111" font-size="small" text-anchor="end" transform="rotate(-60, 124.21052631578948, 512.4)">
hexapdf
</text>
<rect x="139.05263157894737" y="265.9969765133073" width="9.894736842105264" height="232.00302348669263" fill="#785EF0" data-tooltip="1.11x baseline (YJIT 3.4.0dev)"/>
<line x1="144.00000000000003" y1="498.0" x2="144.00000000000003" y2="502.79999999999995" stroke="#000"/>
<text x="144.00000000000003" y="512.4" fill="#111" font-size="small" text-anchor="end" transform="rotate(-60, 144.00000000000003, 512.4)">
liquid-c
</text>
<rect x="158.8421052631579" y="269.0761420991778" width="9.894736842105264" height="228.92385790082216" fill="#785EF0" data-tooltip="1.09x baseline (YJIT 3.4.0dev)"/>
<line x1="163.78947368421055" y1="498.0" x2="163.78947368421055" y2="502.79999999999995" stroke="#000"/>
<text x="163.78947368421055" y="512.4" fill="#111" font-size="small" text-anchor="end" transform="rotate(-60, 163.78947368421055, 512.4)">
liquid-compile
</text>
<rect x="178.6315789473684" y="255.72924861054705" width="9.894736842105264" height="242.2707513894529" fill="#785EF0" data-tooltip="1.15x baseline (YJIT 3.4.0dev)"/>
<line x1="183.57894736842107" y1="498.0" x2="183.57894736842107" y2="502.79999999999995" stroke="#000"/>
<text x="183.57894736842107" y="512.4" fill="#111" font-size="small" text-anchor="end" transform="rotate(-60, 183.57894736842107, 512.4)">
liquid-render
</text>
<rect x="198.42105263157893" y="245.02314879311118" width="9.894736842105264" height="252.97685120688874" fill="#785EF0" data-tooltip="1.21x baseline (YJIT 3.4.0dev)"/>
<line x1="203.3684210526316" y1="498.0" x2="203.3684210526316" y2="502.79999999999995" stroke="#000"/>
<text x="203.3684210526316" y="512.4" fill="#111" font-size="small" text-anchor="end" transform="rotate(-60, 203.3684210526316, 512.4)">
lobsters
</text>
<rect x="218.21052631578948" y="275.42488922146083" width="9.894736842105264" height="222.5751107785391" fill="#785EF0" data-tooltip="1.06x baseline (YJIT 3.4.0dev)"/>
<line x1="223.1578947368421" y1="498.0" x2="223.1578947368421" y2="502.79999999999995" stroke="#000"/>
<text x="223.1578947368421" y="512.4" fill="#111" font-size="small" text-anchor="end" transform="rotate(-60, 223.1578947368421, 512.4)">
mail
</text>
<rect x="238.0" y="275.9038408563409" width="9.894736842105264" height="222.09615914365907" fill="#785EF0" data-tooltip="1.06x baseline (YJIT 3.4.0dev)"/>
<line x1="242.94736842105263" y1="498.0" x2="242.94736842105263" y2="502.79999999999995" stroke="#000"/>
<text x="242.94736842105263" y="512.4" fill="#111" font-size="small" text-anchor="end" transform="rotate(-60, 242.94736842105263, 512.4)">
psych-load
</text>
<rect x="257.7894736842105" y="269.9038721747814" width="9.894736842105264" height="228.0961278252186" fill="#785EF0" data-tooltip="1.09x baseline (YJIT 3.4.0dev)"/>
<line x1="262.7368421052632" y1="498.0" x2="262.7368421052632" y2="502.79999999999995" stroke="#000"/>
<text x="262.7368421052632" y="512.4" fill="#111" font-size="small" text-anchor="end" transform="rotate(-60, 262.7368421052632, 512.4)">
railsbench
</text>
<rect x="277.5789473684211" y="214.4666251268304" width="9.894736842105264" height="283.5333748731695" fill="#785EF0" data-tooltip="1.35x baseline (YJIT 3.4.0dev)"/>
<line x1="282.52631578947376" y1="498.0" x2="282.52631578947376" y2="502.79999999999995" stroke="#000"/>
<text x="282.52631578947376" y="512.4" fill="#111" font-size="small" text-anchor="end" transform="rotate(-60, 282.52631578947376, 512.4)">
rubocop
</text>
<rect x="297.3684210526317" y="267.2534028050287" width="9.894736842105264" height="230.74659719497126" fill="#785EF0" data-tooltip="1.10x baseline (YJIT 3.4.0dev)"/>
<line x1="302.31578947368433" y1="498.0" x2="302.31578947368433" y2="502.79999999999995" stroke="#000"/>
<text x="302.31578947368433" y="512.4" fill="#111" font-size="small" text-anchor="end" transform="rotate(-60, 302.31578947368433, 512.4)">
ruby-lsp
</text>
<rect x="317.15789473684225" y="273.872048617007" width="9.894736842105264" height="224.12795138299293" fill="#785EF0" data-tooltip="1.07x baseline (YJIT 3.4.0dev)"/>
<line x1="322.1052631578949" y1="498.0" x2="322.1052631578949" y2="502.79999999999995" stroke="#000"/>
<text x="322.1052631578949" y="512.4" fill="#111" font-size="small" text-anchor="end" transform="rotate(-60, 322.1052631578949, 512.4)">
sequel
</text>
<rect x="336.94736842105283" y="294.08789296039805" width="9.894736842105264" height="203.91210703960192" fill="#785EF0" data-tooltip="0.97x baseline (YJIT 3.4.0dev)"/>
<line x1="341.8947368421055" y1="498.0" x2="341.8947368421055" y2="502.79999999999995" stroke="#000"/>
<text x="341.8947368421055" y="512.4" fill="#111" font-size="small" text-anchor="end" transform="rotate(-60, 341.8947368421055, 512.4)">
binarytrees
</text>
<rect x="356.7368421052634" y="286.22628296374734" width="9.894736842105264" height="211.77371703625258" fill="#785EF0" data-tooltip="1.01x baseline (YJIT 3.4.0dev)"/>
<line x1="361.68421052631606" y1="498.0" x2="361.68421052631606" y2="502.79999999999995" stroke="#000"/>
<text x="361.68421052631606" y="512.4" fill="#111" font-size="small" text-anchor="end" transform="rotate(-60, 361.68421052631606, 512.4)">
blurhash
</text>
<rect x="376.526315789474" y="275.6847971753744" width="9.894736842105264" height="222.31520282462552" fill="#785EF0" data-tooltip="1.06x baseline (YJIT 3.4.0dev)"/>
<line x1="381.47368421052664" y1="498.0" x2="381.47368421052664" y2="502.79999999999995" stroke="#000"/>
<text x="381.47368421052664" y="512.4" fill="#111" font-size="small" text-anchor="end" transform="rotate(-60, 381.47368421052664, 512.4)">
erubi
</text>
<rect x="396.31578947368456" y="290.6467940276385" width="9.894736842105264" height="207.3532059723614" fill="#785EF0" data-tooltip="0.99x baseline (YJIT 3.4.0dev)"/>
<line x1="401.2631578947372" y1="498.0" x2="401.2631578947372" y2="502.79999999999995" stroke="#000"/>
<text x="401.2631578947372" y="512.4" fill="#111" font-size="small" text-anchor="end" transform="rotate(-60, 401.2631578947372, 512.4)">
etanni
</text>
<rect x="416.10526315789514" y="286.29093354976476" width="9.894736842105264" height="211.70906645023518" fill="#785EF0" data-tooltip="1.01x baseline (YJIT 3.4.0dev)"/>
<line x1="421.0526315789478" y1="498.0" x2="421.0526315789478" y2="502.79999999999995" stroke="#000"/>
<text x="421.0526315789478" y="512.4" fill="#111" font-size="small" text-anchor="end" transform="rotate(-60, 421.0526315789478, 512.4)">
fannkuchredux
</text>
<rect x="435.8947368421057" y="270.52556780425743" width="9.894736842105264" height="227.4744321957425" fill="#785EF0" data-tooltip="1.08x baseline (YJIT 3.4.0dev)"/>
<line x1="440.8421052631584" y1="498.0" x2="440.8421052631584" y2="502.79999999999995" stroke="#000"/>
<text x="440.8421052631584" y="512.4" fill="#111" font-size="small" text-anchor="end" transform="rotate(-60, 440.8421052631584, 512.4)">
fluentd
</text>
<rect x="455.6842105263163" y="273.86039968390475" width="9.894736842105264" height="224.1396003160952" fill="#785EF0" data-tooltip="1.07x baseline (YJIT 3.4.0dev)"/>
<line x1="460.63157894736895" y1="498.0" x2="460.63157894736895" y2="502.79999999999995" stroke="#000"/>
<text x="460.63157894736895" y="512.4" fill="#111" font-size="small" text-anchor="end" transform="rotate(-60, 460.63157894736895, 512.4)">
graphql
</text>
<rect x="475.47368421052687" y="274.9036078147047" width="9.894736842105264" height="223.09639218529526" fill="#785EF0" data-tooltip="1.06x baseline (YJIT 3.4.0dev)"/>
<line x1="480.4210526315795" y1="498.0" x2="480.4210526315795" y2="502.79999999999995" stroke="#000"/>
<text x="480.4210526315795" y="512.4" fill="#111" font-size="small" text-anchor="end" transform="rotate(-60, 480.4210526315795, 512.4)">
graphql-native
</text>
<rect x="495.26315789473745" y="278.96678162839515" width="9.894736842105264" height="219.0332183716048" fill="#785EF0" data-tooltip="1.04x baseline (YJIT 3.4.0dev)"/>
<line x1="500.2105263157901" y1="498.0" x2="500.2105263157901" y2="502.79999999999995" stroke="#000"/>
<text x="500.2105263157901" y="512.4" fill="#111" font-size="small" text-anchor="end" transform="rotate(-60, 500.2105263157901, 512.4)">
lee
</text>
<rect x="515.052631578948" y="287.25164696772026" width="9.894736842105264" height="210.74835303227968" fill="#785EF0" data-tooltip="1.00x baseline (YJIT 3.4.0dev)"/>
<line x1="520.0000000000007" y1="498.0" x2="520.0000000000007" y2="502.79999999999995" stroke="#000"/>
<text x="520.0000000000007" y="512.4" fill="#111" font-size="small" text-anchor="end" transform="rotate(-60, 520.0000000000007, 512.4)">
matmul
</text>
<rect x="534.8421052631586" y="285.7930649057971" width="9.894736842105264" height="212.20693509420283" fill="#785EF0" data-tooltip="1.01x baseline (YJIT 3.4.0dev)"/>
<line x1="539.7894736842113" y1="498.0" x2="539.7894736842113" y2="502.79999999999995" stroke="#000"/>
<text x="539.7894736842113" y="512.4" fill="#111" font-size="small" text-anchor="end" transform="rotate(-60, 539.7894736842113, 512.4)">
nbody
</text>
<rect x="554.6315789473691" y="278.60096011784657" width="9.894736842105264" height="219.39903988215335" fill="#785EF0" data-tooltip="1.05x baseline (YJIT 3.4.0dev)"/>
<line x1="559.5789473684218" y1="498.0" x2="559.5789473684218" y2="502.79999999999995" stroke="#000"/>
<text x="559.5789473684218" y="512.4" fill="#111" font-size="small" text-anchor="end" transform="rotate(-60, 559.5789473684218, 512.4)">
nqueens
</text>
<rect x="574.4210526315798" y="269.4754142758394" width="9.894736842105264" height="228.52458572416054" fill="#785EF0" data-tooltip="1.09x baseline (YJIT 3.4.0dev)"/>
<line x1="579.3684210526325" y1="498.0" x2="579.3684210526325" y2="502.79999999999995" stroke="#000"/>
<text x="579.3684210526325" y="512.4" fill="#111" font-size="small" text-anchor="end" transform="rotate(-60, 579.3684210526325, 512.4)">
optcarrot
</text>
<rect x="594.2105263157903" y="261.53387679008034" width="9.894736842105264" height="236.46612320991957" fill="#785EF0" data-tooltip="1.13x baseline (YJIT 3.4.0dev)"/>
<line x1="599.157894736843" y1="498.0" x2="599.157894736843" y2="502.79999999999995" stroke="#000"/>
<text x="599.157894736843" y="512.4" fill="#111" font-size="small" text-anchor="end" transform="rotate(-60, 599.157894736843, 512.4)">
protoboeuf
</text>
<rect x="614.0000000000009" y="275.79765086371077" width="9.894736842105264" height="222.20234913628917" fill="#785EF0" data-tooltip="1.06x baseline (YJIT 3.4.0dev)"/>
<line x1="618.9473684210536" y1="498.0" x2="618.9473684210536" y2="502.79999999999995" stroke="#000"/>
<text x="618.9473684210536" y="512.4" fill="#111" font-size="small" text-anchor="end" transform="rotate(-60, 618.9473684210536, 512.4)">
rack
</text>
<rect x="633.7894736842114" y="286.4895524829291" width="9.894736842105264" height="211.5104475170708" fill="#785EF0" data-tooltip="1.01x baseline (YJIT 3.4.0dev)"/>
<line x1="638.7368421052641" y1="498.0" x2="638.7368421052641" y2="502.79999999999995" stroke="#000"/>
<text x="638.7368421052641" y="512.4" fill="#111" font-size="small" text-anchor="end" transform="rotate(-60, 638.7368421052641, 512.4)">
ruby-json
</text>
<rect x="653.5789473684221" y="282.52363670271535" width="9.894736842105264" height="215.4763632972846" fill="#785EF0" data-tooltip="1.03x baseline (YJIT 3.4.0dev)"/>
<line x1="658.5263157894748" y1="498.0" x2="658.5263157894748" y2="502.79999999999995" stroke="#000"/>
<text x="658.5263157894748" y="512.4" fill="#111" font-size="small" text-anchor="end" transform="rotate(-60, 658.5263157894748, 512.4)">
rubykon
</text>
<rect x="673.3684210526326" y="285.84558075999735" width="9.894736842105264" height="212.15441924000262" fill="#785EF0" data-tooltip="1.01x baseline (YJIT 3.4.0dev)"/>
<line x1="678.3157894736853" y1="498.0" x2="678.3157894736853" y2="502.79999999999995" stroke="#000"/>
<text x="678.3157894736853" y="512.4" fill="#111" font-size="small" text-anchor="end" transform="rotate(-60, 678.3157894736853, 512.4)">
sudoku
</text>
<rect x="693.1578947368432" y="280.76765540876386" width="9.894736842105264" height="217.23234459123609" fill="#785EF0" data-tooltip="1.04x baseline (YJIT 3.4.0dev)"/>
<line x1="698.1052631578959" y1="498.0" x2="698.1052631578959" y2="502.79999999999995" stroke="#000"/>
<text x="698.1052631578959" y="512.4" fill="#111" font-size="small" text-anchor="end" transform="rotate(-60, 698.1052631578959, 512.4)">
tinygql
</text>
<rect x="712.9473684210537" y="277.22059290713145" width="9.894736842105264" height="220.7794070928685" fill="#785EF0" data-tooltip="1.05x baseline (YJIT 3.4.0dev)"/>
<line x1="717.8947368421065" y1="498.0" x2="717.8947368421065" y2="502.79999999999995" stroke="#000"/>
<text x="717.8947368421065" y="512.4" fill="#111" font-size="small" text-anchor="end" transform="rotate(-60, 717.8947368421065, 512.4)">
30k_ifelse
</text>
<rect x="732.7368421052644" y="266.71534582591795" width="9.894736842105264" height="231.28465417408196" fill="#785EF0" data-tooltip="1.10x baseline (YJIT 3.4.0dev)"/>
<line x1="737.6842105263171" y1="498.0" x2="737.6842105263171" y2="502.79999999999995" stroke="#000"/>
<text x="737.6842105263171" y="512.4" fill="#111" font-size="small" text-anchor="end" transform="rotate(-60, 737.6842105263171, 512.4)">
30k_methods
</text>
<rect x="752.5263157894749" y="284.7514629982073" width="9.894736842105264" height="213.24853700179264" fill="#785EF0" data-tooltip="1.02x baseline (YJIT 3.4.0dev)"/>
<line x1="757.4736842105276" y1="498.0" x2="757.4736842105276" y2="502.79999999999995" stroke="#000"/>
<text x="757.4736842105276" y="512.4" fill="#111" font-size="small" text-anchor="end" transform="rotate(-60, 757.4736842105276, 512.4)">
cfunc_itself
</text>
<rect x="772.3157894736855" y="285.9796763142724" width="9.894736842105264" height="212.02032368572756" fill="#785EF0" data-tooltip="1.01x baseline (YJIT 3.4.0dev)"/>
<line x1="777.2631578947382" y1="498.0" x2="777.2631578947382" y2="502.79999999999995" stroke="#000"/>
<text x="777.2631578947382" y="512.4" fill="#111" font-size="small" text-anchor="end" transform="rotate(-60, 777.2631578947382, 512.4)">
fib
</text>
<rect x="792.105263157896" y="284.790469498482" width="9.894736842105264" height="213.20953050151792" fill="#785EF0" data-tooltip="1.02x baseline (YJIT 3.4.0dev)"/>
<line x1="797.0526315789488" y1="498.0" x2="797.0526315789488" y2="502.79999999999995" stroke="#000"/>
<text x="797.0526315789488" y="512.4" fill="#111" font-size="small" text-anchor="end" transform="rotate(-60, 797.0526315789488, 512.4)">
getivar
</text>
<rect x="811.8947368421067" y="284.6740535336049" width="9.894736842105264" height="213.32594646639504" fill="#785EF0" data-tooltip="1.02x baseline (YJIT 3.4.0dev)"/>
<line x1="816.8421052631594" y1="498.0" x2="816.8421052631594" y2="502.79999999999995" stroke="#000"/>
<text x="816.8421052631594" y="512.4" fill="#111" font-size="small" text-anchor="end" transform="rotate(-60, 816.8421052631594, 512.4)">
keyword_args
</text>
<rect x="831.6842105263172" y="284.71499725726824" width="9.894736842105264" height="213.28500274273173" fill="#785EF0" data-tooltip="1.02x baseline (YJIT 3.4.0dev)"/>
<line x1="836.6315789473699" y1="498.0" x2="836.6315789473699" y2="502.79999999999995" stroke="#000"/>
<text x="836.6315789473699" y="512.4" fill="#111" font-size="small" text-anchor="end" transform="rotate(-60, 836.6315789473699, 512.4)">
respond_to
</text>
<rect x="851.4736842105278" y="286.71170809136953" width="9.894736842105264" height="211.28829190863044" fill="#785EF0" data-tooltip="1.01x baseline (YJIT 3.4.0dev)"/>
<line x1="856.4210526315806" y1="498.0" x2="856.4210526315806" y2="502.79999999999995" stroke="#000"/>
<text x="856.4210526315806" y="512.4" fill="#111" font-size="small" text-anchor="end" transform="rotate(-60, 856.4210526315806, 512.4)">
ruby-xor
</text>
<rect x="871.2631578947384" y="284.63697091640756" width="9.894736842105264" height="213.3630290835924" fill="#785EF0" data-tooltip="1.02x baseline (YJIT 3.4.0dev)"/>
<line x1="876.2105263157911" y1="498.0" x2="876.2105263157911" y2="502.79999999999995" stroke="#000"/>
<text x="876.2105263157911" y="512.4" fill="#111" font-size="small" text-anchor="end" transform="rotate(-60, 876.2105263157911, 512.4)">
setivar
</text>
<rect x="891.052631578949" y="286.01845815507824" width="9.894736842105264" height="211.9815418449217" fill="#785EF0" data-tooltip="1.01x baseline (YJIT 3.4.0dev)"/>
<line x1="896.0000000000017" y1="498.0" x2="896.0000000000017" y2="502.79999999999995" stroke="#000"/>
<text x="896.0000000000017" y="512.4" fill="#111" font-size="small" text-anchor="end" transform="rotate(-60, 896.0000000000017, 512.4)">
setivar_object
</text>
<rect x="910.8421052631595" y="285.9796763142724" width="9.894736842105264" height="212.02032368572756" fill="#785EF0" data-tooltip="1.01x baseline (YJIT 3.4.0dev)"/>
<line x1="915.7894736842122" y1="498.0" x2="915.7894736842122" y2="502.79999999999995" stroke="#000"/>
<text x="915.7894736842122" y="512.4" fill="#111" font-size="small" text-anchor="end" transform="rotate(-60, 915.7894736842122, 512.4)">
setivar_young
</text>
<rect x="930.6315789473701" y="226.19910501471378" width="9.894736842105264" height="271.80089498528616" fill="#785EF0" data-tooltip="1.30x baseline (YJIT 3.4.0dev)"/>
<line x1="935.5789473684229" y1="498.0" x2="935.5789473684229" y2="502.79999999999995" stroke="#000"/>
<text x="935.5789473684229" y="512.4" fill="#111" font-size="small" text-anchor="end" transform="rotate(-60, 935.5789473684229, 512.4)">
str_concat
</text>
<rect x="950.4210526315807" y="286.56976832810136" width="9.894736842105264" height="211.43023167189855" fill="#785EF0" data-tooltip="1.01x baseline (YJIT 3.4.0dev)"/>
<line x1="955.3684210526334" y1="498.0" x2="955.3684210526334" y2="502.79999999999995" stroke="#000"/>
<text x="955.3684210526334" y="512.4" fill="#111" font-size="small" text-anchor="end" transform="rotate(-60, 955.3684210526334, 512.4)">
throw
</text>
<rect x="970.2105263157913" y="272.9544996717885" width="9.894736842105264" height="225.04550032821146" fill="#785EF0" data-tooltip="1.07x baseline (YJIT 3.4.0dev)"/>
<line x1="975.157894736844" y1="498.0" x2="975.157894736844" y2="502.79999999999995" stroke="#000"/>
<text x="975.157894736844" y="512.4" fill="#111" font-size="small" text-anchor="end" transform="rotate(-60, 975.157894736844, 512.4)" font-style="italic">
geomean*
</text>
<line x1="50.0" y1="288.20581294964023" x2="990.0" y2="288.20581294964023" stroke="#648FFF" stroke-width="2"/>
</svg>