<svg viewBox="0 0 1000 600" xmlns="http://www.w3.org/2000/svg" xmlns:xlink="http://www.w3.org/1999/xlink" width="100%" height="100%">

<rect x="50.0" y="30.0" width="940.0" height="467.99999999999994" stroke="#000" fill="#fff"/>
<line x1="42.0" y1="497.9999999999999" x2="50.0" y2="497.9999999999999" stroke="#000"/>
<text x="26.000000000000004" y="497.9999999999999" text-anchor="end" font-weight="bold" font-size="small" fill="#111">
0.0
</text>
<line x1="42.0" y1="432.9528302677336" x2="50.0" y2="432.9528302677336" stroke="#000"/>
<text x="26.000000000000004" y="432.9528302677336" text-anchor="end" font-weight="bold" font-size="small" fill="#111">
2.0
</text>
<line x1="42.0" y1="367.9056605354673" x2="50.0" y2="367.9056605354673" stroke="#000"/>
<text x="26.000000000000004" y="367.9056605354673" text-anchor="end" font-weight="bold" font-size="small" fill="#111">
4.0
</text>
<line x1="42.0" y1="302.8584908032011" x2="50.0" y2="302.8584908032011" stroke="#000"/>
<text x="26.000000000000004" y="302.8584908032011" text-anchor="end" font-weight="bold" font-size="small" fill="#111">
6.0
</text>
<line x1="42.0" y1="237.81132107093472" x2="50.0" y2="237.81132107093472" stroke="#000"/>
<text x="26.000000000000004" y="237.81132107093472" text-anchor="end" font-weight="bold" font-size="small" fill="#111">
8.0
</text>
<line x1="42.0" y1="172.76415133866843" x2="50.0" y2="172.76415133866843" stroke="#000"/>
<text x="26.000000000000004" y="172.76415133866843" text-anchor="end" font-weight="bold" font-size="small" fill="#111">
10.0
</text>
<line x1="42.0" y1="107.71698160640214" x2="50.0" y2="107.71698160640214" stroke="#000"/>
<text x="26.000000000000004" y="107.71698160640214" text-anchor="end" font-weight="bold" font-size="small" fill="#111">
12.0
</text>
<line x1="178.0" y1="54.60000000000001" x2="298.0" y2="54.60000000000001" stroke="#648FFF" stroke-width="2"/>
<text x="238.0" y="49.500000000000014" font-size="small" text-anchor="middle" font-weight="bold" fill="#000">
CRuby 3.1.0dev
</text>
<rect x="459.9999999999999" y="35.400000000000006" width="120.0" height="19.2" fill="#785EF0" stroke="none"/>
<text x="519.9999999999999" y="49.500000000000014" font-size="small" text-anchor="middle" font-weight="bold" fill="#fff" style="text-shadow: 0 0 1px #000;">
MJIT3.0
</text>
<rect x="742.0" y="35.400000000000006" width="120.0" height="19.2" fill="#FFB000" stroke="none"/>
<text x="801.9999999999999" y="49.500000000000014" font-size="small" text-anchor="middle" font-weight="bold" fill="#fff" style="text-shadow: 0 0 1px #000;">
YJIT 3.1.0dev
</text>
<rect x="92.72727272727273" y="465.9628979099444" width="42.72727272727273" height="32.037102090055555" fill="#785EF0" data-tooltip="0.99x baseline (MJIT3.0)"/>
<rect x="135.45454545454544" y="175.94840223663087" width="42.72727272727273" height="322.05159776336905" fill="#FFB000" data-tooltip="9.90x baseline (YJIT 3.1.0dev)"/>
<line x1="135.45454545454544" y1="498.0" x2="135.45454545454544" y2="502.79999999999995" stroke="#000"/>
<text x="135.45454545454544" y="512.4" fill="#111" font-size="small" text-anchor="end" transform="rotate(-60, 135.45454545454544, 512.4)">
binarytrees
</text>
<rect x="220.90909090909088" y="467.3051161963298" width="42.72727272727273" height="30.69488380367014" fill="#785EF0" data-tooltip="0.94x baseline (MJIT3.0)"/>
<rect x="263.6363636363636" y="107.00733641798362" width="42.72727272727273" height="390.99266358201635" fill="#FFB000" data-tooltip="12.02x baseline (YJIT 3.1.0dev)"/>
<line x1="263.6363636363636" y1="498.0" x2="263.6363636363636" y2="502.79999999999995" stroke="#000"/>
<text x="263.6363636363636" y="512.4" fill="#111" font-size="small" text-anchor="end" transform="rotate(-60, 263.6363636363636, 512.4)">
fannkuchredux
</text>
<rect x="349.09090909090907" y="465.93125829722953" width="42.72727272727273" height="32.0687417027704" fill="#785EF0" data-tooltip="0.99x baseline (MJIT3.0)"/>
<rect x="391.8181818181818" y="455.34855425601586" width="42.72727272727273" height="42.65144574398403" fill="#FFB000" data-tooltip="1.31x baseline (YJIT 3.1.0dev)"/>
<line x1="391.8181818181818" y1="498.0" x2="391.8181818181818" y2="502.79999999999995" stroke="#000"/>
<text x="391.8181818181818" y="512.4" fill="#111" font-size="small" text-anchor="end" transform="rotate(-60, 391.8181818181818, 512.4)">
jekyll
</text>
<rect x="477.27272727272725" y="465.99773875981913" width="42.72727272727273" height="32.00226124018085" fill="#785EF0" data-tooltip="0.98x baseline (MJIT3.0)"/>
<rect x="520.0" y="177.05302385805751" width="42.72727272727273" height="320.94697614194246" fill="#FFB000" data-tooltip="9.87x baseline (YJIT 3.1.0dev)"/>
<line x1="520.0" y1="498.0" x2="520.0" y2="502.79999999999995" stroke="#000"/>
<text x="520.0" y="512.4" fill="#111" font-size="small" text-anchor="end" transform="rotate(-60, 520.0, 512.4)">
lee
</text>
<rect x="605.4545454545455" y="466.64313068253233" width="42.72727272727273" height="31.356869317467634" fill="#785EF0" data-tooltip="0.96x baseline (MJIT3.0)"/>
<rect x="648.1818181818182" y="100.19999999999999" width="42.72727272727273" height="397.79999999999995" fill="#FFB000" data-tooltip="12.23x baseline (YJIT 3.1.0dev)"/>
<line x1="648.1818181818182" y1="498.0" x2="648.1818181818182" y2="502.79999999999995" stroke="#000"/>
<text x="648.1818181818182" y="512.4" fill="#111" font-size="small" text-anchor="end" transform="rotate(-60, 648.1818181818182, 512.4)">
nbody
</text>
<rect x="733.6363636363636" y="461.6987907547975" width="42.72727272727273" height="36.3012092452024" fill="#785EF0" data-tooltip="1.12x baseline (MJIT3.0)"/>
<rect x="776.3636363636364" y="377.072324950573" width="42.72727272727273" height="120.92767504942698" fill="#FFB000" data-tooltip="3.72x baseline (YJIT 3.1.0dev)"/>
<line x1="776.3636363636364" y1="498.0" x2="776.3636363636364" y2="502.79999999999995" stroke="#000"/>
<text x="776.3636363636364" y="512.4" fill="#111" font-size="small" text-anchor="end" transform="rotate(-60, 776.3636363636364, 512.4)">
optcarrot
</text>
<rect x="861.8181818181819" y="465.6377084962098" width="42.72727272727273" height="32.36229150379005" fill="#785EF0" data-tooltip="1.00x baseline (MJIT3.0)"/>
<rect x="904.5454545454545" y="289.17847374897195" width="42.72727272727273" height="208.821526251028" fill="#FFB000" data-tooltip="6.42x baseline (YJIT 3.1.0dev)"/>
<line x1="904.5454545454545" y1="498.0" x2="904.5454545454545" y2="502.79999999999995" stroke="#000"/>
<text x="904.5454545454545" y="512.4" fill="#111" font-size="small" text-anchor="end" transform="rotate(-60, 904.5454545454545, 512.4)" font-style="italic">
geomean*
</text>
<line x1="50.0" y1="465.47641513386674" x2="990.0" y2="465.47641513386674" stroke="#648FFF" stroke-width="2"/>
</svg>