<svg viewBox="0 0 1000 600" xmlns="http://www.w3.org/2000/svg" xmlns:xlink="http://www.w3.org/1999/xlink" width="100%" height="100%">

<rect x="50.0" y="30.0" width="940.0" height="467.99999999999994" stroke="#000" fill="#EEE"/>
<line x1="42.0" y1="497.9999999999999" x2="50.0" y2="497.9999999999999" stroke="#000"/>
<text x="26.000000000000004" y="497.9999999999999" text-anchor="end" font-weight="bold" font-size="small" fill="#111">
0.0
</text>
<line x1="42.0" y1="456.0713321129282" x2="50.0" y2="456.0713321129282" stroke="#000"/>
<text x="26.000000000000004" y="456.0713321129282" text-anchor="end" font-weight="bold" font-size="small" fill="#111">
0.2
</text>
<line x1="42.0" y1="414.14266422585644" x2="50.0" y2="414.14266422585644" stroke="#000"/>
<text x="26.000000000000004" y="414.14266422585644" text-anchor="end" font-weight="bold" font-size="small" fill="#111">
0.4
</text>
<line x1="42.0" y1="372.2139963387847" x2="50.0" y2="372.2139963387847" stroke="#000"/>
<text x="26.000000000000004" y="372.2139963387847" text-anchor="end" font-weight="bold" font-size="small" fill="#111">
0.6
</text>
<line x1="42.0" y1="330.2853284517129" x2="50.0" y2="330.2853284517129" stroke="#000"/>
<text x="26.000000000000004" y="330.2853284517129" text-anchor="end" font-weight="bold" font-size="small" fill="#111">
0.8
</text>
<line x1="42.0" y1="288.3566605646411" x2="50.0" y2="288.3566605646411" stroke="#000"/>
<text x="26.000000000000004" y="288.3566605646411" text-anchor="end" font-weight="bold" font-size="small" fill="#111">
1.0
</text>
<line x1="42.0" y1="246.42799267756936" x2="50.0" y2="246.42799267756936" stroke="#000"/>
<text x="26.000000000000004" y="246.42799267756936" text-anchor="end" font-weight="bold" font-size="small" fill="#111">
1.2
</text>
<line x1="42.0" y1="204.4993247904977" x2="50.0" y2="204.4993247904977" stroke="#000"/>
<text x="26.000000000000004" y="204.4993247904977" text-anchor="end" font-weight="bold" font-size="small" fill="#111">
1.4
</text>
<line x1="42.0" y1="162.5706569034259" x2="50.0" y2="162.5706569034259" stroke="#000"/>
<text x="26.000000000000004" y="162.5706569034259" text-anchor="end" font-weight="bold" font-size="small" fill="#111">
1.6
</text>
<line x1="42.0" y1="120.64198901635416" x2="50.0" y2="120.64198901635416" stroke="#000"/>
<text x="26.000000000000004" y="120.64198901635416" text-anchor="end" font-weight="bold" font-size="small" fill="#111">
1.8
</text>
<rect x="197.99999999999997" y="36.00000000000001" width="80.0" height="18.0" fill="#7070f8" stroke="#888"/>
<text x="238.0" y="52.50000000000001" font-size="small" text-anchor="middle" font-weight="bold" fill="#EEE">
No JIT
</text>
<rect x="479.99999999999994" y="36.00000000000001" width="80.0" height="18.0" fill="orange" stroke="#888"/>
<text x="519.9999999999999" y="52.50000000000001" font-size="small" text-anchor="middle" font-weight="bold" fill="#EEE">
MJIT3.0
</text>
<rect x="761.9999999999999" y="36.00000000000001" width="80.0" height="18.0" fill="green" stroke="#888"/>
<text x="801.9999999999999" y="52.50000000000001" font-size="small" text-anchor="middle" font-weight="bold" fill="#EEE">
YJIT
</text>
<rect x="97.0" y="288.3566605646411" width="30.214285714285715" height="209.6433394353588" fill="#7070f8" data-tooltip="1.00x baseline speed (No JIT)"/>
<line x1="97.0" y1="287.89239918303497" x2="127.21428571428572" y2="287.89239918303497" stroke="#000"/>
<line x1="97.0" y1="288.8209219462473" x2="127.21428571428572" y2="288.8209219462473" stroke="#000"/>
<line x1="112.10714285714286" y1="287.89239918303497" x2="112.10714285714286" y2="288.8209219462473" stroke="#000"/>
<rect x="127.21428571428572" y="199.47797902582533" width="30.214285714285715" height="298.5220209741746" fill="orange" data-tooltip="1.42x baseline speed (MJIT3.0)"/>
<line x1="127.21428571428572" y1="198.57292770603576" x2="157.42857142857144" y2="198.57292770603576" stroke="#000"/>
<line x1="127.21428571428572" y1="200.3830303456149" x2="157.42857142857144" y2="200.3830303456149" stroke="#000"/>
<line x1="142.32142857142858" y1="198.57292770603576" x2="142.32142857142858" y2="200.3830303456149" stroke="#000"/>
<rect x="157.42857142857142" y="233.74980431174797" width="30.214285714285715" height="264.25019568825195" fill="green" data-tooltip="1.26x baseline speed (YJIT)"/>
<line x1="157.42857142857142" y1="226.7054580338067" x2="187.64285714285714" y2="226.7054580338067" stroke="#000"/>
<line x1="157.42857142857142" y1="240.79415058968922" x2="187.64285714285714" y2="240.79415058968922" stroke="#000"/>
<line x1="172.53571428571428" y1="226.7054580338067" x2="172.53571428571428" y2="240.79415058968922" stroke="#000"/>
<line x1="157.42857142857142" y1="498.0" x2="157.42857142857142" y2="502.79999999999995" stroke="#000"/>
<text x="157.42857142857142" y="512.4" fill="#111" font-size="small" font-family="monospace" font-weight="bold" text-anchor="end" transform="rotate(-60, 157.42857142857142, 512.4)">
binarytrees
</text>
<rect x="217.85714285714286" y="288.3566605646411" width="30.214285714285715" height="209.6433394353588" fill="#7070f8" data-tooltip="1.00x baseline speed (No JIT)"/>
<line x1="217.85714285714286" y1="288.31772872734734" x2="248.07142857142858" y2="288.31772872734734" stroke="#000"/>
<line x1="217.85714285714286" y1="288.39559240193495" x2="248.07142857142858" y2="288.39559240193495" stroke="#000"/>
<line x1="232.9642857142857" y1="288.31772872734734" x2="232.9642857142857" y2="288.39559240193495" stroke="#000"/>
<rect x="248.07142857142858" y="211.35254820441622" width="30.214285714285715" height="286.6474517955837" fill="orange" data-tooltip="1.37x baseline speed (MJIT3.0)"/>
<line x1="248.07142857142858" y1="210.2306377041041" x2="278.2857142857143" y2="210.2306377041041" stroke="#000"/>
<line x1="248.07142857142858" y1="212.4744587047283" x2="278.2857142857143" y2="212.4744587047283" stroke="#000"/>
<line x1="263.17857142857144" y1="210.2306377041041" x2="263.17857142857144" y2="212.4744587047283" stroke="#000"/>
<rect x="278.2857142857143" y="288.5161960071703" width="30.214285714285715" height="209.48380399282962" fill="green" data-tooltip="1.00x baseline speed (YJIT)"/>
<line x1="278.2857142857143" y1="288.43177472663865" x2="308.5" y2="288.43177472663865" stroke="#000"/>
<line x1="278.2857142857143" y1="288.600617287702" x2="308.5" y2="288.600617287702" stroke="#000"/>
<line x1="293.39285714285717" y1="288.43177472663865" x2="293.39285714285717" y2="288.600617287702" stroke="#000"/>
<line x1="278.2857142857143" y1="498.0" x2="278.2857142857143" y2="502.79999999999995" stroke="#000"/>
<text x="278.2857142857143" y="512.4" fill="#111" font-size="small" font-family="monospace" font-weight="bold" text-anchor="end" transform="rotate(-60, 278.2857142857143, 512.4)">
fannkuchredux
</text>
<rect x="338.7142857142857" y="288.3566605646411" width="30.214285714285715" height="209.6433394353588" fill="#7070f8" data-tooltip="1.00x baseline speed (No JIT)"/>
<line x1="338.7142857142857" y1="285.19523315028147" x2="368.92857142857144" y2="285.19523315028147" stroke="#000"/>
<line x1="338.7142857142857" y1="291.5180879790008" x2="368.92857142857144" y2="291.5180879790008" stroke="#000"/>
<line x1="353.8214285714286" y1="285.19523315028147" x2="353.8214285714286" y2="291.5180879790008" stroke="#000"/>
<rect x="368.92857142857144" y="284.7596915563124" width="30.214285714285715" height="213.24030844368752" fill="orange" data-tooltip="1.02x baseline speed (MJIT3.0)"/>
<line x1="368.92857142857144" y1="280.39884005885625" x2="399.1428571428571" y2="280.39884005885625" stroke="#000"/>
<line x1="368.92857142857144" y1="289.12054305376864" x2="399.1428571428571" y2="289.12054305376864" stroke="#000"/>
<line x1="384.03571428571433" y1="280.39884005885625" x2="384.03571428571433" y2="289.12054305376864" stroke="#000"/>
<rect x="399.14285714285717" y="261.9822672516823" width="30.214285714285715" height="236.01773274831766" fill="green" data-tooltip="1.13x baseline speed (YJIT)"/>
<line x1="399.14285714285717" y1="256.0375845514088" x2="429.3571428571429" y2="256.0375845514088" stroke="#000"/>
<line x1="399.14285714285717" y1="267.92694995195575" x2="429.3571428571429" y2="267.92694995195575" stroke="#000"/>
<line x1="414.25000000000006" y1="256.0375845514088" x2="414.25000000000006" y2="267.92694995195575" stroke="#000"/>
<line x1="399.14285714285717" y1="498.0" x2="399.14285714285717" y2="502.79999999999995" stroke="#000"/>
<text x="399.14285714285717" y="512.4" fill="#111" font-size="small" font-family="monospace" font-weight="bold" text-anchor="end" transform="rotate(-60, 399.14285714285717, 512.4)">
jekyll
</text>
<rect x="459.5714285714285" y="288.3566605646411" width="30.214285714285715" height="209.6433394353588" fill="#7070f8" data-tooltip="1.00x baseline speed (No JIT)"/>
<line x1="459.5714285714285" y1="285.8503393582583" x2="489.7857142857142" y2="285.8503393582583" stroke="#000"/>
<line x1="459.5714285714285" y1="290.862981771024" x2="489.7857142857142" y2="290.862981771024" stroke="#000"/>
<line x1="474.6785714285714" y1="285.8503393582583" x2="474.6785714285714" y2="290.862981771024" stroke="#000"/>
<rect x="489.7857142857142" y="222.2345559880378" width="30.214285714285715" height="275.76544401196213" fill="orange" data-tooltip="1.32x baseline speed (MJIT3.0)"/>
<line x1="489.7857142857142" y1="217.78180318363678" x2="519.9999999999999" y2="217.78180318363678" stroke="#000"/>
<line x1="489.7857142857142" y1="226.68730879243884" x2="519.9999999999999" y2="226.68730879243884" stroke="#000"/>
<line x1="504.89285714285705" y1="217.78180318363678" x2="504.89285714285705" y2="226.68730879243884" stroke="#000"/>
<rect x="519.9999999999999" y="202.43010746779964" width="30.214285714285715" height="295.5698925322003" fill="green" data-tooltip="1.41x baseline speed (YJIT)"/>
<line x1="519.9999999999999" y1="197.4184330823674" x2="550.2142857142857" y2="197.4184330823674" stroke="#000"/>
<line x1="519.9999999999999" y1="207.4417818532319" x2="550.2142857142857" y2="207.4417818532319" stroke="#000"/>
<line x1="535.1071428571428" y1="197.4184330823674" x2="535.1071428571428" y2="207.4417818532319" stroke="#000"/>
<line x1="519.9999999999999" y1="498.0" x2="519.9999999999999" y2="502.79999999999995" stroke="#000"/>
<text x="519.9999999999999" y="512.4" fill="#111" font-size="small" font-family="monospace" font-weight="bold" text-anchor="end" transform="rotate(-60, 519.9999999999999, 512.4)">
lee
</text>
<rect x="580.4285714285714" y="288.3566605646411" width="30.214285714285715" height="209.6433394353588" fill="#7070f8" data-tooltip="1.00x baseline speed (No JIT)"/>
<line x1="580.4285714285714" y1="288.3068924718269" x2="610.6428571428571" y2="288.3068924718269" stroke="#000"/>
<line x1="580.4285714285714" y1="288.40642865745536" x2="610.6428571428571" y2="288.40642865745536" stroke="#000"/>
<line x1="595.5357142857143" y1="288.3068924718269" x2="595.5357142857143" y2="288.40642865745536" stroke="#000"/>
<rect x="610.6428571428571" y="100.19999999999999" width="30.214285714285715" height="397.79999999999995" fill="orange" data-tooltip="1.90x baseline speed (MJIT3.0)"/>
<line x1="610.6428571428571" y1="96.01315620514166" x2="640.8571428571429" y2="96.01315620514166" stroke="#000"/>
<line x1="610.6428571428571" y1="104.38684379485832" x2="640.8571428571429" y2="104.38684379485832" stroke="#000"/>
<line x1="625.75" y1="96.01315620514166" x2="625.75" y2="104.38684379485832" stroke="#000"/>
<rect x="640.8571428571428" y="192.1223501782444" width="30.214285714285715" height="305.87764982175554" fill="green" data-tooltip="1.46x baseline speed (YJIT)"/>
<line x1="640.8571428571428" y1="191.98579147434484" x2="671.0714285714286" y2="191.98579147434484" stroke="#000"/>
<line x1="640.8571428571428" y1="192.25890888214397" x2="671.0714285714286" y2="192.25890888214397" stroke="#000"/>
<line x1="655.9642857142857" y1="191.98579147434484" x2="655.9642857142857" y2="192.25890888214397" stroke="#000"/>
<line x1="640.8571428571428" y1="498.0" x2="640.8571428571428" y2="502.79999999999995" stroke="#000"/>
<text x="640.8571428571428" y="512.4" fill="#111" font-size="small" font-family="monospace" font-weight="bold" text-anchor="end" transform="rotate(-60, 640.8571428571428, 512.4)">
nbody
</text>
<rect x="701.2857142857143" y="288.3566605646411" width="30.214285714285715" height="209.6433394353588" fill="#7070f8" data-tooltip="1.00x baseline speed (No JIT)"/>
<line x1="701.2857142857143" y1="287.1737643232165" x2="731.5" y2="287.1737643232165" stroke="#000"/>
<line x1="701.2857142857143" y1="289.5395568060658" x2="731.5" y2="289.5395568060658" stroke="#000"/>
<line x1="716.3928571428571" y1="287.1737643232165" x2="716.3928571428571" y2="289.5395568060658" stroke="#000"/>
<rect x="731.5" y="244.9371562850866" width="30.214285714285715" height="253.06284371491336" fill="orange" data-tooltip="1.21x baseline speed (MJIT3.0)"/>
<line x1="731.5" y1="242.67132526476206" x2="761.7142857142858" y2="242.67132526476206" stroke="#000"/>
<line x1="731.5" y1="247.2029873054111" x2="761.7142857142858" y2="247.2029873054111" stroke="#000"/>
<line x1="746.6071428571429" y1="242.67132526476206" x2="746.6071428571429" y2="247.2029873054111" stroke="#000"/>
<rect x="761.7142857142857" y="147.2699330405923" width="30.214285714285715" height="350.7300669594076" fill="green" data-tooltip="1.67x baseline speed (YJIT)"/>
<line x1="761.7142857142857" y1="144.41195773368366" x2="791.9285714285714" y2="144.41195773368366" stroke="#000"/>
<line x1="761.7142857142857" y1="150.1279083475009" x2="791.9285714285714" y2="150.1279083475009" stroke="#000"/>
<line x1="776.8214285714286" y1="144.41195773368366" x2="776.8214285714286" y2="150.1279083475009" stroke="#000"/>
<line x1="761.7142857142857" y1="498.0" x2="761.7142857142857" y2="502.79999999999995" stroke="#000"/>
<text x="761.7142857142857" y="512.4" fill="#111" font-size="small" font-family="monospace" font-weight="bold" text-anchor="end" transform="rotate(-60, 761.7142857142857, 512.4)">
optcarrot
</text>
<rect x="822.1428571428571" y="288.3566605646411" width="30.214285714285715" height="209.6433394353588" fill="#7070f8" data-tooltip="1.00x baseline speed (No JIT)"/>
<line x1="822.1428571428571" y1="287.3474845445971" x2="852.3571428571428" y2="287.3474845445971" stroke="#000"/>
<line x1="822.1428571428571" y1="289.3658365846852" x2="852.3571428571428" y2="289.3658365846852" stroke="#000"/>
<line x1="837.2499999999999" y1="287.3474845445971" x2="837.2499999999999" y2="289.3658365846852" stroke="#000"/>
<rect x="852.3571428571428" y="227.11837500469977" width="30.214285714285715" height="270.88162499530017" fill="orange" data-tooltip="1.29x baseline speed (MJIT3.0)"/>
<line x1="852.3571428571428" y1="225.47436433059883" x2="882.5714285714286" y2="225.47436433059883" stroke="#000"/>
<line x1="852.3571428571428" y1="228.76238567880074" x2="882.5714285714286" y2="228.76238567880074" stroke="#000"/>
<line x1="867.4642857142857" y1="225.47436433059883" x2="867.4642857142857" y2="228.76238567880074" stroke="#000"/>
<rect x="882.5714285714284" y="114.30598782088792" width="30.214285714285715" height="383.694012179112" fill="green" data-tooltip="1.83x baseline speed (YJIT)"/>
<line x1="882.5714285714284" y1="112.11974505928288" x2="912.7857142857142" y2="112.11974505928288" stroke="#000"/>
<line x1="882.5714285714284" y1="116.49223058249298" x2="912.7857142857142" y2="116.49223058249298" stroke="#000"/>
<line x1="897.6785714285713" y1="112.11974505928288" x2="897.6785714285713" y2="116.49223058249298" stroke="#000"/>
<line x1="882.5714285714284" y1="498.0" x2="882.5714285714284" y2="502.79999999999995" stroke="#000"/>
<text x="882.5714285714284" y="512.4" fill="#111" font-size="small" font-family="monospace" font-weight="bold" text-anchor="end" transform="rotate(-60, 882.5714285714284, 512.4)">
rubykon
</text>
</svg>