<svg viewBox="0 0 1000 600" xmlns="http://www.w3.org/2000/svg" xmlns:xlink="http://www.w3.org/1999/xlink" width="100%" height="100%">

<rect x="50.0" y="30.0" width="940.0" height="467.99999999999994" stroke="#000" fill="#EEE"/>
<line x1="42.0" y1="497.9999999999999" x2="50.0" y2="497.9999999999999" stroke="#000"/>
<text x="26.000000000000004" y="497.9999999999999" text-anchor="end" font-weight="bold" font-size="small" fill="#111">
0.0
</text>
<line x1="42.0" y1="456.0577215456139" x2="50.0" y2="456.0577215456139" stroke="#000"/>
<text x="26.000000000000004" y="456.0577215456139" text-anchor="end" font-weight="bold" font-size="small" fill="#111">
0.2
</text>
<line x1="42.0" y1="414.1154430912279" x2="50.0" y2="414.1154430912279" stroke="#000"/>
<text x="26.000000000000004" y="414.1154430912279" text-anchor="end" font-weight="bold" font-size="small" fill="#111">
0.4
</text>
<line x1="42.0" y1="372.17316463684193" x2="50.0" y2="372.17316463684193" stroke="#000"/>
<text x="26.000000000000004" y="372.17316463684193" text-anchor="end" font-weight="bold" font-size="small" fill="#111">
0.6
</text>
<line x1="42.0" y1="330.23088618245595" x2="50.0" y2="330.23088618245595" stroke="#000"/>
<text x="26.000000000000004" y="330.23088618245595" text-anchor="end" font-weight="bold" font-size="small" fill="#111">
0.8
</text>
<line x1="42.0" y1="288.28860772806996" x2="50.0" y2="288.28860772806996" stroke="#000"/>
<text x="26.000000000000004" y="288.28860772806996" text-anchor="end" font-weight="bold" font-size="small" fill="#111">
1.0
</text>
<line x1="42.0" y1="246.346329273684" x2="50.0" y2="246.346329273684" stroke="#000"/>
<text x="26.000000000000004" y="246.346329273684" text-anchor="end" font-weight="bold" font-size="small" fill="#111">
1.2
</text>
<line x1="42.0" y1="204.404050819298" x2="50.0" y2="204.404050819298" stroke="#000"/>
<text x="26.000000000000004" y="204.404050819298" text-anchor="end" font-weight="bold" font-size="small" fill="#111">
1.4
</text>
<line x1="42.0" y1="162.46177236491206" x2="50.0" y2="162.46177236491206" stroke="#000"/>
<text x="26.000000000000004" y="162.46177236491206" text-anchor="end" font-weight="bold" font-size="small" fill="#111">
1.6
</text>
<line x1="42.0" y1="120.51949391052604" x2="50.0" y2="120.51949391052604" stroke="#000"/>
<text x="26.000000000000004" y="120.51949391052604" text-anchor="end" font-weight="bold" font-size="small" fill="#111">
1.8
</text>
<rect x="268.5" y="36.00000000000001" width="80.0" height="18.0" fill="#7070f8" stroke="#888"/>
<text x="308.5" y="52.50000000000001" font-size="small" text-anchor="middle" font-weight="bold" fill="#EEE">
No JIT
</text>
<rect x="691.4999999999999" y="36.00000000000001" width="80.0" height="18.0" fill="orange" stroke="#888"/>
<text x="731.4999999999999" y="52.50000000000001" font-size="small" text-anchor="middle" font-weight="bold" fill="#EEE">
YJIT
</text>
<rect x="97.0" y="288.28860772806996" width="23.499999999999996" height="209.71139227192995" fill="#7070f8" data-tooltip="1.00x baseline speed (No JIT)"/>
<line x1="97.0" y1="283.9365282687425" x2="120.5" y2="283.9365282687425" stroke="#000"/>
<line x1="97.0" y1="292.6406871873974" x2="120.5" y2="292.6406871873974" stroke="#000"/>
<line x1="108.75" y1="283.9365282687425" x2="108.75" y2="292.6406871873974" stroke="#000"/>
<rect x="120.5" y="100.19999999999999" width="23.499999999999996" height="397.79999999999995" fill="orange" data-tooltip="1.90x baseline speed (YJIT)"/>
<line x1="120.5" y1="83.08149730521002" x2="144.0" y2="83.08149730521002" stroke="#000"/>
<line x1="120.5" y1="117.31850269478996" x2="144.0" y2="117.31850269478996" stroke="#000"/>
<line x1="132.25" y1="83.08149730521002" x2="132.25" y2="117.31850269478996" stroke="#000"/>
<line x1="132.25" y1="498.0" x2="132.25" y2="502.79999999999995" stroke="#000"/>
<text x="132.25" y="512.4" fill="#111" font-size="small" font-family="monospace" font-weight="bold" text-anchor="end" transform="rotate(-60, 132.25, 512.4)">
activerecord
</text>
<rect x="167.49999999999997" y="288.28860772806996" width="23.499999999999996" height="209.71139227192995" fill="#7070f8" data-tooltip="1.00x baseline speed (No JIT)"/>
<line x1="167.49999999999997" y1="287.7396753521386" x2="190.99999999999997" y2="287.7396753521386" stroke="#000"/>
<line x1="167.49999999999997" y1="288.8375401040014" x2="190.99999999999997" y2="288.8375401040014" stroke="#000"/>
<line x1="179.25" y1="287.7396753521386" x2="179.25" y2="288.8375401040014" stroke="#000"/>
<rect x="190.99999999999997" y="177.19942746050933" width="23.499999999999996" height="320.80057253949064" fill="orange" data-tooltip="1.53x baseline speed (YJIT)"/>
<line x1="190.99999999999997" y1="175.76290280044032" x2="214.49999999999997" y2="175.76290280044032" stroke="#000"/>
<line x1="190.99999999999997" y1="178.6359521205783" x2="214.49999999999997" y2="178.6359521205783" stroke="#000"/>
<line x1="202.75" y1="175.76290280044032" x2="202.75" y2="178.6359521205783" stroke="#000"/>
<line x1="202.75" y1="498.0" x2="202.75" y2="502.79999999999995" stroke="#000"/>
<text x="202.75" y="512.4" fill="#111" font-size="small" font-family="monospace" font-weight="bold" text-anchor="end" transform="rotate(-60, 202.75, 512.4)">
chunky-png
</text>
<rect x="238.0" y="288.28860772806996" width="23.499999999999996" height="209.71139227192995" fill="#7070f8" data-tooltip="1.00x baseline speed (No JIT)"/>
<line x1="238.0" y1="284.5693383813116" x2="261.5" y2="284.5693383813116" stroke="#000"/>
<line x1="238.0" y1="292.0078770748284" x2="261.5" y2="292.0078770748284" stroke="#000"/>
<line x1="249.75" y1="284.5693383813116" x2="249.75" y2="292.0078770748284" stroke="#000"/>
<rect x="261.5" y="145.88029577067147" width="23.499999999999996" height="352.1197042293285" fill="orange" data-tooltip="1.68x baseline speed (YJIT)"/>
<line x1="261.5" y1="131.43529715860703" x2="285.00000000000006" y2="131.43529715860703" stroke="#000"/>
<line x1="261.5" y1="160.32529438273596" x2="285.00000000000006" y2="160.32529438273596" stroke="#000"/>
<line x1="273.25" y1="131.43529715860703" x2="273.25" y2="160.32529438273596" stroke="#000"/>
<line x1="273.25" y1="498.0" x2="273.25" y2="502.79999999999995" stroke="#000"/>
<text x="273.25" y="512.4" fill="#111" font-size="small" font-family="monospace" font-weight="bold" text-anchor="end" transform="rotate(-60, 273.25, 512.4)">
erubi-rails
</text>
<rect x="308.5" y="288.28860772806996" width="23.499999999999996" height="209.71139227192995" fill="#7070f8" data-tooltip="1.00x baseline speed (No JIT)"/>
<line x1="308.5" y1="287.05825167039075" x2="332.0" y2="287.05825167039075" stroke="#000"/>
<line x1="308.5" y1="289.5189637857492" x2="332.0" y2="289.5189637857492" stroke="#000"/>
<line x1="320.25" y1="287.05825167039075" x2="320.25" y2="289.5189637857492" stroke="#000"/>
<rect x="332.0" y="173.16315290601236" width="23.499999999999996" height="324.8368470939876" fill="orange" data-tooltip="1.55x baseline speed (YJIT)"/>
<line x1="332.0" y1="165.34498977535588" x2="355.50000000000006" y2="165.34498977535588" stroke="#000"/>
<line x1="332.0" y1="180.98131603666883" x2="355.50000000000006" y2="180.98131603666883" stroke="#000"/>
<line x1="343.75" y1="165.34498977535588" x2="343.75" y2="180.98131603666883" stroke="#000"/>
<line x1="343.75" y1="498.0" x2="343.75" y2="502.79999999999995" stroke="#000"/>
<text x="343.75" y="512.4" fill="#111" font-size="small" font-family="monospace" font-weight="bold" text-anchor="end" transform="rotate(-60, 343.75, 512.4)">
hexapdf
</text>
<rect x="379.0" y="288.28860772806996" width="23.499999999999996" height="209.71139227192995" fill="#7070f8" data-tooltip="1.00x baseline speed (No JIT)"/>
<line x1="379.0" y1="286.1477656112922" x2="402.5" y2="286.1477656112922" stroke="#000"/>
<line x1="379.0" y1="290.42944984484774" x2="402.5" y2="290.42944984484774" stroke="#000"/>
<line x1="390.75" y1="286.1477656112922" x2="390.75" y2="290.42944984484774" stroke="#000"/>
<rect x="402.5" y="210.10631106627488" width="23.499999999999996" height="287.8936889337251" fill="orange" data-tooltip="1.37x baseline speed (YJIT)"/>
<line x1="402.5" y1="206.38590825457803" x2="426.00000000000006" y2="206.38590825457803" stroke="#000"/>
<line x1="402.5" y1="213.82671387797174" x2="426.00000000000006" y2="213.82671387797174" stroke="#000"/>
<line x1="414.25" y1="206.38590825457803" x2="414.25" y2="213.82671387797174" stroke="#000"/>
<line x1="414.25" y1="498.0" x2="414.25" y2="502.79999999999995" stroke="#000"/>
<text x="414.25" y="512.4" fill="#111" font-size="small" font-family="monospace" font-weight="bold" text-anchor="end" transform="rotate(-60, 414.25, 512.4)">
liquid-c
</text>
<rect x="449.5" y="288.28860772806996" width="23.499999999999996" height="209.71139227192995" fill="#7070f8" data-tooltip="1.00x baseline speed (No JIT)"/>
<line x1="449.5" y1="284.88311157302843" x2="473.00000000000006" y2="284.88311157302843" stroke="#000"/>
<line x1="449.5" y1="291.69410388311155" x2="473.00000000000006" y2="291.69410388311155" stroke="#000"/>
<line x1="461.25" y1="284.88311157302843" x2="461.25" y2="291.69410388311155" stroke="#000"/>
<rect x="473.00000000000006" y="225.60205695006502" width="23.499999999999996" height="272.39794304993495" fill="orange" data-tooltip="1.30x baseline speed (YJIT)"/>
<line x1="473.00000000000006" y1="219.6852325237929" x2="496.50000000000006" y2="219.6852325237929" stroke="#000"/>
<line x1="473.00000000000006" y1="231.5188813763371" x2="496.50000000000006" y2="231.5188813763371" stroke="#000"/>
<line x1="484.75" y1="219.6852325237929" x2="484.75" y2="231.5188813763371" stroke="#000"/>
<line x1="484.75" y1="498.0" x2="484.75" y2="502.79999999999995" stroke="#000"/>
<text x="484.75" y="512.4" fill="#111" font-size="small" font-family="monospace" font-weight="bold" text-anchor="end" transform="rotate(-60, 484.75, 512.4)">
liquid-compile
</text>
<rect x="519.9999999999999" y="288.28860772806996" width="23.499999999999996" height="209.71139227192995" fill="#7070f8" data-tooltip="1.00x baseline speed (No JIT)"/>
<line x1="519.9999999999999" y1="287.83622422553555" x2="543.4999999999999" y2="287.83622422553555" stroke="#000"/>
<line x1="519.9999999999999" y1="288.74099123060444" x2="543.4999999999999" y2="288.74099123060444" stroke="#000"/>
<line x1="531.75" y1="287.83622422553555" x2="531.75" y2="288.74099123060444" stroke="#000"/>
<rect x="543.4999999999999" y="100.20769254063474" width="23.499999999999996" height="397.7923074593652" fill="orange" data-tooltip="1.90x baseline speed (YJIT)"/>
<line x1="543.4999999999999" y1="98.3165683677831" x2="566.9999999999999" y2="98.3165683677831" stroke="#000"/>
<line x1="543.4999999999999" y1="102.09881671348637" x2="566.9999999999999" y2="102.09881671348637" stroke="#000"/>
<line x1="555.2499999999999" y1="98.3165683677831" x2="555.2499999999999" y2="102.09881671348637" stroke="#000"/>
<line x1="555.2499999999999" y1="498.0" x2="555.2499999999999" y2="502.79999999999995" stroke="#000"/>
<text x="555.2499999999999" y="512.4" fill="#111" font-size="small" font-family="monospace" font-weight="bold" text-anchor="end" transform="rotate(-60, 555.2499999999999, 512.4)">
liquid-render
</text>
<rect x="590.4999999999999" y="288.28860772806996" width="23.499999999999996" height="209.71139227192995" fill="#7070f8" data-tooltip="1.00x baseline speed (No JIT)"/>
<line x1="590.4999999999999" y1="288.0140175345294" x2="613.9999999999999" y2="288.0140175345294" stroke="#000"/>
<line x1="590.4999999999999" y1="288.5631979216106" x2="613.9999999999999" y2="288.5631979216106" stroke="#000"/>
<line x1="602.25" y1="288.0140175345294" x2="602.25" y2="288.5631979216106" stroke="#000"/>
<rect x="613.9999999999999" y="222.91803351310278" width="23.499999999999996" height="275.08196648689716" fill="orange" data-tooltip="1.31x baseline speed (YJIT)"/>
<line x1="613.9999999999999" y1="221.96069166515875" x2="637.4999999999999" y2="221.96069166515875" stroke="#000"/>
<line x1="613.9999999999999" y1="223.8753753610468" x2="637.4999999999999" y2="223.8753753610468" stroke="#000"/>
<line x1="625.7499999999999" y1="221.96069166515875" x2="625.7499999999999" y2="223.8753753610468" stroke="#000"/>
<line x1="625.7499999999999" y1="498.0" x2="625.7499999999999" y2="502.79999999999995" stroke="#000"/>
<text x="625.7499999999999" y="512.4" fill="#111" font-size="small" font-family="monospace" font-weight="bold" text-anchor="end" transform="rotate(-60, 625.7499999999999, 512.4)">
mail
</text>
<rect x="660.9999999999999" y="288.28860772806996" width="23.499999999999996" height="209.71139227192995" fill="#7070f8" data-tooltip="1.00x baseline speed (No JIT)"/>
<line x1="660.9999999999999" y1="287.97296777567897" x2="684.4999999999999" y2="287.97296777567897" stroke="#000"/>
<line x1="660.9999999999999" y1="288.604247680461" x2="684.4999999999999" y2="288.604247680461" stroke="#000"/>
<line x1="672.75" y1="287.97296777567897" x2="672.75" y2="288.604247680461" stroke="#000"/>
<rect x="684.4999999999999" y="203.64869293954735" width="23.499999999999996" height="294.3513070604526" fill="orange" data-tooltip="1.40x baseline speed (YJIT)"/>
<line x1="684.4999999999999" y1="203.15701328086382" x2="707.9999999999999" y2="203.15701328086382" stroke="#000"/>
<line x1="684.4999999999999" y1="204.14037259823087" x2="707.9999999999999" y2="204.14037259823087" stroke="#000"/>
<line x1="696.2499999999999" y1="203.15701328086382" x2="696.2499999999999" y2="204.14037259823087" stroke="#000"/>
<line x1="696.2499999999999" y1="498.0" x2="696.2499999999999" y2="502.79999999999995" stroke="#000"/>
<text x="696.2499999999999" y="512.4" fill="#111" font-size="small" font-family="monospace" font-weight="bold" text-anchor="end" transform="rotate(-60, 696.2499999999999, 512.4)">
psych-load
</text>
<rect x="731.4999999999999" y="288.28860772806996" width="23.499999999999996" height="209.71139227192995" fill="#7070f8" data-tooltip="1.00x baseline speed (No JIT)"/>
<line x1="731.4999999999999" y1="286.93179519212447" x2="754.9999999999999" y2="286.93179519212447" stroke="#000"/>
<line x1="731.4999999999999" y1="289.64542026401546" x2="754.9999999999999" y2="289.64542026401546" stroke="#000"/>
<line x1="743.25" y1="286.93179519212447" x2="743.25" y2="289.64542026401546" stroke="#000"/>
<rect x="754.9999999999999" y="176.99115894090016" width="23.499999999999996" height="321.0088410590998" fill="orange" data-tooltip="1.53x baseline speed (YJIT)"/>
<line x1="754.9999999999999" y1="173.01961002442607" x2="778.4999999999999" y2="173.01961002442607" stroke="#000"/>
<line x1="754.9999999999999" y1="180.96270785737428" x2="778.4999999999999" y2="180.96270785737428" stroke="#000"/>
<line x1="766.7499999999999" y1="173.01961002442607" x2="766.7499999999999" y2="180.96270785737428" stroke="#000"/>
<line x1="766.7499999999999" y1="498.0" x2="766.7499999999999" y2="502.79999999999995" stroke="#000"/>
<text x="766.7499999999999" y="512.4" fill="#111" font-size="small" font-family="monospace" font-weight="bold" text-anchor="end" transform="rotate(-60, 766.7499999999999, 512.4)">
railsbench
</text>
<rect x="801.9999999999999" y="288.28860772806996" width="23.499999999999996" height="209.71139227192995" fill="#7070f8" data-tooltip="1.00x baseline speed (No JIT)"/>
<line x1="801.9999999999999" y1="275.91417894424285" x2="825.4999999999999" y2="275.91417894424285" stroke="#000"/>
<line x1="801.9999999999999" y1="300.6630365118971" x2="825.4999999999999" y2="300.6630365118971" stroke="#000"/>
<line x1="813.75" y1="275.91417894424285" x2="813.75" y2="300.6630365118971" stroke="#000"/>
<rect x="825.4999999999999" y="223.6851614877147" width="23.499999999999996" height="274.31483851228523" fill="orange" data-tooltip="1.31x baseline speed (YJIT)"/>
<line x1="825.4999999999999" y1="185.74309952480462" x2="848.9999999999999" y2="185.74309952480462" stroke="#000"/>
<line x1="825.4999999999999" y1="261.6272234506248" x2="848.9999999999999" y2="261.6272234506248" stroke="#000"/>
<line x1="837.2499999999999" y1="185.74309952480462" x2="837.2499999999999" y2="261.6272234506248" stroke="#000"/>
<line x1="837.2499999999999" y1="498.0" x2="837.2499999999999" y2="502.79999999999995" stroke="#000"/>
<text x="837.2499999999999" y="512.4" fill="#111" font-size="small" font-family="monospace" font-weight="bold" text-anchor="end" transform="rotate(-60, 837.2499999999999, 512.4)">
ruby-lsp
</text>
<rect x="872.4999999999999" y="288.28860772806996" width="23.499999999999996" height="209.71139227192995" fill="#7070f8" data-tooltip="1.00x baseline speed (No JIT)"/>
<line x1="872.4999999999999" y1="286.5401048901141" x2="895.9999999999999" y2="286.5401048901141" stroke="#000"/>
<line x1="872.4999999999999" y1="290.0371105660259" x2="895.9999999999999" y2="290.0371105660259" stroke="#000"/>
<line x1="884.25" y1="286.5401048901141" x2="884.25" y2="290.0371105660259" stroke="#000"/>
<rect x="895.9999999999999" y="230.60138615299383" width="23.499999999999996" height="267.3986138470061" fill="orange" data-tooltip="1.28x baseline speed (YJIT)"/>
<line x1="895.9999999999999" y1="226.85072976506342" x2="919.4999999999999" y2="226.85072976506342" stroke="#000"/>
<line x1="895.9999999999999" y1="234.35204254092426" x2="919.4999999999999" y2="234.35204254092426" stroke="#000"/>
<line x1="907.75" y1="226.85072976506342" x2="907.75" y2="234.35204254092426" stroke="#000"/>
<line x1="907.75" y1="498.0" x2="907.75" y2="502.79999999999995" stroke="#000"/>
<text x="907.75" y="512.4" fill="#111" font-size="small" font-family="monospace" font-weight="bold" text-anchor="end" transform="rotate(-60, 907.75, 512.4)">
sequel
</text>
</svg>