<svg viewBox="0 0 1000 600" xmlns="http://www.w3.org/2000/svg" xmlns:xlink="http://www.w3.org/1999/xlink" width="100%" height="100%">

<rect x="50.0" y="30.0" width="940.0" height="467.99999999999994" stroke="#000" fill="#fff"/>
<line x1="42.0" y1="497.9999999999999" x2="50.0" y2="497.9999999999999" stroke="#000"/>
<text x="26.000000000000004" y="497.9999999999999" text-anchor="end" font-weight="bold" font-size="small" fill="#111">
0.0
</text>
<line x1="42.0" y1="421.2951098405056" x2="50.0" y2="421.2951098405056" stroke="#000"/>
<text x="26.000000000000004" y="421.2951098405056" text-anchor="end" font-weight="bold" font-size="small" fill="#111">
0.5
</text>
<line x1="42.0" y1="344.5902196810111" x2="50.0" y2="344.5902196810111" stroke="#000"/>
<text x="26.000000000000004" y="344.5902196810111" text-anchor="end" font-weight="bold" font-size="small" fill="#111">
1.0
</text>
<line x1="42.0" y1="267.88532952151667" x2="50.0" y2="267.88532952151667" stroke="#000"/>
<text x="26.000000000000004" y="267.88532952151667" text-anchor="end" font-weight="bold" font-size="small" fill="#111">
1.5
</text>
<line x1="42.0" y1="191.18043936202227" x2="50.0" y2="191.18043936202227" stroke="#000"/>
<text x="26.000000000000004" y="191.18043936202227" text-anchor="end" font-weight="bold" font-size="small" fill="#111">
2.0
</text>
<line x1="42.0" y1="114.47554920252784" x2="50.0" y2="114.47554920252784" stroke="#000"/>
<text x="26.000000000000004" y="114.47554920252784" text-anchor="end" font-weight="bold" font-size="small" fill="#111">
2.5
</text>
<line x1="142.75" y1="54.60000000000001" x2="262.75" y2="54.60000000000001" stroke="#648FFF" stroke-width="2"/>
<text x="202.75" y="49.500000000000014" font-size="small" text-anchor="middle" font-weight="bold" fill="#000">
CRuby 3.3.4
</text>
<rect x="354.25" y="35.400000000000006" width="120.0" height="19.2" fill="#785EF0" stroke="none"/>
<text x="414.25" y="49.500000000000014" font-size="small" text-anchor="middle" font-weight="bold" fill="#fff" style="text-shadow: 0 0 1px #000;">
CRuby 3.4.0dev
</text>
<rect x="565.75" y="35.400000000000006" width="120.0" height="19.2" fill="#FFB000" stroke="none"/>
<text x="625.7499999999999" y="49.500000000000014" font-size="small" text-anchor="middle" font-weight="bold" fill="#fff" style="text-shadow: 0 0 1px #000;">
YJIT 3.3.4
</text>
<rect x="777.25" y="35.400000000000006" width="120.0" height="19.2" fill="#DC267F" stroke="none"/>
<text x="837.2499999999999" y="49.500000000000014" font-size="small" text-anchor="middle" font-weight="bold" fill="#fff" style="text-shadow: 0 0 1px #000;">
YJIT 3.4.0dev
</text>
<rect x="54.77157360406092" y="357.8256075821704" width="4.771573604060913" height="140.17439241782955" fill="#785EF0" data-tooltip="0.91x baseline (CRuby 3.4.0dev)"/>
<rect x="59.54314720812183" y="333.1306306852948" width="4.771573604060913" height="164.86936931470507" fill="#FFB000" data-tooltip="1.07x baseline (YJIT 3.3.4)"/>
<rect x="64.31472081218274" y="326.56979729080086" width="4.771573604060913" height="171.4302027091991" fill="#DC267F" data-tooltip="1.12x baseline (YJIT 3.4.0dev)"/>
<line x1="61.92893401015229" y1="498.0" x2="61.92893401015229" y2="502.79999999999995" stroke="#000"/>
<text x="61.92893401015229" y="512.4" fill="#111" font-size="small" text-anchor="end" transform="rotate(-60, 61.92893401015229, 512.4)">
activerecord
</text>
<rect x="73.85786802030456" y="354.6184261008355" width="4.771573604060913" height="143.38157389916444" fill="#785EF0" data-tooltip="0.93x baseline (CRuby 3.4.0dev)"/>
<rect x="78.62944162436548" y="312.5248481710866" width="4.771573604060913" height="185.47515182891337" fill="#FFB000" data-tooltip="1.21x baseline (YJIT 3.3.4)"/>
<rect x="83.4010152284264" y="371.2111151098521" width="4.771573604060913" height="126.78888489014787" fill="#DC267F" data-tooltip="0.83x baseline (YJIT 3.4.0dev)"/>
<line x1="81.01522842639594" y1="498.0" x2="81.01522842639594" y2="502.79999999999995" stroke="#000"/>
<text x="81.01522842639594" y="512.4" fill="#111" font-size="small" text-anchor="end" transform="rotate(-60, 81.01522842639594, 512.4)">
chunky-png
</text>
<rect x="92.94416243654823" y="335.92526292179906" width="4.771573604060913" height="162.07473707820083" fill="#785EF0" data-tooltip="1.06x baseline (CRuby 3.4.0dev)"/>
<rect x="97.71573604060914" y="332.3385628031166" width="4.771573604060913" height="165.66143719688336" fill="#FFB000" data-tooltip="1.08x baseline (YJIT 3.3.4)"/>
<rect x="102.48730964467005" y="324.99685463137973" width="4.771573604060913" height="173.00314536862024" fill="#DC267F" data-tooltip="1.13x baseline (YJIT 3.4.0dev)"/>
<line x1="100.1015228426396" y1="498.0" x2="100.1015228426396" y2="502.79999999999995" stroke="#000"/>
<text x="100.1015228426396" y="512.4" fill="#111" font-size="small" text-anchor="end" transform="rotate(-60, 100.1015228426396, 512.4)">
erubi-rails
</text>
<rect x="112.03045685279189" y="317.77537528639994" width="4.771573604060913" height="180.2246247136" fill="#785EF0" data-tooltip="1.17x baseline (CRuby 3.4.0dev)"/>
<rect x="116.80203045685279" y="221.6462896438266" width="4.771573604060913" height="276.35371035617334" fill="#FFB000" data-tooltip="1.80x baseline (YJIT 3.3.4)"/>
<rect x="121.57360406091371" y="214.26408236440352" width="4.771573604060913" height="283.7359176355964" fill="#DC267F" data-tooltip="1.85x baseline (YJIT 3.4.0dev)"/>
<line x1="119.18781725888324" y1="498.0" x2="119.18781725888324" y2="502.79999999999995" stroke="#000"/>
<text x="119.18781725888324" y="512.4" fill="#111" font-size="small" text-anchor="end" transform="rotate(-60, 119.18781725888324, 512.4)">
hexapdf
</text>
<rect x="131.11675126903552" y="340.46244929662197" width="4.771573604060913" height="157.53755070337792" fill="#785EF0" data-tooltip="1.03x baseline (CRuby 3.4.0dev)"/>
<rect x="135.88832487309642" y="323.13263644315384" width="4.771573604060913" height="174.86736355684607" fill="#FFB000" data-tooltip="1.14x baseline (YJIT 3.3.4)"/>
<rect x="140.65989847715736" y="317.7938259873119" width="4.771573604060913" height="180.20617401268814" fill="#DC267F" data-tooltip="1.17x baseline (YJIT 3.4.0dev)"/>
<line x1="138.27411167512687" y1="498.0" x2="138.27411167512687" y2="502.79999999999995" stroke="#000"/>
<text x="138.27411167512687" y="512.4" fill="#111" font-size="small" text-anchor="end" transform="rotate(-60, 138.27411167512687, 512.4)">
liquid-c
</text>
<rect x="150.20304568527916" y="335.20270621609296" width="4.771573604060913" height="162.797293783907" fill="#785EF0" data-tooltip="1.06x baseline (CRuby 3.4.0dev)"/>
<rect x="154.9746192893401" y="330.5089494836339" width="4.771573604060913" height="167.4910505163661" fill="#FFB000" data-tooltip="1.09x baseline (YJIT 3.3.4)"/>
<rect x="159.746192893401" y="322.04905592631627" width="4.771573604060913" height="175.95094407368367" fill="#DC267F" data-tooltip="1.15x baseline (YJIT 3.4.0dev)"/>
<line x1="157.36040609137052" y1="498.0" x2="157.36040609137052" y2="502.79999999999995" stroke="#000"/>
<text x="157.36040609137052" y="512.4" fill="#111" font-size="small" text-anchor="end" transform="rotate(-60, 157.36040609137052, 512.4)">
liquid-compile
</text>
<rect x="169.28934010152284" y="334.7587220919854" width="4.771573604060913" height="163.24127790801452" fill="#785EF0" data-tooltip="1.06x baseline (CRuby 3.4.0dev)"/>
<rect x="174.06091370558374" y="320.9981180064574" width="4.771573604060913" height="177.00188199354253" fill="#FFB000" data-tooltip="1.15x baseline (YJIT 3.3.4)"/>
<rect x="178.83248730964465" y="309.909306338551" width="4.771573604060913" height="188.0906936614489" fill="#DC267F" data-tooltip="1.23x baseline (YJIT 3.4.0dev)"/>
<line x1="176.4467005076142" y1="498.0" x2="176.4467005076142" y2="502.79999999999995" stroke="#000"/>
<text x="176.4467005076142" y="512.4" fill="#111" font-size="small" text-anchor="end" transform="rotate(-60, 176.4467005076142, 512.4)">
liquid-render
</text>
<rect x="188.37563451776649" y="347.7212970348008" width="4.771573604060913" height="150.2787029651992" fill="#785EF0" data-tooltip="0.98x baseline (CRuby 3.4.0dev)"/>
<rect x="193.1472081218274" y="320.42628198666756" width="4.771573604060913" height="177.57371801333247" fill="#FFB000" data-tooltip="1.16x baseline (YJIT 3.3.4)"/>
<rect x="197.91878172588832" y="317.3255613385239" width="4.771573604060913" height="180.674438661476" fill="#DC267F" data-tooltip="1.18x baseline (YJIT 3.4.0dev)"/>
<line x1="195.53299492385784" y1="498.0" x2="195.53299492385784" y2="502.79999999999995" stroke="#000"/>
<text x="195.53299492385784" y="512.4" fill="#111" font-size="small" text-anchor="end" transform="rotate(-60, 195.53299492385784, 512.4)">
lobsters
</text>
<rect x="207.46192893401013" y="290.7404038546416" width="4.771573604060913" height="207.25959614535833" fill="#785EF0" data-tooltip="1.35x baseline (CRuby 3.4.0dev)"/>
<rect x="212.23350253807104" y="330.9919033274583" width="4.771573604060913" height="167.00809667254168" fill="#FFB000" data-tooltip="1.09x baseline (YJIT 3.3.4)"/>
<rect x="217.00507614213197" y="275.4272021350102" width="4.771573604060913" height="222.57279786498972" fill="#DC267F" data-tooltip="1.45x baseline (YJIT 3.4.0dev)"/>
<line x1="214.6192893401015" y1="498.0" x2="214.6192893401015" y2="502.79999999999995" stroke="#000"/>
<text x="214.6192893401015" y="512.4" fill="#111" font-size="small" text-anchor="end" transform="rotate(-60, 214.6192893401015, 512.4)">
mail
</text>
<rect x="226.54822335025378" y="337.3422267362156" width="4.771573604060913" height="160.65777326378438" fill="#785EF0" data-tooltip="1.05x baseline (CRuby 3.4.0dev)"/>
<rect x="231.3197969543147" y="332.71662319858217" width="4.771573604060913" height="165.28337680141772" fill="#FFB000" data-tooltip="1.08x baseline (YJIT 3.3.4)"/>
<rect x="236.09137055837562" y="327.7450099475039" width="4.771573604060913" height="170.25499005249608" fill="#DC267F" data-tooltip="1.11x baseline (YJIT 3.4.0dev)"/>
<line x1="233.70558375634513" y1="498.0" x2="233.70558375634513" y2="502.79999999999995" stroke="#000"/>
<text x="233.70558375634513" y="512.4" fill="#111" font-size="small" text-anchor="end" transform="rotate(-60, 233.70558375634513, 512.4)">
psych-load
</text>
<rect x="245.63451776649745" y="332.0603915159289" width="4.771573604060913" height="165.93960848407104" fill="#785EF0" data-tooltip="1.08x baseline (CRuby 3.4.0dev)"/>
<rect x="250.40609137055836" y="322.95668823973637" width="4.771573604060913" height="175.04331176026358" fill="#FFB000" data-tooltip="1.14x baseline (YJIT 3.3.4)"/>
<rect x="255.17766497461923" y="315.77046326270397" width="4.771573604060913" height="182.22953673729597" fill="#DC267F" data-tooltip="1.19x baseline (YJIT 3.4.0dev)"/>
<line x1="252.79187817258875" y1="498.0" x2="252.79187817258875" y2="502.79999999999995" stroke="#000"/>
<text x="252.79187817258875" y="512.4" fill="#111" font-size="small" text-anchor="end" transform="rotate(-60, 252.79187817258875, 512.4)">
railsbench
</text>
<rect x="264.72081218274104" y="338.5398777753542" width="4.771573604060913" height="159.46012222464572" fill="#785EF0" data-tooltip="1.04x baseline (CRuby 3.4.0dev)"/>
<rect x="269.4923857868019" y="290.2715945724471" width="4.771573604060913" height="207.72840542755281" fill="#FFB000" data-tooltip="1.35x baseline (YJIT 3.3.4)"/>
<rect x="274.2639593908628" y="281.24986253090094" width="4.771573604060913" height="216.75013746909897" fill="#DC267F" data-tooltip="1.41x baseline (YJIT 3.4.0dev)"/>
<line x1="271.8781725888323" y1="498.0" x2="271.8781725888323" y2="502.79999999999995" stroke="#000"/>
<text x="271.8781725888323" y="512.4" fill="#111" font-size="small" text-anchor="end" transform="rotate(-60, 271.8781725888323, 512.4)">
rubocop
</text>
<rect x="283.80710659898455" y="373.238901898388" width="4.771573604060913" height="124.76109810161199" fill="#785EF0" data-tooltip="0.81x baseline (CRuby 3.4.0dev)"/>
<rect x="288.57868020304545" y="347.0769574787921" width="4.771573604060913" height="150.92304252120786" fill="#FFB000" data-tooltip="0.98x baseline (YJIT 3.3.4)"/>
<rect x="293.35025380710636" y="369.7208993079978" width="4.771573604060913" height="128.27910069200217" fill="#DC267F" data-tooltip="0.84x baseline (YJIT 3.4.0dev)"/>
<line x1="290.96446700507585" y1="498.0" x2="290.96446700507585" y2="502.79999999999995" stroke="#000"/>
<text x="290.96446700507585" y="512.4" fill="#111" font-size="small" text-anchor="end" transform="rotate(-60, 290.96446700507585, 512.4)">
ruby-lsp
</text>
<rect x="302.8934010152281" y="336.9269905663282" width="4.771573604060913" height="161.0730094336717" fill="#785EF0" data-tooltip="1.05x baseline (CRuby 3.4.0dev)"/>
<rect x="307.664974619289" y="335.86220504723536" width="4.771573604060913" height="162.13779495276452" fill="#FFB000" data-tooltip="1.06x baseline (YJIT 3.3.4)"/>
<rect x="312.43654822334986" y="327.95697922366776" width="4.771573604060913" height="170.04302077633216" fill="#DC267F" data-tooltip="1.11x baseline (YJIT 3.4.0dev)"/>
<line x1="310.05076142131935" y1="498.0" x2="310.05076142131935" y2="502.79999999999995" stroke="#000"/>
<text x="310.05076142131935" y="512.4" fill="#111" font-size="small" text-anchor="end" transform="rotate(-60, 310.05076142131935, 512.4)">
sequel
</text>
<rect x="321.97969543147167" y="343.2020984930693" width="4.771573604060913" height="154.79790150693066" fill="#785EF0" data-tooltip="1.01x baseline (CRuby 3.4.0dev)"/>
<rect x="326.7512690355325" y="347.72468687958946" width="4.771573604060913" height="150.27531312041054" fill="#FFB000" data-tooltip="0.98x baseline (YJIT 3.3.4)"/>
<rect x="331.5228426395934" y="340.0228531916541" width="4.771573604060913" height="157.9771468083458" fill="#DC267F" data-tooltip="1.03x baseline (YJIT 3.4.0dev)"/>
<line x1="329.1370558375629" y1="498.0" x2="329.1370558375629" y2="502.79999999999995" stroke="#000"/>
<text x="329.1370558375629" y="512.4" fill="#111" font-size="small" text-anchor="end" transform="rotate(-60, 329.1370558375629, 512.4)">
binarytrees
</text>
<rect x="341.0659898477152" y="337.8916995993586" width="4.771573604060913" height="160.10830040064133" fill="#785EF0" data-tooltip="1.04x baseline (CRuby 3.4.0dev)"/>
<rect x="345.8375634517761" y="341.7194253603029" width="4.771573604060913" height="156.28057463969708" fill="#FFB000" data-tooltip="1.02x baseline (YJIT 3.3.4)"/>
<rect x="350.609137055837" y="332.99767880500843" width="4.771573604060913" height="165.00232119499157" fill="#DC267F" data-tooltip="1.08x baseline (YJIT 3.4.0dev)"/>
<line x1="348.2233502538065" y1="498.0" x2="348.2233502538065" y2="502.79999999999995" stroke="#000"/>
<text x="348.2233502538065" y="512.4" fill="#111" font-size="small" text-anchor="end" transform="rotate(-60, 348.2233502538065, 512.4)">
blurhash
</text>
<rect x="360.15228426395873" y="345.7664851475409" width="4.771573604060913" height="152.23351485245908" fill="#785EF0" data-tooltip="0.99x baseline (CRuby 3.4.0dev)"/>
<rect x="364.92385786801964" y="337.03735721171466" width="4.771573604060913" height="160.96264278828534" fill="#FFB000" data-tooltip="1.05x baseline (YJIT 3.3.4)"/>
<rect x="369.6954314720805" y="330.26867172010463" width="4.771573604060913" height="167.73132827989528" fill="#DC267F" data-tooltip="1.09x baseline (YJIT 3.4.0dev)"/>
<line x1="367.30964467005003" y1="498.0" x2="367.30964467005003" y2="502.79999999999995" stroke="#000"/>
<text x="367.30964467005003" y="512.4" fill="#111" font-size="small" text-anchor="end" transform="rotate(-60, 367.30964467005003, 512.4)">
erubi
</text>
<rect x="379.2385786802023" y="314.6095073960812" width="4.771573604060913" height="183.39049260391877" fill="#785EF0" data-tooltip="1.20x baseline (CRuby 3.4.0dev)"/>
<rect x="384.01015228426314" y="341.87162966873353" width="4.771573604060913" height="156.12837033126635" fill="#FFB000" data-tooltip="1.02x baseline (YJIT 3.3.4)"/>
<rect x="388.78172588832405" y="336.58689394393235" width="4.771573604060913" height="161.41310605606762" fill="#DC267F" data-tooltip="1.05x baseline (YJIT 3.4.0dev)"/>
<line x1="386.39593908629354" y1="498.0" x2="386.39593908629354" y2="502.79999999999995" stroke="#000"/>
<text x="386.39593908629354" y="512.4" fill="#111" font-size="small" text-anchor="end" transform="rotate(-60, 386.39593908629354, 512.4)">
etanni
</text>
<rect x="398.3248730964458" y="336.1262318013427" width="4.771573604060913" height="161.87376819865722" fill="#785EF0" data-tooltip="1.06x baseline (CRuby 3.4.0dev)"/>
<rect x="403.0964467005067" y="342.3566673238764" width="4.771573604060913" height="155.64333267612358" fill="#FFB000" data-tooltip="1.01x baseline (YJIT 3.3.4)"/>
<rect x="407.8680203045676" y="331.629738240269" width="4.771573604060913" height="166.370261759731" fill="#DC267F" data-tooltip="1.08x baseline (YJIT 3.4.0dev)"/>
<line x1="405.4822335025371" y1="498.0" x2="405.4822335025371" y2="502.79999999999995" stroke="#000"/>
<text x="405.4822335025371" y="512.4" fill="#111" font-size="small" text-anchor="end" transform="rotate(-60, 405.4822335025371, 512.4)">
fannkuchredux
</text>
<rect x="417.41116751268936" y="343.82542657280135" width="4.771573604060913" height="154.17457342719862" fill="#785EF0" data-tooltip="1.00x baseline (CRuby 3.4.0dev)"/>
<rect x="422.18274111675026" y="331.33743354327476" width="4.771573604060913" height="166.66256645672527" fill="#FFB000" data-tooltip="1.09x baseline (YJIT 3.3.4)"/>
<rect x="426.9543147208111" y="333.20637815052993" width="4.771573604060913" height="164.79362184947" fill="#DC267F" data-tooltip="1.07x baseline (YJIT 3.4.0dev)"/>
<line x1="424.56852791878066" y1="498.0" x2="424.56852791878066" y2="502.79999999999995" stroke="#000"/>
<text x="424.56852791878066" y="512.4" fill="#111" font-size="small" text-anchor="end" transform="rotate(-60, 424.56852791878066, 512.4)">
fluentd
</text>
<rect x="436.4974619289329" y="339.31469773178446" width="4.771573604060913" height="158.6853022682155" fill="#785EF0" data-tooltip="1.03x baseline (CRuby 3.4.0dev)"/>
<rect x="441.26903553299377" y="334.63866691315167" width="4.771573604060913" height="163.36133308684825" fill="#FFB000" data-tooltip="1.06x baseline (YJIT 3.3.4)"/>
<rect x="446.0406091370547" y="328.3440100419154" width="4.771573604060913" height="169.65598995808458" fill="#DC267F" data-tooltip="1.11x baseline (YJIT 3.4.0dev)"/>
<line x1="443.65482233502416" y1="498.0" x2="443.65482233502416" y2="502.79999999999995" stroke="#000"/>
<text x="443.65482233502416" y="512.4" fill="#111" font-size="small" text-anchor="end" transform="rotate(-60, 443.65482233502416, 512.4)">
graphql
</text>
<rect x="455.5837563451764" y="336.45323033607576" width="4.771573604060913" height="161.54676966392424" fill="#785EF0" data-tooltip="1.05x baseline (CRuby 3.4.0dev)"/>
<rect x="460.35532994923733" y="335.1378523592628" width="4.771573604060913" height="162.8621476407371" fill="#FFB000" data-tooltip="1.06x baseline (YJIT 3.3.4)"/>
<rect x="465.12690355329823" y="328.6527330317203" width="4.771573604060913" height="169.34726696827963" fill="#DC267F" data-tooltip="1.10x baseline (YJIT 3.4.0dev)"/>
<line x1="462.7411167512677" y1="498.0" x2="462.7411167512677" y2="502.79999999999995" stroke="#000"/>
<text x="462.7411167512677" y="512.4" fill="#111" font-size="small" text-anchor="end" transform="rotate(-60, 462.7411167512677, 512.4)">
graphql-native
</text>
<rect x="474.67005076142" y="340.2322820595045" width="4.771573604060913" height="157.7677179404955" fill="#785EF0" data-tooltip="1.03x baseline (CRuby 3.4.0dev)"/>
<rect x="479.4416243654809" y="337.77661879659206" width="4.771573604060913" height="160.2233812034079" fill="#FFB000" data-tooltip="1.04x baseline (YJIT 3.3.4)"/>
<rect x="484.21319796954174" y="332.0179155110297" width="4.771573604060913" height="165.98208448897023" fill="#DC267F" data-tooltip="1.08x baseline (YJIT 3.4.0dev)"/>
<line x1="481.8274111675113" y1="498.0" x2="481.8274111675113" y2="502.79999999999995" stroke="#000"/>
<text x="481.8274111675113" y="512.4" fill="#111" font-size="small" text-anchor="end" transform="rotate(-60, 481.8274111675113, 512.4)">
lee
</text>
<rect x="493.75634517766355" y="317.23385677480576" width="4.771573604060913" height="180.76614322519418" fill="#785EF0" data-tooltip="1.18x baseline (CRuby 3.4.0dev)"/>
<rect x="498.5279187817244" y="343.0995813338579" width="4.771573604060913" height="154.900418666142" fill="#FFB000" data-tooltip="1.01x baseline (YJIT 3.3.4)"/>
<rect x="503.2994923857853" y="302.95732049221203" width="4.771573604060913" height="195.0426795077879" fill="#DC267F" data-tooltip="1.27x baseline (YJIT 3.4.0dev)"/>
<line x1="500.9137055837548" y1="498.0" x2="500.9137055837548" y2="502.79999999999995" stroke="#000"/>
<text x="500.9137055837548" y="512.4" fill="#111" font-size="small" text-anchor="end" transform="rotate(-60, 500.9137055837548, 512.4)">
matmul
</text>
<rect x="512.842639593907" y="336.5329833197197" width="4.771573604060913" height="161.46701668028027" fill="#785EF0" data-tooltip="1.05x baseline (CRuby 3.4.0dev)"/>
<rect x="517.614213197968" y="341.8947078801426" width="4.771573604060913" height="156.10529211985727" fill="#FFB000" data-tooltip="1.02x baseline (YJIT 3.3.4)"/>
<rect x="522.3857868020289" y="332.4604165771032" width="4.771573604060913" height="165.53958342289667" fill="#DC267F" data-tooltip="1.08x baseline (YJIT 3.4.0dev)"/>
<line x1="519.9999999999984" y1="498.0" x2="519.9999999999984" y2="502.79999999999995" stroke="#000"/>
<text x="519.9999999999984" y="512.4" fill="#111" font-size="small" text-anchor="end" transform="rotate(-60, 519.9999999999984, 512.4)">
nbody
</text>
<rect x="531.9289340101507" y="335.77981275610927" width="4.771573604060913" height="162.22018724389068" fill="#785EF0" data-tooltip="1.06x baseline (CRuby 3.4.0dev)"/>
<rect x="536.7005076142115" y="342.38761794978564" width="4.771573604060913" height="155.61238205021428" fill="#FFB000" data-tooltip="1.01x baseline (YJIT 3.3.4)"/>
<rect x="541.4720812182724" y="327.8847727844439" width="4.771573604060913" height="170.115227215556" fill="#DC267F" data-tooltip="1.11x baseline (YJIT 3.4.0dev)"/>
<line x1="539.0862944162419" y1="498.0" x2="539.0862944162419" y2="502.79999999999995" stroke="#000"/>
<text x="539.0862944162419" y="512.4" fill="#111" font-size="small" text-anchor="end" transform="rotate(-60, 539.0862944162419, 512.4)">
nqueens
</text>
<rect x="551.0152284263942" y="349.47911351345266" width="4.771573604060913" height="148.5208864865473" fill="#785EF0" data-tooltip="0.97x baseline (CRuby 3.4.0dev)"/>
<rect x="555.7868020304551" y="329.32828364520554" width="4.771573604060913" height="168.67171635479437" fill="#FFB000" data-tooltip="1.10x baseline (YJIT 3.3.4)"/>
<rect x="560.558375634516" y="337.3007911524007" width="4.771573604060913" height="160.69920884759927" fill="#DC267F" data-tooltip="1.05x baseline (YJIT 3.4.0dev)"/>
<line x1="558.1725888324854" y1="498.0" x2="558.1725888324854" y2="502.79999999999995" stroke="#000"/>
<text x="558.1725888324854" y="512.4" fill="#111" font-size="small" text-anchor="end" transform="rotate(-60, 558.1725888324854, 512.4)">
optcarrot
</text>
<rect x="570.1015228426377" y="319.72180168404736" width="4.771573604060913" height="178.27819831595252" fill="#785EF0" data-tooltip="1.16x baseline (CRuby 3.4.0dev)"/>
<rect x="574.8730964466986" y="307.25123534931265" width="4.771573604060913" height="190.74876465068726" fill="#FFB000" data-tooltip="1.24x baseline (YJIT 3.3.4)"/>
<rect x="579.6446700507595" y="284.6551508681534" width="4.771573604060913" height="213.34484913184656" fill="#DC267F" data-tooltip="1.39x baseline (YJIT 3.4.0dev)"/>
<line x1="577.258883248729" y1="498.0" x2="577.258883248729" y2="502.79999999999995" stroke="#000"/>
<text x="577.258883248729" y="512.4" fill="#111" font-size="small" text-anchor="end" transform="rotate(-60, 577.258883248729, 512.4)">
protoboeuf
</text>
<rect x="589.1878172588813" y="304.6545110973463" width="4.771573604060913" height="193.34548890265364" fill="#785EF0" data-tooltip="1.26x baseline (CRuby 3.4.0dev)"/>
<rect x="593.9593908629421" y="332.1068837713346" width="4.771573604060913" height="165.89311622866532" fill="#FFB000" data-tooltip="1.08x baseline (YJIT 3.3.4)"/>
<rect x="598.730964467003" y="225.32227168892658" width="4.771573604060913" height="272.6777283110734" fill="#DC267F" data-tooltip="1.78x baseline (YJIT 3.4.0dev)"/>
<line x1="596.3451776649725" y1="498.0" x2="596.3451776649725" y2="502.79999999999995" stroke="#000"/>
<text x="596.3451776649725" y="512.4" fill="#111" font-size="small" text-anchor="end" transform="rotate(-60, 596.3451776649725, 512.4)">
protoboeuf-encode
</text>
<rect x="608.2741116751248" y="342.32702058181195" width="4.771573604060913" height="155.67297941818796" fill="#785EF0" data-tooltip="1.01x baseline (CRuby 3.4.0dev)"/>
<rect x="613.0456852791857" y="335.38134058771806" width="4.771573604060913" height="162.61865941228183" fill="#FFB000" data-tooltip="1.06x baseline (YJIT 3.3.4)"/>
<rect x="617.8172588832466" y="326.2505028426733" width="4.771573604060913" height="171.74949715732657" fill="#DC267F" data-tooltip="1.12x baseline (YJIT 3.4.0dev)"/>
<line x1="615.431472081216" y1="498.0" x2="615.431472081216" y2="502.79999999999995" stroke="#000"/>
<text x="615.431472081216" y="512.4" fill="#111" font-size="small" text-anchor="end" transform="rotate(-60, 615.431472081216, 512.4)">
rack
</text>
<rect x="627.3604060913683" y="336.71287964985504" width="4.771573604060913" height="161.28712035014487" fill="#785EF0" data-tooltip="1.05x baseline (CRuby 3.4.0dev)"/>
<rect x="632.1319796954292" y="341.84165139675883" width="4.771573604060913" height="156.1583486032411" fill="#FFB000" data-tooltip="1.02x baseline (YJIT 3.3.4)"/>
<rect x="636.9035532994901" y="332.94422416732357" width="4.771573604060913" height="165.05577583267637" fill="#DC267F" data-tooltip="1.08x baseline (YJIT 3.4.0dev)"/>
<line x1="634.5177664974597" y1="498.0" x2="634.5177664974597" y2="502.79999999999995" stroke="#000"/>
<text x="634.5177664974597" y="512.4" fill="#111" font-size="small" text-anchor="end" transform="rotate(-60, 634.5177664974597, 512.4)">
ruby-json
</text>
<rect x="646.4467005076119" y="332.6881907238908" width="4.771573604060913" height="165.31180927610916" fill="#785EF0" data-tooltip="1.08x baseline (CRuby 3.4.0dev)"/>
<rect x="651.2182741116727" y="339.56082248895365" width="4.771573604060913" height="158.43917751104632" fill="#FFB000" data-tooltip="1.03x baseline (YJIT 3.3.4)"/>
<rect x="655.9898477157336" y="328.90955984922977" width="4.771573604060913" height="169.09044015077012" fill="#DC267F" data-tooltip="1.10x baseline (YJIT 3.4.0dev)"/>
<line x1="653.6040609137032" y1="498.0" x2="653.6040609137032" y2="502.79999999999995" stroke="#000"/>
<text x="653.6040609137032" y="512.4" fill="#111" font-size="small" text-anchor="end" transform="rotate(-60, 653.6040609137032, 512.4)">
rubykon
</text>
<rect x="665.5329949238554" y="336.6627409706034" width="4.771573604060913" height="161.33725902939656" fill="#785EF0" data-tooltip="1.05x baseline (CRuby 3.4.0dev)"/>
<rect x="670.3045685279163" y="341.39599749000433" width="4.771573604060913" height="156.60400250999564" fill="#FFB000" data-tooltip="1.02x baseline (YJIT 3.3.4)"/>
<rect x="675.0761421319772" y="331.8714076840932" width="4.771573604060913" height="166.12859231590673" fill="#DC267F" data-tooltip="1.08x baseline (YJIT 3.4.0dev)"/>
<line x1="672.6903553299467" y1="498.0" x2="672.6903553299467" y2="502.79999999999995" stroke="#000"/>
<text x="672.6903553299467" y="512.4" fill="#111" font-size="small" text-anchor="end" transform="rotate(-60, 672.6903553299467, 512.4)">
sudoku
</text>
<rect x="684.6192893400989" y="338.1917761744682" width="4.771573604060913" height="159.8082238255317" fill="#785EF0" data-tooltip="1.04x baseline (CRuby 3.4.0dev)"/>
<rect x="689.3908629441598" y="336.5539493383224" width="4.771573604060913" height="161.4460506616775" fill="#FFB000" data-tooltip="1.05x baseline (YJIT 3.3.4)"/>
<rect x="694.1624365482207" y="325.7879676020575" width="4.771573604060913" height="172.2120323979425" fill="#DC267F" data-tooltip="1.12x baseline (YJIT 3.4.0dev)"/>
<line x1="691.7766497461903" y1="498.0" x2="691.7766497461903" y2="502.79999999999995" stroke="#000"/>
<text x="691.7766497461903" y="512.4" fill="#111" font-size="small" text-anchor="end" transform="rotate(-60, 691.7766497461903, 512.4)">
tinygql
</text>
<rect x="703.7055837563425" y="124.30183569064094" width="4.771573604060913" height="373.69816430935896" fill="#785EF0" data-tooltip="2.44x baseline (CRuby 3.4.0dev)"/>
<rect x="708.4771573604035" y="264.8127445079747" width="4.771573604060913" height="233.18725549202526" fill="#FFB000" data-tooltip="1.52x baseline (YJIT 3.3.4)"/>
<rect x="713.2487309644642" y="100.19999999999999" width="4.771573604060913" height="397.79999999999995" fill="#DC267F" data-tooltip="2.59x baseline (YJIT 3.4.0dev)"/>
<line x1="710.8629441624338" y1="498.0" x2="710.8629441624338" y2="502.79999999999995" stroke="#000"/>
<text x="710.8629441624338" y="512.4" fill="#111" font-size="small" text-anchor="end" transform="rotate(-60, 710.8629441624338, 512.4)">
30k_ifelse
</text>
<rect x="722.791878172586" y="208.15710785898264" width="4.771573604060913" height="289.84289214101733" fill="#785EF0" data-tooltip="1.89x baseline (CRuby 3.4.0dev)"/>
<rect x="727.563451776647" y="314.5012925525402" width="4.771573604060913" height="183.4987074474597" fill="#FFB000" data-tooltip="1.20x baseline (YJIT 3.3.4)"/>
<rect x="732.3350253807079" y="178.26261644701236" width="4.771573604060913" height="319.7373835529876" fill="#DC267F" data-tooltip="2.08x baseline (YJIT 3.4.0dev)"/>
<line x1="729.9492385786773" y1="498.0" x2="729.9492385786773" y2="502.79999999999995" stroke="#000"/>
<text x="729.9492385786773" y="512.4" fill="#111" font-size="small" text-anchor="end" transform="rotate(-60, 729.9492385786773, 512.4)">
30k_methods
</text>
<rect x="741.8781725888296" y="336.6577544136106" width="4.771573604060913" height="161.3422455863893" fill="#785EF0" data-tooltip="1.05x baseline (CRuby 3.4.0dev)"/>
<rect x="746.6497461928905" y="341.721652905346" width="4.771573604060913" height="156.27834709465398" fill="#FFB000" data-tooltip="1.02x baseline (YJIT 3.3.4)"/>
<rect x="751.4213197969514" y="332.6183440560414" width="4.771573604060913" height="165.38165594395855" fill="#DC267F" data-tooltip="1.08x baseline (YJIT 3.4.0dev)"/>
<line x1="749.0355329949209" y1="498.0" x2="749.0355329949209" y2="502.79999999999995" stroke="#000"/>
<text x="749.0355329949209" y="512.4" fill="#111" font-size="small" text-anchor="end" transform="rotate(-60, 749.0355329949209, 512.4)">
cfunc_itself
</text>
<rect x="760.9644670050732" y="336.0707182845142" width="4.771573604060913" height="161.92928171548573" fill="#785EF0" data-tooltip="1.06x baseline (CRuby 3.4.0dev)"/>
<rect x="765.7360406091341" y="341.1236639403675" width="4.771573604060913" height="156.87633605963245" fill="#FFB000" data-tooltip="1.02x baseline (YJIT 3.3.4)"/>
<rect x="770.5076142131949" y="331.899100359333" width="4.771573604060913" height="166.10089964066697" fill="#DC267F" data-tooltip="1.08x baseline (YJIT 3.4.0dev)"/>
<line x1="768.1218274111644" y1="498.0" x2="768.1218274111644" y2="502.79999999999995" stroke="#000"/>
<text x="768.1218274111644" y="512.4" fill="#111" font-size="small" text-anchor="end" transform="rotate(-60, 768.1218274111644, 512.4)">
fib
</text>
<rect x="780.0507614213167" y="336.5345218410795" width="4.771573604060913" height="161.46547815892046" fill="#785EF0" data-tooltip="1.05x baseline (CRuby 3.4.0dev)"/>
<rect x="784.8223350253776" y="341.572994671873" width="4.771573604060913" height="156.42700532812688" fill="#FFB000" data-tooltip="1.02x baseline (YJIT 3.3.4)"/>
<rect x="789.5939086294385" y="332.40414585769634" width="4.771573604060913" height="165.5958541423036" fill="#DC267F" data-tooltip="1.08x baseline (YJIT 3.4.0dev)"/>
<line x1="787.2081218274079" y1="498.0" x2="787.2081218274079" y2="502.79999999999995" stroke="#000"/>
<text x="787.2081218274079" y="512.4" fill="#111" font-size="small" text-anchor="end" transform="rotate(-60, 787.2081218274079, 512.4)">
getivar
</text>
<rect x="799.1370558375602" y="336.0707182845142" width="4.771573604060913" height="161.92928171548573" fill="#785EF0" data-tooltip="1.06x baseline (CRuby 3.4.0dev)"/>
<rect x="803.9086294416211" y="341.21179671343475" width="4.771573604060913" height="156.78820328656522" fill="#FFB000" data-tooltip="1.02x baseline (YJIT 3.3.4)"/>
<rect x="808.680203045682" y="331.92847795035544" width="4.771573604060913" height="166.07152204964456" fill="#DC267F" data-tooltip="1.08x baseline (YJIT 3.4.0dev)"/>
<line x1="806.2944162436515" y1="498.0" x2="806.2944162436515" y2="502.79999999999995" stroke="#000"/>
<text x="806.2944162436515" y="512.4" fill="#111" font-size="small" text-anchor="end" transform="rotate(-60, 806.2944162436515, 512.4)">
keyword_args
</text>
<rect x="818.2233502538038" y="337.51514345829054" width="4.771573604060913" height="160.48485654170932" fill="#785EF0" data-tooltip="1.05x baseline (CRuby 3.4.0dev)"/>
<rect x="822.9949238578647" y="342.61036296024974" width="4.771573604060913" height="155.38963703975014" fill="#FFB000" data-tooltip="1.01x baseline (YJIT 3.3.4)"/>
<rect x="827.7664974619255" y="333.49719893674563" width="4.771573604060913" height="164.5028010632543" fill="#DC267F" data-tooltip="1.07x baseline (YJIT 3.4.0dev)"/>
<line x1="825.380710659895" y1="498.0" x2="825.380710659895" y2="502.79999999999995" stroke="#000"/>
<text x="825.380710659895" y="512.4" fill="#111" font-size="small" text-anchor="end" transform="rotate(-60, 825.380710659895, 512.4)">
object-new
</text>
<rect x="837.3096446700473" y="335.9171868726359" width="4.771573604060913" height="162.08281312736403" fill="#785EF0" data-tooltip="1.06x baseline (CRuby 3.4.0dev)"/>
<rect x="842.0812182741082" y="341.06220633523134" width="4.771573604060913" height="156.93779366476858" fill="#FFB000" data-tooltip="1.02x baseline (YJIT 3.3.4)"/>
<rect x="846.8527918781691" y="331.80117130255957" width="4.771573604060913" height="166.19882869744038" fill="#DC267F" data-tooltip="1.08x baseline (YJIT 3.4.0dev)"/>
<line x1="844.4670050761385" y1="498.0" x2="844.4670050761385" y2="502.79999999999995" stroke="#000"/>
<text x="844.4670050761385" y="512.4" fill="#111" font-size="small" text-anchor="end" transform="rotate(-60, 844.4670050761385, 512.4)">
respond_to
</text>
<rect x="856.3959390862908" y="336.4867079596777" width="4.771573604060913" height="161.51329204032226" fill="#785EF0" data-tooltip="1.05x baseline (CRuby 3.4.0dev)"/>
<rect x="861.1675126903517" y="342.6409213288003" width="4.771573604060913" height="155.35907867119963" fill="#FFB000" data-tooltip="1.01x baseline (YJIT 3.3.4)"/>
<rect x="865.9390862944126" y="332.69949973252534" width="4.771573604060913" height="165.30050026747463" fill="#DC267F" data-tooltip="1.08x baseline (YJIT 3.4.0dev)"/>
<line x1="863.5532994923822" y1="498.0" x2="863.5532994923822" y2="502.79999999999995" stroke="#000"/>
<text x="863.5532994923822" y="512.4" fill="#111" font-size="small" text-anchor="end" transform="rotate(-60, 863.5532994923822, 512.4)">
ruby-xor
</text>
<rect x="875.4822335025344" y="336.9956761008632" width="4.771573604060913" height="161.00432389913678" fill="#785EF0" data-tooltip="1.05x baseline (CRuby 3.4.0dev)"/>
<rect x="880.2538071065953" y="341.9613392109599" width="4.771573604060913" height="156.03866078904005" fill="#FFB000" data-tooltip="1.02x baseline (YJIT 3.3.4)"/>
<rect x="885.0253807106561" y="332.8770966977829" width="4.771573604060913" height="165.12290330221703" fill="#DC267F" data-tooltip="1.08x baseline (YJIT 3.4.0dev)"/>
<line x1="882.6395939086257" y1="498.0" x2="882.6395939086257" y2="502.79999999999995" stroke="#000"/>
<text x="882.6395939086257" y="512.4" fill="#111" font-size="small" text-anchor="end" transform="rotate(-60, 882.6395939086257, 512.4)">
setivar
</text>
<rect x="894.5685279187779" y="336.50368427840596" width="4.771573604060913" height="161.49631572159404" fill="#785EF0" data-tooltip="1.05x baseline (CRuby 3.4.0dev)"/>
<rect x="899.3401015228388" y="341.5431193843773" width="4.771573604060913" height="156.45688061562268" fill="#FFB000" data-tooltip="1.02x baseline (YJIT 3.3.4)"/>
<rect x="904.1116751268997" y="332.34322041184816" width="4.771573604060913" height="165.6567795881518" fill="#DC267F" data-tooltip="1.08x baseline (YJIT 3.4.0dev)"/>
<line x1="901.7258883248692" y1="498.0" x2="901.7258883248692" y2="502.79999999999995" stroke="#000"/>
<text x="901.7258883248692" y="512.4" fill="#111" font-size="small" text-anchor="end" transform="rotate(-60, 901.7258883248692, 512.4)">
setivar_object
</text>
<rect x="913.6548223350214" y="336.56381528777007" width="4.771573604060913" height="161.43618471222982" fill="#785EF0" data-tooltip="1.05x baseline (CRuby 3.4.0dev)"/>
<rect x="918.4263959390823" y="341.572994671873" width="4.771573604060913" height="156.42700532812688" fill="#FFB000" data-tooltip="1.02x baseline (YJIT 3.3.4)"/>
<rect x="923.1979695431432" y="332.72637377129354" width="4.771573604060913" height="165.27362622870632" fill="#DC267F" data-tooltip="1.08x baseline (YJIT 3.4.0dev)"/>
<line x1="920.8121827411128" y1="498.0" x2="920.8121827411128" y2="502.79999999999995" stroke="#000"/>
<text x="920.8121827411128" y="512.4" fill="#111" font-size="small" text-anchor="end" transform="rotate(-60, 920.8121827411128, 512.4)">
setivar_young
</text>
<rect x="932.741116751265" y="339.1979602673384" width="4.771573604060913" height="158.80203973266157" fill="#785EF0" data-tooltip="1.04x baseline (CRuby 3.4.0dev)"/>
<rect x="937.512690355326" y="302.96711249261364" width="4.771573604060913" height="195.03288750738636" fill="#FFB000" data-tooltip="1.27x baseline (YJIT 3.3.4)"/>
<rect x="942.2842639593867" y="289.64052851310817" width="4.771573604060913" height="208.35947148689178" fill="#DC267F" data-tooltip="1.36x baseline (YJIT 3.4.0dev)"/>
<line x1="939.8984771573563" y1="498.0" x2="939.8984771573563" y2="502.79999999999995" stroke="#000"/>
<text x="939.8984771573563" y="512.4" fill="#111" font-size="small" text-anchor="end" transform="rotate(-60, 939.8984771573563, 512.4)">
str_concat
</text>
<rect x="951.8274111675086" y="337.48467936251575" width="4.771573604060913" height="160.51532063748417" fill="#785EF0" data-tooltip="1.05x baseline (CRuby 3.4.0dev)"/>
<rect x="956.5989847715695" y="342.5226239325965" width="4.771573604060913" height="155.47737606740347" fill="#FFB000" data-tooltip="1.01x baseline (YJIT 3.3.4)"/>
<rect x="961.3705583756304" y="333.55333533384015" width="4.771573604060913" height="164.44666466615985" fill="#DC267F" data-tooltip="1.07x baseline (YJIT 3.4.0dev)"/>
<line x1="958.9847715735998" y1="498.0" x2="958.9847715735998" y2="502.79999999999995" stroke="#000"/>
<text x="958.9847715735998" y="512.4" fill="#111" font-size="small" text-anchor="end" transform="rotate(-60, 958.9847715735998, 512.4)">
throw
</text>
<rect x="970.9137055837521" y="331.7578874511368" width="4.771573604060913" height="166.24211254886308" fill="#785EF0" data-tooltip="1.08x baseline (CRuby 3.4.0dev)"/>
<rect x="975.685279187813" y="331.09943260439286" width="4.771573604060913" height="166.9005673956071" fill="#FFB000" data-tooltip="1.09x baseline (YJIT 3.3.4)"/>
<rect x="980.4568527918739" y="318.3288704818425" width="4.771573604060913" height="179.67112951815744" fill="#DC267F" data-tooltip="1.17x baseline (YJIT 3.4.0dev)"/>
<line x1="978.0710659898434" y1="498.0" x2="978.0710659898434" y2="502.79999999999995" stroke="#000"/>
<text x="978.0710659898434" y="512.4" fill="#111" font-size="small" text-anchor="end" transform="rotate(-60, 978.0710659898434, 512.4)" font-style="italic">
geomean*
</text>
<line x1="50.0" y1="344.5902196810111" x2="990.0" y2="344.5902196810111" stroke="#648FFF" stroke-width="2"/>
<rect x="56.596573604060914" y="343.6656075821704" width="17.85" height="7.2" transform="rotate(-60, 59.15736040609138, 350.3256075821704)" fill="#fffa"/>
<text x="56.77157360406092" y="350.3256075821704" fill="#111" font-size="0.5em" text-anchor="start" textLength="17.5" transform="rotate(-60, 59.15736040609138, 350.3256075821704)" style="text-shadow: 0 0 1px #fff;">
0.91
</text>
<rect x="61.36814720812183" y="318.97063068529485" width="17.85" height="7.2" transform="rotate(-60, 63.92893401015229, 325.6306306852948)" fill="#fffa"/>
<text x="61.54314720812183" y="325.6306306852948" fill="#111" font-size="0.5em" text-anchor="start" textLength="17.5" transform="rotate(-60, 63.92893401015229, 325.6306306852948)" style="text-shadow: 0 0 1px #fff;">
1.07
</text>
<rect x="66.13972081218274" y="312.4097972908009" width="17.85" height="7.2" transform="rotate(-60, 68.70050761421321, 319.06979729080086)" fill="#fffa"/>
<text x="66.31472081218274" y="319.06979729080086" fill="#111" font-size="0.5em" text-anchor="start" textLength="17.5" transform="rotate(-60, 68.70050761421321, 319.06979729080086)" style="text-shadow: 0 0 1px #fff;">
1.12
</text>
<rect x="75.68286802030458" y="340.45842610083554" width="17.85" height="7.2" transform="rotate(-60, 78.24365482233503, 347.11842610083556)" fill="#fffa"/>
<text x="75.85786802030458" y="347.11842610083556" fill="#111" font-size="0.5em" text-anchor="start" textLength="17.5" transform="rotate(-60, 78.24365482233503, 347.11842610083556)" style="text-shadow: 0 0 1px #fff;">
0.93
</text>
<rect x="80.45444162436549" y="298.36484817108663" width="17.85" height="7.2" transform="rotate(-60, 83.01522842639594, 305.02484817108666)" fill="#fffa"/>
<text x="80.62944162436548" y="305.02484817108666" fill="#111" font-size="0.5em" text-anchor="start" textLength="17.5" transform="rotate(-60, 83.01522842639594, 305.02484817108666)" style="text-shadow: 0 0 1px #fff;">
1.21
</text>
<rect x="85.2260152284264" y="357.0511151098521" width="17.85" height="7.2" transform="rotate(-60, 87.78680203045685, 363.7111151098521)" fill="#fffa"/>
<text x="85.4010152284264" y="363.7111151098521" fill="#111" font-size="0.5em" text-anchor="start" textLength="17.5" transform="rotate(-60, 87.78680203045685, 363.7111151098521)" style="text-shadow: 0 0 1px #fff;">
0.83
</text>
<rect x="94.76916243654823" y="321.7652629217991" width="17.85" height="7.2" transform="rotate(-60, 97.32994923857868, 328.4252629217991)" fill="#fffa"/>
<text x="94.94416243654823" y="328.4252629217991" fill="#111" font-size="0.5em" text-anchor="start" textLength="17.5" transform="rotate(-60, 97.32994923857868, 328.4252629217991)" style="text-shadow: 0 0 1px #fff;">
1.06
</text>
<rect x="99.54073604060915" y="318.1785628031166" width="17.85" height="7.2" transform="rotate(-60, 102.1015228426396, 324.83856280311664)" fill="#fffa"/>
<text x="99.71573604060914" y="324.83856280311664" fill="#111" font-size="0.5em" text-anchor="start" textLength="17.5" transform="rotate(-60, 102.1015228426396, 324.83856280311664)" style="text-shadow: 0 0 1px #fff;">
1.08
</text>
<rect x="104.31230964467007" y="310.83685463137977" width="17.85" height="7.2" transform="rotate(-60, 106.87309644670052, 317.4968546313798)" fill="#fffa"/>
<text x="104.48730964467005" y="317.4968546313798" fill="#111" font-size="0.5em" text-anchor="start" textLength="17.5" transform="rotate(-60, 106.87309644670052, 317.4968546313798)" style="text-shadow: 0 0 1px #fff;">
1.13
</text>
<rect x="113.85545685279189" y="303.61537528639997" width="17.85" height="7.2" transform="rotate(-60, 116.41624365482234, 310.2753752864)" fill="#fffa"/>
<text x="114.03045685279189" y="310.2753752864" fill="#111" font-size="0.5em" text-anchor="start" textLength="17.5" transform="rotate(-60, 116.41624365482234, 310.2753752864)" style="text-shadow: 0 0 1px #fff;">
1.17
</text>
<rect x="118.6270304568528" y="207.48628964382658" width="17.85" height="7.2" transform="rotate(-60, 121.18781725888326, 214.1462896438266)" fill="#fffa"/>
<text x="118.80203045685279" y="214.1462896438266" fill="#111" font-size="0.5em" text-anchor="start" textLength="17.5" transform="rotate(-60, 121.18781725888326, 214.1462896438266)" style="text-shadow: 0 0 1px #fff;">
1.80
</text>
<rect x="123.39860406091371" y="200.1040823644035" width="17.85" height="7.2" transform="rotate(-60, 125.95939086294416, 206.7640823644035)" fill="#fffa"/>
<text x="123.57360406091371" y="206.7640823644035" fill="#111" font-size="0.5em" text-anchor="start" textLength="17.5" transform="rotate(-60, 125.95939086294416, 206.7640823644035)" style="text-shadow: 0 0 1px #fff;">
1.85
</text>
<rect x="132.9417512690355" y="326.302449296622" width="17.85" height="7.2" transform="rotate(-60, 135.502538071066, 332.962449296622)" fill="#fffa"/>
<text x="133.11675126903552" y="332.962449296622" fill="#111" font-size="0.5em" text-anchor="start" textLength="17.5" transform="rotate(-60, 135.502538071066, 332.962449296622)" style="text-shadow: 0 0 1px #fff;">
1.03
</text>
<rect x="137.71332487309644" y="308.9726364431539" width="17.85" height="7.2" transform="rotate(-60, 140.27411167512687, 315.63263644315384)" fill="#fffa"/>
<text x="137.88832487309642" y="315.63263644315384" fill="#111" font-size="0.5em" text-anchor="start" textLength="17.5" transform="rotate(-60, 140.27411167512687, 315.63263644315384)" style="text-shadow: 0 0 1px #fff;">
1.14
</text>
<rect x="142.48489847715734" y="303.6338259873119" width="17.85" height="7.2" transform="rotate(-60, 145.0456852791878, 310.2938259873119)" fill="#fffa"/>
<text x="142.65989847715736" y="310.2938259873119" fill="#111" font-size="0.5em" text-anchor="start" textLength="17.5" transform="rotate(-60, 145.0456852791878, 310.2938259873119)" style="text-shadow: 0 0 1px #fff;">
1.17
</text>
<rect x="152.02804568527915" y="321.04270621609294" width="17.85" height="7.2" transform="rotate(-60, 154.58883248730965, 327.70270621609296)" fill="#fffa"/>
<text x="152.20304568527916" y="327.70270621609296" fill="#111" font-size="0.5em" text-anchor="start" textLength="17.5" transform="rotate(-60, 154.58883248730965, 327.70270621609296)" style="text-shadow: 0 0 1px #fff;">
1.06
</text>
<rect x="156.7996192893401" y="316.3489494836339" width="17.85" height="7.2" transform="rotate(-60, 159.36040609137052, 323.0089494836339)" fill="#fffa"/>
<text x="156.9746192893401" y="323.0089494836339" fill="#111" font-size="0.5em" text-anchor="start" textLength="17.5" transform="rotate(-60, 159.36040609137052, 323.0089494836339)" style="text-shadow: 0 0 1px #fff;">
1.09
</text>
<rect x="161.571192893401" y="307.8890559263163" width="17.85" height="7.2" transform="rotate(-60, 164.13197969543148, 314.5490559263163)" fill="#fffa"/>
<text x="161.746192893401" y="314.5490559263163" fill="#111" font-size="0.5em" text-anchor="start" textLength="17.5" transform="rotate(-60, 164.13197969543148, 314.5490559263163)" style="text-shadow: 0 0 1px #fff;">
1.15
</text>
<rect x="171.11434010152283" y="320.59872209198545" width="17.85" height="7.2" transform="rotate(-60, 173.6751269035533, 327.2587220919855)" fill="#fffa"/>
<text x="171.28934010152284" y="327.2587220919855" fill="#111" font-size="0.5em" text-anchor="start" textLength="17.5" transform="rotate(-60, 173.6751269035533, 327.2587220919855)" style="text-shadow: 0 0 1px #fff;">
1.06
</text>
<rect x="175.88591370558373" y="306.8381180064574" width="17.85" height="7.2" transform="rotate(-60, 178.4467005076142, 313.49811800645745)" fill="#fffa"/>
<text x="176.06091370558374" y="313.49811800645745" fill="#111" font-size="0.5em" text-anchor="start" textLength="17.5" transform="rotate(-60, 178.4467005076142, 313.49811800645745)" style="text-shadow: 0 0 1px #fff;">
1.15
</text>
<rect x="180.65748730964464" y="295.74930633855104" width="17.85" height="7.2" transform="rotate(-60, 183.21827411167513, 302.40930633855106)" fill="#fffa"/>
<text x="180.83248730964465" y="302.40930633855106" fill="#111" font-size="0.5em" text-anchor="start" textLength="17.5" transform="rotate(-60, 183.21827411167513, 302.40930633855106)" style="text-shadow: 0 0 1px #fff;">
1.23
</text>
<rect x="190.20063451776647" y="333.5612970348008" width="17.85" height="7.2" transform="rotate(-60, 192.76142131979697, 340.2212970348008)" fill="#fffa"/>
<text x="190.37563451776649" y="340.2212970348008" fill="#111" font-size="0.5em" text-anchor="start" textLength="17.5" transform="rotate(-60, 192.76142131979697, 340.2212970348008)" style="text-shadow: 0 0 1px #fff;">
0.98
</text>
<rect x="194.97220812182738" y="306.2662819866676" width="17.85" height="7.2" transform="rotate(-60, 197.53299492385784, 312.92628198666756)" fill="#fffa"/>
<text x="195.1472081218274" y="312.92628198666756" fill="#111" font-size="0.5em" text-anchor="start" textLength="17.5" transform="rotate(-60, 197.53299492385784, 312.92628198666756)" style="text-shadow: 0 0 1px #fff;">
1.16
</text>
<rect x="199.7437817258883" y="303.16556133852396" width="17.85" height="7.2" transform="rotate(-60, 202.30456852791878, 309.8255613385239)" fill="#fffa"/>
<text x="199.91878172588832" y="309.8255613385239" fill="#111" font-size="0.5em" text-anchor="start" textLength="17.5" transform="rotate(-60, 202.30456852791878, 309.8255613385239)" style="text-shadow: 0 0 1px #fff;">
1.18
</text>
<rect x="209.28692893401012" y="276.5804038546416" width="17.85" height="7.2" transform="rotate(-60, 211.8477157360406, 283.2404038546416)" fill="#fffa"/>
<text x="209.46192893401013" y="283.2404038546416" fill="#111" font-size="0.5em" text-anchor="start" textLength="17.5" transform="rotate(-60, 211.8477157360406, 283.2404038546416)" style="text-shadow: 0 0 1px #fff;">
1.35
</text>
<rect x="214.05850253807105" y="316.8319033274583" width="17.85" height="7.2" transform="rotate(-60, 216.6192893401015, 323.4919033274583)" fill="#fffa"/>
<text x="214.23350253807106" y="323.4919033274583" fill="#111" font-size="0.5em" text-anchor="start" textLength="17.5" transform="rotate(-60, 216.6192893401015, 323.4919033274583)" style="text-shadow: 0 0 1px #fff;">
1.09
</text>
<rect x="218.83007614213196" y="261.2672021350102" width="17.85" height="7.2" transform="rotate(-60, 221.39086294416245, 267.9272021350102)" fill="#fffa"/>
<text x="219.00507614213197" y="267.9272021350102" fill="#111" font-size="0.5em" text-anchor="start" textLength="17.5" transform="rotate(-60, 221.39086294416245, 267.9272021350102)" style="text-shadow: 0 0 1px #fff;">
1.45
</text>
<rect x="228.3732233502538" y="323.18222673621557" width="17.85" height="7.2" transform="rotate(-60, 230.93401015228426, 329.8422267362156)" fill="#fffa"/>
<text x="228.5482233502538" y="329.8422267362156" fill="#111" font-size="0.5em" text-anchor="start" textLength="17.5" transform="rotate(-60, 230.93401015228426, 329.8422267362156)" style="text-shadow: 0 0 1px #fff;">
1.05
</text>
<rect x="233.1447969543147" y="318.5566231985822" width="17.85" height="7.2" transform="rotate(-60, 235.70558375634516, 325.2166231985822)" fill="#fffa"/>
<text x="233.3197969543147" y="325.2166231985822" fill="#111" font-size="0.5em" text-anchor="start" textLength="17.5" transform="rotate(-60, 235.70558375634516, 325.2166231985822)" style="text-shadow: 0 0 1px #fff;">
1.08
</text>
<rect x="237.9163705583756" y="313.58500994750386" width="17.85" height="7.2" transform="rotate(-60, 240.4771573604061, 320.2450099475039)" fill="#fffa"/>
<text x="238.09137055837562" y="320.2450099475039" fill="#111" font-size="0.5em" text-anchor="start" textLength="17.5" transform="rotate(-60, 240.4771573604061, 320.2450099475039)" style="text-shadow: 0 0 1px #fff;">
1.11
</text>
<rect x="247.45951776649744" y="317.90039151592896" width="17.85" height="7.2" transform="rotate(-60, 250.0203045685279, 324.560391515929)" fill="#fffa"/>
<text x="247.63451776649745" y="324.560391515929" fill="#111" font-size="0.5em" text-anchor="start" textLength="17.5" transform="rotate(-60, 250.0203045685279, 324.560391515929)" style="text-shadow: 0 0 1px #fff;">
1.08
</text>
<rect x="252.23109137055837" y="308.7966882397364" width="17.85" height="7.2" transform="rotate(-60, 254.7918781725888, 315.4566882397364)" fill="#fffa"/>
<text x="252.40609137055836" y="315.4566882397364" fill="#111" font-size="0.5em" text-anchor="start" textLength="17.5" transform="rotate(-60, 254.7918781725888, 315.4566882397364)" style="text-shadow: 0 0 1px #fff;">
1.14
</text>
<rect x="257.0026649746193" y="301.610463262704" width="17.85" height="7.2" transform="rotate(-60, 259.5634517766497, 308.270463262704)" fill="#fffa"/>
<text x="257.17766497461923" y="308.270463262704" fill="#111" font-size="0.5em" text-anchor="start" textLength="17.5" transform="rotate(-60, 259.5634517766497, 308.270463262704)" style="text-shadow: 0 0 1px #fff;">
1.19
</text>
<rect x="266.54581218274103" y="324.37987777535426" width="17.85" height="7.2" transform="rotate(-60, 269.10659898477144, 331.0398777753542)" fill="#fffa"/>
<text x="266.72081218274104" y="331.0398777753542" fill="#111" font-size="0.5em" text-anchor="start" textLength="17.5" transform="rotate(-60, 269.10659898477144, 331.0398777753542)" style="text-shadow: 0 0 1px #fff;">
1.04
</text>
<rect x="271.31738578680194" y="276.11159457244713" width="17.85" height="7.2" transform="rotate(-60, 273.87817258883234, 282.7715945724471)" fill="#fffa"/>
<text x="271.4923857868019" y="282.7715945724471" fill="#111" font-size="0.5em" text-anchor="start" textLength="17.5" transform="rotate(-60, 273.87817258883234, 282.7715945724471)" style="text-shadow: 0 0 1px #fff;">
1.35
</text>
<rect x="276.0889593908628" y="267.089862530901" width="17.85" height="7.2" transform="rotate(-60, 278.64974619289325, 273.74986253090094)" fill="#fffa"/>
<text x="276.2639593908628" y="273.74986253090094" fill="#111" font-size="0.5em" text-anchor="start" textLength="17.5" transform="rotate(-60, 278.64974619289325, 273.74986253090094)" style="text-shadow: 0 0 1px #fff;">
1.41
</text>
<rect x="285.6321065989846" y="359.07890189838804" width="17.85" height="7.2" transform="rotate(-60, 288.192893401015, 365.73890189838806)" fill="#fffa"/>
<text x="285.80710659898455" y="365.73890189838806" fill="#111" font-size="0.5em" text-anchor="start" textLength="17.5" transform="rotate(-60, 288.192893401015, 365.73890189838806)" style="text-shadow: 0 0 1px #fff;">
0.81
</text>
<rect x="290.40368020304544" y="332.91695747879214" width="17.85" height="7.2" transform="rotate(-60, 292.9644670050759, 339.5769574787921)" fill="#fffa"/>
<text x="290.57868020304545" y="339.5769574787921" fill="#111" font-size="0.5em" text-anchor="start" textLength="17.5" transform="rotate(-60, 292.9644670050759, 339.5769574787921)" style="text-shadow: 0 0 1px #fff;">
0.98
</text>
<rect x="295.17525380710634" y="355.56089930799783" width="17.85" height="7.2" transform="rotate(-60, 297.73604060913675, 362.2208993079978)" fill="#fffa"/>
<text x="295.35025380710636" y="362.2208993079978" fill="#111" font-size="0.5em" text-anchor="start" textLength="17.5" transform="rotate(-60, 297.73604060913675, 362.2208993079978)" style="text-shadow: 0 0 1px #fff;">
0.84
</text>
<rect x="304.7184010152281" y="322.7669905663282" width="17.85" height="7.2" transform="rotate(-60, 307.27918781725856, 329.42699056632824)" fill="#fffa"/>
<text x="304.8934010152281" y="329.42699056632824" fill="#111" font-size="0.5em" text-anchor="start" textLength="17.5" transform="rotate(-60, 307.27918781725856, 329.42699056632824)" style="text-shadow: 0 0 1px #fff;">
1.05
</text>
<rect x="309.489974619289" y="321.7022050472354" width="17.85" height="7.2" transform="rotate(-60, 312.0507614213194, 328.3622050472354)" fill="#fffa"/>
<text x="309.664974619289" y="328.3622050472354" fill="#111" font-size="0.5em" text-anchor="start" textLength="17.5" transform="rotate(-60, 312.0507614213194, 328.3622050472354)" style="text-shadow: 0 0 1px #fff;">
1.06
</text>
<rect x="314.2615482233499" y="313.7969792236678" width="17.85" height="7.2" transform="rotate(-60, 316.8223350253803, 320.4569792236678)" fill="#fffa"/>
<text x="314.43654822334986" y="320.4569792236678" fill="#111" font-size="0.5em" text-anchor="start" textLength="17.5" transform="rotate(-60, 316.8223350253803, 320.4569792236678)" style="text-shadow: 0 0 1px #fff;">
1.11
</text>
<rect x="323.80469543147166" y="329.0420984930693" width="17.85" height="7.2" transform="rotate(-60, 326.36548223350206, 335.7020984930693)" fill="#fffa"/>
<text x="323.97969543147167" y="335.7020984930693" fill="#111" font-size="0.5em" text-anchor="start" textLength="17.5" transform="rotate(-60, 326.36548223350206, 335.7020984930693)" style="text-shadow: 0 0 1px #fff;">
1.01
</text>
<rect x="328.57626903553256" y="333.5646868795895" width="17.85" height="7.2" transform="rotate(-60, 331.13705583756297, 340.22468687958946)" fill="#fffa"/>
<text x="328.7512690355325" y="340.22468687958946" fill="#111" font-size="0.5em" text-anchor="start" textLength="17.5" transform="rotate(-60, 331.13705583756297, 340.22468687958946)" style="text-shadow: 0 0 1px #fff;">
0.98
</text>
<rect x="333.34784263959347" y="325.86285319165415" width="17.85" height="7.2" transform="rotate(-60, 335.9086294416239, 332.5228531916542)" fill="#fffa"/>
<text x="333.5228426395934" y="332.5228531916542" fill="#111" font-size="0.5em" text-anchor="start" textLength="17.5" transform="rotate(-60, 335.9086294416239, 332.5228531916542)" style="text-shadow: 0 0 1px #fff;">
1.03
</text>
<rect x="342.8909898477152" y="323.73169959935865" width="17.85" height="7.2" transform="rotate(-60, 345.4517766497456, 330.3916995993586)" fill="#fffa"/>
<text x="343.0659898477152" y="330.3916995993586" fill="#111" font-size="0.5em" text-anchor="start" textLength="17.5" transform="rotate(-60, 345.4517766497456, 330.3916995993586)" style="text-shadow: 0 0 1px #fff;">
1.04
</text>
<rect x="347.6625634517761" y="327.55942536030295" width="17.85" height="7.2" transform="rotate(-60, 350.22335025380653, 334.2194253603029)" fill="#fffa"/>
<text x="347.8375634517761" y="334.2194253603029" fill="#111" font-size="0.5em" text-anchor="start" textLength="17.5" transform="rotate(-60, 350.22335025380653, 334.2194253603029)" style="text-shadow: 0 0 1px #fff;">
1.02
</text>
<rect x="352.43413705583697" y="318.83767880500847" width="17.85" height="7.2" transform="rotate(-60, 354.99492385786743, 325.49767880500843)" fill="#fffa"/>
<text x="352.609137055837" y="325.49767880500843" fill="#111" font-size="0.5em" text-anchor="start" textLength="17.5" transform="rotate(-60, 354.99492385786743, 325.49767880500843)" style="text-shadow: 0 0 1px #fff;">
1.08
</text>
<rect x="361.9772842639588" y="331.6064851475409" width="17.85" height="7.2" transform="rotate(-60, 364.5380710659892, 338.2664851475409)" fill="#fffa"/>
<text x="362.15228426395873" y="338.2664851475409" fill="#111" font-size="0.5em" text-anchor="start" textLength="17.5" transform="rotate(-60, 364.5380710659892, 338.2664851475409)" style="text-shadow: 0 0 1px #fff;">
0.99
</text>
<rect x="366.7488578680196" y="322.87735721171464" width="17.85" height="7.2" transform="rotate(-60, 369.3096446700501, 329.53735721171466)" fill="#fffa"/>
<text x="366.92385786801964" y="329.53735721171466" fill="#111" font-size="0.5em" text-anchor="start" textLength="17.5" transform="rotate(-60, 369.3096446700501, 329.53735721171466)" style="text-shadow: 0 0 1px #fff;">
1.05
</text>
<rect x="371.52043147208053" y="316.10867172010467" width="17.85" height="7.2" transform="rotate(-60, 374.08121827411094, 322.7686717201047)" fill="#fffa"/>
<text x="371.6954314720805" y="322.7686717201047" fill="#111" font-size="0.5em" text-anchor="start" textLength="17.5" transform="rotate(-60, 374.08121827411094, 322.7686717201047)" style="text-shadow: 0 0 1px #fff;">
1.09
</text>
<rect x="381.0635786802023" y="300.44950739608123" width="17.85" height="7.2" transform="rotate(-60, 383.62436548223275, 307.1095073960812)" fill="#fffa"/>
<text x="381.2385786802023" y="307.1095073960812" fill="#111" font-size="0.5em" text-anchor="start" textLength="17.5" transform="rotate(-60, 383.62436548223275, 307.1095073960812)" style="text-shadow: 0 0 1px #fff;">
1.20
</text>
<rect x="385.8351522842632" y="327.71162966873356" width="17.85" height="7.2" transform="rotate(-60, 388.3959390862936, 334.3716296687336)" fill="#fffa"/>
<text x="386.01015228426314" y="334.3716296687336" fill="#111" font-size="0.5em" text-anchor="start" textLength="17.5" transform="rotate(-60, 388.3959390862936, 334.3716296687336)" style="text-shadow: 0 0 1px #fff;">
1.02
</text>
<rect x="390.6067258883241" y="322.4268939439324" width="17.85" height="7.2" transform="rotate(-60, 393.1675126903545, 329.08689394393235)" fill="#fffa"/>
<text x="390.78172588832405" y="329.08689394393235" fill="#111" font-size="0.5em" text-anchor="start" textLength="17.5" transform="rotate(-60, 393.1675126903545, 329.08689394393235)" style="text-shadow: 0 0 1px #fff;">
1.05
</text>
<rect x="400.14987309644584" y="321.96623180134276" width="17.85" height="7.2" transform="rotate(-60, 402.71065989847625, 328.6262318013427)" fill="#fffa"/>
<text x="400.3248730964458" y="328.6262318013427" fill="#111" font-size="0.5em" text-anchor="start" textLength="17.5" transform="rotate(-60, 402.71065989847625, 328.6262318013427)" style="text-shadow: 0 0 1px #fff;">
1.06
</text>
<rect x="404.92144670050675" y="328.1966673238764" width="17.85" height="7.2" transform="rotate(-60, 407.48223350253716, 334.8566673238764)" fill="#fffa"/>
<text x="405.0964467005067" y="334.8566673238764" fill="#111" font-size="0.5em" text-anchor="start" textLength="17.5" transform="rotate(-60, 407.48223350253716, 334.8566673238764)" style="text-shadow: 0 0 1px #fff;">
1.01
</text>
<rect x="409.6930203045676" y="317.469738240269" width="17.85" height="7.2" transform="rotate(-60, 412.25380710659806, 324.129738240269)" fill="#fffa"/>
<text x="409.8680203045676" y="324.129738240269" fill="#111" font-size="0.5em" text-anchor="start" textLength="17.5" transform="rotate(-60, 412.25380710659806, 324.129738240269)" style="text-shadow: 0 0 1px #fff;">
1.08
</text>
<rect x="419.2361675126894" y="329.6654265728014" width="17.85" height="7.2" transform="rotate(-60, 421.7969543147198, 336.3254265728014)" fill="#fffa"/>
<text x="419.41116751268936" y="336.3254265728014" fill="#111" font-size="0.5em" text-anchor="start" textLength="17.5" transform="rotate(-60, 421.7969543147198, 336.3254265728014)" style="text-shadow: 0 0 1px #fff;">
1.00
</text>
<rect x="424.00774111675025" y="317.1774335432748" width="17.85" height="7.2" transform="rotate(-60, 426.5685279187807, 323.83743354327476)" fill="#fffa"/>
<text x="424.18274111675026" y="323.83743354327476" fill="#111" font-size="0.5em" text-anchor="start" textLength="17.5" transform="rotate(-60, 426.5685279187807, 323.83743354327476)" style="text-shadow: 0 0 1px #fff;">
1.09
</text>
<rect x="428.77931472081116" y="319.04637815052996" width="17.85" height="7.2" transform="rotate(-60, 431.34010152284156, 325.70637815053)" fill="#fffa"/>
<text x="428.9543147208111" y="325.70637815053" fill="#111" font-size="0.5em" text-anchor="start" textLength="17.5" transform="rotate(-60, 431.34010152284156, 325.70637815053)" style="text-shadow: 0 0 1px #fff;">
1.07
</text>
<rect x="438.3224619289329" y="325.1546977317845" width="17.85" height="7.2" transform="rotate(-60, 440.8832487309634, 331.81469773178446)" fill="#fffa"/>
<text x="438.4974619289329" y="331.81469773178446" fill="#111" font-size="0.5em" text-anchor="start" textLength="17.5" transform="rotate(-60, 440.8832487309634, 331.81469773178446)" style="text-shadow: 0 0 1px #fff;">
1.03
</text>
<rect x="443.0940355329938" y="320.4786669131517" width="17.85" height="7.2" transform="rotate(-60, 445.6548223350242, 327.1386669131517)" fill="#fffa"/>
<text x="443.26903553299377" y="327.1386669131517" fill="#111" font-size="0.5em" text-anchor="start" textLength="17.5" transform="rotate(-60, 445.6548223350242, 327.1386669131517)" style="text-shadow: 0 0 1px #fff;">
1.06
</text>
<rect x="447.8656091370547" y="314.1840100419154" width="17.85" height="7.2" transform="rotate(-60, 450.4263959390851, 320.84401004191545)" fill="#fffa"/>
<text x="448.0406091370547" y="320.84401004191545" fill="#111" font-size="0.5em" text-anchor="start" textLength="17.5" transform="rotate(-60, 450.4263959390851, 320.84401004191545)" style="text-shadow: 0 0 1px #fff;">
1.11
</text>
<rect x="457.40875634517647" y="322.2932303360758" width="17.85" height="7.2" transform="rotate(-60, 459.9695431472069, 328.95323033607576)" fill="#fffa"/>
<text x="457.5837563451764" y="328.95323033607576" fill="#111" font-size="0.5em" text-anchor="start" textLength="17.5" transform="rotate(-60, 459.9695431472069, 328.95323033607576)" style="text-shadow: 0 0 1px #fff;">
1.05
</text>
<rect x="462.1803299492374" y="320.97785235926284" width="17.85" height="7.2" transform="rotate(-60, 464.7411167512678, 327.63785235926287)" fill="#fffa"/>
<text x="462.35532994923733" y="327.63785235926287" fill="#111" font-size="0.5em" text-anchor="start" textLength="17.5" transform="rotate(-60, 464.7411167512678, 327.63785235926287)" style="text-shadow: 0 0 1px #fff;">
1.06
</text>
<rect x="466.9519035532982" y="314.4927330317203" width="17.85" height="7.2" transform="rotate(-60, 469.5126903553287, 321.15273303172035)" fill="#fffa"/>
<text x="467.12690355329823" y="321.15273303172035" fill="#111" font-size="0.5em" text-anchor="start" textLength="17.5" transform="rotate(-60, 469.5126903553287, 321.15273303172035)" style="text-shadow: 0 0 1px #fff;">
1.10
</text>
<rect x="476.49505076142003" y="326.0722820595045" width="17.85" height="7.2" transform="rotate(-60, 479.05583756345044, 332.7322820595045)" fill="#fffa"/>
<text x="476.67005076142" y="332.7322820595045" fill="#111" font-size="0.5em" text-anchor="start" textLength="17.5" transform="rotate(-60, 479.05583756345044, 332.7322820595045)" style="text-shadow: 0 0 1px #fff;">
1.03
</text>
<rect x="481.2666243654809" y="323.6166187965921" width="17.85" height="7.2" transform="rotate(-60, 483.82741116751134, 330.27661879659206)" fill="#fffa"/>
<text x="481.4416243654809" y="330.27661879659206" fill="#111" font-size="0.5em" text-anchor="start" textLength="17.5" transform="rotate(-60, 483.82741116751134, 330.27661879659206)" style="text-shadow: 0 0 1px #fff;">
1.04
</text>
<rect x="486.0381979695418" y="317.8579155110297" width="17.85" height="7.2" transform="rotate(-60, 488.5989847715722, 324.51791551102974)" fill="#fffa"/>
<text x="486.21319796954174" y="324.51791551102974" fill="#111" font-size="0.5em" text-anchor="start" textLength="17.5" transform="rotate(-60, 488.5989847715722, 324.51791551102974)" style="text-shadow: 0 0 1px #fff;">
1.08
</text>
<rect x="495.58134517766354" y="303.0738567748058" width="17.85" height="7.2" transform="rotate(-60, 498.142131979694, 309.73385677480576)" fill="#fffa"/>
<text x="495.75634517766355" y="309.73385677480576" fill="#111" font-size="0.5em" text-anchor="start" textLength="17.5" transform="rotate(-60, 498.142131979694, 309.73385677480576)" style="text-shadow: 0 0 1px #fff;">
1.18
</text>
<rect x="500.3529187817244" y="328.9395813338579" width="17.85" height="7.2" transform="rotate(-60, 502.9137055837549, 335.59958133385794)" fill="#fffa"/>
<text x="500.52791878172445" y="335.59958133385794" fill="#111" font-size="0.5em" text-anchor="start" textLength="17.5" transform="rotate(-60, 502.9137055837549, 335.59958133385794)" style="text-shadow: 0 0 1px #fff;">
1.01
</text>
<rect x="505.1244923857853" y="288.797320492212" width="17.85" height="7.2" transform="rotate(-60, 507.6852791878158, 295.45732049221203)" fill="#fffa"/>
<text x="505.2994923857853" y="295.45732049221203" fill="#111" font-size="0.5em" text-anchor="start" textLength="17.5" transform="rotate(-60, 507.6852791878158, 295.45732049221203)" style="text-shadow: 0 0 1px #fff;">
1.27
</text>
<rect x="514.6676395939071" y="322.3729833197197" width="17.85" height="7.2" transform="rotate(-60, 517.2284263959376, 329.03298331971973)" fill="#fffa"/>
<text x="514.842639593907" y="329.03298331971973" fill="#111" font-size="0.5em" text-anchor="start" textLength="17.5" transform="rotate(-60, 517.2284263959376, 329.03298331971973)" style="text-shadow: 0 0 1px #fff;">
1.05
</text>
<rect x="519.4392131979679" y="327.73470788014265" width="17.85" height="7.2" transform="rotate(-60, 521.9999999999984, 334.3947078801427)" fill="#fffa"/>
<text x="519.614213197968" y="334.3947078801427" fill="#111" font-size="0.5em" text-anchor="start" textLength="17.5" transform="rotate(-60, 521.9999999999984, 334.3947078801427)" style="text-shadow: 0 0 1px #fff;">
1.02
</text>
<rect x="524.2107868020288" y="318.30041657710325" width="17.85" height="7.2" transform="rotate(-60, 526.7715736040593, 324.9604165771033)" fill="#fffa"/>
<text x="524.3857868020289" y="324.9604165771033" fill="#111" font-size="0.5em" text-anchor="start" textLength="17.5" transform="rotate(-60, 526.7715736040593, 324.9604165771033)" style="text-shadow: 0 0 1px #fff;">
1.08
</text>
<rect x="533.7539340101506" y="321.6198127561093" width="17.85" height="7.2" transform="rotate(-60, 536.3147208121811, 328.27981275610927)" fill="#fffa"/>
<text x="533.9289340101507" y="328.27981275610927" fill="#111" font-size="0.5em" text-anchor="start" textLength="17.5" transform="rotate(-60, 536.3147208121811, 328.27981275610927)" style="text-shadow: 0 0 1px #fff;">
1.06
</text>
<rect x="538.5255076142115" y="328.22761794978567" width="17.85" height="7.2" transform="rotate(-60, 541.086294416242, 334.8876179497857)" fill="#fffa"/>
<text x="538.7005076142115" y="334.8876179497857" fill="#111" font-size="0.5em" text-anchor="start" textLength="17.5" transform="rotate(-60, 541.086294416242, 334.8876179497857)" style="text-shadow: 0 0 1px #fff;">
1.01
</text>
<rect x="543.2970812182724" y="313.7247727844439" width="17.85" height="7.2" transform="rotate(-60, 545.8578680203029, 320.38477278444395)" fill="#fffa"/>
<text x="543.4720812182724" y="320.38477278444395" fill="#111" font-size="0.5em" text-anchor="start" textLength="17.5" transform="rotate(-60, 545.8578680203029, 320.38477278444395)" style="text-shadow: 0 0 1px #fff;">
1.11
</text>
<rect x="552.8402284263941" y="335.3191135134527" width="17.85" height="7.2" transform="rotate(-60, 555.4010152284246, 341.97911351345266)" fill="#fffa"/>
<text x="553.0152284263942" y="341.97911351345266" fill="#111" font-size="0.5em" text-anchor="start" textLength="17.5" transform="rotate(-60, 555.4010152284246, 341.97911351345266)" style="text-shadow: 0 0 1px #fff;">
0.97
</text>
<rect x="557.611802030455" y="315.1682836452056" width="17.85" height="7.2" transform="rotate(-60, 560.1725888324855, 321.82828364520554)" fill="#fffa"/>
<text x="557.7868020304551" y="321.82828364520554" fill="#111" font-size="0.5em" text-anchor="start" textLength="17.5" transform="rotate(-60, 560.1725888324855, 321.82828364520554)" style="text-shadow: 0 0 1px #fff;">
1.10
</text>
<rect x="562.3833756345159" y="323.1407911524007" width="17.85" height="7.2" transform="rotate(-60, 564.9441624365464, 329.80079115240073)" fill="#fffa"/>
<text x="562.558375634516" y="329.80079115240073" fill="#111" font-size="0.5em" text-anchor="start" textLength="17.5" transform="rotate(-60, 564.9441624365464, 329.80079115240073)" style="text-shadow: 0 0 1px #fff;">
1.05
</text>
<rect x="571.9265228426377" y="305.5618016840474" width="17.85" height="7.2" transform="rotate(-60, 574.4873096446682, 312.2218016840474)" fill="#fffa"/>
<text x="572.1015228426377" y="312.2218016840474" fill="#111" font-size="0.5em" text-anchor="start" textLength="17.5" transform="rotate(-60, 574.4873096446682, 312.2218016840474)" style="text-shadow: 0 0 1px #fff;">
1.16
</text>
<rect x="576.6980964466985" y="293.0912353493126" width="17.85" height="7.2" transform="rotate(-60, 579.2588832487291, 299.75123534931265)" fill="#fffa"/>
<text x="576.8730964466986" y="299.75123534931265" fill="#111" font-size="0.5em" text-anchor="start" textLength="17.5" transform="rotate(-60, 579.2588832487291, 299.75123534931265)" style="text-shadow: 0 0 1px #fff;">
1.24
</text>
<rect x="581.4696700507594" y="270.4951508681534" width="17.85" height="7.2" transform="rotate(-60, 584.0304568527899, 277.1551508681534)" fill="#fffa"/>
<text x="581.6446700507595" y="277.1551508681534" fill="#111" font-size="0.5em" text-anchor="start" textLength="17.5" transform="rotate(-60, 584.0304568527899, 277.1551508681534)" style="text-shadow: 0 0 1px #fff;">
1.39
</text>
<rect x="591.0128172588812" y="290.4945110973463" width="17.85" height="7.2" transform="rotate(-60, 593.5736040609117, 297.1545110973463)" fill="#fffa"/>
<text x="591.1878172588813" y="297.1545110973463" fill="#111" font-size="0.5em" text-anchor="start" textLength="17.5" transform="rotate(-60, 593.5736040609117, 297.1545110973463)" style="text-shadow: 0 0 1px #fff;">
1.26
</text>
<rect x="595.7843908629421" y="317.9468837713346" width="17.85" height="7.2" transform="rotate(-60, 598.3451776649727, 324.60688377133465)" fill="#fffa"/>
<text x="595.9593908629421" y="324.60688377133465" fill="#111" font-size="0.5em" text-anchor="start" textLength="17.5" transform="rotate(-60, 598.3451776649727, 324.60688377133465)" style="text-shadow: 0 0 1px #fff;">
1.08
</text>
<rect x="600.555964467003" y="211.16227168892655" width="17.85" height="7.2" transform="rotate(-60, 603.1167512690336, 217.82227168892655)" fill="#fffa"/>
<text x="600.730964467003" y="217.82227168892655" fill="#111" font-size="0.5em" text-anchor="start" textLength="17.5" transform="rotate(-60, 603.1167512690336, 217.82227168892655)" style="text-shadow: 0 0 1px #fff;">
1.78
</text>
<rect x="610.0991116751247" y="328.167020581812" width="17.85" height="7.2" transform="rotate(-60, 612.6598984771553, 334.827020581812)" fill="#fffa"/>
<text x="610.2741116751248" y="334.827020581812" fill="#111" font-size="0.5em" text-anchor="start" textLength="17.5" transform="rotate(-60, 612.6598984771553, 334.827020581812)" style="text-shadow: 0 0 1px #fff;">
1.01
</text>
<rect x="614.8706852791856" y="321.2213405877181" width="17.85" height="7.2" transform="rotate(-60, 617.4314720812162, 327.8813405877181)" fill="#fffa"/>
<text x="615.0456852791857" y="327.8813405877181" fill="#111" font-size="0.5em" text-anchor="start" textLength="17.5" transform="rotate(-60, 617.4314720812162, 327.8813405877181)" style="text-shadow: 0 0 1px #fff;">
1.06
</text>
<rect x="619.6422588832465" y="312.09050284267335" width="17.85" height="7.2" transform="rotate(-60, 622.2030456852771, 318.75050284267337)" fill="#fffa"/>
<text x="619.8172588832466" y="318.75050284267337" fill="#111" font-size="0.5em" text-anchor="start" textLength="17.5" transform="rotate(-60, 622.2030456852771, 318.75050284267337)" style="text-shadow: 0 0 1px #fff;">
1.12
</text>
<rect x="629.1854060913683" y="322.5528796498551" width="17.85" height="7.2" transform="rotate(-60, 631.7461928933989, 329.2128796498551)" fill="#fffa"/>
<text x="629.3604060913683" y="329.2128796498551" fill="#111" font-size="0.5em" text-anchor="start" textLength="17.5" transform="rotate(-60, 631.7461928933989, 329.2128796498551)" style="text-shadow: 0 0 1px #fff;">
1.05
</text>
<rect x="633.9569796954291" y="327.68165139675887" width="17.85" height="7.2" transform="rotate(-60, 636.5177664974598, 334.3416513967589)" fill="#fffa"/>
<text x="634.1319796954292" y="334.3416513967589" fill="#111" font-size="0.5em" text-anchor="start" textLength="17.5" transform="rotate(-60, 636.5177664974598, 334.3416513967589)" style="text-shadow: 0 0 1px #fff;">
1.02
</text>
<rect x="638.72855329949" y="318.7842241673236" width="17.85" height="7.2" transform="rotate(-60, 641.2893401015206, 325.44422416732357)" fill="#fffa"/>
<text x="638.9035532994901" y="325.44422416732357" fill="#111" font-size="0.5em" text-anchor="start" textLength="17.5" transform="rotate(-60, 641.2893401015206, 325.44422416732357)" style="text-shadow: 0 0 1px #fff;">
1.08
</text>
<rect x="648.2717005076119" y="318.5281907238908" width="17.85" height="7.2" transform="rotate(-60, 650.8324873096424, 325.18819072389084)" fill="#fffa"/>
<text x="648.4467005076119" y="325.18819072389084" fill="#111" font-size="0.5em" text-anchor="start" textLength="17.5" transform="rotate(-60, 650.8324873096424, 325.18819072389084)" style="text-shadow: 0 0 1px #fff;">
1.08
</text>
<rect x="653.0432741116728" y="325.4008224889537" width="17.85" height="7.2" transform="rotate(-60, 655.6040609137033, 332.0608224889537)" fill="#fffa"/>
<text x="653.2182741116728" y="332.0608224889537" fill="#111" font-size="0.5em" text-anchor="start" textLength="17.5" transform="rotate(-60, 655.6040609137033, 332.0608224889537)" style="text-shadow: 0 0 1px #fff;">
1.03
</text>
<rect x="657.8148477157337" y="314.7495598492298" width="17.85" height="7.2" transform="rotate(-60, 660.3756345177642, 321.4095598492298)" fill="#fffa"/>
<text x="657.9898477157336" y="321.4095598492298" fill="#111" font-size="0.5em" text-anchor="start" textLength="17.5" transform="rotate(-60, 660.3756345177642, 321.4095598492298)" style="text-shadow: 0 0 1px #fff;">
1.10
</text>
<rect x="667.3579949238554" y="322.5027409706034" width="17.85" height="7.2" transform="rotate(-60, 669.9187817258859, 329.1627409706034)" fill="#fffa"/>
<text x="667.5329949238554" y="329.1627409706034" fill="#111" font-size="0.5em" text-anchor="start" textLength="17.5" transform="rotate(-60, 669.9187817258859, 329.1627409706034)" style="text-shadow: 0 0 1px #fff;">
1.05
</text>
<rect x="672.1295685279163" y="327.23599749000437" width="17.85" height="7.2" transform="rotate(-60, 674.6903553299468, 333.89599749000433)" fill="#fffa"/>
<text x="672.3045685279163" y="333.89599749000433" fill="#111" font-size="0.5em" text-anchor="start" textLength="17.5" transform="rotate(-60, 674.6903553299468, 333.89599749000433)" style="text-shadow: 0 0 1px #fff;">
1.02
</text>
<rect x="676.9011421319772" y="317.7114076840932" width="17.85" height="7.2" transform="rotate(-60, 679.4619289340077, 324.3714076840932)" fill="#fffa"/>
<text x="677.0761421319772" y="324.3714076840932" fill="#111" font-size="0.5em" text-anchor="start" textLength="17.5" transform="rotate(-60, 679.4619289340077, 324.3714076840932)" style="text-shadow: 0 0 1px #fff;">
1.08
</text>
<rect x="686.444289340099" y="324.03177617446823" width="17.85" height="7.2" transform="rotate(-60, 689.0050761421295, 330.69177617446826)" fill="#fffa"/>
<text x="686.6192893400989" y="330.69177617446826" fill="#111" font-size="0.5em" text-anchor="start" textLength="17.5" transform="rotate(-60, 689.0050761421295, 330.69177617446826)" style="text-shadow: 0 0 1px #fff;">
1.04
</text>
<rect x="691.2158629441598" y="322.39394933832244" width="17.85" height="7.2" transform="rotate(-60, 693.7766497461904, 329.0539493383224)" fill="#fffa"/>
<text x="691.3908629441598" y="329.0539493383224" fill="#111" font-size="0.5em" text-anchor="start" textLength="17.5" transform="rotate(-60, 693.7766497461904, 329.0539493383224)" style="text-shadow: 0 0 1px #fff;">
1.05
</text>
<rect x="695.9874365482207" y="311.62796760205754" width="17.85" height="7.2" transform="rotate(-60, 698.5482233502512, 318.2879676020575)" fill="#fffa"/>
<text x="696.1624365482207" y="318.2879676020575" fill="#111" font-size="0.5em" text-anchor="start" textLength="17.5" transform="rotate(-60, 698.5482233502512, 318.2879676020575)" style="text-shadow: 0 0 1px #fff;">
1.12
</text>
<rect x="705.5305837563425" y="110.14183569064093" width="17.85" height="7.2" transform="rotate(-60, 708.091370558373, 116.80183569064094)" fill="#fffa"/>
<text x="705.7055837563425" y="116.80183569064094" fill="#111" font-size="0.5em" text-anchor="start" textLength="17.5" transform="rotate(-60, 708.091370558373, 116.80183569064094)" style="text-shadow: 0 0 1px #fff;">
2.44
</text>
<rect x="710.3021573604034" y="250.6527445079747" width="17.85" height="7.2" transform="rotate(-60, 712.8629441624339, 257.3127445079747)" fill="#fffa"/>
<text x="710.4771573604035" y="257.3127445079747" fill="#111" font-size="0.5em" text-anchor="start" textLength="17.5" transform="rotate(-60, 712.8629441624339, 257.3127445079747)" style="text-shadow: 0 0 1px #fff;">
1.52
</text>
<rect x="715.0737309644643" y="86.03999999999998" width="17.85" height="7.2" transform="rotate(-60, 717.6345177664948, 92.69999999999999)" fill="#fffa"/>
<text x="715.2487309644642" y="92.69999999999999" fill="#111" font-size="0.5em" text-anchor="start" textLength="17.5" transform="rotate(-60, 717.6345177664948, 92.69999999999999)" style="text-shadow: 0 0 1px #fff;">
2.59
</text>
<rect x="724.616878172586" y="193.99710785898264" width="17.85" height="7.2" transform="rotate(-60, 727.1776649746165, 200.65710785898264)" fill="#fffa"/>
<text x="724.791878172586" y="200.65710785898264" fill="#111" font-size="0.5em" text-anchor="start" textLength="17.5" transform="rotate(-60, 727.1776649746165, 200.65710785898264)" style="text-shadow: 0 0 1px #fff;">
1.89
</text>
<rect x="729.3884517766469" y="300.3412925525402" width="17.85" height="7.2" transform="rotate(-60, 731.9492385786774, 307.00129255254024)" fill="#fffa"/>
<text x="729.563451776647" y="307.00129255254024" fill="#111" font-size="0.5em" text-anchor="start" textLength="17.5" transform="rotate(-60, 731.9492385786774, 307.00129255254024)" style="text-shadow: 0 0 1px #fff;">
1.20
</text>
<rect x="734.1600253807078" y="164.10261644701237" width="17.85" height="7.2" transform="rotate(-60, 736.7208121827383, 170.76261644701236)" fill="#fffa"/>
<text x="734.3350253807079" y="170.76261644701236" fill="#111" font-size="0.5em" text-anchor="start" textLength="17.5" transform="rotate(-60, 736.7208121827383, 170.76261644701236)" style="text-shadow: 0 0 1px #fff;">
2.08
</text>
<rect x="743.7031725888296" y="322.4977544136106" width="17.85" height="7.2" transform="rotate(-60, 746.2639593908601, 329.15775441361063)" fill="#fffa"/>
<text x="743.8781725888296" y="329.15775441361063" fill="#111" font-size="0.5em" text-anchor="start" textLength="17.5" transform="rotate(-60, 746.2639593908601, 329.15775441361063)" style="text-shadow: 0 0 1px #fff;">
1.05
</text>
<rect x="748.4747461928905" y="327.561652905346" width="17.85" height="7.2" transform="rotate(-60, 751.035532994921, 334.22165290534605)" fill="#fffa"/>
<text x="748.6497461928905" y="334.22165290534605" fill="#111" font-size="0.5em" text-anchor="start" textLength="17.5" transform="rotate(-60, 751.035532994921, 334.22165290534605)" style="text-shadow: 0 0 1px #fff;">
1.02
</text>
<rect x="753.2463197969513" y="318.4583440560414" width="17.85" height="7.2" transform="rotate(-60, 755.8071065989818, 325.1183440560414)" fill="#fffa"/>
<text x="753.4213197969514" y="325.1183440560414" fill="#111" font-size="0.5em" text-anchor="start" textLength="17.5" transform="rotate(-60, 755.8071065989818, 325.1183440560414)" style="text-shadow: 0 0 1px #fff;">
1.08
</text>
<rect x="762.7894670050731" y="321.91071828451425" width="17.85" height="7.2" transform="rotate(-60, 765.3502538071036, 328.57071828451427)" fill="#fffa"/>
<text x="762.9644670050732" y="328.57071828451427" fill="#111" font-size="0.5em" text-anchor="start" textLength="17.5" transform="rotate(-60, 765.3502538071036, 328.57071828451427)" style="text-shadow: 0 0 1px #fff;">
1.06
</text>
<rect x="767.561040609134" y="326.96366394036755" width="17.85" height="7.2" transform="rotate(-60, 770.1218274111645, 333.6236639403675)" fill="#fffa"/>
<text x="767.7360406091341" y="333.6236639403675" fill="#111" font-size="0.5em" text-anchor="start" textLength="17.5" transform="rotate(-60, 770.1218274111645, 333.6236639403675)" style="text-shadow: 0 0 1px #fff;">
1.02
</text>
<rect x="772.3326142131949" y="317.739100359333" width="17.85" height="7.2" transform="rotate(-60, 774.8934010152254, 324.39910035933303)" fill="#fffa"/>
<text x="772.5076142131949" y="324.39910035933303" fill="#111" font-size="0.5em" text-anchor="start" textLength="17.5" transform="rotate(-60, 774.8934010152254, 324.39910035933303)" style="text-shadow: 0 0 1px #fff;">
1.08
</text>
<rect x="781.8757614213166" y="322.3745218410795" width="17.85" height="7.2" transform="rotate(-60, 784.4365482233471, 329.0345218410795)" fill="#fffa"/>
<text x="782.0507614213167" y="329.0345218410795" fill="#111" font-size="0.5em" text-anchor="start" textLength="17.5" transform="rotate(-60, 784.4365482233471, 329.0345218410795)" style="text-shadow: 0 0 1px #fff;">
1.05
</text>
<rect x="786.6473350253775" y="327.41299467187304" width="17.85" height="7.2" transform="rotate(-60, 789.208121827408, 334.07299467187306)" fill="#fffa"/>
<text x="786.8223350253776" y="334.07299467187306" fill="#111" font-size="0.5em" text-anchor="start" textLength="17.5" transform="rotate(-60, 789.208121827408, 334.07299467187306)" style="text-shadow: 0 0 1px #fff;">
1.02
</text>
<rect x="791.4189086294384" y="318.2441458576963" width="17.85" height="7.2" transform="rotate(-60, 793.9796954314689, 324.90414585769634)" fill="#fffa"/>
<text x="791.5939086294385" y="324.90414585769634" fill="#111" font-size="0.5em" text-anchor="start" textLength="17.5" transform="rotate(-60, 793.9796954314689, 324.90414585769634)" style="text-shadow: 0 0 1px #fff;">
1.08
</text>
<rect x="800.9620558375602" y="321.91071828451425" width="17.85" height="7.2" transform="rotate(-60, 803.5228426395907, 328.57071828451427)" fill="#fffa"/>
<text x="801.1370558375602" y="328.57071828451427" fill="#111" font-size="0.5em" text-anchor="start" textLength="17.5" transform="rotate(-60, 803.5228426395907, 328.57071828451427)" style="text-shadow: 0 0 1px #fff;">
1.06
</text>
<rect x="805.7336294416211" y="327.0517967134348" width="17.85" height="7.2" transform="rotate(-60, 808.2944162436517, 333.7117967134348)" fill="#fffa"/>
<text x="805.9086294416211" y="333.7117967134348" fill="#111" font-size="0.5em" text-anchor="start" textLength="17.5" transform="rotate(-60, 808.2944162436517, 333.7117967134348)" style="text-shadow: 0 0 1px #fff;">
1.02
</text>
<rect x="810.5052030456819" y="317.7684779503555" width="17.85" height="7.2" transform="rotate(-60, 813.0659898477124, 324.42847795035544)" fill="#fffa"/>
<text x="810.680203045682" y="324.42847795035544" fill="#111" font-size="0.5em" text-anchor="start" textLength="17.5" transform="rotate(-60, 813.0659898477124, 324.42847795035544)" style="text-shadow: 0 0 1px #fff;">
1.08
</text>
<rect x="820.0483502538037" y="323.35514345829057" width="17.85" height="7.2" transform="rotate(-60, 822.6091370558343, 330.0151434582906)" fill="#fffa"/>
<text x="820.2233502538038" y="330.0151434582906" fill="#111" font-size="0.5em" text-anchor="start" textLength="17.5" transform="rotate(-60, 822.6091370558343, 330.0151434582906)" style="text-shadow: 0 0 1px #fff;">
1.05
</text>
<rect x="824.8199238578646" y="328.4503629602498" width="17.85" height="7.2" transform="rotate(-60, 827.3807106598952, 335.1103629602498)" fill="#fffa"/>
<text x="824.9949238578647" y="335.1103629602498" fill="#111" font-size="0.5em" text-anchor="start" textLength="17.5" transform="rotate(-60, 827.3807106598952, 335.1103629602498)" style="text-shadow: 0 0 1px #fff;">
1.01
</text>
<rect x="829.5914974619255" y="319.33719893674566" width="17.85" height="7.2" transform="rotate(-60, 832.1522842639561, 325.99719893674563)" fill="#fffa"/>
<text x="829.7664974619255" y="325.99719893674563" fill="#111" font-size="0.5em" text-anchor="start" textLength="17.5" transform="rotate(-60, 832.1522842639561, 325.99719893674563)" style="text-shadow: 0 0 1px #fff;">
1.07
</text>
<rect x="839.1346446700472" y="321.75718687263594" width="17.85" height="7.2" transform="rotate(-60, 841.6954314720779, 328.41718687263597)" fill="#fffa"/>
<text x="839.3096446700473" y="328.41718687263597" fill="#111" font-size="0.5em" text-anchor="start" textLength="17.5" transform="rotate(-60, 841.6954314720779, 328.41718687263597)" style="text-shadow: 0 0 1px #fff;">
1.06
</text>
<rect x="843.9062182741081" y="326.90220633523137" width="17.85" height="7.2" transform="rotate(-60, 846.4670050761387, 333.56220633523134)" fill="#fffa"/>
<text x="844.0812182741082" y="333.56220633523134" fill="#111" font-size="0.5em" text-anchor="start" textLength="17.5" transform="rotate(-60, 846.4670050761387, 333.56220633523134)" style="text-shadow: 0 0 1px #fff;">
1.02
</text>
<rect x="848.677791878169" y="317.6411713025596" width="17.85" height="7.2" transform="rotate(-60, 851.2385786801996, 324.3011713025596)" fill="#fffa"/>
<text x="848.8527918781691" y="324.3011713025596" fill="#111" font-size="0.5em" text-anchor="start" textLength="17.5" transform="rotate(-60, 851.2385786801996, 324.3011713025596)" style="text-shadow: 0 0 1px #fff;">
1.08
</text>
<rect x="858.2209390862909" y="322.3267079596777" width="17.85" height="7.2" transform="rotate(-60, 860.7817258883214, 328.98670795967774)" fill="#fffa"/>
<text x="858.3959390862908" y="328.98670795967774" fill="#111" font-size="0.5em" text-anchor="start" textLength="17.5" transform="rotate(-60, 860.7817258883214, 328.98670795967774)" style="text-shadow: 0 0 1px #fff;">
1.05
</text>
<rect x="862.9925126903518" y="328.4809213288003" width="17.85" height="7.2" transform="rotate(-60, 865.5532994923823, 335.1409213288003)" fill="#fffa"/>
<text x="863.1675126903517" y="335.1409213288003" fill="#111" font-size="0.5em" text-anchor="start" textLength="17.5" transform="rotate(-60, 865.5532994923823, 335.1409213288003)" style="text-shadow: 0 0 1px #fff;">
1.01
</text>
<rect x="867.7640862944126" y="318.53949973252537" width="17.85" height="7.2" transform="rotate(-60, 870.3248730964432, 325.1994997325254)" fill="#fffa"/>
<text x="867.9390862944126" y="325.1994997325254" fill="#111" font-size="0.5em" text-anchor="start" textLength="17.5" transform="rotate(-60, 870.3248730964432, 325.1994997325254)" style="text-shadow: 0 0 1px #fff;">
1.08
</text>
<rect x="877.3072335025344" y="322.8356761008632" width="17.85" height="7.2" transform="rotate(-60, 879.8680203045649, 329.4956761008632)" fill="#fffa"/>
<text x="877.4822335025344" y="329.4956761008632" fill="#111" font-size="0.5em" text-anchor="start" textLength="17.5" transform="rotate(-60, 879.8680203045649, 329.4956761008632)" style="text-shadow: 0 0 1px #fff;">
1.05
</text>
<rect x="882.0788071065953" y="327.80133921095995" width="17.85" height="7.2" transform="rotate(-60, 884.6395939086258, 334.4613392109599)" fill="#fffa"/>
<text x="882.2538071065953" y="334.4613392109599" fill="#111" font-size="0.5em" text-anchor="start" textLength="17.5" transform="rotate(-60, 884.6395939086258, 334.4613392109599)" style="text-shadow: 0 0 1px #fff;">
1.02
</text>
<rect x="886.8503807106562" y="318.71709669778295" width="17.85" height="7.2" transform="rotate(-60, 889.4111675126867, 325.377096697783)" fill="#fffa"/>
<text x="887.0253807106561" y="325.377096697783" fill="#111" font-size="0.5em" text-anchor="start" textLength="17.5" transform="rotate(-60, 889.4111675126867, 325.377096697783)" style="text-shadow: 0 0 1px #fff;">
1.08
</text>
<rect x="896.3935279187779" y="322.343684278406" width="17.85" height="7.2" transform="rotate(-60, 898.9543147208085, 329.00368427840596)" fill="#fffa"/>
<text x="896.5685279187779" y="329.00368427840596" fill="#111" font-size="0.5em" text-anchor="start" textLength="17.5" transform="rotate(-60, 898.9543147208085, 329.00368427840596)" style="text-shadow: 0 0 1px #fff;">
1.05
</text>
<rect x="901.1651015228388" y="327.3831193843773" width="17.85" height="7.2" transform="rotate(-60, 903.7258883248693, 334.0431193843773)" fill="#fffa"/>
<text x="901.3401015228388" y="334.0431193843773" fill="#111" font-size="0.5em" text-anchor="start" textLength="17.5" transform="rotate(-60, 903.7258883248693, 334.0431193843773)" style="text-shadow: 0 0 1px #fff;">
1.02
</text>
<rect x="905.9366751268997" y="318.1832204118482" width="17.85" height="7.2" transform="rotate(-60, 908.4974619289302, 324.84322041184816)" fill="#fffa"/>
<text x="906.1116751268997" y="324.84322041184816" fill="#111" font-size="0.5em" text-anchor="start" textLength="17.5" transform="rotate(-60, 908.4974619289302, 324.84322041184816)" style="text-shadow: 0 0 1px #fff;">
1.08
</text>
<rect x="915.4798223350215" y="322.4038152877701" width="17.85" height="7.2" transform="rotate(-60, 918.040609137052, 329.0638152877701)" fill="#fffa"/>
<text x="915.6548223350214" y="329.0638152877701" fill="#111" font-size="0.5em" text-anchor="start" textLength="17.5" transform="rotate(-60, 918.040609137052, 329.0638152877701)" style="text-shadow: 0 0 1px #fff;">
1.05
</text>
<rect x="920.2513959390824" y="327.41299467187304" width="17.85" height="7.2" transform="rotate(-60, 922.8121827411129, 334.07299467187306)" fill="#fffa"/>
<text x="920.4263959390823" y="334.07299467187306" fill="#111" font-size="0.5em" text-anchor="start" textLength="17.5" transform="rotate(-60, 922.8121827411129, 334.07299467187306)" style="text-shadow: 0 0 1px #fff;">
1.02
</text>
<rect x="925.0229695431432" y="318.56637377129357" width="17.85" height="7.2" transform="rotate(-60, 927.5837563451738, 325.2263737712936)" fill="#fffa"/>
<text x="925.1979695431432" y="325.2263737712936" fill="#111" font-size="0.5em" text-anchor="start" textLength="17.5" transform="rotate(-60, 927.5837563451738, 325.2263737712936)" style="text-shadow: 0 0 1px #fff;">
1.08
</text>
<rect x="934.566116751265" y="325.0379602673384" width="17.85" height="7.2" transform="rotate(-60, 937.1269035532955, 331.6979602673384)" fill="#fffa"/>
<text x="934.741116751265" y="331.6979602673384" fill="#111" font-size="0.5em" text-anchor="start" textLength="17.5" transform="rotate(-60, 937.1269035532955, 331.6979602673384)" style="text-shadow: 0 0 1px #fff;">
1.04
</text>
<rect x="939.3376903553259" y="288.8071124926136" width="17.85" height="7.2" transform="rotate(-60, 941.8984771573564, 295.4671124926136)" fill="#fffa"/>
<text x="939.512690355326" y="295.4671124926136" fill="#111" font-size="0.5em" text-anchor="start" textLength="17.5" transform="rotate(-60, 941.8984771573564, 295.4671124926136)" style="text-shadow: 0 0 1px #fff;">
1.27
</text>
<rect x="944.1092639593868" y="275.48052851310814" width="17.85" height="7.2" transform="rotate(-60, 946.6700507614173, 282.14052851310817)" fill="#fffa"/>
<text x="944.2842639593867" y="282.14052851310817" fill="#111" font-size="0.5em" text-anchor="start" textLength="17.5" transform="rotate(-60, 946.6700507614173, 282.14052851310817)" style="text-shadow: 0 0 1px #fff;">
1.36
</text>
<rect x="953.6524111675085" y="323.3246793625158" width="17.85" height="7.2" transform="rotate(-60, 956.2131979695391, 329.98467936251575)" fill="#fffa"/>
<text x="953.8274111675086" y="329.98467936251575" fill="#111" font-size="0.5em" text-anchor="start" textLength="17.5" transform="rotate(-60, 956.2131979695391, 329.98467936251575)" style="text-shadow: 0 0 1px #fff;">
1.05
</text>
<rect x="958.4239847715694" y="328.36262393259653" width="17.85" height="7.2" transform="rotate(-60, 960.9847715735999, 335.02262393259656)" fill="#fffa"/>
<text x="958.5989847715695" y="335.02262393259656" fill="#111" font-size="0.5em" text-anchor="start" textLength="17.5" transform="rotate(-60, 960.9847715735999, 335.02262393259656)" style="text-shadow: 0 0 1px #fff;">
1.01
</text>
<rect x="963.1955583756303" y="319.3933353338402" width="17.85" height="7.2" transform="rotate(-60, 965.7563451776608, 326.05333533384015)" fill="#fffa"/>
<text x="963.3705583756304" y="326.05333533384015" fill="#111" font-size="0.5em" text-anchor="start" textLength="17.5" transform="rotate(-60, 965.7563451776608, 326.05333533384015)" style="text-shadow: 0 0 1px #fff;">
1.07
</text>
<rect x="972.7387055837521" y="317.59788745113684" width="17.85" height="7.2" transform="rotate(-60, 975.2994923857826, 324.2578874511368)" fill="#fffa"/>
<text x="972.9137055837522" y="324.2578874511368" fill="#111" font-size="0.5em" text-anchor="start" textLength="17.5" transform="rotate(-60, 975.2994923857826, 324.2578874511368)" style="text-shadow: 0 0 1px #fff;">
1.08
</text>
<rect x="977.510279187813" y="316.9394326043929" width="17.85" height="7.2" transform="rotate(-60, 980.0710659898435, 323.5994326043929)" fill="#fffa"/>
<text x="977.685279187813" y="323.5994326043929" fill="#111" font-size="0.5em" text-anchor="start" textLength="17.5" transform="rotate(-60, 980.0710659898435, 323.5994326043929)" style="text-shadow: 0 0 1px #fff;">
1.09
</text>
<rect x="982.2818527918738" y="304.16887048184253" width="17.85" height="7.2" transform="rotate(-60, 984.8426395939044, 310.82887048184256)" fill="#fffa"/>
<text x="982.4568527918739" y="310.82887048184256" fill="#111" font-size="0.5em" text-anchor="start" textLength="17.5" transform="rotate(-60, 984.8426395939044, 310.82887048184256)" style="text-shadow: 0 0 1px #fff;">
1.17
</text>
</svg>