<svg viewBox="0 0 1000 600" xmlns="http://www.w3.org/2000/svg" xmlns:xlink="http://www.w3.org/1999/xlink" width="100%" height="100%">

<rect x="50.0" y="30.0" width="940.0" height="467.99999999999994" stroke="#000" fill="#EEE"/>
<line x1="42.0" y1="497.9999999999999" x2="50.0" y2="497.9999999999999" stroke="#000"/>
<text x="26.000000000000004" y="497.9999999999999" text-anchor="end" font-weight="bold" font-size="small" fill="#111">
0.0
</text>
<line x1="42.0" y1="452.87226507551543" x2="50.0" y2="452.87226507551543" stroke="#000"/>
<text x="26.000000000000004" y="452.87226507551543" text-anchor="end" font-weight="bold" font-size="small" fill="#111">
2.0
</text>
<line x1="42.0" y1="407.744530151031" x2="50.0" y2="407.744530151031" stroke="#000"/>
<text x="26.000000000000004" y="407.744530151031" text-anchor="end" font-weight="bold" font-size="small" fill="#111">
4.0
</text>
<line x1="42.0" y1="362.61679522654646" x2="50.0" y2="362.61679522654646" stroke="#000"/>
<text x="26.000000000000004" y="362.61679522654646" text-anchor="end" font-weight="bold" font-size="small" fill="#111">
6.0
</text>
<line x1="42.0" y1="317.489060302062" x2="50.0" y2="317.489060302062" stroke="#000"/>
<text x="26.000000000000004" y="317.489060302062" text-anchor="end" font-weight="bold" font-size="small" fill="#111">
8.0
</text>
<line x1="42.0" y1="272.3613253775775" x2="50.0" y2="272.3613253775775" stroke="#000"/>
<text x="26.000000000000004" y="272.3613253775775" text-anchor="end" font-weight="bold" font-size="small" fill="#111">
10.0
</text>
<line x1="42.0" y1="227.23359045309303" x2="50.0" y2="227.23359045309303" stroke="#000"/>
<text x="26.000000000000004" y="227.23359045309303" text-anchor="end" font-weight="bold" font-size="small" fill="#111">
12.0
</text>
<line x1="42.0" y1="182.10585552860854" x2="50.0" y2="182.10585552860854" stroke="#000"/>
<text x="26.000000000000004" y="182.10585552860854" text-anchor="end" font-weight="bold" font-size="small" fill="#111">
14.0
</text>
<line x1="42.0" y1="136.97812060412406" x2="50.0" y2="136.97812060412406" stroke="#000"/>
<text x="26.000000000000004" y="136.97812060412406" text-anchor="end" font-weight="bold" font-size="small" fill="#111">
16.0
</text>
<rect x="268.5" y="36.00000000000001" width="80.0" height="18.0" fill="#7070f8" stroke="#888"/>
<text x="308.5" y="52.50000000000001" font-size="small" text-anchor="middle" font-weight="bold" fill="#EEE">
No JIT
</text>
<rect x="691.4999999999999" y="36.00000000000001" width="80.0" height="18.0" fill="orange" stroke="#888"/>
<text x="731.4999999999999" y="52.50000000000001" font-size="small" text-anchor="middle" font-weight="bold" fill="#EEE">
YJIT
</text>
<rect x="97.0" y="475.43613253775766" width="23.499999999999996" height="22.563867462242243" fill="#7070f8" data-tooltip="1.00x baseline speed (No JIT)"/>
<line x1="97.0" y1="475.4234069121011" x2="120.5" y2="475.4234069121011" stroke="#000"/>
<line x1="97.0" y1="475.44885816341423" x2="120.5" y2="475.44885816341423" stroke="#000"/>
<line x1="108.75" y1="475.4234069121011" x2="108.75" y2="475.44885816341423" stroke="#000"/>
<rect x="120.5" y="348.30097587870733" width="23.499999999999996" height="149.69902412129258" fill="orange" data-tooltip="6.63x baseline speed (YJIT)"/>
<line x1="120.5" y1="348.1773494315938" x2="144.0" y2="348.1773494315938" stroke="#000"/>
<line x1="120.5" y1="348.42460232582084" x2="144.0" y2="348.42460232582084" stroke="#000"/>
<line x1="132.25" y1="348.1773494315938" x2="132.25" y2="348.42460232582084" stroke="#000"/>
<line x1="132.25" y1="498.0" x2="132.25" y2="502.79999999999995" stroke="#000"/>
<text x="132.25" y="512.4" fill="#111" font-size="small" font-family="monospace" font-weight="bold" text-anchor="end" transform="rotate(-60, 132.25, 512.4)">
30k_ifelse
</text>
<rect x="167.49999999999997" y="475.43613253775766" width="23.499999999999996" height="22.563867462242243" fill="#7070f8" data-tooltip="1.00x baseline speed (No JIT)"/>
<line x1="167.49999999999997" y1="475.4319874613993" x2="190.99999999999997" y2="475.4319874613993" stroke="#000"/>
<line x1="167.49999999999997" y1="475.4402776141161" x2="190.99999999999997" y2="475.4402776141161" stroke="#000"/>
<line x1="179.25" y1="475.4319874613993" x2="179.25" y2="475.4402776141161" stroke="#000"/>
<rect x="190.99999999999997" y="318.87355620084816" width="23.499999999999996" height="179.1264437991518" fill="orange" data-tooltip="7.94x baseline speed (YJIT)"/>
<line x1="190.99999999999997" y1="318.8190350117281" x2="214.49999999999997" y2="318.8190350117281" stroke="#000"/>
<line x1="190.99999999999997" y1="318.9280773899683" x2="214.49999999999997" y2="318.9280773899683" stroke="#000"/>
<line x1="202.75" y1="318.8190350117281" x2="202.75" y2="318.9280773899683" stroke="#000"/>
<line x1="202.75" y1="498.0" x2="202.75" y2="502.79999999999995" stroke="#000"/>
<text x="202.75" y="512.4" fill="#111" font-size="small" font-family="monospace" font-weight="bold" text-anchor="end" transform="rotate(-60, 202.75, 512.4)">
30k_methods
</text>
<rect x="238.0" y="475.43613253775766" width="23.499999999999996" height="22.563867462242243" fill="#7070f8" data-tooltip="1.00x baseline speed (No JIT)"/>
<line x1="238.0" y1="475.4029720396252" x2="261.5" y2="475.4029720396252" stroke="#000"/>
<line x1="238.0" y1="475.46929303589013" x2="261.5" y2="475.46929303589013" stroke="#000"/>
<line x1="249.75" y1="475.4029720396252" x2="249.75" y2="475.46929303589013" stroke="#000"/>
<rect x="261.5" y="400.6700619243618" width="23.499999999999996" height="97.3299380756381" fill="orange" data-tooltip="4.31x baseline speed (YJIT)"/>
<line x1="261.5" y1="400.5245180116281" x2="285.00000000000006" y2="400.5245180116281" stroke="#000"/>
<line x1="261.5" y1="400.81560583709546" x2="285.00000000000006" y2="400.81560583709546" stroke="#000"/>
<line x1="273.25" y1="400.5245180116281" x2="273.25" y2="400.81560583709546" stroke="#000"/>
<line x1="273.25" y1="498.0" x2="273.25" y2="502.79999999999995" stroke="#000"/>
<text x="273.25" y="512.4" fill="#111" font-size="small" font-family="monospace" font-weight="bold" text-anchor="end" transform="rotate(-60, 273.25, 512.4)">
cfunc_itself
</text>
<rect x="308.5" y="475.43613253775766" width="23.499999999999996" height="22.563867462242243" fill="#7070f8" data-tooltip="1.00x baseline speed (No JIT)"/>
<line x1="308.5" y1="475.4247584492748" x2="332.0" y2="475.4247584492748" stroke="#000"/>
<line x1="308.5" y1="475.4475066262405" x2="332.0" y2="475.4475066262405" stroke="#000"/>
<line x1="320.25" y1="475.4247584492748" x2="320.25" y2="475.4475066262405" stroke="#000"/>
<rect x="332.0" y="377.2020998806911" width="23.499999999999996" height="120.79790011930882" fill="orange" data-tooltip="5.35x baseline speed (YJIT)"/>
<line x1="332.0" y1="376.60828167967867" x2="355.50000000000006" y2="376.60828167967867" stroke="#000"/>
<line x1="332.0" y1="377.7959180817035" x2="355.50000000000006" y2="377.7959180817035" stroke="#000"/>
<line x1="343.75" y1="376.60828167967867" x2="343.75" y2="377.7959180817035" stroke="#000"/>
<line x1="343.75" y1="498.0" x2="343.75" y2="502.79999999999995" stroke="#000"/>
<text x="343.75" y="512.4" fill="#111" font-size="small" font-family="monospace" font-weight="bold" text-anchor="end" transform="rotate(-60, 343.75, 512.4)">
fib
</text>
<rect x="379.0" y="475.43613253775766" width="23.499999999999996" height="22.563867462242243" fill="#7070f8" data-tooltip="1.00x baseline speed (No JIT)"/>
<line x1="379.0" y1="475.41926557415826" x2="402.5" y2="475.41926557415826" stroke="#000"/>
<line x1="379.0" y1="475.4529995013571" x2="402.5" y2="475.4529995013571" stroke="#000"/>
<line x1="390.75" y1="475.41926557415826" x2="390.75" y2="475.4529995013571" stroke="#000"/>
<rect x="402.5" y="357.82123365767563" width="23.499999999999996" height="140.17876634232428" fill="orange" data-tooltip="6.21x baseline speed (YJIT)"/>
<line x1="402.5" y1="355.2171458264681" x2="426.00000000000006" y2="355.2171458264681" stroke="#000"/>
<line x1="402.5" y1="360.42532148888324" x2="426.00000000000006" y2="360.42532148888324" stroke="#000"/>
<line x1="414.25" y1="355.2171458264681" x2="414.25" y2="360.42532148888324" stroke="#000"/>
<line x1="414.25" y1="498.0" x2="414.25" y2="502.79999999999995" stroke="#000"/>
<text x="414.25" y="512.4" fill="#111" font-size="small" font-family="monospace" font-weight="bold" text-anchor="end" transform="rotate(-60, 414.25, 512.4)">
getivar
</text>
<rect x="449.5" y="475.43613253775766" width="23.499999999999996" height="22.563867462242243" fill="#7070f8" data-tooltip="1.00x baseline speed (No JIT)"/>
<line x1="449.5" y1="475.422605900752" x2="473.00000000000006" y2="475.422605900752" stroke="#000"/>
<line x1="449.5" y1="475.4496591747634" x2="473.00000000000006" y2="475.4496591747634" stroke="#000"/>
<line x1="461.25" y1="475.422605900752" x2="461.25" y2="475.4496591747634" stroke="#000"/>
<rect x="473.00000000000006" y="328.9965295712952" width="23.499999999999996" height="169.0034704287047" fill="orange" data-tooltip="7.49x baseline speed (YJIT)"/>
<line x1="473.00000000000006" y1="328.6261768192155" x2="496.50000000000006" y2="328.6261768192155" stroke="#000"/>
<line x1="473.00000000000006" y1="329.3668823233749" x2="496.50000000000006" y2="329.3668823233749" stroke="#000"/>
<line x1="484.75" y1="328.6261768192155" x2="484.75" y2="329.3668823233749" stroke="#000"/>
<line x1="484.75" y1="498.0" x2="484.75" y2="502.79999999999995" stroke="#000"/>
<text x="484.75" y="512.4" fill="#111" font-size="small" font-family="monospace" font-weight="bold" text-anchor="end" transform="rotate(-60, 484.75, 512.4)">
keyword_args
</text>
<rect x="519.9999999999999" y="475.43613253775766" width="23.499999999999996" height="22.563867462242243" fill="#7070f8" data-tooltip="1.00x baseline speed (No JIT)"/>
<line x1="519.9999999999999" y1="475.2789866209986" x2="543.4999999999999" y2="475.2789866209986" stroke="#000"/>
<line x1="519.9999999999999" y1="475.5932784545168" x2="543.4999999999999" y2="475.5932784545168" stroke="#000"/>
<line x1="531.75" y1="475.2789866209986" x2="531.75" y2="475.5932784545168" stroke="#000"/>
<rect x="543.4999999999999" y="100.19999999999999" width="23.499999999999996" height="397.79999999999995" fill="orange" data-tooltip="17.63x baseline speed (YJIT)"/>
<line x1="543.4999999999999" y1="96.82274559693852" x2="566.9999999999999" y2="96.82274559693852" stroke="#000"/>
<line x1="543.4999999999999" y1="103.57725440306146" x2="566.9999999999999" y2="103.57725440306146" stroke="#000"/>
<line x1="555.2499999999999" y1="96.82274559693852" x2="555.2499999999999" y2="103.57725440306146" stroke="#000"/>
<line x1="555.2499999999999" y1="498.0" x2="555.2499999999999" y2="502.79999999999995" stroke="#000"/>
<text x="555.2499999999999" y="512.4" fill="#111" font-size="small" font-family="monospace" font-weight="bold" text-anchor="end" transform="rotate(-60, 555.2499999999999, 512.4)">
respond_to
</text>
<rect x="590.4999999999999" y="475.43613253775766" width="23.499999999999996" height="22.563867462242243" fill="#7070f8" data-tooltip="1.00x baseline speed (No JIT)"/>
<line x1="590.4999999999999" y1="475.4182524388105" x2="613.9999999999999" y2="475.4182524388105" stroke="#000"/>
<line x1="590.4999999999999" y1="475.4540126367048" x2="613.9999999999999" y2="475.4540126367048" stroke="#000"/>
<line x1="602.25" y1="475.4182524388105" x2="602.25" y2="475.4540126367048" stroke="#000"/>
<rect x="613.9999999999999" y="333.19546316539504" width="23.499999999999996" height="164.80453683460493" fill="orange" data-tooltip="7.30x baseline speed (YJIT)"/>
<line x1="613.9999999999999" y1="333.02595606292283" x2="637.4999999999999" y2="333.02595606292283" stroke="#000"/>
<line x1="613.9999999999999" y1="333.3649702678672" x2="637.4999999999999" y2="333.3649702678672" stroke="#000"/>
<line x1="625.7499999999999" y1="333.02595606292283" x2="625.7499999999999" y2="333.3649702678672" stroke="#000"/>
<line x1="625.7499999999999" y1="498.0" x2="625.7499999999999" y2="502.79999999999995" stroke="#000"/>
<text x="625.7499999999999" y="512.4" fill="#111" font-size="small" font-family="monospace" font-weight="bold" text-anchor="end" transform="rotate(-60, 625.7499999999999, 512.4)">
setivar
</text>
<rect x="660.9999999999999" y="475.43613253775766" width="23.499999999999996" height="22.563867462242243" fill="#7070f8" data-tooltip="1.00x baseline speed (No JIT)"/>
<line x1="660.9999999999999" y1="475.40732058623996" x2="684.4999999999999" y2="475.40732058623996" stroke="#000"/>
<line x1="660.9999999999999" y1="475.4649444892754" x2="684.4999999999999" y2="475.4649444892754" stroke="#000"/>
<line x1="672.75" y1="475.40732058623996" x2="672.75" y2="475.4649444892754" stroke="#000"/>
<rect x="684.4999999999999" y="439.18494424135315" width="23.499999999999996" height="58.81505575864686" fill="orange" data-tooltip="2.61x baseline speed (YJIT)"/>
<line x1="684.4999999999999" y1="439.10893666305975" x2="707.9999999999999" y2="439.10893666305975" stroke="#000"/>
<line x1="684.4999999999999" y1="439.2609518196465" x2="707.9999999999999" y2="439.2609518196465" stroke="#000"/>
<line x1="696.2499999999999" y1="439.10893666305975" x2="696.2499999999999" y2="439.2609518196465" stroke="#000"/>
<line x1="696.2499999999999" y1="498.0" x2="696.2499999999999" y2="502.79999999999995" stroke="#000"/>
<text x="696.2499999999999" y="512.4" fill="#111" font-size="small" font-family="monospace" font-weight="bold" text-anchor="end" transform="rotate(-60, 696.2499999999999, 512.4)">
setivar_object
</text>
<rect x="731.4999999999999" y="475.43613253775766" width="23.499999999999996" height="22.563867462242243" fill="#7070f8" data-tooltip="1.00x baseline speed (No JIT)"/>
<line x1="731.4999999999999" y1="475.3623426657857" x2="754.9999999999999" y2="475.3623426657857" stroke="#000"/>
<line x1="731.4999999999999" y1="475.50992240972965" x2="754.9999999999999" y2="475.50992240972965" stroke="#000"/>
<line x1="743.25" y1="475.3623426657857" x2="743.25" y2="475.50992240972965" stroke="#000"/>
<rect x="754.9999999999999" y="439.21326872806907" width="23.499999999999996" height="58.786731271930925" fill="orange" data-tooltip="2.61x baseline speed (YJIT)"/>
<line x1="754.9999999999999" y1="438.221577479949" x2="778.4999999999999" y2="438.221577479949" stroke="#000"/>
<line x1="754.9999999999999" y1="440.2049599761891" x2="778.4999999999999" y2="440.2049599761891" stroke="#000"/>
<line x1="766.7499999999999" y1="438.221577479949" x2="766.7499999999999" y2="440.2049599761891" stroke="#000"/>
<line x1="766.7499999999999" y1="498.0" x2="766.7499999999999" y2="502.79999999999995" stroke="#000"/>
<text x="766.7499999999999" y="512.4" fill="#111" font-size="small" font-family="monospace" font-weight="bold" text-anchor="end" transform="rotate(-60, 766.7499999999999, 512.4)">
setivar_young
</text>
<rect x="801.9999999999999" y="475.43613253775766" width="23.499999999999996" height="22.563867462242243" fill="#7070f8" data-tooltip="1.00x baseline speed (No JIT)"/>
<line x1="801.9999999999999" y1="475.25162635680545" x2="825.4999999999999" y2="475.25162635680545" stroke="#000"/>
<line x1="801.9999999999999" y1="475.62063871870987" x2="825.4999999999999" y2="475.62063871870987" stroke="#000"/>
<line x1="813.75" y1="475.25162635680545" x2="813.75" y2="475.62063871870987" stroke="#000"/>
<rect x="825.4999999999999" y="452.1647789624623" width="23.499999999999996" height="45.83522103753767" fill="orange" data-tooltip="2.03x baseline speed (YJIT)"/>
<line x1="825.4999999999999" y1="451.21702348630333" x2="848.9999999999999" y2="451.21702348630333" stroke="#000"/>
<line x1="825.4999999999999" y1="453.1125344386213" x2="848.9999999999999" y2="453.1125344386213" stroke="#000"/>
<line x1="837.2499999999999" y1="451.21702348630333" x2="837.2499999999999" y2="453.1125344386213" stroke="#000"/>
<line x1="837.2499999999999" y1="498.0" x2="837.2499999999999" y2="502.79999999999995" stroke="#000"/>
<text x="837.2499999999999" y="512.4" fill="#111" font-size="small" font-family="monospace" font-weight="bold" text-anchor="end" transform="rotate(-60, 837.2499999999999, 512.4)">
str_concat
</text>
<rect x="872.4999999999999" y="475.43613253775766" width="23.499999999999996" height="22.563867462242243" fill="#7070f8" data-tooltip="1.00x baseline speed (No JIT)"/>
<line x1="872.4999999999999" y1="475.38260421137835" x2="895.9999999999999" y2="475.38260421137835" stroke="#000"/>
<line x1="872.4999999999999" y1="475.489660864137" x2="895.9999999999999" y2="475.489660864137" stroke="#000"/>
<line x1="884.25" y1="475.38260421137835" x2="884.25" y2="475.489660864137" stroke="#000"/>
<rect x="895.9999999999999" y="470.0016859285917" width="23.499999999999996" height="27.998314071408174" fill="orange" data-tooltip="1.24x baseline speed (YJIT)"/>
<line x1="895.9999999999999" y1="469.89335282368904" x2="919.4999999999999" y2="469.89335282368904" stroke="#000"/>
<line x1="895.9999999999999" y1="470.11001903349444" x2="919.4999999999999" y2="470.11001903349444" stroke="#000"/>
<line x1="907.75" y1="469.89335282368904" x2="907.75" y2="470.11001903349444" stroke="#000"/>
<line x1="907.75" y1="498.0" x2="907.75" y2="502.79999999999995" stroke="#000"/>
<text x="907.75" y="512.4" fill="#111" font-size="small" font-family="monospace" font-weight="bold" text-anchor="end" transform="rotate(-60, 907.75, 512.4)">
throw
</text>
</svg>