<svg viewBox="0 0 1000 600" xmlns="http://www.w3.org/2000/svg" xmlns:xlink="http://www.w3.org/1999/xlink" width="100%" height="100%">

<rect x="50.0" y="30.0" width="940.0" height="467.99999999999994" stroke="#000" fill="#fff"/>
<line x1="42.0" y1="497.9999999999999" x2="50.0" y2="497.9999999999999" stroke="#000"/>
<text x="26.000000000000004" y="497.9999999999999" text-anchor="end" font-weight="bold" font-size="small" fill="#111">
0.0
</text>
<line x1="42.0" y1="455.6053964984552" x2="50.0" y2="455.6053964984552" stroke="#000"/>
<text x="26.000000000000004" y="455.6053964984552" text-anchor="end" font-weight="bold" font-size="small" fill="#111">
0.2
</text>
<line x1="42.0" y1="413.2107929969104" x2="50.0" y2="413.2107929969104" stroke="#000"/>
<text x="26.000000000000004" y="413.2107929969104" text-anchor="end" font-weight="bold" font-size="small" fill="#111">
0.4
</text>
<line x1="42.0" y1="370.81618949536556" x2="50.0" y2="370.81618949536556" stroke="#000"/>
<text x="26.000000000000004" y="370.81618949536556" text-anchor="end" font-weight="bold" font-size="small" fill="#111">
0.6
</text>
<line x1="42.0" y1="328.4215859938207" x2="50.0" y2="328.4215859938207" stroke="#000"/>
<text x="26.000000000000004" y="328.4215859938207" text-anchor="end" font-weight="bold" font-size="small" fill="#111">
0.8
</text>
<line x1="42.0" y1="286.026982492276" x2="50.0" y2="286.026982492276" stroke="#000"/>
<text x="26.000000000000004" y="286.026982492276" text-anchor="end" font-weight="bold" font-size="small" fill="#111">
1.0
</text>
<line x1="42.0" y1="243.63237899073115" x2="50.0" y2="243.63237899073115" stroke="#000"/>
<text x="26.000000000000004" y="243.63237899073115" text-anchor="end" font-weight="bold" font-size="small" fill="#111">
1.2
</text>
<line x1="42.0" y1="201.2377754891864" x2="50.0" y2="201.2377754891864" stroke="#000"/>
<text x="26.000000000000004" y="201.2377754891864" text-anchor="end" font-weight="bold" font-size="small" fill="#111">
1.4
</text>
<line x1="42.0" y1="158.84317198764165" x2="50.0" y2="158.84317198764165" stroke="#000"/>
<text x="26.000000000000004" y="158.84317198764165" text-anchor="end" font-weight="bold" font-size="small" fill="#111">
1.6
</text>
<line x1="42.0" y1="116.44856848609682" x2="50.0" y2="116.44856848609682" stroke="#000"/>
<text x="26.000000000000004" y="116.44856848609682" text-anchor="end" font-weight="bold" font-size="small" fill="#111">
1.8
</text>
<line x1="248.5" y1="54.60000000000001" x2="368.5" y2="54.60000000000001" stroke="#648FFF" stroke-width="2"/>
<text x="308.5" y="49.500000000000014" font-size="small" text-anchor="middle" font-weight="bold" fill="#000">
CRuby 3.3.0dev
</text>
<rect x="671.5" y="35.400000000000006" width="120.0" height="19.2" fill="#785EF0" stroke="none"/>
<text x="731.4999999999999" y="49.500000000000014" font-size="small" text-anchor="middle" font-weight="bold" fill="#fff" style="text-shadow: 0 0 1px #000;">
YJIT 3.3.0dev
</text>
<rect x="84.81481481481481" y="264.6191115188138" width="34.81481481481481" height="233.38088848118616" fill="#785EF0" data-tooltip="1.10x baseline (YJIT 3.3.0dev)"/>
<line x1="102.22222222222221" y1="498.0" x2="102.22222222222221" y2="502.79999999999995" stroke="#000"/>
<text x="102.22222222222221" y="512.4" fill="#111" font-size="small" text-anchor="end" transform="rotate(-60, 102.22222222222221, 512.4)">
activerecord
</text>
<rect x="154.44444444444443" y="260.82393354550794" width="34.81481481481481" height="237.17606645449197" fill="#785EF0" data-tooltip="1.12x baseline (YJIT 3.3.0dev)"/>
<line x1="171.85185185185185" y1="498.0" x2="171.85185185185185" y2="502.79999999999995" stroke="#000"/>
<text x="171.85185185185185" y="512.4" fill="#111" font-size="small" text-anchor="end" transform="rotate(-60, 171.85185185185185, 512.4)">
chunky-png
</text>
<rect x="224.07407407407405" y="268.3173469488864" width="34.81481481481481" height="229.68265305111356" fill="#785EF0" data-tooltip="1.08x baseline (YJIT 3.3.0dev)"/>
<line x1="241.48148148148144" y1="498.0" x2="241.48148148148144" y2="502.79999999999995" stroke="#000"/>
<text x="241.48148148148144" y="512.4" fill="#111" font-size="small" text-anchor="end" transform="rotate(-60, 241.48148148148144, 512.4)">
erubi-rails
</text>
<rect x="293.70370370370364" y="100.19999999999999" width="34.81481481481481" height="397.79999999999995" fill="#785EF0" data-tooltip="1.88x baseline (YJIT 3.3.0dev)"/>
<line x1="311.11111111111103" y1="498.0" x2="311.11111111111103" y2="502.79999999999995" stroke="#000"/>
<text x="311.11111111111103" y="512.4" fill="#111" font-size="small" text-anchor="end" transform="rotate(-60, 311.11111111111103, 512.4)">
hexapdf
</text>
<rect x="363.33333333333326" y="263.46484022991535" width="34.81481481481481" height="234.5351597700846" fill="#785EF0" data-tooltip="1.11x baseline (YJIT 3.3.0dev)"/>
<line x1="380.7407407407406" y1="498.0" x2="380.7407407407406" y2="502.79999999999995" stroke="#000"/>
<text x="380.7407407407406" y="512.4" fill="#111" font-size="small" text-anchor="end" transform="rotate(-60, 380.7407407407406, 512.4)">
liquid-c
</text>
<rect x="432.9629629629628" y="268.73689026274815" width="34.81481481481481" height="229.2631097372518" fill="#785EF0" data-tooltip="1.08x baseline (YJIT 3.3.0dev)"/>
<line x1="450.3703703703702" y1="498.0" x2="450.3703703703702" y2="502.79999999999995" stroke="#000"/>
<text x="450.3703703703702" y="512.4" fill="#111" font-size="small" text-anchor="end" transform="rotate(-60, 450.3703703703702, 512.4)">
liquid-compile
</text>
<rect x="502.5925925925925" y="256.7404325010116" width="34.81481481481481" height="241.25956749898833" fill="#785EF0" data-tooltip="1.14x baseline (YJIT 3.3.0dev)"/>
<line x1="519.9999999999999" y1="498.0" x2="519.9999999999999" y2="502.79999999999995" stroke="#000"/>
<text x="519.9999999999999" y="512.4" fill="#111" font-size="small" text-anchor="end" transform="rotate(-60, 519.9999999999999, 512.4)">
liquid-render
</text>
<rect x="572.2222222222222" y="273.33111446360755" width="34.81481481481481" height="224.66888553639237" fill="#785EF0" data-tooltip="1.06x baseline (YJIT 3.3.0dev)"/>
<line x1="589.6296296296296" y1="498.0" x2="589.6296296296296" y2="502.79999999999995" stroke="#000"/>
<text x="589.6296296296296" y="512.4" fill="#111" font-size="small" text-anchor="end" transform="rotate(-60, 589.6296296296296, 512.4)">
mail
</text>
<rect x="641.8518518518518" y="273.3805078384525" width="34.81481481481481" height="224.6194921615474" fill="#785EF0" data-tooltip="1.06x baseline (YJIT 3.3.0dev)"/>
<line x1="659.2592592592594" y1="498.0" x2="659.2592592592594" y2="502.79999999999995" stroke="#000"/>
<text x="659.2592592592594" y="512.4" fill="#111" font-size="small" text-anchor="end" transform="rotate(-60, 659.2592592592594, 512.4)">
psych-load
</text>
<rect x="711.4814814814816" y="251.20004419882724" width="34.81481481481481" height="246.7999558011727" fill="#785EF0" data-tooltip="1.16x baseline (YJIT 3.3.0dev)"/>
<line x1="728.888888888889" y1="498.0" x2="728.888888888889" y2="502.79999999999995" stroke="#000"/>
<text x="728.888888888889" y="512.4" fill="#111" font-size="small" text-anchor="end" transform="rotate(-60, 728.888888888889, 512.4)">
railsbench
</text>
<rect x="781.1111111111113" y="203.6404049789959" width="34.81481481481481" height="294.35959502100405" fill="#785EF0" data-tooltip="1.39x baseline (YJIT 3.3.0dev)"/>
<line x1="798.5185185185187" y1="498.0" x2="798.5185185185187" y2="502.79999999999995" stroke="#000"/>
<text x="798.5185185185187" y="512.4" fill="#111" font-size="small" text-anchor="end" transform="rotate(-60, 798.5185185185187, 512.4)">
ruby-lsp
</text>
<rect x="850.740740740741" y="265.86380560322635" width="34.81481481481481" height="232.13619439677356" fill="#785EF0" data-tooltip="1.10x baseline (YJIT 3.3.0dev)"/>
<line x1="868.1481481481485" y1="498.0" x2="868.1481481481485" y2="502.79999999999995" stroke="#000"/>
<text x="868.1481481481485" y="512.4" fill="#111" font-size="small" text-anchor="end" transform="rotate(-60, 868.1481481481485, 512.4)">
sequel
</text>
<rect x="920.3703703703708" y="249.3571207571272" width="34.81481481481481" height="248.64287924287274" fill="#785EF0" data-tooltip="1.17x baseline (YJIT 3.3.0dev)"/>
<line x1="937.7777777777782" y1="498.0" x2="937.7777777777782" y2="502.79999999999995" stroke="#000"/>
<text x="937.7777777777782" y="512.4" fill="#111" font-size="small" text-anchor="end" transform="rotate(-60, 937.7777777777782, 512.4)" font-style="italic">
geomean*
</text>
<line x1="50.0" y1="286.026982492276" x2="990.0" y2="286.026982492276" stroke="#648FFF" stroke-width="2"/>
</svg>