<svg viewBox="0 0 1000 600" xmlns="http://www.w3.org/2000/svg" xmlns:xlink="http://www.w3.org/1999/xlink" width="100%" height="100%">

<rect x="50.0" y="30.0" width="940.0" height="467.99999999999994" stroke="#000" fill="#EEE"/>
<line x1="42.0" y1="497.9999999999999" x2="50.0" y2="497.9999999999999" stroke="#000"/>
<text x="26.000000000000004" y="497.9999999999999" text-anchor="end" font-weight="bold" font-size="small" fill="#111">
0.0
</text>
<line x1="42.0" y1="457.8045300971817" x2="50.0" y2="457.8045300971817" stroke="#000"/>
<text x="26.000000000000004" y="457.8045300971817" text-anchor="end" font-weight="bold" font-size="small" fill="#111">
0.2
</text>
<line x1="42.0" y1="417.6090601943635" x2="50.0" y2="417.6090601943635" stroke="#000"/>
<text x="26.000000000000004" y="417.6090601943635" text-anchor="end" font-weight="bold" font-size="small" fill="#111">
0.4
</text>
<line x1="42.0" y1="377.4135902915454" x2="50.0" y2="377.4135902915454" stroke="#000"/>
<text x="26.000000000000004" y="377.4135902915454" text-anchor="end" font-weight="bold" font-size="small" fill="#111">
0.6
</text>
<line x1="42.0" y1="337.21812038872713" x2="50.0" y2="337.21812038872713" stroke="#000"/>
<text x="26.000000000000004" y="337.21812038872713" text-anchor="end" font-weight="bold" font-size="small" fill="#111">
0.8
</text>
<line x1="42.0" y1="297.02265048590897" x2="50.0" y2="297.02265048590897" stroke="#000"/>
<text x="26.000000000000004" y="297.02265048590897" text-anchor="end" font-weight="bold" font-size="small" fill="#111">
1.0
</text>
<line x1="42.0" y1="256.82718058309086" x2="50.0" y2="256.82718058309086" stroke="#000"/>
<text x="26.000000000000004" y="256.82718058309086" text-anchor="end" font-weight="bold" font-size="small" fill="#111">
1.2
</text>
<line x1="42.0" y1="216.63171068027262" x2="50.0" y2="216.63171068027262" stroke="#000"/>
<text x="26.000000000000004" y="216.63171068027262" text-anchor="end" font-weight="bold" font-size="small" fill="#111">
1.4
</text>
<line x1="42.0" y1="176.43624077745443" x2="50.0" y2="176.43624077745443" stroke="#000"/>
<text x="26.000000000000004" y="176.43624077745443" text-anchor="end" font-weight="bold" font-size="small" fill="#111">
1.6
</text>
<line x1="42.0" y1="136.24077087463627" x2="50.0" y2="136.24077087463627" stroke="#000"/>
<text x="26.000000000000004" y="136.24077087463627" text-anchor="end" font-weight="bold" font-size="small" fill="#111">
1.8
</text>
<rect x="197.99999999999997" y="36.00000000000001" width="80.0" height="18.0" fill="#7070f8" stroke="#888"/>
<text x="238.0" y="52.50000000000001" font-size="small" text-anchor="middle" font-weight="bold" fill="#EEE">
No JIT
</text>
<rect x="479.99999999999994" y="36.00000000000001" width="80.0" height="18.0" fill="orange" stroke="#888"/>
<text x="519.9999999999999" y="52.50000000000001" font-size="small" text-anchor="middle" font-weight="bold" fill="#EEE">
MJIT3.0
</text>
<rect x="761.9999999999999" y="36.00000000000001" width="80.0" height="18.0" fill="green" stroke="#888"/>
<text x="801.9999999999999" y="52.50000000000001" font-size="small" text-anchor="middle" font-weight="bold" fill="#EEE">
YJIT
</text>
<rect x="97.0" y="297.02265048590897" width="35.25" height="200.97734951409097" fill="#7070f8" data-tooltip="1.00x baseline speed (No JIT)"/>
<line x1="97.0" y1="296.55975725355285" x2="132.25" y2="296.55975725355285" stroke="#000"/>
<line x1="97.0" y1="297.4855437182651" x2="132.25" y2="297.4855437182651" stroke="#000"/>
<line x1="114.625" y1="296.55975725355285" x2="114.625" y2="297.4855437182651" stroke="#000"/>
<rect x="132.25" y="193.3440802126996" width="35.25" height="304.6559197873004" fill="orange" data-tooltip="1.52x baseline speed (MJIT3.0)"/>
<line x1="132.25" y1="192.45732038441574" x2="167.5" y2="192.45732038441574" stroke="#000"/>
<line x1="132.25" y1="194.23084004098345" x2="167.5" y2="194.23084004098345" stroke="#000"/>
<line x1="149.875" y1="192.45732038441574" x2="149.875" y2="194.23084004098345" stroke="#000"/>
<rect x="167.49999999999997" y="237.90362184571725" width="35.25" height="260.0963781542827" fill="green" data-tooltip="1.29x baseline speed (YJIT)"/>
<line x1="167.49999999999997" y1="237.07428189855386" x2="202.75" y2="237.07428189855386" stroke="#000"/>
<line x1="167.49999999999997" y1="238.73296179288064" x2="202.75" y2="238.73296179288064" stroke="#000"/>
<line x1="185.12499999999997" y1="237.07428189855386" x2="185.12499999999997" y2="238.73296179288064" stroke="#000"/>
<line x1="167.49999999999997" y1="498.0" x2="167.49999999999997" y2="502.79999999999995" stroke="#000"/>
<text x="167.49999999999997" y="512.4" fill="#111" font-size="small" font-family="monospace" font-weight="bold" text-anchor="end" transform="rotate(-60, 167.49999999999997, 512.4)">
binarytrees
</text>
<rect x="238.0" y="297.02265048590897" width="35.25" height="200.97734951409097" fill="#7070f8" data-tooltip="1.00x baseline speed (No JIT)"/>
<line x1="238.0" y1="296.8112665650474" x2="273.25" y2="296.8112665650474" stroke="#000"/>
<line x1="238.0" y1="297.23403440677055" x2="273.25" y2="297.23403440677055" stroke="#000"/>
<line x1="255.625" y1="296.8112665650474" x2="255.625" y2="297.23403440677055" stroke="#000"/>
<rect x="273.25" y="221.93768812538087" width="35.25" height="276.0623118746191" fill="orange" data-tooltip="1.37x baseline speed (MJIT3.0)"/>
<line x1="273.25" y1="221.63118798786041" x2="308.5" y2="221.63118798786041" stroke="#000"/>
<line x1="273.25" y1="222.2441882629013" x2="308.5" y2="222.2441882629013" stroke="#000"/>
<line x1="290.875" y1="221.63118798786041" x2="290.875" y2="222.2441882629013" stroke="#000"/>
<rect x="308.5" y="296.959764214186" width="35.25" height="201.04023578581393" fill="green" data-tooltip="1.00x baseline speed (YJIT)"/>
<line x1="308.5" y1="296.48475621002933" x2="343.75" y2="296.48475621002933" stroke="#000"/>
<line x1="308.5" y1="297.43477221834263" x2="343.75" y2="297.43477221834263" stroke="#000"/>
<line x1="326.125" y1="296.48475621002933" x2="326.125" y2="297.43477221834263" stroke="#000"/>
<line x1="308.5" y1="498.0" x2="308.5" y2="502.79999999999995" stroke="#000"/>
<text x="308.5" y="512.4" fill="#111" font-size="small" font-family="monospace" font-weight="bold" text-anchor="end" transform="rotate(-60, 308.5, 512.4)">
fannkuchredux
</text>
<rect x="379.0" y="297.02265048590897" width="35.25" height="200.97734951409097" fill="#7070f8" data-tooltip="1.00x baseline speed (No JIT)"/>
<line x1="379.0" y1="293.6169381558097" x2="414.25" y2="293.6169381558097" stroke="#000"/>
<line x1="379.0" y1="300.42836281600825" x2="414.25" y2="300.42836281600825" stroke="#000"/>
<line x1="396.625" y1="293.6169381558097" x2="396.625" y2="300.42836281600825" stroke="#000"/>
<rect x="414.25" y="296.676592416942" width="35.25" height="201.3234075830579" fill="orange" data-tooltip="1.00x baseline speed (MJIT3.0)"/>
<line x1="414.25" y1="292.0767961313838" x2="449.5" y2="292.0767961313838" stroke="#000"/>
<line x1="414.25" y1="301.27638870250036" x2="449.5" y2="301.27638870250036" stroke="#000"/>
<line x1="431.875" y1="292.0767961313838" x2="431.875" y2="301.27638870250036" stroke="#000"/>
<rect x="449.5" y="273.6212070509591" width="35.25" height="224.37879294904087" fill="green" data-tooltip="1.12x baseline speed (YJIT)"/>
<line x1="449.5" y1="267.5534144105637" x2="484.75" y2="267.5534144105637" stroke="#000"/>
<line x1="449.5" y1="279.68899969135447" x2="484.75" y2="279.68899969135447" stroke="#000"/>
<line x1="467.125" y1="267.5534144105637" x2="467.125" y2="279.68899969135447" stroke="#000"/>
<line x1="449.5" y1="498.0" x2="449.5" y2="502.79999999999995" stroke="#000"/>
<text x="449.5" y="512.4" fill="#111" font-size="small" font-family="monospace" font-weight="bold" text-anchor="end" transform="rotate(-60, 449.5, 512.4)">
jekyll
</text>
<rect x="519.9999999999999" y="297.02265048590897" width="35.25" height="200.97734951409097" fill="#7070f8" data-tooltip="1.00x baseline speed (No JIT)"/>
<line x1="519.9999999999999" y1="294.59015063736786" x2="555.2499999999999" y2="294.59015063736786" stroke="#000"/>
<line x1="519.9999999999999" y1="299.45515033445014" x2="555.2499999999999" y2="299.45515033445014" stroke="#000"/>
<line x1="537.6249999999999" y1="294.59015063736786" x2="537.6249999999999" y2="299.45515033445014" stroke="#000"/>
<rect x="555.2499999999999" y="240.86469752485422" width="35.25" height="257.13530247514575" fill="orange" data-tooltip="1.28x baseline speed (MJIT3.0)"/>
<line x1="555.2499999999999" y1="236.4351797702693" x2="590.4999999999999" y2="236.4351797702693" stroke="#000"/>
<line x1="555.2499999999999" y1="245.29421527943916" x2="590.4999999999999" y2="245.29421527943916" stroke="#000"/>
<line x1="572.8749999999999" y1="236.4351797702693" x2="572.8749999999999" y2="245.29421527943916" stroke="#000"/>
<rect x="590.4999999999999" y="218.49826408209762" width="35.25" height="279.50173591790235" fill="green" data-tooltip="1.39x baseline speed (YJIT)"/>
<line x1="590.4999999999999" y1="213.04025539501976" x2="625.7499999999999" y2="213.04025539501976" stroke="#000"/>
<line x1="590.4999999999999" y1="223.9562727691755" x2="625.7499999999999" y2="223.9562727691755" stroke="#000"/>
<line x1="608.1249999999999" y1="213.04025539501976" x2="608.1249999999999" y2="223.9562727691755" stroke="#000"/>
<line x1="590.4999999999999" y1="498.0" x2="590.4999999999999" y2="502.79999999999995" stroke="#000"/>
<text x="590.4999999999999" y="512.4" fill="#111" font-size="small" font-family="monospace" font-weight="bold" text-anchor="end" transform="rotate(-60, 590.4999999999999, 512.4)">
lee
</text>
<rect x="660.9999999999999" y="297.02265048590897" width="35.25" height="200.97734951409097" fill="#7070f8" data-tooltip="1.00x baseline speed (No JIT)"/>
<line x1="660.9999999999999" y1="295.3931994407927" x2="696.2499999999999" y2="295.3931994407927" stroke="#000"/>
<line x1="660.9999999999999" y1="298.6521015310252" x2="696.2499999999999" y2="298.6521015310252" stroke="#000"/>
<line x1="678.6249999999999" y1="295.3931994407927" x2="678.6249999999999" y2="298.6521015310252" stroke="#000"/>
<rect x="696.2499999999999" y="106.55011563786877" width="35.25" height="391.4498843621312" fill="orange" data-tooltip="1.95x baseline speed (MJIT3.0)"/>
<line x1="696.2499999999999" y1="101.04824648298855" x2="731.4999999999999" y2="101.04824648298855" stroke="#000"/>
<line x1="696.2499999999999" y1="112.05198479274898" x2="731.4999999999999" y2="112.05198479274898" stroke="#000"/>
<line x1="713.8749999999999" y1="101.04824648298855" x2="713.8749999999999" y2="112.05198479274898" stroke="#000"/>
<rect x="731.4999999999999" y="187.35735981442042" width="35.25" height="310.6426401855795" fill="green" data-tooltip="1.55x baseline speed (YJIT)"/>
<line x1="731.4999999999999" y1="184.8146848675172" x2="766.7499999999999" y2="184.8146848675172" stroke="#000"/>
<line x1="731.4999999999999" y1="189.90003476132367" x2="766.7499999999999" y2="189.90003476132367" stroke="#000"/>
<line x1="749.1249999999999" y1="184.8146848675172" x2="749.1249999999999" y2="189.90003476132367" stroke="#000"/>
<line x1="731.4999999999999" y1="498.0" x2="731.4999999999999" y2="502.79999999999995" stroke="#000"/>
<text x="731.4999999999999" y="512.4" fill="#111" font-size="small" font-family="monospace" font-weight="bold" text-anchor="end" transform="rotate(-60, 731.4999999999999, 512.4)">
nbody
</text>
<rect x="801.9999999999999" y="297.02265048590897" width="35.25" height="200.97734951409097" fill="#7070f8" data-tooltip="1.00x baseline speed (No JIT)"/>
<line x1="801.9999999999999" y1="295.59071889080985" x2="837.2499999999999" y2="295.59071889080985" stroke="#000"/>
<line x1="801.9999999999999" y1="298.45458208100814" x2="837.2499999999999" y2="298.45458208100814" stroke="#000"/>
<line x1="819.6249999999999" y1="295.59071889080985" x2="819.6249999999999" y2="298.45458208100814" stroke="#000"/>
<rect x="837.2499999999999" y="100.19999999999999" width="35.25" height="397.79999999999995" fill="orange" data-tooltip="1.98x baseline speed (MJIT3.0)"/>
<line x1="837.2499999999999" y1="97.28039369588016" x2="872.4999999999999" y2="97.28039369588016" stroke="#000"/>
<line x1="837.2499999999999" y1="103.11960630411983" x2="872.4999999999999" y2="103.11960630411983" stroke="#000"/>
<line x1="854.8749999999999" y1="97.28039369588016" x2="854.8749999999999" y2="103.11960630411983" stroke="#000"/>
<rect x="872.4999999999999" y="158.59008509835584" width="35.25" height="339.4099149016441" fill="green" data-tooltip="1.69x baseline speed (YJIT)"/>
<line x1="872.4999999999999" y1="156.03523414069716" x2="907.75" y2="156.03523414069716" stroke="#000"/>
<line x1="872.4999999999999" y1="161.14493605601453" x2="907.75" y2="161.14493605601453" stroke="#000"/>
<line x1="890.125" y1="156.03523414069716" x2="890.125" y2="161.14493605601453" stroke="#000"/>
<line x1="872.4999999999999" y1="498.0" x2="872.4999999999999" y2="502.79999999999995" stroke="#000"/>
<text x="872.4999999999999" y="512.4" fill="#111" font-size="small" font-family="monospace" font-weight="bold" text-anchor="end" transform="rotate(-60, 872.4999999999999, 512.4)">
optcarrot
</text>
</svg>