<svg viewBox="0 0 1000 600" xmlns="http://www.w3.org/2000/svg" xmlns:xlink="http://www.w3.org/1999/xlink" width="100%" height="100%">

<rect x="50.0" y="30.0" width="940.0" height="467.99999999999994" stroke="#000" fill="#fff"/>
<line x1="42.0" y1="497.9999999999999" x2="50.0" y2="497.9999999999999" stroke="#000"/>
<text x="26.000000000000004" y="497.9999999999999" text-anchor="end" font-weight="bold" font-size="small" fill="#111">
0.0
</text>
<line x1="42.0" y1="412.27605022104467" x2="50.0" y2="412.27605022104467" stroke="#000"/>
<text x="26.000000000000004" y="412.27605022104467" text-anchor="end" font-weight="bold" font-size="small" fill="#111">
0.5
</text>
<line x1="42.0" y1="326.55210044208934" x2="50.0" y2="326.55210044208934" stroke="#000"/>
<text x="26.000000000000004" y="326.55210044208934" text-anchor="end" font-weight="bold" font-size="small" fill="#111">
1.0
</text>
<line x1="42.0" y1="240.828150663134" x2="50.0" y2="240.828150663134" stroke="#000"/>
<text x="26.000000000000004" y="240.828150663134" text-anchor="end" font-weight="bold" font-size="small" fill="#111">
1.5
</text>
<line x1="42.0" y1="155.10420088417868" x2="50.0" y2="155.10420088417868" stroke="#000"/>
<text x="26.000000000000004" y="155.10420088417868" text-anchor="end" font-weight="bold" font-size="small" fill="#111">
2.0
</text>
<line x1="142.75" y1="54.60000000000001" x2="262.75" y2="54.60000000000001" stroke="#648FFF" stroke-width="2"/>
<text x="202.75" y="49.500000000000014" font-size="small" text-anchor="middle" font-weight="bold" fill="#000">
CRuby 3.3.6
</text>
<rect x="354.25" y="35.400000000000006" width="120.0" height="19.2" fill="#785EF0" stroke="none"/>
<text x="414.25" y="49.500000000000014" font-size="small" text-anchor="middle" font-weight="bold" fill="#fff" style="text-shadow: 0 0 1px #000;">
CRuby 3.5.0dev
</text>
<rect x="565.75" y="35.400000000000006" width="120.0" height="19.2" fill="#FFB000" stroke="none"/>
<text x="625.7499999999999" y="49.500000000000014" font-size="small" text-anchor="middle" font-weight="bold" fill="#fff" style="text-shadow: 0 0 1px #000;">
YJIT 3.3.6
</text>
<rect x="777.25" y="35.400000000000006" width="120.0" height="19.2" fill="#DC267F" stroke="none"/>
<text x="837.2499999999999" y="49.500000000000014" font-size="small" text-anchor="middle" font-weight="bold" fill="#fff" style="text-shadow: 0 0 1px #000;">
YJIT 3.5.0dev
</text>
<rect x="65.40983606557377" y="325.3253972371281" width="15.40983606557377" height="172.67460276287184" fill="#785EF0" data-tooltip="1.01x baseline (CRuby 3.5.0dev)"/>
<line x1="65.40983606557377" y1="325.18363910262735" x2="80.81967213114753" y2="325.18363910262735" stroke-dasharray="1,0.5" stroke="#333c"/>
<line x1="65.40983606557377" y1="325.46715537162885" x2="80.81967213114753" y2="325.46715537162885" stroke-dasharray="1,0.5" stroke="#333c"/>
<line x1="73.11475409836066" y1="325.18363910262735" x2="73.11475409836066" y2="325.46715537162885" stroke-dasharray="1,0.5" stroke="#333c"/>
<rect x="80.81967213114753" y="140.89052039638256" width="15.40983606557377" height="357.1094796036174" fill="#FFB000" data-tooltip="2.08x baseline (YJIT 3.3.6)"/>
<line x1="80.81967213114753" y1="140.59152966059588" x2="96.2295081967213" y2="140.59152966059588" stroke-dasharray="1,0.5" stroke="#333c"/>
<line x1="80.81967213114753" y1="141.18951113216923" x2="96.2295081967213" y2="141.18951113216923" stroke-dasharray="1,0.5" stroke="#333c"/>
<line x1="88.52459016393442" y1="140.59152966059588" x2="88.52459016393442" y2="141.18951113216923" stroke-dasharray="1,0.5" stroke="#333c"/>
<rect x="96.2295081967213" y="149.42504887205206" width="15.40983606557377" height="348.5749511279479" fill="#DC267F" data-tooltip="2.03x baseline (YJIT 3.5.0dev)"/>
<line x1="96.2295081967213" y1="148.94893950040003" x2="111.63934426229507" y2="148.94893950040003" stroke-dasharray="1,0.5" stroke="#333c"/>
<line x1="96.2295081967213" y1="149.9011582437041" x2="111.63934426229507" y2="149.9011582437041" stroke-dasharray="1,0.5" stroke="#333c"/>
<line x1="103.93442622950819" y1="148.94893950040003" x2="103.93442622950819" y2="149.9011582437041" stroke-dasharray="1,0.5" stroke="#333c"/>
<line x1="88.5245901639344" y1="498.0" x2="88.5245901639344" y2="502.79999999999995" stroke="#000"/>
<text x="88.5245901639344" y="512.4" fill="#111" font-size="small" text-anchor="end" transform="rotate(-60, 88.5245901639344, 512.4)">
activerecord
</text>
<rect x="127.04918032786883" y="327.1122228815687" width="15.40983606557377" height="170.88777711843122" fill="#785EF0" data-tooltip="1.00x baseline (CRuby 3.5.0dev)"/>
<line x1="127.04918032786883" y1="326.17465748874093" x2="142.4590163934426" y2="326.17465748874093" stroke-dasharray="1,0.5" stroke="#333c"/>
<line x1="127.04918032786883" y1="328.04978827439646" x2="142.4590163934426" y2="328.04978827439646" stroke-dasharray="1,0.5" stroke="#333c"/>
<line x1="134.75409836065572" y1="326.17465748874093" x2="134.75409836065572" y2="328.04978827439646" stroke-dasharray="1,0.5" stroke="#333c"/>
<rect x="142.4590163934426" y="195.68316972547333" width="15.40983606557377" height="302.31683027452664" fill="#FFB000" data-tooltip="1.76x baseline (YJIT 3.3.6)"/>
<line x1="142.4590163934426" y1="194.3556852922363" x2="157.86885245901638" y2="194.3556852922363" stroke-dasharray="1,0.5" stroke="#333c"/>
<line x1="142.4590163934426" y1="197.01065415871034" x2="157.86885245901638" y2="197.01065415871034" stroke-dasharray="1,0.5" stroke="#333c"/>
<line x1="150.1639344262295" y1="194.3556852922363" x2="150.1639344262295" y2="197.01065415871034" stroke-dasharray="1,0.5" stroke="#333c"/>
<rect x="157.86885245901638" y="100.19999999999999" width="15.40983606557377" height="397.79999999999995" fill="#DC267F" data-tooltip="2.32x baseline (YJIT 3.5.0dev)"/>
<line x1="157.86885245901638" y1="98.35862979699527" x2="173.27868852459017" y2="98.35862979699527" stroke-dasharray="1,0.5" stroke="#333c"/>
<line x1="157.86885245901638" y1="102.04137020300472" x2="173.27868852459017" y2="102.04137020300472" stroke-dasharray="1,0.5" stroke="#333c"/>
<line x1="165.5737704918033" y1="98.35862979699527" x2="165.5737704918033" y2="102.04137020300472" stroke-dasharray="1,0.5" stroke="#333c"/>
<line x1="150.1639344262295" y1="498.0" x2="150.1639344262295" y2="502.79999999999995" stroke="#000"/>
<text x="150.1639344262295" y="512.4" fill="#111" font-size="small" text-anchor="end" transform="rotate(-60, 150.1639344262295, 512.4)">
chunky-png
</text>
<rect x="188.68852459016395" y="327.7122155893154" width="15.40983606557377" height="170.2877844106845" fill="#785EF0" data-tooltip="0.99x baseline (CRuby 3.5.0dev)"/>
<line x1="188.68852459016395" y1="327.4950790601396" x2="204.0983606557377" y2="327.4950790601396" stroke-dasharray="1,0.5" stroke="#333c"/>
<line x1="188.68852459016395" y1="327.9293521184913" x2="204.0983606557377" y2="327.9293521184913" stroke-dasharray="1,0.5" stroke="#333c"/>
<line x1="196.39344262295083" y1="327.4950790601396" x2="196.39344262295083" y2="327.9293521184913" stroke-dasharray="1,0.5" stroke="#333c"/>
<rect x="204.0983606557377" y="248.28055724755328" width="15.40983606557377" height="249.71944275244664" fill="#FFB000" data-tooltip="1.46x baseline (YJIT 3.3.6)"/>
<line x1="204.0983606557377" y1="247.9372255031419" x2="219.5081967213115" y2="247.9372255031419" stroke-dasharray="1,0.5" stroke="#333c"/>
<line x1="204.0983606557377" y1="248.62388899196466" x2="219.5081967213115" y2="248.62388899196466" stroke-dasharray="1,0.5" stroke="#333c"/>
<line x1="211.8032786885246" y1="247.9372255031419" x2="211.8032786885246" y2="248.62388899196466" stroke-dasharray="1,0.5" stroke="#333c"/>
<rect x="219.5081967213115" y="234.82758533706055" width="15.40983606557377" height="263.1724146629394" fill="#DC267F" data-tooltip="1.53x baseline (YJIT 3.5.0dev)"/>
<line x1="219.5081967213115" y1="234.40892978489805" x2="234.91803278688528" y2="234.40892978489805" stroke-dasharray="1,0.5" stroke="#333c"/>
<line x1="219.5081967213115" y1="235.24624088922306" x2="234.91803278688528" y2="235.24624088922306" stroke-dasharray="1,0.5" stroke="#333c"/>
<line x1="227.2131147540984" y1="234.40892978489805" x2="227.2131147540984" y2="235.24624088922306" stroke-dasharray="1,0.5" stroke="#333c"/>
<line x1="211.8032786885246" y1="498.0" x2="211.8032786885246" y2="502.79999999999995" stroke="#000"/>
<text x="211.8032786885246" y="512.4" fill="#111" font-size="small" text-anchor="end" transform="rotate(-60, 211.8032786885246, 512.4)">
erubi-rails
</text>
<rect x="250.32786885245906" y="321.78700020821435" width="15.40983606557377" height="176.2129997917856" fill="#785EF0" data-tooltip="1.03x baseline (CRuby 3.5.0dev)"/>
<line x1="250.32786885245906" y1="320.09211957072716" x2="265.7377049180328" y2="320.09211957072716" stroke-dasharray="1,0.5" stroke="#333c"/>
<line x1="250.32786885245906" y1="323.48188084570154" x2="265.7377049180328" y2="323.48188084570154" stroke-dasharray="1,0.5" stroke="#333c"/>
<line x1="258.03278688524597" y1="320.09211957072716" x2="258.03278688524597" y2="323.48188084570154" stroke-dasharray="1,0.5" stroke="#333c"/>
<rect x="265.7377049180328" y="206.3147134663786" width="15.40983606557377" height="291.68528653362137" fill="#FFB000" data-tooltip="1.70x baseline (YJIT 3.3.6)"/>
<line x1="265.7377049180328" y1="197.86395486144363" x2="281.14754098360663" y2="197.86395486144363" stroke-dasharray="1,0.5" stroke="#333c"/>
<line x1="265.7377049180328" y1="214.76547207131358" x2="281.14754098360663" y2="214.76547207131358" stroke-dasharray="1,0.5" stroke="#333c"/>
<line x1="273.4426229508197" y1="197.86395486144363" x2="273.4426229508197" y2="214.76547207131358" stroke-dasharray="1,0.5" stroke="#333c"/>
<rect x="281.14754098360663" y="209.25370270927164" width="15.40983606557377" height="288.7462972907283" fill="#DC267F" data-tooltip="1.68x baseline (YJIT 3.5.0dev)"/>
<line x1="281.14754098360663" y1="200.8554283670477" x2="296.5573770491804" y2="200.8554283670477" stroke-dasharray="1,0.5" stroke="#333c"/>
<line x1="281.14754098360663" y1="217.65197705149555" x2="296.5573770491804" y2="217.65197705149555" stroke-dasharray="1,0.5" stroke="#333c"/>
<line x1="288.8524590163935" y1="200.8554283670477" x2="288.8524590163935" y2="217.65197705149555" stroke-dasharray="1,0.5" stroke="#333c"/>
<line x1="273.4426229508197" y1="498.0" x2="273.4426229508197" y2="502.79999999999995" stroke="#000"/>
<text x="273.4426229508197" y="512.4" fill="#111" font-size="small" text-anchor="end" transform="rotate(-60, 273.4426229508197, 512.4)">
hexapdf
</text>
<rect x="311.96721311475414" y="322.9849758799157" width="15.40983606557377" height="175.01502412008432" fill="#785EF0" data-tooltip="1.02x baseline (CRuby 3.5.0dev)"/>
<line x1="311.96721311475414" y1="321.4877548232321" x2="327.37704918032796" y2="321.4877548232321" stroke-dasharray="1,0.5" stroke="#333c"/>
<line x1="311.96721311475414" y1="324.48219693659934" x2="327.37704918032796" y2="324.48219693659934" stroke-dasharray="1,0.5" stroke="#333c"/>
<line x1="319.67213114754105" y1="321.4877548232321" x2="319.67213114754105" y2="324.48219693659934" stroke-dasharray="1,0.5" stroke="#333c"/>
<rect x="327.37704918032796" y="281.2777410975777" width="15.40983606557377" height="216.72225890242225" fill="#FFB000" data-tooltip="1.26x baseline (YJIT 3.3.6)"/>
<line x1="327.37704918032796" y1="279.75390184483484" x2="342.7868852459017" y2="279.75390184483484" stroke-dasharray="1,0.5" stroke="#333c"/>
<line x1="327.37704918032796" y1="282.8015803503205" x2="342.7868852459017" y2="282.8015803503205" stroke-dasharray="1,0.5" stroke="#333c"/>
<line x1="335.08196721311486" y1="279.75390184483484" x2="335.08196721311486" y2="282.8015803503205" stroke-dasharray="1,0.5" stroke="#333c"/>
<rect x="342.7868852459017" y="271.546056786565" width="15.40983606557377" height="226.45394321343494" fill="#DC267F" data-tooltip="1.32x baseline (YJIT 3.5.0dev)"/>
<line x1="342.7868852459017" y1="269.8307115992279" x2="358.1967213114755" y2="269.8307115992279" stroke-dasharray="1,0.5" stroke="#333c"/>
<line x1="342.7868852459017" y1="273.2614019739021" x2="358.1967213114755" y2="273.2614019739021" stroke-dasharray="1,0.5" stroke="#333c"/>
<line x1="350.4918032786886" y1="269.8307115992279" x2="350.4918032786886" y2="273.2614019739021" stroke-dasharray="1,0.5" stroke="#333c"/>
<line x1="335.08196721311486" y1="498.0" x2="335.08196721311486" y2="502.79999999999995" stroke="#000"/>
<text x="335.08196721311486" y="512.4" fill="#111" font-size="small" text-anchor="end" transform="rotate(-60, 335.08196721311486, 512.4)">
liquid-c
</text>
<rect x="373.6065573770493" y="327.0325960635692" width="15.40983606557377" height="170.96740393643074" fill="#785EF0" data-tooltip="1.00x baseline (CRuby 3.5.0dev)"/>
<line x1="373.6065573770493" y1="325.24323861878236" x2="389.01639344262304" y2="325.24323861878236" stroke-dasharray="1,0.5" stroke="#333c"/>
<line x1="373.6065573770493" y1="328.82195350835605" x2="389.01639344262304" y2="328.82195350835605" stroke-dasharray="1,0.5" stroke="#333c"/>
<line x1="381.3114754098362" y1="325.24323861878236" x2="381.3114754098362" y2="328.82195350835605" stroke-dasharray="1,0.5" stroke="#333c"/>
<rect x="389.01639344262304" y="284.8564973260407" width="15.40983606557377" height="213.1435026739592" fill="#FFB000" data-tooltip="1.24x baseline (YJIT 3.3.6)"/>
<line x1="389.01639344262304" y1="283.86141765047836" x2="404.42622950819685" y2="283.86141765047836" stroke-dasharray="1,0.5" stroke="#333c"/>
<line x1="389.01639344262304" y1="285.8515770016031" x2="404.42622950819685" y2="285.8515770016031" stroke-dasharray="1,0.5" stroke="#333c"/>
<line x1="396.72131147540995" y1="283.86141765047836" x2="396.72131147540995" y2="285.8515770016031" stroke-dasharray="1,0.5" stroke="#333c"/>
<rect x="404.42622950819685" y="282.8992378975659" width="15.40983606557377" height="215.10076210243406" fill="#DC267F" data-tooltip="1.25x baseline (YJIT 3.5.0dev)"/>
<line x1="404.42622950819685" y1="282.07991236946077" x2="419.8360655737706" y2="282.07991236946077" stroke-dasharray="1,0.5" stroke="#333c"/>
<line x1="404.42622950819685" y1="283.718563425671" x2="419.8360655737706" y2="283.718563425671" stroke-dasharray="1,0.5" stroke="#333c"/>
<line x1="412.13114754098376" y1="282.07991236946077" x2="412.13114754098376" y2="283.718563425671" stroke-dasharray="1,0.5" stroke="#333c"/>
<line x1="396.72131147540995" y1="498.0" x2="396.72131147540995" y2="502.79999999999995" stroke="#000"/>
<text x="396.72131147540995" y="512.4" fill="#111" font-size="small" text-anchor="end" transform="rotate(-60, 396.72131147540995, 512.4)">
liquid-compile
</text>
<rect x="435.2459016393444" y="328.008963028894" width="15.40983606557377" height="169.99103697110593" fill="#785EF0" data-tooltip="0.99x baseline (CRuby 3.5.0dev)"/>
<line x1="435.2459016393444" y1="327.6792660258389" x2="450.6557377049182" y2="327.6792660258389" stroke-dasharray="1,0.5" stroke="#333c"/>
<line x1="435.2459016393444" y1="328.3386600319491" x2="450.6557377049182" y2="328.3386600319491" stroke-dasharray="1,0.5" stroke="#333c"/>
<line x1="442.9508196721313" y1="327.6792660258389" x2="442.9508196721313" y2="328.3386600319491" stroke-dasharray="1,0.5" stroke="#333c"/>
<rect x="450.6557377049182" y="104.07758605699013" width="15.40983606557377" height="393.9224139430098" fill="#FFB000" data-tooltip="2.30x baseline (YJIT 3.3.6)"/>
<line x1="450.6557377049182" y1="102.95916812141131" x2="466.06557377049194" y2="102.95916812141131" stroke-dasharray="1,0.5" stroke="#333c"/>
<line x1="450.6557377049182" y1="105.19600399256895" x2="466.06557377049194" y2="105.19600399256895" stroke-dasharray="1,0.5" stroke="#333c"/>
<line x1="458.3606557377051" y1="102.95916812141131" x2="458.3606557377051" y2="105.19600399256895" stroke-dasharray="1,0.5" stroke="#333c"/>
<rect x="466.06557377049194" y="105.28975834634994" width="15.40983606557377" height="392.71024165365003" fill="#DC267F" data-tooltip="2.29x baseline (YJIT 3.5.0dev)"/>
<line x1="466.06557377049194" y1="103.98300626339551" x2="481.47540983606575" y2="103.98300626339551" stroke-dasharray="1,0.5" stroke="#333c"/>
<line x1="466.06557377049194" y1="106.59651042930436" x2="481.47540983606575" y2="106.59651042930436" stroke-dasharray="1,0.5" stroke="#333c"/>
<line x1="473.77049180327884" y1="103.98300626339551" x2="473.77049180327884" y2="106.59651042930436" stroke-dasharray="1,0.5" stroke="#333c"/>
<line x1="458.3606557377051" y1="498.0" x2="458.3606557377051" y2="502.79999999999995" stroke="#000"/>
<text x="458.3606557377051" y="512.4" fill="#111" font-size="small" text-anchor="end" transform="rotate(-60, 458.3606557377051, 512.4)">
liquid-render
</text>
<rect x="496.8852459016395" y="321.738690037271" width="15.40983606557377" height="176.26130996272897" fill="#785EF0" data-tooltip="1.03x baseline (CRuby 3.5.0dev)"/>
<line x1="496.8852459016395" y1="319.7159057536189" x2="512.2950819672133" y2="319.7159057536189" stroke-dasharray="1,0.5" stroke="#333c"/>
<line x1="496.8852459016395" y1="323.76147432092307" x2="512.2950819672133" y2="323.76147432092307" stroke-dasharray="1,0.5" stroke="#333c"/>
<line x1="504.59016393442636" y1="319.7159057536189" x2="504.59016393442636" y2="323.76147432092307" stroke-dasharray="1,0.5" stroke="#333c"/>
<rect x="512.2950819672133" y="247.73900370472504" width="15.40983606557377" height="250.2609962952749" fill="#FFB000" data-tooltip="1.46x baseline (YJIT 3.3.6)"/>
<line x1="512.2950819672133" y1="244.63068285759334" x2="527.7049180327871" y2="244.63068285759334" stroke-dasharray="1,0.5" stroke="#333c"/>
<line x1="512.2950819672133" y1="250.84732455185676" x2="527.7049180327871" y2="250.84732455185676" stroke-dasharray="1,0.5" stroke="#333c"/>
<line x1="520.0000000000001" y1="244.63068285759334" x2="520.0000000000001" y2="250.84732455185676" stroke-dasharray="1,0.5" stroke="#333c"/>
<rect x="527.7049180327871" y="249.41580468651415" width="15.40983606557377" height="248.58419531348582" fill="#DC267F" data-tooltip="1.45x baseline (YJIT 3.5.0dev)"/>
<line x1="527.7049180327871" y1="245.2347547644289" x2="543.1147540983609" y2="245.2347547644289" stroke-dasharray="1,0.5" stroke="#333c"/>
<line x1="527.7049180327871" y1="253.59685460859941" x2="543.1147540983609" y2="253.59685460859941" stroke-dasharray="1,0.5" stroke="#333c"/>
<line x1="535.4098360655739" y1="245.2347547644289" x2="535.4098360655739" y2="253.59685460859941" stroke-dasharray="1,0.5" stroke="#333c"/>
<line x1="520.0000000000002" y1="498.0" x2="520.0000000000002" y2="502.79999999999995" stroke="#000"/>
<text x="520.0000000000002" y="512.4" fill="#111" font-size="small" text-anchor="end" transform="rotate(-60, 520.0000000000002, 512.4)">
lobsters
</text>
<rect x="558.5245901639346" y="325.70884034902906" width="15.40983606557377" height="172.29115965097085" fill="#785EF0" data-tooltip="1.00x baseline (CRuby 3.5.0dev)"/>
<line x1="558.5245901639346" y1="325.37486744802186" x2="573.9344262295084" y2="325.37486744802186" stroke-dasharray="1,0.5" stroke="#333c"/>
<line x1="558.5245901639346" y1="326.04281325003626" x2="573.9344262295084" y2="326.04281325003626" stroke-dasharray="1,0.5" stroke="#333c"/>
<line x1="566.2295081967214" y1="325.37486744802186" x2="566.2295081967214" y2="326.04281325003626" stroke-dasharray="1,0.5" stroke="#333c"/>
<rect x="573.9344262295084" y="240.5123665933359" width="15.40983606557377" height="257.48763340666403" fill="#FFB000" data-tooltip="1.50x baseline (YJIT 3.3.6)"/>
<line x1="573.9344262295084" y1="239.59561348135514" x2="589.3442622950822" y2="239.59561348135514" stroke-dasharray="1,0.5" stroke="#333c"/>
<line x1="573.9344262295084" y1="241.4291197053167" x2="589.3442622950822" y2="241.4291197053167" stroke-dasharray="1,0.5" stroke="#333c"/>
<line x1="581.6393442622953" y1="239.59561348135514" x2="581.6393442622953" y2="241.4291197053167" stroke-dasharray="1,0.5" stroke="#333c"/>
<rect x="589.3442622950822" y="250.05696575306163" width="15.40983606557377" height="247.9430342469383" fill="#DC267F" data-tooltip="1.45x baseline (YJIT 3.5.0dev)"/>
<line x1="589.3442622950822" y1="249.43198680538208" x2="604.7540983606559" y2="249.43198680538208" stroke-dasharray="1,0.5" stroke="#333c"/>
<line x1="589.3442622950822" y1="250.68194470074118" x2="604.7540983606559" y2="250.68194470074118" stroke-dasharray="1,0.5" stroke="#333c"/>
<line x1="597.0491803278691" y1="249.43198680538208" x2="597.0491803278691" y2="250.68194470074118" stroke-dasharray="1,0.5" stroke="#333c"/>
<line x1="581.6393442622954" y1="498.0" x2="581.6393442622954" y2="502.79999999999995" stroke="#000"/>
<text x="581.6393442622954" y="512.4" fill="#111" font-size="small" text-anchor="end" transform="rotate(-60, 581.6393442622954, 512.4)">
mail
</text>
<rect x="620.1639344262297" y="333.61386435349704" width="15.40983606557377" height="164.38613564650288" fill="#785EF0" data-tooltip="0.96x baseline (CRuby 3.5.0dev)"/>
<line x1="620.1639344262297" y1="333.4319959615486" x2="635.5737704918035" y2="333.4319959615486" stroke-dasharray="1,0.5" stroke="#333c"/>
<line x1="620.1639344262297" y1="333.7957327454455" x2="635.5737704918035" y2="333.7957327454455" stroke-dasharray="1,0.5" stroke="#333c"/>
<line x1="627.8688524590166" y1="333.4319959615486" x2="627.8688524590166" y2="333.7957327454455" stroke-dasharray="1,0.5" stroke="#333c"/>
<rect x="635.5737704918035" y="221.43108474866315" width="15.40983606557377" height="276.56891525133676" fill="#FFB000" data-tooltip="1.61x baseline (YJIT 3.3.6)"/>
<line x1="635.5737704918035" y1="221.1964628520098" x2="650.9836065573774" y2="221.1964628520098" stroke-dasharray="1,0.5" stroke="#333c"/>
<line x1="635.5737704918035" y1="221.6657066453165" x2="650.9836065573774" y2="221.6657066453165" stroke-dasharray="1,0.5" stroke="#333c"/>
<line x1="643.2786885245904" y1="221.1964628520098" x2="643.2786885245904" y2="221.6657066453165" stroke-dasharray="1,0.5" stroke="#333c"/>
<rect x="650.9836065573774" y="198.49052438450806" width="15.40983606557377" height="299.50947561549185" fill="#DC267F" data-tooltip="1.75x baseline (YJIT 3.5.0dev)"/>
<line x1="650.9836065573774" y1="198.23990251200135" x2="666.393442622951" y2="198.23990251200135" stroke-dasharray="1,0.5" stroke="#333c"/>
<line x1="650.9836065573774" y1="198.7411462570148" x2="666.393442622951" y2="198.7411462570148" stroke-dasharray="1,0.5" stroke="#333c"/>
<line x1="658.6885245901641" y1="198.23990251200135" x2="658.6885245901641" y2="198.7411462570148" stroke-dasharray="1,0.5" stroke="#333c"/>
<line x1="643.2786885245905" y1="498.0" x2="643.2786885245905" y2="502.79999999999995" stroke="#000"/>
<text x="643.2786885245905" y="512.4" fill="#111" font-size="small" text-anchor="end" transform="rotate(-60, 643.2786885245905, 512.4)">
psych-load
</text>
<rect x="681.8032786885249" y="321.76862175929784" width="15.40983606557377" height="176.23137824070218" fill="#785EF0" data-tooltip="1.03x baseline (CRuby 3.5.0dev)"/>
<line x1="681.8032786885249" y1="321.61994749088814" x2="697.2131147540987" y2="321.61994749088814" stroke-dasharray="1,0.5" stroke="#333c"/>
<line x1="681.8032786885249" y1="321.9172960277075" x2="697.2131147540987" y2="321.9172960277075" stroke-dasharray="1,0.5" stroke="#333c"/>
<line x1="689.5081967213117" y1="321.61994749088814" x2="689.5081967213117" y2="321.9172960277075" stroke-dasharray="1,0.5" stroke="#333c"/>
<rect x="697.2131147540987" y="233.4255352365701" width="15.40983606557377" height="264.57446476342983" fill="#FFB000" data-tooltip="1.54x baseline (YJIT 3.3.6)"/>
<line x1="697.2131147540987" y1="231.69128268645397" x2="712.6229508196724" y2="231.69128268645397" stroke-dasharray="1,0.5" stroke="#333c"/>
<line x1="697.2131147540987" y1="235.15978778668622" x2="712.6229508196724" y2="235.15978778668622" stroke-dasharray="1,0.5" stroke="#333c"/>
<line x1="704.9180327868854" y1="231.69128268645397" x2="704.9180327868854" y2="235.15978778668622" stroke-dasharray="1,0.5" stroke="#333c"/>
<rect x="712.6229508196724" y="207.07082131404934" width="15.40983606557377" height="290.9291786859506" fill="#DC267F" data-tooltip="1.70x baseline (YJIT 3.5.0dev)"/>
<line x1="712.6229508196724" y1="202.0679393235333" x2="728.0327868852462" y2="202.0679393235333" stroke-dasharray="1,0.5" stroke="#333c"/>
<line x1="712.6229508196724" y1="212.07370330456538" x2="728.0327868852462" y2="212.07370330456538" stroke-dasharray="1,0.5" stroke="#333c"/>
<line x1="720.3278688524592" y1="202.0679393235333" x2="720.3278688524592" y2="212.07370330456538" stroke-dasharray="1,0.5" stroke="#333c"/>
<line x1="704.9180327868855" y1="498.0" x2="704.9180327868855" y2="502.79999999999995" stroke="#000"/>
<text x="704.9180327868855" y="512.4" fill="#111" font-size="small" text-anchor="end" transform="rotate(-60, 704.9180327868855, 512.4)">
railsbench
</text>
<rect x="743.44262295082" y="328.85613503324885" width="15.40983606557377" height="169.14386496675104" fill="#785EF0" data-tooltip="0.99x baseline (CRuby 3.5.0dev)"/>
<line x1="743.44262295082" y1="327.8268893948744" x2="758.8524590163937" y2="327.8268893948744" stroke-dasharray="1,0.5" stroke="#333c"/>
<line x1="743.44262295082" y1="329.8853806716233" x2="758.8524590163937" y2="329.8853806716233" stroke-dasharray="1,0.5" stroke="#333c"/>
<line x1="751.1475409836069" y1="327.8268893948744" x2="751.1475409836069" y2="329.8853806716233" stroke-dasharray="1,0.5" stroke="#333c"/>
<rect x="758.8524590163937" y="218.29807852334812" width="15.40983606557377" height="279.7019214766518" fill="#FFB000" data-tooltip="1.63x baseline (YJIT 3.3.6)"/>
<line x1="758.8524590163937" y1="216.27680758925106" x2="774.2622950819675" y2="216.27680758925106" stroke-dasharray="1,0.5" stroke="#333c"/>
<line x1="758.8524590163937" y1="220.31934945744516" x2="774.2622950819675" y2="220.31934945744516" stroke-dasharray="1,0.5" stroke="#333c"/>
<line x1="766.5573770491806" y1="216.27680758925106" x2="766.5573770491806" y2="220.31934945744516" stroke-dasharray="1,0.5" stroke="#333c"/>
<rect x="774.2622950819675" y="228.35236326517412" width="15.40983606557377" height="269.6476367348258" fill="#DC267F" data-tooltip="1.57x baseline (YJIT 3.5.0dev)"/>
<line x1="774.2622950819675" y1="226.16351810941504" x2="789.6721311475413" y2="226.16351810941504" stroke-dasharray="1,0.5" stroke="#333c"/>
<line x1="774.2622950819675" y1="230.5412084209332" x2="789.6721311475413" y2="230.5412084209332" stroke-dasharray="1,0.5" stroke="#333c"/>
<line x1="781.9672131147544" y1="226.16351810941504" x2="781.9672131147544" y2="230.5412084209332" stroke-dasharray="1,0.5" stroke="#333c"/>
<line x1="766.5573770491807" y1="498.0" x2="766.5573770491807" y2="502.79999999999995" stroke="#000"/>
<text x="766.5573770491807" y="512.4" fill="#111" font-size="small" text-anchor="end" transform="rotate(-60, 766.5573770491807, 512.4)">
rubocop
</text>
<rect x="805.081967213115" y="306.8612467593813" width="15.40983606557377" height="191.1387532406186" fill="#785EF0" data-tooltip="1.11x baseline (CRuby 3.5.0dev)"/>
<line x1="805.081967213115" y1="306.57263125193987" x2="820.4918032786888" y2="306.57263125193987" stroke-dasharray="1,0.5" stroke="#333c"/>
<line x1="805.081967213115" y1="307.14986226682277" x2="820.4918032786888" y2="307.14986226682277" stroke-dasharray="1,0.5" stroke="#333c"/>
<line x1="812.7868852459019" y1="306.57263125193987" x2="812.7868852459019" y2="307.14986226682277" stroke-dasharray="1,0.5" stroke="#333c"/>
<rect x="820.4918032786888" y="194.89546604142672" width="15.40983606557377" height="303.10453395857326" fill="#FFB000" data-tooltip="1.77x baseline (YJIT 3.3.6)"/>
<line x1="820.4918032786888" y1="192.509182339479" x2="835.9016393442627" y2="192.509182339479" stroke-dasharray="1,0.5" stroke="#333c"/>
<line x1="820.4918032786888" y1="197.2817497433744" x2="835.9016393442627" y2="197.2817497433744" stroke-dasharray="1,0.5" stroke="#333c"/>
<line x1="828.1967213114757" y1="192.509182339479" x2="828.1967213114757" y2="197.2817497433744" stroke-dasharray="1,0.5" stroke="#333c"/>
<rect x="835.9016393442627" y="168.91394249526255" width="15.40983606557377" height="329.0860575047374" fill="#DC267F" data-tooltip="1.92x baseline (YJIT 3.5.0dev)"/>
<line x1="835.9016393442627" y1="168.39205422383816" x2="851.3114754098365" y2="168.39205422383816" stroke-dasharray="1,0.5" stroke="#333c"/>
<line x1="835.9016393442627" y1="169.4358307666869" x2="851.3114754098365" y2="169.4358307666869" stroke-dasharray="1,0.5" stroke="#333c"/>
<line x1="843.6065573770495" y1="168.39205422383816" x2="843.6065573770495" y2="169.4358307666869" stroke-dasharray="1,0.5" stroke="#333c"/>
<line x1="828.1967213114758" y1="498.0" x2="828.1967213114758" y2="502.79999999999995" stroke="#000"/>
<text x="828.1967213114758" y="512.4" fill="#111" font-size="small" text-anchor="end" transform="rotate(-60, 828.1967213114758, 512.4)">
ruby-lsp
</text>
<rect x="866.7213114754102" y="328.28506157520366" width="15.40983606557377" height="169.71493842479632" fill="#785EF0" data-tooltip="0.99x baseline (CRuby 3.5.0dev)"/>
<line x1="866.7213114754102" y1="327.17717000522754" x2="882.131147540984" y2="327.17717000522754" stroke-dasharray="1,0.5" stroke="#333c"/>
<line x1="866.7213114754102" y1="329.3929531451798" x2="882.131147540984" y2="329.3929531451798" stroke-dasharray="1,0.5" stroke="#333c"/>
<line x1="874.426229508197" y1="327.17717000522754" x2="874.426229508197" y2="329.3929531451798" stroke-dasharray="1,0.5" stroke="#333c"/>
<rect x="882.131147540984" y="291.4921916537864" width="15.40983606557377" height="206.50780834621355" fill="#FFB000" data-tooltip="1.20x baseline (YJIT 3.3.6)"/>
<line x1="882.131147540984" y1="290.26888964837156" x2="897.5409836065578" y2="290.26888964837156" stroke-dasharray="1,0.5" stroke="#333c"/>
<line x1="882.131147540984" y1="292.71549365920123" x2="897.5409836065578" y2="292.71549365920123" stroke-dasharray="1,0.5" stroke="#333c"/>
<line x1="889.8360655737708" y1="290.26888964837156" x2="889.8360655737708" y2="292.71549365920123" stroke-dasharray="1,0.5" stroke="#333c"/>
<rect x="897.5409836065578" y="294.19167448572335" width="15.40983606557377" height="203.8083255142766" fill="#DC267F" data-tooltip="1.19x baseline (YJIT 3.5.0dev)"/>
<line x1="897.5409836065578" y1="293.1885160764121" x2="912.9508196721315" y2="293.1885160764121" stroke-dasharray="1,0.5" stroke="#333c"/>
<line x1="897.5409836065578" y1="295.1948328950346" x2="912.9508196721315" y2="295.1948328950346" stroke-dasharray="1,0.5" stroke="#333c"/>
<line x1="905.2459016393447" y1="293.1885160764121" x2="905.2459016393447" y2="295.1948328950346" stroke-dasharray="1,0.5" stroke="#333c"/>
<line x1="889.836065573771" y1="498.0" x2="889.836065573771" y2="502.79999999999995" stroke="#000"/>
<text x="889.836065573771" y="512.4" fill="#111" font-size="small" text-anchor="end" transform="rotate(-60, 889.836065573771, 512.4)">
sequel
</text>
<rect x="928.3606557377053" y="324.8683925011232" width="15.40983606557377" height="173.1316074988768" fill="#785EF0" data-tooltip="1.01x baseline (CRuby 3.5.0dev)"/>
<rect x="943.7704918032791" y="226.51944972573207" width="15.40983606557377" height="271.48055027426784" fill="#FFB000" data-tooltip="1.58x baseline (YJIT 3.3.6)"/>
<rect x="959.1803278688528" y="216.5432619349302" width="15.40983606557377" height="281.45673806506977" fill="#DC267F" data-tooltip="1.64x baseline (YJIT 3.5.0dev)"/>
<line x1="951.4754098360661" y1="498.0" x2="951.4754098360661" y2="502.79999999999995" stroke="#000"/>
<text x="951.4754098360661" y="512.4" fill="#111" font-size="small" text-anchor="end" transform="rotate(-60, 951.4754098360661, 512.4)" font-style="italic">
geomean*
</text>
<line x1="50.0" y1="326.55210044208934" x2="990.0" y2="326.55210044208934" stroke="#648FFF" stroke-width="2"/>
<rect x="67.23483606557377" y="311.1653972371281" width="17.85" height="7.2" transform="rotate(-60, 75.11475409836066, 317.82539723712813)" fill="#fffa"/>
<text x="67.40983606557377" y="317.82539723712813" fill="#111" font-size="0.5em" text-anchor="start" textLength="17.5" transform="rotate(-60, 75.11475409836066, 317.82539723712813)" style="text-shadow: 0 0 1px #fff;">
1.01
</text>
<rect x="82.64467213114754" y="126.73052039638254" width="17.85" height="7.2" transform="rotate(-60, 90.52459016393442, 133.39052039638256)" fill="#fffa"/>
<text x="82.81967213114753" y="133.39052039638256" fill="#111" font-size="0.5em" text-anchor="start" textLength="17.5" transform="rotate(-60, 90.52459016393442, 133.39052039638256)" style="text-shadow: 0 0 1px #fff;">
2.08
</text>
<rect x="98.0545081967213" y="135.26504887205203" width="17.85" height="7.2" transform="rotate(-60, 105.93442622950819, 141.92504887205206)" fill="#fffa"/>
<text x="98.2295081967213" y="141.92504887205206" fill="#111" font-size="0.5em" text-anchor="start" textLength="17.5" transform="rotate(-60, 105.93442622950819, 141.92504887205206)" style="text-shadow: 0 0 1px #fff;">
2.03
</text>
<rect x="128.87418032786883" y="312.95222288156873" width="17.85" height="7.2" transform="rotate(-60, 136.75409836065572, 319.6122228815687)" fill="#fffa"/>
<text x="129.04918032786884" y="319.6122228815687" fill="#111" font-size="0.5em" text-anchor="start" textLength="17.5" transform="rotate(-60, 136.75409836065572, 319.6122228815687)" style="text-shadow: 0 0 1px #fff;">
1.00
</text>
<rect x="144.2840163934426" y="181.5231697254733" width="17.85" height="7.2" transform="rotate(-60, 152.1639344262295, 188.18316972547333)" fill="#fffa"/>
<text x="144.4590163934426" y="188.18316972547333" fill="#111" font-size="0.5em" text-anchor="start" textLength="17.5" transform="rotate(-60, 152.1639344262295, 188.18316972547333)" style="text-shadow: 0 0 1px #fff;">
1.76
</text>
<rect x="159.69385245901637" y="86.03999999999998" width="17.85" height="7.2" transform="rotate(-60, 167.5737704918033, 92.69999999999999)" fill="#fffa"/>
<text x="159.86885245901638" y="92.69999999999999" fill="#111" font-size="0.5em" text-anchor="start" textLength="17.5" transform="rotate(-60, 167.5737704918033, 92.69999999999999)" style="text-shadow: 0 0 1px #fff;">
2.32
</text>
<rect x="190.51352459016394" y="313.55221558931544" width="17.85" height="7.2" transform="rotate(-60, 198.39344262295083, 320.21221558931546)" fill="#fffa"/>
<text x="190.68852459016395" y="320.21221558931546" fill="#111" font-size="0.5em" text-anchor="start" textLength="17.5" transform="rotate(-60, 198.39344262295083, 320.21221558931546)" style="text-shadow: 0 0 1px #fff;">
0.99
</text>
<rect x="205.92336065573772" y="234.12055724755325" width="17.85" height="7.2" transform="rotate(-60, 213.8032786885246, 240.78055724755328)" fill="#fffa"/>
<text x="206.09836065573774" y="240.78055724755328" fill="#111" font-size="0.5em" text-anchor="start" textLength="17.5" transform="rotate(-60, 213.8032786885246, 240.78055724755328)" style="text-shadow: 0 0 1px #fff;">
1.46
</text>
<rect x="221.33319672131148" y="220.66758533706056" width="17.85" height="7.2" transform="rotate(-60, 229.2131147540984, 227.32758533706055)" fill="#fffa"/>
<text x="221.5081967213115" y="227.32758533706055" fill="#111" font-size="0.5em" text-anchor="start" textLength="17.5" transform="rotate(-60, 229.2131147540984, 227.32758533706055)" style="text-shadow: 0 0 1px #fff;">
1.53
</text>
<rect x="252.15286885245908" y="307.6270002082144" width="17.85" height="7.2" transform="rotate(-60, 260.03278688524597, 314.2870002082144)" fill="#fffa"/>
<text x="252.32786885245906" y="314.2870002082144" fill="#111" font-size="0.5em" text-anchor="start" textLength="17.5" transform="rotate(-60, 260.03278688524597, 314.2870002082144)" style="text-shadow: 0 0 1px #fff;">
1.03
</text>
<rect x="267.56270491803286" y="192.15471346637858" width="17.85" height="7.2" transform="rotate(-60, 275.4426229508197, 198.81471346637858)" fill="#fffa"/>
<text x="267.7377049180328" y="198.81471346637858" fill="#111" font-size="0.5em" text-anchor="start" textLength="17.5" transform="rotate(-60, 275.4426229508197, 198.81471346637858)" style="text-shadow: 0 0 1px #fff;">
1.70
</text>
<rect x="282.9725409836066" y="195.0937027092716" width="17.85" height="7.2" transform="rotate(-60, 290.8524590163935, 201.7537027092716)" fill="#fffa"/>
<text x="283.14754098360663" y="201.7537027092716" fill="#111" font-size="0.5em" text-anchor="start" textLength="17.5" transform="rotate(-60, 290.8524590163935, 201.7537027092716)" style="text-shadow: 0 0 1px #fff;">
1.68
</text>
<rect x="313.7922131147542" y="308.8249758799157" width="17.85" height="7.2" transform="rotate(-60, 321.67213114754105, 315.48497587991574)" fill="#fffa"/>
<text x="313.96721311475414" y="315.48497587991574" fill="#111" font-size="0.5em" text-anchor="start" textLength="17.5" transform="rotate(-60, 321.67213114754105, 315.48497587991574)" style="text-shadow: 0 0 1px #fff;">
1.02
</text>
<rect x="329.20204918032795" y="267.11774109757766" width="17.85" height="7.2" transform="rotate(-60, 337.08196721311486, 273.7777410975777)" fill="#fffa"/>
<text x="329.37704918032796" y="273.7777410975777" fill="#111" font-size="0.5em" text-anchor="start" textLength="17.5" transform="rotate(-60, 337.08196721311486, 273.7777410975777)" style="text-shadow: 0 0 1px #fff;">
1.26
</text>
<rect x="344.61188524590176" y="257.386056786565" width="17.85" height="7.2" transform="rotate(-60, 352.4918032786886, 264.046056786565)" fill="#fffa"/>
<text x="344.7868852459017" y="264.046056786565" fill="#111" font-size="0.5em" text-anchor="start" textLength="17.5" transform="rotate(-60, 352.4918032786886, 264.046056786565)" style="text-shadow: 0 0 1px #fff;">
1.32
</text>
<rect x="375.43155737704933" y="312.87259606356923" width="17.85" height="7.2" transform="rotate(-60, 383.3114754098362, 319.53259606356926)" fill="#fffa"/>
<text x="375.6065573770493" y="319.53259606356926" fill="#111" font-size="0.5em" text-anchor="start" textLength="17.5" transform="rotate(-60, 383.3114754098362, 319.53259606356926)" style="text-shadow: 0 0 1px #fff;">
1.00
</text>
<rect x="390.8413934426231" y="270.69649732604074" width="17.85" height="7.2" transform="rotate(-60, 398.72131147540995, 277.3564973260407)" fill="#fffa"/>
<text x="391.01639344262304" y="277.3564973260407" fill="#111" font-size="0.5em" text-anchor="start" textLength="17.5" transform="rotate(-60, 398.72131147540995, 277.3564973260407)" style="text-shadow: 0 0 1px #fff;">
1.24
</text>
<rect x="406.25122950819684" y="268.7392378975659" width="17.85" height="7.2" transform="rotate(-60, 414.13114754098376, 275.3992378975659)" fill="#fffa"/>
<text x="406.42622950819685" y="275.3992378975659" fill="#111" font-size="0.5em" text-anchor="start" textLength="17.5" transform="rotate(-60, 414.13114754098376, 275.3992378975659)" style="text-shadow: 0 0 1px #fff;">
1.25
</text>
<rect x="437.0709016393444" y="313.84896302889405" width="17.85" height="7.2" transform="rotate(-60, 444.9508196721313, 320.508963028894)" fill="#fffa"/>
<text x="437.2459016393444" y="320.508963028894" fill="#111" font-size="0.5em" text-anchor="start" textLength="17.5" transform="rotate(-60, 444.9508196721313, 320.508963028894)" style="text-shadow: 0 0 1px #fff;">
0.99
</text>
<rect x="452.4807377049182" y="89.91758605699012" width="17.85" height="7.2" transform="rotate(-60, 460.3606557377051, 96.57758605699013)" fill="#fffa"/>
<text x="452.6557377049182" y="96.57758605699013" fill="#111" font-size="0.5em" text-anchor="start" textLength="17.5" transform="rotate(-60, 460.3606557377051, 96.57758605699013)" style="text-shadow: 0 0 1px #fff;">
2.30
</text>
<rect x="467.890573770492" y="91.12975834634993" width="17.85" height="7.2" transform="rotate(-60, 475.77049180327884, 97.78975834634993)" fill="#fffa"/>
<text x="468.06557377049194" y="97.78975834634993" fill="#111" font-size="0.5em" text-anchor="start" textLength="17.5" transform="rotate(-60, 475.77049180327884, 97.78975834634993)" style="text-shadow: 0 0 1px #fff;">
2.29
</text>
<rect x="498.71024590163955" y="307.57869003727103" width="17.85" height="7.2" transform="rotate(-60, 506.59016393442636, 314.238690037271)" fill="#fffa"/>
<text x="498.8852459016395" y="314.238690037271" fill="#111" font-size="0.5em" text-anchor="start" textLength="17.5" transform="rotate(-60, 506.59016393442636, 314.238690037271)" style="text-shadow: 0 0 1px #fff;">
1.03
</text>
<rect x="514.1200819672133" y="233.57900370472504" width="17.85" height="7.2" transform="rotate(-60, 522.0000000000001, 240.23900370472504)" fill="#fffa"/>
<text x="514.2950819672133" y="240.23900370472504" fill="#111" font-size="0.5em" text-anchor="start" textLength="17.5" transform="rotate(-60, 522.0000000000001, 240.23900370472504)" style="text-shadow: 0 0 1px #fff;">
1.46
</text>
<rect x="529.529918032787" y="235.25580468651415" width="17.85" height="7.2" transform="rotate(-60, 537.4098360655739, 241.91580468651415)" fill="#fffa"/>
<text x="529.7049180327871" y="241.91580468651415" fill="#111" font-size="0.5em" text-anchor="start" textLength="17.5" transform="rotate(-60, 537.4098360655739, 241.91580468651415)" style="text-shadow: 0 0 1px #fff;">
1.45
</text>
<rect x="560.3495901639346" y="311.5488403490291" width="17.85" height="7.2" transform="rotate(-60, 568.2295081967214, 318.20884034902906)" fill="#fffa"/>
<text x="560.5245901639346" y="318.20884034902906" fill="#111" font-size="0.5em" text-anchor="start" textLength="17.5" transform="rotate(-60, 568.2295081967214, 318.20884034902906)" style="text-shadow: 0 0 1px #fff;">
1.00
</text>
<rect x="575.7594262295083" y="226.35236659333592" width="17.85" height="7.2" transform="rotate(-60, 583.6393442622953, 233.0123665933359)" fill="#fffa"/>
<text x="575.9344262295084" y="233.0123665933359" fill="#111" font-size="0.5em" text-anchor="start" textLength="17.5" transform="rotate(-60, 583.6393442622953, 233.0123665933359)" style="text-shadow: 0 0 1px #fff;">
1.50
</text>
<rect x="591.1692622950821" y="235.89696575306164" width="17.85" height="7.2" transform="rotate(-60, 599.0491803278691, 242.55696575306163)" fill="#fffa"/>
<text x="591.3442622950822" y="242.55696575306163" fill="#111" font-size="0.5em" text-anchor="start" textLength="17.5" transform="rotate(-60, 599.0491803278691, 242.55696575306163)" style="text-shadow: 0 0 1px #fff;">
1.45
</text>
<rect x="621.9889344262297" y="319.45386435349707" width="17.85" height="7.2" transform="rotate(-60, 629.8688524590166, 326.11386435349704)" fill="#fffa"/>
<text x="622.1639344262297" y="326.11386435349704" fill="#111" font-size="0.5em" text-anchor="start" textLength="17.5" transform="rotate(-60, 629.8688524590166, 326.11386435349704)" style="text-shadow: 0 0 1px #fff;">
0.96
</text>
<rect x="637.3987704918035" y="207.27108474866316" width="17.85" height="7.2" transform="rotate(-60, 645.2786885245904, 213.93108474866315)" fill="#fffa"/>
<text x="637.5737704918035" y="213.93108474866315" fill="#111" font-size="0.5em" text-anchor="start" textLength="17.5" transform="rotate(-60, 645.2786885245904, 213.93108474866315)" style="text-shadow: 0 0 1px #fff;">
1.61
</text>
<rect x="652.8086065573773" y="184.33052438450807" width="17.85" height="7.2" transform="rotate(-60, 660.6885245901641, 190.99052438450806)" fill="#fffa"/>
<text x="652.9836065573774" y="190.99052438450806" fill="#111" font-size="0.5em" text-anchor="start" textLength="17.5" transform="rotate(-60, 660.6885245901641, 190.99052438450806)" style="text-shadow: 0 0 1px #fff;">
1.75
</text>
<rect x="683.6282786885248" y="307.6086217592979" width="17.85" height="7.2" transform="rotate(-60, 691.5081967213117, 314.26862175929784)" fill="#fffa"/>
<text x="683.8032786885249" y="314.26862175929784" fill="#111" font-size="0.5em" text-anchor="start" textLength="17.5" transform="rotate(-60, 691.5081967213117, 314.26862175929784)" style="text-shadow: 0 0 1px #fff;">
1.03
</text>
<rect x="699.0381147540986" y="219.2655352365701" width="17.85" height="7.2" transform="rotate(-60, 706.9180327868854, 225.92553523657008)" fill="#fffa"/>
<text x="699.2131147540987" y="225.92553523657008" fill="#111" font-size="0.5em" text-anchor="start" textLength="17.5" transform="rotate(-60, 706.9180327868854, 225.92553523657008)" style="text-shadow: 0 0 1px #fff;">
1.54
</text>
<rect x="714.4479508196724" y="192.91082131404934" width="17.85" height="7.2" transform="rotate(-60, 722.3278688524592, 199.57082131404934)" fill="#fffa"/>
<text x="714.6229508196724" y="199.57082131404934" fill="#111" font-size="0.5em" text-anchor="start" textLength="17.5" transform="rotate(-60, 722.3278688524592, 199.57082131404934)" style="text-shadow: 0 0 1px #fff;">
1.70
</text>
<rect x="745.2676229508199" y="314.6961350332489" width="17.85" height="7.2" transform="rotate(-60, 753.1475409836069, 321.35613503324885)" fill="#fffa"/>
<text x="745.44262295082" y="321.35613503324885" fill="#111" font-size="0.5em" text-anchor="start" textLength="17.5" transform="rotate(-60, 753.1475409836069, 321.35613503324885)" style="text-shadow: 0 0 1px #fff;">
0.99
</text>
<rect x="760.6774590163938" y="204.1380785233481" width="17.85" height="7.2" transform="rotate(-60, 768.5573770491806, 210.7980785233481)" fill="#fffa"/>
<text x="760.8524590163937" y="210.7980785233481" fill="#111" font-size="0.5em" text-anchor="start" textLength="17.5" transform="rotate(-60, 768.5573770491806, 210.7980785233481)" style="text-shadow: 0 0 1px #fff;">
1.63
</text>
<rect x="776.0872950819675" y="214.19236326517412" width="17.85" height="7.2" transform="rotate(-60, 783.9672131147544, 220.85236326517412)" fill="#fffa"/>
<text x="776.2622950819675" y="220.85236326517412" fill="#111" font-size="0.5em" text-anchor="start" textLength="17.5" transform="rotate(-60, 783.9672131147544, 220.85236326517412)" style="text-shadow: 0 0 1px #fff;">
1.57
</text>
<rect x="806.9069672131151" y="292.7012467593813" width="17.85" height="7.2" transform="rotate(-60, 814.7868852459019, 299.3612467593813)" fill="#fffa"/>
<text x="807.0819672131151" y="299.3612467593813" fill="#111" font-size="0.5em" text-anchor="start" textLength="17.5" transform="rotate(-60, 814.7868852459019, 299.3612467593813)" style="text-shadow: 0 0 1px #fff;">
1.11
</text>
<rect x="822.3168032786888" y="180.7354660414267" width="17.85" height="7.2" transform="rotate(-60, 830.1967213114757, 187.3954660414267)" fill="#fffa"/>
<text x="822.4918032786888" y="187.3954660414267" fill="#111" font-size="0.5em" text-anchor="start" textLength="17.5" transform="rotate(-60, 830.1967213114757, 187.3954660414267)" style="text-shadow: 0 0 1px #fff;">
1.77
</text>
<rect x="837.7266393442626" y="154.75394249526252" width="17.85" height="7.2" transform="rotate(-60, 845.6065573770495, 161.41394249526252)" fill="#fffa"/>
<text x="837.9016393442627" y="161.41394249526252" fill="#111" font-size="0.5em" text-anchor="start" textLength="17.5" transform="rotate(-60, 845.6065573770495, 161.41394249526252)" style="text-shadow: 0 0 1px #fff;">
1.92
</text>
<rect x="868.5463114754102" y="314.1250615752037" width="17.85" height="7.2" transform="rotate(-60, 876.426229508197, 320.78506157520366)" fill="#fffa"/>
<text x="868.7213114754102" y="320.78506157520366" fill="#111" font-size="0.5em" text-anchor="start" textLength="17.5" transform="rotate(-60, 876.426229508197, 320.78506157520366)" style="text-shadow: 0 0 1px #fff;">
0.99
</text>
<rect x="883.9561475409839" y="277.33219165378637" width="17.85" height="7.2" transform="rotate(-60, 891.8360655737708, 283.9921916537864)" fill="#fffa"/>
<text x="884.131147540984" y="283.9921916537864" fill="#111" font-size="0.5em" text-anchor="start" textLength="17.5" transform="rotate(-60, 891.8360655737708, 283.9921916537864)" style="text-shadow: 0 0 1px #fff;">
1.20
</text>
<rect x="899.3659836065577" y="280.03167448572333" width="17.85" height="7.2" transform="rotate(-60, 907.2459016393447, 286.69167448572335)" fill="#fffa"/>
<text x="899.5409836065578" y="286.69167448572335" fill="#111" font-size="0.5em" text-anchor="start" textLength="17.5" transform="rotate(-60, 907.2459016393447, 286.69167448572335)" style="text-shadow: 0 0 1px #fff;">
1.19
</text>
<rect x="930.1856557377052" y="310.7083925011232" width="17.85" height="7.2" transform="rotate(-60, 938.0655737704922, 317.3683925011232)" fill="#fffa"/>
<text x="930.3606557377053" y="317.3683925011232" fill="#111" font-size="0.5em" text-anchor="start" textLength="17.5" transform="rotate(-60, 938.0655737704922, 317.3683925011232)" style="text-shadow: 0 0 1px #fff;">
1.01
</text>
<rect x="945.5954918032791" y="212.35944972573208" width="17.85" height="7.2" transform="rotate(-60, 953.475409836066, 219.01944972573207)" fill="#fffa"/>
<text x="945.7704918032791" y="219.01944972573207" fill="#111" font-size="0.5em" text-anchor="start" textLength="17.5" transform="rotate(-60, 953.475409836066, 219.01944972573207)" style="text-shadow: 0 0 1px #fff;">
1.58
</text>
<rect x="961.0053278688529" y="202.3832619349302" width="17.85" height="7.2" transform="rotate(-60, 968.8852459016397, 209.0432619349302)" fill="#fffa"/>
<text x="961.1803278688528" y="209.0432619349302" fill="#111" font-size="0.5em" text-anchor="start" textLength="17.5" transform="rotate(-60, 968.8852459016397, 209.0432619349302)" style="text-shadow: 0 0 1px #fff;">
1.64
</text>
</svg>