<svg viewBox="0 0 1000 600" xmlns="http://www.w3.org/2000/svg" xmlns:xlink="http://www.w3.org/1999/xlink" width="100%" height="100%">

<rect x="50.0" y="30.0" width="940.0" height="467.99999999999994" stroke="#000" fill="#EEE"/>
<line x1="42.0" y1="497.9999999999999" x2="50.0" y2="497.9999999999999" stroke="#000"/>
<text x="26.000000000000004" y="497.9999999999999" text-anchor="end" font-weight="bold" font-size="small" fill="#111">
0.0
</text>
<line x1="42.0" y1="455.1108048592727" x2="50.0" y2="455.1108048592727" stroke="#000"/>
<text x="26.000000000000004" y="455.1108048592727" text-anchor="end" font-weight="bold" font-size="small" fill="#111">
0.2
</text>
<line x1="42.0" y1="412.22160971854555" x2="50.0" y2="412.22160971854555" stroke="#000"/>
<text x="26.000000000000004" y="412.22160971854555" text-anchor="end" font-weight="bold" font-size="small" fill="#111">
0.4
</text>
<line x1="42.0" y1="369.33241457781827" x2="50.0" y2="369.33241457781827" stroke="#000"/>
<text x="26.000000000000004" y="369.33241457781827" text-anchor="end" font-weight="bold" font-size="small" fill="#111">
0.6
</text>
<line x1="42.0" y1="326.44321943709105" x2="50.0" y2="326.44321943709105" stroke="#000"/>
<text x="26.000000000000004" y="326.44321943709105" text-anchor="end" font-weight="bold" font-size="small" fill="#111">
0.8
</text>
<line x1="42.0" y1="283.5540242963639" x2="50.0" y2="283.5540242963639" stroke="#000"/>
<text x="26.000000000000004" y="283.5540242963639" text-anchor="end" font-weight="bold" font-size="small" fill="#111">
1.0
</text>
<line x1="42.0" y1="240.6648291556367" x2="50.0" y2="240.6648291556367" stroke="#000"/>
<text x="26.000000000000004" y="240.6648291556367" text-anchor="end" font-weight="bold" font-size="small" fill="#111">
1.2
</text>
<line x1="42.0" y1="197.77563401490954" x2="50.0" y2="197.77563401490954" stroke="#000"/>
<text x="26.000000000000004" y="197.77563401490954" text-anchor="end" font-weight="bold" font-size="small" fill="#111">
1.4
</text>
<line x1="42.0" y1="154.88643887418232" x2="50.0" y2="154.88643887418232" stroke="#000"/>
<text x="26.000000000000004" y="154.88643887418232" text-anchor="end" font-weight="bold" font-size="small" fill="#111">
1.6
</text>
<line x1="42.0" y1="111.99724373345512" x2="50.0" y2="111.99724373345512" stroke="#000"/>
<text x="26.000000000000004" y="111.99724373345512" text-anchor="end" font-weight="bold" font-size="small" fill="#111">
1.8
</text>
<rect x="268.5" y="36.00000000000001" width="80.0" height="18.0" fill="#7070f8" stroke="#888"/>
<text x="308.5" y="52.50000000000001" font-size="small" text-anchor="middle" font-weight="bold" fill="#EEE">
No JIT
</text>
<rect x="691.4999999999999" y="36.00000000000001" width="80.0" height="18.0" fill="orange" stroke="#888"/>
<text x="731.4999999999999" y="52.50000000000001" font-size="small" text-anchor="middle" font-weight="bold" fill="#EEE">
YJIT
</text>
<rect x="97.0" y="283.5540242963639" width="28.2" height="214.44597570363604" fill="#7070f8" data-tooltip="1.00x baseline speed (No JIT)"/>
<line x1="97.0" y1="282.38397686833184" x2="125.2" y2="282.38397686833184" stroke="#000"/>
<line x1="97.0" y1="284.72407172439597" x2="125.2" y2="284.72407172439597" stroke="#000"/>
<line x1="111.10000000000001" y1="282.38397686833184" x2="111.10000000000001" y2="284.72407172439597" stroke="#000"/>
<rect x="125.2" y="101.26755067798399" width="28.2" height="396.73244932201595" fill="orange" data-tooltip="1.85x baseline speed (YJIT)"/>
<line x1="125.2" y1="97.24481912042587" x2="153.4" y2="97.24481912042587" stroke="#000"/>
<line x1="125.2" y1="105.29028223554212" x2="153.4" y2="105.29028223554212" stroke="#000"/>
<line x1="139.3" y1="97.24481912042587" x2="139.3" y2="105.29028223554212" stroke="#000"/>
<line x1="139.3" y1="498.0" x2="139.3" y2="502.79999999999995" stroke="#000"/>
<text x="139.3" y="512.4" fill="#111" font-size="small" font-family="monospace" font-weight="bold" text-anchor="end" transform="rotate(-60, 139.3, 512.4)">
activerecord
</text>
<rect x="181.6" y="283.5540242963639" width="28.2" height="214.44597570363604" fill="#7070f8" data-tooltip="1.00x baseline speed (No JIT)"/>
<line x1="181.6" y1="282.15660127425724" x2="209.79999999999998" y2="282.15660127425724" stroke="#000"/>
<line x1="181.6" y1="284.95144731847057" x2="209.79999999999998" y2="284.95144731847057" stroke="#000"/>
<line x1="195.7" y1="282.15660127425724" x2="195.7" y2="284.95144731847057" stroke="#000"/>
<rect x="209.79999999999998" y="161.13541716391538" width="28.2" height="336.86458283608454" fill="orange" data-tooltip="1.57x baseline speed (YJIT)"/>
<line x1="209.79999999999998" y1="154.2765525522954" x2="238.0" y2="154.2765525522954" stroke="#000"/>
<line x1="209.79999999999998" y1="167.99428177553534" x2="238.0" y2="167.99428177553534" stroke="#000"/>
<line x1="223.89999999999998" y1="154.2765525522954" x2="223.89999999999998" y2="167.99428177553534" stroke="#000"/>
<line x1="223.89999999999998" y1="498.0" x2="223.89999999999998" y2="502.79999999999995" stroke="#000"/>
<text x="223.89999999999998" y="512.4" fill="#111" font-size="small" font-family="monospace" font-weight="bold" text-anchor="end" transform="rotate(-60, 223.89999999999998, 512.4)">
hexapdf
</text>
<rect x="266.2" y="283.5540242963639" width="28.2" height="214.44597570363604" fill="#7070f8" data-tooltip="1.00x baseline speed (No JIT)"/>
<line x1="266.2" y1="280.65466530957207" x2="294.4" y2="280.65466530957207" stroke="#000"/>
<line x1="266.2" y1="286.45338328315574" x2="294.4" y2="286.45338328315574" stroke="#000"/>
<line x1="280.3" y1="280.65466530957207" x2="280.3" y2="286.45338328315574" stroke="#000"/>
<rect x="294.4" y="205.1037371828565" width="28.2" height="292.89626281714345" fill="orange" data-tooltip="1.37x baseline speed (YJIT)"/>
<line x1="294.4" y1="197.9386724902477" x2="322.6" y2="197.9386724902477" stroke="#000"/>
<line x1="294.4" y1="212.26880187546527" x2="322.6" y2="212.26880187546527" stroke="#000"/>
<line x1="308.5" y1="197.9386724902477" x2="308.5" y2="212.26880187546527" stroke="#000"/>
<line x1="308.5" y1="498.0" x2="308.5" y2="502.79999999999995" stroke="#000"/>
<text x="308.5" y="512.4" fill="#111" font-size="small" font-family="monospace" font-weight="bold" text-anchor="end" transform="rotate(-60, 308.5, 512.4)">
liquid-c
</text>
<rect x="350.8" y="283.5540242963639" width="28.2" height="214.44597570363604" fill="#7070f8" data-tooltip="1.00x baseline speed (No JIT)"/>
<line x1="350.8" y1="277.6367799606545" x2="379.0" y2="277.6367799606545" stroke="#000"/>
<line x1="350.8" y1="289.47126863207325" x2="379.0" y2="289.47126863207325" stroke="#000"/>
<line x1="364.9" y1="277.6367799606545" x2="364.9" y2="289.47126863207325" stroke="#000"/>
<rect x="379.0" y="202.0879960885023" width="28.2" height="295.9120039114976" fill="orange" data-tooltip="1.38x baseline speed (YJIT)"/>
<line x1="379.0" y1="185.63638172195792" x2="407.2" y2="185.63638172195792" stroke="#000"/>
<line x1="379.0" y1="218.53961045504673" x2="407.2" y2="218.53961045504673" stroke="#000"/>
<line x1="393.1" y1="185.63638172195792" x2="393.1" y2="218.53961045504673" stroke="#000"/>
<line x1="393.1" y1="498.0" x2="393.1" y2="502.79999999999995" stroke="#000"/>
<text x="393.1" y="512.4" fill="#111" font-size="small" font-family="monospace" font-weight="bold" text-anchor="end" transform="rotate(-60, 393.1, 512.4)">
liquid-compile
</text>
<rect x="435.40000000000003" y="283.5540242963639" width="28.2" height="214.44597570363604" fill="#7070f8" data-tooltip="1.00x baseline speed (No JIT)"/>
<line x1="435.40000000000003" y1="280.8684779130179" x2="463.6" y2="280.8684779130179" stroke="#000"/>
<line x1="435.40000000000003" y1="286.2395706797099" x2="463.6" y2="286.2395706797099" stroke="#000"/>
<line x1="449.5" y1="280.8684779130179" x2="449.5" y2="286.2395706797099" stroke="#000"/>
<rect x="463.6" y="100.19999999999999" width="28.2" height="397.79999999999995" fill="orange" data-tooltip="1.86x baseline speed (YJIT)"/>
<line x1="463.6" y1="89.04032526743919" x2="491.8" y2="89.04032526743919" stroke="#000"/>
<line x1="463.6" y1="111.35967473256079" x2="491.8" y2="111.35967473256079" stroke="#000"/>
<line x1="477.7" y1="89.04032526743919" x2="477.7" y2="111.35967473256079" stroke="#000"/>
<line x1="477.7" y1="498.0" x2="477.7" y2="502.79999999999995" stroke="#000"/>
<text x="477.7" y="512.4" fill="#111" font-size="small" font-family="monospace" font-weight="bold" text-anchor="end" transform="rotate(-60, 477.7, 512.4)">
liquid-render
</text>
<rect x="520.0" y="283.5540242963639" width="28.2" height="214.44597570363604" fill="#7070f8" data-tooltip="1.00x baseline speed (No JIT)"/>
<line x1="520.0" y1="283.2982090117649" x2="548.2" y2="283.2982090117649" stroke="#000"/>
<line x1="520.0" y1="283.8098395809629" x2="548.2" y2="283.8098395809629" stroke="#000"/>
<line x1="534.1" y1="283.2982090117649" x2="534.1" y2="283.8098395809629" stroke="#000"/>
<rect x="548.2" y="215.36169835668179" width="28.2" height="282.63830164331813" fill="orange" data-tooltip="1.32x baseline speed (YJIT)"/>
<line x1="548.2" y1="214.7290502103005" x2="576.4" y2="214.7290502103005" stroke="#000"/>
<line x1="548.2" y1="215.99434650306307" x2="576.4" y2="215.99434650306307" stroke="#000"/>
<line x1="562.3000000000001" y1="214.7290502103005" x2="562.3000000000001" y2="215.99434650306307" stroke="#000"/>
<line x1="562.3000000000001" y1="498.0" x2="562.3000000000001" y2="502.79999999999995" stroke="#000"/>
<text x="562.3000000000001" y="512.4" fill="#111" font-size="small" font-family="monospace" font-weight="bold" text-anchor="end" transform="rotate(-60, 562.3000000000001, 512.4)">
mail
</text>
<rect x="604.5999999999999" y="283.5540242963639" width="28.2" height="214.44597570363604" fill="#7070f8" data-tooltip="1.00x baseline speed (No JIT)"/>
<line x1="604.5999999999999" y1="283.3313797826952" x2="632.8" y2="283.3313797826952" stroke="#000"/>
<line x1="604.5999999999999" y1="283.77666881003256" x2="632.8" y2="283.77666881003256" stroke="#000"/>
<line x1="618.6999999999999" y1="283.3313797826952" x2="618.6999999999999" y2="283.77666881003256" stroke="#000"/>
<rect x="632.8" y="194.47672515916722" width="28.2" height="303.5232748408327" fill="orange" data-tooltip="1.42x baseline speed (YJIT)"/>
<line x1="632.8" y1="194.04203252562417" x2="660.9999999999999" y2="194.04203252562417" stroke="#000"/>
<line x1="632.8" y1="194.9114177927103" x2="660.9999999999999" y2="194.9114177927103" stroke="#000"/>
<line x1="646.8999999999999" y1="194.04203252562417" x2="646.8999999999999" y2="194.9114177927103" stroke="#000"/>
<line x1="646.8999999999999" y1="498.0" x2="646.8999999999999" y2="502.79999999999995" stroke="#000"/>
<text x="646.8999999999999" y="512.4" fill="#111" font-size="small" font-family="monospace" font-weight="bold" text-anchor="end" transform="rotate(-60, 646.8999999999999, 512.4)">
psych-load
</text>
<rect x="689.1999999999999" y="283.5540242963639" width="28.2" height="214.44597570363604" fill="#7070f8" data-tooltip="1.00x baseline speed (No JIT)"/>
<line x1="689.1999999999999" y1="282.1007681349444" x2="717.4" y2="282.1007681349444" stroke="#000"/>
<line x1="689.1999999999999" y1="285.00728045778334" x2="717.4" y2="285.00728045778334" stroke="#000"/>
<line x1="703.3" y1="282.1007681349444" x2="703.3" y2="285.00728045778334" stroke="#000"/>
<rect x="717.4" y="172.1881749049783" width="28.2" height="325.8118250950217" fill="orange" data-tooltip="1.52x baseline speed (YJIT)"/>
<line x1="717.4" y1="167.61691480466445" x2="745.5999999999999" y2="167.61691480466445" stroke="#000"/>
<line x1="717.4" y1="176.75943500529218" x2="745.5999999999999" y2="176.75943500529218" stroke="#000"/>
<line x1="731.4999999999999" y1="167.61691480466445" x2="731.4999999999999" y2="176.75943500529218" stroke="#000"/>
<line x1="731.4999999999999" y1="498.0" x2="731.4999999999999" y2="502.79999999999995" stroke="#000"/>
<text x="731.4999999999999" y="512.4" fill="#111" font-size="small" font-family="monospace" font-weight="bold" text-anchor="end" transform="rotate(-60, 731.4999999999999, 512.4)">
railsbench
</text>
<rect x="773.8" y="283.5540242963639" width="28.2" height="214.44597570363604" fill="#7070f8" data-tooltip="1.00x baseline speed (No JIT)"/>
<line x1="773.8" y1="265.1584633567452" x2="801.9999999999999" y2="265.1584633567452" stroke="#000"/>
<line x1="773.8" y1="301.94958523598257" x2="801.9999999999999" y2="301.94958523598257" stroke="#000"/>
<line x1="787.9" y1="265.1584633567452" x2="787.9" y2="301.94958523598257" stroke="#000"/>
<rect x="801.9999999999999" y="197.62875082986542" width="28.2" height="300.3712491701345" fill="orange" data-tooltip="1.40x baseline speed (YJIT)"/>
<line x1="801.9999999999999" y1="132.9080362663748" x2="830.1999999999999" y2="132.9080362663748" stroke="#000"/>
<line x1="801.9999999999999" y1="262.349465393356" x2="830.1999999999999" y2="262.349465393356" stroke="#000"/>
<line x1="816.0999999999999" y1="132.9080362663748" x2="816.0999999999999" y2="262.349465393356" stroke="#000"/>
<line x1="816.0999999999999" y1="498.0" x2="816.0999999999999" y2="502.79999999999995" stroke="#000"/>
<text x="816.0999999999999" y="512.4" fill="#111" font-size="small" font-family="monospace" font-weight="bold" text-anchor="end" transform="rotate(-60, 816.0999999999999, 512.4)">
ruby-lsp
</text>
<rect x="858.4" y="283.5540242963639" width="28.2" height="214.44597570363604" fill="#7070f8" data-tooltip="1.00x baseline speed (No JIT)"/>
<line x1="858.4" y1="280.7805224155221" x2="886.5999999999999" y2="280.7805224155221" stroke="#000"/>
<line x1="858.4" y1="286.32752617720564" x2="886.5999999999999" y2="286.32752617720564" stroke="#000"/>
<line x1="872.4999999999999" y1="280.7805224155221" x2="872.4999999999999" y2="286.32752617720564" stroke="#000"/>
<rect x="886.5999999999999" y="223.92326097529417" width="28.2" height="274.0767390247058" fill="orange" data-tooltip="1.28x baseline speed (YJIT)"/>
<line x1="886.5999999999999" y1="220.25946302860885" x2="914.8" y2="220.25946302860885" stroke="#000"/>
<line x1="886.5999999999999" y1="227.58705892197952" x2="914.8" y2="227.58705892197952" stroke="#000"/>
<line x1="900.6999999999999" y1="220.25946302860885" x2="900.6999999999999" y2="227.58705892197952" stroke="#000"/>
<line x1="900.6999999999999" y1="498.0" x2="900.6999999999999" y2="502.79999999999995" stroke="#000"/>
<text x="900.6999999999999" y="512.4" fill="#111" font-size="small" font-family="monospace" font-weight="bold" text-anchor="end" transform="rotate(-60, 900.6999999999999, 512.4)">
sequel
</text>
</svg>