<svg viewBox="0 0 1000 600" xmlns="http://www.w3.org/2000/svg" xmlns:xlink="http://www.w3.org/1999/xlink" width="100%" height="100%">

<rect x="50.0" y="30.0" width="940.0" height="467.99999999999994" stroke="#000" fill="#fff"/>
<line x1="42.0" y1="497.9999999999999" x2="50.0" y2="497.9999999999999" stroke="#000"/>
<text x="26.000000000000004" y="497.9999999999999" text-anchor="end" font-weight="bold" font-size="small" fill="#111">
0.0
</text>
<line x1="42.0" y1="443.6358721743746" x2="50.0" y2="443.6358721743746" stroke="#000"/>
<text x="26.000000000000004" y="443.6358721743746" text-anchor="end" font-weight="bold" font-size="small" fill="#111">
0.5
</text>
<line x1="42.0" y1="389.2717443487493" x2="50.0" y2="389.2717443487493" stroke="#000"/>
<text x="26.000000000000004" y="389.2717443487493" text-anchor="end" font-weight="bold" font-size="small" fill="#111">
1.0
</text>
<line x1="42.0" y1="334.9076165231238" x2="50.0" y2="334.9076165231238" stroke="#000"/>
<text x="26.000000000000004" y="334.9076165231238" text-anchor="end" font-weight="bold" font-size="small" fill="#111">
1.5
</text>
<line x1="42.0" y1="280.54348869749845" x2="50.0" y2="280.54348869749845" stroke="#000"/>
<text x="26.000000000000004" y="280.54348869749845" text-anchor="end" font-weight="bold" font-size="small" fill="#111">
2.0
</text>
<line x1="42.0" y1="226.17936087187312" x2="50.0" y2="226.17936087187312" stroke="#000"/>
<text x="26.000000000000004" y="226.17936087187312" text-anchor="end" font-weight="bold" font-size="small" fill="#111">
2.5
</text>
<line x1="42.0" y1="171.81523304624773" x2="50.0" y2="171.81523304624773" stroke="#000"/>
<text x="26.000000000000004" y="171.81523304624773" text-anchor="end" font-weight="bold" font-size="small" fill="#111">
3.0
</text>
<line x1="42.0" y1="117.4511052206224" x2="50.0" y2="117.4511052206224" stroke="#000"/>
<text x="26.000000000000004" y="117.4511052206224" text-anchor="end" font-weight="bold" font-size="small" fill="#111">
3.5
</text>
<line x1="142.75" y1="54.60000000000001" x2="262.75" y2="54.60000000000001" stroke="#648FFF" stroke-width="2"/>
<text x="202.75" y="49.500000000000014" font-size="small" text-anchor="middle" font-weight="bold" fill="#000">
CRuby 3.3.3
</text>
<rect x="354.25" y="35.400000000000006" width="120.0" height="19.2" fill="#785EF0" stroke="none"/>
<text x="414.25" y="49.500000000000014" font-size="small" text-anchor="middle" font-weight="bold" fill="#fff" style="text-shadow: 0 0 1px #000;">
CRuby 3.4.0dev
</text>
<rect x="565.75" y="35.400000000000006" width="120.0" height="19.2" fill="#FFB000" stroke="none"/>
<text x="625.7499999999999" y="49.500000000000014" font-size="small" text-anchor="middle" font-weight="bold" fill="#fff" style="text-shadow: 0 0 1px #000;">
YJIT 3.3.3
</text>
<rect x="777.25" y="35.400000000000006" width="120.0" height="19.2" fill="#DC267F" stroke="none"/>
<text x="837.2499999999999" y="49.500000000000014" font-size="small" text-anchor="middle" font-weight="bold" fill="#fff" style="text-shadow: 0 0 1px #000;">
YJIT 3.4.0dev
</text>
<rect x="61.60493827160494" y="398.25307157190593" width="11.604938271604937" height="99.74692842809402" fill="#785EF0" data-tooltip="0.92x baseline (CRuby 3.4.0dev)"/>
<line x1="61.60493827160494" y1="396.60762252909313" x2="73.20987654320987" y2="396.60762252909313" stroke-dasharray="1,0.5" stroke="#333c"/>
<line x1="61.60493827160494" y1="399.89852061471873" x2="73.20987654320987" y2="399.89852061471873" stroke-dasharray="1,0.5" stroke="#333c"/>
<line x1="67.4074074074074" y1="396.60762252909313" x2="67.4074074074074" y2="399.89852061471873" stroke-dasharray="1,0.5" stroke="#333c"/>
<rect x="73.20987654320987" y="271.9998163301871" width="11.604938271604937" height="226.00018366981286" fill="#FFB000" data-tooltip="2.08x baseline (YJIT 3.3.3)"/>
<line x1="73.20987654320987" y1="265.91402668808155" x2="84.81481481481481" y2="265.91402668808155" stroke-dasharray="1,0.5" stroke="#333c"/>
<line x1="73.20987654320987" y1="278.0856059722926" x2="84.81481481481481" y2="278.0856059722926" stroke-dasharray="1,0.5" stroke="#333c"/>
<line x1="79.01234567901234" y1="265.91402668808155" x2="79.01234567901234" y2="278.0856059722926" stroke-dasharray="1,0.5" stroke="#333c"/>
<rect x="84.81481481481481" y="297.8387915320045" width="11.604938271604937" height="200.1612084679954" fill="#DC267F" data-tooltip="1.84x baseline (YJIT 3.4.0dev)"/>
<line x1="84.81481481481481" y1="295.32962600828495" x2="96.41975308641976" y2="295.32962600828495" stroke-dasharray="1,0.5" stroke="#333c"/>
<line x1="84.81481481481481" y1="300.3479570557241" x2="96.41975308641976" y2="300.3479570557241" stroke-dasharray="1,0.5" stroke="#333c"/>
<line x1="90.61728395061729" y1="295.32962600828495" x2="90.61728395061729" y2="300.3479570557241" stroke-dasharray="1,0.5" stroke="#333c"/>
<line x1="79.01234567901236" y1="498.0" x2="79.01234567901236" y2="502.79999999999995" stroke="#000"/>
<text x="79.01234567901236" y="512.4" fill="#111" font-size="small" text-anchor="end" transform="rotate(-60, 79.01234567901236, 512.4)">
binarytrees
</text>
<rect x="108.0246913580247" y="397.58712054418527" width="11.604938271604937" height="100.41287945581468" fill="#785EF0" data-tooltip="0.92x baseline (CRuby 3.4.0dev)"/>
<line x1="108.0246913580247" y1="397.53830863739694" x2="119.62962962962965" y2="397.53830863739694" stroke-dasharray="1,0.5" stroke="#333c"/>
<line x1="108.0246913580247" y1="397.6359324509736" x2="119.62962962962965" y2="397.6359324509736" stroke-dasharray="1,0.5" stroke="#333c"/>
<line x1="113.82716049382717" y1="397.53830863739694" x2="113.82716049382717" y2="397.6359324509736" stroke-dasharray="1,0.5" stroke="#333c"/>
<rect x="119.62962962962965" y="303.349509991182" width="11.604938271604937" height="194.65049000881794" fill="#FFB000" data-tooltip="1.79x baseline (YJIT 3.3.3)"/>
<line x1="119.62962962962965" y1="302.8795241238276" x2="131.23456790123458" y2="302.8795241238276" stroke-dasharray="1,0.5" stroke="#333c"/>
<line x1="119.62962962962965" y1="303.81949585853636" x2="131.23456790123458" y2="303.81949585853636" stroke-dasharray="1,0.5" stroke="#333c"/>
<line x1="125.4320987654321" y1="302.8795241238276" x2="125.4320987654321" y2="303.81949585853636" stroke-dasharray="1,0.5" stroke="#333c"/>
<rect x="131.23456790123458" y="260.52509144683563" width="11.604938271604937" height="237.4749085531643" fill="#DC267F" data-tooltip="2.18x baseline (YJIT 3.4.0dev)"/>
<line x1="131.23456790123458" y1="259.5939088758415" x2="142.83950617283952" y2="259.5939088758415" stroke-dasharray="1,0.5" stroke="#333c"/>
<line x1="131.23456790123458" y1="261.45627401782974" x2="142.83950617283952" y2="261.45627401782974" stroke-dasharray="1,0.5" stroke="#333c"/>
<line x1="137.03703703703704" y1="259.5939088758415" x2="137.03703703703704" y2="261.45627401782974" stroke-dasharray="1,0.5" stroke="#333c"/>
<line x1="125.43209876543213" y1="498.0" x2="125.43209876543213" y2="502.79999999999995" stroke="#000"/>
<text x="125.43209876543213" y="512.4" fill="#111" font-size="small" text-anchor="end" transform="rotate(-60, 125.43209876543213, 512.4)">
blurhash
</text>
<rect x="154.44444444444446" y="393.77567922998884" width="11.604938271604937" height="104.22432077001115" fill="#785EF0" data-tooltip="0.96x baseline (CRuby 3.4.0dev)"/>
<line x1="154.44444444444446" y1="393.57501507164403" x2="166.04938271604942" y2="393.57501507164403" stroke-dasharray="1,0.5" stroke="#333c"/>
<line x1="154.44444444444446" y1="393.9763433883336" x2="166.04938271604942" y2="393.9763433883336" stroke-dasharray="1,0.5" stroke="#333c"/>
<line x1="160.2469135802469" y1="393.57501507164403" x2="160.2469135802469" y2="393.9763433883336" stroke-dasharray="1,0.5" stroke="#333c"/>
<rect x="166.04938271604942" y="366.024903413385" width="11.604938271604937" height="131.9750965866149" fill="#FFB000" data-tooltip="1.21x baseline (YJIT 3.3.3)"/>
<line x1="166.04938271604942" y1="365.73624059652815" x2="177.65432098765436" y2="365.73624059652815" stroke-dasharray="1,0.5" stroke="#333c"/>
<line x1="166.04938271604942" y1="366.3135662302418" x2="177.65432098765436" y2="366.3135662302418" stroke-dasharray="1,0.5" stroke="#333c"/>
<line x1="171.85185185185188" y1="365.73624059652815" x2="171.85185185185188" y2="366.3135662302418" stroke-dasharray="1,0.5" stroke="#333c"/>
<rect x="177.65432098765436" y="363.691873337332" width="11.604938271604937" height="134.30812666266786" fill="#DC267F" data-tooltip="1.24x baseline (YJIT 3.4.0dev)"/>
<line x1="177.65432098765436" y1="363.39309222675905" x2="189.2592592592593" y2="363.39309222675905" stroke-dasharray="1,0.5" stroke="#333c"/>
<line x1="177.65432098765436" y1="363.990654447905" x2="189.2592592592593" y2="363.990654447905" stroke-dasharray="1,0.5" stroke="#333c"/>
<line x1="183.4567901234568" y1="363.39309222675905" x2="183.4567901234568" y2="363.990654447905" stroke-dasharray="1,0.5" stroke="#333c"/>
<line x1="171.8518518518519" y1="498.0" x2="171.8518518518519" y2="502.79999999999995" stroke="#000"/>
<text x="171.8518518518519" y="512.4" fill="#111" font-size="small" text-anchor="end" transform="rotate(-60, 171.8518518518519, 512.4)">
erubi
</text>
<rect x="200.86419753086423" y="397.42145100140215" width="11.604938271604937" height="100.57854899859781" fill="#785EF0" data-tooltip="0.93x baseline (CRuby 3.4.0dev)"/>
<line x1="200.86419753086423" y1="397.28571004339034" x2="212.46913580246917" y2="397.28571004339034" stroke-dasharray="1,0.5" stroke="#333c"/>
<line x1="200.86419753086423" y1="397.557191959414" x2="212.46913580246917" y2="397.557191959414" stroke-dasharray="1,0.5" stroke="#333c"/>
<line x1="206.66666666666669" y1="397.28571004339034" x2="206.66666666666669" y2="397.557191959414" stroke-dasharray="1,0.5" stroke="#333c"/>
<rect x="212.46913580246917" y="374.3039196486078" width="11.604938271604937" height="123.69608035139214" fill="#FFB000" data-tooltip="1.14x baseline (YJIT 3.3.3)"/>
<line x1="212.46913580246917" y1="374.12809372569603" x2="224.07407407407413" y2="374.12809372569603" stroke-dasharray="1,0.5" stroke="#333c"/>
<line x1="212.46913580246917" y1="374.47974557151963" x2="224.07407407407413" y2="374.47974557151963" stroke-dasharray="1,0.5" stroke="#333c"/>
<line x1="218.27160493827162" y1="374.12809372569603" x2="218.27160493827162" y2="374.47974557151963" stroke-dasharray="1,0.5" stroke="#333c"/>
<rect x="224.07407407407413" y="378.84474867332386" width="11.604938271604937" height="119.15525132667607" fill="#DC267F" data-tooltip="1.10x baseline (YJIT 3.4.0dev)"/>
<line x1="224.07407407407413" y1="378.6669492486991" x2="235.67901234567907" y2="378.6669492486991" stroke-dasharray="1,0.5" stroke="#333c"/>
<line x1="224.07407407407413" y1="379.0225480979487" x2="235.67901234567907" y2="379.0225480979487" stroke-dasharray="1,0.5" stroke="#333c"/>
<line x1="229.8765432098766" y1="378.6669492486991" x2="229.8765432098766" y2="379.0225480979487" stroke-dasharray="1,0.5" stroke="#333c"/>
<line x1="218.27160493827165" y1="498.0" x2="218.27160493827165" y2="502.79999999999995" stroke="#000"/>
<text x="218.27160493827165" y="512.4" fill="#111" font-size="small" text-anchor="end" transform="rotate(-60, 218.27160493827165, 512.4)">
etanni
</text>
<rect x="247.283950617284" y="399.05773225424485" width="11.604938271604937" height="98.94226774575513" fill="#785EF0" data-tooltip="0.91x baseline (CRuby 3.4.0dev)"/>
<line x1="247.283950617284" y1="398.878084166868" x2="258.88888888888897" y2="398.878084166868" stroke-dasharray="1,0.5" stroke="#333c"/>
<line x1="247.283950617284" y1="399.23738034162164" x2="258.88888888888897" y2="399.23738034162164" stroke-dasharray="1,0.5" stroke="#333c"/>
<line x1="253.0864197530865" y1="398.878084166868" x2="253.0864197530865" y2="399.23738034162164" stroke-dasharray="1,0.5" stroke="#333c"/>
<rect x="258.88888888888897" y="201.02408768709373" width="11.604938271604937" height="296.9759123129062" fill="#FFB000" data-tooltip="2.73x baseline (YJIT 3.3.3)"/>
<line x1="258.88888888888897" y1="200.54110669073793" x2="270.4938271604939" y2="200.54110669073793" stroke-dasharray="1,0.5" stroke="#333c"/>
<line x1="258.88888888888897" y1="201.5070686834495" x2="270.4938271604939" y2="201.5070686834495" stroke-dasharray="1,0.5" stroke="#333c"/>
<line x1="264.6913580246914" y1="200.54110669073793" x2="264.6913580246914" y2="201.5070686834495" stroke-dasharray="1,0.5" stroke="#333c"/>
<rect x="270.4938271604939" y="209.58164622515696" width="11.604938271604937" height="288.41835377484296" fill="#DC267F" data-tooltip="2.65x baseline (YJIT 3.4.0dev)"/>
<line x1="270.4938271604939" y1="209.10455328714644" x2="282.0987654320988" y2="209.10455328714644" stroke-dasharray="1,0.5" stroke="#333c"/>
<line x1="270.4938271604939" y1="210.05873916316747" x2="282.0987654320988" y2="210.05873916316747" stroke-dasharray="1,0.5" stroke="#333c"/>
<line x1="276.2962962962963" y1="209.10455328714644" x2="276.2962962962963" y2="210.05873916316747" stroke-dasharray="1,0.5" stroke="#333c"/>
<line x1="264.69135802469134" y1="498.0" x2="264.69135802469134" y2="502.79999999999995" stroke="#000"/>
<text x="264.69135802469134" y="512.4" fill="#111" font-size="small" text-anchor="end" transform="rotate(-60, 264.69135802469134, 512.4)">
fannkuchredux
</text>
<rect x="293.7037037037037" y="391.29333497555774" width="11.604938271604937" height="106.70666502444227" fill="#785EF0" data-tooltip="0.98x baseline (CRuby 3.4.0dev)"/>
<line x1="293.7037037037037" y1="389.9735308725026" x2="305.3086419753086" y2="389.9735308725026" stroke-dasharray="1,0.5" stroke="#333c"/>
<line x1="293.7037037037037" y1="392.61313907861285" x2="305.3086419753086" y2="392.61313907861285" stroke-dasharray="1,0.5" stroke="#333c"/>
<line x1="299.5061728395061" y1="389.9735308725026" x2="299.5061728395061" y2="392.61313907861285" stroke-dasharray="1,0.5" stroke="#333c"/>
<rect x="305.3086419753086" y="378.44258319807255" width="11.604938271604937" height="119.55741680192737" fill="#FFB000" data-tooltip="1.10x baseline (YJIT 3.3.3)"/>
<line x1="305.3086419753086" y1="376.8489479821808" x2="316.9135802469135" y2="376.8489479821808" stroke-dasharray="1,0.5" stroke="#333c"/>
<line x1="305.3086419753086" y1="380.03621841396426" x2="316.9135802469135" y2="380.03621841396426" stroke-dasharray="1,0.5" stroke="#333c"/>
<line x1="311.1111111111111" y1="376.8489479821808" x2="311.1111111111111" y2="380.03621841396426" stroke-dasharray="1,0.5" stroke="#333c"/>
<rect x="316.9135802469135" y="381.7167244826214" width="11.604938271604937" height="116.28327551737857" fill="#DC267F" data-tooltip="1.07x baseline (YJIT 3.4.0dev)"/>
<line x1="316.9135802469135" y1="380.34673739461095" x2="328.5185185185184" y2="380.34673739461095" stroke-dasharray="1,0.5" stroke="#333c"/>
<line x1="316.9135802469135" y1="383.08671157063185" x2="328.5185185185184" y2="383.08671157063185" stroke-dasharray="1,0.5" stroke="#333c"/>
<line x1="322.716049382716" y1="380.34673739461095" x2="322.716049382716" y2="383.08671157063185" stroke-dasharray="1,0.5" stroke="#333c"/>
<line x1="311.11111111111103" y1="498.0" x2="311.11111111111103" y2="502.79999999999995" stroke="#000"/>
<text x="311.11111111111103" y="512.4" fill="#111" font-size="small" text-anchor="end" transform="rotate(-60, 311.11111111111103, 512.4)">
fluentd
</text>
<rect x="340.1234567901233" y="394.3145787506487" width="11.604938271604937" height="103.68542124935125" fill="#785EF0" data-tooltip="0.95x baseline (CRuby 3.4.0dev)"/>
<line x1="340.1234567901233" y1="394.21474198238946" x2="351.72839506172824" y2="394.21474198238946" stroke-dasharray="1,0.5" stroke="#333c"/>
<line x1="340.1234567901233" y1="394.41441551890796" x2="351.72839506172824" y2="394.41441551890796" stroke-dasharray="1,0.5" stroke="#333c"/>
<line x1="345.9259259259258" y1="394.21474198238946" x2="345.9259259259258" y2="394.41441551890796" stroke-dasharray="1,0.5" stroke="#333c"/>
<rect x="351.72839506172824" y="370.35142804194214" width="11.604938271604937" height="127.64857195805781" fill="#FFB000" data-tooltip="1.17x baseline (YJIT 3.3.3)"/>
<line x1="351.72839506172824" y1="370.21891607460134" x2="363.3333333333332" y2="370.21891607460134" stroke-dasharray="1,0.5" stroke="#333c"/>
<line x1="351.72839506172824" y1="370.48394000928295" x2="363.3333333333332" y2="370.48394000928295" stroke-dasharray="1,0.5" stroke="#333c"/>
<line x1="357.5308641975307" y1="370.21891607460134" x2="357.5308641975307" y2="370.48394000928295" stroke-dasharray="1,0.5" stroke="#333c"/>
<rect x="363.3333333333332" y="373.0918976693788" width="11.604938271604937" height="124.90810233062118" fill="#DC267F" data-tooltip="1.15x baseline (YJIT 3.4.0dev)"/>
<line x1="363.3333333333332" y1="372.97710956200746" x2="374.9382716049381" y2="372.97710956200746" stroke-dasharray="1,0.5" stroke="#333c"/>
<line x1="363.3333333333332" y1="373.2066857767501" x2="374.9382716049381" y2="373.2066857767501" stroke-dasharray="1,0.5" stroke="#333c"/>
<line x1="369.1358024691356" y1="372.97710956200746" x2="369.1358024691356" y2="373.2066857767501" stroke-dasharray="1,0.5" stroke="#333c"/>
<line x1="357.53086419753066" y1="498.0" x2="357.53086419753066" y2="502.79999999999995" stroke="#000"/>
<text x="357.53086419753066" y="512.4" fill="#111" font-size="small" text-anchor="end" transform="rotate(-60, 357.53086419753066, 512.4)">
graphql
</text>
<rect x="386.543209876543" y="396.73576257593453" width="11.604938271604937" height="101.26423742406543" fill="#785EF0" data-tooltip="0.93x baseline (CRuby 3.4.0dev)"/>
<line x1="386.543209876543" y1="396.60457389018495" x2="398.1481481481479" y2="396.60457389018495" stroke-dasharray="1,0.5" stroke="#333c"/>
<line x1="386.543209876543" y1="396.86695126168405" x2="398.1481481481479" y2="396.86695126168405" stroke-dasharray="1,0.5" stroke="#333c"/>
<line x1="392.34567901234544" y1="396.60457389018495" x2="392.34567901234544" y2="396.86695126168405" stroke-dasharray="1,0.5" stroke="#333c"/>
<rect x="398.1481481481479" y="375.6225385887879" width="11.604938271604937" height="122.37746141121208" fill="#FFB000" data-tooltip="1.13x baseline (YJIT 3.3.3)"/>
<line x1="398.1481481481479" y1="375.4644662264345" x2="409.75308641975283" y2="375.4644662264345" stroke-dasharray="1,0.5" stroke="#333c"/>
<line x1="398.1481481481479" y1="375.78061095114134" x2="409.75308641975283" y2="375.78061095114134" stroke-dasharray="1,0.5" stroke="#333c"/>
<line x1="403.95061728395035" y1="375.4644662264345" x2="403.95061728395035" y2="375.78061095114134" stroke-dasharray="1,0.5" stroke="#333c"/>
<rect x="409.75308641975283" y="383.28045429969217" width="11.604938271604937" height="114.71954570030782" fill="#DC267F" data-tooltip="1.06x baseline (YJIT 3.4.0dev)"/>
<line x1="409.75308641975283" y1="383.1204367562036" x2="421.35802469135774" y2="383.1204367562036" stroke-dasharray="1,0.5" stroke="#333c"/>
<line x1="409.75308641975283" y1="383.44047184318066" x2="421.35802469135774" y2="383.44047184318066" stroke-dasharray="1,0.5" stroke="#333c"/>
<line x1="415.5555555555553" y1="383.1204367562036" x2="415.5555555555553" y2="383.44047184318066" stroke-dasharray="1,0.5" stroke="#333c"/>
<line x1="403.9506172839503" y1="498.0" x2="403.9506172839503" y2="502.79999999999995" stroke="#000"/>
<text x="403.9506172839503" y="512.4" fill="#111" font-size="small" text-anchor="end" transform="rotate(-60, 403.9506172839503, 512.4)">
graphql-native
</text>
<rect x="432.96296296296265" y="396.96072285066856" width="11.604938271604937" height="101.03927714933137" fill="#785EF0" data-tooltip="0.93x baseline (CRuby 3.4.0dev)"/>
<line x1="432.96296296296265" y1="395.52349094052124" x2="444.56790123456756" y2="395.52349094052124" stroke-dasharray="1,0.5" stroke="#333c"/>
<line x1="432.96296296296265" y1="398.3979547608159" x2="444.56790123456756" y2="398.3979547608159" stroke-dasharray="1,0.5" stroke="#333c"/>
<line x1="438.76543209876513" y1="395.52349094052124" x2="438.76543209876513" y2="398.3979547608159" stroke-dasharray="1,0.5" stroke="#333c"/>
<rect x="444.56790123456756" y="345.22651809595175" width="11.604938271604937" height="152.77348190404823" fill="#FFB000" data-tooltip="1.41x baseline (YJIT 3.3.3)"/>
<line x1="444.56790123456756" y1="342.2665869865132" x2="456.17283950617247" y2="342.2665869865132" stroke-dasharray="1,0.5" stroke="#333c"/>
<line x1="444.56790123456756" y1="348.18644920539026" x2="456.17283950617247" y2="348.18644920539026" stroke-dasharray="1,0.5" stroke="#333c"/>
<line x1="450.37037037037004" y1="342.2665869865132" x2="450.37037037037004" y2="348.18644920539026" stroke-dasharray="1,0.5" stroke="#333c"/>
<rect x="456.17283950617247" y="345.3692052307428" width="11.604938271604937" height="152.6307947692571" fill="#DC267F" data-tooltip="1.40x baseline (YJIT 3.4.0dev)"/>
<line x1="456.17283950617247" y1="342.82496776289264" x2="467.77777777777743" y2="342.82496776289264" stroke-dasharray="1,0.5" stroke="#333c"/>
<line x1="456.17283950617247" y1="347.9134426985929" x2="467.77777777777743" y2="347.9134426985929" stroke-dasharray="1,0.5" stroke="#333c"/>
<line x1="461.97530864197495" y1="342.82496776289264" x2="461.97530864197495" y2="347.9134426985929" stroke-dasharray="1,0.5" stroke="#333c"/>
<line x1="450.37037037037" y1="498.0" x2="450.37037037037" y2="502.79999999999995" stroke="#000"/>
<text x="450.37037037037" y="512.4" fill="#111" font-size="small" text-anchor="end" transform="rotate(-60, 450.37037037037, 512.4)">
lee
</text>
<rect x="479.38271604938234" y="398.55803433944374" width="11.604938271604937" height="99.44196566055618" fill="#785EF0" data-tooltip="0.91x baseline (CRuby 3.4.0dev)"/>
<line x1="479.38271604938234" y1="398.4382894479422" x2="490.98765432098725" y2="398.4382894479422" stroke-dasharray="1,0.5" stroke="#333c"/>
<line x1="479.38271604938234" y1="398.67777923094525" x2="490.98765432098725" y2="398.67777923094525" stroke-dasharray="1,0.5" stroke="#333c"/>
<line x1="485.18518518518476" y1="398.4382894479422" x2="485.18518518518476" y2="398.67777923094525" stroke-dasharray="1,0.5" stroke="#333c"/>
<rect x="490.98765432098725" y="332.8476749355396" width="11.604938271604937" height="165.15232506446037" fill="#FFB000" data-tooltip="1.52x baseline (YJIT 3.3.3)"/>
<line x1="490.98765432098725" y1="332.6293671558694" x2="502.59259259259215" y2="332.6293671558694" stroke-dasharray="1,0.5" stroke="#333c"/>
<line x1="490.98765432098725" y1="333.0659827152099" x2="502.59259259259215" y2="333.0659827152099" stroke-dasharray="1,0.5" stroke="#333c"/>
<line x1="496.7901234567897" y1="332.6293671558694" x2="496.7901234567897" y2="333.0659827152099" stroke-dasharray="1,0.5" stroke="#333c"/>
<rect x="502.59259259259215" y="323.38528737303324" width="11.604938271604937" height="174.61471262696676" fill="#DC267F" data-tooltip="1.61x baseline (YJIT 3.4.0dev)"/>
<line x1="502.59259259259215" y1="322.95369435815724" x2="514.197530864197" y2="322.95369435815724" stroke-dasharray="1,0.5" stroke="#333c"/>
<line x1="502.59259259259215" y1="323.8168803879092" x2="514.197530864197" y2="323.8168803879092" stroke-dasharray="1,0.5" stroke="#333c"/>
<line x1="508.39506172839464" y1="322.95369435815724" x2="508.39506172839464" y2="323.8168803879092" stroke-dasharray="1,0.5" stroke="#333c"/>
<line x1="496.7901234567896" y1="498.0" x2="496.7901234567896" y2="502.79999999999995" stroke="#000"/>
<text x="496.7901234567896" y="512.4" fill="#111" font-size="small" text-anchor="end" transform="rotate(-60, 496.7901234567896, 512.4)">
matmul
</text>
<rect x="525.802469135802" y="394.44077475222025" width="11.604938271604937" height="103.55922524777974" fill="#785EF0" data-tooltip="0.95x baseline (CRuby 3.4.0dev)"/>
<line x1="525.802469135802" y1="394.39812296097807" x2="537.4074074074069" y2="394.39812296097807" stroke-dasharray="1,0.5" stroke="#333c"/>
<line x1="525.802469135802" y1="394.48342654346243" x2="537.4074074074069" y2="394.48342654346243" stroke-dasharray="1,0.5" stroke="#333c"/>
<line x1="531.6049382716045" y1="394.39812296097807" x2="531.6049382716045" y2="394.48342654346243" stroke-dasharray="1,0.5" stroke="#333c"/>
<rect x="537.4074074074069" y="304.2567601683953" width="11.604938271604937" height="193.74323983160454" fill="#FFB000" data-tooltip="1.78x baseline (YJIT 3.3.3)"/>
<line x1="537.4074074074069" y1="304.14746533484083" x2="549.0123456790118" y2="304.14746533484083" stroke-dasharray="1,0.5" stroke="#333c"/>
<line x1="537.4074074074069" y1="304.3660550019498" x2="549.0123456790118" y2="304.3660550019498" stroke-dasharray="1,0.5" stroke="#333c"/>
<line x1="543.2098765432094" y1="304.14746533484083" x2="543.2098765432094" y2="304.3660550019498" stroke-dasharray="1,0.5" stroke="#333c"/>
<rect x="549.0123456790118" y="247.31486503368697" width="11.604938271604937" height="250.685134966313" fill="#DC267F" data-tooltip="2.31x baseline (YJIT 3.4.0dev)"/>
<line x1="549.0123456790118" y1="246.1678468407328" x2="560.6172839506168" y2="246.1678468407328" stroke-dasharray="1,0.5" stroke="#333c"/>
<line x1="549.0123456790118" y1="248.46188322664113" x2="560.6172839506168" y2="248.46188322664113" stroke-dasharray="1,0.5" stroke="#333c"/>
<line x1="554.8148148148143" y1="246.1678468407328" x2="554.8148148148143" y2="248.46188322664113" stroke-dasharray="1,0.5" stroke="#333c"/>
<line x1="543.2098765432092" y1="498.0" x2="543.2098765432092" y2="502.79999999999995" stroke="#000"/>
<text x="543.2098765432092" y="512.4" fill="#111" font-size="small" text-anchor="end" transform="rotate(-60, 543.2098765432092, 512.4)">
nbody
</text>
<rect x="572.2222222222216" y="403.69473843835925" width="11.604938271604937" height="94.30526156164066" fill="#785EF0" data-tooltip="0.87x baseline (CRuby 3.4.0dev)"/>
<line x1="572.2222222222216" y1="403.6456377498922" x2="583.8271604938266" y2="403.6456377498922" stroke-dasharray="1,0.5" stroke="#333c"/>
<line x1="572.2222222222216" y1="403.7438391268263" x2="583.8271604938266" y2="403.7438391268263" stroke-dasharray="1,0.5" stroke="#333c"/>
<line x1="578.0246913580241" y1="403.6456377498922" x2="578.0246913580241" y2="403.7438391268263" stroke-dasharray="1,0.5" stroke="#333c"/>
<rect x="583.8271604938266" y="389.24435039608153" width="11.604938271604937" height="108.75564960391844" fill="#FFB000" data-tooltip="1.00x baseline (YJIT 3.3.3)"/>
<line x1="583.8271604938266" y1="388.90955801646675" x2="595.4320987654314" y2="388.90955801646675" stroke-dasharray="1,0.5" stroke="#333c"/>
<line x1="583.8271604938266" y1="389.5791427756963" x2="595.4320987654314" y2="389.5791427756963" stroke-dasharray="1,0.5" stroke="#333c"/>
<line x1="589.6296296296291" y1="388.90955801646675" x2="589.6296296296291" y2="389.5791427756963" stroke-dasharray="1,0.5" stroke="#333c"/>
<rect x="595.4320987654314" y="107.8022192260904" width="11.604938271604937" height="390.1977807739096" fill="#DC267F" data-tooltip="3.59x baseline (YJIT 3.4.0dev)"/>
<line x1="595.4320987654314" y1="106.96584476964176" x2="607.0370370370364" y2="106.96584476964176" stroke-dasharray="1,0.5" stroke="#333c"/>
<line x1="595.4320987654314" y1="108.63859368253902" x2="607.0370370370364" y2="108.63859368253902" stroke-dasharray="1,0.5" stroke="#333c"/>
<line x1="601.234567901234" y1="106.96584476964176" x2="601.234567901234" y2="108.63859368253902" stroke-dasharray="1,0.5" stroke="#333c"/>
<line x1="589.629629629629" y1="498.0" x2="589.629629629629" y2="502.79999999999995" stroke="#000"/>
<text x="589.629629629629" y="512.4" fill="#111" font-size="small" text-anchor="end" transform="rotate(-60, 589.629629629629, 512.4)">
nqueens
</text>
<rect x="618.6419753086412" y="395.3622583241408" width="11.604938271604937" height="102.63774167585916" fill="#785EF0" data-tooltip="0.94x baseline (CRuby 3.4.0dev)"/>
<line x1="618.6419753086412" y1="394.7806543767583" x2="630.2469135802462" y2="394.7806543767583" stroke-dasharray="1,0.5" stroke="#333c"/>
<line x1="618.6419753086412" y1="395.94386227152324" x2="630.2469135802462" y2="395.94386227152324" stroke-dasharray="1,0.5" stroke="#333c"/>
<line x1="624.4444444444438" y1="394.7806543767583" x2="624.4444444444438" y2="395.94386227152324" stroke-dasharray="1,0.5" stroke="#333c"/>
<rect x="630.2469135802462" y="105.38949564430327" width="11.604938271604937" height="392.61050435569666" fill="#FFB000" data-tooltip="3.61x baseline (YJIT 3.3.3)"/>
<line x1="630.2469135802462" y1="102.95774278462086" x2="641.8518518518512" y2="102.95774278462086" stroke-dasharray="1,0.5" stroke="#333c"/>
<line x1="630.2469135802462" y1="107.82124850398566" x2="641.8518518518512" y2="107.82124850398566" stroke-dasharray="1,0.5" stroke="#333c"/>
<line x1="636.0493827160487" y1="102.95774278462086" x2="636.0493827160487" y2="107.82124850398566" stroke-dasharray="1,0.5" stroke="#333c"/>
<rect x="641.8518518518512" y="100.19999999999999" width="11.604938271604937" height="397.79999999999995" fill="#DC267F" data-tooltip="3.66x baseline (YJIT 3.4.0dev)"/>
<line x1="641.8518518518512" y1="96.53794146875644" x2="653.456790123456" y2="96.53794146875644" stroke-dasharray="1,0.5" stroke="#333c"/>
<line x1="641.8518518518512" y1="103.86205853124353" x2="653.456790123456" y2="103.86205853124353" stroke-dasharray="1,0.5" stroke="#333c"/>
<line x1="647.6543209876536" y1="96.53794146875644" x2="647.6543209876536" y2="103.86205853124353" stroke-dasharray="1,0.5" stroke="#333c"/>
<line x1="636.0493827160486" y1="498.0" x2="636.0493827160486" y2="502.79999999999995" stroke="#000"/>
<text x="636.0493827160486" y="512.4" fill="#111" font-size="small" text-anchor="end" transform="rotate(-60, 636.0493827160486, 512.4)">
optcarrot
</text>
<rect x="665.061728395061" y="402.5227486670477" width="11.604938271604937" height="95.47725133295222" fill="#785EF0" data-tooltip="0.88x baseline (CRuby 3.4.0dev)"/>
<line x1="665.061728395061" y1="402.1286658368733" x2="676.6666666666658" y2="402.1286658368733" stroke-dasharray="1,0.5" stroke="#333c"/>
<line x1="665.061728395061" y1="402.9168314972222" x2="676.6666666666658" y2="402.9168314972222" stroke-dasharray="1,0.5" stroke="#333c"/>
<line x1="670.8641975308634" y1="402.1286658368733" x2="670.8641975308634" y2="402.9168314972222" stroke-dasharray="1,0.5" stroke="#333c"/>
<rect x="676.6666666666658" y="120.78688236516919" width="11.604938271604937" height="377.2131176348308" fill="#FFB000" data-tooltip="3.47x baseline (YJIT 3.3.3)"/>
<line x1="676.6666666666658" y1="118.96560477951614" x2="688.2716049382708" y2="118.96560477951614" stroke-dasharray="1,0.5" stroke="#333c"/>
<line x1="676.6666666666658" y1="122.60815995082224" x2="688.2716049382708" y2="122.60815995082224" stroke-dasharray="1,0.5" stroke="#333c"/>
<line x1="682.4691358024684" y1="118.96560477951614" x2="682.4691358024684" y2="122.60815995082224" stroke-dasharray="1,0.5" stroke="#333c"/>
<rect x="688.2716049382708" y="154.9950462419307" width="11.604938271604937" height="343.0049537580693" fill="#DC267F" data-tooltip="3.15x baseline (YJIT 3.4.0dev)"/>
<line x1="688.2716049382708" y1="153.04331858941055" x2="699.8765432098756" y2="153.04331858941055" stroke-dasharray="1,0.5" stroke="#333c"/>
<line x1="688.2716049382708" y1="156.94677389445087" x2="699.8765432098756" y2="156.94677389445087" stroke-dasharray="1,0.5" stroke="#333c"/>
<line x1="694.0740740740733" y1="153.04331858941055" x2="694.0740740740733" y2="156.94677389445087" stroke-dasharray="1,0.5" stroke="#333c"/>
<line x1="682.4691358024683" y1="498.0" x2="682.4691358024683" y2="502.79999999999995" stroke="#000"/>
<text x="682.4691358024683" y="512.4" fill="#111" font-size="small" text-anchor="end" transform="rotate(-60, 682.4691358024683, 512.4)">
protoboeuf
</text>
<rect x="711.4814814814806" y="392.1477990169153" width="11.604938271604937" height="105.85220098308459" fill="#785EF0" data-tooltip="0.97x baseline (CRuby 3.4.0dev)"/>
<line x1="711.4814814814806" y1="391.157392555551" x2="723.0864197530855" y2="391.157392555551" stroke-dasharray="1,0.5" stroke="#333c"/>
<line x1="711.4814814814806" y1="393.13820547827964" x2="723.0864197530855" y2="393.13820547827964" stroke-dasharray="1,0.5" stroke="#333c"/>
<line x1="717.2839506172832" y1="391.157392555551" x2="717.2839506172832" y2="393.13820547827964" stroke-dasharray="1,0.5" stroke="#333c"/>
<rect x="723.0864197530855" y="311.3808850986572" width="11.604938271604937" height="186.61911490134275" fill="#FFB000" data-tooltip="1.72x baseline (YJIT 3.3.3)"/>
<line x1="723.0864197530855" y1="309.2088097685497" x2="734.6913580246904" y2="309.2088097685497" stroke-dasharray="1,0.5" stroke="#333c"/>
<line x1="723.0864197530855" y1="313.55296042876466" x2="734.6913580246904" y2="313.55296042876466" stroke-dasharray="1,0.5" stroke="#333c"/>
<line x1="728.888888888888" y1="309.2088097685497" x2="728.888888888888" y2="313.55296042876466" stroke-dasharray="1,0.5" stroke="#333c"/>
<rect x="734.6913580246904" y="299.5998502454025" width="11.604938271604937" height="198.4001497545975" fill="#DC267F" data-tooltip="1.82x baseline (YJIT 3.4.0dev)"/>
<line x1="734.6913580246904" y1="297.56601930162225" x2="746.2962962962954" y2="297.56601930162225" stroke-dasharray="1,0.5" stroke="#333c"/>
<line x1="734.6913580246904" y1="301.6336811891827" x2="746.2962962962954" y2="301.6336811891827" stroke-dasharray="1,0.5" stroke="#333c"/>
<line x1="740.493827160493" y1="297.56601930162225" x2="740.493827160493" y2="301.6336811891827" stroke-dasharray="1,0.5" stroke="#333c"/>
<line x1="728.8888888888879" y1="498.0" x2="728.8888888888879" y2="502.79999999999995" stroke="#000"/>
<text x="728.8888888888879" y="512.4" fill="#111" font-size="small" text-anchor="end" transform="rotate(-60, 728.8888888888879, 512.4)">
rack
</text>
<rect x="757.9012345679002" y="395.9325205451426" width="11.604938271604937" height="102.06747945485729" fill="#785EF0" data-tooltip="0.94x baseline (CRuby 3.4.0dev)"/>
<line x1="757.9012345679002" y1="395.8739181975903" x2="769.5061728395052" y2="395.8739181975903" stroke-dasharray="1,0.5" stroke="#333c"/>
<line x1="757.9012345679002" y1="395.991122892695" x2="769.5061728395052" y2="395.991122892695" stroke-dasharray="1,0.5" stroke="#333c"/>
<line x1="763.7037037037028" y1="395.8739181975903" x2="763.7037037037028" y2="395.991122892695" stroke-dasharray="1,0.5" stroke="#333c"/>
<rect x="769.5061728395052" y="372.6980280653692" width="11.604938271604937" height="125.30197193463073" fill="#FFB000" data-tooltip="1.15x baseline (YJIT 3.3.3)"/>
<line x1="769.5061728395052" y1="372.6222753246162" x2="781.1111111111101" y2="372.6222753246162" stroke-dasharray="1,0.5" stroke="#333c"/>
<line x1="769.5061728395052" y1="372.77378080612215" x2="781.1111111111101" y2="372.77378080612215" stroke-dasharray="1,0.5" stroke="#333c"/>
<line x1="775.3086419753076" y1="372.6222753246162" x2="775.3086419753076" y2="372.77378080612215" stroke-dasharray="1,0.5" stroke="#333c"/>
<rect x="781.1111111111101" y="378.57304402265686" width="11.604938271604937" height="119.42695597734307" fill="#DC267F" data-tooltip="1.10x baseline (YJIT 3.4.0dev)"/>
<line x1="781.1111111111101" y1="378.50582557953976" x2="792.716049382715" y2="378.50582557953976" stroke-dasharray="1,0.5" stroke="#333c"/>
<line x1="781.1111111111101" y1="378.64026246577396" x2="792.716049382715" y2="378.64026246577396" stroke-dasharray="1,0.5" stroke="#333c"/>
<line x1="786.9135802469126" y1="378.50582557953976" x2="786.9135802469126" y2="378.64026246577396" stroke-dasharray="1,0.5" stroke="#333c"/>
<line x1="775.3086419753075" y1="498.0" x2="775.3086419753075" y2="502.79999999999995" stroke="#000"/>
<text x="775.3086419753075" y="512.4" fill="#111" font-size="small" text-anchor="end" transform="rotate(-60, 775.3086419753075, 512.4)">
ruby-json
</text>
<rect x="804.3209876543199" y="402.48811170056194" width="11.604938271604937" height="95.5118882994379" fill="#785EF0" data-tooltip="0.88x baseline (CRuby 3.4.0dev)"/>
<line x1="804.3209876543199" y1="400.9291465090722" x2="815.9259259259248" y2="400.9291465090722" stroke-dasharray="1,0.5" stroke="#333c"/>
<line x1="804.3209876543199" y1="404.0470768920517" x2="815.9259259259248" y2="404.0470768920517" stroke-dasharray="1,0.5" stroke="#333c"/>
<line x1="810.1234567901224" y1="400.9291465090722" x2="810.1234567901224" y2="404.0470768920517" stroke-dasharray="1,0.5" stroke="#333c"/>
<rect x="815.9259259259248" y="277.73364960571814" width="11.604938271604937" height="220.26635039428183" fill="#FFB000" data-tooltip="2.03x baseline (YJIT 3.3.3)"/>
<line x1="815.9259259259248" y1="275.16367598991843" x2="827.5308641975297" y2="275.16367598991843" stroke-dasharray="1,0.5" stroke="#333c"/>
<line x1="815.9259259259248" y1="280.3036232215178" x2="827.5308641975297" y2="280.3036232215178" stroke-dasharray="1,0.5" stroke="#333c"/>
<line x1="821.7283950617274" y1="275.16367598991843" x2="821.7283950617274" y2="280.3036232215178" stroke-dasharray="1,0.5" stroke="#333c"/>
<rect x="827.5308641975297" y="290.23754822401804" width="11.604938271604937" height="207.7624517759819" fill="#DC267F" data-tooltip="1.91x baseline (YJIT 3.4.0dev)"/>
<line x1="827.5308641975297" y1="287.73936129980143" x2="839.1358024691347" y2="287.73936129980143" stroke-dasharray="1,0.5" stroke="#333c"/>
<line x1="827.5308641975297" y1="292.73573514823465" x2="839.1358024691347" y2="292.73573514823465" stroke-dasharray="1,0.5" stroke="#333c"/>
<line x1="833.3333333333322" y1="287.73936129980143" x2="833.3333333333322" y2="292.73573514823465" stroke-dasharray="1,0.5" stroke="#333c"/>
<line x1="821.7283950617273" y1="498.0" x2="821.7283950617273" y2="502.79999999999995" stroke="#000"/>
<text x="821.7283950617273" y="512.4" fill="#111" font-size="small" text-anchor="end" transform="rotate(-60, 821.7283950617273, 512.4)">
rubykon
</text>
<rect x="850.7407407407396" y="398.81956418348506" width="11.604938271604937" height="99.18043581651492" fill="#785EF0" data-tooltip="0.91x baseline (CRuby 3.4.0dev)"/>
<line x1="850.7407407407396" y1="398.76453350978863" x2="862.3456790123445" y2="398.76453350978863" stroke-dasharray="1,0.5" stroke="#333c"/>
<line x1="850.7407407407396" y1="398.8745948571814" x2="862.3456790123445" y2="398.8745948571814" stroke-dasharray="1,0.5" stroke="#333c"/>
<line x1="856.543209876542" y1="398.76453350978863" x2="856.543209876542" y2="398.8745948571814" stroke-dasharray="1,0.5" stroke="#333c"/>
<rect x="862.3456790123445" y="189.80157988528555" width="11.604938271604937" height="308.1984201147144" fill="#FFB000" data-tooltip="2.83x baseline (YJIT 3.3.3)"/>
<line x1="862.3456790123445" y1="189.6340382595728" x2="873.9506172839494" y2="189.6340382595728" stroke-dasharray="1,0.5" stroke="#333c"/>
<line x1="862.3456790123445" y1="189.9691215109983" x2="873.9506172839494" y2="189.9691215109983" stroke-dasharray="1,0.5" stroke="#333c"/>
<line x1="868.148148148147" y1="189.6340382595728" x2="868.148148148147" y2="189.9691215109983" stroke-dasharray="1,0.5" stroke="#333c"/>
<rect x="873.9506172839494" y="201.87970307096612" width="11.604938271604937" height="296.12029692903377" fill="#DC267F" data-tooltip="2.72x baseline (YJIT 3.4.0dev)"/>
<line x1="873.9506172839494" y1="201.71680279319597" x2="885.5555555555543" y2="201.71680279319597" stroke-dasharray="1,0.5" stroke="#333c"/>
<line x1="873.9506172839494" y1="202.0426033487363" x2="885.5555555555543" y2="202.0426033487363" stroke-dasharray="1,0.5" stroke="#333c"/>
<line x1="879.7530864197519" y1="201.71680279319597" x2="879.7530864197519" y2="202.0426033487363" stroke-dasharray="1,0.5" stroke="#333c"/>
<line x1="868.1481481481469" y1="498.0" x2="868.1481481481469" y2="502.79999999999995" stroke="#000"/>
<text x="868.1481481481469" y="512.4" fill="#111" font-size="small" text-anchor="end" transform="rotate(-60, 868.1481481481469, 512.4)">
sudoku
</text>
<rect x="897.1604938271593" y="398.114062355633" width="11.604938271604937" height="99.88593764436696" fill="#785EF0" data-tooltip="0.92x baseline (CRuby 3.4.0dev)"/>
<line x1="897.1604938271593" y1="398.0005855165316" x2="908.7654320987641" y2="398.0005855165316" stroke-dasharray="1,0.5" stroke="#333c"/>
<line x1="897.1604938271593" y1="398.2275391947344" x2="908.7654320987641" y2="398.2275391947344" stroke-dasharray="1,0.5" stroke="#333c"/>
<line x1="902.9629629629618" y1="398.0005855165316" x2="902.9629629629618" y2="398.2275391947344" stroke-dasharray="1,0.5" stroke="#333c"/>
<rect x="908.7654320987641" y="304.4058789085805" width="11.604938271604937" height="193.59412109141945" fill="#FFB000" data-tooltip="1.78x baseline (YJIT 3.3.3)"/>
<line x1="908.7654320987641" y1="304.17643049895713" x2="920.3703703703691" y2="304.17643049895713" stroke-dasharray="1,0.5" stroke="#333c"/>
<line x1="908.7654320987641" y1="304.6353273182039" x2="920.3703703703691" y2="304.6353273182039" stroke-dasharray="1,0.5" stroke="#333c"/>
<line x1="914.5679012345666" y1="304.17643049895713" x2="914.5679012345666" y2="304.6353273182039" stroke-dasharray="1,0.5" stroke="#333c"/>
<rect x="920.3703703703691" y="309.7316561500995" width="11.604938271604937" height="188.26834384990045" fill="#DC267F" data-tooltip="1.73x baseline (YJIT 3.4.0dev)"/>
<line x1="920.3703703703691" y1="309.49076773773686" x2="931.9753086419739" y2="309.49076773773686" stroke-dasharray="1,0.5" stroke="#333c"/>
<line x1="920.3703703703691" y1="309.9725445624622" x2="931.9753086419739" y2="309.9725445624622" stroke-dasharray="1,0.5" stroke="#333c"/>
<line x1="926.1728395061716" y1="309.49076773773686" x2="926.1728395061716" y2="309.9725445624622" stroke-dasharray="1,0.5" stroke="#333c"/>
<line x1="914.5679012345665" y1="498.0" x2="914.5679012345665" y2="502.79999999999995" stroke="#000"/>
<text x="914.5679012345665" y="512.4" fill="#111" font-size="small" text-anchor="end" transform="rotate(-60, 914.5679012345665, 512.4)">
tinygql
</text>
<rect x="943.5802469135789" y="397.28880405209213" width="11.604938271604937" height="100.71119594790788" fill="#785EF0" data-tooltip="0.93x baseline (CRuby 3.4.0dev)"/>
<rect x="955.1851851851839" y="315.0576263427024" width="11.604938271604937" height="182.9423736572975" fill="#FFB000" data-tooltip="1.68x baseline (YJIT 3.3.3)"/>
<rect x="966.7901234567887" y="302.00773401846715" width="11.604938271604937" height="195.99226598153274" fill="#DC267F" data-tooltip="1.80x baseline (YJIT 3.4.0dev)"/>
<line x1="960.9876543209862" y1="498.0" x2="960.9876543209862" y2="502.79999999999995" stroke="#000"/>
<text x="960.9876543209862" y="512.4" fill="#111" font-size="small" text-anchor="end" transform="rotate(-60, 960.9876543209862, 512.4)" font-style="italic">
geomean*
</text>
<line x1="50.0" y1="389.2717443487493" x2="990.0" y2="389.2717443487493" stroke="#648FFF" stroke-width="2"/>
<rect x="63.42993827160494" y="384.09307157190597" width="17.85" height="7.2" transform="rotate(-60, 69.4074074074074, 390.75307157190593)" fill="#fffa"/>
<text x="63.60493827160493" y="390.75307157190593" fill="#111" font-size="0.5em" text-anchor="start" textLength="17.5" transform="rotate(-60, 69.4074074074074, 390.75307157190593)" style="text-shadow: 0 0 1px #fff;">
0.92
</text>
<rect x="75.03487654320988" y="257.8398163301871" width="17.85" height="7.2" transform="rotate(-60, 81.01234567901234, 264.49981633018706)" fill="#fffa"/>
<text x="75.20987654320987" y="264.49981633018706" fill="#111" font-size="0.5em" text-anchor="start" textLength="17.5" transform="rotate(-60, 81.01234567901234, 264.49981633018706)" style="text-shadow: 0 0 1px #fff;">
2.08
</text>
<rect x="86.63981481481483" y="283.67879153200454" width="17.85" height="7.2" transform="rotate(-60, 92.61728395061729, 290.3387915320045)" fill="#fffa"/>
<text x="86.81481481481482" y="290.3387915320045" fill="#111" font-size="0.5em" text-anchor="start" textLength="17.5" transform="rotate(-60, 92.61728395061729, 290.3387915320045)" style="text-shadow: 0 0 1px #fff;">
1.84
</text>
<rect x="109.8496913580247" y="383.4271205441853" width="17.85" height="7.2" transform="rotate(-60, 115.82716049382717, 390.08712054418527)" fill="#fffa"/>
<text x="110.0246913580247" y="390.08712054418527" fill="#111" font-size="0.5em" text-anchor="start" textLength="17.5" transform="rotate(-60, 115.82716049382717, 390.08712054418527)" style="text-shadow: 0 0 1px #fff;">
0.92
</text>
<rect x="121.45462962962965" y="289.189509991182" width="17.85" height="7.2" transform="rotate(-60, 127.4320987654321, 295.84950999118195)" fill="#fffa"/>
<text x="121.62962962962965" y="295.84950999118195" fill="#111" font-size="0.5em" text-anchor="start" textLength="17.5" transform="rotate(-60, 127.4320987654321, 295.84950999118195)" style="text-shadow: 0 0 1px #fff;">
1.79
</text>
<rect x="133.05956790123457" y="246.3650914468356" width="17.85" height="7.2" transform="rotate(-60, 139.03703703703704, 253.0250914468356)" fill="#fffa"/>
<text x="133.23456790123458" y="253.0250914468356" fill="#111" font-size="0.5em" text-anchor="start" textLength="17.5" transform="rotate(-60, 139.03703703703704, 253.0250914468356)" style="text-shadow: 0 0 1px #fff;">
2.18
</text>
<rect x="156.26944444444447" y="379.61567922998887" width="17.85" height="7.2" transform="rotate(-60, 162.24691358024694, 386.27567922998884)" fill="#fffa"/>
<text x="156.44444444444446" y="386.27567922998884" fill="#111" font-size="0.5em" text-anchor="start" textLength="17.5" transform="rotate(-60, 162.24691358024694, 386.27567922998884)" style="text-shadow: 0 0 1px #fff;">
0.96
</text>
<rect x="167.8743827160494" y="351.86490341338504" width="17.85" height="7.2" transform="rotate(-60, 173.85185185185188, 358.524903413385)" fill="#fffa"/>
<text x="168.04938271604942" y="358.524903413385" fill="#111" font-size="0.5em" text-anchor="start" textLength="17.5" transform="rotate(-60, 173.85185185185188, 358.524903413385)" style="text-shadow: 0 0 1px #fff;">
1.21
</text>
<rect x="179.47932098765435" y="349.53187333733206" width="17.85" height="7.2" transform="rotate(-60, 185.4567901234568, 356.1918733373321)" fill="#fffa"/>
<text x="179.65432098765436" y="356.1918733373321" fill="#111" font-size="0.5em" text-anchor="start" textLength="17.5" transform="rotate(-60, 185.4567901234568, 356.1918733373321)" style="text-shadow: 0 0 1px #fff;">
1.24
</text>
<rect x="202.68919753086422" y="383.2614510014022" width="17.85" height="7.2" transform="rotate(-60, 208.66666666666669, 389.9214510014022)" fill="#fffa"/>
<text x="202.86419753086423" y="389.9214510014022" fill="#111" font-size="0.5em" text-anchor="start" textLength="17.5" transform="rotate(-60, 208.66666666666669, 389.9214510014022)" style="text-shadow: 0 0 1px #fff;">
0.93
</text>
<rect x="214.29413580246919" y="360.14391964860783" width="17.85" height="7.2" transform="rotate(-60, 220.27160493827165, 366.80391964860786)" fill="#fffa"/>
<text x="214.46913580246917" y="366.80391964860786" fill="#111" font-size="0.5em" text-anchor="start" textLength="17.5" transform="rotate(-60, 220.27160493827165, 366.80391964860786)" style="text-shadow: 0 0 1px #fff;">
1.14
</text>
<rect x="225.89907407407412" y="364.6847486733239" width="17.85" height="7.2" transform="rotate(-60, 231.8765432098766, 371.3447486733239)" fill="#fffa"/>
<text x="226.07407407407413" y="371.3447486733239" fill="#111" font-size="0.5em" text-anchor="start" textLength="17.5" transform="rotate(-60, 231.8765432098766, 371.3447486733239)" style="text-shadow: 0 0 1px #fff;">
1.10
</text>
<rect x="249.108950617284" y="384.8977322542449" width="17.85" height="7.2" transform="rotate(-60, 255.0864197530865, 391.55773225424485)" fill="#fffa"/>
<text x="249.283950617284" y="391.55773225424485" fill="#111" font-size="0.5em" text-anchor="start" textLength="17.5" transform="rotate(-60, 255.0864197530865, 391.55773225424485)" style="text-shadow: 0 0 1px #fff;">
0.91
</text>
<rect x="260.71388888888896" y="186.86408768709373" width="17.85" height="7.2" transform="rotate(-60, 266.6913580246914, 193.52408768709373)" fill="#fffa"/>
<text x="260.88888888888897" y="193.52408768709373" fill="#111" font-size="0.5em" text-anchor="start" textLength="17.5" transform="rotate(-60, 266.6913580246914, 193.52408768709373)" style="text-shadow: 0 0 1px #fff;">
2.73
</text>
<rect x="272.31882716049387" y="195.42164622515696" width="17.85" height="7.2" transform="rotate(-60, 278.2962962962963, 202.08164622515696)" fill="#fffa"/>
<text x="272.4938271604939" y="202.08164622515696" fill="#111" font-size="0.5em" text-anchor="start" textLength="17.5" transform="rotate(-60, 278.2962962962963, 202.08164622515696)" style="text-shadow: 0 0 1px #fff;">
2.65
</text>
<rect x="295.5287037037037" y="377.1333349755577" width="17.85" height="7.2" transform="rotate(-60, 301.5061728395061, 383.79333497555774)" fill="#fffa"/>
<text x="295.7037037037037" y="383.79333497555774" fill="#111" font-size="0.5em" text-anchor="start" textLength="17.5" transform="rotate(-60, 301.5061728395061, 383.79333497555774)" style="text-shadow: 0 0 1px #fff;">
0.98
</text>
<rect x="307.13364197530865" y="364.2825831980726" width="17.85" height="7.2" transform="rotate(-60, 313.1111111111111, 370.94258319807255)" fill="#fffa"/>
<text x="307.3086419753086" y="370.94258319807255" fill="#111" font-size="0.5em" text-anchor="start" textLength="17.5" transform="rotate(-60, 313.1111111111111, 370.94258319807255)" style="text-shadow: 0 0 1px #fff;">
1.10
</text>
<rect x="318.73858024691356" y="367.5567244826214" width="17.85" height="7.2" transform="rotate(-60, 324.716049382716, 374.21672448262143)" fill="#fffa"/>
<text x="318.9135802469135" y="374.21672448262143" fill="#111" font-size="0.5em" text-anchor="start" textLength="17.5" transform="rotate(-60, 324.716049382716, 374.21672448262143)" style="text-shadow: 0 0 1px #fff;">
1.07
</text>
<rect x="341.9484567901234" y="380.15457875064874" width="17.85" height="7.2" transform="rotate(-60, 347.9259259259258, 386.8145787506487)" fill="#fffa"/>
<text x="342.1234567901233" y="386.8145787506487" fill="#111" font-size="0.5em" text-anchor="start" textLength="17.5" transform="rotate(-60, 347.9259259259258, 386.8145787506487)" style="text-shadow: 0 0 1px #fff;">
0.95
</text>
<rect x="353.5533950617283" y="356.1914280419422" width="17.85" height="7.2" transform="rotate(-60, 359.5308641975307, 362.85142804194214)" fill="#fffa"/>
<text x="353.72839506172824" y="362.85142804194214" fill="#111" font-size="0.5em" text-anchor="start" textLength="17.5" transform="rotate(-60, 359.5308641975307, 362.85142804194214)" style="text-shadow: 0 0 1px #fff;">
1.17
</text>
<rect x="365.1583333333332" y="358.9318976693788" width="17.85" height="7.2" transform="rotate(-60, 371.1358024691356, 365.5918976693788)" fill="#fffa"/>
<text x="365.3333333333332" y="365.5918976693788" fill="#111" font-size="0.5em" text-anchor="start" textLength="17.5" transform="rotate(-60, 371.1358024691356, 365.5918976693788)" style="text-shadow: 0 0 1px #fff;">
1.15
</text>
<rect x="388.368209876543" y="382.5757625759345" width="17.85" height="7.2" transform="rotate(-60, 394.34567901234544, 389.23576257593453)" fill="#fffa"/>
<text x="388.543209876543" y="389.23576257593453" fill="#111" font-size="0.5em" text-anchor="start" textLength="17.5" transform="rotate(-60, 394.34567901234544, 389.23576257593453)" style="text-shadow: 0 0 1px #fff;">
0.93
</text>
<rect x="399.9731481481479" y="361.46253858878794" width="17.85" height="7.2" transform="rotate(-60, 405.95061728395035, 368.12253858878796)" fill="#fffa"/>
<text x="400.1481481481479" y="368.12253858878796" fill="#111" font-size="0.5em" text-anchor="start" textLength="17.5" transform="rotate(-60, 405.95061728395035, 368.12253858878796)" style="text-shadow: 0 0 1px #fff;">
1.13
</text>
<rect x="411.5780864197529" y="369.1204542996922" width="17.85" height="7.2" transform="rotate(-60, 417.5555555555553, 375.78045429969217)" fill="#fffa"/>
<text x="411.75308641975283" y="375.78045429969217" fill="#111" font-size="0.5em" text-anchor="start" textLength="17.5" transform="rotate(-60, 417.5555555555553, 375.78045429969217)" style="text-shadow: 0 0 1px #fff;">
1.06
</text>
<rect x="434.7879629629627" y="382.8007228506686" width="17.85" height="7.2" transform="rotate(-60, 440.76543209876513, 389.4607228506686)" fill="#fffa"/>
<text x="434.96296296296265" y="389.4607228506686" fill="#111" font-size="0.5em" text-anchor="start" textLength="17.5" transform="rotate(-60, 440.76543209876513, 389.4607228506686)" style="text-shadow: 0 0 1px #fff;">
0.93
</text>
<rect x="446.3929012345676" y="331.0665180959518" width="17.85" height="7.2" transform="rotate(-60, 452.37037037037004, 337.72651809595175)" fill="#fffa"/>
<text x="446.56790123456756" y="337.72651809595175" fill="#111" font-size="0.5em" text-anchor="start" textLength="17.5" transform="rotate(-60, 452.37037037037004, 337.72651809595175)" style="text-shadow: 0 0 1px #fff;">
1.41
</text>
<rect x="457.9978395061725" y="331.20920523074284" width="17.85" height="7.2" transform="rotate(-60, 463.97530864197495, 337.8692052307428)" fill="#fffa"/>
<text x="458.17283950617247" y="337.8692052307428" fill="#111" font-size="0.5em" text-anchor="start" textLength="17.5" transform="rotate(-60, 463.97530864197495, 337.8692052307428)" style="text-shadow: 0 0 1px #fff;">
1.40
</text>
<rect x="481.2077160493823" y="384.39803433944377" width="17.85" height="7.2" transform="rotate(-60, 487.18518518518476, 391.0580343394438)" fill="#fffa"/>
<text x="481.38271604938234" y="391.0580343394438" fill="#111" font-size="0.5em" text-anchor="start" textLength="17.5" transform="rotate(-60, 487.18518518518476, 391.0580343394438)" style="text-shadow: 0 0 1px #fff;">
0.91
</text>
<rect x="492.81265432098724" y="318.68767493553963" width="17.85" height="7.2" transform="rotate(-60, 498.7901234567897, 325.34767493553966)" fill="#fffa"/>
<text x="492.98765432098725" y="325.34767493553966" fill="#111" font-size="0.5em" text-anchor="start" textLength="17.5" transform="rotate(-60, 498.7901234567897, 325.34767493553966)" style="text-shadow: 0 0 1px #fff;">
1.52
</text>
<rect x="504.4175925925921" y="309.22528737303327" width="17.85" height="7.2" transform="rotate(-60, 510.39506172839464, 315.88528737303324)" fill="#fffa"/>
<text x="504.59259259259215" y="315.88528737303324" fill="#111" font-size="0.5em" text-anchor="start" textLength="17.5" transform="rotate(-60, 510.39506172839464, 315.88528737303324)" style="text-shadow: 0 0 1px #fff;">
1.61
</text>
<rect x="527.6274691358019" y="380.2807747522203" width="17.85" height="7.2" transform="rotate(-60, 533.6049382716045, 386.94077475222025)" fill="#fffa"/>
<text x="527.802469135802" y="386.94077475222025" fill="#111" font-size="0.5em" text-anchor="start" textLength="17.5" transform="rotate(-60, 533.6049382716045, 386.94077475222025)" style="text-shadow: 0 0 1px #fff;">
0.95
</text>
<rect x="539.2324074074069" y="290.09676016839535" width="17.85" height="7.2" transform="rotate(-60, 545.2098765432094, 296.7567601683953)" fill="#fffa"/>
<text x="539.4074074074069" y="296.7567601683953" fill="#111" font-size="0.5em" text-anchor="start" textLength="17.5" transform="rotate(-60, 545.2098765432094, 296.7567601683953)" style="text-shadow: 0 0 1px #fff;">
1.78
</text>
<rect x="550.8373456790117" y="233.15486503368697" width="17.85" height="7.2" transform="rotate(-60, 556.8148148148143, 239.81486503368697)" fill="#fffa"/>
<text x="551.0123456790118" y="239.81486503368697" fill="#111" font-size="0.5em" text-anchor="start" textLength="17.5" transform="rotate(-60, 556.8148148148143, 239.81486503368697)" style="text-shadow: 0 0 1px #fff;">
2.31
</text>
<rect x="574.0472222222216" y="389.5347384383593" width="17.85" height="7.2" transform="rotate(-60, 580.0246913580241, 396.1947384383593)" fill="#fffa"/>
<text x="574.2222222222216" y="396.1947384383593" fill="#111" font-size="0.5em" text-anchor="start" textLength="17.5" transform="rotate(-60, 580.0246913580241, 396.1947384383593)" style="text-shadow: 0 0 1px #fff;">
0.87
</text>
<rect x="585.6521604938265" y="375.08435039608156" width="17.85" height="7.2" transform="rotate(-60, 591.6296296296291, 381.7443503960816)" fill="#fffa"/>
<text x="585.8271604938266" y="381.7443503960816" fill="#111" font-size="0.5em" text-anchor="start" textLength="17.5" transform="rotate(-60, 591.6296296296291, 381.7443503960816)" style="text-shadow: 0 0 1px #fff;">
1.00
</text>
<rect x="597.2570987654315" y="93.64221922609039" width="17.85" height="7.2" transform="rotate(-60, 603.234567901234, 100.30221922609039)" fill="#fffa"/>
<text x="597.4320987654314" y="100.30221922609039" fill="#111" font-size="0.5em" text-anchor="start" textLength="17.5" transform="rotate(-60, 603.234567901234, 100.30221922609039)" style="text-shadow: 0 0 1px #fff;">
3.59
</text>
<rect x="620.4669753086413" y="381.2022583241408" width="17.85" height="7.2" transform="rotate(-60, 626.4444444444438, 387.8622583241408)" fill="#fffa"/>
<text x="620.6419753086412" y="387.8622583241408" fill="#111" font-size="0.5em" text-anchor="start" textLength="17.5" transform="rotate(-60, 626.4444444444438, 387.8622583241408)" style="text-shadow: 0 0 1px #fff;">
0.94
</text>
<rect x="632.0719135802461" y="91.22949564430326" width="17.85" height="7.2" transform="rotate(-60, 638.0493827160487, 97.88949564430325)" fill="#fffa"/>
<text x="632.2469135802462" y="97.88949564430325" fill="#111" font-size="0.5em" text-anchor="start" textLength="17.5" transform="rotate(-60, 638.0493827160487, 97.88949564430325)" style="text-shadow: 0 0 1px #fff;">
3.61
</text>
<rect x="643.6768518518511" y="86.03999999999998" width="17.85" height="7.2" transform="rotate(-60, 649.6543209876536, 92.69999999999999)" fill="#fffa"/>
<text x="643.8518518518512" y="92.69999999999999" fill="#111" font-size="0.5em" text-anchor="start" textLength="17.5" transform="rotate(-60, 649.6543209876536, 92.69999999999999)" style="text-shadow: 0 0 1px #fff;">
3.66
</text>
<rect x="666.8867283950609" y="388.36274866704775" width="17.85" height="7.2" transform="rotate(-60, 672.8641975308634, 395.0227486670478)" fill="#fffa"/>
<text x="667.061728395061" y="395.0227486670478" fill="#111" font-size="0.5em" text-anchor="start" textLength="17.5" transform="rotate(-60, 672.8641975308634, 395.0227486670478)" style="text-shadow: 0 0 1px #fff;">
0.88
</text>
<rect x="678.4916666666659" y="106.62688236516918" width="17.85" height="7.2" transform="rotate(-60, 684.4691358024684, 113.28688236516918)" fill="#fffa"/>
<text x="678.6666666666658" y="113.28688236516918" fill="#111" font-size="0.5em" text-anchor="start" textLength="17.5" transform="rotate(-60, 684.4691358024684, 113.28688236516918)" style="text-shadow: 0 0 1px #fff;">
3.47
</text>
<rect x="690.0966049382707" y="140.83504624193068" width="17.85" height="7.2" transform="rotate(-60, 696.0740740740733, 147.49504624193068)" fill="#fffa"/>
<text x="690.2716049382708" y="147.49504624193068" fill="#111" font-size="0.5em" text-anchor="start" textLength="17.5" transform="rotate(-60, 696.0740740740733, 147.49504624193068)" style="text-shadow: 0 0 1px #fff;">
3.15
</text>
<rect x="713.3064814814805" y="377.98779901691535" width="17.85" height="7.2" transform="rotate(-60, 719.2839506172832, 384.64779901691537)" fill="#fffa"/>
<text x="713.4814814814806" y="384.64779901691537" fill="#111" font-size="0.5em" text-anchor="start" textLength="17.5" transform="rotate(-60, 719.2839506172832, 384.64779901691537)" style="text-shadow: 0 0 1px #fff;">
0.97
</text>
<rect x="724.9114197530855" y="297.2208850986572" width="17.85" height="7.2" transform="rotate(-60, 730.888888888888, 303.8808850986572)" fill="#fffa"/>
<text x="725.0864197530855" y="303.8808850986572" fill="#111" font-size="0.5em" text-anchor="start" textLength="17.5" transform="rotate(-60, 730.888888888888, 303.8808850986572)" style="text-shadow: 0 0 1px #fff;">
1.72
</text>
<rect x="736.5163580246904" y="285.43985024540245" width="17.85" height="7.2" transform="rotate(-60, 742.493827160493, 292.0998502454024)" fill="#fffa"/>
<text x="736.6913580246904" y="292.0998502454024" fill="#111" font-size="0.5em" text-anchor="start" textLength="17.5" transform="rotate(-60, 742.493827160493, 292.0998502454024)" style="text-shadow: 0 0 1px #fff;">
1.82
</text>
<rect x="759.7262345679002" y="381.77252054514264" width="17.85" height="7.2" transform="rotate(-60, 765.7037037037028, 388.43252054514267)" fill="#fffa"/>
<text x="759.9012345679002" y="388.43252054514267" fill="#111" font-size="0.5em" text-anchor="start" textLength="17.5" transform="rotate(-60, 765.7037037037028, 388.43252054514267)" style="text-shadow: 0 0 1px #fff;">
0.94
</text>
<rect x="771.3311728395051" y="358.53802806536925" width="17.85" height="7.2" transform="rotate(-60, 777.3086419753076, 365.1980280653692)" fill="#fffa"/>
<text x="771.5061728395052" y="365.1980280653692" fill="#111" font-size="0.5em" text-anchor="start" textLength="17.5" transform="rotate(-60, 777.3086419753076, 365.1980280653692)" style="text-shadow: 0 0 1px #fff;">
1.15
</text>
<rect x="782.9361111111101" y="364.4130440226569" width="17.85" height="7.2" transform="rotate(-60, 788.9135802469126, 371.0730440226569)" fill="#fffa"/>
<text x="783.1111111111101" y="371.0730440226569" fill="#111" font-size="0.5em" text-anchor="start" textLength="17.5" transform="rotate(-60, 788.9135802469126, 371.0730440226569)" style="text-shadow: 0 0 1px #fff;">
1.10
</text>
<rect x="806.1459876543199" y="388.328111700562" width="17.85" height="7.2" transform="rotate(-60, 812.1234567901224, 394.988111700562)" fill="#fffa"/>
<text x="806.3209876543199" y="394.988111700562" fill="#111" font-size="0.5em" text-anchor="start" textLength="17.5" transform="rotate(-60, 812.1234567901224, 394.988111700562)" style="text-shadow: 0 0 1px #fff;">
0.88
</text>
<rect x="817.7509259259248" y="263.5736496057181" width="17.85" height="7.2" transform="rotate(-60, 823.7283950617274, 270.23364960571814)" fill="#fffa"/>
<text x="817.9259259259248" y="270.23364960571814" fill="#111" font-size="0.5em" text-anchor="start" textLength="17.5" transform="rotate(-60, 823.7283950617274, 270.23364960571814)" style="text-shadow: 0 0 1px #fff;">
2.03
</text>
<rect x="829.3558641975297" y="276.077548224018" width="17.85" height="7.2" transform="rotate(-60, 835.3333333333322, 282.73754822401804)" fill="#fffa"/>
<text x="829.5308641975297" y="282.73754822401804" fill="#111" font-size="0.5em" text-anchor="start" textLength="17.5" transform="rotate(-60, 835.3333333333322, 282.73754822401804)" style="text-shadow: 0 0 1px #fff;">
1.91
</text>
<rect x="852.5657407407396" y="384.65956418348503" width="17.85" height="7.2" transform="rotate(-60, 858.543209876542, 391.31956418348506)" fill="#fffa"/>
<text x="852.7407407407396" y="391.31956418348506" fill="#111" font-size="0.5em" text-anchor="start" textLength="17.5" transform="rotate(-60, 858.543209876542, 391.31956418348506)" style="text-shadow: 0 0 1px #fff;">
0.91
</text>
<rect x="864.1706790123444" y="175.64157988528552" width="17.85" height="7.2" transform="rotate(-60, 870.148148148147, 182.30157988528555)" fill="#fffa"/>
<text x="864.3456790123445" y="182.30157988528555" fill="#111" font-size="0.5em" text-anchor="start" textLength="17.5" transform="rotate(-60, 870.148148148147, 182.30157988528555)" style="text-shadow: 0 0 1px #fff;">
2.83
</text>
<rect x="875.7756172839494" y="187.71970307096612" width="17.85" height="7.2" transform="rotate(-60, 881.7530864197519, 194.37970307096612)" fill="#fffa"/>
<text x="875.9506172839494" y="194.37970307096612" fill="#111" font-size="0.5em" text-anchor="start" textLength="17.5" transform="rotate(-60, 881.7530864197519, 194.37970307096612)" style="text-shadow: 0 0 1px #fff;">
2.72
</text>
<rect x="898.9854938271592" y="383.954062355633" width="17.85" height="7.2" transform="rotate(-60, 904.9629629629618, 390.61406235563305)" fill="#fffa"/>
<text x="899.1604938271593" y="390.61406235563305" fill="#111" font-size="0.5em" text-anchor="start" textLength="17.5" transform="rotate(-60, 904.9629629629618, 390.61406235563305)" style="text-shadow: 0 0 1px #fff;">
0.92
</text>
<rect x="910.5904320987642" y="290.24587890858055" width="17.85" height="7.2" transform="rotate(-60, 916.5679012345666, 296.9058789085805)" fill="#fffa"/>
<text x="910.7654320987641" y="296.9058789085805" fill="#111" font-size="0.5em" text-anchor="start" textLength="17.5" transform="rotate(-60, 916.5679012345666, 296.9058789085805)" style="text-shadow: 0 0 1px #fff;">
1.78
</text>
<rect x="922.195370370369" y="295.57165615009956" width="17.85" height="7.2" transform="rotate(-60, 928.1728395061716, 302.2316561500995)" fill="#fffa"/>
<text x="922.3703703703691" y="302.2316561500995" fill="#111" font-size="0.5em" text-anchor="start" textLength="17.5" transform="rotate(-60, 928.1728395061716, 302.2316561500995)" style="text-shadow: 0 0 1px #fff;">
1.73
</text>
<rect x="945.4052469135788" y="383.1288040520921" width="17.85" height="7.2" transform="rotate(-60, 951.3827160493814, 389.78880405209213)" fill="#fffa"/>
<text x="945.5802469135789" y="389.78880405209213" fill="#111" font-size="0.5em" text-anchor="start" textLength="17.5" transform="rotate(-60, 951.3827160493814, 389.78880405209213)" style="text-shadow: 0 0 1px #fff;">
0.93
</text>
<rect x="957.0101851851838" y="300.89762634270244" width="17.85" height="7.2" transform="rotate(-60, 962.9876543209863, 307.55762634270246)" fill="#fffa"/>
<text x="957.1851851851839" y="307.55762634270246" fill="#111" font-size="0.5em" text-anchor="start" textLength="17.5" transform="rotate(-60, 962.9876543209863, 307.55762634270246)" style="text-shadow: 0 0 1px #fff;">
1.68
</text>
<rect x="968.6151234567886" y="287.8477340184672" width="17.85" height="7.2" transform="rotate(-60, 974.5925925925912, 294.50773401846715)" fill="#fffa"/>
<text x="968.7901234567887" y="294.50773401846715" fill="#111" font-size="0.5em" text-anchor="start" textLength="17.5" transform="rotate(-60, 974.5925925925912, 294.50773401846715)" style="text-shadow: 0 0 1px #fff;">
1.80
</text>
</svg>