<svg viewBox="0 0 1000 600" xmlns="http://www.w3.org/2000/svg" xmlns:xlink="http://www.w3.org/1999/xlink" width="100%" height="100%">

<rect x="50.0" y="30.0" width="940.0" height="467.99999999999994" stroke="#000" fill="#fff"/>
<line x1="42.0" y1="497.9999999999999" x2="50.0" y2="497.9999999999999" stroke="#000"/>
<text x="26.000000000000004" y="497.9999999999999" text-anchor="end" font-weight="bold" font-size="small" fill="#111">
0.0
</text>
<line x1="42.0" y1="407.2652998863918" x2="50.0" y2="407.2652998863918" stroke="#000"/>
<text x="26.000000000000004" y="407.2652998863918" text-anchor="end" font-weight="bold" font-size="small" fill="#111">
0.5
</text>
<line x1="42.0" y1="316.5305997727836" x2="50.0" y2="316.5305997727836" stroke="#000"/>
<text x="26.000000000000004" y="316.5305997727836" text-anchor="end" font-weight="bold" font-size="small" fill="#111">
1.0
</text>
<line x1="42.0" y1="225.79589965917543" x2="50.0" y2="225.79589965917543" stroke="#000"/>
<text x="26.000000000000004" y="225.79589965917543" text-anchor="end" font-weight="bold" font-size="small" fill="#111">
1.5
</text>
<line x1="42.0" y1="135.0611995455673" x2="50.0" y2="135.0611995455673" stroke="#000"/>
<text x="26.000000000000004" y="135.0611995455673" text-anchor="end" font-weight="bold" font-size="small" fill="#111">
2.0
</text>
<line x1="248.5" y1="54.60000000000001" x2="368.5" y2="54.60000000000001" stroke="#648FFF" stroke-width="2"/>
<text x="308.5" y="49.500000000000014" font-size="small" text-anchor="middle" font-weight="bold" fill="#000">
CRuby 3.3.0dev
</text>
<rect x="671.5" y="35.400000000000006" width="120.0" height="19.2" fill="#785EF0" stroke="none"/>
<text x="731.4999999999999" y="49.500000000000014" font-size="small" text-anchor="middle" font-weight="bold" fill="#fff" style="text-shadow: 0 0 1px #000;">
YJIT 3.3.0dev
</text>
<rect x="61.60493827160494" y="290.92523106878133" width="11.604938271604937" height="207.07476893121864" fill="#785EF0" data-tooltip="1.14x baseline (YJIT 3.3.0dev)"/>
<line x1="67.4074074074074" y1="498.0" x2="67.4074074074074" y2="502.79999999999995" stroke="#000"/>
<text x="67.4074074074074" y="512.4" fill="#111" font-size="small" text-anchor="end" transform="rotate(-60, 67.4074074074074, 512.4)">
activerecord
</text>
<rect x="84.81481481481481" y="366.14366015401805" width="11.604938271604937" height="131.85633984598192" fill="#785EF0" data-tooltip="0.73x baseline (YJIT 3.3.0dev)"/>
<line x1="90.61728395061729" y1="498.0" x2="90.61728395061729" y2="502.79999999999995" stroke="#000"/>
<text x="90.61728395061729" y="512.4" fill="#111" font-size="small" text-anchor="end" transform="rotate(-60, 90.61728395061729, 512.4)">
chunky-png
</text>
<rect x="108.0246913580247" y="293.66452916781344" width="11.604938271604937" height="204.33547083218647" fill="#785EF0" data-tooltip="1.13x baseline (YJIT 3.3.0dev)"/>
<line x1="113.82716049382717" y1="498.0" x2="113.82716049382717" y2="502.79999999999995" stroke="#000"/>
<text x="113.82716049382717" y="512.4" fill="#111" font-size="small" text-anchor="end" transform="rotate(-60, 113.82716049382717, 512.4)">
erubi-rails
</text>
<rect x="131.23456790123458" y="100.19999999999999" width="11.604938271604937" height="397.79999999999995" fill="#785EF0" data-tooltip="2.19x baseline (YJIT 3.3.0dev)"/>
<line x1="137.03703703703707" y1="498.0" x2="137.03703703703707" y2="502.79999999999995" stroke="#000"/>
<text x="137.03703703703707" y="512.4" fill="#111" font-size="small" text-anchor="end" transform="rotate(-60, 137.03703703703707, 512.4)">
hexapdf
</text>
<rect x="154.44444444444446" y="289.0414699948476" width="11.604938271604937" height="208.9585300051523" fill="#785EF0" data-tooltip="1.15x baseline (YJIT 3.3.0dev)"/>
<line x1="160.24691358024694" y1="498.0" x2="160.24691358024694" y2="502.79999999999995" stroke="#000"/>
<text x="160.24691358024694" y="512.4" fill="#111" font-size="small" text-anchor="end" transform="rotate(-60, 160.24691358024694, 512.4)">
liquid-c
</text>
<rect x="177.65432098765436" y="295.18301977575254" width="11.604938271604937" height="202.8169802242474" fill="#785EF0" data-tooltip="1.12x baseline (YJIT 3.3.0dev)"/>
<line x1="183.45679012345684" y1="498.0" x2="183.45679012345684" y2="502.79999999999995" stroke="#000"/>
<text x="183.45679012345684" y="512.4" fill="#111" font-size="small" text-anchor="end" transform="rotate(-60, 183.45679012345684, 512.4)">
liquid-compile
</text>
<rect x="200.86419753086423" y="285.9061313747756" width="11.604938271604937" height="212.09386862522433" fill="#785EF0" data-tooltip="1.17x baseline (YJIT 3.3.0dev)"/>
<line x1="206.6666666666667" y1="498.0" x2="206.6666666666667" y2="502.79999999999995" stroke="#000"/>
<text x="206.6666666666667" y="512.4" fill="#111" font-size="small" text-anchor="end" transform="rotate(-60, 206.6666666666667, 512.4)">
liquid-render
</text>
<rect x="224.07407407407413" y="281.5472837691064" width="11.604938271604937" height="216.45271623089354" fill="#785EF0" data-tooltip="1.19x baseline (YJIT 3.3.0dev)"/>
<line x1="229.87654320987662" y1="498.0" x2="229.87654320987662" y2="502.79999999999995" stroke="#000"/>
<text x="229.87654320987662" y="512.4" fill="#111" font-size="small" text-anchor="end" transform="rotate(-60, 229.87654320987662, 512.4)">
lobsters
</text>
<rect x="247.283950617284" y="293.5691654583195" width="11.604938271604937" height="204.43083454168044" fill="#785EF0" data-tooltip="1.13x baseline (YJIT 3.3.0dev)"/>
<line x1="253.0864197530865" y1="498.0" x2="253.0864197530865" y2="502.79999999999995" stroke="#000"/>
<text x="253.0864197530865" y="512.4" fill="#111" font-size="small" text-anchor="end" transform="rotate(-60, 253.0864197530865, 512.4)">
mail
</text>
<rect x="270.4938271604939" y="306.912169066027" width="11.604938271604937" height="191.087830933973" fill="#785EF0" data-tooltip="1.05x baseline (YJIT 3.3.0dev)"/>
<line x1="276.2962962962963" y1="498.0" x2="276.2962962962963" y2="502.79999999999995" stroke="#000"/>
<text x="276.2962962962963" y="512.4" fill="#111" font-size="small" text-anchor="end" transform="rotate(-60, 276.2962962962963, 512.4)">
psych-load
</text>
<rect x="293.7037037037037" y="280.0330122621648" width="11.604938271604937" height="217.96698773783518" fill="#785EF0" data-tooltip="1.20x baseline (YJIT 3.3.0dev)"/>
<line x1="299.5061728395061" y1="498.0" x2="299.5061728395061" y2="502.79999999999995" stroke="#000"/>
<text x="299.5061728395061" y="512.4" fill="#111" font-size="small" text-anchor="end" transform="rotate(-60, 299.5061728395061, 512.4)">
railsbench
</text>
<rect x="316.9135802469135" y="236.1544534060509" width="11.604938271604937" height="261.845546593949" fill="#785EF0" data-tooltip="1.44x baseline (YJIT 3.3.0dev)"/>
<line x1="322.716049382716" y1="498.0" x2="322.716049382716" y2="502.79999999999995" stroke="#000"/>
<text x="322.716049382716" y="512.4" fill="#111" font-size="small" text-anchor="end" transform="rotate(-60, 322.716049382716, 512.4)">
ruby-lsp
</text>
<rect x="340.1234567901233" y="292.2820011847953" width="11.604938271604937" height="205.71799881520465" fill="#785EF0" data-tooltip="1.13x baseline (YJIT 3.3.0dev)"/>
<line x1="345.9259259259258" y1="498.0" x2="345.9259259259258" y2="502.79999999999995" stroke="#000"/>
<text x="345.9259259259258" y="512.4" fill="#111" font-size="small" text-anchor="end" transform="rotate(-60, 345.9259259259258, 512.4)">
sequel
</text>
<rect x="363.3333333333332" y="314.87273117811515" width="11.604938271604937" height="183.1272688218847" fill="#785EF0" data-tooltip="1.01x baseline (YJIT 3.3.0dev)"/>
<line x1="369.1358024691356" y1="498.0" x2="369.1358024691356" y2="502.79999999999995" stroke="#000"/>
<text x="369.1358024691356" y="512.4" fill="#111" font-size="small" text-anchor="end" transform="rotate(-60, 369.1358024691356, 512.4)">
binarytrees
</text>
<rect x="386.543209876543" y="298.6336176016146" width="11.604938271604937" height="199.36638239838533" fill="#785EF0" data-tooltip="1.10x baseline (YJIT 3.3.0dev)"/>
<line x1="392.34567901234544" y1="498.0" x2="392.34567901234544" y2="502.79999999999995" stroke="#000"/>
<text x="392.34567901234544" y="512.4" fill="#111" font-size="small" text-anchor="end" transform="rotate(-60, 392.34567901234544, 512.4)">
erubi
</text>
<rect x="409.75308641975283" y="309.4382573980878" width="11.604938271604937" height="188.56174260191213" fill="#785EF0" data-tooltip="1.04x baseline (YJIT 3.3.0dev)"/>
<line x1="415.5555555555553" y1="498.0" x2="415.5555555555553" y2="502.79999999999995" stroke="#000"/>
<text x="415.5555555555553" y="512.4" fill="#111" font-size="small" text-anchor="end" transform="rotate(-60, 415.5555555555553, 512.4)">
etanni
</text>
<rect x="432.96296296296265" y="313.1055346204313" width="11.604938271604937" height="184.8944653795686" fill="#785EF0" data-tooltip="1.02x baseline (YJIT 3.3.0dev)"/>
<line x1="438.76543209876513" y1="498.0" x2="438.76543209876513" y2="502.79999999999995" stroke="#000"/>
<text x="438.76543209876513" y="512.4" fill="#111" font-size="small" text-anchor="end" transform="rotate(-60, 438.76543209876513, 512.4)">
fannkuchredux
</text>
<rect x="456.17283950617247" y="312.67379108458664" width="11.604938271604937" height="185.32620891541328" fill="#785EF0" data-tooltip="1.02x baseline (YJIT 3.3.0dev)"/>
<line x1="461.97530864197495" y1="498.0" x2="461.97530864197495" y2="502.79999999999995" stroke="#000"/>
<text x="461.97530864197495" y="512.4" fill="#111" font-size="small" text-anchor="end" transform="rotate(-60, 461.97530864197495, 512.4)">
fluentd
</text>
<rect x="479.38271604938234" y="295.40994419635115" width="11.604938271604937" height="202.5900558036488" fill="#785EF0" data-tooltip="1.12x baseline (YJIT 3.3.0dev)"/>
<line x1="485.18518518518476" y1="498.0" x2="485.18518518518476" y2="502.79999999999995" stroke="#000"/>
<text x="485.18518518518476" y="512.4" fill="#111" font-size="small" text-anchor="end" transform="rotate(-60, 485.18518518518476, 512.4)">
graphql
</text>
<rect x="502.59259259259215" y="287.80308842729033" width="11.604938271604937" height="210.1969115727096" fill="#785EF0" data-tooltip="1.16x baseline (YJIT 3.3.0dev)"/>
<line x1="508.3950617283945" y1="498.0" x2="508.3950617283945" y2="502.79999999999995" stroke="#000"/>
<text x="508.3950617283945" y="512.4" fill="#111" font-size="small" text-anchor="end" transform="rotate(-60, 508.3950617283945, 512.4)">
graphql-native
</text>
<rect x="525.802469135802" y="292.9478138733617" width="11.604938271604937" height="205.05218612663822" fill="#785EF0" data-tooltip="1.13x baseline (YJIT 3.3.0dev)"/>
<line x1="531.6049382716044" y1="498.0" x2="531.6049382716044" y2="502.79999999999995" stroke="#000"/>
<text x="531.6049382716044" y="512.4" fill="#111" font-size="small" text-anchor="end" transform="rotate(-60, 531.6049382716044, 512.4)">
lee
</text>
<rect x="549.0123456790118" y="313.87149101009237" width="11.604938271604937" height="184.12850898990754" fill="#785EF0" data-tooltip="1.01x baseline (YJIT 3.3.0dev)"/>
<line x1="554.8148148148142" y1="498.0" x2="554.8148148148142" y2="502.79999999999995" stroke="#000"/>
<text x="554.8148148148142" y="512.4" fill="#111" font-size="small" text-anchor="end" transform="rotate(-60, 554.8148148148142, 512.4)">
nbody
</text>
<rect x="572.2222222222216" y="306.73122432137916" width="11.604938271604937" height="191.2687756786208" fill="#785EF0" data-tooltip="1.05x baseline (YJIT 3.3.0dev)"/>
<line x1="578.024691358024" y1="498.0" x2="578.024691358024" y2="502.79999999999995" stroke="#000"/>
<text x="578.024691358024" y="512.4" fill="#111" font-size="small" text-anchor="end" transform="rotate(-60, 578.024691358024, 512.4)">
optcarrot
</text>
<rect x="595.4320987654314" y="301.09920499180674" width="11.604938271604937" height="196.90079500819317" fill="#785EF0" data-tooltip="1.09x baseline (YJIT 3.3.0dev)"/>
<line x1="601.2345679012338" y1="498.0" x2="601.2345679012338" y2="502.79999999999995" stroke="#000"/>
<text x="601.2345679012338" y="512.4" fill="#111" font-size="small" text-anchor="end" transform="rotate(-60, 601.2345679012338, 512.4)">
rack
</text>
<rect x="618.6419753086412" y="313.81886336771464" width="11.604938271604937" height="184.1811366322853" fill="#785EF0" data-tooltip="1.01x baseline (YJIT 3.3.0dev)"/>
<line x1="624.4444444444437" y1="498.0" x2="624.4444444444437" y2="502.79999999999995" stroke="#000"/>
<text x="624.4444444444437" y="512.4" fill="#111" font-size="small" text-anchor="end" transform="rotate(-60, 624.4444444444437, 512.4)">
ruby-json
</text>
<rect x="641.8518518518512" y="312.5180682737766" width="11.604938271604937" height="185.48193172622334" fill="#785EF0" data-tooltip="1.02x baseline (YJIT 3.3.0dev)"/>
<line x1="647.6543209876535" y1="498.0" x2="647.6543209876535" y2="502.79999999999995" stroke="#000"/>
<text x="647.6543209876535" y="512.4" fill="#111" font-size="small" text-anchor="end" transform="rotate(-60, 647.6543209876535, 512.4)">
rubykon
</text>
<rect x="665.061728395061" y="296.67960480576016" width="11.604938271604937" height="201.32039519423978" fill="#785EF0" data-tooltip="1.11x baseline (YJIT 3.3.0dev)"/>
<line x1="670.8641975308633" y1="498.0" x2="670.8641975308633" y2="502.79999999999995" stroke="#000"/>
<text x="670.8641975308633" y="512.4" fill="#111" font-size="small" text-anchor="end" transform="rotate(-60, 670.8641975308633, 512.4)">
tinygql
</text>
<rect x="688.2716049382708" y="199.22590790966706" width="11.604938271604937" height="298.7740920903329" fill="#785EF0" data-tooltip="1.65x baseline (YJIT 3.3.0dev)"/>
<line x1="694.0740740740732" y1="498.0" x2="694.0740740740732" y2="502.79999999999995" stroke="#000"/>
<text x="694.0740740740732" y="512.4" fill="#111" font-size="small" text-anchor="end" transform="rotate(-60, 694.0740740740732, 512.4)">
30k_ifelse
</text>
<rect x="711.4814814814806" y="269.9612644490513" width="11.604938271604937" height="228.03873555094864" fill="#785EF0" data-tooltip="1.26x baseline (YJIT 3.3.0dev)"/>
<line x1="717.283950617283" y1="498.0" x2="717.283950617283" y2="502.79999999999995" stroke="#000"/>
<text x="717.283950617283" y="512.4" fill="#111" font-size="small" text-anchor="end" transform="rotate(-60, 717.283950617283, 512.4)">
30k_methods
</text>
<rect x="734.6913580246904" y="314.4704541328379" width="11.604938271604937" height="183.52954586716203" fill="#785EF0" data-tooltip="1.01x baseline (YJIT 3.3.0dev)"/>
<line x1="740.4938271604929" y1="498.0" x2="740.4938271604929" y2="502.79999999999995" stroke="#000"/>
<text x="740.4938271604929" y="512.4" fill="#111" font-size="small" text-anchor="end" transform="rotate(-60, 740.4938271604929, 512.4)">
cfunc_itself
</text>
<rect x="757.9012345679002" y="314.459706715088" width="11.604938271604937" height="183.54029328491197" fill="#785EF0" data-tooltip="1.01x baseline (YJIT 3.3.0dev)"/>
<line x1="763.7037037037027" y1="498.0" x2="763.7037037037027" y2="502.79999999999995" stroke="#000"/>
<text x="763.7037037037027" y="512.4" fill="#111" font-size="small" text-anchor="end" transform="rotate(-60, 763.7037037037027, 512.4)">
fib
</text>
<rect x="781.1111111111101" y="314.49227210656005" width="11.604938271604937" height="183.50772789343986" fill="#785EF0" data-tooltip="1.01x baseline (YJIT 3.3.0dev)"/>
<line x1="786.9135802469125" y1="498.0" x2="786.9135802469125" y2="502.79999999999995" stroke="#000"/>
<text x="786.9135802469125" y="512.4" fill="#111" font-size="small" text-anchor="end" transform="rotate(-60, 786.9135802469125, 512.4)">
getivar
</text>
<rect x="804.3209876543199" y="314.2814682631182" width="11.604938271604937" height="183.71853173688177" fill="#785EF0" data-tooltip="1.01x baseline (YJIT 3.3.0dev)"/>
<line x1="810.1234567901223" y1="498.0" x2="810.1234567901223" y2="502.79999999999995" stroke="#000"/>
<text x="810.1234567901223" y="512.4" fill="#111" font-size="small" text-anchor="end" transform="rotate(-60, 810.1234567901223, 512.4)">
keyword_args
</text>
<rect x="827.5308641975297" y="314.4353789876073" width="11.604938271604937" height="183.56462101239268" fill="#785EF0" data-tooltip="1.01x baseline (YJIT 3.3.0dev)"/>
<line x1="833.3333333333321" y1="498.0" x2="833.3333333333321" y2="502.79999999999995" stroke="#000"/>
<text x="833.3333333333321" y="512.4" fill="#111" font-size="small" text-anchor="end" transform="rotate(-60, 833.3333333333321, 512.4)">
respond_to
</text>
<rect x="850.7407407407396" y="314.37510448918584" width="11.604938271604937" height="183.6248955108141" fill="#785EF0" data-tooltip="1.01x baseline (YJIT 3.3.0dev)"/>
<line x1="856.5432098765419" y1="498.0" x2="856.5432098765419" y2="502.79999999999995" stroke="#000"/>
<text x="856.5432098765419" y="512.4" fill="#111" font-size="small" text-anchor="end" transform="rotate(-60, 856.5432098765419, 512.4)">
setivar
</text>
<rect x="873.9506172839494" y="314.5293154368363" width="11.604938271604937" height="183.47068456316356" fill="#785EF0" data-tooltip="1.01x baseline (YJIT 3.3.0dev)"/>
<line x1="879.7530864197518" y1="498.0" x2="879.7530864197518" y2="502.79999999999995" stroke="#000"/>
<text x="879.7530864197518" y="512.4" fill="#111" font-size="small" text-anchor="end" transform="rotate(-60, 879.7530864197518, 512.4)">
setivar_object
</text>
<rect x="897.1604938271593" y="314.5299643617183" width="11.604938271604937" height="183.47003563828162" fill="#785EF0" data-tooltip="1.01x baseline (YJIT 3.3.0dev)"/>
<line x1="902.9629629629617" y1="498.0" x2="902.9629629629617" y2="502.79999999999995" stroke="#000"/>
<text x="902.9629629629617" y="512.4" fill="#111" font-size="small" text-anchor="end" transform="rotate(-60, 902.9629629629617, 512.4)">
setivar_young
</text>
<rect x="920.3703703703691" y="248.77187812934255" width="11.604938271604937" height="249.2281218706574" fill="#785EF0" data-tooltip="1.37x baseline (YJIT 3.3.0dev)"/>
<line x1="926.1728395061715" y1="498.0" x2="926.1728395061715" y2="502.79999999999995" stroke="#000"/>
<text x="926.1728395061715" y="512.4" fill="#111" font-size="small" text-anchor="end" transform="rotate(-60, 926.1728395061715, 512.4)">
str_concat
</text>
<rect x="943.5802469135789" y="314.4340341732394" width="11.604938271604937" height="183.56596582676053" fill="#785EF0" data-tooltip="1.01x baseline (YJIT 3.3.0dev)"/>
<line x1="949.3827160493813" y1="498.0" x2="949.3827160493813" y2="502.79999999999995" stroke="#000"/>
<text x="949.3827160493813" y="512.4" fill="#111" font-size="small" text-anchor="end" transform="rotate(-60, 949.3827160493813, 512.4)">
throw
</text>
<rect x="966.7901234567887" y="296.18846927881356" width="11.604938271604937" height="201.81153072118636" fill="#785EF0" data-tooltip="1.11x baseline (YJIT 3.3.0dev)"/>
<line x1="972.5925925925911" y1="498.0" x2="972.5925925925911" y2="502.79999999999995" stroke="#000"/>
<text x="972.5925925925911" y="512.4" fill="#111" font-size="small" text-anchor="end" transform="rotate(-60, 972.5925925925911, 512.4)" font-style="italic">
geomean*
</text>
<line x1="50.0" y1="316.5305997727836" x2="990.0" y2="316.5305997727836" stroke="#648FFF" stroke-width="2"/>
</svg>