<svg viewBox="0 0 1000 600" xmlns="http://www.w3.org/2000/svg" xmlns:xlink="http://www.w3.org/1999/xlink" width="100%" height="100%">

<rect x="50.0" y="30.0" width="940.0" height="467.99999999999994" stroke="#000" fill="#fff"/>
<line x1="42.0" y1="497.9999999999999" x2="50.0" y2="497.9999999999999" stroke="#000"/>
<text x="26.000000000000004" y="497.9999999999999" text-anchor="end" font-weight="bold" font-size="small" fill="#111">
0.0
</text>
<line x1="42.0" y1="400.2304951015846" x2="50.0" y2="400.2304951015846" stroke="#000"/>
<text x="26.000000000000004" y="400.2304951015846" text-anchor="end" font-weight="bold" font-size="small" fill="#111">
0.5
</text>
<line x1="42.0" y1="302.4609902031692" x2="50.0" y2="302.4609902031692" stroke="#000"/>
<text x="26.000000000000004" y="302.4609902031692" text-anchor="end" font-weight="bold" font-size="small" fill="#111">
1.0
</text>
<line x1="42.0" y1="204.69148530475374" x2="50.0" y2="204.69148530475374" stroke="#000"/>
<text x="26.000000000000004" y="204.69148530475374" text-anchor="end" font-weight="bold" font-size="small" fill="#111">
1.5
</text>
<line x1="42.0" y1="106.92198040633835" x2="50.0" y2="106.92198040633835" stroke="#000"/>
<text x="26.000000000000004" y="106.92198040633835" text-anchor="end" font-weight="bold" font-size="small" fill="#111">
2.0
</text>
<line x1="248.5" y1="54.60000000000001" x2="368.5" y2="54.60000000000001" stroke="#648FFF" stroke-width="2"/>
<text x="308.5" y="49.500000000000014" font-size="small" text-anchor="middle" font-weight="bold" fill="#000">
CRuby 3.2.0dev
</text>
<rect x="671.5" y="35.400000000000006" width="120.0" height="19.2" fill="#785EF0" stroke="none"/>
<text x="731.4999999999999" y="49.500000000000014" font-size="small" text-anchor="middle" font-weight="bold" fill="#fff" style="text-shadow: 0 0 1px #000;">
YJIT 3.2.0dev
</text>
<rect x="94.76190476190477" y="100.19999999999999" width="44.76190476190476" height="397.79999999999995" fill="#785EF0" data-tooltip="2.03x baseline (YJIT 3.2.0dev)"/>
<line x1="117.14285714285714" y1="498.0" x2="117.14285714285714" y2="502.79999999999995" stroke="#000"/>
<text x="117.14285714285714" y="512.4" fill="#111" font-size="small" text-anchor="end" transform="rotate(-60, 117.14285714285714, 512.4)">
30k_ifelse
</text>
<rect x="184.28571428571428" y="222.0361715102899" width="44.76190476190476" height="275.96382848971007" fill="#785EF0" data-tooltip="1.41x baseline (YJIT 3.2.0dev)"/>
<line x1="206.66666666666666" y1="498.0" x2="206.66666666666666" y2="502.79999999999995" stroke="#000"/>
<text x="206.66666666666666" y="512.4" fill="#111" font-size="small" text-anchor="end" transform="rotate(-60, 206.66666666666666, 512.4)">
30k_methods
</text>
<rect x="273.8095238095238" y="263.6061962047231" width="44.76190476190476" height="234.39380379527682" fill="#785EF0" data-tooltip="1.20x baseline (YJIT 3.2.0dev)"/>
<line x1="296.19047619047615" y1="498.0" x2="296.19047619047615" y2="502.79999999999995" stroke="#000"/>
<text x="296.19047619047615" y="512.4" fill="#111" font-size="small" text-anchor="end" transform="rotate(-60, 296.19047619047615, 512.4)">
cfunc_itself
</text>
<rect x="363.3333333333333" y="263.6891503223952" width="44.76190476190476" height="234.31084967760475" fill="#785EF0" data-tooltip="1.20x baseline (YJIT 3.2.0dev)"/>
<line x1="385.7142857142857" y1="498.0" x2="385.7142857142857" y2="502.79999999999995" stroke="#000"/>
<text x="385.7142857142857" y="512.4" fill="#111" font-size="small" text-anchor="end" transform="rotate(-60, 385.7142857142857, 512.4)">
fib
</text>
<rect x="452.8571428571429" y="263.61517167111225" width="44.76190476190476" height="234.3848283288877" fill="#785EF0" data-tooltip="1.20x baseline (YJIT 3.2.0dev)"/>
<line x1="475.2380952380953" y1="498.0" x2="475.2380952380953" y2="502.79999999999995" stroke="#000"/>
<text x="475.2380952380953" y="512.4" fill="#111" font-size="small" text-anchor="end" transform="rotate(-60, 475.2380952380953, 512.4)">
getivar
</text>
<rect x="542.3809523809524" y="263.29873319349986" width="44.76190476190476" height="234.7012668065001" fill="#785EF0" data-tooltip="1.20x baseline (YJIT 3.2.0dev)"/>
<line x1="564.7619047619048" y1="498.0" x2="564.7619047619048" y2="502.79999999999995" stroke="#000"/>
<text x="564.7619047619048" y="512.4" fill="#111" font-size="small" text-anchor="end" transform="rotate(-60, 564.7619047619048, 512.4)">
keyword_args
</text>
<rect x="631.9047619047619" y="263.9854159891045" width="44.76190476190476" height="234.01458401089542" fill="#785EF0" data-tooltip="1.20x baseline (YJIT 3.2.0dev)"/>
<line x1="654.2857142857143" y1="498.0" x2="654.2857142857143" y2="502.79999999999995" stroke="#000"/>
<text x="654.2857142857143" y="512.4" fill="#111" font-size="small" text-anchor="end" transform="rotate(-60, 654.2857142857143, 512.4)">
respond_to
</text>
<rect x="721.4285714285716" y="263.21771086980976" width="44.76190476190476" height="234.78228913019015" fill="#785EF0" data-tooltip="1.20x baseline (YJIT 3.2.0dev)"/>
<line x1="743.809523809524" y1="498.0" x2="743.809523809524" y2="502.79999999999995" stroke="#000"/>
<text x="743.809523809524" y="512.4" fill="#111" font-size="small" text-anchor="end" transform="rotate(-60, 743.809523809524, 512.4)">
setivar
</text>
<rect x="810.9523809523811" y="299.6988317807017" width="44.76190476190476" height="198.30116821929823" fill="#785EF0" data-tooltip="1.01x baseline (YJIT 3.2.0dev)"/>
<line x1="833.3333333333335" y1="498.0" x2="833.3333333333335" y2="502.79999999999995" stroke="#000"/>
<text x="833.3333333333335" y="512.4" fill="#111" font-size="small" text-anchor="end" transform="rotate(-60, 833.3333333333335, 512.4)">
str_concat
</text>
<rect x="900.4761904761906" y="249.50022965094402" width="44.76190476190476" height="248.49977034905592" fill="#785EF0" data-tooltip="1.27x baseline (YJIT 3.2.0dev)"/>
<line x1="922.857142857143" y1="498.0" x2="922.857142857143" y2="502.79999999999995" stroke="#000"/>
<text x="922.857142857143" y="512.4" fill="#111" font-size="small" text-anchor="end" transform="rotate(-60, 922.857142857143, 512.4)" font-style="italic">
geomean*
</text>
<line x1="50.0" y1="302.4609902031692" x2="990.0" y2="302.4609902031692" stroke="#648FFF" stroke-width="2"/>
</svg>