<svg viewBox="0 0 1000 600" xmlns="http://www.w3.org/2000/svg" xmlns:xlink="http://www.w3.org/1999/xlink" width="100%" height="100%">

<rect x="50.0" y="30.0" width="940.0" height="467.99999999999994" stroke="#000" fill="#fff"/>
<line x1="42.0" y1="497.9999999999999" x2="50.0" y2="497.9999999999999" stroke="#000"/>
<text x="26.000000000000004" y="497.9999999999999" text-anchor="end" font-weight="bold" font-size="small" fill="#111">
0.0
</text>
<line x1="42.0" y1="429.4105682399634" x2="50.0" y2="429.4105682399634" stroke="#000"/>
<text x="26.000000000000004" y="429.4105682399634" text-anchor="end" font-weight="bold" font-size="small" fill="#111">
2.0
</text>
<line x1="42.0" y1="360.8211364799269" x2="50.0" y2="360.8211364799269" stroke="#000"/>
<text x="26.000000000000004" y="360.8211364799269" text-anchor="end" font-weight="bold" font-size="small" fill="#111">
4.0
</text>
<line x1="42.0" y1="292.23170471989044" x2="50.0" y2="292.23170471989044" stroke="#000"/>
<text x="26.000000000000004" y="292.23170471989044" text-anchor="end" font-weight="bold" font-size="small" fill="#111">
6.0
</text>
<line x1="42.0" y1="223.64227295985395" x2="50.0" y2="223.64227295985395" stroke="#000"/>
<text x="26.000000000000004" y="223.64227295985395" text-anchor="end" font-weight="bold" font-size="small" fill="#111">
8.0
</text>
<line x1="42.0" y1="155.05284119981744" x2="50.0" y2="155.05284119981744" stroke="#000"/>
<text x="26.000000000000004" y="155.05284119981744" text-anchor="end" font-weight="bold" font-size="small" fill="#111">
10.0
</text>
<line x1="178.0" y1="54.60000000000001" x2="298.0" y2="54.60000000000001" stroke="#648FFF" stroke-width="2"/>
<text x="238.0" y="49.500000000000014" font-size="small" text-anchor="middle" font-weight="bold" fill="#000">
CRuby 3.2.0dev
</text>
<rect x="459.9999999999999" y="35.400000000000006" width="120.0" height="19.2" fill="#785EF0" stroke="none"/>
<text x="519.9999999999999" y="49.500000000000014" font-size="small" text-anchor="middle" font-weight="bold" fill="#fff" style="text-shadow: 0 0 1px #000;">
MJIT
</text>
<rect x="742.0" y="35.400000000000006" width="120.0" height="19.2" fill="#FFB000" stroke="none"/>
<text x="801.9999999999999" y="49.500000000000014" font-size="small" text-anchor="middle" font-weight="bold" fill="#fff" style="text-shadow: 0 0 1px #000;">
YJIT 3.2.0dev
</text>
<rect x="77.64705882352942" y="453.8917672164527" width="27.64705882352941" height="44.10823278354727" fill="#785EF0" data-tooltip="1.29x baseline (MJIT)"/>
<rect x="105.29411764705883" y="174.1843367260966" width="27.64705882352941" height="323.81566327390334" fill="#FFB000" data-tooltip="9.44x baseline (YJIT 3.2.0dev)"/>
<line x1="105.29411764705881" y1="498.0" x2="105.29411764705881" y2="502.79999999999995" stroke="#000"/>
<text x="105.29411764705881" y="512.4" fill="#111" font-size="small" text-anchor="end" transform="rotate(-60, 105.29411764705881, 512.4)">
binarytrees
</text>
<rect x="160.58823529411765" y="460.9230823045676" width="27.64705882352941" height="37.076917695432435" fill="#785EF0" data-tooltip="1.08x baseline (MJIT)"/>
<rect x="188.23529411764704" y="255.36472906514663" width="27.64705882352941" height="242.6352709348533" fill="#FFB000" data-tooltip="7.08x baseline (YJIT 3.2.0dev)"/>
<line x1="188.23529411764704" y1="498.0" x2="188.23529411764704" y2="502.79999999999995" stroke="#000"/>
<text x="188.23529411764704" y="512.4" fill="#111" font-size="small" text-anchor="end" transform="rotate(-60, 188.23529411764704, 512.4)">
chunky_png
</text>
<rect x="243.52941176470588" y="463.56480876820666" width="27.64705882352941" height="34.43519123179331" fill="#785EF0" data-tooltip="1.00x baseline (MJIT)"/>
<rect x="271.1764705882353" y="436.0413081726981" width="27.64705882352941" height="61.958691827301884" fill="#FFB000" data-tooltip="1.81x baseline (YJIT 3.2.0dev)"/>
<line x1="271.1764705882353" y1="498.0" x2="271.1764705882353" y2="502.79999999999995" stroke="#000"/>
<text x="271.1764705882353" y="512.4" fill="#111" font-size="small" text-anchor="end" transform="rotate(-60, 271.1764705882353, 512.4)">
discourse
</text>
<rect x="326.47058823529414" y="461.7179512398573" width="27.64705882352941" height="36.28204876014269" fill="#785EF0" data-tooltip="1.06x baseline (MJIT)"/>
<rect x="354.11764705882354" y="355.9515927493341" width="27.64705882352941" height="142.04840725066583" fill="#FFB000" data-tooltip="4.14x baseline (YJIT 3.2.0dev)"/>
<line x1="354.11764705882354" y1="498.0" x2="354.11764705882354" y2="502.79999999999995" stroke="#000"/>
<text x="354.11764705882354" y="512.4" fill="#111" font-size="small" text-anchor="end" transform="rotate(-60, 354.11764705882354, 512.4)">
erubi
</text>
<rect x="409.4117647058824" y="451.98808374353234" width="27.64705882352941" height="46.011916256467565" fill="#785EF0" data-tooltip="1.34x baseline (MJIT)"/>
<rect x="437.05882352941177" y="373.5595425176188" width="27.64705882352941" height="124.44045748238118" fill="#FFB000" data-tooltip="3.63x baseline (YJIT 3.2.0dev)"/>
<line x1="437.05882352941177" y1="498.0" x2="437.05882352941177" y2="502.79999999999995" stroke="#000"/>
<text x="437.05882352941177" y="512.4" fill="#111" font-size="small" text-anchor="end" transform="rotate(-60, 437.05882352941177, 512.4)">
erubi_rails
</text>
<rect x="492.3529411764706" y="462.4819015930106" width="27.64705882352941" height="35.51809840698936" fill="#785EF0" data-tooltip="1.04x baseline (MJIT)"/>
<rect x="520.0" y="100.19999999999999" width="27.64705882352941" height="397.79999999999995" fill="#FFB000" data-tooltip="11.60x baseline (YJIT 3.2.0dev)"/>
<line x1="520.0" y1="498.0" x2="520.0" y2="502.79999999999995" stroke="#000"/>
<text x="520.0" y="512.4" fill="#111" font-size="small" text-anchor="end" transform="rotate(-60, 520.0, 512.4)">
fannkuchredux
</text>
<rect x="575.2941176470588" y="459.41431870669743" width="27.64705882352941" height="38.58568129330253" fill="#785EF0" data-tooltip="1.13x baseline (MJIT)"/>
<rect x="602.9411764705881" y="206.93882846645943" width="27.64705882352941" height="291.0611715335405" fill="#FFB000" data-tooltip="8.49x baseline (YJIT 3.2.0dev)"/>
<line x1="602.9411764705881" y1="498.0" x2="602.9411764705881" y2="502.79999999999995" stroke="#000"/>
<text x="602.9411764705881" y="512.4" fill="#111" font-size="small" text-anchor="end" transform="rotate(-60, 602.9411764705881, 512.4)">
lee
</text>
<rect x="658.2352941176468" y="457.7326304746216" width="27.64705882352941" height="40.26736952537837" fill="#785EF0" data-tooltip="1.17x baseline (MJIT)"/>
<rect x="685.8823529411761" y="102.11755247783707" width="27.64705882352941" height="395.88244752216286" fill="#FFB000" data-tooltip="11.54x baseline (YJIT 3.2.0dev)"/>
<line x1="685.8823529411761" y1="498.0" x2="685.8823529411761" y2="502.79999999999995" stroke="#000"/>
<text x="685.8823529411761" y="512.4" fill="#111" font-size="small" text-anchor="end" transform="rotate(-60, 685.8823529411761, 512.4)">
nbody
</text>
<rect x="741.1764705882349" y="460.90482247236304" width="27.64705882352941" height="37.09517752763697" fill="#785EF0" data-tooltip="1.08x baseline (MJIT)"/>
<rect x="768.8235294117642" y="309.36641287535525" width="27.64705882352941" height="188.63358712464466" fill="#FFB000" data-tooltip="5.50x baseline (YJIT 3.2.0dev)"/>
<line x1="768.8235294117642" y1="498.0" x2="768.8235294117642" y2="502.79999999999995" stroke="#000"/>
<text x="768.8235294117642" y="512.4" fill="#111" font-size="small" text-anchor="end" transform="rotate(-60, 768.8235294117642, 512.4)">
optcarrot
</text>
<rect x="824.117647058823" y="458.8546667374481" width="27.64705882352941" height="39.14533326255185" fill="#785EF0" data-tooltip="1.14x baseline (MJIT)"/>
<rect x="851.7647058823524" y="280.0725937404366" width="27.64705882352941" height="217.92740625956333" fill="#FFB000" data-tooltip="6.35x baseline (YJIT 3.2.0dev)"/>
<line x1="851.7647058823524" y1="498.0" x2="851.7647058823524" y2="502.79999999999995" stroke="#000"/>
<text x="851.7647058823524" y="512.4" fill="#111" font-size="small" text-anchor="end" transform="rotate(-60, 851.7647058823524, 512.4)">
rubykon
</text>
<rect x="907.058823529411" y="459.30084795428684" width="27.64705882352941" height="38.699152045713056" fill="#785EF0" data-tooltip="1.13x baseline (MJIT)"/>
<rect x="934.7058823529404" y="288.59366475507005" width="27.64705882352941" height="209.40633524492992" fill="#FFB000" data-tooltip="6.11x baseline (YJIT 3.2.0dev)"/>
<line x1="934.7058823529404" y1="498.0" x2="934.7058823529404" y2="502.79999999999995" stroke="#000"/>
<text x="934.7058823529404" y="512.4" fill="#111" font-size="small" text-anchor="end" transform="rotate(-60, 934.7058823529404, 512.4)" font-style="italic">
geomean*
</text>
<line x1="50.0" y1="463.7052841199817" x2="990.0" y2="463.7052841199817" stroke="#648FFF" stroke-width="2"/>
</svg>