<svg viewBox="0 0 1000 600" xmlns="http://www.w3.org/2000/svg" xmlns:xlink="http://www.w3.org/1999/xlink" width="100%" height="100%">

<rect x="50.0" y="30.0" width="940.0" height="467.99999999999994" stroke="#000" fill="#fff"/>
<line x1="42.0" y1="497.9999999999999" x2="50.0" y2="497.9999999999999" stroke="#000"/>
<text x="26.000000000000004" y="497.9999999999999" text-anchor="end" font-weight="bold" font-size="small" fill="#111">
0.0
</text>
<line x1="42.0" y1="418.4320419355786" x2="50.0" y2="418.4320419355786" stroke="#000"/>
<text x="26.000000000000004" y="418.4320419355786" text-anchor="end" font-weight="bold" font-size="small" fill="#111">
0.5
</text>
<line x1="42.0" y1="338.8640838711572" x2="50.0" y2="338.8640838711572" stroke="#000"/>
<text x="26.000000000000004" y="338.8640838711572" text-anchor="end" font-weight="bold" font-size="small" fill="#111">
1.0
</text>
<line x1="42.0" y1="259.29612580673586" x2="50.0" y2="259.29612580673586" stroke="#000"/>
<text x="26.000000000000004" y="259.29612580673586" text-anchor="end" font-weight="bold" font-size="small" fill="#111">
1.5
</text>
<line x1="42.0" y1="179.72816774231447" x2="50.0" y2="179.72816774231447" stroke="#000"/>
<text x="26.000000000000004" y="179.72816774231447" text-anchor="end" font-weight="bold" font-size="small" fill="#111">
2.0
</text>
<line x1="248.5" y1="54.60000000000001" x2="368.5" y2="54.60000000000001" stroke="#785EF0" stroke-width="2"/>
<text x="308.5" y="49.500000000000014" font-size="small" text-anchor="middle" font-weight="bold" fill="#000">
CRuby 3.4.0dev
</text>
<rect x="671.5" y="35.400000000000006" width="120.0" height="19.2" fill="#DC267F" stroke="none"/>
<text x="731.4999999999999" y="49.500000000000014" font-size="small" text-anchor="middle" font-weight="bold" fill="#fff" style="text-shadow: 0 0 1px #000;">
YJIT 3.4.0dev
</text>
<rect x="80.3225806451613" y="170.16904082850954" width="30.32258064516129" height="327.8309591714904" fill="#DC267F" data-tooltip="2.06x baseline (YJIT 3.4.0dev)"/>
<line x1="80.3225806451613" y1="167.78439806080837" x2="110.64516129032258" y2="167.78439806080837" stroke-dasharray="1,0.5" stroke="#333c"/>
<line x1="80.3225806451613" y1="172.5536835962107" x2="110.64516129032258" y2="172.5536835962107" stroke-dasharray="1,0.5" stroke="#333c"/>
<line x1="95.48387096774194" y1="167.78439806080837" x2="95.48387096774194" y2="172.5536835962107" stroke-dasharray="1,0.5" stroke="#333c"/>
<line x1="95.48387096774194" y1="498.0" x2="95.48387096774194" y2="502.79999999999995" stroke="#000"/>
<text x="95.48387096774194" y="512.4" fill="#111" font-size="small" text-anchor="end" transform="rotate(-60, 95.48387096774194, 512.4)">
activerecord
</text>
<rect x="140.96774193548387" y="217.31269065170648" width="30.32258064516129" height="280.68730934829347" fill="#DC267F" data-tooltip="1.76x baseline (YJIT 3.4.0dev)"/>
<line x1="140.96774193548387" y1="216.5972419402539" x2="171.29032258064512" y2="216.5972419402539" stroke-dasharray="1,0.5" stroke="#333c"/>
<line x1="140.96774193548387" y1="218.02813936315906" x2="171.29032258064512" y2="218.02813936315906" stroke-dasharray="1,0.5" stroke="#333c"/>
<line x1="156.1290322580645" y1="216.5972419402539" x2="156.1290322580645" y2="218.02813936315906" stroke-dasharray="1,0.5" stroke="#333c"/>
<line x1="156.12903225806448" y1="498.0" x2="156.12903225806448" y2="502.79999999999995" stroke="#000"/>
<text x="156.12903225806448" y="512.4" fill="#111" font-size="small" text-anchor="end" transform="rotate(-60, 156.12903225806448, 512.4)">
chunky-png
</text>
<rect x="201.61290322580643" y="201.00991859067364" width="30.32258064516129" height="296.9900814093263" fill="#DC267F" data-tooltip="1.87x baseline (YJIT 3.4.0dev)"/>
<line x1="201.61290322580643" y1="200.3866668192802" x2="231.93548387096774" y2="200.3866668192802" stroke-dasharray="1,0.5" stroke="#333c"/>
<line x1="201.61290322580643" y1="201.63317036206706" x2="231.93548387096774" y2="201.63317036206706" stroke-dasharray="1,0.5" stroke="#333c"/>
<line x1="216.7741935483871" y1="200.3866668192802" x2="216.7741935483871" y2="201.63317036206706" stroke-dasharray="1,0.5" stroke="#333c"/>
<line x1="216.7741935483871" y1="498.0" x2="216.7741935483871" y2="502.79999999999995" stroke="#000"/>
<text x="216.7741935483871" y="512.4" fill="#111" font-size="small" text-anchor="end" transform="rotate(-60, 216.7741935483871, 512.4)">
erubi-rails
</text>
<rect x="262.258064516129" y="212.01988002529512" width="30.32258064516129" height="285.9801199747048" fill="#DC267F" data-tooltip="1.80x baseline (YJIT 3.4.0dev)"/>
<line x1="262.258064516129" y1="207.65876957504608" x2="292.58064516129036" y2="207.65876957504608" stroke-dasharray="1,0.5" stroke="#333c"/>
<line x1="262.258064516129" y1="216.38099047554417" x2="292.58064516129036" y2="216.38099047554417" stroke-dasharray="1,0.5" stroke="#333c"/>
<line x1="277.41935483870964" y1="207.65876957504608" x2="277.41935483870964" y2="216.38099047554417" stroke-dasharray="1,0.5" stroke="#333c"/>
<line x1="277.4193548387097" y1="498.0" x2="277.4193548387097" y2="502.79999999999995" stroke="#000"/>
<text x="277.4193548387097" y="512.4" fill="#111" font-size="small" text-anchor="end" transform="rotate(-60, 277.4193548387097, 512.4)">
hexapdf
</text>
<rect x="322.90322580645164" y="267.26115685238574" width="30.32258064516129" height="230.7388431476142" fill="#DC267F" data-tooltip="1.45x baseline (YJIT 3.4.0dev)"/>
<line x1="322.90322580645164" y1="264.81186462437034" x2="353.2258064516129" y2="264.81186462437034" stroke-dasharray="1,0.5" stroke="#333c"/>
<line x1="322.90322580645164" y1="269.7104490804011" x2="353.2258064516129" y2="269.7104490804011" stroke-dasharray="1,0.5" stroke="#333c"/>
<line x1="338.06451612903226" y1="264.81186462437034" x2="338.06451612903226" y2="269.7104490804011" stroke-dasharray="1,0.5" stroke="#333c"/>
<line x1="338.0645161290323" y1="498.0" x2="338.0645161290323" y2="502.79999999999995" stroke="#000"/>
<text x="338.0645161290323" y="512.4" fill="#111" font-size="small" text-anchor="end" transform="rotate(-60, 338.0645161290323, 512.4)">
liquid-c
</text>
<rect x="383.54838709677426" y="266.16345809342965" width="30.32258064516129" height="231.8365419065703" fill="#DC267F" data-tooltip="1.46x baseline (YJIT 3.4.0dev)"/>
<line x1="383.54838709677426" y1="263.8331945408485" x2="413.87096774193554" y2="263.8331945408485" stroke-dasharray="1,0.5" stroke="#333c"/>
<line x1="383.54838709677426" y1="268.4937216460108" x2="413.87096774193554" y2="268.4937216460108" stroke-dasharray="1,0.5" stroke="#333c"/>
<line x1="398.7096774193549" y1="263.8331945408485" x2="398.7096774193549" y2="268.4937216460108" stroke-dasharray="1,0.5" stroke="#333c"/>
<line x1="398.70967741935493" y1="498.0" x2="398.70967741935493" y2="502.79999999999995" stroke="#000"/>
<text x="398.70967741935493" y="512.4" fill="#111" font-size="small" text-anchor="end" transform="rotate(-60, 398.70967741935493, 512.4)">
liquid-compile
</text>
<rect x="444.1935483870968" y="100.19999999999999" width="30.32258064516129" height="397.79999999999995" fill="#DC267F" data-tooltip="2.50x baseline (YJIT 3.4.0dev)"/>
<line x1="444.1935483870968" y1="97.16150158529373" x2="474.51612903225816" y2="97.16150158529373" stroke-dasharray="1,0.5" stroke="#333c"/>
<line x1="444.1935483870968" y1="103.23849841470624" x2="474.51612903225816" y2="103.23849841470624" stroke-dasharray="1,0.5" stroke="#333c"/>
<line x1="459.3548387096775" y1="97.16150158529373" x2="459.3548387096775" y2="103.23849841470624" stroke-dasharray="1,0.5" stroke="#333c"/>
<line x1="459.35483870967755" y1="498.0" x2="459.35483870967755" y2="502.79999999999995" stroke="#000"/>
<text x="459.35483870967755" y="512.4" fill="#111" font-size="small" text-anchor="end" transform="rotate(-60, 459.35483870967755, 512.4)">
liquid-render
</text>
<rect x="504.8387096774194" y="255.58727841420404" width="30.32258064516129" height="242.4127215857959" fill="#DC267F" data-tooltip="1.52x baseline (YJIT 3.4.0dev)"/>
<line x1="504.8387096774194" y1="251.93990236848538" x2="535.1612903225806" y2="251.93990236848538" stroke-dasharray="1,0.5" stroke="#333c"/>
<line x1="504.8387096774194" y1="259.2346544599227" x2="535.1612903225806" y2="259.2346544599227" stroke-dasharray="1,0.5" stroke="#333c"/>
<line x1="520.0" y1="251.93990236848538" x2="520.0" y2="259.2346544599227" stroke-dasharray="1,0.5" stroke="#333c"/>
<line x1="520.0" y1="498.0" x2="520.0" y2="502.79999999999995" stroke="#000"/>
<text x="520.0" y="512.4" fill="#111" font-size="small" text-anchor="end" transform="rotate(-60, 520.0, 512.4)">
lobsters
</text>
<rect x="565.4838709677418" y="267.1315584196933" width="30.32258064516129" height="230.86844158030667" fill="#DC267F" data-tooltip="1.45x baseline (YJIT 3.4.0dev)"/>
<line x1="565.4838709677418" y1="265.3909043122713" x2="595.8064516129032" y2="265.3909043122713" stroke-dasharray="1,0.5" stroke="#333c"/>
<line x1="565.4838709677418" y1="268.87221252711527" x2="595.8064516129032" y2="268.87221252711527" stroke-dasharray="1,0.5" stroke="#333c"/>
<line x1="580.6451612903226" y1="265.3909043122713" x2="580.6451612903226" y2="268.87221252711527" stroke-dasharray="1,0.5" stroke="#333c"/>
<line x1="580.6451612903226" y1="498.0" x2="580.6451612903226" y2="502.79999999999995" stroke="#000"/>
<text x="580.6451612903226" y="512.4" fill="#111" font-size="small" text-anchor="end" transform="rotate(-60, 580.6451612903226, 512.4)">
mail
</text>
<rect x="626.1290322580644" y="247.71810786740954" width="30.32258064516129" height="250.28189213259034" fill="#DC267F" data-tooltip="1.57x baseline (YJIT 3.4.0dev)"/>
<line x1="626.1290322580644" y1="247.52164680598412" x2="656.4516129032256" y2="247.52164680598412" stroke-dasharray="1,0.5" stroke="#333c"/>
<line x1="626.1290322580644" y1="247.91456892883497" x2="656.4516129032256" y2="247.91456892883497" stroke-dasharray="1,0.5" stroke="#333c"/>
<line x1="641.290322580645" y1="247.52164680598412" x2="641.290322580645" y2="247.91456892883497" stroke-dasharray="1,0.5" stroke="#333c"/>
<line x1="641.290322580645" y1="498.0" x2="641.290322580645" y2="502.79999999999995" stroke="#000"/>
<text x="641.290322580645" y="512.4" fill="#111" font-size="small" text-anchor="end" transform="rotate(-60, 641.290322580645, 512.4)">
psych-load
</text>
<rect x="686.7741935483868" y="218.36300607314308" width="30.32258064516129" height="279.6369939268569" fill="#DC267F" data-tooltip="1.76x baseline (YJIT 3.4.0dev)"/>
<line x1="686.7741935483868" y1="215.71493001292976" x2="717.0967741935481" y2="215.71493001292976" stroke-dasharray="1,0.5" stroke="#333c"/>
<line x1="686.7741935483868" y1="221.01108213335638" x2="717.0967741935481" y2="221.01108213335638" stroke-dasharray="1,0.5" stroke="#333c"/>
<line x1="701.9354838709675" y1="215.71493001292976" x2="701.9354838709675" y2="221.01108213335638" stroke-dasharray="1,0.5" stroke="#333c"/>
<line x1="701.9354838709675" y1="498.0" x2="701.9354838709675" y2="502.79999999999995" stroke="#000"/>
<text x="701.9354838709675" y="512.4" fill="#111" font-size="small" text-anchor="end" transform="rotate(-60, 701.9354838709675, 512.4)">
railsbench
</text>
<rect x="747.4193548387094" y="204.96885149895581" width="30.32258064516129" height="293.03114850104413" fill="#DC267F" data-tooltip="1.84x baseline (YJIT 3.4.0dev)"/>
<line x1="747.4193548387094" y1="199.16713238303757" x2="777.7419354838706" y2="199.16713238303757" stroke-dasharray="1,0.5" stroke="#333c"/>
<line x1="747.4193548387094" y1="210.77057061487406" x2="777.7419354838706" y2="210.77057061487406" stroke-dasharray="1,0.5" stroke="#333c"/>
<line x1="762.58064516129" y1="199.16713238303757" x2="762.58064516129" y2="210.77057061487406" stroke-dasharray="1,0.5" stroke="#333c"/>
<line x1="762.58064516129" y1="498.0" x2="762.58064516129" y2="502.79999999999995" stroke="#000"/>
<text x="762.58064516129" y="512.4" fill="#111" font-size="small" text-anchor="end" transform="rotate(-60, 762.58064516129, 512.4)">
rubocop
</text>
<rect x="808.0645161290319" y="261.4228935719571" width="30.32258064516129" height="236.57710642804284" fill="#DC267F" data-tooltip="1.49x baseline (YJIT 3.4.0dev)"/>
<line x1="808.0645161290319" y1="257.10437101844764" x2="838.3870967741931" y2="257.10437101844764" stroke-dasharray="1,0.5" stroke="#333c"/>
<line x1="808.0645161290319" y1="265.7414161254665" x2="838.3870967741931" y2="265.7414161254665" stroke-dasharray="1,0.5" stroke="#333c"/>
<line x1="823.2258064516125" y1="257.10437101844764" x2="823.2258064516125" y2="265.7414161254665" stroke-dasharray="1,0.5" stroke="#333c"/>
<line x1="823.2258064516125" y1="498.0" x2="823.2258064516125" y2="502.79999999999995" stroke="#000"/>
<text x="823.2258064516125" y="512.4" fill="#111" font-size="small" text-anchor="end" transform="rotate(-60, 823.2258064516125, 512.4)">
ruby-lsp
</text>
<rect x="868.7096774193543" y="286.84978569819395" width="30.32258064516129" height="211.15021430180596" fill="#DC267F" data-tooltip="1.33x baseline (YJIT 3.4.0dev)"/>
<line x1="868.7096774193543" y1="283.2018438476914" x2="899.0322580645156" y2="283.2018438476914" stroke-dasharray="1,0.5" stroke="#333c"/>
<line x1="868.7096774193543" y1="290.49772754869656" x2="899.0322580645156" y2="290.49772754869656" stroke-dasharray="1,0.5" stroke="#333c"/>
<line x1="883.8709677419349" y1="283.2018438476914" x2="883.8709677419349" y2="290.49772754869656" stroke-dasharray="1,0.5" stroke="#333c"/>
<line x1="883.8709677419349" y1="498.0" x2="883.8709677419349" y2="502.79999999999995" stroke="#000"/>
<text x="883.8709677419349" y="512.4" fill="#111" font-size="small" text-anchor="end" transform="rotate(-60, 883.8709677419349, 512.4)">
sequel
</text>
<rect x="929.3548387096769" y="230.6404433296297" width="30.32258064516129" height="267.35955667037024" fill="#DC267F" data-tooltip="1.68x baseline (YJIT 3.4.0dev)"/>
<line x1="944.5161290322575" y1="498.0" x2="944.5161290322575" y2="502.79999999999995" stroke="#000"/>
<text x="944.5161290322575" y="512.4" fill="#111" font-size="small" text-anchor="end" transform="rotate(-60, 944.5161290322575, 512.4)" font-style="italic">
geomean*
</text>
<line x1="50.0" y1="338.8640838711572" x2="990.0" y2="338.8640838711572" stroke="#785EF0" stroke-width="2"/>
<rect x="82.1475806451613" y="156.00904082850954" width="17.85" height="7.2" transform="rotate(-60, 97.48387096774194, 162.66904082850954)" fill="#fffa"/>
<text x="82.3225806451613" y="162.66904082850954" fill="#111" font-size="0.5em" text-anchor="start" textLength="17.5" transform="rotate(-60, 97.48387096774194, 162.66904082850954)" style="text-shadow: 0 0 1px #fff;">
2.06
</text>
<rect x="142.79274193548386" y="203.15269065170648" width="17.85" height="7.2" transform="rotate(-60, 158.1290322580645, 209.81269065170648)" fill="#fffa"/>
<text x="142.96774193548387" y="209.81269065170648" fill="#111" font-size="0.5em" text-anchor="start" textLength="17.5" transform="rotate(-60, 158.1290322580645, 209.81269065170648)" style="text-shadow: 0 0 1px #fff;">
1.76
</text>
<rect x="203.43790322580642" y="186.84991859067364" width="17.85" height="7.2" transform="rotate(-60, 218.7741935483871, 193.50991859067364)" fill="#fffa"/>
<text x="203.61290322580643" y="193.50991859067364" fill="#111" font-size="0.5em" text-anchor="start" textLength="17.5" transform="rotate(-60, 218.7741935483871, 193.50991859067364)" style="text-shadow: 0 0 1px #fff;">
1.87
</text>
<rect x="264.08306451612907" y="197.85988002529513" width="17.85" height="7.2" transform="rotate(-60, 279.4193548387097, 204.51988002529512)" fill="#fffa"/>
<text x="264.258064516129" y="204.51988002529512" fill="#111" font-size="0.5em" text-anchor="start" textLength="17.5" transform="rotate(-60, 279.4193548387097, 204.51988002529512)" style="text-shadow: 0 0 1px #fff;">
1.80
</text>
<rect x="324.7282258064517" y="253.1011568523857" width="17.85" height="7.2" transform="rotate(-60, 340.06451612903226, 259.76115685238574)" fill="#fffa"/>
<text x="324.90322580645164" y="259.76115685238574" fill="#111" font-size="0.5em" text-anchor="start" textLength="17.5" transform="rotate(-60, 340.06451612903226, 259.76115685238574)" style="text-shadow: 0 0 1px #fff;">
1.45
</text>
<rect x="385.37338709677425" y="252.00345809342963" width="17.85" height="7.2" transform="rotate(-60, 400.7096774193549, 258.66345809342965)" fill="#fffa"/>
<text x="385.54838709677426" y="258.66345809342965" fill="#111" font-size="0.5em" text-anchor="start" textLength="17.5" transform="rotate(-60, 400.7096774193549, 258.66345809342965)" style="text-shadow: 0 0 1px #fff;">
1.46
</text>
<rect x="446.01854838709687" y="86.03999999999998" width="17.85" height="7.2" transform="rotate(-60, 461.3548387096775, 92.69999999999999)" fill="#fffa"/>
<text x="446.1935483870968" y="92.69999999999999" fill="#111" font-size="0.5em" text-anchor="start" textLength="17.5" transform="rotate(-60, 461.3548387096775, 92.69999999999999)" style="text-shadow: 0 0 1px #fff;">
2.50
</text>
<rect x="506.6637096774194" y="241.42727841420404" width="17.85" height="7.2" transform="rotate(-60, 522.0, 248.08727841420404)" fill="#fffa"/>
<text x="506.8387096774194" y="248.08727841420404" fill="#111" font-size="0.5em" text-anchor="start" textLength="17.5" transform="rotate(-60, 522.0, 248.08727841420404)" style="text-shadow: 0 0 1px #fff;">
1.52
</text>
<rect x="567.3088709677419" y="252.97155841969328" width="17.85" height="7.2" transform="rotate(-60, 582.6451612903226, 259.63155841969325)" fill="#fffa"/>
<text x="567.4838709677418" y="259.63155841969325" fill="#111" font-size="0.5em" text-anchor="start" textLength="17.5" transform="rotate(-60, 582.6451612903226, 259.63155841969325)" style="text-shadow: 0 0 1px #fff;">
1.45
</text>
<rect x="627.9540322580643" y="233.55810786740955" width="17.85" height="7.2" transform="rotate(-60, 643.290322580645, 240.21810786740954)" fill="#fffa"/>
<text x="628.1290322580644" y="240.21810786740954" fill="#111" font-size="0.5em" text-anchor="start" textLength="17.5" transform="rotate(-60, 643.290322580645, 240.21810786740954)" style="text-shadow: 0 0 1px #fff;">
1.57
</text>
<rect x="688.5991935483868" y="204.20300607314306" width="17.85" height="7.2" transform="rotate(-60, 703.9354838709675, 210.86300607314305)" fill="#fffa"/>
<text x="688.7741935483868" y="210.86300607314305" fill="#111" font-size="0.5em" text-anchor="start" textLength="17.5" transform="rotate(-60, 703.9354838709675, 210.86300607314305)" style="text-shadow: 0 0 1px #fff;">
1.76
</text>
<rect x="749.2443548387093" y="190.8088514989558" width="17.85" height="7.2" transform="rotate(-60, 764.58064516129, 197.4688514989558)" fill="#fffa"/>
<text x="749.4193548387094" y="197.4688514989558" fill="#111" font-size="0.5em" text-anchor="start" textLength="17.5" transform="rotate(-60, 764.58064516129, 197.4688514989558)" style="text-shadow: 0 0 1px #fff;">
1.84
</text>
<rect x="809.8895161290318" y="247.26289357195708" width="17.85" height="7.2" transform="rotate(-60, 825.2258064516125, 253.92289357195708)" fill="#fffa"/>
<text x="810.0645161290319" y="253.92289357195708" fill="#111" font-size="0.5em" text-anchor="start" textLength="17.5" transform="rotate(-60, 825.2258064516125, 253.92289357195708)" style="text-shadow: 0 0 1px #fff;">
1.49
</text>
<rect x="870.5346774193544" y="272.689785698194" width="17.85" height="7.2" transform="rotate(-60, 885.8709677419349, 279.34978569819395)" fill="#fffa"/>
<text x="870.7096774193543" y="279.34978569819395" fill="#111" font-size="0.5em" text-anchor="start" textLength="17.5" transform="rotate(-60, 885.8709677419349, 279.34978569819395)" style="text-shadow: 0 0 1px #fff;">
1.33
</text>
<rect x="931.1798387096768" y="216.4804433296297" width="17.85" height="7.2" transform="rotate(-60, 946.5161290322575, 223.1404433296297)" fill="#fffa"/>
<text x="931.3548387096769" y="223.1404433296297" fill="#111" font-size="0.5em" text-anchor="start" textLength="17.5" transform="rotate(-60, 946.5161290322575, 223.1404433296297)" style="text-shadow: 0 0 1px #fff;">
1.68
</text>
</svg>