<svg viewBox="0 0 1000 600" xmlns="http://www.w3.org/2000/svg" xmlns:xlink="http://www.w3.org/1999/xlink" width="100%" height="100%">

<rect x="50.0" y="30.0" width="940.0" height="467.99999999999994" stroke="#000" fill="#fff"/>
<line x1="42.0" y1="497.9999999999999" x2="50.0" y2="497.9999999999999" stroke="#000"/>
<text x="26.000000000000004" y="497.9999999999999" text-anchor="end" font-weight="bold" font-size="small" fill="#111">
0.0
</text>
<line x1="42.0" y1="403.01882622691926" x2="50.0" y2="403.01882622691926" stroke="#000"/>
<text x="26.000000000000004" y="403.01882622691926" text-anchor="end" font-weight="bold" font-size="small" fill="#111">
1.0
</text>
<line x1="42.0" y1="308.03765245383875" x2="50.0" y2="308.03765245383875" stroke="#000"/>
<text x="26.000000000000004" y="308.03765245383875" text-anchor="end" font-weight="bold" font-size="small" fill="#111">
2.0
</text>
<line x1="42.0" y1="213.05647868075806" x2="50.0" y2="213.05647868075806" stroke="#000"/>
<text x="26.000000000000004" y="213.05647868075806" text-anchor="end" font-weight="bold" font-size="small" fill="#111">
3.0
</text>
<line x1="42.0" y1="118.07530490767746" x2="50.0" y2="118.07530490767746" stroke="#000"/>
<text x="26.000000000000004" y="118.07530490767746" text-anchor="end" font-weight="bold" font-size="small" fill="#111">
4.0
</text>
<line x1="142.75" y1="54.60000000000001" x2="262.75" y2="54.60000000000001" stroke="#648FFF" stroke-width="2"/>
<text x="202.75" y="49.500000000000014" font-size="small" text-anchor="middle" font-weight="bold" fill="#000">
CRuby 3.3.1
</text>
<rect x="354.25" y="35.400000000000006" width="120.0" height="19.2" fill="#785EF0" stroke="none"/>
<text x="414.25" y="49.500000000000014" font-size="small" text-anchor="middle" font-weight="bold" fill="#fff" style="text-shadow: 0 0 1px #000;">
CRuby 3.4.0dev
</text>
<rect x="565.75" y="35.400000000000006" width="120.0" height="19.2" fill="#FFB000" stroke="none"/>
<text x="625.7499999999999" y="49.500000000000014" font-size="small" text-anchor="middle" font-weight="bold" fill="#fff" style="text-shadow: 0 0 1px #000;">
YJIT 3.3.1
</text>
<rect x="777.25" y="35.400000000000006" width="120.0" height="19.2" fill="#DC267F" stroke="none"/>
<text x="837.2499999999999" y="49.500000000000014" font-size="small" text-anchor="middle" font-weight="bold" fill="#fff" style="text-shadow: 0 0 1px #000;">
YJIT 3.4.0dev
</text>
<rect x="61.60493827160494" y="400.23229441198305" width="11.604938271604937" height="97.76770558801697" fill="#785EF0" data-tooltip="1.03x baseline speed (CRuby 3.4.0dev)"/>
<line x1="61.60493827160494" y1="399.9753974646982" x2="73.20987654320987" y2="399.9753974646982" stroke-dasharray="1,0.5" stroke="#333c"/>
<line x1="61.60493827160494" y1="400.48919135926786" x2="73.20987654320987" y2="400.48919135926786" stroke-dasharray="1,0.5" stroke="#333c"/>
<line x1="67.4074074074074" y1="399.9753974646982" x2="67.4074074074074" y2="400.48919135926786" stroke-dasharray="1,0.5" stroke="#333c"/>
<rect x="73.20987654320987" y="324.0277933443153" width="11.604938271604937" height="173.97220665568463" fill="#FFB000" data-tooltip="1.83x baseline speed (YJIT 3.3.1)"/>
<line x1="73.20987654320987" y1="323.5395699060287" x2="84.81481481481481" y2="323.5395699060287" stroke-dasharray="1,0.5" stroke="#333c"/>
<line x1="73.20987654320987" y1="324.5160167826019" x2="84.81481481481481" y2="324.5160167826019" stroke-dasharray="1,0.5" stroke="#333c"/>
<line x1="79.01234567901234" y1="323.5395699060287" x2="79.01234567901234" y2="324.5160167826019" stroke-dasharray="1,0.5" stroke="#333c"/>
<rect x="84.81481481481481" y="293.1962399224637" width="11.604938271604937" height="204.80376007753625" fill="#DC267F" data-tooltip="2.16x baseline speed (YJIT 3.4.0dev)"/>
<line x1="84.81481481481481" y1="292.6029145872031" x2="96.41975308641976" y2="292.6029145872031" stroke-dasharray="1,0.5" stroke="#333c"/>
<line x1="84.81481481481481" y1="293.7895652577243" x2="96.41975308641976" y2="293.7895652577243" stroke-dasharray="1,0.5" stroke="#333c"/>
<line x1="90.61728395061729" y1="292.6029145872031" x2="90.61728395061729" y2="293.7895652577243" stroke-dasharray="1,0.5" stroke="#333c"/>
<line x1="79.01234567901236" y1="498.0" x2="79.01234567901236" y2="502.79999999999995" stroke="#000"/>
<text x="79.01234567901236" y="512.4" fill="#111" font-size="small" text-anchor="end" transform="rotate(-60, 79.01234567901236, 512.4)">
binarytrees
</text>
<rect x="108.0246913580247" y="405.4666799066715" width="11.604938271604937" height="92.53332009332843" fill="#785EF0" data-tooltip="0.97x baseline speed (CRuby 3.4.0dev)"/>
<line x1="108.0246913580247" y1="405.2777841796599" x2="119.62962962962965" y2="405.2777841796599" stroke-dasharray="1,0.5" stroke="#333c"/>
<line x1="108.0246913580247" y1="405.65557563368316" x2="119.62962962962965" y2="405.65557563368316" stroke-dasharray="1,0.5" stroke="#333c"/>
<line x1="113.82716049382717" y1="405.2777841796599" x2="113.82716049382717" y2="405.65557563368316" stroke-dasharray="1,0.5" stroke="#333c"/>
<rect x="119.62962962962965" y="309.47366860011164" width="11.604938271604937" height="188.52633139988833" fill="#FFB000" data-tooltip="1.98x baseline speed (YJIT 3.3.1)"/>
<line x1="119.62962962962965" y1="308.7609856451217" x2="131.23456790123458" y2="308.7609856451217" stroke-dasharray="1,0.5" stroke="#333c"/>
<line x1="119.62962962962965" y1="310.1863515551016" x2="131.23456790123458" y2="310.1863515551016" stroke-dasharray="1,0.5" stroke="#333c"/>
<line x1="125.4320987654321" y1="308.7609856451217" x2="125.4320987654321" y2="310.1863515551016" stroke-dasharray="1,0.5" stroke="#333c"/>
<rect x="131.23456790123458" y="282.0900016040098" width="11.604938271604937" height="215.90999839599016" fill="#DC267F" data-tooltip="2.27x baseline speed (YJIT 3.4.0dev)"/>
<line x1="131.23456790123458" y1="281.4246027820942" x2="142.83950617283952" y2="281.4246027820942" stroke-dasharray="1,0.5" stroke="#333c"/>
<line x1="131.23456790123458" y1="282.75540042592536" x2="142.83950617283952" y2="282.75540042592536" stroke-dasharray="1,0.5" stroke="#333c"/>
<line x1="137.03703703703704" y1="281.4246027820942" x2="137.03703703703704" y2="282.75540042592536" stroke-dasharray="1,0.5" stroke="#333c"/>
<line x1="125.43209876543213" y1="498.0" x2="125.43209876543213" y2="502.79999999999995" stroke="#000"/>
<text x="125.43209876543213" y="512.4" fill="#111" font-size="small" text-anchor="end" transform="rotate(-60, 125.43209876543213, 512.4)">
blurhash
</text>
<rect x="154.44444444444446" y="394.89844967787405" width="11.604938271604937" height="103.10155032212583" fill="#785EF0" data-tooltip="1.09x baseline speed (CRuby 3.4.0dev)"/>
<line x1="154.44444444444446" y1="394.63443628642034" x2="166.04938271604942" y2="394.63443628642034" stroke-dasharray="1,0.5" stroke="#333c"/>
<line x1="154.44444444444446" y1="395.1624630693278" x2="166.04938271604942" y2="395.1624630693278" stroke-dasharray="1,0.5" stroke="#333c"/>
<line x1="160.2469135802469" y1="394.63443628642034" x2="160.2469135802469" y2="395.1624630693278" stroke-dasharray="1,0.5" stroke="#333c"/>
<rect x="166.04938271604942" y="382.0012865845993" width="11.604938271604937" height="115.99871341540066" fill="#FFB000" data-tooltip="1.22x baseline speed (YJIT 3.3.1)"/>
<line x1="166.04938271604942" y1="381.6766440184684" x2="177.65432098765436" y2="381.6766440184684" stroke-dasharray="1,0.5" stroke="#333c"/>
<line x1="166.04938271604942" y1="382.3259291507302" x2="177.65432098765436" y2="382.3259291507302" stroke-dasharray="1,0.5" stroke="#333c"/>
<line x1="171.85185185185188" y1="381.6766440184684" x2="171.85185185185188" y2="382.3259291507302" stroke-dasharray="1,0.5" stroke="#333c"/>
<rect x="177.65432098765436" y="373.7258464966884" width="11.604938271604937" height="124.27415350331152" fill="#DC267F" data-tooltip="1.31x baseline speed (YJIT 3.4.0dev)"/>
<line x1="177.65432098765436" y1="373.39949194329336" x2="189.2592592592593" y2="373.39949194329336" stroke-dasharray="1,0.5" stroke="#333c"/>
<line x1="177.65432098765436" y1="374.05220105008345" x2="189.2592592592593" y2="374.05220105008345" stroke-dasharray="1,0.5" stroke="#333c"/>
<line x1="183.4567901234568" y1="373.39949194329336" x2="183.4567901234568" y2="374.05220105008345" stroke-dasharray="1,0.5" stroke="#333c"/>
<line x1="171.8518518518519" y1="498.0" x2="171.8518518518519" y2="502.79999999999995" stroke="#000"/>
<text x="171.8518518518519" y="512.4" fill="#111" font-size="small" text-anchor="end" transform="rotate(-60, 171.8518518518519, 512.4)">
erubi
</text>
<rect x="200.86419753086423" y="447.94734934919774" width="11.604938271604937" height="50.05265065080217" fill="#785EF0" data-tooltip="0.53x baseline speed (CRuby 3.4.0dev)"/>
<line x1="200.86419753086423" y1="447.8819196245208" x2="212.46913580246917" y2="447.8819196245208" stroke-dasharray="1,0.5" stroke="#333c"/>
<line x1="200.86419753086423" y1="448.01277907387464" x2="212.46913580246917" y2="448.01277907387464" stroke-dasharray="1,0.5" stroke="#333c"/>
<line x1="206.66666666666669" y1="447.8819196245208" x2="206.66666666666669" y2="448.01277907387464" stroke-dasharray="1,0.5" stroke="#333c"/>
<rect x="212.46913580246917" y="390.00492043697517" width="11.604938271604937" height="107.99507956302475" fill="#FFB000" data-tooltip="1.14x baseline speed (YJIT 3.3.1)"/>
<line x1="212.46913580246917" y1="389.7691627448911" x2="224.07407407407413" y2="389.7691627448911" stroke-dasharray="1,0.5" stroke="#333c"/>
<line x1="212.46913580246917" y1="390.2406781290592" x2="224.07407407407413" y2="390.2406781290592" stroke-dasharray="1,0.5" stroke="#333c"/>
<line x1="218.27160493827162" y1="389.7691627448911" x2="218.27160493827162" y2="390.2406781290592" stroke-dasharray="1,0.5" stroke="#333c"/>
<rect x="224.07407407407413" y="444.7164766255164" width="11.604938271604937" height="53.283523374483465" fill="#DC267F" data-tooltip="0.56x baseline speed (YJIT 3.4.0dev)"/>
<line x1="224.07407407407413" y1="444.6444572609419" x2="235.67901234567907" y2="444.6444572609419" stroke-dasharray="1,0.5" stroke="#333c"/>
<line x1="224.07407407407413" y1="444.7884959900909" x2="235.67901234567907" y2="444.7884959900909" stroke-dasharray="1,0.5" stroke="#333c"/>
<line x1="229.8765432098766" y1="444.6444572609419" x2="229.8765432098766" y2="444.7884959900909" stroke-dasharray="1,0.5" stroke="#333c"/>
<line x1="218.27160493827165" y1="498.0" x2="218.27160493827165" y2="502.79999999999995" stroke="#000"/>
<text x="218.27160493827165" y="512.4" fill="#111" font-size="small" text-anchor="end" transform="rotate(-60, 218.27160493827165, 512.4)">
etanni
</text>
<rect x="247.283950617284" y="400.57887586098076" width="11.604938271604937" height="97.42112413901918" fill="#785EF0" data-tooltip="1.03x baseline speed (CRuby 3.4.0dev)"/>
<line x1="247.283950617284" y1="400.42659074946806" x2="258.88888888888897" y2="400.42659074946806" stroke-dasharray="1,0.5" stroke="#333c"/>
<line x1="247.283950617284" y1="400.7311609724935" x2="258.88888888888897" y2="400.7311609724935" stroke-dasharray="1,0.5" stroke="#333c"/>
<line x1="253.0864197530865" y1="400.42659074946806" x2="253.0864197530865" y2="400.7311609724935" stroke-dasharray="1,0.5" stroke="#333c"/>
<rect x="258.88888888888897" y="260.53887178579055" width="11.604938271604937" height="237.4611282142094" fill="#FFB000" data-tooltip="2.50x baseline speed (YJIT 3.3.1)"/>
<line x1="258.88888888888897" y1="260.1525110851061" x2="270.4938271604939" y2="260.1525110851061" stroke-dasharray="1,0.5" stroke="#333c"/>
<line x1="258.88888888888897" y1="260.925232486475" x2="270.4938271604939" y2="260.925232486475" stroke-dasharray="1,0.5" stroke="#333c"/>
<line x1="264.6913580246914" y1="260.1525110851061" x2="264.6913580246914" y2="260.925232486475" stroke-dasharray="1,0.5" stroke="#333c"/>
<rect x="270.4938271604939" y="227.56698828378003" width="11.604938271604937" height="270.4330117162199" fill="#DC267F" data-tooltip="2.85x baseline speed (YJIT 3.4.0dev)"/>
<line x1="270.4938271604939" y1="227.1401623276196" x2="282.0987654320988" y2="227.1401623276196" stroke-dasharray="1,0.5" stroke="#333c"/>
<line x1="270.4938271604939" y1="227.99381423994046" x2="282.0987654320988" y2="227.99381423994046" stroke-dasharray="1,0.5" stroke="#333c"/>
<line x1="276.2962962962963" y1="227.1401623276196" x2="276.2962962962963" y2="227.99381423994046" stroke-dasharray="1,0.5" stroke="#333c"/>
<line x1="264.69135802469134" y1="498.0" x2="264.69135802469134" y2="502.79999999999995" stroke="#000"/>
<text x="264.69135802469134" y="512.4" fill="#111" font-size="small" text-anchor="end" transform="rotate(-60, 264.69135802469134, 512.4)">
fannkuchredux
</text>
<rect x="293.7037037037037" y="390.3029903569369" width="11.604938271604937" height="107.69700964306305" fill="#785EF0" data-tooltip="1.13x baseline speed (CRuby 3.4.0dev)"/>
<line x1="293.7037037037037" y1="389.07920986738816" x2="305.3086419753086" y2="389.07920986738816" stroke-dasharray="1,0.5" stroke="#333c"/>
<line x1="293.7037037037037" y1="391.52677084648565" x2="305.3086419753086" y2="391.52677084648565" stroke-dasharray="1,0.5" stroke="#333c"/>
<line x1="299.5061728395061" y1="389.07920986738816" x2="299.5061728395061" y2="391.52677084648565" stroke-dasharray="1,0.5" stroke="#333c"/>
<rect x="305.3086419753086" y="396.0288028485928" width="11.604938271604937" height="101.97119715140707" fill="#FFB000" data-tooltip="1.07x baseline speed (YJIT 3.3.1)"/>
<line x1="305.3086419753086" y1="394.84645638206723" x2="316.9135802469135" y2="394.84645638206723" stroke-dasharray="1,0.5" stroke="#333c"/>
<line x1="305.3086419753086" y1="397.21114931511835" x2="316.9135802469135" y2="397.21114931511835" stroke-dasharray="1,0.5" stroke="#333c"/>
<line x1="311.1111111111111" y1="394.84645638206723" x2="311.1111111111111" y2="397.21114931511835" stroke-dasharray="1,0.5" stroke="#333c"/>
<rect x="316.9135802469135" y="382.7682251698482" width="11.604938271604937" height="115.2317748301517" fill="#DC267F" data-tooltip="1.21x baseline speed (YJIT 3.4.0dev)"/>
<line x1="316.9135802469135" y1="381.5172041455547" x2="328.5185185185184" y2="381.5172041455547" stroke-dasharray="1,0.5" stroke="#333c"/>
<line x1="316.9135802469135" y1="384.01924619414183" x2="328.5185185185184" y2="384.01924619414183" stroke-dasharray="1,0.5" stroke="#333c"/>
<line x1="322.716049382716" y1="381.5172041455547" x2="322.716049382716" y2="384.01924619414183" stroke-dasharray="1,0.5" stroke="#333c"/>
<line x1="311.11111111111103" y1="498.0" x2="311.11111111111103" y2="502.79999999999995" stroke="#000"/>
<text x="311.11111111111103" y="512.4" fill="#111" font-size="small" text-anchor="end" transform="rotate(-60, 311.11111111111103, 512.4)">
fluentd
</text>
<rect x="340.1234567901233" y="395.3545139840201" width="11.604938271604937" height="102.6454860159798" fill="#785EF0" data-tooltip="1.08x baseline speed (CRuby 3.4.0dev)"/>
<line x1="340.1234567901233" y1="395.2904518679802" x2="351.72839506172824" y2="395.2904518679802" stroke-dasharray="1,0.5" stroke="#333c"/>
<line x1="340.1234567901233" y1="395.4185761000601" x2="351.72839506172824" y2="395.4185761000601" stroke-dasharray="1,0.5" stroke="#333c"/>
<line x1="345.9259259259258" y1="395.2904518679802" x2="345.9259259259258" y2="395.4185761000601" stroke-dasharray="1,0.5" stroke="#333c"/>
<rect x="351.72839506172824" y="385.0192758177678" width="11.604938271604937" height="112.98072418223212" fill="#FFB000" data-tooltip="1.19x baseline speed (YJIT 3.3.1)"/>
<line x1="351.72839506172824" y1="384.9191696200908" x2="363.3333333333332" y2="384.9191696200908" stroke-dasharray="1,0.5" stroke="#333c"/>
<line x1="351.72839506172824" y1="385.1193820154447" x2="363.3333333333332" y2="385.1193820154447" stroke-dasharray="1,0.5" stroke="#333c"/>
<line x1="357.5308641975307" y1="384.9191696200908" x2="357.5308641975307" y2="385.1193820154447" stroke-dasharray="1,0.5" stroke="#333c"/>
<rect x="363.3333333333332" y="376.71310964970644" width="11.604938271604937" height="121.28689035029355" fill="#DC267F" data-tooltip="1.28x baseline speed (YJIT 3.4.0dev)"/>
<line x1="363.3333333333332" y1="376.59598039256997" x2="374.9382716049381" y2="376.59598039256997" stroke-dasharray="1,0.5" stroke="#333c"/>
<line x1="363.3333333333332" y1="376.83023890684285" x2="374.9382716049381" y2="376.83023890684285" stroke-dasharray="1,0.5" stroke="#333c"/>
<line x1="369.1358024691356" y1="376.59598039256997" x2="369.1358024691356" y2="376.83023890684285" stroke-dasharray="1,0.5" stroke="#333c"/>
<line x1="357.53086419753066" y1="498.0" x2="357.53086419753066" y2="502.79999999999995" stroke="#000"/>
<text x="357.53086419753066" y="512.4" fill="#111" font-size="small" text-anchor="end" transform="rotate(-60, 357.53086419753066, 512.4)">
graphql
</text>
<rect x="386.543209876543" y="426.1559960687" width="11.604938271604937" height="71.84400393129997" fill="#785EF0" data-tooltip="0.76x baseline speed (CRuby 3.4.0dev)"/>
<line x1="386.543209876543" y1="424.64716494057217" x2="398.1481481481479" y2="424.64716494057217" stroke-dasharray="1,0.5" stroke="#333c"/>
<line x1="386.543209876543" y1="427.6648271968278" x2="398.1481481481479" y2="427.6648271968278" stroke-dasharray="1,0.5" stroke="#333c"/>
<line x1="392.34567901234544" y1="424.64716494057217" x2="392.34567901234544" y2="427.6648271968278" stroke-dasharray="1,0.5" stroke="#333c"/>
<rect x="398.1481481481479" y="391.9664237624173" width="11.604938271604937" height="106.03357623758262" fill="#FFB000" data-tooltip="1.12x baseline speed (YJIT 3.3.1)"/>
<line x1="398.1481481481479" y1="391.83731836823046" x2="409.75308641975283" y2="391.83731836823046" stroke-dasharray="1,0.5" stroke="#333c"/>
<line x1="398.1481481481479" y1="392.09552915660424" x2="409.75308641975283" y2="392.09552915660424" stroke-dasharray="1,0.5" stroke="#333c"/>
<line x1="403.95061728395035" y1="391.83731836823046" x2="403.95061728395035" y2="392.09552915660424" stroke-dasharray="1,0.5" stroke="#333c"/>
<rect x="409.75308641975283" y="387.3082121635791" width="11.604938271604937" height="110.69178783642084" fill="#DC267F" data-tooltip="1.17x baseline speed (YJIT 3.4.0dev)"/>
<line x1="409.75308641975283" y1="387.15661159949343" x2="421.35802469135774" y2="387.15661159949343" stroke-dasharray="1,0.5" stroke="#333c"/>
<line x1="409.75308641975283" y1="387.4598127276648" x2="421.35802469135774" y2="387.4598127276648" stroke-dasharray="1,0.5" stroke="#333c"/>
<line x1="415.5555555555553" y1="387.15661159949343" x2="415.5555555555553" y2="387.4598127276648" stroke-dasharray="1,0.5" stroke="#333c"/>
<line x1="403.9506172839503" y1="498.0" x2="403.9506172839503" y2="502.79999999999995" stroke="#000"/>
<text x="403.9506172839503" y="512.4" fill="#111" font-size="small" text-anchor="end" transform="rotate(-60, 403.9506172839503, 512.4)">
graphql-native
</text>
<rect x="432.96296296296265" y="393.427985414795" width="11.604938271604937" height="104.57201458520498" fill="#785EF0" data-tooltip="1.10x baseline speed (CRuby 3.4.0dev)"/>
<line x1="432.96296296296265" y1="392.1110899350706" x2="444.56790123456756" y2="392.1110899350706" stroke-dasharray="1,0.5" stroke="#333c"/>
<line x1="432.96296296296265" y1="394.7448808945194" x2="444.56790123456756" y2="394.7448808945194" stroke-dasharray="1,0.5" stroke="#333c"/>
<line x1="438.76543209876513" y1="392.1110899350706" x2="438.76543209876513" y2="394.7448808945194" stroke-dasharray="1,0.5" stroke="#333c"/>
<rect x="444.56790123456756" y="367.51138507506545" width="11.604938271604937" height="130.48861492493447" fill="#FFB000" data-tooltip="1.37x baseline speed (YJIT 3.3.1)"/>
<line x1="444.56790123456756" y1="365.0655663668039" x2="456.17283950617247" y2="365.0655663668039" stroke-dasharray="1,0.5" stroke="#333c"/>
<line x1="444.56790123456756" y1="369.95720378332703" x2="456.17283950617247" y2="369.95720378332703" stroke-dasharray="1,0.5" stroke="#333c"/>
<line x1="450.37037037037004" y1="365.0655663668039" x2="450.37037037037004" y2="369.95720378332703" stroke-dasharray="1,0.5" stroke="#333c"/>
<rect x="456.17283950617247" y="346.7135866742152" width="11.604938271604937" height="151.2864133257848" fill="#DC267F" data-tooltip="1.59x baseline speed (YJIT 3.4.0dev)"/>
<line x1="456.17283950617247" y1="344.5057834724127" x2="467.77777777777743" y2="344.5057834724127" stroke-dasharray="1,0.5" stroke="#333c"/>
<line x1="456.17283950617247" y1="348.92138987601777" x2="467.77777777777743" y2="348.92138987601777" stroke-dasharray="1,0.5" stroke="#333c"/>
<line x1="461.97530864197495" y1="344.5057834724127" x2="461.97530864197495" y2="348.92138987601777" stroke-dasharray="1,0.5" stroke="#333c"/>
<line x1="450.37037037037" y1="498.0" x2="450.37037037037" y2="502.79999999999995" stroke="#000"/>
<text x="450.37037037037" y="512.4" fill="#111" font-size="small" text-anchor="end" transform="rotate(-60, 450.37037037037, 512.4)">
lee
</text>
<rect x="479.38271604938234" y="414.59421928284985" width="11.604938271604937" height="83.40578071715011" fill="#785EF0" data-tooltip="0.88x baseline speed (CRuby 3.4.0dev)"/>
<line x1="479.38271604938234" y1="414.45386598039624" x2="490.98765432098725" y2="414.45386598039624" stroke-dasharray="1,0.5" stroke="#333c"/>
<line x1="479.38271604938234" y1="414.7345725853035" x2="490.98765432098725" y2="414.7345725853035" stroke-dasharray="1,0.5" stroke="#333c"/>
<line x1="485.18518518518476" y1="414.45386598039624" x2="485.18518518518476" y2="414.7345725853035" stroke-dasharray="1,0.5" stroke="#333c"/>
<rect x="490.98765432098725" y="344.61144268829077" width="11.604938271604937" height="153.38855731170915" fill="#FFB000" data-tooltip="1.61x baseline speed (YJIT 3.3.1)"/>
<line x1="490.98765432098725" y1="344.3415592606192" x2="502.59259259259215" y2="344.3415592606192" stroke-dasharray="1,0.5" stroke="#333c"/>
<line x1="490.98765432098725" y1="344.88132611596234" x2="502.59259259259215" y2="344.88132611596234" stroke-dasharray="1,0.5" stroke="#333c"/>
<line x1="496.7901234567897" y1="344.3415592606192" x2="496.7901234567897" y2="344.88132611596234" stroke-dasharray="1,0.5" stroke="#333c"/>
<rect x="502.59259259259215" y="336.66032225437704" width="11.604938271604937" height="161.33967774562296" fill="#DC267F" data-tooltip="1.70x baseline speed (YJIT 3.4.0dev)"/>
<line x1="502.59259259259215" y1="336.3437102730868" x2="514.197530864197" y2="336.3437102730868" stroke-dasharray="1,0.5" stroke="#333c"/>
<line x1="502.59259259259215" y1="336.9769342356672" x2="514.197530864197" y2="336.9769342356672" stroke-dasharray="1,0.5" stroke="#333c"/>
<line x1="508.39506172839464" y1="336.3437102730868" x2="508.39506172839464" y2="336.9769342356672" stroke-dasharray="1,0.5" stroke="#333c"/>
<line x1="496.7901234567896" y1="498.0" x2="496.7901234567896" y2="502.79999999999995" stroke="#000"/>
<text x="496.7901234567896" y="512.4" fill="#111" font-size="small" text-anchor="end" transform="rotate(-60, 496.7901234567896, 512.4)">
matmul
</text>
<rect x="525.802469135802" y="404.76414680158257" width="11.604938271604937" height="93.23585319841732" fill="#785EF0" data-tooltip="0.98x baseline speed (CRuby 3.4.0dev)"/>
<line x1="525.802469135802" y1="404.7119515654607" x2="537.4074074074069" y2="404.7119515654607" stroke-dasharray="1,0.5" stroke="#333c"/>
<line x1="525.802469135802" y1="404.81634203770443" x2="537.4074074074069" y2="404.81634203770443" stroke-dasharray="1,0.5" stroke="#333c"/>
<line x1="531.6049382716045" y1="404.7119515654607" x2="531.6049382716045" y2="404.81634203770443" stroke-dasharray="1,0.5" stroke="#333c"/>
<rect x="537.4074074074069" y="290.79801913184946" width="11.604938271604937" height="207.20198086815046" fill="#FFB000" data-tooltip="2.18x baseline speed (YJIT 3.3.1)"/>
<line x1="537.4074074074069" y1="290.6601729816842" x2="549.0123456790118" y2="290.6601729816842" stroke-dasharray="1,0.5" stroke="#333c"/>
<line x1="537.4074074074069" y1="290.93586528201473" x2="549.0123456790118" y2="290.93586528201473" stroke-dasharray="1,0.5" stroke="#333c"/>
<line x1="543.2098765432094" y1="290.6601729816842" x2="543.2098765432094" y2="290.93586528201473" stroke-dasharray="1,0.5" stroke="#333c"/>
<rect x="549.0123456790118" y="272.6621764736724" width="11.604938271604937" height="225.33782352632758" fill="#DC267F" data-tooltip="2.37x baseline speed (YJIT 3.4.0dev)"/>
<line x1="549.0123456790118" y1="271.7951699239735" x2="560.6172839506168" y2="271.7951699239735" stroke-dasharray="1,0.5" stroke="#333c"/>
<line x1="549.0123456790118" y1="273.5291830233712" x2="560.6172839506168" y2="273.5291830233712" stroke-dasharray="1,0.5" stroke="#333c"/>
<line x1="554.8148148148143" y1="271.7951699239735" x2="554.8148148148143" y2="273.5291830233712" stroke-dasharray="1,0.5" stroke="#333c"/>
<line x1="543.2098765432092" y1="498.0" x2="543.2098765432092" y2="502.79999999999995" stroke="#000"/>
<text x="543.2098765432092" y="512.4" fill="#111" font-size="small" text-anchor="end" transform="rotate(-60, 543.2098765432092, 512.4)">
nbody
</text>
<rect x="572.2222222222216" y="406.7191266239284" width="11.604938271604937" height="91.28087337607155" fill="#785EF0" data-tooltip="0.96x baseline speed (CRuby 3.4.0dev)"/>
<line x1="572.2222222222216" y1="406.1918419506086" x2="583.8271604938266" y2="406.1918419506086" stroke-dasharray="1,0.5" stroke="#333c"/>
<line x1="572.2222222222216" y1="407.24641129724813" x2="583.8271604938266" y2="407.24641129724813" stroke-dasharray="1,0.5" stroke="#333c"/>
<line x1="578.0246913580241" y1="406.1918419506086" x2="578.0246913580241" y2="407.24641129724813" stroke-dasharray="1,0.5" stroke="#333c"/>
<rect x="583.8271604938266" y="402.47967179113397" width="11.604938271604937" height="95.52032820886596" fill="#FFB000" data-tooltip="1.01x baseline speed (YJIT 3.3.1)"/>
<line x1="583.8271604938266" y1="401.830122461198" x2="595.4320987654314" y2="401.830122461198" stroke-dasharray="1,0.5" stroke="#333c"/>
<line x1="583.8271604938266" y1="403.12922112106986" x2="595.4320987654314" y2="403.12922112106986" stroke-dasharray="1,0.5" stroke="#333c"/>
<line x1="589.6296296296291" y1="401.830122461198" x2="589.6296296296291" y2="403.12922112106986" stroke-dasharray="1,0.5" stroke="#333c"/>
<rect x="595.4320987654314" y="151.95897431629828" width="11.604938271604937" height="346.0410256837016" fill="#DC267F" data-tooltip="3.64x baseline speed (YJIT 3.4.0dev)"/>
<line x1="595.4320987654314" y1="149.91963385945462" x2="607.0370370370364" y2="149.91963385945462" stroke-dasharray="1,0.5" stroke="#333c"/>
<line x1="595.4320987654314" y1="153.99831477314194" x2="607.0370370370364" y2="153.99831477314194" stroke-dasharray="1,0.5" stroke="#333c"/>
<line x1="601.234567901234" y1="149.91963385945462" x2="601.234567901234" y2="153.99831477314194" stroke-dasharray="1,0.5" stroke="#333c"/>
<line x1="589.629629629629" y1="498.0" x2="589.629629629629" y2="502.79999999999995" stroke="#000"/>
<text x="589.629629629629" y="512.4" fill="#111" font-size="small" text-anchor="end" transform="rotate(-60, 589.629629629629, 512.4)">
nqueens
</text>
<rect x="618.6419753086412" y="387.9379818378551" width="11.604938271604937" height="110.06201816214481" fill="#785EF0" data-tooltip="1.16x baseline speed (CRuby 3.4.0dev)"/>
<line x1="618.6419753086412" y1="387.373584832998" x2="630.2469135802462" y2="387.373584832998" stroke-dasharray="1,0.5" stroke="#333c"/>
<line x1="618.6419753086412" y1="388.5023788427122" x2="630.2469135802462" y2="388.5023788427122" stroke-dasharray="1,0.5" stroke="#333c"/>
<line x1="624.4444444444438" y1="387.373584832998" x2="624.4444444444438" y2="388.5023788427122" stroke-dasharray="1,0.5" stroke="#333c"/>
<rect x="630.2469135802462" y="147.79053843667072" width="11.604938271604937" height="350.2094615633292" fill="#FFB000" data-tooltip="3.69x baseline speed (YJIT 3.3.1)"/>
<line x1="630.2469135802462" y1="145.92787601444724" x2="641.8518518518512" y2="145.92787601444724" stroke-dasharray="1,0.5" stroke="#333c"/>
<line x1="630.2469135802462" y1="149.6532008588942" x2="641.8518518518512" y2="149.6532008588942" stroke-dasharray="1,0.5" stroke="#333c"/>
<line x1="636.0493827160487" y1="145.92787601444724" x2="636.0493827160487" y2="149.6532008588942" stroke-dasharray="1,0.5" stroke="#333c"/>
<rect x="641.8518518518512" y="100.19999999999999" width="11.604938271604937" height="397.79999999999995" fill="#DC267F" data-tooltip="4.19x baseline speed (YJIT 3.4.0dev)"/>
<line x1="641.8518518518512" y1="96.93194005967487" x2="653.456790123456" y2="96.93194005967487" stroke-dasharray="1,0.5" stroke="#333c"/>
<line x1="641.8518518518512" y1="103.4680599403251" x2="653.456790123456" y2="103.4680599403251" stroke-dasharray="1,0.5" stroke="#333c"/>
<line x1="647.6543209876536" y1="96.93194005967487" x2="647.6543209876536" y2="103.4680599403251" stroke-dasharray="1,0.5" stroke="#333c"/>
<line x1="636.0493827160486" y1="498.0" x2="636.0493827160486" y2="502.79999999999995" stroke="#000"/>
<text x="636.0493827160486" y="512.4" fill="#111" font-size="small" text-anchor="end" transform="rotate(-60, 636.0493827160486, 512.4)">
optcarrot
</text>
<rect x="665.061728395061" y="401.13653552630944" width="11.604938271604937" height="96.86346447369051" fill="#785EF0" data-tooltip="1.02x baseline speed (CRuby 3.4.0dev)"/>
<line x1="665.061728395061" y1="400.6001637404296" x2="676.6666666666658" y2="400.6001637404296" stroke-dasharray="1,0.5" stroke="#333c"/>
<line x1="665.061728395061" y1="401.6729073121893" x2="676.6666666666658" y2="401.6729073121893" stroke-dasharray="1,0.5" stroke="#333c"/>
<line x1="670.8641975308634" y1="400.6001637404296" x2="670.8641975308634" y2="401.6729073121893" stroke-dasharray="1,0.5" stroke="#333c"/>
<rect x="676.6666666666658" y="201.2272837473365" width="11.604938271604937" height="296.7727162526635" fill="#FFB000" data-tooltip="3.12x baseline speed (YJIT 3.3.1)"/>
<line x1="676.6666666666658" y1="199.38610346950716" x2="688.2716049382708" y2="199.38610346950716" stroke-dasharray="1,0.5" stroke="#333c"/>
<line x1="676.6666666666658" y1="203.06846402516584" x2="688.2716049382708" y2="203.06846402516584" stroke-dasharray="1,0.5" stroke="#333c"/>
<line x1="682.4691358024684" y1="199.38610346950716" x2="682.4691358024684" y2="203.06846402516584" stroke-dasharray="1,0.5" stroke="#333c"/>
<rect x="688.2716049382708" y="156.541520265937" width="11.604938271604937" height="341.45847973406296" fill="#DC267F" data-tooltip="3.60x baseline speed (YJIT 3.4.0dev)"/>
<line x1="688.2716049382708" y1="154.28215473950982" x2="699.8765432098756" y2="154.28215473950982" stroke-dasharray="1,0.5" stroke="#333c"/>
<line x1="688.2716049382708" y1="158.80088579236423" x2="699.8765432098756" y2="158.80088579236423" stroke-dasharray="1,0.5" stroke="#333c"/>
<line x1="694.0740740740733" y1="154.28215473950982" x2="694.0740740740733" y2="158.80088579236423" stroke-dasharray="1,0.5" stroke="#333c"/>
<line x1="682.4691358024683" y1="498.0" x2="682.4691358024683" y2="502.79999999999995" stroke="#000"/>
<text x="682.4691358024683" y="512.4" fill="#111" font-size="small" text-anchor="end" transform="rotate(-60, 682.4691358024683, 512.4)">
protoboeuf
</text>
<rect x="711.4814814814806" y="391.33646041999884" width="11.604938271604937" height="106.66353958000107" fill="#785EF0" data-tooltip="1.12x baseline speed (CRuby 3.4.0dev)"/>
<line x1="711.4814814814806" y1="390.2146414246612" x2="723.0864197530855" y2="390.2146414246612" stroke-dasharray="1,0.5" stroke="#333c"/>
<line x1="711.4814814814806" y1="392.45827941533645" x2="723.0864197530855" y2="392.45827941533645" stroke-dasharray="1,0.5" stroke="#333c"/>
<line x1="717.2839506172832" y1="390.2146414246612" x2="717.2839506172832" y2="392.45827941533645" stroke-dasharray="1,0.5" stroke="#333c"/>
<rect x="723.0864197530855" y="328.4179860176176" width="11.604938271604937" height="169.5820139823823" fill="#FFB000" data-tooltip="1.79x baseline speed (YJIT 3.3.1)"/>
<line x1="723.0864197530855" y1="326.28750193629486" x2="734.6913580246904" y2="326.28750193629486" stroke-dasharray="1,0.5" stroke="#333c"/>
<line x1="723.0864197530855" y1="330.54847009894036" x2="734.6913580246904" y2="330.54847009894036" stroke-dasharray="1,0.5" stroke="#333c"/>
<line x1="728.888888888888" y1="326.28750193629486" x2="728.888888888888" y2="330.54847009894036" stroke-dasharray="1,0.5" stroke="#333c"/>
<rect x="734.6913580246904" y="300.0173458579649" width="11.604938271604937" height="197.98265414203507" fill="#DC267F" data-tooltip="2.08x baseline speed (YJIT 3.4.0dev)"/>
<line x1="734.6913580246904" y1="297.4870410681674" x2="746.2962962962954" y2="297.4870410681674" stroke-dasharray="1,0.5" stroke="#333c"/>
<line x1="734.6913580246904" y1="302.54765064776245" x2="746.2962962962954" y2="302.54765064776245" stroke-dasharray="1,0.5" stroke="#333c"/>
<line x1="740.493827160493" y1="297.4870410681674" x2="740.493827160493" y2="302.54765064776245" stroke-dasharray="1,0.5" stroke="#333c"/>
<line x1="728.8888888888879" y1="498.0" x2="728.8888888888879" y2="502.79999999999995" stroke="#000"/>
<text x="728.8888888888879" y="512.4" fill="#111" font-size="small" text-anchor="end" transform="rotate(-60, 728.8888888888879, 512.4)">
rack
</text>
<rect x="757.9012345679002" y="395.7990599495973" width="11.604938271604937" height="102.20094005040269" fill="#785EF0" data-tooltip="1.08x baseline speed (CRuby 3.4.0dev)"/>
<line x1="757.9012345679002" y1="395.7351762349867" x2="769.5061728395052" y2="395.7351762349867" stroke-dasharray="1,0.5" stroke="#333c"/>
<line x1="757.9012345679002" y1="395.8629436642078" x2="769.5061728395052" y2="395.8629436642078" stroke-dasharray="1,0.5" stroke="#333c"/>
<line x1="763.7037037037028" y1="395.7351762349867" x2="763.7037037037028" y2="395.8629436642078" stroke-dasharray="1,0.5" stroke="#333c"/>
<rect x="769.5061728395052" y="387.7993345261052" width="11.604938271604937" height="110.20066547389476" fill="#FFB000" data-tooltip="1.16x baseline speed (YJIT 3.3.1)"/>
<line x1="769.5061728395052" y1="387.7206482621394" x2="781.1111111111101" y2="387.7206482621394" stroke-dasharray="1,0.5" stroke="#333c"/>
<line x1="769.5061728395052" y1="387.87802079007105" x2="781.1111111111101" y2="387.87802079007105" stroke-dasharray="1,0.5" stroke="#333c"/>
<line x1="775.3086419753076" y1="387.7206482621394" x2="775.3086419753076" y2="387.87802079007105" stroke-dasharray="1,0.5" stroke="#333c"/>
<rect x="781.1111111111101" y="379.7304485874325" width="11.604938271604937" height="118.26955141256745" fill="#DC267F" data-tooltip="1.25x baseline speed (YJIT 3.4.0dev)"/>
<line x1="781.1111111111101" y1="379.66182444755066" x2="792.716049382715" y2="379.66182444755066" stroke-dasharray="1,0.5" stroke="#333c"/>
<line x1="781.1111111111101" y1="379.7990727273143" x2="792.716049382715" y2="379.7990727273143" stroke-dasharray="1,0.5" stroke="#333c"/>
<line x1="786.9135802469126" y1="379.66182444755066" x2="786.9135802469126" y2="379.7990727273143" stroke-dasharray="1,0.5" stroke="#333c"/>
<line x1="775.3086419753075" y1="498.0" x2="775.3086419753075" y2="502.79999999999995" stroke="#000"/>
<text x="775.3086419753075" y="512.4" fill="#111" font-size="small" text-anchor="end" transform="rotate(-60, 775.3086419753075, 512.4)">
ruby-json
</text>
<rect x="804.3209876543199" y="400.13273151864723" width="11.604938271604937" height="97.8672684813527" fill="#785EF0" data-tooltip="1.03x baseline speed (CRuby 3.4.0dev)"/>
<line x1="804.3209876543199" y1="399.08494091712686" x2="815.9259259259248" y2="399.08494091712686" stroke-dasharray="1,0.5" stroke="#333c"/>
<line x1="804.3209876543199" y1="401.1805221201676" x2="815.9259259259248" y2="401.1805221201676" stroke-dasharray="1,0.5" stroke="#333c"/>
<line x1="810.1234567901224" y1="399.08494091712686" x2="810.1234567901224" y2="401.1805221201676" stroke-dasharray="1,0.5" stroke="#333c"/>
<rect x="815.9259259259248" y="306.48674868290937" width="11.604938271604937" height="191.51325131709052" fill="#FFB000" data-tooltip="2.02x baseline speed (YJIT 3.3.1)"/>
<line x1="815.9259259259248" y1="304.0366749195151" x2="827.5308641975297" y2="304.0366749195151" stroke-dasharray="1,0.5" stroke="#333c"/>
<line x1="815.9259259259248" y1="308.93682244630367" x2="827.5308641975297" y2="308.93682244630367" stroke-dasharray="1,0.5" stroke="#333c"/>
<line x1="821.7283950617274" y1="304.0366749195151" x2="821.7283950617274" y2="308.93682244630367" stroke-dasharray="1,0.5" stroke="#333c"/>
<rect x="827.5308641975297" y="291.2397346100543" width="11.604938271604937" height="206.76026538994563" fill="#DC267F" data-tooltip="2.18x baseline speed (YJIT 3.4.0dev)"/>
<line x1="827.5308641975297" y1="288.8046074012211" x2="839.1358024691347" y2="288.8046074012211" stroke-dasharray="1,0.5" stroke="#333c"/>
<line x1="827.5308641975297" y1="293.6748618188875" x2="839.1358024691347" y2="293.6748618188875" stroke-dasharray="1,0.5" stroke="#333c"/>
<line x1="833.3333333333322" y1="288.8046074012211" x2="833.3333333333322" y2="293.6748618188875" stroke-dasharray="1,0.5" stroke="#333c"/>
<line x1="821.7283950617273" y1="498.0" x2="821.7283950617273" y2="502.79999999999995" stroke="#000"/>
<text x="821.7283950617273" y="512.4" fill="#111" font-size="small" text-anchor="end" transform="rotate(-60, 821.7283950617273, 512.4)">
rubykon
</text>
<rect x="850.7407407407396" y="403.44619220286336" width="11.604938271604937" height="94.55380779713663" fill="#785EF0" data-tooltip="1.00x baseline speed (CRuby 3.4.0dev)"/>
<line x1="850.7407407407396" y1="403.39597451541266" x2="862.3456790123445" y2="403.39597451541266" stroke-dasharray="1,0.5" stroke="#333c"/>
<line x1="850.7407407407396" y1="403.496409890314" x2="862.3456790123445" y2="403.496409890314" stroke-dasharray="1,0.5" stroke="#333c"/>
<line x1="856.543209876542" y1="403.39597451541266" x2="856.543209876542" y2="403.496409890314" stroke-dasharray="1,0.5" stroke="#333c"/>
<rect x="862.3456790123445" y="257.07568673921844" width="11.604938271604937" height="240.92431326078147" fill="#FFB000" data-tooltip="2.54x baseline speed (YJIT 3.3.1)"/>
<line x1="862.3456790123445" y1="256.9681850799731" x2="873.9506172839494" y2="256.9681850799731" stroke-dasharray="1,0.5" stroke="#333c"/>
<line x1="862.3456790123445" y1="257.18318839846376" x2="873.9506172839494" y2="257.18318839846376" stroke-dasharray="1,0.5" stroke="#333c"/>
<line x1="868.148148148147" y1="256.9681850799731" x2="868.148148148147" y2="257.18318839846376" stroke-dasharray="1,0.5" stroke="#333c"/>
<rect x="873.9506172839494" y="245.6716048354223" width="11.604938271604937" height="252.32839516457764" fill="#DC267F" data-tooltip="2.66x baseline speed (YJIT 3.4.0dev)"/>
<line x1="873.9506172839494" y1="245.4943837147933" x2="885.5555555555543" y2="245.4943837147933" stroke-dasharray="1,0.5" stroke="#333c"/>
<line x1="873.9506172839494" y1="245.84882595605134" x2="885.5555555555543" y2="245.84882595605134" stroke-dasharray="1,0.5" stroke="#333c"/>
<line x1="879.7530864197519" y1="245.4943837147933" x2="879.7530864197519" y2="245.84882595605134" stroke-dasharray="1,0.5" stroke="#333c"/>
<line x1="868.1481481481469" y1="498.0" x2="868.1481481481469" y2="502.79999999999995" stroke="#000"/>
<text x="868.1481481481469" y="512.4" fill="#111" font-size="small" text-anchor="end" transform="rotate(-60, 868.1481481481469, 512.4)">
sudoku
</text>
<rect x="897.1604938271593" y="396.9055909585073" width="11.604938271604937" height="101.09440904149264" fill="#785EF0" data-tooltip="1.06x baseline speed (CRuby 3.4.0dev)"/>
<line x1="897.1604938271593" y1="396.77820249842955" x2="908.7654320987641" y2="396.77820249842955" stroke-dasharray="1,0.5" stroke="#333c"/>
<line x1="897.1604938271593" y1="397.032979418585" x2="908.7654320987641" y2="397.032979418585" stroke-dasharray="1,0.5" stroke="#333c"/>
<line x1="902.9629629629618" y1="396.77820249842955" x2="902.9629629629618" y2="397.032979418585" stroke-dasharray="1,0.5" stroke="#333c"/>
<rect x="908.7654320987641" y="324.6399445633391" width="11.604938271604937" height="173.3600554366609" fill="#FFB000" data-tooltip="1.83x baseline speed (YJIT 3.3.1)"/>
<line x1="908.7654320987641" y1="324.40447775224766" x2="920.3703703703691" y2="324.40447775224766" stroke-dasharray="1,0.5" stroke="#333c"/>
<line x1="908.7654320987641" y1="324.87541137443054" x2="920.3703703703691" y2="324.87541137443054" stroke-dasharray="1,0.5" stroke="#333c"/>
<line x1="914.5679012345666" y1="324.40447775224766" x2="914.5679012345666" y2="324.87541137443054" stroke-dasharray="1,0.5" stroke="#333c"/>
<rect x="920.3703703703691" y="307.5306482778428" width="11.604938271604937" height="190.46935172215717" fill="#DC267F" data-tooltip="2.01x baseline speed (YJIT 3.4.0dev)"/>
<line x1="920.3703703703691" y1="307.3049707189847" x2="931.9753086419739" y2="307.3049707189847" stroke-dasharray="1,0.5" stroke="#333c"/>
<line x1="920.3703703703691" y1="307.75632583670085" x2="931.9753086419739" y2="307.75632583670085" stroke-dasharray="1,0.5" stroke="#333c"/>
<line x1="926.1728395061716" y1="307.3049707189847" x2="926.1728395061716" y2="307.75632583670085" stroke-dasharray="1,0.5" stroke="#333c"/>
<line x1="914.5679012345665" y1="498.0" x2="914.5679012345665" y2="502.79999999999995" stroke="#000"/>
<text x="914.5679012345665" y="512.4" fill="#111" font-size="small" text-anchor="end" transform="rotate(-60, 914.5679012345665, 512.4)">
tinygql
</text>
<rect x="943.5802469135789" y="404.2817486921549" width="11.604938271604937" height="93.71825130784505" fill="#785EF0" data-tooltip="0.99x baseline speed (CRuby 3.4.0dev)"/>
<rect x="955.1851851851839" y="338.24903180519834" width="11.604938271604937" height="159.7509681948016" fill="#FFB000" data-tooltip="1.68x baseline speed (YJIT 3.3.1)"/>
<rect x="966.7901234567887" y="317.6237104968947" width="11.604938271604937" height="180.37628950310517" fill="#DC267F" data-tooltip="1.90x baseline speed (YJIT 3.4.0dev)"/>
<line x1="960.9876543209862" y1="498.0" x2="960.9876543209862" y2="502.79999999999995" stroke="#000"/>
<text x="960.9876543209862" y="512.4" fill="#111" font-size="small" text-anchor="end" transform="rotate(-60, 960.9876543209862, 512.4)" font-style="italic">
geomean*
</text>
<line x1="50.0" y1="403.01882622691926" x2="990.0" y2="403.01882622691926" stroke="#648FFF" stroke-width="2"/>
</svg>