<svg viewBox="0 0 1000 600" xmlns="http://www.w3.org/2000/svg" xmlns:xlink="http://www.w3.org/1999/xlink" width="100%" height="100%">

<rect x="50.0" y="30.0" width="940.0" height="467.99999999999994" stroke="#000" fill="#EEE"/>
<line x1="42.0" y1="497.9999999999999" x2="50.0" y2="497.9999999999999" stroke="#000"/>
<text x="26.000000000000004" y="497.9999999999999" text-anchor="end" font-weight="bold" font-size="small" fill="#111">
0.0
</text>
<line x1="42.0" y1="449.6969899739941" x2="50.0" y2="449.6969899739941" stroke="#000"/>
<text x="26.000000000000004" y="449.6969899739941" text-anchor="end" font-weight="bold" font-size="small" fill="#111">
0.2
</text>
<line x1="42.0" y1="401.3939799479883" x2="50.0" y2="401.3939799479883" stroke="#000"/>
<text x="26.000000000000004" y="401.3939799479883" text-anchor="end" font-weight="bold" font-size="small" fill="#111">
0.4
</text>
<line x1="42.0" y1="353.0909699219826" x2="50.0" y2="353.0909699219826" stroke="#000"/>
<text x="26.000000000000004" y="353.0909699219826" text-anchor="end" font-weight="bold" font-size="small" fill="#111">
0.6
</text>
<line x1="42.0" y1="304.7879598959768" x2="50.0" y2="304.7879598959768" stroke="#000"/>
<text x="26.000000000000004" y="304.7879598959768" text-anchor="end" font-weight="bold" font-size="small" fill="#111">
0.8
</text>
<line x1="42.0" y1="256.48494986997105" x2="50.0" y2="256.48494986997105" stroke="#000"/>
<text x="26.000000000000004" y="256.48494986997105" text-anchor="end" font-weight="bold" font-size="small" fill="#111">
1.0
</text>
<line x1="42.0" y1="208.18193984396532" x2="50.0" y2="208.18193984396532" stroke="#000"/>
<text x="26.000000000000004" y="208.18193984396532" text-anchor="end" font-weight="bold" font-size="small" fill="#111">
1.2
</text>
<line x1="42.0" y1="159.87892981795952" x2="50.0" y2="159.87892981795952" stroke="#000"/>
<text x="26.000000000000004" y="159.87892981795952" text-anchor="end" font-weight="bold" font-size="small" fill="#111">
1.4
</text>
<line x1="42.0" y1="111.57591979195374" x2="50.0" y2="111.57591979195374" stroke="#000"/>
<text x="26.000000000000004" y="111.57591979195374" text-anchor="end" font-weight="bold" font-size="small" fill="#111">
1.6
</text>
<rect x="268.5" y="36.00000000000001" width="80.0" height="18.0" fill="#7070f8" stroke="#888"/>
<text x="308.5" y="52.50000000000001" font-size="small" text-anchor="middle" font-weight="bold" fill="#EEE">
No JIT
</text>
<rect x="691.4999999999999" y="36.00000000000001" width="80.0" height="18.0" fill="orange" stroke="#888"/>
<text x="731.4999999999999" y="52.50000000000001" font-size="small" text-anchor="middle" font-weight="bold" fill="#EEE">
YJIT
</text>
<rect x="97.0" y="256.48494986997105" width="21.69230769230769" height="241.5150501300289" fill="#7070f8" data-tooltip="1.00x baseline speed (No JIT)"/>
<line x1="97.0" y1="252.15160927842922" x2="118.6923076923077" y2="252.15160927842922" stroke="#000"/>
<line x1="97.0" y1="260.81829046151285" x2="118.6923076923077" y2="260.81829046151285" stroke="#000"/>
<line x1="107.84615384615384" y1="252.15160927842922" x2="107.84615384615384" y2="260.81829046151285" stroke="#000"/>
<rect x="118.6923076923077" y="149.65524052566684" width="21.69230769230769" height="348.3447594743331" fill="orange" data-tooltip="1.44x baseline speed (YJIT)"/>
<line x1="118.6923076923077" y1="138.34012887183056" x2="140.3846153846154" y2="138.34012887183056" stroke="#000"/>
<line x1="118.6923076923077" y1="160.97035217950315" x2="140.3846153846154" y2="160.97035217950315" stroke="#000"/>
<line x1="129.53846153846155" y1="138.34012887183056" x2="129.53846153846155" y2="160.97035217950315" stroke="#000"/>
<line x1="129.53846153846155" y1="498.0" x2="129.53846153846155" y2="502.79999999999995" stroke="#000"/>
<text x="129.53846153846155" y="512.4" fill="#111" font-size="small" font-family="monospace" font-weight="bold" text-anchor="end" transform="rotate(-60, 129.53846153846155, 512.4)">
activerecord
</text>
<rect x="162.07692307692307" y="256.48494986997105" width="21.69230769230769" height="241.5150501300289" fill="#7070f8" data-tooltip="1.00x baseline speed (No JIT)"/>
<line x1="162.07692307692307" y1="255.75704238780375" x2="183.76923076923075" y2="255.75704238780375" stroke="#000"/>
<line x1="162.07692307692307" y1="257.2128573521383" x2="183.76923076923075" y2="257.2128573521383" stroke="#000"/>
<line x1="172.9230769230769" y1="255.75704238780375" x2="172.9230769230769" y2="257.2128573521383" stroke="#000"/>
<rect x="183.76923076923075" y="102.23127239762196" width="21.69230769230769" height="395.76872760237796" fill="orange" data-tooltip="1.64x baseline speed (YJIT)"/>
<line x1="183.76923076923075" y1="100.19282692722905" x2="205.46153846153842" y2="100.19282692722905" stroke="#000"/>
<line x1="183.76923076923075" y1="104.26971786801488" x2="205.46153846153842" y2="104.26971786801488" stroke="#000"/>
<line x1="194.61538461538458" y1="100.19282692722905" x2="194.61538461538458" y2="104.26971786801488" stroke="#000"/>
<line x1="194.6153846153846" y1="498.0" x2="194.6153846153846" y2="502.79999999999995" stroke="#000"/>
<text x="194.6153846153846" y="512.4" fill="#111" font-size="small" font-family="monospace" font-weight="bold" text-anchor="end" transform="rotate(-60, 194.6153846153846, 512.4)">
chunky-png
</text>
<rect x="227.15384615384616" y="256.48494986997105" width="21.69230769230769" height="241.5150501300289" fill="#7070f8" data-tooltip="1.00x baseline speed (No JIT)"/>
<line x1="227.15384615384616" y1="255.22916622551722" x2="248.84615384615384" y2="255.22916622551722" stroke="#000"/>
<line x1="227.15384615384616" y1="257.74073351442485" x2="248.84615384615384" y2="257.74073351442485" stroke="#000"/>
<line x1="238.0" y1="255.22916622551722" x2="238.0" y2="257.74073351442485" stroke="#000"/>
<rect x="248.84615384615384" y="141.67055810878958" width="21.69230769230769" height="356.3294418912104" fill="orange" data-tooltip="1.48x baseline speed (YJIT)"/>
<line x1="248.84615384615384" y1="138.30533035998786" x2="270.5384615384615" y2="138.30533035998786" stroke="#000"/>
<line x1="248.84615384615384" y1="145.03578585759126" x2="270.5384615384615" y2="145.03578585759126" stroke="#000"/>
<line x1="259.6923076923077" y1="138.30533035998786" x2="259.6923076923077" y2="145.03578585759126" stroke="#000"/>
<line x1="259.6923076923077" y1="498.0" x2="259.6923076923077" y2="502.79999999999995" stroke="#000"/>
<text x="259.6923076923077" y="512.4" fill="#111" font-size="small" font-family="monospace" font-weight="bold" text-anchor="end" transform="rotate(-60, 259.6923076923077, 512.4)">
erubi-rails
</text>
<rect x="292.23076923076917" y="256.48494986997105" width="21.69230769230769" height="241.5150501300289" fill="#7070f8" data-tooltip="1.00x baseline speed (No JIT)"/>
<line x1="292.23076923076917" y1="255.10125632735404" x2="313.92307692307685" y2="255.10125632735404" stroke="#000"/>
<line x1="292.23076923076917" y1="257.868643412588" x2="313.92307692307685" y2="257.868643412588" stroke="#000"/>
<line x1="303.07692307692304" y1="255.10125632735404" x2="303.07692307692304" y2="257.868643412588" stroke="#000"/>
<rect x="313.92307692307685" y="165.3283920147587" width="21.69230769230769" height="332.6716079852413" fill="orange" data-tooltip="1.38x baseline speed (YJIT)"/>
<line x1="313.92307692307685" y1="159.24470774567854" x2="335.6153846153845" y2="159.24470774567854" stroke="#000"/>
<line x1="313.92307692307685" y1="171.41207628383884" x2="335.6153846153845" y2="171.41207628383884" stroke="#000"/>
<line x1="324.7692307692307" y1="159.24470774567854" x2="324.7692307692307" y2="171.41207628383884" stroke="#000"/>
<line x1="324.7692307692307" y1="498.0" x2="324.7692307692307" y2="502.79999999999995" stroke="#000"/>
<text x="324.7692307692307" y="512.4" fill="#111" font-size="small" font-family="monospace" font-weight="bold" text-anchor="end" transform="rotate(-60, 324.7692307692307, 512.4)">
hexapdf
</text>
<rect x="357.3076923076923" y="256.48494986997105" width="21.69230769230769" height="241.5150501300289" fill="#7070f8" data-tooltip="1.00x baseline speed (No JIT)"/>
<line x1="357.3076923076923" y1="255.350752972805" x2="379.0" y2="255.350752972805" stroke="#000"/>
<line x1="357.3076923076923" y1="257.61914676713707" x2="379.0" y2="257.61914676713707" stroke="#000"/>
<line x1="368.1538461538462" y1="255.350752972805" x2="368.1538461538462" y2="257.61914676713707" stroke="#000"/>
<rect x="379.0" y="196.96990103888697" width="21.69230769230769" height="301.0300989611129" fill="orange" data-tooltip="1.25x baseline speed (YJIT)"/>
<line x1="379.0" y1="195.0928462247532" x2="400.6923076923077" y2="195.0928462247532" stroke="#000"/>
<line x1="379.0" y1="198.84695585302075" x2="400.6923076923077" y2="198.84695585302075" stroke="#000"/>
<line x1="389.84615384615387" y1="195.0928462247532" x2="389.84615384615387" y2="198.84695585302075" stroke="#000"/>
<line x1="389.84615384615387" y1="498.0" x2="389.84615384615387" y2="502.79999999999995" stroke="#000"/>
<text x="389.84615384615387" y="512.4" fill="#111" font-size="small" font-family="monospace" font-weight="bold" text-anchor="end" transform="rotate(-60, 389.84615384615387, 512.4)">
liquid-c
</text>
<rect x="422.38461538461536" y="256.48494986997105" width="21.69230769230769" height="241.5150501300289" fill="#7070f8" data-tooltip="1.00x baseline speed (No JIT)"/>
<line x1="422.38461538461536" y1="256.28375684315864" x2="444.07692307692304" y2="256.28375684315864" stroke="#000"/>
<line x1="422.38461538461536" y1="256.6861428967834" x2="444.07692307692304" y2="256.6861428967834" stroke="#000"/>
<line x1="433.23076923076917" y1="256.28375684315864" x2="433.23076923076917" y2="256.6861428967834" stroke="#000"/>
<rect x="444.07692307692304" y="214.24279546806147" width="21.69230769230769" height="283.75720453193844" fill="orange" data-tooltip="1.17x baseline speed (YJIT)"/>
<line x1="444.07692307692304" y1="213.9552076870768" x2="465.7692307692307" y2="213.9552076870768" stroke="#000"/>
<line x1="444.07692307692304" y1="214.53038324904614" x2="465.7692307692307" y2="214.53038324904614" stroke="#000"/>
<line x1="454.92307692307685" y1="213.9552076870768" x2="454.92307692307685" y2="214.53038324904614" stroke="#000"/>
<line x1="454.92307692307685" y1="498.0" x2="454.92307692307685" y2="502.79999999999995" stroke="#000"/>
<text x="454.92307692307685" y="512.4" fill="#111" font-size="small" font-family="monospace" font-weight="bold" text-anchor="end" transform="rotate(-60, 454.92307692307685, 512.4)">
liquid-compile
</text>
<rect x="487.4615384615384" y="256.48494986997105" width="21.69230769230769" height="241.5150501300289" fill="#7070f8" data-tooltip="1.00x baseline speed (No JIT)"/>
<line x1="487.4615384615384" y1="256.260357319073" x2="509.1538461538461" y2="256.260357319073" stroke="#000"/>
<line x1="487.4615384615384" y1="256.709542420869" x2="509.1538461538461" y2="256.709542420869" stroke="#000"/>
<line x1="498.3076923076922" y1="256.260357319073" x2="498.3076923076922" y2="256.709542420869" stroke="#000"/>
<rect x="509.1538461538461" y="100.19999999999999" width="21.69230769230769" height="397.79999999999995" fill="orange" data-tooltip="1.65x baseline speed (YJIT)"/>
<line x1="509.1538461538461" y1="99.57020444166284" x2="530.8461538461537" y2="99.57020444166284" stroke="#000"/>
<line x1="509.1538461538461" y1="100.82979555833714" x2="530.8461538461537" y2="100.82979555833714" stroke="#000"/>
<line x1="519.9999999999999" y1="99.57020444166284" x2="519.9999999999999" y2="100.82979555833714" stroke="#000"/>
<line x1="519.9999999999999" y1="498.0" x2="519.9999999999999" y2="502.79999999999995" stroke="#000"/>
<text x="519.9999999999999" y="512.4" fill="#111" font-size="small" font-family="monospace" font-weight="bold" text-anchor="end" transform="rotate(-60, 519.9999999999999, 512.4)">
liquid-render
</text>
<rect x="552.5384615384615" y="256.48494986997105" width="21.69230769230769" height="241.5150501300289" fill="#7070f8" data-tooltip="1.00x baseline speed (No JIT)"/>
<line x1="552.5384615384615" y1="253.4610233270847" x2="574.2307692307692" y2="253.4610233270847" stroke="#000"/>
<line x1="552.5384615384615" y1="259.5088764128574" x2="574.2307692307692" y2="259.5088764128574" stroke="#000"/>
<line x1="563.3846153846154" y1="253.4610233270847" x2="563.3846153846154" y2="259.5088764128574" stroke="#000"/>
<rect x="574.2307692307692" y="177.85879390223712" width="21.69230769230769" height="320.1412060977628" fill="orange" data-tooltip="1.33x baseline speed (YJIT)"/>
<line x1="574.2307692307692" y1="168.24982776268894" x2="595.9230769230769" y2="168.24982776268894" stroke="#000"/>
<line x1="574.2307692307692" y1="187.4677600417853" x2="595.9230769230769" y2="187.4677600417853" stroke="#000"/>
<line x1="585.0769230769231" y1="168.24982776268894" x2="585.0769230769231" y2="187.4677600417853" stroke="#000"/>
<line x1="585.0769230769231" y1="498.0" x2="585.0769230769231" y2="502.79999999999995" stroke="#000"/>
<text x="585.0769230769231" y="512.4" fill="#111" font-size="small" font-family="monospace" font-weight="bold" text-anchor="end" transform="rotate(-60, 585.0769230769231, 512.4)">
lobsters
</text>
<rect x="617.6153846153845" y="256.48494986997105" width="21.69230769230769" height="241.5150501300289" fill="#7070f8" data-tooltip="1.00x baseline speed (No JIT)"/>
<line x1="617.6153846153845" y1="256.239482899295" x2="639.3076923076923" y2="256.239482899295" stroke="#000"/>
<line x1="617.6153846153845" y1="256.730416840647" x2="639.3076923076923" y2="256.730416840647" stroke="#000"/>
<line x1="628.4615384615385" y1="256.239482899295" x2="628.4615384615385" y2="256.730416840647" stroke="#000"/>
<rect x="639.3076923076923" y="188.28052801596547" width="21.69230769230769" height="309.71947198403444" fill="orange" data-tooltip="1.28x baseline speed (YJIT)"/>
<line x1="639.3076923076923" y1="187.73409681248998" x2="660.9999999999999" y2="187.73409681248998" stroke="#000"/>
<line x1="639.3076923076923" y1="188.82695921944094" x2="660.9999999999999" y2="188.82695921944094" stroke="#000"/>
<line x1="650.1538461538461" y1="187.73409681248998" x2="650.1538461538461" y2="188.82695921944094" stroke="#000"/>
<line x1="650.1538461538461" y1="498.0" x2="650.1538461538461" y2="502.79999999999995" stroke="#000"/>
<text x="650.1538461538461" y="512.4" fill="#111" font-size="small" font-family="monospace" font-weight="bold" text-anchor="end" transform="rotate(-60, 650.1538461538461, 512.4)">
mail
</text>
<rect x="682.6923076923076" y="256.48494986997105" width="21.69230769230769" height="241.5150501300289" fill="#7070f8" data-tooltip="1.00x baseline speed (No JIT)"/>
<line x1="682.6923076923076" y1="256.29980773184377" x2="704.3846153846152" y2="256.29980773184377" stroke="#000"/>
<line x1="682.6923076923076" y1="256.6700920080983" x2="704.3846153846152" y2="256.6700920080983" stroke="#000"/>
<line x1="693.5384615384614" y1="256.29980773184377" x2="693.5384615384614" y2="256.6700920080983" stroke="#000"/>
<rect x="704.3846153846152" y="176.8429175517521" width="21.69230769230769" height="321.1570824482479" fill="orange" data-tooltip="1.33x baseline speed (YJIT)"/>
<line x1="704.3846153846152" y1="176.46447254624977" x2="726.076923076923" y2="176.46447254624977" stroke="#000"/>
<line x1="704.3846153846152" y1="177.22136255725442" x2="726.076923076923" y2="177.22136255725442" stroke="#000"/>
<line x1="715.2307692307692" y1="176.46447254624977" x2="715.2307692307692" y2="177.22136255725442" stroke="#000"/>
<line x1="715.2307692307692" y1="498.0" x2="715.2307692307692" y2="502.79999999999995" stroke="#000"/>
<text x="715.2307692307692" y="512.4" fill="#111" font-size="small" font-family="monospace" font-weight="bold" text-anchor="end" transform="rotate(-60, 715.2307692307692, 512.4)">
psych-load
</text>
<rect x="747.7692307692307" y="256.48494986997105" width="21.69230769230769" height="241.5150501300289" fill="#7070f8" data-tooltip="1.00x baseline speed (No JIT)"/>
<line x1="747.7692307692307" y1="255.4895830575134" x2="769.4615384615385" y2="255.4895830575134" stroke="#000"/>
<line x1="747.7692307692307" y1="257.4803166824287" x2="769.4615384615385" y2="257.4803166824287" stroke="#000"/>
<line x1="758.6153846153845" y1="255.4895830575134" x2="758.6153846153845" y2="257.4803166824287" stroke="#000"/>
<rect x="769.4615384615385" y="147.40314003935205" width="21.69230769230769" height="350.59685996064786" fill="orange" data-tooltip="1.45x baseline speed (YJIT)"/>
<line x1="769.4615384615385" y1="144.73878904346577" x2="791.1538461538461" y2="144.73878904346577" stroke="#000"/>
<line x1="769.4615384615385" y1="150.06749103523833" x2="791.1538461538461" y2="150.06749103523833" stroke="#000"/>
<line x1="780.3076923076923" y1="144.73878904346577" x2="780.3076923076923" y2="150.06749103523833" stroke="#000"/>
<line x1="780.3076923076923" y1="498.0" x2="780.3076923076923" y2="502.79999999999995" stroke="#000"/>
<text x="780.3076923076923" y="512.4" fill="#111" font-size="small" font-family="monospace" font-weight="bold" text-anchor="end" transform="rotate(-60, 780.3076923076923, 512.4)">
railsbench
</text>
<rect x="812.8461538461538" y="256.48494986997105" width="21.69230769230769" height="241.5150501300289" fill="#7070f8" data-tooltip="1.00x baseline speed (No JIT)"/>
<line x1="812.8461538461538" y1="250.5763760617733" x2="834.5384615384614" y2="250.5763760617733" stroke="#000"/>
<line x1="812.8461538461538" y1="262.3935236781688" x2="834.5384615384614" y2="262.3935236781688" stroke="#000"/>
<line x1="823.6923076923076" y1="250.5763760617733" x2="823.6923076923076" y2="262.3935236781688" stroke="#000"/>
<rect x="834.5384615384614" y="198.11368507099832" width="21.69230769230769" height="299.8863149290016" fill="orange" data-tooltip="1.24x baseline speed (YJIT)"/>
<line x1="834.5384615384614" y1="186.04547648404127" x2="856.2307692307692" y2="186.04547648404127" stroke="#000"/>
<line x1="834.5384615384614" y1="210.18189365795536" x2="856.2307692307692" y2="210.18189365795536" stroke="#000"/>
<line x1="845.3846153846152" y1="186.04547648404127" x2="845.3846153846152" y2="210.18189365795536" stroke="#000"/>
<line x1="845.3846153846152" y1="498.0" x2="845.3846153846152" y2="502.79999999999995" stroke="#000"/>
<text x="845.3846153846152" y="512.4" fill="#111" font-size="small" font-family="monospace" font-weight="bold" text-anchor="end" transform="rotate(-60, 845.3846153846152, 512.4)">
ruby-lsp
</text>
<rect x="877.9230769230768" y="256.48494986997105" width="21.69230769230769" height="241.5150501300289" fill="#7070f8" data-tooltip="1.00x baseline speed (No JIT)"/>
<line x1="877.9230769230768" y1="253.9037694071196" x2="899.6153846153845" y2="253.9037694071196" stroke="#000"/>
<line x1="877.9230769230768" y1="259.06613033282247" x2="899.6153846153845" y2="259.06613033282247" stroke="#000"/>
<line x1="888.7692307692306" y1="253.9037694071196" x2="888.7692307692306" y2="259.06613033282247" stroke="#000"/>
<rect x="899.6153846153845" y="217.67516402317224" width="21.69230769230769" height="280.32483597682767" fill="orange" data-tooltip="1.16x baseline speed (YJIT)"/>
<line x1="899.6153846153845" y1="212.69817310540157" x2="921.3076923076922" y2="212.69817310540157" stroke="#000"/>
<line x1="899.6153846153845" y1="222.65215494094295" x2="921.3076923076922" y2="222.65215494094295" stroke="#000"/>
<line x1="910.4615384615383" y1="212.69817310540157" x2="910.4615384615383" y2="222.65215494094295" stroke="#000"/>
<line x1="910.4615384615383" y1="498.0" x2="910.4615384615383" y2="502.79999999999995" stroke="#000"/>
<text x="910.4615384615383" y="512.4" fill="#111" font-size="small" font-family="monospace" font-weight="bold" text-anchor="end" transform="rotate(-60, 910.4615384615383, 512.4)">
sequel
</text>
</svg>