<svg viewBox="0 0 1000 600" xmlns="http://www.w3.org/2000/svg" xmlns:xlink="http://www.w3.org/1999/xlink" width="100%" height="100%">

<rect x="50.0" y="30.0" width="940.0" height="467.99999999999994" stroke="#000" fill="#fff"/>
<line x1="42.0" y1="497.9999999999999" x2="50.0" y2="497.9999999999999" stroke="#000"/>
<text x="26.000000000000004" y="497.9999999999999" text-anchor="end" font-weight="bold" font-size="small" fill="#111">
0.0
</text>
<line x1="42.0" y1="448.0101828681424" x2="50.0" y2="448.0101828681424" stroke="#000"/>
<text x="26.000000000000004" y="448.0101828681424" text-anchor="end" font-weight="bold" font-size="small" fill="#111">
0.2
</text>
<line x1="42.0" y1="398.0203657362849" x2="50.0" y2="398.0203657362849" stroke="#000"/>
<text x="26.000000000000004" y="398.0203657362849" text-anchor="end" font-weight="bold" font-size="small" fill="#111">
0.4
</text>
<line x1="42.0" y1="348.0305486044273" x2="50.0" y2="348.0305486044273" stroke="#000"/>
<text x="26.000000000000004" y="348.0305486044273" text-anchor="end" font-weight="bold" font-size="small" fill="#111">
0.6
</text>
<line x1="42.0" y1="298.04073147256975" x2="50.0" y2="298.04073147256975" stroke="#000"/>
<text x="26.000000000000004" y="298.04073147256975" text-anchor="end" font-weight="bold" font-size="small" fill="#111">
0.8
</text>
<line x1="42.0" y1="248.0509143407122" x2="50.0" y2="248.0509143407122" stroke="#000"/>
<text x="26.000000000000004" y="248.0509143407122" text-anchor="end" font-weight="bold" font-size="small" fill="#111">
1.0
</text>
<line x1="42.0" y1="198.06109720885468" x2="50.0" y2="198.06109720885468" stroke="#000"/>
<text x="26.000000000000004" y="198.06109720885468" text-anchor="end" font-weight="bold" font-size="small" fill="#111">
1.2
</text>
<line x1="42.0" y1="148.07128007699708" x2="50.0" y2="148.07128007699708" stroke="#000"/>
<text x="26.000000000000004" y="148.07128007699708" text-anchor="end" font-weight="bold" font-size="small" fill="#111">
1.4
</text>
<line x1="142.75" y1="54.60000000000001" x2="262.75" y2="54.60000000000001" stroke="#648FFF" stroke-width="2"/>
<text x="202.75" y="49.500000000000014" font-size="small" text-anchor="middle" font-weight="bold" fill="#000">
CRuby 3.3.4
</text>
<rect x="354.25" y="35.400000000000006" width="120.0" height="19.2" fill="#785EF0" stroke="none"/>
<text x="414.25" y="49.500000000000014" font-size="small" text-anchor="middle" font-weight="bold" fill="#fff" style="text-shadow: 0 0 1px #000;">
CRuby 3.4.0dev
</text>
<rect x="565.75" y="35.400000000000006" width="120.0" height="19.2" fill="#FFB000" stroke="none"/>
<text x="625.7499999999999" y="49.500000000000014" font-size="small" text-anchor="middle" font-weight="bold" fill="#fff" style="text-shadow: 0 0 1px #000;">
YJIT 3.3.4
</text>
<rect x="777.25" y="35.400000000000006" width="120.0" height="19.2" fill="#DC267F" stroke="none"/>
<text x="837.2499999999999" y="49.500000000000014" font-size="small" text-anchor="middle" font-weight="bold" fill="#fff" style="text-shadow: 0 0 1px #000;">
YJIT 3.4.0dev
</text>
<rect x="61.05882352941176" y="244.49689524744588" width="11.058823529411763" height="253.50310475255407" fill="#785EF0" data-tooltip="1.01x baseline (CRuby 3.4.0dev)"/>
<rect x="72.11764705882352" y="266.53181362569705" width="11.058823529411763" height="231.46818637430286" fill="#FFB000" data-tooltip="0.93x baseline (YJIT 3.3.4)"/>
<rect x="83.17647058823528" y="240.23207233552623" width="11.058823529411763" height="257.76792766447375" fill="#DC267F" data-tooltip="1.03x baseline (YJIT 3.4.0dev)"/>
<line x1="77.6470588235294" y1="498.0" x2="77.6470588235294" y2="502.79999999999995" stroke="#000"/>
<text x="77.6470588235294" y="512.4" fill="#111" font-size="small" text-anchor="end" transform="rotate(-60, 77.6470588235294, 512.4)">
binarytrees
</text>
<rect x="105.2941176470588" y="228.7961155907961" width="11.058823529411763" height="269.20388440920385" fill="#785EF0" data-tooltip="1.08x baseline (CRuby 3.4.0dev)"/>
<rect x="116.35294117647057" y="242.45612376054785" width="11.058823529411763" height="255.5438762394521" fill="#FFB000" data-tooltip="1.02x baseline (YJIT 3.3.4)"/>
<rect x="127.41176470588233" y="220.7308980012086" width="11.058823529411763" height="277.26910199879137" fill="#DC267F" data-tooltip="1.11x baseline (YJIT 3.4.0dev)"/>
<line x1="121.88235294117644" y1="498.0" x2="121.88235294117644" y2="502.79999999999995" stroke="#000"/>
<text x="121.88235294117644" y="512.4" fill="#111" font-size="small" text-anchor="end" transform="rotate(-60, 121.88235294117644, 512.4)">
blurhash
</text>
<rect x="149.52941176470586" y="224.5302235161218" width="11.058823529411763" height="273.46977648387815" fill="#785EF0" data-tooltip="1.09x baseline (CRuby 3.4.0dev)"/>
<rect x="160.58823529411762" y="229.39657334189917" width="11.058823529411763" height="268.6034266581008" fill="#FFB000" data-tooltip="1.07x baseline (YJIT 3.3.4)"/>
<rect x="171.64705882352936" y="209.31095298256335" width="11.058823529411763" height="288.68904701743656" fill="#DC267F" data-tooltip="1.15x baseline (YJIT 3.4.0dev)"/>
<line x1="166.11764705882348" y1="498.0" x2="166.11764705882348" y2="502.79999999999995" stroke="#000"/>
<text x="166.11764705882348" y="512.4" fill="#111" font-size="small" text-anchor="end" transform="rotate(-60, 166.11764705882348, 512.4)">
erubi
</text>
<rect x="193.7647058823529" y="222.17626779213165" width="11.058823529411763" height="275.82373220786826" fill="#785EF0" data-tooltip="1.10x baseline (CRuby 3.4.0dev)"/>
<rect x="204.82352941176467" y="238.99478804870904" width="11.058823529411763" height="259.0052119512909" fill="#FFB000" data-tooltip="1.04x baseline (YJIT 3.3.4)"/>
<rect x="215.8823529411764" y="216.0957258532152" width="11.058823529411763" height="281.9042741467847" fill="#DC267F" data-tooltip="1.13x baseline (YJIT 3.4.0dev)"/>
<line x1="210.35294117647052" y1="498.0" x2="210.35294117647052" y2="502.79999999999995" stroke="#000"/>
<text x="210.35294117647052" y="512.4" fill="#111" font-size="small" text-anchor="end" transform="rotate(-60, 210.35294117647052, 512.4)">
etanni
</text>
<rect x="237.99999999999994" y="221.979127627952" width="11.058823529411763" height="276.02087237204796" fill="#785EF0" data-tooltip="1.10x baseline (CRuby 3.4.0dev)"/>
<rect x="249.05882352941168" y="243.11184915599674" width="11.058823529411763" height="254.8881508440032" fill="#FFB000" data-tooltip="1.02x baseline (YJIT 3.3.4)"/>
<rect x="260.1176470588235" y="214.53004571002052" width="11.058823529411763" height="283.4699542899794" fill="#DC267F" data-tooltip="1.13x baseline (YJIT 3.4.0dev)"/>
<line x1="254.58823529411757" y1="498.0" x2="254.58823529411757" y2="502.79999999999995" stroke="#000"/>
<text x="254.58823529411757" y="512.4" fill="#111" font-size="small" text-anchor="end" transform="rotate(-60, 254.58823529411757, 512.4)">
fannkuchredux
</text>
<rect x="282.235294117647" y="245.90981250277258" width="11.058823529411763" height="252.09018749722736" fill="#785EF0" data-tooltip="1.01x baseline (CRuby 3.4.0dev)"/>
<rect x="293.29411764705884" y="232.11705708497522" width="11.058823529411763" height="265.8829429150247" fill="#FFB000" data-tooltip="1.06x baseline (YJIT 3.3.4)"/>
<rect x="304.3529411764706" y="224.17631930527716" width="11.058823529411763" height="273.8236806947228" fill="#DC267F" data-tooltip="1.10x baseline (YJIT 3.4.0dev)"/>
<line x1="298.8235294117647" y1="498.0" x2="298.8235294117647" y2="502.79999999999995" stroke="#000"/>
<text x="298.8235294117647" y="512.4" fill="#111" font-size="small" text-anchor="end" transform="rotate(-60, 298.8235294117647, 512.4)">
fluentd
</text>
<rect x="326.4705882352942" y="237.52380040873322" width="11.058823529411763" height="260.4761995912667" fill="#785EF0" data-tooltip="1.04x baseline (CRuby 3.4.0dev)"/>
<rect x="337.52941176470597" y="222.12129742861066" width="11.058823529411763" height="275.8787025713893" fill="#FFB000" data-tooltip="1.10x baseline (YJIT 3.3.4)"/>
<rect x="348.58823529411774" y="214.1405650377003" width="11.058823529411763" height="283.85943496229964" fill="#DC267F" data-tooltip="1.14x baseline (YJIT 3.4.0dev)"/>
<line x1="343.0588235294119" y1="498.0" x2="343.0588235294119" y2="502.79999999999995" stroke="#000"/>
<text x="343.0588235294119" y="512.4" fill="#111" font-size="small" text-anchor="end" transform="rotate(-60, 343.0588235294119, 512.4)">
graphql
</text>
<rect x="370.70588235294133" y="216.6413213846457" width="11.058823529411763" height="281.3586786153543" fill="#785EF0" data-tooltip="1.13x baseline (CRuby 3.4.0dev)"/>
<rect x="381.7647058823531" y="206.68388646531426" width="11.058823529411763" height="291.31611353468566" fill="#FFB000" data-tooltip="1.17x baseline (YJIT 3.3.4)"/>
<rect x="392.8235294117649" y="185.33654353299323" width="11.058823529411763" height="312.66345646700677" fill="#DC267F" data-tooltip="1.25x baseline (YJIT 3.4.0dev)"/>
<line x1="387.294117647059" y1="498.0" x2="387.294117647059" y2="502.79999999999995" stroke="#000"/>
<text x="387.294117647059" y="512.4" fill="#111" font-size="small" text-anchor="end" transform="rotate(-60, 387.294117647059, 512.4)">
graphql-native
</text>
<rect x="414.94117647058846" y="178.1668199479556" width="11.058823529411763" height="319.8331800520443" fill="#785EF0" data-tooltip="1.28x baseline (CRuby 3.4.0dev)"/>
<rect x="426.0000000000003" y="166.77662014757777" width="11.058823529411763" height="331.22337985242217" fill="#FFB000" data-tooltip="1.33x baseline (YJIT 3.3.4)"/>
<rect x="437.05882352941205" y="158.15455655366623" width="11.058823529411763" height="339.8454434463338" fill="#DC267F" data-tooltip="1.36x baseline (YJIT 3.4.0dev)"/>
<line x1="431.52941176470614" y1="498.0" x2="431.52941176470614" y2="502.79999999999995" stroke="#000"/>
<text x="431.52941176470614" y="512.4" fill="#111" font-size="small" text-anchor="end" transform="rotate(-60, 431.52941176470614, 512.4)">
lee
</text>
<rect x="459.17647058823565" y="181.62648589434173" width="11.058823529411763" height="316.3735141056582" fill="#785EF0" data-tooltip="1.27x baseline (CRuby 3.4.0dev)"/>
<rect x="470.2352941176474" y="244.13791164678057" width="11.058823529411763" height="253.86208835321938" fill="#FFB000" data-tooltip="1.02x baseline (YJIT 3.3.4)"/>
<rect x="481.2941176470592" y="175.73282751582744" width="11.058823529411763" height="322.26717248417253" fill="#DC267F" data-tooltip="1.29x baseline (YJIT 3.4.0dev)"/>
<line x1="475.7647058823533" y1="498.0" x2="475.7647058823533" y2="502.79999999999995" stroke="#000"/>
<text x="475.7647058823533" y="512.4" fill="#111" font-size="small" text-anchor="end" transform="rotate(-60, 475.7647058823533, 512.4)">
matmul
</text>
<rect x="503.4117647058828" y="222.24710905743942" width="11.058823529411763" height="275.7528909425605" fill="#785EF0" data-tooltip="1.10x baseline (CRuby 3.4.0dev)"/>
<rect x="514.4705882352946" y="241.82240961716354" width="11.058823529411763" height="256.1775903828364" fill="#FFB000" data-tooltip="1.02x baseline (YJIT 3.3.4)"/>
<rect x="525.5294117647063" y="213.9154728687965" width="11.058823529411763" height="284.08452713120346" fill="#DC267F" data-tooltip="1.14x baseline (YJIT 3.4.0dev)"/>
<line x1="520.0000000000005" y1="498.0" x2="520.0000000000005" y2="502.79999999999995" stroke="#000"/>
<text x="520.0000000000005" y="512.4" fill="#111" font-size="small" text-anchor="end" transform="rotate(-60, 520.0000000000005, 512.4)">
nbody
</text>
<rect x="547.64705882353" y="219.0817195468675" width="11.058823529411763" height="278.9182804531324" fill="#785EF0" data-tooltip="1.12x baseline (CRuby 3.4.0dev)"/>
<rect x="558.7058823529417" y="243.34242262490827" width="11.058823529411763" height="254.6575773750917" fill="#FFB000" data-tooltip="1.02x baseline (YJIT 3.3.4)"/>
<rect x="569.7647058823535" y="192.42686813875704" width="11.058823529411763" height="305.57313186124287" fill="#DC267F" data-tooltip="1.22x baseline (YJIT 3.4.0dev)"/>
<line x1="564.2352941176476" y1="498.0" x2="564.2352941176476" y2="502.79999999999995" stroke="#000"/>
<text x="564.2352941176476" y="512.4" fill="#111" font-size="small" text-anchor="end" transform="rotate(-60, 564.2352941176476, 512.4)">
nqueens
</text>
<rect x="591.882352941177" y="235.69893887984247" width="11.058823529411763" height="262.30106112015744" fill="#785EF0" data-tooltip="1.05x baseline (CRuby 3.4.0dev)"/>
<rect x="602.9411764705889" y="237.30927049548174" width="11.058823529411763" height="260.6907295045182" fill="#FFB000" data-tooltip="1.04x baseline (YJIT 3.3.4)"/>
<rect x="614.0000000000007" y="221.07785977875375" width="11.058823529411763" height="276.9221402212462" fill="#DC267F" data-tooltip="1.11x baseline (YJIT 3.4.0dev)"/>
<line x1="608.4705882352947" y1="498.0" x2="608.4705882352947" y2="502.79999999999995" stroke="#000"/>
<text x="608.4705882352947" y="512.4" fill="#111" font-size="small" text-anchor="end" transform="rotate(-60, 608.4705882352947, 512.4)">
optcarrot
</text>
<rect x="636.1176470588242" y="193.27582660980133" width="11.058823529411763" height="304.7241733901986" fill="#785EF0" data-tooltip="1.22x baseline (CRuby 3.4.0dev)"/>
<rect x="647.176470588236" y="184.0769569145339" width="11.058823529411763" height="313.923043085466" fill="#FFB000" data-tooltip="1.26x baseline (YJIT 3.3.4)"/>
<rect x="658.2352941176478" y="163.1239759419802" width="11.058823529411763" height="334.8760240580197" fill="#DC267F" data-tooltip="1.34x baseline (YJIT 3.4.0dev)"/>
<line x1="652.7058823529419" y1="498.0" x2="652.7058823529419" y2="502.79999999999995" stroke="#000"/>
<text x="652.7058823529419" y="512.4" fill="#111" font-size="small" text-anchor="end" transform="rotate(-60, 652.7058823529419, 512.4)">
protoboeuf
</text>
<rect x="680.3529411764714" y="276.0853705486044" width="11.058823529411763" height="221.91462945139557" fill="#785EF0" data-tooltip="0.89x baseline (CRuby 3.4.0dev)"/>
<rect x="691.4117647058831" y="225.37661212704518" width="11.058823529411763" height="272.62338787295477" fill="#FFB000" data-tooltip="1.09x baseline (YJIT 3.3.4)"/>
<rect x="702.4705882352949" y="100.19999999999999" width="11.058823529411763" height="397.79999999999995" fill="#DC267F" data-tooltip="1.59x baseline (YJIT 3.4.0dev)"/>
<line x1="696.9411764705891" y1="498.0" x2="696.9411764705891" y2="502.79999999999995" stroke="#000"/>
<text x="696.9411764705891" y="512.4" fill="#111" font-size="small" text-anchor="end" transform="rotate(-60, 696.9411764705891, 512.4)">
protoboeuf-encode
</text>
<rect x="724.5882352941185" y="232.19416162905117" width="11.058823529411763" height="265.8058383709488" fill="#785EF0" data-tooltip="1.06x baseline (CRuby 3.4.0dev)"/>
<rect x="735.6470588235303" y="224.20097565723302" width="11.058823529411763" height="273.7990243427669" fill="#FFB000" data-tooltip="1.10x baseline (YJIT 3.3.4)"/>
<rect x="746.7058823529421" y="210.33171783586204" width="11.058823529411763" height="287.6682821641379" fill="#DC267F" data-tooltip="1.15x baseline (YJIT 3.4.0dev)"/>
<line x1="741.1764705882363" y1="498.0" x2="741.1764705882363" y2="502.79999999999995" stroke="#000"/>
<text x="741.1764705882363" y="512.4" fill="#111" font-size="small" text-anchor="end" transform="rotate(-60, 741.1764705882363, 512.4)">
rack
</text>
<rect x="768.8235294117657" y="223.20749006912237" width="11.058823529411763" height="274.7925099308776" fill="#785EF0" data-tooltip="1.10x baseline (CRuby 3.4.0dev)"/>
<rect x="779.8823529411775" y="242.3702533030011" width="11.058823529411763" height="255.62974669699884" fill="#FFB000" data-tooltip="1.02x baseline (YJIT 3.3.4)"/>
<rect x="790.9411764705893" y="217.60257117858077" width="11.058823529411763" height="280.39742882141917" fill="#DC267F" data-tooltip="1.12x baseline (YJIT 3.4.0dev)"/>
<line x1="785.4117647058833" y1="498.0" x2="785.4117647058833" y2="502.79999999999995" stroke="#000"/>
<text x="785.4117647058833" y="512.4" fill="#111" font-size="small" text-anchor="end" transform="rotate(-60, 785.4117647058833, 512.4)">
ruby-json
</text>
<rect x="813.0588235294128" y="236.38295922247073" width="11.058823529411763" height="261.61704077752916" fill="#785EF0" data-tooltip="1.05x baseline (CRuby 3.4.0dev)"/>
<rect x="824.1176470588247" y="251.64874204312494" width="11.058823529411763" height="246.351257956875" fill="#FFB000" data-tooltip="0.99x baseline (YJIT 3.3.4)"/>
<rect x="835.1764705882364" y="232.66020694705756" width="11.058823529411763" height="265.3397930529424" fill="#DC267F" data-tooltip="1.06x baseline (YJIT 3.4.0dev)"/>
<line x1="829.6470588235305" y1="498.0" x2="829.6470588235305" y2="502.79999999999995" stroke="#000"/>
<text x="829.6470588235305" y="512.4" fill="#111" font-size="small" text-anchor="end" transform="rotate(-60, 829.6470588235305, 512.4)">
rubykon
</text>
<rect x="857.29411764706" y="217.20377147222771" width="11.058823529411763" height="280.7962285277722" fill="#785EF0" data-tooltip="1.12x baseline (CRuby 3.4.0dev)"/>
<rect x="868.3529411764717" y="241.15193894339046" width="11.058823529411763" height="256.8480610566095" fill="#FFB000" data-tooltip="1.03x baseline (YJIT 3.3.4)"/>
<rect x="879.4117647058836" y="209.74970610040887" width="11.058823529411763" height="288.25029389959104" fill="#DC267F" data-tooltip="1.15x baseline (YJIT 3.4.0dev)"/>
<line x1="873.8823529411777" y1="498.0" x2="873.8823529411777" y2="502.79999999999995" stroke="#000"/>
<text x="873.8823529411777" y="512.4" fill="#111" font-size="small" text-anchor="end" transform="rotate(-60, 873.8823529411777, 512.4)">
sudoku
</text>
<rect x="901.5294117647071" y="214.38879707759855" width="11.058823529411763" height="283.6112029224014" fill="#785EF0" data-tooltip="1.13x baseline (CRuby 3.4.0dev)"/>
<rect x="912.5882352941189" y="222.67324338222772" width="11.058823529411763" height="275.3267566177722" fill="#FFB000" data-tooltip="1.10x baseline (YJIT 3.3.4)"/>
<rect x="923.6470588235308" y="200.54643110024338" width="11.058823529411763" height="297.4535688997566" fill="#DC267F" data-tooltip="1.19x baseline (YJIT 3.4.0dev)"/>
<line x1="918.1176470588248" y1="498.0" x2="918.1176470588248" y2="502.79999999999995" stroke="#000"/>
<text x="918.1176470588248" y="512.4" fill="#111" font-size="small" text-anchor="end" transform="rotate(-60, 918.1176470588248, 512.4)">
tinygql
</text>
<rect x="945.7647058823543" y="224.42602975225233" width="11.058823529411763" height="273.57397024774764" fill="#785EF0" data-tooltip="1.09x baseline (CRuby 3.4.0dev)"/>
<rect x="956.8235294117661" y="231.18051315915255" width="11.058823529411763" height="266.81948684084745" fill="#FFB000" data-tooltip="1.07x baseline (YJIT 3.3.4)"/>
<rect x="967.8823529411778" y="202.48995591807684" width="11.058823529411763" height="295.5100440819231" fill="#DC267F" data-tooltip="1.18x baseline (YJIT 3.4.0dev)"/>
<line x1="962.352941176472" y1="498.0" x2="962.352941176472" y2="502.79999999999995" stroke="#000"/>
<text x="962.352941176472" y="512.4" fill="#111" font-size="small" text-anchor="end" transform="rotate(-60, 962.352941176472, 512.4)" font-style="italic">
geomean*
</text>
<line x1="50.0" y1="248.0509143407122" x2="990.0" y2="248.0509143407122" stroke="#648FFF" stroke-width="2"/>
<rect x="62.88382352941177" y="230.33689524744585" width="17.85" height="7.2" transform="rotate(-60, 68.58823529411764, 236.99689524744585)" fill="#fffa"/>
<text x="63.05882352941176" y="236.99689524744585" fill="#111" font-size="0.5em" text-anchor="start" textLength="17.5" transform="rotate(-60, 68.58823529411764, 236.99689524744585)" style="text-shadow: 0 0 1px #fff;">
1.01
</text>
<rect x="73.94264705882352" y="252.3718136256971" width="17.85" height="7.2" transform="rotate(-60, 79.6470588235294, 259.03181362569705)" fill="#fffa"/>
<text x="74.11764705882352" y="259.03181362569705" fill="#111" font-size="0.5em" text-anchor="start" textLength="17.5" transform="rotate(-60, 79.6470588235294, 259.03181362569705)" style="text-shadow: 0 0 1px #fff;">
0.93
</text>
<rect x="85.00147058823529" y="226.07207233552623" width="17.85" height="7.2" transform="rotate(-60, 90.70588235294116, 232.73207233552623)" fill="#fffa"/>
<text x="85.17647058823529" y="232.73207233552623" fill="#111" font-size="0.5em" text-anchor="start" textLength="17.5" transform="rotate(-60, 90.70588235294116, 232.73207233552623)" style="text-shadow: 0 0 1px #fff;">
1.03
</text>
<rect x="107.11911764705881" y="214.6361155907961" width="17.85" height="7.2" transform="rotate(-60, 112.82352941176468, 221.2961155907961)" fill="#fffa"/>
<text x="107.2941176470588" y="221.2961155907961" fill="#111" font-size="0.5em" text-anchor="start" textLength="17.5" transform="rotate(-60, 112.82352941176468, 221.2961155907961)" style="text-shadow: 0 0 1px #fff;">
1.08
</text>
<rect x="118.17794117647057" y="228.29612376054786" width="17.85" height="7.2" transform="rotate(-60, 123.88235294117645, 234.95612376054785)" fill="#fffa"/>
<text x="118.35294117647057" y="234.95612376054785" fill="#111" font-size="0.5em" text-anchor="start" textLength="17.5" transform="rotate(-60, 123.88235294117645, 234.95612376054785)" style="text-shadow: 0 0 1px #fff;">
1.02
</text>
<rect x="129.23676470588234" y="206.5708980012086" width="17.85" height="7.2" transform="rotate(-60, 134.94117647058823, 213.2308980012086)" fill="#fffa"/>
<text x="129.41176470588235" y="213.2308980012086" fill="#111" font-size="0.5em" text-anchor="start" textLength="17.5" transform="rotate(-60, 134.94117647058823, 213.2308980012086)" style="text-shadow: 0 0 1px #fff;">
1.11
</text>
<rect x="151.35441176470584" y="210.3702235161218" width="17.85" height="7.2" transform="rotate(-60, 157.05882352941174, 217.0302235161218)" fill="#fffa"/>
<text x="151.52941176470586" y="217.0302235161218" fill="#111" font-size="0.5em" text-anchor="start" textLength="17.5" transform="rotate(-60, 157.05882352941174, 217.0302235161218)" style="text-shadow: 0 0 1px #fff;">
1.09
</text>
<rect x="162.4132352941176" y="215.23657334189917" width="17.85" height="7.2" transform="rotate(-60, 168.1176470588235, 221.89657334189917)" fill="#fffa"/>
<text x="162.58823529411762" y="221.89657334189917" fill="#111" font-size="0.5em" text-anchor="start" textLength="17.5" transform="rotate(-60, 168.1176470588235, 221.89657334189917)" style="text-shadow: 0 0 1px #fff;">
1.07
</text>
<rect x="173.47205882352938" y="195.15095298256335" width="17.85" height="7.2" transform="rotate(-60, 179.17647058823528, 201.81095298256335)" fill="#fffa"/>
<text x="173.64705882352936" y="201.81095298256335" fill="#111" font-size="0.5em" text-anchor="start" textLength="17.5" transform="rotate(-60, 179.17647058823528, 201.81095298256335)" style="text-shadow: 0 0 1px #fff;">
1.15
</text>
<rect x="195.5897058823529" y="208.01626779213166" width="17.85" height="7.2" transform="rotate(-60, 201.29411764705878, 214.67626779213165)" fill="#fffa"/>
<text x="195.7647058823529" y="214.67626779213165" fill="#111" font-size="0.5em" text-anchor="start" textLength="17.5" transform="rotate(-60, 201.29411764705878, 214.67626779213165)" style="text-shadow: 0 0 1px #fff;">
1.10
</text>
<rect x="206.64852941176466" y="224.83478804870904" width="17.85" height="7.2" transform="rotate(-60, 212.35294117647055, 231.49478804870904)" fill="#fffa"/>
<text x="206.82352941176467" y="231.49478804870904" fill="#111" font-size="0.5em" text-anchor="start" textLength="17.5" transform="rotate(-60, 212.35294117647055, 231.49478804870904)" style="text-shadow: 0 0 1px #fff;">
1.04
</text>
<rect x="217.7073529411764" y="201.93572585321522" width="17.85" height="7.2" transform="rotate(-60, 223.41176470588232, 208.5957258532152)" fill="#fffa"/>
<text x="217.8823529411764" y="208.5957258532152" fill="#111" font-size="0.5em" text-anchor="start" textLength="17.5" transform="rotate(-60, 223.41176470588232, 208.5957258532152)" style="text-shadow: 0 0 1px #fff;">
1.13
</text>
<rect x="239.82499999999993" y="207.81912762795199" width="17.85" height="7.2" transform="rotate(-60, 245.52941176470583, 214.47912762795198)" fill="#fffa"/>
<text x="239.99999999999994" y="214.47912762795198" fill="#111" font-size="0.5em" text-anchor="start" textLength="17.5" transform="rotate(-60, 245.52941176470583, 214.47912762795198)" style="text-shadow: 0 0 1px #fff;">
1.10
</text>
<rect x="250.8838235294117" y="228.9518491559967" width="17.85" height="7.2" transform="rotate(-60, 256.58823529411757, 235.6118491559967)" fill="#fffa"/>
<text x="251.05882352941165" y="235.6118491559967" fill="#111" font-size="0.5em" text-anchor="start" textLength="17.5" transform="rotate(-60, 256.58823529411757, 235.6118491559967)" style="text-shadow: 0 0 1px #fff;">
1.02
</text>
<rect x="261.94264705882347" y="200.37004571002052" width="17.85" height="7.2" transform="rotate(-60, 267.64705882352933, 207.03004571002052)" fill="#fffa"/>
<text x="262.1176470588235" y="207.03004571002052" fill="#111" font-size="0.5em" text-anchor="start" textLength="17.5" transform="rotate(-60, 267.64705882352933, 207.03004571002052)" style="text-shadow: 0 0 1px #fff;">
1.13
</text>
<rect x="284.06029411764706" y="231.74981250277258" width="17.85" height="7.2" transform="rotate(-60, 289.7647058823529, 238.40981250277258)" fill="#fffa"/>
<text x="284.235294117647" y="238.40981250277258" fill="#111" font-size="0.5em" text-anchor="start" textLength="17.5" transform="rotate(-60, 289.7647058823529, 238.40981250277258)" style="text-shadow: 0 0 1px #fff;">
1.01
</text>
<rect x="295.11911764705883" y="217.9570570849752" width="17.85" height="7.2" transform="rotate(-60, 300.8235294117647, 224.61705708497522)" fill="#fffa"/>
<text x="295.29411764705884" y="224.61705708497522" fill="#111" font-size="0.5em" text-anchor="start" textLength="17.5" transform="rotate(-60, 300.8235294117647, 224.61705708497522)" style="text-shadow: 0 0 1px #fff;">
1.06
</text>
<rect x="306.1779411764706" y="210.01631930527714" width="17.85" height="7.2" transform="rotate(-60, 311.8823529411765, 216.67631930527713)" fill="#fffa"/>
<text x="306.3529411764706" y="216.67631930527713" fill="#111" font-size="0.5em" text-anchor="start" textLength="17.5" transform="rotate(-60, 311.8823529411765, 216.67631930527713)" style="text-shadow: 0 0 1px #fff;">
1.10
</text>
<rect x="328.2955882352942" y="223.36380040873323" width="17.85" height="7.2" transform="rotate(-60, 334.00000000000006, 230.02380040873322)" fill="#fffa"/>
<text x="328.4705882352942" y="230.02380040873322" fill="#111" font-size="0.5em" text-anchor="start" textLength="17.5" transform="rotate(-60, 334.00000000000006, 230.02380040873322)" style="text-shadow: 0 0 1px #fff;">
1.04
</text>
<rect x="339.354411764706" y="207.96129742861066" width="17.85" height="7.2" transform="rotate(-60, 345.0588235294119, 214.62129742861066)" fill="#fffa"/>
<text x="339.52941176470597" y="214.62129742861066" fill="#111" font-size="0.5em" text-anchor="start" textLength="17.5" transform="rotate(-60, 345.0588235294119, 214.62129742861066)" style="text-shadow: 0 0 1px #fff;">
1.10
</text>
<rect x="350.4132352941178" y="199.98056503770027" width="17.85" height="7.2" transform="rotate(-60, 356.11764705882365, 206.6405650377003)" fill="#fffa"/>
<text x="350.58823529411774" y="206.6405650377003" fill="#111" font-size="0.5em" text-anchor="start" textLength="17.5" transform="rotate(-60, 356.11764705882365, 206.6405650377003)" style="text-shadow: 0 0 1px #fff;">
1.14
</text>
<rect x="372.5308823529414" y="202.4813213846457" width="17.85" height="7.2" transform="rotate(-60, 378.23529411764724, 209.1413213846457)" fill="#fffa"/>
<text x="372.70588235294133" y="209.1413213846457" fill="#111" font-size="0.5em" text-anchor="start" textLength="17.5" transform="rotate(-60, 378.23529411764724, 209.1413213846457)" style="text-shadow: 0 0 1px #fff;">
1.13
</text>
<rect x="383.58970588235314" y="192.52388646531426" width="17.85" height="7.2" transform="rotate(-60, 389.294117647059, 199.18388646531426)" fill="#fffa"/>
<text x="383.7647058823531" y="199.18388646531426" fill="#111" font-size="0.5em" text-anchor="start" textLength="17.5" transform="rotate(-60, 389.294117647059, 199.18388646531426)" style="text-shadow: 0 0 1px #fff;">
1.17
</text>
<rect x="394.6485294117649" y="171.1765435329932" width="17.85" height="7.2" transform="rotate(-60, 400.3529411764708, 177.83654353299323)" fill="#fffa"/>
<text x="394.8235294117649" y="177.83654353299323" fill="#111" font-size="0.5em" text-anchor="start" textLength="17.5" transform="rotate(-60, 400.3529411764708, 177.83654353299323)" style="text-shadow: 0 0 1px #fff;">
1.25
</text>
<rect x="416.7661764705885" y="164.0068199479556" width="17.85" height="7.2" transform="rotate(-60, 422.4705882352944, 170.6668199479556)" fill="#fffa"/>
<text x="416.94117647058846" y="170.6668199479556" fill="#111" font-size="0.5em" text-anchor="start" textLength="17.5" transform="rotate(-60, 422.4705882352944, 170.6668199479556)" style="text-shadow: 0 0 1px #fff;">
1.28
</text>
<rect x="427.8250000000003" y="152.61662014757778" width="17.85" height="7.2" transform="rotate(-60, 433.52941176470614, 159.27662014757777)" fill="#fffa"/>
<text x="428.0000000000003" y="159.27662014757777" fill="#111" font-size="0.5em" text-anchor="start" textLength="17.5" transform="rotate(-60, 433.52941176470614, 159.27662014757777)" style="text-shadow: 0 0 1px #fff;">
1.33
</text>
<rect x="438.8838235294121" y="143.9945565536662" width="17.85" height="7.2" transform="rotate(-60, 444.58823529411796, 150.6545565536662)" fill="#fffa"/>
<text x="439.05882352941205" y="150.6545565536662" fill="#111" font-size="0.5em" text-anchor="start" textLength="17.5" transform="rotate(-60, 444.58823529411796, 150.6545565536662)" style="text-shadow: 0 0 1px #fff;">
1.36
</text>
<rect x="461.00147058823563" y="167.4664858943417" width="17.85" height="7.2" transform="rotate(-60, 466.7058823529415, 174.1264858943417)" fill="#fffa"/>
<text x="461.17647058823565" y="174.1264858943417" fill="#111" font-size="0.5em" text-anchor="start" textLength="17.5" transform="rotate(-60, 466.7058823529415, 174.1264858943417)" style="text-shadow: 0 0 1px #fff;">
1.27
</text>
<rect x="472.06029411764746" y="229.97791164678057" width="17.85" height="7.2" transform="rotate(-60, 477.7647058823533, 236.63791164678057)" fill="#fffa"/>
<text x="472.2352941176474" y="236.63791164678057" fill="#111" font-size="0.5em" text-anchor="start" textLength="17.5" transform="rotate(-60, 477.7647058823533, 236.63791164678057)" style="text-shadow: 0 0 1px #fff;">
1.02
</text>
<rect x="483.1191176470592" y="161.57282751582744" width="17.85" height="7.2" transform="rotate(-60, 488.8235294117651, 168.23282751582744)" fill="#fffa"/>
<text x="483.2941176470592" y="168.23282751582744" fill="#111" font-size="0.5em" text-anchor="start" textLength="17.5" transform="rotate(-60, 488.8235294117651, 168.23282751582744)" style="text-shadow: 0 0 1px #fff;">
1.29
</text>
<rect x="505.23676470588276" y="208.08710905743942" width="17.85" height="7.2" transform="rotate(-60, 510.9411764705887, 214.74710905743942)" fill="#fffa"/>
<text x="505.4117647058828" y="214.74710905743942" fill="#111" font-size="0.5em" text-anchor="start" textLength="17.5" transform="rotate(-60, 510.9411764705887, 214.74710905743942)" style="text-shadow: 0 0 1px #fff;">
1.10
</text>
<rect x="516.2955882352945" y="227.66240961716355" width="17.85" height="7.2" transform="rotate(-60, 522.0000000000005, 234.32240961716354)" fill="#fffa"/>
<text x="516.4705882352946" y="234.32240961716354" fill="#111" font-size="0.5em" text-anchor="start" textLength="17.5" transform="rotate(-60, 522.0000000000005, 234.32240961716354)" style="text-shadow: 0 0 1px #fff;">
1.02
</text>
<rect x="527.3544117647064" y="199.7554728687965" width="17.85" height="7.2" transform="rotate(-60, 533.0588235294123, 206.4154728687965)" fill="#fffa"/>
<text x="527.5294117647063" y="206.4154728687965" fill="#111" font-size="0.5em" text-anchor="start" textLength="17.5" transform="rotate(-60, 533.0588235294123, 206.4154728687965)" style="text-shadow: 0 0 1px #fff;">
1.14
</text>
<rect x="549.4720588235299" y="204.9217195468675" width="17.85" height="7.2" transform="rotate(-60, 555.1764705882358, 211.5817195468675)" fill="#fffa"/>
<text x="549.64705882353" y="211.5817195468675" fill="#111" font-size="0.5em" text-anchor="start" textLength="17.5" transform="rotate(-60, 555.1764705882358, 211.5817195468675)" style="text-shadow: 0 0 1px #fff;">
1.12
</text>
<rect x="560.5308823529417" y="229.18242262490824" width="17.85" height="7.2" transform="rotate(-60, 566.2352941176476, 235.84242262490827)" fill="#fffa"/>
<text x="560.7058823529417" y="235.84242262490827" fill="#111" font-size="0.5em" text-anchor="start" textLength="17.5" transform="rotate(-60, 566.2352941176476, 235.84242262490827)" style="text-shadow: 0 0 1px #fff;">
1.02
</text>
<rect x="571.5897058823534" y="178.26686813875705" width="17.85" height="7.2" transform="rotate(-60, 577.2941176470594, 184.92686813875704)" fill="#fffa"/>
<text x="571.7647058823535" y="184.92686813875704" fill="#111" font-size="0.5em" text-anchor="start" textLength="17.5" transform="rotate(-60, 577.2941176470594, 184.92686813875704)" style="text-shadow: 0 0 1px #fff;">
1.22
</text>
<rect x="593.7073529411771" y="221.53893887984248" width="17.85" height="7.2" transform="rotate(-60, 599.411764705883, 228.19893887984247)" fill="#fffa"/>
<text x="593.882352941177" y="228.19893887984247" fill="#111" font-size="0.5em" text-anchor="start" textLength="17.5" transform="rotate(-60, 599.411764705883, 228.19893887984247)" style="text-shadow: 0 0 1px #fff;">
1.05
</text>
<rect x="604.7661764705888" y="223.14927049548174" width="17.85" height="7.2" transform="rotate(-60, 610.4705882352947, 229.80927049548174)" fill="#fffa"/>
<text x="604.9411764705889" y="229.80927049548174" fill="#111" font-size="0.5em" text-anchor="start" textLength="17.5" transform="rotate(-60, 610.4705882352947, 229.80927049548174)" style="text-shadow: 0 0 1px #fff;">
1.04
</text>
<rect x="615.8250000000006" y="206.91785977875372" width="17.85" height="7.2" transform="rotate(-60, 621.5294117647065, 213.57785977875372)" fill="#fffa"/>
<text x="616.0000000000007" y="213.57785977875372" fill="#111" font-size="0.5em" text-anchor="start" textLength="17.5" transform="rotate(-60, 621.5294117647065, 213.57785977875372)" style="text-shadow: 0 0 1px #fff;">
1.11
</text>
<rect x="637.9426470588242" y="179.11582660980133" width="17.85" height="7.2" transform="rotate(-60, 643.6470588235301, 185.77582660980133)" fill="#fffa"/>
<text x="638.1176470588242" y="185.77582660980133" fill="#111" font-size="0.5em" text-anchor="start" textLength="17.5" transform="rotate(-60, 643.6470588235301, 185.77582660980133)" style="text-shadow: 0 0 1px #fff;">
1.22
</text>
<rect x="649.001470588236" y="169.9169569145339" width="17.85" height="7.2" transform="rotate(-60, 654.7058823529419, 176.5769569145339)" fill="#fffa"/>
<text x="649.176470588236" y="176.5769569145339" fill="#111" font-size="0.5em" text-anchor="start" textLength="17.5" transform="rotate(-60, 654.7058823529419, 176.5769569145339)" style="text-shadow: 0 0 1px #fff;">
1.26
</text>
<rect x="660.0602941176478" y="148.9639759419802" width="17.85" height="7.2" transform="rotate(-60, 665.7647058823537, 155.6239759419802)" fill="#fffa"/>
<text x="660.2352941176478" y="155.6239759419802" fill="#111" font-size="0.5em" text-anchor="start" textLength="17.5" transform="rotate(-60, 665.7647058823537, 155.6239759419802)" style="text-shadow: 0 0 1px #fff;">
1.34
</text>
<rect x="682.1779411764713" y="261.92537054860435" width="17.85" height="7.2" transform="rotate(-60, 687.8823529411773, 268.5853705486044)" fill="#fffa"/>
<text x="682.3529411764714" y="268.5853705486044" fill="#111" font-size="0.5em" text-anchor="start" textLength="17.5" transform="rotate(-60, 687.8823529411773, 268.5853705486044)" style="text-shadow: 0 0 1px #fff;">
0.89
</text>
<rect x="693.2367647058832" y="211.21661212704518" width="17.85" height="7.2" transform="rotate(-60, 698.9411764705891, 217.87661212704518)" fill="#fffa"/>
<text x="693.4117647058831" y="217.87661212704518" fill="#111" font-size="0.5em" text-anchor="start" textLength="17.5" transform="rotate(-60, 698.9411764705891, 217.87661212704518)" style="text-shadow: 0 0 1px #fff;">
1.09
</text>
<rect x="704.2955882352949" y="86.03999999999998" width="17.85" height="7.2" transform="rotate(-60, 710.0000000000009, 92.69999999999999)" fill="#fffa"/>
<text x="704.4705882352949" y="92.69999999999999" fill="#111" font-size="0.5em" text-anchor="start" textLength="17.5" transform="rotate(-60, 710.0000000000009, 92.69999999999999)" style="text-shadow: 0 0 1px #fff;">
1.59
</text>
<rect x="726.4132352941185" y="218.03416162905117" width="17.85" height="7.2" transform="rotate(-60, 732.1176470588244, 224.69416162905117)" fill="#fffa"/>
<text x="726.5882352941186" y="224.69416162905117" fill="#111" font-size="0.5em" text-anchor="start" textLength="17.5" transform="rotate(-60, 732.1176470588244, 224.69416162905117)" style="text-shadow: 0 0 1px #fff;">
1.06
</text>
<rect x="737.4720588235302" y="210.04097565723302" width="17.85" height="7.2" transform="rotate(-60, 743.1764705882363, 216.70097565723302)" fill="#fffa"/>
<text x="737.6470588235303" y="216.70097565723302" fill="#111" font-size="0.5em" text-anchor="start" textLength="17.5" transform="rotate(-60, 743.1764705882363, 216.70097565723302)" style="text-shadow: 0 0 1px #fff;">
1.10
</text>
<rect x="748.5308823529421" y="196.17171783586204" width="17.85" height="7.2" transform="rotate(-60, 754.235294117648, 202.83171783586204)" fill="#fffa"/>
<text x="748.7058823529421" y="202.83171783586204" fill="#111" font-size="0.5em" text-anchor="start" textLength="17.5" transform="rotate(-60, 754.235294117648, 202.83171783586204)" style="text-shadow: 0 0 1px #fff;">
1.15
</text>
<rect x="770.6485294117656" y="209.04749006912235" width="17.85" height="7.2" transform="rotate(-60, 776.3529411764716, 215.70749006912234)" fill="#fffa"/>
<text x="770.8235294117657" y="215.70749006912234" fill="#111" font-size="0.5em" text-anchor="start" textLength="17.5" transform="rotate(-60, 776.3529411764716, 215.70749006912234)" style="text-shadow: 0 0 1px #fff;">
1.10
</text>
<rect x="781.7073529411774" y="228.21025330300108" width="17.85" height="7.2" transform="rotate(-60, 787.4117647058833, 234.87025330300108)" fill="#fffa"/>
<text x="781.8823529411775" y="234.87025330300108" fill="#111" font-size="0.5em" text-anchor="start" textLength="17.5" transform="rotate(-60, 787.4117647058833, 234.87025330300108)" style="text-shadow: 0 0 1px #fff;">
1.02
</text>
<rect x="792.7661764705892" y="203.44257117858075" width="17.85" height="7.2" transform="rotate(-60, 798.4705882352952, 210.10257117858075)" fill="#fffa"/>
<text x="792.9411764705893" y="210.10257117858075" fill="#111" font-size="0.5em" text-anchor="start" textLength="17.5" transform="rotate(-60, 798.4705882352952, 210.10257117858075)" style="text-shadow: 0 0 1px #fff;">
1.12
</text>
<rect x="814.8838235294128" y="222.22295922247073" width="17.85" height="7.2" transform="rotate(-60, 820.5882352941187, 228.88295922247073)" fill="#fffa"/>
<text x="815.0588235294128" y="228.88295922247073" fill="#111" font-size="0.5em" text-anchor="start" textLength="17.5" transform="rotate(-60, 820.5882352941187, 228.88295922247073)" style="text-shadow: 0 0 1px #fff;">
1.05
</text>
<rect x="825.9426470588246" y="237.48874204312492" width="17.85" height="7.2" transform="rotate(-60, 831.6470588235305, 244.1487420431249)" fill="#fffa"/>
<text x="826.1176470588247" y="244.1487420431249" fill="#111" font-size="0.5em" text-anchor="start" textLength="17.5" transform="rotate(-60, 831.6470588235305, 244.1487420431249)" style="text-shadow: 0 0 1px #fff;">
0.99
</text>
<rect x="837.0014705882364" y="218.50020694705753" width="17.85" height="7.2" transform="rotate(-60, 842.7058823529424, 225.16020694705753)" fill="#fffa"/>
<text x="837.1764705882364" y="225.16020694705753" fill="#111" font-size="0.5em" text-anchor="start" textLength="17.5" transform="rotate(-60, 842.7058823529424, 225.16020694705753)" style="text-shadow: 0 0 1px #fff;">
1.06
</text>
<rect x="859.11911764706" y="203.04377147222772" width="17.85" height="7.2" transform="rotate(-60, 864.8235294117659, 209.70377147222771)" fill="#fffa"/>
<text x="859.29411764706" y="209.70377147222771" fill="#111" font-size="0.5em" text-anchor="start" textLength="17.5" transform="rotate(-60, 864.8235294117659, 209.70377147222771)" style="text-shadow: 0 0 1px #fff;">
1.12
</text>
<rect x="870.1779411764718" y="226.99193894339047" width="17.85" height="7.2" transform="rotate(-60, 875.8823529411777, 233.65193894339046)" fill="#fffa"/>
<text x="870.3529411764717" y="233.65193894339046" fill="#111" font-size="0.5em" text-anchor="start" textLength="17.5" transform="rotate(-60, 875.8823529411777, 233.65193894339046)" style="text-shadow: 0 0 1px #fff;">
1.03
</text>
<rect x="881.2367647058835" y="195.58970610040888" width="17.85" height="7.2" transform="rotate(-60, 886.9411764705894, 202.24970610040887)" fill="#fffa"/>
<text x="881.4117647058836" y="202.24970610040887" fill="#111" font-size="0.5em" text-anchor="start" textLength="17.5" transform="rotate(-60, 886.9411764705894, 202.24970610040887)" style="text-shadow: 0 0 1px #fff;">
1.15
</text>
<rect x="903.3544117647072" y="200.22879707759853" width="17.85" height="7.2" transform="rotate(-60, 909.0588235294131, 206.88879707759855)" fill="#fffa"/>
<text x="903.5294117647071" y="206.88879707759855" fill="#111" font-size="0.5em" text-anchor="start" textLength="17.5" transform="rotate(-60, 909.0588235294131, 206.88879707759855)" style="text-shadow: 0 0 1px #fff;">
1.13
</text>
<rect x="914.4132352941189" y="208.5132433822277" width="17.85" height="7.2" transform="rotate(-60, 920.1176470588248, 215.1732433822277)" fill="#fffa"/>
<text x="914.5882352941189" y="215.1732433822277" fill="#111" font-size="0.5em" text-anchor="start" textLength="17.5" transform="rotate(-60, 920.1176470588248, 215.1732433822277)" style="text-shadow: 0 0 1px #fff;">
1.10
</text>
<rect x="925.4720588235307" y="186.38643110024336" width="17.85" height="7.2" transform="rotate(-60, 931.1764705882366, 193.04643110024335)" fill="#fffa"/>
<text x="925.6470588235308" y="193.04643110024335" fill="#111" font-size="0.5em" text-anchor="start" textLength="17.5" transform="rotate(-60, 931.1764705882366, 193.04643110024335)" style="text-shadow: 0 0 1px #fff;">
1.19
</text>
<rect x="947.5897058823542" y="210.26602975225234" width="17.85" height="7.2" transform="rotate(-60, 953.2941176470601, 216.92602975225233)" fill="#fffa"/>
<text x="947.7647058823543" y="216.92602975225233" fill="#111" font-size="0.5em" text-anchor="start" textLength="17.5" transform="rotate(-60, 953.2941176470601, 216.92602975225233)" style="text-shadow: 0 0 1px #fff;">
1.09
</text>
<rect x="958.648529411766" y="217.02051315915256" width="17.85" height="7.2" transform="rotate(-60, 964.352941176472, 223.68051315915255)" fill="#fffa"/>
<text x="958.8235294117661" y="223.68051315915255" fill="#111" font-size="0.5em" text-anchor="start" textLength="17.5" transform="rotate(-60, 964.352941176472, 223.68051315915255)" style="text-shadow: 0 0 1px #fff;">
1.07
</text>
<rect x="969.7073529411779" y="188.32995591807682" width="17.85" height="7.2" transform="rotate(-60, 975.4117647058838, 194.98995591807682)" fill="#fffa"/>
<text x="969.8823529411778" y="194.98995591807682" fill="#111" font-size="0.5em" text-anchor="start" textLength="17.5" transform="rotate(-60, 975.4117647058838, 194.98995591807682)" style="text-shadow: 0 0 1px #fff;">
1.18
</text>
</svg>