<svg viewBox="0 0 1000 600" xmlns="http://www.w3.org/2000/svg" xmlns:xlink="http://www.w3.org/1999/xlink" width="100%" height="100%">

<rect x="50.0" y="30.0" width="940.0" height="467.99999999999994" stroke="#000" fill="#fff"/>
<line x1="42.0" y1="497.9999999999999" x2="50.0" y2="497.9999999999999" stroke="#000"/>
<text x="26.000000000000004" y="497.9999999999999" text-anchor="end" font-weight="bold" font-size="small" fill="#111">
0.0
</text>
<line x1="42.0" y1="453.05482242190834" x2="50.0" y2="453.05482242190834" stroke="#000"/>
<text x="26.000000000000004" y="453.05482242190834" text-anchor="end" font-weight="bold" font-size="small" fill="#111">
0.2
</text>
<line x1="42.0" y1="408.10964484381674" x2="50.0" y2="408.10964484381674" stroke="#000"/>
<text x="26.000000000000004" y="408.10964484381674" text-anchor="end" font-weight="bold" font-size="small" fill="#111">
0.4
</text>
<line x1="42.0" y1="363.1644672657252" x2="50.0" y2="363.1644672657252" stroke="#000"/>
<text x="26.000000000000004" y="363.1644672657252" text-anchor="end" font-weight="bold" font-size="small" fill="#111">
0.6
</text>
<line x1="42.0" y1="318.2192896876336" x2="50.0" y2="318.2192896876336" stroke="#000"/>
<text x="26.000000000000004" y="318.2192896876336" text-anchor="end" font-weight="bold" font-size="small" fill="#111">
0.8
</text>
<line x1="42.0" y1="273.2741121095421" x2="50.0" y2="273.2741121095421" stroke="#000"/>
<text x="26.000000000000004" y="273.2741121095421" text-anchor="end" font-weight="bold" font-size="small" fill="#111">
1.0
</text>
<line x1="42.0" y1="228.32893453145059" x2="50.0" y2="228.32893453145059" stroke="#000"/>
<text x="26.000000000000004" y="228.32893453145059" text-anchor="end" font-weight="bold" font-size="small" fill="#111">
1.2
</text>
<line x1="42.0" y1="183.383756953359" x2="50.0" y2="183.383756953359" stroke="#000"/>
<text x="26.000000000000004" y="183.383756953359" text-anchor="end" font-weight="bold" font-size="small" fill="#111">
1.4
</text>
<line x1="42.0" y1="138.43857937526747" x2="50.0" y2="138.43857937526747" stroke="#000"/>
<text x="26.000000000000004" y="138.43857937526747" text-anchor="end" font-weight="bold" font-size="small" fill="#111">
1.6
</text>
<line x1="178.0" y1="54.60000000000001" x2="298.0" y2="54.60000000000001" stroke="#648FFF" stroke-width="2"/>
<text x="238.0" y="49.500000000000014" font-size="small" text-anchor="middle" font-weight="bold" fill="#000">
CRuby 3.4.0dev
</text>
<rect x="459.9999999999999" y="35.400000000000006" width="120.0" height="19.2" fill="#785EF0" stroke="none"/>
<text x="519.9999999999999" y="49.500000000000014" font-size="small" text-anchor="middle" font-weight="bold" fill="#fff" style="text-shadow: 0 0 1px #000;">
YJIT 3.3.1
</text>
<rect x="742.0" y="35.400000000000006" width="120.0" height="19.2" fill="#FFB000" stroke="none"/>
<text x="801.9999999999999" y="49.500000000000014" font-size="small" text-anchor="middle" font-weight="bold" fill="#fff" style="text-shadow: 0 0 1px #000;">
YJIT 3.4.0dev
</text>
<rect x="56.61971830985916" y="240.80477775800065" width="6.619718309859155" height="257.19522224199926" fill="#785EF0" data-tooltip="1.14x baseline (YJIT 3.3.1)"/>
<rect x="63.23943661971831" y="231.22171115745405" width="6.619718309859155" height="266.77828884254586" fill="#FFB000" data-tooltip="1.19x baseline (YJIT 3.4.0dev)"/>
<line x1="63.23943661971831" y1="498.0" x2="63.23943661971831" y2="502.79999999999995" stroke="#000"/>
<text x="63.23943661971831" y="512.4" fill="#111" font-size="small" text-anchor="end" transform="rotate(-60, 63.23943661971831, 512.4)">
activerecord
</text>
<rect x="76.47887323943661" y="241.17041383947674" width="6.619718309859155" height="256.8295861605232" fill="#785EF0" data-tooltip="1.14x baseline (YJIT 3.3.1)"/>
<rect x="83.09859154929576" y="287.34377164194365" width="6.619718309859155" height="210.6562283580563" fill="#FFB000" data-tooltip="0.94x baseline (YJIT 3.4.0dev)"/>
<line x1="83.09859154929575" y1="498.0" x2="83.09859154929575" y2="502.79999999999995" stroke="#000"/>
<text x="83.09859154929575" y="512.4" fill="#111" font-size="small" text-anchor="end" transform="rotate(-60, 83.09859154929575, 512.4)">
chunky-png
</text>
<rect x="96.33802816901405" y="277.7732225320548" width="6.619718309859155" height="220.22677746794517" fill="#785EF0" data-tooltip="0.98x baseline (YJIT 3.3.1)"/>
<rect x="102.9577464788732" y="263.54446688580964" width="6.619718309859155" height="234.45553311419033" fill="#FFB000" data-tooltip="1.04x baseline (YJIT 3.4.0dev)"/>
<line x1="102.9577464788732" y1="498.0" x2="102.9577464788732" y2="502.79999999999995" stroke="#000"/>
<text x="102.9577464788732" y="512.4" fill="#111" font-size="small" text-anchor="end" transform="rotate(-60, 102.9577464788732, 512.4)">
erubi-rails
</text>
<rect x="116.19718309859151" y="270.99192697190125" width="6.619718309859155" height="227.00807302809866" fill="#785EF0" data-tooltip="1.01x baseline (YJIT 3.3.1)"/>
<rect x="122.81690140845066" y="100.19999999999999" width="6.619718309859155" height="397.79999999999995" fill="#FFB000" data-tooltip="1.77x baseline (YJIT 3.4.0dev)"/>
<line x1="122.81690140845065" y1="498.0" x2="122.81690140845065" y2="502.79999999999995" stroke="#000"/>
<text x="122.81690140845065" y="512.4" fill="#111" font-size="small" text-anchor="end" transform="rotate(-60, 122.81690140845065, 512.4)">
hexapdf
</text>
<rect x="136.05633802816897" y="252.7316462460399" width="6.619718309859155" height="245.26835375396004" fill="#785EF0" data-tooltip="1.09x baseline (YJIT 3.3.1)"/>
<rect x="142.67605633802813" y="240.04000192855892" width="6.619718309859155" height="257.959998071441" fill="#FFB000" data-tooltip="1.15x baseline (YJIT 3.4.0dev)"/>
<line x1="142.67605633802816" y1="498.0" x2="142.67605633802816" y2="502.79999999999995" stroke="#000"/>
<text x="142.67605633802816" y="512.4" fill="#111" font-size="small" text-anchor="end" transform="rotate(-60, 142.67605633802816, 512.4)">
liquid-c
</text>
<rect x="155.91549295774647" y="253.23319777915123" width="6.619718309859155" height="244.76680222084872" fill="#785EF0" data-tooltip="1.09x baseline (YJIT 3.3.1)"/>
<rect x="162.5352112676056" y="246.05241414285487" width="6.619718309859155" height="251.94758585714507" fill="#FFB000" data-tooltip="1.12x baseline (YJIT 3.4.0dev)"/>
<line x1="162.5352112676056" y1="498.0" x2="162.5352112676056" y2="502.79999999999995" stroke="#000"/>
<text x="162.5352112676056" y="512.4" fill="#111" font-size="small" text-anchor="end" transform="rotate(-60, 162.5352112676056, 512.4)">
liquid-compile
</text>
<rect x="175.77464788732394" y="245.02888649540947" width="6.619718309859155" height="252.9711135045905" fill="#785EF0" data-tooltip="1.13x baseline (YJIT 3.3.1)"/>
<rect x="182.3943661971831" y="235.9554468904426" width="6.619718309859155" height="262.04455310955734" fill="#FFB000" data-tooltip="1.17x baseline (YJIT 3.4.0dev)"/>
<line x1="182.39436619718313" y1="498.0" x2="182.39436619718313" y2="502.79999999999995" stroke="#000"/>
<text x="182.39436619718313" y="512.4" fill="#111" font-size="small" text-anchor="end" transform="rotate(-60, 182.39436619718313, 512.4)">
liquid-render
</text>
<rect x="195.63380281690144" y="238.39037883827817" width="6.619718309859155" height="259.60962116172175" fill="#785EF0" data-tooltip="1.16x baseline (YJIT 3.3.1)"/>
<rect x="202.2535211267606" y="227.93016975318312" width="6.619718309859155" height="270.0698302468169" fill="#FFB000" data-tooltip="1.20x baseline (YJIT 3.4.0dev)"/>
<line x1="202.2535211267606" y1="498.0" x2="202.2535211267606" y2="502.79999999999995" stroke="#000"/>
<text x="202.2535211267606" y="512.4" fill="#111" font-size="small" text-anchor="end" transform="rotate(-60, 202.2535211267606, 512.4)">
lobsters
</text>
<rect x="215.4929577464789" y="324.19048296781835" width="6.619718309859155" height="173.80951703218167" fill="#785EF0" data-tooltip="0.77x baseline (YJIT 3.3.1)"/>
<rect x="222.11267605633807" y="258.7635942059112" width="6.619718309859155" height="239.23640579408874" fill="#FFB000" data-tooltip="1.06x baseline (YJIT 3.4.0dev)"/>
<line x1="222.1126760563381" y1="498.0" x2="222.1126760563381" y2="502.79999999999995" stroke="#000"/>
<text x="222.1126760563381" y="512.4" fill="#111" font-size="small" text-anchor="end" transform="rotate(-60, 222.1126760563381, 512.4)">
mail
</text>
<rect x="235.3521126760564" y="267.97821524062516" width="6.619718309859155" height="230.0217847593748" fill="#785EF0" data-tooltip="1.02x baseline (YJIT 3.3.1)"/>
<rect x="241.97183098591557" y="252.59013754603623" width="6.619718309859155" height="245.4098624539637" fill="#FFB000" data-tooltip="1.09x baseline (YJIT 3.4.0dev)"/>
<line x1="241.97183098591557" y1="498.0" x2="241.97183098591557" y2="502.79999999999995" stroke="#000"/>
<text x="241.97183098591557" y="512.4" fill="#111" font-size="small" text-anchor="end" transform="rotate(-60, 241.97183098591557, 512.4)">
psych-load
</text>
<rect x="255.2112676056339" y="250.79537919201442" width="6.619718309859155" height="247.20462080798552" fill="#785EF0" data-tooltip="1.10x baseline (YJIT 3.3.1)"/>
<rect x="261.83098591549305" y="252.92826950789072" width="6.619718309859155" height="245.07173049210922" fill="#FFB000" data-tooltip="1.09x baseline (YJIT 3.4.0dev)"/>
<line x1="261.83098591549305" y1="498.0" x2="261.83098591549305" y2="502.79999999999995" stroke="#000"/>
<text x="261.83098591549305" y="512.4" fill="#111" font-size="small" text-anchor="end" transform="rotate(-60, 261.83098591549305, 512.4)">
railsbench
</text>
<rect x="275.0704225352113" y="189.41316417997615" width="6.619718309859155" height="308.5868358200238" fill="#785EF0" data-tooltip="1.37x baseline (YJIT 3.3.1)"/>
<rect x="281.69014084507046" y="177.50080470898254" width="6.619718309859155" height="320.4991952910174" fill="#FFB000" data-tooltip="1.43x baseline (YJIT 3.4.0dev)"/>
<line x1="281.6901408450704" y1="498.0" x2="281.6901408450704" y2="502.79999999999995" stroke="#000"/>
<text x="281.6901408450704" y="512.4" fill="#111" font-size="small" text-anchor="end" transform="rotate(-60, 281.6901408450704, 512.4)">
rubocop
</text>
<rect x="294.9295774647887" y="229.6980980501223" width="6.619718309859155" height="268.3019019498777" fill="#785EF0" data-tooltip="1.19x baseline (YJIT 3.3.1)"/>
<rect x="301.5492957746478" y="254.10324438576777" width="6.619718309859155" height="243.89675561423218" fill="#FFB000" data-tooltip="1.09x baseline (YJIT 3.4.0dev)"/>
<line x1="301.5492957746478" y1="498.0" x2="301.5492957746478" y2="502.79999999999995" stroke="#000"/>
<text x="301.5492957746478" y="512.4" fill="#111" font-size="small" text-anchor="end" transform="rotate(-60, 301.5492957746478, 512.4)">
ruby-lsp
</text>
<rect x="314.7887323943661" y="266.67512860332016" width="6.619718309859155" height="231.32487139667978" fill="#785EF0" data-tooltip="1.03x baseline (YJIT 3.3.1)"/>
<rect x="321.40845070422523" y="249.59540658721625" width="6.619718309859155" height="248.4045934127837" fill="#FFB000" data-tooltip="1.11x baseline (YJIT 3.4.0dev)"/>
<line x1="321.4084507042252" y1="498.0" x2="321.4084507042252" y2="502.79999999999995" stroke="#000"/>
<text x="321.4084507042252" y="512.4" fill="#111" font-size="small" text-anchor="end" transform="rotate(-60, 321.4084507042252, 512.4)">
sequel
</text>
<rect x="334.6478873239435" y="280.9253299031622" width="6.619718309859155" height="217.07467009683776" fill="#785EF0" data-tooltip="0.97x baseline (YJIT 3.3.1)"/>
<rect x="341.26760563380265" y="271.57893211933884" width="6.619718309859155" height="226.42106788066107" fill="#FFB000" data-tooltip="1.01x baseline (YJIT 3.4.0dev)"/>
<line x1="341.26760563380265" y1="498.0" x2="341.26760563380265" y2="502.79999999999995" stroke="#000"/>
<text x="341.26760563380265" y="512.4" fill="#111" font-size="small" text-anchor="end" transform="rotate(-60, 341.26760563380265, 512.4)">
binarytrees
</text>
<rect x="354.5070422535209" y="284.19871583286294" width="6.619718309859155" height="213.801284167137" fill="#785EF0" data-tooltip="0.95x baseline (YJIT 3.3.1)"/>
<rect x="361.12676056338006" y="268.45987996028214" width="6.619718309859155" height="229.54012003971783" fill="#FFB000" data-tooltip="1.02x baseline (YJIT 3.4.0dev)"/>
<line x1="361.12676056338" y1="498.0" x2="361.12676056338" y2="502.79999999999995" stroke="#000"/>
<text x="361.12676056338" y="512.4" fill="#111" font-size="small" text-anchor="end" transform="rotate(-60, 361.12676056338, 512.4)">
blurhash
</text>
<rect x="374.36619718309834" y="274.6632144385353" width="6.619718309859155" height="223.33678556146464" fill="#785EF0" data-tooltip="0.99x baseline (YJIT 3.3.1)"/>
<rect x="380.9859154929575" y="255.02285095360347" width="6.619718309859155" height="242.97714904639648" fill="#FFB000" data-tooltip="1.08x baseline (YJIT 3.4.0dev)"/>
<line x1="380.9859154929575" y1="498.0" x2="380.9859154929575" y2="502.79999999999995" stroke="#000"/>
<text x="380.9859154929575" y="512.4" fill="#111" font-size="small" text-anchor="end" transform="rotate(-60, 380.9859154929575, 512.4)">
erubi
</text>
<rect x="394.22535211267575" y="290.5038015385847" width="6.619718309859155" height="207.49619846141525" fill="#785EF0" data-tooltip="0.92x baseline (YJIT 3.3.1)"/>
<rect x="400.8450704225349" y="270.5786698982502" width="6.619718309859155" height="227.42133010174973" fill="#FFB000" data-tooltip="1.01x baseline (YJIT 3.4.0dev)"/>
<line x1="400.84507042253483" y1="498.0" x2="400.84507042253483" y2="502.79999999999995" stroke="#000"/>
<text x="400.84507042253483" y="512.4" fill="#111" font-size="small" text-anchor="end" transform="rotate(-60, 400.84507042253483, 512.4)">
etanni
</text>
<rect x="414.0845070422531" y="287.82034878450133" width="6.619718309859155" height="210.1796512154986" fill="#785EF0" data-tooltip="0.94x baseline (YJIT 3.3.1)"/>
<rect x="420.70422535211225" y="270.24364613559226" width="6.619718309859155" height="227.75635386440769" fill="#FFB000" data-tooltip="1.01x baseline (YJIT 3.4.0dev)"/>
<line x1="420.70422535211225" y1="498.0" x2="420.70422535211225" y2="502.79999999999995" stroke="#000"/>
<text x="420.70422535211225" y="512.4" fill="#111" font-size="small" text-anchor="end" transform="rotate(-60, 420.70422535211225, 512.4)">
fannkuchredux
</text>
<rect x="433.9436619718305" y="277.5173612556779" width="6.619718309859155" height="220.48263874432206" fill="#785EF0" data-tooltip="0.98x baseline (YJIT 3.3.1)"/>
<rect x="440.56338028168966" y="267.17968405848006" width="6.619718309859155" height="230.8203159415199" fill="#FFB000" data-tooltip="1.03x baseline (YJIT 3.4.0dev)"/>
<line x1="440.5633802816896" y1="498.0" x2="440.5633802816896" y2="502.79999999999995" stroke="#000"/>
<text x="440.5633802816896" y="512.4" fill="#111" font-size="small" text-anchor="end" transform="rotate(-60, 440.5633802816896, 512.4)">
fluentd
</text>
<rect x="453.80281690140794" y="259.73640801975546" width="6.619718309859155" height="238.26359198024448" fill="#785EF0" data-tooltip="1.06x baseline (YJIT 3.3.1)"/>
<rect x="460.4225352112671" y="252.8113516969031" width="6.619718309859155" height="245.18864830309684" fill="#FFB000" data-tooltip="1.09x baseline (YJIT 3.4.0dev)"/>
<line x1="460.4225352112671" y1="498.0" x2="460.4225352112671" y2="502.79999999999995" stroke="#000"/>
<text x="460.4225352112671" y="512.4" fill="#111" font-size="small" text-anchor="end" transform="rotate(-60, 460.4225352112671, 512.4)">
graphql
</text>
<rect x="473.66197183098535" y="268.67145974805953" width="6.619718309859155" height="229.32854025194038" fill="#785EF0" data-tooltip="1.02x baseline (YJIT 3.3.1)"/>
<rect x="480.2816901408445" y="251.56401091050094" width="6.619718309859155" height="246.435989089499" fill="#FFB000" data-tooltip="1.10x baseline (YJIT 3.4.0dev)"/>
<line x1="480.28169014084443" y1="498.0" x2="480.28169014084443" y2="502.79999999999995" stroke="#000"/>
<text x="480.28169014084443" y="512.4" fill="#111" font-size="small" text-anchor="end" transform="rotate(-60, 480.28169014084443, 512.4)">
graphql-native
</text>
<rect x="493.52112676056277" y="257.4920419515688" width="6.619718309859155" height="240.50795804843116" fill="#785EF0" data-tooltip="1.07x baseline (YJIT 3.3.1)"/>
<rect x="500.1408450704219" y="262.58412014356446" width="6.619718309859155" height="235.41587985643548" fill="#FFB000" data-tooltip="1.05x baseline (YJIT 3.4.0dev)"/>
<line x1="500.1408450704219" y1="498.0" x2="500.1408450704219" y2="502.79999999999995" stroke="#000"/>
<text x="500.1408450704219" y="512.4" fill="#111" font-size="small" text-anchor="end" transform="rotate(-60, 500.1408450704219, 512.4)">
lee
</text>
<rect x="513.3802816901402" y="251.45008971276496" width="6.619718309859155" height="246.54991028723498" fill="#785EF0" data-tooltip="1.10x baseline (YJIT 3.3.1)"/>
<rect x="519.9999999999994" y="271.42782821914227" width="6.619718309859155" height="226.57217178085764" fill="#FFB000" data-tooltip="1.01x baseline (YJIT 3.4.0dev)"/>
<line x1="519.9999999999995" y1="498.0" x2="519.9999999999995" y2="502.79999999999995" stroke="#000"/>
<text x="519.9999999999995" y="512.4" fill="#111" font-size="small" text-anchor="end" transform="rotate(-60, 519.9999999999995, 512.4)">
matmul
</text>
<rect x="533.2394366197178" y="286.9448808364714" width="6.619718309859155" height="211.0551191635286" fill="#785EF0" data-tooltip="0.94x baseline (YJIT 3.3.1)"/>
<rect x="539.859154929577" y="269.4355218758723" width="6.619718309859155" height="228.56447812412762" fill="#FFB000" data-tooltip="1.02x baseline (YJIT 3.4.0dev)"/>
<line x1="539.859154929577" y1="498.0" x2="539.859154929577" y2="502.79999999999995" stroke="#000"/>
<text x="539.859154929577" y="512.4" fill="#111" font-size="small" text-anchor="end" transform="rotate(-60, 539.859154929577, 512.4)">
nbody
</text>
<rect x="553.0985915492954" y="289.5336910569105" width="6.619718309859155" height="208.46630894308942" fill="#785EF0" data-tooltip="0.93x baseline (YJIT 3.3.1)"/>
<rect x="559.7183098591546" y="252.12344030808723" width="6.619718309859155" height="245.87655969191272" fill="#FFB000" data-tooltip="1.09x baseline (YJIT 3.4.0dev)"/>
<line x1="559.7183098591547" y1="498.0" x2="559.7183098591547" y2="502.79999999999995" stroke="#000"/>
<text x="559.7183098591547" y="512.4" fill="#111" font-size="small" text-anchor="end" transform="rotate(-60, 559.7183098591547, 512.4)">
nqueens
</text>
<rect x="572.957746478873" y="286.00762645800523" width="6.619718309859155" height="211.9923735419947" fill="#785EF0" data-tooltip="0.94x baseline (YJIT 3.3.1)"/>
<rect x="579.5774647887322" y="261.1439313586371" width="6.619718309859155" height="236.85606864136287" fill="#FFB000" data-tooltip="1.05x baseline (YJIT 3.4.0dev)"/>
<line x1="579.5774647887322" y1="498.0" x2="579.5774647887322" y2="502.79999999999995" stroke="#000"/>
<text x="579.5774647887322" y="512.4" fill="#111" font-size="small" text-anchor="end" transform="rotate(-60, 579.5774647887322, 512.4)">
optcarrot
</text>
<rect x="592.8169014084506" y="306.0487959282058" width="6.619718309859155" height="191.95120407179417" fill="#785EF0" data-tooltip="0.85x baseline (YJIT 3.3.1)"/>
<rect x="599.4366197183098" y="246.43962388288068" width="6.619718309859155" height="251.56037611711926" fill="#FFB000" data-tooltip="1.12x baseline (YJIT 3.4.0dev)"/>
<line x1="599.4366197183099" y1="498.0" x2="599.4366197183099" y2="502.79999999999995" stroke="#000"/>
<text x="599.4366197183099" y="512.4" fill="#111" font-size="small" text-anchor="end" transform="rotate(-60, 599.4366197183099, 512.4)">
protoboeuf
</text>
<rect x="612.6760563380282" y="268.519943610639" width="6.619718309859155" height="229.48005638936093" fill="#785EF0" data-tooltip="1.02x baseline (YJIT 3.3.1)"/>
<rect x="619.2957746478874" y="253.27003388723446" width="6.619718309859155" height="244.72996611276548" fill="#FFB000" data-tooltip="1.09x baseline (YJIT 3.4.0dev)"/>
<line x1="619.2957746478874" y1="498.0" x2="619.2957746478874" y2="502.79999999999995" stroke="#000"/>
<text x="619.2957746478874" y="512.4" fill="#111" font-size="small" text-anchor="end" transform="rotate(-60, 619.2957746478874, 512.4)">
rack
</text>
<rect x="632.5352112676057" y="288.0960553187079" width="6.619718309859155" height="209.90394468129205" fill="#785EF0" data-tooltip="0.93x baseline (YJIT 3.3.1)"/>
<rect x="639.1549295774649" y="269.30056988751045" width="6.619718309859155" height="228.69943011248952" fill="#FFB000" data-tooltip="1.02x baseline (YJIT 3.4.0dev)"/>
<line x1="639.154929577465" y1="498.0" x2="639.154929577465" y2="502.79999999999995" stroke="#000"/>
<text x="639.154929577465" y="512.4" fill="#111" font-size="small" text-anchor="end" transform="rotate(-60, 639.154929577465, 512.4)">
ruby-json
</text>
<rect x="652.3943661971832" y="266.0525885249364" width="6.619718309859155" height="231.94741147506355" fill="#785EF0" data-tooltip="1.03x baseline (YJIT 3.3.1)"/>
<rect x="659.0140845070424" y="276.2243686959359" width="6.619718309859155" height="221.77563130406404" fill="#FFB000" data-tooltip="0.99x baseline (YJIT 3.4.0dev)"/>
<line x1="659.0140845070424" y1="498.0" x2="659.0140845070424" y2="502.79999999999995" stroke="#000"/>
<text x="659.0140845070424" y="512.4" fill="#111" font-size="small" text-anchor="end" transform="rotate(-60, 659.0140845070424, 512.4)">
rubykon
</text>
<rect x="672.2535211267608" y="282.66003821475215" width="6.619718309859155" height="215.33996178524777" fill="#785EF0" data-tooltip="0.96x baseline (YJIT 3.3.1)"/>
<rect x="678.87323943662" y="269.1845300208434" width="6.619718309859155" height="228.81546997915655" fill="#FFB000" data-tooltip="1.02x baseline (YJIT 3.4.0dev)"/>
<line x1="678.8732394366201" y1="498.0" x2="678.8732394366201" y2="502.79999999999995" stroke="#000"/>
<text x="678.8732394366201" y="512.4" fill="#111" font-size="small" text-anchor="end" transform="rotate(-60, 678.8732394366201, 512.4)">
sudoku
</text>
<rect x="692.1126760563384" y="268.12079418873725" width="6.619718309859155" height="229.8792058112627" fill="#785EF0" data-tooltip="1.02x baseline (YJIT 3.3.1)"/>
<rect x="698.7323943661976" y="249.03290461007612" width="6.619718309859155" height="248.96709538992383" fill="#FFB000" data-tooltip="1.11x baseline (YJIT 3.4.0dev)"/>
<line x1="698.7323943661976" y1="498.0" x2="698.7323943661976" y2="502.79999999999995" stroke="#000"/>
<text x="698.7323943661976" y="512.4" fill="#111" font-size="small" text-anchor="end" transform="rotate(-60, 698.7323943661976, 512.4)">
tinygql
</text>
<rect x="711.971830985916" y="357.4603182687552" width="6.619718309859155" height="140.53968173124477" fill="#785EF0" data-tooltip="0.63x baseline (YJIT 3.3.1)"/>
<rect x="718.5915492957752" y="252.2387089511826" width="6.619718309859155" height="245.76129104881736" fill="#FFB000" data-tooltip="1.09x baseline (YJIT 3.4.0dev)"/>
<line x1="718.5915492957753" y1="498.0" x2="718.5915492957753" y2="502.79999999999995" stroke="#000"/>
<text x="718.5915492957753" y="512.4" fill="#111" font-size="small" text-anchor="end" transform="rotate(-60, 718.5915492957753, 512.4)">
30k_ifelse
</text>
<rect x="731.8309859154936" y="361.4487487760542" width="6.619718309859155" height="136.5512512239458" fill="#785EF0" data-tooltip="0.61x baseline (YJIT 3.3.1)"/>
<rect x="738.4507042253528" y="260.81126593759694" width="6.619718309859155" height="237.18873406240297" fill="#FFB000" data-tooltip="1.06x baseline (YJIT 3.4.0dev)"/>
<line x1="738.4507042253528" y1="498.0" x2="738.4507042253528" y2="502.79999999999995" stroke="#000"/>
<text x="738.4507042253528" y="512.4" fill="#111" font-size="small" text-anchor="end" transform="rotate(-60, 738.4507042253528, 512.4)">
30k_methods
</text>
<rect x="751.6901408450711" y="284.7933347801861" width="6.619718309859155" height="213.20666521981383" fill="#785EF0" data-tooltip="0.95x baseline (YJIT 3.3.1)"/>
<rect x="758.3098591549303" y="269.7038267203951" width="6.619718309859155" height="228.2961732796048" fill="#FFB000" data-tooltip="1.02x baseline (YJIT 3.4.0dev)"/>
<line x1="758.3098591549305" y1="498.0" x2="758.3098591549305" y2="502.79999999999995" stroke="#000"/>
<text x="758.3098591549305" y="512.4" fill="#111" font-size="small" text-anchor="end" transform="rotate(-60, 758.3098591549305, 512.4)">
cfunc_itself
</text>
<rect x="771.5492957746487" y="285.93186543349253" width="6.619718309859155" height="212.06813456650738" fill="#785EF0" data-tooltip="0.94x baseline (YJIT 3.3.1)"/>
<rect x="778.1690140845079" y="268.6712927190147" width="6.619718309859155" height="229.3287072809853" fill="#FFB000" data-tooltip="1.02x baseline (YJIT 3.4.0dev)"/>
<line x1="778.1690140845079" y1="498.0" x2="778.1690140845079" y2="502.79999999999995" stroke="#000"/>
<text x="778.1690140845079" y="512.4" fill="#111" font-size="small" text-anchor="end" transform="rotate(-60, 778.1690140845079, 512.4)">
fib
</text>
<rect x="791.4084507042263" y="284.72597090491917" width="6.619718309859155" height="213.2740290950808" fill="#785EF0" data-tooltip="0.95x baseline (YJIT 3.3.1)"/>
<rect x="798.0281690140855" y="269.7038267203951" width="6.619718309859155" height="228.2961732796048" fill="#FFB000" data-tooltip="1.02x baseline (YJIT 3.4.0dev)"/>
<line x1="798.0281690140856" y1="498.0" x2="798.0281690140856" y2="502.79999999999995" stroke="#000"/>
<text x="798.0281690140856" y="512.4" fill="#111" font-size="small" text-anchor="end" transform="rotate(-60, 798.0281690140856, 512.4)">
getivar
</text>
<rect x="811.2676056338039" y="284.78116058586073" width="6.619718309859155" height="213.2188394141392" fill="#785EF0" data-tooltip="0.95x baseline (YJIT 3.3.1)"/>
<rect x="817.8873239436631" y="268.5359156781168" width="6.619718309859155" height="229.46408432188318" fill="#FFB000" data-tooltip="1.02x baseline (YJIT 3.4.0dev)"/>
<line x1="817.8873239436631" y1="498.0" x2="817.8873239436631" y2="502.79999999999995" stroke="#000"/>
<text x="817.8873239436631" y="512.4" fill="#111" font-size="small" text-anchor="end" transform="rotate(-60, 817.8873239436631, 512.4)">
keyword_args
</text>
<rect x="831.1267605633814" y="284.101014266264" width="6.619718309859155" height="213.89898573373597" fill="#785EF0" data-tooltip="0.95x baseline (YJIT 3.3.1)"/>
<rect x="837.7464788732406" y="268.67267869293534" width="6.619718309859155" height="229.32732130706464" fill="#FFB000" data-tooltip="1.02x baseline (YJIT 3.4.0dev)"/>
<line x1="837.7464788732407" y1="498.0" x2="837.7464788732407" y2="502.79999999999995" stroke="#000"/>
<text x="837.7464788732407" y="512.4" fill="#111" font-size="small" text-anchor="end" transform="rotate(-60, 837.7464788732407, 512.4)">
respond_to
</text>
<rect x="850.985915492959" y="288.0912036188031" width="6.619718309859155" height="209.90879638119688" fill="#785EF0" data-tooltip="0.93x baseline (YJIT 3.3.1)"/>
<rect x="857.6056338028181" y="270.9898105018644" width="6.619718309859155" height="227.01018949813556" fill="#FFB000" data-tooltip="1.01x baseline (YJIT 3.4.0dev)"/>
<line x1="857.6056338028181" y1="498.0" x2="857.6056338028181" y2="502.79999999999995" stroke="#000"/>
<text x="857.6056338028181" y="512.4" fill="#111" font-size="small" text-anchor="end" transform="rotate(-60, 857.6056338028181, 512.4)">
ruby-xor
</text>
<rect x="870.8450704225365" y="284.7933347801861" width="6.619718309859155" height="213.20666521981383" fill="#785EF0" data-tooltip="0.95x baseline (YJIT 3.3.1)"/>
<rect x="877.4647887323957" y="269.7038267203951" width="6.619718309859155" height="228.2961732796048" fill="#FFB000" data-tooltip="1.02x baseline (YJIT 3.4.0dev)"/>
<line x1="877.4647887323958" y1="498.0" x2="877.4647887323958" y2="502.79999999999995" stroke="#000"/>
<text x="877.4647887323958" y="512.4" fill="#111" font-size="small" text-anchor="end" transform="rotate(-60, 877.4647887323958, 512.4)">
setivar
</text>
<rect x="890.7042253521141" y="286.94897878872763" width="6.619718309859155" height="211.0510212112723" fill="#785EF0" data-tooltip="0.94x baseline (YJIT 3.3.1)"/>
<rect x="897.3239436619733" y="269.7038267203951" width="6.619718309859155" height="228.2961732796048" fill="#FFB000" data-tooltip="1.02x baseline (YJIT 3.4.0dev)"/>
<line x1="897.3239436619733" y1="498.0" x2="897.3239436619733" y2="502.79999999999995" stroke="#000"/>
<text x="897.3239436619733" y="512.4" fill="#111" font-size="small" text-anchor="end" transform="rotate(-60, 897.3239436619733, 512.4)">
setivar_object
</text>
<rect x="910.5633802816917" y="287.8920730424646" width="6.619718309859155" height="210.10792695753534" fill="#785EF0" data-tooltip="0.93x baseline (YJIT 3.3.1)"/>
<rect x="917.1830985915509" y="269.7038267203951" width="6.619718309859155" height="228.2961732796048" fill="#FFB000" data-tooltip="1.02x baseline (YJIT 3.4.0dev)"/>
<line x1="917.183098591551" y1="498.0" x2="917.183098591551" y2="502.79999999999995" stroke="#000"/>
<text x="917.183098591551" y="512.4" fill="#111" font-size="small" text-anchor="end" transform="rotate(-60, 917.183098591551, 512.4)">
setivar_young
</text>
<rect x="930.4225352112693" y="277.9647852913164" width="6.619718309859155" height="220.03521470868355" fill="#785EF0" data-tooltip="0.98x baseline (YJIT 3.3.1)"/>
<rect x="937.0422535211285" y="269.30162812306344" width="6.619718309859155" height="228.69837187693648" fill="#FFB000" data-tooltip="1.02x baseline (YJIT 3.4.0dev)"/>
<line x1="937.0422535211285" y1="498.0" x2="937.0422535211285" y2="502.79999999999995" stroke="#000"/>
<text x="937.0422535211285" y="512.4" fill="#111" font-size="small" text-anchor="end" transform="rotate(-60, 937.0422535211285, 512.4)">
str_concat
</text>
<rect x="950.2816901408469" y="285.67694303428397" width="6.619718309859155" height="212.323056965716" fill="#785EF0" data-tooltip="0.94x baseline (YJIT 3.3.1)"/>
<rect x="956.9014084507061" y="270.7265035952708" width="6.619718309859155" height="227.27349640472912" fill="#FFB000" data-tooltip="1.01x baseline (YJIT 3.4.0dev)"/>
<line x1="956.9014084507062" y1="498.0" x2="956.9014084507062" y2="502.79999999999995" stroke="#000"/>
<text x="956.9014084507062" y="512.4" fill="#111" font-size="small" text-anchor="end" transform="rotate(-60, 956.9014084507062, 512.4)">
throw
</text>
<rect x="970.1408450704245" y="277.5744519552885" width="6.619718309859155" height="220.4255480447114" fill="#785EF0" data-tooltip="0.98x baseline (YJIT 3.3.1)"/>
<rect x="976.7605633802837" y="256.6537542309478" width="6.619718309859155" height="241.34624576905216" fill="#FFB000" data-tooltip="1.07x baseline (YJIT 3.4.0dev)"/>
<line x1="976.7605633802837" y1="498.0" x2="976.7605633802837" y2="502.79999999999995" stroke="#000"/>
<text x="976.7605633802837" y="512.4" fill="#111" font-size="small" text-anchor="end" transform="rotate(-60, 976.7605633802837, 512.4)" font-style="italic">
geomean*
</text>
<line x1="50.0" y1="273.2741121095421" x2="990.0" y2="273.2741121095421" stroke="#648FFF" stroke-width="2"/>
</svg>