<svg viewBox="0 0 1000 600" xmlns="http://www.w3.org/2000/svg" xmlns:xlink="http://www.w3.org/1999/xlink" width="100%" height="100%">

<rect x="50.0" y="30.0" width="940.0" height="467.99999999999994" stroke="#000" fill="#fff"/>
<line x1="42.0" y1="497.9999999999999" x2="50.0" y2="497.9999999999999" stroke="#000"/>
<text x="26.000000000000004" y="497.9999999999999" text-anchor="end" font-weight="bold" font-size="small" fill="#111">
0.0
</text>
<line x1="42.0" y1="446.5352645116809" x2="50.0" y2="446.5352645116809" stroke="#000"/>
<text x="26.000000000000004" y="446.5352645116809" text-anchor="end" font-weight="bold" font-size="small" fill="#111">
0.2
</text>
<line x1="42.0" y1="395.0705290233618" x2="50.0" y2="395.0705290233618" stroke="#000"/>
<text x="26.000000000000004" y="395.0705290233618" text-anchor="end" font-weight="bold" font-size="small" fill="#111">
0.4
</text>
<line x1="42.0" y1="343.6057935350428" x2="50.0" y2="343.6057935350428" stroke="#000"/>
<text x="26.000000000000004" y="343.6057935350428" text-anchor="end" font-weight="bold" font-size="small" fill="#111">
0.6
</text>
<line x1="42.0" y1="292.1410580467237" x2="50.0" y2="292.1410580467237" stroke="#000"/>
<text x="26.000000000000004" y="292.1410580467237" text-anchor="end" font-weight="bold" font-size="small" fill="#111">
0.8
</text>
<line x1="42.0" y1="240.67632255840468" x2="50.0" y2="240.67632255840468" stroke="#000"/>
<text x="26.000000000000004" y="240.67632255840468" text-anchor="end" font-weight="bold" font-size="small" fill="#111">
1.0
</text>
<line x1="42.0" y1="189.21158707008564" x2="50.0" y2="189.21158707008564" stroke="#000"/>
<text x="26.000000000000004" y="189.21158707008564" text-anchor="end" font-weight="bold" font-size="small" fill="#111">
1.2
</text>
<line x1="42.0" y1="137.7468515817666" x2="50.0" y2="137.7468515817666" stroke="#000"/>
<text x="26.000000000000004" y="137.7468515817666" text-anchor="end" font-weight="bold" font-size="small" fill="#111">
1.4
</text>
<line x1="248.5" y1="54.60000000000001" x2="368.5" y2="54.60000000000001" stroke="#648FFF" stroke-width="2"/>
<text x="308.5" y="49.500000000000014" font-size="small" text-anchor="middle" font-weight="bold" fill="#000">
CRuby 3.2.0dev
</text>
<rect x="671.5" y="35.400000000000006" width="120.0" height="19.2" fill="#785EF0" stroke="none"/>
<text x="731.4999999999999" y="49.500000000000014" font-size="small" text-anchor="middle" font-weight="bold" fill="#fff" style="text-shadow: 0 0 1px #000;">
YJIT 3.2.0dev
</text>
<rect x="112.66666666666667" y="130.19123694630557" width="62.666666666666664" height="367.80876305369435" fill="#785EF0" data-tooltip="1.43x baseline (YJIT 3.2.0dev)"/>
<line x1="144.00000000000003" y1="498.0" x2="144.00000000000003" y2="502.79999999999995" stroke="#000"/>
<text x="144.00000000000003" y="512.4" fill="#111" font-size="small" text-anchor="end" transform="rotate(-60, 144.00000000000003, 512.4)">
activerecord
</text>
<rect x="238.0" y="257.23572962892604" width="62.666666666666664" height="240.7642703710739" fill="#785EF0" data-tooltip="0.94x baseline (YJIT 3.2.0dev)"/>
<line x1="269.3333333333333" y1="498.0" x2="269.3333333333333" y2="502.79999999999995" stroke="#000"/>
<text x="269.3333333333333" y="512.4" fill="#111" font-size="small" text-anchor="end" transform="rotate(-60, 269.3333333333333, 512.4)">
hexapdf
</text>
<rect x="363.33333333333326" y="150.83965816744558" width="62.666666666666664" height="347.1603418325543" fill="#785EF0" data-tooltip="1.35x baseline (YJIT 3.2.0dev)"/>
<line x1="394.66666666666663" y1="498.0" x2="394.66666666666663" y2="502.79999999999995" stroke="#000"/>
<text x="394.66666666666663" y="512.4" fill="#111" font-size="small" text-anchor="end" transform="rotate(-60, 394.66666666666663, 512.4)">
liquid-render
</text>
<rect x="488.6666666666666" y="169.4809861824215" width="62.666666666666664" height="328.51901381757847" fill="#785EF0" data-tooltip="1.28x baseline (YJIT 3.2.0dev)"/>
<line x1="519.9999999999999" y1="498.0" x2="519.9999999999999" y2="502.79999999999995" stroke="#000"/>
<text x="519.9999999999999" y="512.4" fill="#111" font-size="small" text-anchor="end" transform="rotate(-60, 519.9999999999999, 512.4)">
mail
</text>
<rect x="613.9999999999999" y="172.27425636571212" width="62.666666666666664" height="325.7257436342878" fill="#785EF0" data-tooltip="1.27x baseline (YJIT 3.2.0dev)"/>
<line x1="645.3333333333333" y1="498.0" x2="645.3333333333333" y2="502.79999999999995" stroke="#000"/>
<text x="645.3333333333333" y="512.4" fill="#111" font-size="small" text-anchor="end" transform="rotate(-60, 645.3333333333333, 512.4)">
psych-load
</text>
<rect x="739.3333333333331" y="100.19999999999999" width="62.666666666666664" height="397.79999999999995" fill="#785EF0" data-tooltip="1.55x baseline (YJIT 3.2.0dev)"/>
<line x1="770.6666666666665" y1="498.0" x2="770.6666666666665" y2="502.79999999999995" stroke="#000"/>
<text x="770.6666666666665" y="512.4" fill="#111" font-size="small" text-anchor="end" transform="rotate(-60, 770.6666666666665, 512.4)">
railsbench
</text>
<rect x="864.6666666666665" y="167.27253267869037" width="62.666666666666664" height="330.7274673213096" fill="#785EF0" data-tooltip="1.29x baseline (YJIT 3.2.0dev)"/>
<line x1="895.9999999999998" y1="498.0" x2="895.9999999999998" y2="502.79999999999995" stroke="#000"/>
<text x="895.9999999999998" y="512.4" fill="#111" font-size="small" text-anchor="end" transform="rotate(-60, 895.9999999999998, 512.4)" font-style="italic">
geomean*
</text>
<line x1="50.0" y1="240.67632255840468" x2="990.0" y2="240.67632255840468" stroke="#648FFF" stroke-width="2"/>
</svg>