<svg viewBox="0 0 1000 600" xmlns="http://www.w3.org/2000/svg" xmlns:xlink="http://www.w3.org/1999/xlink" width="100%" height="100%">

<rect x="50.0" y="30.0" width="940.0" height="467.99999999999994" stroke="#000" fill="#EEE"/>
<line x1="42.0" y1="497.9999999999999" x2="50.0" y2="497.9999999999999" stroke="#000"/>
<text x="26.000000000000004" y="497.9999999999999" text-anchor="end" font-weight="bold" font-size="small" fill="#111">
0.0
</text>
<line x1="42.0" y1="454.8612898848199" x2="50.0" y2="454.8612898848199" stroke="#000"/>
<text x="26.000000000000004" y="454.8612898848199" text-anchor="end" font-weight="bold" font-size="small" fill="#111">
2.0
</text>
<line x1="42.0" y1="411.72257976964" x2="50.0" y2="411.72257976964" stroke="#000"/>
<text x="26.000000000000004" y="411.72257976964" text-anchor="end" font-weight="bold" font-size="small" fill="#111">
4.0
</text>
<line x1="42.0" y1="368.5838696544598" x2="50.0" y2="368.5838696544598" stroke="#000"/>
<text x="26.000000000000004" y="368.5838696544598" text-anchor="end" font-weight="bold" font-size="small" fill="#111">
6.0
</text>
<line x1="42.0" y1="325.4451595392799" x2="50.0" y2="325.4451595392799" stroke="#000"/>
<text x="26.000000000000004" y="325.4451595392799" text-anchor="end" font-weight="bold" font-size="small" fill="#111">
8.0
</text>
<line x1="42.0" y1="282.30644942409987" x2="50.0" y2="282.30644942409987" stroke="#000"/>
<text x="26.000000000000004" y="282.30644942409987" text-anchor="end" font-weight="bold" font-size="small" fill="#111">
10.0
</text>
<line x1="42.0" y1="239.16773930891986" x2="50.0" y2="239.16773930891986" stroke="#000"/>
<text x="26.000000000000004" y="239.16773930891986" text-anchor="end" font-weight="bold" font-size="small" fill="#111">
12.0
</text>
<line x1="42.0" y1="196.0290291937399" x2="50.0" y2="196.0290291937399" stroke="#000"/>
<text x="26.000000000000004" y="196.0290291937399" text-anchor="end" font-weight="bold" font-size="small" fill="#111">
14.0
</text>
<line x1="42.0" y1="152.89031907855986" x2="50.0" y2="152.89031907855986" stroke="#000"/>
<text x="26.000000000000004" y="152.89031907855986" text-anchor="end" font-weight="bold" font-size="small" fill="#111">
16.0
</text>
<line x1="42.0" y1="109.75160896337981" x2="50.0" y2="109.75160896337981" stroke="#000"/>
<text x="26.000000000000004" y="109.75160896337981" text-anchor="end" font-weight="bold" font-size="small" fill="#111">
18.0
</text>
<rect x="268.5" y="36.00000000000001" width="80.0" height="18.0" fill="#7070f8" stroke="#888"/>
<text x="308.5" y="52.50000000000001" font-size="small" text-anchor="middle" font-weight="bold" fill="#EEE">
No JIT
</text>
<rect x="691.4999999999999" y="36.00000000000001" width="80.0" height="18.0" fill="orange" stroke="#888"/>
<text x="731.4999999999999" y="52.50000000000001" font-size="small" text-anchor="middle" font-weight="bold" fill="#EEE">
YJIT
</text>
<rect x="97.0" y="476.43064494240997" width="23.499999999999996" height="21.569355057590002" fill="#7070f8" data-tooltip="1.00x baseline speed (No JIT)"/>
<line x1="97.0" y1="476.42939367112007" x2="120.5" y2="476.42939367112007" stroke="#000"/>
<line x1="97.0" y1="476.4318962136999" x2="120.5" y2="476.4318962136999" stroke="#000"/>
<line x1="108.75" y1="476.42939367112007" x2="108.75" y2="476.4318962136999" stroke="#000"/>
<rect x="120.5" y="352.14600725409383" width="23.499999999999996" height="145.85399274590617" fill="orange" data-tooltip="6.76x baseline speed (YJIT)"/>
<line x1="120.5" y1="352.0605906344049" x2="144.0" y2="352.0605906344049" stroke="#000"/>
<line x1="120.5" y1="352.2314238737827" x2="144.0" y2="352.2314238737827" stroke="#000"/>
<line x1="132.25" y1="352.0605906344049" x2="132.25" y2="352.2314238737827" stroke="#000"/>
<line x1="132.25" y1="498.0" x2="132.25" y2="502.79999999999995" stroke="#000"/>
<text x="132.25" y="512.4" fill="#111" font-size="small" font-family="monospace" font-weight="bold" text-anchor="end" transform="rotate(-60, 132.25, 512.4)">
30k_ifelse
</text>
<rect x="167.49999999999997" y="476.43064494240997" width="23.499999999999996" height="21.569355057590002" fill="#7070f8" data-tooltip="1.00x baseline speed (No JIT)"/>
<line x1="167.49999999999997" y1="476.4300300459421" x2="190.99999999999997" y2="476.4300300459421" stroke="#000"/>
<line x1="167.49999999999997" y1="476.43125983887785" x2="190.99999999999997" y2="476.43125983887785" stroke="#000"/>
<line x1="179.25" y1="476.4300300459421" x2="179.25" y2="476.43125983887785" stroke="#000"/>
<rect x="190.99999999999997" y="321.39458770137554" width="23.499999999999996" height="176.60541229862437" fill="orange" data-tooltip="8.19x baseline speed (YJIT)"/>
<line x1="190.99999999999997" y1="321.36725220394095" x2="214.49999999999997" y2="321.36725220394095" stroke="#000"/>
<line x1="190.99999999999997" y1="321.4219231988102" x2="214.49999999999997" y2="321.4219231988102" stroke="#000"/>
<line x1="202.75" y1="321.36725220394095" x2="202.75" y2="321.4219231988102" stroke="#000"/>
<line x1="202.75" y1="498.0" x2="202.75" y2="502.79999999999995" stroke="#000"/>
<text x="202.75" y="512.4" fill="#111" font-size="small" font-family="monospace" font-weight="bold" text-anchor="end" transform="rotate(-60, 202.75, 512.4)">
30k_methods
</text>
<rect x="238.0" y="476.43064494240997" width="23.499999999999996" height="21.569355057590002" fill="#7070f8" data-tooltip="1.00x baseline speed (No JIT)"/>
<line x1="238.0" y1="476.3569035558927" x2="261.5" y2="476.3569035558927" stroke="#000"/>
<line x1="238.0" y1="476.50438632892724" x2="261.5" y2="476.50438632892724" stroke="#000"/>
<line x1="249.75" y1="476.3569035558927" x2="249.75" y2="476.50438632892724" stroke="#000"/>
<rect x="261.5" y="405.212546416371" width="23.499999999999996" height="92.78745358362887" fill="orange" data-tooltip="4.30x baseline speed (YJIT)"/>
<line x1="261.5" y1="404.8829754503541" x2="285.00000000000006" y2="404.8829754503541" stroke="#000"/>
<line x1="261.5" y1="405.54211738238797" x2="285.00000000000006" y2="405.54211738238797" stroke="#000"/>
<line x1="273.25" y1="404.8829754503541" x2="273.25" y2="405.54211738238797" stroke="#000"/>
<line x1="273.25" y1="498.0" x2="273.25" y2="502.79999999999995" stroke="#000"/>
<text x="273.25" y="512.4" fill="#111" font-size="small" font-family="monospace" font-weight="bold" text-anchor="end" transform="rotate(-60, 273.25, 512.4)">
cfunc_itself
</text>
<rect x="308.5" y="476.43064494240997" width="23.499999999999996" height="21.569355057590002" fill="#7070f8" data-tooltip="1.00x baseline speed (No JIT)"/>
<line x1="308.5" y1="476.424682126741" x2="332.0" y2="476.424682126741" stroke="#000"/>
<line x1="308.5" y1="476.43660775807894" x2="332.0" y2="476.43660775807894" stroke="#000"/>
<line x1="320.25" y1="476.424682126741" x2="320.25" y2="476.43660775807894" stroke="#000"/>
<rect x="332.0" y="366.5047836041008" width="23.499999999999996" height="131.49521639589915" fill="orange" data-tooltip="6.10x baseline speed (YJIT)"/>
<line x1="332.0" y1="366.42694876066804" x2="355.50000000000006" y2="366.42694876066804" stroke="#000"/>
<line x1="332.0" y1="366.58261844753355" x2="355.50000000000006" y2="366.58261844753355" stroke="#000"/>
<line x1="343.75" y1="366.42694876066804" x2="343.75" y2="366.58261844753355" stroke="#000"/>
<line x1="343.75" y1="498.0" x2="343.75" y2="502.79999999999995" stroke="#000"/>
<text x="343.75" y="512.4" fill="#111" font-size="small" font-family="monospace" font-weight="bold" text-anchor="end" transform="rotate(-60, 343.75, 512.4)">
fib
</text>
<rect x="379.0" y="476.43064494240997" width="23.499999999999996" height="21.569355057590002" fill="#7070f8" data-tooltip="1.00x baseline speed (No JIT)"/>
<line x1="379.0" y1="476.4056263396895" x2="402.5" y2="476.4056263396895" stroke="#000"/>
<line x1="379.0" y1="476.45566354513045" x2="402.5" y2="476.45566354513045" stroke="#000"/>
<line x1="390.75" y1="476.4056263396895" x2="390.75" y2="476.45566354513045" stroke="#000"/>
<rect x="402.5" y="369.9122514362602" width="23.499999999999996" height="128.08774856373972" fill="orange" data-tooltip="5.94x baseline speed (YJIT)"/>
<line x1="402.5" y1="367.03500751347883" x2="426.00000000000006" y2="367.03500751347883" stroke="#000"/>
<line x1="402.5" y1="372.78949535904155" x2="426.00000000000006" y2="372.78949535904155" stroke="#000"/>
<line x1="414.25" y1="367.03500751347883" x2="414.25" y2="372.78949535904155" stroke="#000"/>
<line x1="414.25" y1="498.0" x2="414.25" y2="502.79999999999995" stroke="#000"/>
<text x="414.25" y="512.4" fill="#111" font-size="small" font-family="monospace" font-weight="bold" text-anchor="end" transform="rotate(-60, 414.25, 512.4)">
getivar
</text>
<rect x="449.5" y="476.43064494240997" width="23.499999999999996" height="21.569355057590002" fill="#7070f8" data-tooltip="1.00x baseline speed (No JIT)"/>
<line x1="449.5" y1="476.42344249865" x2="473.00000000000006" y2="476.42344249865" stroke="#000"/>
<line x1="449.5" y1="476.43784738616995" x2="473.00000000000006" y2="476.43784738616995" stroke="#000"/>
<line x1="461.25" y1="476.42344249865" x2="461.25" y2="476.43784738616995" stroke="#000"/>
<rect x="473.00000000000006" y="315.97586331610415" width="23.499999999999996" height="182.02413668389576" fill="orange" data-tooltip="8.44x baseline speed (YJIT)"/>
<line x1="473.00000000000006" y1="315.4847209966445" x2="496.50000000000006" y2="315.4847209966445" stroke="#000"/>
<line x1="473.00000000000006" y1="316.4670056355638" x2="496.50000000000006" y2="316.4670056355638" stroke="#000"/>
<line x1="484.75" y1="315.4847209966445" x2="484.75" y2="316.4670056355638" stroke="#000"/>
<line x1="484.75" y1="498.0" x2="484.75" y2="502.79999999999995" stroke="#000"/>
<text x="484.75" y="512.4" fill="#111" font-size="small" font-family="monospace" font-weight="bold" text-anchor="end" transform="rotate(-60, 484.75, 512.4)">
keyword_args
</text>
<rect x="519.9999999999999" y="476.43064494240997" width="23.499999999999996" height="21.569355057590002" fill="#7070f8" data-tooltip="1.00x baseline speed (No JIT)"/>
<line x1="519.9999999999999" y1="476.34768339565005" x2="543.4999999999999" y2="476.34768339565005" stroke="#000"/>
<line x1="519.9999999999999" y1="476.51360648916983" x2="543.4999999999999" y2="476.51360648916983" stroke="#000"/>
<line x1="531.75" y1="476.34768339565005" x2="531.75" y2="476.51360648916983" stroke="#000"/>
<rect x="543.4999999999999" y="100.19999999999999" width="23.499999999999996" height="397.79999999999995" fill="orange" data-tooltip="18.44x baseline speed (YJIT)"/>
<line x1="543.4999999999999" y1="98.60905230430393" x2="566.9999999999999" y2="98.60905230430393" stroke="#000"/>
<line x1="543.4999999999999" y1="101.79094769569605" x2="566.9999999999999" y2="101.79094769569605" stroke="#000"/>
<line x1="555.2499999999999" y1="98.60905230430393" x2="555.2499999999999" y2="101.79094769569605" stroke="#000"/>
<line x1="555.2499999999999" y1="498.0" x2="555.2499999999999" y2="502.79999999999995" stroke="#000"/>
<text x="555.2499999999999" y="512.4" fill="#111" font-size="small" font-family="monospace" font-weight="bold" text-anchor="end" transform="rotate(-60, 555.2499999999999, 512.4)">
respond_to
</text>
<rect x="590.4999999999999" y="476.43064494240997" width="23.499999999999996" height="21.569355057590002" fill="#7070f8" data-tooltip="1.00x baseline speed (No JIT)"/>
<line x1="590.4999999999999" y1="476.35992403749236" x2="613.9999999999999" y2="476.35992403749236" stroke="#000"/>
<line x1="590.4999999999999" y1="476.5013658473276" x2="613.9999999999999" y2="476.5013658473276" stroke="#000"/>
<line x1="602.25" y1="476.35992403749236" x2="602.25" y2="476.5013658473276" stroke="#000"/>
<rect x="613.9999999999999" y="355.0555416305928" width="23.499999999999996" height="142.94445836940707" fill="orange" data-tooltip="6.63x baseline speed (YJIT)"/>
<line x1="613.9999999999999" y1="354.5451934907709" x2="637.4999999999999" y2="354.5451934907709" stroke="#000"/>
<line x1="613.9999999999999" y1="355.56588977041474" x2="637.4999999999999" y2="355.56588977041474" stroke="#000"/>
<line x1="625.7499999999999" y1="354.5451934907709" x2="625.7499999999999" y2="355.56588977041474" stroke="#000"/>
<line x1="625.7499999999999" y1="498.0" x2="625.7499999999999" y2="502.79999999999995" stroke="#000"/>
<text x="625.7499999999999" y="512.4" fill="#111" font-size="small" font-family="monospace" font-weight="bold" text-anchor="end" transform="rotate(-60, 625.7499999999999, 512.4)">
setivar
</text>
<rect x="660.9999999999999" y="476.43064494240997" width="23.499999999999996" height="21.569355057590002" fill="#7070f8" data-tooltip="1.00x baseline speed (No JIT)"/>
<line x1="660.9999999999999" y1="476.3697245260761" x2="684.4999999999999" y2="476.3697245260761" stroke="#000"/>
<line x1="660.9999999999999" y1="476.49156535874386" x2="684.4999999999999" y2="476.49156535874386" stroke="#000"/>
<line x1="672.75" y1="476.3697245260761" x2="672.75" y2="476.49156535874386" stroke="#000"/>
<rect x="684.4999999999999" y="444.8312658983672" width="23.499999999999996" height="53.16873410163275" fill="orange" data-tooltip="2.47x baseline speed (YJIT)"/>
<line x1="684.4999999999999" y1="444.6801419239471" x2="707.9999999999999" y2="444.6801419239471" stroke="#000"/>
<line x1="684.4999999999999" y1="444.9823898727873" x2="707.9999999999999" y2="444.9823898727873" stroke="#000"/>
<line x1="696.2499999999999" y1="444.6801419239471" x2="696.2499999999999" y2="444.9823898727873" stroke="#000"/>
<line x1="696.2499999999999" y1="498.0" x2="696.2499999999999" y2="502.79999999999995" stroke="#000"/>
<text x="696.2499999999999" y="512.4" fill="#111" font-size="small" font-family="monospace" font-weight="bold" text-anchor="end" transform="rotate(-60, 696.2499999999999, 512.4)">
setivar_object
</text>
<rect x="731.4999999999999" y="476.43064494240997" width="23.499999999999996" height="21.569355057590002" fill="#7070f8" data-tooltip="1.00x baseline speed (No JIT)"/>
<line x1="731.4999999999999" y1="475.7944914782581" x2="754.9999999999999" y2="475.7944914782581" stroke="#000"/>
<line x1="731.4999999999999" y1="477.0667984065618" x2="754.9999999999999" y2="477.0667984065618" stroke="#000"/>
<line x1="743.25" y1="475.7944914782581" x2="743.25" y2="477.0667984065618" stroke="#000"/>
<rect x="754.9999999999999" y="444.5798051279072" width="23.499999999999996" height="53.420194872092814" fill="orange" data-tooltip="2.48x baseline speed (YJIT)"/>
<line x1="754.9999999999999" y1="442.7159304966327" x2="778.4999999999999" y2="442.7159304966327" stroke="#000"/>
<line x1="754.9999999999999" y1="446.4436797591817" x2="778.4999999999999" y2="446.4436797591817" stroke="#000"/>
<line x1="766.7499999999999" y1="442.7159304966327" x2="766.7499999999999" y2="446.4436797591817" stroke="#000"/>
<line x1="766.7499999999999" y1="498.0" x2="766.7499999999999" y2="502.79999999999995" stroke="#000"/>
<text x="766.7499999999999" y="512.4" fill="#111" font-size="small" font-family="monospace" font-weight="bold" text-anchor="end" transform="rotate(-60, 766.7499999999999, 512.4)">
setivar_young
</text>
<rect x="801.9999999999999" y="476.43064494240997" width="23.499999999999996" height="21.569355057590002" fill="#7070f8" data-tooltip="1.00x baseline speed (No JIT)"/>
<line x1="801.9999999999999" y1="476.399646249464" x2="825.4999999999999" y2="476.399646249464" stroke="#000"/>
<line x1="801.9999999999999" y1="476.4616436353559" x2="825.4999999999999" y2="476.4616436353559" stroke="#000"/>
<line x1="813.75" y1="476.399646249464" x2="813.75" y2="476.4616436353559" stroke="#000"/>
<rect x="825.4999999999999" y="454.01436142483465" width="23.499999999999996" height="43.985638575165254" fill="orange" data-tooltip="2.04x baseline speed (YJIT)"/>
<line x1="825.4999999999999" y1="453.8303847557928" x2="848.9999999999999" y2="453.8303847557928" stroke="#000"/>
<line x1="825.4999999999999" y1="454.1983380938765" x2="848.9999999999999" y2="454.1983380938765" stroke="#000"/>
<line x1="837.2499999999999" y1="453.8303847557928" x2="837.2499999999999" y2="454.1983380938765" stroke="#000"/>
<line x1="837.2499999999999" y1="498.0" x2="837.2499999999999" y2="502.79999999999995" stroke="#000"/>
<text x="837.2499999999999" y="512.4" fill="#111" font-size="small" font-family="monospace" font-weight="bold" text-anchor="end" transform="rotate(-60, 837.2499999999999, 512.4)">
str_concat
</text>
<rect x="872.4999999999999" y="476.43064494240997" width="23.499999999999996" height="21.569355057590002" fill="#7070f8" data-tooltip="1.00x baseline speed (No JIT)"/>
<line x1="872.4999999999999" y1="476.39068885907767" x2="895.9999999999999" y2="476.39068885907767" stroke="#000"/>
<line x1="872.4999999999999" y1="476.47060102574227" x2="895.9999999999999" y2="476.47060102574227" stroke="#000"/>
<line x1="884.25" y1="476.39068885907767" x2="884.25" y2="476.47060102574227" stroke="#000"/>
<rect x="895.9999999999999" y="470.7928134198486" width="23.499999999999996" height="27.207186580151305" fill="orange" data-tooltip="1.26x baseline speed (YJIT)"/>
<line x1="895.9999999999999" y1="470.70081209316237" x2="919.4999999999999" y2="470.70081209316237" stroke="#000"/>
<line x1="895.9999999999999" y1="470.88481474653486" x2="919.4999999999999" y2="470.88481474653486" stroke="#000"/>
<line x1="907.75" y1="470.70081209316237" x2="907.75" y2="470.88481474653486" stroke="#000"/>
<line x1="907.75" y1="498.0" x2="907.75" y2="502.79999999999995" stroke="#000"/>
<text x="907.75" y="512.4" fill="#111" font-size="small" font-family="monospace" font-weight="bold" text-anchor="end" transform="rotate(-60, 907.75, 512.4)">
throw
</text>
</svg>