<svg viewBox="0 0 1000 600" xmlns="http://www.w3.org/2000/svg" xmlns:xlink="http://www.w3.org/1999/xlink" width="100%" height="100%">

<rect x="50.0" y="30.0" width="940.0" height="467.99999999999994" stroke="#000" fill="#EEE"/>
<line x1="42.0" y1="497.9999999999999" x2="50.0" y2="497.9999999999999" stroke="#000"/>
<text x="26.000000000000004" y="497.9999999999999" text-anchor="end" font-weight="bold" font-size="small" fill="#111">
0.0
</text>
<line x1="42.0" y1="454.4660445629815" x2="50.0" y2="454.4660445629815" stroke="#000"/>
<text x="26.000000000000004" y="454.4660445629815" text-anchor="end" font-weight="bold" font-size="small" fill="#111">
0.2
</text>
<line x1="42.0" y1="410.932089125963" x2="50.0" y2="410.932089125963" stroke="#000"/>
<text x="26.000000000000004" y="410.932089125963" text-anchor="end" font-weight="bold" font-size="small" fill="#111">
0.4
</text>
<line x1="42.0" y1="367.39813368894454" x2="50.0" y2="367.39813368894454" stroke="#000"/>
<text x="26.000000000000004" y="367.39813368894454" text-anchor="end" font-weight="bold" font-size="small" fill="#111">
0.6
</text>
<line x1="42.0" y1="323.8641782519261" x2="50.0" y2="323.8641782519261" stroke="#000"/>
<text x="26.000000000000004" y="323.8641782519261" text-anchor="end" font-weight="bold" font-size="small" fill="#111">
0.8
</text>
<line x1="42.0" y1="280.33022281490764" x2="50.0" y2="280.33022281490764" stroke="#000"/>
<text x="26.000000000000004" y="280.33022281490764" text-anchor="end" font-weight="bold" font-size="small" fill="#111">
1.0
</text>
<line x1="42.0" y1="236.79626737788917" x2="50.0" y2="236.79626737788917" stroke="#000"/>
<text x="26.000000000000004" y="236.79626737788917" text-anchor="end" font-weight="bold" font-size="small" fill="#111">
1.2
</text>
<line x1="42.0" y1="193.26231194087072" x2="50.0" y2="193.26231194087072" stroke="#000"/>
<text x="26.000000000000004" y="193.26231194087072" text-anchor="end" font-weight="bold" font-size="small" fill="#111">
1.4
</text>
<line x1="42.0" y1="149.72835650385224" x2="50.0" y2="149.72835650385224" stroke="#000"/>
<text x="26.000000000000004" y="149.72835650385224" text-anchor="end" font-weight="bold" font-size="small" fill="#111">
1.6
</text>
<line x1="42.0" y1="106.19440106683378" x2="50.0" y2="106.19440106683378" stroke="#000"/>
<text x="26.000000000000004" y="106.19440106683378" text-anchor="end" font-weight="bold" font-size="small" fill="#111">
1.8
</text>
<rect x="268.5" y="36.00000000000001" width="80.0" height="18.0" fill="#7070f8" stroke="#888"/>
<text x="308.5" y="52.50000000000001" font-size="small" text-anchor="middle" font-weight="bold" fill="#EEE">
No JIT
</text>
<rect x="691.4999999999999" y="36.00000000000001" width="80.0" height="18.0" fill="orange" stroke="#888"/>
<text x="731.4999999999999" y="52.50000000000001" font-size="small" text-anchor="middle" font-weight="bold" fill="#EEE">
YJIT
</text>
<rect x="97.0" y="280.33022281490764" width="21.69230769230769" height="217.66977718509233" fill="#7070f8" data-tooltip="1.00x baseline speed (No JIT)"/>
<line x1="97.0" y1="276.74961668128896" x2="118.6923076923077" y2="276.74961668128896" stroke="#000"/>
<line x1="97.0" y1="283.9108289485263" x2="118.6923076923077" y2="283.9108289485263" stroke="#000"/>
<line x1="107.84615384615384" y1="276.74961668128896" x2="107.84615384615384" y2="283.9108289485263" stroke="#000"/>
<rect x="118.6923076923077" y="167.5197800821352" width="21.69230769230769" height="330.48021991786476" fill="orange" data-tooltip="1.52x baseline speed (YJIT)"/>
<line x1="118.6923076923077" y1="156.92809044076742" x2="140.3846153846154" y2="156.92809044076742" stroke="#000"/>
<line x1="118.6923076923077" y1="178.111469723503" x2="140.3846153846154" y2="178.111469723503" stroke="#000"/>
<line x1="129.53846153846155" y1="156.92809044076742" x2="129.53846153846155" y2="178.111469723503" stroke="#000"/>
<line x1="129.53846153846155" y1="498.0" x2="129.53846153846155" y2="502.79999999999995" stroke="#000"/>
<text x="129.53846153846155" y="512.4" fill="#111" font-size="small" font-family="monospace" font-weight="bold" text-anchor="end" transform="rotate(-60, 129.53846153846155, 512.4)">
activerecord
</text>
<rect x="162.07692307692307" y="280.33022281490764" width="21.69230769230769" height="217.66977718509233" fill="#7070f8" data-tooltip="1.00x baseline speed (No JIT)"/>
<line x1="162.07692307692307" y1="279.7021746675991" x2="183.76923076923075" y2="279.7021746675991" stroke="#000"/>
<line x1="162.07692307692307" y1="280.95827096221615" x2="183.76923076923075" y2="280.95827096221615" stroke="#000"/>
<line x1="172.9230769230769" y1="279.7021746675991" x2="172.9230769230769" y2="280.95827096221615" stroke="#000"/>
<rect x="183.76923076923075" y="123.87474564071638" width="21.69230769230769" height="374.1252543592836" fill="orange" data-tooltip="1.72x baseline speed (YJIT)"/>
<line x1="183.76923076923075" y1="122.05179384660609" x2="205.46153846153842" y2="122.05179384660609" stroke="#000"/>
<line x1="183.76923076923075" y1="125.69769743482667" x2="205.46153846153842" y2="125.69769743482667" stroke="#000"/>
<line x1="194.61538461538458" y1="122.05179384660609" x2="194.61538461538458" y2="125.69769743482667" stroke="#000"/>
<line x1="194.6153846153846" y1="498.0" x2="194.6153846153846" y2="502.79999999999995" stroke="#000"/>
<text x="194.6153846153846" y="512.4" fill="#111" font-size="small" font-family="monospace" font-weight="bold" text-anchor="end" transform="rotate(-60, 194.6153846153846, 512.4)">
chunky-png
</text>
<rect x="227.15384615384616" y="280.33022281490764" width="21.69230769230769" height="217.66977718509233" fill="#7070f8" data-tooltip="1.00x baseline speed (No JIT)"/>
<line x1="227.15384615384616" y1="279.1278442198673" x2="248.84615384615384" y2="279.1278442198673" stroke="#000"/>
<line x1="227.15384615384616" y1="281.5326014099479" x2="248.84615384615384" y2="281.5326014099479" stroke="#000"/>
<line x1="238.0" y1="279.1278442198673" x2="238.0" y2="281.5326014099479" stroke="#000"/>
<rect x="248.84615384615384" y="164.87076521199327" width="21.69230769230769" height="333.1292347880067" fill="orange" data-tooltip="1.53x baseline speed (YJIT)"/>
<line x1="248.84615384615384" y1="161.6648705878925" x2="270.5384615384615" y2="161.6648705878925" stroke="#000"/>
<line x1="248.84615384615384" y1="168.07665983609405" x2="270.5384615384615" y2="168.07665983609405" stroke="#000"/>
<line x1="259.6923076923077" y1="161.6648705878925" x2="259.6923076923077" y2="168.07665983609405" stroke="#000"/>
<line x1="259.6923076923077" y1="498.0" x2="259.6923076923077" y2="502.79999999999995" stroke="#000"/>
<text x="259.6923076923077" y="512.4" fill="#111" font-size="small" font-family="monospace" font-weight="bold" text-anchor="end" transform="rotate(-60, 259.6923076923077, 512.4)">
erubi-rails
</text>
<rect x="292.23076923076917" y="280.33022281490764" width="21.69230769230769" height="217.66977718509233" fill="#7070f8" data-tooltip="1.00x baseline speed (No JIT)"/>
<line x1="292.23076923076917" y1="279.0675891098824" x2="313.92307692307685" y2="279.0675891098824" stroke="#000"/>
<line x1="292.23076923076917" y1="281.5928565199328" x2="313.92307692307685" y2="281.5928565199328" stroke="#000"/>
<line x1="303.07692307692304" y1="279.0675891098824" x2="303.07692307692304" y2="281.5928565199328" stroke="#000"/>
<rect x="313.92307692307685" y="161.2342197310415" width="21.69230769230769" height="336.7657802689585" fill="orange" data-tooltip="1.55x baseline speed (YJIT)"/>
<line x1="313.92307692307685" y1="155.212140819621" x2="335.6153846153845" y2="155.212140819621" stroke="#000"/>
<line x1="313.92307692307685" y1="167.25629864246196" x2="335.6153846153845" y2="167.25629864246196" stroke="#000"/>
<line x1="324.7692307692307" y1="155.212140819621" x2="324.7692307692307" y2="167.25629864246196" stroke="#000"/>
<line x1="324.7692307692307" y1="498.0" x2="324.7692307692307" y2="502.79999999999995" stroke="#000"/>
<text x="324.7692307692307" y="512.4" fill="#111" font-size="small" font-family="monospace" font-weight="bold" text-anchor="end" transform="rotate(-60, 324.7692307692307, 512.4)">
hexapdf
</text>
<rect x="357.3076923076923" y="280.33022281490764" width="21.69230769230769" height="217.66977718509233" fill="#7070f8" data-tooltip="1.00x baseline speed (No JIT)"/>
<line x1="357.3076923076923" y1="279.0912634151701" x2="379.0" y2="279.0912634151701" stroke="#000"/>
<line x1="357.3076923076923" y1="281.56918221464514" x2="379.0" y2="281.56918221464514" stroke="#000"/>
<line x1="368.1538461538462" y1="279.0912634151701" x2="368.1538461538462" y2="281.56918221464514" stroke="#000"/>
<rect x="379.0" y="224.52130164260754" width="21.69230769230769" height="273.4786983573924" fill="orange" data-tooltip="1.26x baseline speed (YJIT)"/>
<line x1="379.0" y1="221.87045086182437" x2="400.6923076923077" y2="221.87045086182437" stroke="#000"/>
<line x1="379.0" y1="227.17215242339074" x2="400.6923076923077" y2="227.17215242339074" stroke="#000"/>
<line x1="389.84615384615387" y1="221.87045086182437" x2="389.84615384615387" y2="227.17215242339074" stroke="#000"/>
<line x1="389.84615384615387" y1="498.0" x2="389.84615384615387" y2="502.79999999999995" stroke="#000"/>
<text x="389.84615384615387" y="512.4" fill="#111" font-size="small" font-family="monospace" font-weight="bold" text-anchor="end" transform="rotate(-60, 389.84615384615387, 512.4)">
liquid-c
</text>
<rect x="422.38461538461536" y="280.33022281490764" width="21.69230769230769" height="217.66977718509233" fill="#7070f8" data-tooltip="1.00x baseline speed (No JIT)"/>
<line x1="422.38461538461536" y1="280.1825650900007" x2="444.07692307692304" y2="280.1825650900007" stroke="#000"/>
<line x1="422.38461538461536" y1="280.4778805398146" x2="444.07692307692304" y2="280.4778805398146" stroke="#000"/>
<line x1="433.23076923076917" y1="280.1825650900007" x2="433.23076923076917" y2="280.4778805398146" stroke="#000"/>
<rect x="444.07692307692304" y="229.42785715893012" width="21.69230769230769" height="268.5721428410698" fill="orange" data-tooltip="1.23x baseline speed (YJIT)"/>
<line x1="444.07692307692304" y1="229.11109532052228" x2="465.7692307692307" y2="229.11109532052228" stroke="#000"/>
<line x1="444.07692307692304" y1="229.74461899733797" x2="465.7692307692307" y2="229.74461899733797" stroke="#000"/>
<line x1="454.92307692307685" y1="229.11109532052228" x2="454.92307692307685" y2="229.74461899733797" stroke="#000"/>
<line x1="454.92307692307685" y1="498.0" x2="454.92307692307685" y2="502.79999999999995" stroke="#000"/>
<text x="454.92307692307685" y="512.4" fill="#111" font-size="small" font-family="monospace" font-weight="bold" text-anchor="end" transform="rotate(-60, 454.92307692307685, 512.4)">
liquid-compile
</text>
<rect x="487.4615384615384" y="280.33022281490764" width="21.69230769230769" height="217.66977718509233" fill="#7070f8" data-tooltip="1.00x baseline speed (No JIT)"/>
<line x1="487.4615384615384" y1="279.8615732366256" x2="509.1538461538461" y2="279.8615732366256" stroke="#000"/>
<line x1="487.4615384615384" y1="280.7988723931897" x2="509.1538461538461" y2="280.7988723931897" stroke="#000"/>
<line x1="498.3076923076922" y1="279.8615732366256" x2="498.3076923076922" y2="280.7988723931897" stroke="#000"/>
<rect x="509.1538461538461" y="100.19999999999999" width="21.69230769230769" height="397.79999999999995" fill="orange" data-tooltip="1.83x baseline speed (YJIT)"/>
<line x1="509.1538461538461" y1="98.32285878356267" x2="530.8461538461537" y2="98.32285878356267" stroke="#000"/>
<line x1="509.1538461538461" y1="102.07714121643731" x2="530.8461538461537" y2="102.07714121643731" stroke="#000"/>
<line x1="519.9999999999999" y1="98.32285878356267" x2="519.9999999999999" y2="102.07714121643731" stroke="#000"/>
<line x1="519.9999999999999" y1="498.0" x2="519.9999999999999" y2="502.79999999999995" stroke="#000"/>
<text x="519.9999999999999" y="512.4" fill="#111" font-size="small" font-family="monospace" font-weight="bold" text-anchor="end" transform="rotate(-60, 519.9999999999999, 512.4)">
liquid-render
</text>
<rect x="552.5384615384615" y="280.33022281490764" width="21.69230769230769" height="217.66977718509233" fill="#7070f8" data-tooltip="1.00x baseline speed (No JIT)"/>
<line x1="552.5384615384615" y1="276.21320769159183" x2="574.2307692307692" y2="276.21320769159183" stroke="#000"/>
<line x1="552.5384615384615" y1="284.4472379382234" x2="574.2307692307692" y2="284.4472379382234" stroke="#000"/>
<line x1="563.3846153846154" y1="276.21320769159183" x2="563.3846153846154" y2="284.4472379382234" stroke="#000"/>
<rect x="574.2307692307692" y="195.23106505314522" width="21.69230769230769" height="302.7689349468547" fill="orange" data-tooltip="1.39x baseline speed (YJIT)"/>
<line x1="574.2307692307692" y1="186.29148838750993" x2="595.9230769230769" y2="186.29148838750993" stroke="#000"/>
<line x1="574.2307692307692" y1="204.1706417187805" x2="595.9230769230769" y2="204.1706417187805" stroke="#000"/>
<line x1="585.0769230769231" y1="186.29148838750993" x2="585.0769230769231" y2="204.1706417187805" stroke="#000"/>
<line x1="585.0769230769231" y1="498.0" x2="585.0769230769231" y2="502.79999999999995" stroke="#000"/>
<text x="585.0769230769231" y="512.4" fill="#111" font-size="small" font-family="monospace" font-weight="bold" text-anchor="end" transform="rotate(-60, 585.0769230769231, 512.4)">
lobsters
</text>
<rect x="617.6153846153845" y="280.33022281490764" width="21.69230769230769" height="217.66977718509233" fill="#7070f8" data-tooltip="1.00x baseline speed (No JIT)"/>
<line x1="617.6153846153845" y1="280.00349256171785" x2="639.3076923076923" y2="280.00349256171785" stroke="#000"/>
<line x1="617.6153846153845" y1="280.65695306809744" x2="639.3076923076923" y2="280.65695306809744" stroke="#000"/>
<line x1="628.4615384615385" y1="280.00349256171785" x2="628.4615384615385" y2="280.65695306809744" stroke="#000"/>
<rect x="639.3076923076923" y="200.10792082179321" width="21.69230769230769" height="297.89207917820676" fill="orange" data-tooltip="1.37x baseline speed (YJIT)"/>
<line x1="639.3076923076923" y1="199.3789190762485" x2="660.9999999999999" y2="199.3789190762485" stroke="#000"/>
<line x1="639.3076923076923" y1="200.8369225673379" x2="660.9999999999999" y2="200.8369225673379" stroke="#000"/>
<line x1="650.1538461538461" y1="199.3789190762485" x2="650.1538461538461" y2="200.8369225673379" stroke="#000"/>
<line x1="650.1538461538461" y1="498.0" x2="650.1538461538461" y2="502.79999999999995" stroke="#000"/>
<text x="650.1538461538461" y="512.4" fill="#111" font-size="small" font-family="monospace" font-weight="bold" text-anchor="end" transform="rotate(-60, 650.1538461538461, 512.4)">
mail
</text>
<rect x="682.6923076923076" y="280.33022281490764" width="21.69230769230769" height="217.66977718509233" fill="#7070f8" data-tooltip="1.00x baseline speed (No JIT)"/>
<line x1="682.6923076923076" y1="279.99224905732615" x2="704.3846153846152" y2="279.99224905732615" stroke="#000"/>
<line x1="682.6923076923076" y1="280.6681965724891" x2="704.3846153846152" y2="280.6681965724891" stroke="#000"/>
<line x1="693.5384615384614" y1="279.99224905732615" x2="693.5384615384614" y2="280.6681965724891" stroke="#000"/>
<rect x="704.3846153846152" y="164.72627052267697" width="21.69230769230769" height="333.27372947732295" fill="orange" data-tooltip="1.53x baseline speed (YJIT)"/>
<line x1="704.3846153846152" y1="164.08966656468428" x2="726.076923076923" y2="164.08966656468428" stroke="#000"/>
<line x1="704.3846153846152" y1="165.36287448066966" x2="726.076923076923" y2="165.36287448066966" stroke="#000"/>
<line x1="715.2307692307692" y1="164.08966656468428" x2="715.2307692307692" y2="165.36287448066966" stroke="#000"/>
<line x1="715.2307692307692" y1="498.0" x2="715.2307692307692" y2="502.79999999999995" stroke="#000"/>
<text x="715.2307692307692" y="512.4" fill="#111" font-size="small" font-family="monospace" font-weight="bold" text-anchor="end" transform="rotate(-60, 715.2307692307692, 512.4)">
psych-load
</text>
<rect x="747.7692307692307" y="280.33022281490764" width="21.69230769230769" height="217.66977718509233" fill="#7070f8" data-tooltip="1.00x baseline speed (No JIT)"/>
<line x1="747.7692307692307" y1="279.43569110932725" x2="769.4615384615385" y2="279.43569110932725" stroke="#000"/>
<line x1="747.7692307692307" y1="281.22475452048803" x2="769.4615384615385" y2="281.22475452048803" stroke="#000"/>
<line x1="758.6153846153845" y1="279.43569110932725" x2="758.6153846153845" y2="281.22475452048803" stroke="#000"/>
<rect x="769.4615384615385" y="163.55024655416022" width="21.69230769230769" height="334.4497534458397" fill="orange" data-tooltip="1.54x baseline speed (YJIT)"/>
<line x1="769.4615384615385" y1="160.63916377641695" x2="791.1538461538461" y2="160.63916377641695" stroke="#000"/>
<line x1="769.4615384615385" y1="166.4613293319035" x2="791.1538461538461" y2="166.4613293319035" stroke="#000"/>
<line x1="780.3076923076923" y1="160.63916377641695" x2="780.3076923076923" y2="166.4613293319035" stroke="#000"/>
<line x1="780.3076923076923" y1="498.0" x2="780.3076923076923" y2="502.79999999999995" stroke="#000"/>
<text x="780.3076923076923" y="512.4" fill="#111" font-size="small" font-family="monospace" font-weight="bold" text-anchor="end" transform="rotate(-60, 780.3076923076923, 512.4)">
railsbench
</text>
<rect x="812.8461538461538" y="280.33022281490764" width="21.69230769230769" height="217.66977718509233" fill="#7070f8" data-tooltip="1.00x baseline speed (No JIT)"/>
<line x1="812.8461538461538" y1="275.2131731536299" x2="834.5384615384614" y2="275.2131731536299" stroke="#000"/>
<line x1="812.8461538461538" y1="285.44727247618533" x2="834.5384615384614" y2="285.44727247618533" stroke="#000"/>
<line x1="823.6923076923076" y1="275.2131731536299" x2="823.6923076923076" y2="285.44727247618533" stroke="#000"/>
<rect x="834.5384615384614" y="201.8373298410293" width="21.69230769230769" height="296.1626701589706" fill="orange" data-tooltip="1.36x baseline speed (YJIT)"/>
<line x1="834.5384615384614" y1="191.09953442797618" x2="856.2307692307692" y2="191.09953442797618" stroke="#000"/>
<line x1="834.5384615384614" y1="212.57512525408242" x2="856.2307692307692" y2="212.57512525408242" stroke="#000"/>
<line x1="845.3846153846152" y1="191.09953442797618" x2="845.3846153846152" y2="212.57512525408242" stroke="#000"/>
<line x1="845.3846153846152" y1="498.0" x2="845.3846153846152" y2="502.79999999999995" stroke="#000"/>
<text x="845.3846153846152" y="512.4" fill="#111" font-size="small" font-family="monospace" font-weight="bold" text-anchor="end" transform="rotate(-60, 845.3846153846152, 512.4)">
ruby-lsp
</text>
<rect x="877.9230769230768" y="280.33022281490764" width="21.69230769230769" height="217.66977718509233" fill="#7070f8" data-tooltip="1.00x baseline speed (No JIT)"/>
<line x1="877.9230769230768" y1="278.29807477938664" x2="899.6153846153845" y2="278.29807477938664" stroke="#000"/>
<line x1="877.9230769230768" y1="282.3623708504286" x2="899.6153846153845" y2="282.3623708504286" stroke="#000"/>
<line x1="888.7692307692306" y1="278.29807477938664" x2="888.7692307692306" y2="282.3623708504286" stroke="#000"/>
<rect x="899.6153846153845" y="237.88570091163587" width="21.69230769230769" height="260.114299088364" fill="orange" data-tooltip="1.19x baseline speed (YJIT)"/>
<line x1="899.6153846153845" y1="233.96333313786607" x2="921.3076923076922" y2="233.96333313786607" stroke="#000"/>
<line x1="899.6153846153845" y1="241.8080686854057" x2="921.3076923076922" y2="241.8080686854057" stroke="#000"/>
<line x1="910.4615384615383" y1="233.96333313786607" x2="910.4615384615383" y2="241.8080686854057" stroke="#000"/>
<line x1="910.4615384615383" y1="498.0" x2="910.4615384615383" y2="502.79999999999995" stroke="#000"/>
<text x="910.4615384615383" y="512.4" fill="#111" font-size="small" font-family="monospace" font-weight="bold" text-anchor="end" transform="rotate(-60, 910.4615384615383, 512.4)">
sequel
</text>
</svg>