<svg viewBox="0 0 1000 600" xmlns="http://www.w3.org/2000/svg" xmlns:xlink="http://www.w3.org/1999/xlink" width="100%" height="100%">

<rect x="50.0" y="30.0" width="940.0" height="467.99999999999994" stroke="#000" fill="#EEE"/>
<line x1="42.0" y1="497.9999999999999" x2="50.0" y2="497.9999999999999" stroke="#000"/>
<text x="26.000000000000004" y="497.9999999999999" text-anchor="end" font-weight="bold" font-size="small" fill="#111">
0.0
</text>
<line x1="42.0" y1="408.82156840985783" x2="50.0" y2="408.82156840985783" stroke="#000"/>
<text x="26.000000000000004" y="408.82156840985783" text-anchor="end" font-weight="bold" font-size="small" fill="#111">
5.0
</text>
<line x1="42.0" y1="319.6431368197159" x2="50.0" y2="319.6431368197159" stroke="#000"/>
<text x="26.000000000000004" y="319.6431368197159" text-anchor="end" font-weight="bold" font-size="small" fill="#111">
10.0
</text>
<line x1="42.0" y1="230.4647052295739" x2="50.0" y2="230.4647052295739" stroke="#000"/>
<text x="26.000000000000004" y="230.4647052295739" text-anchor="end" font-weight="bold" font-size="small" fill="#111">
15.0
</text>
<line x1="42.0" y1="141.28627363943187" x2="50.0" y2="141.28627363943187" stroke="#000"/>
<text x="26.000000000000004" y="141.28627363943187" text-anchor="end" font-weight="bold" font-size="small" fill="#111">
20.0
</text>
<rect x="268.5" y="36.00000000000001" width="80.0" height="18.0" fill="#7070f8" stroke="#888"/>
<text x="308.5" y="52.50000000000001" font-size="small" text-anchor="middle" font-weight="bold" fill="#EEE">
No JIT
</text>
<rect x="691.4999999999999" y="36.00000000000001" width="80.0" height="18.0" fill="orange" stroke="#888"/>
<text x="731.4999999999999" y="52.50000000000001" font-size="small" text-anchor="middle" font-weight="bold" fill="#EEE">
YJIT
</text>
<rect x="97.0" y="480.1643136819715" width="6.266666666666667" height="17.8356863180284" fill="#7070f8" data-tooltip="1.00x baseline speed (No JIT)"/>
<line x1="97.0" y1="480.0891800808668" x2="103.26666666666668" y2="480.0891800808668" stroke="#000"/>
<line x1="97.0" y1="480.2394472830762" x2="103.26666666666668" y2="480.2394472830762" stroke="#000"/>
<line x1="100.13333333333334" y1="480.0891800808668" x2="100.13333333333334" y2="480.2394472830762" stroke="#000"/>
<rect x="103.26666666666668" y="458.791979946215" width="6.266666666666667" height="39.20802005378499" fill="orange" data-tooltip="2.20x baseline speed (YJIT)"/>
<line x1="103.26666666666668" y1="458.38937613294775" x2="109.53333333333335" y2="458.38937613294775" stroke="#000"/>
<line x1="103.26666666666668" y1="459.1945837594823" x2="109.53333333333335" y2="459.1945837594823" stroke="#000"/>
<line x1="106.4" y1="458.38937613294775" x2="106.4" y2="459.1945837594823" stroke="#000"/>
<line x1="106.4" y1="498.0" x2="106.4" y2="502.79999999999995" stroke="#000"/>
<text x="106.4" y="512.4" fill="#111" font-size="small" font-family="monospace" font-weight="bold" text-anchor="end" transform="rotate(-60, 106.4, 512.4)">
activerecord
</text>
<rect x="115.8" y="480.1643136819715" width="6.266666666666667" height="17.8356863180284" fill="#7070f8" data-tooltip="1.00x baseline speed (No JIT)"/>
<line x1="115.8" y1="480.1382381816843" x2="122.06666666666668" y2="480.1382381816843" stroke="#000"/>
<line x1="115.8" y1="480.1903891822587" x2="122.06666666666668" y2="480.1903891822587" stroke="#000"/>
<line x1="118.93333333333334" y1="480.1382381816843" x2="118.93333333333334" y2="480.1903891822587" stroke="#000"/>
<rect x="122.06666666666668" y="466.15452921578526" width="6.266666666666667" height="31.845470784214708" fill="orange" data-tooltip="1.79x baseline speed (YJIT)"/>
<line x1="122.06666666666668" y1="466.0824829079713" x2="128.33333333333331" y2="466.0824829079713" stroke="#000"/>
<line x1="122.06666666666668" y1="466.22657552359914" x2="128.33333333333331" y2="466.22657552359914" stroke="#000"/>
<line x1="125.2" y1="466.0824829079713" x2="125.2" y2="466.22657552359914" stroke="#000"/>
<line x1="125.2" y1="498.0" x2="125.2" y2="502.79999999999995" stroke="#000"/>
<text x="125.2" y="512.4" fill="#111" font-size="small" font-family="monospace" font-weight="bold" text-anchor="end" transform="rotate(-60, 125.2, 512.4)">
chunky-png
</text>
<rect x="134.6" y="480.1643136819715" width="6.266666666666667" height="17.8356863180284" fill="#7070f8" data-tooltip="1.00x baseline speed (No JIT)"/>
<line x1="134.6" y1="480.13722799403763" x2="140.86666666666667" y2="480.13722799403763" stroke="#000"/>
<line x1="134.6" y1="480.19139936990535" x2="140.86666666666667" y2="480.19139936990535" stroke="#000"/>
<line x1="137.73333333333332" y1="480.13722799403763" x2="137.73333333333332" y2="480.19139936990535" stroke="#000"/>
<rect x="140.86666666666667" y="464.0003467210519" width="6.266666666666667" height="33.99965327894804" fill="orange" data-tooltip="1.91x baseline speed (YJIT)"/>
<line x1="140.86666666666667" y1="463.9049189574238" x2="147.13333333333333" y2="463.9049189574238" stroke="#000"/>
<line x1="140.86666666666667" y1="464.0957744846801" x2="147.13333333333333" y2="464.0957744846801" stroke="#000"/>
<line x1="144.0" y1="463.9049189574238" x2="144.0" y2="464.0957744846801" stroke="#000"/>
<line x1="144.0" y1="498.0" x2="144.0" y2="502.79999999999995" stroke="#000"/>
<text x="144.0" y="512.4" fill="#111" font-size="small" font-family="monospace" font-weight="bold" text-anchor="end" transform="rotate(-60, 144.0, 512.4)">
erubi-rails
</text>
<rect x="153.4" y="480.1643136819715" width="6.266666666666667" height="17.8356863180284" fill="#7070f8" data-tooltip="1.00x baseline speed (No JIT)"/>
<line x1="153.4" y1="480.05288496980694" x2="159.66666666666669" y2="480.05288496980694" stroke="#000"/>
<line x1="153.4" y1="480.27574239413605" x2="159.66666666666669" y2="480.27574239413605" stroke="#000"/>
<line x1="156.53333333333333" y1="480.05288496980694" x2="156.53333333333333" y2="480.27574239413605" stroke="#000"/>
<rect x="159.66666666666669" y="465.3647909179306" width="6.266666666666667" height="32.63520908206945" fill="orange" data-tooltip="1.83x baseline speed (YJIT)"/>
<line x1="159.66666666666669" y1="464.58040525241466" x2="165.93333333333334" y2="464.58040525241466" stroke="#000"/>
<line x1="159.66666666666669" y1="466.14917658344643" x2="165.93333333333334" y2="466.14917658344643" stroke="#000"/>
<line x1="162.8" y1="464.58040525241466" x2="162.8" y2="466.14917658344643" stroke="#000"/>
<line x1="162.8" y1="498.0" x2="162.8" y2="502.79999999999995" stroke="#000"/>
<text x="162.8" y="512.4" fill="#111" font-size="small" font-family="monospace" font-weight="bold" text-anchor="end" transform="rotate(-60, 162.8, 512.4)">
hexapdf
</text>
<rect x="172.20000000000002" y="480.1643136819715" width="6.266666666666667" height="17.8356863180284" fill="#7070f8" data-tooltip="1.00x baseline speed (No JIT)"/>
<line x1="172.20000000000002" y1="480.0524310773853" x2="178.4666666666667" y2="480.0524310773853" stroke="#000"/>
<line x1="172.20000000000002" y1="480.2761962865577" x2="178.4666666666667" y2="480.2761962865577" stroke="#000"/>
<line x1="175.33333333333334" y1="480.0524310773853" x2="175.33333333333334" y2="480.2761962865577" stroke="#000"/>
<rect x="178.4666666666667" y="470.91013737502243" width="6.266666666666667" height="27.089862624977478" fill="orange" data-tooltip="1.52x baseline speed (YJIT)"/>
<line x1="178.4666666666667" y1="470.62387482101474" x2="184.73333333333335" y2="470.62387482101474" stroke="#000"/>
<line x1="178.4666666666667" y1="471.1963999290302" x2="184.73333333333335" y2="471.1963999290302" stroke="#000"/>
<line x1="181.60000000000002" y1="470.62387482101474" x2="181.60000000000002" y2="471.1963999290302" stroke="#000"/>
<line x1="181.60000000000002" y1="498.0" x2="181.60000000000002" y2="502.79999999999995" stroke="#000"/>
<text x="181.60000000000002" y="512.4" fill="#111" font-size="small" font-family="monospace" font-weight="bold" text-anchor="end" transform="rotate(-60, 181.60000000000002, 512.4)">
liquid-c
</text>
<rect x="191.0" y="480.1643136819715" width="6.266666666666667" height="17.8356863180284" fill="#7070f8" data-tooltip="1.00x baseline speed (No JIT)"/>
<line x1="191.0" y1="480.0426795186642" x2="197.26666666666668" y2="480.0426795186642" stroke="#000"/>
<line x1="191.0" y1="480.28594784527877" x2="197.26666666666668" y2="480.28594784527877" stroke="#000"/>
<line x1="194.13333333333333" y1="480.0426795186642" x2="194.13333333333333" y2="480.28594784527877" stroke="#000"/>
<rect x="197.26666666666668" y="472.05083259957826" width="6.266666666666667" height="25.94916740042168" fill="orange" data-tooltip="1.45x baseline speed (YJIT)"/>
<line x1="197.26666666666668" y1="471.7136511794895" x2="203.53333333333333" y2="471.7136511794895" stroke="#000"/>
<line x1="197.26666666666668" y1="472.388014019667" x2="203.53333333333333" y2="472.388014019667" stroke="#000"/>
<line x1="200.4" y1="471.7136511794895" x2="200.4" y2="472.388014019667" stroke="#000"/>
<line x1="200.4" y1="498.0" x2="200.4" y2="502.79999999999995" stroke="#000"/>
<text x="200.4" y="512.4" fill="#111" font-size="small" font-family="monospace" font-weight="bold" text-anchor="end" transform="rotate(-60, 200.4, 512.4)">
liquid-compile
</text>
<rect x="209.8" y="480.1643136819715" width="6.266666666666667" height="17.8356863180284" fill="#7070f8" data-tooltip="1.00x baseline speed (No JIT)"/>
<line x1="209.8" y1="480.1054475181288" x2="216.0666666666667" y2="480.1054475181288" stroke="#000"/>
<line x1="209.8" y1="480.2231798458142" x2="216.0666666666667" y2="480.2231798458142" stroke="#000"/>
<line x1="212.93333333333334" y1="480.1054475181288" x2="212.93333333333334" y2="480.2231798458142" stroke="#000"/>
<rect x="216.0666666666667" y="451.1380901037855" width="6.266666666666667" height="46.86190989621444" fill="orange" data-tooltip="2.63x baseline speed (YJIT)"/>
<line x1="216.0666666666667" y1="450.75837124023366" x2="222.33333333333334" y2="450.75837124023366" stroke="#000"/>
<line x1="216.0666666666667" y1="451.5178089673373" x2="222.33333333333334" y2="451.5178089673373" stroke="#000"/>
<line x1="219.20000000000002" y1="450.75837124023366" x2="219.20000000000002" y2="451.5178089673373" stroke="#000"/>
<line x1="219.20000000000002" y1="498.0" x2="219.20000000000002" y2="502.79999999999995" stroke="#000"/>
<text x="219.20000000000002" y="512.4" fill="#111" font-size="small" font-family="monospace" font-weight="bold" text-anchor="end" transform="rotate(-60, 219.20000000000002, 512.4)">
liquid-render
</text>
<rect x="228.6" y="480.1643136819715" width="6.266666666666667" height="17.8356863180284" fill="#7070f8" data-tooltip="1.00x baseline speed (No JIT)"/>
<line x1="228.6" y1="479.9836062845345" x2="234.86666666666667" y2="479.9836062845345" stroke="#000"/>
<line x1="228.6" y1="480.3450210794085" x2="234.86666666666667" y2="480.3450210794085" stroke="#000"/>
<line x1="231.73333333333332" y1="479.9836062845345" x2="231.73333333333332" y2="480.3450210794085" stroke="#000"/>
<rect x="234.86666666666667" y="469.9192153023584" width="6.266666666666667" height="28.080784697641516" fill="orange" data-tooltip="1.57x baseline speed (YJIT)"/>
<line x1="234.86666666666667" y1="469.450486548412" x2="241.13333333333333" y2="469.450486548412" stroke="#000"/>
<line x1="234.86666666666667" y1="470.3879440563048" x2="241.13333333333333" y2="470.3879440563048" stroke="#000"/>
<line x1="238.0" y1="469.450486548412" x2="238.0" y2="470.3879440563048" stroke="#000"/>
<line x1="238.0" y1="498.0" x2="238.0" y2="502.79999999999995" stroke="#000"/>
<text x="238.0" y="512.4" fill="#111" font-size="small" font-family="monospace" font-weight="bold" text-anchor="end" transform="rotate(-60, 238.0, 512.4)">
lobsters
</text>
<rect x="247.4" y="480.1643136819715" width="6.266666666666667" height="17.8356863180284" fill="#7070f8" data-tooltip="1.00x baseline speed (No JIT)"/>
<line x1="247.4" y1="480.09118418326875" x2="253.66666666666666" y2="480.09118418326875" stroke="#000"/>
<line x1="247.4" y1="480.2374431806743" x2="253.66666666666666" y2="480.2374431806743" stroke="#000"/>
<line x1="250.53333333333333" y1="480.09118418326875" x2="250.53333333333333" y2="480.2374431806743" stroke="#000"/>
<rect x="253.66666666666666" y="472.11496314043666" width="6.266666666666667" height="25.885036859563264" fill="orange" data-tooltip="1.45x baseline speed (YJIT)"/>
<line x1="253.66666666666666" y1="471.9700244013564" x2="259.9333333333333" y2="471.9700244013564" stroke="#000"/>
<line x1="253.66666666666666" y1="472.2599018795169" x2="259.9333333333333" y2="472.2599018795169" stroke="#000"/>
<line x1="256.79999999999995" y1="471.9700244013564" x2="256.79999999999995" y2="472.2599018795169" stroke="#000"/>
<line x1="256.8" y1="498.0" x2="256.8" y2="502.79999999999995" stroke="#000"/>
<text x="256.8" y="512.4" fill="#111" font-size="small" font-family="monospace" font-weight="bold" text-anchor="end" transform="rotate(-60, 256.8, 512.4)">
mail
</text>
<rect x="266.2" y="480.1643136819715" width="6.266666666666667" height="17.8356863180284" fill="#7070f8" data-tooltip="1.00x baseline speed (No JIT)"/>
<line x1="266.2" y1="480.1540507829452" x2="272.46666666666664" y2="480.1540507829452" stroke="#000"/>
<line x1="266.2" y1="480.1745765809978" x2="272.46666666666664" y2="480.1745765809978" stroke="#000"/>
<line x1="269.3333333333333" y1="480.1540507829452" x2="269.3333333333333" y2="480.1745765809978" stroke="#000"/>
<rect x="272.46666666666664" y="467.39817878051804" width="6.266666666666667" height="30.601821219481813" fill="orange" data-tooltip="1.72x baseline speed (YJIT)"/>
<line x1="272.46666666666664" y1="467.37336528784795" x2="278.7333333333333" y2="467.37336528784795" stroke="#000"/>
<line x1="272.46666666666664" y1="467.4229922731882" x2="278.7333333333333" y2="467.4229922731882" stroke="#000"/>
<line x1="275.59999999999997" y1="467.37336528784795" x2="275.59999999999997" y2="467.4229922731882" stroke="#000"/>
<line x1="275.6" y1="498.0" x2="275.6" y2="502.79999999999995" stroke="#000"/>
<text x="275.6" y="512.4" fill="#111" font-size="small" font-family="monospace" font-weight="bold" text-anchor="end" transform="rotate(-60, 275.6, 512.4)">
psych-load
</text>
<rect x="285.00000000000006" y="480.1643136819715" width="6.266666666666667" height="17.8356863180284" fill="#7070f8" data-tooltip="1.00x baseline speed (No JIT)"/>
<line x1="285.00000000000006" y1="480.1434309732196" x2="291.26666666666665" y2="480.1434309732196" stroke="#000"/>
<line x1="285.00000000000006" y1="480.1851963907234" x2="291.26666666666665" y2="480.1851963907234" stroke="#000"/>
<line x1="288.1333333333333" y1="480.1434309732196" x2="288.1333333333333" y2="480.1851963907234" stroke="#000"/>
<rect x="291.26666666666665" y="465.8774847917735" width="6.266666666666667" height="32.12251520822641" fill="orange" data-tooltip="1.80x baseline speed (YJIT)"/>
<line x1="291.26666666666665" y1="465.78152838445055" x2="297.5333333333333" y2="465.78152838445055" stroke="#000"/>
<line x1="291.26666666666665" y1="465.97344119909644" x2="297.5333333333333" y2="465.97344119909644" stroke="#000"/>
<line x1="294.4" y1="465.78152838445055" x2="294.4" y2="465.97344119909644" stroke="#000"/>
<line x1="294.40000000000003" y1="498.0" x2="294.40000000000003" y2="502.79999999999995" stroke="#000"/>
<text x="294.40000000000003" y="512.4" fill="#111" font-size="small" font-family="monospace" font-weight="bold" text-anchor="end" transform="rotate(-60, 294.40000000000003, 512.4)">
railsbench
</text>
<rect x="303.8" y="480.1643136819715" width="6.266666666666667" height="17.8356863180284" fill="#7070f8" data-tooltip="1.00x baseline speed (No JIT)"/>
<line x1="303.8" y1="479.7931686142124" x2="310.06666666666666" y2="479.7931686142124" stroke="#000"/>
<line x1="303.8" y1="480.5354587497306" x2="310.06666666666666" y2="480.5354587497306" stroke="#000"/>
<line x1="306.93333333333334" y1="479.7931686142124" x2="306.93333333333334" y2="480.5354587497306" stroke="#000"/>
<rect x="310.06666666666666" y="463.61303963223446" width="6.266666666666667" height="34.38696036776548" fill="orange" data-tooltip="1.93x baseline speed (YJIT)"/>
<line x1="310.06666666666666" y1="462.77740655883974" x2="316.3333333333333" y2="462.77740655883974" stroke="#000"/>
<line x1="310.06666666666666" y1="464.4486727056292" x2="316.3333333333333" y2="464.4486727056292" stroke="#000"/>
<line x1="313.2" y1="462.77740655883974" x2="313.2" y2="464.4486727056292" stroke="#000"/>
<line x1="313.20000000000005" y1="498.0" x2="313.20000000000005" y2="502.79999999999995" stroke="#000"/>
<text x="313.20000000000005" y="512.4" fill="#111" font-size="small" font-family="monospace" font-weight="bold" text-anchor="end" transform="rotate(-60, 313.20000000000005, 512.4)">
rubocop
</text>
<rect x="322.6" y="480.1643136819715" width="6.266666666666667" height="17.8356863180284" fill="#7070f8" data-tooltip="1.00x baseline speed (No JIT)"/>
<line x1="322.6" y1="479.57227027590835" x2="328.8666666666666" y2="479.57227027590835" stroke="#000"/>
<line x1="322.6" y1="480.75635708803463" x2="328.8666666666666" y2="480.75635708803463" stroke="#000"/>
<line x1="325.7333333333333" y1="479.57227027590835" x2="325.7333333333333" y2="480.75635708803463" stroke="#000"/>
<rect x="328.8666666666666" y="473.4911888891563" width="6.266666666666667" height="24.50881111084356" fill="orange" data-tooltip="1.37x baseline speed (YJIT)"/>
<line x1="328.8666666666666" y1="472.5980523196936" x2="335.13333333333327" y2="472.5980523196936" stroke="#000"/>
<line x1="328.8666666666666" y1="474.38432545861906" x2="335.13333333333327" y2="474.38432545861906" stroke="#000"/>
<line x1="331.99999999999994" y1="472.5980523196936" x2="331.99999999999994" y2="474.38432545861906" stroke="#000"/>
<line x1="332.0" y1="498.0" x2="332.0" y2="502.79999999999995" stroke="#000"/>
<text x="332.0" y="512.4" fill="#111" font-size="small" font-family="monospace" font-weight="bold" text-anchor="end" transform="rotate(-60, 332.0, 512.4)">
ruby-lsp
</text>
<rect x="341.40000000000003" y="480.1643136819715" width="6.266666666666667" height="17.8356863180284" fill="#7070f8" data-tooltip="1.00x baseline speed (No JIT)"/>
<line x1="341.40000000000003" y1="480.06022152423856" x2="347.6666666666667" y2="480.06022152423856" stroke="#000"/>
<line x1="341.40000000000003" y1="480.2684058397044" x2="347.6666666666667" y2="480.2684058397044" stroke="#000"/>
<line x1="344.53333333333336" y1="480.06022152423856" x2="344.53333333333336" y2="480.2684058397044" stroke="#000"/>
<rect x="347.6666666666667" y="474.1844239806486" width="6.266666666666667" height="23.815576019351255" fill="orange" data-tooltip="1.34x baseline speed (YJIT)"/>
<line x1="347.6666666666667" y1="473.9518817084419" x2="353.93333333333334" y2="473.9518817084419" stroke="#000"/>
<line x1="347.6666666666667" y1="474.41696625285533" x2="353.93333333333334" y2="474.41696625285533" stroke="#000"/>
<line x1="350.8" y1="473.9518817084419" x2="350.8" y2="474.41696625285533" stroke="#000"/>
<line x1="350.80000000000007" y1="498.0" x2="350.80000000000007" y2="502.79999999999995" stroke="#000"/>
<text x="350.80000000000007" y="512.4" fill="#111" font-size="small" font-family="monospace" font-weight="bold" text-anchor="end" transform="rotate(-60, 350.80000000000007, 512.4)">
sequel
</text>
<rect x="360.2" y="480.1643136819715" width="6.266666666666667" height="17.8356863180284" fill="#7070f8" data-tooltip="1.00x baseline speed (No JIT)"/>
<line x1="360.2" y1="479.936262331194" x2="366.4666666666666" y2="479.936262331194" stroke="#000"/>
<line x1="360.2" y1="480.392365032749" x2="366.4666666666666" y2="480.392365032749" stroke="#000"/>
<line x1="363.33333333333326" y1="479.936262331194" x2="363.33333333333326" y2="480.392365032749" stroke="#000"/>
<rect x="366.4666666666666" y="461.0604225613316" width="6.266666666666667" height="36.93957743866828" fill="orange" data-tooltip="2.07x baseline speed (YJIT)"/>
<line x1="366.4666666666666" y1="459.9694912613438" x2="372.73333333333323" y2="459.9694912613438" stroke="#000"/>
<line x1="366.4666666666666" y1="462.1513538613194" x2="372.73333333333323" y2="462.1513538613194" stroke="#000"/>
<line x1="369.5999999999999" y1="459.9694912613438" x2="369.5999999999999" y2="462.1513538613194" stroke="#000"/>
<line x1="369.59999999999997" y1="498.0" x2="369.59999999999997" y2="502.79999999999995" stroke="#000"/>
<text x="369.59999999999997" y="512.4" fill="#111" font-size="small" font-family="monospace" font-weight="bold" text-anchor="end" transform="rotate(-60, 369.59999999999997, 512.4)">
binarytrees
</text>
<rect x="379.0" y="480.1643136819715" width="6.266666666666667" height="17.8356863180284" fill="#7070f8" data-tooltip="1.00x baseline speed (No JIT)"/>
<line x1="379.0" y1="480.14693390540685" x2="385.26666666666665" y2="480.14693390540685" stroke="#000"/>
<line x1="379.0" y1="480.18169345853613" x2="385.26666666666665" y2="480.18169345853613" stroke="#000"/>
<line x1="382.1333333333333" y1="480.14693390540685" x2="382.1333333333333" y2="480.18169345853613" stroke="#000"/>
<rect x="385.26666666666665" y="459.7270571168577" width="6.266666666666667" height="38.272942883142214" fill="orange" data-tooltip="2.15x baseline speed (YJIT)"/>
<line x1="385.26666666666665" y1="459.6630195046663" x2="391.5333333333333" y2="459.6630195046663" stroke="#000"/>
<line x1="385.26666666666665" y1="459.79109472904906" x2="391.5333333333333" y2="459.79109472904906" stroke="#000"/>
<line x1="388.4" y1="459.6630195046663" x2="388.4" y2="459.79109472904906" stroke="#000"/>
<line x1="388.40000000000003" y1="498.0" x2="388.40000000000003" y2="502.79999999999995" stroke="#000"/>
<text x="388.40000000000003" y="512.4" fill="#111" font-size="small" font-family="monospace" font-weight="bold" text-anchor="end" transform="rotate(-60, 388.40000000000003, 512.4)">
blurhash
</text>
<rect x="397.80000000000007" y="480.1643136819715" width="6.266666666666667" height="17.8356863180284" fill="#7070f8" data-tooltip="1.00x baseline speed (No JIT)"/>
<line x1="397.80000000000007" y1="480.1409981468352" x2="404.06666666666666" y2="480.1409981468352" stroke="#000"/>
<line x1="397.80000000000007" y1="480.1876292171078" x2="404.06666666666666" y2="480.1876292171078" stroke="#000"/>
<line x1="400.93333333333334" y1="480.1409981468352" x2="400.93333333333334" y2="480.1876292171078" stroke="#000"/>
<rect x="404.06666666666666" y="475.96334059298965" width="6.266666666666667" height="22.036659407010276" fill="orange" data-tooltip="1.24x baseline speed (YJIT)"/>
<line x1="404.06666666666666" y1="475.92138951398715" x2="410.3333333333333" y2="475.92138951398715" stroke="#000"/>
<line x1="404.06666666666666" y1="476.00529167199215" x2="410.3333333333333" y2="476.00529167199215" stroke="#000"/>
<line x1="407.2" y1="475.92138951398715" x2="407.2" y2="476.00529167199215" stroke="#000"/>
<line x1="407.20000000000005" y1="498.0" x2="407.20000000000005" y2="502.79999999999995" stroke="#000"/>
<text x="407.20000000000005" y="512.4" fill="#111" font-size="small" font-family="monospace" font-weight="bold" text-anchor="end" transform="rotate(-60, 407.20000000000005, 512.4)">
erubi
</text>
<rect x="416.59999999999997" y="480.1643136819715" width="6.266666666666667" height="17.8356863180284" fill="#7070f8" data-tooltip="1.00x baseline speed (No JIT)"/>
<line x1="416.59999999999997" y1="480.12683711454355" x2="422.8666666666666" y2="480.12683711454355" stroke="#000"/>
<line x1="416.59999999999997" y1="480.20179024939944" x2="422.8666666666666" y2="480.20179024939944" stroke="#000"/>
<line x1="419.7333333333333" y1="480.12683711454355" x2="419.7333333333333" y2="480.20179024939944" stroke="#000"/>
<rect x="422.8666666666666" y="477.49451539240766" width="6.266666666666667" height="20.505484607592216" fill="orange" data-tooltip="1.15x baseline speed (YJIT)"/>
<line x1="422.8666666666666" y1="477.44768914574297" x2="429.13333333333327" y2="477.44768914574297" stroke="#000"/>
<line x1="422.8666666666666" y1="477.5413416390724" x2="429.13333333333327" y2="477.5413416390724" stroke="#000"/>
<line x1="425.99999999999994" y1="477.44768914574297" x2="425.99999999999994" y2="477.5413416390724" stroke="#000"/>
<line x1="426.0" y1="498.0" x2="426.0" y2="502.79999999999995" stroke="#000"/>
<text x="426.0" y="512.4" fill="#111" font-size="small" font-family="monospace" font-weight="bold" text-anchor="end" transform="rotate(-60, 426.0, 512.4)">
etanni
</text>
<rect x="435.40000000000003" y="480.1643136819715" width="6.266666666666667" height="17.8356863180284" fill="#7070f8" data-tooltip="1.00x baseline speed (No JIT)"/>
<line x1="435.40000000000003" y1="480.11044466893674" x2="441.66666666666663" y2="480.11044466893674" stroke="#000"/>
<line x1="435.40000000000003" y1="480.21818269500625" x2="441.66666666666663" y2="480.21818269500625" stroke="#000"/>
<line x1="438.5333333333333" y1="480.11044466893674" x2="438.5333333333333" y2="480.21818269500625" stroke="#000"/>
<rect x="441.66666666666663" y="451.6813556745819" width="6.266666666666667" height="46.318644325418035" fill="orange" data-tooltip="2.60x baseline speed (YJIT)"/>
<line x1="441.66666666666663" y1="451.52777639589493" x2="447.9333333333333" y2="451.52777639589493" stroke="#000"/>
<line x1="441.66666666666663" y1="451.8349349532688" x2="447.9333333333333" y2="451.8349349532688" stroke="#000"/>
<line x1="444.79999999999995" y1="451.52777639589493" x2="444.79999999999995" y2="451.8349349532688" stroke="#000"/>
<line x1="444.8" y1="498.0" x2="444.8" y2="502.79999999999995" stroke="#000"/>
<text x="444.8" y="512.4" fill="#111" font-size="small" font-family="monospace" font-weight="bold" text-anchor="end" transform="rotate(-60, 444.8, 512.4)">
fannkuchredux
</text>
<rect x="454.20000000000005" y="480.1643136819715" width="6.266666666666667" height="17.8356863180284" fill="#7070f8" data-tooltip="1.00x baseline speed (No JIT)"/>
<line x1="454.20000000000005" y1="480.039929870795" x2="460.4666666666667" y2="480.039929870795" stroke="#000"/>
<line x1="454.20000000000005" y1="480.288697493148" x2="460.4666666666667" y2="480.288697493148" stroke="#000"/>
<line x1="457.33333333333337" y1="480.039929870795" x2="457.33333333333337" y2="480.288697493148" stroke="#000"/>
<rect x="460.4666666666667" y="477.66628409081494" width="6.266666666666667" height="20.33371590918496" fill="orange" data-tooltip="1.14x baseline speed (YJIT)"/>
<line x1="460.4666666666667" y1="477.4615110298925" x2="466.73333333333335" y2="477.4615110298925" stroke="#000"/>
<line x1="460.4666666666667" y1="477.8710571517373" x2="466.73333333333335" y2="477.8710571517373" stroke="#000"/>
<line x1="463.6" y1="477.4615110298925" x2="463.6" y2="477.8710571517373" stroke="#000"/>
<line x1="463.6000000000001" y1="498.0" x2="463.6000000000001" y2="502.79999999999995" stroke="#000"/>
<text x="463.6000000000001" y="512.4" fill="#111" font-size="small" font-family="monospace" font-weight="bold" text-anchor="end" transform="rotate(-60, 463.6000000000001, 512.4)">
fluentd
</text>
<rect x="473.0" y="480.1643136819715" width="6.266666666666667" height="17.8356863180284" fill="#7070f8" data-tooltip="1.00x baseline speed (No JIT)"/>
<line x1="473.0" y1="480.1573006553459" x2="479.2666666666666" y2="480.1573006553459" stroke="#000"/>
<line x1="473.0" y1="480.17132670859706" x2="479.2666666666666" y2="480.17132670859706" stroke="#000"/>
<line x1="476.1333333333333" y1="480.1573006553459" x2="476.1333333333333" y2="480.17132670859706" stroke="#000"/>
<rect x="479.2666666666666" y="476.8485736828176" width="6.266666666666667" height="21.15142631718247" fill="orange" data-tooltip="1.19x baseline speed (YJIT)"/>
<line x1="479.2666666666666" y1="476.8337536789209" x2="485.53333333333325" y2="476.8337536789209" stroke="#000"/>
<line x1="479.2666666666666" y1="476.8633936867142" x2="485.53333333333325" y2="476.8633936867142" stroke="#000"/>
<line x1="482.3999999999999" y1="476.8337536789209" x2="482.3999999999999" y2="476.8633936867142" stroke="#000"/>
<line x1="482.4" y1="498.0" x2="482.4" y2="502.79999999999995" stroke="#000"/>
<text x="482.4" y="512.4" fill="#111" font-size="small" font-family="monospace" font-weight="bold" text-anchor="end" transform="rotate(-60, 482.4, 512.4)">
graphql
</text>
<rect x="491.8" y="480.1643136819715" width="6.266666666666667" height="17.8356863180284" fill="#7070f8" data-tooltip="1.00x baseline speed (No JIT)"/>
<line x1="491.8" y1="479.4223355924349" x2="498.06666666666666" y2="479.4223355924349" stroke="#000"/>
<line x1="491.8" y1="480.9062917715081" x2="498.06666666666666" y2="480.9062917715081" stroke="#000"/>
<line x1="494.93333333333334" y1="479.4223355924349" x2="494.93333333333334" y2="480.9062917715081" stroke="#000"/>
<rect x="498.06666666666666" y="478.32557449980385" width="6.266666666666667" height="19.674425500196165" fill="orange" data-tooltip="1.10x baseline speed (YJIT)"/>
<line x1="498.06666666666666" y1="477.4958846208653" x2="504.3333333333333" y2="477.4958846208653" stroke="#000"/>
<line x1="498.06666666666666" y1="479.1552643787424" x2="504.3333333333333" y2="479.1552643787424" stroke="#000"/>
<line x1="501.2" y1="477.4958846208653" x2="501.2" y2="479.1552643787424" stroke="#000"/>
<line x1="501.2" y1="498.0" x2="501.2" y2="502.79999999999995" stroke="#000"/>
<text x="501.2" y="512.4" fill="#111" font-size="small" font-family="monospace" font-weight="bold" text-anchor="end" transform="rotate(-60, 501.2, 512.4)">
graphql-native
</text>
<rect x="510.6000000000001" y="480.1643136819715" width="6.266666666666667" height="17.8356863180284" fill="#7070f8" data-tooltip="1.00x baseline speed (No JIT)"/>
<line x1="510.6000000000001" y1="480.0046500270467" x2="516.8666666666667" y2="480.0046500270467" stroke="#000"/>
<line x1="510.6000000000001" y1="480.3239773368963" x2="516.8666666666667" y2="480.3239773368963" stroke="#000"/>
<line x1="513.7333333333333" y1="480.0046500270467" x2="513.7333333333333" y2="480.3239773368963" stroke="#000"/>
<rect x="516.8666666666667" y="472.59392034460654" width="6.266666666666667" height="25.40607965539338" fill="orange" data-tooltip="1.42x baseline speed (YJIT)"/>
<line x1="516.8666666666667" y1="472.185950606777" x2="523.1333333333333" y2="472.185950606777" stroke="#000"/>
<line x1="516.8666666666667" y1="473.00189008243603" x2="523.1333333333333" y2="473.00189008243603" stroke="#000"/>
<line x1="520.0" y1="472.185950606777" x2="520.0" y2="473.00189008243603" stroke="#000"/>
<line x1="520.0" y1="498.0" x2="520.0" y2="502.79999999999995" stroke="#000"/>
<text x="520.0" y="512.4" fill="#111" font-size="small" font-family="monospace" font-weight="bold" text-anchor="end" transform="rotate(-60, 520.0, 512.4)">
lee
</text>
<rect x="529.4" y="480.1643136819715" width="6.266666666666667" height="17.8356863180284" fill="#7070f8" data-tooltip="1.00x baseline speed (No JIT)"/>
<line x1="529.4" y1="480.1512285150914" x2="535.6666666666666" y2="480.1512285150914" stroke="#000"/>
<line x1="529.4" y1="480.1773988488516" x2="535.6666666666666" y2="480.1773988488516" stroke="#000"/>
<line x1="532.5333333333333" y1="480.1512285150914" x2="532.5333333333333" y2="480.1773988488516" stroke="#000"/>
<rect x="535.6666666666666" y="468.63899115180965" width="6.266666666666667" height="29.361008848190398" fill="orange" data-tooltip="1.65x baseline speed (YJIT)"/>
<line x1="535.6666666666666" y1="468.59248451499195" x2="541.9333333333333" y2="468.59248451499195" stroke="#000"/>
<line x1="535.6666666666666" y1="468.6854977886273" x2="541.9333333333333" y2="468.6854977886273" stroke="#000"/>
<line x1="538.8" y1="468.59248451499195" x2="538.8" y2="468.6854977886273" stroke="#000"/>
<line x1="538.8" y1="498.0" x2="538.8" y2="502.79999999999995" stroke="#000"/>
<text x="538.8" y="512.4" fill="#111" font-size="small" font-family="monospace" font-weight="bold" text-anchor="end" transform="rotate(-60, 538.8, 512.4)">
matmul
</text>
<rect x="548.2" y="480.1643136819715" width="6.266666666666667" height="17.8356863180284" fill="#7070f8" data-tooltip="1.00x baseline speed (No JIT)"/>
<line x1="548.2" y1="480.1609838802701" x2="554.4666666666667" y2="480.1609838802701" stroke="#000"/>
<line x1="548.2" y1="480.16764348367286" x2="554.4666666666667" y2="480.16764348367286" stroke="#000"/>
<line x1="551.3333333333334" y1="480.1609838802701" x2="551.3333333333334" y2="480.16764348367286" stroke="#000"/>
<rect x="554.4666666666667" y="460.01255240315965" width="6.266666666666667" height="37.98744759684032" fill="orange" data-tooltip="2.13x baseline speed (YJIT)"/>
<line x1="554.4666666666667" y1="459.9750771273369" x2="560.7333333333333" y2="459.9750771273369" stroke="#000"/>
<line x1="554.4666666666667" y1="460.0500276789825" x2="560.7333333333333" y2="460.0500276789825" stroke="#000"/>
<line x1="557.6" y1="459.9750771273369" x2="557.6" y2="460.0500276789825" stroke="#000"/>
<line x1="557.6" y1="498.0" x2="557.6" y2="502.79999999999995" stroke="#000"/>
<text x="557.6" y="512.4" fill="#111" font-size="small" font-family="monospace" font-weight="bold" text-anchor="end" transform="rotate(-60, 557.6, 512.4)">
nbody
</text>
<rect x="567.0000000000001" y="480.1643136819715" width="6.266666666666667" height="17.8356863180284" fill="#7070f8" data-tooltip="1.00x baseline speed (No JIT)"/>
<line x1="567.0000000000001" y1="480.15791567380523" x2="573.2666666666667" y2="480.15791567380523" stroke="#000"/>
<line x1="567.0000000000001" y1="480.17071169013775" x2="573.2666666666667" y2="480.17071169013775" stroke="#000"/>
<line x1="570.1333333333333" y1="480.15791567380523" x2="570.1333333333333" y2="480.17071169013775" stroke="#000"/>
<rect x="573.2666666666667" y="433.2285538322152" width="6.266666666666667" height="64.77144616778475" fill="orange" data-tooltip="3.63x baseline speed (YJIT)"/>
<line x1="573.2666666666667" y1="433.1748552873274" x2="579.5333333333333" y2="433.1748552873274" stroke="#000"/>
<line x1="573.2666666666667" y1="433.282252377103" x2="579.5333333333333" y2="433.282252377103" stroke="#000"/>
<line x1="576.4" y1="433.1748552873274" x2="576.4" y2="433.282252377103" stroke="#000"/>
<line x1="576.4" y1="498.0" x2="576.4" y2="502.79999999999995" stroke="#000"/>
<text x="576.4" y="512.4" fill="#111" font-size="small" font-family="monospace" font-weight="bold" text-anchor="end" transform="rotate(-60, 576.4, 512.4)">
nqueens
</text>
<rect x="585.8" y="480.1643136819715" width="6.266666666666667" height="17.8356863180284" fill="#7070f8" data-tooltip="1.00x baseline speed (No JIT)"/>
<line x1="585.8" y1="480.0642788822935" x2="592.0666666666666" y2="480.0642788822935" stroke="#000"/>
<line x1="585.8" y1="480.2643484816495" x2="592.0666666666666" y2="480.2643484816495" stroke="#000"/>
<line x1="588.9333333333333" y1="480.0642788822935" x2="588.9333333333333" y2="480.2643484816495" stroke="#000"/>
<rect x="592.0666666666666" y="432.0997027086579" width="6.266666666666667" height="65.90029729134208" fill="orange" data-tooltip="3.69x baseline speed (YJIT)"/>
<line x1="592.0666666666666" y1="431.5509755338553" x2="598.3333333333333" y2="431.5509755338553" stroke="#000"/>
<line x1="592.0666666666666" y1="432.64842988346044" x2="598.3333333333333" y2="432.64842988346044" stroke="#000"/>
<line x1="595.1999999999999" y1="431.5509755338553" x2="595.1999999999999" y2="432.64842988346044" stroke="#000"/>
<line x1="595.1999999999999" y1="498.0" x2="595.1999999999999" y2="502.79999999999995" stroke="#000"/>
<text x="595.1999999999999" y="512.4" fill="#111" font-size="small" font-family="monospace" font-weight="bold" text-anchor="end" transform="rotate(-60, 595.1999999999999, 512.4)">
optcarrot
</text>
<rect x="604.6" y="480.1643136819715" width="6.266666666666667" height="17.8356863180284" fill="#7070f8" data-tooltip="1.00x baseline speed (No JIT)"/>
<line x1="604.6" y1="480.0996381555492" x2="610.8666666666667" y2="480.0996381555492" stroke="#000"/>
<line x1="604.6" y1="480.2289892083938" x2="610.8666666666667" y2="480.2289892083938" stroke="#000"/>
<line x1="607.7333333333333" y1="480.0996381555492" x2="607.7333333333333" y2="480.2289892083938" stroke="#000"/>
<rect x="610.8666666666667" y="475.1866191486904" width="6.266666666666667" height="22.813380851309635" fill="orange" data-tooltip="1.28x baseline speed (YJIT)"/>
<line x1="610.8666666666667" y1="475.0665822781296" x2="617.1333333333333" y2="475.0665822781296" stroke="#000"/>
<line x1="610.8666666666667" y1="475.3066560192512" x2="617.1333333333333" y2="475.3066560192512" stroke="#000"/>
<line x1="614.0" y1="475.0665822781296" x2="614.0" y2="475.3066560192512" stroke="#000"/>
<line x1="614.0" y1="498.0" x2="614.0" y2="502.79999999999995" stroke="#000"/>
<text x="614.0" y="512.4" fill="#111" font-size="small" font-family="monospace" font-weight="bold" text-anchor="end" transform="rotate(-60, 614.0, 512.4)">
rack
</text>
<rect x="623.4" y="480.1643136819715" width="6.266666666666667" height="17.8356863180284" fill="#7070f8" data-tooltip="1.00x baseline speed (No JIT)"/>
<line x1="623.4" y1="480.1542140692102" x2="629.6666666666666" y2="480.1542140692102" stroke="#000"/>
<line x1="623.4" y1="480.1744132947328" x2="629.6666666666666" y2="480.1744132947328" stroke="#000"/>
<line x1="626.5333333333333" y1="480.1542140692102" x2="626.5333333333333" y2="480.1744132947328" stroke="#000"/>
<rect x="629.6666666666666" y="477.618411500422" width="6.266666666666667" height="20.381588499577976" fill="orange" data-tooltip="1.14x baseline speed (YJIT)"/>
<line x1="629.6666666666666" y1="477.6054128520805" x2="635.9333333333333" y2="477.6054128520805" stroke="#000"/>
<line x1="629.6666666666666" y1="477.6314101487635" x2="635.9333333333333" y2="477.6314101487635" stroke="#000"/>
<line x1="632.8" y1="477.6054128520805" x2="632.8" y2="477.6314101487635" stroke="#000"/>
<line x1="632.8" y1="498.0" x2="632.8" y2="502.79999999999995" stroke="#000"/>
<text x="632.8" y="512.4" fill="#111" font-size="small" font-family="monospace" font-weight="bold" text-anchor="end" transform="rotate(-60, 632.8, 512.4)">
ruby-json
</text>
<rect x="642.2" y="480.1643136819715" width="6.266666666666667" height="17.8356863180284" fill="#7070f8" data-tooltip="1.00x baseline speed (No JIT)"/>
<line x1="642.2" y1="480.04033096980976" x2="648.4666666666666" y2="480.04033096980976" stroke="#000"/>
<line x1="642.2" y1="480.2882963941332" x2="648.4666666666666" y2="480.2882963941332" stroke="#000"/>
<line x1="645.3333333333333" y1="480.04033096980976" x2="645.3333333333333" y2="480.2882963941332" stroke="#000"/>
<rect x="648.4666666666666" y="460.519191228398" width="6.266666666666667" height="37.48080877160193" fill="orange" data-tooltip="2.10x baseline speed (YJIT)"/>
<line x1="648.4666666666666" y1="460.07729890613876" x2="654.7333333333332" y2="460.07729890613876" stroke="#000"/>
<line x1="648.4666666666666" y1="460.9610835506571" x2="654.7333333333332" y2="460.9610835506571" stroke="#000"/>
<line x1="651.5999999999999" y1="460.07729890613876" x2="651.5999999999999" y2="460.9610835506571" stroke="#000"/>
<line x1="651.5999999999999" y1="498.0" x2="651.5999999999999" y2="502.79999999999995" stroke="#000"/>
<text x="651.5999999999999" y="512.4" fill="#111" font-size="small" font-family="monospace" font-weight="bold" text-anchor="end" transform="rotate(-60, 651.5999999999999, 512.4)">
rubykon
</text>
<rect x="661.0" y="480.1643136819715" width="6.266666666666667" height="17.8356863180284" fill="#7070f8" data-tooltip="1.00x baseline speed (No JIT)"/>
<line x1="661.0" y1="480.1471603869278" x2="667.2666666666667" y2="480.1471603869278" stroke="#000"/>
<line x1="661.0" y1="480.1814669770152" x2="667.2666666666667" y2="480.1814669770152" stroke="#000"/>
<line x1="664.1333333333333" y1="480.1471603869278" x2="664.1333333333333" y2="480.1814669770152" stroke="#000"/>
<rect x="667.2666666666667" y="452.8962939798918" width="6.266666666666667" height="45.103706020108184" fill="orange" data-tooltip="2.53x baseline speed (YJIT)"/>
<line x1="667.2666666666667" y1="452.85144808974826" x2="673.5333333333333" y2="452.85144808974826" stroke="#000"/>
<line x1="667.2666666666667" y1="452.9411398700354" x2="673.5333333333333" y2="452.9411398700354" stroke="#000"/>
<line x1="670.4" y1="452.85144808974826" x2="670.4" y2="452.9411398700354" stroke="#000"/>
<line x1="670.4" y1="498.0" x2="670.4" y2="502.79999999999995" stroke="#000"/>
<text x="670.4" y="512.4" fill="#111" font-size="small" font-family="monospace" font-weight="bold" text-anchor="end" transform="rotate(-60, 670.4, 512.4)">
sudoku
</text>
<rect x="679.8" y="480.1643136819715" width="6.266666666666667" height="17.8356863180284" fill="#7070f8" data-tooltip="1.00x baseline speed (No JIT)"/>
<line x1="679.8" y1="480.1472739926907" x2="686.0666666666666" y2="480.1472739926907" stroke="#000"/>
<line x1="679.8" y1="480.18135337125227" x2="686.0666666666666" y2="480.18135337125227" stroke="#000"/>
<line x1="682.9333333333333" y1="480.1472739926907" x2="682.9333333333333" y2="480.18135337125227" stroke="#000"/>
<rect x="686.0666666666666" y="464.624439955453" width="6.266666666666667" height="33.37556004454694" fill="orange" data-tooltip="1.87x baseline speed (YJIT)"/>
<line x1="686.0666666666666" y1="464.57909710701307" x2="692.3333333333333" y2="464.57909710701307" stroke="#000"/>
<line x1="686.0666666666666" y1="464.66978280389293" x2="692.3333333333333" y2="464.66978280389293" stroke="#000"/>
<line x1="689.1999999999999" y1="464.57909710701307" x2="689.1999999999999" y2="464.66978280389293" stroke="#000"/>
<line x1="689.1999999999999" y1="498.0" x2="689.1999999999999" y2="502.79999999999995" stroke="#000"/>
<text x="689.1999999999999" y="512.4" fill="#111" font-size="small" font-family="monospace" font-weight="bold" text-anchor="end" transform="rotate(-60, 689.1999999999999, 512.4)">
tinygql
</text>
<rect x="698.6" y="480.1643136819715" width="6.266666666666667" height="17.8356863180284" fill="#7070f8" data-tooltip="1.00x baseline speed (No JIT)"/>
<line x1="698.6" y1="480.1538621540274" x2="704.8666666666667" y2="480.1538621540274" stroke="#000"/>
<line x1="698.6" y1="480.1747652099156" x2="704.8666666666667" y2="480.1747652099156" stroke="#000"/>
<line x1="701.7333333333333" y1="480.1538621540274" x2="701.7333333333333" y2="480.1747652099156" stroke="#000"/>
<rect x="704.8666666666667" y="377.2356726905669" width="6.266666666666667" height="120.76432730943304" fill="orange" data-tooltip="6.77x baseline speed (YJIT)"/>
<line x1="704.8666666666667" y1="377.13470398402114" x2="711.1333333333333" y2="377.13470398402114" stroke="#000"/>
<line x1="704.8666666666667" y1="377.33664139711266" x2="711.1333333333333" y2="377.33664139711266" stroke="#000"/>
<line x1="708.0" y1="377.13470398402114" x2="708.0" y2="377.33664139711266" stroke="#000"/>
<line x1="708.0" y1="498.0" x2="708.0" y2="502.79999999999995" stroke="#000"/>
<text x="708.0" y="512.4" fill="#111" font-size="small" font-family="monospace" font-weight="bold" text-anchor="end" transform="rotate(-60, 708.0, 512.4)">
30k_ifelse
</text>
<rect x="717.4000000000001" y="480.1643136819715" width="6.266666666666667" height="17.8356863180284" fill="#7070f8" data-tooltip="1.00x baseline speed (No JIT)"/>
<line x1="717.4000000000001" y1="480.1614298241303" x2="723.6666666666666" y2="480.1614298241303" stroke="#000"/>
<line x1="717.4000000000001" y1="480.1671975398127" x2="723.6666666666666" y2="480.1671975398127" stroke="#000"/>
<line x1="720.5333333333333" y1="480.1614298241303" x2="720.5333333333333" y2="480.1671975398127" stroke="#000"/>
<rect x="723.6666666666666" y="355.3987135910543" width="6.266666666666667" height="142.6012864089456" fill="orange" data-tooltip="8.00x baseline speed (YJIT)"/>
<line x1="723.6666666666666" y1="355.3651762701361" x2="729.9333333333333" y2="355.3651762701361" stroke="#000"/>
<line x1="723.6666666666666" y1="355.43225091197246" x2="729.9333333333333" y2="355.43225091197246" stroke="#000"/>
<line x1="726.8" y1="355.3651762701361" x2="726.8" y2="355.43225091197246" stroke="#000"/>
<line x1="726.8" y1="498.0" x2="726.8" y2="502.79999999999995" stroke="#000"/>
<text x="726.8" y="512.4" fill="#111" font-size="small" font-family="monospace" font-weight="bold" text-anchor="end" transform="rotate(-60, 726.8, 512.4)">
30k_methods
</text>
<rect x="736.1999999999999" y="480.1643136819715" width="6.266666666666667" height="17.8356863180284" fill="#7070f8" data-tooltip="1.00x baseline speed (No JIT)"/>
<line x1="736.1999999999999" y1="480.13386449853755" x2="742.4666666666666" y2="480.13386449853755" stroke="#000"/>
<line x1="736.1999999999999" y1="480.1947628654055" x2="742.4666666666666" y2="480.1947628654055" stroke="#000"/>
<line x1="739.3333333333333" y1="480.13386449853755" x2="739.3333333333333" y2="480.1947628654055" stroke="#000"/>
<rect x="742.4666666666666" y="414.9317509116075" width="6.266666666666667" height="83.0682490883925" fill="orange" data-tooltip="4.66x baseline speed (YJIT)"/>
<line x1="742.4666666666666" y1="414.78701935767737" x2="748.7333333333332" y2="414.78701935767737" stroke="#000"/>
<line x1="742.4666666666666" y1="415.0764824655376" x2="748.7333333333332" y2="415.0764824655376" stroke="#000"/>
<line x1="745.5999999999999" y1="414.78701935767737" x2="745.5999999999999" y2="415.0764824655376" stroke="#000"/>
<line x1="745.5999999999999" y1="498.0" x2="745.5999999999999" y2="502.79999999999995" stroke="#000"/>
<text x="745.5999999999999" y="512.4" fill="#111" font-size="small" font-family="monospace" font-weight="bold" text-anchor="end" transform="rotate(-60, 745.5999999999999, 512.4)">
cfunc_itself
</text>
<rect x="755.0" y="480.1643136819715" width="6.266666666666667" height="17.8356863180284" fill="#7070f8" data-tooltip="1.00x baseline speed (No JIT)"/>
<line x1="755.0" y1="480.08270062963345" x2="761.2666666666667" y2="480.08270062963345" stroke="#000"/>
<line x1="755.0" y1="480.24592673430953" x2="761.2666666666667" y2="480.24592673430953" stroke="#000"/>
<line x1="758.1333333333333" y1="480.08270062963345" x2="758.1333333333333" y2="480.24592673430953" stroke="#000"/>
<rect x="761.2666666666667" y="398.5249872191851" width="6.266666666666667" height="99.47501278081484" fill="orange" data-tooltip="5.58x baseline speed (YJIT)"/>
<line x1="761.2666666666667" y1="398.03051380153715" x2="767.5333333333333" y2="398.03051380153715" stroke="#000"/>
<line x1="761.2666666666667" y1="399.019460636833" x2="767.5333333333333" y2="399.019460636833" stroke="#000"/>
<line x1="764.4" y1="398.03051380153715" x2="764.4" y2="399.019460636833" stroke="#000"/>
<line x1="764.4" y1="498.0" x2="764.4" y2="502.79999999999995" stroke="#000"/>
<text x="764.4" y="512.4" fill="#111" font-size="small" font-family="monospace" font-weight="bold" text-anchor="end" transform="rotate(-60, 764.4, 512.4)">
fib
</text>
<rect x="773.8000000000001" y="480.1643136819715" width="6.266666666666667" height="17.8356863180284" fill="#7070f8" data-tooltip="1.00x baseline speed (No JIT)"/>
<line x1="773.8000000000001" y1="480.11619936275514" x2="780.0666666666667" y2="480.11619936275514" stroke="#000"/>
<line x1="773.8000000000001" y1="480.21242800118785" x2="780.0666666666667" y2="480.21242800118785" stroke="#000"/>
<line x1="776.9333333333334" y1="480.11619936275514" x2="776.9333333333334" y2="480.21242800118785" stroke="#000"/>
<rect x="780.0666666666667" y="391.20147056070465" width="6.266666666666667" height="106.79852943929535" fill="orange" data-tooltip="5.99x baseline speed (YJIT)"/>
<line x1="780.0666666666667" y1="390.4099865997719" x2="786.3333333333334" y2="390.4099865997719" stroke="#000"/>
<line x1="780.0666666666667" y1="391.99295452163733" x2="786.3333333333334" y2="391.99295452163733" stroke="#000"/>
<line x1="783.2" y1="390.4099865997719" x2="783.2" y2="391.99295452163733" stroke="#000"/>
<line x1="783.2" y1="498.0" x2="783.2" y2="502.79999999999995" stroke="#000"/>
<text x="783.2" y="512.4" fill="#111" font-size="small" font-family="monospace" font-weight="bold" text-anchor="end" transform="rotate(-60, 783.2, 512.4)">
getivar
</text>
<rect x="792.6" y="480.1643136819715" width="6.266666666666667" height="17.8356863180284" fill="#7070f8" data-tooltip="1.00x baseline speed (No JIT)"/>
<line x1="792.6" y1="480.1579398716011" x2="798.8666666666666" y2="480.1579398716011" stroke="#000"/>
<line x1="792.6" y1="480.17068749234187" x2="798.8666666666666" y2="480.17068749234187" stroke="#000"/>
<line x1="795.7333333333333" y1="480.1579398716011" x2="795.7333333333333" y2="480.17068749234187" stroke="#000"/>
<rect x="798.8666666666666" y="338.792857502694" width="6.266666666666667" height="159.20714249730597" fill="orange" data-tooltip="8.93x baseline speed (YJIT)"/>
<line x1="798.8666666666666" y1="338.02134878991757" x2="805.1333333333332" y2="338.02134878991757" stroke="#000"/>
<line x1="798.8666666666666" y1="339.5643662154704" x2="805.1333333333332" y2="339.5643662154704" stroke="#000"/>
<line x1="801.9999999999999" y1="338.02134878991757" x2="801.9999999999999" y2="339.5643662154704" stroke="#000"/>
<line x1="801.9999999999999" y1="498.0" x2="801.9999999999999" y2="502.79999999999995" stroke="#000"/>
<text x="801.9999999999999" y="512.4" fill="#111" font-size="small" font-family="monospace" font-weight="bold" text-anchor="end" transform="rotate(-60, 801.9999999999999, 512.4)">
keyword_args
</text>
<rect x="811.4" y="480.1643136819715" width="6.266666666666667" height="17.8356863180284" fill="#7070f8" data-tooltip="1.00x baseline speed (No JIT)"/>
<line x1="811.4" y1="480.124999287064" x2="817.6666666666666" y2="480.124999287064" stroke="#000"/>
<line x1="811.4" y1="480.203628076879" x2="817.6666666666666" y2="480.203628076879" stroke="#000"/>
<line x1="814.5333333333333" y1="480.124999287064" x2="814.5333333333333" y2="480.203628076879" stroke="#000"/>
<rect x="817.6666666666666" y="100.19999999999999" width="6.266666666666667" height="397.79999999999995" fill="orange" data-tooltip="22.30x baseline speed (YJIT)"/>
<line x1="817.6666666666666" y1="98.97105499957311" x2="823.9333333333333" y2="98.97105499957311" stroke="#000"/>
<line x1="817.6666666666666" y1="101.42894500042686" x2="823.9333333333333" y2="101.42894500042686" stroke="#000"/>
<line x1="820.8" y1="98.97105499957311" x2="820.8" y2="101.42894500042686" stroke="#000"/>
<line x1="820.8" y1="498.0" x2="820.8" y2="502.79999999999995" stroke="#000"/>
<text x="820.8" y="512.4" fill="#111" font-size="small" font-family="monospace" font-weight="bold" text-anchor="end" transform="rotate(-60, 820.8, 512.4)">
respond_to
</text>
<rect x="830.2" y="480.1643136819715" width="6.266666666666667" height="17.8356863180284" fill="#7070f8" data-tooltip="1.00x baseline speed (No JIT)"/>
<line x1="830.2" y1="480.1494577818345" x2="836.4666666666667" y2="480.1494577818345" stroke="#000"/>
<line x1="830.2" y1="480.1791695821085" x2="836.4666666666667" y2="480.1791695821085" stroke="#000"/>
<line x1="833.3333333333334" y1="480.1494577818345" x2="833.3333333333334" y2="480.1791695821085" stroke="#000"/>
<rect x="836.4666666666667" y="425.6012295940274" width="6.266666666666667" height="72.39877040597251" fill="orange" data-tooltip="4.06x baseline speed (YJIT)"/>
<line x1="836.4666666666667" y1="425.47104278871956" x2="842.7333333333333" y2="425.47104278871956" stroke="#000"/>
<line x1="836.4666666666667" y1="425.7314163993353" x2="842.7333333333333" y2="425.7314163993353" stroke="#000"/>
<line x1="839.6" y1="425.47104278871956" x2="839.6" y2="425.7314163993353" stroke="#000"/>
<line x1="839.6" y1="498.0" x2="839.6" y2="502.79999999999995" stroke="#000"/>
<text x="839.6" y="512.4" fill="#111" font-size="small" font-family="monospace" font-weight="bold" text-anchor="end" transform="rotate(-60, 839.6, 512.4)">
ruby-xor
</text>
<rect x="849.0" y="480.1643136819715" width="6.266666666666667" height="17.8356863180284" fill="#7070f8" data-tooltip="1.00x baseline speed (No JIT)"/>
<line x1="849.0" y1="480.1391791263467" x2="855.2666666666667" y2="480.1391791263467" stroke="#000"/>
<line x1="849.0" y1="480.1894482375963" x2="855.2666666666667" y2="480.1894482375963" stroke="#000"/>
<line x1="852.1333333333333" y1="480.1391791263467" x2="852.1333333333333" y2="480.1894482375963" stroke="#000"/>
<rect x="855.2666666666667" y="344.1188884168529" width="6.266666666666667" height="153.88111158314706" fill="orange" data-tooltip="8.63x baseline speed (YJIT)"/>
<line x1="855.2666666666667" y1="343.8188091497793" x2="861.5333333333333" y2="343.8188091497793" stroke="#000"/>
<line x1="855.2666666666667" y1="344.41896768392644" x2="861.5333333333333" y2="344.41896768392644" stroke="#000"/>
<line x1="858.4" y1="343.8188091497793" x2="858.4" y2="344.41896768392644" stroke="#000"/>
<line x1="858.4" y1="498.0" x2="858.4" y2="502.79999999999995" stroke="#000"/>
<text x="858.4" y="512.4" fill="#111" font-size="small" font-family="monospace" font-weight="bold" text-anchor="end" transform="rotate(-60, 858.4, 512.4)">
setivar
</text>
<rect x="867.8000000000001" y="480.1643136819715" width="6.266666666666667" height="17.8356863180284" fill="#7070f8" data-tooltip="1.00x baseline speed (No JIT)"/>
<line x1="867.8000000000001" y1="480.08000062480903" x2="874.0666666666666" y2="480.08000062480903" stroke="#000"/>
<line x1="867.8000000000001" y1="480.24862673913395" x2="874.0666666666666" y2="480.24862673913395" stroke="#000"/>
<line x1="870.9333333333334" y1="480.08000062480903" x2="870.9333333333334" y2="480.24862673913395" stroke="#000"/>
<rect x="874.0666666666666" y="451.8514871551121" width="6.266666666666667" height="46.14851284488782" fill="orange" data-tooltip="2.59x baseline speed (YJIT)"/>
<line x1="874.0666666666666" y1="451.6279331893688" x2="880.3333333333333" y2="451.6279331893688" stroke="#000"/>
<line x1="874.0666666666666" y1="452.0750411208555" x2="880.3333333333333" y2="452.0750411208555" stroke="#000"/>
<line x1="877.1999999999999" y1="451.6279331893688" x2="877.1999999999999" y2="452.0750411208555" stroke="#000"/>
<line x1="877.1999999999999" y1="498.0" x2="877.1999999999999" y2="502.79999999999995" stroke="#000"/>
<text x="877.1999999999999" y="512.4" fill="#111" font-size="small" font-family="monospace" font-weight="bold" text-anchor="end" transform="rotate(-60, 877.1999999999999, 512.4)">
setivar_object
</text>
<rect x="886.6" y="480.1643136819715" width="6.266666666666667" height="17.8356863180284" fill="#7070f8" data-tooltip="1.00x baseline speed (No JIT)"/>
<line x1="886.6" y1="480.05713557115695" x2="892.8666666666667" y2="480.05713557115695" stroke="#000"/>
<line x1="886.6" y1="480.27149179278604" x2="892.8666666666667" y2="480.27149179278604" stroke="#000"/>
<line x1="889.7333333333333" y1="480.05713557115695" x2="889.7333333333333" y2="480.27149179278604" stroke="#000"/>
<rect x="892.8666666666667" y="449.99728017212084" width="6.266666666666667" height="48.00271982787912" fill="orange" data-tooltip="2.69x baseline speed (YJIT)"/>
<line x1="892.8666666666667" y1="449.16537477699416" x2="899.1333333333333" y2="449.16537477699416" stroke="#000"/>
<line x1="892.8666666666667" y1="450.82918556724746" x2="899.1333333333333" y2="450.82918556724746" stroke="#000"/>
<line x1="896.0" y1="449.16537477699416" x2="896.0" y2="450.82918556724746" stroke="#000"/>
<line x1="896.0" y1="498.0" x2="896.0" y2="502.79999999999995" stroke="#000"/>
<text x="896.0" y="512.4" fill="#111" font-size="small" font-family="monospace" font-weight="bold" text-anchor="end" transform="rotate(-60, 896.0, 512.4)">
setivar_young
</text>
<rect x="905.4" y="480.1643136819715" width="6.266666666666667" height="17.8356863180284" fill="#7070f8" data-tooltip="1.00x baseline speed (No JIT)"/>
<line x1="905.4" y1="480.0263045191279" x2="911.6666666666666" y2="480.0263045191279" stroke="#000"/>
<line x1="905.4" y1="480.3023228448151" x2="911.6666666666666" y2="480.3023228448151" stroke="#000"/>
<line x1="908.5333333333333" y1="480.0263045191279" x2="908.5333333333333" y2="480.3023228448151" stroke="#000"/>
<rect x="911.6666666666666" y="466.2604323608035" width="6.266666666666667" height="31.73956763919644" fill="orange" data-tooltip="1.78x baseline speed (YJIT)"/>
<line x1="911.6666666666666" y1="465.59488586780486" x2="917.9333333333333" y2="465.59488586780486" stroke="#000"/>
<line x1="911.6666666666666" y1="466.9259788538021" x2="917.9333333333333" y2="466.9259788538021" stroke="#000"/>
<line x1="914.8" y1="465.59488586780486" x2="914.8" y2="466.9259788538021" stroke="#000"/>
<line x1="914.8" y1="498.0" x2="914.8" y2="502.79999999999995" stroke="#000"/>
<text x="914.8" y="512.4" fill="#111" font-size="small" font-family="monospace" font-weight="bold" text-anchor="end" transform="rotate(-60, 914.8, 512.4)">
str_concat
</text>
<rect x="924.2" y="480.1643136819715" width="6.266666666666667" height="17.8356863180284" fill="#7070f8" data-tooltip="1.00x baseline speed (No JIT)"/>
<line x1="924.2" y1="480.1195020468958" x2="930.4666666666667" y2="480.1195020468958" stroke="#000"/>
<line x1="924.2" y1="480.2091253170472" x2="930.4666666666667" y2="480.2091253170472" stroke="#000"/>
<line x1="927.3333333333334" y1="480.1195020468958" x2="927.3333333333334" y2="480.2091253170472" stroke="#000"/>
<rect x="930.4666666666667" y="475.7603565540209" width="6.266666666666667" height="22.239643445978977" fill="orange" data-tooltip="1.25x baseline speed (YJIT)"/>
<line x1="930.4666666666667" y1="475.6622863694269" x2="936.7333333333333" y2="475.6622863694269" stroke="#000"/>
<line x1="930.4666666666667" y1="475.858426738615" x2="936.7333333333333" y2="475.858426738615" stroke="#000"/>
<line x1="933.6" y1="475.6622863694269" x2="933.6" y2="475.858426738615" stroke="#000"/>
<line x1="933.6" y1="498.0" x2="933.6" y2="502.79999999999995" stroke="#000"/>
<text x="933.6" y="512.4" fill="#111" font-size="small" font-family="monospace" font-weight="bold" text-anchor="end" transform="rotate(-60, 933.6, 512.4)">
throw
</text>
</svg>