<svg viewBox="0 0 1000 600" xmlns="http://www.w3.org/2000/svg" xmlns:xlink="http://www.w3.org/1999/xlink" width="100%" height="100%">

<rect x="50.0" y="30.0" width="940.0" height="467.99999999999994" stroke="#000" fill="#fff"/>
<line x1="42.0" y1="497.9999999999999" x2="50.0" y2="497.9999999999999" stroke="#000"/>
<text x="26.000000000000004" y="497.9999999999999" text-anchor="end" font-weight="bold" font-size="small" fill="#111">
0.0
</text>
<line x1="42.0" y1="430.2637058872604" x2="50.0" y2="430.2637058872604" stroke="#000"/>
<text x="26.000000000000004" y="430.2637058872604" text-anchor="end" font-weight="bold" font-size="small" fill="#111">
2.0
</text>
<line x1="42.0" y1="362.52741177452094" x2="50.0" y2="362.52741177452094" stroke="#000"/>
<text x="26.000000000000004" y="362.52741177452094" text-anchor="end" font-weight="bold" font-size="small" fill="#111">
4.0
</text>
<line x1="42.0" y1="294.7911176617814" x2="50.0" y2="294.7911176617814" stroke="#000"/>
<text x="26.000000000000004" y="294.7911176617814" text-anchor="end" font-weight="bold" font-size="small" fill="#111">
6.0
</text>
<line x1="42.0" y1="227.05482354904194" x2="50.0" y2="227.05482354904194" stroke="#000"/>
<text x="26.000000000000004" y="227.05482354904194" text-anchor="end" font-weight="bold" font-size="small" fill="#111">
8.0
</text>
<line x1="42.0" y1="159.3185294363024" x2="50.0" y2="159.3185294363024" stroke="#000"/>
<text x="26.000000000000004" y="159.3185294363024" text-anchor="end" font-weight="bold" font-size="small" fill="#111">
10.0
</text>
<line x1="178.0" y1="54.60000000000001" x2="298.0" y2="54.60000000000001" stroke="#648FFF" stroke-width="2"/>
<text x="238.0" y="49.500000000000014" font-size="small" text-anchor="middle" font-weight="bold" fill="#000">
CRuby 3.2.0dev
</text>
<rect x="459.9999999999999" y="35.400000000000006" width="120.0" height="19.2" fill="#785EF0" stroke="none"/>
<text x="519.9999999999999" y="49.500000000000014" font-size="small" text-anchor="middle" font-weight="bold" fill="#fff" style="text-shadow: 0 0 1px #000;">
MJIT
</text>
<rect x="742.0" y="35.400000000000006" width="120.0" height="19.2" fill="#FFB000" stroke="none"/>
<text x="801.9999999999999" y="49.500000000000014" font-size="small" text-anchor="middle" font-weight="bold" fill="#fff" style="text-shadow: 0 0 1px #000;">
YJIT 3.2.0dev
</text>
<rect x="63.23943661971831" y="461.1694686141819" width="13.23943661971831" height="36.830531385818084" fill="#785EF0" data-tooltip="1.09x baseline (MJIT)"/>
<rect x="76.47887323943662" y="327.49444369540697" width="13.23943661971831" height="170.505556304593" fill="#FFB000" data-tooltip="5.03x baseline (YJIT 3.2.0dev)"/>
<line x1="76.47887323943662" y1="498.0" x2="76.47887323943662" y2="502.79999999999995" stroke="#000"/>
<text x="76.47887323943662" y="512.4" fill="#111" font-size="small" text-anchor="end" transform="rotate(-60, 76.47887323943662, 512.4)">
activerecord
</text>
<rect x="102.95774647887325" y="428.72720670028207" width="13.23943661971831" height="69.27279329971785" fill="#FFB000" data-tooltip="2.05x baseline (YJIT 3.2.0dev)"/>
<line x1="109.5774647887324" y1="498.0" x2="109.5774647887324" y2="502.79999999999995" stroke="#000"/>
<text x="109.5774647887324" y="512.4" fill="#111" font-size="small" text-anchor="end" transform="rotate(-60, 109.5774647887324, 512.4)">
hexapdf
</text>
<rect x="129.43661971830986" y="184.1531979280863" width="13.23943661971831" height="313.84680207191366" fill="#FFB000" data-tooltip="9.27x baseline (YJIT 3.2.0dev)"/>
<line x1="136.05633802816902" y1="498.0" x2="136.05633802816902" y2="502.79999999999995" stroke="#000"/>
<text x="136.05633802816902" y="512.4" fill="#111" font-size="small" text-anchor="end" transform="rotate(-60, 136.05633802816902, 512.4)">
liquid-render
</text>
<rect x="155.91549295774647" y="459.10996593627027" width="13.23943661971831" height="38.890034063729615" fill="#785EF0" data-tooltip="1.15x baseline (MJIT)"/>
<rect x="169.15492957746474" y="282.1256298272368" width="13.23943661971831" height="215.87437017276315" fill="#FFB000" data-tooltip="6.37x baseline (YJIT 3.2.0dev)"/>
<line x1="169.15492957746474" y1="498.0" x2="169.15492957746474" y2="502.79999999999995" stroke="#000"/>
<text x="169.15492957746474" y="512.4" fill="#111" font-size="small" text-anchor="end" transform="rotate(-60, 169.15492957746474, 512.4)">
mail
</text>
<rect x="195.63380281690135" y="461.5327463196032" width="13.23943661971831" height="36.46725368039682" fill="#785EF0" data-tooltip="1.08x baseline (MJIT)"/>
<rect x="208.87323943661966" y="246.7127664220753" width="13.23943661971831" height="251.2872335779247" fill="#FFB000" data-tooltip="7.42x baseline (YJIT 3.2.0dev)"/>
<line x1="208.87323943661963" y1="498.0" x2="208.87323943661963" y2="502.79999999999995" stroke="#000"/>
<text x="208.87323943661963" y="512.4" fill="#111" font-size="small" text-anchor="end" transform="rotate(-60, 208.87323943661963, 512.4)">
psych-load
</text>
<rect x="235.35211267605624" y="456.7387284136849" width="13.23943661971831" height="41.261271586314976" fill="#785EF0" data-tooltip="1.22x baseline (MJIT)"/>
<rect x="248.59154929577454" y="373.30399836985447" width="13.23943661971831" height="124.69600163014546" fill="#FFB000" data-tooltip="3.68x baseline (YJIT 3.2.0dev)"/>
<line x1="248.59154929577454" y1="498.0" x2="248.59154929577454" y2="502.79999999999995" stroke="#000"/>
<text x="248.59154929577454" y="512.4" fill="#111" font-size="small" text-anchor="end" transform="rotate(-60, 248.59154929577454, 512.4)">
railsbench
</text>
<rect x="275.0704225352112" y="453.6072888362752" width="13.23943661971831" height="44.39271116372471" fill="#785EF0" data-tooltip="1.31x baseline (MJIT)"/>
<rect x="288.30985915492954" y="170.87706065640964" width="13.23943661971831" height="327.12293934359025" fill="#FFB000" data-tooltip="9.66x baseline (YJIT 3.2.0dev)"/>
<line x1="288.3098591549296" y1="498.0" x2="288.3098591549296" y2="502.79999999999995" stroke="#000"/>
<text x="288.3098591549296" y="512.4" fill="#111" font-size="small" text-anchor="end" transform="rotate(-60, 288.3098591549296, 512.4)">
binarytrees
</text>
<rect x="314.78873239436615" y="461.0046702399269" width="13.23943661971831" height="36.99532976007302" fill="#785EF0" data-tooltip="1.09x baseline (MJIT)"/>
<rect x="328.0281690140845" y="437.1250144678585" width="13.23943661971831" height="60.87498553214145" fill="#FFB000" data-tooltip="1.80x baseline (YJIT 3.2.0dev)"/>
<line x1="328.0281690140845" y1="498.0" x2="328.0281690140845" y2="502.79999999999995" stroke="#000"/>
<text x="328.0281690140845" y="512.4" fill="#111" font-size="small" text-anchor="end" transform="rotate(-60, 328.0281690140845, 512.4)">
discourse
</text>
<rect x="354.50704225352115" y="460.96692443772145" width="13.23943661971831" height="37.03307556227852" fill="#785EF0" data-tooltip="1.09x baseline (MJIT)"/>
<rect x="367.7464788732395" y="356.50356123043065" width="13.23943661971831" height="141.49643876956927" fill="#FFB000" data-tooltip="4.18x baseline (YJIT 3.2.0dev)"/>
<line x1="367.74647887323954" y1="498.0" x2="367.74647887323954" y2="502.79999999999995" stroke="#000"/>
<text x="367.74647887323954" y="512.4" fill="#111" font-size="small" text-anchor="end" transform="rotate(-60, 367.74647887323954, 512.4)">
erubi
</text>
<rect x="394.2253521126761" y="454.59746769484127" width="13.23943661971831" height="43.40253230515867" fill="#785EF0" data-tooltip="1.28x baseline (MJIT)"/>
<rect x="407.4647887323944" y="378.8316300030378" width="13.23943661971831" height="119.16836999696213" fill="#FFB000" data-tooltip="3.52x baseline (YJIT 3.2.0dev)"/>
<line x1="407.4647887323944" y1="498.0" x2="407.4647887323944" y2="502.79999999999995" stroke="#000"/>
<text x="407.4647887323944" y="512.4" fill="#111" font-size="small" text-anchor="end" transform="rotate(-60, 407.4647887323944, 512.4)">
erubi_rails
</text>
<rect x="433.9436619718311" y="463.02502597771417" width="13.23943661971831" height="34.97497402228581" fill="#785EF0" data-tooltip="1.03x baseline (MJIT)"/>
<rect x="447.1830985915494" y="104.8616104970774" width="13.23943661971831" height="393.13838950292256" fill="#FFB000" data-tooltip="11.61x baseline (YJIT 3.2.0dev)"/>
<line x1="447.1830985915495" y1="498.0" x2="447.1830985915495" y2="502.79999999999995" stroke="#000"/>
<text x="447.1830985915495" y="512.4" fill="#111" font-size="small" text-anchor="end" transform="rotate(-60, 447.1830985915495, 512.4)">
fannkuchredux
</text>
<rect x="473.6619718309861" y="460.1026641816375" width="13.23943661971831" height="37.89733581836241" fill="#785EF0" data-tooltip="1.12x baseline (MJIT)"/>
<rect x="486.9014084507044" y="224.11798486890163" width="13.23943661971831" height="273.8820151310983" fill="#FFB000" data-tooltip="8.09x baseline (YJIT 3.2.0dev)"/>
<line x1="486.9014084507044" y1="498.0" x2="486.9014084507044" y2="502.79999999999995" stroke="#000"/>
<text x="486.9014084507044" y="512.4" fill="#111" font-size="small" text-anchor="end" transform="rotate(-60, 486.9014084507044, 512.4)">
lee
</text>
<rect x="513.3802816901409" y="456.20456932805365" width="13.23943661971831" height="41.79543067194631" fill="#785EF0" data-tooltip="1.23x baseline (MJIT)"/>
<rect x="526.6197183098592" y="101.98204002486902" width="13.23943661971831" height="396.0179599751309" fill="#FFB000" data-tooltip="11.69x baseline (YJIT 3.2.0dev)"/>
<line x1="526.6197183098591" y1="498.0" x2="526.6197183098591" y2="502.79999999999995" stroke="#000"/>
<text x="526.6197183098591" y="512.4" fill="#111" font-size="small" text-anchor="end" transform="rotate(-60, 526.6197183098591, 512.4)">
nbody
</text>
<rect x="553.0985915492957" y="461.35857168994863" width="13.23943661971831" height="36.64142831005137" fill="#785EF0" data-tooltip="1.08x baseline (MJIT)"/>
<rect x="566.338028169014" y="347.9742688095233" width="13.23943661971831" height="150.02573119047662" fill="#FFB000" data-tooltip="4.43x baseline (YJIT 3.2.0dev)"/>
<line x1="566.338028169014" y1="498.0" x2="566.338028169014" y2="502.79999999999995" stroke="#000"/>
<text x="566.338028169014" y="512.4" fill="#111" font-size="small" text-anchor="end" transform="rotate(-60, 566.338028169014, 512.4)">
optcarrot
</text>
<rect x="592.8169014084506" y="460.62559823985464" width="13.23943661971831" height="37.37440176014531" fill="#785EF0" data-tooltip="1.10x baseline (MJIT)"/>
<rect x="606.0563380281689" y="329.5019074656568" width="13.23943661971831" height="168.49809253434313" fill="#FFB000" data-tooltip="4.98x baseline (YJIT 3.2.0dev)"/>
<line x1="606.0563380281687" y1="498.0" x2="606.0563380281687" y2="502.79999999999995" stroke="#000"/>
<text x="606.0563380281687" y="512.4" fill="#111" font-size="small" text-anchor="end" transform="rotate(-60, 606.0563380281687, 512.4)">
rubykon
</text>
<rect x="632.5352112676054" y="460.34097581208096" width="13.23943661971831" height="37.65902418791905" fill="#785EF0" data-tooltip="1.11x baseline (MJIT)"/>
<rect x="645.7746478873237" y="313.7338339343395" width="13.23943661971831" height="184.26616606566049" fill="#FFB000" data-tooltip="5.44x baseline (YJIT 3.2.0dev)"/>
<line x1="645.7746478873237" y1="498.0" x2="645.7746478873237" y2="502.79999999999995" stroke="#000"/>
<text x="645.7746478873237" y="512.4" fill="#111" font-size="small" text-anchor="end" transform="rotate(-60, 645.7746478873237, 512.4)">
30k_ifelse
</text>
<rect x="672.2535211267602" y="410.4938413569788" width="13.23943661971831" height="87.50615864302107" fill="#785EF0" data-tooltip="2.58x baseline (MJIT)"/>
<rect x="685.4929577464784" y="303.3026459663564" width="13.23943661971831" height="194.69735403364356" fill="#FFB000" data-tooltip="5.75x baseline (YJIT 3.2.0dev)"/>
<line x1="685.4929577464783" y1="498.0" x2="685.4929577464783" y2="502.79999999999995" stroke="#000"/>
<text x="685.4929577464783" y="512.4" fill="#111" font-size="small" text-anchor="end" transform="rotate(-60, 685.4929577464783, 512.4)">
30k_methods
</text>
<rect x="711.971830985915" y="386.99419971666543" width="13.23943661971831" height="111.00580028333452" fill="#785EF0" data-tooltip="3.28x baseline (MJIT)"/>
<rect x="725.2112676056332" y="101.1611051980917" width="13.23943661971831" height="396.8388948019082" fill="#FFB000" data-tooltip="11.72x baseline (YJIT 3.2.0dev)"/>
<line x1="725.2112676056332" y1="498.0" x2="725.2112676056332" y2="502.79999999999995" stroke="#000"/>
<text x="725.2112676056332" y="512.4" fill="#111" font-size="small" text-anchor="end" transform="rotate(-60, 725.2112676056332, 512.4)">
cfunc_itself
</text>
<rect x="751.6901408450698" y="460.5949545625398" width="13.23943661971831" height="37.405045437460174" fill="#785EF0" data-tooltip="1.10x baseline (MJIT)"/>
<rect x="764.929577464788" y="102.0569767258499" width="13.23943661971831" height="395.94302327415005" fill="#FFB000" data-tooltip="11.69x baseline (YJIT 3.2.0dev)"/>
<line x1="764.9295774647879" y1="498.0" x2="764.9295774647879" y2="502.79999999999995" stroke="#000"/>
<text x="764.9295774647879" y="512.4" fill="#111" font-size="small" text-anchor="end" transform="rotate(-60, 764.9295774647879, 512.4)">
fib
</text>
<rect x="791.4084507042246" y="460.79622851389513" width="13.23943661971831" height="37.20377148610485" fill="#785EF0" data-tooltip="1.10x baseline (MJIT)"/>
<rect x="804.6478873239429" y="104.16089362854918" width="13.23943661971831" height="393.8391063714508" fill="#FFB000" data-tooltip="11.63x baseline (YJIT 3.2.0dev)"/>
<line x1="804.6478873239429" y1="498.0" x2="804.6478873239429" y2="502.79999999999995" stroke="#000"/>
<text x="804.6478873239429" y="512.4" fill="#111" font-size="small" text-anchor="end" transform="rotate(-60, 804.6478873239429, 512.4)">
getivar
</text>
<rect x="831.1267605633794" y="461.4199906348461" width="13.23943661971831" height="36.580009365153806" fill="#785EF0" data-tooltip="1.08x baseline (MJIT)"/>
<rect x="844.3661971830977" y="102.343201924441" width="13.23943661971831" height="395.6567980755589" fill="#FFB000" data-tooltip="11.68x baseline (YJIT 3.2.0dev)"/>
<line x1="844.3661971830976" y1="498.0" x2="844.3661971830976" y2="502.79999999999995" stroke="#000"/>
<text x="844.3661971830976" y="512.4" fill="#111" font-size="small" text-anchor="end" transform="rotate(-60, 844.3661971830976, 512.4)">
keyword_args
</text>
<rect x="870.8450704225343" y="459.9155355951531" width="13.23943661971831" height="38.08446440484679" fill="#785EF0" data-tooltip="1.12x baseline (MJIT)"/>
<rect x="884.0845070422525" y="100.19999999999999" width="13.23943661971831" height="397.79999999999995" fill="#FFB000" data-tooltip="11.75x baseline (YJIT 3.2.0dev)"/>
<line x1="884.0845070422525" y1="498.0" x2="884.0845070422525" y2="502.79999999999995" stroke="#000"/>
<text x="884.0845070422525" y="512.4" fill="#111" font-size="small" text-anchor="end" transform="rotate(-60, 884.0845070422525, 512.4)">
respond_to
</text>
<rect x="910.5633802816891" y="460.0940042826552" width="13.23943661971831" height="37.90599571734475" fill="#785EF0" data-tooltip="1.12x baseline (MJIT)"/>
<rect x="923.8028169014073" y="100.59495319743125" width="13.23943661971831" height="397.4050468025687" fill="#FFB000" data-tooltip="11.73x baseline (YJIT 3.2.0dev)"/>
<line x1="923.8028169014071" y1="498.0" x2="923.8028169014071" y2="502.79999999999995" stroke="#000"/>
<text x="923.8028169014071" y="512.4" fill="#111" font-size="small" text-anchor="end" transform="rotate(-60, 923.8028169014071, 512.4)">
setivar
</text>
<rect x="950.2816901408438" y="456.1088542715286" width="13.23943661971831" height="41.89114572847127" fill="#785EF0" data-tooltip="1.24x baseline (MJIT)"/>
<rect x="963.5211267605621" y="272.99382263724027" width="13.23943661971831" height="225.00617736275967" fill="#FFB000" data-tooltip="6.64x baseline (YJIT 3.2.0dev)"/>
<line x1="963.5211267605621" y1="498.0" x2="963.5211267605621" y2="502.79999999999995" stroke="#000"/>
<text x="963.5211267605621" y="512.4" fill="#111" font-size="small" text-anchor="end" transform="rotate(-60, 963.5211267605621, 512.4)" font-style="italic">
geomean*
</text>
<line x1="50.0" y1="464.1318529436301" x2="990.0" y2="464.1318529436301" stroke="#648FFF" stroke-width="2"/>
</svg>