<svg viewBox="0 0 1000 600" xmlns="http://www.w3.org/2000/svg" xmlns:xlink="http://www.w3.org/1999/xlink" width="100%" height="100%">

<rect x="50.0" y="30.0" width="940.0" height="467.99999999999994" stroke="#000" fill="#fff"/>
<line x1="42.0" y1="497.9999999999999" x2="50.0" y2="497.9999999999999" stroke="#000"/>
<text x="26.000000000000004" y="497.9999999999999" text-anchor="end" font-weight="bold" font-size="small" fill="#111">
0.0
</text>
<line x1="42.0" y1="418.12855670726026" x2="50.0" y2="418.12855670726026" stroke="#000"/>
<text x="26.000000000000004" y="418.12855670726026" text-anchor="end" font-weight="bold" font-size="small" fill="#111">
0.5
</text>
<line x1="42.0" y1="338.2571134145205" x2="50.0" y2="338.2571134145205" stroke="#000"/>
<text x="26.000000000000004" y="338.2571134145205" text-anchor="end" font-weight="bold" font-size="small" fill="#111">
1.0
</text>
<line x1="42.0" y1="258.38567012178083" x2="50.0" y2="258.38567012178083" stroke="#000"/>
<text x="26.000000000000004" y="258.38567012178083" text-anchor="end" font-weight="bold" font-size="small" fill="#111">
1.5
</text>
<line x1="42.0" y1="178.5142268290411" x2="50.0" y2="178.5142268290411" stroke="#000"/>
<text x="26.000000000000004" y="178.5142268290411" text-anchor="end" font-weight="bold" font-size="small" fill="#111">
2.0
</text>
<line x1="142.75" y1="54.60000000000001" x2="262.75" y2="54.60000000000001" stroke="#648FFF" stroke-width="2"/>
<text x="202.75" y="49.500000000000014" font-size="small" text-anchor="middle" font-weight="bold" fill="#000">
CRuby 3.3.3
</text>
<rect x="354.25" y="35.400000000000006" width="120.0" height="19.2" fill="#785EF0" stroke="none"/>
<text x="414.25" y="49.500000000000014" font-size="small" text-anchor="middle" font-weight="bold" fill="#fff" style="text-shadow: 0 0 1px #000;">
CRuby 3.4.0dev
</text>
<rect x="565.75" y="35.400000000000006" width="120.0" height="19.2" fill="#FFB000" stroke="none"/>
<text x="625.7499999999999" y="49.500000000000014" font-size="small" text-anchor="middle" font-weight="bold" fill="#fff" style="text-shadow: 0 0 1px #000;">
YJIT 3.3.3
</text>
<rect x="777.25" y="35.400000000000006" width="120.0" height="19.2" fill="#DC267F" stroke="none"/>
<text x="837.2499999999999" y="49.500000000000014" font-size="small" text-anchor="middle" font-weight="bold" fill="#fff" style="text-shadow: 0 0 1px #000;">
YJIT 3.4.0dev
</text>
<rect x="65.40983606557377" y="348.5824696039784" width="15.40983606557377" height="149.4175303960216" fill="#785EF0" data-tooltip="0.94x baseline (CRuby 3.4.0dev)"/>
<line x1="65.40983606557377" y1="348.0028385783218" x2="80.81967213114753" y2="348.0028385783218" stroke-dasharray="1,0.5" stroke="#333c"/>
<line x1="65.40983606557377" y1="349.1621006296349" x2="80.81967213114753" y2="349.1621006296349" stroke-dasharray="1,0.5" stroke="#333c"/>
<line x1="73.11475409836066" y1="348.0028385783218" x2="73.11475409836066" y2="349.1621006296349" stroke-dasharray="1,0.5" stroke="#333c"/>
<rect x="80.81967213114753" y="167.6781795610415" width="15.40983606557377" height="330.3218204389584" fill="#FFB000" data-tooltip="2.07x baseline (YJIT 3.3.3)"/>
<line x1="80.81967213114753" y1="166.09907045685765" x2="96.2295081967213" y2="166.09907045685765" stroke-dasharray="1,0.5" stroke="#333c"/>
<line x1="80.81967213114753" y1="169.2572886652254" x2="96.2295081967213" y2="169.2572886652254" stroke-dasharray="1,0.5" stroke="#333c"/>
<line x1="88.52459016393442" y1="166.09907045685765" x2="88.52459016393442" y2="169.2572886652254" stroke-dasharray="1,0.5" stroke="#333c"/>
<rect x="96.2295081967213" y="164.19900851828316" width="15.40983606557377" height="333.8009914817168" fill="#DC267F" data-tooltip="2.09x baseline (YJIT 3.4.0dev)"/>
<line x1="96.2295081967213" y1="162.68865573346366" x2="111.63934426229507" y2="162.68865573346366" stroke-dasharray="1,0.5" stroke="#333c"/>
<line x1="96.2295081967213" y1="165.7093613031027" x2="111.63934426229507" y2="165.7093613031027" stroke-dasharray="1,0.5" stroke="#333c"/>
<line x1="103.93442622950819" y1="162.68865573346366" x2="103.93442622950819" y2="165.7093613031027" stroke-dasharray="1,0.5" stroke="#333c"/>
<line x1="88.5245901639344" y1="498.0" x2="88.5245901639344" y2="502.79999999999995" stroke="#000"/>
<text x="88.5245901639344" y="512.4" fill="#111" font-size="small" text-anchor="end" transform="rotate(-60, 88.5245901639344, 512.4)">
activerecord
</text>
<rect x="127.04918032786883" y="352.41337537551607" width="15.40983606557377" height="145.58662462448393" fill="#785EF0" data-tooltip="0.91x baseline (CRuby 3.4.0dev)"/>
<line x1="127.04918032786883" y1="351.964549328561" x2="142.4590163934426" y2="351.964549328561" stroke-dasharray="1,0.5" stroke="#333c"/>
<line x1="127.04918032786883" y1="352.8622014224711" x2="142.4590163934426" y2="352.8622014224711" stroke-dasharray="1,0.5" stroke="#333c"/>
<line x1="134.75409836065572" y1="351.964549328561" x2="134.75409836065572" y2="352.8622014224711" stroke-dasharray="1,0.5" stroke="#333c"/>
<rect x="142.4590163934426" y="231.4219274861218" width="15.40983606557377" height="266.57807251387817" fill="#FFB000" data-tooltip="1.67x baseline (YJIT 3.3.3)"/>
<line x1="142.4590163934426" y1="230.41066735448064" x2="157.86885245901638" y2="230.41066735448064" stroke-dasharray="1,0.5" stroke="#333c"/>
<line x1="142.4590163934426" y1="232.43318761776297" x2="157.86885245901638" y2="232.43318761776297" stroke-dasharray="1,0.5" stroke="#333c"/>
<line x1="150.1639344262295" y1="230.41066735448064" x2="150.1639344262295" y2="232.43318761776297" stroke-dasharray="1,0.5" stroke="#333c"/>
<rect x="157.86885245901638" y="230.82562985935598" width="15.40983606557377" height="267.174370140644" fill="#DC267F" data-tooltip="1.67x baseline (YJIT 3.4.0dev)"/>
<line x1="157.86885245901638" y1="229.98925777279823" x2="173.27868852459017" y2="229.98925777279823" stroke-dasharray="1,0.5" stroke="#333c"/>
<line x1="157.86885245901638" y1="231.66200194591377" x2="173.27868852459017" y2="231.66200194591377" stroke-dasharray="1,0.5" stroke="#333c"/>
<line x1="165.5737704918033" y1="229.98925777279823" x2="165.5737704918033" y2="231.66200194591377" stroke-dasharray="1,0.5" stroke="#333c"/>
<line x1="150.1639344262295" y1="498.0" x2="150.1639344262295" y2="502.79999999999995" stroke="#000"/>
<text x="150.1639344262295" y="512.4" fill="#111" font-size="small" text-anchor="end" transform="rotate(-60, 150.1639344262295, 512.4)">
chunky-png
</text>
<rect x="188.68852459016395" y="347.12756132102203" width="15.40983606557377" height="150.8724386789779" fill="#785EF0" data-tooltip="0.94x baseline (CRuby 3.4.0dev)"/>
<line x1="188.68852459016395" y1="346.5820800829566" x2="204.0983606557377" y2="346.5820800829566" stroke-dasharray="1,0.5" stroke="#333c"/>
<line x1="188.68852459016395" y1="347.6730425590875" x2="204.0983606557377" y2="347.6730425590875" stroke-dasharray="1,0.5" stroke="#333c"/>
<line x1="196.39344262295083" y1="346.5820800829566" x2="196.39344262295083" y2="347.6730425590875" stroke-dasharray="1,0.5" stroke="#333c"/>
<rect x="204.0983606557377" y="206.1610489139808" width="15.40983606557377" height="291.8389510860191" fill="#FFB000" data-tooltip="1.83x baseline (YJIT 3.3.3)"/>
<line x1="204.0983606557377" y1="205.11898246887503" x2="219.5081967213115" y2="205.11898246887503" stroke-dasharray="1,0.5" stroke="#333c"/>
<line x1="204.0983606557377" y1="207.2031153590866" x2="219.5081967213115" y2="207.2031153590866" stroke-dasharray="1,0.5" stroke="#333c"/>
<line x1="211.8032786885246" y1="205.11898246887503" x2="211.8032786885246" y2="207.2031153590866" stroke-dasharray="1,0.5" stroke="#333c"/>
<rect x="219.5081967213115" y="218.3616208212819" width="15.40983606557377" height="279.6383791787181" fill="#DC267F" data-tooltip="1.75x baseline (YJIT 3.4.0dev)"/>
<line x1="219.5081967213115" y1="216.82122877767208" x2="234.91803278688528" y2="216.82122877767208" stroke-dasharray="1,0.5" stroke="#333c"/>
<line x1="219.5081967213115" y1="219.9020128648917" x2="234.91803278688528" y2="219.9020128648917" stroke-dasharray="1,0.5" stroke="#333c"/>
<line x1="227.2131147540984" y1="216.82122877767208" x2="227.2131147540984" y2="219.9020128648917" stroke-dasharray="1,0.5" stroke="#333c"/>
<line x1="211.8032786885246" y1="498.0" x2="211.8032786885246" y2="502.79999999999995" stroke="#000"/>
<text x="211.8032786885246" y="512.4" fill="#111" font-size="small" text-anchor="end" transform="rotate(-60, 211.8032786885246, 512.4)">
erubi-rails
</text>
<rect x="250.32786885245906" y="345.12412999666236" width="15.40983606557377" height="152.87587000333767" fill="#785EF0" data-tooltip="0.96x baseline (CRuby 3.4.0dev)"/>
<line x1="250.32786885245906" y1="343.39324426940493" x2="265.7377049180328" y2="343.39324426940493" stroke-dasharray="1,0.5" stroke="#333c"/>
<line x1="250.32786885245906" y1="346.8550157239198" x2="265.7377049180328" y2="346.8550157239198" stroke-dasharray="1,0.5" stroke="#333c"/>
<line x1="258.03278688524597" y1="343.39324426940493" x2="258.03278688524597" y2="346.8550157239198" stroke-dasharray="1,0.5" stroke="#333c"/>
<rect x="265.7377049180328" y="239.19065054699658" width="15.40983606557377" height="258.8093494530034" fill="#FFB000" data-tooltip="1.62x baseline (YJIT 3.3.3)"/>
<line x1="265.7377049180328" y1="235.11389517901102" x2="281.14754098360663" y2="235.11389517901102" stroke-dasharray="1,0.5" stroke="#333c"/>
<line x1="265.7377049180328" y1="243.26740591498213" x2="281.14754098360663" y2="243.26740591498213" stroke-dasharray="1,0.5" stroke="#333c"/>
<line x1="273.4426229508197" y1="235.11389517901102" x2="273.4426229508197" y2="243.26740591498213" stroke-dasharray="1,0.5" stroke="#333c"/>
<rect x="281.14754098360663" y="215.8922772042309" width="15.40983606557377" height="282.107722795769" fill="#DC267F" data-tooltip="1.77x baseline (YJIT 3.4.0dev)"/>
<line x1="281.14754098360663" y1="209.26101806443233" x2="296.5573770491804" y2="209.26101806443233" stroke-dasharray="1,0.5" stroke="#333c"/>
<line x1="281.14754098360663" y1="222.5235363440295" x2="296.5573770491804" y2="222.5235363440295" stroke-dasharray="1,0.5" stroke="#333c"/>
<line x1="288.8524590163935" y1="209.26101806443233" x2="288.8524590163935" y2="222.5235363440295" stroke-dasharray="1,0.5" stroke="#333c"/>
<line x1="273.4426229508197" y1="498.0" x2="273.4426229508197" y2="502.79999999999995" stroke="#000"/>
<text x="273.4426229508197" y="512.4" fill="#111" font-size="small" text-anchor="end" transform="rotate(-60, 273.4426229508197, 512.4)">
hexapdf
</text>
<rect x="311.96721311475414" y="346.33589683385725" width="15.40983606557377" height="151.66410316614275" fill="#785EF0" data-tooltip="0.95x baseline (CRuby 3.4.0dev)"/>
<line x1="311.96721311475414" y1="344.78988689276974" x2="327.37704918032796" y2="344.78988689276974" stroke-dasharray="1,0.5" stroke="#333c"/>
<line x1="311.96721311475414" y1="347.88190677494475" x2="327.37704918032796" y2="347.88190677494475" stroke-dasharray="1,0.5" stroke="#333c"/>
<line x1="319.67213114754105" y1="344.78988689276974" x2="319.67213114754105" y2="347.88190677494475" stroke-dasharray="1,0.5" stroke="#333c"/>
<rect x="327.37704918032796" y="271.3403384592792" width="15.40983606557377" height="226.65966154072075" fill="#FFB000" data-tooltip="1.42x baseline (YJIT 3.3.3)"/>
<line x1="327.37704918032796" y1="269.605438651697" x2="342.7868852459017" y2="269.605438651697" stroke-dasharray="1,0.5" stroke="#333c"/>
<line x1="327.37704918032796" y1="273.0752382668614" x2="342.7868852459017" y2="273.0752382668614" stroke-dasharray="1,0.5" stroke="#333c"/>
<line x1="335.08196721311486" y1="269.605438651697" x2="335.08196721311486" y2="273.0752382668614" stroke-dasharray="1,0.5" stroke="#333c"/>
<rect x="342.7868852459017" y="281.20418679371005" width="15.40983606557377" height="216.79581320628992" fill="#DC267F" data-tooltip="1.36x baseline (YJIT 3.4.0dev)"/>
<line x1="342.7868852459017" y1="279.48920651004454" x2="358.1967213114755" y2="279.48920651004454" stroke-dasharray="1,0.5" stroke="#333c"/>
<line x1="342.7868852459017" y1="282.9191670773755" x2="358.1967213114755" y2="282.9191670773755" stroke-dasharray="1,0.5" stroke="#333c"/>
<line x1="350.4918032786886" y1="279.48920651004454" x2="350.4918032786886" y2="282.9191670773755" stroke-dasharray="1,0.5" stroke="#333c"/>
<line x1="335.08196721311486" y1="498.0" x2="335.08196721311486" y2="502.79999999999995" stroke="#000"/>
<text x="335.08196721311486" y="512.4" fill="#111" font-size="small" text-anchor="end" transform="rotate(-60, 335.08196721311486, 512.4)">
liquid-c
</text>
<rect x="373.6065573770493" y="343.31477756942337" width="15.40983606557377" height="154.68522243057657" fill="#785EF0" data-tooltip="0.97x baseline (CRuby 3.4.0dev)"/>
<line x1="373.6065573770493" y1="341.4451653270389" x2="389.01639344262304" y2="341.4451653270389" stroke-dasharray="1,0.5" stroke="#333c"/>
<line x1="373.6065573770493" y1="345.1843898118078" x2="389.01639344262304" y2="345.1843898118078" stroke-dasharray="1,0.5" stroke="#333c"/>
<line x1="381.3114754098362" y1="341.4451653270389" x2="381.3114754098362" y2="345.1843898118078" stroke-dasharray="1,0.5" stroke="#333c"/>
<rect x="389.01639344262304" y="270.0784750732481" width="15.40983606557377" height="227.92152492675186" fill="#FFB000" data-tooltip="1.43x baseline (YJIT 3.3.3)"/>
<line x1="389.01639344262304" y1="265.7460505559012" x2="404.42622950819685" y2="265.7460505559012" stroke-dasharray="1,0.5" stroke="#333c"/>
<line x1="389.01639344262304" y1="274.410899590595" x2="404.42622950819685" y2="274.410899590595" stroke-dasharray="1,0.5" stroke="#333c"/>
<line x1="396.72131147540995" y1="265.7460505559012" x2="396.72131147540995" y2="274.410899590595" stroke-dasharray="1,0.5" stroke="#333c"/>
<rect x="404.42622950819685" y="273.7438828171271" width="15.40983606557377" height="224.25611718287283" fill="#DC267F" data-tooltip="1.40x baseline (YJIT 3.4.0dev)"/>
<line x1="404.42622950819685" y1="270.61541727396394" x2="419.8360655737706" y2="270.61541727396394" stroke-dasharray="1,0.5" stroke="#333c"/>
<line x1="404.42622950819685" y1="276.8723483602903" x2="419.8360655737706" y2="276.8723483602903" stroke-dasharray="1,0.5" stroke="#333c"/>
<line x1="412.13114754098376" y1="270.61541727396394" x2="412.13114754098376" y2="276.8723483602903" stroke-dasharray="1,0.5" stroke="#333c"/>
<line x1="396.72131147540995" y1="498.0" x2="396.72131147540995" y2="502.79999999999995" stroke="#000"/>
<text x="396.72131147540995" y="512.4" fill="#111" font-size="small" text-anchor="end" transform="rotate(-60, 396.72131147540995, 512.4)">
liquid-compile
</text>
<rect x="435.2459016393444" y="341.14970806026616" width="15.40983606557377" height="156.85029193973384" fill="#785EF0" data-tooltip="0.98x baseline (CRuby 3.4.0dev)"/>
<line x1="435.2459016393444" y1="340.4338214516322" x2="450.6557377049182" y2="340.4338214516322" stroke-dasharray="1,0.5" stroke="#333c"/>
<line x1="435.2459016393444" y1="341.8655946689001" x2="450.6557377049182" y2="341.8655946689001" stroke-dasharray="1,0.5" stroke="#333c"/>
<line x1="442.9508196721313" y1="340.4338214516322" x2="442.9508196721313" y2="341.8655946689001" stroke-dasharray="1,0.5" stroke="#333c"/>
<rect x="450.6557377049182" y="101.8078144084953" width="15.40983606557377" height="396.19218559150465" fill="#FFB000" data-tooltip="2.48x baseline (YJIT 3.3.3)"/>
<line x1="450.6557377049182" y1="99.60478883794369" x2="466.06557377049194" y2="99.60478883794369" stroke-dasharray="1,0.5" stroke="#333c"/>
<line x1="450.6557377049182" y1="104.01083997904692" x2="466.06557377049194" y2="104.01083997904692" stroke-dasharray="1,0.5" stroke="#333c"/>
<line x1="458.3606557377051" y1="99.60478883794369" x2="458.3606557377051" y2="104.01083997904692" stroke-dasharray="1,0.5" stroke="#333c"/>
<rect x="466.06557377049194" y="100.19999999999999" width="15.40983606557377" height="397.79999999999995" fill="#DC267F" data-tooltip="2.49x baseline (YJIT 3.4.0dev)"/>
<line x1="466.06557377049194" y1="97.46366708935099" x2="481.47540983606575" y2="97.46366708935099" stroke-dasharray="1,0.5" stroke="#333c"/>
<line x1="466.06557377049194" y1="102.93633291064899" x2="481.47540983606575" y2="102.93633291064899" stroke-dasharray="1,0.5" stroke="#333c"/>
<line x1="473.77049180327884" y1="97.46366708935099" x2="473.77049180327884" y2="102.93633291064899" stroke-dasharray="1,0.5" stroke="#333c"/>
<line x1="458.3606557377051" y1="498.0" x2="458.3606557377051" y2="502.79999999999995" stroke="#000"/>
<text x="458.3606557377051" y="512.4" fill="#111" font-size="small" text-anchor="end" transform="rotate(-60, 458.3606557377051, 512.4)">
liquid-render
</text>
<rect x="496.8852459016395" y="348.3519987206476" width="15.40983606557377" height="149.64800127935231" fill="#785EF0" data-tooltip="0.94x baseline (CRuby 3.4.0dev)"/>
<line x1="496.8852459016395" y1="346.16858266453636" x2="512.2950819672133" y2="346.16858266453636" stroke-dasharray="1,0.5" stroke="#333c"/>
<line x1="496.8852459016395" y1="350.5354147767588" x2="512.2950819672133" y2="350.5354147767588" stroke-dasharray="1,0.5" stroke="#333c"/>
<line x1="504.59016393442636" y1="346.16858266453636" x2="504.59016393442636" y2="350.5354147767588" stroke-dasharray="1,0.5" stroke="#333c"/>
<rect x="512.2950819672133" y="259.91626176740635" width="15.40983606557377" height="238.0837382325936" fill="#FFB000" data-tooltip="1.49x baseline (YJIT 3.3.3)"/>
<line x1="512.2950819672133" y1="255.874111456855" x2="527.7049180327871" y2="255.874111456855" stroke-dasharray="1,0.5" stroke="#333c"/>
<line x1="512.2950819672133" y1="263.9584120779577" x2="527.7049180327871" y2="263.9584120779577" stroke-dasharray="1,0.5" stroke="#333c"/>
<line x1="520.0000000000001" y1="255.874111456855" x2="520.0000000000001" y2="263.9584120779577" stroke-dasharray="1,0.5" stroke="#333c"/>
<rect x="527.7049180327871" y="265.9217123939551" width="15.40983606557377" height="232.07828760604485" fill="#DC267F" data-tooltip="1.45x baseline (YJIT 3.4.0dev)"/>
<line x1="527.7049180327871" y1="260.89940729461836" x2="543.1147540983609" y2="260.89940729461836" stroke-dasharray="1,0.5" stroke="#333c"/>
<line x1="527.7049180327871" y1="270.9440174932918" x2="543.1147540983609" y2="270.9440174932918" stroke-dasharray="1,0.5" stroke="#333c"/>
<line x1="535.4098360655739" y1="260.89940729461836" x2="535.4098360655739" y2="270.9440174932918" stroke-dasharray="1,0.5" stroke="#333c"/>
<line x1="520.0000000000002" y1="498.0" x2="520.0000000000002" y2="502.79999999999995" stroke="#000"/>
<text x="520.0000000000002" y="512.4" fill="#111" font-size="small" text-anchor="end" transform="rotate(-60, 520.0000000000002, 512.4)">
lobsters
</text>
<rect x="558.5245901639346" y="349.5325862402993" width="15.40983606557377" height="148.46741375970072" fill="#785EF0" data-tooltip="0.93x baseline (CRuby 3.4.0dev)"/>
<line x1="558.5245901639346" y1="348.79760689653847" x2="573.9344262295084" y2="348.79760689653847" stroke-dasharray="1,0.5" stroke="#333c"/>
<line x1="558.5245901639346" y1="350.26756558406004" x2="573.9344262295084" y2="350.26756558406004" stroke-dasharray="1,0.5" stroke="#333c"/>
<line x1="566.2295081967214" y1="348.79760689653847" x2="566.2295081967214" y2="350.26756558406004" stroke-dasharray="1,0.5" stroke="#333c"/>
<rect x="573.9344262295084" y="266.642154269939" width="15.40983606557377" height="231.35784573006092" fill="#FFB000" data-tooltip="1.45x baseline (YJIT 3.3.3)"/>
<line x1="573.9344262295084" y1="265.46970547651046" x2="589.3442622950822" y2="265.46970547651046" stroke-dasharray="1,0.5" stroke="#333c"/>
<line x1="573.9344262295084" y1="267.8146030633676" x2="589.3442622950822" y2="267.8146030633676" stroke-dasharray="1,0.5" stroke="#333c"/>
<line x1="581.6393442622953" y1="265.46970547651046" x2="581.6393442622953" y2="267.8146030633676" stroke-dasharray="1,0.5" stroke="#333c"/>
<rect x="589.3442622950822" y="282.7446506123231" width="15.40983606557377" height="215.25534938767683" fill="#DC267F" data-tooltip="1.35x baseline (YJIT 3.4.0dev)"/>
<line x1="589.3442622950822" y1="281.6490927857833" x2="604.7540983606559" y2="281.6490927857833" stroke-dasharray="1,0.5" stroke="#333c"/>
<line x1="589.3442622950822" y1="283.84020843886293" x2="604.7540983606559" y2="283.84020843886293" stroke-dasharray="1,0.5" stroke="#333c"/>
<line x1="597.0491803278691" y1="281.6490927857833" x2="597.0491803278691" y2="283.84020843886293" stroke-dasharray="1,0.5" stroke="#333c"/>
<line x1="581.6393442622954" y1="498.0" x2="581.6393442622954" y2="502.79999999999995" stroke="#000"/>
<text x="581.6393442622954" y="512.4" fill="#111" font-size="small" text-anchor="end" transform="rotate(-60, 581.6393442622954, 512.4)">
mail
</text>
<rect x="620.1639344262297" y="349.8043149562917" width="15.40983606557377" height="148.19568504370824" fill="#785EF0" data-tooltip="0.93x baseline (CRuby 3.4.0dev)"/>
<line x1="620.1639344262297" y1="349.7017804425205" x2="635.5737704918035" y2="349.7017804425205" stroke-dasharray="1,0.5" stroke="#333c"/>
<line x1="620.1639344262297" y1="349.906849470063" x2="635.5737704918035" y2="349.906849470063" stroke-dasharray="1,0.5" stroke="#333c"/>
<line x1="627.8688524590166" y1="349.7017804425205" x2="627.8688524590166" y2="349.906849470063" stroke-dasharray="1,0.5" stroke="#333c"/>
<rect x="635.5737704918035" y="260.5435975073909" width="15.40983606557377" height="237.45640249260904" fill="#FFB000" data-tooltip="1.49x baseline (YJIT 3.3.3)"/>
<line x1="635.5737704918035" y1="260.3475342681966" x2="650.9836065573774" y2="260.3475342681966" stroke-dasharray="1,0.5" stroke="#333c"/>
<line x1="635.5737704918035" y1="260.7396607465852" x2="650.9836065573774" y2="260.7396607465852" stroke-dasharray="1,0.5" stroke="#333c"/>
<line x1="643.2786885245904" y1="260.3475342681966" x2="643.2786885245904" y2="260.7396607465852" stroke-dasharray="1,0.5" stroke="#333c"/>
<rect x="650.9836065573774" y="235.50874865728068" width="15.40983606557377" height="262.4912513427193" fill="#DC267F" data-tooltip="1.64x baseline (YJIT 3.4.0dev)"/>
<line x1="650.9836065573774" y1="235.20525063786866" x2="666.393442622951" y2="235.20525063786866" stroke-dasharray="1,0.5" stroke="#333c"/>
<line x1="650.9836065573774" y1="235.81224667669267" x2="666.393442622951" y2="235.81224667669267" stroke-dasharray="1,0.5" stroke="#333c"/>
<line x1="658.6885245901641" y1="235.20525063786866" x2="658.6885245901641" y2="235.81224667669267" stroke-dasharray="1,0.5" stroke="#333c"/>
<line x1="643.2786885245905" y1="498.0" x2="643.2786885245905" y2="502.79999999999995" stroke="#000"/>
<text x="643.2786885245905" y="512.4" fill="#111" font-size="small" text-anchor="end" transform="rotate(-60, 643.2786885245905, 512.4)">
psych-load
</text>
<rect x="681.8032786885249" y="346.8039081710527" width="15.40983606557377" height="151.19609182894723" fill="#785EF0" data-tooltip="0.95x baseline (CRuby 3.4.0dev)"/>
<line x1="681.8032786885249" y1="346.557263502595" x2="697.2131147540987" y2="346.557263502595" stroke-dasharray="1,0.5" stroke="#333c"/>
<line x1="681.8032786885249" y1="347.0505528395104" x2="697.2131147540987" y2="347.0505528395104" stroke-dasharray="1,0.5" stroke="#333c"/>
<line x1="689.5081967213117" y1="346.557263502595" x2="689.5081967213117" y2="347.0505528395104" stroke-dasharray="1,0.5" stroke="#333c"/>
<rect x="697.2131147540987" y="225.59099979406895" width="15.40983606557377" height="272.409000205931" fill="#FFB000" data-tooltip="1.71x baseline (YJIT 3.3.3)"/>
<line x1="697.2131147540987" y1="225.08669518274334" x2="712.6229508196724" y2="225.08669518274334" stroke-dasharray="1,0.5" stroke="#333c"/>
<line x1="697.2131147540987" y1="226.09530440539453" x2="712.6229508196724" y2="226.09530440539453" stroke-dasharray="1,0.5" stroke="#333c"/>
<line x1="704.9180327868854" y1="225.08669518274334" x2="704.9180327868854" y2="226.09530440539453" stroke-dasharray="1,0.5" stroke="#333c"/>
<rect x="712.6229508196724" y="229.575244747667" width="15.40983606557377" height="268.42475525233294" fill="#DC267F" data-tooltip="1.68x baseline (YJIT 3.4.0dev)"/>
<line x1="712.6229508196724" y1="228.74401067503152" x2="728.0327868852462" y2="228.74401067503152" stroke-dasharray="1,0.5" stroke="#333c"/>
<line x1="712.6229508196724" y1="230.40647882030248" x2="728.0327868852462" y2="230.40647882030248" stroke-dasharray="1,0.5" stroke="#333c"/>
<line x1="720.3278688524592" y1="228.74401067503152" x2="720.3278688524592" y2="230.40647882030248" stroke-dasharray="1,0.5" stroke="#333c"/>
<line x1="704.9180327868855" y1="498.0" x2="704.9180327868855" y2="502.79999999999995" stroke="#000"/>
<text x="704.9180327868855" y="512.4" fill="#111" font-size="small" text-anchor="end" transform="rotate(-60, 704.9180327868855, 512.4)">
railsbench
</text>
<rect x="743.44262295082" y="348.8925813806021" width="15.40983606557377" height="149.1074186193979" fill="#785EF0" data-tooltip="0.93x baseline (CRuby 3.4.0dev)"/>
<line x1="743.44262295082" y1="346.3000562285713" x2="758.8524590163937" y2="346.3000562285713" stroke-dasharray="1,0.5" stroke="#333c"/>
<line x1="743.44262295082" y1="351.48510653263287" x2="758.8524590163937" y2="351.48510653263287" stroke-dasharray="1,0.5" stroke="#333c"/>
<line x1="751.1475409836069" y1="346.3000562285713" x2="751.1475409836069" y2="351.48510653263287" stroke-dasharray="1,0.5" stroke="#333c"/>
<rect x="758.8524590163937" y="226.89977854735122" width="15.40983606557377" height="271.1002214526487" fill="#FFB000" data-tooltip="1.70x baseline (YJIT 3.3.3)"/>
<line x1="758.8524590163937" y1="219.2697353777276" x2="774.2622950819675" y2="219.2697353777276" stroke-dasharray="1,0.5" stroke="#333c"/>
<line x1="758.8524590163937" y1="234.5298217169748" x2="774.2622950819675" y2="234.5298217169748" stroke-dasharray="1,0.5" stroke="#333c"/>
<line x1="766.5573770491806" y1="219.2697353777276" x2="766.5573770491806" y2="234.5298217169748" stroke-dasharray="1,0.5" stroke="#333c"/>
<rect x="774.2622950819675" y="216.78515768657468" width="15.40983606557377" height="281.21484231342527" fill="#DC267F" data-tooltip="1.76x baseline (YJIT 3.4.0dev)"/>
<line x1="774.2622950819675" y1="206.82168576226073" x2="789.6721311475413" y2="206.82168576226073" stroke-dasharray="1,0.5" stroke="#333c"/>
<line x1="774.2622950819675" y1="226.74862961088863" x2="789.6721311475413" y2="226.74862961088863" stroke-dasharray="1,0.5" stroke="#333c"/>
<line x1="781.9672131147544" y1="206.82168576226073" x2="781.9672131147544" y2="226.74862961088863" stroke-dasharray="1,0.5" stroke="#333c"/>
<line x1="766.5573770491807" y1="498.0" x2="766.5573770491807" y2="502.79999999999995" stroke="#000"/>
<text x="766.5573770491807" y="512.4" fill="#111" font-size="small" text-anchor="end" transform="rotate(-60, 766.5573770491807, 512.4)">
rubocop
</text>
<rect x="805.081967213115" y="349.5506087079646" width="15.40983606557377" height="148.44939129203533" fill="#785EF0" data-tooltip="0.93x baseline (CRuby 3.4.0dev)"/>
<line x1="805.081967213115" y1="344.83393872450813" x2="820.4918032786888" y2="344.83393872450813" stroke-dasharray="1,0.5" stroke="#333c"/>
<line x1="805.081967213115" y1="354.26727869142115" x2="820.4918032786888" y2="354.26727869142115" stroke-dasharray="1,0.5" stroke="#333c"/>
<line x1="812.7868852459019" y1="344.83393872450813" x2="812.7868852459019" y2="354.26727869142115" stroke-dasharray="1,0.5" stroke="#333c"/>
<rect x="820.4918032786888" y="296.4321151682716" width="15.40983606557377" height="201.56788483172835" fill="#FFB000" data-tooltip="1.26x baseline (YJIT 3.3.3)"/>
<line x1="820.4918032786888" y1="289.83322533346336" x2="835.9016393442627" y2="289.83322533346336" stroke-dasharray="1,0.5" stroke="#333c"/>
<line x1="820.4918032786888" y1="303.0310050030798" x2="835.9016393442627" y2="303.0310050030798" stroke-dasharray="1,0.5" stroke="#333c"/>
<line x1="828.1967213114757" y1="289.83322533346336" x2="828.1967213114757" y2="303.0310050030798" stroke-dasharray="1,0.5" stroke="#333c"/>
<rect x="835.9016393442627" y="299.8036915593718" width="15.40983606557377" height="198.1963084406281" fill="#DC267F" data-tooltip="1.24x baseline (YJIT 3.4.0dev)"/>
<line x1="835.9016393442627" y1="293.47530357628744" x2="851.3114754098365" y2="293.47530357628744" stroke-dasharray="1,0.5" stroke="#333c"/>
<line x1="835.9016393442627" y1="306.13207954245627" x2="851.3114754098365" y2="306.13207954245627" stroke-dasharray="1,0.5" stroke="#333c"/>
<line x1="843.6065573770495" y1="293.47530357628744" x2="843.6065573770495" y2="306.13207954245627" stroke-dasharray="1,0.5" stroke="#333c"/>
<line x1="828.1967213114758" y1="498.0" x2="828.1967213114758" y2="502.79999999999995" stroke="#000"/>
<text x="828.1967213114758" y="512.4" fill="#111" font-size="small" text-anchor="end" transform="rotate(-60, 828.1967213114758, 512.4)">
ruby-lsp
</text>
<rect x="866.7213114754102" y="349.1624326566798" width="15.40983606557377" height="148.83756734332016" fill="#785EF0" data-tooltip="0.93x baseline (CRuby 3.4.0dev)"/>
<line x1="866.7213114754102" y1="346.5700194505866" x2="882.131147540984" y2="346.5700194505866" stroke-dasharray="1,0.5" stroke="#333c"/>
<line x1="866.7213114754102" y1="351.75484586277304" x2="882.131147540984" y2="351.75484586277304" stroke-dasharray="1,0.5" stroke="#333c"/>
<line x1="874.426229508197" y1="346.5700194505866" x2="874.426229508197" y2="351.75484586277304" stroke-dasharray="1,0.5" stroke="#333c"/>
<rect x="882.131147540984" y="284.2356994217474" width="15.40983606557377" height="213.76430057825252" fill="#FFB000" data-tooltip="1.34x baseline (YJIT 3.3.3)"/>
<line x1="882.131147540984" y1="280.43056608047203" x2="897.5409836065578" y2="280.43056608047203" stroke-dasharray="1,0.5" stroke="#333c"/>
<line x1="882.131147540984" y1="288.04083276302276" x2="897.5409836065578" y2="288.04083276302276" stroke-dasharray="1,0.5" stroke="#333c"/>
<line x1="889.8360655737708" y1="280.43056608047203" x2="889.8360655737708" y2="288.04083276302276" stroke-dasharray="1,0.5" stroke="#333c"/>
<rect x="897.5409836065578" y="301.604264536379" width="15.40983606557377" height="196.39573546362095" fill="#DC267F" data-tooltip="1.23x baseline (YJIT 3.4.0dev)"/>
<line x1="897.5409836065578" y1="298.18512912869295" x2="912.9508196721315" y2="298.18512912869295" stroke-dasharray="1,0.5" stroke="#333c"/>
<line x1="897.5409836065578" y1="305.023399944065" x2="912.9508196721315" y2="305.023399944065" stroke-dasharray="1,0.5" stroke="#333c"/>
<line x1="905.2459016393447" y1="298.18512912869295" x2="905.2459016393447" y2="305.023399944065" stroke-dasharray="1,0.5" stroke="#333c"/>
<line x1="889.836065573771" y1="498.0" x2="889.836065573771" y2="502.79999999999995" stroke="#000"/>
<text x="889.836065573771" y="512.4" fill="#111" font-size="small" text-anchor="end" transform="rotate(-60, 889.836065573771, 512.4)">
sequel
</text>
<rect x="928.3606557377053" y="347.6077284607947" width="15.40983606557377" height="150.39227153920527" fill="#785EF0" data-tooltip="0.94x baseline (CRuby 3.4.0dev)"/>
<rect x="943.7704918032791" y="240.3994045213603" width="15.40983606557377" height="257.60059547863966" fill="#FFB000" data-tooltip="1.61x baseline (YJIT 3.3.3)"/>
<rect x="959.1803278688528" y="241.82367598863337" width="15.40983606557377" height="256.17632401136655" fill="#DC267F" data-tooltip="1.60x baseline (YJIT 3.4.0dev)"/>
<line x1="951.4754098360661" y1="498.0" x2="951.4754098360661" y2="502.79999999999995" stroke="#000"/>
<text x="951.4754098360661" y="512.4" fill="#111" font-size="small" text-anchor="end" transform="rotate(-60, 951.4754098360661, 512.4)" font-style="italic">
geomean*
</text>
<line x1="50.0" y1="338.2571134145205" x2="990.0" y2="338.2571134145205" stroke="#648FFF" stroke-width="2"/>
<rect x="67.23483606557377" y="334.4224696039784" width="17.85" height="7.2" transform="rotate(-60, 75.11475409836066, 341.0824696039784)" fill="#fffa"/>
<text x="67.40983606557377" y="341.0824696039784" fill="#111" font-size="0.5em" text-anchor="start" textLength="17.5" transform="rotate(-60, 75.11475409836066, 341.0824696039784)" style="text-shadow: 0 0 1px #fff;">
0.94
</text>
<rect x="82.64467213114754" y="153.5181795610415" width="17.85" height="7.2" transform="rotate(-60, 90.52459016393442, 160.1781795610415)" fill="#fffa"/>
<text x="82.81967213114753" y="160.1781795610415" fill="#111" font-size="0.5em" text-anchor="start" textLength="17.5" transform="rotate(-60, 90.52459016393442, 160.1781795610415)" style="text-shadow: 0 0 1px #fff;">
2.07
</text>
<rect x="98.0545081967213" y="150.03900851828317" width="17.85" height="7.2" transform="rotate(-60, 105.93442622950819, 156.69900851828316)" fill="#fffa"/>
<text x="98.2295081967213" y="156.69900851828316" fill="#111" font-size="0.5em" text-anchor="start" textLength="17.5" transform="rotate(-60, 105.93442622950819, 156.69900851828316)" style="text-shadow: 0 0 1px #fff;">
2.09
</text>
<rect x="128.87418032786883" y="338.2533753755161" width="17.85" height="7.2" transform="rotate(-60, 136.75409836065572, 344.91337537551607)" fill="#fffa"/>
<text x="129.04918032786884" y="344.91337537551607" fill="#111" font-size="0.5em" text-anchor="start" textLength="17.5" transform="rotate(-60, 136.75409836065572, 344.91337537551607)" style="text-shadow: 0 0 1px #fff;">
0.91
</text>
<rect x="144.2840163934426" y="217.2619274861218" width="17.85" height="7.2" transform="rotate(-60, 152.1639344262295, 223.9219274861218)" fill="#fffa"/>
<text x="144.4590163934426" y="223.9219274861218" fill="#111" font-size="0.5em" text-anchor="start" textLength="17.5" transform="rotate(-60, 152.1639344262295, 223.9219274861218)" style="text-shadow: 0 0 1px #fff;">
1.67
</text>
<rect x="159.69385245901637" y="216.665629859356" width="17.85" height="7.2" transform="rotate(-60, 167.5737704918033, 223.32562985935598)" fill="#fffa"/>
<text x="159.86885245901638" y="223.32562985935598" fill="#111" font-size="0.5em" text-anchor="start" textLength="17.5" transform="rotate(-60, 167.5737704918033, 223.32562985935598)" style="text-shadow: 0 0 1px #fff;">
1.67
</text>
<rect x="190.51352459016394" y="332.96756132102206" width="17.85" height="7.2" transform="rotate(-60, 198.39344262295083, 339.6275613210221)" fill="#fffa"/>
<text x="190.68852459016395" y="339.6275613210221" fill="#111" font-size="0.5em" text-anchor="start" textLength="17.5" transform="rotate(-60, 198.39344262295083, 339.6275613210221)" style="text-shadow: 0 0 1px #fff;">
0.94
</text>
<rect x="205.92336065573772" y="192.0010489139808" width="17.85" height="7.2" transform="rotate(-60, 213.8032786885246, 198.6610489139808)" fill="#fffa"/>
<text x="206.09836065573774" y="198.6610489139808" fill="#111" font-size="0.5em" text-anchor="start" textLength="17.5" transform="rotate(-60, 213.8032786885246, 198.6610489139808)" style="text-shadow: 0 0 1px #fff;">
1.83
</text>
<rect x="221.33319672131148" y="204.2016208212819" width="17.85" height="7.2" transform="rotate(-60, 229.2131147540984, 210.8616208212819)" fill="#fffa"/>
<text x="221.5081967213115" y="210.8616208212819" fill="#111" font-size="0.5em" text-anchor="start" textLength="17.5" transform="rotate(-60, 229.2131147540984, 210.8616208212819)" style="text-shadow: 0 0 1px #fff;">
1.75
</text>
<rect x="252.15286885245908" y="330.9641299966624" width="17.85" height="7.2" transform="rotate(-60, 260.03278688524597, 337.62412999666236)" fill="#fffa"/>
<text x="252.32786885245906" y="337.62412999666236" fill="#111" font-size="0.5em" text-anchor="start" textLength="17.5" transform="rotate(-60, 260.03278688524597, 337.62412999666236)" style="text-shadow: 0 0 1px #fff;">
0.96
</text>
<rect x="267.56270491803286" y="225.03065054699658" width="17.85" height="7.2" transform="rotate(-60, 275.4426229508197, 231.69065054699658)" fill="#fffa"/>
<text x="267.7377049180328" y="231.69065054699658" fill="#111" font-size="0.5em" text-anchor="start" textLength="17.5" transform="rotate(-60, 275.4426229508197, 231.69065054699658)" style="text-shadow: 0 0 1px #fff;">
1.62
</text>
<rect x="282.9725409836066" y="201.7322772042309" width="17.85" height="7.2" transform="rotate(-60, 290.8524590163935, 208.3922772042309)" fill="#fffa"/>
<text x="283.14754098360663" y="208.3922772042309" fill="#111" font-size="0.5em" text-anchor="start" textLength="17.5" transform="rotate(-60, 290.8524590163935, 208.3922772042309)" style="text-shadow: 0 0 1px #fff;">
1.77
</text>
<rect x="313.7922131147542" y="332.1758968338573" width="17.85" height="7.2" transform="rotate(-60, 321.67213114754105, 338.83589683385725)" fill="#fffa"/>
<text x="313.96721311475414" y="338.83589683385725" fill="#111" font-size="0.5em" text-anchor="start" textLength="17.5" transform="rotate(-60, 321.67213114754105, 338.83589683385725)" style="text-shadow: 0 0 1px #fff;">
0.95
</text>
<rect x="329.20204918032795" y="257.1803384592792" width="17.85" height="7.2" transform="rotate(-60, 337.08196721311486, 263.84033845927917)" fill="#fffa"/>
<text x="329.37704918032796" y="263.84033845927917" fill="#111" font-size="0.5em" text-anchor="start" textLength="17.5" transform="rotate(-60, 337.08196721311486, 263.84033845927917)" style="text-shadow: 0 0 1px #fff;">
1.42
</text>
<rect x="344.61188524590176" y="267.04418679371" width="17.85" height="7.2" transform="rotate(-60, 352.4918032786886, 273.70418679371005)" fill="#fffa"/>
<text x="344.7868852459017" y="273.70418679371005" fill="#111" font-size="0.5em" text-anchor="start" textLength="17.5" transform="rotate(-60, 352.4918032786886, 273.70418679371005)" style="text-shadow: 0 0 1px #fff;">
1.36
</text>
<rect x="375.43155737704933" y="329.1547775694234" width="17.85" height="7.2" transform="rotate(-60, 383.3114754098362, 335.81477756942337)" fill="#fffa"/>
<text x="375.6065573770493" y="335.81477756942337" fill="#111" font-size="0.5em" text-anchor="start" textLength="17.5" transform="rotate(-60, 383.3114754098362, 335.81477756942337)" style="text-shadow: 0 0 1px #fff;">
0.97
</text>
<rect x="390.8413934426231" y="255.9184750732481" width="17.85" height="7.2" transform="rotate(-60, 398.72131147540995, 262.57847507324806)" fill="#fffa"/>
<text x="391.01639344262304" y="262.57847507324806" fill="#111" font-size="0.5em" text-anchor="start" textLength="17.5" transform="rotate(-60, 398.72131147540995, 262.57847507324806)" style="text-shadow: 0 0 1px #fff;">
1.43
</text>
<rect x="406.25122950819684" y="259.5838828171271" width="17.85" height="7.2" transform="rotate(-60, 414.13114754098376, 266.2438828171271)" fill="#fffa"/>
<text x="406.42622950819685" y="266.2438828171271" fill="#111" font-size="0.5em" text-anchor="start" textLength="17.5" transform="rotate(-60, 414.13114754098376, 266.2438828171271)" style="text-shadow: 0 0 1px #fff;">
1.40
</text>
<rect x="437.0709016393444" y="326.9897080602662" width="17.85" height="7.2" transform="rotate(-60, 444.9508196721313, 333.64970806026616)" fill="#fffa"/>
<text x="437.2459016393444" y="333.64970806026616" fill="#111" font-size="0.5em" text-anchor="start" textLength="17.5" transform="rotate(-60, 444.9508196721313, 333.64970806026616)" style="text-shadow: 0 0 1px #fff;">
0.98
</text>
<rect x="452.4807377049182" y="87.6478144084953" width="17.85" height="7.2" transform="rotate(-60, 460.3606557377051, 94.30781440849529)" fill="#fffa"/>
<text x="452.6557377049182" y="94.30781440849529" fill="#111" font-size="0.5em" text-anchor="start" textLength="17.5" transform="rotate(-60, 460.3606557377051, 94.30781440849529)" style="text-shadow: 0 0 1px #fff;">
2.48
</text>
<rect x="467.890573770492" y="86.03999999999998" width="17.85" height="7.2" transform="rotate(-60, 475.77049180327884, 92.69999999999999)" fill="#fffa"/>
<text x="468.06557377049194" y="92.69999999999999" fill="#111" font-size="0.5em" text-anchor="start" textLength="17.5" transform="rotate(-60, 475.77049180327884, 92.69999999999999)" style="text-shadow: 0 0 1px #fff;">
2.49
</text>
<rect x="498.71024590163955" y="334.19199872064763" width="17.85" height="7.2" transform="rotate(-60, 506.59016393442636, 340.8519987206476)" fill="#fffa"/>
<text x="498.8852459016395" y="340.8519987206476" fill="#111" font-size="0.5em" text-anchor="start" textLength="17.5" transform="rotate(-60, 506.59016393442636, 340.8519987206476)" style="text-shadow: 0 0 1px #fff;">
0.94
</text>
<rect x="514.1200819672133" y="245.75626176740633" width="17.85" height="7.2" transform="rotate(-60, 522.0000000000001, 252.41626176740633)" fill="#fffa"/>
<text x="514.2950819672133" y="252.41626176740633" fill="#111" font-size="0.5em" text-anchor="start" textLength="17.5" transform="rotate(-60, 522.0000000000001, 252.41626176740633)" style="text-shadow: 0 0 1px #fff;">
1.49
</text>
<rect x="529.529918032787" y="251.7617123939551" width="17.85" height="7.2" transform="rotate(-60, 537.4098360655739, 258.4217123939551)" fill="#fffa"/>
<text x="529.7049180327871" y="258.4217123939551" fill="#111" font-size="0.5em" text-anchor="start" textLength="17.5" transform="rotate(-60, 537.4098360655739, 258.4217123939551)" style="text-shadow: 0 0 1px #fff;">
1.45
</text>
<rect x="560.3495901639346" y="335.3725862402993" width="17.85" height="7.2" transform="rotate(-60, 568.2295081967214, 342.0325862402993)" fill="#fffa"/>
<text x="560.5245901639346" y="342.0325862402993" fill="#111" font-size="0.5em" text-anchor="start" textLength="17.5" transform="rotate(-60, 568.2295081967214, 342.0325862402993)" style="text-shadow: 0 0 1px #fff;">
0.93
</text>
<rect x="575.7594262295083" y="252.482154269939" width="17.85" height="7.2" transform="rotate(-60, 583.6393442622953, 259.142154269939)" fill="#fffa"/>
<text x="575.9344262295084" y="259.142154269939" fill="#111" font-size="0.5em" text-anchor="start" textLength="17.5" transform="rotate(-60, 583.6393442622953, 259.142154269939)" style="text-shadow: 0 0 1px #fff;">
1.45
</text>
<rect x="591.1692622950821" y="268.5846506123231" width="17.85" height="7.2" transform="rotate(-60, 599.0491803278691, 275.2446506123231)" fill="#fffa"/>
<text x="591.3442622950822" y="275.2446506123231" fill="#111" font-size="0.5em" text-anchor="start" textLength="17.5" transform="rotate(-60, 599.0491803278691, 275.2446506123231)" style="text-shadow: 0 0 1px #fff;">
1.35
</text>
<rect x="621.9889344262297" y="335.64431495629174" width="17.85" height="7.2" transform="rotate(-60, 629.8688524590166, 342.30431495629176)" fill="#fffa"/>
<text x="622.1639344262297" y="342.30431495629176" fill="#111" font-size="0.5em" text-anchor="start" textLength="17.5" transform="rotate(-60, 629.8688524590166, 342.30431495629176)" style="text-shadow: 0 0 1px #fff;">
0.93
</text>
<rect x="637.3987704918035" y="246.3835975073909" width="17.85" height="7.2" transform="rotate(-60, 645.2786885245904, 253.0435975073909)" fill="#fffa"/>
<text x="637.5737704918035" y="253.0435975073909" fill="#111" font-size="0.5em" text-anchor="start" textLength="17.5" transform="rotate(-60, 645.2786885245904, 253.0435975073909)" style="text-shadow: 0 0 1px #fff;">
1.49
</text>
<rect x="652.8086065573773" y="221.34874865728065" width="17.85" height="7.2" transform="rotate(-60, 660.6885245901641, 228.00874865728065)" fill="#fffa"/>
<text x="652.9836065573774" y="228.00874865728065" fill="#111" font-size="0.5em" text-anchor="start" textLength="17.5" transform="rotate(-60, 660.6885245901641, 228.00874865728065)" style="text-shadow: 0 0 1px #fff;">
1.64
</text>
<rect x="683.6282786885248" y="332.6439081710527" width="17.85" height="7.2" transform="rotate(-60, 691.5081967213117, 339.30390817105274)" fill="#fffa"/>
<text x="683.8032786885249" y="339.30390817105274" fill="#111" font-size="0.5em" text-anchor="start" textLength="17.5" transform="rotate(-60, 691.5081967213117, 339.30390817105274)" style="text-shadow: 0 0 1px #fff;">
0.95
</text>
<rect x="699.0381147540986" y="211.43099979406892" width="17.85" height="7.2" transform="rotate(-60, 706.9180327868854, 218.09099979406892)" fill="#fffa"/>
<text x="699.2131147540987" y="218.09099979406892" fill="#111" font-size="0.5em" text-anchor="start" textLength="17.5" transform="rotate(-60, 706.9180327868854, 218.09099979406892)" style="text-shadow: 0 0 1px #fff;">
1.71
</text>
<rect x="714.4479508196724" y="215.415244747667" width="17.85" height="7.2" transform="rotate(-60, 722.3278688524592, 222.075244747667)" fill="#fffa"/>
<text x="714.6229508196724" y="222.075244747667" fill="#111" font-size="0.5em" text-anchor="start" textLength="17.5" transform="rotate(-60, 722.3278688524592, 222.075244747667)" style="text-shadow: 0 0 1px #fff;">
1.68
</text>
<rect x="745.2676229508199" y="334.7325813806021" width="17.85" height="7.2" transform="rotate(-60, 753.1475409836069, 341.3925813806021)" fill="#fffa"/>
<text x="745.44262295082" y="341.3925813806021" fill="#111" font-size="0.5em" text-anchor="start" textLength="17.5" transform="rotate(-60, 753.1475409836069, 341.3925813806021)" style="text-shadow: 0 0 1px #fff;">
0.93
</text>
<rect x="760.6774590163938" y="212.7397785473512" width="17.85" height="7.2" transform="rotate(-60, 768.5573770491806, 219.3997785473512)" fill="#fffa"/>
<text x="760.8524590163937" y="219.3997785473512" fill="#111" font-size="0.5em" text-anchor="start" textLength="17.5" transform="rotate(-60, 768.5573770491806, 219.3997785473512)" style="text-shadow: 0 0 1px #fff;">
1.70
</text>
<rect x="776.0872950819675" y="202.62515768657465" width="17.85" height="7.2" transform="rotate(-60, 783.9672131147544, 209.28515768657465)" fill="#fffa"/>
<text x="776.2622950819675" y="209.28515768657465" fill="#111" font-size="0.5em" text-anchor="start" textLength="17.5" transform="rotate(-60, 783.9672131147544, 209.28515768657465)" style="text-shadow: 0 0 1px #fff;">
1.76
</text>
<rect x="806.9069672131151" y="335.39060870796465" width="17.85" height="7.2" transform="rotate(-60, 814.7868852459019, 342.05060870796467)" fill="#fffa"/>
<text x="807.0819672131151" y="342.05060870796467" fill="#111" font-size="0.5em" text-anchor="start" textLength="17.5" transform="rotate(-60, 814.7868852459019, 342.05060870796467)" style="text-shadow: 0 0 1px #fff;">
0.93
</text>
<rect x="822.3168032786888" y="282.27211516827157" width="17.85" height="7.2" transform="rotate(-60, 830.1967213114757, 288.9321151682716)" fill="#fffa"/>
<text x="822.4918032786888" y="288.9321151682716" fill="#111" font-size="0.5em" text-anchor="start" textLength="17.5" transform="rotate(-60, 830.1967213114757, 288.9321151682716)" style="text-shadow: 0 0 1px #fff;">
1.26
</text>
<rect x="837.7266393442626" y="285.64369155937186" width="17.85" height="7.2" transform="rotate(-60, 845.6065573770495, 292.3036915593718)" fill="#fffa"/>
<text x="837.9016393442627" y="292.3036915593718" fill="#111" font-size="0.5em" text-anchor="start" textLength="17.5" transform="rotate(-60, 845.6065573770495, 292.3036915593718)" style="text-shadow: 0 0 1px #fff;">
1.24
</text>
<rect x="868.5463114754102" y="335.00243265667984" width="17.85" height="7.2" transform="rotate(-60, 876.426229508197, 341.6624326566798)" fill="#fffa"/>
<text x="868.7213114754102" y="341.6624326566798" fill="#111" font-size="0.5em" text-anchor="start" textLength="17.5" transform="rotate(-60, 876.426229508197, 341.6624326566798)" style="text-shadow: 0 0 1px #fff;">
0.93
</text>
<rect x="883.9561475409839" y="270.0756994217474" width="17.85" height="7.2" transform="rotate(-60, 891.8360655737708, 276.7356994217474)" fill="#fffa"/>
<text x="884.131147540984" y="276.7356994217474" fill="#111" font-size="0.5em" text-anchor="start" textLength="17.5" transform="rotate(-60, 891.8360655737708, 276.7356994217474)" style="text-shadow: 0 0 1px #fff;">
1.34
</text>
<rect x="899.3659836065577" y="287.44426453637897" width="17.85" height="7.2" transform="rotate(-60, 907.2459016393447, 294.104264536379)" fill="#fffa"/>
<text x="899.5409836065578" y="294.104264536379" fill="#111" font-size="0.5em" text-anchor="start" textLength="17.5" transform="rotate(-60, 907.2459016393447, 294.104264536379)" style="text-shadow: 0 0 1px #fff;">
1.23
</text>
<rect x="930.1856557377052" y="333.44772846079474" width="17.85" height="7.2" transform="rotate(-60, 938.0655737704922, 340.1077284607947)" fill="#fffa"/>
<text x="930.3606557377053" y="340.1077284607947" fill="#111" font-size="0.5em" text-anchor="start" textLength="17.5" transform="rotate(-60, 938.0655737704922, 340.1077284607947)" style="text-shadow: 0 0 1px #fff;">
0.94
</text>
<rect x="945.5954918032791" y="226.23940452136029" width="17.85" height="7.2" transform="rotate(-60, 953.475409836066, 232.8994045213603)" fill="#fffa"/>
<text x="945.7704918032791" y="232.8994045213603" fill="#111" font-size="0.5em" text-anchor="start" textLength="17.5" transform="rotate(-60, 953.475409836066, 232.8994045213603)" style="text-shadow: 0 0 1px #fff;">
1.61
</text>
<rect x="961.0053278688529" y="227.66367598863337" width="17.85" height="7.2" transform="rotate(-60, 968.8852459016397, 234.32367598863337)" fill="#fffa"/>
<text x="961.1803278688528" y="234.32367598863337" fill="#111" font-size="0.5em" text-anchor="start" textLength="17.5" transform="rotate(-60, 968.8852459016397, 234.32367598863337)" style="text-shadow: 0 0 1px #fff;">
1.60
</text>
</svg>