<svg viewBox="0 0 1000 600" xmlns="http://www.w3.org/2000/svg" xmlns:xlink="http://www.w3.org/1999/xlink" width="100%" height="100%">

<rect x="50.0" y="30.0" width="940.0" height="467.99999999999994" stroke="#000" fill="#fff"/>
<line x1="42.0" y1="497.9999999999999" x2="50.0" y2="497.9999999999999" stroke="#000"/>
<text x="26.000000000000004" y="497.9999999999999" text-anchor="end" font-weight="bold" font-size="small" fill="#111">
0.0
</text>
<line x1="42.0" y1="402.8232333334415" x2="50.0" y2="402.8232333334415" stroke="#000"/>
<text x="26.000000000000004" y="402.8232333334415" text-anchor="end" font-weight="bold" font-size="small" fill="#111">
0.5
</text>
<line x1="42.0" y1="307.64646666688316" x2="50.0" y2="307.64646666688316" stroke="#000"/>
<text x="26.000000000000004" y="307.64646666688316" text-anchor="end" font-weight="bold" font-size="small" fill="#111">
1.0
</text>
<line x1="42.0" y1="212.46970000032482" x2="50.0" y2="212.46970000032482" stroke="#000"/>
<text x="26.000000000000004" y="212.46970000032482" text-anchor="end" font-weight="bold" font-size="small" fill="#111">
1.5
</text>
<line x1="42.0" y1="117.29293333376643" x2="50.0" y2="117.29293333376643" stroke="#000"/>
<text x="26.000000000000004" y="117.29293333376643" text-anchor="end" font-weight="bold" font-size="small" fill="#111">
2.0
</text>
<line x1="142.75" y1="54.60000000000001" x2="262.75" y2="54.60000000000001" stroke="#648FFF" stroke-width="2"/>
<text x="202.75" y="49.500000000000014" font-size="small" text-anchor="middle" font-weight="bold" fill="#000">
CRuby 3.3.3
</text>
<rect x="354.25" y="35.400000000000006" width="120.0" height="19.2" fill="#785EF0" stroke="none"/>
<text x="414.25" y="49.500000000000014" font-size="small" text-anchor="middle" font-weight="bold" fill="#fff" style="text-shadow: 0 0 1px #000;">
CRuby 3.4.0dev
</text>
<rect x="565.75" y="35.400000000000006" width="120.0" height="19.2" fill="#FFB000" stroke="none"/>
<text x="625.7499999999999" y="49.500000000000014" font-size="small" text-anchor="middle" font-weight="bold" fill="#fff" style="text-shadow: 0 0 1px #000;">
YJIT 3.3.3
</text>
<rect x="777.25" y="35.400000000000006" width="120.0" height="19.2" fill="#DC267F" stroke="none"/>
<text x="837.2499999999999" y="49.500000000000014" font-size="small" text-anchor="middle" font-weight="bold" fill="#fff" style="text-shadow: 0 0 1px #000;">
YJIT 3.4.0dev
</text>
<rect x="65.40983606557377" y="328.1365462900659" width="15.40983606557377" height="169.86345370993402" fill="#785EF0" data-tooltip="0.89x baseline (CRuby 3.4.0dev)"/>
<line x1="65.40983606557377" y1="327.9748295210299" x2="80.81967213114753" y2="327.9748295210299" stroke-dasharray="1,0.5" stroke="#333c"/>
<line x1="65.40983606557377" y1="328.29826305910194" x2="80.81967213114753" y2="328.29826305910194" stroke-dasharray="1,0.5" stroke="#333c"/>
<line x1="73.11475409836066" y1="327.9748295210299" x2="73.11475409836066" y2="328.29826305910194" stroke-dasharray="1,0.5" stroke="#333c"/>
<rect x="80.81967213114753" y="191.7325841006936" width="15.40983606557377" height="306.26741589930634" fill="#FFB000" data-tooltip="1.61x baseline (YJIT 3.3.3)"/>
<line x1="80.81967213114753" y1="191.51148120811604" x2="96.2295081967213" y2="191.51148120811604" stroke-dasharray="1,0.5" stroke="#333c"/>
<line x1="80.81967213114753" y1="191.95368699327113" x2="96.2295081967213" y2="191.95368699327113" stroke-dasharray="1,0.5" stroke="#333c"/>
<line x1="88.52459016393442" y1="191.51148120811604" x2="88.52459016393442" y2="191.95368699327113" stroke-dasharray="1,0.5" stroke="#333c"/>
<rect x="96.2295081967213" y="204.3896582432674" width="15.40983606557377" height="293.61034175673257" fill="#DC267F" data-tooltip="1.54x baseline (YJIT 3.4.0dev)"/>
<line x1="96.2295081967213" y1="204.1114301510265" x2="111.63934426229507" y2="204.1114301510265" stroke-dasharray="1,0.5" stroke="#333c"/>
<line x1="96.2295081967213" y1="204.66788633550829" x2="111.63934426229507" y2="204.66788633550829" stroke-dasharray="1,0.5" stroke="#333c"/>
<line x1="103.93442622950819" y1="204.1114301510265" x2="103.93442622950819" y2="204.66788633550829" stroke-dasharray="1,0.5" stroke="#333c"/>
<line x1="88.5245901639344" y1="498.0" x2="88.5245901639344" y2="502.79999999999995" stroke="#000"/>
<text x="88.5245901639344" y="512.4" fill="#111" font-size="small" text-anchor="end" transform="rotate(-60, 88.5245901639344, 512.4)">
activerecord
</text>
<rect x="127.04918032786883" y="328.62482311659267" width="15.40983606557377" height="169.37517688340725" fill="#785EF0" data-tooltip="0.89x baseline (CRuby 3.4.0dev)"/>
<line x1="127.04918032786883" y1="327.4499749948648" x2="142.4590163934426" y2="327.4499749948648" stroke-dasharray="1,0.5" stroke="#333c"/>
<line x1="127.04918032786883" y1="329.79967123832057" x2="142.4590163934426" y2="329.79967123832057" stroke-dasharray="1,0.5" stroke="#333c"/>
<line x1="134.75409836065572" y1="327.4499749948648" x2="134.75409836065572" y2="329.79967123832057" stroke-dasharray="1,0.5" stroke="#333c"/>
<rect x="142.4590163934426" y="161.11523142499965" width="15.40983606557377" height="336.8847685750003" fill="#FFB000" data-tooltip="1.77x baseline (YJIT 3.3.3)"/>
<line x1="142.4590163934426" y1="159.21997996680437" x2="157.86885245901638" y2="159.21997996680437" stroke-dasharray="1,0.5" stroke="#333c"/>
<line x1="142.4590163934426" y1="163.0104828831949" x2="157.86885245901638" y2="163.0104828831949" stroke-dasharray="1,0.5" stroke="#333c"/>
<line x1="150.1639344262295" y1="159.21997996680437" x2="150.1639344262295" y2="163.0104828831949" stroke-dasharray="1,0.5" stroke="#333c"/>
<rect x="157.86885245901638" y="100.19999999999999" width="15.40983606557377" height="397.79999999999995" fill="#DC267F" data-tooltip="2.09x baseline (YJIT 3.4.0dev)"/>
<line x1="157.86885245901638" y1="97.9836900096647" x2="173.27868852459017" y2="97.9836900096647" stroke-dasharray="1,0.5" stroke="#333c"/>
<line x1="157.86885245901638" y1="102.4163099903353" x2="173.27868852459017" y2="102.4163099903353" stroke-dasharray="1,0.5" stroke="#333c"/>
<line x1="165.5737704918033" y1="97.9836900096647" x2="165.5737704918033" y2="102.4163099903353" stroke-dasharray="1,0.5" stroke="#333c"/>
<line x1="150.1639344262295" y1="498.0" x2="150.1639344262295" y2="502.79999999999995" stroke="#000"/>
<text x="150.1639344262295" y="512.4" fill="#111" font-size="small" text-anchor="end" transform="rotate(-60, 150.1639344262295, 512.4)">
chunky-png
</text>
<rect x="188.68852459016395" y="324.91661908841854" width="15.40983606557377" height="173.08338091158132" fill="#785EF0" data-tooltip="0.91x baseline (CRuby 3.4.0dev)"/>
<line x1="188.68852459016395" y1="324.7826865089162" x2="204.0983606557377" y2="324.7826865089162" stroke-dasharray="1,0.5" stroke="#333c"/>
<line x1="188.68852459016395" y1="325.0505516679209" x2="204.0983606557377" y2="325.0505516679209" stroke-dasharray="1,0.5" stroke="#333c"/>
<line x1="196.39344262295083" y1="324.7826865089162" x2="196.39344262295083" y2="325.0505516679209" stroke-dasharray="1,0.5" stroke="#333c"/>
<rect x="204.0983606557377" y="216.87162045573842" width="15.40983606557377" height="281.1283795442615" fill="#FFB000" data-tooltip="1.48x baseline (YJIT 3.3.3)"/>
<line x1="204.0983606557377" y1="216.55472937408942" x2="219.5081967213115" y2="216.55472937408942" stroke-dasharray="1,0.5" stroke="#333c"/>
<line x1="204.0983606557377" y1="217.18851153738743" x2="219.5081967213115" y2="217.18851153738743" stroke-dasharray="1,0.5" stroke="#333c"/>
<line x1="211.8032786885246" y1="216.55472937408942" x2="211.8032786885246" y2="217.18851153738743" stroke-dasharray="1,0.5" stroke="#333c"/>
<rect x="219.5081967213115" y="237.19578249267852" width="15.40983606557377" height="260.8042175073214" fill="#DC267F" data-tooltip="1.37x baseline (YJIT 3.4.0dev)"/>
<line x1="219.5081967213115" y1="236.98853995139663" x2="234.91803278688528" y2="236.98853995139663" stroke-dasharray="1,0.5" stroke="#333c"/>
<line x1="219.5081967213115" y1="237.4030250339604" x2="234.91803278688528" y2="237.4030250339604" stroke-dasharray="1,0.5" stroke="#333c"/>
<line x1="227.2131147540984" y1="236.98853995139663" x2="227.2131147540984" y2="237.4030250339604" stroke-dasharray="1,0.5" stroke="#333c"/>
<line x1="211.8032786885246" y1="498.0" x2="211.8032786885246" y2="502.79999999999995" stroke="#000"/>
<text x="211.8032786885246" y="512.4" fill="#111" font-size="small" text-anchor="end" transform="rotate(-60, 211.8032786885246, 512.4)">
erubi-rails
</text>
<rect x="250.32786885245906" y="317.20840268118263" width="15.40983606557377" height="180.7915973188173" fill="#785EF0" data-tooltip="0.95x baseline (CRuby 3.4.0dev)"/>
<line x1="250.32786885245906" y1="316.0634211143264" x2="265.7377049180328" y2="316.0634211143264" stroke-dasharray="1,0.5" stroke="#333c"/>
<line x1="250.32786885245906" y1="318.3533842480389" x2="265.7377049180328" y2="318.3533842480389" stroke-dasharray="1,0.5" stroke="#333c"/>
<line x1="258.03278688524597" y1="316.0634211143264" x2="258.03278688524597" y2="318.3533842480389" stroke-dasharray="1,0.5" stroke="#333c"/>
<rect x="265.7377049180328" y="216.3385615152268" width="15.40983606557377" height="281.66143848477316" fill="#FFB000" data-tooltip="1.48x baseline (YJIT 3.3.3)"/>
<line x1="265.7377049180328" y1="214.12781920884947" x2="281.14754098360663" y2="214.12781920884947" stroke-dasharray="1,0.5" stroke="#333c"/>
<line x1="265.7377049180328" y1="218.5493038216041" x2="281.14754098360663" y2="218.5493038216041" stroke-dasharray="1,0.5" stroke="#333c"/>
<line x1="273.4426229508197" y1="214.12781920884947" x2="273.4426229508197" y2="218.5493038216041" stroke-dasharray="1,0.5" stroke="#333c"/>
<rect x="281.14754098360663" y="197.11730023262913" width="15.40983606557377" height="300.8826997673708" fill="#DC267F" data-tooltip="1.58x baseline (YJIT 3.4.0dev)"/>
<line x1="281.14754098360663" y1="190.27161668978215" x2="296.5573770491804" y2="190.27161668978215" stroke-dasharray="1,0.5" stroke="#333c"/>
<line x1="281.14754098360663" y1="203.96298377547615" x2="296.5573770491804" y2="203.96298377547615" stroke-dasharray="1,0.5" stroke="#333c"/>
<line x1="288.8524590163935" y1="190.27161668978215" x2="288.8524590163935" y2="203.96298377547615" stroke-dasharray="1,0.5" stroke="#333c"/>
<line x1="273.4426229508197" y1="498.0" x2="273.4426229508197" y2="502.79999999999995" stroke="#000"/>
<text x="273.4426229508197" y="512.4" fill="#111" font-size="small" text-anchor="end" transform="rotate(-60, 273.4426229508197, 512.4)">
hexapdf
</text>
<rect x="311.96721311475414" y="321.1957675398716" width="15.40983606557377" height="176.80423246012833" fill="#785EF0" data-tooltip="0.93x baseline (CRuby 3.4.0dev)"/>
<line x1="311.96721311475414" y1="320.5203590538129" x2="327.37704918032796" y2="320.5203590538129" stroke-dasharray="1,0.5" stroke="#333c"/>
<line x1="311.96721311475414" y1="321.87117602593037" x2="327.37704918032796" y2="321.87117602593037" stroke-dasharray="1,0.5" stroke="#333c"/>
<line x1="319.67213114754105" y1="320.5203590538129" x2="319.67213114754105" y2="321.87117602593037" stroke-dasharray="1,0.5" stroke="#333c"/>
<rect x="327.37704918032796" y="254.76233817215225" width="15.40983606557377" height="243.2376618278477" fill="#FFB000" data-tooltip="1.28x baseline (YJIT 3.3.3)"/>
<line x1="327.37704918032796" y1="253.91476993510236" x2="342.7868852459017" y2="253.91476993510236" stroke-dasharray="1,0.5" stroke="#333c"/>
<line x1="327.37704918032796" y1="255.60990640920215" x2="342.7868852459017" y2="255.60990640920215" stroke-dasharray="1,0.5" stroke="#333c"/>
<line x1="335.08196721311486" y1="253.91476993510236" x2="335.08196721311486" y2="255.60990640920215" stroke-dasharray="1,0.5" stroke="#333c"/>
<rect x="342.7868852459017" y="262.0780840849751" width="15.40983606557377" height="235.92191591502487" fill="#DC267F" data-tooltip="1.24x baseline (YJIT 3.4.0dev)"/>
<line x1="342.7868852459017" y1="261.0363082541935" x2="358.1967213114755" y2="261.0363082541935" stroke-dasharray="1,0.5" stroke="#333c"/>
<line x1="342.7868852459017" y1="263.1198599157567" x2="358.1967213114755" y2="263.1198599157567" stroke-dasharray="1,0.5" stroke="#333c"/>
<line x1="350.4918032786886" y1="261.0363082541935" x2="350.4918032786886" y2="263.1198599157567" stroke-dasharray="1,0.5" stroke="#333c"/>
<line x1="335.08196721311486" y1="498.0" x2="335.08196721311486" y2="502.79999999999995" stroke="#000"/>
<text x="335.08196721311486" y="512.4" fill="#111" font-size="small" text-anchor="end" transform="rotate(-60, 335.08196721311486, 512.4)">
liquid-c
</text>
<rect x="373.6065573770493" y="323.2318425233681" width="15.40983606557377" height="174.76815747663187" fill="#785EF0" data-tooltip="0.92x baseline (CRuby 3.4.0dev)"/>
<line x1="373.6065573770493" y1="322.4460998648926" x2="389.01639344262304" y2="322.4460998648926" stroke-dasharray="1,0.5" stroke="#333c"/>
<line x1="373.6065573770493" y1="324.0175851818435" x2="389.01639344262304" y2="324.0175851818435" stroke-dasharray="1,0.5" stroke="#333c"/>
<line x1="381.3114754098362" y1="322.4460998648926" x2="381.3114754098362" y2="324.0175851818435" stroke-dasharray="1,0.5" stroke="#333c"/>
<rect x="389.01639344262304" y="265.77189962124703" width="15.40983606557377" height="232.22810037875294" fill="#FFB000" data-tooltip="1.22x baseline (YJIT 3.3.3)"/>
<line x1="389.01639344262304" y1="265.2145918284195" x2="404.42622950819685" y2="265.2145918284195" stroke-dasharray="1,0.5" stroke="#333c"/>
<line x1="389.01639344262304" y1="266.3292074140745" x2="404.42622950819685" y2="266.3292074140745" stroke-dasharray="1,0.5" stroke="#333c"/>
<line x1="396.72131147540995" y1="265.2145918284195" x2="396.72131147540995" y2="266.3292074140745" stroke-dasharray="1,0.5" stroke="#333c"/>
<rect x="404.42622950819685" y="281.218401374713" width="15.40983606557377" height="216.781598625287" fill="#DC267F" data-tooltip="1.14x baseline (YJIT 3.4.0dev)"/>
<line x1="404.42622950819685" y1="280.5105292532125" x2="419.8360655737706" y2="280.5105292532125" stroke-dasharray="1,0.5" stroke="#333c"/>
<line x1="404.42622950819685" y1="281.92627349621347" x2="419.8360655737706" y2="281.92627349621347" stroke-dasharray="1,0.5" stroke="#333c"/>
<line x1="412.13114754098376" y1="280.5105292532125" x2="412.13114754098376" y2="281.92627349621347" stroke-dasharray="1,0.5" stroke="#333c"/>
<line x1="396.72131147540995" y1="498.0" x2="396.72131147540995" y2="502.79999999999995" stroke="#000"/>
<text x="396.72131147540995" y="512.4" fill="#111" font-size="small" text-anchor="end" transform="rotate(-60, 396.72131147540995, 512.4)">
liquid-compile
</text>
<rect x="435.2459016393444" y="324.7652093634408" width="15.40983606557377" height="173.23479063655915" fill="#785EF0" data-tooltip="0.91x baseline (CRuby 3.4.0dev)"/>
<line x1="435.2459016393444" y1="324.39931702461075" x2="450.6557377049182" y2="324.39931702461075" stroke-dasharray="1,0.5" stroke="#333c"/>
<line x1="435.2459016393444" y1="325.1311017022709" x2="450.6557377049182" y2="325.1311017022709" stroke-dasharray="1,0.5" stroke="#333c"/>
<line x1="442.9508196721313" y1="324.39931702461075" x2="442.9508196721313" y2="325.1311017022709" stroke-dasharray="1,0.5" stroke="#333c"/>
<rect x="450.6557377049182" y="139.30762989798598" width="15.40983606557377" height="358.69237010201397" fill="#FFB000" data-tooltip="1.88x baseline (YJIT 3.3.3)"/>
<line x1="450.6557377049182" y1="138.35696202106388" x2="466.06557377049194" y2="138.35696202106388" stroke-dasharray="1,0.5" stroke="#333c"/>
<line x1="450.6557377049182" y1="140.25829777490807" x2="466.06557377049194" y2="140.25829777490807" stroke-dasharray="1,0.5" stroke="#333c"/>
<line x1="458.3606557377051" y1="138.35696202106388" x2="458.3606557377051" y2="140.25829777490807" stroke-dasharray="1,0.5" stroke="#333c"/>
<rect x="466.06557377049194" y="149.553716546886" width="15.40983606557377" height="348.44628345311395" fill="#DC267F" data-tooltip="1.83x baseline (YJIT 3.4.0dev)"/>
<line x1="466.06557377049194" y1="148.99532406040694" x2="481.47540983606575" y2="148.99532406040694" stroke-dasharray="1,0.5" stroke="#333c"/>
<line x1="466.06557377049194" y1="150.11210903336504" x2="481.47540983606575" y2="150.11210903336504" stroke-dasharray="1,0.5" stroke="#333c"/>
<line x1="473.77049180327884" y1="148.99532406040694" x2="473.77049180327884" y2="150.11210903336504" stroke-dasharray="1,0.5" stroke="#333c"/>
<line x1="458.3606557377051" y1="498.0" x2="458.3606557377051" y2="502.79999999999995" stroke="#000"/>
<text x="458.3606557377051" y="512.4" fill="#111" font-size="small" text-anchor="end" transform="rotate(-60, 458.3606557377051, 512.4)">
liquid-render
</text>
<rect x="496.8852459016395" y="320.7498448749551" width="15.40983606557377" height="177.25015512504487" fill="#785EF0" data-tooltip="0.93x baseline (CRuby 3.4.0dev)"/>
<line x1="496.8852459016395" y1="319.35957207269706" x2="512.2950819672133" y2="319.35957207269706" stroke-dasharray="1,0.5" stroke="#333c"/>
<line x1="496.8852459016395" y1="322.14011767721314" x2="512.2950819672133" y2="322.14011767721314" stroke-dasharray="1,0.5" stroke="#333c"/>
<line x1="504.59016393442636" y1="319.35957207269706" x2="504.59016393442636" y2="322.14011767721314" stroke-dasharray="1,0.5" stroke="#333c"/>
<rect x="512.2950819672133" y="236.87835688167164" width="15.40983606557377" height="261.12164311832834" fill="#FFB000" data-tooltip="1.37x baseline (YJIT 3.3.3)"/>
<line x1="512.2950819672133" y1="234.23899372775614" x2="527.7049180327871" y2="234.23899372775614" stroke-dasharray="1,0.5" stroke="#333c"/>
<line x1="512.2950819672133" y1="239.5177200355871" x2="527.7049180327871" y2="239.5177200355871" stroke-dasharray="1,0.5" stroke="#333c"/>
<line x1="520.0000000000001" y1="234.23899372775614" x2="520.0000000000001" y2="239.5177200355871" stroke-dasharray="1,0.5" stroke="#333c"/>
<rect x="527.7049180327871" y="242.89781371444084" width="15.40983606557377" height="255.10218628555913" fill="#DC267F" data-tooltip="1.34x baseline (YJIT 3.4.0dev)"/>
<line x1="527.7049180327871" y1="239.51524073404772" x2="543.1147540983609" y2="239.51524073404772" stroke-dasharray="1,0.5" stroke="#333c"/>
<line x1="527.7049180327871" y1="246.28038669483394" x2="543.1147540983609" y2="246.28038669483394" stroke-dasharray="1,0.5" stroke="#333c"/>
<line x1="535.4098360655739" y1="239.51524073404772" x2="535.4098360655739" y2="246.28038669483394" stroke-dasharray="1,0.5" stroke="#333c"/>
<line x1="520.0000000000002" y1="498.0" x2="520.0000000000002" y2="502.79999999999995" stroke="#000"/>
<text x="520.0000000000002" y="512.4" fill="#111" font-size="small" text-anchor="end" transform="rotate(-60, 520.0000000000002, 512.4)">
lobsters
</text>
<rect x="558.5245901639346" y="322.09309354312023" width="15.40983606557377" height="175.9069064568797" fill="#785EF0" data-tooltip="0.92x baseline (CRuby 3.4.0dev)"/>
<line x1="558.5245901639346" y1="321.8016913077845" x2="573.9344262295084" y2="321.8016913077845" stroke-dasharray="1,0.5" stroke="#333c"/>
<line x1="558.5245901639346" y1="322.38449577845597" x2="573.9344262295084" y2="322.38449577845597" stroke-dasharray="1,0.5" stroke="#333c"/>
<line x1="566.2295081967214" y1="321.8016913077845" x2="566.2295081967214" y2="322.38449577845597" stroke-dasharray="1,0.5" stroke="#333c"/>
<rect x="573.9344262295084" y="235.3531637180884" width="15.40983606557377" height="262.64683628191153" fill="#FFB000" data-tooltip="1.38x baseline (YJIT 3.3.3)"/>
<line x1="573.9344262295084" y1="234.80146085029335" x2="589.3442622950822" y2="234.80146085029335" stroke-dasharray="1,0.5" stroke="#333c"/>
<line x1="573.9344262295084" y1="235.90486658588344" x2="589.3442622950822" y2="235.90486658588344" stroke-dasharray="1,0.5" stroke="#333c"/>
<line x1="581.6393442622953" y1="234.80146085029335" x2="581.6393442622953" y2="235.90486658588344" stroke-dasharray="1,0.5" stroke="#333c"/>
<rect x="589.3442622950822" y="250.11427897777574" width="15.40983606557377" height="247.88572102222417" fill="#DC267F" data-tooltip="1.30x baseline (YJIT 3.4.0dev)"/>
<line x1="589.3442622950822" y1="249.6835811222449" x2="604.7540983606559" y2="249.6835811222449" stroke-dasharray="1,0.5" stroke="#333c"/>
<line x1="589.3442622950822" y1="250.54497683330658" x2="604.7540983606559" y2="250.54497683330658" stroke-dasharray="1,0.5" stroke="#333c"/>
<line x1="597.0491803278691" y1="249.6835811222449" x2="597.0491803278691" y2="250.54497683330658" stroke-dasharray="1,0.5" stroke="#333c"/>
<line x1="581.6393442622954" y1="498.0" x2="581.6393442622954" y2="502.79999999999995" stroke="#000"/>
<text x="581.6393442622954" y="512.4" fill="#111" font-size="small" text-anchor="end" transform="rotate(-60, 581.6393442622954, 512.4)">
mail
</text>
<rect x="620.1639344262297" y="320.38500043788633" width="15.40983606557377" height="177.6149995621136" fill="#785EF0" data-tooltip="0.93x baseline (CRuby 3.4.0dev)"/>
<line x1="620.1639344262297" y1="320.18398737188187" x2="635.5737704918035" y2="320.18398737188187" stroke-dasharray="1,0.5" stroke="#333c"/>
<line x1="620.1639344262297" y1="320.5860135038908" x2="635.5737704918035" y2="320.5860135038908" stroke-dasharray="1,0.5" stroke="#333c"/>
<line x1="627.8688524590166" y1="320.18398737188187" x2="627.8688524590166" y2="320.5860135038908" stroke-dasharray="1,0.5" stroke="#333c"/>
<rect x="635.5737704918035" y="192.9301154490654" width="15.40983606557377" height="305.06988455093455" fill="#FFB000" data-tooltip="1.60x baseline (YJIT 3.3.3)"/>
<line x1="635.5737704918035" y1="192.58572970320364" x2="650.9836065573774" y2="192.58572970320364" stroke-dasharray="1,0.5" stroke="#333c"/>
<line x1="635.5737704918035" y1="193.27450119492718" x2="650.9836065573774" y2="193.27450119492718" stroke-dasharray="1,0.5" stroke="#333c"/>
<line x1="643.2786885245904" y1="192.58572970320364" x2="643.2786885245904" y2="193.27450119492718" stroke-dasharray="1,0.5" stroke="#333c"/>
<rect x="650.9836065573774" y="191.7420461718215" width="15.40983606557377" height="306.2579538281785" fill="#DC267F" data-tooltip="1.61x baseline (YJIT 3.4.0dev)"/>
<line x1="650.9836065573774" y1="191.4044842610388" x2="666.393442622951" y2="191.4044842610388" stroke-dasharray="1,0.5" stroke="#333c"/>
<line x1="650.9836065573774" y1="192.07960808260424" x2="666.393442622951" y2="192.07960808260424" stroke-dasharray="1,0.5" stroke="#333c"/>
<line x1="658.6885245901641" y1="191.4044842610388" x2="658.6885245901641" y2="192.07960808260424" stroke-dasharray="1,0.5" stroke="#333c"/>
<line x1="643.2786885245905" y1="498.0" x2="643.2786885245905" y2="502.79999999999995" stroke="#000"/>
<text x="643.2786885245905" y="512.4" fill="#111" font-size="small" text-anchor="end" transform="rotate(-60, 643.2786885245905, 512.4)">
psych-load
</text>
<rect x="681.8032786885249" y="321.37814258115264" width="15.40983606557377" height="176.62185741884733" fill="#785EF0" data-tooltip="0.93x baseline (CRuby 3.4.0dev)"/>
<line x1="681.8032786885249" y1="321.2057021286864" x2="697.2131147540987" y2="321.2057021286864" stroke-dasharray="1,0.5" stroke="#333c"/>
<line x1="681.8032786885249" y1="321.55058303361886" x2="697.2131147540987" y2="321.55058303361886" stroke-dasharray="1,0.5" stroke="#333c"/>
<line x1="689.5081967213117" y1="321.2057021286864" x2="689.5081967213117" y2="321.55058303361886" stroke-dasharray="1,0.5" stroke="#333c"/>
<rect x="697.2131147540987" y="203.87641478861568" width="15.40983606557377" height="294.12358521138424" fill="#FFB000" data-tooltip="1.55x baseline (YJIT 3.3.3)"/>
<line x1="697.2131147540987" y1="203.43880665439644" x2="712.6229508196724" y2="203.43880665439644" stroke-dasharray="1,0.5" stroke="#333c"/>
<line x1="697.2131147540987" y1="204.31402292283494" x2="712.6229508196724" y2="204.31402292283494" stroke-dasharray="1,0.5" stroke="#333c"/>
<line x1="704.9180327868854" y1="203.43880665439644" x2="704.9180327868854" y2="204.31402292283494" stroke-dasharray="1,0.5" stroke="#333c"/>
<rect x="712.6229508196724" y="203.8085319446015" width="15.40983606557377" height="294.19146805539845" fill="#DC267F" data-tooltip="1.55x baseline (YJIT 3.4.0dev)"/>
<line x1="712.6229508196724" y1="203.48033931280634" x2="728.0327868852462" y2="203.48033931280634" stroke-dasharray="1,0.5" stroke="#333c"/>
<line x1="712.6229508196724" y1="204.13672457639666" x2="728.0327868852462" y2="204.13672457639666" stroke-dasharray="1,0.5" stroke="#333c"/>
<line x1="720.3278688524592" y1="203.48033931280634" x2="720.3278688524592" y2="204.13672457639666" stroke-dasharray="1,0.5" stroke="#333c"/>
<line x1="704.9180327868855" y1="498.0" x2="704.9180327868855" y2="502.79999999999995" stroke="#000"/>
<text x="704.9180327868855" y="512.4" fill="#111" font-size="small" text-anchor="end" transform="rotate(-60, 704.9180327868855, 512.4)">
railsbench
</text>
<rect x="743.44262295082" y="324.7338933789036" width="15.40983606557377" height="173.26610662109633" fill="#785EF0" data-tooltip="0.91x baseline (CRuby 3.4.0dev)"/>
<line x1="743.44262295082" y1="321.62727341687815" x2="758.8524590163937" y2="321.62727341687815" stroke-dasharray="1,0.5" stroke="#333c"/>
<line x1="743.44262295082" y1="327.8405133409291" x2="758.8524590163937" y2="327.8405133409291" stroke-dasharray="1,0.5" stroke="#333c"/>
<line x1="751.1475409836069" y1="321.62727341687815" x2="751.1475409836069" y2="327.8405133409291" stroke-dasharray="1,0.5" stroke="#333c"/>
<rect x="758.8524590163937" y="235.6540997955533" width="15.40983606557377" height="262.34590020444665" fill="#FFB000" data-tooltip="1.38x baseline (YJIT 3.3.3)"/>
<line x1="758.8524590163937" y1="225.24561044792145" x2="774.2622950819675" y2="225.24561044792145" stroke-dasharray="1,0.5" stroke="#333c"/>
<line x1="758.8524590163937" y1="246.06258914318516" x2="774.2622950819675" y2="246.06258914318516" stroke-dasharray="1,0.5" stroke="#333c"/>
<line x1="766.5573770491806" y1="225.24561044792145" x2="766.5573770491806" y2="246.06258914318516" stroke-dasharray="1,0.5" stroke="#333c"/>
<rect x="774.2622950819675" y="245.7320510449486" width="15.40983606557377" height="252.26794895505134" fill="#DC267F" data-tooltip="1.33x baseline (YJIT 3.4.0dev)"/>
<line x1="774.2622950819675" y1="231.787274921945" x2="789.6721311475413" y2="231.787274921945" stroke-dasharray="1,0.5" stroke="#333c"/>
<line x1="774.2622950819675" y1="259.6768271679522" x2="789.6721311475413" y2="259.6768271679522" stroke-dasharray="1,0.5" stroke="#333c"/>
<line x1="781.9672131147544" y1="231.787274921945" x2="781.9672131147544" y2="259.6768271679522" stroke-dasharray="1,0.5" stroke="#333c"/>
<line x1="766.5573770491807" y1="498.0" x2="766.5573770491807" y2="502.79999999999995" stroke="#000"/>
<text x="766.5573770491807" y="512.4" fill="#111" font-size="small" text-anchor="end" transform="rotate(-60, 766.5573770491807, 512.4)">
rubocop
</text>
<rect x="805.081967213115" y="305.1860495520118" width="15.40983606557377" height="192.8139504479881" fill="#785EF0" data-tooltip="1.01x baseline (CRuby 3.4.0dev)"/>
<line x1="805.081967213115" y1="304.36310586507045" x2="820.4918032786888" y2="304.36310586507045" stroke-dasharray="1,0.5" stroke="#333c"/>
<line x1="805.081967213115" y1="306.0089932389532" x2="820.4918032786888" y2="306.0089932389532" stroke-dasharray="1,0.5" stroke="#333c"/>
<line x1="812.7868852459019" y1="304.36310586507045" x2="812.7868852459019" y2="306.0089932389532" stroke-dasharray="1,0.5" stroke="#333c"/>
<rect x="820.4918032786888" y="245.91614398600134" width="15.40983606557377" height="252.0838560139986" fill="#FFB000" data-tooltip="1.32x baseline (YJIT 3.3.3)"/>
<line x1="820.4918032786888" y1="243.78677665582273" x2="835.9016393442627" y2="243.78677665582273" stroke-dasharray="1,0.5" stroke="#333c"/>
<line x1="820.4918032786888" y1="248.04551131617998" x2="835.9016393442627" y2="248.04551131617998" stroke-dasharray="1,0.5" stroke="#333c"/>
<line x1="828.1967213114757" y1="243.78677665582273" x2="828.1967213114757" y2="248.04551131617998" stroke-dasharray="1,0.5" stroke="#333c"/>
<rect x="835.9016393442627" y="214.51764846739957" width="15.40983606557377" height="283.4823515326004" fill="#DC267F" data-tooltip="1.49x baseline (YJIT 3.4.0dev)"/>
<line x1="835.9016393442627" y1="211.24927941204808" x2="851.3114754098365" y2="211.24927941204808" stroke-dasharray="1,0.5" stroke="#333c"/>
<line x1="835.9016393442627" y1="217.78601752275108" x2="851.3114754098365" y2="217.78601752275108" stroke-dasharray="1,0.5" stroke="#333c"/>
<line x1="843.6065573770495" y1="211.24927941204808" x2="843.6065573770495" y2="217.78601752275108" stroke-dasharray="1,0.5" stroke="#333c"/>
<line x1="828.1967213114758" y1="498.0" x2="828.1967213114758" y2="502.79999999999995" stroke="#000"/>
<text x="828.1967213114758" y="512.4" fill="#111" font-size="small" text-anchor="end" transform="rotate(-60, 828.1967213114758, 512.4)">
ruby-lsp
</text>
<rect x="866.7213114754102" y="323.3166403546547" width="15.40983606557377" height="174.6833596453453" fill="#785EF0" data-tooltip="0.92x baseline (CRuby 3.4.0dev)"/>
<line x1="866.7213114754102" y1="322.34375991435775" x2="882.131147540984" y2="322.34375991435775" stroke-dasharray="1,0.5" stroke="#333c"/>
<line x1="866.7213114754102" y1="324.28952079495167" x2="882.131147540984" y2="324.28952079495167" stroke-dasharray="1,0.5" stroke="#333c"/>
<line x1="874.426229508197" y1="322.34375991435775" x2="874.426229508197" y2="324.28952079495167" stroke-dasharray="1,0.5" stroke="#333c"/>
<rect x="882.131147540984" y="272.63174785606435" width="15.40983606557377" height="225.36825214393556" fill="#FFB000" data-tooltip="1.18x baseline (YJIT 3.3.3)"/>
<line x1="882.131147540984" y1="271.34256058461796" x2="897.5409836065578" y2="271.34256058461796" stroke-dasharray="1,0.5" stroke="#333c"/>
<line x1="882.131147540984" y1="273.92093512751075" x2="897.5409836065578" y2="273.92093512751075" stroke-dasharray="1,0.5" stroke="#333c"/>
<line x1="889.8360655737708" y1="271.34256058461796" x2="889.8360655737708" y2="273.92093512751075" stroke-dasharray="1,0.5" stroke="#333c"/>
<rect x="897.5409836065578" y="285.89320089115284" width="15.40983606557377" height="212.10679910884713" fill="#DC267F" data-tooltip="1.11x baseline (YJIT 3.4.0dev)"/>
<line x1="897.5409836065578" y1="284.6609264482028" x2="912.9508196721315" y2="284.6609264482028" stroke-dasharray="1,0.5" stroke="#333c"/>
<line x1="897.5409836065578" y1="287.1254753341028" x2="912.9508196721315" y2="287.1254753341028" stroke-dasharray="1,0.5" stroke="#333c"/>
<line x1="905.2459016393447" y1="284.6609264482028" x2="905.2459016393447" y2="287.1254753341028" stroke-dasharray="1,0.5" stroke="#333c"/>
<line x1="889.836065573771" y1="498.0" x2="889.836065573771" y2="502.79999999999995" stroke="#000"/>
<text x="889.836065573771" y="512.4" fill="#111" font-size="small" text-anchor="end" transform="rotate(-60, 889.836065573771, 512.4)">
sequel
</text>
<rect x="928.3606557377053" y="321.9336049290682" width="15.40983606557377" height="176.0663950709317" fill="#785EF0" data-tooltip="0.92x baseline (CRuby 3.4.0dev)"/>
<rect x="943.7704918032791" y="221.60883160931238" width="15.40983606557377" height="276.3911683906876" fill="#FFB000" data-tooltip="1.45x baseline (YJIT 3.3.3)"/>
<rect x="959.1803278688528" y="223.0432985683048" width="15.40983606557377" height="274.95670143169514" fill="#DC267F" data-tooltip="1.44x baseline (YJIT 3.4.0dev)"/>
<line x1="951.4754098360661" y1="498.0" x2="951.4754098360661" y2="502.79999999999995" stroke="#000"/>
<text x="951.4754098360661" y="512.4" fill="#111" font-size="small" text-anchor="end" transform="rotate(-60, 951.4754098360661, 512.4)" font-style="italic">
geomean*
</text>
<line x1="50.0" y1="307.64646666688316" x2="990.0" y2="307.64646666688316" stroke="#648FFF" stroke-width="2"/>
<rect x="67.23483606557377" y="313.9765462900659" width="17.85" height="7.2" transform="rotate(-60, 75.11475409836066, 320.63654629006595)" fill="#fffa"/>
<text x="67.40983606557377" y="320.63654629006595" fill="#111" font-size="0.5em" text-anchor="start" textLength="17.5" transform="rotate(-60, 75.11475409836066, 320.63654629006595)" style="text-shadow: 0 0 1px #fff;">
0.89
</text>
<rect x="82.64467213114754" y="177.57258410069358" width="17.85" height="7.2" transform="rotate(-60, 90.52459016393442, 184.2325841006936)" fill="#fffa"/>
<text x="82.81967213114753" y="184.2325841006936" fill="#111" font-size="0.5em" text-anchor="start" textLength="17.5" transform="rotate(-60, 90.52459016393442, 184.2325841006936)" style="text-shadow: 0 0 1px #fff;">
1.61
</text>
<rect x="98.0545081967213" y="190.22965824326738" width="17.85" height="7.2" transform="rotate(-60, 105.93442622950819, 196.88965824326738)" fill="#fffa"/>
<text x="98.2295081967213" y="196.88965824326738" fill="#111" font-size="0.5em" text-anchor="start" textLength="17.5" transform="rotate(-60, 105.93442622950819, 196.88965824326738)" style="text-shadow: 0 0 1px #fff;">
1.54
</text>
<rect x="128.87418032786883" y="314.4648231165927" width="17.85" height="7.2" transform="rotate(-60, 136.75409836065572, 321.1248231165927)" fill="#fffa"/>
<text x="129.04918032786884" y="321.1248231165927" fill="#111" font-size="0.5em" text-anchor="start" textLength="17.5" transform="rotate(-60, 136.75409836065572, 321.1248231165927)" style="text-shadow: 0 0 1px #fff;">
0.89
</text>
<rect x="144.2840163934426" y="146.95523142499962" width="17.85" height="7.2" transform="rotate(-60, 152.1639344262295, 153.61523142499962)" fill="#fffa"/>
<text x="144.4590163934426" y="153.61523142499962" fill="#111" font-size="0.5em" text-anchor="start" textLength="17.5" transform="rotate(-60, 152.1639344262295, 153.61523142499962)" style="text-shadow: 0 0 1px #fff;">
1.77
</text>
<rect x="159.69385245901637" y="86.03999999999998" width="17.85" height="7.2" transform="rotate(-60, 167.5737704918033, 92.69999999999999)" fill="#fffa"/>
<text x="159.86885245901638" y="92.69999999999999" fill="#111" font-size="0.5em" text-anchor="start" textLength="17.5" transform="rotate(-60, 167.5737704918033, 92.69999999999999)" style="text-shadow: 0 0 1px #fff;">
2.09
</text>
<rect x="190.51352459016394" y="310.7566190884186" width="17.85" height="7.2" transform="rotate(-60, 198.39344262295083, 317.4166190884186)" fill="#fffa"/>
<text x="190.68852459016395" y="317.4166190884186" fill="#111" font-size="0.5em" text-anchor="start" textLength="17.5" transform="rotate(-60, 198.39344262295083, 317.4166190884186)" style="text-shadow: 0 0 1px #fff;">
0.91
</text>
<rect x="205.92336065573772" y="202.71162045573843" width="17.85" height="7.2" transform="rotate(-60, 213.8032786885246, 209.37162045573842)" fill="#fffa"/>
<text x="206.09836065573774" y="209.37162045573842" fill="#111" font-size="0.5em" text-anchor="start" textLength="17.5" transform="rotate(-60, 213.8032786885246, 209.37162045573842)" style="text-shadow: 0 0 1px #fff;">
1.48
</text>
<rect x="221.33319672131148" y="223.0357824926785" width="17.85" height="7.2" transform="rotate(-60, 229.2131147540984, 229.6957824926785)" fill="#fffa"/>
<text x="221.5081967213115" y="229.6957824926785" fill="#111" font-size="0.5em" text-anchor="start" textLength="17.5" transform="rotate(-60, 229.2131147540984, 229.6957824926785)" style="text-shadow: 0 0 1px #fff;">
1.37
</text>
<rect x="252.15286885245908" y="303.04840268118267" width="17.85" height="7.2" transform="rotate(-60, 260.03278688524597, 309.70840268118263)" fill="#fffa"/>
<text x="252.32786885245906" y="309.70840268118263" fill="#111" font-size="0.5em" text-anchor="start" textLength="17.5" transform="rotate(-60, 260.03278688524597, 309.70840268118263)" style="text-shadow: 0 0 1px #fff;">
0.95
</text>
<rect x="267.56270491803286" y="202.1785615152268" width="17.85" height="7.2" transform="rotate(-60, 275.4426229508197, 208.8385615152268)" fill="#fffa"/>
<text x="267.7377049180328" y="208.8385615152268" fill="#111" font-size="0.5em" text-anchor="start" textLength="17.5" transform="rotate(-60, 275.4426229508197, 208.8385615152268)" style="text-shadow: 0 0 1px #fff;">
1.48
</text>
<rect x="282.9725409836066" y="182.95730023262914" width="17.85" height="7.2" transform="rotate(-60, 290.8524590163935, 189.61730023262913)" fill="#fffa"/>
<text x="283.14754098360663" y="189.61730023262913" fill="#111" font-size="0.5em" text-anchor="start" textLength="17.5" transform="rotate(-60, 290.8524590163935, 189.61730023262913)" style="text-shadow: 0 0 1px #fff;">
1.58
</text>
<rect x="313.7922131147542" y="307.03576753987164" width="17.85" height="7.2" transform="rotate(-60, 321.67213114754105, 313.69576753987167)" fill="#fffa"/>
<text x="313.96721311475414" y="313.69576753987167" fill="#111" font-size="0.5em" text-anchor="start" textLength="17.5" transform="rotate(-60, 321.67213114754105, 313.69576753987167)" style="text-shadow: 0 0 1px #fff;">
0.93
</text>
<rect x="329.20204918032795" y="240.60233817215223" width="17.85" height="7.2" transform="rotate(-60, 337.08196721311486, 247.26233817215223)" fill="#fffa"/>
<text x="329.37704918032796" y="247.26233817215223" fill="#111" font-size="0.5em" text-anchor="start" textLength="17.5" transform="rotate(-60, 337.08196721311486, 247.26233817215223)" style="text-shadow: 0 0 1px #fff;">
1.28
</text>
<rect x="344.61188524590176" y="247.91808408497508" width="17.85" height="7.2" transform="rotate(-60, 352.4918032786886, 254.57808408497507)" fill="#fffa"/>
<text x="344.7868852459017" y="254.57808408497507" fill="#111" font-size="0.5em" text-anchor="start" textLength="17.5" transform="rotate(-60, 352.4918032786886, 254.57808408497507)" style="text-shadow: 0 0 1px #fff;">
1.24
</text>
<rect x="375.43155737704933" y="309.0718425233681" width="17.85" height="7.2" transform="rotate(-60, 383.3114754098362, 315.7318425233681)" fill="#fffa"/>
<text x="375.6065573770493" y="315.7318425233681" fill="#111" font-size="0.5em" text-anchor="start" textLength="17.5" transform="rotate(-60, 383.3114754098362, 315.7318425233681)" style="text-shadow: 0 0 1px #fff;">
0.92
</text>
<rect x="390.8413934426231" y="251.611899621247" width="17.85" height="7.2" transform="rotate(-60, 398.72131147540995, 258.27189962124703)" fill="#fffa"/>
<text x="391.01639344262304" y="258.27189962124703" fill="#111" font-size="0.5em" text-anchor="start" textLength="17.5" transform="rotate(-60, 398.72131147540995, 258.27189962124703)" style="text-shadow: 0 0 1px #fff;">
1.22
</text>
<rect x="406.25122950819684" y="267.05840137471296" width="17.85" height="7.2" transform="rotate(-60, 414.13114754098376, 273.7184013747129)" fill="#fffa"/>
<text x="406.42622950819685" y="273.7184013747129" fill="#111" font-size="0.5em" text-anchor="start" textLength="17.5" transform="rotate(-60, 414.13114754098376, 273.7184013747129)" style="text-shadow: 0 0 1px #fff;">
1.14
</text>
<rect x="437.0709016393444" y="310.60520936344085" width="17.85" height="7.2" transform="rotate(-60, 444.9508196721313, 317.2652093634409)" fill="#fffa"/>
<text x="437.2459016393444" y="317.2652093634409" fill="#111" font-size="0.5em" text-anchor="start" textLength="17.5" transform="rotate(-60, 444.9508196721313, 317.2652093634409)" style="text-shadow: 0 0 1px #fff;">
0.91
</text>
<rect x="452.4807377049182" y="125.14762989798598" width="17.85" height="7.2" transform="rotate(-60, 460.3606557377051, 131.80762989798598)" fill="#fffa"/>
<text x="452.6557377049182" y="131.80762989798598" fill="#111" font-size="0.5em" text-anchor="start" textLength="17.5" transform="rotate(-60, 460.3606557377051, 131.80762989798598)" style="text-shadow: 0 0 1px #fff;">
1.88
</text>
<rect x="467.890573770492" y="135.393716546886" width="17.85" height="7.2" transform="rotate(-60, 475.77049180327884, 142.053716546886)" fill="#fffa"/>
<text x="468.06557377049194" y="142.053716546886" fill="#111" font-size="0.5em" text-anchor="start" textLength="17.5" transform="rotate(-60, 475.77049180327884, 142.053716546886)" style="text-shadow: 0 0 1px #fff;">
1.83
</text>
<rect x="498.71024590163955" y="306.58984487495513" width="17.85" height="7.2" transform="rotate(-60, 506.59016393442636, 313.2498448749551)" fill="#fffa"/>
<text x="498.8852459016395" y="313.2498448749551" fill="#111" font-size="0.5em" text-anchor="start" textLength="17.5" transform="rotate(-60, 506.59016393442636, 313.2498448749551)" style="text-shadow: 0 0 1px #fff;">
0.93
</text>
<rect x="514.1200819672133" y="222.7183568816716" width="17.85" height="7.2" transform="rotate(-60, 522.0000000000001, 229.3783568816716)" fill="#fffa"/>
<text x="514.2950819672133" y="229.3783568816716" fill="#111" font-size="0.5em" text-anchor="start" textLength="17.5" transform="rotate(-60, 522.0000000000001, 229.3783568816716)" style="text-shadow: 0 0 1px #fff;">
1.37
</text>
<rect x="529.529918032787" y="228.73781371444082" width="17.85" height="7.2" transform="rotate(-60, 537.4098360655739, 235.39781371444082)" fill="#fffa"/>
<text x="529.7049180327871" y="235.39781371444082" fill="#111" font-size="0.5em" text-anchor="start" textLength="17.5" transform="rotate(-60, 537.4098360655739, 235.39781371444082)" style="text-shadow: 0 0 1px #fff;">
1.34
</text>
<rect x="560.3495901639346" y="307.93309354312026" width="17.85" height="7.2" transform="rotate(-60, 568.2295081967214, 314.5930935431203)" fill="#fffa"/>
<text x="560.5245901639346" y="314.5930935431203" fill="#111" font-size="0.5em" text-anchor="start" textLength="17.5" transform="rotate(-60, 568.2295081967214, 314.5930935431203)" style="text-shadow: 0 0 1px #fff;">
0.92
</text>
<rect x="575.7594262295083" y="221.19316371808839" width="17.85" height="7.2" transform="rotate(-60, 583.6393442622953, 227.85316371808838)" fill="#fffa"/>
<text x="575.9344262295084" y="227.85316371808838" fill="#111" font-size="0.5em" text-anchor="start" textLength="17.5" transform="rotate(-60, 583.6393442622953, 227.85316371808838)" style="text-shadow: 0 0 1px #fff;">
1.38
</text>
<rect x="591.1692622950821" y="235.95427897777574" width="17.85" height="7.2" transform="rotate(-60, 599.0491803278691, 242.61427897777574)" fill="#fffa"/>
<text x="591.3442622950822" y="242.61427897777574" fill="#111" font-size="0.5em" text-anchor="start" textLength="17.5" transform="rotate(-60, 599.0491803278691, 242.61427897777574)" style="text-shadow: 0 0 1px #fff;">
1.30
</text>
<rect x="621.9889344262297" y="306.22500043788637" width="17.85" height="7.2" transform="rotate(-60, 629.8688524590166, 312.88500043788633)" fill="#fffa"/>
<text x="622.1639344262297" y="312.88500043788633" fill="#111" font-size="0.5em" text-anchor="start" textLength="17.5" transform="rotate(-60, 629.8688524590166, 312.88500043788633)" style="text-shadow: 0 0 1px #fff;">
0.93
</text>
<rect x="637.3987704918035" y="178.7701154490654" width="17.85" height="7.2" transform="rotate(-60, 645.2786885245904, 185.4301154490654)" fill="#fffa"/>
<text x="637.5737704918035" y="185.4301154490654" fill="#111" font-size="0.5em" text-anchor="start" textLength="17.5" transform="rotate(-60, 645.2786885245904, 185.4301154490654)" style="text-shadow: 0 0 1px #fff;">
1.60
</text>
<rect x="652.8086065573773" y="177.5820461718215" width="17.85" height="7.2" transform="rotate(-60, 660.6885245901641, 184.2420461718215)" fill="#fffa"/>
<text x="652.9836065573774" y="184.2420461718215" fill="#111" font-size="0.5em" text-anchor="start" textLength="17.5" transform="rotate(-60, 660.6885245901641, 184.2420461718215)" style="text-shadow: 0 0 1px #fff;">
1.61
</text>
<rect x="683.6282786885248" y="307.2181425811527" width="17.85" height="7.2" transform="rotate(-60, 691.5081967213117, 313.8781425811527)" fill="#fffa"/>
<text x="683.8032786885249" y="313.8781425811527" fill="#111" font-size="0.5em" text-anchor="start" textLength="17.5" transform="rotate(-60, 691.5081967213117, 313.8781425811527)" style="text-shadow: 0 0 1px #fff;">
0.93
</text>
<rect x="699.0381147540986" y="189.71641478861568" width="17.85" height="7.2" transform="rotate(-60, 706.9180327868854, 196.37641478861568)" fill="#fffa"/>
<text x="699.2131147540987" y="196.37641478861568" fill="#111" font-size="0.5em" text-anchor="start" textLength="17.5" transform="rotate(-60, 706.9180327868854, 196.37641478861568)" style="text-shadow: 0 0 1px #fff;">
1.55
</text>
<rect x="714.4479508196724" y="189.64853194460147" width="17.85" height="7.2" transform="rotate(-60, 722.3278688524592, 196.30853194460147)" fill="#fffa"/>
<text x="714.6229508196724" y="196.30853194460147" fill="#111" font-size="0.5em" text-anchor="start" textLength="17.5" transform="rotate(-60, 722.3278688524592, 196.30853194460147)" style="text-shadow: 0 0 1px #fff;">
1.55
</text>
<rect x="745.2676229508199" y="310.5738933789036" width="17.85" height="7.2" transform="rotate(-60, 753.1475409836069, 317.23389337890364)" fill="#fffa"/>
<text x="745.44262295082" y="317.23389337890364" fill="#111" font-size="0.5em" text-anchor="start" textLength="17.5" transform="rotate(-60, 753.1475409836069, 317.23389337890364)" style="text-shadow: 0 0 1px #fff;">
0.91
</text>
<rect x="760.6774590163938" y="221.4940997955533" width="17.85" height="7.2" transform="rotate(-60, 768.5573770491806, 228.1540997955533)" fill="#fffa"/>
<text x="760.8524590163937" y="228.1540997955533" fill="#111" font-size="0.5em" text-anchor="start" textLength="17.5" transform="rotate(-60, 768.5573770491806, 228.1540997955533)" style="text-shadow: 0 0 1px #fff;">
1.38
</text>
<rect x="776.0872950819675" y="231.57205104494858" width="17.85" height="7.2" transform="rotate(-60, 783.9672131147544, 238.23205104494858)" fill="#fffa"/>
<text x="776.2622950819675" y="238.23205104494858" fill="#111" font-size="0.5em" text-anchor="start" textLength="17.5" transform="rotate(-60, 783.9672131147544, 238.23205104494858)" style="text-shadow: 0 0 1px #fff;">
1.33
</text>
<rect x="806.9069672131151" y="291.02604955201184" width="17.85" height="7.2" transform="rotate(-60, 814.7868852459019, 297.6860495520118)" fill="#fffa"/>
<text x="807.0819672131151" y="297.6860495520118" fill="#111" font-size="0.5em" text-anchor="start" textLength="17.5" transform="rotate(-60, 814.7868852459019, 297.6860495520118)" style="text-shadow: 0 0 1px #fff;">
1.01
</text>
<rect x="822.3168032786888" y="231.75614398600135" width="17.85" height="7.2" transform="rotate(-60, 830.1967213114757, 238.41614398600134)" fill="#fffa"/>
<text x="822.4918032786888" y="238.41614398600134" fill="#111" font-size="0.5em" text-anchor="start" textLength="17.5" transform="rotate(-60, 830.1967213114757, 238.41614398600134)" style="text-shadow: 0 0 1px #fff;">
1.32
</text>
<rect x="837.7266393442626" y="200.35764846739957" width="17.85" height="7.2" transform="rotate(-60, 845.6065573770495, 207.01764846739957)" fill="#fffa"/>
<text x="837.9016393442627" y="207.01764846739957" fill="#111" font-size="0.5em" text-anchor="start" textLength="17.5" transform="rotate(-60, 845.6065573770495, 207.01764846739957)" style="text-shadow: 0 0 1px #fff;">
1.49
</text>
<rect x="868.5463114754102" y="309.1566403546547" width="17.85" height="7.2" transform="rotate(-60, 876.426229508197, 315.81664035465474)" fill="#fffa"/>
<text x="868.7213114754102" y="315.81664035465474" fill="#111" font-size="0.5em" text-anchor="start" textLength="17.5" transform="rotate(-60, 876.426229508197, 315.81664035465474)" style="text-shadow: 0 0 1px #fff;">
0.92
</text>
<rect x="883.9561475409839" y="258.4717478560644" width="17.85" height="7.2" transform="rotate(-60, 891.8360655737708, 265.13174785606435)" fill="#fffa"/>
<text x="884.131147540984" y="265.13174785606435" fill="#111" font-size="0.5em" text-anchor="start" textLength="17.5" transform="rotate(-60, 891.8360655737708, 265.13174785606435)" style="text-shadow: 0 0 1px #fff;">
1.18
</text>
<rect x="899.3659836065577" y="271.7332008911528" width="17.85" height="7.2" transform="rotate(-60, 907.2459016393447, 278.3932008911528)" fill="#fffa"/>
<text x="899.5409836065578" y="278.3932008911528" fill="#111" font-size="0.5em" text-anchor="start" textLength="17.5" transform="rotate(-60, 907.2459016393447, 278.3932008911528)" style="text-shadow: 0 0 1px #fff;">
1.11
</text>
<rect x="930.1856557377052" y="307.77360492906826" width="17.85" height="7.2" transform="rotate(-60, 938.0655737704922, 314.4336049290683)" fill="#fffa"/>
<text x="930.3606557377053" y="314.4336049290683" fill="#111" font-size="0.5em" text-anchor="start" textLength="17.5" transform="rotate(-60, 938.0655737704922, 314.4336049290683)" style="text-shadow: 0 0 1px #fff;">
0.92
</text>
<rect x="945.5954918032791" y="207.44883160931238" width="17.85" height="7.2" transform="rotate(-60, 953.475409836066, 214.10883160931238)" fill="#fffa"/>
<text x="945.7704918032791" y="214.10883160931238" fill="#111" font-size="0.5em" text-anchor="start" textLength="17.5" transform="rotate(-60, 953.475409836066, 214.10883160931238)" style="text-shadow: 0 0 1px #fff;">
1.45
</text>
<rect x="961.0053278688529" y="208.8832985683048" width="17.85" height="7.2" transform="rotate(-60, 968.8852459016397, 215.5432985683048)" fill="#fffa"/>
<text x="961.1803278688528" y="215.5432985683048" fill="#111" font-size="0.5em" text-anchor="start" textLength="17.5" transform="rotate(-60, 968.8852459016397, 215.5432985683048)" style="text-shadow: 0 0 1px #fff;">
1.44
</text>
</svg>