<svg viewBox="0 0 1000 600" xmlns="http://www.w3.org/2000/svg" xmlns:xlink="http://www.w3.org/1999/xlink" width="100%" height="100%">

<rect x="50.0" y="30.0" width="940.0" height="467.99999999999994" stroke="#000" fill="#fff"/>
<line x1="42.0" y1="497.9999999999999" x2="50.0" y2="497.9999999999999" stroke="#000"/>
<text x="26.000000000000004" y="497.9999999999999" text-anchor="end" font-weight="bold" font-size="small" fill="#111">
0.0
</text>
<line x1="42.0" y1="422.8609806010243" x2="50.0" y2="422.8609806010243" stroke="#000"/>
<text x="26.000000000000004" y="422.8609806010243" text-anchor="end" font-weight="bold" font-size="small" fill="#111">
1.0
</text>
<line x1="42.0" y1="347.7219612020486" x2="50.0" y2="347.7219612020486" stroke="#000"/>
<text x="26.000000000000004" y="347.7219612020486" text-anchor="end" font-weight="bold" font-size="small" fill="#111">
2.0
</text>
<line x1="42.0" y1="272.5829418030728" x2="50.0" y2="272.5829418030728" stroke="#000"/>
<text x="26.000000000000004" y="272.5829418030728" text-anchor="end" font-weight="bold" font-size="small" fill="#111">
3.0
</text>
<line x1="42.0" y1="197.4439224040971" x2="50.0" y2="197.4439224040971" stroke="#000"/>
<text x="26.000000000000004" y="197.4439224040971" text-anchor="end" font-weight="bold" font-size="small" fill="#111">
4.0
</text>
<line x1="42.0" y1="122.30490300512139" x2="50.0" y2="122.30490300512139" stroke="#000"/>
<text x="26.000000000000004" y="122.30490300512139" text-anchor="end" font-weight="bold" font-size="small" fill="#111">
5.0
</text>
<line x1="142.75" y1="54.60000000000001" x2="262.75" y2="54.60000000000001" stroke="#648FFF" stroke-width="2"/>
<text x="202.75" y="49.500000000000014" font-size="small" text-anchor="middle" font-weight="bold" fill="#000">
CRuby 3.3.3
</text>
<rect x="354.25" y="35.400000000000006" width="120.0" height="19.2" fill="#785EF0" stroke="none"/>
<text x="414.25" y="49.500000000000014" font-size="small" text-anchor="middle" font-weight="bold" fill="#fff" style="text-shadow: 0 0 1px #000;">
CRuby 3.4.0dev
</text>
<rect x="565.75" y="35.400000000000006" width="120.0" height="19.2" fill="#FFB000" stroke="none"/>
<text x="625.7499999999999" y="49.500000000000014" font-size="small" text-anchor="middle" font-weight="bold" fill="#fff" style="text-shadow: 0 0 1px #000;">
YJIT 3.3.3
</text>
<rect x="777.25" y="35.400000000000006" width="120.0" height="19.2" fill="#DC267F" stroke="none"/>
<text x="837.2499999999999" y="49.500000000000014" font-size="small" text-anchor="middle" font-weight="bold" fill="#fff" style="text-shadow: 0 0 1px #000;">
YJIT 3.4.0dev
</text>
<rect x="61.60493827160494" y="432.1621319848458" width="11.604938271604937" height="65.83786801515407" fill="#785EF0" data-tooltip="0.88x baseline (CRuby 3.4.0dev)"/>
<line x1="61.60493827160494" y1="431.09067069014196" x2="73.20987654320987" y2="431.09067069014196" stroke-dasharray="1,0.5" stroke="#333c"/>
<line x1="61.60493827160494" y1="433.23359327954967" x2="73.20987654320987" y2="433.23359327954967" stroke-dasharray="1,0.5" stroke="#333c"/>
<line x1="67.4074074074074" y1="431.09067069014196" x2="67.4074074074074" y2="433.23359327954967" stroke-dasharray="1,0.5" stroke="#333c"/>
<rect x="73.20987654320987" y="341.3815021801196" width="11.604938271604937" height="156.6184978198803" fill="#FFB000" data-tooltip="2.08x baseline (YJIT 3.3.3)"/>
<line x1="73.20987654320987" y1="336.6539482351842" x2="84.81481481481481" y2="336.6539482351842" stroke-dasharray="1,0.5" stroke="#333c"/>
<line x1="73.20987654320987" y1="346.10905612505496" x2="84.81481481481481" y2="346.10905612505496" stroke-dasharray="1,0.5" stroke="#333c"/>
<line x1="79.01234567901234" y1="336.6539482351842" x2="79.01234567901234" y2="346.10905612505496" stroke-dasharray="1,0.5" stroke="#333c"/>
<rect x="84.81481481481481" y="365.577735693499" width="11.604938271604937" height="132.42226430650092" fill="#DC267F" data-tooltip="1.76x baseline (YJIT 3.4.0dev)"/>
<line x1="84.81481481481481" y1="363.7070798758861" x2="96.41975308641976" y2="363.7070798758861" stroke-dasharray="1,0.5" stroke="#333c"/>
<line x1="84.81481481481481" y1="367.4483915111119" x2="96.41975308641976" y2="367.4483915111119" stroke-dasharray="1,0.5" stroke="#333c"/>
<line x1="90.61728395061729" y1="363.7070798758861" x2="90.61728395061729" y2="367.4483915111119" stroke-dasharray="1,0.5" stroke="#333c"/>
<line x1="79.01234567901236" y1="498.0" x2="79.01234567901236" y2="502.79999999999995" stroke="#000"/>
<text x="79.01234567901236" y="512.4" fill="#111" font-size="small" text-anchor="end" transform="rotate(-60, 79.01234567901236, 512.4)">
binarytrees
</text>
<rect x="108.0246913580247" y="421.9170905412593" width="11.604938271604937" height="76.08290945874059" fill="#785EF0" data-tooltip="1.01x baseline (CRuby 3.4.0dev)"/>
<line x1="108.0246913580247" y1="420.4190385139743" x2="119.62962962962965" y2="420.4190385139743" stroke-dasharray="1,0.5" stroke="#333c"/>
<line x1="108.0246913580247" y1="423.41514256854435" x2="119.62962962962965" y2="423.41514256854435" stroke-dasharray="1,0.5" stroke="#333c"/>
<line x1="113.82716049382717" y1="420.4190385139743" x2="113.82716049382717" y2="423.41514256854435" stroke-dasharray="1,0.5" stroke="#333c"/>
<rect x="119.62962962962965" y="341.30770141208063" width="11.604938271604937" height="156.6922985879193" fill="#FFB000" data-tooltip="2.09x baseline (YJIT 3.3.3)"/>
<line x1="119.62962962962965" y1="339.691603242616" x2="131.23456790123458" y2="339.691603242616" stroke-dasharray="1,0.5" stroke="#333c"/>
<line x1="119.62962962962965" y1="342.92379958154527" x2="131.23456790123458" y2="342.92379958154527" stroke-dasharray="1,0.5" stroke="#333c"/>
<line x1="125.4320987654321" y1="339.691603242616" x2="125.4320987654321" y2="342.92379958154527" stroke-dasharray="1,0.5" stroke="#333c"/>
<rect x="131.23456790123458" y="310.44953060512745" width="11.604938271604937" height="187.55046939487247" fill="#DC267F" data-tooltip="2.50x baseline (YJIT 3.4.0dev)"/>
<line x1="131.23456790123458" y1="308.32627769005217" x2="142.83950617283952" y2="308.32627769005217" stroke-dasharray="1,0.5" stroke="#333c"/>
<line x1="131.23456790123458" y1="312.5727835202028" x2="142.83950617283952" y2="312.5727835202028" stroke-dasharray="1,0.5" stroke="#333c"/>
<line x1="137.03703703703704" y1="308.32627769005217" x2="137.03703703703704" y2="312.5727835202028" stroke-dasharray="1,0.5" stroke="#333c"/>
<line x1="125.43209876543213" y1="498.0" x2="125.43209876543213" y2="502.79999999999995" stroke="#000"/>
<text x="125.43209876543213" y="512.4" fill="#111" font-size="small" text-anchor="end" transform="rotate(-60, 125.43209876543213, 512.4)">
blurhash
</text>
<rect x="154.44444444444446" y="429.1624411062352" width="11.604938271604937" height="68.83755889376481" fill="#785EF0" data-tooltip="0.92x baseline (CRuby 3.4.0dev)"/>
<line x1="154.44444444444446" y1="428.963163013842" x2="166.04938271604942" y2="428.963163013842" stroke-dasharray="1,0.5" stroke="#333c"/>
<line x1="154.44444444444446" y1="429.36171919862835" x2="166.04938271604942" y2="429.36171919862835" stroke-dasharray="1,0.5" stroke="#333c"/>
<line x1="160.2469135802469" y1="428.963163013842" x2="160.2469135802469" y2="429.36171919862835" stroke-dasharray="1,0.5" stroke="#333c"/>
<rect x="166.04938271604942" y="413.16130069515685" width="11.604938271604937" height="84.83869930484319" fill="#FFB000" data-tooltip="1.13x baseline (YJIT 3.3.3)"/>
<line x1="166.04938271604942" y1="412.4423315986518" x2="177.65432098765436" y2="412.4423315986518" stroke-dasharray="1,0.5" stroke="#333c"/>
<line x1="166.04938271604942" y1="413.88026979166193" x2="177.65432098765436" y2="413.88026979166193" stroke-dasharray="1,0.5" stroke="#333c"/>
<line x1="171.85185185185188" y1="412.4423315986518" x2="171.85185185185188" y2="413.88026979166193" stroke-dasharray="1,0.5" stroke="#333c"/>
<rect x="177.65432098765436" y="410.84758870882763" width="11.604938271604937" height="87.15241129117233" fill="#DC267F" data-tooltip="1.16x baseline (YJIT 3.4.0dev)"/>
<line x1="177.65432098765436" y1="410.4585221244439" x2="189.2592592592593" y2="410.4585221244439" stroke-dasharray="1,0.5" stroke="#333c"/>
<line x1="177.65432098765436" y1="411.2366552932114" x2="189.2592592592593" y2="411.2366552932114" stroke-dasharray="1,0.5" stroke="#333c"/>
<line x1="183.4567901234568" y1="410.4585221244439" x2="183.4567901234568" y2="411.2366552932114" stroke-dasharray="1,0.5" stroke="#333c"/>
<line x1="171.8518518518519" y1="498.0" x2="171.8518518518519" y2="502.79999999999995" stroke="#000"/>
<text x="171.8518518518519" y="512.4" fill="#111" font-size="small" text-anchor="end" transform="rotate(-60, 171.8518518518519, 512.4)">
erubi
</text>
<rect x="200.86419753086423" y="431.40822096414297" width="11.604938271604937" height="66.59177903585706" fill="#785EF0" data-tooltip="0.89x baseline (CRuby 3.4.0dev)"/>
<line x1="200.86419753086423" y1="431.3104101646777" x2="212.46913580246917" y2="431.3104101646777" stroke-dasharray="1,0.5" stroke="#333c"/>
<line x1="200.86419753086423" y1="431.50603176360823" x2="212.46913580246917" y2="431.50603176360823" stroke-dasharray="1,0.5" stroke="#333c"/>
<line x1="206.66666666666669" y1="431.3104101646777" x2="206.66666666666669" y2="431.50603176360823" stroke-dasharray="1,0.5" stroke="#333c"/>
<rect x="212.46913580246917" y="415.28081651914255" width="11.604938271604937" height="82.7191834808574" fill="#FFB000" data-tooltip="1.10x baseline (YJIT 3.3.3)"/>
<line x1="212.46913580246917" y1="415.1729999346024" x2="224.07407407407413" y2="415.1729999346024" stroke-dasharray="1,0.5" stroke="#333c"/>
<line x1="212.46913580246917" y1="415.3886331036827" x2="224.07407407407413" y2="415.3886331036827" stroke-dasharray="1,0.5" stroke="#333c"/>
<line x1="218.27160493827162" y1="415.1729999346024" x2="218.27160493827162" y2="415.3886331036827" stroke-dasharray="1,0.5" stroke="#333c"/>
<rect x="224.07407407407413" y="422.30115088271924" width="11.604938271604937" height="75.69884911728066" fill="#DC267F" data-tooltip="1.01x baseline (YJIT 3.4.0dev)"/>
<line x1="224.07407407407413" y1="422.21624743291613" x2="235.67901234567907" y2="422.21624743291613" stroke-dasharray="1,0.5" stroke="#333c"/>
<line x1="224.07407407407413" y1="422.38605433252235" x2="235.67901234567907" y2="422.38605433252235" stroke-dasharray="1,0.5" stroke="#333c"/>
<line x1="229.8765432098766" y1="422.21624743291613" x2="229.8765432098766" y2="422.38605433252235" stroke-dasharray="1,0.5" stroke="#333c"/>
<line x1="218.27160493827165" y1="498.0" x2="218.27160493827165" y2="502.79999999999995" stroke="#000"/>
<text x="218.27160493827165" y="512.4" fill="#111" font-size="small" text-anchor="end" transform="rotate(-60, 218.27160493827165, 512.4)">
etanni
</text>
<rect x="247.283950617284" y="426.24626522884085" width="11.604938271604937" height="71.75373477115907" fill="#785EF0" data-tooltip="0.95x baseline (CRuby 3.4.0dev)"/>
<line x1="247.283950617284" y1="425.147116793413" x2="258.88888888888897" y2="425.147116793413" stroke-dasharray="1,0.5" stroke="#333c"/>
<line x1="247.283950617284" y1="427.3454136642688" x2="258.88888888888897" y2="427.3454136642688" stroke-dasharray="1,0.5" stroke="#333c"/>
<line x1="253.0864197530865" y1="425.147116793413" x2="253.0864197530865" y2="427.3454136642688" stroke-dasharray="1,0.5" stroke="#333c"/>
<rect x="258.88888888888897" y="220.0180747618142" width="11.604938271604937" height="277.98192523818574" fill="#FFB000" data-tooltip="3.70x baseline (YJIT 3.3.3)"/>
<line x1="258.88888888888897" y1="216.7375882863787" x2="270.4938271604939" y2="216.7375882863787" stroke-dasharray="1,0.5" stroke="#333c"/>
<line x1="258.88888888888897" y1="223.29856123724971" x2="270.4938271604939" y2="223.29856123724971" stroke-dasharray="1,0.5" stroke="#333c"/>
<line x1="264.6913580246914" y1="216.7375882863787" x2="264.6913580246914" y2="223.29856123724971" stroke-dasharray="1,0.5" stroke="#333c"/>
<rect x="270.4938271604939" y="204.37772671574862" width="11.604938271604937" height="293.6222732842513" fill="#DC267F" data-tooltip="3.91x baseline (YJIT 3.4.0dev)"/>
<line x1="270.4938271604939" y1="201.35150454440796" x2="282.0987654320988" y2="201.35150454440796" stroke-dasharray="1,0.5" stroke="#333c"/>
<line x1="270.4938271604939" y1="207.40394888708929" x2="282.0987654320988" y2="207.40394888708929" stroke-dasharray="1,0.5" stroke="#333c"/>
<line x1="276.2962962962963" y1="201.35150454440796" x2="276.2962962962963" y2="207.40394888708929" stroke-dasharray="1,0.5" stroke="#333c"/>
<line x1="264.69135802469134" y1="498.0" x2="264.69135802469134" y2="502.79999999999995" stroke="#000"/>
<text x="264.69135802469134" y="512.4" fill="#111" font-size="small" text-anchor="end" transform="rotate(-60, 264.69135802469134, 512.4)">
fannkuchredux
</text>
<rect x="293.7037037037037" y="431.0371134386048" width="11.604938271604937" height="66.96288656139502" fill="#785EF0" data-tooltip="0.89x baseline (CRuby 3.4.0dev)"/>
<line x1="293.7037037037037" y1="430.3714601256314" x2="305.3086419753086" y2="430.3714601256314" stroke-dasharray="1,0.5" stroke="#333c"/>
<line x1="293.7037037037037" y1="431.7027667515783" x2="305.3086419753086" y2="431.7027667515783" stroke-dasharray="1,0.5" stroke="#333c"/>
<line x1="299.5061728395061" y1="430.3714601256314" x2="299.5061728395061" y2="431.7027667515783" stroke-dasharray="1,0.5" stroke="#333c"/>
<rect x="305.3086419753086" y="412.9983743688894" width="11.604938271604937" height="85.00162563111056" fill="#FFB000" data-tooltip="1.13x baseline (YJIT 3.3.3)"/>
<line x1="305.3086419753086" y1="412.33506295406266" x2="316.9135802469135" y2="412.33506295406266" stroke-dasharray="1,0.5" stroke="#333c"/>
<line x1="305.3086419753086" y1="413.66168578371617" x2="316.9135802469135" y2="413.66168578371617" stroke-dasharray="1,0.5" stroke="#333c"/>
<line x1="311.1111111111111" y1="412.33506295406266" x2="311.1111111111111" y2="413.66168578371617" stroke-dasharray="1,0.5" stroke="#333c"/>
<rect x="316.9135802469135" y="424.73826488620585" width="11.604938271604937" height="73.26173511379407" fill="#DC267F" data-tooltip="0.98x baseline (YJIT 3.4.0dev)"/>
<line x1="316.9135802469135" y1="424.0940346562363" x2="328.5185185185184" y2="424.0940346562363" stroke-dasharray="1,0.5" stroke="#333c"/>
<line x1="316.9135802469135" y1="425.38249511617545" x2="328.5185185185184" y2="425.38249511617545" stroke-dasharray="1,0.5" stroke="#333c"/>
<line x1="322.716049382716" y1="424.0940346562363" x2="322.716049382716" y2="425.38249511617545" stroke-dasharray="1,0.5" stroke="#333c"/>
<line x1="311.11111111111103" y1="498.0" x2="311.11111111111103" y2="502.79999999999995" stroke="#000"/>
<text x="311.11111111111103" y="512.4" fill="#111" font-size="small" text-anchor="end" transform="rotate(-60, 311.11111111111103, 512.4)">
fluentd
</text>
<rect x="340.1234567901233" y="428.5524298759349" width="11.604938271604937" height="69.447570124065" fill="#785EF0" data-tooltip="0.92x baseline (CRuby 3.4.0dev)"/>
<line x1="340.1234567901233" y1="428.4442235273066" x2="351.72839506172824" y2="428.4442235273066" stroke-dasharray="1,0.5" stroke="#333c"/>
<line x1="340.1234567901233" y1="428.6606362245632" x2="351.72839506172824" y2="428.6606362245632" stroke-dasharray="1,0.5" stroke="#333c"/>
<line x1="345.9259259259258" y1="428.4442235273066" x2="345.9259259259258" y2="428.6606362245632" stroke-dasharray="1,0.5" stroke="#333c"/>
<rect x="351.72839506172824" y="403.9575132902563" width="11.604938271604937" height="94.04248670974366" fill="#FFB000" data-tooltip="1.25x baseline (YJIT 3.3.3)"/>
<line x1="351.72839506172824" y1="403.82763029903515" x2="363.3333333333332" y2="403.82763029903515" stroke-dasharray="1,0.5" stroke="#333c"/>
<line x1="351.72839506172824" y1="404.0873962814774" x2="363.3333333333332" y2="404.0873962814774" stroke-dasharray="1,0.5" stroke="#333c"/>
<line x1="357.5308641975307" y1="403.82763029903515" x2="357.5308641975307" y2="404.0873962814774" stroke-dasharray="1,0.5" stroke="#333c"/>
<rect x="363.3333333333332" y="407.7462578035143" width="11.604938271604937" height="90.25374219648566" fill="#DC267F" data-tooltip="1.20x baseline (YJIT 3.4.0dev)"/>
<line x1="363.3333333333332" y1="407.64317093611913" x2="374.9382716049381" y2="407.64317093611913" stroke-dasharray="1,0.5" stroke="#333c"/>
<line x1="363.3333333333332" y1="407.84934467090943" x2="374.9382716049381" y2="407.84934467090943" stroke-dasharray="1,0.5" stroke="#333c"/>
<line x1="369.1358024691356" y1="407.64317093611913" x2="369.1358024691356" y2="407.84934467090943" stroke-dasharray="1,0.5" stroke="#333c"/>
<line x1="357.53086419753066" y1="498.0" x2="357.53086419753066" y2="502.79999999999995" stroke="#000"/>
<text x="357.53086419753066" y="512.4" fill="#111" font-size="small" text-anchor="end" transform="rotate(-60, 357.53086419753066, 512.4)">
graphql
</text>
<rect x="386.543209876543" y="430.47730633417524" width="11.604938271604937" height="67.52269366582472" fill="#785EF0" data-tooltip="0.90x baseline (CRuby 3.4.0dev)"/>
<line x1="386.543209876543" y1="430.3448227313916" x2="398.1481481481479" y2="430.3448227313916" stroke-dasharray="1,0.5" stroke="#333c"/>
<line x1="386.543209876543" y1="430.60978993695886" x2="398.1481481481479" y2="430.60978993695886" stroke-dasharray="1,0.5" stroke="#333c"/>
<line x1="392.34567901234544" y1="430.3448227313916" x2="392.34567901234544" y2="430.60978993695886" stroke-dasharray="1,0.5" stroke="#333c"/>
<rect x="398.1481481481479" y="414.44440397815595" width="11.604938271604937" height="83.55559602184394" fill="#FFB000" data-tooltip="1.11x baseline (YJIT 3.3.3)"/>
<line x1="398.1481481481479" y1="414.3228224300547" x2="409.75308641975283" y2="414.3228224300547" stroke-dasharray="1,0.5" stroke="#333c"/>
<line x1="398.1481481481479" y1="414.5659855262571" x2="409.75308641975283" y2="414.5659855262571" stroke-dasharray="1,0.5" stroke="#333c"/>
<line x1="403.95061728395035" y1="414.3228224300547" x2="403.95061728395035" y2="414.5659855262571" stroke-dasharray="1,0.5" stroke="#333c"/>
<rect x="409.75308641975283" y="427.4955783949816" width="11.604938271604937" height="70.50442160501838" fill="#DC267F" data-tooltip="0.94x baseline (YJIT 3.4.0dev)"/>
<line x1="409.75308641975283" y1="427.04094938298437" x2="421.35802469135774" y2="427.04094938298437" stroke-dasharray="1,0.5" stroke="#333c"/>
<line x1="409.75308641975283" y1="427.95020740697873" x2="421.35802469135774" y2="427.95020740697873" stroke-dasharray="1,0.5" stroke="#333c"/>
<line x1="415.5555555555553" y1="427.04094938298437" x2="415.5555555555553" y2="427.95020740697873" stroke-dasharray="1,0.5" stroke="#333c"/>
<line x1="403.9506172839503" y1="498.0" x2="403.9506172839503" y2="502.79999999999995" stroke="#000"/>
<text x="403.9506172839503" y="512.4" fill="#111" font-size="small" text-anchor="end" transform="rotate(-60, 403.9506172839503, 512.4)">
graphql-native
</text>
<rect x="432.96296296296265" y="427.39183872256785" width="11.604938271604937" height="70.60816127743207" fill="#785EF0" data-tooltip="0.94x baseline (CRuby 3.4.0dev)"/>
<line x1="432.96296296296265" y1="426.47201124684454" x2="444.56790123456756" y2="426.47201124684454" stroke-dasharray="1,0.5" stroke="#333c"/>
<line x1="432.96296296296265" y1="428.3116661982911" x2="444.56790123456756" y2="428.3116661982911" stroke-dasharray="1,0.5" stroke="#333c"/>
<line x1="438.76543209876513" y1="426.47201124684454" x2="438.76543209876513" y2="428.3116661982911" stroke-dasharray="1,0.5" stroke="#333c"/>
<rect x="444.56790123456756" y="390.18066550624593" width="11.604938271604937" height="107.81933449375403" fill="#FFB000" data-tooltip="1.43x baseline (YJIT 3.3.3)"/>
<line x1="444.56790123456756" y1="388.43703136096786" x2="456.17283950617247" y2="388.43703136096786" stroke-dasharray="1,0.5" stroke="#333c"/>
<line x1="444.56790123456756" y1="391.92429965152394" x2="456.17283950617247" y2="391.92429965152394" stroke-dasharray="1,0.5" stroke="#333c"/>
<line x1="450.37037037037004" y1="388.43703136096786" x2="450.37037037037004" y2="391.92429965152394" stroke-dasharray="1,0.5" stroke="#333c"/>
<rect x="456.17283950617247" y="389.8750713305676" width="11.604938271604937" height="108.12492866943238" fill="#DC267F" data-tooltip="1.44x baseline (YJIT 3.4.0dev)"/>
<line x1="456.17283950617247" y1="388.22130234095914" x2="467.77777777777743" y2="388.22130234095914" stroke-dasharray="1,0.5" stroke="#333c"/>
<line x1="456.17283950617247" y1="391.528840320176" x2="467.77777777777743" y2="391.528840320176" stroke-dasharray="1,0.5" stroke="#333c"/>
<line x1="461.97530864197495" y1="388.22130234095914" x2="461.97530864197495" y2="391.528840320176" stroke-dasharray="1,0.5" stroke="#333c"/>
<line x1="450.37037037037" y1="498.0" x2="450.37037037037" y2="502.79999999999995" stroke="#000"/>
<text x="450.37037037037" y="512.4" fill="#111" font-size="small" text-anchor="end" transform="rotate(-60, 450.37037037037, 512.4)">
lee
</text>
<rect x="479.38271604938234" y="423.06097210521955" width="11.604938271604937" height="74.93902789478034" fill="#785EF0" data-tooltip="1.00x baseline (CRuby 3.4.0dev)"/>
<line x1="479.38271604938234" y1="420.18776041797094" x2="490.98765432098725" y2="420.18776041797094" stroke-dasharray="1,0.5" stroke="#333c"/>
<line x1="479.38271604938234" y1="425.9341837924682" x2="490.98765432098725" y2="425.9341837924682" stroke-dasharray="1,0.5" stroke="#333c"/>
<line x1="485.18518518518476" y1="420.18776041797094" x2="485.18518518518476" y2="425.9341837924682" stroke-dasharray="1,0.5" stroke="#333c"/>
<rect x="490.98765432098725" y="376.65375682879585" width="11.604938271604937" height="121.34624317120404" fill="#FFB000" data-tooltip="1.61x baseline (YJIT 3.3.3)"/>
<line x1="490.98765432098725" y1="374.1069071922837" x2="502.59259259259215" y2="374.1069071922837" stroke-dasharray="1,0.5" stroke="#333c"/>
<line x1="490.98765432098725" y1="379.20060646530806" x2="502.59259259259215" y2="379.20060646530806" stroke-dasharray="1,0.5" stroke="#333c"/>
<line x1="496.7901234567897" y1="374.1069071922837" x2="496.7901234567897" y2="379.20060646530806" stroke-dasharray="1,0.5" stroke="#333c"/>
<rect x="502.59259259259215" y="366.01114513305373" width="11.604938271604937" height="131.98885486694624" fill="#DC267F" data-tooltip="1.76x baseline (YJIT 3.4.0dev)"/>
<line x1="502.59259259259215" y1="363.2407654722811" x2="514.197530864197" y2="363.2407654722811" stroke-dasharray="1,0.5" stroke="#333c"/>
<line x1="502.59259259259215" y1="368.7815247938263" x2="514.197530864197" y2="368.7815247938263" stroke-dasharray="1,0.5" stroke="#333c"/>
<line x1="508.39506172839464" y1="363.2407654722811" x2="508.39506172839464" y2="368.7815247938263" stroke-dasharray="1,0.5" stroke="#333c"/>
<line x1="496.7901234567896" y1="498.0" x2="496.7901234567896" y2="502.79999999999995" stroke="#000"/>
<text x="496.7901234567896" y="512.4" fill="#111" font-size="small" text-anchor="end" transform="rotate(-60, 496.7901234567896, 512.4)">
matmul
</text>
<rect x="525.802469135802" y="423.70946631695614" width="11.604938271604937" height="74.29053368304379" fill="#785EF0" data-tooltip="0.99x baseline (CRuby 3.4.0dev)"/>
<line x1="525.802469135802" y1="422.2247862155844" x2="537.4074074074069" y2="422.2247862155844" stroke-dasharray="1,0.5" stroke="#333c"/>
<line x1="525.802469135802" y1="425.1941464183279" x2="537.4074074074069" y2="425.1941464183279" stroke-dasharray="1,0.5" stroke="#333c"/>
<line x1="531.6049382716045" y1="422.2247862155844" x2="531.6049382716045" y2="425.1941464183279" stroke-dasharray="1,0.5" stroke="#333c"/>
<rect x="537.4074074074069" y="353.78336304499936" width="11.604938271604937" height="144.21663695500052" fill="#FFB000" data-tooltip="1.92x baseline (YJIT 3.3.3)"/>
<line x1="537.4074074074069" y1="352.1418158661103" x2="549.0123456790118" y2="352.1418158661103" stroke-dasharray="1,0.5" stroke="#333c"/>
<line x1="537.4074074074069" y1="355.42491022388845" x2="549.0123456790118" y2="355.42491022388845" stroke-dasharray="1,0.5" stroke="#333c"/>
<line x1="543.2098765432094" y1="352.1418158661103" x2="543.2098765432094" y2="355.42491022388845" stroke-dasharray="1,0.5" stroke="#333c"/>
<rect x="549.0123456790118" y="318.67931685862993" width="11.604938271604937" height="179.32068314136998" fill="#DC267F" data-tooltip="2.39x baseline (YJIT 3.4.0dev)"/>
<line x1="549.0123456790118" y1="316.4963570847675" x2="560.6172839506168" y2="316.4963570847675" stroke-dasharray="1,0.5" stroke="#333c"/>
<line x1="549.0123456790118" y1="320.86227663249235" x2="560.6172839506168" y2="320.86227663249235" stroke-dasharray="1,0.5" stroke="#333c"/>
<line x1="554.8148148148143" y1="316.4963570847675" x2="554.8148148148143" y2="320.86227663249235" stroke-dasharray="1,0.5" stroke="#333c"/>
<line x1="543.2098765432092" y1="498.0" x2="543.2098765432092" y2="502.79999999999995" stroke="#000"/>
<text x="543.2098765432092" y="512.4" fill="#111" font-size="small" text-anchor="end" transform="rotate(-60, 543.2098765432092, 512.4)">
nbody
</text>
<rect x="572.2222222222216" y="426.4769217686328" width="11.604938271604937" height="71.52307823136715" fill="#785EF0" data-tooltip="0.95x baseline (CRuby 3.4.0dev)"/>
<line x1="572.2222222222216" y1="424.59041336315073" x2="583.8271604938266" y2="424.59041336315073" stroke-dasharray="1,0.5" stroke="#333c"/>
<line x1="572.2222222222216" y1="428.36343017411485" x2="583.8271604938266" y2="428.36343017411485" stroke-dasharray="1,0.5" stroke="#333c"/>
<line x1="578.0246913580241" y1="424.59041336315073" x2="578.0246913580241" y2="428.36343017411485" stroke-dasharray="1,0.5" stroke="#333c"/>
<rect x="583.8271604938266" y="424.72142974862186" width="11.604938271604937" height="73.2785702513781" fill="#FFB000" data-tooltip="0.98x baseline (YJIT 3.3.3)"/>
<line x1="583.8271604938266" y1="422.17268843850417" x2="595.4320987654314" y2="422.17268843850417" stroke-dasharray="1,0.5" stroke="#333c"/>
<line x1="583.8271604938266" y1="427.2701710587396" x2="595.4320987654314" y2="427.2701710587396" stroke-dasharray="1,0.5" stroke="#333c"/>
<line x1="589.6296296296291" y1="422.17268843850417" x2="589.6296296296291" y2="427.2701710587396" stroke-dasharray="1,0.5" stroke="#333c"/>
<rect x="595.4320987654314" y="100.19999999999999" width="11.604938271604937" height="397.79999999999995" fill="#DC267F" data-tooltip="5.29x baseline (YJIT 3.4.0dev)"/>
<line x1="595.4320987654314" y1="92.97212010678929" x2="607.0370370370364" y2="92.97212010678929" stroke-dasharray="1,0.5" stroke="#333c"/>
<line x1="595.4320987654314" y1="107.42787989321069" x2="607.0370370370364" y2="107.42787989321069" stroke-dasharray="1,0.5" stroke="#333c"/>
<line x1="601.234567901234" y1="92.97212010678929" x2="601.234567901234" y2="107.42787989321069" stroke-dasharray="1,0.5" stroke="#333c"/>
<line x1="589.629629629629" y1="498.0" x2="589.629629629629" y2="502.79999999999995" stroke="#000"/>
<text x="589.629629629629" y="512.4" fill="#111" font-size="small" text-anchor="end" transform="rotate(-60, 589.629629629629, 512.4)">
nqueens
</text>
<rect x="618.6419753086412" y="424.54899938256904" width="11.604938271604937" height="73.45100061743096" fill="#785EF0" data-tooltip="0.98x baseline (CRuby 3.4.0dev)"/>
<line x1="618.6419753086412" y1="424.1616181680533" x2="630.2469135802462" y2="424.1616181680533" stroke-dasharray="1,0.5" stroke="#333c"/>
<line x1="618.6419753086412" y1="424.9363805970848" x2="630.2469135802462" y2="424.9363805970848" stroke-dasharray="1,0.5" stroke="#333c"/>
<line x1="624.4444444444438" y1="424.1616181680533" x2="624.4444444444438" y2="424.9363805970848" stroke-dasharray="1,0.5" stroke="#333c"/>
<rect x="630.2469135802462" y="319.3871073055057" width="11.604938271604937" height="178.6128926944943" fill="#FFB000" data-tooltip="2.38x baseline (YJIT 3.3.3)"/>
<line x1="630.2469135802462" y1="318.2119704392968" x2="641.8518518518512" y2="318.2119704392968" stroke-dasharray="1,0.5" stroke="#333c"/>
<line x1="630.2469135802462" y1="320.56224417171467" x2="641.8518518518512" y2="320.56224417171467" stroke-dasharray="1,0.5" stroke="#333c"/>
<line x1="636.0493827160487" y1="318.2119704392968" x2="636.0493827160487" y2="320.56224417171467" stroke-dasharray="1,0.5" stroke="#333c"/>
<rect x="641.8518518518512" y="324.8192301702906" width="11.604938271604937" height="173.18076982970933" fill="#DC267F" data-tooltip="2.30x baseline (YJIT 3.4.0dev)"/>
<line x1="641.8518518518512" y1="323.8717652227928" x2="653.456790123456" y2="323.8717652227928" stroke-dasharray="1,0.5" stroke="#333c"/>
<line x1="641.8518518518512" y1="325.7666951177884" x2="653.456790123456" y2="325.7666951177884" stroke-dasharray="1,0.5" stroke="#333c"/>
<line x1="647.6543209876536" y1="323.8717652227928" x2="647.6543209876536" y2="325.7666951177884" stroke-dasharray="1,0.5" stroke="#333c"/>
<line x1="636.0493827160486" y1="498.0" x2="636.0493827160486" y2="502.79999999999995" stroke="#000"/>
<text x="636.0493827160486" y="512.4" fill="#111" font-size="small" text-anchor="end" transform="rotate(-60, 636.0493827160486, 512.4)">
optcarrot
</text>
<rect x="665.061728395061" y="423.5875315359431" width="11.604938271604937" height="74.41246846405681" fill="#785EF0" data-tooltip="0.99x baseline (CRuby 3.4.0dev)"/>
<line x1="665.061728395061" y1="422.95892790702203" x2="676.6666666666658" y2="422.95892790702203" stroke-dasharray="1,0.5" stroke="#333c"/>
<line x1="665.061728395061" y1="424.2161351648642" x2="676.6666666666658" y2="424.2161351648642" stroke-dasharray="1,0.5" stroke="#333c"/>
<line x1="670.8641975308634" y1="422.95892790702203" x2="670.8641975308634" y2="424.2161351648642" stroke-dasharray="1,0.5" stroke="#333c"/>
<rect x="676.6666666666658" y="337.74946862077354" width="11.604938271604937" height="160.25053137922643" fill="#FFB000" data-tooltip="2.13x baseline (YJIT 3.3.3)"/>
<line x1="676.6666666666658" y1="336.80948630972534" x2="688.2716049382708" y2="336.80948630972534" stroke-dasharray="1,0.5" stroke="#333c"/>
<line x1="676.6666666666658" y1="338.68945093182174" x2="688.2716049382708" y2="338.68945093182174" stroke-dasharray="1,0.5" stroke="#333c"/>
<line x1="682.4691358024684" y1="336.80948630972534" x2="682.4691358024684" y2="338.68945093182174" stroke-dasharray="1,0.5" stroke="#333c"/>
<rect x="688.2716049382708" y="282.1674546528596" width="11.604938271604937" height="215.83254534714038" fill="#DC267F" data-tooltip="2.87x baseline (YJIT 3.4.0dev)"/>
<line x1="688.2716049382708" y1="280.92158496755223" x2="699.8765432098756" y2="280.92158496755223" stroke-dasharray="1,0.5" stroke="#333c"/>
<line x1="688.2716049382708" y1="283.41332433816694" x2="699.8765432098756" y2="283.41332433816694" stroke-dasharray="1,0.5" stroke="#333c"/>
<line x1="694.0740740740733" y1="280.92158496755223" x2="694.0740740740733" y2="283.41332433816694" stroke-dasharray="1,0.5" stroke="#333c"/>
<line x1="682.4691358024683" y1="498.0" x2="682.4691358024683" y2="502.79999999999995" stroke="#000"/>
<text x="682.4691358024683" y="512.4" fill="#111" font-size="small" text-anchor="end" transform="rotate(-60, 682.4691358024683, 512.4)">
protoboeuf
</text>
<rect x="711.4814814814806" y="429.55970602963714" width="11.604938271604937" height="68.44029397036284" fill="#785EF0" data-tooltip="0.91x baseline (CRuby 3.4.0dev)"/>
<line x1="711.4814814814806" y1="429.14819198008956" x2="723.0864197530855" y2="429.14819198008956" stroke-dasharray="1,0.5" stroke="#333c"/>
<line x1="711.4814814814806" y1="429.9712200791847" x2="723.0864197530855" y2="429.9712200791847" stroke-dasharray="1,0.5" stroke="#333c"/>
<line x1="717.2839506172832" y1="429.14819198008956" x2="717.2839506172832" y2="429.9712200791847" stroke-dasharray="1,0.5" stroke="#333c"/>
<rect x="723.0864197530855" y="389.1045213714667" width="11.604938271604937" height="108.89547862853318" fill="#FFB000" data-tooltip="1.45x baseline (YJIT 3.3.3)"/>
<line x1="723.0864197530855" y1="388.31802191897737" x2="734.6913580246904" y2="388.31802191897737" stroke-dasharray="1,0.5" stroke="#333c"/>
<line x1="723.0864197530855" y1="389.8910208239561" x2="734.6913580246904" y2="389.8910208239561" stroke-dasharray="1,0.5" stroke="#333c"/>
<line x1="728.888888888888" y1="388.31802191897737" x2="728.888888888888" y2="389.8910208239561" stroke-dasharray="1,0.5" stroke="#333c"/>
<rect x="734.6913580246904" y="395.0796190898024" width="11.604938271604937" height="102.92038091019755" fill="#DC267F" data-tooltip="1.37x baseline (YJIT 3.4.0dev)"/>
<line x1="734.6913580246904" y1="393.99631276050866" x2="746.2962962962954" y2="393.99631276050866" stroke-dasharray="1,0.5" stroke="#333c"/>
<line x1="734.6913580246904" y1="396.16292541909615" x2="746.2962962962954" y2="396.16292541909615" stroke-dasharray="1,0.5" stroke="#333c"/>
<line x1="740.493827160493" y1="393.99631276050866" x2="740.493827160493" y2="396.16292541909615" stroke-dasharray="1,0.5" stroke="#333c"/>
<line x1="728.8888888888879" y1="498.0" x2="728.8888888888879" y2="502.79999999999995" stroke="#000"/>
<text x="728.8888888888879" y="512.4" fill="#111" font-size="small" text-anchor="end" transform="rotate(-60, 728.8888888888879, 512.4)">
rack
</text>
<rect x="757.9012345679002" y="427.6436280241833" width="11.604938271604937" height="70.35637197581669" fill="#785EF0" data-tooltip="0.94x baseline (CRuby 3.4.0dev)"/>
<line x1="757.9012345679002" y1="427.5437607853069" x2="769.5061728395052" y2="427.5437607853069" stroke-dasharray="1,0.5" stroke="#333c"/>
<line x1="757.9012345679002" y1="427.74349526305963" x2="769.5061728395052" y2="427.74349526305963" stroke-dasharray="1,0.5" stroke="#333c"/>
<line x1="763.7037037037028" y1="427.5437607853069" x2="763.7037037037028" y2="427.74349526305963" stroke-dasharray="1,0.5" stroke="#333c"/>
<rect x="769.5061728395052" y="406.81874419148505" width="11.604938271604937" height="91.1812558085149" fill="#FFB000" data-tooltip="1.21x baseline (YJIT 3.3.3)"/>
<line x1="769.5061728395052" y1="406.6637739847698" x2="781.1111111111101" y2="406.6637739847698" stroke-dasharray="1,0.5" stroke="#333c"/>
<line x1="769.5061728395052" y1="406.9737143982003" x2="781.1111111111101" y2="406.9737143982003" stroke-dasharray="1,0.5" stroke="#333c"/>
<line x1="775.3086419753076" y1="406.6637739847698" x2="775.3086419753076" y2="406.9737143982003" stroke-dasharray="1,0.5" stroke="#333c"/>
<rect x="781.1111111111101" y="408.7733102188912" width="11.604938271604937" height="89.2266897811088" fill="#DC267F" data-tooltip="1.19x baseline (YJIT 3.4.0dev)"/>
<line x1="781.1111111111101" y1="408.6538169553996" x2="792.716049382715" y2="408.6538169553996" stroke-dasharray="1,0.5" stroke="#333c"/>
<line x1="781.1111111111101" y1="408.8928034823828" x2="792.716049382715" y2="408.8928034823828" stroke-dasharray="1,0.5" stroke="#333c"/>
<line x1="786.9135802469126" y1="408.6538169553996" x2="786.9135802469126" y2="408.8928034823828" stroke-dasharray="1,0.5" stroke="#333c"/>
<line x1="775.3086419753075" y1="498.0" x2="775.3086419753075" y2="502.79999999999995" stroke="#000"/>
<text x="775.3086419753075" y="512.4" fill="#111" font-size="small" text-anchor="end" transform="rotate(-60, 775.3086419753075, 512.4)">
ruby-json
</text>
<rect x="804.3209876543199" y="432.96798421189203" width="11.604938271604937" height="65.03201578810786" fill="#785EF0" data-tooltip="0.87x baseline (CRuby 3.4.0dev)"/>
<line x1="804.3209876543199" y1="432.70680378246647" x2="815.9259259259248" y2="432.70680378246647" stroke-dasharray="1,0.5" stroke="#333c"/>
<line x1="804.3209876543199" y1="433.2291646413176" x2="815.9259259259248" y2="433.2291646413176" stroke-dasharray="1,0.5" stroke="#333c"/>
<line x1="810.1234567901224" y1="432.70680378246647" x2="810.1234567901224" y2="433.2291646413176" stroke-dasharray="1,0.5" stroke="#333c"/>
<rect x="815.9259259259248" y="364.85719869358013" width="11.604938271604937" height="133.14280130641973" fill="#FFB000" data-tooltip="1.77x baseline (YJIT 3.3.3)"/>
<line x1="815.9259259259248" y1="364.0941915852276" x2="827.5308641975297" y2="364.0941915852276" stroke-dasharray="1,0.5" stroke="#333c"/>
<line x1="815.9259259259248" y1="365.62020580193274" x2="827.5308641975297" y2="365.62020580193274" stroke-dasharray="1,0.5" stroke="#333c"/>
<line x1="821.7283950617274" y1="364.0941915852276" x2="821.7283950617274" y2="365.62020580193274" stroke-dasharray="1,0.5" stroke="#333c"/>
<rect x="827.5308641975297" y="376.2033059053521" width="11.604938271604937" height="121.7966940946478" fill="#DC267F" data-tooltip="1.62x baseline (YJIT 3.4.0dev)"/>
<line x1="827.5308641975297" y1="375.36280890383995" x2="839.1358024691347" y2="375.36280890383995" stroke-dasharray="1,0.5" stroke="#333c"/>
<line x1="827.5308641975297" y1="377.0438029068643" x2="839.1358024691347" y2="377.0438029068643" stroke-dasharray="1,0.5" stroke="#333c"/>
<line x1="833.3333333333322" y1="375.36280890383995" x2="833.3333333333322" y2="377.0438029068643" stroke-dasharray="1,0.5" stroke="#333c"/>
<line x1="821.7283950617273" y1="498.0" x2="821.7283950617273" y2="502.79999999999995" stroke="#000"/>
<text x="821.7283950617273" y="512.4" fill="#111" font-size="small" text-anchor="end" transform="rotate(-60, 821.7283950617273, 512.4)">
rubykon
</text>
<rect x="850.7407407407396" y="420.08115525190397" width="11.604938271604937" height="77.91884474809595" fill="#785EF0" data-tooltip="1.04x baseline (CRuby 3.4.0dev)"/>
<line x1="850.7407407407396" y1="419.6300778860039" x2="862.3456790123445" y2="419.6300778860039" stroke-dasharray="1,0.5" stroke="#333c"/>
<line x1="850.7407407407396" y1="420.532232617804" x2="862.3456790123445" y2="420.532232617804" stroke-dasharray="1,0.5" stroke="#333c"/>
<line x1="856.543209876542" y1="419.6300778860039" x2="856.543209876542" y2="420.532232617804" stroke-dasharray="1,0.5" stroke="#333c"/>
<rect x="862.3456790123445" y="257.0252983217437" width="11.604938271604937" height="240.9747016782562" fill="#FFB000" data-tooltip="3.21x baseline (YJIT 3.3.3)"/>
<line x1="862.3456790123445" y1="255.67665503322678" x2="873.9506172839494" y2="255.67665503322678" stroke-dasharray="1,0.5" stroke="#333c"/>
<line x1="862.3456790123445" y1="258.3739416102607" x2="873.9506172839494" y2="258.3739416102607" stroke-dasharray="1,0.5" stroke="#333c"/>
<line x1="868.148148148147" y1="255.67665503322678" x2="868.148148148147" y2="258.3739416102607" stroke-dasharray="1,0.5" stroke="#333c"/>
<rect x="873.9506172839494" y="246.26931636659916" width="11.604938271604937" height="251.73068363340073" fill="#DC267F" data-tooltip="3.35x baseline (YJIT 3.4.0dev)"/>
<line x1="873.9506172839494" y1="244.8074264324189" x2="885.5555555555543" y2="244.8074264324189" stroke-dasharray="1,0.5" stroke="#333c"/>
<line x1="873.9506172839494" y1="247.73120630077943" x2="885.5555555555543" y2="247.73120630077943" stroke-dasharray="1,0.5" stroke="#333c"/>
<line x1="879.7530864197519" y1="244.8074264324189" x2="879.7530864197519" y2="247.73120630077943" stroke-dasharray="1,0.5" stroke="#333c"/>
<line x1="868.1481481481469" y1="498.0" x2="868.1481481481469" y2="502.79999999999995" stroke="#000"/>
<text x="868.1481481481469" y="512.4" fill="#111" font-size="small" text-anchor="end" transform="rotate(-60, 868.1481481481469, 512.4)">
sudoku
</text>
<rect x="897.1604938271593" y="427.28930463958477" width="11.604938271604937" height="70.7106953604151" fill="#785EF0" data-tooltip="0.94x baseline (CRuby 3.4.0dev)"/>
<line x1="897.1604938271593" y1="427.08226653484166" x2="908.7654320987641" y2="427.08226653484166" stroke-dasharray="1,0.5" stroke="#333c"/>
<line x1="897.1604938271593" y1="427.49634274432793" x2="908.7654320987641" y2="427.49634274432793" stroke-dasharray="1,0.5" stroke="#333c"/>
<line x1="902.9629629629618" y1="427.08226653484166" x2="902.9629629629618" y2="427.49634274432793" stroke-dasharray="1,0.5" stroke="#333c"/>
<rect x="908.7654320987641" y="351.197165934761" width="11.604938271604937" height="146.80283406523895" fill="#FFB000" data-tooltip="1.95x baseline (YJIT 3.3.3)"/>
<line x1="908.7654320987641" y1="350.9735902165355" x2="920.3703703703691" y2="350.9735902165355" stroke-dasharray="1,0.5" stroke="#333c"/>
<line x1="908.7654320987641" y1="351.42074165298646" x2="920.3703703703691" y2="351.42074165298646" stroke-dasharray="1,0.5" stroke="#333c"/>
<line x1="914.5679012345666" y1="350.9735902165355" x2="914.5679012345666" y2="351.42074165298646" stroke-dasharray="1,0.5" stroke="#333c"/>
<rect x="920.3703703703691" y="363.75919743195203" width="11.604938271604937" height="134.24080256804794" fill="#DC267F" data-tooltip="1.79x baseline (YJIT 3.4.0dev)"/>
<line x1="920.3703703703691" y1="363.50204241025426" x2="931.9753086419739" y2="363.50204241025426" stroke-dasharray="1,0.5" stroke="#333c"/>
<line x1="920.3703703703691" y1="364.0163524536498" x2="931.9753086419739" y2="364.0163524536498" stroke-dasharray="1,0.5" stroke="#333c"/>
<line x1="926.1728395061716" y1="363.50204241025426" x2="926.1728395061716" y2="364.0163524536498" stroke-dasharray="1,0.5" stroke="#333c"/>
<line x1="914.5679012345665" y1="498.0" x2="914.5679012345665" y2="502.79999999999995" stroke="#000"/>
<text x="914.5679012345665" y="512.4" fill="#111" font-size="small" text-anchor="end" transform="rotate(-60, 914.5679012345665, 512.4)">
tinygql
</text>
<rect x="943.5802469135789" y="427.31472031918634" width="11.604938271604937" height="70.68527968081358" fill="#785EF0" data-tooltip="0.94x baseline (CRuby 3.4.0dev)"/>
<rect x="955.1851851851839" y="374.0422351492048" width="11.604938271604937" height="123.95776485079513" fill="#FFB000" data-tooltip="1.65x baseline (YJIT 3.3.3)"/>
<rect x="966.7901234567887" y="362.47082929780856" width="11.604938271604937" height="135.52917070219138" fill="#DC267F" data-tooltip="1.80x baseline (YJIT 3.4.0dev)"/>
<line x1="960.9876543209862" y1="498.0" x2="960.9876543209862" y2="502.79999999999995" stroke="#000"/>
<text x="960.9876543209862" y="512.4" fill="#111" font-size="small" text-anchor="end" transform="rotate(-60, 960.9876543209862, 512.4)" font-style="italic">
geomean*
</text>
<line x1="50.0" y1="422.8609806010243" x2="990.0" y2="422.8609806010243" stroke="#648FFF" stroke-width="2"/>
<rect x="63.42993827160494" y="418.00213198484585" width="17.85" height="7.2" transform="rotate(-60, 69.4074074074074, 424.66213198484587)" fill="#fffa"/>
<text x="63.60493827160493" y="424.66213198484587" fill="#111" font-size="0.5em" text-anchor="start" textLength="17.5" transform="rotate(-60, 69.4074074074074, 424.66213198484587)" style="text-shadow: 0 0 1px #fff;">
0.88
</text>
<rect x="75.03487654320988" y="327.2215021801196" width="17.85" height="7.2" transform="rotate(-60, 81.01234567901234, 333.88150218011964)" fill="#fffa"/>
<text x="75.20987654320987" y="333.88150218011964" fill="#111" font-size="0.5em" text-anchor="start" textLength="17.5" transform="rotate(-60, 81.01234567901234, 333.88150218011964)" style="text-shadow: 0 0 1px #fff;">
2.08
</text>
<rect x="86.63981481481483" y="351.417735693499" width="17.85" height="7.2" transform="rotate(-60, 92.61728395061729, 358.07773569349905)" fill="#fffa"/>
<text x="86.81481481481482" y="358.07773569349905" fill="#111" font-size="0.5em" text-anchor="start" textLength="17.5" transform="rotate(-60, 92.61728395061729, 358.07773569349905)" style="text-shadow: 0 0 1px #fff;">
1.76
</text>
<rect x="109.8496913580247" y="407.75709054125934" width="17.85" height="7.2" transform="rotate(-60, 115.82716049382717, 414.4170905412593)" fill="#fffa"/>
<text x="110.0246913580247" y="414.4170905412593" fill="#111" font-size="0.5em" text-anchor="start" textLength="17.5" transform="rotate(-60, 115.82716049382717, 414.4170905412593)" style="text-shadow: 0 0 1px #fff;">
1.01
</text>
<rect x="121.45462962962965" y="327.14770141208066" width="17.85" height="7.2" transform="rotate(-60, 127.4320987654321, 333.8077014120807)" fill="#fffa"/>
<text x="121.62962962962965" y="333.8077014120807" fill="#111" font-size="0.5em" text-anchor="start" textLength="17.5" transform="rotate(-60, 127.4320987654321, 333.8077014120807)" style="text-shadow: 0 0 1px #fff;">
2.09
</text>
<rect x="133.05956790123457" y="296.2895306051275" width="17.85" height="7.2" transform="rotate(-60, 139.03703703703704, 302.9495306051275)" fill="#fffa"/>
<text x="133.23456790123458" y="302.9495306051275" fill="#111" font-size="0.5em" text-anchor="start" textLength="17.5" transform="rotate(-60, 139.03703703703704, 302.9495306051275)" style="text-shadow: 0 0 1px #fff;">
2.50
</text>
<rect x="156.26944444444447" y="415.0024411062352" width="17.85" height="7.2" transform="rotate(-60, 162.24691358024694, 421.66244110623524)" fill="#fffa"/>
<text x="156.44444444444446" y="421.66244110623524" fill="#111" font-size="0.5em" text-anchor="start" textLength="17.5" transform="rotate(-60, 162.24691358024694, 421.66244110623524)" style="text-shadow: 0 0 1px #fff;">
0.92
</text>
<rect x="167.8743827160494" y="399.0013006951569" width="17.85" height="7.2" transform="rotate(-60, 173.85185185185188, 405.66130069515685)" fill="#fffa"/>
<text x="168.04938271604942" y="405.66130069515685" fill="#111" font-size="0.5em" text-anchor="start" textLength="17.5" transform="rotate(-60, 173.85185185185188, 405.66130069515685)" style="text-shadow: 0 0 1px #fff;">
1.13
</text>
<rect x="179.47932098765435" y="396.68758870882766" width="17.85" height="7.2" transform="rotate(-60, 185.4567901234568, 403.3475887088277)" fill="#fffa"/>
<text x="179.65432098765436" y="403.3475887088277" fill="#111" font-size="0.5em" text-anchor="start" textLength="17.5" transform="rotate(-60, 185.4567901234568, 403.3475887088277)" style="text-shadow: 0 0 1px #fff;">
1.16
</text>
<rect x="202.68919753086422" y="417.248220964143" width="17.85" height="7.2" transform="rotate(-60, 208.66666666666669, 423.90822096414297)" fill="#fffa"/>
<text x="202.86419753086423" y="423.90822096414297" fill="#111" font-size="0.5em" text-anchor="start" textLength="17.5" transform="rotate(-60, 208.66666666666669, 423.90822096414297)" style="text-shadow: 0 0 1px #fff;">
0.89
</text>
<rect x="214.29413580246919" y="401.1208165191426" width="17.85" height="7.2" transform="rotate(-60, 220.27160493827165, 407.78081651914255)" fill="#fffa"/>
<text x="214.46913580246917" y="407.78081651914255" fill="#111" font-size="0.5em" text-anchor="start" textLength="17.5" transform="rotate(-60, 220.27160493827165, 407.78081651914255)" style="text-shadow: 0 0 1px #fff;">
1.10
</text>
<rect x="225.89907407407412" y="408.1411508827193" width="17.85" height="7.2" transform="rotate(-60, 231.8765432098766, 414.8011508827193)" fill="#fffa"/>
<text x="226.07407407407413" y="414.8011508827193" fill="#111" font-size="0.5em" text-anchor="start" textLength="17.5" transform="rotate(-60, 231.8765432098766, 414.8011508827193)" style="text-shadow: 0 0 1px #fff;">
1.01
</text>
<rect x="249.108950617284" y="412.0862652288409" width="17.85" height="7.2" transform="rotate(-60, 255.0864197530865, 418.7462652288409)" fill="#fffa"/>
<text x="249.283950617284" y="418.7462652288409" fill="#111" font-size="0.5em" text-anchor="start" textLength="17.5" transform="rotate(-60, 255.0864197530865, 418.7462652288409)" style="text-shadow: 0 0 1px #fff;">
0.95
</text>
<rect x="260.71388888888896" y="205.8580747618142" width="17.85" height="7.2" transform="rotate(-60, 266.6913580246914, 212.5180747618142)" fill="#fffa"/>
<text x="260.88888888888897" y="212.5180747618142" fill="#111" font-size="0.5em" text-anchor="start" textLength="17.5" transform="rotate(-60, 266.6913580246914, 212.5180747618142)" style="text-shadow: 0 0 1px #fff;">
3.70
</text>
<rect x="272.31882716049387" y="190.21772671574863" width="17.85" height="7.2" transform="rotate(-60, 278.2962962962963, 196.87772671574862)" fill="#fffa"/>
<text x="272.4938271604939" y="196.87772671574862" fill="#111" font-size="0.5em" text-anchor="start" textLength="17.5" transform="rotate(-60, 278.2962962962963, 196.87772671574862)" style="text-shadow: 0 0 1px #fff;">
3.91
</text>
<rect x="295.5287037037037" y="416.87711343860485" width="17.85" height="7.2" transform="rotate(-60, 301.5061728395061, 423.5371134386049)" fill="#fffa"/>
<text x="295.7037037037037" y="423.5371134386049" fill="#111" font-size="0.5em" text-anchor="start" textLength="17.5" transform="rotate(-60, 301.5061728395061, 423.5371134386049)" style="text-shadow: 0 0 1px #fff;">
0.89
</text>
<rect x="307.13364197530865" y="398.83837436888945" width="17.85" height="7.2" transform="rotate(-60, 313.1111111111111, 405.4983743688895)" fill="#fffa"/>
<text x="307.3086419753086" y="405.4983743688895" fill="#111" font-size="0.5em" text-anchor="start" textLength="17.5" transform="rotate(-60, 313.1111111111111, 405.4983743688895)" style="text-shadow: 0 0 1px #fff;">
1.13
</text>
<rect x="318.73858024691356" y="410.5782648862059" width="17.85" height="7.2" transform="rotate(-60, 324.716049382716, 417.2382648862059)" fill="#fffa"/>
<text x="318.9135802469135" y="417.2382648862059" fill="#111" font-size="0.5em" text-anchor="start" textLength="17.5" transform="rotate(-60, 324.716049382716, 417.2382648862059)" style="text-shadow: 0 0 1px #fff;">
0.98
</text>
<rect x="341.9484567901234" y="414.3924298759349" width="17.85" height="7.2" transform="rotate(-60, 347.9259259259258, 421.05242987593493)" fill="#fffa"/>
<text x="342.1234567901233" y="421.05242987593493" fill="#111" font-size="0.5em" text-anchor="start" textLength="17.5" transform="rotate(-60, 347.9259259259258, 421.05242987593493)" style="text-shadow: 0 0 1px #fff;">
0.92
</text>
<rect x="353.5533950617283" y="389.7975132902563" width="17.85" height="7.2" transform="rotate(-60, 359.5308641975307, 396.4575132902563)" fill="#fffa"/>
<text x="353.72839506172824" y="396.4575132902563" fill="#111" font-size="0.5em" text-anchor="start" textLength="17.5" transform="rotate(-60, 359.5308641975307, 396.4575132902563)" style="text-shadow: 0 0 1px #fff;">
1.25
</text>
<rect x="365.1583333333332" y="393.58625780351434" width="17.85" height="7.2" transform="rotate(-60, 371.1358024691356, 400.2462578035143)" fill="#fffa"/>
<text x="365.3333333333332" y="400.2462578035143" fill="#111" font-size="0.5em" text-anchor="start" textLength="17.5" transform="rotate(-60, 371.1358024691356, 400.2462578035143)" style="text-shadow: 0 0 1px #fff;">
1.20
</text>
<rect x="388.368209876543" y="416.31730633417527" width="17.85" height="7.2" transform="rotate(-60, 394.34567901234544, 422.97730633417524)" fill="#fffa"/>
<text x="388.543209876543" y="422.97730633417524" fill="#111" font-size="0.5em" text-anchor="start" textLength="17.5" transform="rotate(-60, 394.34567901234544, 422.97730633417524)" style="text-shadow: 0 0 1px #fff;">
0.90
</text>
<rect x="399.9731481481479" y="400.284403978156" width="17.85" height="7.2" transform="rotate(-60, 405.95061728395035, 406.94440397815595)" fill="#fffa"/>
<text x="400.1481481481479" y="406.94440397815595" fill="#111" font-size="0.5em" text-anchor="start" textLength="17.5" transform="rotate(-60, 405.95061728395035, 406.94440397815595)" style="text-shadow: 0 0 1px #fff;">
1.11
</text>
<rect x="411.5780864197529" y="413.3355783949816" width="17.85" height="7.2" transform="rotate(-60, 417.5555555555553, 419.9955783949816)" fill="#fffa"/>
<text x="411.75308641975283" y="419.9955783949816" fill="#111" font-size="0.5em" text-anchor="start" textLength="17.5" transform="rotate(-60, 417.5555555555553, 419.9955783949816)" style="text-shadow: 0 0 1px #fff;">
0.94
</text>
<rect x="434.7879629629627" y="413.23183872256783" width="17.85" height="7.2" transform="rotate(-60, 440.76543209876513, 419.89183872256785)" fill="#fffa"/>
<text x="434.96296296296265" y="419.89183872256785" fill="#111" font-size="0.5em" text-anchor="start" textLength="17.5" transform="rotate(-60, 440.76543209876513, 419.89183872256785)" style="text-shadow: 0 0 1px #fff;">
0.94
</text>
<rect x="446.3929012345676" y="376.0206655062459" width="17.85" height="7.2" transform="rotate(-60, 452.37037037037004, 382.68066550624593)" fill="#fffa"/>
<text x="446.56790123456756" y="382.68066550624593" fill="#111" font-size="0.5em" text-anchor="start" textLength="17.5" transform="rotate(-60, 452.37037037037004, 382.68066550624593)" style="text-shadow: 0 0 1px #fff;">
1.43
</text>
<rect x="457.9978395061725" y="375.7150713305676" width="17.85" height="7.2" transform="rotate(-60, 463.97530864197495, 382.3750713305676)" fill="#fffa"/>
<text x="458.17283950617247" y="382.3750713305676" fill="#111" font-size="0.5em" text-anchor="start" textLength="17.5" transform="rotate(-60, 463.97530864197495, 382.3750713305676)" style="text-shadow: 0 0 1px #fff;">
1.44
</text>
<rect x="481.2077160493823" y="408.9009721052196" width="17.85" height="7.2" transform="rotate(-60, 487.18518518518476, 415.5609721052196)" fill="#fffa"/>
<text x="481.38271604938234" y="415.5609721052196" fill="#111" font-size="0.5em" text-anchor="start" textLength="17.5" transform="rotate(-60, 487.18518518518476, 415.5609721052196)" style="text-shadow: 0 0 1px #fff;">
1.00
</text>
<rect x="492.81265432098724" y="362.4937568287959" width="17.85" height="7.2" transform="rotate(-60, 498.7901234567897, 369.1537568287959)" fill="#fffa"/>
<text x="492.98765432098725" y="369.1537568287959" fill="#111" font-size="0.5em" text-anchor="start" textLength="17.5" transform="rotate(-60, 498.7901234567897, 369.1537568287959)" style="text-shadow: 0 0 1px #fff;">
1.61
</text>
<rect x="504.4175925925921" y="351.8511451330537" width="17.85" height="7.2" transform="rotate(-60, 510.39506172839464, 358.51114513305373)" fill="#fffa"/>
<text x="504.59259259259215" y="358.51114513305373" fill="#111" font-size="0.5em" text-anchor="start" textLength="17.5" transform="rotate(-60, 510.39506172839464, 358.51114513305373)" style="text-shadow: 0 0 1px #fff;">
1.76
</text>
<rect x="527.6274691358019" y="409.54946631695617" width="17.85" height="7.2" transform="rotate(-60, 533.6049382716045, 416.2094663169562)" fill="#fffa"/>
<text x="527.802469135802" y="416.2094663169562" fill="#111" font-size="0.5em" text-anchor="start" textLength="17.5" transform="rotate(-60, 533.6049382716045, 416.2094663169562)" style="text-shadow: 0 0 1px #fff;">
0.99
</text>
<rect x="539.2324074074069" y="339.6233630449994" width="17.85" height="7.2" transform="rotate(-60, 545.2098765432094, 346.28336304499936)" fill="#fffa"/>
<text x="539.4074074074069" y="346.28336304499936" fill="#111" font-size="0.5em" text-anchor="start" textLength="17.5" transform="rotate(-60, 545.2098765432094, 346.28336304499936)" style="text-shadow: 0 0 1px #fff;">
1.92
</text>
<rect x="550.8373456790117" y="304.51931685862996" width="17.85" height="7.2" transform="rotate(-60, 556.8148148148143, 311.17931685863)" fill="#fffa"/>
<text x="551.0123456790118" y="311.17931685863" fill="#111" font-size="0.5em" text-anchor="start" textLength="17.5" transform="rotate(-60, 556.8148148148143, 311.17931685863)" style="text-shadow: 0 0 1px #fff;">
2.39
</text>
<rect x="574.0472222222216" y="412.3169217686328" width="17.85" height="7.2" transform="rotate(-60, 580.0246913580241, 418.9769217686328)" fill="#fffa"/>
<text x="574.2222222222216" y="418.9769217686328" fill="#111" font-size="0.5em" text-anchor="start" textLength="17.5" transform="rotate(-60, 580.0246913580241, 418.9769217686328)" style="text-shadow: 0 0 1px #fff;">
0.95
</text>
<rect x="585.6521604938265" y="410.5614297486219" width="17.85" height="7.2" transform="rotate(-60, 591.6296296296291, 417.2214297486219)" fill="#fffa"/>
<text x="585.8271604938266" y="417.2214297486219" fill="#111" font-size="0.5em" text-anchor="start" textLength="17.5" transform="rotate(-60, 591.6296296296291, 417.2214297486219)" style="text-shadow: 0 0 1px #fff;">
0.98
</text>
<rect x="597.2570987654315" y="86.03999999999998" width="17.85" height="7.2" transform="rotate(-60, 603.234567901234, 92.69999999999999)" fill="#fffa"/>
<text x="597.4320987654314" y="92.69999999999999" fill="#111" font-size="0.5em" text-anchor="start" textLength="17.5" transform="rotate(-60, 603.234567901234, 92.69999999999999)" style="text-shadow: 0 0 1px #fff;">
5.29
</text>
<rect x="620.4669753086413" y="410.38899938256907" width="17.85" height="7.2" transform="rotate(-60, 626.4444444444438, 417.04899938256904)" fill="#fffa"/>
<text x="620.6419753086412" y="417.04899938256904" fill="#111" font-size="0.5em" text-anchor="start" textLength="17.5" transform="rotate(-60, 626.4444444444438, 417.04899938256904)" style="text-shadow: 0 0 1px #fff;">
0.98
</text>
<rect x="632.0719135802461" y="305.22710730550574" width="17.85" height="7.2" transform="rotate(-60, 638.0493827160487, 311.88710730550576)" fill="#fffa"/>
<text x="632.2469135802462" y="311.88710730550576" fill="#111" font-size="0.5em" text-anchor="start" textLength="17.5" transform="rotate(-60, 638.0493827160487, 311.88710730550576)" style="text-shadow: 0 0 1px #fff;">
2.38
</text>
<rect x="643.6768518518511" y="310.65923017029064" width="17.85" height="7.2" transform="rotate(-60, 649.6543209876536, 317.31923017029067)" fill="#fffa"/>
<text x="643.8518518518512" y="317.31923017029067" fill="#111" font-size="0.5em" text-anchor="start" textLength="17.5" transform="rotate(-60, 649.6543209876536, 317.31923017029067)" style="text-shadow: 0 0 1px #fff;">
2.30
</text>
<rect x="666.8867283950609" y="409.42753153594316" width="17.85" height="7.2" transform="rotate(-60, 672.8641975308634, 416.0875315359432)" fill="#fffa"/>
<text x="667.061728395061" y="416.0875315359432" fill="#111" font-size="0.5em" text-anchor="start" textLength="17.5" transform="rotate(-60, 672.8641975308634, 416.0875315359432)" style="text-shadow: 0 0 1px #fff;">
0.99
</text>
<rect x="678.4916666666659" y="323.5894686207736" width="17.85" height="7.2" transform="rotate(-60, 684.4691358024684, 330.2494686207736)" fill="#fffa"/>
<text x="678.6666666666658" y="330.2494686207736" fill="#111" font-size="0.5em" text-anchor="start" textLength="17.5" transform="rotate(-60, 684.4691358024684, 330.2494686207736)" style="text-shadow: 0 0 1px #fff;">
2.13
</text>
<rect x="690.0966049382707" y="268.00745465285956" width="17.85" height="7.2" transform="rotate(-60, 696.0740740740733, 274.6674546528596)" fill="#fffa"/>
<text x="690.2716049382708" y="274.6674546528596" fill="#111" font-size="0.5em" text-anchor="start" textLength="17.5" transform="rotate(-60, 696.0740740740733, 274.6674546528596)" style="text-shadow: 0 0 1px #fff;">
2.87
</text>
<rect x="713.3064814814805" y="415.3997060296372" width="17.85" height="7.2" transform="rotate(-60, 719.2839506172832, 422.05970602963714)" fill="#fffa"/>
<text x="713.4814814814806" y="422.05970602963714" fill="#111" font-size="0.5em" text-anchor="start" textLength="17.5" transform="rotate(-60, 719.2839506172832, 422.05970602963714)" style="text-shadow: 0 0 1px #fff;">
0.91
</text>
<rect x="724.9114197530855" y="374.94452137146675" width="17.85" height="7.2" transform="rotate(-60, 730.888888888888, 381.6045213714668)" fill="#fffa"/>
<text x="725.0864197530855" y="381.6045213714668" fill="#111" font-size="0.5em" text-anchor="start" textLength="17.5" transform="rotate(-60, 730.888888888888, 381.6045213714668)" style="text-shadow: 0 0 1px #fff;">
1.45
</text>
<rect x="736.5163580246904" y="380.91961908980244" width="17.85" height="7.2" transform="rotate(-60, 742.493827160493, 387.5796190898024)" fill="#fffa"/>
<text x="736.6913580246904" y="387.5796190898024" fill="#111" font-size="0.5em" text-anchor="start" textLength="17.5" transform="rotate(-60, 742.493827160493, 387.5796190898024)" style="text-shadow: 0 0 1px #fff;">
1.37
</text>
<rect x="759.7262345679002" y="413.4836280241833" width="17.85" height="7.2" transform="rotate(-60, 765.7037037037028, 420.14362802418333)" fill="#fffa"/>
<text x="759.9012345679002" y="420.14362802418333" fill="#111" font-size="0.5em" text-anchor="start" textLength="17.5" transform="rotate(-60, 765.7037037037028, 420.14362802418333)" style="text-shadow: 0 0 1px #fff;">
0.94
</text>
<rect x="771.3311728395051" y="392.6587441914851" width="17.85" height="7.2" transform="rotate(-60, 777.3086419753076, 399.31874419148505)" fill="#fffa"/>
<text x="771.5061728395052" y="399.31874419148505" fill="#111" font-size="0.5em" text-anchor="start" textLength="17.5" transform="rotate(-60, 777.3086419753076, 399.31874419148505)" style="text-shadow: 0 0 1px #fff;">
1.21
</text>
<rect x="782.9361111111101" y="394.61331021889123" width="17.85" height="7.2" transform="rotate(-60, 788.9135802469126, 401.27331021889125)" fill="#fffa"/>
<text x="783.1111111111101" y="401.27331021889125" fill="#111" font-size="0.5em" text-anchor="start" textLength="17.5" transform="rotate(-60, 788.9135802469126, 401.27331021889125)" style="text-shadow: 0 0 1px #fff;">
1.19
</text>
<rect x="806.1459876543199" y="418.80798421189206" width="17.85" height="7.2" transform="rotate(-60, 812.1234567901224, 425.4679842118921)" fill="#fffa"/>
<text x="806.3209876543199" y="425.4679842118921" fill="#111" font-size="0.5em" text-anchor="start" textLength="17.5" transform="rotate(-60, 812.1234567901224, 425.4679842118921)" style="text-shadow: 0 0 1px #fff;">
0.87
</text>
<rect x="817.7509259259248" y="350.69719869358016" width="17.85" height="7.2" transform="rotate(-60, 823.7283950617274, 357.3571986935802)" fill="#fffa"/>
<text x="817.9259259259248" y="357.3571986935802" fill="#111" font-size="0.5em" text-anchor="start" textLength="17.5" transform="rotate(-60, 823.7283950617274, 357.3571986935802)" style="text-shadow: 0 0 1px #fff;">
1.77
</text>
<rect x="829.3558641975297" y="362.04330590535216" width="17.85" height="7.2" transform="rotate(-60, 835.3333333333322, 368.7033059053522)" fill="#fffa"/>
<text x="829.5308641975297" y="368.7033059053522" fill="#111" font-size="0.5em" text-anchor="start" textLength="17.5" transform="rotate(-60, 835.3333333333322, 368.7033059053522)" style="text-shadow: 0 0 1px #fff;">
1.62
</text>
<rect x="852.5657407407396" y="405.921155251904" width="17.85" height="7.2" transform="rotate(-60, 858.543209876542, 412.581155251904)" fill="#fffa"/>
<text x="852.7407407407396" y="412.581155251904" fill="#111" font-size="0.5em" text-anchor="start" textLength="17.5" transform="rotate(-60, 858.543209876542, 412.581155251904)" style="text-shadow: 0 0 1px #fff;">
1.04
</text>
<rect x="864.1706790123444" y="242.86529832174375" width="17.85" height="7.2" transform="rotate(-60, 870.148148148147, 249.52529832174375)" fill="#fffa"/>
<text x="864.3456790123445" y="249.52529832174375" fill="#111" font-size="0.5em" text-anchor="start" textLength="17.5" transform="rotate(-60, 870.148148148147, 249.52529832174375)" style="text-shadow: 0 0 1px #fff;">
3.21
</text>
<rect x="875.7756172839494" y="232.10931636659916" width="17.85" height="7.2" transform="rotate(-60, 881.7530864197519, 238.76931636659916)" fill="#fffa"/>
<text x="875.9506172839494" y="238.76931636659916" fill="#111" font-size="0.5em" text-anchor="start" textLength="17.5" transform="rotate(-60, 881.7530864197519, 238.76931636659916)" style="text-shadow: 0 0 1px #fff;">
3.35
</text>
<rect x="898.9854938271592" y="413.1293046395848" width="17.85" height="7.2" transform="rotate(-60, 904.9629629629618, 419.7893046395848)" fill="#fffa"/>
<text x="899.1604938271593" y="419.7893046395848" fill="#111" font-size="0.5em" text-anchor="start" textLength="17.5" transform="rotate(-60, 904.9629629629618, 419.7893046395848)" style="text-shadow: 0 0 1px #fff;">
0.94
</text>
<rect x="910.5904320987642" y="337.03716593476105" width="17.85" height="7.2" transform="rotate(-60, 916.5679012345666, 343.697165934761)" fill="#fffa"/>
<text x="910.7654320987641" y="343.697165934761" fill="#111" font-size="0.5em" text-anchor="start" textLength="17.5" transform="rotate(-60, 916.5679012345666, 343.697165934761)" style="text-shadow: 0 0 1px #fff;">
1.95
</text>
<rect x="922.195370370369" y="349.59919743195206" width="17.85" height="7.2" transform="rotate(-60, 928.1728395061716, 356.25919743195203)" fill="#fffa"/>
<text x="922.3703703703691" y="356.25919743195203" fill="#111" font-size="0.5em" text-anchor="start" textLength="17.5" transform="rotate(-60, 928.1728395061716, 356.25919743195203)" style="text-shadow: 0 0 1px #fff;">
1.79
</text>
<rect x="945.4052469135788" y="413.15472031918637" width="17.85" height="7.2" transform="rotate(-60, 951.3827160493814, 419.8147203191864)" fill="#fffa"/>
<text x="945.5802469135789" y="419.8147203191864" fill="#111" font-size="0.5em" text-anchor="start" textLength="17.5" transform="rotate(-60, 951.3827160493814, 419.8147203191864)" style="text-shadow: 0 0 1px #fff;">
0.94
</text>
<rect x="957.0101851851838" y="359.88223514920486" width="17.85" height="7.2" transform="rotate(-60, 962.9876543209863, 366.5422351492048)" fill="#fffa"/>
<text x="957.1851851851839" y="366.5422351492048" fill="#111" font-size="0.5em" text-anchor="start" textLength="17.5" transform="rotate(-60, 962.9876543209863, 366.5422351492048)" style="text-shadow: 0 0 1px #fff;">
1.65
</text>
<rect x="968.6151234567886" y="348.31082929780854" width="17.85" height="7.2" transform="rotate(-60, 974.5925925925912, 354.97082929780856)" fill="#fffa"/>
<text x="968.7901234567887" y="354.97082929780856" fill="#111" font-size="0.5em" text-anchor="start" textLength="17.5" transform="rotate(-60, 974.5925925925912, 354.97082929780856)" style="text-shadow: 0 0 1px #fff;">
1.80
</text>
</svg>