<svg viewBox="0 0 1000 600" xmlns="http://www.w3.org/2000/svg" xmlns:xlink="http://www.w3.org/1999/xlink" width="100%" height="100%">

<rect x="50.0" y="30.0" width="940.0" height="467.99999999999994" stroke="#000" fill="#EEE"/>
<line x1="42.0" y1="497.9999999999999" x2="50.0" y2="497.9999999999999" stroke="#000"/>
<text x="26.000000000000004" y="497.9999999999999" text-anchor="end" font-weight="bold" font-size="small" fill="#111">
0.0
</text>
<line x1="42.0" y1="456.6200881149843" x2="50.0" y2="456.6200881149843" stroke="#000"/>
<text x="26.000000000000004" y="456.6200881149843" text-anchor="end" font-weight="bold" font-size="small" fill="#111">
2.0
</text>
<line x1="42.0" y1="415.2401762299686" x2="50.0" y2="415.2401762299686" stroke="#000"/>
<text x="26.000000000000004" y="415.2401762299686" text-anchor="end" font-weight="bold" font-size="small" fill="#111">
4.0
</text>
<line x1="42.0" y1="373.8602643449529" x2="50.0" y2="373.8602643449529" stroke="#000"/>
<text x="26.000000000000004" y="373.8602643449529" text-anchor="end" font-weight="bold" font-size="small" fill="#111">
6.0
</text>
<line x1="42.0" y1="332.48035245993725" x2="50.0" y2="332.48035245993725" stroke="#000"/>
<text x="26.000000000000004" y="332.48035245993725" text-anchor="end" font-weight="bold" font-size="small" fill="#111">
8.0
</text>
<line x1="42.0" y1="291.10044057492155" x2="50.0" y2="291.10044057492155" stroke="#000"/>
<text x="26.000000000000004" y="291.10044057492155" text-anchor="end" font-weight="bold" font-size="small" fill="#111">
10.0
</text>
<line x1="42.0" y1="249.72052868990588" x2="50.0" y2="249.72052868990588" stroke="#000"/>
<text x="26.000000000000004" y="249.72052868990588" text-anchor="end" font-weight="bold" font-size="small" fill="#111">
12.0
</text>
<line x1="42.0" y1="208.34061680489023" x2="50.0" y2="208.34061680489023" stroke="#000"/>
<text x="26.000000000000004" y="208.34061680489023" text-anchor="end" font-weight="bold" font-size="small" fill="#111">
14.0
</text>
<line x1="42.0" y1="166.96070491987453" x2="50.0" y2="166.96070491987453" stroke="#000"/>
<text x="26.000000000000004" y="166.96070491987453" text-anchor="end" font-weight="bold" font-size="small" fill="#111">
16.0
</text>
<line x1="42.0" y1="125.58079303485884" x2="50.0" y2="125.58079303485884" stroke="#000"/>
<text x="26.000000000000004" y="125.58079303485884" text-anchor="end" font-weight="bold" font-size="small" fill="#111">
18.0
</text>
<rect x="268.5" y="36.00000000000001" width="80.0" height="18.0" fill="#7070f8" stroke="#888"/>
<text x="308.5" y="52.50000000000001" font-size="small" text-anchor="middle" font-weight="bold" fill="#EEE">
No JIT
</text>
<rect x="691.4999999999999" y="36.00000000000001" width="80.0" height="18.0" fill="orange" stroke="#888"/>
<text x="731.4999999999999" y="52.50000000000001" font-size="small" text-anchor="middle" font-weight="bold" fill="#EEE">
YJIT
</text>
<rect x="97.0" y="477.31004405749206" width="23.499999999999996" height="20.689955942507837" fill="#7070f8" data-tooltip="1.00x baseline speed (No JIT)"/>
<line x1="97.0" y1="477.2968711837445" x2="120.5" y2="477.2968711837445" stroke="#000"/>
<line x1="97.0" y1="477.3232169312396" x2="120.5" y2="477.3232169312396" stroke="#000"/>
<line x1="108.75" y1="477.2968711837445" x2="108.75" y2="477.3232169312396" stroke="#000"/>
<rect x="120.5" y="408.6931270067013" width="23.499999999999996" height="89.3068729932987" fill="orange" data-tooltip="4.32x baseline speed (YJIT)"/>
<line x1="120.5" y1="408.6220351531449" x2="144.0" y2="408.6220351531449" stroke="#000"/>
<line x1="120.5" y1="408.76421886025764" x2="144.0" y2="408.76421886025764" stroke="#000"/>
<line x1="132.25" y1="408.6220351531449" x2="132.25" y2="408.76421886025764" stroke="#000"/>
<line x1="132.25" y1="498.0" x2="132.25" y2="502.79999999999995" stroke="#000"/>
<text x="132.25" y="512.4" fill="#111" font-size="small" font-family="monospace" font-weight="bold" text-anchor="end" transform="rotate(-60, 132.25, 512.4)">
30k_ifelse
</text>
<rect x="167.49999999999997" y="477.31004405749206" width="23.499999999999996" height="20.689955942507837" fill="#7070f8" data-tooltip="1.00x baseline speed (No JIT)"/>
<line x1="167.49999999999997" y1="477.28249686430377" x2="190.99999999999997" y2="477.28249686430377" stroke="#000"/>
<line x1="167.49999999999997" y1="477.3375912506803" x2="190.99999999999997" y2="477.3375912506803" stroke="#000"/>
<line x1="179.25" y1="477.28249686430377" x2="179.25" y2="477.3375912506803" stroke="#000"/>
<rect x="190.99999999999997" y="390.3882508684163" width="23.499999999999996" height="107.61174913158361" fill="orange" data-tooltip="5.20x baseline speed (YJIT)"/>
<line x1="190.99999999999997" y1="389.80019177784226" x2="214.49999999999997" y2="389.80019177784226" stroke="#000"/>
<line x1="190.99999999999997" y1="390.97630995899044" x2="214.49999999999997" y2="390.97630995899044" stroke="#000"/>
<line x1="202.75" y1="389.80019177784226" x2="202.75" y2="390.97630995899044" stroke="#000"/>
<line x1="202.75" y1="498.0" x2="202.75" y2="502.79999999999995" stroke="#000"/>
<text x="202.75" y="512.4" fill="#111" font-size="small" font-family="monospace" font-weight="bold" text-anchor="end" transform="rotate(-60, 202.75, 512.4)">
30k_methods
</text>
<rect x="238.0" y="477.31004405749206" width="23.499999999999996" height="20.689955942507837" fill="#7070f8" data-tooltip="1.00x baseline speed (No JIT)"/>
<line x1="238.0" y1="477.27716923665236" x2="261.5" y2="477.27716923665236" stroke="#000"/>
<line x1="238.0" y1="477.3429188783318" x2="261.5" y2="477.3429188783318" stroke="#000"/>
<line x1="249.75" y1="477.27716923665236" x2="249.75" y2="477.3429188783318" stroke="#000"/>
<rect x="261.5" y="377.672300767382" width="23.499999999999996" height="120.32769923261796" fill="orange" data-tooltip="5.82x baseline speed (YJIT)"/>
<line x1="261.5" y1="377.48031901907007" x2="285.00000000000006" y2="377.48031901907007" stroke="#000"/>
<line x1="261.5" y1="377.8642825156939" x2="285.00000000000006" y2="377.8642825156939" stroke="#000"/>
<line x1="273.25" y1="377.48031901907007" x2="273.25" y2="377.8642825156939" stroke="#000"/>
<line x1="273.25" y1="498.0" x2="273.25" y2="502.79999999999995" stroke="#000"/>
<text x="273.25" y="512.4" fill="#111" font-size="small" font-family="monospace" font-weight="bold" text-anchor="end" transform="rotate(-60, 273.25, 512.4)">
cfunc_itself
</text>
<rect x="308.5" y="477.31004405749206" width="23.499999999999996" height="20.689955942507837" fill="#7070f8" data-tooltip="1.00x baseline speed (No JIT)"/>
<line x1="308.5" y1="476.7882732930474" x2="332.0" y2="476.7882732930474" stroke="#000"/>
<line x1="308.5" y1="477.83181482193675" x2="332.0" y2="477.83181482193675" stroke="#000"/>
<line x1="320.25" y1="476.7882732930474" x2="320.25" y2="477.83181482193675" stroke="#000"/>
<rect x="332.0" y="405.78081650460774" width="23.499999999999996" height="92.21918349539226" fill="orange" data-tooltip="4.46x baseline speed (YJIT)"/>
<line x1="332.0" y1="403.4551700284424" x2="355.50000000000006" y2="403.4551700284424" stroke="#000"/>
<line x1="332.0" y1="408.106462980773" x2="355.50000000000006" y2="408.106462980773" stroke="#000"/>
<line x1="343.75" y1="403.4551700284424" x2="343.75" y2="408.106462980773" stroke="#000"/>
<line x1="343.75" y1="498.0" x2="343.75" y2="502.79999999999995" stroke="#000"/>
<text x="343.75" y="512.4" fill="#111" font-size="small" font-family="monospace" font-weight="bold" text-anchor="end" transform="rotate(-60, 343.75, 512.4)">
fib
</text>
<rect x="379.0" y="477.31004405749206" width="23.499999999999996" height="20.689955942507837" fill="#7070f8" data-tooltip="1.00x baseline speed (No JIT)"/>
<line x1="379.0" y1="477.19142430680586" x2="402.5" y2="477.19142430680586" stroke="#000"/>
<line x1="379.0" y1="477.42866380817827" x2="402.5" y2="477.42866380817827" stroke="#000"/>
<line x1="390.75" y1="477.19142430680586" x2="390.75" y2="477.42866380817827" stroke="#000"/>
<rect x="402.5" y="369.68648627683194" width="23.499999999999996" height="128.31351372316803" fill="orange" data-tooltip="6.20x baseline speed (YJIT)"/>
<line x1="402.5" y1="368.9505601420969" x2="426.00000000000006" y2="368.9505601420969" stroke="#000"/>
<line x1="402.5" y1="370.422412411567" x2="426.00000000000006" y2="370.422412411567" stroke="#000"/>
<line x1="414.25" y1="368.9505601420969" x2="414.25" y2="370.422412411567" stroke="#000"/>
<line x1="414.25" y1="498.0" x2="414.25" y2="502.79999999999995" stroke="#000"/>
<text x="414.25" y="512.4" fill="#111" font-size="small" font-family="monospace" font-weight="bold" text-anchor="end" transform="rotate(-60, 414.25, 512.4)">
getivar
</text>
<rect x="449.5" y="477.31004405749206" width="23.499999999999996" height="20.689955942507837" fill="#7070f8" data-tooltip="1.00x baseline speed (No JIT)"/>
<line x1="449.5" y1="477.2742964452893" x2="473.00000000000006" y2="477.2742964452893" stroke="#000"/>
<line x1="449.5" y1="477.3457916696948" x2="473.00000000000006" y2="477.3457916696948" stroke="#000"/>
<line x1="461.25" y1="477.2742964452893" x2="461.25" y2="477.3457916696948" stroke="#000"/>
<rect x="473.00000000000006" y="324.2074780904831" width="23.499999999999996" height="173.7925219095168" fill="orange" data-tooltip="8.40x baseline speed (YJIT)"/>
<line x1="473.00000000000006" y1="323.906686009568" x2="496.50000000000006" y2="323.906686009568" stroke="#000"/>
<line x1="473.00000000000006" y1="324.5082701713983" x2="496.50000000000006" y2="324.5082701713983" stroke="#000"/>
<line x1="484.75" y1="323.906686009568" x2="484.75" y2="324.5082701713983" stroke="#000"/>
<line x1="484.75" y1="498.0" x2="484.75" y2="502.79999999999995" stroke="#000"/>
<text x="484.75" y="512.4" fill="#111" font-size="small" font-family="monospace" font-weight="bold" text-anchor="end" transform="rotate(-60, 484.75, 512.4)">
keyword_args
</text>
<rect x="519.9999999999999" y="477.31004405749206" width="23.499999999999996" height="20.689955942507837" fill="#7070f8" data-tooltip="1.00x baseline speed (No JIT)"/>
<line x1="519.9999999999999" y1="477.1625199894749" x2="543.4999999999999" y2="477.1625199894749" stroke="#000"/>
<line x1="519.9999999999999" y1="477.45756812550917" x2="543.4999999999999" y2="477.45756812550917" stroke="#000"/>
<line x1="531.75" y1="477.1625199894749" x2="531.75" y2="477.45756812550917" stroke="#000"/>
<rect x="543.4999999999999" y="100.19999999999999" width="23.499999999999996" height="397.79999999999995" fill="orange" data-tooltip="19.23x baseline speed (YJIT)"/>
<line x1="543.4999999999999" y1="97.36210069289369" x2="566.9999999999999" y2="97.36210069289369" stroke="#000"/>
<line x1="543.4999999999999" y1="103.03789930710629" x2="566.9999999999999" y2="103.03789930710629" stroke="#000"/>
<line x1="555.2499999999999" y1="97.36210069289369" x2="555.2499999999999" y2="103.03789930710629" stroke="#000"/>
<line x1="555.2499999999999" y1="498.0" x2="555.2499999999999" y2="502.79999999999995" stroke="#000"/>
<text x="555.2499999999999" y="512.4" fill="#111" font-size="small" font-family="monospace" font-weight="bold" text-anchor="end" transform="rotate(-60, 555.2499999999999, 512.4)">
respond_to
</text>
<rect x="590.4999999999999" y="477.31004405749206" width="23.499999999999996" height="20.689955942507837" fill="#7070f8" data-tooltip="1.00x baseline speed (No JIT)"/>
<line x1="590.4999999999999" y1="477.290009987714" x2="613.9999999999999" y2="477.290009987714" stroke="#000"/>
<line x1="590.4999999999999" y1="477.3300781272701" x2="613.9999999999999" y2="477.3300781272701" stroke="#000"/>
<line x1="602.25" y1="477.290009987714" x2="602.25" y2="477.3300781272701" stroke="#000"/>
<rect x="613.9999999999999" y="371.22482078803915" width="23.499999999999996" height="126.77517921196073" fill="orange" data-tooltip="6.13x baseline speed (YJIT)"/>
<line x1="613.9999999999999" y1="371.09986447136504" x2="637.4999999999999" y2="371.09986447136504" stroke="#000"/>
<line x1="613.9999999999999" y1="371.3497771047133" x2="637.4999999999999" y2="371.3497771047133" stroke="#000"/>
<line x1="625.7499999999999" y1="371.09986447136504" x2="625.7499999999999" y2="371.3497771047133" stroke="#000"/>
<line x1="625.7499999999999" y1="498.0" x2="625.7499999999999" y2="502.79999999999995" stroke="#000"/>
<text x="625.7499999999999" y="512.4" fill="#111" font-size="small" font-family="monospace" font-weight="bold" text-anchor="end" transform="rotate(-60, 625.7499999999999, 512.4)">
setivar
</text>
<rect x="660.9999999999999" y="477.31004405749206" width="23.499999999999996" height="20.689955942507837" fill="#7070f8" data-tooltip="1.00x baseline speed (No JIT)"/>
<line x1="660.9999999999999" y1="477.2803179187757" x2="684.4999999999999" y2="477.2803179187757" stroke="#000"/>
<line x1="660.9999999999999" y1="477.3397701962084" x2="684.4999999999999" y2="477.3397701962084" stroke="#000"/>
<line x1="672.75" y1="477.2803179187757" x2="672.75" y2="477.3397701962084" stroke="#000"/>
<rect x="684.4999999999999" y="442.6632404391073" width="23.499999999999996" height="55.33675956089269" fill="orange" data-tooltip="2.67x baseline speed (YJIT)"/>
<line x1="684.4999999999999" y1="442.58362690955914" x2="707.9999999999999" y2="442.58362690955914" stroke="#000"/>
<line x1="684.4999999999999" y1="442.7428539686555" x2="707.9999999999999" y2="442.7428539686555" stroke="#000"/>
<line x1="696.2499999999999" y1="442.58362690955914" x2="696.2499999999999" y2="442.7428539686555" stroke="#000"/>
<line x1="696.2499999999999" y1="498.0" x2="696.2499999999999" y2="502.79999999999995" stroke="#000"/>
<text x="696.2499999999999" y="512.4" fill="#111" font-size="small" font-family="monospace" font-weight="bold" text-anchor="end" transform="rotate(-60, 696.2499999999999, 512.4)">
setivar_object
</text>
<rect x="731.4999999999999" y="477.31004405749206" width="23.499999999999996" height="20.689955942507837" fill="#7070f8" data-tooltip="1.00x baseline speed (No JIT)"/>
<line x1="731.4999999999999" y1="477.25299684357196" x2="754.9999999999999" y2="477.25299684357196" stroke="#000"/>
<line x1="731.4999999999999" y1="477.3670912714121" x2="754.9999999999999" y2="477.3670912714121" stroke="#000"/>
<line x1="743.25" y1="477.25299684357196" x2="743.25" y2="477.3670912714121" stroke="#000"/>
<rect x="754.9999999999999" y="442.21417789629595" width="23.499999999999996" height="55.785822103703936" fill="orange" data-tooltip="2.70x baseline speed (YJIT)"/>
<line x1="754.9999999999999" y1="442.06027114942697" x2="778.4999999999999" y2="442.06027114942697" stroke="#000"/>
<line x1="754.9999999999999" y1="442.368084643165" x2="778.4999999999999" y2="442.368084643165" stroke="#000"/>
<line x1="766.7499999999999" y1="442.06027114942697" x2="766.7499999999999" y2="442.368084643165" stroke="#000"/>
<line x1="766.7499999999999" y1="498.0" x2="766.7499999999999" y2="502.79999999999995" stroke="#000"/>
<text x="766.7499999999999" y="512.4" fill="#111" font-size="small" font-family="monospace" font-weight="bold" text-anchor="end" transform="rotate(-60, 766.7499999999999, 512.4)">
setivar_young
</text>
<rect x="801.9999999999999" y="477.31004405749206" width="23.499999999999996" height="20.689955942507837" fill="#7070f8" data-tooltip="1.00x baseline speed (No JIT)"/>
<line x1="801.9999999999999" y1="476.2568894746796" x2="825.4999999999999" y2="476.2568894746796" stroke="#000"/>
<line x1="801.9999999999999" y1="478.3631986403045" x2="825.4999999999999" y2="478.3631986403045" stroke="#000"/>
<line x1="813.75" y1="476.2568894746796" x2="813.75" y2="478.3631986403045" stroke="#000"/>
<rect x="825.4999999999999" y="452.6156731982255" width="23.499999999999996" height="45.38432680177444" fill="orange" data-tooltip="2.19x baseline speed (YJIT)"/>
<line x1="825.4999999999999" y1="450.3033974156962" x2="848.9999999999999" y2="450.3033974156962" stroke="#000"/>
<line x1="825.4999999999999" y1="454.9279489807548" x2="848.9999999999999" y2="454.9279489807548" stroke="#000"/>
<line x1="837.2499999999999" y1="450.3033974156962" x2="837.2499999999999" y2="454.9279489807548" stroke="#000"/>
<line x1="837.2499999999999" y1="498.0" x2="837.2499999999999" y2="502.79999999999995" stroke="#000"/>
<text x="837.2499999999999" y="512.4" fill="#111" font-size="small" font-family="monospace" font-weight="bold" text-anchor="end" transform="rotate(-60, 837.2499999999999, 512.4)">
str_concat
</text>
<rect x="872.4999999999999" y="477.31004405749206" width="23.499999999999996" height="20.689955942507837" fill="#7070f8" data-tooltip="1.00x baseline speed (No JIT)"/>
<line x1="872.4999999999999" y1="477.27174558661505" x2="895.9999999999999" y2="477.27174558661505" stroke="#000"/>
<line x1="872.4999999999999" y1="477.348342528369" x2="895.9999999999999" y2="477.348342528369" stroke="#000"/>
<line x1="884.25" y1="477.27174558661505" x2="884.25" y2="477.348342528369" stroke="#000"/>
<rect x="895.9999999999999" y="467.814878903573" width="23.499999999999996" height="30.185121096426943" fill="orange" data-tooltip="1.46x baseline speed (YJIT)"/>
<line x1="895.9999999999999" y1="467.7205018651904" x2="919.4999999999999" y2="467.7205018651904" stroke="#000"/>
<line x1="895.9999999999999" y1="467.90925594195556" x2="919.4999999999999" y2="467.90925594195556" stroke="#000"/>
<line x1="907.75" y1="467.7205018651904" x2="907.75" y2="467.90925594195556" stroke="#000"/>
<line x1="907.75" y1="498.0" x2="907.75" y2="502.79999999999995" stroke="#000"/>
<text x="907.75" y="512.4" fill="#111" font-size="small" font-family="monospace" font-weight="bold" text-anchor="end" transform="rotate(-60, 907.75, 512.4)">
throw
</text>
</svg>