<svg viewBox="0 0 1000 600" xmlns="http://www.w3.org/2000/svg" xmlns:xlink="http://www.w3.org/1999/xlink" width="100%" height="100%">

<rect x="50.0" y="30.0" width="940.0" height="467.99999999999994" stroke="#000" fill="#fff"/>
<line x1="42.0" y1="497.9999999999999" x2="50.0" y2="497.9999999999999" stroke="#000"/>
<text x="26.000000000000004" y="497.9999999999999" text-anchor="end" font-weight="bold" font-size="small" fill="#111">
0.0
</text>
<line x1="42.0" y1="447.4444942146066" x2="50.0" y2="447.4444942146066" stroke="#000"/>
<text x="26.000000000000004" y="447.4444942146066" text-anchor="end" font-weight="bold" font-size="small" fill="#111">
0.2
</text>
<line x1="42.0" y1="396.88898842921327" x2="50.0" y2="396.88898842921327" stroke="#000"/>
<text x="26.000000000000004" y="396.88898842921327" text-anchor="end" font-weight="bold" font-size="small" fill="#111">
0.4
</text>
<line x1="42.0" y1="346.3334826438199" x2="50.0" y2="346.3334826438199" stroke="#000"/>
<text x="26.000000000000004" y="346.3334826438199" text-anchor="end" font-weight="bold" font-size="small" fill="#111">
0.6
</text>
<line x1="42.0" y1="295.7779768584266" x2="50.0" y2="295.7779768584266" stroke="#000"/>
<text x="26.000000000000004" y="295.7779768584266" text-anchor="end" font-weight="bold" font-size="small" fill="#111">
0.8
</text>
<line x1="42.0" y1="245.2224710730333" x2="50.0" y2="245.2224710730333" stroke="#000"/>
<text x="26.000000000000004" y="245.2224710730333" text-anchor="end" font-weight="bold" font-size="small" fill="#111">
1.0
</text>
<line x1="42.0" y1="194.66696528763993" x2="50.0" y2="194.66696528763993" stroke="#000"/>
<text x="26.000000000000004" y="194.66696528763993" text-anchor="end" font-weight="bold" font-size="small" fill="#111">
1.2
</text>
<line x1="42.0" y1="144.11145950224665" x2="50.0" y2="144.11145950224665" stroke="#000"/>
<text x="26.000000000000004" y="144.11145950224665" text-anchor="end" font-weight="bold" font-size="small" fill="#111">
1.4
</text>
<line x1="248.5" y1="54.60000000000001" x2="368.5" y2="54.60000000000001" stroke="#648FFF" stroke-width="2"/>
<text x="308.5" y="49.500000000000014" font-size="small" text-anchor="middle" font-weight="bold" fill="#000">
CRuby 3.3.0dev
</text>
<rect x="671.5" y="35.400000000000006" width="120.0" height="19.2" fill="#785EF0" stroke="none"/>
<text x="731.4999999999999" y="49.500000000000014" font-size="small" text-anchor="middle" font-weight="bold" fill="#fff" style="text-shadow: 0 0 1px #000;">
YJIT 3.3.0dev
</text>
<rect x="87.6" y="241.96467391314678" width="37.599999999999994" height="256.0353260868532" fill="#785EF0" data-tooltip="1.01x baseline (YJIT 3.3.0dev)"/>
<line x1="106.39999999999998" y1="498.0" x2="106.39999999999998" y2="502.79999999999995" stroke="#000"/>
<text x="106.39999999999998" y="512.4" fill="#111" font-size="small" text-anchor="end" transform="rotate(-60, 106.39999999999998, 512.4)">
binarytrees
</text>
<rect x="162.79999999999998" y="286.46822171379705" width="37.599999999999994" height="211.53177828620287" fill="#785EF0" data-tooltip="0.84x baseline (YJIT 3.3.0dev)"/>
<line x1="181.6" y1="498.0" x2="181.6" y2="502.79999999999995" stroke="#000"/>
<text x="181.6" y="512.4" fill="#111" font-size="small" text-anchor="end" transform="rotate(-60, 181.6, 512.4)">
chunky_png
</text>
<rect x="237.99999999999997" y="100.19999999999999" width="37.599999999999994" height="397.79999999999995" fill="#785EF0" data-tooltip="1.57x baseline (YJIT 3.3.0dev)"/>
<line x1="256.79999999999995" y1="498.0" x2="256.79999999999995" y2="502.79999999999995" stroke="#000"/>
<text x="256.79999999999995" y="512.4" fill="#111" font-size="small" text-anchor="end" transform="rotate(-60, 256.79999999999995, 512.4)">
erubi
</text>
<rect x="313.19999999999993" y="223.44838581336282" width="37.599999999999994" height="274.55161418663715" fill="#785EF0" data-tooltip="1.09x baseline (YJIT 3.3.0dev)"/>
<line x1="331.9999999999999" y1="498.0" x2="331.9999999999999" y2="502.79999999999995" stroke="#000"/>
<text x="331.9999999999999" y="512.4" fill="#111" font-size="small" text-anchor="end" transform="rotate(-60, 331.9999999999999, 512.4)">
erubi_rails
</text>
<rect x="388.39999999999986" y="213.95844876326228" width="37.599999999999994" height="284.0415512367377" fill="#785EF0" data-tooltip="1.12x baseline (YJIT 3.3.0dev)"/>
<line x1="407.1999999999998" y1="498.0" x2="407.1999999999998" y2="502.79999999999995" stroke="#000"/>
<text x="407.1999999999998" y="512.4" fill="#111" font-size="small" text-anchor="end" transform="rotate(-60, 407.1999999999998, 512.4)">
etanni
</text>
<rect x="463.5999999999998" y="237.54920445718608" width="37.599999999999994" height="260.45079554281386" fill="#785EF0" data-tooltip="1.03x baseline (YJIT 3.3.0dev)"/>
<line x1="482.39999999999975" y1="498.0" x2="482.39999999999975" y2="502.79999999999995" stroke="#000"/>
<text x="482.39999999999975" y="512.4" fill="#111" font-size="small" text-anchor="end" transform="rotate(-60, 482.39999999999975, 512.4)">
fannkuchredux
</text>
<rect x="538.7999999999997" y="207.11969657442378" width="37.599999999999994" height="290.88030342557613" fill="#785EF0" data-tooltip="1.15x baseline (YJIT 3.3.0dev)"/>
<line x1="557.5999999999997" y1="498.0" x2="557.5999999999997" y2="502.79999999999995" stroke="#000"/>
<text x="557.5999999999997" y="512.4" fill="#111" font-size="small" text-anchor="end" transform="rotate(-60, 557.5999999999997, 512.4)">
lee
</text>
<rect x="613.9999999999997" y="238.39406358826272" width="37.599999999999994" height="259.60593641173716" fill="#785EF0" data-tooltip="1.03x baseline (YJIT 3.3.0dev)"/>
<line x1="632.7999999999996" y1="498.0" x2="632.7999999999996" y2="502.79999999999995" stroke="#000"/>
<text x="632.7999999999996" y="512.4" fill="#111" font-size="small" text-anchor="end" transform="rotate(-60, 632.7999999999996, 512.4)">
nbody
</text>
<rect x="689.1999999999996" y="231.97330620014782" width="37.599999999999994" height="266.02669379985207" fill="#785EF0" data-tooltip="1.05x baseline (YJIT 3.3.0dev)"/>
<line x1="707.9999999999995" y1="498.0" x2="707.9999999999995" y2="502.79999999999995" stroke="#000"/>
<text x="707.9999999999995" y="512.4" fill="#111" font-size="small" text-anchor="end" transform="rotate(-60, 707.9999999999995, 512.4)">
optcarrot
</text>
<rect x="764.3999999999995" y="231.32759490301999" width="37.599999999999994" height="266.67240509697996" fill="#785EF0" data-tooltip="1.05x baseline (YJIT 3.3.0dev)"/>
<line x1="783.1999999999995" y1="498.0" x2="783.1999999999995" y2="502.79999999999995" stroke="#000"/>
<text x="783.1999999999995" y="512.4" fill="#111" font-size="small" text-anchor="end" transform="rotate(-60, 783.1999999999995, 512.4)">
ruby-json
</text>
<rect x="839.5999999999995" y="238.12383103718045" width="37.599999999999994" height="259.8761689628195" fill="#785EF0" data-tooltip="1.03x baseline (YJIT 3.3.0dev)"/>
<line x1="858.3999999999994" y1="498.0" x2="858.3999999999994" y2="502.79999999999995" stroke="#000"/>
<text x="858.3999999999994" y="512.4" fill="#111" font-size="small" text-anchor="end" transform="rotate(-60, 858.3999999999994, 512.4)">
rubykon
</text>
<rect x="914.7999999999994" y="225.74294654629625" width="37.599999999999994" height="272.2570534537037" fill="#785EF0" data-tooltip="1.08x baseline (YJIT 3.3.0dev)"/>
<line x1="933.5999999999993" y1="498.0" x2="933.5999999999993" y2="502.79999999999995" stroke="#000"/>
<text x="933.5999999999993" y="512.4" fill="#111" font-size="small" text-anchor="end" transform="rotate(-60, 933.5999999999993, 512.4)" font-style="italic">
geomean*
</text>
<line x1="50.0" y1="245.2224710730333" x2="990.0" y2="245.2224710730333" stroke="#648FFF" stroke-width="2"/>
</svg>