<svg viewBox="0 0 1000 600" xmlns="http://www.w3.org/2000/svg" xmlns:xlink="http://www.w3.org/1999/xlink" width="100%" height="100%">

<rect x="50.0" y="30.0" width="940.0" height="467.99999999999994" stroke="#000" fill="#fff"/>
<line x1="42.0" y1="497.9999999999999" x2="50.0" y2="497.9999999999999" stroke="#000"/>
<text x="26.000000000000004" y="497.9999999999999" text-anchor="end" font-weight="bold" font-size="small" fill="#111">
0.0
</text>
<line x1="42.0" y1="429.5501707711666" x2="50.0" y2="429.5501707711666" stroke="#000"/>
<text x="26.000000000000004" y="429.5501707711666" text-anchor="end" font-weight="bold" font-size="small" fill="#111">
2.0
</text>
<line x1="42.0" y1="361.1003415423333" x2="50.0" y2="361.1003415423333" stroke="#000"/>
<text x="26.000000000000004" y="361.1003415423333" text-anchor="end" font-weight="bold" font-size="small" fill="#111">
4.0
</text>
<line x1="42.0" y1="292.6505123134999" x2="50.0" y2="292.6505123134999" stroke="#000"/>
<text x="26.000000000000004" y="292.6505123134999" text-anchor="end" font-weight="bold" font-size="small" fill="#111">
6.0
</text>
<line x1="42.0" y1="224.20068308466657" x2="50.0" y2="224.20068308466657" stroke="#000"/>
<text x="26.000000000000004" y="224.20068308466657" text-anchor="end" font-weight="bold" font-size="small" fill="#111">
8.0
</text>
<line x1="42.0" y1="155.75085385583318" x2="50.0" y2="155.75085385583318" stroke="#000"/>
<text x="26.000000000000004" y="155.75085385583318" text-anchor="end" font-weight="bold" font-size="small" fill="#111">
10.0
</text>
<line x1="178.0" y1="54.60000000000001" x2="298.0" y2="54.60000000000001" stroke="#648FFF" stroke-width="2"/>
<text x="238.0" y="49.500000000000014" font-size="small" text-anchor="middle" font-weight="bold" fill="#000">
CRuby 3.2.0dev
</text>
<rect x="459.9999999999999" y="35.400000000000006" width="120.0" height="19.2" fill="#785EF0" stroke="none"/>
<text x="519.9999999999999" y="49.500000000000014" font-size="small" text-anchor="middle" font-weight="bold" fill="#fff" style="text-shadow: 0 0 1px #000;">
MJIT
</text>
<rect x="742.0" y="35.400000000000006" width="120.0" height="19.2" fill="#FFB000" stroke="none"/>
<text x="801.9999999999999" y="49.500000000000014" font-size="small" text-anchor="middle" font-weight="bold" fill="#fff" style="text-shadow: 0 0 1px #000;">
YJIT 3.2.0dev
</text>
<rect x="80.3225806451613" y="441.3322023073755" width="30.32258064516129" height="56.66779769262439" fill="#785EF0" data-tooltip="1.66x baseline (MJIT)"/>
<rect x="110.64516129032258" y="304.6569628079303" width="30.32258064516129" height="193.3430371920696" fill="#FFB000" data-tooltip="5.65x baseline (YJIT 3.2.0dev)"/>
<line x1="110.64516129032258" y1="498.0" x2="110.64516129032258" y2="502.79999999999995" stroke="#000"/>
<text x="110.64516129032258" y="512.4" fill="#111" font-size="small" text-anchor="end" transform="rotate(-60, 110.64516129032258, 512.4)">
30k_ifelse
</text>
<rect x="171.29032258064512" y="411.8991814585177" width="30.32258064516129" height="86.10081854148225" fill="#785EF0" data-tooltip="2.52x baseline (MJIT)"/>
<rect x="201.61290322580643" y="297.3626035378718" width="30.32258064516129" height="200.63739646212815" fill="#FFB000" data-tooltip="5.86x baseline (YJIT 3.2.0dev)"/>
<line x1="201.61290322580643" y1="498.0" x2="201.61290322580643" y2="502.79999999999995" stroke="#000"/>
<text x="201.61290322580643" y="512.4" fill="#111" font-size="small" text-anchor="end" transform="rotate(-60, 201.61290322580643, 512.4)">
30k_methods
</text>
<rect x="262.258064516129" y="386.0136084069622" width="30.32258064516129" height="111.9863915930378" fill="#785EF0" data-tooltip="3.27x baseline (MJIT)"/>
<rect x="292.58064516129036" y="100.19999999999999" width="30.32258064516129" height="397.79999999999995" fill="#FFB000" data-tooltip="11.62x baseline (YJIT 3.2.0dev)"/>
<line x1="292.58064516129036" y1="498.0" x2="292.58064516129036" y2="502.79999999999995" stroke="#000"/>
<text x="292.58064516129036" y="512.4" fill="#111" font-size="small" text-anchor="end" transform="rotate(-60, 292.58064516129036, 512.4)">
cfunc_itself
</text>
<rect x="353.2258064516129" y="460.3426927916592" width="30.32258064516129" height="37.65730720834081" fill="#785EF0" data-tooltip="1.10x baseline (MJIT)"/>
<rect x="383.54838709677426" y="101.53718523251585" width="30.32258064516129" height="396.4628147674841" fill="#FFB000" data-tooltip="11.58x baseline (YJIT 3.2.0dev)"/>
<line x1="383.54838709677426" y1="498.0" x2="383.54838709677426" y2="502.79999999999995" stroke="#000"/>
<text x="383.54838709677426" y="512.4" fill="#111" font-size="small" text-anchor="end" transform="rotate(-60, 383.54838709677426, 512.4)">
fib
</text>
<rect x="444.1935483870968" y="460.2873357148944" width="30.32258064516129" height="37.71266428510551" fill="#785EF0" data-tooltip="1.10x baseline (MJIT)"/>
<rect x="474.51612903225816" y="102.06267418962285" width="30.32258064516129" height="395.9373258103771" fill="#FFB000" data-tooltip="11.57x baseline (YJIT 3.2.0dev)"/>
<line x1="474.5161290322581" y1="498.0" x2="474.5161290322581" y2="502.79999999999995" stroke="#000"/>
<text x="474.5161290322581" y="512.4" fill="#111" font-size="small" text-anchor="end" transform="rotate(-60, 474.5161290322581, 512.4)">
getivar
</text>
<rect x="535.1612903225806" y="460.9946189496127" width="30.32258064516129" height="37.0053810503872" fill="#785EF0" data-tooltip="1.08x baseline (MJIT)"/>
<rect x="565.4838709677418" y="104.06202404651042" width="30.32258064516129" height="393.9379759534895" fill="#FFB000" data-tooltip="11.51x baseline (YJIT 3.2.0dev)"/>
<line x1="565.4838709677418" y1="498.0" x2="565.4838709677418" y2="502.79999999999995" stroke="#000"/>
<text x="565.4838709677418" y="512.4" fill="#111" font-size="small" text-anchor="end" transform="rotate(-60, 565.4838709677418, 512.4)">
keyword_args
</text>
<rect x="626.1290322580644" y="459.8082428701724" width="30.32258064516129" height="38.19175712982749" fill="#785EF0" data-tooltip="1.12x baseline (MJIT)"/>
<rect x="656.4516129032256" y="101.51845551376407" width="30.32258064516129" height="396.48154448623586" fill="#FFB000" data-tooltip="11.58x baseline (YJIT 3.2.0dev)"/>
<line x1="656.4516129032256" y1="498.0" x2="656.4516129032256" y2="502.79999999999995" stroke="#000"/>
<text x="656.4516129032256" y="512.4" fill="#111" font-size="small" text-anchor="end" transform="rotate(-60, 656.4516129032256, 512.4)">
respond_to
</text>
<rect x="717.0967741935481" y="459.9205331629086" width="30.32258064516129" height="38.07946683709129" fill="#785EF0" data-tooltip="1.11x baseline (MJIT)"/>
<rect x="747.4193548387094" y="101.01734689666338" width="30.32258064516129" height="396.98265310333653" fill="#FFB000" data-tooltip="11.60x baseline (YJIT 3.2.0dev)"/>
<line x1="747.4193548387094" y1="498.0" x2="747.4193548387094" y2="502.79999999999995" stroke="#000"/>
<text x="747.4193548387094" y="512.4" fill="#111" font-size="small" text-anchor="end" transform="rotate(-60, 747.4193548387094, 512.4)">
setivar
</text>
<rect x="808.0645161290319" y="460.93078797337927" width="30.32258064516129" height="37.06921202662073" fill="#785EF0" data-tooltip="1.08x baseline (MJIT)"/>
<rect x="838.3870967741931" y="366.64109761152315" width="30.32258064516129" height="131.35890238847682" fill="#FFB000" data-tooltip="3.84x baseline (YJIT 3.2.0dev)"/>
<line x1="838.3870967741931" y1="498.0" x2="838.3870967741931" y2="502.79999999999995" stroke="#000"/>
<text x="838.3870967741931" y="512.4" fill="#111" font-size="small" text-anchor="end" transform="rotate(-60, 838.3870967741931, 512.4)">
str_concat
</text>
<rect x="899.0322580645156" y="449.27478251449367" width="30.32258064516129" height="48.725217485506306" fill="#785EF0" data-tooltip="1.42x baseline (MJIT)"/>
<rect x="929.3548387096769" y="197.92134271187328" width="30.32258064516129" height="300.07865728812664" fill="#FFB000" data-tooltip="8.77x baseline (YJIT 3.2.0dev)"/>
<line x1="929.3548387096769" y1="498.0" x2="929.3548387096769" y2="502.79999999999995" stroke="#000"/>
<text x="929.3548387096769" y="512.4" fill="#111" font-size="small" text-anchor="end" transform="rotate(-60, 929.3548387096769, 512.4)" font-style="italic">
geomean*
</text>
<line x1="50.0" y1="463.77508538558334" x2="990.0" y2="463.77508538558334" stroke="#648FFF" stroke-width="2"/>
</svg>