<svg viewBox="0 0 1000 600" xmlns="http://www.w3.org/2000/svg" xmlns:xlink="http://www.w3.org/1999/xlink" width="100%" height="100%">

<rect x="50.0" y="30.0" width="940.0" height="467.99999999999994" stroke="#000" fill="#fff"/>
<line x1="42.0" y1="497.9999999999999" x2="50.0" y2="497.9999999999999" stroke="#000"/>
<text x="26.000000000000004" y="497.9999999999999" text-anchor="end" font-weight="bold" font-size="small" fill="#111">
0.0
</text>
<line x1="42.0" y1="452.07140966427903" x2="50.0" y2="452.07140966427903" stroke="#000"/>
<text x="26.000000000000004" y="452.07140966427903" text-anchor="end" font-weight="bold" font-size="small" fill="#111">
0.2
</text>
<line x1="42.0" y1="406.14281932855823" x2="50.0" y2="406.14281932855823" stroke="#000"/>
<text x="26.000000000000004" y="406.14281932855823" text-anchor="end" font-weight="bold" font-size="small" fill="#111">
0.4
</text>
<line x1="42.0" y1="360.21422899283726" x2="50.0" y2="360.21422899283726" stroke="#000"/>
<text x="26.000000000000004" y="360.21422899283726" text-anchor="end" font-weight="bold" font-size="small" fill="#111">
0.6
</text>
<line x1="42.0" y1="314.28563865711646" x2="50.0" y2="314.28563865711646" stroke="#000"/>
<text x="26.000000000000004" y="314.28563865711646" text-anchor="end" font-weight="bold" font-size="small" fill="#111">
0.8
</text>
<line x1="42.0" y1="268.3570483213955" x2="50.0" y2="268.3570483213955" stroke="#000"/>
<text x="26.000000000000004" y="268.3570483213955" text-anchor="end" font-weight="bold" font-size="small" fill="#111">
1.0
</text>
<line x1="42.0" y1="222.42845798567464" x2="50.0" y2="222.42845798567464" stroke="#000"/>
<text x="26.000000000000004" y="222.42845798567464" text-anchor="end" font-weight="bold" font-size="small" fill="#111">
1.2
</text>
<line x1="42.0" y1="176.4998676499538" x2="50.0" y2="176.4998676499538" stroke="#000"/>
<text x="26.000000000000004" y="176.4998676499538" text-anchor="end" font-weight="bold" font-size="small" fill="#111">
1.4
</text>
<line x1="42.0" y1="130.57127731423293" x2="50.0" y2="130.57127731423293" stroke="#000"/>
<text x="26.000000000000004" y="130.57127731423293" text-anchor="end" font-weight="bold" font-size="small" fill="#111">
1.6
</text>
<line x1="142.75" y1="54.60000000000001" x2="262.75" y2="54.60000000000001" stroke="#648FFF" stroke-width="2"/>
<text x="202.75" y="49.500000000000014" font-size="small" text-anchor="middle" font-weight="bold" fill="#000">
CRuby 3.3.3
</text>
<rect x="354.25" y="35.400000000000006" width="120.0" height="19.2" fill="#785EF0" stroke="none"/>
<text x="414.25" y="49.500000000000014" font-size="small" text-anchor="middle" font-weight="bold" fill="#fff" style="text-shadow: 0 0 1px #000;">
CRuby 3.4.0dev
</text>
<rect x="565.75" y="35.400000000000006" width="120.0" height="19.2" fill="#FFB000" stroke="none"/>
<text x="625.7499999999999" y="49.500000000000014" font-size="small" text-anchor="middle" font-weight="bold" fill="#fff" style="text-shadow: 0 0 1px #000;">
YJIT 3.3.3
</text>
<rect x="777.25" y="35.400000000000006" width="120.0" height="19.2" fill="#DC267F" stroke="none"/>
<text x="837.2499999999999" y="49.500000000000014" font-size="small" text-anchor="middle" font-weight="bold" fill="#fff" style="text-shadow: 0 0 1px #000;">
YJIT 3.4.0dev
</text>
<rect x="65.40983606557377" y="257.3602035662189" width="15.40983606557377" height="240.63979643378102" fill="#785EF0" data-tooltip="1.05x baseline (CRuby 3.4.0dev)"/>
<rect x="80.81967213114753" y="224.23556143782102" width="15.40983606557377" height="273.7644385621789" fill="#FFB000" data-tooltip="1.19x baseline (YJIT 3.3.3)"/>
<rect x="96.2295081967213" y="213.35606106265396" width="15.40983606557377" height="284.643938937346" fill="#DC267F" data-tooltip="1.24x baseline (YJIT 3.4.0dev)"/>
<line x1="88.5245901639344" y1="498.0" x2="88.5245901639344" y2="502.79999999999995" stroke="#000"/>
<text x="88.5245901639344" y="512.4" fill="#111" font-size="small" text-anchor="end" transform="rotate(-60, 88.5245901639344, 512.4)">
activerecord
</text>
<rect x="127.04918032786883" y="256.9346258224272" width="15.40983606557377" height="241.06537417757272" fill="#785EF0" data-tooltip="1.05x baseline (CRuby 3.4.0dev)"/>
<rect x="142.4590163934426" y="269.19693232867263" width="15.40983606557377" height="228.8030676713273" fill="#FFB000" data-tooltip="1.00x baseline (YJIT 3.3.3)"/>
<rect x="157.86885245901638" y="247.78922218763236" width="15.40983606557377" height="250.2107778123676" fill="#DC267F" data-tooltip="1.09x baseline (YJIT 3.4.0dev)"/>
<line x1="150.1639344262295" y1="498.0" x2="150.1639344262295" y2="502.79999999999995" stroke="#000"/>
<text x="150.1639344262295" y="512.4" fill="#111" font-size="small" text-anchor="end" transform="rotate(-60, 150.1639344262295, 512.4)">
chunky-png
</text>
<rect x="188.68852459016395" y="254.42463806605758" width="15.40983606557377" height="243.57536193394236" fill="#785EF0" data-tooltip="1.06x baseline (CRuby 3.4.0dev)"/>
<rect x="204.0983606557377" y="262.5162247964608" width="15.40983606557377" height="235.48377520353915" fill="#FFB000" data-tooltip="1.03x baseline (YJIT 3.3.3)"/>
<rect x="219.5081967213115" y="241.692014808676" width="15.40983606557377" height="256.30798519132395" fill="#DC267F" data-tooltip="1.12x baseline (YJIT 3.4.0dev)"/>
<line x1="211.8032786885246" y1="498.0" x2="211.8032786885246" y2="502.79999999999995" stroke="#000"/>
<text x="211.8032786885246" y="512.4" fill="#111" font-size="small" text-anchor="end" transform="rotate(-60, 211.8032786885246, 512.4)">
erubi-rails
</text>
<rect x="250.32786885245906" y="246.59873707164166" width="15.40983606557377" height="251.40126292835828" fill="#785EF0" data-tooltip="1.09x baseline (CRuby 3.4.0dev)"/>
<rect x="265.7377049180328" y="105.21188121810496" width="15.40983606557377" height="392.78811878189504" fill="#FFB000" data-tooltip="1.71x baseline (YJIT 3.3.3)"/>
<rect x="281.14754098360663" y="100.19999999999999" width="15.40983606557377" height="397.79999999999995" fill="#DC267F" data-tooltip="1.73x baseline (YJIT 3.4.0dev)"/>
<line x1="273.4426229508197" y1="498.0" x2="273.4426229508197" y2="502.79999999999995" stroke="#000"/>
<text x="273.4426229508197" y="512.4" fill="#111" font-size="small" text-anchor="end" transform="rotate(-60, 273.4426229508197, 512.4)">
hexapdf
</text>
<rect x="311.96721311475414" y="260.6712294518276" width="15.40983606557377" height="237.3287705481723" fill="#785EF0" data-tooltip="1.03x baseline (CRuby 3.4.0dev)"/>
<rect x="327.37704918032796" y="233.08878857359485" width="15.40983606557377" height="264.91121142640515" fill="#FFB000" data-tooltip="1.15x baseline (YJIT 3.3.3)"/>
<rect x="342.7868852459017" y="231.49173530199624" width="15.40983606557377" height="266.50826469800364" fill="#DC267F" data-tooltip="1.16x baseline (YJIT 3.4.0dev)"/>
<line x1="335.08196721311486" y1="498.0" x2="335.08196721311486" y2="502.79999999999995" stroke="#000"/>
<text x="335.08196721311486" y="512.4" fill="#111" font-size="small" text-anchor="end" transform="rotate(-60, 335.08196721311486, 512.4)">
liquid-c
</text>
<rect x="373.6065573770493" y="239.93661898300917" width="15.40983606557377" height="258.0633810169908" fill="#785EF0" data-tooltip="1.12x baseline (CRuby 3.4.0dev)"/>
<rect x="389.01639344262304" y="236.14967949807536" width="15.40983606557377" height="261.85032050192456" fill="#FFB000" data-tooltip="1.14x baseline (YJIT 3.3.3)"/>
<rect x="404.42622950819685" y="209.42050468694103" width="15.40983606557377" height="288.57949531305894" fill="#DC267F" data-tooltip="1.26x baseline (YJIT 3.4.0dev)"/>
<line x1="396.72131147540995" y1="498.0" x2="396.72131147540995" y2="502.79999999999995" stroke="#000"/>
<text x="396.72131147540995" y="512.4" fill="#111" font-size="small" text-anchor="end" transform="rotate(-60, 396.72131147540995, 512.4)">
liquid-compile
</text>
<rect x="435.2459016393444" y="243.45015416652572" width="15.40983606557377" height="254.54984583347422" fill="#785EF0" data-tooltip="1.11x baseline (CRuby 3.4.0dev)"/>
<rect x="450.6557377049182" y="224.12823209930787" width="15.40983606557377" height="273.8717679006921" fill="#FFB000" data-tooltip="1.19x baseline (YJIT 3.3.3)"/>
<rect x="466.06557377049194" y="206.2979485399721" width="15.40983606557377" height="291.70205146002786" fill="#DC267F" data-tooltip="1.27x baseline (YJIT 3.4.0dev)"/>
<line x1="458.3606557377051" y1="498.0" x2="458.3606557377051" y2="502.79999999999995" stroke="#000"/>
<text x="458.3606557377051" y="512.4" fill="#111" font-size="small" text-anchor="end" transform="rotate(-60, 458.3606557377051, 512.4)">
liquid-render
</text>
<rect x="496.8852459016395" y="269.7873480400849" width="15.40983606557377" height="228.212651959915" fill="#785EF0" data-tooltip="0.99x baseline (CRuby 3.4.0dev)"/>
<rect x="512.2950819672133" y="218.36251859118673" width="15.40983606557377" height="279.6374814088132" fill="#FFB000" data-tooltip="1.22x baseline (YJIT 3.3.3)"/>
<rect x="527.7049180327871" y="223.74350054256672" width="15.40983606557377" height="274.2564994574332" fill="#DC267F" data-tooltip="1.19x baseline (YJIT 3.4.0dev)"/>
<line x1="520.0000000000002" y1="498.0" x2="520.0000000000002" y2="502.79999999999995" stroke="#000"/>
<text x="520.0000000000002" y="512.4" fill="#111" font-size="small" text-anchor="end" transform="rotate(-60, 520.0000000000002, 512.4)">
lobsters
</text>
<rect x="558.5245901639346" y="171.28080372156376" width="15.40983606557377" height="326.71919627843624" fill="#785EF0" data-tooltip="1.42x baseline (CRuby 3.4.0dev)"/>
<rect x="573.9344262295084" y="242.0133989128289" width="15.40983606557377" height="255.98660108717104" fill="#FFB000" data-tooltip="1.11x baseline (YJIT 3.3.3)"/>
<rect x="589.3442622950822" y="149.71750232036467" width="15.40983606557377" height="348.28249767963524" fill="#DC267F" data-tooltip="1.52x baseline (YJIT 3.4.0dev)"/>
<line x1="581.6393442622954" y1="498.0" x2="581.6393442622954" y2="502.79999999999995" stroke="#000"/>
<text x="581.6393442622954" y="512.4" fill="#111" font-size="small" text-anchor="end" transform="rotate(-60, 581.6393442622954, 512.4)">
mail
</text>
<rect x="620.1639344262297" y="248.2628454875081" width="15.40983606557377" height="249.73715451249186" fill="#785EF0" data-tooltip="1.09x baseline (CRuby 3.4.0dev)"/>
<rect x="635.5737704918035" y="249.11640454593874" width="15.40983606557377" height="248.88359545406124" fill="#FFB000" data-tooltip="1.08x baseline (YJIT 3.3.3)"/>
<rect x="650.9836065573774" y="226.10587492907993" width="15.40983606557377" height="271.89412507092004" fill="#DC267F" data-tooltip="1.18x baseline (YJIT 3.4.0dev)"/>
<line x1="643.2786885245905" y1="498.0" x2="643.2786885245905" y2="502.79999999999995" stroke="#000"/>
<text x="643.2786885245905" y="512.4" fill="#111" font-size="small" text-anchor="end" transform="rotate(-60, 643.2786885245905, 512.4)">
psych-load
</text>
<rect x="681.8032786885249" y="252.1268464003165" width="15.40983606557377" height="245.87315359968343" fill="#785EF0" data-tooltip="1.07x baseline (CRuby 3.4.0dev)"/>
<rect x="697.2131147540987" y="229.57742976677005" width="15.40983606557377" height="268.4225702332299" fill="#FFB000" data-tooltip="1.17x baseline (YJIT 3.3.3)"/>
<rect x="712.6229508196724" y="228.5498371007609" width="15.40983606557377" height="269.45016289923905" fill="#DC267F" data-tooltip="1.17x baseline (YJIT 3.4.0dev)"/>
<line x1="704.9180327868855" y1="498.0" x2="704.9180327868855" y2="502.79999999999995" stroke="#000"/>
<text x="704.9180327868855" y="512.4" fill="#111" font-size="small" text-anchor="end" transform="rotate(-60, 704.9180327868855, 512.4)">
railsbench
</text>
<rect x="743.44262295082" y="254.637317295921" width="15.40983606557377" height="243.36268270407894" fill="#785EF0" data-tooltip="1.06x baseline (CRuby 3.4.0dev)"/>
<rect x="758.8524590163937" y="168.95787253843991" width="15.40983606557377" height="329.04212746155997" fill="#FFB000" data-tooltip="1.43x baseline (YJIT 3.3.3)"/>
<rect x="774.2622950819675" y="160.70399419460028" width="15.40983606557377" height="337.2960058053996" fill="#DC267F" data-tooltip="1.47x baseline (YJIT 3.4.0dev)"/>
<line x1="766.5573770491807" y1="498.0" x2="766.5573770491807" y2="502.79999999999995" stroke="#000"/>
<text x="766.5573770491807" y="512.4" fill="#111" font-size="small" text-anchor="end" transform="rotate(-60, 766.5573770491807, 512.4)">
rubocop
</text>
<rect x="805.081967213115" y="212.74723357893666" width="15.40983606557377" height="285.25276642106326" fill="#785EF0" data-tooltip="1.24x baseline (CRuby 3.4.0dev)"/>
<rect x="820.4918032786888" y="239.0205146966662" width="15.40983606557377" height="258.9794853033337" fill="#FFB000" data-tooltip="1.13x baseline (YJIT 3.3.3)"/>
<rect x="835.9016393442627" y="184.97598832316874" width="15.40983606557377" height="313.0240116768312" fill="#DC267F" data-tooltip="1.36x baseline (YJIT 3.4.0dev)"/>
<line x1="828.1967213114758" y1="498.0" x2="828.1967213114758" y2="502.79999999999995" stroke="#000"/>
<text x="828.1967213114758" y="512.4" fill="#111" font-size="small" text-anchor="end" transform="rotate(-60, 828.1967213114758, 512.4)">
ruby-lsp
</text>
<rect x="866.7213114754102" y="247.75161406069313" width="15.40983606557377" height="250.2483859393068" fill="#785EF0" data-tooltip="1.09x baseline (CRuby 3.4.0dev)"/>
<rect x="882.131147540984" y="238.3407739356559" width="15.40983606557377" height="259.65922606434407" fill="#FFB000" data-tooltip="1.13x baseline (YJIT 3.3.3)"/>
<rect x="897.5409836065578" y="225.639215204805" width="15.40983606557377" height="272.36078479519495" fill="#DC267F" data-tooltip="1.19x baseline (YJIT 3.4.0dev)"/>
<line x1="889.836065573771" y1="498.0" x2="889.836065573771" y2="502.79999999999995" stroke="#000"/>
<text x="889.836065573771" y="512.4" fill="#111" font-size="small" text-anchor="end" transform="rotate(-60, 889.836065573771, 512.4)">
sequel
</text>
<rect x="928.3606557377053" y="244.99046315194212" width="15.40983606557377" height="253.00953684805782" fill="#785EF0" data-tooltip="1.10x baseline (CRuby 3.4.0dev)"/>
<rect x="943.7704918032791" y="226.79322564951136" width="15.40983606557377" height="271.20677435048856" fill="#FFB000" data-tooltip="1.18x baseline (YJIT 3.3.3)"/>
<rect x="959.1803278688528" y="205.98603079682306" width="15.40983606557377" height="292.0139692031769" fill="#DC267F" data-tooltip="1.27x baseline (YJIT 3.4.0dev)"/>
<line x1="951.4754098360661" y1="498.0" x2="951.4754098360661" y2="502.79999999999995" stroke="#000"/>
<text x="951.4754098360661" y="512.4" fill="#111" font-size="small" text-anchor="end" transform="rotate(-60, 951.4754098360661, 512.4)" font-style="italic">
geomean*
</text>
<line x1="50.0" y1="268.3570483213955" x2="990.0" y2="268.3570483213955" stroke="#648FFF" stroke-width="2"/>
<rect x="67.23483606557377" y="243.2002035662189" width="17.85" height="7.2" transform="rotate(-60, 75.11475409836066, 249.8602035662189)" fill="#fffa"/>
<text x="67.40983606557377" y="249.8602035662189" fill="#111" font-size="0.5em" text-anchor="start" textLength="17.5" transform="rotate(-60, 75.11475409836066, 249.8602035662189)" style="text-shadow: 0 0 1px #fff;">
1.05
</text>
<rect x="82.64467213114754" y="210.07556143782102" width="17.85" height="7.2" transform="rotate(-60, 90.52459016393442, 216.73556143782102)" fill="#fffa"/>
<text x="82.81967213114753" y="216.73556143782102" fill="#111" font-size="0.5em" text-anchor="start" textLength="17.5" transform="rotate(-60, 90.52459016393442, 216.73556143782102)" style="text-shadow: 0 0 1px #fff;">
1.19
</text>
<rect x="98.0545081967213" y="199.19606106265394" width="17.85" height="7.2" transform="rotate(-60, 105.93442622950819, 205.85606106265396)" fill="#fffa"/>
<text x="98.2295081967213" y="205.85606106265396" fill="#111" font-size="0.5em" text-anchor="start" textLength="17.5" transform="rotate(-60, 105.93442622950819, 205.85606106265396)" style="text-shadow: 0 0 1px #fff;">
1.24
</text>
<rect x="128.87418032786883" y="242.77462582242723" width="17.85" height="7.2" transform="rotate(-60, 136.75409836065572, 249.43462582242722)" fill="#fffa"/>
<text x="129.04918032786884" y="249.43462582242722" fill="#111" font-size="0.5em" text-anchor="start" textLength="17.5" transform="rotate(-60, 136.75409836065572, 249.43462582242722)" style="text-shadow: 0 0 1px #fff;">
1.05
</text>
<rect x="144.2840163934426" y="255.03693232867263" width="17.85" height="7.2" transform="rotate(-60, 152.1639344262295, 261.69693232867263)" fill="#fffa"/>
<text x="144.4590163934426" y="261.69693232867263" fill="#111" font-size="0.5em" text-anchor="start" textLength="17.5" transform="rotate(-60, 152.1639344262295, 261.69693232867263)" style="text-shadow: 0 0 1px #fff;">
1.00
</text>
<rect x="159.69385245901637" y="233.62922218763237" width="17.85" height="7.2" transform="rotate(-60, 167.5737704918033, 240.28922218763236)" fill="#fffa"/>
<text x="159.86885245901638" y="240.28922218763236" fill="#111" font-size="0.5em" text-anchor="start" textLength="17.5" transform="rotate(-60, 167.5737704918033, 240.28922218763236)" style="text-shadow: 0 0 1px #fff;">
1.09
</text>
<rect x="190.51352459016394" y="240.26463806605756" width="17.85" height="7.2" transform="rotate(-60, 198.39344262295083, 246.92463806605755)" fill="#fffa"/>
<text x="190.68852459016395" y="246.92463806605755" fill="#111" font-size="0.5em" text-anchor="start" textLength="17.5" transform="rotate(-60, 198.39344262295083, 246.92463806605755)" style="text-shadow: 0 0 1px #fff;">
1.06
</text>
<rect x="205.92336065573772" y="248.35622479646076" width="17.85" height="7.2" transform="rotate(-60, 213.8032786885246, 255.0162247964608)" fill="#fffa"/>
<text x="206.09836065573774" y="255.0162247964608" fill="#111" font-size="0.5em" text-anchor="start" textLength="17.5" transform="rotate(-60, 213.8032786885246, 255.0162247964608)" style="text-shadow: 0 0 1px #fff;">
1.03
</text>
<rect x="221.33319672131148" y="227.532014808676" width="17.85" height="7.2" transform="rotate(-60, 229.2131147540984, 234.192014808676)" fill="#fffa"/>
<text x="221.5081967213115" y="234.192014808676" fill="#111" font-size="0.5em" text-anchor="start" textLength="17.5" transform="rotate(-60, 229.2131147540984, 234.192014808676)" style="text-shadow: 0 0 1px #fff;">
1.12
</text>
<rect x="252.15286885245908" y="232.43873707164167" width="17.85" height="7.2" transform="rotate(-60, 260.03278688524597, 239.09873707164166)" fill="#fffa"/>
<text x="252.32786885245906" y="239.09873707164166" fill="#111" font-size="0.5em" text-anchor="start" textLength="17.5" transform="rotate(-60, 260.03278688524597, 239.09873707164166)" style="text-shadow: 0 0 1px #fff;">
1.09
</text>
<rect x="267.56270491803286" y="91.05188121810495" width="17.85" height="7.2" transform="rotate(-60, 275.4426229508197, 97.71188121810496)" fill="#fffa"/>
<text x="267.7377049180328" y="97.71188121810496" fill="#111" font-size="0.5em" text-anchor="start" textLength="17.5" transform="rotate(-60, 275.4426229508197, 97.71188121810496)" style="text-shadow: 0 0 1px #fff;">
1.71
</text>
<rect x="282.9725409836066" y="86.03999999999998" width="17.85" height="7.2" transform="rotate(-60, 290.8524590163935, 92.69999999999999)" fill="#fffa"/>
<text x="283.14754098360663" y="92.69999999999999" fill="#111" font-size="0.5em" text-anchor="start" textLength="17.5" transform="rotate(-60, 290.8524590163935, 92.69999999999999)" style="text-shadow: 0 0 1px #fff;">
1.73
</text>
<rect x="313.7922131147542" y="246.51122945182763" width="17.85" height="7.2" transform="rotate(-60, 321.67213114754105, 253.17122945182763)" fill="#fffa"/>
<text x="313.96721311475414" y="253.17122945182763" fill="#111" font-size="0.5em" text-anchor="start" textLength="17.5" transform="rotate(-60, 321.67213114754105, 253.17122945182763)" style="text-shadow: 0 0 1px #fff;">
1.03
</text>
<rect x="329.20204918032795" y="218.92878857359486" width="17.85" height="7.2" transform="rotate(-60, 337.08196721311486, 225.58878857359485)" fill="#fffa"/>
<text x="329.37704918032796" y="225.58878857359485" fill="#111" font-size="0.5em" text-anchor="start" textLength="17.5" transform="rotate(-60, 337.08196721311486, 225.58878857359485)" style="text-shadow: 0 0 1px #fff;">
1.15
</text>
<rect x="344.61188524590176" y="217.33173530199625" width="17.85" height="7.2" transform="rotate(-60, 352.4918032786886, 223.99173530199624)" fill="#fffa"/>
<text x="344.7868852459017" y="223.99173530199624" fill="#111" font-size="0.5em" text-anchor="start" textLength="17.5" transform="rotate(-60, 352.4918032786886, 223.99173530199624)" style="text-shadow: 0 0 1px #fff;">
1.16
</text>
<rect x="375.43155737704933" y="225.77661898300917" width="17.85" height="7.2" transform="rotate(-60, 383.3114754098362, 232.43661898300917)" fill="#fffa"/>
<text x="375.6065573770493" y="232.43661898300917" fill="#111" font-size="0.5em" text-anchor="start" textLength="17.5" transform="rotate(-60, 383.3114754098362, 232.43661898300917)" style="text-shadow: 0 0 1px #fff;">
1.12
</text>
<rect x="390.8413934426231" y="221.98967949807536" width="17.85" height="7.2" transform="rotate(-60, 398.72131147540995, 228.64967949807536)" fill="#fffa"/>
<text x="391.01639344262304" y="228.64967949807536" fill="#111" font-size="0.5em" text-anchor="start" textLength="17.5" transform="rotate(-60, 398.72131147540995, 228.64967949807536)" style="text-shadow: 0 0 1px #fff;">
1.14
</text>
<rect x="406.25122950819684" y="195.260504686941" width="17.85" height="7.2" transform="rotate(-60, 414.13114754098376, 201.92050468694103)" fill="#fffa"/>
<text x="406.42622950819685" y="201.92050468694103" fill="#111" font-size="0.5em" text-anchor="start" textLength="17.5" transform="rotate(-60, 414.13114754098376, 201.92050468694103)" style="text-shadow: 0 0 1px #fff;">
1.26
</text>
<rect x="437.0709016393444" y="229.2901541665257" width="17.85" height="7.2" transform="rotate(-60, 444.9508196721313, 235.9501541665257)" fill="#fffa"/>
<text x="437.2459016393444" y="235.9501541665257" fill="#111" font-size="0.5em" text-anchor="start" textLength="17.5" transform="rotate(-60, 444.9508196721313, 235.9501541665257)" style="text-shadow: 0 0 1px #fff;">
1.11
</text>
<rect x="452.4807377049182" y="209.96823209930784" width="17.85" height="7.2" transform="rotate(-60, 460.3606557377051, 216.62823209930784)" fill="#fffa"/>
<text x="452.6557377049182" y="216.62823209930784" fill="#111" font-size="0.5em" text-anchor="start" textLength="17.5" transform="rotate(-60, 460.3606557377051, 216.62823209930784)" style="text-shadow: 0 0 1px #fff;">
1.19
</text>
<rect x="467.890573770492" y="192.13794853997211" width="17.85" height="7.2" transform="rotate(-60, 475.77049180327884, 198.7979485399721)" fill="#fffa"/>
<text x="468.06557377049194" y="198.7979485399721" fill="#111" font-size="0.5em" text-anchor="start" textLength="17.5" transform="rotate(-60, 475.77049180327884, 198.7979485399721)" style="text-shadow: 0 0 1px #fff;">
1.27
</text>
<rect x="498.71024590163955" y="255.6273480400849" width="17.85" height="7.2" transform="rotate(-60, 506.59016393442636, 262.2873480400849)" fill="#fffa"/>
<text x="498.8852459016395" y="262.2873480400849" fill="#111" font-size="0.5em" text-anchor="start" textLength="17.5" transform="rotate(-60, 506.59016393442636, 262.2873480400849)" style="text-shadow: 0 0 1px #fff;">
0.99
</text>
<rect x="514.1200819672133" y="204.20251859118673" width="17.85" height="7.2" transform="rotate(-60, 522.0000000000001, 210.86251859118673)" fill="#fffa"/>
<text x="514.2950819672133" y="210.86251859118673" fill="#111" font-size="0.5em" text-anchor="start" textLength="17.5" transform="rotate(-60, 522.0000000000001, 210.86251859118673)" style="text-shadow: 0 0 1px #fff;">
1.22
</text>
<rect x="529.529918032787" y="209.58350054256672" width="17.85" height="7.2" transform="rotate(-60, 537.4098360655739, 216.24350054256672)" fill="#fffa"/>
<text x="529.7049180327871" y="216.24350054256672" fill="#111" font-size="0.5em" text-anchor="start" textLength="17.5" transform="rotate(-60, 537.4098360655739, 216.24350054256672)" style="text-shadow: 0 0 1px #fff;">
1.19
</text>
<rect x="560.3495901639346" y="157.12080372156376" width="17.85" height="7.2" transform="rotate(-60, 568.2295081967214, 163.78080372156376)" fill="#fffa"/>
<text x="560.5245901639346" y="163.78080372156376" fill="#111" font-size="0.5em" text-anchor="start" textLength="17.5" transform="rotate(-60, 568.2295081967214, 163.78080372156376)" style="text-shadow: 0 0 1px #fff;">
1.42
</text>
<rect x="575.7594262295083" y="227.8533989128289" width="17.85" height="7.2" transform="rotate(-60, 583.6393442622953, 234.5133989128289)" fill="#fffa"/>
<text x="575.9344262295084" y="234.5133989128289" fill="#111" font-size="0.5em" text-anchor="start" textLength="17.5" transform="rotate(-60, 583.6393442622953, 234.5133989128289)" style="text-shadow: 0 0 1px #fff;">
1.11
</text>
<rect x="591.1692622950821" y="135.55750232036468" width="17.85" height="7.2" transform="rotate(-60, 599.0491803278691, 142.21750232036467)" fill="#fffa"/>
<text x="591.3442622950822" y="142.21750232036467" fill="#111" font-size="0.5em" text-anchor="start" textLength="17.5" transform="rotate(-60, 599.0491803278691, 142.21750232036467)" style="text-shadow: 0 0 1px #fff;">
1.52
</text>
<rect x="621.9889344262297" y="234.1028454875081" width="17.85" height="7.2" transform="rotate(-60, 629.8688524590166, 240.7628454875081)" fill="#fffa"/>
<text x="622.1639344262297" y="240.7628454875081" fill="#111" font-size="0.5em" text-anchor="start" textLength="17.5" transform="rotate(-60, 629.8688524590166, 240.7628454875081)" style="text-shadow: 0 0 1px #fff;">
1.09
</text>
<rect x="637.3987704918035" y="234.9564045459387" width="17.85" height="7.2" transform="rotate(-60, 645.2786885245904, 241.61640454593874)" fill="#fffa"/>
<text x="637.5737704918035" y="241.61640454593874" fill="#111" font-size="0.5em" text-anchor="start" textLength="17.5" transform="rotate(-60, 645.2786885245904, 241.61640454593874)" style="text-shadow: 0 0 1px #fff;">
1.08
</text>
<rect x="652.8086065573773" y="211.94587492907993" width="17.85" height="7.2" transform="rotate(-60, 660.6885245901641, 218.60587492907993)" fill="#fffa"/>
<text x="652.9836065573774" y="218.60587492907993" fill="#111" font-size="0.5em" text-anchor="start" textLength="17.5" transform="rotate(-60, 660.6885245901641, 218.60587492907993)" style="text-shadow: 0 0 1px #fff;">
1.18
</text>
<rect x="683.6282786885248" y="237.9668464003165" width="17.85" height="7.2" transform="rotate(-60, 691.5081967213117, 244.6268464003165)" fill="#fffa"/>
<text x="683.8032786885249" y="244.6268464003165" fill="#111" font-size="0.5em" text-anchor="start" textLength="17.5" transform="rotate(-60, 691.5081967213117, 244.6268464003165)" style="text-shadow: 0 0 1px #fff;">
1.07
</text>
<rect x="699.0381147540986" y="215.41742976677003" width="17.85" height="7.2" transform="rotate(-60, 706.9180327868854, 222.07742976677005)" fill="#fffa"/>
<text x="699.2131147540987" y="222.07742976677005" fill="#111" font-size="0.5em" text-anchor="start" textLength="17.5" transform="rotate(-60, 706.9180327868854, 222.07742976677005)" style="text-shadow: 0 0 1px #fff;">
1.17
</text>
<rect x="714.4479508196724" y="214.3898371007609" width="17.85" height="7.2" transform="rotate(-60, 722.3278688524592, 221.0498371007609)" fill="#fffa"/>
<text x="714.6229508196724" y="221.0498371007609" fill="#111" font-size="0.5em" text-anchor="start" textLength="17.5" transform="rotate(-60, 722.3278688524592, 221.0498371007609)" style="text-shadow: 0 0 1px #fff;">
1.17
</text>
<rect x="745.2676229508199" y="240.477317295921" width="17.85" height="7.2" transform="rotate(-60, 753.1475409836069, 247.137317295921)" fill="#fffa"/>
<text x="745.44262295082" y="247.137317295921" fill="#111" font-size="0.5em" text-anchor="start" textLength="17.5" transform="rotate(-60, 753.1475409836069, 247.137317295921)" style="text-shadow: 0 0 1px #fff;">
1.06
</text>
<rect x="760.6774590163938" y="154.79787253843992" width="17.85" height="7.2" transform="rotate(-60, 768.5573770491806, 161.45787253843991)" fill="#fffa"/>
<text x="760.8524590163937" y="161.45787253843991" fill="#111" font-size="0.5em" text-anchor="start" textLength="17.5" transform="rotate(-60, 768.5573770491806, 161.45787253843991)" style="text-shadow: 0 0 1px #fff;">
1.43
</text>
<rect x="776.0872950819675" y="146.5439941946003" width="17.85" height="7.2" transform="rotate(-60, 783.9672131147544, 153.20399419460028)" fill="#fffa"/>
<text x="776.2622950819675" y="153.20399419460028" fill="#111" font-size="0.5em" text-anchor="start" textLength="17.5" transform="rotate(-60, 783.9672131147544, 153.20399419460028)" style="text-shadow: 0 0 1px #fff;">
1.47
</text>
<rect x="806.9069672131151" y="198.58723357893666" width="17.85" height="7.2" transform="rotate(-60, 814.7868852459019, 205.24723357893666)" fill="#fffa"/>
<text x="807.0819672131151" y="205.24723357893666" fill="#111" font-size="0.5em" text-anchor="start" textLength="17.5" transform="rotate(-60, 814.7868852459019, 205.24723357893666)" style="text-shadow: 0 0 1px #fff;">
1.24
</text>
<rect x="822.3168032786888" y="224.8605146966662" width="17.85" height="7.2" transform="rotate(-60, 830.1967213114757, 231.5205146966662)" fill="#fffa"/>
<text x="822.4918032786888" y="231.5205146966662" fill="#111" font-size="0.5em" text-anchor="start" textLength="17.5" transform="rotate(-60, 830.1967213114757, 231.5205146966662)" style="text-shadow: 0 0 1px #fff;">
1.13
</text>
<rect x="837.7266393442626" y="170.81598832316874" width="17.85" height="7.2" transform="rotate(-60, 845.6065573770495, 177.47598832316874)" fill="#fffa"/>
<text x="837.9016393442627" y="177.47598832316874" fill="#111" font-size="0.5em" text-anchor="start" textLength="17.5" transform="rotate(-60, 845.6065573770495, 177.47598832316874)" style="text-shadow: 0 0 1px #fff;">
1.36
</text>
<rect x="868.5463114754102" y="233.59161406069313" width="17.85" height="7.2" transform="rotate(-60, 876.426229508197, 240.25161406069313)" fill="#fffa"/>
<text x="868.7213114754102" y="240.25161406069313" fill="#111" font-size="0.5em" text-anchor="start" textLength="17.5" transform="rotate(-60, 876.426229508197, 240.25161406069313)" style="text-shadow: 0 0 1px #fff;">
1.09
</text>
<rect x="883.9561475409839" y="224.18077393565588" width="17.85" height="7.2" transform="rotate(-60, 891.8360655737708, 230.84077393565587)" fill="#fffa"/>
<text x="884.131147540984" y="230.84077393565587" fill="#111" font-size="0.5em" text-anchor="start" textLength="17.5" transform="rotate(-60, 891.8360655737708, 230.84077393565587)" style="text-shadow: 0 0 1px #fff;">
1.13
</text>
<rect x="899.3659836065577" y="211.479215204805" width="17.85" height="7.2" transform="rotate(-60, 907.2459016393447, 218.139215204805)" fill="#fffa"/>
<text x="899.5409836065578" y="218.139215204805" fill="#111" font-size="0.5em" text-anchor="start" textLength="17.5" transform="rotate(-60, 907.2459016393447, 218.139215204805)" style="text-shadow: 0 0 1px #fff;">
1.19
</text>
<rect x="930.1856557377052" y="230.83046315194213" width="17.85" height="7.2" transform="rotate(-60, 938.0655737704922, 237.49046315194212)" fill="#fffa"/>
<text x="930.3606557377053" y="237.49046315194212" fill="#111" font-size="0.5em" text-anchor="start" textLength="17.5" transform="rotate(-60, 938.0655737704922, 237.49046315194212)" style="text-shadow: 0 0 1px #fff;">
1.10
</text>
<rect x="945.5954918032791" y="212.63322564951136" width="17.85" height="7.2" transform="rotate(-60, 953.475409836066, 219.29322564951136)" fill="#fffa"/>
<text x="945.7704918032791" y="219.29322564951136" fill="#111" font-size="0.5em" text-anchor="start" textLength="17.5" transform="rotate(-60, 953.475409836066, 219.29322564951136)" style="text-shadow: 0 0 1px #fff;">
1.18
</text>
<rect x="961.0053278688529" y="191.82603079682306" width="17.85" height="7.2" transform="rotate(-60, 968.8852459016397, 198.48603079682306)" fill="#fffa"/>
<text x="961.1803278688528" y="198.48603079682306" fill="#111" font-size="0.5em" text-anchor="start" textLength="17.5" transform="rotate(-60, 968.8852459016397, 198.48603079682306)" style="text-shadow: 0 0 1px #fff;">
1.27
</text>
</svg>