<svg viewBox="0 0 1000 600" xmlns="http://www.w3.org/2000/svg" xmlns:xlink="http://www.w3.org/1999/xlink" width="100%" height="100%">

<rect x="50.0" y="30.0" width="940.0" height="467.99999999999994" stroke="#000" fill="#fff"/>
<line x1="42.0" y1="497.9999999999999" x2="50.0" y2="497.9999999999999" stroke="#000"/>
<text x="26.000000000000004" y="497.9999999999999" text-anchor="end" font-weight="bold" font-size="small" fill="#111">
0.0
</text>
<line x1="42.0" y1="401.4770655029235" x2="50.0" y2="401.4770655029235" stroke="#000"/>
<text x="26.000000000000004" y="401.4770655029235" text-anchor="end" font-weight="bold" font-size="small" fill="#111">
0.5
</text>
<line x1="42.0" y1="304.95413100584693" x2="50.0" y2="304.95413100584693" stroke="#000"/>
<text x="26.000000000000004" y="304.95413100584693" text-anchor="end" font-weight="bold" font-size="small" fill="#111">
1.0
</text>
<line x1="42.0" y1="208.43119650877046" x2="50.0" y2="208.43119650877046" stroke="#000"/>
<text x="26.000000000000004" y="208.43119650877046" text-anchor="end" font-weight="bold" font-size="small" fill="#111">
1.5
</text>
<line x1="42.0" y1="111.90826201169395" x2="50.0" y2="111.90826201169395" stroke="#000"/>
<text x="26.000000000000004" y="111.90826201169395" text-anchor="end" font-weight="bold" font-size="small" fill="#111">
2.0
</text>
<line x1="248.5" y1="54.60000000000001" x2="368.5" y2="54.60000000000001" stroke="#648FFF" stroke-width="2"/>
<text x="308.5" y="49.500000000000014" font-size="small" text-anchor="middle" font-weight="bold" fill="#000">
CRuby 3.4.0dev
</text>
<rect x="671.5" y="35.400000000000006" width="120.0" height="19.2" fill="#785EF0" stroke="none"/>
<text x="731.4999999999999" y="49.500000000000014" font-size="small" text-anchor="middle" font-weight="bold" fill="#fff" style="text-shadow: 0 0 1px #000;">
YJIT 3.4.0dev
</text>
<rect x="80.3225806451613" y="286.16694521250497" width="30.32258064516129" height="211.83305478749497" fill="#785EF0" data-tooltip="1.10x baseline (YJIT 3.4.0dev)"/>
<line x1="95.48387096774194" y1="498.0" x2="95.48387096774194" y2="502.79999999999995" stroke="#000"/>
<text x="95.48387096774194" y="512.4" fill="#111" font-size="small" text-anchor="end" transform="rotate(-60, 95.48387096774194, 512.4)">
activerecord
</text>
<rect x="140.96774193548387" y="293.92748244048" width="30.32258064516129" height="204.07251755951995" fill="#785EF0" data-tooltip="1.06x baseline (YJIT 3.4.0dev)"/>
<line x1="156.12903225806448" y1="498.0" x2="156.12903225806448" y2="502.79999999999995" stroke="#000"/>
<text x="156.12903225806448" y="512.4" fill="#111" font-size="small" text-anchor="end" transform="rotate(-60, 156.12903225806448, 512.4)">
chunky-png
</text>
<rect x="201.61290322580643" y="295.62841234808707" width="30.32258064516129" height="202.37158765191288" fill="#785EF0" data-tooltip="1.05x baseline (YJIT 3.4.0dev)"/>
<line x1="216.7741935483871" y1="498.0" x2="216.7741935483871" y2="502.79999999999995" stroke="#000"/>
<text x="216.7741935483871" y="512.4" fill="#111" font-size="small" text-anchor="end" transform="rotate(-60, 216.7741935483871, 512.4)">
erubi-rails
</text>
<rect x="262.258064516129" y="100.19999999999999" width="30.32258064516129" height="397.79999999999995" fill="#785EF0" data-tooltip="2.06x baseline (YJIT 3.4.0dev)"/>
<line x1="277.4193548387097" y1="498.0" x2="277.4193548387097" y2="502.79999999999995" stroke="#000"/>
<text x="277.4193548387097" y="512.4" fill="#111" font-size="small" text-anchor="end" transform="rotate(-60, 277.4193548387097, 512.4)">
hexapdf
</text>
<rect x="322.90322580645164" y="284.82428171962096" width="30.32258064516129" height="213.175718280379" fill="#785EF0" data-tooltip="1.10x baseline (YJIT 3.4.0dev)"/>
<line x1="338.0645161290323" y1="498.0" x2="338.0645161290323" y2="502.79999999999995" stroke="#000"/>
<text x="338.0645161290323" y="512.4" fill="#111" font-size="small" text-anchor="end" transform="rotate(-60, 338.0645161290323, 512.4)">
liquid-c
</text>
<rect x="383.54838709677426" y="286.4691408111318" width="30.32258064516129" height="211.53085918886813" fill="#785EF0" data-tooltip="1.10x baseline (YJIT 3.4.0dev)"/>
<line x1="398.70967741935493" y1="498.0" x2="398.70967741935493" y2="502.79999999999995" stroke="#000"/>
<text x="398.70967741935493" y="512.4" fill="#111" font-size="small" text-anchor="end" transform="rotate(-60, 398.70967741935493, 512.4)">
liquid-compile
</text>
<rect x="444.1935483870968" y="279.8617929329579" width="30.32258064516129" height="218.13820706704206" fill="#785EF0" data-tooltip="1.13x baseline (YJIT 3.4.0dev)"/>
<line x1="459.35483870967755" y1="498.0" x2="459.35483870967755" y2="502.79999999999995" stroke="#000"/>
<text x="459.35483870967755" y="512.4" fill="#111" font-size="small" text-anchor="end" transform="rotate(-60, 459.35483870967755, 512.4)">
liquid-render
</text>
<rect x="504.8387096774194" y="272.4036047313882" width="30.32258064516129" height="225.59639526861176" fill="#785EF0" data-tooltip="1.17x baseline (YJIT 3.4.0dev)"/>
<line x1="520.0" y1="498.0" x2="520.0" y2="502.79999999999995" stroke="#000"/>
<text x="520.0" y="512.4" fill="#111" font-size="small" text-anchor="end" transform="rotate(-60, 520.0, 512.4)">
lobsters
</text>
<rect x="565.4838709677418" y="291.8778802134644" width="30.32258064516129" height="206.1221197865356" fill="#785EF0" data-tooltip="1.07x baseline (YJIT 3.4.0dev)"/>
<line x1="580.6451612903226" y1="498.0" x2="580.6451612903226" y2="502.79999999999995" stroke="#000"/>
<text x="580.6451612903226" y="512.4" fill="#111" font-size="small" text-anchor="end" transform="rotate(-60, 580.6451612903226, 512.4)">
mail
</text>
<rect x="626.1290322580644" y="304.82874940658684" width="30.32258064516129" height="193.1712505934131" fill="#785EF0" data-tooltip="1.00x baseline (YJIT 3.4.0dev)"/>
<line x1="641.290322580645" y1="498.0" x2="641.290322580645" y2="502.79999999999995" stroke="#000"/>
<text x="641.290322580645" y="512.4" fill="#111" font-size="small" text-anchor="end" transform="rotate(-60, 641.290322580645, 512.4)">
psych-load
</text>
<rect x="686.7741935483868" y="293.0352512925599" width="30.32258064516129" height="204.96474870744004" fill="#785EF0" data-tooltip="1.06x baseline (YJIT 3.4.0dev)"/>
<line x1="701.9354838709675" y1="498.0" x2="701.9354838709675" y2="502.79999999999995" stroke="#000"/>
<text x="701.9354838709675" y="512.4" fill="#111" font-size="small" text-anchor="end" transform="rotate(-60, 701.9354838709675, 512.4)">
railsbench
</text>
<rect x="747.4193548387094" y="240.85985039118742" width="30.32258064516129" height="257.1401496088125" fill="#785EF0" data-tooltip="1.33x baseline (YJIT 3.4.0dev)"/>
<line x1="762.58064516129" y1="498.0" x2="762.58064516129" y2="502.79999999999995" stroke="#000"/>
<text x="762.58064516129" y="512.4" fill="#111" font-size="small" text-anchor="end" transform="rotate(-60, 762.58064516129, 512.4)">
rubocop
</text>
<rect x="808.0645161290319" y="294.4944988489653" width="30.32258064516129" height="203.50550115103468" fill="#785EF0" data-tooltip="1.05x baseline (YJIT 3.4.0dev)"/>
<line x1="823.2258064516125" y1="498.0" x2="823.2258064516125" y2="502.79999999999995" stroke="#000"/>
<text x="823.2258064516125" y="512.4" fill="#111" font-size="small" text-anchor="end" transform="rotate(-60, 823.2258064516125, 512.4)">
ruby-lsp
</text>
<rect x="868.7096774193543" y="290.5913480123985" width="30.32258064516129" height="207.40865198760144" fill="#785EF0" data-tooltip="1.07x baseline (YJIT 3.4.0dev)"/>
<line x1="883.8709677419349" y1="498.0" x2="883.8709677419349" y2="502.79999999999995" stroke="#000"/>
<text x="883.8709677419349" y="512.4" fill="#111" font-size="small" text-anchor="end" transform="rotate(-60, 883.8709677419349, 512.4)">
sequel
</text>
<rect x="929.3548387096769" y="276.5052864890885" width="30.32258064516129" height="221.4947135109114" fill="#785EF0" data-tooltip="1.15x baseline (YJIT 3.4.0dev)"/>
<line x1="944.5161290322575" y1="498.0" x2="944.5161290322575" y2="502.79999999999995" stroke="#000"/>
<text x="944.5161290322575" y="512.4" fill="#111" font-size="small" text-anchor="end" transform="rotate(-60, 944.5161290322575, 512.4)" font-style="italic">
geomean*
</text>
<line x1="50.0" y1="304.95413100584693" x2="990.0" y2="304.95413100584693" stroke="#648FFF" stroke-width="2"/>
</svg>