<svg viewBox="0 0 1000 600" xmlns="http://www.w3.org/2000/svg" xmlns:xlink="http://www.w3.org/1999/xlink" width="100%" height="100%">

<rect x="50.0" y="30.0" width="940.0" height="467.99999999999994" stroke="#000" fill="#EEE"/>
<line x1="42.0" y1="497.9999999999999" x2="50.0" y2="497.9999999999999" stroke="#000"/>
<text x="26.000000000000004" y="497.9999999999999" text-anchor="end" font-weight="bold" font-size="small" fill="#111">
0.0
</text>
<line x1="42.0" y1="406.2469725052211" x2="50.0" y2="406.2469725052211" stroke="#000"/>
<text x="26.000000000000004" y="406.2469725052211" text-anchor="end" font-weight="bold" font-size="small" fill="#111">
5.0
</text>
<line x1="42.0" y1="314.4939450104423" x2="50.0" y2="314.4939450104423" stroke="#000"/>
<text x="26.000000000000004" y="314.4939450104423" text-anchor="end" font-weight="bold" font-size="small" fill="#111">
10.0
</text>
<line x1="42.0" y1="222.74091751566345" x2="50.0" y2="222.74091751566345" stroke="#000"/>
<text x="26.000000000000004" y="222.74091751566345" text-anchor="end" font-weight="bold" font-size="small" fill="#111">
15.0
</text>
<line x1="42.0" y1="130.98789002088466" x2="50.0" y2="130.98789002088466" stroke="#000"/>
<text x="26.000000000000004" y="130.98789002088466" text-anchor="end" font-weight="bold" font-size="small" fill="#111">
20.0
</text>
<rect x="268.5" y="36.00000000000001" width="80.0" height="18.0" fill="#7070f8" stroke="#888"/>
<text x="308.5" y="52.50000000000001" font-size="small" text-anchor="middle" font-weight="bold" fill="#EEE">
No JIT
</text>
<rect x="691.4999999999999" y="36.00000000000001" width="80.0" height="18.0" fill="orange" stroke="#888"/>
<text x="731.4999999999999" y="52.50000000000001" font-size="small" text-anchor="middle" font-weight="bold" fill="#EEE">
YJIT
</text>
<rect x="97.0" y="479.64939450104424" width="6.130434782608696" height="18.350605498955765" fill="#7070f8" data-tooltip="1.00x baseline speed (No JIT)"/>
<line x1="97.0" y1="479.58992086016247" x2="103.13043478260869" y2="479.58992086016247" stroke="#000"/>
<line x1="97.0" y1="479.708868141926" x2="103.13043478260869" y2="479.708868141926" stroke="#000"/>
<line x1="100.06521739130434" y1="479.58992086016247" x2="100.06521739130434" y2="479.708868141926" stroke="#000"/>
<rect x="103.13043478260869" y="455.14792244863617" width="6.130434782608696" height="42.85207755136377" fill="orange" data-tooltip="2.34x baseline speed (YJIT)"/>
<line x1="103.13043478260869" y1="454.89328103749915" x2="109.26086956521738" y2="454.89328103749915" stroke="#000"/>
<line x1="103.13043478260869" y1="455.4025638597732" x2="109.26086956521738" y2="455.4025638597732" stroke="#000"/>
<line x1="106.19565217391303" y1="454.89328103749915" x2="106.19565217391303" y2="455.4025638597732" stroke="#000"/>
<line x1="106.19565217391305" y1="498.0" x2="106.19565217391305" y2="502.79999999999995" stroke="#000"/>
<text x="106.19565217391305" y="512.4" fill="#111" font-size="small" font-family="monospace" font-weight="bold" text-anchor="end" transform="rotate(-60, 106.19565217391305, 512.4)">
activerecord
</text>
<rect x="115.3913043478261" y="479.64939450104424" width="6.130434782608696" height="18.350605498955765" fill="#7070f8" data-tooltip="1.00x baseline speed (No JIT)"/>
<line x1="115.3913043478261" y1="479.61292145204845" x2="121.52173913043478" y2="479.61292145204845" stroke="#000"/>
<line x1="115.3913043478261" y1="479.68586755004" x2="121.52173913043478" y2="479.68586755004" stroke="#000"/>
<line x1="118.45652173913044" y1="479.61292145204845" x2="118.45652173913044" y2="479.68586755004" stroke="#000"/>
<rect x="121.52173913043478" y="465.20344413401887" width="6.130434782608696" height="32.796555865981105" fill="orange" data-tooltip="1.79x baseline speed (YJIT)"/>
<line x1="121.52173913043478" y1="465.0984709501917" x2="127.65217391304348" y2="465.0984709501917" stroke="#000"/>
<line x1="121.52173913043478" y1="465.30841731784597" x2="127.65217391304348" y2="465.30841731784597" stroke="#000"/>
<line x1="124.58695652173913" y1="465.0984709501917" x2="124.58695652173913" y2="465.30841731784597" stroke="#000"/>
<line x1="124.58695652173914" y1="498.0" x2="124.58695652173914" y2="502.79999999999995" stroke="#000"/>
<text x="124.58695652173914" y="512.4" fill="#111" font-size="small" font-family="monospace" font-weight="bold" text-anchor="end" transform="rotate(-60, 124.58695652173914, 512.4)">
chunky-png
</text>
<rect x="133.7826086956522" y="479.64939450104424" width="6.130434782608696" height="18.350605498955765" fill="#7070f8" data-tooltip="1.00x baseline speed (No JIT)"/>
<line x1="133.7826086956522" y1="479.6054897646646" x2="139.91304347826087" y2="479.6054897646646" stroke="#000"/>
<line x1="133.7826086956522" y1="479.69329923742384" x2="139.91304347826087" y2="479.69329923742384" stroke="#000"/>
<line x1="136.84782608695653" y1="479.6054897646646" x2="136.84782608695653" y2="479.69329923742384" stroke="#000"/>
<rect x="139.91304347826087" y="463.1397528846549" width="6.130434782608696" height="34.860247115345075" fill="orange" data-tooltip="1.90x baseline speed (YJIT)"/>
<line x1="139.91304347826087" y1="462.9497112616069" x2="146.04347826086956" y2="462.9497112616069" stroke="#000"/>
<line x1="139.91304347826087" y1="463.3297945077029" x2="146.04347826086956" y2="463.3297945077029" stroke="#000"/>
<line x1="142.97826086956522" y1="462.9497112616069" x2="142.97826086956522" y2="463.3297945077029" stroke="#000"/>
<line x1="142.97826086956522" y1="498.0" x2="142.97826086956522" y2="502.79999999999995" stroke="#000"/>
<text x="142.97826086956522" y="512.4" fill="#111" font-size="small" font-family="monospace" font-weight="bold" text-anchor="end" transform="rotate(-60, 142.97826086956522, 512.4)">
erubi-rails
</text>
<rect x="152.17391304347828" y="479.64939450104424" width="6.130434782608696" height="18.350605498955765" fill="#7070f8" data-tooltip="1.00x baseline speed (No JIT)"/>
<line x1="152.17391304347828" y1="479.47706317686675" x2="158.30434782608697" y2="479.47706317686675" stroke="#000"/>
<line x1="152.17391304347828" y1="479.82172582522173" x2="158.30434782608697" y2="479.82172582522173" stroke="#000"/>
<line x1="155.23913043478262" y1="479.47706317686675" x2="155.23913043478262" y2="479.82172582522173" stroke="#000"/>
<rect x="158.30434782608697" y="464.2272890220749" width="6.130434782608696" height="33.77271097792508" fill="orange" data-tooltip="1.84x baseline speed (YJIT)"/>
<line x1="158.30434782608697" y1="463.38205697472466" x2="164.43478260869566" y2="463.38205697472466" stroke="#000"/>
<line x1="158.30434782608697" y1="465.0725210694251" x2="164.43478260869566" y2="465.0725210694251" stroke="#000"/>
<line x1="161.3695652173913" y1="463.38205697472466" x2="161.3695652173913" y2="465.0725210694251" stroke="#000"/>
<line x1="161.3695652173913" y1="498.0" x2="161.3695652173913" y2="502.79999999999995" stroke="#000"/>
<text x="161.3695652173913" y="512.4" fill="#111" font-size="small" font-family="monospace" font-weight="bold" text-anchor="end" transform="rotate(-60, 161.3695652173913, 512.4)">
hexapdf
</text>
<rect x="170.56521739130437" y="479.64939450104424" width="6.130434782608696" height="18.350605498955765" fill="#7070f8" data-tooltip="1.00x baseline speed (No JIT)"/>
<line x1="170.56521739130437" y1="479.5440742898518" x2="176.69565217391306" y2="479.5440742898518" stroke="#000"/>
<line x1="170.56521739130437" y1="479.75471471223665" x2="176.69565217391306" y2="479.75471471223665" stroke="#000"/>
<line x1="173.63043478260872" y1="479.5440742898518" x2="173.63043478260872" y2="479.75471471223665" stroke="#000"/>
<rect x="176.69565217391306" y="471.75822334335777" width="6.130434782608696" height="26.241776656642188" fill="orange" data-tooltip="1.43x baseline speed (YJIT)"/>
<line x1="176.69565217391306" y1="471.51958049245815" x2="182.82608695652175" y2="471.51958049245815" stroke="#000"/>
<line x1="176.69565217391306" y1="471.99686619425745" x2="182.82608695652175" y2="471.99686619425745" stroke="#000"/>
<line x1="179.7608695652174" y1="471.51958049245815" x2="179.7608695652174" y2="471.99686619425745" stroke="#000"/>
<line x1="179.7608695652174" y1="498.0" x2="179.7608695652174" y2="502.79999999999995" stroke="#000"/>
<text x="179.7608695652174" y="512.4" fill="#111" font-size="small" font-family="monospace" font-weight="bold" text-anchor="end" transform="rotate(-60, 179.7608695652174, 512.4)">
liquid-c
</text>
<rect x="188.95652173913044" y="479.64939450104424" width="6.130434782608696" height="18.350605498955765" fill="#7070f8" data-tooltip="1.00x baseline speed (No JIT)"/>
<line x1="188.95652173913044" y1="479.5609544522464" x2="195.08695652173913" y2="479.5609544522464" stroke="#000"/>
<line x1="188.95652173913044" y1="479.7378345498421" x2="195.08695652173913" y2="479.7378345498421" stroke="#000"/>
<line x1="192.0217391304348" y1="479.5609544522464" x2="192.0217391304348" y2="479.7378345498421" stroke="#000"/>
<rect x="195.08695652173913" y="471.42617986630995" width="6.130434782608696" height="26.573820133689956" fill="orange" data-tooltip="1.45x baseline speed (YJIT)"/>
<line x1="195.08695652173913" y1="470.58725655435535" x2="201.2173913043478" y2="470.58725655435535" stroke="#000"/>
<line x1="195.08695652173913" y1="472.2651031782645" x2="201.2173913043478" y2="472.2651031782645" stroke="#000"/>
<line x1="198.1521739130435" y1="470.58725655435535" x2="198.1521739130435" y2="472.2651031782645" stroke="#000"/>
<line x1="198.1521739130435" y1="498.0" x2="198.1521739130435" y2="502.79999999999995" stroke="#000"/>
<text x="198.1521739130435" y="512.4" fill="#111" font-size="small" font-family="monospace" font-weight="bold" text-anchor="end" transform="rotate(-60, 198.1521739130435, 512.4)">
liquid-compile
</text>
<rect x="207.34782608695653" y="479.64939450104424" width="6.130434782608696" height="18.350605498955765" fill="#7070f8" data-tooltip="1.00x baseline speed (No JIT)"/>
<line x1="207.34782608695653" y1="479.5800508894701" x2="213.47826086956522" y2="479.5800508894701" stroke="#000"/>
<line x1="207.34782608695653" y1="479.7187381126183" x2="213.47826086956522" y2="479.7187381126183" stroke="#000"/>
<line x1="210.4130434782609" y1="479.5800508894701" x2="210.4130434782609" y2="479.7187381126183" stroke="#000"/>
<rect x="213.47826086956522" y="450.65163573206115" width="6.130434782608696" height="47.34836426793887" fill="orange" data-tooltip="2.58x baseline speed (YJIT)"/>
<line x1="213.47826086956522" y1="450.31397130492326" x2="219.6086956521739" y2="450.31397130492326" stroke="#000"/>
<line x1="213.47826086956522" y1="450.989300159199" x2="219.6086956521739" y2="450.989300159199" stroke="#000"/>
<line x1="216.5434782608696" y1="450.31397130492326" x2="216.5434782608696" y2="450.989300159199" stroke="#000"/>
<line x1="216.5434782608696" y1="498.0" x2="216.5434782608696" y2="502.79999999999995" stroke="#000"/>
<text x="216.5434782608696" y="512.4" fill="#111" font-size="small" font-family="monospace" font-weight="bold" text-anchor="end" transform="rotate(-60, 216.5434782608696, 512.4)">
liquid-render
</text>
<rect x="225.7391304347826" y="479.64939450104424" width="6.130434782608696" height="18.350605498955765" fill="#7070f8" data-tooltip="1.00x baseline speed (No JIT)"/>
<line x1="225.7391304347826" y1="479.4310783231442" x2="231.8695652173913" y2="479.4310783231442" stroke="#000"/>
<line x1="225.7391304347826" y1="479.86771067894426" x2="231.8695652173913" y2="479.86771067894426" stroke="#000"/>
<line x1="228.80434782608697" y1="479.4310783231442" x2="228.80434782608697" y2="479.86771067894426" stroke="#000"/>
<rect x="231.8695652173913" y="469.83012183499943" width="6.130434782608696" height="28.169878165000522" fill="orange" data-tooltip="1.54x baseline speed (YJIT)"/>
<line x1="231.8695652173913" y1="469.33651833163157" x2="238.0" y2="469.33651833163157" stroke="#000"/>
<line x1="231.8695652173913" y1="470.3237253383673" x2="238.0" y2="470.3237253383673" stroke="#000"/>
<line x1="234.93478260869566" y1="469.33651833163157" x2="234.93478260869566" y2="470.3237253383673" stroke="#000"/>
<line x1="234.93478260869566" y1="498.0" x2="234.93478260869566" y2="502.79999999999995" stroke="#000"/>
<text x="234.93478260869566" y="512.4" fill="#111" font-size="small" font-family="monospace" font-weight="bold" text-anchor="end" transform="rotate(-60, 234.93478260869566, 512.4)">
lobsters
</text>
<rect x="244.13043478260872" y="479.64939450104424" width="6.130434782608696" height="18.350605498955765" fill="#7070f8" data-tooltip="1.00x baseline speed (No JIT)"/>
<line x1="244.13043478260872" y1="479.57469642704547" x2="250.26086956521743" y2="479.57469642704547" stroke="#000"/>
<line x1="244.13043478260872" y1="479.72409257504296" x2="250.26086956521743" y2="479.72409257504296" stroke="#000"/>
<line x1="247.19565217391306" y1="479.57469642704547" x2="247.19565217391306" y2="479.72409257504296" stroke="#000"/>
<rect x="250.26086956521743" y="471.41822767582846" width="6.130434782608696" height="26.581772324171478" fill="orange" data-tooltip="1.45x baseline speed (YJIT)"/>
<line x1="250.26086956521743" y1="471.2659133582316" x2="256.3913043478261" y2="471.2659133582316" stroke="#000"/>
<line x1="250.26086956521743" y1="471.57054199342537" x2="256.3913043478261" y2="471.57054199342537" stroke="#000"/>
<line x1="253.32608695652175" y1="471.2659133582316" x2="253.32608695652175" y2="471.57054199342537" stroke="#000"/>
<line x1="253.32608695652175" y1="498.0" x2="253.32608695652175" y2="502.79999999999995" stroke="#000"/>
<text x="253.32608695652175" y="512.4" fill="#111" font-size="small" font-family="monospace" font-weight="bold" text-anchor="end" transform="rotate(-60, 253.32608695652175, 512.4)">
mail
</text>
<rect x="262.5217391304348" y="479.64939450104424" width="6.130434782608696" height="18.350605498955765" fill="#7070f8" data-tooltip="1.00x baseline speed (No JIT)"/>
<line x1="262.5217391304348" y1="479.63680832375917" x2="268.6521739130435" y2="479.63680832375917" stroke="#000"/>
<line x1="262.5217391304348" y1="479.66198067832926" x2="268.6521739130435" y2="479.66198067832926" stroke="#000"/>
<line x1="265.5869565217391" y1="479.63680832375917" x2="265.5869565217391" y2="479.66198067832926" stroke="#000"/>
<rect x="268.6521739130435" y="467.64706595195145" width="6.130434782608696" height="30.35293404804842" fill="orange" data-tooltip="1.65x baseline speed (YJIT)"/>
<line x1="268.6521739130435" y1="467.61245850013654" x2="274.78260869565224" y2="467.61245850013654" stroke="#000"/>
<line x1="268.6521739130435" y1="467.6816734037664" x2="274.78260869565224" y2="467.6816734037664" stroke="#000"/>
<line x1="271.71739130434787" y1="467.61245850013654" x2="271.71739130434787" y2="467.6816734037664" stroke="#000"/>
<line x1="271.71739130434787" y1="498.0" x2="271.71739130434787" y2="502.79999999999995" stroke="#000"/>
<text x="271.71739130434787" y="512.4" fill="#111" font-size="small" font-family="monospace" font-weight="bold" text-anchor="end" transform="rotate(-60, 271.71739130434787, 512.4)">
psych-load
</text>
<rect x="280.9130434782609" y="479.64939450104424" width="6.130434782608696" height="18.350605498955765" fill="#7070f8" data-tooltip="1.00x baseline speed (No JIT)"/>
<line x1="280.9130434782609" y1="479.6232901729645" x2="287.04347826086956" y2="479.6232901729645" stroke="#000"/>
<line x1="280.9130434782609" y1="479.6754988291239" x2="287.04347826086956" y2="479.6754988291239" stroke="#000"/>
<line x1="283.9782608695652" y1="479.6232901729645" x2="283.9782608695652" y2="479.6754988291239" stroke="#000"/>
<rect x="287.04347826086956" y="465.25759461637097" width="6.130434782608696" height="32.74240538362891" fill="orange" data-tooltip="1.78x baseline speed (YJIT)"/>
<line x1="287.04347826086956" y1="465.1700540235784" x2="293.1739130434783" y2="465.1700540235784" stroke="#000"/>
<line x1="287.04347826086956" y1="465.3451352091635" x2="293.1739130434783" y2="465.3451352091635" stroke="#000"/>
<line x1="290.1086956521739" y1="465.1700540235784" x2="290.1086956521739" y2="465.3451352091635" stroke="#000"/>
<line x1="290.1086956521739" y1="498.0" x2="290.1086956521739" y2="502.79999999999995" stroke="#000"/>
<text x="290.1086956521739" y="512.4" fill="#111" font-size="small" font-family="monospace" font-weight="bold" text-anchor="end" transform="rotate(-60, 290.1086956521739, 512.4)">
railsbench
</text>
<rect x="299.30434782608694" y="479.64939450104424" width="6.130434782608696" height="18.350605498955765" fill="#7070f8" data-tooltip="1.00x baseline speed (No JIT)"/>
<line x1="299.30434782608694" y1="479.4727654151112" x2="305.4347826086957" y2="479.4727654151112" stroke="#000"/>
<line x1="299.30434782608694" y1="479.82602358697727" x2="305.4347826086957" y2="479.82602358697727" stroke="#000"/>
<line x1="302.36956521739125" y1="479.4727654151112" x2="302.36956521739125" y2="479.82602358697727" stroke="#000"/>
<rect x="305.4347826086957" y="463.78156368923646" width="6.130434782608696" height="34.21843631076357" fill="orange" data-tooltip="1.86x baseline speed (YJIT)"/>
<line x1="305.4347826086957" y1="461.2527062182882" x2="311.5652173913044" y2="461.2527062182882" stroke="#000"/>
<line x1="305.4347826086957" y1="466.31042116018466" x2="311.5652173913044" y2="466.31042116018466" stroke="#000"/>
<line x1="308.5" y1="461.2527062182882" x2="308.5" y2="466.31042116018466" stroke="#000"/>
<line x1="308.5" y1="498.0" x2="308.5" y2="502.79999999999995" stroke="#000"/>
<text x="308.5" y="512.4" fill="#111" font-size="small" font-family="monospace" font-weight="bold" text-anchor="end" transform="rotate(-60, 308.5, 512.4)">
rubocop
</text>
<rect x="317.69565217391306" y="479.64939450104424" width="6.130434782608696" height="18.350605498955765" fill="#7070f8" data-tooltip="1.00x baseline speed (No JIT)"/>
<line x1="317.69565217391306" y1="479.4251498203361" x2="323.82608695652175" y2="479.4251498203361" stroke="#000"/>
<line x1="317.69565217391306" y1="479.8736391817523" x2="323.82608695652175" y2="479.8736391817523" stroke="#000"/>
<line x1="320.7608695652174" y1="479.4251498203361" x2="320.7608695652174" y2="479.8736391817523" stroke="#000"/>
<rect x="323.82608695652175" y="472.9373907750735" width="6.130434782608696" height="25.062609224926426" fill="orange" data-tooltip="1.37x baseline speed (YJIT)"/>
<line x1="323.82608695652175" y1="472.07025159063136" x2="329.9565217391305" y2="472.07025159063136" stroke="#000"/>
<line x1="323.82608695652175" y1="473.8045299595156" x2="329.9565217391305" y2="473.8045299595156" stroke="#000"/>
<line x1="326.8913043478261" y1="472.07025159063136" x2="326.8913043478261" y2="473.8045299595156" stroke="#000"/>
<line x1="326.8913043478261" y1="498.0" x2="326.8913043478261" y2="502.79999999999995" stroke="#000"/>
<text x="326.8913043478261" y="512.4" fill="#111" font-size="small" font-family="monospace" font-weight="bold" text-anchor="end" transform="rotate(-60, 326.8913043478261, 512.4)">
ruby-lsp
</text>
<rect x="336.0869565217391" y="479.64939450104424" width="6.130434782608696" height="18.350605498955765" fill="#7070f8" data-tooltip="1.00x baseline speed (No JIT)"/>
<line x1="336.0869565217391" y1="479.5662804113747" x2="342.21739130434787" y2="479.5662804113747" stroke="#000"/>
<line x1="336.0869565217391" y1="479.73250859071373" x2="342.21739130434787" y2="479.73250859071373" stroke="#000"/>
<line x1="339.1521739130435" y1="479.5662804113747" x2="339.1521739130435" y2="479.73250859071373" stroke="#000"/>
<rect x="342.21739130434787" y="473.3323790780121" width="6.130434782608696" height="24.667620921987805" fill="orange" data-tooltip="1.34x baseline speed (YJIT)"/>
<line x1="342.21739130434787" y1="473.17504374080113" x2="348.34782608695656" y2="473.17504374080113" stroke="#000"/>
<line x1="342.21739130434787" y1="473.48971441522303" x2="348.34782608695656" y2="473.48971441522303" stroke="#000"/>
<line x1="345.2826086956522" y1="473.17504374080113" x2="345.2826086956522" y2="473.48971441522303" stroke="#000"/>
<line x1="345.2826086956522" y1="498.0" x2="345.2826086956522" y2="502.79999999999995" stroke="#000"/>
<text x="345.2826086956522" y="512.4" fill="#111" font-size="small" font-family="monospace" font-weight="bold" text-anchor="end" transform="rotate(-60, 345.2826086956522, 512.4)">
sequel
</text>
<rect x="354.47826086956525" y="479.64939450104424" width="6.130434782608696" height="18.350605498955765" fill="#7070f8" data-tooltip="1.00x baseline speed (No JIT)"/>
<line x1="354.47826086956525" y1="479.44801373544334" x2="360.60869565217394" y2="479.44801373544334" stroke="#000"/>
<line x1="354.47826086956525" y1="479.85077526664514" x2="360.60869565217394" y2="479.85077526664514" stroke="#000"/>
<line x1="357.54347826086956" y1="479.44801373544334" x2="357.54347826086956" y2="479.85077526664514" stroke="#000"/>
<rect x="360.60869565217394" y="458.0811298033152" width="6.130434782608696" height="39.91887019668477" fill="orange" data-tooltip="2.18x baseline speed (YJIT)"/>
<line x1="360.60869565217394" y1="457.0551123646985" x2="366.7391304347827" y2="457.0551123646985" stroke="#000"/>
<line x1="360.60869565217394" y1="459.1071472419319" x2="366.7391304347827" y2="459.1071472419319" stroke="#000"/>
<line x1="363.6739130434783" y1="457.0551123646985" x2="363.6739130434783" y2="459.1071472419319" stroke="#000"/>
<line x1="363.6739130434783" y1="498.0" x2="363.6739130434783" y2="502.79999999999995" stroke="#000"/>
<text x="363.6739130434783" y="512.4" fill="#111" font-size="small" font-family="monospace" font-weight="bold" text-anchor="end" transform="rotate(-60, 363.6739130434783, 512.4)">
binarytrees
</text>
<rect x="372.86956521739137" y="479.64939450104424" width="6.130434782608696" height="18.350605498955765" fill="#7070f8" data-tooltip="1.00x baseline speed (No JIT)"/>
<line x1="372.86956521739137" y1="479.51229945814305" x2="379.00000000000006" y2="479.51229945814305" stroke="#000"/>
<line x1="372.86956521739137" y1="479.7864895439454" x2="379.00000000000006" y2="479.7864895439454" stroke="#000"/>
<line x1="375.9347826086957" y1="479.51229945814305" x2="375.9347826086957" y2="479.7864895439454" stroke="#000"/>
<rect x="379.00000000000006" y="456.0655479403415" width="6.130434782608696" height="41.934452059658405" fill="orange" data-tooltip="2.29x baseline speed (YJIT)"/>
<line x1="379.00000000000006" y1="455.7306475155987" x2="385.1304347826088" y2="455.7306475155987" stroke="#000"/>
<line x1="379.00000000000006" y1="456.40044836508434" x2="385.1304347826088" y2="456.40044836508434" stroke="#000"/>
<line x1="382.0652173913044" y1="455.7306475155987" x2="382.0652173913044" y2="456.40044836508434" stroke="#000"/>
<line x1="382.0652173913044" y1="498.0" x2="382.0652173913044" y2="502.79999999999995" stroke="#000"/>
<text x="382.0652173913044" y="512.4" fill="#111" font-size="small" font-family="monospace" font-weight="bold" text-anchor="end" transform="rotate(-60, 382.0652173913044, 512.4)">
blurhash
</text>
<rect x="391.26086956521743" y="479.64939450104424" width="6.130434782608696" height="18.350605498955765" fill="#7070f8" data-tooltip="1.00x baseline speed (No JIT)"/>
<line x1="391.26086956521743" y1="479.6235422003783" x2="397.3913043478262" y2="479.6235422003783" stroke="#000"/>
<line x1="391.26086956521743" y1="479.6752468017101" x2="397.3913043478262" y2="479.6752468017101" stroke="#000"/>
<line x1="394.32608695652175" y1="479.6235422003783" x2="394.32608695652175" y2="479.6752468017101" stroke="#000"/>
<rect x="397.3913043478262" y="475.5133019508661" width="6.130434782608696" height="22.48669804913382" fill="orange" data-tooltip="1.23x baseline speed (YJIT)"/>
<line x1="397.3913043478262" y1="475.46554150867166" x2="403.52173913043487" y2="475.46554150867166" stroke="#000"/>
<line x1="397.3913043478262" y1="475.5610623930606" x2="403.52173913043487" y2="475.5610623930606" stroke="#000"/>
<line x1="400.4565217391305" y1="475.46554150867166" x2="400.4565217391305" y2="475.5610623930606" stroke="#000"/>
<line x1="400.4565217391305" y1="498.0" x2="400.4565217391305" y2="502.79999999999995" stroke="#000"/>
<text x="400.4565217391305" y="512.4" fill="#111" font-size="small" font-family="monospace" font-weight="bold" text-anchor="end" transform="rotate(-60, 400.4565217391305, 512.4)">
erubi
</text>
<rect x="409.65217391304355" y="479.64939450104424" width="6.130434782608696" height="18.350605498955765" fill="#7070f8" data-tooltip="1.00x baseline speed (No JIT)"/>
<line x1="409.65217391304355" y1="479.57943210355575" x2="415.78260869565224" y2="479.57943210355575" stroke="#000"/>
<line x1="409.65217391304355" y1="479.71935689853274" x2="415.78260869565224" y2="479.71935689853274" stroke="#000"/>
<line x1="412.71739130434787" y1="479.57943210355575" x2="412.71739130434787" y2="479.71935689853274" stroke="#000"/>
<rect x="415.78260869565224" y="478.3696912664718" width="6.130434782608696" height="19.630308733528217" fill="orange" data-tooltip="1.07x baseline speed (YJIT)"/>
<line x1="415.78260869565224" y1="478.2929767971855" x2="421.913043478261" y2="478.2929767971855" stroke="#000"/>
<line x1="415.78260869565224" y1="478.4464057357581" x2="421.913043478261" y2="478.4464057357581" stroke="#000"/>
<line x1="418.8478260869566" y1="478.2929767971855" x2="418.8478260869566" y2="478.4464057357581" stroke="#000"/>
<line x1="418.8478260869566" y1="498.0" x2="418.8478260869566" y2="502.79999999999995" stroke="#000"/>
<text x="418.8478260869566" y="512.4" fill="#111" font-size="small" font-family="monospace" font-weight="bold" text-anchor="end" transform="rotate(-60, 418.8478260869566, 512.4)">
etanni
</text>
<rect x="428.0434782608696" y="479.64939450104424" width="6.130434782608696" height="18.350605498955765" fill="#7070f8" data-tooltip="1.00x baseline speed (No JIT)"/>
<line x1="428.0434782608696" y1="479.6014457189608" x2="434.17391304347836" y2="479.6014457189608" stroke="#000"/>
<line x1="428.0434782608696" y1="479.6973432831276" x2="434.17391304347836" y2="479.6973432831276" stroke="#000"/>
<line x1="431.108695652174" y1="479.6014457189608" x2="431.108695652174" y2="479.6973432831276" stroke="#000"/>
<rect x="434.17391304347836" y="443.70194809329513" width="6.130434782608696" height="54.29805190670479" fill="orange" data-tooltip="2.96x baseline speed (YJIT)"/>
<line x1="434.17391304347836" y1="443.5562874672044" x2="440.30434782608705" y2="443.5562874672044" stroke="#000"/>
<line x1="434.17391304347836" y1="443.84760871938585" x2="440.30434782608705" y2="443.84760871938585" stroke="#000"/>
<line x1="437.2391304347827" y1="443.5562874672044" x2="437.2391304347827" y2="443.84760871938585" stroke="#000"/>
<line x1="437.2391304347827" y1="498.0" x2="437.2391304347827" y2="502.79999999999995" stroke="#000"/>
<text x="437.2391304347827" y="512.4" fill="#111" font-size="small" font-family="monospace" font-weight="bold" text-anchor="end" transform="rotate(-60, 437.2391304347827, 512.4)">
fannkuchredux
</text>
<rect x="446.4347826086956" y="479.64939450104424" width="6.130434782608696" height="18.350605498955765" fill="#7070f8" data-tooltip="1.00x baseline speed (No JIT)"/>
<line x1="446.4347826086956" y1="479.49349230892534" x2="452.5652173913043" y2="479.49349230892534" stroke="#000"/>
<line x1="446.4347826086956" y1="479.80529669316314" x2="452.5652173913043" y2="479.80529669316314" stroke="#000"/>
<line x1="449.49999999999994" y1="479.49349230892534" x2="449.49999999999994" y2="479.80529669316314" stroke="#000"/>
<rect x="452.5652173913043" y="478.3128044318297" width="6.130434782608696" height="19.68719556817028" fill="orange" data-tooltip="1.07x baseline speed (YJIT)"/>
<line x1="452.5652173913043" y1="478.0654916646468" x2="458.69565217391306" y2="478.0654916646468" stroke="#000"/>
<line x1="452.5652173913043" y1="478.5601171990126" x2="458.69565217391306" y2="478.5601171990126" stroke="#000"/>
<line x1="455.6304347826087" y1="478.0654916646468" x2="455.6304347826087" y2="478.5601171990126" stroke="#000"/>
<line x1="455.6304347826087" y1="498.0" x2="455.6304347826087" y2="502.79999999999995" stroke="#000"/>
<text x="455.6304347826087" y="512.4" fill="#111" font-size="small" font-family="monospace" font-weight="bold" text-anchor="end" transform="rotate(-60, 455.6304347826087, 512.4)">
fluentd
</text>
<rect x="464.82608695652175" y="479.64939450104424" width="6.130434782608696" height="18.350605498955765" fill="#7070f8" data-tooltip="1.00x baseline speed (No JIT)"/>
<line x1="464.82608695652175" y1="479.6409450071271" x2="470.95652173913044" y2="479.6409450071271" stroke="#000"/>
<line x1="464.82608695652175" y1="479.65784399496135" x2="470.95652173913044" y2="479.65784399496135" stroke="#000"/>
<line x1="467.89130434782606" y1="479.6409450071271" x2="467.89130434782606" y2="479.65784399496135" stroke="#000"/>
<rect x="470.95652173913044" y="475.8297998427795" width="6.130434782608696" height="22.17020015722046" fill="orange" data-tooltip="1.21x baseline speed (YJIT)"/>
<line x1="470.95652173913044" y1="475.8135671966535" x2="477.0869565217392" y2="475.8135671966535" stroke="#000"/>
<line x1="470.95652173913044" y1="475.8460324889055" x2="477.0869565217392" y2="475.8460324889055" stroke="#000"/>
<line x1="474.02173913043475" y1="475.8135671966535" x2="474.02173913043475" y2="475.8460324889055" stroke="#000"/>
<line x1="474.02173913043475" y1="498.0" x2="474.02173913043475" y2="502.79999999999995" stroke="#000"/>
<text x="474.02173913043475" y="512.4" fill="#111" font-size="small" font-family="monospace" font-weight="bold" text-anchor="end" transform="rotate(-60, 474.02173913043475, 512.4)">
graphql
</text>
<rect x="483.2173913043478" y="479.64939450104424" width="6.130434782608696" height="18.350605498955765" fill="#7070f8" data-tooltip="1.00x baseline speed (No JIT)"/>
<line x1="483.2173913043478" y1="479.6270718343882" x2="489.34782608695656" y2="479.6270718343882" stroke="#000"/>
<line x1="483.2173913043478" y1="479.6717171677003" x2="489.34782608695656" y2="479.6717171677003" stroke="#000"/>
<line x1="486.28260869565213" y1="479.6270718343882" x2="486.28260869565213" y2="479.6717171677003" stroke="#000"/>
<rect x="489.34782608695656" y="477.33273955097036" width="6.130434782608696" height="20.667260449029598" fill="orange" data-tooltip="1.13x baseline speed (YJIT)"/>
<line x1="489.34782608695656" y1="477.29971910931283" x2="495.47826086956525" y2="477.29971910931283" stroke="#000"/>
<line x1="489.34782608695656" y1="477.36575999262783" x2="495.47826086956525" y2="477.36575999262783" stroke="#000"/>
<line x1="492.4130434782609" y1="477.29971910931283" x2="492.4130434782609" y2="477.36575999262783" stroke="#000"/>
<line x1="492.4130434782609" y1="498.0" x2="492.4130434782609" y2="502.79999999999995" stroke="#000"/>
<text x="492.4130434782609" y="512.4" fill="#111" font-size="small" font-family="monospace" font-weight="bold" text-anchor="end" transform="rotate(-60, 492.4130434782609, 512.4)">
graphql-native
</text>
<rect x="501.60869565217394" y="479.64939450104424" width="6.130434782608696" height="18.350605498955765" fill="#7070f8" data-tooltip="1.00x baseline speed (No JIT)"/>
<line x1="501.60869565217394" y1="479.44911474864136" x2="507.73913043478257" y2="479.44911474864136" stroke="#000"/>
<line x1="501.60869565217394" y1="479.8496742534471" x2="507.73913043478257" y2="479.8496742534471" stroke="#000"/>
<line x1="504.6739130434783" y1="479.44911474864136" x2="504.6739130434783" y2="479.8496742534471" stroke="#000"/>
<rect x="507.73913043478257" y="471.53676584861546" width="6.130434782608696" height="26.463234151384494" fill="orange" data-tooltip="1.44x baseline speed (YJIT)"/>
<line x1="507.73913043478257" y1="471.0266176731136" x2="513.8695652173913" y2="471.0266176731136" stroke="#000"/>
<line x1="507.73913043478257" y1="472.0469140241173" x2="513.8695652173913" y2="472.0469140241173" stroke="#000"/>
<line x1="510.804347826087" y1="471.0266176731136" x2="510.804347826087" y2="472.0469140241173" stroke="#000"/>
<line x1="510.804347826087" y1="498.0" x2="510.804347826087" y2="502.79999999999995" stroke="#000"/>
<text x="510.804347826087" y="512.4" fill="#111" font-size="small" font-family="monospace" font-weight="bold" text-anchor="end" transform="rotate(-60, 510.804347826087, 512.4)">
lee
</text>
<rect x="520.0" y="479.64939450104424" width="6.130434782608696" height="18.350605498955765" fill="#7070f8" data-tooltip="1.00x baseline speed (No JIT)"/>
<line x1="520.0" y1="479.6318277500954" x2="526.1304347826086" y2="479.6318277500954" stroke="#000"/>
<line x1="520.0" y1="479.66696125199303" x2="526.1304347826086" y2="479.66696125199303" stroke="#000"/>
<line x1="523.0652173913044" y1="479.6318277500954" x2="523.0652173913044" y2="479.66696125199303" stroke="#000"/>
<rect x="526.1304347826086" y="464.7735394938049" width="6.130434782608696" height="33.22646050619508" fill="orange" data-tooltip="1.81x baseline speed (YJIT)"/>
<line x1="526.1304347826086" y1="464.71408899304663" x2="532.2608695652174" y2="464.71408899304663" stroke="#000"/>
<line x1="526.1304347826086" y1="464.83298999456315" x2="532.2608695652174" y2="464.83298999456315" stroke="#000"/>
<line x1="529.1956521739131" y1="464.71408899304663" x2="529.1956521739131" y2="464.83298999456315" stroke="#000"/>
<line x1="529.1956521739131" y1="498.0" x2="529.1956521739131" y2="502.79999999999995" stroke="#000"/>
<text x="529.1956521739131" y="512.4" fill="#111" font-size="small" font-family="monospace" font-weight="bold" text-anchor="end" transform="rotate(-60, 529.1956521739131, 512.4)">
matmul
</text>
<rect x="538.3913043478261" y="479.64939450104424" width="6.130434782608696" height="18.350605498955765" fill="#7070f8" data-tooltip="1.00x baseline speed (No JIT)"/>
<line x1="538.3913043478261" y1="479.6410413078605" x2="544.5217391304348" y2="479.6410413078605" stroke="#000"/>
<line x1="538.3913043478261" y1="479.6577476942279" x2="544.5217391304348" y2="479.6577476942279" stroke="#000"/>
<line x1="541.4565217391305" y1="479.6410413078605" x2="541.4565217391305" y2="479.6577476942279" stroke="#000"/>
<rect x="544.5217391304348" y="456.2196765212931" width="6.130434782608696" height="41.78032347870683" fill="orange" data-tooltip="2.28x baseline speed (YJIT)"/>
<line x1="544.5217391304348" y1="456.0414262443431" x2="550.6521739130435" y2="456.0414262443431" stroke="#000"/>
<line x1="544.5217391304348" y1="456.3979267982431" x2="550.6521739130435" y2="456.3979267982431" stroke="#000"/>
<line x1="547.5869565217391" y1="456.0414262443431" x2="547.5869565217391" y2="456.3979267982431" stroke="#000"/>
<line x1="547.5869565217391" y1="498.0" x2="547.5869565217391" y2="502.79999999999995" stroke="#000"/>
<text x="547.5869565217391" y="512.4" fill="#111" font-size="small" font-family="monospace" font-weight="bold" text-anchor="end" transform="rotate(-60, 547.5869565217391, 512.4)">
nbody
</text>
<rect x="556.7826086956522" y="479.64939450104424" width="6.130434782608696" height="18.350605498955765" fill="#7070f8" data-tooltip="1.00x baseline speed (No JIT)"/>
<line x1="556.7826086956522" y1="479.5849557392607" x2="562.9130434782609" y2="479.5849557392607" stroke="#000"/>
<line x1="556.7826086956522" y1="479.71383326282773" x2="562.9130434782609" y2="479.71383326282773" stroke="#000"/>
<line x1="559.8478260869566" y1="479.5849557392607" x2="559.8478260869566" y2="479.71383326282773" stroke="#000"/>
<rect x="562.9130434782609" y="424.10580340241586" width="6.130434782608696" height="73.89419659758414" fill="orange" data-tooltip="4.03x baseline speed (YJIT)"/>
<line x1="562.9130434782609" y1="423.8276073218339" x2="569.0434782608695" y2="423.8276073218339" stroke="#000"/>
<line x1="562.9130434782609" y1="424.38399948299787" x2="569.0434782608695" y2="424.38399948299787" stroke="#000"/>
<line x1="565.9782608695652" y1="423.8276073218339" x2="565.9782608695652" y2="424.38399948299787" stroke="#000"/>
<line x1="565.9782608695652" y1="498.0" x2="565.9782608695652" y2="502.79999999999995" stroke="#000"/>
<text x="565.9782608695652" y="512.4" fill="#111" font-size="small" font-family="monospace" font-weight="bold" text-anchor="end" transform="rotate(-60, 565.9782608695652, 512.4)">
nqueens
</text>
<rect x="575.1739130434784" y="479.64939450104424" width="6.130434782608696" height="18.350605498955765" fill="#7070f8" data-tooltip="1.00x baseline speed (No JIT)"/>
<line x1="575.1739130434784" y1="479.57590139203813" x2="581.304347826087" y2="479.57590139203813" stroke="#000"/>
<line x1="575.1739130434784" y1="479.72288761005035" x2="581.304347826087" y2="479.72288761005035" stroke="#000"/>
<line x1="578.2391304347827" y1="479.57590139203813" x2="578.2391304347827" y2="479.72288761005035" stroke="#000"/>
<rect x="581.304347826087" y="434.58109953912293" width="6.130434782608696" height="63.41890046087704" fill="orange" data-tooltip="3.46x baseline speed (YJIT)"/>
<line x1="581.304347826087" y1="434.0341229242569" x2="587.4347826086956" y2="434.0341229242569" stroke="#000"/>
<line x1="581.304347826087" y1="435.12807615398896" x2="587.4347826086956" y2="435.12807615398896" stroke="#000"/>
<line x1="584.3695652173914" y1="434.0341229242569" x2="584.3695652173914" y2="435.12807615398896" stroke="#000"/>
<line x1="584.3695652173914" y1="498.0" x2="584.3695652173914" y2="502.79999999999995" stroke="#000"/>
<text x="584.3695652173914" y="512.4" fill="#111" font-size="small" font-family="monospace" font-weight="bold" text-anchor="end" transform="rotate(-60, 584.3695652173914, 512.4)">
optcarrot
</text>
<rect x="593.5652173913044" y="479.64939450104424" width="6.130434782608696" height="18.350605498955765" fill="#7070f8" data-tooltip="1.00x baseline speed (No JIT)"/>
<line x1="593.5652173913044" y1="479.6020809075622" x2="599.6956521739131" y2="479.6020809075622" stroke="#000"/>
<line x1="593.5652173913044" y1="479.69670809452623" x2="599.6956521739131" y2="479.69670809452623" stroke="#000"/>
<line x1="596.6304347826087" y1="479.6020809075622" x2="596.6304347826087" y2="479.69670809452623" stroke="#000"/>
<rect x="599.6956521739131" y="427.21853636464107" width="6.130434782608696" height="70.78146363535889" fill="orange" data-tooltip="3.86x baseline speed (YJIT)"/>
<line x1="599.6956521739131" y1="426.8053272548625" x2="605.8260869565217" y2="426.8053272548625" stroke="#000"/>
<line x1="599.6956521739131" y1="427.6317454744196" x2="605.8260869565217" y2="427.6317454744196" stroke="#000"/>
<line x1="602.7608695652175" y1="426.8053272548625" x2="602.7608695652175" y2="427.6317454744196" stroke="#000"/>
<line x1="602.7608695652175" y1="498.0" x2="602.7608695652175" y2="502.79999999999995" stroke="#000"/>
<text x="602.7608695652175" y="512.4" fill="#111" font-size="small" font-family="monospace" font-weight="bold" text-anchor="end" transform="rotate(-60, 602.7608695652175, 512.4)">
protoboeuf
</text>
<rect x="611.9565217391304" y="479.64939450104424" width="6.130434782608696" height="18.350605498955765" fill="#7070f8" data-tooltip="1.00x baseline speed (No JIT)"/>
<line x1="611.9565217391304" y1="479.50116739159137" x2="618.086956521739" y2="479.50116739159137" stroke="#000"/>
<line x1="611.9565217391304" y1="479.7976216104971" x2="618.086956521739" y2="479.7976216104971" stroke="#000"/>
<line x1="615.0217391304348" y1="479.50116739159137" x2="615.0217391304348" y2="479.7976216104971" stroke="#000"/>
<rect x="618.086956521739" y="465.11364987518994" width="6.130434782608696" height="32.88635012481" fill="orange" data-tooltip="1.79x baseline speed (YJIT)"/>
<line x1="618.086956521739" y1="464.6863747848721" x2="624.2173913043478" y2="464.6863747848721" stroke="#000"/>
<line x1="618.086956521739" y1="465.5409249655078" x2="624.2173913043478" y2="465.5409249655078" stroke="#000"/>
<line x1="621.1521739130435" y1="464.6863747848721" x2="621.1521739130435" y2="465.5409249655078" stroke="#000"/>
<line x1="621.1521739130435" y1="498.0" x2="621.1521739130435" y2="502.79999999999995" stroke="#000"/>
<text x="621.1521739130435" y="512.4" fill="#111" font-size="small" font-family="monospace" font-weight="bold" text-anchor="end" transform="rotate(-60, 621.1521739130435, 512.4)">
rack
</text>
<rect x="630.3478260869565" y="479.64939450104424" width="6.130434782608696" height="18.350605498955765" fill="#7070f8" data-tooltip="1.00x baseline speed (No JIT)"/>
<line x1="630.3478260869565" y1="479.64396464729225" x2="636.4782608695651" y2="479.64396464729225" stroke="#000"/>
<line x1="630.3478260869565" y1="479.6548243547962" x2="636.4782608695651" y2="479.6548243547962" stroke="#000"/>
<line x1="633.4130434782609" y1="479.64396464729225" x2="633.4130434782609" y2="479.6548243547962" stroke="#000"/>
<rect x="636.4782608695651" y="476.6311400904449" width="6.130434782608696" height="21.368859909555095" fill="orange" data-tooltip="1.16x baseline speed (YJIT)"/>
<line x1="636.4782608695651" y1="476.61606330777084" x2="642.6086956521739" y2="476.61606330777084" stroke="#000"/>
<line x1="636.4782608695651" y1="476.646216873119" x2="642.6086956521739" y2="476.646216873119" stroke="#000"/>
<line x1="639.5434782608695" y1="476.61606330777084" x2="639.5434782608695" y2="476.646216873119" stroke="#000"/>
<line x1="639.5434782608695" y1="498.0" x2="639.5434782608695" y2="502.79999999999995" stroke="#000"/>
<text x="639.5434782608695" y="512.4" fill="#111" font-size="small" font-family="monospace" font-weight="bold" text-anchor="end" transform="rotate(-60, 639.5434782608695, 512.4)">
ruby-json
</text>
<rect x="648.7391304347826" y="479.64939450104424" width="6.130434782608696" height="18.350605498955765" fill="#7070f8" data-tooltip="1.00x baseline speed (No JIT)"/>
<line x1="648.7391304347826" y1="479.46418989877276" x2="654.8695652173913" y2="479.46418989877276" stroke="#000"/>
<line x1="648.7391304347826" y1="479.83459910331567" x2="654.8695652173913" y2="479.83459910331567" stroke="#000"/>
<line x1="651.804347826087" y1="479.46418989877276" x2="651.804347826087" y2="479.83459910331567" stroke="#000"/>
<rect x="654.8695652173913" y="458.75333550688634" width="6.130434782608696" height="39.24666449311361" fill="orange" data-tooltip="2.14x baseline speed (YJIT)"/>
<line x1="654.8695652173913" y1="458.2856667773877" x2="660.9999999999999" y2="458.2856667773877" stroke="#000"/>
<line x1="654.8695652173913" y1="459.22100423638494" x2="660.9999999999999" y2="459.22100423638494" stroke="#000"/>
<line x1="657.9347826086956" y1="458.2856667773877" x2="657.9347826086956" y2="459.22100423638494" stroke="#000"/>
<line x1="657.9347826086956" y1="498.0" x2="657.9347826086956" y2="502.79999999999995" stroke="#000"/>
<text x="657.9347826086956" y="512.4" fill="#111" font-size="small" font-family="monospace" font-weight="bold" text-anchor="end" transform="rotate(-60, 657.9347826086956, 512.4)">
rubykon
</text>
<rect x="667.1304347826087" y="479.64939450104424" width="6.130434782608696" height="18.350605498955765" fill="#7070f8" data-tooltip="1.00x baseline speed (No JIT)"/>
<line x1="667.1304347826087" y1="479.6412784758552" x2="673.2608695652174" y2="479.6412784758552" stroke="#000"/>
<line x1="667.1304347826087" y1="479.65751052623324" x2="673.2608695652174" y2="479.65751052623324" stroke="#000"/>
<line x1="670.1956521739131" y1="479.6412784758552" x2="670.1956521739131" y2="479.65751052623324" stroke="#000"/>
<rect x="673.2608695652174" y="444.6927902565174" width="6.130434782608696" height="53.30720974348259" fill="orange" data-tooltip="2.90x baseline speed (YJIT)"/>
<line x1="673.2608695652174" y1="444.657042460341" x2="679.391304347826" y2="444.657042460341" stroke="#000"/>
<line x1="673.2608695652174" y1="444.7285380526938" x2="679.391304347826" y2="444.7285380526938" stroke="#000"/>
<line x1="676.3260869565217" y1="444.657042460341" x2="676.3260869565217" y2="444.7285380526938" stroke="#000"/>
<line x1="676.3260869565217" y1="498.0" x2="676.3260869565217" y2="502.79999999999995" stroke="#000"/>
<text x="676.3260869565217" y="512.4" fill="#111" font-size="small" font-family="monospace" font-weight="bold" text-anchor="end" transform="rotate(-60, 676.3260869565217, 512.4)">
sudoku
</text>
<rect x="685.5217391304348" y="479.64939450104424" width="6.130434782608696" height="18.350605498955765" fill="#7070f8" data-tooltip="1.00x baseline speed (No JIT)"/>
<line x1="685.5217391304348" y1="479.62779942667567" x2="691.6521739130435" y2="479.62779942667567" stroke="#000"/>
<line x1="685.5217391304348" y1="479.6709895754128" x2="691.6521739130435" y2="479.6709895754128" stroke="#000"/>
<line x1="688.5869565217391" y1="479.62779942667567" x2="688.5869565217391" y2="479.6709895754128" stroke="#000"/>
<rect x="691.6521739130435" y="463.48092896812653" width="6.130434782608696" height="34.51907103187345" fill="orange" data-tooltip="1.88x baseline speed (YJIT)"/>
<line x1="691.6521739130435" y1="463.4264087633211" x2="697.7826086956521" y2="463.4264087633211" stroke="#000"/>
<line x1="691.6521739130435" y1="463.535449172932" x2="697.7826086956521" y2="463.535449172932" stroke="#000"/>
<line x1="694.7173913043479" y1="463.4264087633211" x2="694.7173913043479" y2="463.535449172932" stroke="#000"/>
<line x1="694.7173913043479" y1="498.0" x2="694.7173913043479" y2="502.79999999999995" stroke="#000"/>
<text x="694.7173913043479" y="512.4" fill="#111" font-size="small" font-family="monospace" font-weight="bold" text-anchor="end" transform="rotate(-60, 694.7173913043479, 512.4)">
tinygql
</text>
<rect x="703.9130434782609" y="479.64939450104424" width="6.130434782608696" height="18.350605498955765" fill="#7070f8" data-tooltip="1.00x baseline speed (No JIT)"/>
<line x1="703.9130434782609" y1="479.63176064292077" x2="710.0434782608695" y2="479.63176064292077" stroke="#000"/>
<line x1="703.9130434782609" y1="479.66702835916766" x2="710.0434782608695" y2="479.66702835916766" stroke="#000"/>
<line x1="706.9782608695652" y1="479.63176064292077" x2="706.9782608695652" y2="479.66702835916766" stroke="#000"/>
<rect x="710.0434782608695" y="368.39429594655024" width="6.130434782608696" height="129.6057040534497" fill="orange" data-tooltip="7.06x baseline speed (YJIT)"/>
<line x1="710.0434782608695" y1="368.21774157492354" x2="716.1739130434783" y2="368.21774157492354" stroke="#000"/>
<line x1="710.0434782608695" y1="368.5708503181769" x2="716.1739130434783" y2="368.5708503181769" stroke="#000"/>
<line x1="713.108695652174" y1="368.21774157492354" x2="713.108695652174" y2="368.5708503181769" stroke="#000"/>
<line x1="713.108695652174" y1="498.0" x2="713.108695652174" y2="502.79999999999995" stroke="#000"/>
<text x="713.108695652174" y="512.4" fill="#111" font-size="small" font-family="monospace" font-weight="bold" text-anchor="end" transform="rotate(-60, 713.108695652174, 512.4)">
30k_ifelse
</text>
<rect x="722.304347826087" y="479.64939450104424" width="6.130434782608696" height="18.350605498955765" fill="#7070f8" data-tooltip="1.00x baseline speed (No JIT)"/>
<line x1="722.304347826087" y1="479.6443021408177" x2="728.4347826086956" y2="479.6443021408177" stroke="#000"/>
<line x1="722.304347826087" y1="479.6544868612708" x2="728.4347826086956" y2="479.6544868612708" stroke="#000"/>
<line x1="725.3695652173914" y1="479.6443021408177" x2="725.3695652173914" y2="479.6544868612708" stroke="#000"/>
<rect x="728.4347826086956" y="348.72816367079025" width="6.130434782608696" height="149.27183632920975" fill="orange" data-tooltip="8.13x baseline speed (YJIT)"/>
<line x1="728.4347826086956" y1="348.6497004252429" x2="734.5652173913043" y2="348.6497004252429" stroke="#000"/>
<line x1="728.4347826086956" y1="348.8066269163376" x2="734.5652173913043" y2="348.8066269163376" stroke="#000"/>
<line x1="731.5" y1="348.6497004252429" x2="731.5" y2="348.8066269163376" stroke="#000"/>
<line x1="731.5" y1="498.0" x2="731.5" y2="502.79999999999995" stroke="#000"/>
<text x="731.5" y="512.4" fill="#111" font-size="small" font-family="monospace" font-weight="bold" text-anchor="end" transform="rotate(-60, 731.5, 512.4)">
30k_methods
</text>
<rect x="740.6956521739131" y="479.64939450104424" width="6.130434782608696" height="18.350605498955765" fill="#7070f8" data-tooltip="1.00x baseline speed (No JIT)"/>
<line x1="740.6956521739131" y1="479.6330648626649" x2="746.8260869565217" y2="479.6330648626649" stroke="#000"/>
<line x1="740.6956521739131" y1="479.6657241394235" x2="746.8260869565217" y2="479.6657241394235" stroke="#000"/>
<line x1="743.7608695652175" y1="479.6330648626649" x2="743.7608695652175" y2="479.6657241394235" stroke="#000"/>
<rect x="746.8260869565217" y="414.7514203602259" width="6.130434782608696" height="83.24857963977405" fill="orange" data-tooltip="4.54x baseline speed (YJIT)"/>
<line x1="746.8260869565217" y1="407.9725834845466" x2="752.9565217391304" y2="407.9725834845466" stroke="#000"/>
<line x1="746.8260869565217" y1="421.53025723590525" x2="752.9565217391304" y2="421.53025723590525" stroke="#000"/>
<line x1="749.8913043478261" y1="407.9725834845466" x2="749.8913043478261" y2="421.53025723590525" stroke="#000"/>
<line x1="749.8913043478261" y1="498.0" x2="749.8913043478261" y2="502.79999999999995" stroke="#000"/>
<text x="749.8913043478261" y="512.4" fill="#111" font-size="small" font-family="monospace" font-weight="bold" text-anchor="end" transform="rotate(-60, 749.8913043478261, 512.4)">
cfunc_itself
</text>
<rect x="759.0869565217392" y="479.64939450104424" width="6.130434782608696" height="18.350605498955765" fill="#7070f8" data-tooltip="1.00x baseline speed (No JIT)"/>
<line x1="759.0869565217392" y1="479.6437576999761" x2="765.2173913043479" y2="479.6437576999761" stroke="#000"/>
<line x1="759.0869565217392" y1="479.6550313021123" x2="765.2173913043479" y2="479.6550313021123" stroke="#000"/>
<line x1="762.1521739130436" y1="479.6437576999761" x2="762.1521739130436" y2="479.6550313021123" stroke="#000"/>
<rect x="765.2173913043479" y="394.92064091234806" width="6.130434782608696" height="103.0793590876519" fill="orange" data-tooltip="5.62x baseline speed (YJIT)"/>
<line x1="765.2173913043479" y1="394.8651271353603" x2="771.3478260869565" y2="394.8651271353603" stroke="#000"/>
<line x1="765.2173913043479" y1="394.97615468933583" x2="771.3478260869565" y2="394.97615468933583" stroke="#000"/>
<line x1="768.2826086956522" y1="394.8651271353603" x2="768.2826086956522" y2="394.97615468933583" stroke="#000"/>
<line x1="768.2826086956522" y1="498.0" x2="768.2826086956522" y2="502.79999999999995" stroke="#000"/>
<text x="768.2826086956522" y="512.4" fill="#111" font-size="small" font-family="monospace" font-weight="bold" text-anchor="end" transform="rotate(-60, 768.2826086956522, 512.4)">
fib
</text>
<rect x="777.4782608695652" y="479.64939450104424" width="6.130434782608696" height="18.350605498955765" fill="#7070f8" data-tooltip="1.00x baseline speed (No JIT)"/>
<line x1="777.4782608695652" y1="479.61949178006745" x2="783.608695652174" y2="479.61949178006745" stroke="#000"/>
<line x1="777.4782608695652" y1="479.679297222021" x2="783.608695652174" y2="479.679297222021" stroke="#000"/>
<line x1="780.5434782608696" y1="479.61949178006745" x2="780.5434782608696" y2="479.679297222021" stroke="#000"/>
<rect x="783.608695652174" y="396.7908278101711" width="6.130434782608696" height="101.20917218982885" fill="orange" data-tooltip="5.52x baseline speed (YJIT)"/>
<line x1="783.608695652174" y1="342.36761580870143" x2="789.7391304347826" y2="342.36761580870143" stroke="#000"/>
<line x1="783.608695652174" y1="451.21403981164076" x2="789.7391304347826" y2="451.21403981164076" stroke="#000"/>
<line x1="786.6739130434784" y1="342.36761580870143" x2="786.6739130434784" y2="451.21403981164076" stroke="#000"/>
<line x1="786.6739130434784" y1="498.0" x2="786.6739130434784" y2="502.79999999999995" stroke="#000"/>
<text x="786.6739130434784" y="512.4" fill="#111" font-size="small" font-family="monospace" font-weight="bold" text-anchor="end" transform="rotate(-60, 786.6739130434784, 512.4)">
getivar
</text>
<rect x="795.8695652173913" y="479.64939450104424" width="6.130434782608696" height="18.350605498955765" fill="#7070f8" data-tooltip="1.00x baseline speed (No JIT)"/>
<line x1="795.8695652173913" y1="479.45029704992396" x2="801.9999999999999" y2="479.45029704992396" stroke="#000"/>
<line x1="795.8695652173913" y1="479.8484919521645" x2="801.9999999999999" y2="479.8484919521645" stroke="#000"/>
<line x1="798.9347826086956" y1="479.45029704992396" x2="798.9347826086956" y2="479.8484919521645" stroke="#000"/>
<rect x="801.9999999999999" y="313.54521070219914" width="6.130434782608696" height="184.45478929780074" fill="orange" data-tooltip="10.05x baseline speed (YJIT)"/>
<line x1="801.9999999999999" y1="299.8915918327442" x2="808.1304347826086" y2="299.8915918327442" stroke="#000"/>
<line x1="801.9999999999999" y1="327.1988295716541" x2="808.1304347826086" y2="327.1988295716541" stroke="#000"/>
<line x1="805.0652173913044" y1="299.8915918327442" x2="805.0652173913044" y2="327.1988295716541" stroke="#000"/>
<line x1="805.0652173913044" y1="498.0" x2="805.0652173913044" y2="502.79999999999995" stroke="#000"/>
<text x="805.0652173913044" y="512.4" fill="#111" font-size="small" font-family="monospace" font-weight="bold" text-anchor="end" transform="rotate(-60, 805.0652173913044, 512.4)">
keyword_args
</text>
<rect x="814.2608695652174" y="479.64939450104424" width="6.130434782608696" height="18.350605498955765" fill="#7070f8" data-tooltip="1.00x baseline speed (No JIT)"/>
<line x1="814.2608695652174" y1="479.5642282373096" x2="820.391304347826" y2="479.5642282373096" stroke="#000"/>
<line x1="814.2608695652174" y1="479.7345607647789" x2="820.391304347826" y2="479.7345607647789" stroke="#000"/>
<line x1="817.3260869565217" y1="479.5642282373096" x2="817.3260869565217" y2="479.7345607647789" stroke="#000"/>
<rect x="820.391304347826" y="100.19999999999999" width="6.130434782608696" height="397.79999999999995" fill="orange" data-tooltip="21.68x baseline speed (YJIT)"/>
<line x1="820.391304347826" y1="57.63943449808017" x2="826.5217391304348" y2="57.63943449808017" stroke="#000"/>
<line x1="820.391304347826" y1="142.7605655019198" x2="826.5217391304348" y2="142.7605655019198" stroke="#000"/>
<line x1="823.4565217391304" y1="57.63943449808017" x2="823.4565217391304" y2="142.7605655019198" stroke="#000"/>
<line x1="823.4565217391304" y1="498.0" x2="823.4565217391304" y2="502.79999999999995" stroke="#000"/>
<text x="823.4565217391304" y="512.4" fill="#111" font-size="small" font-family="monospace" font-weight="bold" text-anchor="end" transform="rotate(-60, 823.4565217391304, 512.4)">
respond_to
</text>
<rect x="832.6521739130435" y="479.64939450104424" width="6.130434782608696" height="18.350605498955765" fill="#7070f8" data-tooltip="1.00x baseline speed (No JIT)"/>
<line x1="832.6521739130435" y1="479.6421329942967" x2="838.7826086956521" y2="479.6421329942967" stroke="#000"/>
<line x1="832.6521739130435" y1="479.6566560077918" x2="838.7826086956521" y2="479.6566560077918" stroke="#000"/>
<line x1="835.7173913043479" y1="479.6421329942967" x2="835.7173913043479" y2="479.6566560077918" stroke="#000"/>
<rect x="838.7826086956521" y="426.4372176437576" width="6.130434782608696" height="71.56278235624235" fill="orange" data-tooltip="3.90x baseline speed (YJIT)"/>
<line x1="838.7826086956521" y1="426.3626348383863" x2="844.9130434782608" y2="426.3626348383863" stroke="#000"/>
<line x1="838.7826086956521" y1="426.5118004491288" x2="844.9130434782608" y2="426.5118004491288" stroke="#000"/>
<line x1="841.8478260869565" y1="426.3626348383863" x2="841.8478260869565" y2="426.5118004491288" stroke="#000"/>
<line x1="841.8478260869565" y1="498.0" x2="841.8478260869565" y2="502.79999999999995" stroke="#000"/>
<text x="841.8478260869565" y="512.4" fill="#111" font-size="small" font-family="monospace" font-weight="bold" text-anchor="end" transform="rotate(-60, 841.8478260869565, 512.4)">
ruby-xor
</text>
<rect x="851.0434782608696" y="479.64939450104424" width="6.130434782608696" height="18.350605498955765" fill="#7070f8" data-tooltip="1.00x baseline speed (No JIT)"/>
<line x1="851.0434782608696" y1="479.4919377120468" x2="857.1739130434783" y2="479.4919377120468" stroke="#000"/>
<line x1="851.0434782608696" y1="479.8068512900416" x2="857.1739130434783" y2="479.8068512900416" stroke="#000"/>
<line x1="854.108695652174" y1="479.4919377120468" x2="854.108695652174" y2="479.8068512900416" stroke="#000"/>
<rect x="857.1739130434783" y="318.75558407161856" width="6.130434782608696" height="179.2444159283814" fill="orange" data-tooltip="9.77x baseline speed (YJIT)"/>
<line x1="857.1739130434783" y1="203.51271451374348" x2="863.3043478260869" y2="203.51271451374348" stroke="#000"/>
<line x1="857.1739130434783" y1="433.99845362949367" x2="863.3043478260869" y2="433.99845362949367" stroke="#000"/>
<line x1="860.2391304347826" y1="203.51271451374348" x2="860.2391304347826" y2="433.99845362949367" stroke="#000"/>
<line x1="860.2391304347826" y1="498.0" x2="860.2391304347826" y2="502.79999999999995" stroke="#000"/>
<text x="860.2391304347826" y="512.4" fill="#111" font-size="small" font-family="monospace" font-weight="bold" text-anchor="end" transform="rotate(-60, 860.2391304347826, 512.4)">
setivar
</text>
<rect x="869.4347826086956" y="479.64939450104424" width="6.130434782608696" height="18.350605498955765" fill="#7070f8" data-tooltip="1.00x baseline speed (No JIT)"/>
<line x1="869.4347826086956" y1="479.2068559654117" x2="875.5652173913044" y2="479.2068559654117" stroke="#000"/>
<line x1="869.4347826086956" y1="480.0919330366767" x2="875.5652173913044" y2="480.0919330366767" stroke="#000"/>
<line x1="872.5" y1="479.2068559654117" x2="872.5" y2="480.0919330366767" stroke="#000"/>
<rect x="875.5652173913044" y="445.8355156991188" width="6.130434782608696" height="52.164484300881135" fill="orange" data-tooltip="2.84x baseline speed (YJIT)"/>
<line x1="875.5652173913044" y1="419.21029092834357" x2="881.695652173913" y2="419.21029092834357" stroke="#000"/>
<line x1="875.5652173913044" y1="472.460740469894" x2="881.695652173913" y2="472.460740469894" stroke="#000"/>
<line x1="878.6304347826087" y1="419.21029092834357" x2="878.6304347826087" y2="472.460740469894" stroke="#000"/>
<line x1="878.6304347826087" y1="498.0" x2="878.6304347826087" y2="502.79999999999995" stroke="#000"/>
<text x="878.6304347826087" y="512.4" fill="#111" font-size="small" font-family="monospace" font-weight="bold" text-anchor="end" transform="rotate(-60, 878.6304347826087, 512.4)">
setivar_object
</text>
<rect x="887.8260869565217" y="479.64939450104424" width="6.130434782608696" height="18.350605498955765" fill="#7070f8" data-tooltip="1.00x baseline speed (No JIT)"/>
<line x1="887.8260869565217" y1="479.44251566455864" x2="893.9565217391304" y2="479.44251566455864" stroke="#000"/>
<line x1="887.8260869565217" y1="479.85627333752984" x2="893.9565217391304" y2="479.85627333752984" stroke="#000"/>
<line x1="890.8913043478261" y1="479.44251566455864" x2="890.8913043478261" y2="479.85627333752984" stroke="#000"/>
<rect x="893.9565217391304" y="444.2123066242234" width="6.130434782608696" height="53.78769337577647" fill="orange" data-tooltip="2.93x baseline speed (YJIT)"/>
<line x1="893.9565217391304" y1="416.50894372367304" x2="900.0869565217391" y2="416.50894372367304" stroke="#000"/>
<line x1="893.9565217391304" y1="471.91566952477376" x2="900.0869565217391" y2="471.91566952477376" stroke="#000"/>
<line x1="897.0217391304349" y1="416.50894372367304" x2="897.0217391304349" y2="471.91566952477376" stroke="#000"/>
<line x1="897.0217391304349" y1="498.0" x2="897.0217391304349" y2="502.79999999999995" stroke="#000"/>
<text x="897.0217391304349" y="512.4" fill="#111" font-size="small" font-family="monospace" font-weight="bold" text-anchor="end" transform="rotate(-60, 897.0217391304349, 512.4)">
setivar_young
</text>
<rect x="906.2173913043479" y="479.64939450104424" width="6.130434782608696" height="18.350605498955765" fill="#7070f8" data-tooltip="1.00x baseline speed (No JIT)"/>
<line x1="906.2173913043479" y1="479.4837230750156" x2="912.3478260869565" y2="479.4837230750156" stroke="#000"/>
<line x1="906.2173913043479" y1="479.8150659270729" x2="912.3478260869565" y2="479.8150659270729" stroke="#000"/>
<line x1="909.2826086956522" y1="479.4837230750156" x2="909.2826086956522" y2="479.8150659270729" stroke="#000"/>
<rect x="912.3478260869565" y="464.629537536239" width="6.130434782608696" height="33.370462463760965" fill="orange" data-tooltip="1.82x baseline speed (YJIT)"/>
<line x1="912.3478260869565" y1="464.1292171385884" x2="918.4782608695651" y2="464.1292171385884" stroke="#000"/>
<line x1="912.3478260869565" y1="465.12985793388964" x2="918.4782608695651" y2="465.12985793388964" stroke="#000"/>
<line x1="915.4130434782609" y1="464.1292171385884" x2="915.4130434782609" y2="465.12985793388964" stroke="#000"/>
<line x1="915.4130434782609" y1="498.0" x2="915.4130434782609" y2="502.79999999999995" stroke="#000"/>
<text x="915.4130434782609" y="512.4" fill="#111" font-size="small" font-family="monospace" font-weight="bold" text-anchor="end" transform="rotate(-60, 915.4130434782609, 512.4)">
str_concat
</text>
<rect x="924.608695652174" y="479.64939450104424" width="6.130434782608696" height="18.350605498955765" fill="#7070f8" data-tooltip="1.00x baseline speed (No JIT)"/>
<line x1="924.608695652174" y1="479.61222914350003" x2="930.7391304347826" y2="479.61222914350003" stroke="#000"/>
<line x1="924.608695652174" y1="479.6865598585884" x2="930.7391304347826" y2="479.6865598585884" stroke="#000"/>
<line x1="927.6739130434784" y1="479.61222914350003" x2="927.6739130434784" y2="479.6865598585884" stroke="#000"/>
<rect x="930.7391304347826" y="475.54990109919555" width="6.130434782608696" height="22.450098900804353" fill="orange" data-tooltip="1.22x baseline speed (YJIT)"/>
<line x1="930.7391304347826" y1="475.47062427110257" x2="936.8695652173913" y2="475.47062427110257" stroke="#000"/>
<line x1="930.7391304347826" y1="475.6291779272886" x2="936.8695652173913" y2="475.6291779272886" stroke="#000"/>
<line x1="933.804347826087" y1="475.47062427110257" x2="933.804347826087" y2="475.6291779272886" stroke="#000"/>
<line x1="933.804347826087" y1="498.0" x2="933.804347826087" y2="502.79999999999995" stroke="#000"/>
<text x="933.804347826087" y="512.4" fill="#111" font-size="small" font-family="monospace" font-weight="bold" text-anchor="end" transform="rotate(-60, 933.804347826087, 512.4)">
throw
</text>
</svg>