<svg viewBox="0 0 1000 600" xmlns="http://www.w3.org/2000/svg" xmlns:xlink="http://www.w3.org/1999/xlink" width="100%" height="100%">

<rect x="50.0" y="30.0" width="940.0" height="467.99999999999994" stroke="#000" fill="#fff"/>
<line x1="42.0" y1="497.9999999999999" x2="50.0" y2="497.9999999999999" stroke="#000"/>
<text x="26.000000000000004" y="497.9999999999999" text-anchor="end" font-weight="bold" font-size="small" fill="#111">
0.0
</text>
<line x1="42.0" y1="400.74719889315264" x2="50.0" y2="400.74719889315264" stroke="#000"/>
<text x="26.000000000000004" y="400.74719889315264" text-anchor="end" font-weight="bold" font-size="small" fill="#111">
5.0
</text>
<line x1="42.0" y1="303.4943977863054" x2="50.0" y2="303.4943977863054" stroke="#000"/>
<text x="26.000000000000004" y="303.4943977863054" text-anchor="end" font-weight="bold" font-size="small" fill="#111">
10.0
</text>
<line x1="42.0" y1="206.24159667945813" x2="50.0" y2="206.24159667945813" stroke="#000"/>
<text x="26.000000000000004" y="206.24159667945813" text-anchor="end" font-weight="bold" font-size="small" fill="#111">
15.0
</text>
<line x1="42.0" y1="108.98879557261083" x2="50.0" y2="108.98879557261083" stroke="#000"/>
<text x="26.000000000000004" y="108.98879557261083" text-anchor="end" font-weight="bold" font-size="small" fill="#111">
20.0
</text>
<line x1="142.75" y1="54.60000000000001" x2="262.75" y2="54.60000000000001" stroke="#648FFF" stroke-width="2"/>
<text x="202.75" y="49.500000000000014" font-size="small" text-anchor="middle" font-weight="bold" fill="#000">
CRuby 3.3.4
</text>
<rect x="354.25" y="35.400000000000006" width="120.0" height="19.2" fill="#785EF0" stroke="none"/>
<text x="414.25" y="49.500000000000014" font-size="small" text-anchor="middle" font-weight="bold" fill="#fff" style="text-shadow: 0 0 1px #000;">
CRuby 3.4.0dev
</text>
<rect x="565.75" y="35.400000000000006" width="120.0" height="19.2" fill="#FFB000" stroke="none"/>
<text x="625.7499999999999" y="49.500000000000014" font-size="small" text-anchor="middle" font-weight="bold" fill="#fff" style="text-shadow: 0 0 1px #000;">
YJIT 3.3.4
</text>
<rect x="777.25" y="35.400000000000006" width="120.0" height="19.2" fill="#DC267F" stroke="none"/>
<text x="837.2499999999999" y="49.500000000000014" font-size="small" text-anchor="middle" font-weight="bold" fill="#fff" style="text-shadow: 0 0 1px #000;">
YJIT 3.4.0dev
</text>
<rect x="65.40983606557377" y="479.1239632090094" width="15.40983606557377" height="18.876036790990533" fill="#785EF0" data-tooltip="0.97x baseline (CRuby 3.4.0dev)"/>
<line x1="65.40983606557377" y1="479.0974906725867" x2="80.81967213114753" y2="479.0974906725867" stroke-dasharray="1,0.5" stroke="#333c"/>
<line x1="65.40983606557377" y1="479.15043574543205" x2="80.81967213114753" y2="479.15043574543205" stroke-dasharray="1,0.5" stroke="#333c"/>
<line x1="73.11475409836066" y1="479.0974906725867" x2="73.11475409836066" y2="479.15043574543205" stroke-dasharray="1,0.5" stroke="#333c"/>
<rect x="80.81967213114753" y="366.7571439588734" width="15.40983606557377" height="131.24285604112654" fill="#FFB000" data-tooltip="6.75x baseline (YJIT 3.3.4)"/>
<line x1="80.81967213114753" y1="366.59469767318575" x2="96.2295081967213" y2="366.59469767318575" stroke-dasharray="1,0.5" stroke="#333c"/>
<line x1="80.81967213114753" y1="366.9195902445611" x2="96.2295081967213" y2="366.9195902445611" stroke-dasharray="1,0.5" stroke="#333c"/>
<line x1="88.52459016393442" y1="366.59469767318575" x2="88.52459016393442" y2="366.9195902445611" stroke-dasharray="1,0.5" stroke="#333c"/>
<rect x="96.2295081967213" y="366.2942995484807" width="15.40983606557377" height="131.70570045151922" fill="#DC267F" data-tooltip="6.77x baseline (YJIT 3.4.0dev)"/>
<line x1="96.2295081967213" y1="366.1038878883135" x2="111.63934426229507" y2="366.1038878883135" stroke-dasharray="1,0.5" stroke="#333c"/>
<line x1="96.2295081967213" y1="366.4847112086478" x2="111.63934426229507" y2="366.4847112086478" stroke-dasharray="1,0.5" stroke="#333c"/>
<line x1="103.93442622950819" y1="366.1038878883135" x2="103.93442622950819" y2="366.4847112086478" stroke-dasharray="1,0.5" stroke="#333c"/>
<line x1="88.5245901639344" y1="498.0" x2="88.5245901639344" y2="502.79999999999995" stroke="#000"/>
<text x="88.5245901639344" y="512.4" fill="#111" font-size="small" text-anchor="end" transform="rotate(-60, 88.5245901639344, 512.4)">
30k_ifelse
</text>
<rect x="127.04918032786883" y="478.92759555504585" width="15.40983606557377" height="19.072404444954" fill="#785EF0" data-tooltip="0.98x baseline (CRuby 3.4.0dev)"/>
<line x1="127.04918032786883" y1="478.92048009041963" x2="142.4590163934426" y2="478.92048009041963" stroke-dasharray="1,0.5" stroke="#333c"/>
<line x1="127.04918032786883" y1="478.93471101967214" x2="142.4590163934426" y2="478.93471101967214" stroke-dasharray="1,0.5" stroke="#333c"/>
<line x1="134.75409836065572" y1="478.92048009041963" x2="134.75409836065572" y2="478.93471101967214" stroke-dasharray="1,0.5" stroke="#333c"/>
<rect x="142.4590163934426" y="340.95357616886923" width="15.40983606557377" height="157.04642383113068" fill="#FFB000" data-tooltip="8.07x baseline (YJIT 3.3.4)"/>
<line x1="142.4590163934426" y1="340.8806848810045" x2="157.86885245901638" y2="340.8806848810045" stroke-dasharray="1,0.5" stroke="#333c"/>
<line x1="142.4590163934426" y1="341.026467456734" x2="157.86885245901638" y2="341.026467456734" stroke-dasharray="1,0.5" stroke="#333c"/>
<line x1="150.1639344262295" y1="340.8806848810045" x2="150.1639344262295" y2="341.026467456734" stroke-dasharray="1,0.5" stroke="#333c"/>
<rect x="157.86885245901638" y="342.28893701602306" width="15.40983606557377" height="155.71106298397692" fill="#DC267F" data-tooltip="8.01x baseline (YJIT 3.4.0dev)"/>
<line x1="157.86885245901638" y1="342.1379886960814" x2="173.27868852459017" y2="342.1379886960814" stroke-dasharray="1,0.5" stroke="#333c"/>
<line x1="157.86885245901638" y1="342.4398853359647" x2="173.27868852459017" y2="342.4398853359647" stroke-dasharray="1,0.5" stroke="#333c"/>
<line x1="165.5737704918033" y1="342.1379886960814" x2="165.5737704918033" y2="342.4398853359647" stroke-dasharray="1,0.5" stroke="#333c"/>
<line x1="150.1639344262295" y1="498.0" x2="150.1639344262295" y2="502.79999999999995" stroke="#000"/>
<text x="150.1639344262295" y="512.4" fill="#111" font-size="small" text-anchor="end" transform="rotate(-60, 150.1639344262295, 512.4)">
30k_methods
</text>
<rect x="188.68852459016395" y="479.86310179221874" width="15.40983606557377" height="18.13689820778128" fill="#785EF0" data-tooltip="0.93x baseline (CRuby 3.4.0dev)"/>
<line x1="188.68852459016395" y1="479.80446474110215" x2="204.0983606557377" y2="479.80446474110215" stroke-dasharray="1,0.5" stroke="#333c"/>
<line x1="188.68852459016395" y1="479.9217388433353" x2="204.0983606557377" y2="479.9217388433353" stroke-dasharray="1,0.5" stroke="#333c"/>
<line x1="196.39344262295083" y1="479.80446474110215" x2="196.39344262295083" y2="479.9217388433353" stroke-dasharray="1,0.5" stroke="#333c"/>
<rect x="204.0983606557377" y="415.87499886329806" width="15.40983606557377" height="82.12500113670191" fill="#FFB000" data-tooltip="4.22x baseline (YJIT 3.3.4)"/>
<line x1="204.0983606557377" y1="410.3285668852442" x2="219.5081967213115" y2="410.3285668852442" stroke-dasharray="1,0.5" stroke="#333c"/>
<line x1="204.0983606557377" y1="421.42143084135193" x2="219.5081967213115" y2="421.42143084135193" stroke-dasharray="1,0.5" stroke="#333c"/>
<line x1="211.8032786885246" y1="410.3285668852442" x2="211.8032786885246" y2="421.42143084135193" stroke-dasharray="1,0.5" stroke="#333c"/>
<rect x="219.5081967213115" y="407.89962144538976" width="15.40983606557377" height="90.10037855461016" fill="#DC267F" data-tooltip="4.63x baseline (YJIT 3.4.0dev)"/>
<line x1="219.5081967213115" y1="400.78107360052593" x2="234.91803278688528" y2="400.78107360052593" stroke-dasharray="1,0.5" stroke="#333c"/>
<line x1="219.5081967213115" y1="415.01816929025364" x2="234.91803278688528" y2="415.01816929025364" stroke-dasharray="1,0.5" stroke="#333c"/>
<line x1="227.2131147540984" y1="400.78107360052593" x2="227.2131147540984" y2="415.01816929025364" stroke-dasharray="1,0.5" stroke="#333c"/>
<line x1="211.8032786885246" y1="498.0" x2="211.8032786885246" y2="502.79999999999995" stroke="#000"/>
<text x="211.8032786885246" y="512.4" fill="#111" font-size="small" text-anchor="end" transform="rotate(-60, 211.8032786885246, 512.4)">
cfunc_itself
</text>
<rect x="250.32786885245906" y="479.50028787209703" width="15.40983606557377" height="18.49971212790289" fill="#785EF0" data-tooltip="0.95x baseline (CRuby 3.4.0dev)"/>
<line x1="250.32786885245906" y1="479.48666354889417" x2="265.7377049180328" y2="479.48666354889417" stroke-dasharray="1,0.5" stroke="#333c"/>
<line x1="250.32786885245906" y1="479.51391219529995" x2="265.7377049180328" y2="479.51391219529995" stroke-dasharray="1,0.5" stroke="#333c"/>
<line x1="258.03278688524597" y1="479.48666354889417" x2="258.03278688524597" y2="479.51391219529995" stroke-dasharray="1,0.5" stroke="#333c"/>
<rect x="265.7377049180328" y="391.53318352545136" width="15.40983606557377" height="106.46681647454858" fill="#FFB000" data-tooltip="5.47x baseline (YJIT 3.3.4)"/>
<line x1="265.7377049180328" y1="391.3130753005279" x2="281.14754098360663" y2="391.3130753005279" stroke-dasharray="1,0.5" stroke="#333c"/>
<line x1="265.7377049180328" y1="391.75329175037484" x2="281.14754098360663" y2="391.75329175037484" stroke-dasharray="1,0.5" stroke="#333c"/>
<line x1="273.4426229508197" y1="391.3130753005279" x2="273.4426229508197" y2="391.75329175037484" stroke-dasharray="1,0.5" stroke="#333c"/>
<rect x="281.14754098360663" y="391.21626935891015" width="15.40983606557377" height="106.7837306410898" fill="#DC267F" data-tooltip="5.49x baseline (YJIT 3.4.0dev)"/>
<line x1="281.14754098360663" y1="391.15448373670523" x2="296.5573770491804" y2="391.15448373670523" stroke-dasharray="1,0.5" stroke="#333c"/>
<line x1="281.14754098360663" y1="391.27805498111513" x2="296.5573770491804" y2="391.27805498111513" stroke-dasharray="1,0.5" stroke="#333c"/>
<line x1="288.8524590163935" y1="391.15448373670523" x2="288.8524590163935" y2="391.27805498111513" stroke-dasharray="1,0.5" stroke="#333c"/>
<line x1="273.4426229508197" y1="498.0" x2="273.4426229508197" y2="502.79999999999995" stroke="#000"/>
<text x="273.4426229508197" y="512.4" fill="#111" font-size="small" text-anchor="end" transform="rotate(-60, 273.4426229508197, 512.4)">
fib
</text>
<rect x="311.96721311475414" y="481.0076636696974" width="15.40983606557377" height="16.99233633030254" fill="#785EF0" data-tooltip="0.87x baseline (CRuby 3.4.0dev)"/>
<line x1="311.96721311475414" y1="480.9788981774452" x2="327.37704918032796" y2="480.9788981774452" stroke-dasharray="1,0.5" stroke="#333c"/>
<line x1="311.96721311475414" y1="481.0364291619497" x2="327.37704918032796" y2="481.0364291619497" stroke-dasharray="1,0.5" stroke="#333c"/>
<line x1="319.67213114754105" y1="480.9788981774452" x2="319.67213114754105" y2="481.0364291619497" stroke-dasharray="1,0.5" stroke="#333c"/>
<rect x="327.37704918032796" y="399.77160854088" width="15.40983606557377" height="98.22839145912003" fill="#FFB000" data-tooltip="5.05x baseline (YJIT 3.3.4)"/>
<line x1="327.37704918032796" y1="351.14925776646095" x2="342.7868852459017" y2="351.14925776646095" stroke-dasharray="1,0.5" stroke="#333c"/>
<line x1="327.37704918032796" y1="448.393959315299" x2="342.7868852459017" y2="448.393959315299" stroke-dasharray="1,0.5" stroke="#333c"/>
<line x1="335.08196721311486" y1="351.14925776646095" x2="335.08196721311486" y2="448.393959315299" stroke-dasharray="1,0.5" stroke="#333c"/>
<rect x="342.7868852459017" y="363.7687856403751" width="15.40983606557377" height="134.23121435962486" fill="#DC267F" data-tooltip="6.90x baseline (YJIT 3.4.0dev)"/>
<line x1="342.7868852459017" y1="266.1671222448749" x2="358.1967213114755" y2="266.1671222448749" stroke-dasharray="1,0.5" stroke="#333c"/>
<line x1="342.7868852459017" y1="461.3704490358753" x2="358.1967213114755" y2="461.3704490358753" stroke-dasharray="1,0.5" stroke="#333c"/>
<line x1="350.4918032786886" y1="266.1671222448749" x2="350.4918032786886" y2="461.3704490358753" stroke-dasharray="1,0.5" stroke="#333c"/>
<line x1="335.08196721311486" y1="498.0" x2="335.08196721311486" y2="502.79999999999995" stroke="#000"/>
<text x="335.08196721311486" y="512.4" fill="#111" font-size="small" text-anchor="end" transform="rotate(-60, 335.08196721311486, 512.4)">
getivar
</text>
<rect x="373.6065573770493" y="480.14401461934074" width="15.40983606557377" height="17.855985380659288" fill="#785EF0" data-tooltip="0.92x baseline (CRuby 3.4.0dev)"/>
<line x1="373.6065573770493" y1="480.12986920003567" x2="389.01639344262304" y2="480.12986920003567" stroke-dasharray="1,0.5" stroke="#333c"/>
<line x1="373.6065573770493" y1="480.15816003864575" x2="389.01639344262304" y2="480.15816003864575" stroke-dasharray="1,0.5" stroke="#333c"/>
<line x1="381.3114754098362" y1="480.12986920003567" x2="381.3114754098362" y2="480.15816003864575" stroke-dasharray="1,0.5" stroke="#333c"/>
<rect x="389.01639344262304" y="358.01888781691997" width="15.40983606557377" height="139.98111218307992" fill="#FFB000" data-tooltip="7.20x baseline (YJIT 3.3.4)"/>
<line x1="389.01639344262304" y1="350.5012571671588" x2="404.42622950819685" y2="350.5012571671588" stroke-dasharray="1,0.5" stroke="#333c"/>
<line x1="389.01639344262304" y1="365.5365184666811" x2="404.42622950819685" y2="365.5365184666811" stroke-dasharray="1,0.5" stroke="#333c"/>
<line x1="396.72131147540995" y1="350.5012571671588" x2="396.72131147540995" y2="365.5365184666811" stroke-dasharray="1,0.5" stroke="#333c"/>
<rect x="404.42622950819685" y="314.2681538471592" width="15.40983606557377" height="183.73184615284066" fill="#DC267F" data-tooltip="9.45x baseline (YJIT 3.4.0dev)"/>
<line x1="404.42622950819685" y1="301.6740715079788" x2="419.8360655737706" y2="301.6740715079788" stroke-dasharray="1,0.5" stroke="#333c"/>
<line x1="404.42622950819685" y1="326.86223618633966" x2="419.8360655737706" y2="326.86223618633966" stroke-dasharray="1,0.5" stroke="#333c"/>
<line x1="412.13114754098376" y1="301.6740715079788" x2="412.13114754098376" y2="326.86223618633966" stroke-dasharray="1,0.5" stroke="#333c"/>
<line x1="396.72131147540995" y1="498.0" x2="396.72131147540995" y2="502.79999999999995" stroke="#000"/>
<text x="396.72131147540995" y="512.4" fill="#111" font-size="small" text-anchor="end" transform="rotate(-60, 396.72131147540995, 512.4)">
keyword_args
</text>
<rect x="435.2459016393444" y="480.855567581571" width="15.40983606557377" height="17.144432418429012" fill="#785EF0" data-tooltip="0.88x baseline (CRuby 3.4.0dev)"/>
<line x1="435.2459016393444" y1="480.83333109417663" x2="450.6557377049182" y2="480.83333109417663" stroke-dasharray="1,0.5" stroke="#333c"/>
<line x1="435.2459016393444" y1="480.8778040689653" x2="450.6557377049182" y2="480.8778040689653" stroke-dasharray="1,0.5" stroke="#333c"/>
<line x1="442.9508196721313" y1="480.83333109417663" x2="442.9508196721313" y2="480.8778040689653" stroke-dasharray="1,0.5" stroke="#333c"/>
<rect x="450.6557377049182" y="472.0930128642738" width="15.40983606557377" height="25.906987135726116" fill="#FFB000" data-tooltip="1.33x baseline (YJIT 3.3.4)"/>
<line x1="450.6557377049182" y1="469.873308136556" x2="466.06557377049194" y2="469.873308136556" stroke-dasharray="1,0.5" stroke="#333c"/>
<line x1="450.6557377049182" y1="474.3127175919917" x2="466.06557377049194" y2="474.3127175919917" stroke-dasharray="1,0.5" stroke="#333c"/>
<line x1="458.3606557377051" y1="469.873308136556" x2="458.3606557377051" y2="474.3127175919917" stroke-dasharray="1,0.5" stroke="#333c"/>
<rect x="466.06557377049194" y="475.9025804317641" width="15.40983606557377" height="22.09741956823594" fill="#DC267F" data-tooltip="1.14x baseline (YJIT 3.4.0dev)"/>
<line x1="466.06557377049194" y1="474.0829577997274" x2="481.47540983606575" y2="474.0829577997274" stroke-dasharray="1,0.5" stroke="#333c"/>
<line x1="466.06557377049194" y1="477.72220306380075" x2="481.47540983606575" y2="477.72220306380075" stroke-dasharray="1,0.5" stroke="#333c"/>
<line x1="473.77049180327884" y1="474.0829577997274" x2="473.77049180327884" y2="477.72220306380075" stroke-dasharray="1,0.5" stroke="#333c"/>
<line x1="458.3606557377051" y1="498.0" x2="458.3606557377051" y2="502.79999999999995" stroke="#000"/>
<text x="458.3606557377051" y="512.4" fill="#111" font-size="small" text-anchor="end" transform="rotate(-60, 458.3606557377051, 512.4)">
object-new
</text>
<rect x="496.8852459016395" y="480.04964934528067" width="15.40983606557377" height="17.9503506547192" fill="#785EF0" data-tooltip="0.92x baseline (CRuby 3.4.0dev)"/>
<line x1="496.8852459016395" y1="479.9770722770136" x2="512.2950819672133" y2="479.9770722770136" stroke-dasharray="1,0.5" stroke="#333c"/>
<line x1="496.8852459016395" y1="480.1222264135478" x2="512.2950819672133" y2="480.1222264135478" stroke-dasharray="1,0.5" stroke="#333c"/>
<line x1="504.59016393442636" y1="479.9770722770136" x2="504.59016393442636" y2="480.1222264135478" stroke-dasharray="1,0.5" stroke="#333c"/>
<rect x="512.2950819672133" y="169.37402115895975" width="15.40983606557377" height="328.62597884104025" fill="#FFB000" data-tooltip="16.90x baseline (YJIT 3.3.4)"/>
<line x1="512.2950819672133" y1="144.5811205508288" x2="527.7049180327871" y2="144.5811205508288" stroke-dasharray="1,0.5" stroke="#333c"/>
<line x1="512.2950819672133" y1="194.16692176709068" x2="527.7049180327871" y2="194.16692176709068" stroke-dasharray="1,0.5" stroke="#333c"/>
<line x1="520.0000000000001" y1="144.5811205508288" x2="520.0000000000001" y2="194.16692176709068" stroke-dasharray="1,0.5" stroke="#333c"/>
<rect x="527.7049180327871" y="100.19999999999999" width="15.40983606557377" height="397.79999999999995" fill="#DC267F" data-tooltip="20.45x baseline (YJIT 3.4.0dev)"/>
<line x1="527.7049180327871" y1="58.640041666349525" x2="543.1147540983609" y2="58.640041666349525" stroke-dasharray="1,0.5" stroke="#333c"/>
<line x1="527.7049180327871" y1="141.75995833365045" x2="543.1147540983609" y2="141.75995833365045" stroke-dasharray="1,0.5" stroke="#333c"/>
<line x1="535.4098360655739" y1="58.640041666349525" x2="535.4098360655739" y2="141.75995833365045" stroke-dasharray="1,0.5" stroke="#333c"/>
<line x1="520.0000000000002" y1="498.0" x2="520.0000000000002" y2="502.79999999999995" stroke="#000"/>
<text x="520.0000000000002" y="512.4" fill="#111" font-size="small" text-anchor="end" transform="rotate(-60, 520.0000000000002, 512.4)">
respond_to
</text>
<rect x="558.5245901639346" y="481.0752624514562" width="15.40983606557377" height="16.924737548543767" fill="#785EF0" data-tooltip="0.87x baseline (CRuby 3.4.0dev)"/>
<line x1="558.5245901639346" y1="481.05451400773734" x2="573.9344262295084" y2="481.05451400773734" stroke-dasharray="1,0.5" stroke="#333c"/>
<line x1="558.5245901639346" y1="481.096010895175" x2="573.9344262295084" y2="481.096010895175" stroke-dasharray="1,0.5" stroke="#333c"/>
<line x1="566.2295081967214" y1="481.05451400773734" x2="566.2295081967214" y2="481.096010895175" stroke-dasharray="1,0.5" stroke="#333c"/>
<rect x="573.9344262295084" y="446.38853110949645" width="15.40983606557377" height="51.611468890503495" fill="#FFB000" data-tooltip="2.65x baseline (YJIT 3.3.4)"/>
<line x1="573.9344262295084" y1="446.3090949679155" x2="589.3442622950822" y2="446.3090949679155" stroke-dasharray="1,0.5" stroke="#333c"/>
<line x1="573.9344262295084" y1="446.4679672510774" x2="589.3442622950822" y2="446.4679672510774" stroke-dasharray="1,0.5" stroke="#333c"/>
<line x1="581.6393442622953" y1="446.3090949679155" x2="581.6393442622953" y2="446.4679672510774" stroke-dasharray="1,0.5" stroke="#333c"/>
<rect x="589.3442622950822" y="429.6854269029184" width="15.40983606557377" height="68.31457309708165" fill="#DC267F" data-tooltip="3.51x baseline (YJIT 3.4.0dev)"/>
<line x1="589.3442622950822" y1="429.6153329366683" x2="604.7540983606559" y2="429.6153329366683" stroke-dasharray="1,0.5" stroke="#333c"/>
<line x1="589.3442622950822" y1="429.7555208691684" x2="604.7540983606559" y2="429.7555208691684" stroke-dasharray="1,0.5" stroke="#333c"/>
<line x1="597.0491803278691" y1="429.6153329366683" x2="597.0491803278691" y2="429.7555208691684" stroke-dasharray="1,0.5" stroke="#333c"/>
<line x1="581.6393442622954" y1="498.0" x2="581.6393442622954" y2="502.79999999999995" stroke="#000"/>
<text x="581.6393442622954" y="512.4" fill="#111" font-size="small" text-anchor="end" transform="rotate(-60, 581.6393442622954, 512.4)">
ruby-xor
</text>
<rect x="620.1639344262297" y="478.8616511616186" width="15.40983606557377" height="19.138348838381283" fill="#785EF0" data-tooltip="0.98x baseline (CRuby 3.4.0dev)"/>
<line x1="620.1639344262297" y1="478.6416597477678" x2="635.5737704918035" y2="478.6416597477678" stroke-dasharray="1,0.5" stroke="#333c"/>
<line x1="620.1639344262297" y1="479.0816425754695" x2="635.5737704918035" y2="479.0816425754695" stroke-dasharray="1,0.5" stroke="#333c"/>
<line x1="627.8688524590166" y1="478.6416597477678" x2="627.8688524590166" y2="479.0816425754695" stroke-dasharray="1,0.5" stroke="#333c"/>
<rect x="635.5737704918035" y="388.7302765797478" width="15.40983606557377" height="109.26972342025219" fill="#FFB000" data-tooltip="5.62x baseline (YJIT 3.3.4)"/>
<line x1="635.5737704918035" y1="343.68830019943994" x2="650.9836065573774" y2="343.68830019943994" stroke-dasharray="1,0.5" stroke="#333c"/>
<line x1="635.5737704918035" y1="433.77225296005565" x2="650.9836065573774" y2="433.77225296005565" stroke-dasharray="1,0.5" stroke="#333c"/>
<line x1="643.2786885245904" y1="343.68830019943994" x2="643.2786885245904" y2="433.77225296005565" stroke-dasharray="1,0.5" stroke="#333c"/>
<rect x="650.9836065573774" y="271.59489795582084" width="15.40983606557377" height="226.40510204417913" fill="#DC267F" data-tooltip="11.64x baseline (YJIT 3.4.0dev)"/>
<line x1="650.9836065573774" y1="118.09578249428056" x2="666.393442622951" y2="118.09578249428056" stroke-dasharray="1,0.5" stroke="#333c"/>
<line x1="650.9836065573774" y1="425.0940134173611" x2="666.393442622951" y2="425.0940134173611" stroke-dasharray="1,0.5" stroke="#333c"/>
<line x1="658.6885245901641" y1="118.09578249428056" x2="658.6885245901641" y2="425.0940134173611" stroke-dasharray="1,0.5" stroke="#333c"/>
<line x1="643.2786885245905" y1="498.0" x2="643.2786885245905" y2="502.79999999999995" stroke="#000"/>
<text x="643.2786885245905" y="512.4" fill="#111" font-size="small" text-anchor="end" transform="rotate(-60, 643.2786885245905, 512.4)">
setivar
</text>
<rect x="681.8032786885249" y="478.60855091207395" width="15.40983606557377" height="19.391449087926077" fill="#785EF0" data-tooltip="1.00x baseline (CRuby 3.4.0dev)"/>
<line x1="681.8032786885249" y1="478.5040837547066" x2="697.2131147540987" y2="478.5040837547066" stroke-dasharray="1,0.5" stroke="#333c"/>
<line x1="681.8032786885249" y1="478.71301806944126" x2="697.2131147540987" y2="478.71301806944126" stroke-dasharray="1,0.5" stroke="#333c"/>
<line x1="689.5081967213117" y1="478.5040837547066" x2="689.5081967213117" y2="478.71301806944126" stroke-dasharray="1,0.5" stroke="#333c"/>
<rect x="697.2131147540987" y="450.0270826188947" width="15.40983606557377" height="47.972917381105304" fill="#FFB000" data-tooltip="2.47x baseline (YJIT 3.3.4)"/>
<line x1="697.2131147540987" y1="437.86311343794466" x2="712.6229508196724" y2="437.86311343794466" stroke-dasharray="1,0.5" stroke="#333c"/>
<line x1="697.2131147540987" y1="462.19105179984473" x2="712.6229508196724" y2="462.19105179984473" stroke-dasharray="1,0.5" stroke="#333c"/>
<line x1="704.9180327868854" y1="437.86311343794466" x2="704.9180327868854" y2="462.19105179984473" stroke-dasharray="1,0.5" stroke="#333c"/>
<rect x="712.6229508196724" y="446.3632356474701" width="15.40983606557377" height="51.636764352529795" fill="#DC267F" data-tooltip="2.65x baseline (YJIT 3.4.0dev)"/>
<line x1="712.6229508196724" y1="432.0465451739786" x2="728.0327868852462" y2="432.0465451739786" stroke-dasharray="1,0.5" stroke="#333c"/>
<line x1="712.6229508196724" y1="460.6799261209616" x2="728.0327868852462" y2="460.6799261209616" stroke-dasharray="1,0.5" stroke="#333c"/>
<line x1="720.3278688524592" y1="432.0465451739786" x2="720.3278688524592" y2="460.6799261209616" stroke-dasharray="1,0.5" stroke="#333c"/>
<line x1="704.9180327868855" y1="498.0" x2="704.9180327868855" y2="502.79999999999995" stroke="#000"/>
<text x="704.9180327868855" y="512.4" fill="#111" font-size="small" text-anchor="end" transform="rotate(-60, 704.9180327868855, 512.4)">
setivar_object
</text>
<rect x="743.44262295082" y="478.60015633171577" width="15.40983606557377" height="19.399843668284138" fill="#785EF0" data-tooltip="1.00x baseline (CRuby 3.4.0dev)"/>
<line x1="743.44262295082" y1="478.351602351611" x2="758.8524590163937" y2="478.351602351611" stroke-dasharray="1,0.5" stroke="#333c"/>
<line x1="743.44262295082" y1="478.8487103118205" x2="758.8524590163937" y2="478.8487103118205" stroke-dasharray="1,0.5" stroke="#333c"/>
<line x1="751.1475409836069" y1="478.351602351611" x2="751.1475409836069" y2="478.8487103118205" stroke-dasharray="1,0.5" stroke="#333c"/>
<rect x="758.8524590163937" y="450.04122933190587" width="15.40983606557377" height="47.9587706680941" fill="#FFB000" data-tooltip="2.47x baseline (YJIT 3.3.4)"/>
<line x1="758.8524590163937" y1="437.7455711583888" x2="774.2622950819675" y2="437.7455711583888" stroke-dasharray="1,0.5" stroke="#333c"/>
<line x1="758.8524590163937" y1="462.3368875054229" x2="774.2622950819675" y2="462.3368875054229" stroke-dasharray="1,0.5" stroke="#333c"/>
<line x1="766.5573770491806" y1="437.7455711583888" x2="766.5573770491806" y2="462.3368875054229" stroke-dasharray="1,0.5" stroke="#333c"/>
<rect x="774.2622950819675" y="446.44490972687214" width="15.40983606557377" height="51.555090273127824" fill="#DC267F" data-tooltip="2.65x baseline (YJIT 3.4.0dev)"/>
<line x1="774.2622950819675" y1="432.1287317395622" x2="789.6721311475413" y2="432.1287317395622" stroke-dasharray="1,0.5" stroke="#333c"/>
<line x1="774.2622950819675" y1="460.761087714182" x2="789.6721311475413" y2="460.761087714182" stroke-dasharray="1,0.5" stroke="#333c"/>
<line x1="781.9672131147544" y1="432.1287317395622" x2="781.9672131147544" y2="460.761087714182" stroke-dasharray="1,0.5" stroke="#333c"/>
<line x1="766.5573770491807" y1="498.0" x2="766.5573770491807" y2="502.79999999999995" stroke="#000"/>
<text x="766.5573770491807" y="512.4" fill="#111" font-size="small" text-anchor="end" transform="rotate(-60, 766.5573770491807, 512.4)">
setivar_young
</text>
<rect x="805.081967213115" y="480.19340574342414" width="15.40983606557377" height="17.806594256575785" fill="#785EF0" data-tooltip="0.92x baseline (CRuby 3.4.0dev)"/>
<line x1="805.081967213115" y1="479.9765019701793" x2="820.4918032786888" y2="479.9765019701793" stroke-dasharray="1,0.5" stroke="#333c"/>
<line x1="805.081967213115" y1="480.41030951666903" x2="820.4918032786888" y2="480.41030951666903" stroke-dasharray="1,0.5" stroke="#333c"/>
<line x1="812.7868852459019" y1="479.9765019701793" x2="812.7868852459019" y2="480.41030951666903" stroke-dasharray="1,0.5" stroke="#333c"/>
<rect x="820.4918032786888" y="463.3520830615387" width="15.40983606557377" height="34.647916938461336" fill="#FFB000" data-tooltip="1.78x baseline (YJIT 3.3.4)"/>
<line x1="820.4918032786888" y1="462.7910381538664" x2="835.9016393442627" y2="462.7910381538664" stroke-dasharray="1,0.5" stroke="#333c"/>
<line x1="820.4918032786888" y1="463.9131279692109" x2="835.9016393442627" y2="463.9131279692109" stroke-dasharray="1,0.5" stroke="#333c"/>
<line x1="828.1967213114757" y1="462.7910381538664" x2="828.1967213114757" y2="463.9131279692109" stroke-dasharray="1,0.5" stroke="#333c"/>
<rect x="835.9016393442627" y="467.35454586193146" width="15.40983606557377" height="30.64545413806853" fill="#DC267F" data-tooltip="1.58x baseline (YJIT 3.4.0dev)"/>
<line x1="835.9016393442627" y1="466.9260711732591" x2="851.3114754098365" y2="466.9260711732591" stroke-dasharray="1,0.5" stroke="#333c"/>
<line x1="835.9016393442627" y1="467.78302055060374" x2="851.3114754098365" y2="467.78302055060374" stroke-dasharray="1,0.5" stroke="#333c"/>
<line x1="843.6065573770495" y1="466.9260711732591" x2="843.6065573770495" y2="467.78302055060374" stroke-dasharray="1,0.5" stroke="#333c"/>
<line x1="828.1967213114758" y1="498.0" x2="828.1967213114758" y2="502.79999999999995" stroke="#000"/>
<text x="828.1967213114758" y="512.4" fill="#111" font-size="small" text-anchor="end" transform="rotate(-60, 828.1967213114758, 512.4)">
str_concat
</text>
<rect x="866.7213114754102" y="479.9701708196824" width="15.40983606557377" height="18.029829180317552" fill="#785EF0" data-tooltip="0.93x baseline (CRuby 3.4.0dev)"/>
<line x1="866.7213114754102" y1="479.89850917208173" x2="882.131147540984" y2="479.89850917208173" stroke-dasharray="1,0.5" stroke="#333c"/>
<line x1="866.7213114754102" y1="480.04183246728303" x2="882.131147540984" y2="480.04183246728303" stroke-dasharray="1,0.5" stroke="#333c"/>
<line x1="874.426229508197" y1="479.89850917208173" x2="874.426229508197" y2="480.04183246728303" stroke-dasharray="1,0.5" stroke="#333c"/>
<rect x="882.131147540984" y="472.7144149006081" width="15.40983606557377" height="25.285585099391795" fill="#FFB000" data-tooltip="1.30x baseline (YJIT 3.3.4)"/>
<line x1="882.131147540984" y1="472.60191485974343" x2="897.5409836065578" y2="472.60191485974343" stroke-dasharray="1,0.5" stroke="#333c"/>
<line x1="882.131147540984" y1="472.82691494147286" x2="897.5409836065578" y2="472.82691494147286" stroke-dasharray="1,0.5" stroke="#333c"/>
<line x1="889.8360655737708" y1="472.60191485974343" x2="889.8360655737708" y2="472.82691494147286" stroke-dasharray="1,0.5" stroke="#333c"/>
<rect x="897.5409836065578" y="475.5962461557296" width="15.40983606557377" height="22.403753844270348" fill="#DC267F" data-tooltip="1.15x baseline (YJIT 3.4.0dev)"/>
<line x1="897.5409836065578" y1="475.49134411379913" x2="912.9508196721315" y2="475.49134411379913" stroke-dasharray="1,0.5" stroke="#333c"/>
<line x1="897.5409836065578" y1="475.70114819766013" x2="912.9508196721315" y2="475.70114819766013" stroke-dasharray="1,0.5" stroke="#333c"/>
<line x1="905.2459016393447" y1="475.49134411379913" x2="905.2459016393447" y2="475.70114819766013" stroke-dasharray="1,0.5" stroke="#333c"/>
<line x1="889.836065573771" y1="498.0" x2="889.836065573771" y2="502.79999999999995" stroke="#000"/>
<text x="889.836065573771" y="512.4" fill="#111" font-size="small" text-anchor="end" transform="rotate(-60, 889.836065573771, 512.4)">
throw
</text>
<rect x="928.3606557377053" y="479.7889656383306" width="15.40983606557377" height="18.211034361669373" fill="#785EF0" data-tooltip="0.94x baseline (CRuby 3.4.0dev)"/>
<rect x="943.7704918032791" y="421.3914798014288" width="15.40983606557377" height="76.6085201985712" fill="#FFB000" data-tooltip="3.94x baseline (YJIT 3.3.4)"/>
<rect x="959.1803278688528" y="412.00652426510914" width="15.40983606557377" height="85.99347573489074" fill="#DC267F" data-tooltip="4.42x baseline (YJIT 3.4.0dev)"/>
<line x1="951.4754098360661" y1="498.0" x2="951.4754098360661" y2="502.79999999999995" stroke="#000"/>
<text x="951.4754098360661" y="512.4" fill="#111" font-size="small" text-anchor="end" transform="rotate(-60, 951.4754098360661, 512.4)" font-style="italic">
geomean*
</text>
<line x1="50.0" y1="478.5494397786304" x2="990.0" y2="478.5494397786304" stroke="#648FFF" stroke-width="2"/>
<rect x="67.23483606557377" y="464.96396320900936" width="17.85" height="7.2" transform="rotate(-60, 75.11475409836066, 471.6239632090094)" fill="#fffa"/>
<text x="67.40983606557377" y="471.6239632090094" fill="#111" font-size="0.5em" text-anchor="start" textLength="17.5" transform="rotate(-60, 75.11475409836066, 471.6239632090094)" style="text-shadow: 0 0 1px #fff;">
0.97
</text>
<rect x="82.64467213114754" y="352.59714395887346" width="17.85" height="7.2" transform="rotate(-60, 90.52459016393442, 359.2571439588735)" fill="#fffa"/>
<text x="82.81967213114753" y="359.2571439588735" fill="#111" font-size="0.5em" text-anchor="start" textLength="17.5" transform="rotate(-60, 90.52459016393442, 359.2571439588735)" style="text-shadow: 0 0 1px #fff;">
6.75
</text>
<rect x="98.0545081967213" y="352.1342995484807" width="17.85" height="7.2" transform="rotate(-60, 105.93442622950819, 358.7942995484807)" fill="#fffa"/>
<text x="98.2295081967213" y="358.7942995484807" fill="#111" font-size="0.5em" text-anchor="start" textLength="17.5" transform="rotate(-60, 105.93442622950819, 358.7942995484807)" style="text-shadow: 0 0 1px #fff;">
6.77
</text>
<rect x="128.87418032786883" y="464.7675955550459" width="17.85" height="7.2" transform="rotate(-60, 136.75409836065572, 471.4275955550459)" fill="#fffa"/>
<text x="129.04918032786884" y="471.4275955550459" fill="#111" font-size="0.5em" text-anchor="start" textLength="17.5" transform="rotate(-60, 136.75409836065572, 471.4275955550459)" style="text-shadow: 0 0 1px #fff;">
0.98
</text>
<rect x="144.2840163934426" y="326.79357616886927" width="17.85" height="7.2" transform="rotate(-60, 152.1639344262295, 333.4535761688693)" fill="#fffa"/>
<text x="144.4590163934426" y="333.4535761688693" fill="#111" font-size="0.5em" text-anchor="start" textLength="17.5" transform="rotate(-60, 152.1639344262295, 333.4535761688693)" style="text-shadow: 0 0 1px #fff;">
8.07
</text>
<rect x="159.69385245901637" y="328.1289370160231" width="17.85" height="7.2" transform="rotate(-60, 167.5737704918033, 334.78893701602306)" fill="#fffa"/>
<text x="159.86885245901638" y="334.78893701602306" fill="#111" font-size="0.5em" text-anchor="start" textLength="17.5" transform="rotate(-60, 167.5737704918033, 334.78893701602306)" style="text-shadow: 0 0 1px #fff;">
8.01
</text>
<rect x="190.51352459016394" y="465.7031017922187" width="17.85" height="7.2" transform="rotate(-60, 198.39344262295083, 472.36310179221874)" fill="#fffa"/>
<text x="190.68852459016395" y="472.36310179221874" fill="#111" font-size="0.5em" text-anchor="start" textLength="17.5" transform="rotate(-60, 198.39344262295083, 472.36310179221874)" style="text-shadow: 0 0 1px #fff;">
0.93
</text>
<rect x="205.92336065573772" y="401.7149988632981" width="17.85" height="7.2" transform="rotate(-60, 213.8032786885246, 408.37499886329806)" fill="#fffa"/>
<text x="206.09836065573774" y="408.37499886329806" fill="#111" font-size="0.5em" text-anchor="start" textLength="17.5" transform="rotate(-60, 213.8032786885246, 408.37499886329806)" style="text-shadow: 0 0 1px #fff;">
4.22
</text>
<rect x="221.33319672131148" y="393.7396214453898" width="17.85" height="7.2" transform="rotate(-60, 229.2131147540984, 400.3996214453898)" fill="#fffa"/>
<text x="221.5081967213115" y="400.3996214453898" fill="#111" font-size="0.5em" text-anchor="start" textLength="17.5" transform="rotate(-60, 229.2131147540984, 400.3996214453898)" style="text-shadow: 0 0 1px #fff;">
4.63
</text>
<rect x="252.15286885245908" y="465.34028787209706" width="17.85" height="7.2" transform="rotate(-60, 260.03278688524597, 472.0002878720971)" fill="#fffa"/>
<text x="252.32786885245906" y="472.0002878720971" fill="#111" font-size="0.5em" text-anchor="start" textLength="17.5" transform="rotate(-60, 260.03278688524597, 472.0002878720971)" style="text-shadow: 0 0 1px #fff;">
0.95
</text>
<rect x="267.56270491803286" y="377.3731835254514" width="17.85" height="7.2" transform="rotate(-60, 275.4426229508197, 384.0331835254514)" fill="#fffa"/>
<text x="267.7377049180328" y="384.0331835254514" fill="#111" font-size="0.5em" text-anchor="start" textLength="17.5" transform="rotate(-60, 275.4426229508197, 384.0331835254514)" style="text-shadow: 0 0 1px #fff;">
5.47
</text>
<rect x="282.9725409836066" y="377.0562693589102" width="17.85" height="7.2" transform="rotate(-60, 290.8524590163935, 383.7162693589102)" fill="#fffa"/>
<text x="283.14754098360663" y="383.7162693589102" fill="#111" font-size="0.5em" text-anchor="start" textLength="17.5" transform="rotate(-60, 290.8524590163935, 383.7162693589102)" style="text-shadow: 0 0 1px #fff;">
5.49
</text>
<rect x="313.7922131147542" y="466.84766366969745" width="17.85" height="7.2" transform="rotate(-60, 321.67213114754105, 473.5076636696975)" fill="#fffa"/>
<text x="313.96721311475414" y="473.5076636696975" fill="#111" font-size="0.5em" text-anchor="start" textLength="17.5" transform="rotate(-60, 321.67213114754105, 473.5076636696975)" style="text-shadow: 0 0 1px #fff;">
0.87
</text>
<rect x="329.20204918032795" y="385.61160854088" width="17.85" height="7.2" transform="rotate(-60, 337.08196721311486, 392.27160854088)" fill="#fffa"/>
<text x="329.37704918032796" y="392.27160854088" fill="#111" font-size="0.5em" text-anchor="start" textLength="17.5" transform="rotate(-60, 337.08196721311486, 392.27160854088)" style="text-shadow: 0 0 1px #fff;">
5.05
</text>
<rect x="344.61188524590176" y="349.6087856403751" width="17.85" height="7.2" transform="rotate(-60, 352.4918032786886, 356.26878564037514)" fill="#fffa"/>
<text x="344.7868852459017" y="356.26878564037514" fill="#111" font-size="0.5em" text-anchor="start" textLength="17.5" transform="rotate(-60, 352.4918032786886, 356.26878564037514)" style="text-shadow: 0 0 1px #fff;">
6.90
</text>
<rect x="375.43155737704933" y="465.9840146193407" width="17.85" height="7.2" transform="rotate(-60, 383.3114754098362, 472.64401461934074)" fill="#fffa"/>
<text x="375.6065573770493" y="472.64401461934074" fill="#111" font-size="0.5em" text-anchor="start" textLength="17.5" transform="rotate(-60, 383.3114754098362, 472.64401461934074)" style="text-shadow: 0 0 1px #fff;">
0.92
</text>
<rect x="390.8413934426231" y="343.85888781692" width="17.85" height="7.2" transform="rotate(-60, 398.72131147540995, 350.51888781692)" fill="#fffa"/>
<text x="391.01639344262304" y="350.51888781692" fill="#111" font-size="0.5em" text-anchor="start" textLength="17.5" transform="rotate(-60, 398.72131147540995, 350.51888781692)" style="text-shadow: 0 0 1px #fff;">
7.20
</text>
<rect x="406.25122950819684" y="300.10815384715926" width="17.85" height="7.2" transform="rotate(-60, 414.13114754098376, 306.7681538471592)" fill="#fffa"/>
<text x="406.42622950819685" y="306.7681538471592" fill="#111" font-size="0.5em" text-anchor="start" textLength="17.5" transform="rotate(-60, 414.13114754098376, 306.7681538471592)" style="text-shadow: 0 0 1px #fff;">
9.45
</text>
<rect x="437.0709016393444" y="466.695567581571" width="17.85" height="7.2" transform="rotate(-60, 444.9508196721313, 473.355567581571)" fill="#fffa"/>
<text x="437.2459016393444" y="473.355567581571" fill="#111" font-size="0.5em" text-anchor="start" textLength="17.5" transform="rotate(-60, 444.9508196721313, 473.355567581571)" style="text-shadow: 0 0 1px #fff;">
0.88
</text>
<rect x="452.4807377049182" y="457.93301286427385" width="17.85" height="7.2" transform="rotate(-60, 460.3606557377051, 464.5930128642739)" fill="#fffa"/>
<text x="452.6557377049182" y="464.5930128642739" fill="#111" font-size="0.5em" text-anchor="start" textLength="17.5" transform="rotate(-60, 460.3606557377051, 464.5930128642739)" style="text-shadow: 0 0 1px #fff;">
1.33
</text>
<rect x="467.890573770492" y="461.7425804317641" width="17.85" height="7.2" transform="rotate(-60, 475.77049180327884, 468.4025804317641)" fill="#fffa"/>
<text x="468.06557377049194" y="468.4025804317641" fill="#111" font-size="0.5em" text-anchor="start" textLength="17.5" transform="rotate(-60, 475.77049180327884, 468.4025804317641)" style="text-shadow: 0 0 1px #fff;">
1.14
</text>
<rect x="498.71024590163955" y="465.8896493452807" width="17.85" height="7.2" transform="rotate(-60, 506.59016393442636, 472.5496493452807)" fill="#fffa"/>
<text x="498.8852459016395" y="472.5496493452807" fill="#111" font-size="0.5em" text-anchor="start" textLength="17.5" transform="rotate(-60, 506.59016393442636, 472.5496493452807)" style="text-shadow: 0 0 1px #fff;">
0.92
</text>
<rect x="514.1200819672133" y="155.21402115895972" width="17.85" height="7.2" transform="rotate(-60, 522.0000000000001, 161.87402115895975)" fill="#fffa"/>
<text x="514.2950819672133" y="161.87402115895975" fill="#111" font-size="0.5em" text-anchor="start" textLength="17.5" transform="rotate(-60, 522.0000000000001, 161.87402115895975)" style="text-shadow: 0 0 1px #fff;">
16.90
</text>
<rect x="529.529918032787" y="86.03999999999998" width="17.85" height="7.2" transform="rotate(-60, 537.4098360655739, 92.69999999999999)" fill="#fffa"/>
<text x="529.7049180327871" y="92.69999999999999" fill="#111" font-size="0.5em" text-anchor="start" textLength="17.5" transform="rotate(-60, 537.4098360655739, 92.69999999999999)" style="text-shadow: 0 0 1px #fff;">
20.45
</text>
<rect x="560.3495901639346" y="466.9152624514562" width="17.85" height="7.2" transform="rotate(-60, 568.2295081967214, 473.5752624514562)" fill="#fffa"/>
<text x="560.5245901639346" y="473.5752624514562" fill="#111" font-size="0.5em" text-anchor="start" textLength="17.5" transform="rotate(-60, 568.2295081967214, 473.5752624514562)" style="text-shadow: 0 0 1px #fff;">
0.87
</text>
<rect x="575.7594262295083" y="432.2285311094965" width="17.85" height="7.2" transform="rotate(-60, 583.6393442622953, 438.88853110949645)" fill="#fffa"/>
<text x="575.9344262295084" y="438.88853110949645" fill="#111" font-size="0.5em" text-anchor="start" textLength="17.5" transform="rotate(-60, 583.6393442622953, 438.88853110949645)" style="text-shadow: 0 0 1px #fff;">
2.65
</text>
<rect x="591.1692622950821" y="415.52542690291835" width="17.85" height="7.2" transform="rotate(-60, 599.0491803278691, 422.1854269029184)" fill="#fffa"/>
<text x="591.3442622950822" y="422.1854269029184" fill="#111" font-size="0.5em" text-anchor="start" textLength="17.5" transform="rotate(-60, 599.0491803278691, 422.1854269029184)" style="text-shadow: 0 0 1px #fff;">
3.51
</text>
<rect x="621.9889344262297" y="464.70165116161866" width="17.85" height="7.2" transform="rotate(-60, 629.8688524590166, 471.3616511616187)" fill="#fffa"/>
<text x="622.1639344262297" y="471.3616511616187" fill="#111" font-size="0.5em" text-anchor="start" textLength="17.5" transform="rotate(-60, 629.8688524590166, 471.3616511616187)" style="text-shadow: 0 0 1px #fff;">
0.98
</text>
<rect x="637.3987704918035" y="374.5702765797478" width="17.85" height="7.2" transform="rotate(-60, 645.2786885245904, 381.2302765797478)" fill="#fffa"/>
<text x="637.5737704918035" y="381.2302765797478" fill="#111" font-size="0.5em" text-anchor="start" textLength="17.5" transform="rotate(-60, 645.2786885245904, 381.2302765797478)" style="text-shadow: 0 0 1px #fff;">
5.62
</text>
<rect x="652.8086065573773" y="257.4348979558208" width="17.85" height="7.2" transform="rotate(-60, 660.6885245901641, 264.09489795582084)" fill="#fffa"/>
<text x="652.9836065573774" y="264.09489795582084" fill="#111" font-size="0.5em" text-anchor="start" textLength="17.5" transform="rotate(-60, 660.6885245901641, 264.09489795582084)" style="text-shadow: 0 0 1px #fff;">
11.64
</text>
<rect x="683.6282786885248" y="464.4485509120739" width="17.85" height="7.2" transform="rotate(-60, 691.5081967213117, 471.10855091207395)" fill="#fffa"/>
<text x="683.8032786885249" y="471.10855091207395" fill="#111" font-size="0.5em" text-anchor="start" textLength="17.5" transform="rotate(-60, 691.5081967213117, 471.10855091207395)" style="text-shadow: 0 0 1px #fff;">
1.00
</text>
<rect x="699.0381147540986" y="435.86708261889476" width="17.85" height="7.2" transform="rotate(-60, 706.9180327868854, 442.5270826188947)" fill="#fffa"/>
<text x="699.2131147540987" y="442.5270826188947" fill="#111" font-size="0.5em" text-anchor="start" textLength="17.5" transform="rotate(-60, 706.9180327868854, 442.5270826188947)" style="text-shadow: 0 0 1px #fff;">
2.47
</text>
<rect x="714.4479508196724" y="432.20323564747014" width="17.85" height="7.2" transform="rotate(-60, 722.3278688524592, 438.8632356474701)" fill="#fffa"/>
<text x="714.6229508196724" y="438.8632356474701" fill="#111" font-size="0.5em" text-anchor="start" textLength="17.5" transform="rotate(-60, 722.3278688524592, 438.8632356474701)" style="text-shadow: 0 0 1px #fff;">
2.65
</text>
<rect x="745.2676229508199" y="464.4401563317158" width="17.85" height="7.2" transform="rotate(-60, 753.1475409836069, 471.10015633171577)" fill="#fffa"/>
<text x="745.44262295082" y="471.10015633171577" fill="#111" font-size="0.5em" text-anchor="start" textLength="17.5" transform="rotate(-60, 753.1475409836069, 471.10015633171577)" style="text-shadow: 0 0 1px #fff;">
1.00
</text>
<rect x="760.6774590163938" y="435.8812293319059" width="17.85" height="7.2" transform="rotate(-60, 768.5573770491806, 442.54122933190587)" fill="#fffa"/>
<text x="760.8524590163937" y="442.54122933190587" fill="#111" font-size="0.5em" text-anchor="start" textLength="17.5" transform="rotate(-60, 768.5573770491806, 442.54122933190587)" style="text-shadow: 0 0 1px #fff;">
2.47
</text>
<rect x="776.0872950819675" y="432.2849097268722" width="17.85" height="7.2" transform="rotate(-60, 783.9672131147544, 438.94490972687214)" fill="#fffa"/>
<text x="776.2622950819675" y="438.94490972687214" fill="#111" font-size="0.5em" text-anchor="start" textLength="17.5" transform="rotate(-60, 783.9672131147544, 438.94490972687214)" style="text-shadow: 0 0 1px #fff;">
2.65
</text>
<rect x="806.9069672131151" y="466.03340574342417" width="17.85" height="7.2" transform="rotate(-60, 814.7868852459019, 472.6934057434242)" fill="#fffa"/>
<text x="807.0819672131151" y="472.6934057434242" fill="#111" font-size="0.5em" text-anchor="start" textLength="17.5" transform="rotate(-60, 814.7868852459019, 472.6934057434242)" style="text-shadow: 0 0 1px #fff;">
0.92
</text>
<rect x="822.3168032786888" y="449.1920830615387" width="17.85" height="7.2" transform="rotate(-60, 830.1967213114757, 455.8520830615387)" fill="#fffa"/>
<text x="822.4918032786888" y="455.8520830615387" fill="#111" font-size="0.5em" text-anchor="start" textLength="17.5" transform="rotate(-60, 830.1967213114757, 455.8520830615387)" style="text-shadow: 0 0 1px #fff;">
1.78
</text>
<rect x="837.7266393442626" y="453.1945458619315" width="17.85" height="7.2" transform="rotate(-60, 845.6065573770495, 459.85454586193146)" fill="#fffa"/>
<text x="837.9016393442627" y="459.85454586193146" fill="#111" font-size="0.5em" text-anchor="start" textLength="17.5" transform="rotate(-60, 845.6065573770495, 459.85454586193146)" style="text-shadow: 0 0 1px #fff;">
1.58
</text>
<rect x="868.5463114754102" y="465.8101708196824" width="17.85" height="7.2" transform="rotate(-60, 876.426229508197, 472.4701708196824)" fill="#fffa"/>
<text x="868.7213114754102" y="472.4701708196824" fill="#111" font-size="0.5em" text-anchor="start" textLength="17.5" transform="rotate(-60, 876.426229508197, 472.4701708196824)" style="text-shadow: 0 0 1px #fff;">
0.93
</text>
<rect x="883.9561475409839" y="458.55441490060815" width="17.85" height="7.2" transform="rotate(-60, 891.8360655737708, 465.2144149006082)" fill="#fffa"/>
<text x="884.131147540984" y="465.2144149006082" fill="#111" font-size="0.5em" text-anchor="start" textLength="17.5" transform="rotate(-60, 891.8360655737708, 465.2144149006082)" style="text-shadow: 0 0 1px #fff;">
1.30
</text>
<rect x="899.3659836065577" y="461.43624615572963" width="17.85" height="7.2" transform="rotate(-60, 907.2459016393447, 468.09624615572966)" fill="#fffa"/>
<text x="899.5409836065578" y="468.09624615572966" fill="#111" font-size="0.5em" text-anchor="start" textLength="17.5" transform="rotate(-60, 907.2459016393447, 468.09624615572966)" style="text-shadow: 0 0 1px #fff;">
1.15
</text>
<rect x="930.1856557377052" y="465.6289656383306" width="17.85" height="7.2" transform="rotate(-60, 938.0655737704922, 472.28896563833064)" fill="#fffa"/>
<text x="930.3606557377053" y="472.28896563833064" fill="#111" font-size="0.5em" text-anchor="start" textLength="17.5" transform="rotate(-60, 938.0655737704922, 472.28896563833064)" style="text-shadow: 0 0 1px #fff;">
0.94
</text>
<rect x="945.5954918032791" y="407.23147980142875" width="17.85" height="7.2" transform="rotate(-60, 953.475409836066, 413.8914798014288)" fill="#fffa"/>
<text x="945.7704918032791" y="413.8914798014288" fill="#111" font-size="0.5em" text-anchor="start" textLength="17.5" transform="rotate(-60, 953.475409836066, 413.8914798014288)" style="text-shadow: 0 0 1px #fff;">
3.94
</text>
<rect x="961.0053278688529" y="397.84652426510917" width="17.85" height="7.2" transform="rotate(-60, 968.8852459016397, 404.5065242651092)" fill="#fffa"/>
<text x="961.1803278688528" y="404.5065242651092" fill="#111" font-size="0.5em" text-anchor="start" textLength="17.5" transform="rotate(-60, 968.8852459016397, 404.5065242651092)" style="text-shadow: 0 0 1px #fff;">
4.42
</text>
</svg>