<svg viewBox="0 0 1000 600" xmlns="http://www.w3.org/2000/svg" xmlns:xlink="http://www.w3.org/1999/xlink" width="100%" height="100%">

<rect x="50.0" y="30.0" width="940.0" height="467.99999999999994" stroke="#000" fill="#fff"/>
<line x1="42.0" y1="497.9999999999999" x2="50.0" y2="497.9999999999999" stroke="#000"/>
<text x="26.000000000000004" y="497.9999999999999" text-anchor="end" font-weight="bold" font-size="small" fill="#111">
0.0
</text>
<line x1="42.0" y1="420.67010919017287" x2="50.0" y2="420.67010919017287" stroke="#000"/>
<text x="26.000000000000004" y="420.67010919017287" text-anchor="end" font-weight="bold" font-size="small" fill="#111">
0.5
</text>
<line x1="42.0" y1="343.3402183803457" x2="50.0" y2="343.3402183803457" stroke="#000"/>
<text x="26.000000000000004" y="343.3402183803457" text-anchor="end" font-weight="bold" font-size="small" fill="#111">
1.0
</text>
<line x1="42.0" y1="266.0103275705186" x2="50.0" y2="266.0103275705186" stroke="#000"/>
<text x="26.000000000000004" y="266.0103275705186" text-anchor="end" font-weight="bold" font-size="small" fill="#111">
1.5
</text>
<line x1="42.0" y1="188.6804367606915" x2="50.0" y2="188.6804367606915" stroke="#000"/>
<text x="26.000000000000004" y="188.6804367606915" text-anchor="end" font-weight="bold" font-size="small" fill="#111">
2.0
</text>
<line x1="42.0" y1="111.35054595086439" x2="50.0" y2="111.35054595086439" stroke="#000"/>
<text x="26.000000000000004" y="111.35054595086439" text-anchor="end" font-weight="bold" font-size="small" fill="#111">
2.5
</text>
<line x1="142.75" y1="54.60000000000001" x2="262.75" y2="54.60000000000001" stroke="#648FFF" stroke-width="2"/>
<text x="202.75" y="49.500000000000014" font-size="small" text-anchor="middle" font-weight="bold" fill="#000">
CRuby 3.3.4
</text>
<rect x="354.25" y="35.400000000000006" width="120.0" height="19.2" fill="#785EF0" stroke="none"/>
<text x="414.25" y="49.500000000000014" font-size="small" text-anchor="middle" font-weight="bold" fill="#fff" style="text-shadow: 0 0 1px #000;">
CRuby 3.4.0dev
</text>
<rect x="565.75" y="35.400000000000006" width="120.0" height="19.2" fill="#FFB000" stroke="none"/>
<text x="625.7499999999999" y="49.500000000000014" font-size="small" text-anchor="middle" font-weight="bold" fill="#fff" style="text-shadow: 0 0 1px #000;">
YJIT 3.3.4
</text>
<rect x="777.25" y="35.400000000000006" width="120.0" height="19.2" fill="#DC267F" stroke="none"/>
<text x="837.2499999999999" y="49.500000000000014" font-size="small" text-anchor="middle" font-weight="bold" fill="#fff" style="text-shadow: 0 0 1px #000;">
YJIT 3.4.0dev
</text>
<rect x="65.40983606557377" y="121.71683348498632" width="15.40983606557377" height="376.28316651501365" fill="#785EF0" data-tooltip="2.43x baseline (CRuby 3.4.0dev)"/>
<rect x="80.81967213114753" y="262.9637852593266" width="15.40983606557377" height="235.03621474067333" fill="#FFB000" data-tooltip="1.52x baseline (YJIT 3.3.4)"/>
<rect x="96.2295081967213" y="100.19999999999999" width="15.40983606557377" height="397.79999999999995" fill="#DC267F" data-tooltip="2.57x baseline (YJIT 3.4.0dev)"/>
<line x1="88.5245901639344" y1="498.0" x2="88.5245901639344" y2="502.79999999999995" stroke="#000"/>
<text x="88.5245901639344" y="512.4" fill="#111" font-size="small" text-anchor="end" transform="rotate(-60, 88.5245901639344, 512.4)">
30k_ifelse
</text>
<rect x="127.04918032786883" y="206.43249819659766" width="15.40983606557377" height="291.56750180340225" fill="#785EF0" data-tooltip="1.89x baseline (CRuby 3.4.0dev)"/>
<rect x="142.4590163934426" y="312.96936931229106" width="15.40983606557377" height="185.03063068770894" fill="#FFB000" data-tooltip="1.20x baseline (YJIT 3.3.4)"/>
<rect x="157.86885245901638" y="194.63454432304513" width="15.40983606557377" height="303.3654556769548" fill="#DC267F" data-tooltip="1.96x baseline (YJIT 3.4.0dev)"/>
<line x1="150.1639344262295" y1="498.0" x2="150.1639344262295" y2="502.79999999999995" stroke="#000"/>
<text x="150.1639344262295" y="512.4" fill="#111" font-size="small" text-anchor="end" transform="rotate(-60, 150.1639344262295, 512.4)">
30k_methods
</text>
<rect x="188.68852459016395" y="334.2130463940063" width="15.40983606557377" height="163.78695360599366" fill="#785EF0" data-tooltip="1.06x baseline (CRuby 3.4.0dev)"/>
<rect x="204.0983606557377" y="340.26828994481406" width="15.40983606557377" height="157.7317100551859" fill="#FFB000" data-tooltip="1.02x baseline (YJIT 3.3.4)"/>
<rect x="219.5081967213115" y="330.25498475591746" width="15.40983606557377" height="167.74501524408254" fill="#DC267F" data-tooltip="1.08x baseline (YJIT 3.4.0dev)"/>
<line x1="211.8032786885246" y1="498.0" x2="211.8032786885246" y2="502.79999999999995" stroke="#000"/>
<text x="211.8032786885246" y="512.4" fill="#111" font-size="small" text-anchor="end" transform="rotate(-60, 211.8032786885246, 512.4)">
cfunc_itself
</text>
<rect x="250.32786885245906" y="334.1850703879179" width="15.40983606557377" height="163.814929612082" fill="#785EF0" data-tooltip="1.06x baseline (CRuby 3.4.0dev)"/>
<rect x="265.7377049180328" y="339.78482110173303" width="15.40983606557377" height="158.21517889826697" fill="#FFB000" data-tooltip="1.02x baseline (YJIT 3.3.4)"/>
<rect x="281.14754098360663" y="329.74082378965204" width="15.40983606557377" height="168.25917621034796" fill="#DC267F" data-tooltip="1.09x baseline (YJIT 3.4.0dev)"/>
<line x1="273.4426229508197" y1="498.0" x2="273.4426229508197" y2="502.79999999999995" stroke="#000"/>
<text x="273.4426229508197" y="512.4" fill="#111" font-size="small" text-anchor="end" transform="rotate(-60, 273.4426229508197, 512.4)">
fib
</text>
<rect x="311.96721311475414" y="334.24432135173134" width="15.40983606557377" height="163.75567864826857" fill="#785EF0" data-tooltip="1.06x baseline (CRuby 3.4.0dev)"/>
<rect x="327.37704918032796" y="340.2984086597377" width="15.40983606557377" height="157.70159134026227" fill="#FFB000" data-tooltip="1.02x baseline (YJIT 3.3.4)"/>
<rect x="342.7868852459017" y="330.2870155016199" width="15.40983606557377" height="167.71298449838005" fill="#DC267F" data-tooltip="1.08x baseline (YJIT 3.4.0dev)"/>
<line x1="335.08196721311486" y1="498.0" x2="335.08196721311486" y2="502.79999999999995" stroke="#000"/>
<text x="335.08196721311486" y="512.4" fill="#111" font-size="small" text-anchor="end" transform="rotate(-60, 335.08196721311486, 512.4)">
getivar
</text>
<rect x="373.6065573770493" y="334.1850703879179" width="15.40983606557377" height="163.814929612082" fill="#785EF0" data-tooltip="1.06x baseline (CRuby 3.4.0dev)"/>
<rect x="389.01639344262304" y="339.7255644804228" width="15.40983606557377" height="158.2744355195772" fill="#FFB000" data-tooltip="1.02x baseline (YJIT 3.3.4)"/>
<rect x="404.42622950819685" y="329.74082378965204" width="15.40983606557377" height="168.25917621034796" fill="#DC267F" data-tooltip="1.09x baseline (YJIT 3.4.0dev)"/>
<line x1="396.72131147540995" y1="498.0" x2="396.72131147540995" y2="502.79999999999995" stroke="#000"/>
<text x="396.72131147540995" y="512.4" fill="#111" font-size="small" text-anchor="end" transform="rotate(-60, 396.72131147540995, 512.4)">
keyword_args
</text>
<rect x="435.2459016393444" y="334.76920751814436" width="15.40983606557377" height="163.2307924818556" fill="#785EF0" data-tooltip="1.06x baseline (CRuby 3.4.0dev)"/>
<rect x="450.6557377049182" y="341.34422954942215" width="15.40983606557377" height="156.65577045057785" fill="#FFB000" data-tooltip="1.01x baseline (YJIT 3.3.4)"/>
<rect x="466.06557377049194" y="331.3055798409534" width="15.40983606557377" height="166.69442015904653" fill="#DC267F" data-tooltip="1.08x baseline (YJIT 3.4.0dev)"/>
<line x1="458.3606557377051" y1="498.0" x2="458.3606557377051" y2="502.79999999999995" stroke="#000"/>
<text x="458.3606557377051" y="512.4" fill="#111" font-size="small" text-anchor="end" transform="rotate(-60, 458.3606557377051, 512.4)">
object-new
</text>
<rect x="496.8852459016395" y="334.09264232336375" width="15.40983606557377" height="163.90735767663625" fill="#785EF0" data-tooltip="1.06x baseline (CRuby 3.4.0dev)"/>
<rect x="512.2950819672133" y="339.7834583584296" width="15.40983606557377" height="158.2165416415704" fill="#FFB000" data-tooltip="1.02x baseline (YJIT 3.3.4)"/>
<rect x="527.7049180327871" y="329.64669229596853" width="15.40983606557377" height="168.3533077040314" fill="#DC267F" data-tooltip="1.09x baseline (YJIT 3.4.0dev)"/>
<line x1="520.0000000000002" y1="498.0" x2="520.0000000000002" y2="502.79999999999995" stroke="#000"/>
<text x="520.0000000000002" y="512.4" fill="#111" font-size="small" text-anchor="end" transform="rotate(-60, 520.0000000000002, 512.4)">
respond_to
</text>
<rect x="558.5245901639346" y="334.21450504948376" width="15.40983606557377" height="163.78549495051615" fill="#785EF0" data-tooltip="1.06x baseline (CRuby 3.4.0dev)"/>
<rect x="573.9344262295084" y="341.3746801244678" width="15.40983606557377" height="156.62531987553217" fill="#FFB000" data-tooltip="1.01x baseline (YJIT 3.3.4)"/>
<rect x="589.3442622950822" y="330.8730900144912" width="15.40983606557377" height="167.1269099855087" fill="#DC267F" data-tooltip="1.08x baseline (YJIT 3.4.0dev)"/>
<line x1="581.6393442622954" y1="498.0" x2="581.6393442622954" y2="502.79999999999995" stroke="#000"/>
<text x="581.6393442622954" y="512.4" fill="#111" font-size="small" text-anchor="end" transform="rotate(-60, 581.6393442622954, 512.4)">
ruby-xor
</text>
<rect x="620.1639344262297" y="334.27202634934366" width="15.40983606557377" height="163.72797365065622" fill="#785EF0" data-tooltip="1.06x baseline (CRuby 3.4.0dev)"/>
<rect x="635.5737704918035" y="340.7787485534069" width="15.40983606557377" height="157.2212514465931" fill="#FFB000" data-tooltip="1.02x baseline (YJIT 3.3.4)"/>
<rect x="650.9836065573774" y="330.68008015524555" width="15.40983606557377" height="167.31991984475442" fill="#DC267F" data-tooltip="1.08x baseline (YJIT 3.4.0dev)"/>
<line x1="643.2786885245905" y1="498.0" x2="643.2786885245905" y2="502.79999999999995" stroke="#000"/>
<text x="643.2786885245905" y="512.4" fill="#111" font-size="small" text-anchor="end" transform="rotate(-60, 643.2786885245905, 512.4)">
setivar
</text>
<rect x="681.8032786885249" y="334.24432135173134" width="15.40983606557377" height="163.75567864826857" fill="#785EF0" data-tooltip="1.06x baseline (CRuby 3.4.0dev)"/>
<rect x="697.2131147540987" y="340.2984086597377" width="15.40983606557377" height="157.70159134026227" fill="#FFB000" data-tooltip="1.02x baseline (YJIT 3.3.4)"/>
<rect x="712.6229508196724" y="330.2870155016199" width="15.40983606557377" height="167.71298449838005" fill="#DC267F" data-tooltip="1.08x baseline (YJIT 3.4.0dev)"/>
<line x1="704.9180327868855" y1="498.0" x2="704.9180327868855" y2="502.79999999999995" stroke="#000"/>
<text x="704.9180327868855" y="512.4" fill="#111" font-size="small" text-anchor="end" transform="rotate(-60, 704.9180327868855, 512.4)">
setivar_object
</text>
<rect x="743.44262295082" y="334.2755843678917" width="15.40983606557377" height="163.7244156321082" fill="#785EF0" data-tooltip="1.06x baseline (CRuby 3.4.0dev)"/>
<rect x="758.8524590163937" y="340.32851587457935" width="15.40983606557377" height="157.67148412542068" fill="#FFB000" data-tooltip="1.02x baseline (YJIT 3.3.4)"/>
<rect x="774.2622950819675" y="330.319034017179" width="15.40983606557377" height="167.68096598282096" fill="#DC267F" data-tooltip="1.08x baseline (YJIT 3.4.0dev)"/>
<line x1="766.5573770491807" y1="498.0" x2="766.5573770491807" y2="502.79999999999995" stroke="#000"/>
<text x="766.5573770491807" y="512.4" fill="#111" font-size="small" text-anchor="end" transform="rotate(-60, 766.5573770491807, 512.4)">
setivar_young
</text>
<rect x="805.081967213115" y="340.18204726015193" width="15.40983606557377" height="157.817952739848" fill="#785EF0" data-tooltip="1.02x baseline (CRuby 3.4.0dev)"/>
<rect x="820.4918032786888" y="301.4038477679364" width="15.40983606557377" height="196.5961522320636" fill="#FFB000" data-tooltip="1.27x baseline (YJIT 3.3.4)"/>
<rect x="835.9016393442627" y="337.6580990288495" width="15.40983606557377" height="160.3419009711504" fill="#DC267F" data-tooltip="1.04x baseline (YJIT 3.4.0dev)"/>
<line x1="828.1967213114758" y1="498.0" x2="828.1967213114758" y2="502.79999999999995" stroke="#000"/>
<text x="828.1967213114758" y="512.4" fill="#111" font-size="small" text-anchor="end" transform="rotate(-60, 828.1967213114758, 512.4)">
str_concat
</text>
<rect x="866.7213114754102" y="334.76920751814436" width="15.40983606557377" height="163.2307924818556" fill="#785EF0" data-tooltip="1.06x baseline (CRuby 3.4.0dev)"/>
<rect x="882.131147540984" y="341.34422954942215" width="15.40983606557377" height="156.65577045057785" fill="#FFB000" data-tooltip="1.01x baseline (YJIT 3.3.4)"/>
<rect x="897.5409836065578" y="331.3055798409534" width="15.40983606557377" height="166.69442015904653" fill="#DC267F" data-tooltip="1.08x baseline (YJIT 3.4.0dev)"/>
<line x1="889.836065573771" y1="498.0" x2="889.836065573771" y2="502.79999999999995" stroke="#000"/>
<text x="889.836065573771" y="512.4" fill="#111" font-size="small" text-anchor="end" transform="rotate(-60, 889.836065573771, 512.4)">
throw
</text>
<rect x="928.3606557377053" y="317.4458777969061" width="15.40983606557377" height="180.5541222030938" fill="#785EF0" data-tooltip="1.17x baseline (CRuby 3.4.0dev)"/>
<rect x="943.7704918032791" y="331.42672435489595" width="15.40983606557377" height="166.573275645104" fill="#FFB000" data-tooltip="1.08x baseline (YJIT 3.3.4)"/>
<rect x="959.1803278688528" y="312.5992740220565" width="15.40983606557377" height="185.40072597794352" fill="#DC267F" data-tooltip="1.20x baseline (YJIT 3.4.0dev)"/>
<line x1="951.4754098360661" y1="498.0" x2="951.4754098360661" y2="502.79999999999995" stroke="#000"/>
<text x="951.4754098360661" y="512.4" fill="#111" font-size="small" text-anchor="end" transform="rotate(-60, 951.4754098360661, 512.4)" font-style="italic">
geomean*
</text>
<line x1="50.0" y1="343.3402183803457" x2="990.0" y2="343.3402183803457" stroke="#648FFF" stroke-width="2"/>
<rect x="67.23483606557377" y="107.55683348498631" width="17.85" height="7.2" transform="rotate(-60, 75.11475409836066, 114.21683348498631)" fill="#fffa"/>
<text x="67.40983606557377" y="114.21683348498631" fill="#111" font-size="0.5em" text-anchor="start" textLength="17.5" transform="rotate(-60, 75.11475409836066, 114.21683348498631)" style="text-shadow: 0 0 1px #fff;">
2.43
</text>
<rect x="82.64467213114754" y="248.8037852593266" width="17.85" height="7.2" transform="rotate(-60, 90.52459016393442, 255.46378525932658)" fill="#fffa"/>
<text x="82.81967213114753" y="255.46378525932658" fill="#111" font-size="0.5em" text-anchor="start" textLength="17.5" transform="rotate(-60, 90.52459016393442, 255.46378525932658)" style="text-shadow: 0 0 1px #fff;">
1.52
</text>
<rect x="98.0545081967213" y="86.03999999999998" width="17.85" height="7.2" transform="rotate(-60, 105.93442622950819, 92.69999999999999)" fill="#fffa"/>
<text x="98.2295081967213" y="92.69999999999999" fill="#111" font-size="0.5em" text-anchor="start" textLength="17.5" transform="rotate(-60, 105.93442622950819, 92.69999999999999)" style="text-shadow: 0 0 1px #fff;">
2.57
</text>
<rect x="128.87418032786883" y="192.27249819659767" width="17.85" height="7.2" transform="rotate(-60, 136.75409836065572, 198.93249819659766)" fill="#fffa"/>
<text x="129.04918032786884" y="198.93249819659766" fill="#111" font-size="0.5em" text-anchor="start" textLength="17.5" transform="rotate(-60, 136.75409836065572, 198.93249819659766)" style="text-shadow: 0 0 1px #fff;">
1.89
</text>
<rect x="144.2840163934426" y="298.8093693122911" width="17.85" height="7.2" transform="rotate(-60, 152.1639344262295, 305.46936931229106)" fill="#fffa"/>
<text x="144.4590163934426" y="305.46936931229106" fill="#111" font-size="0.5em" text-anchor="start" textLength="17.5" transform="rotate(-60, 152.1639344262295, 305.46936931229106)" style="text-shadow: 0 0 1px #fff;">
1.20
</text>
<rect x="159.69385245901637" y="180.47454432304514" width="17.85" height="7.2" transform="rotate(-60, 167.5737704918033, 187.13454432304513)" fill="#fffa"/>
<text x="159.86885245901638" y="187.13454432304513" fill="#111" font-size="0.5em" text-anchor="start" textLength="17.5" transform="rotate(-60, 167.5737704918033, 187.13454432304513)" style="text-shadow: 0 0 1px #fff;">
1.96
</text>
<rect x="190.51352459016394" y="320.0530463940063" width="17.85" height="7.2" transform="rotate(-60, 198.39344262295083, 326.7130463940063)" fill="#fffa"/>
<text x="190.68852459016395" y="326.7130463940063" fill="#111" font-size="0.5em" text-anchor="start" textLength="17.5" transform="rotate(-60, 198.39344262295083, 326.7130463940063)" style="text-shadow: 0 0 1px #fff;">
1.06
</text>
<rect x="205.92336065573772" y="326.1082899448141" width="17.85" height="7.2" transform="rotate(-60, 213.8032786885246, 332.76828994481406)" fill="#fffa"/>
<text x="206.09836065573774" y="332.76828994481406" fill="#111" font-size="0.5em" text-anchor="start" textLength="17.5" transform="rotate(-60, 213.8032786885246, 332.76828994481406)" style="text-shadow: 0 0 1px #fff;">
1.02
</text>
<rect x="221.33319672131148" y="316.09498475591744" width="17.85" height="7.2" transform="rotate(-60, 229.2131147540984, 322.75498475591746)" fill="#fffa"/>
<text x="221.5081967213115" y="322.75498475591746" fill="#111" font-size="0.5em" text-anchor="start" textLength="17.5" transform="rotate(-60, 229.2131147540984, 322.75498475591746)" style="text-shadow: 0 0 1px #fff;">
1.08
</text>
<rect x="252.15286885245908" y="320.02507038791794" width="17.85" height="7.2" transform="rotate(-60, 260.03278688524597, 326.6850703879179)" fill="#fffa"/>
<text x="252.32786885245906" y="326.6850703879179" fill="#111" font-size="0.5em" text-anchor="start" textLength="17.5" transform="rotate(-60, 260.03278688524597, 326.6850703879179)" style="text-shadow: 0 0 1px #fff;">
1.06
</text>
<rect x="267.56270491803286" y="325.62482110173306" width="17.85" height="7.2" transform="rotate(-60, 275.4426229508197, 332.2848211017331)" fill="#fffa"/>
<text x="267.7377049180328" y="332.2848211017331" fill="#111" font-size="0.5em" text-anchor="start" textLength="17.5" transform="rotate(-60, 275.4426229508197, 332.2848211017331)" style="text-shadow: 0 0 1px #fff;">
1.02
</text>
<rect x="282.9725409836066" y="315.580823789652" width="17.85" height="7.2" transform="rotate(-60, 290.8524590163935, 322.24082378965204)" fill="#fffa"/>
<text x="283.14754098360663" y="322.24082378965204" fill="#111" font-size="0.5em" text-anchor="start" textLength="17.5" transform="rotate(-60, 290.8524590163935, 322.24082378965204)" style="text-shadow: 0 0 1px #fff;">
1.09
</text>
<rect x="313.7922131147542" y="320.0843213517314" width="17.85" height="7.2" transform="rotate(-60, 321.67213114754105, 326.74432135173134)" fill="#fffa"/>
<text x="313.96721311475414" y="326.74432135173134" fill="#111" font-size="0.5em" text-anchor="start" textLength="17.5" transform="rotate(-60, 321.67213114754105, 326.74432135173134)" style="text-shadow: 0 0 1px #fff;">
1.06
</text>
<rect x="329.20204918032795" y="326.1384086597377" width="17.85" height="7.2" transform="rotate(-60, 337.08196721311486, 332.7984086597377)" fill="#fffa"/>
<text x="329.37704918032796" y="332.7984086597377" fill="#111" font-size="0.5em" text-anchor="start" textLength="17.5" transform="rotate(-60, 337.08196721311486, 332.7984086597377)" style="text-shadow: 0 0 1px #fff;">
1.02
</text>
<rect x="344.61188524590176" y="316.12701550161995" width="17.85" height="7.2" transform="rotate(-60, 352.4918032786886, 322.7870155016199)" fill="#fffa"/>
<text x="344.7868852459017" y="322.7870155016199" fill="#111" font-size="0.5em" text-anchor="start" textLength="17.5" transform="rotate(-60, 352.4918032786886, 322.7870155016199)" style="text-shadow: 0 0 1px #fff;">
1.08
</text>
<rect x="375.43155737704933" y="320.02507038791794" width="17.85" height="7.2" transform="rotate(-60, 383.3114754098362, 326.6850703879179)" fill="#fffa"/>
<text x="375.6065573770493" y="326.6850703879179" fill="#111" font-size="0.5em" text-anchor="start" textLength="17.5" transform="rotate(-60, 383.3114754098362, 326.6850703879179)" style="text-shadow: 0 0 1px #fff;">
1.06
</text>
<rect x="390.8413934426231" y="325.56556448042284" width="17.85" height="7.2" transform="rotate(-60, 398.72131147540995, 332.2255644804228)" fill="#fffa"/>
<text x="391.01639344262304" y="332.2255644804228" fill="#111" font-size="0.5em" text-anchor="start" textLength="17.5" transform="rotate(-60, 398.72131147540995, 332.2255644804228)" style="text-shadow: 0 0 1px #fff;">
1.02
</text>
<rect x="406.25122950819684" y="315.580823789652" width="17.85" height="7.2" transform="rotate(-60, 414.13114754098376, 322.24082378965204)" fill="#fffa"/>
<text x="406.42622950819685" y="322.24082378965204" fill="#111" font-size="0.5em" text-anchor="start" textLength="17.5" transform="rotate(-60, 414.13114754098376, 322.24082378965204)" style="text-shadow: 0 0 1px #fff;">
1.09
</text>
<rect x="437.0709016393444" y="320.6092075181444" width="17.85" height="7.2" transform="rotate(-60, 444.9508196721313, 327.2692075181444)" fill="#fffa"/>
<text x="437.2459016393444" y="327.2692075181444" fill="#111" font-size="0.5em" text-anchor="start" textLength="17.5" transform="rotate(-60, 444.9508196721313, 327.2692075181444)" style="text-shadow: 0 0 1px #fff;">
1.06
</text>
<rect x="452.4807377049182" y="327.1842295494222" width="17.85" height="7.2" transform="rotate(-60, 460.3606557377051, 333.84422954942215)" fill="#fffa"/>
<text x="452.6557377049182" y="333.84422954942215" fill="#111" font-size="0.5em" text-anchor="start" textLength="17.5" transform="rotate(-60, 460.3606557377051, 333.84422954942215)" style="text-shadow: 0 0 1px #fff;">
1.01
</text>
<rect x="467.890573770492" y="317.1455798409534" width="17.85" height="7.2" transform="rotate(-60, 475.77049180327884, 323.8055798409534)" fill="#fffa"/>
<text x="468.06557377049194" y="323.8055798409534" fill="#111" font-size="0.5em" text-anchor="start" textLength="17.5" transform="rotate(-60, 475.77049180327884, 323.8055798409534)" style="text-shadow: 0 0 1px #fff;">
1.08
</text>
<rect x="498.71024590163955" y="319.9326423233638" width="17.85" height="7.2" transform="rotate(-60, 506.59016393442636, 326.5926423233638)" fill="#fffa"/>
<text x="498.8852459016395" y="326.5926423233638" fill="#111" font-size="0.5em" text-anchor="start" textLength="17.5" transform="rotate(-60, 506.59016393442636, 326.5926423233638)" style="text-shadow: 0 0 1px #fff;">
1.06
</text>
<rect x="514.1200819672133" y="325.6234583584296" width="17.85" height="7.2" transform="rotate(-60, 522.0000000000001, 332.2834583584296)" fill="#fffa"/>
<text x="514.2950819672133" y="332.2834583584296" fill="#111" font-size="0.5em" text-anchor="start" textLength="17.5" transform="rotate(-60, 522.0000000000001, 332.2834583584296)" style="text-shadow: 0 0 1px #fff;">
1.02
</text>
<rect x="529.529918032787" y="315.48669229596857" width="17.85" height="7.2" transform="rotate(-60, 537.4098360655739, 322.14669229596853)" fill="#fffa"/>
<text x="529.7049180327871" y="322.14669229596853" fill="#111" font-size="0.5em" text-anchor="start" textLength="17.5" transform="rotate(-60, 537.4098360655739, 322.14669229596853)" style="text-shadow: 0 0 1px #fff;">
1.09
</text>
<rect x="560.3495901639346" y="320.0545050494838" width="17.85" height="7.2" transform="rotate(-60, 568.2295081967214, 326.71450504948376)" fill="#fffa"/>
<text x="560.5245901639346" y="326.71450504948376" fill="#111" font-size="0.5em" text-anchor="start" textLength="17.5" transform="rotate(-60, 568.2295081967214, 326.71450504948376)" style="text-shadow: 0 0 1px #fff;">
1.06
</text>
<rect x="575.7594262295083" y="327.21468012446775" width="17.85" height="7.2" transform="rotate(-60, 583.6393442622953, 333.8746801244678)" fill="#fffa"/>
<text x="575.9344262295084" y="333.8746801244678" fill="#111" font-size="0.5em" text-anchor="start" textLength="17.5" transform="rotate(-60, 583.6393442622953, 333.8746801244678)" style="text-shadow: 0 0 1px #fff;">
1.01
</text>
<rect x="591.1692622950821" y="316.71309001449123" width="17.85" height="7.2" transform="rotate(-60, 599.0491803278691, 323.37309001449125)" fill="#fffa"/>
<text x="591.3442622950822" y="323.37309001449125" fill="#111" font-size="0.5em" text-anchor="start" textLength="17.5" transform="rotate(-60, 599.0491803278691, 323.37309001449125)" style="text-shadow: 0 0 1px #fff;">
1.08
</text>
<rect x="621.9889344262297" y="320.1120263493437" width="17.85" height="7.2" transform="rotate(-60, 629.8688524590166, 326.7720263493437)" fill="#fffa"/>
<text x="622.1639344262297" y="326.7720263493437" fill="#111" font-size="0.5em" text-anchor="start" textLength="17.5" transform="rotate(-60, 629.8688524590166, 326.7720263493437)" style="text-shadow: 0 0 1px #fff;">
1.06
</text>
<rect x="637.3987704918035" y="326.61874855340693" width="17.85" height="7.2" transform="rotate(-60, 645.2786885245904, 333.2787485534069)" fill="#fffa"/>
<text x="637.5737704918035" y="333.2787485534069" fill="#111" font-size="0.5em" text-anchor="start" textLength="17.5" transform="rotate(-60, 645.2786885245904, 333.2787485534069)" style="text-shadow: 0 0 1px #fff;">
1.02
</text>
<rect x="652.8086065573773" y="316.5200801552456" width="17.85" height="7.2" transform="rotate(-60, 660.6885245901641, 323.18008015524555)" fill="#fffa"/>
<text x="652.9836065573774" y="323.18008015524555" fill="#111" font-size="0.5em" text-anchor="start" textLength="17.5" transform="rotate(-60, 660.6885245901641, 323.18008015524555)" style="text-shadow: 0 0 1px #fff;">
1.08
</text>
<rect x="683.6282786885248" y="320.0843213517314" width="17.85" height="7.2" transform="rotate(-60, 691.5081967213117, 326.74432135173134)" fill="#fffa"/>
<text x="683.8032786885249" y="326.74432135173134" fill="#111" font-size="0.5em" text-anchor="start" textLength="17.5" transform="rotate(-60, 691.5081967213117, 326.74432135173134)" style="text-shadow: 0 0 1px #fff;">
1.06
</text>
<rect x="699.0381147540986" y="326.1384086597377" width="17.85" height="7.2" transform="rotate(-60, 706.9180327868854, 332.7984086597377)" fill="#fffa"/>
<text x="699.2131147540987" y="332.7984086597377" fill="#111" font-size="0.5em" text-anchor="start" textLength="17.5" transform="rotate(-60, 706.9180327868854, 332.7984086597377)" style="text-shadow: 0 0 1px #fff;">
1.02
</text>
<rect x="714.4479508196724" y="316.12701550161995" width="17.85" height="7.2" transform="rotate(-60, 722.3278688524592, 322.7870155016199)" fill="#fffa"/>
<text x="714.6229508196724" y="322.7870155016199" fill="#111" font-size="0.5em" text-anchor="start" textLength="17.5" transform="rotate(-60, 722.3278688524592, 322.7870155016199)" style="text-shadow: 0 0 1px #fff;">
1.08
</text>
<rect x="745.2676229508199" y="320.11558436789176" width="17.85" height="7.2" transform="rotate(-60, 753.1475409836069, 326.7755843678918)" fill="#fffa"/>
<text x="745.44262295082" y="326.7755843678918" fill="#111" font-size="0.5em" text-anchor="start" textLength="17.5" transform="rotate(-60, 753.1475409836069, 326.7755843678918)" style="text-shadow: 0 0 1px #fff;">
1.06
</text>
<rect x="760.6774590163938" y="326.1685158745794" width="17.85" height="7.2" transform="rotate(-60, 768.5573770491806, 332.82851587457935)" fill="#fffa"/>
<text x="760.8524590163937" y="332.82851587457935" fill="#111" font-size="0.5em" text-anchor="start" textLength="17.5" transform="rotate(-60, 768.5573770491806, 332.82851587457935)" style="text-shadow: 0 0 1px #fff;">
1.02
</text>
<rect x="776.0872950819675" y="316.159034017179" width="17.85" height="7.2" transform="rotate(-60, 783.9672131147544, 322.81903401717904)" fill="#fffa"/>
<text x="776.2622950819675" y="322.81903401717904" fill="#111" font-size="0.5em" text-anchor="start" textLength="17.5" transform="rotate(-60, 783.9672131147544, 322.81903401717904)" style="text-shadow: 0 0 1px #fff;">
1.08
</text>
<rect x="806.9069672131151" y="326.02204726015196" width="17.85" height="7.2" transform="rotate(-60, 814.7868852459019, 332.68204726015193)" fill="#fffa"/>
<text x="807.0819672131151" y="332.68204726015193" fill="#111" font-size="0.5em" text-anchor="start" textLength="17.5" transform="rotate(-60, 814.7868852459019, 332.68204726015193)" style="text-shadow: 0 0 1px #fff;">
1.02
</text>
<rect x="822.3168032786888" y="287.24384776793636" width="17.85" height="7.2" transform="rotate(-60, 830.1967213114757, 293.9038477679364)" fill="#fffa"/>
<text x="822.4918032786888" y="293.9038477679364" fill="#111" font-size="0.5em" text-anchor="start" textLength="17.5" transform="rotate(-60, 830.1967213114757, 293.9038477679364)" style="text-shadow: 0 0 1px #fff;">
1.27
</text>
<rect x="837.7266393442626" y="323.49809902884954" width="17.85" height="7.2" transform="rotate(-60, 845.6065573770495, 330.1580990288495)" fill="#fffa"/>
<text x="837.9016393442627" y="330.1580990288495" fill="#111" font-size="0.5em" text-anchor="start" textLength="17.5" transform="rotate(-60, 845.6065573770495, 330.1580990288495)" style="text-shadow: 0 0 1px #fff;">
1.04
</text>
<rect x="868.5463114754102" y="320.6092075181444" width="17.85" height="7.2" transform="rotate(-60, 876.426229508197, 327.2692075181444)" fill="#fffa"/>
<text x="868.7213114754102" y="327.2692075181444" fill="#111" font-size="0.5em" text-anchor="start" textLength="17.5" transform="rotate(-60, 876.426229508197, 327.2692075181444)" style="text-shadow: 0 0 1px #fff;">
1.06
</text>
<rect x="883.9561475409839" y="327.1842295494222" width="17.85" height="7.2" transform="rotate(-60, 891.8360655737708, 333.84422954942215)" fill="#fffa"/>
<text x="884.131147540984" y="333.84422954942215" fill="#111" font-size="0.5em" text-anchor="start" textLength="17.5" transform="rotate(-60, 891.8360655737708, 333.84422954942215)" style="text-shadow: 0 0 1px #fff;">
1.01
</text>
<rect x="899.3659836065577" y="317.1455798409534" width="17.85" height="7.2" transform="rotate(-60, 907.2459016393447, 323.8055798409534)" fill="#fffa"/>
<text x="899.5409836065578" y="323.8055798409534" fill="#111" font-size="0.5em" text-anchor="start" textLength="17.5" transform="rotate(-60, 907.2459016393447, 323.8055798409534)" style="text-shadow: 0 0 1px #fff;">
1.08
</text>
<rect x="930.1856557377052" y="303.2858777969061" width="17.85" height="7.2" transform="rotate(-60, 938.0655737704922, 309.9458777969061)" fill="#fffa"/>
<text x="930.3606557377053" y="309.9458777969061" fill="#111" font-size="0.5em" text-anchor="start" textLength="17.5" transform="rotate(-60, 938.0655737704922, 309.9458777969061)" style="text-shadow: 0 0 1px #fff;">
1.17
</text>
<rect x="945.5954918032791" y="317.266724354896" width="17.85" height="7.2" transform="rotate(-60, 953.475409836066, 323.926724354896)" fill="#fffa"/>
<text x="945.7704918032791" y="323.926724354896" fill="#111" font-size="0.5em" text-anchor="start" textLength="17.5" transform="rotate(-60, 953.475409836066, 323.926724354896)" style="text-shadow: 0 0 1px #fff;">
1.08
</text>
<rect x="961.0053278688529" y="298.43927402205645" width="17.85" height="7.2" transform="rotate(-60, 968.8852459016397, 305.0992740220565)" fill="#fffa"/>
<text x="961.1803278688528" y="305.0992740220565" fill="#111" font-size="0.5em" text-anchor="start" textLength="17.5" transform="rotate(-60, 968.8852459016397, 305.0992740220565)" style="text-shadow: 0 0 1px #fff;">
1.20
</text>
</svg>