<svg viewBox="0 0 1000 600" xmlns="http://www.w3.org/2000/svg" xmlns:xlink="http://www.w3.org/1999/xlink" width="100%" height="100%">

<rect x="50.0" y="30.0" width="940.0" height="467.99999999999994" stroke="#000" fill="#fff"/>
<line x1="42.0" y1="497.9999999999999" x2="50.0" y2="497.9999999999999" stroke="#000"/>
<text x="26.000000000000004" y="497.9999999999999" text-anchor="end" font-weight="bold" font-size="small" fill="#111">
0.0
</text>
<line x1="42.0" y1="401.8959736168415" x2="50.0" y2="401.8959736168415" stroke="#000"/>
<text x="26.000000000000004" y="401.8959736168415" text-anchor="end" font-weight="bold" font-size="small" fill="#111">
0.5
</text>
<line x1="42.0" y1="305.791947233683" x2="50.0" y2="305.791947233683" stroke="#000"/>
<text x="26.000000000000004" y="305.791947233683" text-anchor="end" font-weight="bold" font-size="small" fill="#111">
1.0
</text>
<line x1="42.0" y1="209.68792085052453" x2="50.0" y2="209.68792085052453" stroke="#000"/>
<text x="26.000000000000004" y="209.68792085052453" text-anchor="end" font-weight="bold" font-size="small" fill="#111">
1.5
</text>
<line x1="42.0" y1="113.58389446736604" x2="50.0" y2="113.58389446736604" stroke="#000"/>
<text x="26.000000000000004" y="113.58389446736604" text-anchor="end" font-weight="bold" font-size="small" fill="#111">
2.0
</text>
<line x1="142.75" y1="54.60000000000001" x2="262.75" y2="54.60000000000001" stroke="#648FFF" stroke-width="2"/>
<text x="202.75" y="49.500000000000014" font-size="small" text-anchor="middle" font-weight="bold" fill="#000">
CRuby 3.3.1
</text>
<rect x="354.25" y="35.400000000000006" width="120.0" height="19.2" fill="#785EF0" stroke="none"/>
<text x="414.25" y="49.500000000000014" font-size="small" text-anchor="middle" font-weight="bold" fill="#fff" style="text-shadow: 0 0 1px #000;">
CRuby 3.4.0dev
</text>
<rect x="565.75" y="35.400000000000006" width="120.0" height="19.2" fill="#FFB000" stroke="none"/>
<text x="625.7499999999999" y="49.500000000000014" font-size="small" text-anchor="middle" font-weight="bold" fill="#fff" style="text-shadow: 0 0 1px #000;">
YJIT 3.3.1
</text>
<rect x="777.25" y="35.400000000000006" width="120.0" height="19.2" fill="#DC267F" stroke="none"/>
<text x="837.2499999999999" y="49.500000000000014" font-size="small" text-anchor="middle" font-weight="bold" fill="#fff" style="text-shadow: 0 0 1px #000;">
YJIT 3.4.0dev
</text>
<rect x="112.10714285714286" y="295.6099333310631" width="15.107142857142858" height="202.39006666893687" fill="#785EF0" data-tooltip="1.05x baseline speed (CRuby 3.4.0dev)"/>
<line x1="112.10714285714286" y1="295.43869649096877" x2="127.21428571428572" y2="295.43869649096877" stroke-dasharray="1,0.5" stroke="#333c"/>
<line x1="112.10714285714286" y1="295.7811701711574" x2="127.21428571428572" y2="295.7811701711574" stroke-dasharray="1,0.5" stroke="#333c"/>
<line x1="119.66071428571429" y1="295.43869649096877" x2="119.66071428571429" y2="295.7811701711574" stroke-dasharray="1,0.5" stroke="#333c"/>
<rect x="127.21428571428572" y="190.90755767666846" width="15.107142857142858" height="307.09244232333145" fill="#FFB000" data-tooltip="1.60x baseline speed (YJIT 3.3.1)"/>
<line x1="127.21428571428572" y1="190.7118056295945" x2="142.32142857142858" y2="190.7118056295945" stroke-dasharray="1,0.5" stroke="#333c"/>
<line x1="127.21428571428572" y1="191.1033097237424" x2="142.32142857142858" y2="191.1033097237424" stroke-dasharray="1,0.5" stroke="#333c"/>
<line x1="134.76785714285717" y1="190.7118056295945" x2="134.76785714285717" y2="191.1033097237424" stroke-dasharray="1,0.5" stroke="#333c"/>
<rect x="142.32142857142858" y="165.0606596450285" width="15.107142857142858" height="332.9393403549714" fill="#DC267F" data-tooltip="1.73x baseline speed (YJIT 3.4.0dev)"/>
<line x1="142.32142857142858" y1="164.81159542228366" x2="157.42857142857142" y2="164.81159542228366" stroke-dasharray="1,0.5" stroke="#333c"/>
<line x1="142.32142857142858" y1="165.30972386777336" x2="157.42857142857142" y2="165.30972386777336" stroke-dasharray="1,0.5" stroke="#333c"/>
<line x1="149.875" y1="164.81159542228366" x2="149.875" y2="165.30972386777336" stroke-dasharray="1,0.5" stroke="#333c"/>
<line x1="127.21428571428572" y1="498.0" x2="127.21428571428572" y2="502.79999999999995" stroke="#000"/>
<text x="127.21428571428572" y="512.4" fill="#111" font-size="small" font-family="monospace" font-weight="bold" text-anchor="end" transform="rotate(-60, 127.21428571428572, 512.4)">
activerecord
</text>
<rect x="172.53571428571428" y="316.5722564581592" width="15.107142857142858" height="181.42774354184078" fill="#785EF0" data-tooltip="0.94x baseline speed (CRuby 3.4.0dev)"/>
<line x1="172.53571428571428" y1="315.85766521301014" x2="187.6428571428571" y2="315.85766521301014" stroke-dasharray="1,0.5" stroke="#333c"/>
<line x1="172.53571428571428" y1="317.28684770330824" x2="187.6428571428571" y2="317.28684770330824" stroke-dasharray="1,0.5" stroke="#333c"/>
<line x1="180.0892857142857" y1="315.85766521301014" x2="180.0892857142857" y2="317.28684770330824" stroke-dasharray="1,0.5" stroke="#333c"/>
<rect x="187.64285714285714" y="151.4728172065072" width="15.107142857142858" height="346.5271827934928" fill="#FFB000" data-tooltip="1.80x baseline speed (YJIT 3.3.1)"/>
<line x1="187.64285714285714" y1="150.5756648085904" x2="202.75" y2="150.5756648085904" stroke-dasharray="1,0.5" stroke="#333c"/>
<line x1="187.64285714285714" y1="152.36996960442394" x2="202.75" y2="152.36996960442394" stroke-dasharray="1,0.5" stroke="#333c"/>
<line x1="195.19642857142858" y1="150.5756648085904" x2="195.19642857142858" y2="152.36996960442394" stroke-dasharray="1,0.5" stroke="#333c"/>
<rect x="202.75" y="138.2810079787131" width="15.107142857142858" height="359.71899202128685" fill="#DC267F" data-tooltip="1.87x baseline speed (YJIT 3.4.0dev)"/>
<line x1="202.75" y1="137.33581150454603" x2="217.85714285714283" y2="137.33581150454603" stroke-dasharray="1,0.5" stroke="#333c"/>
<line x1="202.75" y1="139.22620445288018" x2="217.85714285714283" y2="139.22620445288018" stroke-dasharray="1,0.5" stroke="#333c"/>
<line x1="210.30357142857142" y1="137.33581150454603" x2="210.30357142857142" y2="139.22620445288018" stroke-dasharray="1,0.5" stroke="#333c"/>
<line x1="187.64285714285714" y1="498.0" x2="187.64285714285714" y2="502.79999999999995" stroke="#000"/>
<text x="187.64285714285714" y="512.4" fill="#111" font-size="small" font-family="monospace" font-weight="bold" text-anchor="end" transform="rotate(-60, 187.64285714285714, 512.4)">
chunky-png
</text>
<rect x="232.9642857142857" y="305.0665199079703" width="15.107142857142858" height="192.93348009202964" fill="#785EF0" data-tooltip="1.00x baseline speed (CRuby 3.4.0dev)"/>
<line x1="232.9642857142857" y1="304.9308545436926" x2="248.07142857142856" y2="304.9308545436926" stroke-dasharray="1,0.5" stroke="#333c"/>
<line x1="232.9642857142857" y1="305.20218527224796" x2="248.07142857142856" y2="305.20218527224796" stroke-dasharray="1,0.5" stroke="#333c"/>
<line x1="240.51785714285714" y1="304.9308545436926" x2="240.51785714285714" y2="305.20218527224796" stroke-dasharray="1,0.5" stroke="#333c"/>
<rect x="248.07142857142858" y="220.7513709443082" width="15.107142857142858" height="277.2486290556917" fill="#FFB000" data-tooltip="1.44x baseline speed (YJIT 3.3.1)"/>
<line x1="248.07142857142858" y1="220.49438650662526" x2="263.17857142857144" y2="220.49438650662526" stroke-dasharray="1,0.5" stroke="#333c"/>
<line x1="248.07142857142858" y1="221.00835538199115" x2="263.17857142857144" y2="221.00835538199115" stroke-dasharray="1,0.5" stroke="#333c"/>
<line x1="255.625" y1="220.49438650662526" x2="255.625" y2="221.00835538199115" stroke-dasharray="1,0.5" stroke="#333c"/>
<rect x="263.17857142857144" y="207.6832469190029" width="15.107142857142858" height="290.31675308099705" fill="#DC267F" data-tooltip="1.51x baseline speed (YJIT 3.4.0dev)"/>
<line x1="263.17857142857144" y1="207.37411626747982" x2="278.2857142857143" y2="207.37411626747982" stroke-dasharray="1,0.5" stroke="#333c"/>
<line x1="263.17857142857144" y1="207.992377570526" x2="278.2857142857143" y2="207.992377570526" stroke-dasharray="1,0.5" stroke="#333c"/>
<line x1="270.7321428571429" y1="207.37411626747982" x2="270.7321428571429" y2="207.992377570526" stroke-dasharray="1,0.5" stroke="#333c"/>
<line x1="248.07142857142858" y1="498.0" x2="248.07142857142858" y2="502.79999999999995" stroke="#000"/>
<text x="248.07142857142858" y="512.4" fill="#111" font-size="small" font-family="monospace" font-weight="bold" text-anchor="end" transform="rotate(-60, 248.07142857142858, 512.4)">
erubi-rails
</text>
<rect x="293.3928571428571" y="291.93012698096226" width="15.107142857142858" height="206.06987301903771" fill="#785EF0" data-tooltip="1.07x baseline speed (CRuby 3.4.0dev)"/>
<line x1="293.3928571428571" y1="290.3480690214884" x2="308.5" y2="290.3480690214884" stroke-dasharray="1,0.5" stroke="#333c"/>
<line x1="293.3928571428571" y1="293.51218494043604" x2="308.5" y2="293.51218494043604" stroke-dasharray="1,0.5" stroke="#333c"/>
<line x1="300.94642857142856" y1="290.3480690214884" x2="300.94642857142856" y2="293.51218494043604" stroke-dasharray="1,0.5" stroke="#333c"/>
<rect x="308.49999999999994" y="224.7520937171265" width="15.107142857142858" height="273.24790628287343" fill="#FFB000" data-tooltip="1.42x baseline speed (YJIT 3.3.1)"/>
<line x1="308.49999999999994" y1="222.20555251199843" x2="323.60714285714283" y2="222.20555251199843" stroke-dasharray="1,0.5" stroke="#333c"/>
<line x1="308.49999999999994" y1="227.29863492225456" x2="323.60714285714283" y2="227.29863492225456" stroke-dasharray="1,0.5" stroke="#333c"/>
<line x1="316.0535714285714" y1="222.20555251199843" x2="316.0535714285714" y2="227.29863492225456" stroke-dasharray="1,0.5" stroke="#333c"/>
<rect x="323.60714285714283" y="152.67446094040815" width="15.107142857142858" height="345.3255390595918" fill="#DC267F" data-tooltip="1.80x baseline speed (YJIT 3.4.0dev)"/>
<line x1="323.60714285714283" y1="149.41978836783994" x2="338.71428571428567" y2="149.41978836783994" stroke-dasharray="1,0.5" stroke="#333c"/>
<line x1="323.60714285714283" y1="155.92913351297634" x2="338.71428571428567" y2="155.92913351297634" stroke-dasharray="1,0.5" stroke="#333c"/>
<line x1="331.1607142857143" y1="149.41978836783994" x2="331.1607142857143" y2="155.92913351297634" stroke-dasharray="1,0.5" stroke="#333c"/>
<line x1="308.49999999999994" y1="498.0" x2="308.49999999999994" y2="502.79999999999995" stroke="#000"/>
<text x="308.49999999999994" y="512.4" fill="#111" font-size="small" font-family="monospace" font-weight="bold" text-anchor="end" transform="rotate(-60, 308.49999999999994, 512.4)">
hexapdf
</text>
<rect x="353.8214285714286" y="301.41174178895545" width="15.107142857142858" height="196.5882582110445" fill="#785EF0" data-tooltip="1.02x baseline speed (CRuby 3.4.0dev)"/>
<line x1="353.8214285714286" y1="300.49433785915403" x2="368.9285714285715" y2="300.49433785915403" stroke-dasharray="1,0.5" stroke="#333c"/>
<line x1="353.8214285714286" y1="302.3291457187569" x2="368.9285714285715" y2="302.3291457187569" stroke-dasharray="1,0.5" stroke="#333c"/>
<line x1="361.37500000000006" y1="300.49433785915403" x2="361.37500000000006" y2="302.3291457187569" stroke-dasharray="1,0.5" stroke="#333c"/>
<rect x="368.92857142857144" y="254.28782130851033" width="15.107142857142858" height="243.7121786914896" fill="#FFB000" data-tooltip="1.27x baseline speed (YJIT 3.3.1)"/>
<line x1="368.92857142857144" y1="253.74226892572014" x2="384.03571428571433" y2="253.74226892572014" stroke-dasharray="1,0.5" stroke="#333c"/>
<line x1="368.92857142857144" y1="254.8333736913005" x2="384.03571428571433" y2="254.8333736913005" stroke-dasharray="1,0.5" stroke="#333c"/>
<line x1="376.4821428571429" y1="253.74226892572014" x2="376.4821428571429" y2="254.8333736913005" stroke-dasharray="1,0.5" stroke="#333c"/>
<rect x="384.03571428571433" y="238.68318413393274" width="15.107142857142858" height="259.3168158660672" fill="#DC267F" data-tooltip="1.35x baseline speed (YJIT 3.4.0dev)"/>
<line x1="384.03571428571433" y1="237.32219268940494" x2="399.14285714285717" y2="237.32219268940494" stroke-dasharray="1,0.5" stroke="#333c"/>
<line x1="384.03571428571433" y1="240.04417557846054" x2="399.14285714285717" y2="240.04417557846054" stroke-dasharray="1,0.5" stroke="#333c"/>
<line x1="391.5892857142858" y1="237.32219268940494" x2="391.5892857142858" y2="240.04417557846054" stroke-dasharray="1,0.5" stroke="#333c"/>
<line x1="368.92857142857144" y1="498.0" x2="368.92857142857144" y2="502.79999999999995" stroke="#000"/>
<text x="368.92857142857144" y="512.4" fill="#111" font-size="small" font-family="monospace" font-weight="bold" text-anchor="end" transform="rotate(-60, 368.92857142857144, 512.4)">
liquid-c
</text>
<rect x="414.25" y="294.1014869233991" width="15.107142857142858" height="203.89851307660086" fill="#785EF0" data-tooltip="1.06x baseline speed (CRuby 3.4.0dev)"/>
<line x1="414.25" y1="293.3991161095011" x2="429.3571428571429" y2="293.3991161095011" stroke-dasharray="1,0.5" stroke="#333c"/>
<line x1="414.25" y1="294.80385773729705" x2="429.3571428571429" y2="294.80385773729705" stroke-dasharray="1,0.5" stroke="#333c"/>
<line x1="421.80357142857144" y1="293.3991161095011" x2="421.80357142857144" y2="294.80385773729705" stroke-dasharray="1,0.5" stroke="#333c"/>
<rect x="429.35714285714283" y="251.54028013714935" width="15.107142857142858" height="246.4597198628506" fill="#FFB000" data-tooltip="1.28x baseline speed (YJIT 3.3.1)"/>
<line x1="429.35714285714283" y1="244.60876252310382" x2="444.4642857142857" y2="244.60876252310382" stroke-dasharray="1,0.5" stroke="#333c"/>
<line x1="429.35714285714283" y1="258.4717977511949" x2="444.4642857142857" y2="258.4717977511949" stroke-dasharray="1,0.5" stroke="#333c"/>
<line x1="436.9107142857143" y1="244.60876252310382" x2="436.9107142857143" y2="258.4717977511949" stroke-dasharray="1,0.5" stroke="#333c"/>
<rect x="444.4642857142857" y="240.90508706221797" width="15.107142857142858" height="257.09491293778194" fill="#DC267F" data-tooltip="1.34x baseline speed (YJIT 3.4.0dev)"/>
<line x1="444.4642857142857" y1="240.04365949579378" x2="459.57142857142856" y2="240.04365949579378" stroke-dasharray="1,0.5" stroke="#333c"/>
<line x1="444.4642857142857" y1="241.7665146286422" x2="459.57142857142856" y2="241.7665146286422" stroke-dasharray="1,0.5" stroke="#333c"/>
<line x1="452.0178571428571" y1="240.04365949579378" x2="452.0178571428571" y2="241.7665146286422" stroke-dasharray="1,0.5" stroke="#333c"/>
<line x1="429.35714285714283" y1="498.0" x2="429.35714285714283" y2="502.79999999999995" stroke="#000"/>
<text x="429.35714285714283" y="512.4" fill="#111" font-size="small" font-family="monospace" font-weight="bold" text-anchor="end" transform="rotate(-60, 429.35714285714283, 512.4)">
liquid-compile
</text>
<rect x="474.6785714285714" y="298.195414879845" width="15.107142857142858" height="199.80458512015497" fill="#785EF0" data-tooltip="1.04x baseline speed (CRuby 3.4.0dev)"/>
<line x1="474.6785714285714" y1="297.67766009415396" x2="489.7857142857143" y2="297.67766009415396" stroke-dasharray="1,0.5" stroke="#333c"/>
<line x1="474.6785714285714" y1="298.71316966553604" x2="489.7857142857143" y2="298.71316966553604" stroke-dasharray="1,0.5" stroke="#333c"/>
<line x1="482.23214285714283" y1="297.67766009415396" x2="482.23214285714283" y2="298.71316966553604" stroke-dasharray="1,0.5" stroke="#333c"/>
<rect x="489.7857142857142" y="130.5855901951869" width="15.107142857142858" height="367.41440980481303" fill="#FFB000" data-tooltip="1.91x baseline speed (YJIT 3.3.1)"/>
<line x1="489.7857142857142" y1="129.40555233803056" x2="504.89285714285705" y2="129.40555233803056" stroke-dasharray="1,0.5" stroke="#333c"/>
<line x1="489.7857142857142" y1="131.7656280523433" x2="504.89285714285705" y2="131.7656280523433" stroke-dasharray="1,0.5" stroke="#333c"/>
<line x1="497.33928571428567" y1="129.40555233803056" x2="497.33928571428567" y2="131.7656280523433" stroke-dasharray="1,0.5" stroke="#333c"/>
<rect x="504.89285714285705" y="100.19999999999999" width="15.107142857142858" height="397.79999999999995" fill="#DC267F" data-tooltip="2.07x baseline speed (YJIT 3.4.0dev)"/>
<line x1="504.89285714285705" y1="98.87396307915255" x2="519.9999999999999" y2="98.87396307915255" stroke-dasharray="1,0.5" stroke="#333c"/>
<line x1="504.89285714285705" y1="101.52603692084743" x2="519.9999999999999" y2="101.52603692084743" stroke-dasharray="1,0.5" stroke="#333c"/>
<line x1="512.4464285714284" y1="98.87396307915255" x2="512.4464285714284" y2="101.52603692084743" stroke-dasharray="1,0.5" stroke="#333c"/>
<line x1="489.7857142857142" y1="498.0" x2="489.7857142857142" y2="502.79999999999995" stroke="#000"/>
<text x="489.7857142857142" y="512.4" fill="#111" font-size="small" font-family="monospace" font-weight="bold" text-anchor="end" transform="rotate(-60, 489.7857142857142, 512.4)">
liquid-render
</text>
<rect x="535.1071428571429" y="304.65153034812073" width="15.107142857142858" height="193.34846965187927" fill="#785EF0" data-tooltip="1.01x baseline speed (CRuby 3.4.0dev)"/>
<line x1="535.1071428571429" y1="303.97524058193784" x2="550.2142857142858" y2="303.97524058193784" stroke-dasharray="1,0.5" stroke="#333c"/>
<line x1="535.1071428571429" y1="305.3278201143036" x2="550.2142857142858" y2="305.3278201143036" stroke-dasharray="1,0.5" stroke="#333c"/>
<line x1="542.6607142857142" y1="303.97524058193784" x2="542.6607142857142" y2="305.3278201143036" stroke-dasharray="1,0.5" stroke="#333c"/>
<rect x="550.2142857142858" y="234.58951698108362" width="15.107142857142858" height="263.41048301891635" fill="#FFB000" data-tooltip="1.37x baseline speed (YJIT 3.3.1)"/>
<line x1="550.2142857142858" y1="230.9257717497773" x2="565.3214285714287" y2="230.9257717497773" stroke-dasharray="1,0.5" stroke="#333c"/>
<line x1="550.2142857142858" y1="238.25326221238993" x2="565.3214285714287" y2="238.25326221238993" stroke-dasharray="1,0.5" stroke="#333c"/>
<line x1="557.7678571428571" y1="230.9257717497773" x2="557.7678571428571" y2="238.25326221238993" stroke-dasharray="1,0.5" stroke="#333c"/>
<rect x="565.3214285714286" y="219.82695638766285" width="15.107142857142858" height="278.1730436123371" fill="#DC267F" data-tooltip="1.45x baseline speed (YJIT 3.4.0dev)"/>
<line x1="565.3214285714286" y1="216.60495559704617" x2="580.4285714285714" y2="216.60495559704617" stroke-dasharray="1,0.5" stroke="#333c"/>
<line x1="565.3214285714286" y1="223.0489571782795" x2="580.4285714285714" y2="223.0489571782795" stroke-dasharray="1,0.5" stroke="#333c"/>
<line x1="572.8749999999999" y1="216.60495559704617" x2="572.8749999999999" y2="223.0489571782795" stroke-dasharray="1,0.5" stroke="#333c"/>
<line x1="550.2142857142858" y1="498.0" x2="550.2142857142858" y2="502.79999999999995" stroke="#000"/>
<text x="550.2142857142858" y="512.4" fill="#111" font-size="small" font-family="monospace" font-weight="bold" text-anchor="end" transform="rotate(-60, 550.2142857142858, 512.4)">
lobsters
</text>
<rect x="595.5357142857143" y="302.69443700704437" width="15.107142857142858" height="195.30556299295552" fill="#785EF0" data-tooltip="1.02x baseline speed (CRuby 3.4.0dev)"/>
<line x1="595.5357142857143" y1="302.3110821121818" x2="610.6428571428571" y2="302.3110821121818" stroke-dasharray="1,0.5" stroke="#333c"/>
<line x1="595.5357142857143" y1="303.0777919019069" x2="610.6428571428571" y2="303.0777919019069" stroke-dasharray="1,0.5" stroke="#333c"/>
<line x1="603.0892857142857" y1="302.3110821121818" x2="603.0892857142857" y2="303.0777919019069" stroke-dasharray="1,0.5" stroke="#333c"/>
<rect x="610.6428571428571" y="238.4763263615957" width="15.107142857142858" height="259.52367363840426" fill="#FFB000" data-tooltip="1.35x baseline speed (YJIT 3.3.1)"/>
<line x1="610.6428571428571" y1="237.99851420170356" x2="625.75" y2="237.99851420170356" stroke-dasharray="1,0.5" stroke="#333c"/>
<line x1="610.6428571428571" y1="238.95413852148783" x2="625.75" y2="238.95413852148783" stroke-dasharray="1,0.5" stroke="#333c"/>
<line x1="618.1964285714286" y1="237.99851420170356" x2="618.1964285714286" y2="238.95413852148783" stroke-dasharray="1,0.5" stroke="#333c"/>
<rect x="625.75" y="223.21895395531092" width="15.107142857142858" height="274.781046044689" fill="#DC267F" data-tooltip="1.43x baseline speed (YJIT 3.4.0dev)"/>
<line x1="625.75" y1="222.59097263204137" x2="640.8571428571429" y2="222.59097263204137" stroke-dasharray="1,0.5" stroke="#333c"/>
<line x1="625.75" y1="223.84693527858047" x2="640.8571428571429" y2="223.84693527858047" stroke-dasharray="1,0.5" stroke="#333c"/>
<line x1="633.3035714285714" y1="222.59097263204137" x2="633.3035714285714" y2="223.84693527858047" stroke-dasharray="1,0.5" stroke="#333c"/>
<line x1="610.6428571428571" y1="498.0" x2="610.6428571428571" y2="502.79999999999995" stroke="#000"/>
<text x="610.6428571428571" y="512.4" fill="#111" font-size="small" font-family="monospace" font-weight="bold" text-anchor="end" transform="rotate(-60, 610.6428571428571, 512.4)">
mail
</text>
<rect x="655.9642857142857" y="301.58593421107196" width="15.107142857142858" height="196.41406578892799" fill="#785EF0" data-tooltip="1.02x baseline speed (CRuby 3.4.0dev)"/>
<line x1="655.9642857142857" y1="301.4296723223383" x2="671.0714285714286" y2="301.4296723223383" stroke-dasharray="1,0.5" stroke="#333c"/>
<line x1="655.9642857142857" y1="301.7421960998056" x2="671.0714285714286" y2="301.7421960998056" stroke-dasharray="1,0.5" stroke="#333c"/>
<line x1="663.517857142857" y1="301.4296723223383" x2="663.517857142857" y2="301.7421960998056" stroke-dasharray="1,0.5" stroke="#333c"/>
<rect x="671.0714285714286" y="201.33905251679437" width="15.107142857142858" height="296.6609474832056" fill="#FFB000" data-tooltip="1.54x baseline speed (YJIT 3.3.1)"/>
<line x1="671.0714285714286" y1="201.13205916367906" x2="686.1785714285714" y2="201.13205916367906" stroke-dasharray="1,0.5" stroke="#333c"/>
<line x1="671.0714285714286" y1="201.5460458699097" x2="686.1785714285714" y2="201.5460458699097" stroke-dasharray="1,0.5" stroke="#333c"/>
<line x1="678.6249999999999" y1="201.13205916367906" x2="678.6249999999999" y2="201.5460458699097" stroke-dasharray="1,0.5" stroke="#333c"/>
<rect x="686.1785714285713" y="131.71437964318758" width="15.107142857142858" height="366.2856203568124" fill="#DC267F" data-tooltip="1.91x baseline speed (YJIT 3.4.0dev)"/>
<line x1="686.1785714285713" y1="131.45926895958698" x2="701.2857142857142" y2="131.45926895958698" stroke-dasharray="1,0.5" stroke="#333c"/>
<line x1="686.1785714285713" y1="131.96949032678816" x2="701.2857142857142" y2="131.96949032678816" stroke-dasharray="1,0.5" stroke="#333c"/>
<line x1="693.7321428571427" y1="131.45926895958698" x2="693.7321428571427" y2="131.96949032678816" stroke-dasharray="1,0.5" stroke="#333c"/>
<line x1="671.0714285714286" y1="498.0" x2="671.0714285714286" y2="502.79999999999995" stroke="#000"/>
<text x="671.0714285714286" y="512.4" fill="#111" font-size="small" font-family="monospace" font-weight="bold" text-anchor="end" transform="rotate(-60, 671.0714285714286, 512.4)">
psych-load
</text>
<rect x="716.3928571428571" y="303.97678846913607" width="15.107142857142858" height="194.02321153086385" fill="#785EF0" data-tooltip="1.01x baseline speed (CRuby 3.4.0dev)"/>
<line x1="716.3928571428571" y1="303.8289985978937" x2="731.5" y2="303.8289985978937" stroke-dasharray="1,0.5" stroke="#333c"/>
<line x1="716.3928571428571" y1="304.12457834037843" x2="731.5" y2="304.12457834037843" stroke-dasharray="1,0.5" stroke="#333c"/>
<line x1="723.9464285714286" y1="303.8289985978937" x2="723.9464285714286" y2="304.12457834037843" stroke-dasharray="1,0.5" stroke="#333c"/>
<rect x="731.5" y="206.26838861341298" width="15.107142857142858" height="291.73161138658696" fill="#FFB000" data-tooltip="1.52x baseline speed (YJIT 3.3.1)"/>
<line x1="731.5" y1="204.45041723471428" x2="746.6071428571429" y2="204.45041723471428" stroke-dasharray="1,0.5" stroke="#333c"/>
<line x1="731.5" y1="208.08635999211165" x2="746.6071428571429" y2="208.08635999211165" stroke-dasharray="1,0.5" stroke="#333c"/>
<line x1="739.0535714285714" y1="204.45041723471428" x2="739.0535714285714" y2="208.08635999211165" stroke-dasharray="1,0.5" stroke="#333c"/>
<rect x="746.6071428571428" y="180.53685096282638" width="15.107142857142858" height="317.46314903717354" fill="#DC267F" data-tooltip="1.65x baseline speed (YJIT 3.4.0dev)"/>
<line x1="746.6071428571428" y1="180.275069088687" x2="761.7142857142857" y2="180.275069088687" stroke-dasharray="1,0.5" stroke="#333c"/>
<line x1="746.6071428571428" y1="180.79863283696577" x2="761.7142857142857" y2="180.79863283696577" stroke-dasharray="1,0.5" stroke="#333c"/>
<line x1="754.1607142857142" y1="180.275069088687" x2="754.1607142857142" y2="180.79863283696577" stroke-dasharray="1,0.5" stroke="#333c"/>
<line x1="731.5" y1="498.0" x2="731.5" y2="502.79999999999995" stroke="#000"/>
<text x="731.5" y="512.4" fill="#111" font-size="small" font-family="monospace" font-weight="bold" text-anchor="end" transform="rotate(-60, 731.5, 512.4)">
railsbench
</text>
<rect x="776.8214285714286" y="304.73892849131664" width="15.107142857142858" height="193.26107150868336" fill="#785EF0" data-tooltip="1.01x baseline speed (CRuby 3.4.0dev)"/>
<line x1="776.8214285714286" y1="303.52341582663473" x2="791.9285714285714" y2="303.52341582663473" stroke-dasharray="1,0.5" stroke="#333c"/>
<line x1="776.8214285714286" y1="305.9544411559985" x2="791.9285714285714" y2="305.9544411559985" stroke-dasharray="1,0.5" stroke="#333c"/>
<line x1="784.3749999999999" y1="303.52341582663473" x2="784.3749999999999" y2="305.9544411559985" stroke-dasharray="1,0.5" stroke="#333c"/>
<rect x="791.9285714285714" y="237.622474225338" width="15.107142857142858" height="260.37752577466193" fill="#FFB000" data-tooltip="1.35x baseline speed (YJIT 3.3.1)"/>
<line x1="791.9285714285714" y1="225.94907726535513" x2="807.0357142857143" y2="225.94907726535513" stroke-dasharray="1,0.5" stroke="#333c"/>
<line x1="791.9285714285714" y1="249.2958711853209" x2="807.0357142857143" y2="249.2958711853209" stroke-dasharray="1,0.5" stroke="#333c"/>
<line x1="799.4821428571428" y1="225.94907726535513" x2="799.4821428571428" y2="249.2958711853209" stroke-dasharray="1,0.5" stroke="#333c"/>
<rect x="807.0357142857143" y="203.60215870800195" width="15.107142857142858" height="294.397841291998" fill="#DC267F" data-tooltip="1.53x baseline speed (YJIT 3.4.0dev)"/>
<line x1="807.0357142857143" y1="191.48745586703402" x2="822.1428571428572" y2="191.48745586703402" stroke-dasharray="1,0.5" stroke="#333c"/>
<line x1="807.0357142857143" y1="215.71686154896986" x2="822.1428571428572" y2="215.71686154896986" stroke-dasharray="1,0.5" stroke="#333c"/>
<line x1="814.5892857142857" y1="191.48745586703402" x2="814.5892857142857" y2="215.71686154896986" stroke-dasharray="1,0.5" stroke="#333c"/>
<line x1="791.9285714285714" y1="498.0" x2="791.9285714285714" y2="502.79999999999995" stroke="#000"/>
<text x="791.9285714285714" y="512.4" fill="#111" font-size="small" font-family="monospace" font-weight="bold" text-anchor="end" transform="rotate(-60, 791.9285714285714, 512.4)">
rubocop
</text>
<rect x="837.2499999999999" y="298.3694517789043" width="15.107142857142858" height="199.6305482210956" fill="#785EF0" data-tooltip="1.04x baseline speed (CRuby 3.4.0dev)"/>
<line x1="837.2499999999999" y1="297.1163629214828" x2="852.3571428571428" y2="297.1163629214828" stroke-dasharray="1,0.5" stroke="#333c"/>
<line x1="837.2499999999999" y1="299.6225406363259" x2="852.3571428571428" y2="299.6225406363259" stroke-dasharray="1,0.5" stroke="#333c"/>
<line x1="844.8035714285713" y1="297.1163629214828" x2="844.8035714285713" y2="299.6225406363259" stroke-dasharray="1,0.5" stroke="#333c"/>
<rect x="852.3571428571428" y="251.56810884881972" width="15.107142857142858" height="246.43189115118022" fill="#FFB000" data-tooltip="1.28x baseline speed (YJIT 3.3.1)"/>
<line x1="852.3571428571428" y1="248.95762883391654" x2="867.4642857142857" y2="248.95762883391654" stroke-dasharray="1,0.5" stroke="#333c"/>
<line x1="852.3571428571428" y1="254.1785888637229" x2="867.4642857142857" y2="254.1785888637229" stroke-dasharray="1,0.5" stroke="#333c"/>
<line x1="859.9107142857142" y1="248.95762883391654" x2="859.9107142857142" y2="254.1785888637229" stroke-dasharray="1,0.5" stroke="#333c"/>
<rect x="867.4642857142856" y="254.3829639860601" width="15.107142857142858" height="243.61703601393984" fill="#DC267F" data-tooltip="1.27x baseline speed (YJIT 3.4.0dev)"/>
<line x1="867.4642857142856" y1="252.71033162795175" x2="882.5714285714284" y2="252.71033162795175" stroke-dasharray="1,0.5" stroke="#333c"/>
<line x1="867.4642857142856" y1="256.05559634416846" x2="882.5714285714284" y2="256.05559634416846" stroke-dasharray="1,0.5" stroke="#333c"/>
<line x1="875.017857142857" y1="252.71033162795175" x2="875.017857142857" y2="256.05559634416846" stroke-dasharray="1,0.5" stroke="#333c"/>
<line x1="852.3571428571428" y1="498.0" x2="852.3571428571428" y2="502.79999999999995" stroke="#000"/>
<text x="852.3571428571428" y="512.4" fill="#111" font-size="small" font-family="monospace" font-weight="bold" text-anchor="end" transform="rotate(-60, 852.3571428571428, 512.4)">
ruby-lsp
</text>
<rect x="897.6785714285714" y="297.8997719178813" width="15.107142857142858" height="200.10022808211863" fill="#785EF0" data-tooltip="1.04x baseline speed (CRuby 3.4.0dev)"/>
<line x1="897.6785714285714" y1="297.3174134450241" x2="912.7857142857143" y2="297.3174134450241" stroke-dasharray="1,0.5" stroke="#333c"/>
<line x1="897.6785714285714" y1="298.4821303907385" x2="912.7857142857143" y2="298.4821303907385" stroke-dasharray="1,0.5" stroke="#333c"/>
<line x1="905.2321428571428" y1="297.3174134450241" x2="905.2321428571428" y2="298.4821303907385" stroke-dasharray="1,0.5" stroke="#333c"/>
<rect x="912.7857142857143" y="272.28567742731457" width="15.107142857142858" height="225.71432257268538" fill="#FFB000" data-tooltip="1.17x baseline speed (YJIT 3.3.1)"/>
<line x1="912.7857142857143" y1="271.80069381245755" x2="927.8928571428572" y2="271.80069381245755" stroke-dasharray="1,0.5" stroke="#333c"/>
<line x1="912.7857142857143" y1="272.7706610421716" x2="927.8928571428572" y2="272.7706610421716" stroke-dasharray="1,0.5" stroke="#333c"/>
<line x1="920.3392857142857" y1="271.80069381245755" x2="920.3392857142857" y2="272.7706610421716" stroke-dasharray="1,0.5" stroke="#333c"/>
<rect x="927.8928571428571" y="258.98226039456137" width="15.107142857142858" height="239.0177396054386" fill="#DC267F" data-tooltip="1.24x baseline speed (YJIT 3.4.0dev)"/>
<line x1="927.8928571428571" y1="258.25138188283574" x2="943.0" y2="258.25138188283574" stroke-dasharray="1,0.5" stroke="#333c"/>
<line x1="927.8928571428571" y1="259.713138906287" x2="943.0" y2="259.713138906287" stroke-dasharray="1,0.5" stroke="#333c"/>
<line x1="935.4464285714284" y1="258.25138188283574" x2="935.4464285714284" y2="259.713138906287" stroke-dasharray="1,0.5" stroke="#333c"/>
<line x1="912.7857142857143" y1="498.0" x2="912.7857142857143" y2="502.79999999999995" stroke="#000"/>
<text x="912.7857142857143" y="512.4" fill="#111" font-size="small" font-family="monospace" font-weight="bold" text-anchor="end" transform="rotate(-60, 912.7857142857143, 512.4)">
sequel
</text>
<line x1="50.0" y1="305.791947233683" x2="990.0" y2="305.791947233683" stroke="#648FFF" stroke-width="2"/>
</svg>