<svg viewBox="0 0 1000 600" xmlns="http://www.w3.org/2000/svg" xmlns:xlink="http://www.w3.org/1999/xlink" width="100%" height="100%">

<rect x="50.0" y="30.0" width="940.0" height="467.99999999999994" stroke="#000" fill="#fff"/>
<line x1="42.0" y1="497.9999999999999" x2="50.0" y2="497.9999999999999" stroke="#000"/>
<text x="26.000000000000004" y="497.9999999999999" text-anchor="end" font-weight="bold" font-size="small" fill="#111">
0.0
</text>
<line x1="42.0" y1="449.23049155197117" x2="50.0" y2="449.23049155197117" stroke="#000"/>
<text x="26.000000000000004" y="449.23049155197117" text-anchor="end" font-weight="bold" font-size="small" fill="#111">
0.2
</text>
<line x1="42.0" y1="400.4609831039424" x2="50.0" y2="400.4609831039424" stroke="#000"/>
<text x="26.000000000000004" y="400.4609831039424" text-anchor="end" font-weight="bold" font-size="small" fill="#111">
0.4
</text>
<line x1="42.0" y1="351.69147465591357" x2="50.0" y2="351.69147465591357" stroke="#000"/>
<text x="26.000000000000004" y="351.69147465591357" text-anchor="end" font-weight="bold" font-size="small" fill="#111">
0.6
</text>
<line x1="42.0" y1="302.92196620788485" x2="50.0" y2="302.92196620788485" stroke="#000"/>
<text x="26.000000000000004" y="302.92196620788485" text-anchor="end" font-weight="bold" font-size="small" fill="#111">
0.8
</text>
<line x1="42.0" y1="254.152457759856" x2="50.0" y2="254.152457759856" stroke="#000"/>
<text x="26.000000000000004" y="254.152457759856" text-anchor="end" font-weight="bold" font-size="small" fill="#111">
1.0
</text>
<line x1="42.0" y1="205.38294931182725" x2="50.0" y2="205.38294931182725" stroke="#000"/>
<text x="26.000000000000004" y="205.38294931182725" text-anchor="end" font-weight="bold" font-size="small" fill="#111">
1.2
</text>
<line x1="42.0" y1="156.6134408637985" x2="50.0" y2="156.6134408637985" stroke="#000"/>
<text x="26.000000000000004" y="156.6134408637985" text-anchor="end" font-weight="bold" font-size="small" fill="#111">
1.4
</text>
<line x1="42.0" y1="107.8439324157697" x2="50.0" y2="107.8439324157697" stroke="#000"/>
<text x="26.000000000000004" y="107.8439324157697" text-anchor="end" font-weight="bold" font-size="small" fill="#111">
1.6
</text>
<line x1="178.0" y1="54.60000000000001" x2="298.0" y2="54.60000000000001" stroke="#648FFF" stroke-width="2"/>
<text x="238.0" y="49.500000000000014" font-size="small" text-anchor="middle" font-weight="bold" fill="#000">
CRuby 3.2.0dev
</text>
<rect x="459.9999999999999" y="35.400000000000006" width="120.0" height="19.2" fill="#785EF0" stroke="none"/>
<text x="519.9999999999999" y="49.500000000000014" font-size="small" text-anchor="middle" font-weight="bold" fill="#fff" style="text-shadow: 0 0 1px #000;">
MJIT
</text>
<rect x="742.0" y="35.400000000000006" width="120.0" height="19.2" fill="#FFB000" stroke="none"/>
<text x="801.9999999999999" y="49.500000000000014" font-size="small" text-anchor="middle" font-weight="bold" fill="#fff" style="text-shadow: 0 0 1px #000;">
YJIT 3.2.0dev
</text>
<rect x="80.3225806451613" y="212.2811182619309" width="30.32258064516129" height="285.718881738069" fill="#785EF0" data-tooltip="1.17x baseline (MJIT)"/>
<rect x="110.64516129032258" y="234.7166847216169" width="30.32258064516129" height="263.28331527838304" fill="#FFB000" data-tooltip="1.08x baseline (YJIT 3.2.0dev)"/>
<line x1="110.64516129032258" y1="498.0" x2="110.64516129032258" y2="502.79999999999995" stroke="#000"/>
<text x="110.64516129032258" y="512.4" fill="#111" font-size="small" text-anchor="end" transform="rotate(-60, 110.64516129032258, 512.4)">
binarytrees
</text>
<rect x="171.29032258064512" y="241.98181394038363" width="30.32258064516129" height="256.0181860596163" fill="#785EF0" data-tooltip="1.05x baseline (MJIT)"/>
<rect x="201.61290322580643" y="224.24179374920905" width="30.32258064516129" height="273.7582062507909" fill="#FFB000" data-tooltip="1.12x baseline (YJIT 3.2.0dev)"/>
<line x1="201.61290322580643" y1="498.0" x2="201.61290322580643" y2="502.79999999999995" stroke="#000"/>
<text x="201.61290322580643" y="512.4" fill="#111" font-size="small" text-anchor="end" transform="rotate(-60, 201.61290322580643, 512.4)">
chunky_png
</text>
<rect x="262.258064516129" y="209.4328434600877" width="30.32258064516129" height="288.5671565399122" fill="#785EF0" data-tooltip="1.18x baseline (MJIT)"/>
<rect x="292.58064516129036" y="169.99761389009234" width="30.32258064516129" height="328.00238610990766" fill="#FFB000" data-tooltip="1.35x baseline (YJIT 3.2.0dev)"/>
<line x1="292.58064516129036" y1="498.0" x2="292.58064516129036" y2="502.79999999999995" stroke="#000"/>
<text x="292.58064516129036" y="512.4" fill="#111" font-size="small" text-anchor="end" transform="rotate(-60, 292.58064516129036, 512.4)">
erubi
</text>
<rect x="353.2258064516129" y="100.19999999999999" width="30.32258064516129" height="397.79999999999995" fill="#785EF0" data-tooltip="1.63x baseline (MJIT)"/>
<rect x="383.54838709677426" y="205.4185147014224" width="30.32258064516129" height="292.58148529857755" fill="#FFB000" data-tooltip="1.20x baseline (YJIT 3.2.0dev)"/>
<line x1="383.54838709677426" y1="498.0" x2="383.54838709677426" y2="502.79999999999995" stroke="#000"/>
<text x="383.54838709677426" y="512.4" fill="#111" font-size="small" text-anchor="end" transform="rotate(-60, 383.54838709677426, 512.4)">
erubi_rails
</text>
<rect x="444.1935483870968" y="244.78378539544423" width="30.32258064516129" height="253.21621460455572" fill="#785EF0" data-tooltip="1.04x baseline (MJIT)"/>
<rect x="474.51612903225816" y="226.91703716526177" width="30.32258064516129" height="271.0829628347382" fill="#FFB000" data-tooltip="1.11x baseline (YJIT 3.2.0dev)"/>
<line x1="474.5161290322581" y1="498.0" x2="474.5161290322581" y2="502.79999999999995" stroke="#000"/>
<text x="474.5161290322581" y="512.4" fill="#111" font-size="small" text-anchor="end" transform="rotate(-60, 474.5161290322581, 512.4)">
fannkuchredux
</text>
<rect x="535.1612903225806" y="242.82683731457922" width="30.32258064516129" height="255.17316268542072" fill="#785EF0" data-tooltip="1.05x baseline (MJIT)"/>
<rect x="565.4838709677418" y="185.7060987938915" width="30.32258064516129" height="312.2939012061084" fill="#FFB000" data-tooltip="1.28x baseline (YJIT 3.2.0dev)"/>
<line x1="565.4838709677418" y1="498.0" x2="565.4838709677418" y2="502.79999999999995" stroke="#000"/>
<text x="565.4838709677418" y="512.4" fill="#111" font-size="small" text-anchor="end" transform="rotate(-60, 565.4838709677418, 512.4)">
lee
</text>
<rect x="626.1290322580644" y="202.40393679724642" width="30.32258064516129" height="295.5960632027535" fill="#785EF0" data-tooltip="1.21x baseline (MJIT)"/>
<rect x="656.4516129032256" y="227.3914805993172" width="30.32258064516129" height="270.6085194006828" fill="#FFB000" data-tooltip="1.11x baseline (YJIT 3.2.0dev)"/>
<line x1="656.4516129032256" y1="498.0" x2="656.4516129032256" y2="502.79999999999995" stroke="#000"/>
<text x="656.4516129032256" y="512.4" fill="#111" font-size="small" text-anchor="end" transform="rotate(-60, 656.4516129032256, 512.4)">
nbody
</text>
<rect x="717.0967741935481" y="244.4729553826398" width="30.32258064516129" height="253.52704461736013" fill="#785EF0" data-tooltip="1.04x baseline (MJIT)"/>
<rect x="747.4193548387094" y="228.21122986196838" width="30.32258064516129" height="269.78877013803157" fill="#FFB000" data-tooltip="1.11x baseline (YJIT 3.2.0dev)"/>
<line x1="747.4193548387094" y1="498.0" x2="747.4193548387094" y2="502.79999999999995" stroke="#000"/>
<text x="747.4193548387094" y="512.4" fill="#111" font-size="small" text-anchor="end" transform="rotate(-60, 747.4193548387094, 512.4)">
optcarrot
</text>
<rect x="808.0645161290319" y="226.2562387740116" width="30.32258064516129" height="271.74376122598835" fill="#785EF0" data-tooltip="1.11x baseline (MJIT)"/>
<rect x="838.3870967741931" y="234.93808320142062" width="30.32258064516129" height="263.0619167985793" fill="#FFB000" data-tooltip="1.08x baseline (YJIT 3.2.0dev)"/>
<line x1="838.3870967741931" y1="498.0" x2="838.3870967741931" y2="502.79999999999995" stroke="#000"/>
<text x="838.3870967741931" y="512.4" fill="#111" font-size="small" text-anchor="end" transform="rotate(-60, 838.3870967741931, 512.4)">
rubykon
</text>
<rect x="899.0322580645156" y="216.64221210738452" width="30.32258064516129" height="281.3577878926154" fill="#785EF0" data-tooltip="1.15x baseline (MJIT)"/>
<rect x="929.3548387096769" y="216.08934841721745" width="30.32258064516129" height="281.91065158278246" fill="#FFB000" data-tooltip="1.16x baseline (YJIT 3.2.0dev)"/>
<line x1="929.3548387096769" y1="498.0" x2="929.3548387096769" y2="502.79999999999995" stroke="#000"/>
<text x="929.3548387096769" y="512.4" fill="#111" font-size="small" text-anchor="end" transform="rotate(-60, 929.3548387096769, 512.4)" font-style="italic">
geomean*
</text>
<line x1="50.0" y1="254.152457759856" x2="990.0" y2="254.152457759856" stroke="#648FFF" stroke-width="2"/>
</svg>