<svg viewBox="0 0 1000 600" xmlns="http://www.w3.org/2000/svg" xmlns:xlink="http://www.w3.org/1999/xlink" width="100%" height="100%">

<rect x="50.0" y="30.0" width="940.0" height="467.99999999999994" stroke="#000" fill="#EEE"/>
<line x1="42.0" y1="497.9999999999999" x2="50.0" y2="497.9999999999999" stroke="#000"/>
<text x="26.000000000000004" y="497.9999999999999" text-anchor="end" font-weight="bold" font-size="small" fill="#111">
0.0
</text>
<line x1="42.0" y1="408.27416412166735" x2="50.0" y2="408.27416412166735" stroke="#000"/>
<text x="26.000000000000004" y="408.27416412166735" text-anchor="end" font-weight="bold" font-size="small" fill="#111">
0.5
</text>
<line x1="42.0" y1="318.54832824333477" x2="50.0" y2="318.54832824333477" stroke="#000"/>
<text x="26.000000000000004" y="318.54832824333477" text-anchor="end" font-weight="bold" font-size="small" fill="#111">
1.0
</text>
<line x1="42.0" y1="228.82249236500226" x2="50.0" y2="228.82249236500226" stroke="#000"/>
<text x="26.000000000000004" y="228.82249236500226" text-anchor="end" font-weight="bold" font-size="small" fill="#111">
1.5
</text>
<line x1="42.0" y1="139.09665648666967" x2="50.0" y2="139.09665648666967" stroke="#000"/>
<text x="26.000000000000004" y="139.09665648666967" text-anchor="end" font-weight="bold" font-size="small" fill="#111">
2.0
</text>
<rect x="268.5" y="36.00000000000001" width="80.0" height="18.0" fill="#7070f8" stroke="#888"/>
<text x="308.5" y="52.50000000000001" font-size="small" text-anchor="middle" font-weight="bold" fill="#EEE">
No JIT
</text>
<rect x="691.4999999999999" y="36.00000000000001" width="80.0" height="18.0" fill="orange" stroke="#888"/>
<text x="731.4999999999999" y="52.50000000000001" font-size="small" text-anchor="middle" font-weight="bold" fill="#EEE">
YJIT
</text>
<rect x="97.0" y="318.54832824333477" width="21.69230769230769" height="179.45167175666512" fill="#7070f8" data-tooltip="1.00x baseline speed (No JIT)"/>
<line x1="97.0" y1="315.4568590271771" x2="118.6923076923077" y2="315.4568590271771" stroke="#000"/>
<line x1="97.0" y1="321.6397974594925" x2="118.6923076923077" y2="321.6397974594925" stroke="#000"/>
<line x1="107.84615384615384" y1="315.4568590271771" x2="107.84615384615384" y2="321.6397974594925" stroke="#000"/>
<rect x="118.6923076923077" y="143.4530851551852" width="21.69230769230769" height="354.5469148448148" fill="orange" data-tooltip="1.98x baseline speed (YJIT)"/>
<line x1="118.6923076923077" y1="127.72854458002716" x2="140.3846153846154" y2="127.72854458002716" stroke="#000"/>
<line x1="118.6923076923077" y1="159.17762573034318" x2="140.3846153846154" y2="159.17762573034318" stroke="#000"/>
<line x1="129.53846153846155" y1="127.72854458002716" x2="129.53846153846155" y2="159.17762573034318" stroke="#000"/>
<line x1="129.53846153846155" y1="498.0" x2="129.53846153846155" y2="502.79999999999995" stroke="#000"/>
<text x="129.53846153846155" y="512.4" fill="#111" font-size="small" font-family="monospace" font-weight="bold" text-anchor="end" transform="rotate(-60, 129.53846153846155, 512.4)">
activerecord
</text>
<rect x="162.07692307692307" y="318.54832824333477" width="21.69230769230769" height="179.45167175666512" fill="#7070f8" data-tooltip="1.00x baseline speed (No JIT)"/>
<line x1="162.07692307692307" y1="318.17809460598204" x2="183.76923076923075" y2="318.17809460598204" stroke="#000"/>
<line x1="162.07692307692307" y1="318.91856188068755" x2="183.76923076923075" y2="318.91856188068755" stroke="#000"/>
<line x1="172.9230769230769" y1="318.17809460598204" x2="172.9230769230769" y2="318.91856188068755" stroke="#000"/>
<rect x="183.76923076923075" y="205.28193042847437" width="21.69230769230769" height="292.7180695715256" fill="orange" data-tooltip="1.63x baseline speed (YJIT)"/>
<line x1="183.76923076923075" y1="204.17566255386407" x2="205.46153846153842" y2="204.17566255386407" stroke="#000"/>
<line x1="183.76923076923075" y1="206.3881983030847" x2="205.46153846153842" y2="206.3881983030847" stroke="#000"/>
<line x1="194.61538461538458" y1="204.17566255386407" x2="194.61538461538458" y2="206.3881983030847" stroke="#000"/>
<line x1="194.6153846153846" y1="498.0" x2="194.6153846153846" y2="502.79999999999995" stroke="#000"/>
<text x="194.6153846153846" y="512.4" fill="#111" font-size="small" font-family="monospace" font-weight="bold" text-anchor="end" transform="rotate(-60, 194.6153846153846, 512.4)">
chunky-png
</text>
<rect x="227.15384615384616" y="318.54832824333477" width="21.69230769230769" height="179.45167175666512" fill="#7070f8" data-tooltip="1.00x baseline speed (No JIT)"/>
<line x1="227.15384615384616" y1="297.73404454205945" x2="248.84615384615384" y2="297.73404454205945" stroke="#000"/>
<line x1="227.15384615384616" y1="339.36261194461014" x2="248.84615384615384" y2="339.36261194461014" stroke="#000"/>
<line x1="238.0" y1="297.73404454205945" x2="238.0" y2="339.36261194461014" stroke="#000"/>
<rect x="248.84615384615384" y="165.79445376516585" width="21.69230769230769" height="332.20554623483406" fill="orange" data-tooltip="1.85x baseline speed (YJIT)"/>
<line x1="248.84615384615384" y1="79.15602340861659" x2="270.5384615384615" y2="79.15602340861659" stroke="#000"/>
<line x1="248.84615384615384" y1="252.43288412171512" x2="270.5384615384615" y2="252.43288412171512" stroke="#000"/>
<line x1="259.6923076923077" y1="79.15602340861659" x2="259.6923076923077" y2="252.43288412171512" stroke="#000"/>
<line x1="259.6923076923077" y1="498.0" x2="259.6923076923077" y2="502.79999999999995" stroke="#000"/>
<text x="259.6923076923077" y="512.4" fill="#111" font-size="small" font-family="monospace" font-weight="bold" text-anchor="end" transform="rotate(-60, 259.6923076923077, 512.4)">
erubi-rails
</text>
<rect x="292.23076923076917" y="318.54832824333477" width="21.69230769230769" height="179.45167175666512" fill="#7070f8" data-tooltip="1.00x baseline speed (No JIT)"/>
<line x1="292.23076923076917" y1="317.4317645993169" x2="313.92307692307685" y2="317.4317645993169" stroke="#000"/>
<line x1="292.23076923076917" y1="319.6648918873526" x2="313.92307692307685" y2="319.6648918873526" stroke="#000"/>
<line x1="303.07692307692304" y1="317.4317645993169" x2="303.07692307692304" y2="319.6648918873526" stroke="#000"/>
<rect x="313.92307692307685" y="197.74606840208062" width="21.69230769230769" height="300.25393159791935" fill="orange" data-tooltip="1.67x baseline speed (YJIT)"/>
<line x1="313.92307692307685" y1="190.89043938730984" x2="335.6153846153845" y2="190.89043938730984" stroke="#000"/>
<line x1="313.92307692307685" y1="204.60169741685138" x2="335.6153846153845" y2="204.60169741685138" stroke="#000"/>
<line x1="324.7692307692307" y1="190.89043938730984" x2="324.7692307692307" y2="204.60169741685138" stroke="#000"/>
<line x1="324.7692307692307" y1="498.0" x2="324.7692307692307" y2="502.79999999999995" stroke="#000"/>
<text x="324.7692307692307" y="512.4" fill="#111" font-size="small" font-family="monospace" font-weight="bold" text-anchor="end" transform="rotate(-60, 324.7692307692307, 512.4)">
hexapdf
</text>
<rect x="357.3076923076923" y="318.54832824333477" width="21.69230769230769" height="179.45167175666512" fill="#7070f8" data-tooltip="1.00x baseline speed (No JIT)"/>
<line x1="357.3076923076923" y1="317.83710272456995" x2="379.0" y2="317.83710272456995" stroke="#000"/>
<line x1="357.3076923076923" y1="319.25955376209964" x2="379.0" y2="319.25955376209964" stroke="#000"/>
<line x1="368.1538461538462" y1="317.83710272456995" x2="368.1538461538462" y2="319.25955376209964" stroke="#000"/>
<rect x="379.0" y="244.01556380330342" width="21.69230769230769" height="253.98443619669652" fill="orange" data-tooltip="1.42x baseline speed (YJIT)"/>
<line x1="379.0" y1="242.3047410995669" x2="400.6923076923077" y2="242.3047410995669" stroke="#000"/>
<line x1="379.0" y1="245.72638650703993" x2="400.6923076923077" y2="245.72638650703993" stroke="#000"/>
<line x1="389.84615384615387" y1="242.3047410995669" x2="389.84615384615387" y2="245.72638650703993" stroke="#000"/>
<line x1="389.84615384615387" y1="498.0" x2="389.84615384615387" y2="502.79999999999995" stroke="#000"/>
<text x="389.84615384615387" y="512.4" fill="#111" font-size="small" font-family="monospace" font-weight="bold" text-anchor="end" transform="rotate(-60, 389.84615384615387, 512.4)">
liquid-c
</text>
<rect x="422.38461538461536" y="318.54832824333477" width="21.69230769230769" height="179.45167175666512" fill="#7070f8" data-tooltip="1.00x baseline speed (No JIT)"/>
<line x1="422.38461538461536" y1="313.4914372718171" x2="444.07692307692304" y2="313.4914372718171" stroke="#000"/>
<line x1="422.38461538461536" y1="323.6052192148524" x2="444.07692307692304" y2="323.6052192148524" stroke="#000"/>
<line x1="433.23076923076917" y1="313.4914372718171" x2="433.23076923076917" y2="323.6052192148524" stroke="#000"/>
<rect x="444.07692307692304" y="230.5096193779681" width="21.69230769230769" height="267.49038062203186" fill="orange" data-tooltip="1.49x baseline speed (YJIT)"/>
<line x1="444.07692307692304" y1="216.10854337141598" x2="465.7692307692307" y2="216.10854337141598" stroke="#000"/>
<line x1="444.07692307692304" y1="244.91069538452024" x2="465.7692307692307" y2="244.91069538452024" stroke="#000"/>
<line x1="454.92307692307685" y1="216.10854337141598" x2="454.92307692307685" y2="244.91069538452024" stroke="#000"/>
<line x1="454.92307692307685" y1="498.0" x2="454.92307692307685" y2="502.79999999999995" stroke="#000"/>
<text x="454.92307692307685" y="512.4" fill="#111" font-size="small" font-family="monospace" font-weight="bold" text-anchor="end" transform="rotate(-60, 454.92307692307685, 512.4)">
liquid-compile
</text>
<rect x="487.4615384615384" y="318.54832824333477" width="21.69230769230769" height="179.45167175666512" fill="#7070f8" data-tooltip="1.00x baseline speed (No JIT)"/>
<line x1="487.4615384615384" y1="318.3550701698596" x2="509.1538461538461" y2="318.3550701698596" stroke="#000"/>
<line x1="487.4615384615384" y1="318.74158631680996" x2="509.1538461538461" y2="318.74158631680996" stroke="#000"/>
<line x1="498.3076923076922" y1="318.3550701698596" x2="498.3076923076922" y2="318.74158631680996" stroke="#000"/>
<rect x="509.1538461538461" y="100.19999999999999" width="21.69230769230769" height="397.79999999999995" fill="orange" data-tooltip="2.22x baseline speed (YJIT)"/>
<line x1="509.1538461538461" y1="99.28731259063318" x2="530.8461538461537" y2="99.28731259063318" stroke="#000"/>
<line x1="509.1538461538461" y1="101.1126874093668" x2="530.8461538461537" y2="101.1126874093668" stroke="#000"/>
<line x1="519.9999999999999" y1="99.28731259063318" x2="519.9999999999999" y2="101.1126874093668" stroke="#000"/>
<line x1="519.9999999999999" y1="498.0" x2="519.9999999999999" y2="502.79999999999995" stroke="#000"/>
<text x="519.9999999999999" y="512.4" fill="#111" font-size="small" font-family="monospace" font-weight="bold" text-anchor="end" transform="rotate(-60, 519.9999999999999, 512.4)">
liquid-render
</text>
<rect x="552.5384615384615" y="318.54832824333477" width="21.69230769230769" height="179.45167175666512" fill="#7070f8" data-tooltip="1.00x baseline speed (No JIT)"/>
<line x1="552.5384615384615" y1="314.56770611381705" x2="574.2307692307692" y2="314.56770611381705" stroke="#000"/>
<line x1="552.5384615384615" y1="322.52895037285253" x2="574.2307692307692" y2="322.52895037285253" stroke="#000"/>
<line x1="563.3846153846154" y1="314.56770611381705" x2="563.3846153846154" y2="322.52895037285253" stroke="#000"/>
<rect x="574.2307692307692" y="233.1833613884048" width="21.69230769230769" height="264.8166386115951" fill="orange" data-tooltip="1.48x baseline speed (YJIT)"/>
<line x1="574.2307692307692" y1="219.69544894350162" x2="595.9230769230769" y2="219.69544894350162" stroke="#000"/>
<line x1="574.2307692307692" y1="246.67127383330794" x2="595.9230769230769" y2="246.67127383330794" stroke="#000"/>
<line x1="585.0769230769231" y1="219.69544894350162" x2="585.0769230769231" y2="246.67127383330794" stroke="#000"/>
<line x1="585.0769230769231" y1="498.0" x2="585.0769230769231" y2="502.79999999999995" stroke="#000"/>
<text x="585.0769230769231" y="512.4" fill="#111" font-size="small" font-family="monospace" font-weight="bold" text-anchor="end" transform="rotate(-60, 585.0769230769231, 512.4)">
lobsters
</text>
<rect x="617.6153846153845" y="318.54832824333477" width="21.69230769230769" height="179.45167175666512" fill="#7070f8" data-tooltip="1.00x baseline speed (No JIT)"/>
<line x1="617.6153846153845" y1="318.37982046144333" x2="639.3076923076923" y2="318.37982046144333" stroke="#000"/>
<line x1="617.6153846153845" y1="318.7168360252262" x2="639.3076923076923" y2="318.7168360252262" stroke="#000"/>
<line x1="628.4615384615385" y1="318.37982046144333" x2="628.4615384615385" y2="318.7168360252262" stroke="#000"/>
<rect x="639.3076923076923" y="256.0207261711945" width="21.69230769230769" height="241.97927382880545" fill="orange" data-tooltip="1.35x baseline speed (YJIT)"/>
<line x1="639.3076923076923" y1="255.56725617452403" x2="660.9999999999999" y2="255.56725617452403" stroke="#000"/>
<line x1="639.3076923076923" y1="256.47419616786493" x2="660.9999999999999" y2="256.47419616786493" stroke="#000"/>
<line x1="650.1538461538461" y1="255.56725617452403" x2="650.1538461538461" y2="256.47419616786493" stroke="#000"/>
<line x1="650.1538461538461" y1="498.0" x2="650.1538461538461" y2="502.79999999999995" stroke="#000"/>
<text x="650.1538461538461" y="512.4" fill="#111" font-size="small" font-family="monospace" font-weight="bold" text-anchor="end" transform="rotate(-60, 650.1538461538461, 512.4)">
mail
</text>
<rect x="682.6923076923076" y="318.54832824333477" width="21.69230769230769" height="179.45167175666512" fill="#7070f8" data-tooltip="1.00x baseline speed (No JIT)"/>
<line x1="682.6923076923076" y1="318.45807679987206" x2="704.3846153846152" y2="318.45807679987206" stroke="#000"/>
<line x1="682.6923076923076" y1="318.63857968679747" x2="704.3846153846152" y2="318.63857968679747" stroke="#000"/>
<line x1="693.5384615384614" y1="318.45807679987206" x2="693.5384615384614" y2="318.63857968679747" stroke="#000"/>
<rect x="704.3846153846152" y="238.84904789795593" width="21.69230769230769" height="259.15095210204396" fill="orange" data-tooltip="1.44x baseline speed (YJIT)"/>
<line x1="704.3846153846152" y1="238.61078387442373" x2="726.076923076923" y2="238.61078387442373" stroke="#000"/>
<line x1="704.3846153846152" y1="239.08731192148812" x2="726.076923076923" y2="239.08731192148812" stroke="#000"/>
<line x1="715.2307692307692" y1="238.61078387442373" x2="715.2307692307692" y2="239.08731192148812" stroke="#000"/>
<line x1="715.2307692307692" y1="498.0" x2="715.2307692307692" y2="502.79999999999995" stroke="#000"/>
<text x="715.2307692307692" y="512.4" fill="#111" font-size="small" font-family="monospace" font-weight="bold" text-anchor="end" transform="rotate(-60, 715.2307692307692, 512.4)">
psych-load
</text>
<rect x="747.7692307692307" y="318.54832824333477" width="21.69230769230769" height="179.45167175666512" fill="#7070f8" data-tooltip="1.00x baseline speed (No JIT)"/>
<line x1="747.7692307692307" y1="317.75400526773285" x2="769.4615384615385" y2="317.75400526773285" stroke="#000"/>
<line x1="747.7692307692307" y1="319.34265121893674" x2="769.4615384615385" y2="319.34265121893674" stroke="#000"/>
<line x1="758.6153846153845" y1="317.75400526773285" x2="758.6153846153845" y2="319.34265121893674" stroke="#000"/>
<rect x="769.4615384615385" y="207.27069894874302" width="21.69230769230769" height="290.7293010512569" fill="orange" data-tooltip="1.62x baseline speed (YJIT)"/>
<line x1="769.4615384615385" y1="204.22699243962518" x2="791.1538461538461" y2="204.22699243962518" stroke="#000"/>
<line x1="769.4615384615385" y1="210.31440545786083" x2="791.1538461538461" y2="210.31440545786083" stroke="#000"/>
<line x1="780.3076923076923" y1="204.22699243962518" x2="780.3076923076923" y2="210.31440545786083" stroke="#000"/>
<line x1="780.3076923076923" y1="498.0" x2="780.3076923076923" y2="502.79999999999995" stroke="#000"/>
<text x="780.3076923076923" y="512.4" fill="#111" font-size="small" font-family="monospace" font-weight="bold" text-anchor="end" transform="rotate(-60, 780.3076923076923, 512.4)">
railsbench
</text>
<rect x="812.8461538461538" y="318.54832824333477" width="21.69230769230769" height="179.45167175666512" fill="#7070f8" data-tooltip="1.00x baseline speed (No JIT)"/>
<line x1="812.8461538461538" y1="313.20900275076576" x2="834.5384615384614" y2="313.20900275076576" stroke="#000"/>
<line x1="812.8461538461538" y1="323.8876537359038" x2="834.5384615384614" y2="323.8876537359038" stroke="#000"/>
<line x1="823.6923076923076" y1="313.20900275076576" x2="823.6923076923076" y2="323.8876537359038" stroke="#000"/>
<rect x="834.5384615384614" y="220.00035533687523" width="21.69230769230769" height="277.9996446631247" fill="orange" data-tooltip="1.55x baseline speed (YJIT)"/>
<line x1="834.5384615384614" y1="196.73343382182287" x2="856.2307692307692" y2="196.73343382182287" stroke="#000"/>
<line x1="834.5384615384614" y1="243.26727685192762" x2="856.2307692307692" y2="243.26727685192762" stroke="#000"/>
<line x1="845.3846153846152" y1="196.73343382182287" x2="845.3846153846152" y2="243.26727685192762" stroke="#000"/>
<line x1="845.3846153846152" y1="498.0" x2="845.3846153846152" y2="502.79999999999995" stroke="#000"/>
<text x="845.3846153846152" y="512.4" fill="#111" font-size="small" font-family="monospace" font-weight="bold" text-anchor="end" transform="rotate(-60, 845.3846153846152, 512.4)">
ruby-lsp
</text>
<rect x="877.9230769230768" y="318.54832824333477" width="21.69230769230769" height="179.45167175666512" fill="#7070f8" data-tooltip="1.00x baseline speed (No JIT)"/>
<line x1="877.9230769230768" y1="317.1650120577017" x2="899.6153846153845" y2="317.1650120577017" stroke="#000"/>
<line x1="877.9230769230768" y1="319.93164442896784" x2="899.6153846153845" y2="319.93164442896784" stroke="#000"/>
<line x1="888.7692307692306" y1="317.1650120577017" x2="888.7692307692306" y2="319.93164442896784" stroke="#000"/>
<rect x="899.6153846153845" y="253.09179659510153" width="21.69230769230769" height="244.90820340489842" fill="orange" data-tooltip="1.36x baseline speed (YJIT)"/>
<line x1="899.6153846153845" y1="249.59143341134993" x2="921.3076923076922" y2="249.59143341134993" stroke="#000"/>
<line x1="899.6153846153845" y1="256.5921597788531" x2="921.3076923076922" y2="256.5921597788531" stroke="#000"/>
<line x1="910.4615384615383" y1="249.59143341134993" x2="910.4615384615383" y2="256.5921597788531" stroke="#000"/>
<line x1="910.4615384615383" y1="498.0" x2="910.4615384615383" y2="502.79999999999995" stroke="#000"/>
<text x="910.4615384615383" y="512.4" fill="#111" font-size="small" font-family="monospace" font-weight="bold" text-anchor="end" transform="rotate(-60, 910.4615384615383, 512.4)">
sequel
</text>
</svg>