<svg viewBox="0 0 1000 600" xmlns="http://www.w3.org/2000/svg" xmlns:xlink="http://www.w3.org/1999/xlink" width="100%" height="100%">

<rect x="50.0" y="30.0" width="940.0" height="467.99999999999994" stroke="#000" fill="#EEE"/>
<line x1="42.0" y1="497.9999999999999" x2="50.0" y2="497.9999999999999" stroke="#000"/>
<text x="26.000000000000004" y="497.9999999999999" text-anchor="end" font-weight="bold" font-size="small" fill="#111">
0.0
</text>
<line x1="42.0" y1="416.44474261325024" x2="50.0" y2="416.44474261325024" stroke="#000"/>
<text x="26.000000000000004" y="416.44474261325024" text-anchor="end" font-weight="bold" font-size="small" fill="#111">
0.5
</text>
<line x1="42.0" y1="334.8894852265006" x2="50.0" y2="334.8894852265006" stroke="#000"/>
<text x="26.000000000000004" y="334.8894852265006" text-anchor="end" font-weight="bold" font-size="small" fill="#111">
1.0
</text>
<line x1="42.0" y1="253.3342278397509" x2="50.0" y2="253.3342278397509" stroke="#000"/>
<text x="26.000000000000004" y="253.3342278397509" text-anchor="end" font-weight="bold" font-size="small" fill="#111">
1.5
</text>
<line x1="42.0" y1="171.77897045300122" x2="50.0" y2="171.77897045300122" stroke="#000"/>
<text x="26.000000000000004" y="171.77897045300122" text-anchor="end" font-weight="bold" font-size="small" fill="#111">
2.0
</text>
<rect x="268.5" y="36.00000000000001" width="80.0" height="18.0" fill="#7070f8" stroke="#888"/>
<text x="308.5" y="52.50000000000001" font-size="small" text-anchor="middle" font-weight="bold" fill="#EEE">
No JIT
</text>
<rect x="691.4999999999999" y="36.00000000000001" width="80.0" height="18.0" fill="orange" stroke="#888"/>
<text x="731.4999999999999" y="52.50000000000001" font-size="small" text-anchor="middle" font-weight="bold" fill="#EEE">
YJIT
</text>
<rect x="97.0" y="334.8894852265006" width="21.69230769230769" height="163.11051477349935" fill="#7070f8" data-tooltip="1.00x baseline speed (No JIT)"/>
<line x1="97.0" y1="334.21593076605336" x2="118.6923076923077" y2="334.21593076605336" stroke="#000"/>
<line x1="97.0" y1="335.56303968694783" x2="118.6923076923077" y2="335.56303968694783" stroke="#000"/>
<line x1="107.84615384615384" y1="334.21593076605336" x2="107.84615384615384" y2="335.56303968694783" stroke="#000"/>
<rect x="118.6923076923077" y="173.67583760210957" width="21.69230769230769" height="324.3241623978904" fill="orange" data-tooltip="1.99x baseline speed (YJIT)"/>
<line x1="118.6923076923077" y1="171.22154525342825" x2="140.3846153846154" y2="171.22154525342825" stroke="#000"/>
<line x1="118.6923076923077" y1="176.1301299507909" x2="140.3846153846154" y2="176.1301299507909" stroke="#000"/>
<line x1="129.53846153846155" y1="171.22154525342825" x2="129.53846153846155" y2="176.1301299507909" stroke="#000"/>
<line x1="129.53846153846155" y1="498.0" x2="129.53846153846155" y2="502.79999999999995" stroke="#000"/>
<text x="129.53846153846155" y="512.4" fill="#111" font-size="small" font-family="monospace" font-weight="bold" text-anchor="end" transform="rotate(-60, 129.53846153846155, 512.4)">
activerecord
</text>
<rect x="162.07692307692307" y="334.8894852265006" width="21.69230769230769" height="163.11051477349935" fill="#7070f8" data-tooltip="1.00x baseline speed (No JIT)"/>
<line x1="162.07692307692307" y1="334.7022195047726" x2="183.76923076923075" y2="334.7022195047726" stroke="#000"/>
<line x1="162.07692307692307" y1="335.07675094822855" x2="183.76923076923075" y2="335.07675094822855" stroke="#000"/>
<line x1="172.9230769230769" y1="334.7022195047726" x2="172.9230769230769" y2="335.07675094822855" stroke="#000"/>
<rect x="183.76923076923075" y="225.1734035105959" width="21.69230769230769" height="272.82659648940404" fill="orange" data-tooltip="1.67x baseline speed (YJIT)"/>
<line x1="183.76923076923075" y1="224.3189316701163" x2="205.46153846153842" y2="224.3189316701163" stroke="#000"/>
<line x1="183.76923076923075" y1="226.0278753510755" x2="205.46153846153842" y2="226.0278753510755" stroke="#000"/>
<line x1="194.61538461538458" y1="224.3189316701163" x2="194.61538461538458" y2="226.0278753510755" stroke="#000"/>
<line x1="194.6153846153846" y1="498.0" x2="194.6153846153846" y2="502.79999999999995" stroke="#000"/>
<text x="194.6153846153846" y="512.4" fill="#111" font-size="small" font-family="monospace" font-weight="bold" text-anchor="end" transform="rotate(-60, 194.6153846153846, 512.4)">
chunky-png
</text>
<rect x="227.15384615384616" y="334.8894852265006" width="21.69230769230769" height="163.11051477349935" fill="#7070f8" data-tooltip="1.00x baseline speed (No JIT)"/>
<line x1="227.15384615384616" y1="334.751333099659" x2="248.84615384615384" y2="334.751333099659" stroke="#000"/>
<line x1="227.15384615384616" y1="335.02763735334213" x2="248.84615384615384" y2="335.02763735334213" stroke="#000"/>
<line x1="238.0" y1="334.751333099659" x2="238.0" y2="335.02763735334213" stroke="#000"/>
<rect x="248.84615384615384" y="194.02509594903117" width="21.69230769230769" height="303.97490405096875" fill="orange" data-tooltip="1.86x baseline speed (YJIT)"/>
<line x1="248.84615384615384" y1="193.57084070882985" x2="270.5384615384615" y2="193.57084070882985" stroke="#000"/>
<line x1="248.84615384615384" y1="194.4793511892325" x2="270.5384615384615" y2="194.4793511892325" stroke="#000"/>
<line x1="259.6923076923077" y1="193.57084070882985" x2="259.6923076923077" y2="194.4793511892325" stroke="#000"/>
<line x1="259.6923076923077" y1="498.0" x2="259.6923076923077" y2="502.79999999999995" stroke="#000"/>
<text x="259.6923076923077" y="512.4" fill="#111" font-size="small" font-family="monospace" font-weight="bold" text-anchor="end" transform="rotate(-60, 259.6923076923077, 512.4)">
erubi-rails
</text>
<rect x="292.23076923076917" y="334.8894852265006" width="21.69230769230769" height="163.11051477349935" fill="#7070f8" data-tooltip="1.00x baseline speed (No JIT)"/>
<line x1="292.23076923076917" y1="333.7736902432039" x2="313.92307692307685" y2="333.7736902432039" stroke="#000"/>
<line x1="292.23076923076917" y1="336.0052802097973" x2="313.92307692307685" y2="336.0052802097973" stroke="#000"/>
<line x1="303.07692307692304" y1="333.7736902432039" x2="303.07692307692304" y2="336.0052802097973" stroke="#000"/>
<rect x="313.92307692307685" y="217.1535135763532" width="21.69230769230769" height="280.84648642364675" fill="orange" data-tooltip="1.72x baseline speed (YJIT)"/>
<line x1="313.92307692307685" y1="212.42709196057297" x2="335.6153846153845" y2="212.42709196057297" stroke="#000"/>
<line x1="313.92307692307685" y1="221.87993519213344" x2="335.6153846153845" y2="221.87993519213344" stroke="#000"/>
<line x1="324.7692307692307" y1="212.42709196057297" x2="324.7692307692307" y2="221.87993519213344" stroke="#000"/>
<line x1="324.7692307692307" y1="498.0" x2="324.7692307692307" y2="502.79999999999995" stroke="#000"/>
<text x="324.7692307692307" y="512.4" fill="#111" font-size="small" font-family="monospace" font-weight="bold" text-anchor="end" transform="rotate(-60, 324.7692307692307, 512.4)">
hexapdf
</text>
<rect x="357.3076923076923" y="334.8894852265006" width="21.69230769230769" height="163.11051477349935" fill="#7070f8" data-tooltip="1.00x baseline speed (No JIT)"/>
<line x1="357.3076923076923" y1="333.91050949065095" x2="379.0" y2="333.91050949065095" stroke="#000"/>
<line x1="357.3076923076923" y1="335.86846096235024" x2="379.0" y2="335.86846096235024" stroke="#000"/>
<line x1="368.1538461538462" y1="333.91050949065095" x2="368.1538461538462" y2="335.86846096235024" stroke="#000"/>
<rect x="379.0" y="266.5909732238894" width="21.69230769230769" height="231.40902677611055" fill="orange" data-tooltip="1.42x baseline speed (YJIT)"/>
<line x1="379.0" y1="264.20704745045833" x2="400.6923076923077" y2="264.20704745045833" stroke="#000"/>
<line x1="379.0" y1="268.97489899732045" x2="400.6923076923077" y2="268.97489899732045" stroke="#000"/>
<line x1="389.84615384615387" y1="264.20704745045833" x2="389.84615384615387" y2="268.97489899732045" stroke="#000"/>
<line x1="389.84615384615387" y1="498.0" x2="389.84615384615387" y2="502.79999999999995" stroke="#000"/>
<text x="389.84615384615387" y="512.4" fill="#111" font-size="small" font-family="monospace" font-weight="bold" text-anchor="end" transform="rotate(-60, 389.84615384615387, 512.4)">
liquid-c
</text>
<rect x="422.38461538461536" y="334.8894852265006" width="21.69230769230769" height="163.11051477349935" fill="#7070f8" data-tooltip="1.00x baseline speed (No JIT)"/>
<line x1="422.38461538461536" y1="329.89710462846926" x2="444.07692307692304" y2="329.89710462846926" stroke="#000"/>
<line x1="422.38461538461536" y1="339.8818658245319" x2="444.07692307692304" y2="339.8818658245319" stroke="#000"/>
<line x1="433.23076923076917" y1="329.89710462846926" x2="433.23076923076917" y2="339.8818658245319" stroke="#000"/>
<rect x="444.07692307692304" y="270.2023969265882" width="21.69230769230769" height="227.79760307341175" fill="orange" data-tooltip="1.40x baseline speed (YJIT)"/>
<line x1="444.07692307692304" y1="262.3613967735516" x2="465.7692307692307" y2="262.3613967735516" stroke="#000"/>
<line x1="444.07692307692304" y1="278.0433970796248" x2="465.7692307692307" y2="278.0433970796248" stroke="#000"/>
<line x1="454.92307692307685" y1="262.3613967735516" x2="454.92307692307685" y2="278.0433970796248" stroke="#000"/>
<line x1="454.92307692307685" y1="498.0" x2="454.92307692307685" y2="502.79999999999995" stroke="#000"/>
<text x="454.92307692307685" y="512.4" fill="#111" font-size="small" font-family="monospace" font-weight="bold" text-anchor="end" transform="rotate(-60, 454.92307692307685, 512.4)">
liquid-compile
</text>
<rect x="487.4615384615384" y="334.8894852265006" width="21.69230769230769" height="163.11051477349935" fill="#7070f8" data-tooltip="1.00x baseline speed (No JIT)"/>
<line x1="487.4615384615384" y1="334.4516234203699" x2="509.1538461538461" y2="334.4516234203699" stroke="#000"/>
<line x1="487.4615384615384" y1="335.3273470326312" x2="509.1538461538461" y2="335.3273470326312" stroke="#000"/>
<line x1="498.3076923076922" y1="334.4516234203699" x2="498.3076923076922" y2="335.3273470326312" stroke="#000"/>
<rect x="509.1538461538461" y="100.19999999999999" width="21.69230769230769" height="397.79999999999995" fill="orange" data-tooltip="2.44x baseline speed (YJIT)"/>
<line x1="509.1538461538461" y1="98.1566222565276" x2="530.8461538461537" y2="98.1566222565276" stroke="#000"/>
<line x1="509.1538461538461" y1="102.24337774347238" x2="530.8461538461537" y2="102.24337774347238" stroke="#000"/>
<line x1="519.9999999999999" y1="98.1566222565276" x2="519.9999999999999" y2="102.24337774347238" stroke="#000"/>
<line x1="519.9999999999999" y1="498.0" x2="519.9999999999999" y2="502.79999999999995" stroke="#000"/>
<text x="519.9999999999999" y="512.4" fill="#111" font-size="small" font-family="monospace" font-weight="bold" text-anchor="end" transform="rotate(-60, 519.9999999999999, 512.4)">
liquid-render
</text>
<rect x="552.5384615384615" y="334.8894852265006" width="21.69230769230769" height="163.11051477349935" fill="#7070f8" data-tooltip="1.00x baseline speed (No JIT)"/>
<line x1="552.5384615384615" y1="333.65770165920117" x2="574.2307692307692" y2="333.65770165920117" stroke="#000"/>
<line x1="552.5384615384615" y1="336.1212687938" x2="574.2307692307692" y2="336.1212687938" stroke="#000"/>
<line x1="563.3846153846154" y1="333.65770165920117" x2="563.3846153846154" y2="336.1212687938" stroke="#000"/>
<rect x="574.2307692307692" y="252.78148657828308" width="21.69230769230769" height="245.21851342171686" fill="orange" data-tooltip="1.50x baseline speed (YJIT)"/>
<line x1="574.2307692307692" y1="248.87856147116156" x2="595.9230769230769" y2="248.87856147116156" stroke="#000"/>
<line x1="574.2307692307692" y1="256.6844116854046" x2="595.9230769230769" y2="256.6844116854046" stroke="#000"/>
<line x1="585.0769230769231" y1="248.87856147116156" x2="585.0769230769231" y2="256.6844116854046" stroke="#000"/>
<line x1="585.0769230769231" y1="498.0" x2="585.0769230769231" y2="502.79999999999995" stroke="#000"/>
<text x="585.0769230769231" y="512.4" fill="#111" font-size="small" font-family="monospace" font-weight="bold" text-anchor="end" transform="rotate(-60, 585.0769230769231, 512.4)">
lobsters
</text>
<rect x="617.6153846153845" y="334.8894852265006" width="21.69230769230769" height="163.11051477349935" fill="#7070f8" data-tooltip="1.00x baseline speed (No JIT)"/>
<line x1="617.6153846153845" y1="334.4383074072554" x2="639.3076923076923" y2="334.4383074072554" stroke="#000"/>
<line x1="617.6153846153845" y1="335.34066304574577" x2="639.3076923076923" y2="335.34066304574577" stroke="#000"/>
<line x1="628.4615384615385" y1="334.4383074072554" x2="628.4615384615385" y2="335.34066304574577" stroke="#000"/>
<rect x="639.3076923076923" y="262.73481128005164" width="21.69230769230769" height="235.26518871994827" fill="orange" data-tooltip="1.44x baseline speed (YJIT)"/>
<line x1="639.3076923076923" y1="261.54909874877546" x2="660.9999999999999" y2="261.54909874877546" stroke="#000"/>
<line x1="639.3076923076923" y1="263.9205238113279" x2="660.9999999999999" y2="263.9205238113279" stroke="#000"/>
<line x1="650.1538461538461" y1="261.54909874877546" x2="650.1538461538461" y2="263.9205238113279" stroke="#000"/>
<line x1="650.1538461538461" y1="498.0" x2="650.1538461538461" y2="502.79999999999995" stroke="#000"/>
<text x="650.1538461538461" y="512.4" fill="#111" font-size="small" font-family="monospace" font-weight="bold" text-anchor="end" transform="rotate(-60, 650.1538461538461, 512.4)">
mail
</text>
<rect x="682.6923076923076" y="334.8894852265006" width="21.69230769230769" height="163.11051477349935" fill="#7070f8" data-tooltip="1.00x baseline speed (No JIT)"/>
<line x1="682.6923076923076" y1="334.8327997682886" x2="704.3846153846152" y2="334.8327997682886" stroke="#000"/>
<line x1="682.6923076923076" y1="334.94617068471257" x2="704.3846153846152" y2="334.94617068471257" stroke="#000"/>
<line x1="693.5384615384614" y1="334.8327997682886" x2="693.5384615384614" y2="334.94617068471257" stroke="#000"/>
<rect x="704.3846153846152" y="246.3444382221135" width="21.69230769230769" height="251.65556177788645" fill="orange" data-tooltip="1.54x baseline speed (YJIT)"/>
<line x1="704.3846153846152" y1="246.14884017876167" x2="726.076923076923" y2="246.14884017876167" stroke="#000"/>
<line x1="704.3846153846152" y1="246.54003626546532" x2="726.076923076923" y2="246.54003626546532" stroke="#000"/>
<line x1="715.2307692307692" y1="246.14884017876167" x2="715.2307692307692" y2="246.54003626546532" stroke="#000"/>
<line x1="715.2307692307692" y1="498.0" x2="715.2307692307692" y2="502.79999999999995" stroke="#000"/>
<text x="715.2307692307692" y="512.4" fill="#111" font-size="small" font-family="monospace" font-weight="bold" text-anchor="end" transform="rotate(-60, 715.2307692307692, 512.4)">
psych-load
</text>
<rect x="747.7692307692307" y="334.8894852265006" width="21.69230769230769" height="163.11051477349935" fill="#7070f8" data-tooltip="1.00x baseline speed (No JIT)"/>
<line x1="747.7692307692307" y1="334.76525616424175" x2="769.4615384615385" y2="334.76525616424175" stroke="#000"/>
<line x1="747.7692307692307" y1="335.01371428875945" x2="769.4615384615385" y2="335.01371428875945" stroke="#000"/>
<line x1="758.6153846153845" y1="334.76525616424175" x2="758.6153846153845" y2="335.01371428875945" stroke="#000"/>
<rect x="769.4615384615385" y="224.64360822265846" width="21.69230769230769" height="273.35639177734146" fill="orange" data-tooltip="1.68x baseline speed (YJIT)"/>
<line x1="769.4615384615385" y1="223.82605478873762" x2="791.1538461538461" y2="223.82605478873762" stroke="#000"/>
<line x1="769.4615384615385" y1="225.46116165657932" x2="791.1538461538461" y2="225.46116165657932" stroke="#000"/>
<line x1="780.3076923076923" y1="223.82605478873762" x2="780.3076923076923" y2="225.46116165657932" stroke="#000"/>
<line x1="780.3076923076923" y1="498.0" x2="780.3076923076923" y2="502.79999999999995" stroke="#000"/>
<text x="780.3076923076923" y="512.4" fill="#111" font-size="small" font-family="monospace" font-weight="bold" text-anchor="end" transform="rotate(-60, 780.3076923076923, 512.4)">
railsbench
</text>
<rect x="812.8461538461538" y="334.8894852265006" width="21.69230769230769" height="163.11051477349935" fill="#7070f8" data-tooltip="1.00x baseline speed (No JIT)"/>
<line x1="812.8461538461538" y1="332.928773411724" x2="834.5384615384614" y2="332.928773411724" stroke="#000"/>
<line x1="812.8461538461538" y1="336.85019704127717" x2="834.5384615384614" y2="336.85019704127717" stroke="#000"/>
<line x1="823.6923076923076" y1="332.928773411724" x2="823.6923076923076" y2="336.85019704127717" stroke="#000"/>
<rect x="834.5384615384614" y="241.8090174496348" width="21.69230769230769" height="256.1909825503651" fill="orange" data-tooltip="1.57x baseline speed (YJIT)"/>
<line x1="834.5384615384614" y1="235.9934310583389" x2="856.2307692307692" y2="235.9934310583389" stroke="#000"/>
<line x1="834.5384615384614" y1="247.62460384093072" x2="856.2307692307692" y2="247.62460384093072" stroke="#000"/>
<line x1="845.3846153846152" y1="235.9934310583389" x2="845.3846153846152" y2="247.62460384093072" stroke="#000"/>
<line x1="845.3846153846152" y1="498.0" x2="845.3846153846152" y2="502.79999999999995" stroke="#000"/>
<text x="845.3846153846152" y="512.4" fill="#111" font-size="small" font-family="monospace" font-weight="bold" text-anchor="end" transform="rotate(-60, 845.3846153846152, 512.4)">
ruby-lsp
</text>
<rect x="877.9230769230768" y="334.8894852265006" width="21.69230769230769" height="163.11051477349935" fill="#7070f8" data-tooltip="1.00x baseline speed (No JIT)"/>
<line x1="877.9230769230768" y1="334.254058544794" x2="899.6153846153845" y2="334.254058544794" stroke="#000"/>
<line x1="877.9230769230768" y1="335.5249119082072" x2="899.6153846153845" y2="335.5249119082072" stroke="#000"/>
<line x1="888.7692307692306" y1="334.254058544794" x2="888.7692307692306" y2="335.5249119082072" stroke="#000"/>
<rect x="899.6153846153845" y="278.0936537886291" width="21.69230769230769" height="219.90634621137085" fill="orange" data-tooltip="1.35x baseline speed (YJIT)"/>
<line x1="899.6153846153845" y1="276.7020777923427" x2="921.3076923076922" y2="276.7020777923427" stroke="#000"/>
<line x1="899.6153846153845" y1="279.4852297849155" x2="921.3076923076922" y2="279.4852297849155" stroke="#000"/>
<line x1="910.4615384615383" y1="276.7020777923427" x2="910.4615384615383" y2="279.4852297849155" stroke="#000"/>
<line x1="910.4615384615383" y1="498.0" x2="910.4615384615383" y2="502.79999999999995" stroke="#000"/>
<text x="910.4615384615383" y="512.4" fill="#111" font-size="small" font-family="monospace" font-weight="bold" text-anchor="end" transform="rotate(-60, 910.4615384615383, 512.4)">
sequel
</text>
</svg>