<svg viewBox="0 0 1000 600" xmlns="http://www.w3.org/2000/svg" xmlns:xlink="http://www.w3.org/1999/xlink" width="100%" height="100%">

<rect x="50.0" y="30.0" width="940.0" height="467.99999999999994" stroke="#000" fill="#fff"/>
<line x1="42.0" y1="497.9999999999999" x2="50.0" y2="497.9999999999999" stroke="#000"/>
<text x="26.000000000000004" y="497.9999999999999" text-anchor="end" font-weight="bold" font-size="small" fill="#111">
0.0
</text>
<line x1="42.0" y1="452.31218314969976" x2="50.0" y2="452.31218314969976" stroke="#000"/>
<text x="26.000000000000004" y="452.31218314969976" text-anchor="end" font-weight="bold" font-size="small" fill="#111">
0.2
</text>
<line x1="42.0" y1="406.62436629939964" x2="50.0" y2="406.62436629939964" stroke="#000"/>
<text x="26.000000000000004" y="406.62436629939964" text-anchor="end" font-weight="bold" font-size="small" fill="#111">
0.4
</text>
<line x1="42.0" y1="360.93654944909935" x2="50.0" y2="360.93654944909935" stroke="#000"/>
<text x="26.000000000000004" y="360.93654944909935" text-anchor="end" font-weight="bold" font-size="small" fill="#111">
0.6
</text>
<line x1="42.0" y1="315.2487325987992" x2="50.0" y2="315.2487325987992" stroke="#000"/>
<text x="26.000000000000004" y="315.2487325987992" text-anchor="end" font-weight="bold" font-size="small" fill="#111">
0.8
</text>
<line x1="42.0" y1="269.56091574849904" x2="50.0" y2="269.56091574849904" stroke="#000"/>
<text x="26.000000000000004" y="269.56091574849904" text-anchor="end" font-weight="bold" font-size="small" fill="#111">
1.0
</text>
<line x1="42.0" y1="223.87309889819886" x2="50.0" y2="223.87309889819886" stroke="#000"/>
<text x="26.000000000000004" y="223.87309889819886" text-anchor="end" font-weight="bold" font-size="small" fill="#111">
1.2
</text>
<line x1="42.0" y1="178.1852820478987" x2="50.0" y2="178.1852820478987" stroke="#000"/>
<text x="26.000000000000004" y="178.1852820478987" text-anchor="end" font-weight="bold" font-size="small" fill="#111">
1.4
</text>
<line x1="42.0" y1="132.4974651975985" x2="50.0" y2="132.4974651975985" stroke="#000"/>
<text x="26.000000000000004" y="132.4974651975985" text-anchor="end" font-weight="bold" font-size="small" fill="#111">
1.6
</text>
<line x1="178.0" y1="54.60000000000001" x2="298.0" y2="54.60000000000001" stroke="#648FFF" stroke-width="2"/>
<text x="238.0" y="49.500000000000014" font-size="small" text-anchor="middle" font-weight="bold" fill="#000">
CRuby 3.2.0dev
</text>
<rect x="459.9999999999999" y="35.400000000000006" width="120.0" height="19.2" fill="#785EF0" stroke="none"/>
<text x="519.9999999999999" y="49.500000000000014" font-size="small" text-anchor="middle" font-weight="bold" fill="#fff" style="text-shadow: 0 0 1px #000;">
MJIT
</text>
<rect x="742.0" y="35.400000000000006" width="120.0" height="19.2" fill="#FFB000" stroke="none"/>
<text x="801.9999999999999" y="49.500000000000014" font-size="small" text-anchor="middle" font-weight="bold" fill="#fff" style="text-shadow: 0 0 1px #000;">
YJIT 3.2.0dev
</text>
<rect x="80.3225806451613" y="265.67530991567565" width="30.32258064516129" height="232.32469008432426" fill="#785EF0" data-tooltip="1.02x baseline (MJIT)"/>
<rect x="110.64516129032258" y="254.3008149786619" width="30.32258064516129" height="243.69918502133805" fill="#FFB000" data-tooltip="1.07x baseline (YJIT 3.2.0dev)"/>
<line x1="110.64516129032258" y1="498.0" x2="110.64516129032258" y2="502.79999999999995" stroke="#000"/>
<text x="110.64516129032258" y="512.4" fill="#111" font-size="small" text-anchor="end" transform="rotate(-60, 110.64516129032258, 512.4)">
binarytrees
</text>
<rect x="171.29032258064512" y="249.9944607841435" width="30.32258064516129" height="248.00553921585643" fill="#785EF0" data-tooltip="1.09x baseline (MJIT)"/>
<rect x="201.61290322580643" y="244.63150570836558" width="30.32258064516129" height="253.36849429163436" fill="#FFB000" data-tooltip="1.11x baseline (YJIT 3.2.0dev)"/>
<line x1="201.61290322580643" y1="498.0" x2="201.61290322580643" y2="502.79999999999995" stroke="#000"/>
<text x="201.61290322580643" y="512.4" fill="#111" font-size="small" text-anchor="end" transform="rotate(-60, 201.61290322580643, 512.4)">
chunky_png
</text>
<rect x="262.258064516129" y="235.11758595421182" width="30.32258064516129" height="262.8824140457881" fill="#785EF0" data-tooltip="1.15x baseline (MJIT)"/>
<rect x="292.58064516129036" y="100.19999999999999" width="30.32258064516129" height="397.79999999999995" fill="#FFB000" data-tooltip="1.74x baseline (YJIT 3.2.0dev)"/>
<line x1="292.58064516129036" y1="498.0" x2="292.58064516129036" y2="502.79999999999995" stroke="#000"/>
<text x="292.58064516129036" y="512.4" fill="#111" font-size="small" text-anchor="end" transform="rotate(-60, 292.58064516129036, 512.4)">
erubi
</text>
<rect x="353.2258064516129" y="136.32665435112486" width="30.32258064516129" height="361.67334564887506" fill="#785EF0" data-tooltip="1.58x baseline (MJIT)"/>
<rect x="383.54838709677426" y="225.66010380756617" width="30.32258064516129" height="272.3398961924338" fill="#FFB000" data-tooltip="1.19x baseline (YJIT 3.2.0dev)"/>
<line x1="383.54838709677426" y1="498.0" x2="383.54838709677426" y2="502.79999999999995" stroke="#000"/>
<text x="383.54838709677426" y="512.4" fill="#111" font-size="small" text-anchor="end" transform="rotate(-60, 383.54838709677426, 512.4)">
erubi_rails
</text>
<rect x="444.1935483870968" y="268.0296944045426" width="30.32258064516129" height="229.97030559545732" fill="#785EF0" data-tooltip="1.01x baseline (MJIT)"/>
<rect x="474.51612903225816" y="252.3148957740664" width="30.32258064516129" height="245.68510422593354" fill="#FFB000" data-tooltip="1.08x baseline (YJIT 3.2.0dev)"/>
<line x1="474.5161290322581" y1="498.0" x2="474.5161290322581" y2="502.79999999999995" stroke="#000"/>
<text x="474.5161290322581" y="512.4" fill="#111" font-size="small" text-anchor="end" transform="rotate(-60, 474.5161290322581, 512.4)">
fannkuchredux
</text>
<rect x="535.1612903225806" y="245.38821562040087" width="30.32258064516129" height="252.61178437959907" fill="#785EF0" data-tooltip="1.11x baseline (MJIT)"/>
<rect x="565.4838709677418" y="240.730030323579" width="30.32258064516129" height="257.26996967642094" fill="#FFB000" data-tooltip="1.13x baseline (YJIT 3.2.0dev)"/>
<line x1="565.4838709677418" y1="498.0" x2="565.4838709677418" y2="502.79999999999995" stroke="#000"/>
<text x="565.4838709677418" y="512.4" fill="#111" font-size="small" text-anchor="end" transform="rotate(-60, 565.4838709677418, 512.4)">
lee
</text>
<rect x="626.1290322580644" y="218.42162514003613" width="30.32258064516129" height="279.5783748599638" fill="#785EF0" data-tooltip="1.22x baseline (MJIT)"/>
<rect x="656.4516129032256" y="249.60229150537614" width="30.32258064516129" height="248.3977084946238" fill="#FFB000" data-tooltip="1.09x baseline (YJIT 3.2.0dev)"/>
<line x1="656.4516129032256" y1="498.0" x2="656.4516129032256" y2="502.79999999999995" stroke="#000"/>
<text x="656.4516129032256" y="512.4" fill="#111" font-size="small" text-anchor="end" transform="rotate(-60, 656.4516129032256, 512.4)">
nbody
</text>
<rect x="717.0967741935481" y="252.41286425975528" width="30.32258064516129" height="245.58713574024466" fill="#785EF0" data-tooltip="1.08x baseline (MJIT)"/>
<rect x="747.4193548387094" y="248.13536101667583" width="30.32258064516129" height="249.86463898332414" fill="#FFB000" data-tooltip="1.09x baseline (YJIT 3.2.0dev)"/>
<line x1="747.4193548387094" y1="498.0" x2="747.4193548387094" y2="502.79999999999995" stroke="#000"/>
<text x="747.4193548387094" y="512.4" fill="#111" font-size="small" text-anchor="end" transform="rotate(-60, 747.4193548387094, 512.4)">
optcarrot
</text>
<rect x="808.0645161290319" y="241.68966467729842" width="30.32258064516129" height="256.3103353227015" fill="#785EF0" data-tooltip="1.12x baseline (MJIT)"/>
<rect x="838.3870967741931" y="267.3127117511469" width="30.32258064516129" height="230.68728824885304" fill="#FFB000" data-tooltip="1.01x baseline (YJIT 3.2.0dev)"/>
<line x1="838.3870967741931" y1="498.0" x2="838.3870967741931" y2="502.79999999999995" stroke="#000"/>
<text x="838.3870967741931" y="512.4" fill="#111" font-size="small" text-anchor="end" transform="rotate(-60, 838.3870967741931, 512.4)">
rubykon
</text>
<rect x="899.0322580645156" y="237.10208583321665" width="30.32258064516129" height="260.8979141667833" fill="#785EF0" data-tooltip="1.14x baseline (MJIT)"/>
<rect x="929.3548387096769" y="234.83678148402137" width="30.32258064516129" height="263.16321851597854" fill="#FFB000" data-tooltip="1.15x baseline (YJIT 3.2.0dev)"/>
<line x1="929.3548387096769" y1="498.0" x2="929.3548387096769" y2="502.79999999999995" stroke="#000"/>
<text x="929.3548387096769" y="512.4" fill="#111" font-size="small" text-anchor="end" transform="rotate(-60, 929.3548387096769, 512.4)" font-style="italic">
geomean*
</text>
<line x1="50.0" y1="269.56091574849904" x2="990.0" y2="269.56091574849904" stroke="#648FFF" stroke-width="2"/>
</svg>