<svg viewBox="0 0 1000 600" xmlns="http://www.w3.org/2000/svg" xmlns:xlink="http://www.w3.org/1999/xlink" width="100%" height="100%">

<rect x="50.0" y="30.0" width="940.0" height="467.99999999999994" stroke="#000" fill="#fff"/>
<line x1="42.0" y1="497.9999999999999" x2="50.0" y2="497.9999999999999" stroke="#000"/>
<text x="26.000000000000004" y="497.9999999999999" text-anchor="end" font-weight="bold" font-size="small" fill="#111">
0.0
</text>
<line x1="42.0" y1="428.86013179571654" x2="50.0" y2="428.86013179571654" stroke="#000"/>
<text x="26.000000000000004" y="428.86013179571654" text-anchor="end" font-weight="bold" font-size="small" fill="#111">
0.5
</text>
<line x1="42.0" y1="359.72026359143325" x2="50.0" y2="359.72026359143325" stroke="#000"/>
<text x="26.000000000000004" y="359.72026359143325" text-anchor="end" font-weight="bold" font-size="small" fill="#111">
1.0
</text>
<line x1="42.0" y1="290.58039538714985" x2="50.0" y2="290.58039538714985" stroke="#000"/>
<text x="26.000000000000004" y="290.58039538714985" text-anchor="end" font-weight="bold" font-size="small" fill="#111">
1.5
</text>
<line x1="42.0" y1="221.44052718286656" x2="50.0" y2="221.44052718286656" stroke="#000"/>
<text x="26.000000000000004" y="221.44052718286656" text-anchor="end" font-weight="bold" font-size="small" fill="#111">
2.0
</text>
<line x1="42.0" y1="152.3006589785832" x2="50.0" y2="152.3006589785832" stroke="#000"/>
<text x="26.000000000000004" y="152.3006589785832" text-anchor="end" font-weight="bold" font-size="small" fill="#111">
2.5
</text>
<line x1="178.0" y1="54.60000000000001" x2="298.0" y2="54.60000000000001" stroke="#648FFF" stroke-width="2"/>
<text x="238.0" y="49.500000000000014" font-size="small" text-anchor="middle" font-weight="bold" fill="#000">
CRuby 3.2.0dev
</text>
<rect x="459.9999999999999" y="35.400000000000006" width="120.0" height="19.2" fill="#785EF0" stroke="none"/>
<text x="519.9999999999999" y="49.500000000000014" font-size="small" text-anchor="middle" font-weight="bold" fill="#fff" style="text-shadow: 0 0 1px #000;">
MJIT
</text>
<rect x="742.0" y="35.400000000000006" width="120.0" height="19.2" fill="#FFB000" stroke="none"/>
<text x="801.9999999999999" y="49.500000000000014" font-size="small" text-anchor="middle" font-weight="bold" fill="#fff" style="text-shadow: 0 0 1px #000;">
YJIT 3.2.0dev
</text>
<rect x="80.3225806451613" y="319.5793396470655" width="30.32258064516129" height="178.4206603529344" fill="#785EF0" data-tooltip="1.29x baseline (MJIT)"/>
<rect x="110.64516129032258" y="236.6717758436425" width="30.32258064516129" height="261.32822415635746" fill="#FFB000" data-tooltip="1.89x baseline (YJIT 3.2.0dev)"/>
<line x1="110.64516129032258" y1="498.0" x2="110.64516129032258" y2="502.79999999999995" stroke="#000"/>
<text x="110.64516129032258" y="512.4" fill="#111" font-size="small" text-anchor="end" transform="rotate(-60, 110.64516129032258, 512.4)">
30k_ifelse
</text>
<rect x="171.29032258064512" y="205.9711662449549" width="30.32258064516129" height="292.028833755045" fill="#785EF0" data-tooltip="2.11x baseline (MJIT)"/>
<rect x="201.61290322580643" y="309.2579901153212" width="30.32258064516129" height="188.74200988467877" fill="#FFB000" data-tooltip="1.36x baseline (YJIT 3.2.0dev)"/>
<line x1="201.61290322580643" y1="498.0" x2="201.61290322580643" y2="502.79999999999995" stroke="#000"/>
<text x="201.61290322580643" y="512.4" fill="#111" font-size="small" text-anchor="end" transform="rotate(-60, 201.61290322580643, 512.4)">
30k_methods
</text>
<rect x="262.258064516129" y="100.19999999999999" width="30.32258064516129" height="397.79999999999995" fill="#785EF0" data-tooltip="2.88x baseline (MJIT)"/>
<rect x="292.58064516129036" y="346.5279587640416" width="30.32258064516129" height="151.4720412359583" fill="#FFB000" data-tooltip="1.10x baseline (YJIT 3.2.0dev)"/>
<line x1="292.58064516129036" y1="498.0" x2="292.58064516129036" y2="502.79999999999995" stroke="#000"/>
<text x="292.58064516129036" y="512.4" fill="#111" font-size="small" text-anchor="end" transform="rotate(-60, 292.58064516129036, 512.4)">
cfunc_itself
</text>
<rect x="353.2258064516129" y="352.2097930213835" width="30.32258064516129" height="145.79020697861637" fill="#785EF0" data-tooltip="1.05x baseline (MJIT)"/>
<rect x="383.54838709677426" y="345.35523887453445" width="30.32258064516129" height="152.6447611254655" fill="#FFB000" data-tooltip="1.10x baseline (YJIT 3.2.0dev)"/>
<line x1="383.54838709677426" y1="498.0" x2="383.54838709677426" y2="502.79999999999995" stroke="#000"/>
<text x="383.54838709677426" y="512.4" fill="#111" font-size="small" text-anchor="end" transform="rotate(-60, 383.54838709677426, 512.4)">
fib
</text>
<rect x="444.1935483870968" y="352.14478703100184" width="30.32258064516129" height="145.85521296899813" fill="#785EF0" data-tooltip="1.05x baseline (MJIT)"/>
<rect x="474.51612903225816" y="346.454367683058" width="30.32258064516129" height="151.5456323169419" fill="#FFB000" data-tooltip="1.10x baseline (YJIT 3.2.0dev)"/>
<line x1="474.5161290322581" y1="498.0" x2="474.5161290322581" y2="502.79999999999995" stroke="#000"/>
<text x="474.5161290322581" y="512.4" fill="#111" font-size="small" text-anchor="end" transform="rotate(-60, 474.5161290322581, 512.4)">
getivar
</text>
<rect x="535.1612903225806" y="353.6257042698908" width="30.32258064516129" height="144.3742957301092" fill="#785EF0" data-tooltip="1.04x baseline (MJIT)"/>
<rect x="565.4838709677418" y="345.87044481054363" width="30.32258064516129" height="152.12955518945634" fill="#FFB000" data-tooltip="1.10x baseline (YJIT 3.2.0dev)"/>
<line x1="565.4838709677418" y1="498.0" x2="565.4838709677418" y2="502.79999999999995" stroke="#000"/>
<text x="565.4838709677418" y="512.4" fill="#111" font-size="small" text-anchor="end" transform="rotate(-60, 565.4838709677418, 512.4)">
keyword_args
</text>
<rect x="626.1290322580644" y="351.8560131795717" width="30.32258064516129" height="146.14398682042832" fill="#785EF0" data-tooltip="1.06x baseline (MJIT)"/>
<rect x="656.4516129032256" y="346.51897431897544" width="30.32258064516129" height="151.4810256810245" fill="#FFB000" data-tooltip="1.10x baseline (YJIT 3.2.0dev)"/>
<line x1="656.4516129032256" y1="498.0" x2="656.4516129032256" y2="502.79999999999995" stroke="#000"/>
<text x="656.4516129032256" y="512.4" fill="#111" font-size="small" text-anchor="end" transform="rotate(-60, 656.4516129032256, 512.4)">
respond_to
</text>
<rect x="717.0967741935481" y="353.81952417764296" width="30.32258064516129" height="144.18047582235698" fill="#785EF0" data-tooltip="1.04x baseline (MJIT)"/>
<rect x="747.4193548387094" y="345.7884503487678" width="30.32258064516129" height="152.21154965123205" fill="#FFB000" data-tooltip="1.10x baseline (YJIT 3.2.0dev)"/>
<line x1="747.4193548387094" y1="498.0" x2="747.4193548387094" y2="502.79999999999995" stroke="#000"/>
<text x="747.4193548387094" y="512.4" fill="#111" font-size="small" text-anchor="end" transform="rotate(-60, 747.4193548387094, 512.4)">
setivar
</text>
<rect x="808.0645161290319" y="353.2086552280135" width="30.32258064516129" height="144.7913447719864" fill="#785EF0" data-tooltip="1.05x baseline (MJIT)"/>
<rect x="838.3870967741931" y="348.845396179346" width="30.32258064516129" height="149.1546038206539" fill="#FFB000" data-tooltip="1.08x baseline (YJIT 3.2.0dev)"/>
<line x1="838.3870967741931" y1="498.0" x2="838.3870967741931" y2="502.79999999999995" stroke="#000"/>
<text x="838.3870967741931" y="512.4" fill="#111" font-size="small" text-anchor="end" transform="rotate(-60, 838.3870967741931, 512.4)">
str_concat
</text>
<rect x="899.0322580645156" y="318.42991706207727" width="30.32258064516129" height="179.57008293792265" fill="#785EF0" data-tooltip="1.30x baseline (MJIT)"/>
<rect x="929.3548387096769" y="333.0458674990767" width="30.32258064516129" height="164.9541325009232" fill="#FFB000" data-tooltip="1.19x baseline (YJIT 3.2.0dev)"/>
<line x1="929.3548387096769" y1="498.0" x2="929.3548387096769" y2="502.79999999999995" stroke="#000"/>
<text x="929.3548387096769" y="512.4" fill="#111" font-size="small" text-anchor="end" transform="rotate(-60, 929.3548387096769, 512.4)" font-style="italic">
geomean*
</text>
<line x1="50.0" y1="359.72026359143325" x2="990.0" y2="359.72026359143325" stroke="#648FFF" stroke-width="2"/>
</svg>