<svg viewBox="0 0 1000 600" xmlns="http://www.w3.org/2000/svg" xmlns:xlink="http://www.w3.org/1999/xlink" width="100%" height="100%">

<rect x="50.0" y="30.0" width="940.0" height="467.99999999999994" stroke="#000" fill="#fff"/>
<line x1="42.0" y1="497.9999999999999" x2="50.0" y2="497.9999999999999" stroke="#000"/>
<text x="26.000000000000004" y="497.9999999999999" text-anchor="end" font-weight="bold" font-size="small" fill="#111">
0.0
</text>
<line x1="42.0" y1="430.89122552902563" x2="50.0" y2="430.89122552902563" stroke="#000"/>
<text x="26.000000000000004" y="430.89122552902563" text-anchor="end" font-weight="bold" font-size="small" fill="#111">
0.2
</text>
<line x1="42.0" y1="363.7824510580514" x2="50.0" y2="363.7824510580514" stroke="#000"/>
<text x="26.000000000000004" y="363.7824510580514" text-anchor="end" font-weight="bold" font-size="small" fill="#111">
0.4
</text>
<line x1="42.0" y1="296.673676587077" x2="50.0" y2="296.673676587077" stroke="#000"/>
<text x="26.000000000000004" y="296.673676587077" text-anchor="end" font-weight="bold" font-size="small" fill="#111">
0.6
</text>
<line x1="42.0" y1="229.5649021161027" x2="50.0" y2="229.5649021161027" stroke="#000"/>
<text x="26.000000000000004" y="229.5649021161027" text-anchor="end" font-weight="bold" font-size="small" fill="#111">
0.8
</text>
<line x1="42.0" y1="162.4561276451284" x2="50.0" y2="162.4561276451284" stroke="#000"/>
<text x="26.000000000000004" y="162.4561276451284" text-anchor="end" font-weight="bold" font-size="small" fill="#111">
1.0
</text>
<line x1="142.75" y1="54.60000000000001" x2="262.75" y2="54.60000000000001" stroke="#648FFF" stroke-width="2"/>
<text x="202.75" y="49.500000000000014" font-size="small" text-anchor="middle" font-weight="bold" fill="#000">
CRuby 3.3.1
</text>
<rect x="354.25" y="35.400000000000006" width="120.0" height="19.2" fill="#785EF0" stroke="none"/>
<text x="414.25" y="49.500000000000014" font-size="small" text-anchor="middle" font-weight="bold" fill="#fff" style="text-shadow: 0 0 1px #000;">
CRuby 3.4.0dev
</text>
<rect x="565.75" y="35.400000000000006" width="120.0" height="19.2" fill="#FFB000" stroke="none"/>
<text x="625.7499999999999" y="49.500000000000014" font-size="small" text-anchor="middle" font-weight="bold" fill="#fff" style="text-shadow: 0 0 1px #000;">
YJIT 3.3.1
</text>
<rect x="777.25" y="35.400000000000006" width="120.0" height="19.2" fill="#DC267F" stroke="none"/>
<text x="837.2499999999999" y="49.500000000000014" font-size="small" text-anchor="middle" font-weight="bold" fill="#fff" style="text-shadow: 0 0 1px #000;">
YJIT 3.4.0dev
</text>
<rect x="61.60493827160494" y="172.32506506733048" width="11.604938271604937" height="325.6749349326695" fill="#785EF0" data-tooltip="0.97x baseline (CRuby 3.4.0dev)"/>
<rect x="73.20987654320987" y="184.0159601674776" width="11.604938271604937" height="313.98403983252234" fill="#FFB000" data-tooltip="0.94x baseline (YJIT 3.3.1)"/>
<rect x="84.81481481481481" y="170.35127758289008" width="11.604938271604937" height="327.64872241710987" fill="#DC267F" data-tooltip="0.98x baseline (YJIT 3.4.0dev)"/>
<line x1="79.01234567901236" y1="498.0" x2="79.01234567901236" y2="502.79999999999995" stroke="#000"/>
<text x="79.01234567901236" y="512.4" fill="#111" font-size="small" text-anchor="end" transform="rotate(-60, 79.01234567901236, 512.4)">
binarytrees
</text>
<rect x="108.0246913580247" y="148.4148700555657" width="11.604938271604937" height="349.58512994443424" fill="#785EF0" data-tooltip="1.04x baseline (CRuby 3.4.0dev)"/>
<rect x="119.62962962962965" y="158.29798698555834" width="11.604938271604937" height="339.7020130144416" fill="#FFB000" data-tooltip="1.01x baseline (YJIT 3.3.1)"/>
<rect x="131.23456790123458" y="143.5938374067888" width="11.604938271604937" height="354.40616259321115" fill="#DC267F" data-tooltip="1.06x baseline (YJIT 3.4.0dev)"/>
<line x1="125.43209876543213" y1="498.0" x2="125.43209876543213" y2="502.79999999999995" stroke="#000"/>
<text x="125.43209876543213" y="512.4" fill="#111" font-size="small" text-anchor="end" transform="rotate(-60, 125.43209876543213, 512.4)">
blurhash
</text>
<rect x="154.44444444444446" y="150.0979767819055" width="11.604938271604937" height="347.9020232180944" fill="#785EF0" data-tooltip="1.04x baseline (CRuby 3.4.0dev)"/>
<rect x="166.04938271604942" y="143.89659421877198" width="11.604938271604937" height="354.10340578122793" fill="#FFB000" data-tooltip="1.06x baseline (YJIT 3.3.1)"/>
<rect x="177.65432098765436" y="136.8921549208442" width="11.604938271604937" height="361.10784507915577" fill="#DC267F" data-tooltip="1.08x baseline (YJIT 3.4.0dev)"/>
<line x1="171.8518518518519" y1="498.0" x2="171.8518518518519" y2="502.79999999999995" stroke="#000"/>
<text x="171.8518518518519" y="512.4" fill="#111" font-size="small" text-anchor="end" transform="rotate(-60, 171.8518518518519, 512.4)">
erubi
</text>
<rect x="200.86419753086423" y="135.49025169697396" width="11.604938271604937" height="362.50974830302596" fill="#785EF0" data-tooltip="1.08x baseline (CRuby 3.4.0dev)"/>
<rect x="212.46913580246917" y="157.35753765493112" width="11.604938271604937" height="340.64246234506885" fill="#FFB000" data-tooltip="1.02x baseline (YJIT 3.3.1)"/>
<rect x="224.07407407407413" y="132.94095670187534" width="11.604938271604937" height="365.05904329812466" fill="#DC267F" data-tooltip="1.09x baseline (YJIT 3.4.0dev)"/>
<line x1="218.27160493827165" y1="498.0" x2="218.27160493827165" y2="502.79999999999995" stroke="#000"/>
<text x="218.27160493827165" y="512.4" fill="#111" font-size="small" text-anchor="end" transform="rotate(-60, 218.27160493827165, 512.4)">
etanni
</text>
<rect x="247.283950617284" y="144.11012380501467" width="11.604938271604937" height="353.8898761949853" fill="#785EF0" data-tooltip="1.05x baseline (CRuby 3.4.0dev)"/>
<rect x="258.88888888888897" y="158.6313423922425" width="11.604938271604937" height="339.3686576077574" fill="#FFB000" data-tooltip="1.01x baseline (YJIT 3.3.1)"/>
<rect x="270.4938271604939" y="139.0536280469621" width="11.604938271604937" height="358.94637195303784" fill="#DC267F" data-tooltip="1.07x baseline (YJIT 3.4.0dev)"/>
<line x1="264.69135802469134" y1="498.0" x2="264.69135802469134" y2="502.79999999999995" stroke="#000"/>
<text x="264.69135802469134" y="512.4" fill="#111" font-size="small" text-anchor="end" transform="rotate(-60, 264.69135802469134, 512.4)">
fannkuchredux
</text>
<rect x="293.7037037037037" y="161.21314037791547" width="11.604938271604937" height="336.7868596220845" fill="#785EF0" data-tooltip="1.00x baseline (CRuby 3.4.0dev)"/>
<rect x="305.3086419753086" y="148.6103303468701" width="11.604938271604937" height="349.3896696531299" fill="#FFB000" data-tooltip="1.04x baseline (YJIT 3.3.1)"/>
<rect x="316.9135802469135" y="132.9724696668388" width="11.604938271604937" height="365.0275303331611" fill="#DC267F" data-tooltip="1.09x baseline (YJIT 3.4.0dev)"/>
<line x1="311.11111111111103" y1="498.0" x2="311.11111111111103" y2="502.79999999999995" stroke="#000"/>
<text x="311.11111111111103" y="512.4" fill="#111" font-size="small" text-anchor="end" transform="rotate(-60, 311.11111111111103, 512.4)">
fluentd
</text>
<rect x="340.1234567901233" y="163.3754259255527" width="11.604938271604937" height="334.62457407444725" fill="#785EF0" data-tooltip="1.00x baseline (CRuby 3.4.0dev)"/>
<rect x="351.72839506172824" y="141.54209176547542" width="11.604938271604937" height="356.4579082345245" fill="#FFB000" data-tooltip="1.06x baseline (YJIT 3.3.1)"/>
<rect x="363.3333333333332" y="129.78820660862183" width="11.604938271604937" height="368.2117933913781" fill="#DC267F" data-tooltip="1.10x baseline (YJIT 3.4.0dev)"/>
<line x1="357.53086419753066" y1="498.0" x2="357.53086419753066" y2="502.79999999999995" stroke="#000"/>
<text x="357.53086419753066" y="512.4" fill="#111" font-size="small" text-anchor="end" transform="rotate(-60, 357.53086419753066, 512.4)">
graphql
</text>
<rect x="386.543209876543" y="156.62842470337105" width="11.604938271604937" height="341.3715752966289" fill="#785EF0" data-tooltip="1.02x baseline (CRuby 3.4.0dev)"/>
<rect x="398.1481481481479" y="140.60224161353852" width="11.604938271604937" height="357.3977583864614" fill="#FFB000" data-tooltip="1.07x baseline (YJIT 3.3.1)"/>
<rect x="409.75308641975283" y="117.67300563436243" width="11.604938271604937" height="380.3269943656376" fill="#DC267F" data-tooltip="1.13x baseline (YJIT 3.4.0dev)"/>
<line x1="403.9506172839503" y1="498.0" x2="403.9506172839503" y2="502.79999999999995" stroke="#000"/>
<text x="403.9506172839503" y="512.4" fill="#111" font-size="small" text-anchor="end" transform="rotate(-60, 403.9506172839503, 512.4)">
graphql-native
</text>
<rect x="432.96296296296265" y="164.53391564102097" width="11.604938271604937" height="333.46608435897895" fill="#785EF0" data-tooltip="0.99x baseline (CRuby 3.4.0dev)"/>
<rect x="444.56790123456756" y="142.47158492099788" width="11.604938271604937" height="355.52841507900206" fill="#FFB000" data-tooltip="1.06x baseline (YJIT 3.3.1)"/>
<rect x="456.17283950617247" y="143.60492382784844" width="11.604938271604937" height="354.3950761721515" fill="#DC267F" data-tooltip="1.06x baseline (YJIT 3.4.0dev)"/>
<line x1="450.37037037037" y1="498.0" x2="450.37037037037" y2="502.79999999999995" stroke="#000"/>
<text x="450.37037037037" y="512.4" fill="#111" font-size="small" text-anchor="end" transform="rotate(-60, 450.37037037037, 512.4)">
lee
</text>
<rect x="479.38271604938234" y="174.9224028644489" width="11.604938271604937" height="323.07759713555106" fill="#785EF0" data-tooltip="0.96x baseline (CRuby 3.4.0dev)"/>
<rect x="490.98765432098725" y="160.20415534744467" width="11.604938271604937" height="337.7958446525553" fill="#FFB000" data-tooltip="1.01x baseline (YJIT 3.3.1)"/>
<rect x="502.59259259259215" y="173.47470638736655" width="11.604938271604937" height="324.5252936126334" fill="#DC267F" data-tooltip="0.97x baseline (YJIT 3.4.0dev)"/>
<line x1="496.7901234567896" y1="498.0" x2="496.7901234567896" y2="502.79999999999995" stroke="#000"/>
<text x="496.7901234567896" y="512.4" fill="#111" font-size="small" text-anchor="end" transform="rotate(-60, 496.7901234567896, 512.4)">
matmul
</text>
<rect x="525.802469135802" y="143.79680437071195" width="11.604938271604937" height="354.203195629288" fill="#785EF0" data-tooltip="1.06x baseline (CRuby 3.4.0dev)"/>
<rect x="537.4074074074069" y="157.79129682652425" width="11.604938271604937" height="340.20870317347567" fill="#FFB000" data-tooltip="1.01x baseline (YJIT 3.3.1)"/>
<rect x="549.0123456790118" y="140.10381330598364" width="11.604938271604937" height="357.8961866940163" fill="#DC267F" data-tooltip="1.07x baseline (YJIT 3.4.0dev)"/>
<line x1="543.2098765432092" y1="498.0" x2="543.2098765432092" y2="502.79999999999995" stroke="#000"/>
<text x="543.2098765432092" y="512.4" fill="#111" font-size="small" text-anchor="end" transform="rotate(-60, 543.2098765432092, 512.4)">
nbody
</text>
<rect x="572.2222222222216" y="136.4514775376259" width="11.604938271604937" height="361.548522462374" fill="#785EF0" data-tooltip="1.08x baseline (CRuby 3.4.0dev)"/>
<rect x="583.8271604938266" y="158.5199399117347" width="11.604938271604937" height="339.4800600882653" fill="#FFB000" data-tooltip="1.01x baseline (YJIT 3.3.1)"/>
<rect x="595.4320987654314" y="122.70708430462827" width="11.604938271604937" height="375.29291569537173" fill="#DC267F" data-tooltip="1.12x baseline (YJIT 3.4.0dev)"/>
<line x1="589.629629629629" y1="498.0" x2="589.629629629629" y2="502.79999999999995" stroke="#000"/>
<text x="589.629629629629" y="512.4" fill="#111" font-size="small" text-anchor="end" transform="rotate(-60, 589.629629629629, 512.4)">
nqueens
</text>
<rect x="618.6419753086412" y="158.4030234444062" width="11.604938271604937" height="339.5969765555938" fill="#785EF0" data-tooltip="1.01x baseline (CRuby 3.4.0dev)"/>
<rect x="630.2469135802462" y="156.1217680746008" width="11.604938271604937" height="341.8782319253992" fill="#FFB000" data-tooltip="1.02x baseline (YJIT 3.3.1)"/>
<rect x="641.8518518518512" y="129.10107340311933" width="11.604938271604937" height="368.89892659688064" fill="#DC267F" data-tooltip="1.10x baseline (YJIT 3.4.0dev)"/>
<line x1="636.0493827160486" y1="498.0" x2="636.0493827160486" y2="502.79999999999995" stroke="#000"/>
<text x="636.0493827160486" y="512.4" fill="#111" font-size="small" text-anchor="end" transform="rotate(-60, 636.0493827160486, 512.4)">
optcarrot
</text>
<rect x="665.061728395061" y="109.5181622722643" width="11.604938271604937" height="388.48183772773564" fill="#785EF0" data-tooltip="1.16x baseline (CRuby 3.4.0dev)"/>
<rect x="676.6666666666658" y="152.50775149937758" width="11.604938271604937" height="345.49224850062234" fill="#FFB000" data-tooltip="1.03x baseline (YJIT 3.3.1)"/>
<rect x="688.2716049382708" y="100.19999999999999" width="11.604938271604937" height="397.79999999999995" fill="#DC267F" data-tooltip="1.19x baseline (YJIT 3.4.0dev)"/>
<line x1="682.4691358024683" y1="498.0" x2="682.4691358024683" y2="502.79999999999995" stroke="#000"/>
<text x="682.4691358024683" y="512.4" fill="#111" font-size="small" text-anchor="end" transform="rotate(-60, 682.4691358024683, 512.4)">
protoboeuf
</text>
<rect x="711.4814814814806" y="143.51310031580405" width="11.604938271604937" height="354.4868996841959" fill="#785EF0" data-tooltip="1.06x baseline (CRuby 3.4.0dev)"/>
<rect x="723.0864197530855" y="141.1184964096141" width="11.604938271604937" height="356.8815035903859" fill="#FFB000" data-tooltip="1.06x baseline (YJIT 3.3.1)"/>
<rect x="734.6913580246904" y="123.88590044185402" width="11.604938271604937" height="374.11409955814594" fill="#DC267F" data-tooltip="1.11x baseline (YJIT 3.4.0dev)"/>
<line x1="728.8888888888879" y1="498.0" x2="728.8888888888879" y2="502.79999999999995" stroke="#000"/>
<text x="728.8888888888879" y="512.4" fill="#111" font-size="small" text-anchor="end" transform="rotate(-60, 728.8888888888879, 512.4)">
rack
</text>
<rect x="757.9012345679002" y="142.28614348131057" width="11.604938271604937" height="355.7138565186894" fill="#785EF0" data-tooltip="1.06x baseline (CRuby 3.4.0dev)"/>
<rect x="769.5061728395052" y="158.9699575427401" width="11.604938271604937" height="339.0300424572598" fill="#FFB000" data-tooltip="1.01x baseline (YJIT 3.3.1)"/>
<rect x="781.1111111111101" y="139.92052805468992" width="11.604938271604937" height="358.07947194531005" fill="#DC267F" data-tooltip="1.07x baseline (YJIT 3.4.0dev)"/>
<line x1="775.3086419753075" y1="498.0" x2="775.3086419753075" y2="502.79999999999995" stroke="#000"/>
<text x="775.3086419753075" y="512.4" fill="#111" font-size="small" text-anchor="end" transform="rotate(-60, 775.3086419753075, 512.4)">
ruby-json
</text>
<rect x="804.3209876543199" y="152.18465744501617" width="11.604938271604937" height="345.8153425549838" fill="#785EF0" data-tooltip="1.03x baseline (CRuby 3.4.0dev)"/>
<rect x="815.9259259259248" y="153.80936720857278" width="11.604938271604937" height="344.1906327914271" fill="#FFB000" data-tooltip="1.03x baseline (YJIT 3.3.1)"/>
<rect x="827.5308641975297" y="152.48756943483187" width="11.604938271604937" height="345.51243056516813" fill="#DC267F" data-tooltip="1.03x baseline (YJIT 3.4.0dev)"/>
<line x1="821.7283950617273" y1="498.0" x2="821.7283950617273" y2="502.79999999999995" stroke="#000"/>
<text x="821.7283950617273" y="512.4" fill="#111" font-size="small" text-anchor="end" transform="rotate(-60, 821.7283950617273, 512.4)">
rubykon
</text>
<rect x="850.7407407407396" y="144.86326493824765" width="11.604938271604937" height="353.13673506175223" fill="#785EF0" data-tooltip="1.05x baseline (CRuby 3.4.0dev)"/>
<rect x="862.3456790123445" y="156.37859325547865" width="11.604938271604937" height="341.62140674452127" fill="#FFB000" data-tooltip="1.02x baseline (YJIT 3.3.1)"/>
<rect x="873.9506172839494" y="138.9776526872184" width="11.604938271604937" height="359.0223473127815" fill="#DC267F" data-tooltip="1.07x baseline (YJIT 3.4.0dev)"/>
<line x1="868.1481481481469" y1="498.0" x2="868.1481481481469" y2="502.79999999999995" stroke="#000"/>
<text x="868.1481481481469" y="512.4" fill="#111" font-size="small" text-anchor="end" transform="rotate(-60, 868.1481481481469, 512.4)">
sudoku
</text>
<rect x="897.1604938271593" y="139.46081331591338" width="11.604938271604937" height="358.53918668408653" fill="#785EF0" data-tooltip="1.07x baseline (CRuby 3.4.0dev)"/>
<rect x="908.7654320987641" y="140.5871144259158" width="11.604938271604937" height="357.41288557408416" fill="#FFB000" data-tooltip="1.07x baseline (YJIT 3.3.1)"/>
<rect x="920.3703703703691" y="117.40408324503373" width="11.604938271604937" height="380.5959167549662" fill="#DC267F" data-tooltip="1.13x baseline (YJIT 3.4.0dev)"/>
<line x1="914.5679012345665" y1="498.0" x2="914.5679012345665" y2="502.79999999999995" stroke="#000"/>
<text x="914.5679012345665" y="512.4" fill="#111" font-size="small" text-anchor="end" transform="rotate(-60, 914.5679012345665, 512.4)">
tinygql
</text>
<rect x="943.5802469135789" y="149.86275536169464" width="11.604938271604937" height="348.1372446383053" fill="#785EF0" data-tooltip="1.04x baseline (CRuby 3.4.0dev)"/>
<rect x="955.1851851851839" y="153.38910502688142" width="11.604938271604937" height="344.61089497311855" fill="#FFB000" data-tooltip="1.03x baseline (YJIT 3.3.1)"/>
<rect x="966.7901234567887" y="136.45922381629805" width="11.604938271604937" height="361.54077618370184" fill="#DC267F" data-tooltip="1.08x baseline (YJIT 3.4.0dev)"/>
<line x1="960.9876543209862" y1="498.0" x2="960.9876543209862" y2="502.79999999999995" stroke="#000"/>
<text x="960.9876543209862" y="512.4" fill="#111" font-size="small" text-anchor="end" transform="rotate(-60, 960.9876543209862, 512.4)" font-style="italic">
geomean*
</text>
<line x1="50.0" y1="162.4561276451284" x2="990.0" y2="162.4561276451284" stroke="#648FFF" stroke-width="2"/>
</svg>