<svg viewBox="0 0 1000 600" xmlns="http://www.w3.org/2000/svg" xmlns:xlink="http://www.w3.org/1999/xlink" width="100%" height="100%">

<rect x="50.0" y="30.0" width="940.0" height="467.99999999999994" stroke="#000" fill="#fff"/>
<line x1="42.0" y1="497.9999999999999" x2="50.0" y2="497.9999999999999" stroke="#000"/>
<text x="26.000000000000004" y="497.9999999999999" text-anchor="end" font-weight="bold" font-size="small" fill="#111">
0.0
</text>
<line x1="42.0" y1="452.52489003880976" x2="50.0" y2="452.52489003880976" stroke="#000"/>
<text x="26.000000000000004" y="452.52489003880976" text-anchor="end" font-weight="bold" font-size="small" fill="#111">
0.2
</text>
<line x1="42.0" y1="407.0497800776196" x2="50.0" y2="407.0497800776196" stroke="#000"/>
<text x="26.000000000000004" y="407.0497800776196" text-anchor="end" font-weight="bold" font-size="small" fill="#111">
0.4
</text>
<line x1="42.0" y1="361.5746701164294" x2="50.0" y2="361.5746701164294" stroke="#000"/>
<text x="26.000000000000004" y="361.5746701164294" text-anchor="end" font-weight="bold" font-size="small" fill="#111">
0.6
</text>
<line x1="42.0" y1="316.09956015523926" x2="50.0" y2="316.09956015523926" stroke="#000"/>
<text x="26.000000000000004" y="316.09956015523926" text-anchor="end" font-weight="bold" font-size="small" fill="#111">
0.8
</text>
<line x1="42.0" y1="270.62445019404913" x2="50.0" y2="270.62445019404913" stroke="#000"/>
<text x="26.000000000000004" y="270.62445019404913" text-anchor="end" font-weight="bold" font-size="small" fill="#111">
1.0
</text>
<line x1="42.0" y1="225.149340232859" x2="50.0" y2="225.149340232859" stroke="#000"/>
<text x="26.000000000000004" y="225.149340232859" text-anchor="end" font-weight="bold" font-size="small" fill="#111">
1.2
</text>
<line x1="42.0" y1="179.67423027166885" x2="50.0" y2="179.67423027166885" stroke="#000"/>
<text x="26.000000000000004" y="179.67423027166885" text-anchor="end" font-weight="bold" font-size="small" fill="#111">
1.4
</text>
<line x1="42.0" y1="134.1991203104787" x2="50.0" y2="134.1991203104787" stroke="#000"/>
<text x="26.000000000000004" y="134.1991203104787" text-anchor="end" font-weight="bold" font-size="small" fill="#111">
1.6
</text>
<line x1="248.5" y1="54.60000000000001" x2="368.5" y2="54.60000000000001" stroke="#648FFF" stroke-width="2"/>
<text x="308.5" y="49.500000000000014" font-size="small" text-anchor="middle" font-weight="bold" fill="#000">
CRuby 3.4.0dev
</text>
<rect x="671.5" y="35.400000000000006" width="120.0" height="19.2" fill="#785EF0" stroke="none"/>
<text x="731.4999999999999" y="49.500000000000014" font-size="small" text-anchor="middle" font-weight="bold" fill="#fff" style="text-shadow: 0 0 1px #000;">
YJIT 3.4.0dev
</text>
<rect x="80.3225806451613" y="246.70345085691125" width="30.32258064516129" height="251.29654914308867" fill="#785EF0" data-tooltip="1.11x baseline (YJIT 3.4.0dev)"/>
<line x1="95.48387096774194" y1="498.0" x2="95.48387096774194" y2="502.79999999999995" stroke="#000"/>
<text x="95.48387096774194" y="512.4" fill="#111" font-size="small" text-anchor="end" transform="rotate(-60, 95.48387096774194, 512.4)">
activerecord
</text>
<rect x="140.96774193548387" y="290.6874413829902" width="30.32258064516129" height="207.31255861700976" fill="#785EF0" data-tooltip="0.91x baseline (YJIT 3.4.0dev)"/>
<line x1="156.12903225806448" y1="498.0" x2="156.12903225806448" y2="502.79999999999995" stroke="#000"/>
<text x="156.12903225806448" y="512.4" fill="#111" font-size="small" text-anchor="end" transform="rotate(-60, 156.12903225806448, 512.4)">
chunky-png
</text>
<rect x="201.61290322580643" y="261.2603618919417" width="30.32258064516129" height="236.7396381080582" fill="#785EF0" data-tooltip="1.04x baseline (YJIT 3.4.0dev)"/>
<line x1="216.7741935483871" y1="498.0" x2="216.7741935483871" y2="502.79999999999995" stroke="#000"/>
<text x="216.7741935483871" y="512.4" fill="#111" font-size="small" text-anchor="end" transform="rotate(-60, 216.7741935483871, 512.4)">
erubi-rails
</text>
<rect x="262.258064516129" y="100.19999999999999" width="30.32258064516129" height="397.79999999999995" fill="#785EF0" data-tooltip="1.75x baseline (YJIT 3.4.0dev)"/>
<line x1="277.4193548387097" y1="498.0" x2="277.4193548387097" y2="502.79999999999995" stroke="#000"/>
<text x="277.4193548387097" y="512.4" fill="#111" font-size="small" text-anchor="end" transform="rotate(-60, 277.4193548387097, 512.4)">
hexapdf
</text>
<rect x="322.90322580645164" y="253.9150572344362" width="30.32258064516129" height="244.08494276556374" fill="#785EF0" data-tooltip="1.07x baseline (YJIT 3.4.0dev)"/>
<line x1="338.0645161290323" y1="498.0" x2="338.0645161290323" y2="502.79999999999995" stroke="#000"/>
<text x="338.0645161290323" y="512.4" fill="#111" font-size="small" text-anchor="end" transform="rotate(-60, 338.0645161290323, 512.4)">
liquid-c
</text>
<rect x="383.54838709677426" y="249.43487607708835" width="30.32258064516129" height="248.5651239229116" fill="#785EF0" data-tooltip="1.09x baseline (YJIT 3.4.0dev)"/>
<line x1="398.70967741935493" y1="498.0" x2="398.70967741935493" y2="502.79999999999995" stroke="#000"/>
<text x="398.70967741935493" y="512.4" fill="#111" font-size="small" text-anchor="end" transform="rotate(-60, 398.70967741935493, 512.4)">
liquid-compile
</text>
<rect x="444.1935483870968" y="243.28255779702093" width="30.32258064516129" height="254.71744220297902" fill="#785EF0" data-tooltip="1.12x baseline (YJIT 3.4.0dev)"/>
<line x1="459.35483870967755" y1="498.0" x2="459.35483870967755" y2="502.79999999999995" stroke="#000"/>
<text x="459.35483870967755" y="512.4" fill="#111" font-size="small" text-anchor="end" transform="rotate(-60, 459.35483870967755, 512.4)">
liquid-render
</text>
<rect x="504.8387096774194" y="239.84682037745065" width="30.32258064516129" height="258.1531796225493" fill="#785EF0" data-tooltip="1.14x baseline (YJIT 3.4.0dev)"/>
<line x1="520.0" y1="498.0" x2="520.0" y2="502.79999999999995" stroke="#000"/>
<text x="520.0" y="512.4" fill="#111" font-size="small" text-anchor="end" transform="rotate(-60, 520.0, 512.4)">
lobsters
</text>
<rect x="565.4838709677418" y="255.02076043765553" width="30.32258064516129" height="242.97923956234442" fill="#785EF0" data-tooltip="1.07x baseline (YJIT 3.4.0dev)"/>
<line x1="580.6451612903226" y1="498.0" x2="580.6451612903226" y2="502.79999999999995" stroke="#000"/>
<text x="580.6451612903226" y="512.4" fill="#111" font-size="small" text-anchor="end" transform="rotate(-60, 580.6451612903226, 512.4)">
mail
</text>
<rect x="626.1290322580644" y="255.65639567679278" width="30.32258064516129" height="242.34360432320716" fill="#785EF0" data-tooltip="1.07x baseline (YJIT 3.4.0dev)"/>
<line x1="641.290322580645" y1="498.0" x2="641.290322580645" y2="502.79999999999995" stroke="#000"/>
<text x="641.290322580645" y="512.4" fill="#111" font-size="small" text-anchor="end" transform="rotate(-60, 641.290322580645, 512.4)">
psych-load
</text>
<rect x="686.7741935483868" y="245.85353640639653" width="30.32258064516129" height="252.1464635936034" fill="#785EF0" data-tooltip="1.11x baseline (YJIT 3.4.0dev)"/>
<line x1="701.9354838709675" y1="498.0" x2="701.9354838709675" y2="502.79999999999995" stroke="#000"/>
<text x="701.9354838709675" y="512.4" fill="#111" font-size="small" text-anchor="end" transform="rotate(-60, 701.9354838709675, 512.4)">
railsbench
</text>
<rect x="747.4193548387094" y="190.39128211214276" width="30.32258064516129" height="307.60871788785715" fill="#785EF0" data-tooltip="1.35x baseline (YJIT 3.4.0dev)"/>
<line x1="762.58064516129" y1="498.0" x2="762.58064516129" y2="502.79999999999995" stroke="#000"/>
<text x="762.58064516129" y="512.4" fill="#111" font-size="small" text-anchor="end" transform="rotate(-60, 762.58064516129, 512.4)">
rubocop
</text>
<rect x="808.0645161290319" y="257.51050047777767" width="30.32258064516129" height="240.48949952222227" fill="#785EF0" data-tooltip="1.06x baseline (YJIT 3.4.0dev)"/>
<line x1="823.2258064516125" y1="498.0" x2="823.2258064516125" y2="502.79999999999995" stroke="#000"/>
<text x="823.2258064516125" y="512.4" fill="#111" font-size="small" text-anchor="end" transform="rotate(-60, 823.2258064516125, 512.4)">
ruby-lsp
</text>
<rect x="868.7096774193543" y="252.93818319071266" width="30.32258064516129" height="245.06181680928728" fill="#785EF0" data-tooltip="1.08x baseline (YJIT 3.4.0dev)"/>
<line x1="883.8709677419349" y1="498.0" x2="883.8709677419349" y2="502.79999999999995" stroke="#000"/>
<text x="883.8709677419349" y="512.4" fill="#111" font-size="small" text-anchor="end" transform="rotate(-60, 883.8709677419349, 512.4)">
sequel
</text>
<rect x="929.3548387096769" y="241.73335099334605" width="30.32258064516129" height="256.2666490066539" fill="#785EF0" data-tooltip="1.13x baseline (YJIT 3.4.0dev)"/>
<line x1="944.5161290322575" y1="498.0" x2="944.5161290322575" y2="502.79999999999995" stroke="#000"/>
<text x="944.5161290322575" y="512.4" fill="#111" font-size="small" text-anchor="end" transform="rotate(-60, 944.5161290322575, 512.4)" font-style="italic">
geomean*
</text>
<line x1="50.0" y1="270.62445019404913" x2="990.0" y2="270.62445019404913" stroke="#648FFF" stroke-width="2"/>
</svg>