<svg viewBox="0 0 1000 600" xmlns="http://www.w3.org/2000/svg" xmlns:xlink="http://www.w3.org/1999/xlink" width="100%" height="100%">

<rect x="50.0" y="30.0" width="940.0" height="467.99999999999994" stroke="#000" fill="#fff"/>
<line x1="42.0" y1="497.9999999999999" x2="50.0" y2="497.9999999999999" stroke="#000"/>
<text x="26.000000000000004" y="497.9999999999999" text-anchor="end" font-weight="bold" font-size="small" fill="#111">
0.0
</text>
<line x1="42.0" y1="429.4921079915398" x2="50.0" y2="429.4921079915398" stroke="#000"/>
<text x="26.000000000000004" y="429.4921079915398" text-anchor="end" font-weight="bold" font-size="small" fill="#111">
2.0
</text>
<line x1="42.0" y1="360.98421598307965" x2="50.0" y2="360.98421598307965" stroke="#000"/>
<text x="26.000000000000004" y="360.98421598307965" text-anchor="end" font-weight="bold" font-size="small" fill="#111">
4.0
</text>
<line x1="42.0" y1="292.47632397461945" x2="50.0" y2="292.47632397461945" stroke="#000"/>
<text x="26.000000000000004" y="292.47632397461945" text-anchor="end" font-weight="bold" font-size="small" fill="#111">
6.0
</text>
<line x1="42.0" y1="223.96843196615927" x2="50.0" y2="223.96843196615927" stroke="#000"/>
<text x="26.000000000000004" y="223.96843196615927" text-anchor="end" font-weight="bold" font-size="small" fill="#111">
8.0
</text>
<line x1="42.0" y1="155.46053995769913" x2="50.0" y2="155.46053995769913" stroke="#000"/>
<text x="26.000000000000004" y="155.46053995769913" text-anchor="end" font-weight="bold" font-size="small" fill="#111">
10.0
</text>
<line x1="178.0" y1="54.60000000000001" x2="298.0" y2="54.60000000000001" stroke="#648FFF" stroke-width="2"/>
<text x="238.0" y="49.500000000000014" font-size="small" text-anchor="middle" font-weight="bold" fill="#000">
CRuby 3.2.0dev
</text>
<rect x="459.9999999999999" y="35.400000000000006" width="120.0" height="19.2" fill="#785EF0" stroke="none"/>
<text x="519.9999999999999" y="49.500000000000014" font-size="small" text-anchor="middle" font-weight="bold" fill="#fff" style="text-shadow: 0 0 1px #000;">
MJIT
</text>
<rect x="742.0" y="35.400000000000006" width="120.0" height="19.2" fill="#FFB000" stroke="none"/>
<text x="801.9999999999999" y="49.500000000000014" font-size="small" text-anchor="middle" font-weight="bold" fill="#fff" style="text-shadow: 0 0 1px #000;">
YJIT 3.2.0dev
</text>
<rect x="80.3225806451613" y="440.8058961815827" width="30.32258064516129" height="57.194103818417275" fill="#785EF0" data-tooltip="1.67x baseline (MJIT)"/>
<rect x="110.64516129032258" y="304.6094798413365" width="30.32258064516129" height="193.3905201586635" fill="#FFB000" data-tooltip="5.65x baseline (YJIT 3.2.0dev)"/>
<line x1="110.64516129032258" y1="498.0" x2="110.64516129032258" y2="502.79999999999995" stroke="#000"/>
<text x="110.64516129032258" y="512.4" fill="#111" font-size="small" text-anchor="end" transform="rotate(-60, 110.64516129032258, 512.4)">
30k_ifelse
</text>
<rect x="171.29032258064512" y="412.3761943790944" width="30.32258064516129" height="85.6238056209055" fill="#785EF0" data-tooltip="2.50x baseline (MJIT)"/>
<rect x="201.61290322580643" y="296.63072020366786" width="30.32258064516129" height="201.3692797963321" fill="#FFB000" data-tooltip="5.88x baseline (YJIT 3.2.0dev)"/>
<line x1="201.61290322580643" y1="498.0" x2="201.61290322580643" y2="502.79999999999995" stroke="#000"/>
<text x="201.61290322580643" y="512.4" fill="#111" font-size="small" text-anchor="end" transform="rotate(-60, 201.61290322580643, 512.4)">
30k_methods
</text>
<rect x="262.258064516129" y="385.60303828662484" width="30.32258064516129" height="112.39696171337505" fill="#785EF0" data-tooltip="3.28x baseline (MJIT)"/>
<rect x="292.58064516129036" y="101.99590768922619" width="30.32258064516129" height="396.00409231077373" fill="#FFB000" data-tooltip="11.56x baseline (YJIT 3.2.0dev)"/>
<line x1="292.58064516129036" y1="498.0" x2="292.58064516129036" y2="502.79999999999995" stroke="#000"/>
<text x="292.58064516129036" y="512.4" fill="#111" font-size="small" text-anchor="end" transform="rotate(-60, 292.58064516129036, 512.4)">
cfunc_itself
</text>
<rect x="353.2258064516129" y="460.27411126728356" width="30.32258064516129" height="37.72588873271639" fill="#785EF0" data-tooltip="1.10x baseline (MJIT)"/>
<rect x="383.54838709677426" y="100.43096255132085" width="30.32258064516129" height="397.56903744867907" fill="#FFB000" data-tooltip="11.61x baseline (YJIT 3.2.0dev)"/>
<line x1="383.54838709677426" y1="498.0" x2="383.54838709677426" y2="502.79999999999995" stroke="#000"/>
<text x="383.54838709677426" y="512.4" fill="#111" font-size="small" text-anchor="end" transform="rotate(-60, 383.54838709677426, 512.4)">
fib
</text>
<rect x="444.1935483870968" y="460.0561522830008" width="30.32258064516129" height="37.94384771699913" fill="#785EF0" data-tooltip="1.11x baseline (MJIT)"/>
<rect x="474.51612903225816" y="101.13956836515986" width="30.32258064516129" height="396.86043163484004" fill="#FFB000" data-tooltip="11.59x baseline (YJIT 3.2.0dev)"/>
<line x1="474.5161290322581" y1="498.0" x2="474.5161290322581" y2="502.79999999999995" stroke="#000"/>
<text x="474.5161290322581" y="512.4" fill="#111" font-size="small" text-anchor="end" transform="rotate(-60, 474.5161290322581, 512.4)">
getivar
</text>
<rect x="535.1612903225806" y="460.600115374128" width="30.32258064516129" height="37.399884625871984" fill="#785EF0" data-tooltip="1.09x baseline (MJIT)"/>
<rect x="565.4838709677418" y="100.19999999999999" width="30.32258064516129" height="397.79999999999995" fill="#FFB000" data-tooltip="11.61x baseline (YJIT 3.2.0dev)"/>
<line x1="565.4838709677418" y1="498.0" x2="565.4838709677418" y2="502.79999999999995" stroke="#000"/>
<text x="565.4838709677418" y="512.4" fill="#111" font-size="small" text-anchor="end" transform="rotate(-60, 565.4838709677418, 512.4)">
keyword_args
</text>
<rect x="626.1290322580644" y="459.49524322979295" width="30.32258064516129" height="38.50475677020694" fill="#785EF0" data-tooltip="1.12x baseline (MJIT)"/>
<rect x="656.4516129032256" y="100.52890703628141" width="30.32258064516129" height="397.47109296371855" fill="#FFB000" data-tooltip="11.60x baseline (YJIT 3.2.0dev)"/>
<line x1="656.4516129032256" y1="498.0" x2="656.4516129032256" y2="502.79999999999995" stroke="#000"/>
<text x="656.4516129032256" y="512.4" fill="#111" font-size="small" text-anchor="end" transform="rotate(-60, 656.4516129032256, 512.4)">
respond_to
</text>
<rect x="717.0967741935481" y="459.8380701047224" width="30.32258064516129" height="38.1619298952775" fill="#785EF0" data-tooltip="1.11x baseline (MJIT)"/>
<rect x="747.4193548387094" y="101.38373392796268" width="30.32258064516129" height="396.61626607203726" fill="#FFB000" data-tooltip="11.58x baseline (YJIT 3.2.0dev)"/>
<line x1="747.4193548387094" y1="498.0" x2="747.4193548387094" y2="502.79999999999995" stroke="#000"/>
<text x="747.4193548387094" y="512.4" fill="#111" font-size="small" text-anchor="end" transform="rotate(-60, 747.4193548387094, 512.4)">
setivar
</text>
<rect x="808.0645161290319" y="460.9596641526715" width="30.32258064516129" height="37.04033584732838" fill="#785EF0" data-tooltip="1.08x baseline (MJIT)"/>
<rect x="838.3870967741931" y="377.7692807403736" width="30.32258064516129" height="120.23071925962637" fill="#FFB000" data-tooltip="3.51x baseline (YJIT 3.2.0dev)"/>
<line x1="838.3870967741931" y1="498.0" x2="838.3870967741931" y2="502.79999999999995" stroke="#000"/>
<text x="838.3870967741931" y="512.4" fill="#111" font-size="small" text-anchor="end" transform="rotate(-60, 838.3870967741931, 512.4)">
str_concat
</text>
<rect x="899.0322580645156" y="449.0825899267549" width="30.32258064516129" height="48.91741007324508" fill="#785EF0" data-tooltip="1.43x baseline (MJIT)"/>
<rect x="929.3548387096769" y="200.33615991564542" width="30.32258064516129" height="297.66384008435455" fill="#FFB000" data-tooltip="8.69x baseline (YJIT 3.2.0dev)"/>
<line x1="929.3548387096769" y1="498.0" x2="929.3548387096769" y2="502.79999999999995" stroke="#000"/>
<text x="929.3548387096769" y="512.4" fill="#111" font-size="small" text-anchor="end" transform="rotate(-60, 929.3548387096769, 512.4)" font-style="italic">
geomean*
</text>
<line x1="50.0" y1="463.74605399576984" x2="990.0" y2="463.74605399576984" stroke="#648FFF" stroke-width="2"/>
</svg>