<svg viewBox="0 0 1000 600" xmlns="http://www.w3.org/2000/svg" xmlns:xlink="http://www.w3.org/1999/xlink" width="100%" height="100%">

<rect x="50.0" y="30.0" width="940.0" height="467.99999999999994" stroke="#000" fill="#fff"/>
<line x1="42.0" y1="497.9999999999999" x2="50.0" y2="497.9999999999999" stroke="#000"/>
<text x="26.000000000000004" y="497.9999999999999" text-anchor="end" font-weight="bold" font-size="small" fill="#111">
0.0
</text>
<line x1="42.0" y1="449.33706464146945" x2="50.0" y2="449.33706464146945" stroke="#000"/>
<text x="26.000000000000004" y="449.33706464146945" text-anchor="end" font-weight="bold" font-size="small" fill="#111">
0.2
</text>
<line x1="42.0" y1="400.6741292829388" x2="50.0" y2="400.6741292829388" stroke="#000"/>
<text x="26.000000000000004" y="400.6741292829388" text-anchor="end" font-weight="bold" font-size="small" fill="#111">
0.4
</text>
<line x1="42.0" y1="352.0111939244082" x2="50.0" y2="352.0111939244082" stroke="#000"/>
<text x="26.000000000000004" y="352.0111939244082" text-anchor="end" font-weight="bold" font-size="small" fill="#111">
0.6
</text>
<line x1="42.0" y1="303.3482585658777" x2="50.0" y2="303.3482585658777" stroke="#000"/>
<text x="26.000000000000004" y="303.3482585658777" text-anchor="end" font-weight="bold" font-size="small" fill="#111">
0.8
</text>
<line x1="42.0" y1="254.68532320734718" x2="50.0" y2="254.68532320734718" stroke="#000"/>
<text x="26.000000000000004" y="254.68532320734718" text-anchor="end" font-weight="bold" font-size="small" fill="#111">
1.0
</text>
<line x1="42.0" y1="206.0223878488167" x2="50.0" y2="206.0223878488167" stroke="#000"/>
<text x="26.000000000000004" y="206.0223878488167" text-anchor="end" font-weight="bold" font-size="small" fill="#111">
1.2
</text>
<line x1="42.0" y1="157.35945249028615" x2="50.0" y2="157.35945249028615" stroke="#000"/>
<text x="26.000000000000004" y="157.35945249028615" text-anchor="end" font-weight="bold" font-size="small" fill="#111">
1.4
</text>
<line x1="42.0" y1="108.6965171317556" x2="50.0" y2="108.6965171317556" stroke="#000"/>
<text x="26.000000000000004" y="108.6965171317556" text-anchor="end" font-weight="bold" font-size="small" fill="#111">
1.6
</text>
<line x1="178.0" y1="54.60000000000001" x2="298.0" y2="54.60000000000001" stroke="#648FFF" stroke-width="2"/>
<text x="238.0" y="49.500000000000014" font-size="small" text-anchor="middle" font-weight="bold" fill="#000">
CRuby 3.4.0dev
</text>
<rect x="459.9999999999999" y="35.400000000000006" width="120.0" height="19.2" fill="#785EF0" stroke="none"/>
<text x="519.9999999999999" y="49.500000000000014" font-size="small" text-anchor="middle" font-weight="bold" fill="#fff" style="text-shadow: 0 0 1px #000;">
YJIT 3.3.1
</text>
<rect x="742.0" y="35.400000000000006" width="120.0" height="19.2" fill="#FFB000" stroke="none"/>
<text x="801.9999999999999" y="49.500000000000014" font-size="small" text-anchor="middle" font-weight="bold" fill="#fff" style="text-shadow: 0 0 1px #000;">
YJIT 3.4.0dev
</text>
<rect x="70.43478260869566" y="215.0805055747371" width="20.434782608695652" height="282.9194944252628" fill="#785EF0" data-tooltip="1.16x baseline (YJIT 3.3.1)"/>
<rect x="90.8695652173913" y="228.22623163903557" width="20.434782608695652" height="269.77376836096437" fill="#FFB000" data-tooltip="1.11x baseline (YJIT 3.4.0dev)"/>
<line x1="90.8695652173913" y1="498.0" x2="90.8695652173913" y2="502.79999999999995" stroke="#000"/>
<text x="90.8695652173913" y="512.4" fill="#111" font-size="small" text-anchor="end" transform="rotate(-60, 90.8695652173913, 512.4)">
activerecord
</text>
<rect x="131.7391304347826" y="278.7642150975543" width="20.434782608695652" height="219.2357849024456" fill="#785EF0" data-tooltip="0.90x baseline (YJIT 3.3.1)"/>
<rect x="152.17391304347828" y="243.347476676294" width="20.434782608695652" height="254.65252332370594" fill="#FFB000" data-tooltip="1.05x baseline (YJIT 3.4.0dev)"/>
<line x1="152.17391304347828" y1="498.0" x2="152.17391304347828" y2="502.79999999999995" stroke="#000"/>
<text x="152.17391304347828" y="512.4" fill="#111" font-size="small" text-anchor="end" transform="rotate(-60, 152.17391304347828, 512.4)">
chunky-png
</text>
<rect x="193.0434782608696" y="246.18061943979785" width="20.434782608695652" height="251.81938056020212" fill="#785EF0" data-tooltip="1.03x baseline (YJIT 3.3.1)"/>
<rect x="213.47826086956525" y="235.1111463685268" width="20.434782608695652" height="262.8888536314731" fill="#FFB000" data-tooltip="1.08x baseline (YJIT 3.4.0dev)"/>
<line x1="213.47826086956528" y1="498.0" x2="213.47826086956528" y2="502.79999999999995" stroke="#000"/>
<text x="213.47826086956528" y="512.4" fill="#111" font-size="small" text-anchor="end" transform="rotate(-60, 213.47826086956528, 512.4)">
erubi-rails
</text>
<rect x="254.34782608695656" y="263.27434652066404" width="20.434782608695652" height="234.7256534793359" fill="#785EF0" data-tooltip="0.96x baseline (YJIT 3.3.1)"/>
<rect x="274.7826086956522" y="100.19999999999999" width="20.434782608695652" height="397.79999999999995" fill="#FFB000" data-tooltip="1.63x baseline (YJIT 3.4.0dev)"/>
<line x1="274.7826086956522" y1="498.0" x2="274.7826086956522" y2="502.79999999999995" stroke="#000"/>
<text x="274.7826086956522" y="512.4" fill="#111" font-size="small" text-anchor="end" transform="rotate(-60, 274.7826086956522, 512.4)">
hexapdf
</text>
<rect x="315.65217391304344" y="235.64352521087778" width="20.434782608695652" height="262.35647478912216" fill="#785EF0" data-tooltip="1.08x baseline (YJIT 3.3.1)"/>
<rect x="336.08695652173907" y="228.40156480264608" width="20.434782608695652" height="269.59843519735387" fill="#FFB000" data-tooltip="1.11x baseline (YJIT 3.4.0dev)"/>
<line x1="336.086956521739" y1="498.0" x2="336.086956521739" y2="502.79999999999995" stroke="#000"/>
<text x="336.086956521739" y="512.4" fill="#111" font-size="small" text-anchor="end" transform="rotate(-60, 336.086956521739, 512.4)">
liquid-c
</text>
<rect x="376.9565217391304" y="243.65635857268748" width="20.434782608695652" height="254.34364142731246" fill="#785EF0" data-tooltip="1.05x baseline (YJIT 3.3.1)"/>
<rect x="397.391304347826" y="234.1448927575387" width="20.434782608695652" height="263.8551072424612" fill="#FFB000" data-tooltip="1.08x baseline (YJIT 3.4.0dev)"/>
<line x1="397.391304347826" y1="498.0" x2="397.391304347826" y2="502.79999999999995" stroke="#000"/>
<text x="397.391304347826" y="512.4" fill="#111" font-size="small" text-anchor="end" transform="rotate(-60, 397.391304347826, 512.4)">
liquid-compile
</text>
<rect x="438.26086956521726" y="225.09817674867952" width="20.434782608695652" height="272.9018232513204" fill="#785EF0" data-tooltip="1.12x baseline (YJIT 3.3.1)"/>
<rect x="458.6956521739129" y="217.50976353777776" width="20.434782608695652" height="280.4902364622222" fill="#FFB000" data-tooltip="1.15x baseline (YJIT 3.4.0dev)"/>
<line x1="458.69565217391283" y1="498.0" x2="458.69565217391283" y2="502.79999999999995" stroke="#000"/>
<text x="458.69565217391283" y="512.4" fill="#111" font-size="small" text-anchor="end" transform="rotate(-60, 458.69565217391283, 512.4)">
liquid-render
</text>
<rect x="499.56521739130415" y="212.3793670175291" width="20.434782608695652" height="285.6206329824709" fill="#785EF0" data-tooltip="1.17x baseline (YJIT 3.3.1)"/>
<rect x="519.9999999999998" y="202.89066623109673" width="20.434782608695652" height="295.10933376890324" fill="#FFB000" data-tooltip="1.21x baseline (YJIT 3.4.0dev)"/>
<line x1="519.9999999999998" y1="498.0" x2="519.9999999999998" y2="502.79999999999995" stroke="#000"/>
<text x="519.9999999999998" y="512.4" fill="#111" font-size="small" text-anchor="end" transform="rotate(-60, 519.9999999999998, 512.4)">
lobsters
</text>
<rect x="560.8695652173911" y="308.8479774340614" width="20.434782608695652" height="189.15202256593852" fill="#785EF0" data-tooltip="0.78x baseline (YJIT 3.3.1)"/>
<rect x="581.3043478260869" y="245.61489134265625" width="20.434782608695652" height="252.3851086573437" fill="#FFB000" data-tooltip="1.04x baseline (YJIT 3.4.0dev)"/>
<line x1="581.3043478260869" y1="498.0" x2="581.3043478260869" y2="502.79999999999995" stroke="#000"/>
<text x="581.3043478260869" y="512.4" fill="#111" font-size="small" text-anchor="end" transform="rotate(-60, 581.3043478260869, 512.4)">
mail
</text>
<rect x="622.1739130434783" y="250.79603974427457" width="20.434782608695652" height="247.20396025572538" fill="#785EF0" data-tooltip="1.02x baseline (YJIT 3.3.1)"/>
<rect x="642.6086956521739" y="238.4386000885543" width="20.434782608695652" height="259.5613999114457" fill="#FFB000" data-tooltip="1.07x baseline (YJIT 3.4.0dev)"/>
<line x1="642.6086956521739" y1="498.0" x2="642.6086956521739" y2="502.79999999999995" stroke="#000"/>
<text x="642.6086956521739" y="512.4" fill="#111" font-size="small" text-anchor="end" transform="rotate(-60, 642.6086956521739, 512.4)">
psych-load
</text>
<rect x="683.4782608695654" y="247.8988884006799" width="20.434782608695652" height="250.10111159932003" fill="#785EF0" data-tooltip="1.03x baseline (YJIT 3.3.1)"/>
<rect x="703.913043478261" y="241.27861630190776" width="20.434782608695652" height="256.72138369809215" fill="#FFB000" data-tooltip="1.06x baseline (YJIT 3.4.0dev)"/>
<line x1="703.913043478261" y1="498.0" x2="703.913043478261" y2="502.79999999999995" stroke="#000"/>
<text x="703.913043478261" y="512.4" fill="#111" font-size="small" text-anchor="end" transform="rotate(-60, 703.913043478261, 512.4)">
railsbench
</text>
<rect x="744.7826086956524" y="185.69772934208677" width="20.434782608695652" height="312.30227065791314" fill="#785EF0" data-tooltip="1.28x baseline (YJIT 3.3.1)"/>
<rect x="765.2173913043481" y="173.58718152719592" width="20.434782608695652" height="324.41281847280396" fill="#FFB000" data-tooltip="1.33x baseline (YJIT 3.4.0dev)"/>
<line x1="765.2173913043481" y1="498.0" x2="765.2173913043481" y2="502.79999999999995" stroke="#000"/>
<text x="765.2173913043481" y="512.4" fill="#111" font-size="small" text-anchor="end" transform="rotate(-60, 765.2173913043481, 512.4)">
rubocop
</text>
<rect x="806.0869565217395" y="211.5374192366239" width="20.434782608695652" height="286.4625807633761" fill="#785EF0" data-tooltip="1.18x baseline (YJIT 3.3.1)"/>
<rect x="826.5217391304351" y="192.81214048876595" width="20.434782608695652" height="305.18785951123397" fill="#FFB000" data-tooltip="1.25x baseline (YJIT 3.4.0dev)"/>
<line x1="826.5217391304351" y1="498.0" x2="826.5217391304351" y2="502.79999999999995" stroke="#000"/>
<text x="826.5217391304351" y="512.4" fill="#111" font-size="small" text-anchor="end" transform="rotate(-60, 826.5217391304351, 512.4)">
ruby-lsp
</text>
<rect x="867.3913043478265" y="250.85623416566096" width="20.434782608695652" height="247.14376583433898" fill="#785EF0" data-tooltip="1.02x baseline (YJIT 3.3.1)"/>
<rect x="887.8260869565222" y="239.6082851057075" width="20.434782608695652" height="258.3917148942924" fill="#FFB000" data-tooltip="1.06x baseline (YJIT 3.4.0dev)"/>
<line x1="887.8260869565222" y1="498.0" x2="887.8260869565222" y2="502.79999999999995" stroke="#000"/>
<text x="887.8260869565222" y="512.4" fill="#111" font-size="small" text-anchor="end" transform="rotate(-60, 887.8260869565222, 512.4)">
sequel
</text>
<rect x="928.6956521739136" y="242.9435877922392" width="20.434782608695652" height="255.05641220776073" fill="#785EF0" data-tooltip="1.05x baseline (YJIT 3.3.1)"/>
<rect x="949.1304347826093" y="218.0061936820592" width="20.434782608695652" height="279.99380631794077" fill="#FFB000" data-tooltip="1.15x baseline (YJIT 3.4.0dev)"/>
<line x1="949.1304347826093" y1="498.0" x2="949.1304347826093" y2="502.79999999999995" stroke="#000"/>
<text x="949.1304347826093" y="512.4" fill="#111" font-size="small" text-anchor="end" transform="rotate(-60, 949.1304347826093, 512.4)" font-style="italic">
geomean*
</text>
<line x1="50.0" y1="254.68532320734718" x2="990.0" y2="254.68532320734718" stroke="#648FFF" stroke-width="2"/>
</svg>