<svg viewBox="0 0 1000 600" xmlns="http://www.w3.org/2000/svg" xmlns:xlink="http://www.w3.org/1999/xlink" width="100%" height="100%">

<rect x="50.0" y="30.0" width="940.0" height="467.99999999999994" stroke="#000" fill="#fff"/>
<line x1="42.0" y1="497.9999999999999" x2="50.0" y2="497.9999999999999" stroke="#000"/>
<text x="26.000000000000004" y="497.9999999999999" text-anchor="end" font-weight="bold" font-size="small" fill="#111">
0.0
</text>
<line x1="42.0" y1="451.130618686148" x2="50.0" y2="451.130618686148" stroke="#000"/>
<text x="26.000000000000004" y="451.130618686148" text-anchor="end" font-weight="bold" font-size="small" fill="#111">
0.2
</text>
<line x1="42.0" y1="404.2612373722961" x2="50.0" y2="404.2612373722961" stroke="#000"/>
<text x="26.000000000000004" y="404.2612373722961" text-anchor="end" font-weight="bold" font-size="small" fill="#111">
0.4
</text>
<line x1="42.0" y1="357.3918560584441" x2="50.0" y2="357.3918560584441" stroke="#000"/>
<text x="26.000000000000004" y="357.3918560584441" text-anchor="end" font-weight="bold" font-size="small" fill="#111">
0.6
</text>
<line x1="42.0" y1="310.52247474459216" x2="50.0" y2="310.52247474459216" stroke="#000"/>
<text x="26.000000000000004" y="310.52247474459216" text-anchor="end" font-weight="bold" font-size="small" fill="#111">
0.8
</text>
<line x1="42.0" y1="263.6530934307402" x2="50.0" y2="263.6530934307402" stroke="#000"/>
<text x="26.000000000000004" y="263.6530934307402" text-anchor="end" font-weight="bold" font-size="small" fill="#111">
1.0
</text>
<line x1="42.0" y1="216.78371211688832" x2="50.0" y2="216.78371211688832" stroke="#000"/>
<text x="26.000000000000004" y="216.78371211688832" text-anchor="end" font-weight="bold" font-size="small" fill="#111">
1.2
</text>
<line x1="42.0" y1="169.91433080303636" x2="50.0" y2="169.91433080303636" stroke="#000"/>
<text x="26.000000000000004" y="169.91433080303636" text-anchor="end" font-weight="bold" font-size="small" fill="#111">
1.4
</text>
<line x1="42.0" y1="123.04494948918442" x2="50.0" y2="123.04494948918442" stroke="#000"/>
<text x="26.000000000000004" y="123.04494948918442" text-anchor="end" font-weight="bold" font-size="small" fill="#111">
1.6
</text>
<line x1="142.75" y1="54.60000000000001" x2="262.75" y2="54.60000000000001" stroke="#648FFF" stroke-width="2"/>
<text x="202.75" y="49.500000000000014" font-size="small" text-anchor="middle" font-weight="bold" fill="#000">
CRuby 3.3.3
</text>
<rect x="354.25" y="35.400000000000006" width="120.0" height="19.2" fill="#785EF0" stroke="none"/>
<text x="414.25" y="49.500000000000014" font-size="small" text-anchor="middle" font-weight="bold" fill="#fff" style="text-shadow: 0 0 1px #000;">
CRuby 3.4.0dev
</text>
<rect x="565.75" y="35.400000000000006" width="120.0" height="19.2" fill="#FFB000" stroke="none"/>
<text x="625.7499999999999" y="49.500000000000014" font-size="small" text-anchor="middle" font-weight="bold" fill="#fff" style="text-shadow: 0 0 1px #000;">
YJIT 3.3.3
</text>
<rect x="777.25" y="35.400000000000006" width="120.0" height="19.2" fill="#DC267F" stroke="none"/>
<text x="837.2499999999999" y="49.500000000000014" font-size="small" text-anchor="middle" font-weight="bold" fill="#fff" style="text-shadow: 0 0 1px #000;">
YJIT 3.4.0dev
</text>
<rect x="65.40983606557377" y="230.79959607408983" width="15.40983606557377" height="267.2004039259101" fill="#785EF0" data-tooltip="1.14x baseline (CRuby 3.4.0dev)"/>
<rect x="80.81967213114753" y="189.6384910792961" width="15.40983606557377" height="308.36150892070384" fill="#FFB000" data-tooltip="1.32x baseline (YJIT 3.3.3)"/>
<rect x="96.2295081967213" y="205.9370824710075" width="15.40983606557377" height="292.06291752899244" fill="#DC267F" data-tooltip="1.25x baseline (YJIT 3.4.0dev)"/>
<line x1="88.5245901639344" y1="498.0" x2="88.5245901639344" y2="502.79999999999995" stroke="#000"/>
<text x="88.5245901639344" y="512.4" fill="#111" font-size="small" text-anchor="end" transform="rotate(-60, 88.5245901639344, 512.4)">
activerecord
</text>
<rect x="127.04918032786883" y="241.43885565746572" width="15.40983606557377" height="256.5611443425342" fill="#785EF0" data-tooltip="1.09x baseline (CRuby 3.4.0dev)"/>
<rect x="142.4590163934426" y="253.16118921297362" width="15.40983606557377" height="244.83881078702632" fill="#FFB000" data-tooltip="1.04x baseline (YJIT 3.3.3)"/>
<rect x="157.86885245901638" y="205.42385639330962" width="15.40983606557377" height="292.5761436066903" fill="#DC267F" data-tooltip="1.25x baseline (YJIT 3.4.0dev)"/>
<line x1="150.1639344262295" y1="498.0" x2="150.1639344262295" y2="502.79999999999995" stroke="#000"/>
<text x="150.1639344262295" y="512.4" fill="#111" font-size="small" text-anchor="end" transform="rotate(-60, 150.1639344262295, 512.4)">
chunky-png
</text>
<rect x="188.68852459016395" y="256.4902854026905" width="15.40983606557377" height="241.50971459730943" fill="#785EF0" data-tooltip="1.03x baseline (CRuby 3.4.0dev)"/>
<rect x="204.0983606557377" y="256.319335330422" width="15.40983606557377" height="241.68066466957794" fill="#FFB000" data-tooltip="1.03x baseline (YJIT 3.3.3)"/>
<rect x="219.5081967213115" y="242.20740686465814" width="15.40983606557377" height="255.7925931353418" fill="#DC267F" data-tooltip="1.09x baseline (YJIT 3.4.0dev)"/>
<line x1="211.8032786885246" y1="498.0" x2="211.8032786885246" y2="502.79999999999995" stroke="#000"/>
<text x="211.8032786885246" y="512.4" fill="#111" font-size="small" text-anchor="end" transform="rotate(-60, 211.8032786885246, 512.4)">
erubi-rails
</text>
<rect x="250.32786885245906" y="233.43382512413675" width="15.40983606557377" height="264.5661748758632" fill="#785EF0" data-tooltip="1.13x baseline (CRuby 3.4.0dev)"/>
<rect x="265.7377049180328" y="119.72559785400375" width="15.40983606557377" height="378.2744021459962" fill="#FFB000" data-tooltip="1.61x baseline (YJIT 3.3.3)"/>
<rect x="281.14754098360663" y="100.19999999999999" width="15.40983606557377" height="397.79999999999995" fill="#DC267F" data-tooltip="1.70x baseline (YJIT 3.4.0dev)"/>
<line x1="273.4426229508197" y1="498.0" x2="273.4426229508197" y2="502.79999999999995" stroke="#000"/>
<text x="273.4426229508197" y="512.4" fill="#111" font-size="small" text-anchor="end" transform="rotate(-60, 273.4426229508197, 512.4)">
hexapdf
</text>
<rect x="311.96721311475414" y="257.27136968285885" width="15.40983606557377" height="240.7286303171411" fill="#785EF0" data-tooltip="1.03x baseline (CRuby 3.4.0dev)"/>
<rect x="327.37704918032796" y="239.20233224768103" width="15.40983606557377" height="258.79766775231894" fill="#FFB000" data-tooltip="1.10x baseline (YJIT 3.3.3)"/>
<rect x="342.7868852459017" y="239.52767502698475" width="15.40983606557377" height="258.4723249730152" fill="#DC267F" data-tooltip="1.10x baseline (YJIT 3.4.0dev)"/>
<line x1="335.08196721311486" y1="498.0" x2="335.08196721311486" y2="502.79999999999995" stroke="#000"/>
<text x="335.08196721311486" y="512.4" fill="#111" font-size="small" text-anchor="end" transform="rotate(-60, 335.08196721311486, 512.4)">
liquid-c
</text>
<rect x="373.6065573770493" y="260.2179983473148" width="15.40983606557377" height="237.78200165268512" fill="#785EF0" data-tooltip="1.01x baseline (CRuby 3.4.0dev)"/>
<rect x="389.01639344262304" y="244.19629532462068" width="15.40983606557377" height="253.80370467537927" fill="#FFB000" data-tooltip="1.08x baseline (YJIT 3.3.3)"/>
<rect x="404.42622950819685" y="244.0389627253798" width="15.40983606557377" height="253.96103727462014" fill="#DC267F" data-tooltip="1.08x baseline (YJIT 3.4.0dev)"/>
<line x1="396.72131147540995" y1="498.0" x2="396.72131147540995" y2="502.79999999999995" stroke="#000"/>
<text x="396.72131147540995" y="512.4" fill="#111" font-size="small" text-anchor="end" transform="rotate(-60, 396.72131147540995, 512.4)">
liquid-compile
</text>
<rect x="435.2459016393444" y="248.38236768938498" width="15.40983606557377" height="249.617632310615" fill="#785EF0" data-tooltip="1.07x baseline (CRuby 3.4.0dev)"/>
<rect x="450.6557377049182" y="223.87445469888823" width="15.40983606557377" height="274.12554530111174" fill="#FFB000" data-tooltip="1.17x baseline (YJIT 3.3.3)"/>
<rect x="466.06557377049194" y="212.74177526856454" width="15.40983606557377" height="285.2582247314354" fill="#DC267F" data-tooltip="1.22x baseline (YJIT 3.4.0dev)"/>
<line x1="458.3606557377051" y1="498.0" x2="458.3606557377051" y2="502.79999999999995" stroke="#000"/>
<text x="458.3606557377051" y="512.4" fill="#111" font-size="small" text-anchor="end" transform="rotate(-60, 458.3606557377051, 512.4)">
liquid-render
</text>
<rect x="496.8852459016395" y="243.42417504245006" width="15.40983606557377" height="254.57582495754988" fill="#785EF0" data-tooltip="1.09x baseline (CRuby 3.4.0dev)"/>
<rect x="512.2950819672133" y="203.8580100227088" width="15.40983606557377" height="294.14198997729113" fill="#FFB000" data-tooltip="1.26x baseline (YJIT 3.3.3)"/>
<rect x="527.7049180327871" y="204.03492902208166" width="15.40983606557377" height="293.9650709779183" fill="#DC267F" data-tooltip="1.25x baseline (YJIT 3.4.0dev)"/>
<line x1="520.0000000000002" y1="498.0" x2="520.0000000000002" y2="502.79999999999995" stroke="#000"/>
<text x="520.0000000000002" y="512.4" fill="#111" font-size="small" text-anchor="end" transform="rotate(-60, 520.0000000000002, 512.4)">
lobsters
</text>
<rect x="558.5245901639346" y="176.0171334926525" width="15.40983606557377" height="321.9828665073474" fill="#785EF0" data-tooltip="1.37x baseline (CRuby 3.4.0dev)"/>
<rect x="573.9344262295084" y="242.6355139976229" width="15.40983606557377" height="255.36448600237705" fill="#FFB000" data-tooltip="1.09x baseline (YJIT 3.3.3)"/>
<rect x="589.3442622950822" y="162.22042747091308" width="15.40983606557377" height="335.77957252908686" fill="#DC267F" data-tooltip="1.43x baseline (YJIT 3.4.0dev)"/>
<line x1="581.6393442622954" y1="498.0" x2="581.6393442622954" y2="502.79999999999995" stroke="#000"/>
<text x="581.6393442622954" y="512.4" fill="#111" font-size="small" text-anchor="end" transform="rotate(-60, 581.6393442622954, 512.4)">
mail
</text>
<rect x="620.1639344262297" y="243.0331840538361" width="15.40983606557377" height="254.96681594616385" fill="#785EF0" data-tooltip="1.09x baseline (CRuby 3.4.0dev)"/>
<rect x="635.5737704918035" y="250.097412266294" width="15.40983606557377" height="247.90258773370596" fill="#FFB000" data-tooltip="1.06x baseline (YJIT 3.3.3)"/>
<rect x="650.9836065573774" y="228.57742748008053" width="15.40983606557377" height="269.4225725199194" fill="#DC267F" data-tooltip="1.15x baseline (YJIT 3.4.0dev)"/>
<line x1="643.2786885245905" y1="498.0" x2="643.2786885245905" y2="502.79999999999995" stroke="#000"/>
<text x="643.2786885245905" y="512.4" fill="#111" font-size="small" text-anchor="end" transform="rotate(-60, 643.2786885245905, 512.4)">
psych-load
</text>
<rect x="681.8032786885249" y="247.3103593348283" width="15.40983606557377" height="250.68964066517165" fill="#785EF0" data-tooltip="1.07x baseline (CRuby 3.4.0dev)"/>
<rect x="697.2131147540987" y="226.67754270783664" width="15.40983606557377" height="271.32245729216334" fill="#FFB000" data-tooltip="1.16x baseline (YJIT 3.3.3)"/>
<rect x="712.6229508196724" y="218.4097177014731" width="15.40983606557377" height="279.59028229852686" fill="#DC267F" data-tooltip="1.19x baseline (YJIT 3.4.0dev)"/>
<line x1="704.9180327868855" y1="498.0" x2="704.9180327868855" y2="502.79999999999995" stroke="#000"/>
<text x="704.9180327868855" y="512.4" fill="#111" font-size="small" text-anchor="end" transform="rotate(-60, 704.9180327868855, 512.4)">
railsbench
</text>
<rect x="743.44262295082" y="251.31307727891004" width="15.40983606557377" height="246.68692272108987" fill="#785EF0" data-tooltip="1.05x baseline (CRuby 3.4.0dev)"/>
<rect x="758.8524590163937" y="178.11832817448706" width="15.40983606557377" height="319.8816718255129" fill="#FFB000" data-tooltip="1.36x baseline (YJIT 3.3.3)"/>
<rect x="774.2622950819675" y="166.984479014941" width="15.40983606557377" height="331.0155209850589" fill="#DC267F" data-tooltip="1.41x baseline (YJIT 3.4.0dev)"/>
<line x1="766.5573770491807" y1="498.0" x2="766.5573770491807" y2="502.79999999999995" stroke="#000"/>
<text x="766.5573770491807" y="512.4" fill="#111" font-size="small" text-anchor="end" transform="rotate(-60, 766.5573770491807, 512.4)">
rubocop
</text>
<rect x="805.081967213115" y="251.69802079585952" width="15.40983606557377" height="246.30197920414042" fill="#785EF0" data-tooltip="1.05x baseline (CRuby 3.4.0dev)"/>
<rect x="820.4918032786888" y="233.93030939712293" width="15.40983606557377" height="264.069690602877" fill="#FFB000" data-tooltip="1.13x baseline (YJIT 3.3.3)"/>
<rect x="835.9016393442627" y="231.38813877936101" width="15.40983606557377" height="266.6118612206389" fill="#DC267F" data-tooltip="1.14x baseline (YJIT 3.4.0dev)"/>
<line x1="828.1967213114758" y1="498.0" x2="828.1967213114758" y2="502.79999999999995" stroke="#000"/>
<text x="828.1967213114758" y="512.4" fill="#111" font-size="small" text-anchor="end" transform="rotate(-60, 828.1967213114758, 512.4)">
ruby-lsp
</text>
<rect x="866.7213114754102" y="243.97175784936937" width="15.40983606557377" height="254.02824215063055" fill="#785EF0" data-tooltip="1.08x baseline (CRuby 3.4.0dev)"/>
<rect x="882.131147540984" y="241.84997817702828" width="15.40983606557377" height="256.15002182297167" fill="#FFB000" data-tooltip="1.09x baseline (YJIT 3.3.3)"/>
<rect x="897.5409836065578" y="229.1924649592693" width="15.40983606557377" height="268.8075350407306" fill="#DC267F" data-tooltip="1.15x baseline (YJIT 3.4.0dev)"/>
<line x1="889.836065573771" y1="498.0" x2="889.836065573771" y2="502.79999999999995" stroke="#000"/>
<text x="889.836065573771" y="512.4" fill="#111" font-size="small" text-anchor="end" transform="rotate(-60, 889.836065573771, 512.4)">
sequel
</text>
<rect x="928.3606557377053" y="242.46754672014535" width="15.40983606557377" height="255.5324532798546" fill="#785EF0" data-tooltip="1.09x baseline (CRuby 3.4.0dev)"/>
<rect x="943.7704918032791" y="223.79371152205078" width="15.40983606557377" height="274.20628847794916" fill="#FFB000" data-tooltip="1.17x baseline (YJIT 3.3.3)"/>
<rect x="959.1803278688528" y="208.73403592544818" width="15.40983606557377" height="289.2659640745518" fill="#DC267F" data-tooltip="1.23x baseline (YJIT 3.4.0dev)"/>
<line x1="951.4754098360661" y1="498.0" x2="951.4754098360661" y2="502.79999999999995" stroke="#000"/>
<text x="951.4754098360661" y="512.4" fill="#111" font-size="small" text-anchor="end" transform="rotate(-60, 951.4754098360661, 512.4)" font-style="italic">
geomean*
</text>
<line x1="50.0" y1="263.6530934307402" x2="990.0" y2="263.6530934307402" stroke="#648FFF" stroke-width="2"/>
<rect x="67.23483606557377" y="216.63959607408984" width="17.85" height="7.2" transform="rotate(-60, 75.11475409836066, 223.29959607408983)" fill="#fffa"/>
<text x="67.40983606557377" y="223.29959607408983" fill="#111" font-size="0.5em" text-anchor="start" textLength="17.5" transform="rotate(-60, 75.11475409836066, 223.29959607408983)" style="text-shadow: 0 0 1px #fff;">
1.14
</text>
<rect x="82.64467213114754" y="175.4784910792961" width="17.85" height="7.2" transform="rotate(-60, 90.52459016393442, 182.1384910792961)" fill="#fffa"/>
<text x="82.81967213114753" y="182.1384910792961" fill="#111" font-size="0.5em" text-anchor="start" textLength="17.5" transform="rotate(-60, 90.52459016393442, 182.1384910792961)" style="text-shadow: 0 0 1px #fff;">
1.32
</text>
<rect x="98.0545081967213" y="191.7770824710075" width="17.85" height="7.2" transform="rotate(-60, 105.93442622950819, 198.4370824710075)" fill="#fffa"/>
<text x="98.2295081967213" y="198.4370824710075" fill="#111" font-size="0.5em" text-anchor="start" textLength="17.5" transform="rotate(-60, 105.93442622950819, 198.4370824710075)" style="text-shadow: 0 0 1px #fff;">
1.25
</text>
<rect x="128.87418032786883" y="227.27885565746573" width="17.85" height="7.2" transform="rotate(-60, 136.75409836065572, 233.93885565746572)" fill="#fffa"/>
<text x="129.04918032786884" y="233.93885565746572" fill="#111" font-size="0.5em" text-anchor="start" textLength="17.5" transform="rotate(-60, 136.75409836065572, 233.93885565746572)" style="text-shadow: 0 0 1px #fff;">
1.09
</text>
<rect x="144.2840163934426" y="239.00118921297363" width="17.85" height="7.2" transform="rotate(-60, 152.1639344262295, 245.66118921297362)" fill="#fffa"/>
<text x="144.4590163934426" y="245.66118921297362" fill="#111" font-size="0.5em" text-anchor="start" textLength="17.5" transform="rotate(-60, 152.1639344262295, 245.66118921297362)" style="text-shadow: 0 0 1px #fff;">
1.04
</text>
<rect x="159.69385245901637" y="191.2638563933096" width="17.85" height="7.2" transform="rotate(-60, 167.5737704918033, 197.9238563933096)" fill="#fffa"/>
<text x="159.86885245901638" y="197.9238563933096" fill="#111" font-size="0.5em" text-anchor="start" textLength="17.5" transform="rotate(-60, 167.5737704918033, 197.9238563933096)" style="text-shadow: 0 0 1px #fff;">
1.25
</text>
<rect x="190.51352459016394" y="242.3302854026905" width="17.85" height="7.2" transform="rotate(-60, 198.39344262295083, 248.99028540269052)" fill="#fffa"/>
<text x="190.68852459016395" y="248.99028540269052" fill="#111" font-size="0.5em" text-anchor="start" textLength="17.5" transform="rotate(-60, 198.39344262295083, 248.99028540269052)" style="text-shadow: 0 0 1px #fff;">
1.03
</text>
<rect x="205.92336065573772" y="242.159335330422" width="17.85" height="7.2" transform="rotate(-60, 213.8032786885246, 248.819335330422)" fill="#fffa"/>
<text x="206.09836065573774" y="248.819335330422" fill="#111" font-size="0.5em" text-anchor="start" textLength="17.5" transform="rotate(-60, 213.8032786885246, 248.819335330422)" style="text-shadow: 0 0 1px #fff;">
1.03
</text>
<rect x="221.33319672131148" y="228.04740686465814" width="17.85" height="7.2" transform="rotate(-60, 229.2131147540984, 234.70740686465814)" fill="#fffa"/>
<text x="221.5081967213115" y="234.70740686465814" fill="#111" font-size="0.5em" text-anchor="start" textLength="17.5" transform="rotate(-60, 229.2131147540984, 234.70740686465814)" style="text-shadow: 0 0 1px #fff;">
1.09
</text>
<rect x="252.15286885245908" y="219.27382512413672" width="17.85" height="7.2" transform="rotate(-60, 260.03278688524597, 225.93382512413675)" fill="#fffa"/>
<text x="252.32786885245906" y="225.93382512413675" fill="#111" font-size="0.5em" text-anchor="start" textLength="17.5" transform="rotate(-60, 260.03278688524597, 225.93382512413675)" style="text-shadow: 0 0 1px #fff;">
1.13
</text>
<rect x="267.56270491803286" y="105.56559785400376" width="17.85" height="7.2" transform="rotate(-60, 275.4426229508197, 112.22559785400375)" fill="#fffa"/>
<text x="267.7377049180328" y="112.22559785400375" fill="#111" font-size="0.5em" text-anchor="start" textLength="17.5" transform="rotate(-60, 275.4426229508197, 112.22559785400375)" style="text-shadow: 0 0 1px #fff;">
1.61
</text>
<rect x="282.9725409836066" y="86.03999999999998" width="17.85" height="7.2" transform="rotate(-60, 290.8524590163935, 92.69999999999999)" fill="#fffa"/>
<text x="283.14754098360663" y="92.69999999999999" fill="#111" font-size="0.5em" text-anchor="start" textLength="17.5" transform="rotate(-60, 290.8524590163935, 92.69999999999999)" style="text-shadow: 0 0 1px #fff;">
1.70
</text>
<rect x="313.7922131147542" y="243.11136968285882" width="17.85" height="7.2" transform="rotate(-60, 321.67213114754105, 249.77136968285885)" fill="#fffa"/>
<text x="313.96721311475414" y="249.77136968285885" fill="#111" font-size="0.5em" text-anchor="start" textLength="17.5" transform="rotate(-60, 321.67213114754105, 249.77136968285885)" style="text-shadow: 0 0 1px #fff;">
1.03
</text>
<rect x="329.20204918032795" y="225.042332247681" width="17.85" height="7.2" transform="rotate(-60, 337.08196721311486, 231.702332247681)" fill="#fffa"/>
<text x="329.37704918032796" y="231.702332247681" fill="#111" font-size="0.5em" text-anchor="start" textLength="17.5" transform="rotate(-60, 337.08196721311486, 231.702332247681)" style="text-shadow: 0 0 1px #fff;">
1.10
</text>
<rect x="344.61188524590176" y="225.36767502698476" width="17.85" height="7.2" transform="rotate(-60, 352.4918032786886, 232.02767502698475)" fill="#fffa"/>
<text x="344.7868852459017" y="232.02767502698475" fill="#111" font-size="0.5em" text-anchor="start" textLength="17.5" transform="rotate(-60, 352.4918032786886, 232.02767502698475)" style="text-shadow: 0 0 1px #fff;">
1.10
</text>
<rect x="375.43155737704933" y="246.05799834731482" width="17.85" height="7.2" transform="rotate(-60, 383.3114754098362, 252.71799834731482)" fill="#fffa"/>
<text x="375.6065573770493" y="252.71799834731482" fill="#111" font-size="0.5em" text-anchor="start" textLength="17.5" transform="rotate(-60, 383.3114754098362, 252.71799834731482)" style="text-shadow: 0 0 1px #fff;">
1.01
</text>
<rect x="390.8413934426231" y="230.03629532462068" width="17.85" height="7.2" transform="rotate(-60, 398.72131147540995, 236.69629532462068)" fill="#fffa"/>
<text x="391.01639344262304" y="236.69629532462068" fill="#111" font-size="0.5em" text-anchor="start" textLength="17.5" transform="rotate(-60, 398.72131147540995, 236.69629532462068)" style="text-shadow: 0 0 1px #fff;">
1.08
</text>
<rect x="406.25122950819684" y="229.8789627253798" width="17.85" height="7.2" transform="rotate(-60, 414.13114754098376, 236.5389627253798)" fill="#fffa"/>
<text x="406.42622950819685" y="236.5389627253798" fill="#111" font-size="0.5em" text-anchor="start" textLength="17.5" transform="rotate(-60, 414.13114754098376, 236.5389627253798)" style="text-shadow: 0 0 1px #fff;">
1.08
</text>
<rect x="437.0709016393444" y="234.22236768938498" width="17.85" height="7.2" transform="rotate(-60, 444.9508196721313, 240.88236768938498)" fill="#fffa"/>
<text x="437.2459016393444" y="240.88236768938498" fill="#111" font-size="0.5em" text-anchor="start" textLength="17.5" transform="rotate(-60, 444.9508196721313, 240.88236768938498)" style="text-shadow: 0 0 1px #fff;">
1.07
</text>
<rect x="452.4807377049182" y="209.71445469888823" width="17.85" height="7.2" transform="rotate(-60, 460.3606557377051, 216.37445469888823)" fill="#fffa"/>
<text x="452.6557377049182" y="216.37445469888823" fill="#111" font-size="0.5em" text-anchor="start" textLength="17.5" transform="rotate(-60, 460.3606557377051, 216.37445469888823)" style="text-shadow: 0 0 1px #fff;">
1.17
</text>
<rect x="467.890573770492" y="198.58177526856454" width="17.85" height="7.2" transform="rotate(-60, 475.77049180327884, 205.24177526856454)" fill="#fffa"/>
<text x="468.06557377049194" y="205.24177526856454" fill="#111" font-size="0.5em" text-anchor="start" textLength="17.5" transform="rotate(-60, 475.77049180327884, 205.24177526856454)" style="text-shadow: 0 0 1px #fff;">
1.22
</text>
<rect x="498.71024590163955" y="229.26417504245006" width="17.85" height="7.2" transform="rotate(-60, 506.59016393442636, 235.92417504245006)" fill="#fffa"/>
<text x="498.8852459016395" y="235.92417504245006" fill="#111" font-size="0.5em" text-anchor="start" textLength="17.5" transform="rotate(-60, 506.59016393442636, 235.92417504245006)" style="text-shadow: 0 0 1px #fff;">
1.09
</text>
<rect x="514.1200819672133" y="189.69801002270881" width="17.85" height="7.2" transform="rotate(-60, 522.0000000000001, 196.3580100227088)" fill="#fffa"/>
<text x="514.2950819672133" y="196.3580100227088" fill="#111" font-size="0.5em" text-anchor="start" textLength="17.5" transform="rotate(-60, 522.0000000000001, 196.3580100227088)" style="text-shadow: 0 0 1px #fff;">
1.26
</text>
<rect x="529.529918032787" y="189.87492902208166" width="17.85" height="7.2" transform="rotate(-60, 537.4098360655739, 196.53492902208166)" fill="#fffa"/>
<text x="529.7049180327871" y="196.53492902208166" fill="#111" font-size="0.5em" text-anchor="start" textLength="17.5" transform="rotate(-60, 537.4098360655739, 196.53492902208166)" style="text-shadow: 0 0 1px #fff;">
1.25
</text>
<rect x="560.3495901639346" y="161.8571334926525" width="17.85" height="7.2" transform="rotate(-60, 568.2295081967214, 168.5171334926525)" fill="#fffa"/>
<text x="560.5245901639346" y="168.5171334926525" fill="#111" font-size="0.5em" text-anchor="start" textLength="17.5" transform="rotate(-60, 568.2295081967214, 168.5171334926525)" style="text-shadow: 0 0 1px #fff;">
1.37
</text>
<rect x="575.7594262295083" y="228.47551399762287" width="17.85" height="7.2" transform="rotate(-60, 583.6393442622953, 235.1355139976229)" fill="#fffa"/>
<text x="575.9344262295084" y="235.1355139976229" fill="#111" font-size="0.5em" text-anchor="start" textLength="17.5" transform="rotate(-60, 583.6393442622953, 235.1355139976229)" style="text-shadow: 0 0 1px #fff;">
1.09
</text>
<rect x="591.1692622950821" y="148.06042747091308" width="17.85" height="7.2" transform="rotate(-60, 599.0491803278691, 154.72042747091308)" fill="#fffa"/>
<text x="591.3442622950822" y="154.72042747091308" fill="#111" font-size="0.5em" text-anchor="start" textLength="17.5" transform="rotate(-60, 599.0491803278691, 154.72042747091308)" style="text-shadow: 0 0 1px #fff;">
1.43
</text>
<rect x="621.9889344262297" y="228.8731840538361" width="17.85" height="7.2" transform="rotate(-60, 629.8688524590166, 235.5331840538361)" fill="#fffa"/>
<text x="622.1639344262297" y="235.5331840538361" fill="#111" font-size="0.5em" text-anchor="start" textLength="17.5" transform="rotate(-60, 629.8688524590166, 235.5331840538361)" style="text-shadow: 0 0 1px #fff;">
1.09
</text>
<rect x="637.3987704918035" y="235.937412266294" width="17.85" height="7.2" transform="rotate(-60, 645.2786885245904, 242.597412266294)" fill="#fffa"/>
<text x="637.5737704918035" y="242.597412266294" fill="#111" font-size="0.5em" text-anchor="start" textLength="17.5" transform="rotate(-60, 645.2786885245904, 242.597412266294)" style="text-shadow: 0 0 1px #fff;">
1.06
</text>
<rect x="652.8086065573773" y="214.4174274800805" width="17.85" height="7.2" transform="rotate(-60, 660.6885245901641, 221.0774274800805)" fill="#fffa"/>
<text x="652.9836065573774" y="221.0774274800805" fill="#111" font-size="0.5em" text-anchor="start" textLength="17.5" transform="rotate(-60, 660.6885245901641, 221.0774274800805)" style="text-shadow: 0 0 1px #fff;">
1.15
</text>
<rect x="683.6282786885248" y="233.1503593348283" width="17.85" height="7.2" transform="rotate(-60, 691.5081967213117, 239.8103593348283)" fill="#fffa"/>
<text x="683.8032786885249" y="239.8103593348283" fill="#111" font-size="0.5em" text-anchor="start" textLength="17.5" transform="rotate(-60, 691.5081967213117, 239.8103593348283)" style="text-shadow: 0 0 1px #fff;">
1.07
</text>
<rect x="699.0381147540986" y="212.51754270783664" width="17.85" height="7.2" transform="rotate(-60, 706.9180327868854, 219.17754270783664)" fill="#fffa"/>
<text x="699.2131147540987" y="219.17754270783664" fill="#111" font-size="0.5em" text-anchor="start" textLength="17.5" transform="rotate(-60, 706.9180327868854, 219.17754270783664)" style="text-shadow: 0 0 1px #fff;">
1.16
</text>
<rect x="714.4479508196724" y="204.2497177014731" width="17.85" height="7.2" transform="rotate(-60, 722.3278688524592, 210.90971770147308)" fill="#fffa"/>
<text x="714.6229508196724" y="210.90971770147308" fill="#111" font-size="0.5em" text-anchor="start" textLength="17.5" transform="rotate(-60, 722.3278688524592, 210.90971770147308)" style="text-shadow: 0 0 1px #fff;">
1.19
</text>
<rect x="745.2676229508199" y="237.15307727891005" width="17.85" height="7.2" transform="rotate(-60, 753.1475409836069, 243.81307727891004)" fill="#fffa"/>
<text x="745.44262295082" y="243.81307727891004" fill="#111" font-size="0.5em" text-anchor="start" textLength="17.5" transform="rotate(-60, 753.1475409836069, 243.81307727891004)" style="text-shadow: 0 0 1px #fff;">
1.05
</text>
<rect x="760.6774590163938" y="163.95832817448706" width="17.85" height="7.2" transform="rotate(-60, 768.5573770491806, 170.61832817448706)" fill="#fffa"/>
<text x="760.8524590163937" y="170.61832817448706" fill="#111" font-size="0.5em" text-anchor="start" textLength="17.5" transform="rotate(-60, 768.5573770491806, 170.61832817448706)" style="text-shadow: 0 0 1px #fff;">
1.36
</text>
<rect x="776.0872950819675" y="152.824479014941" width="17.85" height="7.2" transform="rotate(-60, 783.9672131147544, 159.484479014941)" fill="#fffa"/>
<text x="776.2622950819675" y="159.484479014941" fill="#111" font-size="0.5em" text-anchor="start" textLength="17.5" transform="rotate(-60, 783.9672131147544, 159.484479014941)" style="text-shadow: 0 0 1px #fff;">
1.41
</text>
<rect x="806.9069672131151" y="237.5380207958595" width="17.85" height="7.2" transform="rotate(-60, 814.7868852459019, 244.1980207958595)" fill="#fffa"/>
<text x="807.0819672131151" y="244.1980207958595" fill="#111" font-size="0.5em" text-anchor="start" textLength="17.5" transform="rotate(-60, 814.7868852459019, 244.1980207958595)" style="text-shadow: 0 0 1px #fff;">
1.05
</text>
<rect x="822.3168032786888" y="219.77030939712293" width="17.85" height="7.2" transform="rotate(-60, 830.1967213114757, 226.43030939712293)" fill="#fffa"/>
<text x="822.4918032786888" y="226.43030939712293" fill="#111" font-size="0.5em" text-anchor="start" textLength="17.5" transform="rotate(-60, 830.1967213114757, 226.43030939712293)" style="text-shadow: 0 0 1px #fff;">
1.13
</text>
<rect x="837.7266393442626" y="217.22813877936102" width="17.85" height="7.2" transform="rotate(-60, 845.6065573770495, 223.88813877936101)" fill="#fffa"/>
<text x="837.9016393442627" y="223.88813877936101" fill="#111" font-size="0.5em" text-anchor="start" textLength="17.5" transform="rotate(-60, 845.6065573770495, 223.88813877936101)" style="text-shadow: 0 0 1px #fff;">
1.14
</text>
<rect x="868.5463114754102" y="229.81175784936937" width="17.85" height="7.2" transform="rotate(-60, 876.426229508197, 236.47175784936937)" fill="#fffa"/>
<text x="868.7213114754102" y="236.47175784936937" fill="#111" font-size="0.5em" text-anchor="start" textLength="17.5" transform="rotate(-60, 876.426229508197, 236.47175784936937)" style="text-shadow: 0 0 1px #fff;">
1.08
</text>
<rect x="883.9561475409839" y="227.68997817702828" width="17.85" height="7.2" transform="rotate(-60, 891.8360655737708, 234.34997817702828)" fill="#fffa"/>
<text x="884.131147540984" y="234.34997817702828" fill="#111" font-size="0.5em" text-anchor="start" textLength="17.5" transform="rotate(-60, 891.8360655737708, 234.34997817702828)" style="text-shadow: 0 0 1px #fff;">
1.09
</text>
<rect x="899.3659836065577" y="215.0324649592693" width="17.85" height="7.2" transform="rotate(-60, 907.2459016393447, 221.6924649592693)" fill="#fffa"/>
<text x="899.5409836065578" y="221.6924649592693" fill="#111" font-size="0.5em" text-anchor="start" textLength="17.5" transform="rotate(-60, 907.2459016393447, 221.6924649592693)" style="text-shadow: 0 0 1px #fff;">
1.15
</text>
<rect x="930.1856557377052" y="228.30754672014533" width="17.85" height="7.2" transform="rotate(-60, 938.0655737704922, 234.96754672014535)" fill="#fffa"/>
<text x="930.3606557377053" y="234.96754672014535" fill="#111" font-size="0.5em" text-anchor="start" textLength="17.5" transform="rotate(-60, 938.0655737704922, 234.96754672014535)" style="text-shadow: 0 0 1px #fff;">
1.09
</text>
<rect x="945.5954918032791" y="209.6337115220508" width="17.85" height="7.2" transform="rotate(-60, 953.475409836066, 216.29371152205078)" fill="#fffa"/>
<text x="945.7704918032791" y="216.29371152205078" fill="#111" font-size="0.5em" text-anchor="start" textLength="17.5" transform="rotate(-60, 953.475409836066, 216.29371152205078)" style="text-shadow: 0 0 1px #fff;">
1.17
</text>
<rect x="961.0053278688529" y="194.57403592544816" width="17.85" height="7.2" transform="rotate(-60, 968.8852459016397, 201.23403592544815)" fill="#fffa"/>
<text x="961.1803278688528" y="201.23403592544815" fill="#111" font-size="0.5em" text-anchor="start" textLength="17.5" transform="rotate(-60, 968.8852459016397, 201.23403592544815)" style="text-shadow: 0 0 1px #fff;">
1.23
</text>
</svg>