<svg viewBox="0 0 1000 600" xmlns="http://www.w3.org/2000/svg" xmlns:xlink="http://www.w3.org/1999/xlink" width="100%" height="100%">

<rect x="50.0" y="30.0" width="940.0" height="467.99999999999994" stroke="#000" fill="#fff"/>
<line x1="42.0" y1="497.9999999999999" x2="50.0" y2="497.9999999999999" stroke="#000"/>
<text x="26.000000000000004" y="497.9999999999999" text-anchor="end" font-weight="bold" font-size="small" fill="#111">
0.0
</text>
<line x1="42.0" y1="407.22725676799405" x2="50.0" y2="407.22725676799405" stroke="#000"/>
<text x="26.000000000000004" y="407.22725676799405" text-anchor="end" font-weight="bold" font-size="small" fill="#111">
0.5
</text>
<line x1="42.0" y1="316.45451353598816" x2="50.0" y2="316.45451353598816" stroke="#000"/>
<text x="26.000000000000004" y="316.45451353598816" text-anchor="end" font-weight="bold" font-size="small" fill="#111">
1.0
</text>
<line x1="42.0" y1="225.68177030398223" x2="50.0" y2="225.68177030398223" stroke="#000"/>
<text x="26.000000000000004" y="225.68177030398223" text-anchor="end" font-weight="bold" font-size="small" fill="#111">
1.5
</text>
<line x1="42.0" y1="134.90902707197628" x2="50.0" y2="134.90902707197628" stroke="#000"/>
<text x="26.000000000000004" y="134.90902707197628" text-anchor="end" font-weight="bold" font-size="small" fill="#111">
2.0
</text>
<line x1="248.5" y1="54.60000000000001" x2="368.5" y2="54.60000000000001" stroke="#648FFF" stroke-width="2"/>
<text x="308.5" y="49.500000000000014" font-size="small" text-anchor="middle" font-weight="bold" fill="#000">
CRuby 3.4.0dev
</text>
<rect x="671.5" y="35.400000000000006" width="120.0" height="19.2" fill="#785EF0" stroke="none"/>
<text x="731.4999999999999" y="49.500000000000014" font-size="small" text-anchor="middle" font-weight="bold" fill="#fff" style="text-shadow: 0 0 1px #000;">
YJIT 3.4.0dev
</text>
<rect x="59.89473684210527" y="293.92217724345977" width="9.894736842105264" height="204.07782275654014" fill="#785EF0" data-tooltip="1.12x baseline (YJIT 3.4.0dev)"/>
<line x1="64.84210526315789" y1="498.0" x2="64.84210526315789" y2="502.79999999999995" stroke="#000"/>
<text x="64.84210526315789" y="512.4" fill="#111" font-size="small" text-anchor="end" transform="rotate(-60, 64.84210526315789, 512.4)">
activerecord
</text>
<rect x="79.6842105263158" y="345.1392072993747" width="9.894736842105264" height="152.86079270062518" fill="#785EF0" data-tooltip="0.84x baseline (YJIT 3.4.0dev)"/>
<line x1="84.63157894736842" y1="498.0" x2="84.63157894736842" y2="502.79999999999995" stroke="#000"/>
<text x="84.63157894736842" y="512.4" fill="#111" font-size="small" text-anchor="end" transform="rotate(-60, 84.63157894736842, 512.4)">
chunky-png
</text>
<rect x="99.47368421052632" y="311.03815473440045" width="9.894736842105264" height="186.9618452655995" fill="#785EF0" data-tooltip="1.03x baseline (YJIT 3.4.0dev)"/>
<line x1="104.42105263157895" y1="498.0" x2="104.42105263157895" y2="502.79999999999995" stroke="#000"/>
<text x="104.42105263157895" y="512.4" fill="#111" font-size="small" text-anchor="end" transform="rotate(-60, 104.42105263157895, 512.4)">
erubi-rails
</text>
<rect x="119.26315789473684" y="100.19999999999999" width="9.894736842105264" height="397.79999999999995" fill="#785EF0" data-tooltip="2.19x baseline (YJIT 3.4.0dev)"/>
<line x1="124.21052631578948" y1="498.0" x2="124.21052631578948" y2="502.79999999999995" stroke="#000"/>
<text x="124.21052631578948" y="512.4" fill="#111" font-size="small" text-anchor="end" transform="rotate(-60, 124.21052631578948, 512.4)">
hexapdf
</text>
<rect x="139.05263157894737" y="289.5298591585793" width="9.894736842105264" height="208.47014084142066" fill="#785EF0" data-tooltip="1.15x baseline (YJIT 3.4.0dev)"/>
<line x1="144.00000000000003" y1="498.0" x2="144.00000000000003" y2="502.79999999999995" stroke="#000"/>
<text x="144.00000000000003" y="512.4" fill="#111" font-size="small" text-anchor="end" transform="rotate(-60, 144.00000000000003, 512.4)">
liquid-c
</text>
<rect x="158.8421052631579" y="291.79820300352714" width="9.894736842105264" height="206.20179699647284" fill="#785EF0" data-tooltip="1.14x baseline (YJIT 3.4.0dev)"/>
<line x1="163.78947368421055" y1="498.0" x2="163.78947368421055" y2="502.79999999999995" stroke="#000"/>
<text x="163.78947368421055" y="512.4" fill="#111" font-size="small" text-anchor="end" transform="rotate(-60, 163.78947368421055, 512.4)">
liquid-compile
</text>
<rect x="178.6315789473684" y="284.80308547058155" width="9.894736842105264" height="213.1969145294184" fill="#785EF0" data-tooltip="1.17x baseline (YJIT 3.4.0dev)"/>
<line x1="183.57894736842107" y1="498.0" x2="183.57894736842107" y2="502.79999999999995" stroke="#000"/>
<text x="183.57894736842107" y="512.4" fill="#111" font-size="small" text-anchor="end" transform="rotate(-60, 183.57894736842107, 512.4)">
liquid-render
</text>
<rect x="198.42105263157893" y="278.81451376592565" width="9.894736842105264" height="219.18548623407432" fill="#785EF0" data-tooltip="1.21x baseline (YJIT 3.4.0dev)"/>
<line x1="203.3684210526316" y1="498.0" x2="203.3684210526316" y2="502.79999999999995" stroke="#000"/>
<text x="203.3684210526316" y="512.4" fill="#111" font-size="small" text-anchor="end" transform="rotate(-60, 203.3684210526316, 512.4)">
lobsters
</text>
<rect x="218.21052631578948" y="305.10646276318306" width="9.894736842105264" height="192.89353723681688" fill="#785EF0" data-tooltip="1.06x baseline (YJIT 3.4.0dev)"/>
<line x1="223.1578947368421" y1="498.0" x2="223.1578947368421" y2="502.79999999999995" stroke="#000"/>
<text x="223.1578947368421" y="512.4" fill="#111" font-size="small" text-anchor="end" transform="rotate(-60, 223.1578947368421, 512.4)">
mail
</text>
<rect x="238.0" y="300.478726981457" width="9.894736842105264" height="197.52127301854296" fill="#785EF0" data-tooltip="1.09x baseline (YJIT 3.4.0dev)"/>
<line x1="242.94736842105263" y1="498.0" x2="242.94736842105263" y2="502.79999999999995" stroke="#000"/>
<text x="242.94736842105263" y="512.4" fill="#111" font-size="small" text-anchor="end" transform="rotate(-60, 242.94736842105263, 512.4)">
psych-load
</text>
<rect x="257.7894736842105" y="301.1123400639381" width="9.894736842105264" height="196.88765993606185" fill="#785EF0" data-tooltip="1.08x baseline (YJIT 3.4.0dev)"/>
<line x1="262.7368421052632" y1="498.0" x2="262.7368421052632" y2="502.79999999999995" stroke="#000"/>
<text x="262.7368421052632" y="512.4" fill="#111" font-size="small" text-anchor="end" transform="rotate(-60, 262.7368421052632, 512.4)">
railsbench
</text>
<rect x="277.5789473684211" y="240.614962701006" width="9.894736842105264" height="257.38503729899395" fill="#785EF0" data-tooltip="1.42x baseline (YJIT 3.4.0dev)"/>
<line x1="282.52631578947376" y1="498.0" x2="282.52631578947376" y2="502.79999999999995" stroke="#000"/>
<text x="282.52631578947376" y="512.4" fill="#111" font-size="small" text-anchor="end" transform="rotate(-60, 282.52631578947376, 512.4)">
rubocop
</text>
<rect x="297.3684210526317" y="299.2648204272353" width="9.894736842105264" height="198.73517957276465" fill="#785EF0" data-tooltip="1.09x baseline (YJIT 3.4.0dev)"/>
<line x1="302.31578947368433" y1="498.0" x2="302.31578947368433" y2="502.79999999999995" stroke="#000"/>
<text x="302.31578947368433" y="512.4" fill="#111" font-size="small" text-anchor="end" transform="rotate(-60, 302.31578947368433, 512.4)">
ruby-lsp
</text>
<rect x="317.15789473684225" y="298.052198096646" width="9.894736842105264" height="199.94780190335393" fill="#785EF0" data-tooltip="1.10x baseline (YJIT 3.4.0dev)"/>
<line x1="322.1052631578949" y1="498.0" x2="322.1052631578949" y2="502.79999999999995" stroke="#000"/>
<text x="322.1052631578949" y="512.4" fill="#111" font-size="small" text-anchor="end" transform="rotate(-60, 322.1052631578949, 512.4)">
sequel
</text>
<rect x="336.94736842105283" y="314.3552884189151" width="9.894736842105264" height="183.64471158108483" fill="#785EF0" data-tooltip="1.01x baseline (YJIT 3.4.0dev)"/>
<line x1="341.8947368421055" y1="498.0" x2="341.8947368421055" y2="502.79999999999995" stroke="#000"/>
<text x="341.8947368421055" y="512.4" fill="#111" font-size="small" text-anchor="end" transform="rotate(-60, 341.8947368421055, 512.4)">
binarytrees
</text>
<rect x="356.7368421052634" y="311.4555088511122" width="9.894736842105264" height="186.5444911488877" fill="#785EF0" data-tooltip="1.03x baseline (YJIT 3.4.0dev)"/>
<line x1="361.68421052631606" y1="498.0" x2="361.68421052631606" y2="502.79999999999995" stroke="#000"/>
<text x="361.68421052631606" y="512.4" fill="#111" font-size="small" text-anchor="end" transform="rotate(-60, 361.68421052631606, 512.4)">
blurhash
</text>
<rect x="376.526315789474" y="301.8535942652433" width="9.894736842105264" height="196.14640573475668" fill="#785EF0" data-tooltip="1.08x baseline (YJIT 3.4.0dev)"/>
<line x1="381.47368421052664" y1="498.0" x2="381.47368421052664" y2="502.79999999999995" stroke="#000"/>
<text x="381.47368421052664" y="512.4" fill="#111" font-size="small" text-anchor="end" transform="rotate(-60, 381.47368421052664, 512.4)">
erubi
</text>
<rect x="396.31578947368456" y="313.3874409805906" width="9.894736842105264" height="184.61255901940936" fill="#785EF0" data-tooltip="1.02x baseline (YJIT 3.4.0dev)"/>
<line x1="401.2631578947372" y1="498.0" x2="401.2631578947372" y2="502.79999999999995" stroke="#000"/>
<text x="401.2631578947372" y="512.4" fill="#111" font-size="small" text-anchor="end" transform="rotate(-60, 401.2631578947372, 512.4)">
etanni
</text>
<rect x="416.10526315789514" y="312.88933675363256" width="9.894736842105264" height="185.11066324636738" fill="#785EF0" data-tooltip="1.02x baseline (YJIT 3.4.0dev)"/>
<line x1="421.0526315789478" y1="498.0" x2="421.0526315789478" y2="502.79999999999995" stroke="#000"/>
<text x="421.0526315789478" y="512.4" fill="#111" font-size="small" text-anchor="end" transform="rotate(-60, 421.0526315789478, 512.4)">
fannkuchredux
</text>
<rect x="435.8947368421057" y="303.51607207751357" width="9.894736842105264" height="194.4839279224864" fill="#785EF0" data-tooltip="1.07x baseline (YJIT 3.4.0dev)"/>
<line x1="440.8421052631584" y1="498.0" x2="440.8421052631584" y2="502.79999999999995" stroke="#000"/>
<text x="440.8421052631584" y="512.4" fill="#111" font-size="small" text-anchor="end" transform="rotate(-60, 440.8421052631584, 512.4)">
fluentd
</text>
<rect x="455.6842105263163" y="299.95037840289615" width="9.894736842105264" height="198.0496215971038" fill="#785EF0" data-tooltip="1.09x baseline (YJIT 3.4.0dev)"/>
<line x1="460.63157894736895" y1="498.0" x2="460.63157894736895" y2="502.79999999999995" stroke="#000"/>
<text x="460.63157894736895" y="512.4" fill="#111" font-size="small" text-anchor="end" transform="rotate(-60, 460.63157894736895, 512.4)">
graphql
</text>
<rect x="475.47368421052687" y="300.7098607276048" width="9.894736842105264" height="197.29013927239515" fill="#785EF0" data-tooltip="1.09x baseline (YJIT 3.4.0dev)"/>
<line x1="480.4210526315795" y1="498.0" x2="480.4210526315795" y2="502.79999999999995" stroke="#000"/>
<text x="480.4210526315795" y="512.4" fill="#111" font-size="small" text-anchor="end" transform="rotate(-60, 480.4210526315795, 512.4)">
graphql-native
</text>
<rect x="495.26315789473745" y="305.70992937222354" width="9.894736842105264" height="192.29007062777637" fill="#785EF0" data-tooltip="1.06x baseline (YJIT 3.4.0dev)"/>
<line x1="500.2105263157901" y1="498.0" x2="500.2105263157901" y2="502.79999999999995" stroke="#000"/>
<text x="500.2105263157901" y="512.4" fill="#111" font-size="small" text-anchor="end" transform="rotate(-60, 500.2105263157901, 512.4)">
lee
</text>
<rect x="515.052631578948" y="313.99737954059776" width="9.894736842105264" height="184.00262045940212" fill="#785EF0" data-tooltip="1.01x baseline (YJIT 3.4.0dev)"/>
<line x1="520.0000000000007" y1="498.0" x2="520.0000000000007" y2="502.79999999999995" stroke="#000"/>
<text x="520.0000000000007" y="512.4" fill="#111" font-size="small" text-anchor="end" transform="rotate(-60, 520.0000000000007, 512.4)">
matmul
</text>
<rect x="534.8421052631586" y="312.2428355838316" width="9.894736842105264" height="185.7571644161684" fill="#785EF0" data-tooltip="1.02x baseline (YJIT 3.4.0dev)"/>
<line x1="539.7894736842113" y1="498.0" x2="539.7894736842113" y2="502.79999999999995" stroke="#000"/>
<text x="539.7894736842113" y="512.4" fill="#111" font-size="small" text-anchor="end" transform="rotate(-60, 539.7894736842113, 512.4)">
nbody
</text>
<rect x="554.6315789473691" y="297.1399997560616" width="9.894736842105264" height="200.86000024393832" fill="#785EF0" data-tooltip="1.11x baseline (YJIT 3.4.0dev)"/>
<line x1="559.5789473684218" y1="498.0" x2="559.5789473684218" y2="502.79999999999995" stroke="#000"/>
<text x="559.5789473684218" y="512.4" fill="#111" font-size="small" text-anchor="end" transform="rotate(-60, 559.5789473684218, 512.4)">
nqueens
</text>
<rect x="574.4210526315798" y="307.7352815314382" width="9.894736842105264" height="190.26471846856177" fill="#785EF0" data-tooltip="1.05x baseline (YJIT 3.4.0dev)"/>
<line x1="579.3684210526325" y1="498.0" x2="579.3684210526325" y2="502.79999999999995" stroke="#000"/>
<text x="579.3684210526325" y="512.4" fill="#111" font-size="small" text-anchor="end" transform="rotate(-60, 579.3684210526325, 512.4)">
optcarrot
</text>
<rect x="594.2105263157903" y="293.7648465969288" width="9.894736842105264" height="204.23515340307114" fill="#785EF0" data-tooltip="1.12x baseline (YJIT 3.4.0dev)"/>
<line x1="599.157894736843" y1="498.0" x2="599.157894736843" y2="502.79999999999995" stroke="#000"/>
<text x="599.157894736843" y="512.4" fill="#111" font-size="small" text-anchor="end" transform="rotate(-60, 599.157894736843, 512.4)">
protoboeuf
</text>
<rect x="614.0000000000009" y="297.4143018840596" width="9.894736842105264" height="200.58569811594032" fill="#785EF0" data-tooltip="1.10x baseline (YJIT 3.4.0dev)"/>
<line x1="618.9473684210536" y1="498.0" x2="618.9473684210536" y2="502.79999999999995" stroke="#000"/>
<text x="618.9473684210536" y="512.4" fill="#111" font-size="small" text-anchor="end" transform="rotate(-60, 618.9473684210536, 512.4)">
rack
</text>
<rect x="633.7894736842114" y="312.42476170212564" width="9.894736842105264" height="185.57523829787434" fill="#785EF0" data-tooltip="1.02x baseline (YJIT 3.4.0dev)"/>
<line x1="638.7368421052641" y1="498.0" x2="638.7368421052641" y2="502.79999999999995" stroke="#000"/>
<text x="638.7368421052641" y="512.4" fill="#111" font-size="small" text-anchor="end" transform="rotate(-60, 638.7368421052641, 512.4)">
ruby-json
</text>
<rect x="653.5789473684221" y="318.85788373087826" width="9.894736842105264" height="179.1421162691217" fill="#785EF0" data-tooltip="0.99x baseline (YJIT 3.4.0dev)"/>
<line x1="658.5263157894748" y1="498.0" x2="658.5263157894748" y2="502.79999999999995" stroke="#000"/>
<text x="658.5263157894748" y="512.4" fill="#111" font-size="small" text-anchor="end" transform="rotate(-60, 658.5263157894748, 512.4)">
rubykon
</text>
<rect x="673.3684210526326" y="312.2475771295137" width="9.894736842105264" height="185.75242287048627" fill="#785EF0" data-tooltip="1.02x baseline (YJIT 3.4.0dev)"/>
<line x1="678.3157894736853" y1="498.0" x2="678.3157894736853" y2="502.79999999999995" stroke="#000"/>
<text x="678.3157894736853" y="512.4" fill="#111" font-size="small" text-anchor="end" transform="rotate(-60, 678.3157894736853, 512.4)">
sudoku
</text>
<rect x="693.1578947368432" y="296.0162888782421" width="9.894736842105264" height="201.98371112175784" fill="#785EF0" data-tooltip="1.11x baseline (YJIT 3.4.0dev)"/>
<line x1="698.1052631578959" y1="498.0" x2="698.1052631578959" y2="502.79999999999995" stroke="#000"/>
<text x="698.1052631578959" y="512.4" fill="#111" font-size="small" text-anchor="end" transform="rotate(-60, 698.1052631578959, 512.4)">
tinygql
</text>
<rect x="712.9473684210537" y="299.0313275349972" width="9.894736842105264" height="198.9686724650027" fill="#785EF0" data-tooltip="1.10x baseline (YJIT 3.4.0dev)"/>
<line x1="717.8947368421065" y1="498.0" x2="717.8947368421065" y2="502.79999999999995" stroke="#000"/>
<text x="717.8947368421065" y="512.4" fill="#111" font-size="small" text-anchor="end" transform="rotate(-60, 717.8947368421065, 512.4)">
30k_ifelse
</text>
<rect x="732.7368421052644" y="293.84933454275455" width="9.894736842105264" height="204.1506654572454" fill="#785EF0" data-tooltip="1.12x baseline (YJIT 3.4.0dev)"/>
<line x1="737.6842105263171" y1="498.0" x2="737.6842105263171" y2="502.79999999999995" stroke="#000"/>
<text x="737.6842105263171" y="512.4" fill="#111" font-size="small" text-anchor="end" transform="rotate(-60, 737.6842105263171, 512.4)">
30k_methods
</text>
<rect x="752.5263157894749" y="311.642464497183" width="9.894736842105264" height="186.35753550281692" fill="#785EF0" data-tooltip="1.03x baseline (YJIT 3.4.0dev)"/>
<line x1="757.4736842105276" y1="498.0" x2="757.4736842105276" y2="502.79999999999995" stroke="#000"/>
<text x="757.4736842105276" y="512.4" fill="#111" font-size="small" text-anchor="end" transform="rotate(-60, 757.4736842105276, 512.4)">
cfunc_itself
</text>
<rect x="772.3157894736855" y="313.8898493148253" width="9.894736842105264" height="184.1101506851746" fill="#785EF0" data-tooltip="1.01x baseline (YJIT 3.4.0dev)"/>
<line x1="777.2631578947382" y1="498.0" x2="777.2631578947382" y2="502.79999999999995" stroke="#000"/>
<text x="777.2631578947382" y="512.4" fill="#111" font-size="small" text-anchor="end" transform="rotate(-60, 777.2631578947382, 512.4)">
fib
</text>
<rect x="792.105263157896" y="311.63956392512824" width="9.894736842105264" height="186.3604360748717" fill="#785EF0" data-tooltip="1.03x baseline (YJIT 3.4.0dev)"/>
<line x1="797.0526315789488" y1="498.0" x2="797.0526315789488" y2="502.79999999999995" stroke="#000"/>
<text x="797.0526315789488" y="512.4" fill="#111" font-size="small" text-anchor="end" transform="rotate(-60, 797.0526315789488, 512.4)">
getivar
</text>
<rect x="811.8947368421067" y="313.44517002920065" width="9.894736842105264" height="184.55482997079923" fill="#785EF0" data-tooltip="1.02x baseline (YJIT 3.4.0dev)"/>
<line x1="816.8421052631594" y1="498.0" x2="816.8421052631594" y2="502.79999999999995" stroke="#000"/>
<text x="816.8421052631594" y="512.4" fill="#111" font-size="small" text-anchor="end" transform="rotate(-60, 816.8421052631594, 512.4)">
keyword_args
</text>
<rect x="831.6842105263172" y="310.7709703113471" width="9.894736842105264" height="187.2290296886528" fill="#785EF0" data-tooltip="1.03x baseline (YJIT 3.4.0dev)"/>
<line x1="836.6315789473699" y1="498.0" x2="836.6315789473699" y2="502.79999999999995" stroke="#000"/>
<text x="836.6315789473699" y="512.4" fill="#111" font-size="small" text-anchor="end" transform="rotate(-60, 836.6315789473699, 512.4)">
respond_to
</text>
<rect x="851.4736842105278" y="313.68781867438645" width="9.894736842105264" height="184.31218132561355" fill="#785EF0" data-tooltip="1.02x baseline (YJIT 3.4.0dev)"/>
<line x1="856.4210526315806" y1="498.0" x2="856.4210526315806" y2="502.79999999999995" stroke="#000"/>
<text x="856.4210526315806" y="512.4" fill="#111" font-size="small" text-anchor="end" transform="rotate(-60, 856.4210526315806, 512.4)">
ruby-xor
</text>
<rect x="871.2631578947384" y="310.820531883143" width="9.894736842105264" height="187.179468116857" fill="#785EF0" data-tooltip="1.03x baseline (YJIT 3.4.0dev)"/>
<line x1="876.2105263157911" y1="498.0" x2="876.2105263157911" y2="502.79999999999995" stroke="#000"/>
<text x="876.2105263157911" y="512.4" fill="#111" font-size="small" text-anchor="end" transform="rotate(-60, 876.2105263157911, 512.4)">
setivar
</text>
<rect x="891.052631578949" y="313.4460767310708" width="9.894736842105264" height="184.55392326892917" fill="#785EF0" data-tooltip="1.02x baseline (YJIT 3.4.0dev)"/>
<line x1="896.0000000000017" y1="498.0" x2="896.0000000000017" y2="502.79999999999995" stroke="#000"/>
<text x="896.0000000000017" y="512.4" fill="#111" font-size="small" text-anchor="end" transform="rotate(-60, 896.0000000000017, 512.4)">
setivar_object
</text>
<rect x="910.8421052631595" y="313.4478884966865" width="9.894736842105264" height="184.55211150331343" fill="#785EF0" data-tooltip="1.02x baseline (YJIT 3.4.0dev)"/>
<line x1="915.7894736842122" y1="498.0" x2="915.7894736842122" y2="502.79999999999995" stroke="#000"/>
<text x="915.7894736842122" y="512.4" fill="#111" font-size="small" text-anchor="end" transform="rotate(-60, 915.7894736842122, 512.4)">
setivar_young
</text>
<rect x="930.6315789473701" y="246.60874117881377" width="9.894736842105264" height="251.39125882118617" fill="#785EF0" data-tooltip="1.38x baseline (YJIT 3.4.0dev)"/>
<line x1="935.5789473684229" y1="498.0" x2="935.5789473684229" y2="502.79999999999995" stroke="#000"/>
<text x="935.5789473684229" y="512.4" fill="#111" font-size="small" text-anchor="end" transform="rotate(-60, 935.5789473684229, 512.4)">
str_concat
</text>
<rect x="950.4210526315807" y="313.3820394479689" width="9.894736842105264" height="184.617960552031" fill="#785EF0" data-tooltip="1.02x baseline (YJIT 3.4.0dev)"/>
<line x1="955.3684210526334" y1="498.0" x2="955.3684210526334" y2="502.79999999999995" stroke="#000"/>
<text x="955.3684210526334" y="512.4" fill="#111" font-size="small" text-anchor="end" transform="rotate(-60, 955.3684210526334, 512.4)">
throw
</text>
<rect x="970.2105263157913" y="300.52825045223557" width="9.894736842105264" height="197.4717495477644" fill="#785EF0" data-tooltip="1.09x baseline (YJIT 3.4.0dev)"/>
<line x1="975.157894736844" y1="498.0" x2="975.157894736844" y2="502.79999999999995" stroke="#000"/>
<text x="975.157894736844" y="512.4" fill="#111" font-size="small" text-anchor="end" transform="rotate(-60, 975.157894736844, 512.4)" font-style="italic">
geomean*
</text>
<line x1="50.0" y1="316.45451353598816" x2="990.0" y2="316.45451353598816" stroke="#648FFF" stroke-width="2"/>
</svg>