<svg viewBox="0 0 1000 600" xmlns="http://www.w3.org/2000/svg" xmlns:xlink="http://www.w3.org/1999/xlink" width="100%" height="100%">

<rect x="50.0" y="30.0" width="940.0" height="467.99999999999994" stroke="#000" fill="#fff"/>
<line x1="42.0" y1="497.9999999999999" x2="50.0" y2="497.9999999999999" stroke="#000"/>
<text x="26.000000000000004" y="497.9999999999999" text-anchor="end" font-weight="bold" font-size="small" fill="#111">
0.0
</text>
<line x1="42.0" y1="431.01386911059967" x2="50.0" y2="431.01386911059967" stroke="#000"/>
<text x="26.000000000000004" y="431.01386911059967" text-anchor="end" font-weight="bold" font-size="small" fill="#111">
1.0
</text>
<line x1="42.0" y1="364.0277382211993" x2="50.0" y2="364.0277382211993" stroke="#000"/>
<text x="26.000000000000004" y="364.0277382211993" text-anchor="end" font-weight="bold" font-size="small" fill="#111">
2.0
</text>
<line x1="42.0" y1="297.04160733179896" x2="50.0" y2="297.04160733179896" stroke="#000"/>
<text x="26.000000000000004" y="297.04160733179896" text-anchor="end" font-weight="bold" font-size="small" fill="#111">
3.0
</text>
<line x1="42.0" y1="230.05547644239869" x2="50.0" y2="230.05547644239869" stroke="#000"/>
<text x="26.000000000000004" y="230.05547644239869" text-anchor="end" font-weight="bold" font-size="small" fill="#111">
4.0
</text>
<line x1="42.0" y1="163.06934555299836" x2="50.0" y2="163.06934555299836" stroke="#000"/>
<text x="26.000000000000004" y="163.06934555299836" text-anchor="end" font-weight="bold" font-size="small" fill="#111">
5.0
</text>
<line x1="142.75" y1="54.60000000000001" x2="262.75" y2="54.60000000000001" stroke="#648FFF" stroke-width="2"/>
<text x="202.75" y="49.500000000000014" font-size="small" text-anchor="middle" font-weight="bold" fill="#000">
CRuby 3.3.1
</text>
<rect x="354.25" y="35.400000000000006" width="120.0" height="19.2" fill="#785EF0" stroke="none"/>
<text x="414.25" y="49.500000000000014" font-size="small" text-anchor="middle" font-weight="bold" fill="#fff" style="text-shadow: 0 0 1px #000;">
CRuby 3.4.0dev
</text>
<rect x="565.75" y="35.400000000000006" width="120.0" height="19.2" fill="#FFB000" stroke="none"/>
<text x="625.7499999999999" y="49.500000000000014" font-size="small" text-anchor="middle" font-weight="bold" fill="#fff" style="text-shadow: 0 0 1px #000;">
YJIT 3.3.1
</text>
<rect x="777.25" y="35.400000000000006" width="120.0" height="19.2" fill="#DC267F" stroke="none"/>
<text x="837.2499999999999" y="49.500000000000014" font-size="small" text-anchor="middle" font-weight="bold" fill="#fff" style="text-shadow: 0 0 1px #000;">
YJIT 3.4.0dev
</text>
<rect x="61.60493827160494" y="431.97385626188105" width="11.604938271604937" height="66.02614373811888" fill="#785EF0" data-tooltip="0.99x baseline (CRuby 3.4.0dev)"/>
<line x1="61.60493827160494" y1="431.29414230845885" x2="73.20987654320987" y2="431.29414230845885" stroke-dasharray="1,0.5" stroke="#333c"/>
<line x1="61.60493827160494" y1="432.6535702153033" x2="73.20987654320987" y2="432.6535702153033" stroke-dasharray="1,0.5" stroke="#333c"/>
<line x1="67.4074074074074" y1="431.29414230845885" x2="67.4074074074074" y2="432.6535702153033" stroke-dasharray="1,0.5" stroke="#333c"/>
<rect x="73.20987654320987" y="364.37544475827093" width="11.604938271604937" height="133.62455524172898" fill="#FFB000" data-tooltip="1.99x baseline (YJIT 3.3.1)"/>
<line x1="73.20987654320987" y1="361.09118166933274" x2="84.81481481481481" y2="361.09118166933274" stroke-dasharray="1,0.5" stroke="#333c"/>
<line x1="73.20987654320987" y1="367.6597078472092" x2="84.81481481481481" y2="367.6597078472092" stroke-dasharray="1,0.5" stroke="#333c"/>
<line x1="79.01234567901234" y1="361.09118166933274" x2="79.01234567901234" y2="367.6597078472092" stroke-dasharray="1,0.5" stroke="#333c"/>
<rect x="84.81481481481481" y="361.4028278596438" width="11.604938271604937" height="136.59717214035607" fill="#DC267F" data-tooltip="2.04x baseline (YJIT 3.4.0dev)"/>
<line x1="84.81481481481481" y1="360.0235955684933" x2="96.41975308641976" y2="360.0235955684933" stroke-dasharray="1,0.5" stroke="#333c"/>
<line x1="84.81481481481481" y1="362.7820601507943" x2="96.41975308641976" y2="362.7820601507943" stroke-dasharray="1,0.5" stroke="#333c"/>
<line x1="90.61728395061729" y1="360.0235955684933" x2="90.61728395061729" y2="362.7820601507943" stroke-dasharray="1,0.5" stroke="#333c"/>
<line x1="79.01234567901236" y1="498.0" x2="79.01234567901236" y2="502.79999999999995" stroke="#000"/>
<text x="79.01234567901236" y="512.4" fill="#111" font-size="small" text-anchor="end" transform="rotate(-60, 79.01234567901236, 512.4)">
binarytrees
</text>
<rect x="108.0246913580247" y="429.67339110875184" width="11.604938271604937" height="68.32660889124809" fill="#785EF0" data-tooltip="1.02x baseline (CRuby 3.4.0dev)"/>
<line x1="108.0246913580247" y1="428.9191716498022" x2="119.62962962962965" y2="428.9191716498022" stroke-dasharray="1,0.5" stroke="#333c"/>
<line x1="108.0246913580247" y1="430.4276105677015" x2="119.62962962962965" y2="430.4276105677015" stroke-dasharray="1,0.5" stroke="#333c"/>
<line x1="113.82716049382717" y1="428.9191716498022" x2="113.82716049382717" y2="430.4276105677015" stroke-dasharray="1,0.5" stroke="#333c"/>
<rect x="119.62962962962965" y="341.3103790670729" width="11.604938271604937" height="156.68962093292703" fill="#FFB000" data-tooltip="2.34x baseline (YJIT 3.3.1)"/>
<line x1="119.62962962962965" y1="339.74326468452625" x2="131.23456790123458" y2="339.74326468452625" stroke-dasharray="1,0.5" stroke="#333c"/>
<line x1="119.62962962962965" y1="342.8774934496196" x2="131.23456790123458" y2="342.8774934496196" stroke-dasharray="1,0.5" stroke="#333c"/>
<line x1="125.4320987654321" y1="339.74326468452625" x2="125.4320987654321" y2="342.8774934496196" stroke-dasharray="1,0.5" stroke="#333c"/>
<rect x="131.23456790123458" y="336.80672075727716" width="11.604938271604937" height="161.19327924272272" fill="#DC267F" data-tooltip="2.41x baseline (YJIT 3.4.0dev)"/>
<line x1="131.23456790123458" y1="335.1890855939713" x2="142.83950617283952" y2="335.1890855939713" stroke-dasharray="1,0.5" stroke="#333c"/>
<line x1="131.23456790123458" y1="338.4243559205831" x2="142.83950617283952" y2="338.4243559205831" stroke-dasharray="1,0.5" stroke="#333c"/>
<line x1="137.03703703703704" y1="335.1890855939713" x2="137.03703703703704" y2="338.4243559205831" stroke-dasharray="1,0.5" stroke="#333c"/>
<line x1="125.43209876543213" y1="498.0" x2="125.43209876543213" y2="502.79999999999995" stroke="#000"/>
<text x="125.43209876543213" y="512.4" fill="#111" font-size="small" text-anchor="end" transform="rotate(-60, 125.43209876543213, 512.4)">
blurhash
</text>
<rect x="154.44444444444446" y="427.9668713824385" width="11.604938271604937" height="70.03312861756145" fill="#785EF0" data-tooltip="1.05x baseline (CRuby 3.4.0dev)"/>
<line x1="154.44444444444446" y1="427.79907238433054" x2="166.04938271604942" y2="427.79907238433054" stroke-dasharray="1,0.5" stroke="#333c"/>
<line x1="154.44444444444446" y1="428.13467038054654" x2="166.04938271604942" y2="428.13467038054654" stroke-dasharray="1,0.5" stroke="#333c"/>
<line x1="160.2469135802469" y1="427.79907238433054" x2="160.2469135802469" y2="428.13467038054654" stroke-dasharray="1,0.5" stroke="#333c"/>
<rect x="166.04938271604942" y="417.3861315258714" width="11.604938271604937" height="80.61386847412854" fill="#FFB000" data-tooltip="1.20x baseline (YJIT 3.3.1)"/>
<line x1="166.04938271604942" y1="417.23265991976115" x2="177.65432098765436" y2="417.23265991976115" stroke-dasharray="1,0.5" stroke="#333c"/>
<line x1="166.04938271604942" y1="417.5396031319817" x2="177.65432098765436" y2="417.5396031319817" stroke-dasharray="1,0.5" stroke="#333c"/>
<line x1="171.85185185185188" y1="417.23265991976115" x2="171.85185185185188" y2="417.5396031319817" stroke-dasharray="1,0.5" stroke="#333c"/>
<rect x="177.65432098765436" y="420.1584778504581" width="11.604938271604937" height="77.84152214954186" fill="#DC267F" data-tooltip="1.16x baseline (YJIT 3.4.0dev)"/>
<line x1="177.65432098765436" y1="419.97081095675884" x2="189.2592592592593" y2="419.97081095675884" stroke-dasharray="1,0.5" stroke="#333c"/>
<line x1="177.65432098765436" y1="420.3461447441573" x2="189.2592592592593" y2="420.3461447441573" stroke-dasharray="1,0.5" stroke="#333c"/>
<line x1="183.4567901234568" y1="419.97081095675884" x2="183.4567901234568" y2="420.3461447441573" stroke-dasharray="1,0.5" stroke="#333c"/>
<line x1="171.8518518518519" y1="498.0" x2="171.8518518518519" y2="502.79999999999995" stroke="#000"/>
<text x="171.8518518518519" y="512.4" fill="#111" font-size="small" text-anchor="end" transform="rotate(-60, 171.8518518518519, 512.4)">
erubi
</text>
<rect x="200.86419753086423" y="429.1538453988789" width="11.604938271604937" height="68.84615460112103" fill="#785EF0" data-tooltip="1.03x baseline (CRuby 3.4.0dev)"/>
<line x1="200.86419753086423" y1="429.02139447064525" x2="212.46913580246917" y2="429.02139447064525" stroke-dasharray="1,0.5" stroke="#333c"/>
<line x1="200.86419753086423" y1="429.2862963271125" x2="212.46913580246917" y2="429.2862963271125" stroke-dasharray="1,0.5" stroke="#333c"/>
<line x1="206.66666666666669" y1="429.02139447064525" x2="206.66666666666669" y2="429.2862963271125" stroke-dasharray="1,0.5" stroke="#333c"/>
<rect x="212.46913580246917" y="423.98651585009463" width="11.604938271604937" height="74.01348414990537" fill="#FFB000" data-tooltip="1.10x baseline (YJIT 3.3.1)"/>
<line x1="212.46913580246917" y1="423.78983404012024" x2="224.07407407407413" y2="423.78983404012024" stroke-dasharray="1,0.5" stroke="#333c"/>
<line x1="212.46913580246917" y1="424.18319766006897" x2="224.07407407407413" y2="424.18319766006897" stroke-dasharray="1,0.5" stroke="#333c"/>
<line x1="218.27160493827162" y1="423.78983404012024" x2="218.27160493827162" y2="424.18319766006897" stroke-dasharray="1,0.5" stroke="#333c"/>
<rect x="224.07407407407413" y="422.3263450297337" width="11.604938271604937" height="75.67365497026624" fill="#DC267F" data-tooltip="1.13x baseline (YJIT 3.4.0dev)"/>
<line x1="224.07407407407413" y1="422.1987455339804" x2="235.67901234567907" y2="422.1987455339804" stroke-dasharray="1,0.5" stroke="#333c"/>
<line x1="224.07407407407413" y1="422.4539445254871" x2="235.67901234567907" y2="422.4539445254871" stroke-dasharray="1,0.5" stroke="#333c"/>
<line x1="229.8765432098766" y1="422.1987455339804" x2="229.8765432098766" y2="422.4539445254871" stroke-dasharray="1,0.5" stroke="#333c"/>
<line x1="218.27160493827165" y1="498.0" x2="218.27160493827165" y2="502.79999999999995" stroke="#000"/>
<text x="218.27160493827165" y="512.4" fill="#111" font-size="small" text-anchor="end" transform="rotate(-60, 218.27160493827165, 512.4)">
etanni
</text>
<rect x="247.283950617284" y="426.4140925354938" width="11.604938271604937" height="71.58590746450616" fill="#785EF0" data-tooltip="1.07x baseline (CRuby 3.4.0dev)"/>
<line x1="247.283950617284" y1="425.1889111857989" x2="258.88888888888897" y2="425.1889111857989" stroke-dasharray="1,0.5" stroke="#333c"/>
<line x1="247.283950617284" y1="427.6392738851888" x2="258.88888888888897" y2="427.6392738851888" stroke-dasharray="1,0.5" stroke="#333c"/>
<line x1="253.0864197530865" y1="425.1889111857989" x2="253.0864197530865" y2="427.6392738851888" stroke-dasharray="1,0.5" stroke="#333c"/>
<rect x="258.88888888888897" y="255.45209069327524" width="11.604938271604937" height="242.5479093067247" fill="#FFB000" data-tooltip="3.62x baseline (YJIT 3.3.1)"/>
<line x1="258.88888888888897" y1="251.85758489524227" x2="270.4938271604939" y2="251.85758489524227" stroke-dasharray="1,0.5" stroke="#333c"/>
<line x1="258.88888888888897" y1="259.0465964913082" x2="270.4938271604939" y2="259.0465964913082" stroke-dasharray="1,0.5" stroke="#333c"/>
<line x1="264.6913580246914" y1="251.85758489524227" x2="264.6913580246914" y2="259.0465964913082" stroke-dasharray="1,0.5" stroke="#333c"/>
<rect x="270.4938271604939" y="225.06348968713272" width="11.604938271604937" height="272.9365103128672" fill="#DC267F" data-tooltip="4.07x baseline (YJIT 3.4.0dev)"/>
<line x1="270.4938271604939" y1="221.12849768207852" x2="282.0987654320988" y2="221.12849768207852" stroke-dasharray="1,0.5" stroke="#333c"/>
<line x1="270.4938271604939" y1="228.9984816921869" x2="282.0987654320988" y2="228.9984816921869" stroke-dasharray="1,0.5" stroke="#333c"/>
<line x1="276.2962962962963" y1="221.12849768207852" x2="276.2962962962963" y2="228.9984816921869" stroke-dasharray="1,0.5" stroke="#333c"/>
<line x1="264.69135802469134" y1="498.0" x2="264.69135802469134" y2="502.79999999999995" stroke="#000"/>
<text x="264.69135802469134" y="512.4" fill="#111" font-size="small" text-anchor="end" transform="rotate(-60, 264.69135802469134, 512.4)">
fannkuchredux
</text>
<rect x="293.7037037037037" y="420.1559545320079" width="11.604938271604937" height="77.84404546799205" fill="#785EF0" data-tooltip="1.16x baseline (CRuby 3.4.0dev)"/>
<line x1="293.7037037037037" y1="419.8012243913611" x2="305.3086419753086" y2="419.8012243913611" stroke-dasharray="1,0.5" stroke="#333c"/>
<line x1="293.7037037037037" y1="420.5106846726547" x2="305.3086419753086" y2="420.5106846726547" stroke-dasharray="1,0.5" stroke="#333c"/>
<line x1="299.5061728395061" y1="419.8012243913611" x2="299.5061728395061" y2="420.5106846726547" stroke-dasharray="1,0.5" stroke="#333c"/>
<rect x="305.3086419753086" y="419.67054222874316" width="11.604938271604937" height="78.3294577712568" fill="#FFB000" data-tooltip="1.17x baseline (YJIT 3.3.1)"/>
<line x1="305.3086419753086" y1="419.39543239900445" x2="316.9135802469135" y2="419.39543239900445" stroke-dasharray="1,0.5" stroke="#333c"/>
<line x1="305.3086419753086" y1="419.94565205848187" x2="316.9135802469135" y2="419.94565205848187" stroke-dasharray="1,0.5" stroke="#333c"/>
<line x1="311.1111111111111" y1="419.39543239900445" x2="311.1111111111111" y2="419.94565205848187" stroke-dasharray="1,0.5" stroke="#333c"/>
<rect x="316.9135802469135" y="405.5600794344157" width="11.604938271604937" height="92.43992056558422" fill="#DC267F" data-tooltip="1.38x baseline (YJIT 3.4.0dev)"/>
<line x1="316.9135802469135" y1="404.67546702744" x2="328.5185185185184" y2="404.67546702744" stroke-dasharray="1,0.5" stroke="#333c"/>
<line x1="316.9135802469135" y1="406.4446918413913" x2="328.5185185185184" y2="406.4446918413913" stroke-dasharray="1,0.5" stroke="#333c"/>
<line x1="322.716049382716" y1="404.67546702744" x2="322.716049382716" y2="406.4446918413913" stroke-dasharray="1,0.5" stroke="#333c"/>
<line x1="311.11111111111103" y1="498.0" x2="311.11111111111103" y2="502.79999999999995" stroke="#000"/>
<text x="311.11111111111103" y="512.4" fill="#111" font-size="small" text-anchor="end" transform="rotate(-60, 311.11111111111103, 512.4)">
fluentd
</text>
<rect x="340.1234567901233" y="426.67626756854975" width="11.604938271604937" height="71.32373243145014" fill="#785EF0" data-tooltip="1.06x baseline (CRuby 3.4.0dev)"/>
<line x1="340.1234567901233" y1="426.55695182651084" x2="351.72839506172824" y2="426.55695182651084" stroke-dasharray="1,0.5" stroke="#333c"/>
<line x1="340.1234567901233" y1="426.7955833105886" x2="351.72839506172824" y2="426.7955833105886" stroke-dasharray="1,0.5" stroke="#333c"/>
<line x1="345.9259259259258" y1="426.55695182651084" x2="345.9259259259258" y2="426.7955833105886" stroke-dasharray="1,0.5" stroke="#333c"/>
<rect x="351.72839506172824" y="412.0496523286124" width="11.604938271604937" height="85.95034767138752" fill="#FFB000" data-tooltip="1.28x baseline (YJIT 3.3.1)"/>
<line x1="351.72839506172824" y1="411.91423880164297" x2="363.3333333333332" y2="411.91423880164297" stroke-dasharray="1,0.5" stroke="#333c"/>
<line x1="351.72839506172824" y1="412.1850658555819" x2="363.3333333333332" y2="412.1850658555819" stroke-dasharray="1,0.5" stroke="#333c"/>
<line x1="357.5308641975307" y1="411.91423880164297" x2="357.5308641975307" y2="412.1850658555819" stroke-dasharray="1,0.5" stroke="#333c"/>
<rect x="363.3333333333332" y="411.6130023737125" width="11.604938271604937" height="86.3869976262874" fill="#DC267F" data-tooltip="1.29x baseline (YJIT 3.4.0dev)"/>
<line x1="363.3333333333332" y1="411.4731046612769" x2="374.9382716049381" y2="411.4731046612769" stroke-dasharray="1,0.5" stroke="#333c"/>
<line x1="363.3333333333332" y1="411.75290008614803" x2="374.9382716049381" y2="411.75290008614803" stroke-dasharray="1,0.5" stroke="#333c"/>
<line x1="369.1358024691356" y1="411.4731046612769" x2="369.1358024691356" y2="411.75290008614803" stroke-dasharray="1,0.5" stroke="#333c"/>
<line x1="357.53086419753066" y1="498.0" x2="357.53086419753066" y2="502.79999999999995" stroke="#000"/>
<text x="357.53086419753066" y="512.4" fill="#111" font-size="small" text-anchor="end" transform="rotate(-60, 357.53086419753066, 512.4)">
graphql
</text>
<rect x="386.543209876543" y="424.94077033480767" width="11.604938271604937" height="73.05922966519226" fill="#785EF0" data-tooltip="1.09x baseline (CRuby 3.4.0dev)"/>
<line x1="386.543209876543" y1="424.8730584968186" x2="398.1481481481479" y2="424.8730584968186" stroke-dasharray="1,0.5" stroke="#333c"/>
<line x1="386.543209876543" y1="425.0084821727967" x2="398.1481481481479" y2="425.0084821727967" stroke-dasharray="1,0.5" stroke="#333c"/>
<line x1="392.34567901234544" y1="424.8730584968186" x2="392.34567901234544" y2="425.0084821727967" stroke-dasharray="1,0.5" stroke="#333c"/>
<rect x="398.1481481481479" y="423.7099222454692" width="11.604938271604937" height="74.29007775453077" fill="#FFB000" data-tooltip="1.11x baseline (YJIT 3.3.1)"/>
<line x1="398.1481481481479" y1="423.64809416426874" x2="409.75308641975283" y2="423.64809416426874" stroke-dasharray="1,0.5" stroke="#333c"/>
<line x1="398.1481481481479" y1="423.7717503266697" x2="409.75308641975283" y2="423.7717503266697" stroke-dasharray="1,0.5" stroke="#333c"/>
<line x1="403.95061728395035" y1="423.64809416426874" x2="403.95061728395035" y2="423.7717503266697" stroke-dasharray="1,0.5" stroke="#333c"/>
<rect x="409.75308641975283" y="415.3891504361494" width="11.604938271604937" height="82.61084956385058" fill="#DC267F" data-tooltip="1.23x baseline (YJIT 3.4.0dev)"/>
<line x1="409.75308641975283" y1="415.2334298954593" x2="421.35802469135774" y2="415.2334298954593" stroke-dasharray="1,0.5" stroke="#333c"/>
<line x1="409.75308641975283" y1="415.5448709768395" x2="421.35802469135774" y2="415.5448709768395" stroke-dasharray="1,0.5" stroke="#333c"/>
<line x1="415.5555555555553" y1="415.2334298954593" x2="415.5555555555553" y2="415.5448709768395" stroke-dasharray="1,0.5" stroke="#333c"/>
<line x1="403.9506172839503" y1="498.0" x2="403.9506172839503" y2="502.79999999999995" stroke="#000"/>
<text x="403.9506172839503" y="512.4" fill="#111" font-size="small" text-anchor="end" transform="rotate(-60, 403.9506172839503, 512.4)">
graphql-native
</text>
<rect x="432.96296296296265" y="424.69997340531404" width="11.604938271604937" height="73.3000265946859" fill="#785EF0" data-tooltip="1.09x baseline (CRuby 3.4.0dev)"/>
<line x1="432.96296296296265" y1="423.6821134862078" x2="444.56790123456756" y2="423.6821134862078" stroke-dasharray="1,0.5" stroke="#333c"/>
<line x1="432.96296296296265" y1="425.7178333244203" x2="444.56790123456756" y2="425.7178333244203" stroke-dasharray="1,0.5" stroke="#333c"/>
<line x1="438.76543209876513" y1="423.6821134862078" x2="438.76543209876513" y2="425.7178333244203" stroke-dasharray="1,0.5" stroke="#333c"/>
<rect x="444.56790123456756" y="407.09231513771635" width="11.604938271604937" height="90.90768486228365" fill="#FFB000" data-tooltip="1.36x baseline (YJIT 3.3.1)"/>
<line x1="444.56790123456756" y1="405.7382496953287" x2="456.17283950617247" y2="405.7382496953287" stroke-dasharray="1,0.5" stroke="#333c"/>
<line x1="444.56790123456756" y1="408.446380580104" x2="456.17283950617247" y2="408.446380580104" stroke-dasharray="1,0.5" stroke="#333c"/>
<line x1="450.37037037037004" y1="405.7382496953287" x2="450.37037037037004" y2="408.446380580104" stroke-dasharray="1,0.5" stroke="#333c"/>
<rect x="456.17283950617247" y="389.1640197643822" width="11.604938271604937" height="108.83598023561774" fill="#DC267F" data-tooltip="1.62x baseline (YJIT 3.4.0dev)"/>
<line x1="456.17283950617247" y1="387.6888248521022" x2="467.77777777777743" y2="387.6888248521022" stroke-dasharray="1,0.5" stroke="#333c"/>
<line x1="456.17283950617247" y1="390.63921467666216" x2="467.77777777777743" y2="390.63921467666216" stroke-dasharray="1,0.5" stroke="#333c"/>
<line x1="461.97530864197495" y1="387.6888248521022" x2="461.97530864197495" y2="390.63921467666216" stroke-dasharray="1,0.5" stroke="#333c"/>
<line x1="450.37037037037" y1="498.0" x2="450.37037037037" y2="502.79999999999995" stroke="#000"/>
<text x="450.37037037037" y="512.4" fill="#111" font-size="small" text-anchor="end" transform="rotate(-60, 450.37037037037, 512.4)">
lee
</text>
<rect x="479.38271604938234" y="433.8061822363473" width="11.604938271604937" height="64.19381776365269" fill="#785EF0" data-tooltip="0.96x baseline (CRuby 3.4.0dev)"/>
<line x1="479.38271604938234" y1="431.3053251666361" x2="490.98765432098725" y2="431.3053251666361" stroke-dasharray="1,0.5" stroke="#333c"/>
<line x1="479.38271604938234" y1="436.30703930605847" x2="490.98765432098725" y2="436.30703930605847" stroke-dasharray="1,0.5" stroke="#333c"/>
<line x1="485.18518518518476" y1="431.3053251666361" x2="485.18518518518476" y2="436.30703930605847" stroke-dasharray="1,0.5" stroke="#333c"/>
<rect x="490.98765432098725" y="375.49545981357767" width="11.604938271604937" height="122.50454018642232" fill="#FFB000" data-tooltip="1.83x baseline (YJIT 3.3.1)"/>
<line x1="490.98765432098725" y1="371.6904420272225" x2="502.59259259259215" y2="371.6904420272225" stroke-dasharray="1,0.5" stroke="#333c"/>
<line x1="490.98765432098725" y1="379.3004775999328" x2="502.59259259259215" y2="379.3004775999328" stroke-dasharray="1,0.5" stroke="#333c"/>
<line x1="496.7901234567897" y1="371.6904420272225" x2="496.7901234567897" y2="379.3004775999328" stroke-dasharray="1,0.5" stroke="#333c"/>
<rect x="502.59259259259215" y="373.7758514814019" width="11.604938271604937" height="124.2241485185981" fill="#DC267F" data-tooltip="1.85x baseline (YJIT 3.4.0dev)"/>
<line x1="502.59259259259215" y1="369.92802954083595" x2="514.197530864197" y2="369.92802954083595" stroke-dasharray="1,0.5" stroke="#333c"/>
<line x1="502.59259259259215" y1="377.62367342196785" x2="514.197530864197" y2="377.62367342196785" stroke-dasharray="1,0.5" stroke="#333c"/>
<line x1="508.39506172839464" y1="369.92802954083595" x2="508.39506172839464" y2="377.62367342196785" stroke-dasharray="1,0.5" stroke="#333c"/>
<line x1="496.7901234567896" y1="498.0" x2="496.7901234567896" y2="502.79999999999995" stroke="#000"/>
<text x="496.7901234567896" y="512.4" fill="#111" font-size="small" text-anchor="end" transform="rotate(-60, 496.7901234567896, 512.4)">
matmul
</text>
<rect x="525.802469135802" y="431.67103279540385" width="11.604938271604937" height="66.3289672045962" fill="#785EF0" data-tooltip="0.99x baseline (CRuby 3.4.0dev)"/>
<line x1="525.802469135802" y1="430.0756091090405" x2="537.4074074074069" y2="430.0756091090405" stroke-dasharray="1,0.5" stroke="#333c"/>
<line x1="525.802469135802" y1="433.26645648176714" x2="537.4074074074069" y2="433.26645648176714" stroke-dasharray="1,0.5" stroke="#333c"/>
<line x1="531.6049382716045" y1="430.0756091090405" x2="531.6049382716045" y2="433.26645648176714" stroke-dasharray="1,0.5" stroke="#333c"/>
<rect x="537.4074074074069" y="341.0721888912983" width="11.604938271604937" height="156.9278111087017" fill="#FFB000" data-tooltip="2.34x baseline (YJIT 3.3.1)"/>
<line x1="537.4074074074069" y1="337.8794282160964" x2="549.0123456790118" y2="337.8794282160964" stroke-dasharray="1,0.5" stroke="#333c"/>
<line x1="537.4074074074069" y1="344.26494956650015" x2="549.0123456790118" y2="344.26494956650015" stroke-dasharray="1,0.5" stroke="#333c"/>
<line x1="543.2098765432094" y1="337.8794282160964" x2="543.2098765432094" y2="344.26494956650015" stroke-dasharray="1,0.5" stroke="#333c"/>
<rect x="549.0123456790118" y="331.80822702684867" width="11.604938271604937" height="166.19177297315122" fill="#DC267F" data-tooltip="2.48x baseline (YJIT 3.4.0dev)"/>
<line x1="549.0123456790118" y1="328.4569438766527" x2="560.6172839506168" y2="328.4569438766527" stroke-dasharray="1,0.5" stroke="#333c"/>
<line x1="549.0123456790118" y1="335.15951017704464" x2="560.6172839506168" y2="335.15951017704464" stroke-dasharray="1,0.5" stroke="#333c"/>
<line x1="554.8148148148143" y1="328.4569438766527" x2="554.8148148148143" y2="335.15951017704464" stroke-dasharray="1,0.5" stroke="#333c"/>
<line x1="543.2098765432092" y1="498.0" x2="543.2098765432092" y2="502.79999999999995" stroke="#000"/>
<text x="543.2098765432092" y="512.4" fill="#111" font-size="small" text-anchor="end" transform="rotate(-60, 543.2098765432092, 512.4)">
nbody
</text>
<rect x="572.2222222222216" y="425.4180412618937" width="11.604938271604937" height="72.5819587381063" fill="#785EF0" data-tooltip="1.08x baseline (CRuby 3.4.0dev)"/>
<line x1="572.2222222222216" y1="423.0690887936132" x2="583.8271604938266" y2="423.0690887936132" stroke-dasharray="1,0.5" stroke="#333c"/>
<line x1="572.2222222222216" y1="427.7669937301741" x2="583.8271604938266" y2="427.7669937301741" stroke-dasharray="1,0.5" stroke="#333c"/>
<line x1="578.0246913580241" y1="423.0690887936132" x2="578.0246913580241" y2="427.7669937301741" stroke-dasharray="1,0.5" stroke="#333c"/>
<rect x="583.8271604938266" y="430.3776958033319" width="11.604938271604937" height="67.62230419666808" fill="#FFB000" data-tooltip="1.01x baseline (YJIT 3.3.1)"/>
<line x1="583.8271604938266" y1="428.26497778276604" x2="595.4320987654314" y2="428.26497778276604" stroke-dasharray="1,0.5" stroke="#333c"/>
<line x1="583.8271604938266" y1="432.49041382389777" x2="595.4320987654314" y2="432.49041382389777" stroke-dasharray="1,0.5" stroke="#333c"/>
<line x1="589.6296296296291" y1="428.26497778276604" x2="589.6296296296291" y2="432.49041382389777" stroke-dasharray="1,0.5" stroke="#333c"/>
<rect x="595.4320987654314" y="100.19999999999999" width="11.604938271604937" height="397.79999999999995" fill="#DC267F" data-tooltip="5.94x baseline (YJIT 3.4.0dev)"/>
<line x1="595.4320987654314" y1="93.44684536718421" x2="607.0370370370364" y2="93.44684536718421" stroke-dasharray="1,0.5" stroke="#333c"/>
<line x1="595.4320987654314" y1="106.95315463281577" x2="607.0370370370364" y2="106.95315463281577" stroke-dasharray="1,0.5" stroke="#333c"/>
<line x1="601.234567901234" y1="93.44684536718421" x2="601.234567901234" y2="106.95315463281577" stroke-dasharray="1,0.5" stroke="#333c"/>
<line x1="589.629629629629" y1="498.0" x2="589.629629629629" y2="502.79999999999995" stroke="#000"/>
<text x="589.629629629629" y="512.4" fill="#111" font-size="small" text-anchor="end" transform="rotate(-60, 589.629629629629, 512.4)">
nqueens
</text>
<rect x="618.6419753086412" y="425.65264442405703" width="11.604938271604937" height="72.3473555759429" fill="#785EF0" data-tooltip="1.08x baseline (CRuby 3.4.0dev)"/>
<line x1="618.6419753086412" y1="425.1800584457373" x2="630.2469135802462" y2="425.1800584457373" stroke-dasharray="1,0.5" stroke="#333c"/>
<line x1="618.6419753086412" y1="426.1252304023767" x2="630.2469135802462" y2="426.1252304023767" stroke-dasharray="1,0.5" stroke="#333c"/>
<line x1="624.4444444444438" y1="425.1800584457373" x2="624.4444444444438" y2="426.1252304023767" stroke-dasharray="1,0.5" stroke="#333c"/>
<rect x="630.2469135802462" y="343.07483805905656" width="11.604938271604937" height="154.92516194094335" fill="#FFB000" data-tooltip="2.31x baseline (YJIT 3.3.1)"/>
<line x1="630.2469135802462" y1="342.00294096085184" x2="641.8518518518512" y2="342.00294096085184" stroke-dasharray="1,0.5" stroke="#333c"/>
<line x1="630.2469135802462" y1="344.14673515726133" x2="641.8518518518512" y2="344.14673515726133" stroke-dasharray="1,0.5" stroke="#333c"/>
<line x1="636.0493827160487" y1="342.00294096085184" x2="636.0493827160487" y2="344.14673515726133" stroke-dasharray="1,0.5" stroke="#333c"/>
<rect x="641.8518518518512" y="327.4688580305913" width="11.604938271604937" height="170.53114196940857" fill="#DC267F" data-tooltip="2.55x baseline (YJIT 3.4.0dev)"/>
<line x1="641.8518518518512" y1="326.3517516851333" x2="653.456790123456" y2="326.3517516851333" stroke-dasharray="1,0.5" stroke="#333c"/>
<line x1="641.8518518518512" y1="328.5859643760494" x2="653.456790123456" y2="328.5859643760494" stroke-dasharray="1,0.5" stroke="#333c"/>
<line x1="647.6543209876536" y1="326.3517516851333" x2="647.6543209876536" y2="328.5859643760494" stroke-dasharray="1,0.5" stroke="#333c"/>
<line x1="636.0493827160486" y1="498.0" x2="636.0493827160486" y2="502.79999999999995" stroke="#000"/>
<text x="636.0493827160486" y="512.4" fill="#111" font-size="small" text-anchor="end" transform="rotate(-60, 636.0493827160486, 512.4)">
optcarrot
</text>
<rect x="665.061728395061" y="429.28067388915395" width="11.604938271604937" height="68.719326110846" fill="#785EF0" data-tooltip="1.03x baseline (CRuby 3.4.0dev)"/>
<line x1="665.061728395061" y1="428.3194198175025" x2="676.6666666666658" y2="428.3194198175025" stroke-dasharray="1,0.5" stroke="#333c"/>
<line x1="665.061728395061" y1="430.24192796080547" x2="676.6666666666658" y2="430.24192796080547" stroke-dasharray="1,0.5" stroke="#333c"/>
<line x1="670.8641975308634" y1="428.3194198175025" x2="670.8641975308634" y2="430.24192796080547" stroke-dasharray="1,0.5" stroke="#333c"/>
<rect x="676.6666666666658" y="359.6838995033823" width="11.604938271604937" height="138.31610049661762" fill="#FFB000" data-tooltip="2.06x baseline (YJIT 3.3.1)"/>
<line x1="676.6666666666658" y1="358.3877970474383" x2="688.2716049382708" y2="358.3877970474383" stroke-dasharray="1,0.5" stroke="#333c"/>
<line x1="676.6666666666658" y1="360.9800019593263" x2="688.2716049382708" y2="360.9800019593263" stroke-dasharray="1,0.5" stroke="#333c"/>
<line x1="682.4691358024684" y1="358.3877970474383" x2="682.4691358024684" y2="360.9800019593263" stroke-dasharray="1,0.5" stroke="#333c"/>
<rect x="688.2716049382708" y="286.0422546119401" width="11.604938271604937" height="211.95774538805986" fill="#DC267F" data-tooltip="3.16x baseline (YJIT 3.4.0dev)"/>
<line x1="688.2716049382708" y1="284.0982364087557" x2="699.8765432098756" y2="284.0982364087557" stroke-dasharray="1,0.5" stroke="#333c"/>
<line x1="688.2716049382708" y1="287.98627281512444" x2="699.8765432098756" y2="287.98627281512444" stroke-dasharray="1,0.5" stroke="#333c"/>
<line x1="694.0740740740733" y1="284.0982364087557" x2="694.0740740740733" y2="287.98627281512444" stroke-dasharray="1,0.5" stroke="#333c"/>
<line x1="682.4691358024683" y1="498.0" x2="682.4691358024683" y2="502.79999999999995" stroke="#000"/>
<text x="682.4691358024683" y="512.4" fill="#111" font-size="small" text-anchor="end" transform="rotate(-60, 682.4691358024683, 512.4)">
protoboeuf
</text>
<rect x="711.4814814814806" y="426.35013913758814" width="11.604938271604937" height="71.64986086241184" fill="#785EF0" data-tooltip="1.07x baseline (CRuby 3.4.0dev)"/>
<line x1="711.4814814814806" y1="425.8984982562768" x2="723.0864197530855" y2="425.8984982562768" stroke-dasharray="1,0.5" stroke="#333c"/>
<line x1="711.4814814814806" y1="426.8017800188994" x2="723.0864197530855" y2="426.8017800188994" stroke-dasharray="1,0.5" stroke="#333c"/>
<line x1="717.2839506172832" y1="425.8984982562768" x2="717.2839506172832" y2="426.8017800188994" stroke-dasharray="1,0.5" stroke="#333c"/>
<rect x="723.0864197530855" y="403.33759750796554" width="11.604938271604937" height="94.66240249203436" fill="#FFB000" data-tooltip="1.41x baseline (YJIT 3.3.1)"/>
<line x1="723.0864197530855" y1="402.6711618790334" x2="734.6913580246904" y2="402.6711618790334" stroke-dasharray="1,0.5" stroke="#333c"/>
<line x1="723.0864197530855" y1="404.0040331368977" x2="734.6913580246904" y2="404.0040331368977" stroke-dasharray="1,0.5" stroke="#333c"/>
<line x1="728.888888888888" y1="402.6711618790334" x2="728.888888888888" y2="404.0040331368977" stroke-dasharray="1,0.5" stroke="#333c"/>
<rect x="734.6913580246904" y="390.8836804248141" width="11.604938271604937" height="107.11631957518587" fill="#DC267F" data-tooltip="1.60x baseline (YJIT 3.4.0dev)"/>
<line x1="734.6913580246904" y1="389.58699500132326" x2="746.2962962962954" y2="389.58699500132326" stroke-dasharray="1,0.5" stroke="#333c"/>
<line x1="734.6913580246904" y1="392.180365848305" x2="746.2962962962954" y2="392.180365848305" stroke-dasharray="1,0.5" stroke="#333c"/>
<line x1="740.493827160493" y1="389.58699500132326" x2="740.493827160493" y2="392.180365848305" stroke-dasharray="1,0.5" stroke="#333c"/>
<line x1="728.8888888888879" y1="498.0" x2="728.8888888888879" y2="502.79999999999995" stroke="#000"/>
<text x="728.8888888888879" y="512.4" fill="#111" font-size="small" text-anchor="end" transform="rotate(-60, 728.8888888888879, 512.4)">
rack
</text>
<rect x="757.9012345679002" y="424.2389013862246" width="11.604938271604937" height="73.76109861377527" fill="#785EF0" data-tooltip="1.10x baseline (CRuby 3.4.0dev)"/>
<line x1="757.9012345679002" y1="424.14555887079604" x2="769.5061728395052" y2="424.14555887079604" stroke-dasharray="1,0.5" stroke="#333c"/>
<line x1="757.9012345679002" y1="424.33224390165316" x2="769.5061728395052" y2="424.33224390165316" stroke-dasharray="1,0.5" stroke="#333c"/>
<line x1="763.7037037037028" y1="424.14555887079604" x2="763.7037037037028" y2="424.33224390165316" stroke-dasharray="1,0.5" stroke="#333c"/>
<rect x="769.5061728395052" y="414.9802002583691" width="11.604938271604937" height="83.01979974163089" fill="#FFB000" data-tooltip="1.24x baseline (YJIT 3.3.1)"/>
<line x1="769.5061728395052" y1="414.87329517103643" x2="781.1111111111101" y2="414.87329517103643" stroke-dasharray="1,0.5" stroke="#333c"/>
<line x1="769.5061728395052" y1="415.08710534570173" x2="781.1111111111101" y2="415.08710534570173" stroke-dasharray="1,0.5" stroke="#333c"/>
<line x1="775.3086419753076" y1="414.87329517103643" x2="775.3086419753076" y2="415.08710534570173" stroke-dasharray="1,0.5" stroke="#333c"/>
<rect x="781.1111111111101" y="411.082008440434" width="11.604938271604937" height="86.91799155956592" fill="#DC267F" data-tooltip="1.30x baseline (YJIT 3.4.0dev)"/>
<line x1="781.1111111111101" y1="410.94799448656596" x2="792.716049382715" y2="410.94799448656596" stroke-dasharray="1,0.5" stroke="#333c"/>
<line x1="781.1111111111101" y1="411.216022394302" x2="792.716049382715" y2="411.216022394302" stroke-dasharray="1,0.5" stroke="#333c"/>
<line x1="786.9135802469126" y1="410.94799448656596" x2="786.9135802469126" y2="411.216022394302" stroke-dasharray="1,0.5" stroke="#333c"/>
<line x1="775.3086419753075" y1="498.0" x2="775.3086419753075" y2="502.79999999999995" stroke="#000"/>
<text x="775.3086419753075" y="512.4" fill="#111" font-size="small" text-anchor="end" transform="rotate(-60, 775.3086419753075, 512.4)">
ruby-json
</text>
<rect x="804.3209876543199" y="433.03777671955453" width="11.604938271604937" height="64.96222328044536" fill="#785EF0" data-tooltip="0.97x baseline (CRuby 3.4.0dev)"/>
<line x1="804.3209876543199" y1="432.2537461842399" x2="815.9259259259248" y2="432.2537461842399" stroke-dasharray="1,0.5" stroke="#333c"/>
<line x1="804.3209876543199" y1="433.82180725486916" x2="815.9259259259248" y2="433.82180725486916" stroke-dasharray="1,0.5" stroke="#333c"/>
<line x1="810.1234567901224" y1="432.2537461842399" x2="810.1234567901224" y2="433.82180725486916" stroke-dasharray="1,0.5" stroke="#333c"/>
<rect x="815.9259259259248" y="385.060037483102" width="11.604938271604937" height="112.93996251689798" fill="#FFB000" data-tooltip="1.69x baseline (YJIT 3.3.1)"/>
<line x1="815.9259259259248" y1="384.1911478153697" x2="827.5308641975297" y2="384.1911478153697" stroke-dasharray="1,0.5" stroke="#333c"/>
<line x1="815.9259259259248" y1="385.9289271508343" x2="827.5308641975297" y2="385.9289271508343" stroke-dasharray="1,0.5" stroke="#333c"/>
<line x1="821.7283950617274" y1="384.1911478153697" x2="821.7283950617274" y2="385.9289271508343" stroke-dasharray="1,0.5" stroke="#333c"/>
<rect x="827.5308641975297" y="377.8764218788394" width="11.604938271604937" height="120.12357812116053" fill="#DC267F" data-tooltip="1.79x baseline (YJIT 3.4.0dev)"/>
<line x1="827.5308641975297" y1="376.48112869450705" x2="839.1358024691347" y2="376.48112869450705" stroke-dasharray="1,0.5" stroke="#333c"/>
<line x1="827.5308641975297" y1="379.27171506317177" x2="839.1358024691347" y2="379.27171506317177" stroke-dasharray="1,0.5" stroke="#333c"/>
<line x1="833.3333333333322" y1="376.48112869450705" x2="833.3333333333322" y2="379.27171506317177" stroke-dasharray="1,0.5" stroke="#333c"/>
<line x1="821.7283950617273" y1="498.0" x2="821.7283950617273" y2="502.79999999999995" stroke="#000"/>
<text x="821.7283950617273" y="512.4" fill="#111" font-size="small" text-anchor="end" transform="rotate(-60, 821.7283950617273, 512.4)">
rubykon
</text>
<rect x="850.7407407407396" y="427.9344623029119" width="11.604938271604937" height="70.06553769708793" fill="#785EF0" data-tooltip="1.05x baseline (CRuby 3.4.0dev)"/>
<line x1="850.7407407407396" y1="427.3340696670923" x2="862.3456790123445" y2="427.3340696670923" stroke-dasharray="1,0.5" stroke="#333c"/>
<line x1="850.7407407407396" y1="428.5348549387316" x2="862.3456790123445" y2="428.5348549387316" stroke-dasharray="1,0.5" stroke="#333c"/>
<line x1="856.543209876542" y1="427.3340696670923" x2="856.543209876542" y2="428.5348549387316" stroke-dasharray="1,0.5" stroke="#333c"/>
<rect x="862.3456790123445" y="296.27466404309416" width="11.604938271604937" height="201.72533595690575" fill="#FFB000" data-tooltip="3.01x baseline (YJIT 3.3.1)"/>
<line x1="862.3456790123445" y1="294.80000362190174" x2="873.9506172839494" y2="294.80000362190174" stroke-dasharray="1,0.5" stroke="#333c"/>
<line x1="862.3456790123445" y1="297.7493244642866" x2="873.9506172839494" y2="297.7493244642866" stroke-dasharray="1,0.5" stroke="#333c"/>
<line x1="868.148148148147" y1="294.80000362190174" x2="868.148148148147" y2="297.7493244642866" stroke-dasharray="1,0.5" stroke="#333c"/>
<rect x="873.9506172839494" y="267.25131358894595" width="11.604938271604937" height="230.74868641105402" fill="#DC267F" data-tooltip="3.44x baseline (YJIT 3.4.0dev)"/>
<line x1="873.9506172839494" y1="265.56393565827597" x2="885.5555555555543" y2="265.56393565827597" stroke-dasharray="1,0.5" stroke="#333c"/>
<line x1="873.9506172839494" y1="268.93869151961593" x2="885.5555555555543" y2="268.93869151961593" stroke-dasharray="1,0.5" stroke="#333c"/>
<line x1="879.7530864197519" y1="265.56393565827597" x2="879.7530864197519" y2="268.93869151961593" stroke-dasharray="1,0.5" stroke="#333c"/>
<line x1="868.1481481481469" y1="498.0" x2="868.1481481481469" y2="502.79999999999995" stroke="#000"/>
<text x="868.1481481481469" y="512.4" fill="#111" font-size="small" text-anchor="end" transform="rotate(-60, 868.1481481481469, 512.4)">
sudoku
</text>
<rect x="897.1604938271593" y="426.67055817454786" width="11.604938271604937" height="71.32944182545201" fill="#785EF0" data-tooltip="1.06x baseline (CRuby 3.4.0dev)"/>
<line x1="897.1604938271593" y1="426.3292405603533" x2="908.7654320987641" y2="426.3292405603533" stroke-dasharray="1,0.5" stroke="#333c"/>
<line x1="897.1604938271593" y1="427.0118757887425" x2="908.7654320987641" y2="427.0118757887425" stroke-dasharray="1,0.5" stroke="#333c"/>
<line x1="902.9629629629618" y1="426.3292405603533" x2="902.9629629629618" y2="427.0118757887425" stroke-dasharray="1,0.5" stroke="#333c"/>
<rect x="908.7654320987641" y="370.79271900493546" width="11.604938271604937" height="127.20728099506442" fill="#FFB000" data-tooltip="1.90x baseline (YJIT 3.3.1)"/>
<line x1="908.7654320987641" y1="370.249236480931" x2="920.3703703703691" y2="370.249236480931" stroke-dasharray="1,0.5" stroke="#333c"/>
<line x1="908.7654320987641" y1="371.3362015289399" x2="920.3703703703691" y2="371.3362015289399" stroke-dasharray="1,0.5" stroke="#333c"/>
<line x1="914.5679012345666" y1="370.249236480931" x2="914.5679012345666" y2="371.3362015289399" stroke-dasharray="1,0.5" stroke="#333c"/>
<rect x="920.3703703703691" y="363.5958416155581" width="11.604938271604937" height="134.4041583844419" fill="#DC267F" data-tooltip="2.01x baseline (YJIT 3.4.0dev)"/>
<line x1="920.3703703703691" y1="363.0189670608839" x2="931.9753086419739" y2="363.0189670608839" stroke-dasharray="1,0.5" stroke="#333c"/>
<line x1="920.3703703703691" y1="364.17271617023226" x2="931.9753086419739" y2="364.17271617023226" stroke-dasharray="1,0.5" stroke="#333c"/>
<line x1="926.1728395061716" y1="363.0189670608839" x2="926.1728395061716" y2="364.17271617023226" stroke-dasharray="1,0.5" stroke="#333c"/>
<line x1="914.5679012345665" y1="498.0" x2="914.5679012345665" y2="502.79999999999995" stroke="#000"/>
<text x="914.5679012345665" y="512.4" fill="#111" font-size="small" text-anchor="end" transform="rotate(-60, 914.5679012345665, 512.4)">
tinygql
</text>
<rect x="943.5802469135789" y="427.747628450875" width="11.604938271604937" height="70.25237154912486" fill="#785EF0" data-tooltip="1.05x baseline (CRuby 3.4.0dev)"/>
<rect x="955.1851851851839" y="385.9127938442375" width="11.604938271604937" height="112.0872061557624" fill="#FFB000" data-tooltip="1.67x baseline (YJIT 3.3.1)"/>
<rect x="966.7901234567887" y="363.9543353392341" width="11.604938271604937" height="134.0456646607658" fill="#DC267F" data-tooltip="2.00x baseline (YJIT 3.4.0dev)"/>
<line x1="960.9876543209862" y1="498.0" x2="960.9876543209862" y2="502.79999999999995" stroke="#000"/>
<text x="960.9876543209862" y="512.4" fill="#111" font-size="small" text-anchor="end" transform="rotate(-60, 960.9876543209862, 512.4)" font-style="italic">
geomean*
</text>
<line x1="50.0" y1="431.01386911059967" x2="990.0" y2="431.01386911059967" stroke="#648FFF" stroke-width="2"/>
</svg>