<svg viewBox="0 0 1000 600" xmlns="http://www.w3.org/2000/svg" xmlns:xlink="http://www.w3.org/1999/xlink" width="100%" height="100%">

<rect x="50.0" y="30.0" width="940.0" height="467.99999999999994" stroke="#000" fill="#EEE"/>
<line x1="42.0" y1="497.9999999999999" x2="50.0" y2="497.9999999999999" stroke="#000"/>
<text x="26.000000000000004" y="497.9999999999999" text-anchor="end" font-weight="bold" font-size="small" fill="#111">
0.0
</text>
<line x1="42.0" y1="427.2726899204299" x2="50.0" y2="427.2726899204299" stroke="#000"/>
<text x="26.000000000000004" y="427.2726899204299" text-anchor="end" font-weight="bold" font-size="small" fill="#111">
1.0
</text>
<line x1="42.0" y1="356.54537984085977" x2="50.0" y2="356.54537984085977" stroke="#000"/>
<text x="26.000000000000004" y="356.54537984085977" text-anchor="end" font-weight="bold" font-size="small" fill="#111">
2.0
</text>
<line x1="42.0" y1="285.81806976128973" x2="50.0" y2="285.81806976128973" stroke="#000"/>
<text x="26.000000000000004" y="285.81806976128973" text-anchor="end" font-weight="bold" font-size="small" fill="#111">
3.0
</text>
<line x1="42.0" y1="215.09075968171965" x2="50.0" y2="215.09075968171965" stroke="#000"/>
<text x="26.000000000000004" y="215.09075968171965" text-anchor="end" font-weight="bold" font-size="small" fill="#111">
4.0
</text>
<line x1="42.0" y1="144.3634496021496" x2="50.0" y2="144.3634496021496" stroke="#000"/>
<text x="26.000000000000004" y="144.3634496021496" text-anchor="end" font-weight="bold" font-size="small" fill="#111">
5.0
</text>
<rect x="268.5" y="36.00000000000001" width="80.0" height="18.0" fill="#7070f8" stroke="#888"/>
<text x="308.5" y="52.50000000000001" font-size="small" text-anchor="middle" font-weight="bold" fill="#EEE">
No JIT
</text>
<rect x="691.4999999999999" y="36.00000000000001" width="80.0" height="18.0" fill="orange" stroke="#888"/>
<text x="731.4999999999999" y="52.50000000000001" font-size="small" text-anchor="middle" font-weight="bold" fill="#EEE">
YJIT
</text>
<rect x="97.0" y="427.2726899204299" width="14.842105263157894" height="70.72731007957007" fill="#7070f8" data-tooltip="1.00x baseline speed (No JIT)"/>
<line x1="97.0" y1="426.689774736866" x2="111.84210526315789" y2="426.689774736866" stroke="#000"/>
<line x1="97.0" y1="427.8556051039938" x2="111.84210526315789" y2="427.8556051039938" stroke="#000"/>
<line x1="104.42105263157896" y1="426.689774736866" x2="104.42105263157896" y2="427.8556051039938" stroke="#000"/>
<rect x="111.84210526315789" y="343.8838550292849" width="14.842105263157894" height="154.11614497071506" fill="orange" data-tooltip="2.18x baseline speed (YJIT)"/>
<line x1="111.84210526315789" y1="340.77069562615344" x2="126.6842105263158" y2="340.77069562615344" stroke="#000"/>
<line x1="111.84210526315789" y1="346.99701443241634" x2="126.6842105263158" y2="346.99701443241634" stroke="#000"/>
<line x1="119.26315789473685" y1="340.77069562615344" x2="119.26315789473685" y2="346.99701443241634" stroke="#000"/>
<line x1="119.26315789473685" y1="498.0" x2="119.26315789473685" y2="502.79999999999995" stroke="#000"/>
<text x="119.26315789473685" y="512.4" fill="#111" font-size="small" font-family="monospace" font-weight="bold" text-anchor="end" transform="rotate(-60, 119.26315789473685, 512.4)">
binarytrees
</text>
<rect x="141.5263157894737" y="427.2726899204299" width="14.842105263157894" height="70.72731007957007" fill="#7070f8" data-tooltip="1.00x baseline speed (No JIT)"/>
<line x1="141.5263157894737" y1="426.7538250265266" x2="156.3684210526316" y2="426.7538250265266" stroke="#000"/>
<line x1="141.5263157894737" y1="427.7915548143332" x2="156.3684210526316" y2="427.7915548143332" stroke="#000"/>
<line x1="148.94736842105263" y1="426.7538250265266" x2="148.94736842105263" y2="427.7915548143332" stroke="#000"/>
<rect x="156.3684210526316" y="326.01940791630295" width="14.842105263157894" height="171.98059208369705" fill="orange" data-tooltip="2.43x baseline speed (YJIT)"/>
<line x1="156.3684210526316" y1="324.62839612165817" x2="171.2105263157895" y2="324.62839612165817" stroke="#000"/>
<line x1="156.3684210526316" y1="327.41041971094774" x2="171.2105263157895" y2="327.41041971094774" stroke="#000"/>
<line x1="163.78947368421055" y1="324.62839612165817" x2="163.78947368421055" y2="327.41041971094774" stroke="#000"/>
<line x1="163.78947368421055" y1="498.0" x2="163.78947368421055" y2="502.79999999999995" stroke="#000"/>
<text x="163.78947368421055" y="512.4" fill="#111" font-size="small" font-family="monospace" font-weight="bold" text-anchor="end" transform="rotate(-60, 163.78947368421055, 512.4)">
blurhash
</text>
<rect x="186.05263157894737" y="427.2726899204299" width="14.842105263157894" height="70.72731007957007" fill="#7070f8" data-tooltip="1.00x baseline speed (No JIT)"/>
<line x1="186.05263157894737" y1="427.1879473494016" x2="200.89473684210526" y2="427.1879473494016" stroke="#000"/>
<line x1="186.05263157894737" y1="427.3574324914582" x2="200.89473684210526" y2="427.3574324914582" stroke="#000"/>
<line x1="193.4736842105263" y1="427.1879473494016" x2="193.4736842105263" y2="427.3574324914582" stroke="#000"/>
<rect x="200.89473684210526" y="411.01555807571015" width="14.842105263157894" height="86.9844419242898" fill="orange" data-tooltip="1.23x baseline speed (YJIT)"/>
<line x1="200.89473684210526" y1="410.87769855294044" x2="215.73684210526318" y2="410.87769855294044" stroke="#000"/>
<line x1="200.89473684210526" y1="411.1534175984799" x2="215.73684210526318" y2="411.1534175984799" stroke="#000"/>
<line x1="208.3157894736842" y1="410.87769855294044" x2="208.3157894736842" y2="411.1534175984799" stroke="#000"/>
<line x1="208.3157894736842" y1="498.0" x2="208.3157894736842" y2="502.79999999999995" stroke="#000"/>
<text x="208.3157894736842" y="512.4" fill="#111" font-size="small" font-family="monospace" font-weight="bold" text-anchor="end" transform="rotate(-60, 208.3157894736842, 512.4)">
erubi
</text>
<rect x="230.57894736842104" y="427.2726899204299" width="14.842105263157894" height="70.72731007957007" fill="#7070f8" data-tooltip="1.00x baseline speed (No JIT)"/>
<line x1="230.57894736842104" y1="427.2282773622889" x2="245.42105263157896" y2="427.2282773622889" stroke="#000"/>
<line x1="230.57894736842104" y1="427.3171024785709" x2="245.42105263157896" y2="427.3171024785709" stroke="#000"/>
<line x1="238.0" y1="427.2282773622889" x2="238.0" y2="427.3171024785709" stroke="#000"/>
<rect x="245.42105263157896" y="424.7063565861802" width="14.842105263157894" height="73.29364341381981" fill="orange" data-tooltip="1.04x baseline speed (YJIT)"/>
<line x1="245.42105263157896" y1="424.63780237153907" x2="260.2631578947369" y2="424.63780237153907" stroke="#000"/>
<line x1="245.42105263157896" y1="424.7749108008214" x2="260.2631578947369" y2="424.7749108008214" stroke="#000"/>
<line x1="252.84210526315792" y1="424.63780237153907" x2="252.84210526315792" y2="424.7749108008214" stroke="#000"/>
<line x1="252.84210526315786" y1="498.0" x2="252.84210526315786" y2="502.79999999999995" stroke="#000"/>
<text x="252.84210526315786" y="512.4" fill="#111" font-size="small" font-family="monospace" font-weight="bold" text-anchor="end" transform="rotate(-60, 252.84210526315786, 512.4)">
etanni
</text>
<rect x="275.10526315789474" y="427.2726899204299" width="14.842105263157894" height="70.72731007957007" fill="#7070f8" data-tooltip="1.00x baseline speed (No JIT)"/>
<line x1="275.10526315789474" y1="426.51246887813" x2="289.9473684210526" y2="426.51246887813" stroke="#000"/>
<line x1="275.10526315789474" y1="428.03291096272983" x2="289.9473684210526" y2="428.03291096272983" stroke="#000"/>
<line x1="282.5263157894737" y1="426.51246887813" x2="282.5263157894737" y2="428.03291096272983" stroke="#000"/>
<rect x="289.9473684210526" y="210.20076102876948" width="14.842105263157894" height="287.79923897123047" fill="orange" data-tooltip="4.07x baseline speed (YJIT)"/>
<line x1="289.9473684210526" y1="207.06145351858177" x2="304.7894736842105" y2="207.06145351858177" stroke="#000"/>
<line x1="289.9473684210526" y1="213.34006853895715" x2="304.7894736842105" y2="213.34006853895715" stroke="#000"/>
<line x1="297.36842105263156" y1="207.06145351858177" x2="297.36842105263156" y2="213.34006853895715" stroke="#000"/>
<line x1="297.36842105263156" y1="498.0" x2="297.36842105263156" y2="502.79999999999995" stroke="#000"/>
<text x="297.36842105263156" y="512.4" fill="#111" font-size="small" font-family="monospace" font-weight="bold" text-anchor="end" transform="rotate(-60, 297.36842105263156, 512.4)">
fannkuchredux
</text>
<rect x="319.63157894736844" y="427.2726899204299" width="14.842105263157894" height="70.72731007957007" fill="#7070f8" data-tooltip="1.00x baseline speed (No JIT)"/>
<line x1="319.63157894736844" y1="427.08208133753254" x2="334.4736842105263" y2="427.08208133753254" stroke="#000"/>
<line x1="319.63157894736844" y1="427.4632985033273" x2="334.4736842105263" y2="427.4632985033273" stroke="#000"/>
<line x1="327.0526315789474" y1="427.08208133753254" x2="327.0526315789474" y2="427.4632985033273" stroke="#000"/>
<rect x="334.4736842105263" y="408.0694581753245" width="14.842105263157894" height="89.9305418246754" fill="orange" data-tooltip="1.27x baseline speed (YJIT)"/>
<line x1="334.4736842105263" y1="407.683489317874" x2="349.31578947368416" y2="407.683489317874" stroke="#000"/>
<line x1="334.4736842105263" y1="408.455427032775" x2="349.31578947368416" y2="408.455427032775" stroke="#000"/>
<line x1="341.89473684210526" y1="407.683489317874" x2="341.89473684210526" y2="408.455427032775" stroke="#000"/>
<line x1="341.89473684210526" y1="498.0" x2="341.89473684210526" y2="502.79999999999995" stroke="#000"/>
<text x="341.89473684210526" y="512.4" fill="#111" font-size="small" font-family="monospace" font-weight="bold" text-anchor="end" transform="rotate(-60, 341.89473684210526, 512.4)">
fluentd
</text>
<rect x="364.15789473684214" y="427.2726899204299" width="14.842105263157894" height="70.72731007957007" fill="#7070f8" data-tooltip="1.00x baseline speed (No JIT)"/>
<line x1="364.15789473684214" y1="427.1223311421678" x2="379.0" y2="427.1223311421678" stroke="#000"/>
<line x1="364.15789473684214" y1="427.423048698692" x2="379.0" y2="427.423048698692" stroke="#000"/>
<line x1="371.57894736842104" y1="427.1223311421678" x2="371.57894736842104" y2="427.423048698692" stroke="#000"/>
<rect x="379.0" y="410.6895088328716" width="14.842105263157894" height="87.31049116712838" fill="orange" data-tooltip="1.23x baseline speed (YJIT)"/>
<line x1="379.0" y1="410.4977044705589" x2="393.84210526315786" y2="410.4977044705589" stroke="#000"/>
<line x1="379.0" y1="410.88131319518425" x2="393.84210526315786" y2="410.88131319518425" stroke="#000"/>
<line x1="386.42105263157896" y1="410.4977044705589" x2="386.42105263157896" y2="410.88131319518425" stroke="#000"/>
<line x1="386.42105263157896" y1="498.0" x2="386.42105263157896" y2="502.79999999999995" stroke="#000"/>
<text x="386.42105263157896" y="512.4" fill="#111" font-size="small" font-family="monospace" font-weight="bold" text-anchor="end" transform="rotate(-60, 386.42105263157896, 512.4)">
graphql
</text>
<rect x="408.6842105263158" y="427.2726899204299" width="14.842105263157894" height="70.72731007957007" fill="#7070f8" data-tooltip="1.00x baseline speed (No JIT)"/>
<line x1="408.6842105263158" y1="427.21664653331743" x2="423.52631578947364" y2="427.21664653331743" stroke="#000"/>
<line x1="408.6842105263158" y1="427.3287333075424" x2="423.52631578947364" y2="427.3287333075424" stroke="#000"/>
<line x1="416.1052631578947" y1="427.21664653331743" x2="416.1052631578947" y2="427.3287333075424" stroke="#000"/>
<rect x="423.52631578947364" y="421.5476261888377" width="14.842105263157894" height="76.45237381116223" fill="orange" data-tooltip="1.08x baseline speed (YJIT)"/>
<line x1="423.52631578947364" y1="421.4713645960931" x2="438.3684210526315" y2="421.4713645960931" stroke="#000"/>
<line x1="423.52631578947364" y1="421.62388778158225" x2="438.3684210526315" y2="421.62388778158225" stroke="#000"/>
<line x1="430.9473684210526" y1="421.4713645960931" x2="430.9473684210526" y2="421.62388778158225" stroke="#000"/>
<line x1="430.9473684210526" y1="498.0" x2="430.9473684210526" y2="502.79999999999995" stroke="#000"/>
<text x="430.9473684210526" y="512.4" fill="#111" font-size="small" font-family="monospace" font-weight="bold" text-anchor="end" transform="rotate(-60, 430.9473684210526, 512.4)">
graphql-native
</text>
<rect x="453.2105263157895" y="427.2726899204299" width="14.842105263157894" height="70.72731007957007" fill="#7070f8" data-tooltip="1.00x baseline speed (No JIT)"/>
<line x1="453.2105263157895" y1="426.9528291073943" x2="468.0526315789474" y2="426.9528291073943" stroke="#000"/>
<line x1="453.2105263157895" y1="427.5925507334655" x2="468.0526315789474" y2="427.5925507334655" stroke="#000"/>
<line x1="460.63157894736844" y1="426.9528291073943" x2="460.63157894736844" y2="427.5925507334655" stroke="#000"/>
<rect x="468.0526315789474" y="400.33516745411737" width="14.842105263157894" height="97.66483254588259" fill="orange" data-tooltip="1.38x baseline speed (YJIT)"/>
<line x1="468.0526315789474" y1="399.5026378694814" x2="482.89473684210526" y2="399.5026378694814" stroke="#000"/>
<line x1="468.0526315789474" y1="401.16769703875326" x2="482.89473684210526" y2="401.16769703875326" stroke="#000"/>
<line x1="475.4736842105263" y1="399.5026378694814" x2="475.4736842105263" y2="401.16769703875326" stroke="#000"/>
<line x1="475.4736842105263" y1="498.0" x2="475.4736842105263" y2="502.79999999999995" stroke="#000"/>
<text x="475.4736842105263" y="512.4" fill="#111" font-size="small" font-family="monospace" font-weight="bold" text-anchor="end" transform="rotate(-60, 475.4736842105263, 512.4)">
lee
</text>
<rect x="497.7368421052631" y="427.2726899204299" width="14.842105263157894" height="70.72731007957007" fill="#7070f8" data-tooltip="1.00x baseline speed (No JIT)"/>
<line x1="497.7368421052631" y1="424.3474508165185" x2="512.578947368421" y2="424.3474508165185" stroke="#000"/>
<line x1="497.7368421052631" y1="430.1979290243413" x2="512.578947368421" y2="430.1979290243413" stroke="#000"/>
<line x1="505.15789473684214" y1="424.3474508165185" x2="505.15789473684214" y2="430.1979290243413" stroke="#000"/>
<rect x="512.578947368421" y="361.9604808068532" width="14.842105263157894" height="136.0395191931468" fill="orange" data-tooltip="1.92x baseline speed (YJIT)"/>
<line x1="512.578947368421" y1="356.3329849365944" x2="527.4210526315788" y2="356.3329849365944" stroke="#000"/>
<line x1="512.578947368421" y1="367.5879766771119" x2="527.4210526315788" y2="367.5879766771119" stroke="#000"/>
<line x1="520.0" y1="356.3329849365944" x2="520.0" y2="367.5879766771119" stroke="#000"/>
<line x1="520.0" y1="498.0" x2="520.0" y2="502.79999999999995" stroke="#000"/>
<text x="520.0" y="512.4" fill="#111" font-size="small" font-family="monospace" font-weight="bold" text-anchor="end" transform="rotate(-60, 520.0, 512.4)">
matmul
</text>
<rect x="542.2631578947369" y="427.2726899204299" width="14.842105263157894" height="70.72731007957007" fill="#7070f8" data-tooltip="1.00x baseline speed (No JIT)"/>
<line x1="542.2631578947369" y1="425.8811718711506" x2="557.1052631578948" y2="425.8811718711506" stroke="#000"/>
<line x1="542.2631578947369" y1="428.66420796970914" x2="557.1052631578948" y2="428.66420796970914" stroke="#000"/>
<line x1="549.6842105263158" y1="425.8811718711506" x2="549.6842105263158" y2="428.66420796970914" stroke="#000"/>
<rect x="557.1052631578948" y="319.9403729011537" width="14.842105263157894" height="178.05962709884625" fill="orange" data-tooltip="2.52x baseline speed (YJIT)"/>
<line x1="557.1052631578948" y1="316.27236285811875" x2="571.9473684210526" y2="316.27236285811875" stroke="#000"/>
<line x1="557.1052631578948" y1="323.60838294418863" x2="571.9473684210526" y2="323.60838294418863" stroke="#000"/>
<line x1="564.5263157894738" y1="316.27236285811875" x2="564.5263157894738" y2="323.60838294418863" stroke="#000"/>
<line x1="564.5263157894738" y1="498.0" x2="564.5263157894738" y2="502.79999999999995" stroke="#000"/>
<text x="564.5263157894738" y="512.4" fill="#111" font-size="small" font-family="monospace" font-weight="bold" text-anchor="end" transform="rotate(-60, 564.5263157894738, 512.4)">
nbody
</text>
<rect x="586.7894736842105" y="427.2726899204299" width="14.842105263157894" height="70.72731007957007" fill="#7070f8" data-tooltip="1.00x baseline speed (No JIT)"/>
<line x1="586.7894736842105" y1="426.5318555692249" x2="601.6315789473684" y2="426.5318555692249" stroke="#000"/>
<line x1="586.7894736842105" y1="428.01352427163494" x2="601.6315789473684" y2="428.01352427163494" stroke="#000"/>
<line x1="594.2105263157895" y1="426.5318555692249" x2="594.2105263157895" y2="428.01352427163494" stroke="#000"/>
<rect x="601.6315789473684" y="100.19999999999999" width="14.842105263157894" height="397.79999999999995" fill="orange" data-tooltip="5.62x baseline speed (YJIT)"/>
<line x1="601.6315789473684" y1="95.82352946889918" x2="616.4736842105262" y2="95.82352946889918" stroke="#000"/>
<line x1="601.6315789473684" y1="104.5764705311008" x2="616.4736842105262" y2="104.5764705311008" stroke="#000"/>
<line x1="609.0526315789474" y1="95.82352946889918" x2="609.0526315789474" y2="104.5764705311008" stroke="#000"/>
<line x1="609.0526315789474" y1="498.0" x2="609.0526315789474" y2="502.79999999999995" stroke="#000"/>
<text x="609.0526315789474" y="512.4" fill="#111" font-size="small" font-family="monospace" font-weight="bold" text-anchor="end" transform="rotate(-60, 609.0526315789474, 512.4)">
nqueens
</text>
<rect x="631.3157894736842" y="427.2726899204299" width="14.842105263157894" height="70.72731007957007" fill="#7070f8" data-tooltip="1.00x baseline speed (No JIT)"/>
<line x1="631.3157894736842" y1="426.9471182058433" x2="646.1578947368421" y2="426.9471182058433" stroke="#000"/>
<line x1="631.3157894736842" y1="427.5982616350165" x2="646.1578947368421" y2="427.5982616350165" stroke="#000"/>
<line x1="638.7368421052631" y1="426.9471182058433" x2="638.7368421052631" y2="427.5982616350165" stroke="#000"/>
<rect x="646.1578947368421" y="316.1476095557639" width="14.842105263157894" height="181.8523904442361" fill="orange" data-tooltip="2.57x baseline speed (YJIT)"/>
<line x1="646.1578947368421" y1="315.05129056532667" x2="660.9999999999999" y2="315.05129056532667" stroke="#000"/>
<line x1="646.1578947368421" y1="317.24392854620106" x2="660.9999999999999" y2="317.24392854620106" stroke="#000"/>
<line x1="653.578947368421" y1="315.05129056532667" x2="653.578947368421" y2="317.24392854620106" stroke="#000"/>
<line x1="653.578947368421" y1="498.0" x2="653.578947368421" y2="502.79999999999995" stroke="#000"/>
<text x="653.578947368421" y="512.4" fill="#111" font-size="small" font-family="monospace" font-weight="bold" text-anchor="end" transform="rotate(-60, 653.578947368421, 512.4)">
optcarrot
</text>
<rect x="675.8421052631579" y="427.2726899204299" width="14.842105263157894" height="70.72731007957007" fill="#7070f8" data-tooltip="1.00x baseline speed (No JIT)"/>
<line x1="675.8421052631579" y1="426.80686635462695" x2="690.6842105263158" y2="426.80686635462695" stroke="#000"/>
<line x1="675.8421052631579" y1="427.7385134862328" x2="690.6842105263158" y2="427.7385134862328" stroke="#000"/>
<line x1="683.2631578947369" y1="426.80686635462695" x2="683.2631578947369" y2="427.7385134862328" stroke="#000"/>
<rect x="690.6842105263158" y="301.8630905357952" width="14.842105263157894" height="196.1369094642047" fill="orange" data-tooltip="2.77x baseline speed (YJIT)"/>
<line x1="690.6842105263158" y1="300.5657295571818" x2="705.5263157894736" y2="300.5657295571818" stroke="#000"/>
<line x1="690.6842105263158" y1="303.16045151440863" x2="705.5263157894736" y2="303.16045151440863" stroke="#000"/>
<line x1="698.1052631578948" y1="300.5657295571818" x2="698.1052631578948" y2="303.16045151440863" stroke="#000"/>
<line x1="698.1052631578948" y1="498.0" x2="698.1052631578948" y2="502.79999999999995" stroke="#000"/>
<text x="698.1052631578948" y="512.4" fill="#111" font-size="small" font-family="monospace" font-weight="bold" text-anchor="end" transform="rotate(-60, 698.1052631578948, 512.4)">
protoboeuf
</text>
<rect x="720.3684210526316" y="427.2726899204299" width="14.842105263157894" height="70.72731007957007" fill="#7070f8" data-tooltip="1.00x baseline speed (No JIT)"/>
<line x1="720.3684210526316" y1="427.17184902084335" x2="735.2105263157895" y2="427.17184902084335" stroke="#000"/>
<line x1="720.3684210526316" y1="427.37353082001647" x2="735.2105263157895" y2="427.37353082001647" stroke="#000"/>
<line x1="727.7894736842105" y1="427.17184902084335" x2="727.7894736842105" y2="427.37353082001647" stroke="#000"/>
<rect x="735.2105263157895" y="412.29371530361897" width="14.842105263157894" height="85.70628469638102" fill="orange" data-tooltip="1.21x baseline speed (YJIT)"/>
<line x1="735.2105263157895" y1="411.7963464233424" x2="750.0526315789473" y2="411.7963464233424" stroke="#000"/>
<line x1="735.2105263157895" y1="412.7910841838956" x2="750.0526315789473" y2="412.7910841838956" stroke="#000"/>
<line x1="742.6315789473684" y1="411.7963464233424" x2="742.6315789473684" y2="412.7910841838956" stroke="#000"/>
<line x1="742.6315789473684" y1="498.0" x2="742.6315789473684" y2="502.79999999999995" stroke="#000"/>
<text x="742.6315789473684" y="512.4" fill="#111" font-size="small" font-family="monospace" font-weight="bold" text-anchor="end" transform="rotate(-60, 742.6315789473684, 512.4)">
rack
</text>
<rect x="764.8947368421053" y="427.2726899204299" width="14.842105263157894" height="70.72731007957007" fill="#7070f8" data-tooltip="1.00x baseline speed (No JIT)"/>
<line x1="764.8947368421053" y1="427.2065489392494" x2="779.7368421052631" y2="427.2065489392494" stroke="#000"/>
<line x1="764.8947368421053" y1="427.3388309016104" x2="779.7368421052631" y2="427.3388309016104" stroke="#000"/>
<line x1="772.3157894736843" y1="427.2065489392494" x2="772.3157894736843" y2="427.3388309016104" stroke="#000"/>
<rect x="779.7368421052631" y="415.935468124501" width="14.842105263157894" height="82.06453187549889" fill="orange" data-tooltip="1.16x baseline speed (YJIT)"/>
<line x1="779.7368421052631" y1="415.82538540007585" x2="794.578947368421" y2="415.82538540007585" stroke="#000"/>
<line x1="779.7368421052631" y1="416.04555084892615" x2="794.578947368421" y2="416.04555084892615" stroke="#000"/>
<line x1="787.1578947368422" y1="415.82538540007585" x2="787.1578947368422" y2="416.04555084892615" stroke="#000"/>
<line x1="787.1578947368422" y1="498.0" x2="787.1578947368422" y2="502.79999999999995" stroke="#000"/>
<text x="787.1578947368422" y="512.4" fill="#111" font-size="small" font-family="monospace" font-weight="bold" text-anchor="end" transform="rotate(-60, 787.1578947368422, 512.4)">
ruby-json
</text>
<rect x="809.421052631579" y="427.2726899204299" width="14.842105263157894" height="70.72731007957007" fill="#7070f8" data-tooltip="1.00x baseline speed (No JIT)"/>
<line x1="809.421052631579" y1="426.7704125118173" x2="824.2631578947368" y2="426.7704125118173" stroke="#000"/>
<line x1="809.421052631579" y1="427.77496732904245" x2="824.2631578947368" y2="427.77496732904245" stroke="#000"/>
<line x1="816.8421052631579" y1="426.7704125118173" x2="816.8421052631579" y2="427.77496732904245" stroke="#000"/>
<rect x="824.2631578947368" y="369.46041329299385" width="14.842105263157894" height="128.5395867070061" fill="orange" data-tooltip="1.82x baseline speed (YJIT)"/>
<line x1="824.2631578947368" y1="368.15033479582826" x2="839.1052631578947" y2="368.15033479582826" stroke="#000"/>
<line x1="824.2631578947368" y1="370.7704917901594" x2="839.1052631578947" y2="370.7704917901594" stroke="#000"/>
<line x1="831.6842105263158" y1="368.15033479582826" x2="831.6842105263158" y2="370.7704917901594" stroke="#000"/>
<line x1="831.6842105263158" y1="498.0" x2="831.6842105263158" y2="502.79999999999995" stroke="#000"/>
<text x="831.6842105263158" y="512.4" fill="#111" font-size="small" font-family="monospace" font-weight="bold" text-anchor="end" transform="rotate(-60, 831.6842105263158, 512.4)">
rubykon
</text>
<rect x="853.9473684210526" y="427.2726899204299" width="14.842105263157894" height="70.72731007957007" fill="#7070f8" data-tooltip="1.00x baseline speed (No JIT)"/>
<line x1="853.9473684210526" y1="427.15349862457595" x2="868.7894736842104" y2="427.15349862457595" stroke="#000"/>
<line x1="853.9473684210526" y1="427.3918812162838" x2="868.7894736842104" y2="427.3918812162838" stroke="#000"/>
<line x1="861.3684210526316" y1="427.15349862457595" x2="861.3684210526316" y2="427.3918812162838" stroke="#000"/>
<rect x="868.7894736842104" y="269.240027696277" width="14.842105263157894" height="228.75997230372292" fill="orange" data-tooltip="3.23x baseline speed (YJIT)"/>
<line x1="868.7894736842104" y1="268.80845030887474" x2="883.6315789473683" y2="268.80845030887474" stroke="#000"/>
<line x1="868.7894736842104" y1="269.67160508367937" x2="883.6315789473683" y2="269.67160508367937" stroke="#000"/>
<line x1="876.2105263157895" y1="268.80845030887474" x2="876.2105263157895" y2="269.67160508367937" stroke="#000"/>
<line x1="876.2105263157895" y1="498.0" x2="876.2105263157895" y2="502.79999999999995" stroke="#000"/>
<text x="876.2105263157895" y="512.4" fill="#111" font-size="small" font-family="monospace" font-weight="bold" text-anchor="end" transform="rotate(-60, 876.2105263157895, 512.4)">
sudoku
</text>
<rect x="898.4736842105264" y="427.2726899204299" width="14.842105263157894" height="70.72731007957007" fill="#7070f8" data-tooltip="1.00x baseline speed (No JIT)"/>
<line x1="898.4736842105264" y1="427.1792416245195" x2="913.3157894736842" y2="427.1792416245195" stroke="#000"/>
<line x1="898.4736842105264" y1="427.3661382163403" x2="913.3157894736842" y2="427.3661382163403" stroke="#000"/>
<line x1="905.8947368421053" y1="427.1792416245195" x2="905.8947368421053" y2="427.3661382163403" stroke="#000"/>
<rect x="913.3157894736842" y="371.82834423332866" width="14.842105263157894" height="126.17165576667128" fill="orange" data-tooltip="1.78x baseline speed (YJIT)"/>
<line x1="913.3157894736842" y1="371.63029594569065" x2="928.1578947368421" y2="371.63029594569065" stroke="#000"/>
<line x1="913.3157894736842" y1="372.0263925209666" x2="928.1578947368421" y2="372.0263925209666" stroke="#000"/>
<line x1="920.7368421052632" y1="371.63029594569065" x2="920.7368421052632" y2="372.0263925209666" stroke="#000"/>
<line x1="920.7368421052632" y1="498.0" x2="920.7368421052632" y2="502.79999999999995" stroke="#000"/>
<text x="920.7368421052632" y="512.4" fill="#111" font-size="small" font-family="monospace" font-weight="bold" text-anchor="end" transform="rotate(-60, 920.7368421052632, 512.4)">
tinygql
</text>
</svg>