<svg viewBox="0 0 1000 600" xmlns="http://www.w3.org/2000/svg" xmlns:xlink="http://www.w3.org/1999/xlink" width="100%" height="100%">

<rect x="50.0" y="30.0" width="940.0" height="467.99999999999994" stroke="#000" fill="#EEE"/>
<line x1="42.0" y1="497.9999999999999" x2="50.0" y2="497.9999999999999" stroke="#000"/>
<text x="26.000000000000004" y="497.9999999999999" text-anchor="end" font-weight="bold" font-size="small" fill="#111">
0.0
</text>
<line x1="42.0" y1="427.5633398808578" x2="50.0" y2="427.5633398808578" stroke="#000"/>
<text x="26.000000000000004" y="427.5633398808578" text-anchor="end" font-weight="bold" font-size="small" fill="#111">
1.0
</text>
<line x1="42.0" y1="357.1266797617156" x2="50.0" y2="357.1266797617156" stroke="#000"/>
<text x="26.000000000000004" y="357.1266797617156" text-anchor="end" font-weight="bold" font-size="small" fill="#111">
2.0
</text>
<line x1="42.0" y1="286.6900196425734" x2="50.0" y2="286.6900196425734" stroke="#000"/>
<text x="26.000000000000004" y="286.6900196425734" text-anchor="end" font-weight="bold" font-size="small" fill="#111">
3.0
</text>
<line x1="42.0" y1="216.25335952343124" x2="50.0" y2="216.25335952343124" stroke="#000"/>
<text x="26.000000000000004" y="216.25335952343124" text-anchor="end" font-weight="bold" font-size="small" fill="#111">
4.0
</text>
<line x1="42.0" y1="145.81669940428904" x2="50.0" y2="145.81669940428904" stroke="#000"/>
<text x="26.000000000000004" y="145.81669940428904" text-anchor="end" font-weight="bold" font-size="small" fill="#111">
5.0
</text>
<rect x="268.5" y="36.00000000000001" width="80.0" height="18.0" fill="#7070f8" stroke="#888"/>
<text x="308.5" y="52.50000000000001" font-size="small" text-anchor="middle" font-weight="bold" fill="#EEE">
No JIT
</text>
<rect x="691.4999999999999" y="36.00000000000001" width="80.0" height="18.0" fill="orange" stroke="#888"/>
<text x="731.4999999999999" y="52.50000000000001" font-size="small" text-anchor="middle" font-weight="bold" fill="#EEE">
YJIT
</text>
<rect x="97.0" y="427.5633398808578" width="14.842105263157894" height="70.43666011914218" fill="#7070f8" data-tooltip="1.00x baseline speed (No JIT)"/>
<line x1="97.0" y1="426.84604343364646" x2="111.84210526315789" y2="426.84604343364646" stroke="#000"/>
<line x1="97.0" y1="428.28063632806914" x2="111.84210526315789" y2="428.28063632806914" stroke="#000"/>
<line x1="104.42105263157896" y1="426.84604343364646" x2="104.42105263157896" y2="428.28063632806914" stroke="#000"/>
<rect x="111.84210526315789" y="345.4393215312577" width="14.842105263157894" height="152.5606784687423" fill="orange" data-tooltip="2.17x baseline speed (YJIT)"/>
<line x1="111.84210526315789" y1="341.8121715505023" x2="126.6842105263158" y2="341.8121715505023" stroke="#000"/>
<line x1="111.84210526315789" y1="349.06647151201304" x2="126.6842105263158" y2="349.06647151201304" stroke="#000"/>
<line x1="119.26315789473685" y1="341.8121715505023" x2="119.26315789473685" y2="349.06647151201304" stroke="#000"/>
<line x1="119.26315789473685" y1="498.0" x2="119.26315789473685" y2="502.79999999999995" stroke="#000"/>
<text x="119.26315789473685" y="512.4" fill="#111" font-size="small" font-family="monospace" font-weight="bold" text-anchor="end" transform="rotate(-60, 119.26315789473685, 512.4)">
binarytrees
</text>
<rect x="141.5263157894737" y="427.5633398808578" width="14.842105263157894" height="70.43666011914218" fill="#7070f8" data-tooltip="1.00x baseline speed (No JIT)"/>
<line x1="141.5263157894737" y1="426.6915637094415" x2="156.3684210526316" y2="426.6915637094415" stroke="#000"/>
<line x1="141.5263157894737" y1="428.4351160522741" x2="156.3684210526316" y2="428.4351160522741" stroke="#000"/>
<line x1="148.94736842105263" y1="426.6915637094415" x2="148.94736842105263" y2="428.4351160522741" stroke="#000"/>
<rect x="156.3684210526316" y="325.7492437123049" width="14.842105263157894" height="172.25075628769508" fill="orange" data-tooltip="2.45x baseline speed (YJIT)"/>
<line x1="156.3684210526316" y1="323.6150093184284" x2="171.2105263157895" y2="323.6150093184284" stroke="#000"/>
<line x1="156.3684210526316" y1="327.88347810618137" x2="171.2105263157895" y2="327.88347810618137" stroke="#000"/>
<line x1="163.78947368421055" y1="323.6150093184284" x2="163.78947368421055" y2="327.88347810618137" stroke="#000"/>
<line x1="163.78947368421055" y1="498.0" x2="163.78947368421055" y2="502.79999999999995" stroke="#000"/>
<text x="163.78947368421055" y="512.4" fill="#111" font-size="small" font-family="monospace" font-weight="bold" text-anchor="end" transform="rotate(-60, 163.78947368421055, 512.4)">
blurhash
</text>
<rect x="186.05263157894737" y="427.5633398808578" width="14.842105263157894" height="70.43666011914218" fill="#7070f8" data-tooltip="1.00x baseline speed (No JIT)"/>
<line x1="186.05263157894737" y1="427.43891275288104" x2="200.89473684210526" y2="427.43891275288104" stroke="#000"/>
<line x1="186.05263157894737" y1="427.6877670088346" x2="200.89473684210526" y2="427.6877670088346" stroke="#000"/>
<line x1="193.4736842105263" y1="427.43891275288104" x2="193.4736842105263" y2="427.6877670088346" stroke="#000"/>
<rect x="200.89473684210526" y="414.7356466647719" width="14.842105263157894" height="83.26435333522817" fill="orange" data-tooltip="1.18x baseline speed (YJIT)"/>
<line x1="200.89473684210526" y1="414.5839120024274" x2="215.73684210526318" y2="414.5839120024274" stroke="#000"/>
<line x1="200.89473684210526" y1="414.8873813271163" x2="215.73684210526318" y2="414.8873813271163" stroke="#000"/>
<line x1="208.3157894736842" y1="414.5839120024274" x2="208.3157894736842" y2="414.8873813271163" stroke="#000"/>
<line x1="208.3157894736842" y1="498.0" x2="208.3157894736842" y2="502.79999999999995" stroke="#000"/>
<text x="208.3157894736842" y="512.4" fill="#111" font-size="small" font-family="monospace" font-weight="bold" text-anchor="end" transform="rotate(-60, 208.3157894736842, 512.4)">
erubi
</text>
<rect x="230.57894736842104" y="427.5633398808578" width="14.842105263157894" height="70.43666011914218" fill="#7070f8" data-tooltip="1.00x baseline speed (No JIT)"/>
<line x1="230.57894736842104" y1="427.5148927136703" x2="245.42105263157896" y2="427.5148927136703" stroke="#000"/>
<line x1="230.57894736842104" y1="427.61178704804536" x2="245.42105263157896" y2="427.61178704804536" stroke="#000"/>
<line x1="238.0" y1="427.5148927136703" x2="238.0" y2="427.61178704804536" stroke="#000"/>
<rect x="245.42105263157896" y="421.8534014500513" width="14.842105263157894" height="76.1465985499486" fill="orange" data-tooltip="1.08x baseline speed (YJIT)"/>
<line x1="245.42105263157896" y1="421.7975948621511" x2="260.2631578947369" y2="421.7975948621511" stroke="#000"/>
<line x1="245.42105263157896" y1="421.90920803795154" x2="260.2631578947369" y2="421.90920803795154" stroke="#000"/>
<line x1="252.84210526315792" y1="421.7975948621511" x2="252.84210526315792" y2="421.90920803795154" stroke="#000"/>
<line x1="252.84210526315786" y1="498.0" x2="252.84210526315786" y2="502.79999999999995" stroke="#000"/>
<text x="252.84210526315786" y="512.4" fill="#111" font-size="small" font-family="monospace" font-weight="bold" text-anchor="end" transform="rotate(-60, 252.84210526315786, 512.4)">
etanni
</text>
<rect x="275.10526315789474" y="427.5633398808578" width="14.842105263157894" height="70.43666011914218" fill="#7070f8" data-tooltip="1.00x baseline speed (No JIT)"/>
<line x1="275.10526315789474" y1="426.7525110803916" x2="289.9473684210526" y2="426.7525110803916" stroke="#000"/>
<line x1="275.10526315789474" y1="428.37416868132397" x2="289.9473684210526" y2="428.37416868132397" stroke="#000"/>
<line x1="282.5263157894737" y1="426.7525110803916" x2="282.5263157894737" y2="428.37416868132397" stroke="#000"/>
<rect x="289.9473684210526" y="213.4899878842825" width="14.842105263157894" height="284.5100121157174" fill="orange" data-tooltip="4.04x baseline speed (YJIT)"/>
<line x1="289.9473684210526" y1="210.1503947817408" x2="304.7894736842105" y2="210.1503947817408" stroke="#000"/>
<line x1="289.9473684210526" y1="216.8295809868242" x2="304.7894736842105" y2="216.8295809868242" stroke="#000"/>
<line x1="297.36842105263156" y1="210.1503947817408" x2="297.36842105263156" y2="216.8295809868242" stroke="#000"/>
<line x1="297.36842105263156" y1="498.0" x2="297.36842105263156" y2="502.79999999999995" stroke="#000"/>
<text x="297.36842105263156" y="512.4" fill="#111" font-size="small" font-family="monospace" font-weight="bold" text-anchor="end" transform="rotate(-60, 297.36842105263156, 512.4)">
fannkuchredux
</text>
<rect x="319.63157894736844" y="427.5633398808578" width="14.842105263157894" height="70.43666011914218" fill="#7070f8" data-tooltip="1.00x baseline speed (No JIT)"/>
<line x1="319.63157894736844" y1="427.14185378680446" x2="334.4736842105263" y2="427.14185378680446" stroke="#000"/>
<line x1="319.63157894736844" y1="427.9848259749112" x2="334.4736842105263" y2="427.9848259749112" stroke="#000"/>
<line x1="327.0526315789474" y1="427.14185378680446" x2="327.0526315789474" y2="427.9848259749112" stroke="#000"/>
<rect x="334.4736842105263" y="403.7901359795694" width="14.842105263157894" height="94.20986402043052" fill="orange" data-tooltip="1.34x baseline speed (YJIT)"/>
<line x1="334.4736842105263" y1="403.0253678055407" x2="349.31578947368416" y2="403.0253678055407" stroke="#000"/>
<line x1="334.4736842105263" y1="404.55490415359816" x2="349.31578947368416" y2="404.55490415359816" stroke="#000"/>
<line x1="341.89473684210526" y1="403.0253678055407" x2="341.89473684210526" y2="404.55490415359816" stroke="#000"/>
<line x1="341.89473684210526" y1="498.0" x2="341.89473684210526" y2="502.79999999999995" stroke="#000"/>
<text x="341.89473684210526" y="512.4" fill="#111" font-size="small" font-family="monospace" font-weight="bold" text-anchor="end" transform="rotate(-60, 341.89473684210526, 512.4)">
fluentd
</text>
<rect x="364.15789473684214" y="427.5633398808578" width="14.842105263157894" height="70.43666011914218" fill="#7070f8" data-tooltip="1.00x baseline speed (No JIT)"/>
<line x1="364.15789473684214" y1="427.4993002649132" x2="379.0" y2="427.4993002649132" stroke="#000"/>
<line x1="364.15789473684214" y1="427.6273794968024" x2="379.0" y2="427.6273794968024" stroke="#000"/>
<line x1="371.57894736842104" y1="427.4993002649132" x2="371.57894736842104" y2="427.6273794968024" stroke="#000"/>
<rect x="379.0" y="409.0941450573058" width="14.842105263157894" height="88.90585494269409" fill="orange" data-tooltip="1.26x baseline speed (YJIT)"/>
<line x1="379.0" y1="408.9686577735316" x2="393.84210526315786" y2="408.9686577735316" stroke="#000"/>
<line x1="379.0" y1="409.21963234108006" x2="393.84210526315786" y2="409.21963234108006" stroke="#000"/>
<line x1="386.42105263157896" y1="408.9686577735316" x2="386.42105263157896" y2="409.21963234108006" stroke="#000"/>
<line x1="386.42105263157896" y1="498.0" x2="386.42105263157896" y2="502.79999999999995" stroke="#000"/>
<text x="386.42105263157896" y="512.4" fill="#111" font-size="small" font-family="monospace" font-weight="bold" text-anchor="end" transform="rotate(-60, 386.42105263157896, 512.4)">
graphql
</text>
<rect x="408.6842105263158" y="427.5633398808578" width="14.842105263157894" height="70.43666011914218" fill="#7070f8" data-tooltip="1.00x baseline speed (No JIT)"/>
<line x1="408.6842105263158" y1="427.514307957762" x2="423.52631578947364" y2="427.514307957762" stroke="#000"/>
<line x1="408.6842105263158" y1="427.61237180395364" x2="423.52631578947364" y2="427.61237180395364" stroke="#000"/>
<line x1="416.1052631578947" y1="427.514307957762" x2="416.1052631578947" y2="427.61237180395364" stroke="#000"/>
<rect x="423.52631578947364" y="419.55234864162423" width="14.842105263157894" height="78.44765135837572" fill="orange" data-tooltip="1.11x baseline speed (YJIT)"/>
<line x1="423.52631578947364" y1="419.04698778210195" x2="438.3684210526315" y2="419.04698778210195" stroke="#000"/>
<line x1="423.52631578947364" y1="420.05770950114646" x2="438.3684210526315" y2="420.05770950114646" stroke="#000"/>
<line x1="430.9473684210526" y1="419.04698778210195" x2="430.9473684210526" y2="420.05770950114646" stroke="#000"/>
<line x1="430.9473684210526" y1="498.0" x2="430.9473684210526" y2="502.79999999999995" stroke="#000"/>
<text x="430.9473684210526" y="512.4" fill="#111" font-size="small" font-family="monospace" font-weight="bold" text-anchor="end" transform="rotate(-60, 430.9473684210526, 512.4)">
graphql-native
</text>
<rect x="453.2105263157895" y="427.5633398808578" width="14.842105263157894" height="70.43666011914218" fill="#7070f8" data-tooltip="1.00x baseline speed (No JIT)"/>
<line x1="453.2105263157895" y1="426.871422380631" x2="468.0526315789474" y2="426.871422380631" stroke="#000"/>
<line x1="453.2105263157895" y1="428.2552573810847" x2="468.0526315789474" y2="428.2552573810847" stroke="#000"/>
<line x1="460.63157894736844" y1="426.871422380631" x2="460.63157894736844" y2="428.2552573810847" stroke="#000"/>
<rect x="468.0526315789474" y="397.13920583147745" width="14.842105263157894" height="100.86079416852245" fill="orange" data-tooltip="1.43x baseline speed (YJIT)"/>
<line x1="468.0526315789474" y1="395.5708014274502" x2="482.89473684210526" y2="395.5708014274502" stroke="#000"/>
<line x1="468.0526315789474" y1="398.7076102355048" x2="482.89473684210526" y2="398.7076102355048" stroke="#000"/>
<line x1="475.4736842105263" y1="395.5708014274502" x2="475.4736842105263" y2="398.7076102355048" stroke="#000"/>
<line x1="475.4736842105263" y1="498.0" x2="475.4736842105263" y2="502.79999999999995" stroke="#000"/>
<text x="475.4736842105263" y="512.4" fill="#111" font-size="small" font-family="monospace" font-weight="bold" text-anchor="end" transform="rotate(-60, 475.4736842105263, 512.4)">
lee
</text>
<rect x="497.7368421052631" y="427.5633398808578" width="14.842105263157894" height="70.43666011914218" fill="#7070f8" data-tooltip="1.00x baseline speed (No JIT)"/>
<line x1="497.7368421052631" y1="425.3208857259629" x2="512.578947368421" y2="425.3208857259629" stroke="#000"/>
<line x1="497.7368421052631" y1="429.80579403575274" x2="512.578947368421" y2="429.80579403575274" stroke="#000"/>
<line x1="505.15789473684214" y1="425.3208857259629" x2="505.15789473684214" y2="429.80579403575274" stroke="#000"/>
<rect x="512.578947368421" y="356.15821211903096" width="14.842105263157894" height="141.841787880969" fill="orange" data-tooltip="2.01x baseline speed (YJIT)"/>
<line x1="512.578947368421" y1="351.64061021565124" x2="527.4210526315788" y2="351.64061021565124" stroke="#000"/>
<line x1="512.578947368421" y1="360.67581402241063" x2="527.4210526315788" y2="360.67581402241063" stroke="#000"/>
<line x1="520.0" y1="351.64061021565124" x2="520.0" y2="360.67581402241063" stroke="#000"/>
<line x1="520.0" y1="498.0" x2="520.0" y2="502.79999999999995" stroke="#000"/>
<text x="520.0" y="512.4" fill="#111" font-size="small" font-family="monospace" font-weight="bold" text-anchor="end" transform="rotate(-60, 520.0, 512.4)">
matmul
</text>
<rect x="542.2631578947369" y="427.5633398808578" width="14.842105263157894" height="70.43666011914218" fill="#7070f8" data-tooltip="1.00x baseline speed (No JIT)"/>
<line x1="542.2631578947369" y1="426.5128723734351" x2="557.1052631578948" y2="426.5128723734351" stroke="#000"/>
<line x1="542.2631578947369" y1="428.6138073882805" x2="557.1052631578948" y2="428.6138073882805" stroke="#000"/>
<line x1="549.6842105263158" y1="426.5128723734351" x2="549.6842105263158" y2="428.6138073882805" stroke="#000"/>
<rect x="557.1052631578948" y="323.9115521570687" width="14.842105263157894" height="174.08844784293126" fill="orange" data-tooltip="2.47x baseline speed (YJIT)"/>
<line x1="557.1052631578948" y1="321.3130936986093" x2="571.9473684210526" y2="321.3130936986093" stroke="#000"/>
<line x1="557.1052631578948" y1="326.51001061552813" x2="571.9473684210526" y2="326.51001061552813" stroke="#000"/>
<line x1="564.5263157894738" y1="321.3130936986093" x2="564.5263157894738" y2="326.51001061552813" stroke="#000"/>
<line x1="564.5263157894738" y1="498.0" x2="564.5263157894738" y2="502.79999999999995" stroke="#000"/>
<text x="564.5263157894738" y="512.4" fill="#111" font-size="small" font-family="monospace" font-weight="bold" text-anchor="end" transform="rotate(-60, 564.5263157894738, 512.4)">
nbody
</text>
<rect x="586.7894736842105" y="427.5633398808578" width="14.842105263157894" height="70.43666011914218" fill="#7070f8" data-tooltip="1.00x baseline speed (No JIT)"/>
<line x1="586.7894736842105" y1="425.9716679027234" x2="601.6315789473684" y2="425.9716679027234" stroke="#000"/>
<line x1="586.7894736842105" y1="429.15501185899217" x2="601.6315789473684" y2="429.15501185899217" stroke="#000"/>
<line x1="594.2105263157895" y1="425.9716679027234" x2="594.2105263157895" y2="429.15501185899217" stroke="#000"/>
<rect x="601.6315789473684" y="100.19999999999999" width="14.842105263157894" height="397.79999999999995" fill="orange" data-tooltip="5.65x baseline speed (YJIT)"/>
<line x1="601.6315789473684" y1="91.14489636250497" x2="616.4736842105262" y2="91.14489636250497" stroke="#000"/>
<line x1="601.6315789473684" y1="109.25510363749501" x2="616.4736842105262" y2="109.25510363749501" stroke="#000"/>
<line x1="609.0526315789474" y1="91.14489636250497" x2="609.0526315789474" y2="109.25510363749501" stroke="#000"/>
<line x1="609.0526315789474" y1="498.0" x2="609.0526315789474" y2="502.79999999999995" stroke="#000"/>
<text x="609.0526315789474" y="512.4" fill="#111" font-size="small" font-family="monospace" font-weight="bold" text-anchor="end" transform="rotate(-60, 609.0526315789474, 512.4)">
nqueens
</text>
<rect x="631.3157894736842" y="427.5633398808578" width="14.842105263157894" height="70.43666011914218" fill="#7070f8" data-tooltip="1.00x baseline speed (No JIT)"/>
<line x1="631.3157894736842" y1="427.0836719680678" x2="646.1578947368421" y2="427.0836719680678" stroke="#000"/>
<line x1="631.3157894736842" y1="428.04300779364786" x2="646.1578947368421" y2="428.04300779364786" stroke="#000"/>
<line x1="638.7368421052631" y1="427.0836719680678" x2="638.7368421052631" y2="428.04300779364786" stroke="#000"/>
<rect x="646.1578947368421" y="330.85182652636723" width="14.842105263157894" height="167.14817347363268" fill="orange" data-tooltip="2.37x baseline speed (YJIT)"/>
<line x1="646.1578947368421" y1="329.4457890844436" x2="660.9999999999999" y2="329.4457890844436" stroke="#000"/>
<line x1="646.1578947368421" y1="332.2578639682908" x2="660.9999999999999" y2="332.2578639682908" stroke="#000"/>
<line x1="653.578947368421" y1="329.4457890844436" x2="653.578947368421" y2="332.2578639682908" stroke="#000"/>
<line x1="653.578947368421" y1="498.0" x2="653.578947368421" y2="502.79999999999995" stroke="#000"/>
<text x="653.578947368421" y="512.4" fill="#111" font-size="small" font-family="monospace" font-weight="bold" text-anchor="end" transform="rotate(-60, 653.578947368421, 512.4)">
optcarrot
</text>
<rect x="675.8421052631579" y="427.5633398808578" width="14.842105263157894" height="70.43666011914218" fill="#7070f8" data-tooltip="1.00x baseline speed (No JIT)"/>
<line x1="675.8421052631579" y1="426.8979223069494" x2="690.6842105263158" y2="426.8979223069494" stroke="#000"/>
<line x1="675.8421052631579" y1="428.22875745476625" x2="690.6842105263158" y2="428.22875745476625" stroke="#000"/>
<line x1="683.2631578947369" y1="426.8979223069494" x2="683.2631578947369" y2="428.22875745476625" stroke="#000"/>
<rect x="690.6842105263158" y="309.04930933335964" width="14.842105263157894" height="188.9506906666403" fill="orange" data-tooltip="2.68x baseline speed (YJIT)"/>
<line x1="690.6842105263158" y1="307.26224138047684" x2="705.5263157894736" y2="307.26224138047684" stroke="#000"/>
<line x1="690.6842105263158" y1="310.8363772862425" x2="705.5263157894736" y2="310.8363772862425" stroke="#000"/>
<line x1="698.1052631578948" y1="307.26224138047684" x2="698.1052631578948" y2="310.8363772862425" stroke="#000"/>
<line x1="698.1052631578948" y1="498.0" x2="698.1052631578948" y2="502.79999999999995" stroke="#000"/>
<text x="698.1052631578948" y="512.4" fill="#111" font-size="small" font-family="monospace" font-weight="bold" text-anchor="end" transform="rotate(-60, 698.1052631578948, 512.4)">
protoboeuf
</text>
<rect x="720.3684210526316" y="427.5633398808578" width="14.842105263157894" height="70.43666011914218" fill="#7070f8" data-tooltip="1.00x baseline speed (No JIT)"/>
<line x1="720.3684210526316" y1="427.44063058668127" x2="735.2105263157895" y2="427.44063058668127" stroke="#000"/>
<line x1="720.3684210526316" y1="427.6860491750343" x2="735.2105263157895" y2="427.6860491750343" stroke="#000"/>
<line x1="727.7894736842105" y1="427.44063058668127" x2="727.7894736842105" y2="427.6860491750343" stroke="#000"/>
<rect x="735.2105263157895" y="411.57547138745326" width="14.842105263157894" height="86.42452861254668" fill="orange" data-tooltip="1.23x baseline speed (YJIT)"/>
<line x1="735.2105263157895" y1="411.3980938041538" x2="750.0526315789473" y2="411.3980938041538" stroke="#000"/>
<line x1="735.2105263157895" y1="411.7528489707527" x2="750.0526315789473" y2="411.7528489707527" stroke="#000"/>
<line x1="742.6315789473684" y1="411.3980938041538" x2="742.6315789473684" y2="411.7528489707527" stroke="#000"/>
<line x1="742.6315789473684" y1="498.0" x2="742.6315789473684" y2="502.79999999999995" stroke="#000"/>
<text x="742.6315789473684" y="512.4" fill="#111" font-size="small" font-family="monospace" font-weight="bold" text-anchor="end" transform="rotate(-60, 742.6315789473684, 512.4)">
rack
</text>
<rect x="764.8947368421053" y="427.5633398808578" width="14.842105263157894" height="70.43666011914218" fill="#7070f8" data-tooltip="1.00x baseline speed (No JIT)"/>
<line x1="764.8947368421053" y1="427.52513269017675" x2="779.7368421052631" y2="427.52513269017675" stroke="#000"/>
<line x1="764.8947368421053" y1="427.6015470715389" x2="779.7368421052631" y2="427.6015470715389" stroke="#000"/>
<line x1="772.3157894736843" y1="427.52513269017675" x2="772.3157894736843" y2="427.6015470715389" stroke="#000"/>
<rect x="779.7368421052631" y="414.91740265365974" width="14.842105263157894" height="83.08259734634017" fill="orange" data-tooltip="1.18x baseline speed (YJIT)"/>
<line x1="779.7368421052631" y1="414.83041744616196" x2="794.578947368421" y2="414.83041744616196" stroke="#000"/>
<line x1="779.7368421052631" y1="415.00438786115745" x2="794.578947368421" y2="415.00438786115745" stroke="#000"/>
<line x1="787.1578947368422" y1="414.83041744616196" x2="787.1578947368422" y2="415.00438786115745" stroke="#000"/>
<line x1="787.1578947368422" y1="498.0" x2="787.1578947368422" y2="502.79999999999995" stroke="#000"/>
<text x="787.1578947368422" y="512.4" fill="#111" font-size="small" font-family="monospace" font-weight="bold" text-anchor="end" transform="rotate(-60, 787.1578947368422, 512.4)">
ruby-json
</text>
<rect x="809.421052631579" y="427.5633398808578" width="14.842105263157894" height="70.43666011914218" fill="#7070f8" data-tooltip="1.00x baseline speed (No JIT)"/>
<line x1="809.421052631579" y1="427.25773828870484" x2="824.2631578947368" y2="427.25773828870484" stroke="#000"/>
<line x1="809.421052631579" y1="427.86894147301075" x2="824.2631578947368" y2="427.86894147301075" stroke="#000"/>
<line x1="816.8421052631579" y1="427.25773828870484" x2="816.8421052631579" y2="427.86894147301075" stroke="#000"/>
<rect x="824.2631578947368" y="365.07831538510396" width="14.842105263157894" height="132.92168461489595" fill="orange" data-tooltip="1.89x baseline speed (YJIT)"/>
<line x1="824.2631578947368" y1="364.289585894842" x2="839.1052631578947" y2="364.289585894842" stroke="#000"/>
<line x1="824.2631578947368" y1="365.86704487536593" x2="839.1052631578947" y2="365.86704487536593" stroke="#000"/>
<line x1="831.6842105263158" y1="364.289585894842" x2="831.6842105263158" y2="365.86704487536593" stroke="#000"/>
<line x1="831.6842105263158" y1="498.0" x2="831.6842105263158" y2="502.79999999999995" stroke="#000"/>
<text x="831.6842105263158" y="512.4" fill="#111" font-size="small" font-family="monospace" font-weight="bold" text-anchor="end" transform="rotate(-60, 831.6842105263158, 512.4)">
rubykon
</text>
<rect x="853.9473684210526" y="427.5633398808578" width="14.842105263157894" height="70.43666011914218" fill="#7070f8" data-tooltip="1.00x baseline speed (No JIT)"/>
<line x1="853.9473684210526" y1="427.1559594841297" x2="868.7894736842104" y2="427.1559594841297" stroke="#000"/>
<line x1="853.9473684210526" y1="427.97072027758594" x2="868.7894736842104" y2="427.97072027758594" stroke="#000"/>
<line x1="861.3684210526316" y1="427.1559594841297" x2="861.3684210526316" y2="427.97072027758594" stroke="#000"/>
<rect x="868.7894736842104" y="262.47083747961284" width="14.842105263157894" height="235.52916252038708" fill="orange" data-tooltip="3.34x baseline speed (YJIT)"/>
<line x1="868.7894736842104" y1="261.10491227595423" x2="883.6315789473683" y2="261.10491227595423" stroke="#000"/>
<line x1="868.7894736842104" y1="263.8367626832715" x2="883.6315789473683" y2="263.8367626832715" stroke="#000"/>
<line x1="876.2105263157895" y1="261.10491227595423" x2="876.2105263157895" y2="263.8367626832715" stroke="#000"/>
<line x1="876.2105263157895" y1="498.0" x2="876.2105263157895" y2="502.79999999999995" stroke="#000"/>
<text x="876.2105263157895" y="512.4" fill="#111" font-size="small" font-family="monospace" font-weight="bold" text-anchor="end" transform="rotate(-60, 876.2105263157895, 512.4)">
sudoku
</text>
<rect x="898.4736842105264" y="427.5633398808578" width="14.842105263157894" height="70.43666011914218" fill="#7070f8" data-tooltip="1.00x baseline speed (No JIT)"/>
<line x1="898.4736842105264" y1="427.427928885719" x2="913.3157894736842" y2="427.427928885719" stroke="#000"/>
<line x1="898.4736842105264" y1="427.6987508759966" x2="913.3157894736842" y2="427.6987508759966" stroke="#000"/>
<line x1="905.8947368421053" y1="427.427928885719" x2="905.8947368421053" y2="427.6987508759966" stroke="#000"/>
<rect x="913.3157894736842" y="377.45379386462264" width="14.842105263157894" height="120.5462061353773" fill="orange" data-tooltip="1.71x baseline speed (YJIT)"/>
<line x1="913.3157894736842" y1="377.2050784625252" x2="928.1578947368421" y2="377.2050784625252" stroke="#000"/>
<line x1="913.3157894736842" y1="377.7025092667201" x2="928.1578947368421" y2="377.7025092667201" stroke="#000"/>
<line x1="920.7368421052632" y1="377.2050784625252" x2="920.7368421052632" y2="377.7025092667201" stroke="#000"/>
<line x1="920.7368421052632" y1="498.0" x2="920.7368421052632" y2="502.79999999999995" stroke="#000"/>
<text x="920.7368421052632" y="512.4" fill="#111" font-size="small" font-family="monospace" font-weight="bold" text-anchor="end" transform="rotate(-60, 920.7368421052632, 512.4)">
tinygql
</text>
</svg>