<svg viewBox="0 0 1000 600" xmlns="http://www.w3.org/2000/svg" xmlns:xlink="http://www.w3.org/1999/xlink" width="100%" height="100%">

<rect x="50.0" y="30.0" width="940.0" height="467.99999999999994" stroke="#000" fill="#EEE"/>
<line x1="42.0" y1="497.9999999999999" x2="50.0" y2="497.9999999999999" stroke="#000"/>
<text x="26.000000000000004" y="497.9999999999999" text-anchor="end" font-weight="bold" font-size="small" fill="#111">
0.0
</text>
<line x1="42.0" y1="426.22258757391484" x2="50.0" y2="426.22258757391484" stroke="#000"/>
<text x="26.000000000000004" y="426.22258757391484" text-anchor="end" font-weight="bold" font-size="small" fill="#111">
1.0
</text>
<line x1="42.0" y1="354.44517514782973" x2="50.0" y2="354.44517514782973" stroke="#000"/>
<text x="26.000000000000004" y="354.44517514782973" text-anchor="end" font-weight="bold" font-size="small" fill="#111">
2.0
</text>
<line x1="42.0" y1="282.66776272174457" x2="50.0" y2="282.66776272174457" stroke="#000"/>
<text x="26.000000000000004" y="282.66776272174457" text-anchor="end" font-weight="bold" font-size="small" fill="#111">
3.0
</text>
<line x1="42.0" y1="210.8903502956595" x2="50.0" y2="210.8903502956595" stroke="#000"/>
<text x="26.000000000000004" y="210.8903502956595" text-anchor="end" font-weight="bold" font-size="small" fill="#111">
4.0
</text>
<line x1="42.0" y1="139.11293786957435" x2="50.0" y2="139.11293786957435" stroke="#000"/>
<text x="26.000000000000004" y="139.11293786957435" text-anchor="end" font-weight="bold" font-size="small" fill="#111">
5.0
</text>
<rect x="268.5" y="36.00000000000001" width="80.0" height="18.0" fill="#7070f8" stroke="#888"/>
<text x="308.5" y="52.50000000000001" font-size="small" text-anchor="middle" font-weight="bold" fill="#EEE">
No JIT
</text>
<rect x="691.4999999999999" y="36.00000000000001" width="80.0" height="18.0" fill="orange" stroke="#888"/>
<text x="731.4999999999999" y="52.50000000000001" font-size="small" text-anchor="middle" font-weight="bold" fill="#EEE">
YJIT
</text>
<rect x="97.0" y="426.22258757391484" width="14.842105263157894" height="71.7774124260851" fill="#7070f8" data-tooltip="1.00x baseline speed (No JIT)"/>
<line x1="97.0" y1="425.5450975334059" x2="111.84210526315789" y2="425.5450975334059" stroke="#000"/>
<line x1="97.0" y1="426.90007761442376" x2="111.84210526315789" y2="426.90007761442376" stroke="#000"/>
<line x1="104.42105263157896" y1="425.5450975334059" x2="104.42105263157896" y2="426.90007761442376" stroke="#000"/>
<rect x="111.84210526315789" y="345.9882008863844" width="14.842105263157894" height="152.01179911361552" fill="orange" data-tooltip="2.12x baseline speed (YJIT)"/>
<line x1="111.84210526315789" y1="342.42214863357714" x2="126.6842105263158" y2="342.42214863357714" stroke="#000"/>
<line x1="111.84210526315789" y1="349.55425313919164" x2="126.6842105263158" y2="349.55425313919164" stroke="#000"/>
<line x1="119.26315789473685" y1="342.42214863357714" x2="119.26315789473685" y2="349.55425313919164" stroke="#000"/>
<line x1="119.26315789473685" y1="498.0" x2="119.26315789473685" y2="502.79999999999995" stroke="#000"/>
<text x="119.26315789473685" y="512.4" fill="#111" font-size="small" font-family="monospace" font-weight="bold" text-anchor="end" transform="rotate(-60, 119.26315789473685, 512.4)">
binarytrees
</text>
<rect x="141.5263157894737" y="426.22258757391484" width="14.842105263157894" height="71.7774124260851" fill="#7070f8" data-tooltip="1.00x baseline speed (No JIT)"/>
<line x1="141.5263157894737" y1="425.7173785815485" x2="156.3684210526316" y2="425.7173785815485" stroke="#000"/>
<line x1="141.5263157894737" y1="426.72779656628114" x2="156.3684210526316" y2="426.72779656628114" stroke="#000"/>
<line x1="148.94736842105263" y1="425.7173785815485" x2="148.94736842105263" y2="426.72779656628114" stroke="#000"/>
<rect x="156.3684210526316" y="320.95311882968866" width="14.842105263157894" height="177.04688117031125" fill="orange" data-tooltip="2.47x baseline speed (YJIT)"/>
<line x1="156.3684210526316" y1="319.5675984929457" x2="171.2105263157895" y2="319.5675984929457" stroke="#000"/>
<line x1="156.3684210526316" y1="322.3386391664316" x2="171.2105263157895" y2="322.3386391664316" stroke="#000"/>
<line x1="163.78947368421055" y1="319.5675984929457" x2="163.78947368421055" y2="322.3386391664316" stroke="#000"/>
<line x1="163.78947368421055" y1="498.0" x2="163.78947368421055" y2="502.79999999999995" stroke="#000"/>
<text x="163.78947368421055" y="512.4" fill="#111" font-size="small" font-family="monospace" font-weight="bold" text-anchor="end" transform="rotate(-60, 163.78947368421055, 512.4)">
blurhash
</text>
<rect x="186.05263157894737" y="426.22258757391484" width="14.842105263157894" height="71.7774124260851" fill="#7070f8" data-tooltip="1.00x baseline speed (No JIT)"/>
<line x1="186.05263157894737" y1="426.03124709065713" x2="200.89473684210526" y2="426.03124709065713" stroke="#000"/>
<line x1="186.05263157894737" y1="426.41392805717254" x2="200.89473684210526" y2="426.41392805717254" stroke="#000"/>
<line x1="193.4736842105263" y1="426.03124709065713" x2="193.4736842105263" y2="426.41392805717254" stroke="#000"/>
<rect x="200.89473684210526" y="412.59114645553444" width="14.842105263157894" height="85.40885354446544" fill="orange" data-tooltip="1.19x baseline speed (YJIT)"/>
<line x1="200.89473684210526" y1="412.35607964752444" x2="215.73684210526318" y2="412.35607964752444" stroke="#000"/>
<line x1="200.89473684210526" y1="412.82621326354445" x2="215.73684210526318" y2="412.82621326354445" stroke="#000"/>
<line x1="208.3157894736842" y1="412.35607964752444" x2="208.3157894736842" y2="412.82621326354445" stroke="#000"/>
<line x1="208.3157894736842" y1="498.0" x2="208.3157894736842" y2="502.79999999999995" stroke="#000"/>
<text x="208.3157894736842" y="512.4" fill="#111" font-size="small" font-family="monospace" font-weight="bold" text-anchor="end" transform="rotate(-60, 208.3157894736842, 512.4)">
erubi
</text>
<rect x="230.57894736842104" y="426.22258757391484" width="14.842105263157894" height="71.7774124260851" fill="#7070f8" data-tooltip="1.00x baseline speed (No JIT)"/>
<line x1="230.57894736842104" y1="426.157096612913" x2="245.42105263157896" y2="426.157096612913" stroke="#000"/>
<line x1="230.57894736842104" y1="426.2880785349166" x2="245.42105263157896" y2="426.2880785349166" stroke="#000"/>
<line x1="238.0" y1="426.157096612913" x2="238.0" y2="426.2880785349166" stroke="#000"/>
<rect x="245.42105263157896" y="421.8182651676889" width="14.842105263157894" height="76.18173483231101" fill="orange" data-tooltip="1.06x baseline speed (YJIT)"/>
<line x1="245.42105263157896" y1="421.74581435199326" x2="260.2631578947369" y2="421.74581435199326" stroke="#000"/>
<line x1="245.42105263157896" y1="421.89071598338455" x2="260.2631578947369" y2="421.89071598338455" stroke="#000"/>
<line x1="252.84210526315792" y1="421.74581435199326" x2="252.84210526315792" y2="421.89071598338455" stroke="#000"/>
<line x1="252.84210526315786" y1="498.0" x2="252.84210526315786" y2="502.79999999999995" stroke="#000"/>
<text x="252.84210526315786" y="512.4" fill="#111" font-size="small" font-family="monospace" font-weight="bold" text-anchor="end" transform="rotate(-60, 252.84210526315786, 512.4)">
etanni
</text>
<rect x="275.10526315789474" y="426.22258757391484" width="14.842105263157894" height="71.7774124260851" fill="#7070f8" data-tooltip="1.00x baseline speed (No JIT)"/>
<line x1="275.10526315789474" y1="425.102358971646" x2="289.9473684210526" y2="425.102358971646" stroke="#000"/>
<line x1="275.10526315789474" y1="427.3428161761836" x2="289.9473684210526" y2="427.3428161761836" stroke="#000"/>
<line x1="282.5263157894737" y1="425.102358971646" x2="282.5263157894737" y2="427.3428161761836" stroke="#000"/>
<rect x="289.9473684210526" y="204.99424999718138" width="14.842105263157894" height="293.00575000281856" fill="orange" data-tooltip="4.08x baseline speed (YJIT)"/>
<line x1="289.9473684210526" y1="200.4055367788106" x2="304.7894736842105" y2="200.4055367788106" stroke="#000"/>
<line x1="289.9473684210526" y1="209.58296321555216" x2="304.7894736842105" y2="209.58296321555216" stroke="#000"/>
<line x1="297.36842105263156" y1="200.4055367788106" x2="297.36842105263156" y2="209.58296321555216" stroke="#000"/>
<line x1="297.36842105263156" y1="498.0" x2="297.36842105263156" y2="502.79999999999995" stroke="#000"/>
<text x="297.36842105263156" y="512.4" fill="#111" font-size="small" font-family="monospace" font-weight="bold" text-anchor="end" transform="rotate(-60, 297.36842105263156, 512.4)">
fannkuchredux
</text>
<rect x="319.63157894736844" y="426.22258757391484" width="14.842105263157894" height="71.7774124260851" fill="#7070f8" data-tooltip="1.00x baseline speed (No JIT)"/>
<line x1="319.63157894736844" y1="425.7130388886337" x2="334.4736842105263" y2="425.7130388886337" stroke="#000"/>
<line x1="319.63157894736844" y1="426.7321362591959" x2="334.4736842105263" y2="426.7321362591959" stroke="#000"/>
<line x1="327.0526315789474" y1="425.7130388886337" x2="327.0526315789474" y2="426.7321362591959" stroke="#000"/>
<rect x="334.4736842105263" y="411.15746693252356" width="14.842105263157894" height="86.84253306747634" fill="orange" data-tooltip="1.21x baseline speed (YJIT)"/>
<line x1="334.4736842105263" y1="410.49283601058505" x2="349.31578947368416" y2="410.49283601058505" stroke="#000"/>
<line x1="334.4736842105263" y1="411.8220978544621" x2="349.31578947368416" y2="411.8220978544621" stroke="#000"/>
<line x1="341.89473684210526" y1="410.49283601058505" x2="341.89473684210526" y2="411.8220978544621" stroke="#000"/>
<line x1="341.89473684210526" y1="498.0" x2="341.89473684210526" y2="502.79999999999995" stroke="#000"/>
<text x="341.89473684210526" y="512.4" fill="#111" font-size="small" font-family="monospace" font-weight="bold" text-anchor="end" transform="rotate(-60, 341.89473684210526, 512.4)">
fluentd
</text>
<rect x="364.15789473684214" y="426.22258757391484" width="14.842105263157894" height="71.7774124260851" fill="#7070f8" data-tooltip="1.00x baseline speed (No JIT)"/>
<line x1="364.15789473684214" y1="426.13994146852417" x2="379.0" y2="426.13994146852417" stroke="#000"/>
<line x1="364.15789473684214" y1="426.3052336793055" x2="379.0" y2="426.3052336793055" stroke="#000"/>
<line x1="371.57894736842104" y1="426.13994146852417" x2="371.57894736842104" y2="426.3052336793055" stroke="#000"/>
<rect x="379.0" y="409.9721271008883" width="14.842105263157894" height="88.0278728991117" fill="orange" data-tooltip="1.23x baseline speed (YJIT)"/>
<line x1="379.0" y1="409.84963640423325" x2="393.84210526315786" y2="409.84963640423325" stroke="#000"/>
<line x1="379.0" y1="410.0946177975433" x2="393.84210526315786" y2="410.0946177975433" stroke="#000"/>
<line x1="386.42105263157896" y1="409.84963640423325" x2="386.42105263157896" y2="410.0946177975433" stroke="#000"/>
<line x1="386.42105263157896" y1="498.0" x2="386.42105263157896" y2="502.79999999999995" stroke="#000"/>
<text x="386.42105263157896" y="512.4" fill="#111" font-size="small" font-family="monospace" font-weight="bold" text-anchor="end" transform="rotate(-60, 386.42105263157896, 512.4)">
graphql
</text>
<rect x="408.6842105263158" y="426.22258757391484" width="14.842105263157894" height="71.7774124260851" fill="#7070f8" data-tooltip="1.00x baseline speed (No JIT)"/>
<line x1="408.6842105263158" y1="426.1114091096079" x2="423.52631578947364" y2="426.1114091096079" stroke="#000"/>
<line x1="408.6842105263158" y1="426.33376603822177" x2="423.52631578947364" y2="426.33376603822177" stroke="#000"/>
<line x1="416.1052631578947" y1="426.1114091096079" x2="416.1052631578947" y2="426.33376603822177" stroke="#000"/>
<rect x="423.52631578947364" y="418.3518066218012" width="14.842105263157894" height="79.6481933781988" fill="orange" data-tooltip="1.11x baseline speed (YJIT)"/>
<line x1="423.52631578947364" y1="418.1147131525902" x2="438.3684210526315" y2="418.1147131525902" stroke="#000"/>
<line x1="423.52631578947364" y1="418.5889000910122" x2="438.3684210526315" y2="418.5889000910122" stroke="#000"/>
<line x1="430.9473684210526" y1="418.1147131525902" x2="430.9473684210526" y2="418.5889000910122" stroke="#000"/>
<line x1="430.9473684210526" y1="498.0" x2="430.9473684210526" y2="502.79999999999995" stroke="#000"/>
<text x="430.9473684210526" y="512.4" fill="#111" font-size="small" font-family="monospace" font-weight="bold" text-anchor="end" transform="rotate(-60, 430.9473684210526, 512.4)">
graphql-native
</text>
<rect x="453.2105263157895" y="426.22258757391484" width="14.842105263157894" height="71.7774124260851" fill="#7070f8" data-tooltip="1.00x baseline speed (No JIT)"/>
<line x1="453.2105263157895" y1="425.77949435423875" x2="468.0526315789474" y2="425.77949435423875" stroke="#000"/>
<line x1="453.2105263157895" y1="426.6656807935909" x2="468.0526315789474" y2="426.6656807935909" stroke="#000"/>
<line x1="460.63157894736844" y1="425.77949435423875" x2="460.63157894736844" y2="426.6656807935909" stroke="#000"/>
<rect x="468.0526315789474" y="394.4541985148851" width="14.842105263157894" height="103.54580148511486" fill="orange" data-tooltip="1.44x baseline speed (YJIT)"/>
<line x1="468.0526315789474" y1="393.4552402300396" x2="482.89473684210526" y2="393.4552402300396" stroke="#000"/>
<line x1="468.0526315789474" y1="395.45315679973055" x2="482.89473684210526" y2="395.45315679973055" stroke="#000"/>
<line x1="475.4736842105263" y1="393.4552402300396" x2="475.4736842105263" y2="395.45315679973055" stroke="#000"/>
<line x1="475.4736842105263" y1="498.0" x2="475.4736842105263" y2="502.79999999999995" stroke="#000"/>
<text x="475.4736842105263" y="512.4" fill="#111" font-size="small" font-family="monospace" font-weight="bold" text-anchor="end" transform="rotate(-60, 475.4736842105263, 512.4)">
lee
</text>
<rect x="497.7368421052631" y="426.22258757391484" width="14.842105263157894" height="71.7774124260851" fill="#7070f8" data-tooltip="1.00x baseline speed (No JIT)"/>
<line x1="497.7368421052631" y1="423.7587727328879" x2="512.578947368421" y2="423.7587727328879" stroke="#000"/>
<line x1="497.7368421052631" y1="428.68640241494177" x2="512.578947368421" y2="428.68640241494177" stroke="#000"/>
<line x1="505.15789473684214" y1="423.7587727328879" x2="505.15789473684214" y2="428.68640241494177" stroke="#000"/>
<rect x="512.578947368421" y="358.5419306102741" width="14.842105263157894" height="139.45806938972584" fill="orange" data-tooltip="1.94x baseline speed (YJIT)"/>
<line x1="512.578947368421" y1="353.75291132456346" x2="527.4210526315788" y2="353.75291132456346" stroke="#000"/>
<line x1="512.578947368421" y1="363.3309498959848" x2="527.4210526315788" y2="363.3309498959848" stroke="#000"/>
<line x1="520.0" y1="353.75291132456346" x2="520.0" y2="363.3309498959848" stroke="#000"/>
<line x1="520.0" y1="498.0" x2="520.0" y2="502.79999999999995" stroke="#000"/>
<text x="520.0" y="512.4" fill="#111" font-size="small" font-family="monospace" font-weight="bold" text-anchor="end" transform="rotate(-60, 520.0, 512.4)">
matmul
</text>
<rect x="542.2631578947369" y="426.22258757391484" width="14.842105263157894" height="71.7774124260851" fill="#7070f8" data-tooltip="1.00x baseline speed (No JIT)"/>
<line x1="542.2631578947369" y1="425.7571772109309" x2="557.1052631578948" y2="425.7571772109309" stroke="#000"/>
<line x1="542.2631578947369" y1="426.6879979368988" x2="557.1052631578948" y2="426.6879979368988" stroke="#000"/>
<line x1="549.6842105263158" y1="425.7571772109309" x2="549.6842105263158" y2="426.6879979368988" stroke="#000"/>
<rect x="557.1052631578948" y="319.65706533922213" width="14.842105263157894" height="178.34293466077784" fill="orange" data-tooltip="2.48x baseline speed (YJIT)"/>
<line x1="557.1052631578948" y1="318.01728806634196" x2="571.9473684210526" y2="318.01728806634196" stroke="#000"/>
<line x1="557.1052631578948" y1="321.29684261210224" x2="571.9473684210526" y2="321.29684261210224" stroke="#000"/>
<line x1="564.5263157894738" y1="318.01728806634196" x2="564.5263157894738" y2="321.29684261210224" stroke="#000"/>
<line x1="564.5263157894738" y1="498.0" x2="564.5263157894738" y2="502.79999999999995" stroke="#000"/>
<text x="564.5263157894738" y="512.4" fill="#111" font-size="small" font-family="monospace" font-weight="bold" text-anchor="end" transform="rotate(-60, 564.5263157894738, 512.4)">
nbody
</text>
<rect x="586.7894736842105" y="426.22258757391484" width="14.842105263157894" height="71.7774124260851" fill="#7070f8" data-tooltip="1.00x baseline speed (No JIT)"/>
<line x1="586.7894736842105" y1="424.04942327516636" x2="601.6315789473684" y2="424.04942327516636" stroke="#000"/>
<line x1="586.7894736842105" y1="428.39575187266325" x2="601.6315789473684" y2="428.39575187266325" stroke="#000"/>
<line x1="594.2105263157895" y1="424.04942327516636" x2="594.2105263157895" y2="428.39575187266325" stroke="#000"/>
<rect x="601.6315789473684" y="100.19999999999999" width="14.842105263157894" height="397.79999999999995" fill="orange" data-tooltip="5.54x baseline speed (YJIT)"/>
<line x1="601.6315789473684" y1="87.98316543042321" x2="616.4736842105262" y2="87.98316543042321" stroke="#000"/>
<line x1="601.6315789473684" y1="112.41683456957676" x2="616.4736842105262" y2="112.41683456957676" stroke="#000"/>
<line x1="609.0526315789474" y1="87.98316543042321" x2="609.0526315789474" y2="112.41683456957676" stroke="#000"/>
<line x1="609.0526315789474" y1="498.0" x2="609.0526315789474" y2="502.79999999999995" stroke="#000"/>
<text x="609.0526315789474" y="512.4" fill="#111" font-size="small" font-family="monospace" font-weight="bold" text-anchor="end" transform="rotate(-60, 609.0526315789474, 512.4)">
nqueens
</text>
<rect x="631.3157894736842" y="426.22258757391484" width="14.842105263157894" height="71.7774124260851" fill="#7070f8" data-tooltip="1.00x baseline speed (No JIT)"/>
<line x1="631.3157894736842" y1="425.90436725786356" x2="646.1578947368421" y2="425.90436725786356" stroke="#000"/>
<line x1="631.3157894736842" y1="426.5408078899661" x2="646.1578947368421" y2="426.5408078899661" stroke="#000"/>
<line x1="638.7368421052631" y1="425.90436725786356" x2="638.7368421052631" y2="426.5408078899661" stroke="#000"/>
<rect x="646.1578947368421" y="324.11317553835755" width="14.842105263157894" height="173.8868244616424" fill="orange" data-tooltip="2.42x baseline speed (YJIT)"/>
<line x1="646.1578947368421" y1="323.1078277456896" x2="660.9999999999999" y2="323.1078277456896" stroke="#000"/>
<line x1="646.1578947368421" y1="325.11852333102553" x2="660.9999999999999" y2="325.11852333102553" stroke="#000"/>
<line x1="653.578947368421" y1="323.1078277456896" x2="653.578947368421" y2="325.11852333102553" stroke="#000"/>
<line x1="653.578947368421" y1="498.0" x2="653.578947368421" y2="502.79999999999995" stroke="#000"/>
<text x="653.578947368421" y="512.4" fill="#111" font-size="small" font-family="monospace" font-weight="bold" text-anchor="end" transform="rotate(-60, 653.578947368421, 512.4)">
optcarrot
</text>
<rect x="675.8421052631579" y="426.22258757391484" width="14.842105263157894" height="71.7774124260851" fill="#7070f8" data-tooltip="1.00x baseline speed (No JIT)"/>
<line x1="675.8421052631579" y1="425.6189479675001" x2="690.6842105263158" y2="425.6189479675001" stroke="#000"/>
<line x1="675.8421052631579" y1="426.82622718032957" x2="690.6842105263158" y2="426.82622718032957" stroke="#000"/>
<line x1="683.2631578947369" y1="425.6189479675001" x2="683.2631578947369" y2="426.82622718032957" stroke="#000"/>
<rect x="690.6842105263158" y="286.88992545843524" width="14.842105263157894" height="211.11007454156467" fill="orange" data-tooltip="2.94x baseline speed (YJIT)"/>
<line x1="690.6842105263158" y1="285.1084271978375" x2="705.5263157894736" y2="285.1084271978375" stroke="#000"/>
<line x1="690.6842105263158" y1="288.67142371903304" x2="705.5263157894736" y2="288.67142371903304" stroke="#000"/>
<line x1="698.1052631578948" y1="285.1084271978375" x2="698.1052631578948" y2="288.67142371903304" stroke="#000"/>
<line x1="698.1052631578948" y1="498.0" x2="698.1052631578948" y2="502.79999999999995" stroke="#000"/>
<text x="698.1052631578948" y="512.4" fill="#111" font-size="small" font-family="monospace" font-weight="bold" text-anchor="end" transform="rotate(-60, 698.1052631578948, 512.4)">
protoboeuf
</text>
<rect x="720.3684210526316" y="426.22258757391484" width="14.842105263157894" height="71.7774124260851" fill="#7070f8" data-tooltip="1.00x baseline speed (No JIT)"/>
<line x1="720.3684210526316" y1="426.16614413215524" x2="735.2105263157895" y2="426.16614413215524" stroke="#000"/>
<line x1="720.3684210526316" y1="426.27903101567443" x2="735.2105263157895" y2="426.27903101567443" stroke="#000"/>
<line x1="727.7894736842105" y1="426.16614413215524" x2="727.7894736842105" y2="426.27903101567443" stroke="#000"/>
<rect x="735.2105263157895" y="411.7026706662212" width="14.842105263157894" height="86.29732933377868" fill="orange" data-tooltip="1.20x baseline speed (YJIT)"/>
<line x1="735.2105263157895" y1="411.2352444362694" x2="750.0526315789473" y2="411.2352444362694" stroke="#000"/>
<line x1="735.2105263157895" y1="412.170096896173" x2="750.0526315789473" y2="412.170096896173" stroke="#000"/>
<line x1="742.6315789473684" y1="411.2352444362694" x2="742.6315789473684" y2="412.170096896173" stroke="#000"/>
<line x1="742.6315789473684" y1="498.0" x2="742.6315789473684" y2="502.79999999999995" stroke="#000"/>
<text x="742.6315789473684" y="512.4" fill="#111" font-size="small" font-family="monospace" font-weight="bold" text-anchor="end" transform="rotate(-60, 742.6315789473684, 512.4)">
rack
</text>
<rect x="764.8947368421053" y="426.22258757391484" width="14.842105263157894" height="71.7774124260851" fill="#7070f8" data-tooltip="1.00x baseline speed (No JIT)"/>
<line x1="764.8947368421053" y1="426.17408881071333" x2="779.7368421052631" y2="426.17408881071333" stroke="#000"/>
<line x1="764.8947368421053" y1="426.27108633711634" x2="779.7368421052631" y2="426.27108633711634" stroke="#000"/>
<line x1="772.3157894736843" y1="426.17408881071333" x2="772.3157894736843" y2="426.27108633711634" stroke="#000"/>
<rect x="779.7368421052631" y="414.88030455869" width="14.842105263157894" height="83.11969544130997" fill="orange" data-tooltip="1.16x baseline speed (YJIT)"/>
<line x1="779.7368421052631" y1="414.6942464441782" x2="794.578947368421" y2="414.6942464441782" stroke="#000"/>
<line x1="779.7368421052631" y1="415.0663626732018" x2="794.578947368421" y2="415.0663626732018" stroke="#000"/>
<line x1="787.1578947368422" y1="414.6942464441782" x2="787.1578947368422" y2="415.0663626732018" stroke="#000"/>
<line x1="787.1578947368422" y1="498.0" x2="787.1578947368422" y2="502.79999999999995" stroke="#000"/>
<text x="787.1578947368422" y="512.4" fill="#111" font-size="small" font-family="monospace" font-weight="bold" text-anchor="end" transform="rotate(-60, 787.1578947368422, 512.4)">
ruby-json
</text>
<rect x="809.421052631579" y="426.22258757391484" width="14.842105263157894" height="71.7774124260851" fill="#7070f8" data-tooltip="1.00x baseline speed (No JIT)"/>
<line x1="809.421052631579" y1="425.9233841074977" x2="824.2631578947368" y2="425.9233841074977" stroke="#000"/>
<line x1="809.421052631579" y1="426.5217910403319" x2="824.2631578947368" y2="426.5217910403319" stroke="#000"/>
<line x1="816.8421052631579" y1="425.9233841074977" x2="816.8421052631579" y2="426.5217910403319" stroke="#000"/>
<rect x="824.2631578947368" y="363.11914899615124" width="14.842105263157894" height="134.88085100384865" fill="orange" data-tooltip="1.88x baseline speed (YJIT)"/>
<line x1="824.2631578947368" y1="362.280154794487" x2="839.1052631578947" y2="362.280154794487" stroke="#000"/>
<line x1="824.2631578947368" y1="363.95814319781556" x2="839.1052631578947" y2="363.95814319781556" stroke="#000"/>
<line x1="831.6842105263158" y1="362.280154794487" x2="831.6842105263158" y2="363.95814319781556" stroke="#000"/>
<line x1="831.6842105263158" y1="498.0" x2="831.6842105263158" y2="502.79999999999995" stroke="#000"/>
<text x="831.6842105263158" y="512.4" fill="#111" font-size="small" font-family="monospace" font-weight="bold" text-anchor="end" transform="rotate(-60, 831.6842105263158, 512.4)">
rubykon
</text>
<rect x="853.9473684210526" y="426.22258757391484" width="14.842105263157894" height="71.7774124260851" fill="#7070f8" data-tooltip="1.00x baseline speed (No JIT)"/>
<line x1="853.9473684210526" y1="426.0683235359093" x2="868.7894736842104" y2="426.0683235359093" stroke="#000"/>
<line x1="853.9473684210526" y1="426.37685161192036" x2="868.7894736842104" y2="426.37685161192036" stroke="#000"/>
<line x1="861.3684210526316" y1="426.0683235359093" x2="861.3684210526316" y2="426.37685161192036" stroke="#000"/>
<rect x="868.7894736842104" y="255.56609856940062" width="14.842105263157894" height="242.43390143059932" fill="orange" data-tooltip="3.38x baseline speed (YJIT)"/>
<line x1="868.7894736842104" y1="254.99226081457758" x2="883.6315789473683" y2="254.99226081457758" stroke="#000"/>
<line x1="868.7894736842104" y1="256.13993632422364" x2="883.6315789473683" y2="256.13993632422364" stroke="#000"/>
<line x1="876.2105263157895" y1="254.99226081457758" x2="876.2105263157895" y2="256.13993632422364" stroke="#000"/>
<line x1="876.2105263157895" y1="498.0" x2="876.2105263157895" y2="502.79999999999995" stroke="#000"/>
<text x="876.2105263157895" y="512.4" fill="#111" font-size="small" font-family="monospace" font-weight="bold" text-anchor="end" transform="rotate(-60, 876.2105263157895, 512.4)">
sudoku
</text>
<rect x="898.4736842105264" y="426.22258757391484" width="14.842105263157894" height="71.7774124260851" fill="#7070f8" data-tooltip="1.00x baseline speed (No JIT)"/>
<line x1="898.4736842105264" y1="425.94040875746543" x2="913.3157894736842" y2="425.94040875746543" stroke="#000"/>
<line x1="898.4736842105264" y1="426.5047663903642" x2="913.3157894736842" y2="426.5047663903642" stroke="#000"/>
<line x1="905.8947368421053" y1="425.94040875746543" x2="905.8947368421053" y2="426.5047663903642" stroke="#000"/>
<rect x="913.3157894736842" y="370.74519375321216" width="14.842105263157894" height="127.25480624678774" fill="orange" data-tooltip="1.77x baseline speed (YJIT)"/>
<line x1="913.3157894736842" y1="370.24022685046646" x2="928.1578947368421" y2="370.24022685046646" stroke="#000"/>
<line x1="913.3157894736842" y1="371.25016065595787" x2="928.1578947368421" y2="371.25016065595787" stroke="#000"/>
<line x1="920.7368421052632" y1="370.24022685046646" x2="920.7368421052632" y2="371.25016065595787" stroke="#000"/>
<line x1="920.7368421052632" y1="498.0" x2="920.7368421052632" y2="502.79999999999995" stroke="#000"/>
<text x="920.7368421052632" y="512.4" fill="#111" font-size="small" font-family="monospace" font-weight="bold" text-anchor="end" transform="rotate(-60, 920.7368421052632, 512.4)">
tinygql
</text>
</svg>