<svg viewBox="0 0 1000 600" xmlns="http://www.w3.org/2000/svg" xmlns:xlink="http://www.w3.org/1999/xlink" width="100%" height="100%">

<rect x="50.0" y="30.0" width="940.0" height="467.99999999999994" stroke="#000" fill="#EEE"/>
<line x1="42.0" y1="497.9999999999999" x2="50.0" y2="497.9999999999999" stroke="#000"/>
<text x="26.000000000000004" y="497.9999999999999" text-anchor="end" font-weight="bold" font-size="small" fill="#111">
0.0
</text>
<line x1="42.0" y1="457.8477541668254" x2="50.0" y2="457.8477541668254" stroke="#000"/>
<text x="26.000000000000004" y="457.8477541668254" text-anchor="end" font-weight="bold" font-size="small" fill="#111">
0.2
</text>
<line x1="42.0" y1="417.6955083336508" x2="50.0" y2="417.6955083336508" stroke="#000"/>
<text x="26.000000000000004" y="417.6955083336508" text-anchor="end" font-weight="bold" font-size="small" fill="#111">
0.4
</text>
<line x1="42.0" y1="377.5432625004763" x2="50.0" y2="377.5432625004763" stroke="#000"/>
<text x="26.000000000000004" y="377.5432625004763" text-anchor="end" font-weight="bold" font-size="small" fill="#111">
0.6
</text>
<line x1="42.0" y1="337.3910166673017" x2="50.0" y2="337.3910166673017" stroke="#000"/>
<text x="26.000000000000004" y="337.3910166673017" text-anchor="end" font-weight="bold" font-size="small" fill="#111">
0.8
</text>
<line x1="42.0" y1="297.23877083412714" x2="50.0" y2="297.23877083412714" stroke="#000"/>
<text x="26.000000000000004" y="297.23877083412714" text-anchor="end" font-weight="bold" font-size="small" fill="#111">
1.0
</text>
<line x1="42.0" y1="257.08652500095263" x2="50.0" y2="257.08652500095263" stroke="#000"/>
<text x="26.000000000000004" y="257.08652500095263" text-anchor="end" font-weight="bold" font-size="small" fill="#111">
1.2
</text>
<line x1="42.0" y1="216.93427916777804" x2="50.0" y2="216.93427916777804" stroke="#000"/>
<text x="26.000000000000004" y="216.93427916777804" text-anchor="end" font-weight="bold" font-size="small" fill="#111">
1.4
</text>
<line x1="42.0" y1="176.78203333460348" x2="50.0" y2="176.78203333460348" stroke="#000"/>
<text x="26.000000000000004" y="176.78203333460348" text-anchor="end" font-weight="bold" font-size="small" fill="#111">
1.6
</text>
<line x1="42.0" y1="136.6297875014289" x2="50.0" y2="136.6297875014289" stroke="#000"/>
<text x="26.000000000000004" y="136.6297875014289" text-anchor="end" font-weight="bold" font-size="small" fill="#111">
1.8
</text>
<rect x="197.99999999999997" y="36.00000000000001" width="80.0" height="18.0" fill="#7070f8" stroke="#888"/>
<text x="238.0" y="52.50000000000001" font-size="small" text-anchor="middle" font-weight="bold" fill="#EEE">
No JIT
</text>
<rect x="479.99999999999994" y="36.00000000000001" width="80.0" height="18.0" fill="orange" stroke="#888"/>
<text x="519.9999999999999" y="52.50000000000001" font-size="small" text-anchor="middle" font-weight="bold" fill="#EEE">
MJIT3.0
</text>
<rect x="761.9999999999999" y="36.00000000000001" width="80.0" height="18.0" fill="green" stroke="#888"/>
<text x="801.9999999999999" y="52.50000000000001" font-size="small" text-anchor="middle" font-weight="bold" fill="#EEE">
YJIT
</text>
<rect x="97.0" y="297.23877083412714" width="35.25" height="200.76122916587283" fill="#7070f8" data-tooltip="1.00x baseline speed (No JIT)"/>
<line x1="97.0" y1="296.55568453976474" x2="132.25" y2="296.55568453976474" stroke="#000"/>
<line x1="97.0" y1="297.92185712848953" x2="132.25" y2="297.92185712848953" stroke="#000"/>
<line x1="114.625" y1="296.55568453976474" x2="114.625" y2="297.92185712848953" stroke="#000"/>
<rect x="132.25" y="193.48944609929748" width="35.25" height="304.51055390070246" fill="orange" data-tooltip="1.52x baseline speed (MJIT3.0)"/>
<line x1="132.25" y1="191.74914018257027" x2="167.5" y2="191.74914018257027" stroke="#000"/>
<line x1="132.25" y1="195.22975201602466" x2="167.5" y2="195.22975201602466" stroke="#000"/>
<line x1="149.875" y1="191.74914018257027" x2="149.875" y2="195.22975201602466" stroke="#000"/>
<rect x="167.49999999999997" y="236.6505439203674" width="35.25" height="261.34945607963255" fill="green" data-tooltip="1.30x baseline speed (YJIT)"/>
<line x1="167.49999999999997" y1="235.39600835744577" x2="202.75" y2="235.39600835744577" stroke="#000"/>
<line x1="167.49999999999997" y1="237.90507948328903" x2="202.75" y2="237.90507948328903" stroke="#000"/>
<line x1="185.12499999999997" y1="235.39600835744577" x2="185.12499999999997" y2="237.90507948328903" stroke="#000"/>
<line x1="167.49999999999997" y1="498.0" x2="167.49999999999997" y2="502.79999999999995" stroke="#000"/>
<text x="167.49999999999997" y="512.4" fill="#111" font-size="small" font-family="monospace" font-weight="bold" text-anchor="end" transform="rotate(-60, 167.49999999999997, 512.4)">
binarytrees
</text>
<rect x="238.0" y="297.23877083412714" width="35.25" height="200.76122916587283" fill="#7070f8" data-tooltip="1.00x baseline speed (No JIT)"/>
<line x1="238.0" y1="297.06687694291537" x2="273.25" y2="297.06687694291537" stroke="#000"/>
<line x1="238.0" y1="297.41066472533885" x2="273.25" y2="297.41066472533885" stroke="#000"/>
<line x1="255.625" y1="297.06687694291537" x2="255.625" y2="297.41066472533885" stroke="#000"/>
<rect x="273.25" y="218.71434785494074" width="35.25" height="279.2856521450592" fill="orange" data-tooltip="1.39x baseline speed (MJIT3.0)"/>
<line x1="273.25" y1="218.32602135465208" x2="308.5" y2="218.32602135465208" stroke="#000"/>
<line x1="273.25" y1="219.1026743552294" x2="308.5" y2="219.1026743552294" stroke="#000"/>
<line x1="290.875" y1="218.32602135465208" x2="290.875" y2="219.1026743552294" stroke="#000"/>
<rect x="308.5" y="298.50958799308626" width="35.25" height="199.4904120069137" fill="green" data-tooltip="0.99x baseline speed (YJIT)"/>
<line x1="308.5" y1="298.3291443924773" x2="343.75" y2="298.3291443924773" stroke="#000"/>
<line x1="308.5" y1="298.6900315936952" x2="343.75" y2="298.6900315936952" stroke="#000"/>
<line x1="326.125" y1="298.3291443924773" x2="326.125" y2="298.6900315936952" stroke="#000"/>
<line x1="308.5" y1="498.0" x2="308.5" y2="502.79999999999995" stroke="#000"/>
<text x="308.5" y="512.4" fill="#111" font-size="small" font-family="monospace" font-weight="bold" text-anchor="end" transform="rotate(-60, 308.5, 512.4)">
fannkuchredux
</text>
<rect x="379.0" y="297.23877083412714" width="35.25" height="200.76122916587283" fill="#7070f8" data-tooltip="1.00x baseline speed (No JIT)"/>
<line x1="379.0" y1="292.2509460142551" x2="414.25" y2="292.2509460142551" stroke="#000"/>
<line x1="379.0" y1="302.2265956539992" x2="414.25" y2="302.2265956539992" stroke="#000"/>
<line x1="396.625" y1="292.2509460142551" x2="396.625" y2="302.2265956539992" stroke="#000"/>
<rect x="414.25" y="295.6542634571108" width="35.25" height="202.34573654288914" fill="orange" data-tooltip="1.01x baseline speed (MJIT3.0)"/>
<line x1="414.25" y1="289.81641668234624" x2="449.5" y2="289.81641668234624" stroke="#000"/>
<line x1="414.25" y1="301.49211023187536" x2="449.5" y2="301.49211023187536" stroke="#000"/>
<line x1="431.875" y1="289.81641668234624" x2="431.875" y2="301.49211023187536" stroke="#000"/>
<rect x="449.5" y="274.26196297309605" width="35.25" height="223.7380370269039" fill="green" data-tooltip="1.11x baseline speed (YJIT)"/>
<line x1="449.5" y1="265.5181667331864" x2="484.75" y2="265.5181667331864" stroke="#000"/>
<line x1="449.5" y1="283.0057592130057" x2="484.75" y2="283.0057592130057" stroke="#000"/>
<line x1="467.125" y1="265.5181667331864" x2="467.125" y2="283.0057592130057" stroke="#000"/>
<line x1="449.5" y1="498.0" x2="449.5" y2="502.79999999999995" stroke="#000"/>
<text x="449.5" y="512.4" fill="#111" font-size="small" font-family="monospace" font-weight="bold" text-anchor="end" transform="rotate(-60, 449.5, 512.4)">
jekyll
</text>
<rect x="519.9999999999999" y="297.23877083412714" width="35.25" height="200.76122916587283" fill="#7070f8" data-tooltip="1.00x baseline speed (No JIT)"/>
<line x1="519.9999999999999" y1="294.9237316814329" x2="555.2499999999999" y2="294.9237316814329" stroke="#000"/>
<line x1="519.9999999999999" y1="299.55380998682136" x2="555.2499999999999" y2="299.55380998682136" stroke="#000"/>
<line x1="537.6249999999999" y1="294.9237316814329" x2="537.6249999999999" y2="299.55380998682136" stroke="#000"/>
<rect x="555.2499999999999" y="239.05859729638505" width="35.25" height="258.94140270361487" fill="orange" data-tooltip="1.29x baseline speed (MJIT3.0)"/>
<line x1="555.2499999999999" y1="233.5143820989122" x2="590.4999999999999" y2="233.5143820989122" stroke="#000"/>
<line x1="555.2499999999999" y1="244.60281249385793" x2="590.4999999999999" y2="244.60281249385793" stroke="#000"/>
<line x1="572.8749999999999" y1="233.5143820989122" x2="572.8749999999999" y2="244.60281249385793" stroke="#000"/>
<rect x="590.4999999999999" y="216.3380878342766" width="35.25" height="281.6619121657233" fill="green" data-tooltip="1.40x baseline speed (YJIT)"/>
<line x1="590.4999999999999" y1="210.5063906399893" x2="625.7499999999999" y2="210.5063906399893" stroke="#000"/>
<line x1="590.4999999999999" y1="222.1697850285639" x2="625.7499999999999" y2="222.1697850285639" stroke="#000"/>
<line x1="608.1249999999999" y1="210.5063906399893" x2="608.1249999999999" y2="222.1697850285639" stroke="#000"/>
<line x1="590.4999999999999" y1="498.0" x2="590.4999999999999" y2="502.79999999999995" stroke="#000"/>
<text x="590.4999999999999" y="512.4" fill="#111" font-size="small" font-family="monospace" font-weight="bold" text-anchor="end" transform="rotate(-60, 590.4999999999999, 512.4)">
lee
</text>
<rect x="660.9999999999999" y="297.23877083412714" width="35.25" height="200.76122916587283" fill="#7070f8" data-tooltip="1.00x baseline speed (No JIT)"/>
<line x1="660.9999999999999" y1="297.1829929520782" x2="696.2499999999999" y2="297.1829929520782" stroke="#000"/>
<line x1="660.9999999999999" y1="297.294548716176" x2="696.2499999999999" y2="297.294548716176" stroke="#000"/>
<line x1="678.6249999999999" y1="297.1829929520782" x2="678.6249999999999" y2="297.294548716176" stroke="#000"/>
<rect x="696.2499999999999" y="118.08692831885142" width="35.25" height="379.9130716811485" fill="orange" data-tooltip="1.89x baseline speed (MJIT3.0)"/>
<line x1="696.2499999999999" y1="113.93919215413639" x2="731.4999999999999" y2="113.93919215413639" stroke="#000"/>
<line x1="696.2499999999999" y1="122.23466448356645" x2="731.4999999999999" y2="122.23466448356645" stroke="#000"/>
<line x1="713.8749999999999" y1="113.93919215413639" x2="713.8749999999999" y2="122.23466448356645" stroke="#000"/>
<rect x="731.4999999999999" y="195.31170612288165" width="35.25" height="302.68829387711827" fill="green" data-tooltip="1.51x baseline speed (YJIT)"/>
<line x1="731.4999999999999" y1="195.13130606122147" x2="766.7499999999999" y2="195.13130606122147" stroke="#000"/>
<line x1="731.4999999999999" y1="195.49210618454183" x2="766.7499999999999" y2="195.49210618454183" stroke="#000"/>
<line x1="749.1249999999999" y1="195.13130606122147" x2="749.1249999999999" y2="195.49210618454183" stroke="#000"/>
<line x1="731.4999999999999" y1="498.0" x2="731.4999999999999" y2="502.79999999999995" stroke="#000"/>
<text x="731.4999999999999" y="512.4" fill="#111" font-size="small" font-family="monospace" font-weight="bold" text-anchor="end" transform="rotate(-60, 731.4999999999999, 512.4)">
nbody
</text>
<rect x="801.9999999999999" y="297.23877083412714" width="35.25" height="200.76122916587283" fill="#7070f8" data-tooltip="1.00x baseline speed (No JIT)"/>
<line x1="801.9999999999999" y1="296.65656349286263" x2="837.2499999999999" y2="296.65656349286263" stroke="#000"/>
<line x1="801.9999999999999" y1="297.8209781753916" x2="837.2499999999999" y2="297.8209781753916" stroke="#000"/>
<line x1="819.6249999999999" y1="296.65656349286263" x2="819.6249999999999" y2="297.8209781753916" stroke="#000"/>
<rect x="837.2499999999999" y="100.19999999999999" width="35.25" height="397.79999999999995" fill="orange" data-tooltip="1.98x baseline speed (MJIT3.0)"/>
<line x1="837.2499999999999" y1="98.66648769545372" x2="872.4999999999999" y2="98.66648769545372" stroke="#000"/>
<line x1="837.2499999999999" y1="101.73351230454625" x2="872.4999999999999" y2="101.73351230454625" stroke="#000"/>
<line x1="854.8749999999999" y1="98.66648769545372" x2="854.8749999999999" y2="101.73351230454625" stroke="#000"/>
<rect x="872.4999999999999" y="159.21933656500153" width="35.25" height="338.7806634349985" fill="green" data-tooltip="1.69x baseline speed (YJIT)"/>
<line x1="872.4999999999999" y1="157.710235435728" x2="907.75" y2="157.710235435728" stroke="#000"/>
<line x1="872.4999999999999" y1="160.72843769427502" x2="907.75" y2="160.72843769427502" stroke="#000"/>
<line x1="890.125" y1="157.710235435728" x2="890.125" y2="160.72843769427502" stroke="#000"/>
<line x1="872.4999999999999" y1="498.0" x2="872.4999999999999" y2="502.79999999999995" stroke="#000"/>
<text x="872.4999999999999" y="512.4" fill="#111" font-size="small" font-family="monospace" font-weight="bold" text-anchor="end" transform="rotate(-60, 872.4999999999999, 512.4)">
optcarrot
</text>
</svg>