<svg viewBox="0 0 1000 600" xmlns="http://www.w3.org/2000/svg" xmlns:xlink="http://www.w3.org/1999/xlink" width="100%" height="100%">

<rect x="50.0" y="30.0" width="940.0" height="467.99999999999994" stroke="#000" fill="#fff"/>
<line x1="42.0" y1="497.9999999999999" x2="50.0" y2="497.9999999999999" stroke="#000"/>
<text x="26.000000000000004" y="497.9999999999999" text-anchor="end" font-weight="bold" font-size="small" fill="#111">
0.0
</text>
<line x1="42.0" y1="402.84013904193944" x2="50.0" y2="402.84013904193944" stroke="#000"/>
<text x="26.000000000000004" y="402.84013904193944" text-anchor="end" font-weight="bold" font-size="small" fill="#111">
0.5
</text>
<line x1="42.0" y1="307.68027808387893" x2="50.0" y2="307.68027808387893" stroke="#000"/>
<text x="26.000000000000004" y="307.68027808387893" text-anchor="end" font-weight="bold" font-size="small" fill="#111">
1.0
</text>
<line x1="42.0" y1="212.52041712581834" x2="50.0" y2="212.52041712581834" stroke="#000"/>
<text x="26.000000000000004" y="212.52041712581834" text-anchor="end" font-weight="bold" font-size="small" fill="#111">
1.5
</text>
<line x1="42.0" y1="117.36055616775784" x2="50.0" y2="117.36055616775784" stroke="#000"/>
<text x="26.000000000000004" y="117.36055616775784" text-anchor="end" font-weight="bold" font-size="small" fill="#111">
2.0
</text>
<line x1="142.75" y1="54.60000000000001" x2="262.75" y2="54.60000000000001" stroke="#648FFF" stroke-width="2"/>
<text x="202.75" y="49.500000000000014" font-size="small" text-anchor="middle" font-weight="bold" fill="#000">
CRuby 3.3.1
</text>
<rect x="354.25" y="35.400000000000006" width="120.0" height="19.2" fill="#785EF0" stroke="none"/>
<text x="414.25" y="49.500000000000014" font-size="small" text-anchor="middle" font-weight="bold" fill="#fff" style="text-shadow: 0 0 1px #000;">
CRuby 3.4.0dev
</text>
<rect x="565.75" y="35.400000000000006" width="120.0" height="19.2" fill="#FFB000" stroke="none"/>
<text x="625.7499999999999" y="49.500000000000014" font-size="small" text-anchor="middle" font-weight="bold" fill="#fff" style="text-shadow: 0 0 1px #000;">
YJIT 3.3.1
</text>
<rect x="777.25" y="35.400000000000006" width="120.0" height="19.2" fill="#DC267F" stroke="none"/>
<text x="837.2499999999999" y="49.500000000000014" font-size="small" text-anchor="middle" font-weight="bold" fill="#fff" style="text-shadow: 0 0 1px #000;">
YJIT 3.4.0dev
</text>
<rect x="65.40983606557377" y="293.6669702178472" width="15.40983606557377" height="204.33302978215272" fill="#785EF0" data-tooltip="1.07x baseline (CRuby 3.4.0dev)"/>
<rect x="80.81967213114753" y="257.55301325123526" width="15.40983606557377" height="240.44698674876472" fill="#FFB000" data-tooltip="1.26x baseline (YJIT 3.3.1)"/>
<rect x="96.2295081967213" y="271.54256974800245" width="15.40983606557377" height="226.45743025199752" fill="#DC267F" data-tooltip="1.19x baseline (YJIT 3.4.0dev)"/>
<line x1="88.5245901639344" y1="498.0" x2="88.5245901639344" y2="502.79999999999995" stroke="#000"/>
<text x="88.5245901639344" y="512.4" fill="#111" font-size="small" text-anchor="end" transform="rotate(-60, 88.5245901639344, 512.4)">
activerecord
</text>
<rect x="127.04918032786883" y="208.15825032468484" width="15.40983606557377" height="289.8417496753151" fill="#785EF0" data-tooltip="1.52x baseline (CRuby 3.4.0dev)"/>
<rect x="142.4590163934426" y="282.1535242105791" width="15.40983606557377" height="215.84647578942085" fill="#FFB000" data-tooltip="1.13x baseline (YJIT 3.3.1)"/>
<rect x="157.86885245901638" y="152.79642968807693" width="15.40983606557377" height="345.203570311923" fill="#DC267F" data-tooltip="1.81x baseline (YJIT 3.4.0dev)"/>
<line x1="150.1639344262295" y1="498.0" x2="150.1639344262295" y2="502.79999999999995" stroke="#000"/>
<text x="150.1639344262295" y="512.4" fill="#111" font-size="small" text-anchor="end" transform="rotate(-60, 150.1639344262295, 512.4)">
chunky-png
</text>
<rect x="188.68852459016395" y="294.14865384771616" width="15.40983606557377" height="203.8513461522838" fill="#785EF0" data-tooltip="1.07x baseline (CRuby 3.4.0dev)"/>
<rect x="204.0983606557377" y="296.7216193559313" width="15.40983606557377" height="201.27838064406862" fill="#FFB000" data-tooltip="1.06x baseline (YJIT 3.3.1)"/>
<rect x="219.5081967213115" y="282.84934898206126" width="15.40983606557377" height="215.1506510179387" fill="#DC267F" data-tooltip="1.13x baseline (YJIT 3.4.0dev)"/>
<line x1="211.8032786885246" y1="498.0" x2="211.8032786885246" y2="502.79999999999995" stroke="#000"/>
<text x="211.8032786885246" y="512.4" fill="#111" font-size="small" text-anchor="end" transform="rotate(-60, 211.8032786885246, 512.4)">
erubi-rails
</text>
<rect x="250.32786885245906" y="240.53363907435013" width="15.40983606557377" height="257.4663609256498" fill="#785EF0" data-tooltip="1.35x baseline (CRuby 3.4.0dev)"/>
<rect x="265.7377049180328" y="225.86142801581644" width="15.40983606557377" height="272.1385719841835" fill="#FFB000" data-tooltip="1.43x baseline (YJIT 3.3.1)"/>
<rect x="281.14754098360663" y="100.19999999999999" width="15.40983606557377" height="397.79999999999995" fill="#DC267F" data-tooltip="2.09x baseline (YJIT 3.4.0dev)"/>
<line x1="273.4426229508197" y1="498.0" x2="273.4426229508197" y2="502.79999999999995" stroke="#000"/>
<text x="273.4426229508197" y="512.4" fill="#111" font-size="small" text-anchor="end" transform="rotate(-60, 273.4426229508197, 512.4)">
hexapdf
</text>
<rect x="311.96721311475414" y="300.0108017736366" width="15.40983606557377" height="197.98919822636333" fill="#785EF0" data-tooltip="1.04x baseline (CRuby 3.4.0dev)"/>
<rect x="327.37704918032796" y="282.1292510285608" width="15.40983606557377" height="215.8707489714391" fill="#FFB000" data-tooltip="1.13x baseline (YJIT 3.3.1)"/>
<rect x="342.7868852459017" y="281.0038387439057" width="15.40983606557377" height="216.99616125609424" fill="#DC267F" data-tooltip="1.14x baseline (YJIT 3.4.0dev)"/>
<line x1="335.08196721311486" y1="498.0" x2="335.08196721311486" y2="502.79999999999995" stroke="#000"/>
<text x="335.08196721311486" y="512.4" fill="#111" font-size="small" text-anchor="end" transform="rotate(-60, 335.08196721311486, 512.4)">
liquid-c
</text>
<rect x="373.6065573770493" y="296.79232167437533" width="15.40983606557377" height="201.20767832562464" fill="#785EF0" data-tooltip="1.06x baseline (CRuby 3.4.0dev)"/>
<rect x="389.01639344262304" y="291.94103464514086" width="15.40983606557377" height="206.05896535485908" fill="#FFB000" data-tooltip="1.08x baseline (YJIT 3.3.1)"/>
<rect x="404.42622950819685" y="283.3140853126108" width="15.40983606557377" height="214.68591468738913" fill="#DC267F" data-tooltip="1.13x baseline (YJIT 3.4.0dev)"/>
<line x1="396.72131147540995" y1="498.0" x2="396.72131147540995" y2="502.79999999999995" stroke="#000"/>
<text x="396.72131147540995" y="512.4" fill="#111" font-size="small" text-anchor="end" transform="rotate(-60, 396.72131147540995, 512.4)">
liquid-compile
</text>
<rect x="435.2459016393444" y="301.7180095999559" width="15.40983606557377" height="196.28199040004404" fill="#785EF0" data-tooltip="1.03x baseline (CRuby 3.4.0dev)"/>
<rect x="450.6557377049182" y="278.4034838731674" width="15.40983606557377" height="219.59651612683254" fill="#FFB000" data-tooltip="1.15x baseline (YJIT 3.3.1)"/>
<rect x="466.06557377049194" y="274.3738127598953" width="15.40983606557377" height="223.62618724010466" fill="#DC267F" data-tooltip="1.18x baseline (YJIT 3.4.0dev)"/>
<line x1="458.3606557377051" y1="498.0" x2="458.3606557377051" y2="502.79999999999995" stroke="#000"/>
<text x="458.3606557377051" y="512.4" fill="#111" font-size="small" text-anchor="end" transform="rotate(-60, 458.3606557377051, 512.4)">
liquid-render
</text>
<rect x="496.8852459016395" y="299.7731271775722" width="15.40983606557377" height="198.2268728224278" fill="#785EF0" data-tooltip="1.04x baseline (CRuby 3.4.0dev)"/>
<rect x="512.2950819672133" y="281.22907160321637" width="15.40983606557377" height="216.7709283967836" fill="#FFB000" data-tooltip="1.14x baseline (YJIT 3.3.1)"/>
<rect x="527.7049180327871" y="276.80934233346625" width="15.40983606557377" height="221.19065766653372" fill="#DC267F" data-tooltip="1.16x baseline (YJIT 3.4.0dev)"/>
<line x1="520.0000000000002" y1="498.0" x2="520.0000000000002" y2="502.79999999999995" stroke="#000"/>
<text x="520.0000000000002" y="512.4" fill="#111" font-size="small" text-anchor="end" transform="rotate(-60, 520.0000000000002, 512.4)">
lobsters
</text>
<rect x="558.5245901639346" y="234.20080808213942" width="15.40983606557377" height="263.7991919178605" fill="#785EF0" data-tooltip="1.39x baseline (CRuby 3.4.0dev)"/>
<rect x="573.9344262295084" y="289.61204432914343" width="15.40983606557377" height="208.38795567085648" fill="#FFB000" data-tooltip="1.09x baseline (YJIT 3.3.1)"/>
<rect x="589.3442622950822" y="220.21393957785534" width="15.40983606557377" height="277.7860604221446" fill="#DC267F" data-tooltip="1.46x baseline (YJIT 3.4.0dev)"/>
<line x1="581.6393442622954" y1="498.0" x2="581.6393442622954" y2="502.79999999999995" stroke="#000"/>
<text x="581.6393442622954" y="512.4" fill="#111" font-size="small" text-anchor="end" transform="rotate(-60, 581.6393442622954, 512.4)">
mail
</text>
<rect x="620.1639344262297" y="294.39642743695566" width="15.40983606557377" height="203.60357256304428" fill="#785EF0" data-tooltip="1.07x baseline (CRuby 3.4.0dev)"/>
<rect x="635.5737704918035" y="297.4429766578352" width="15.40983606557377" height="200.55702334216474" fill="#FFB000" data-tooltip="1.05x baseline (YJIT 3.3.1)"/>
<rect x="650.9836065573774" y="282.65825249768454" width="15.40983606557377" height="215.34174750231543" fill="#DC267F" data-tooltip="1.13x baseline (YJIT 3.4.0dev)"/>
<line x1="643.2786885245905" y1="498.0" x2="643.2786885245905" y2="502.79999999999995" stroke="#000"/>
<text x="643.2786885245905" y="512.4" fill="#111" font-size="small" text-anchor="end" transform="rotate(-60, 643.2786885245905, 512.4)">
psych-load
</text>
<rect x="681.8032786885249" y="282.4310246947543" width="15.40983606557377" height="215.56897530524566" fill="#785EF0" data-tooltip="1.13x baseline (CRuby 3.4.0dev)"/>
<rect x="697.2131147540987" y="282.9043073378708" width="15.40983606557377" height="215.09569266212912" fill="#FFB000" data-tooltip="1.13x baseline (YJIT 3.3.1)"/>
<rect x="712.6229508196724" y="272.19159227304146" width="15.40983606557377" height="225.8084077269585" fill="#DC267F" data-tooltip="1.19x baseline (YJIT 3.4.0dev)"/>
<line x1="704.9180327868855" y1="498.0" x2="704.9180327868855" y2="502.79999999999995" stroke="#000"/>
<text x="704.9180327868855" y="512.4" fill="#111" font-size="small" text-anchor="end" transform="rotate(-60, 704.9180327868855, 512.4)">
railsbench
</text>
<rect x="743.44262295082" y="300.55057646636465" width="15.40983606557377" height="197.44942353363527" fill="#785EF0" data-tooltip="1.04x baseline (CRuby 3.4.0dev)"/>
<rect x="758.8524590163937" y="241.0891981399232" width="15.40983606557377" height="256.91080186007673" fill="#FFB000" data-tooltip="1.35x baseline (YJIT 3.3.1)"/>
<rect x="774.2622950819675" y="232.15208384600643" width="15.40983606557377" height="265.8479161539935" fill="#DC267F" data-tooltip="1.40x baseline (YJIT 3.4.0dev)"/>
<line x1="766.5573770491807" y1="498.0" x2="766.5573770491807" y2="502.79999999999995" stroke="#000"/>
<text x="766.5573770491807" y="512.4" fill="#111" font-size="small" text-anchor="end" transform="rotate(-60, 766.5573770491807, 512.4)">
rubocop
</text>
<rect x="805.081967213115" y="302.7620428967564" width="15.40983606557377" height="195.23795710324353" fill="#785EF0" data-tooltip="1.03x baseline (CRuby 3.4.0dev)"/>
<rect x="820.4918032786888" y="296.71634224254996" width="15.40983606557377" height="201.28365775745002" fill="#FFB000" data-tooltip="1.06x baseline (YJIT 3.3.1)"/>
<rect x="835.9016393442627" y="291.1500363538753" width="15.40983606557377" height="206.84996364612465" fill="#DC267F" data-tooltip="1.09x baseline (YJIT 3.4.0dev)"/>
<line x1="828.1967213114758" y1="498.0" x2="828.1967213114758" y2="502.79999999999995" stroke="#000"/>
<text x="828.1967213114758" y="512.4" fill="#111" font-size="small" text-anchor="end" transform="rotate(-60, 828.1967213114758, 512.4)">
ruby-lsp
</text>
<rect x="866.7213114754102" y="299.01750480836427" width="15.40983606557377" height="198.98249519163568" fill="#785EF0" data-tooltip="1.05x baseline (CRuby 3.4.0dev)"/>
<rect x="882.131147540984" y="289.8522504843859" width="15.40983606557377" height="208.14774951561407" fill="#FFB000" data-tooltip="1.09x baseline (YJIT 3.3.1)"/>
<rect x="897.5409836065578" y="285.18922635464247" width="15.40983606557377" height="212.8107736453575" fill="#DC267F" data-tooltip="1.12x baseline (YJIT 3.4.0dev)"/>
<line x1="889.836065573771" y1="498.0" x2="889.836065573771" y2="502.79999999999995" stroke="#000"/>
<text x="889.836065573771" y="512.4" fill="#111" font-size="small" text-anchor="end" transform="rotate(-60, 889.836065573771, 512.4)">
sequel
</text>
<rect x="928.3606557377053" y="283.804572595622" width="15.40983606557377" height="214.1954274043779" fill="#785EF0" data-tooltip="1.13x baseline (CRuby 3.4.0dev)"/>
<rect x="943.7704918032791" y="279.03419649960955" width="15.40983606557377" height="218.9658035003904" fill="#FFB000" data-tooltip="1.15x baseline (YJIT 3.3.1)"/>
<rect x="959.1803278688528" y="255.46366099040674" width="15.40983606557377" height="242.5363390095932" fill="#DC267F" data-tooltip="1.27x baseline (YJIT 3.4.0dev)"/>
<line x1="951.4754098360661" y1="498.0" x2="951.4754098360661" y2="502.79999999999995" stroke="#000"/>
<text x="951.4754098360661" y="512.4" fill="#111" font-size="small" text-anchor="end" transform="rotate(-60, 951.4754098360661, 512.4)" font-style="italic">
geomean*
</text>
<line x1="50.0" y1="307.68027808387893" x2="990.0" y2="307.68027808387893" stroke="#648FFF" stroke-width="2"/>
</svg>