<svg viewBox="0 0 1000 600" xmlns="http://www.w3.org/2000/svg" xmlns:xlink="http://www.w3.org/1999/xlink" width="100%" height="100%">

<rect x="50.0" y="30.0" width="940.0" height="467.99999999999994" stroke="#000" fill="#fff"/>
<line x1="42.0" y1="497.9999999999999" x2="50.0" y2="497.9999999999999" stroke="#000"/>
<text x="26.000000000000004" y="497.9999999999999" text-anchor="end" font-weight="bold" font-size="small" fill="#111">
0.0
</text>
<line x1="42.0" y1="452.6291161087866" x2="50.0" y2="452.6291161087866" stroke="#000"/>
<text x="26.000000000000004" y="452.6291161087866" text-anchor="end" font-weight="bold" font-size="small" fill="#111">
0.2
</text>
<line x1="42.0" y1="407.2582322175732" x2="50.0" y2="407.2582322175732" stroke="#000"/>
<text x="26.000000000000004" y="407.2582322175732" text-anchor="end" font-weight="bold" font-size="small" fill="#111">
0.4
</text>
<line x1="42.0" y1="361.88734832635976" x2="50.0" y2="361.88734832635976" stroke="#000"/>
<text x="26.000000000000004" y="361.88734832635976" text-anchor="end" font-weight="bold" font-size="small" fill="#111">
0.6
</text>
<line x1="42.0" y1="316.51646443514636" x2="50.0" y2="316.51646443514636" stroke="#000"/>
<text x="26.000000000000004" y="316.51646443514636" text-anchor="end" font-weight="bold" font-size="small" fill="#111">
0.8
</text>
<line x1="42.0" y1="271.145580543933" x2="50.0" y2="271.145580543933" stroke="#000"/>
<text x="26.000000000000004" y="271.145580543933" text-anchor="end" font-weight="bold" font-size="small" fill="#111">
1.0
</text>
<line x1="42.0" y1="225.77469665271965" x2="50.0" y2="225.77469665271965" stroke="#000"/>
<text x="26.000000000000004" y="225.77469665271965" text-anchor="end" font-weight="bold" font-size="small" fill="#111">
1.2
</text>
<line x1="42.0" y1="180.40381276150626" x2="50.0" y2="180.40381276150626" stroke="#000"/>
<text x="26.000000000000004" y="180.40381276150626" text-anchor="end" font-weight="bold" font-size="small" fill="#111">
1.4
</text>
<line x1="42.0" y1="135.0329288702929" x2="50.0" y2="135.0329288702929" stroke="#000"/>
<text x="26.000000000000004" y="135.0329288702929" text-anchor="end" font-weight="bold" font-size="small" fill="#111">
1.6
</text>
<line x1="142.75" y1="54.60000000000001" x2="262.75" y2="54.60000000000001" stroke="#648FFF" stroke-width="2"/>
<text x="202.75" y="49.500000000000014" font-size="small" text-anchor="middle" font-weight="bold" fill="#000">
CRuby 3.3.4
</text>
<rect x="354.25" y="35.400000000000006" width="120.0" height="19.2" fill="#785EF0" stroke="none"/>
<text x="414.25" y="49.500000000000014" font-size="small" text-anchor="middle" font-weight="bold" fill="#fff" style="text-shadow: 0 0 1px #000;">
CRuby 3.4.0dev
</text>
<rect x="565.75" y="35.400000000000006" width="120.0" height="19.2" fill="#FFB000" stroke="none"/>
<text x="625.7499999999999" y="49.500000000000014" font-size="small" text-anchor="middle" font-weight="bold" fill="#fff" style="text-shadow: 0 0 1px #000;">
YJIT 3.3.4
</text>
<rect x="777.25" y="35.400000000000006" width="120.0" height="19.2" fill="#DC267F" stroke="none"/>
<text x="837.2499999999999" y="49.500000000000014" font-size="small" text-anchor="middle" font-weight="bold" fill="#fff" style="text-shadow: 0 0 1px #000;">
YJIT 3.4.0dev
</text>
<rect x="65.40983606557377" y="280.966740918148" width="15.40983606557377" height="217.03325908185198" fill="#785EF0" data-tooltip="0.96x baseline (CRuby 3.4.0dev)"/>
<rect x="80.81967213114753" y="231.95248115442288" width="15.40983606557377" height="266.04751884557703" fill="#FFB000" data-tooltip="1.17x baseline (YJIT 3.3.4)"/>
<rect x="96.2295081967213" y="244.9645378419646" width="15.40983606557377" height="253.03546215803533" fill="#DC267F" data-tooltip="1.12x baseline (YJIT 3.4.0dev)"/>
<line x1="88.5245901639344" y1="498.0" x2="88.5245901639344" y2="502.79999999999995" stroke="#000"/>
<text x="88.5245901639344" y="512.4" fill="#111" font-size="small" text-anchor="end" transform="rotate(-60, 88.5245901639344, 512.4)">
activerecord
</text>
<rect x="127.04918032786883" y="204.90532129434604" width="15.40983606557377" height="293.0946787056539" fill="#785EF0" data-tooltip="1.29x baseline (CRuby 3.4.0dev)"/>
<rect x="142.4590163934426" y="131.01090569404778" width="15.40983606557377" height="366.98909430595216" fill="#FFB000" data-tooltip="1.62x baseline (YJIT 3.3.4)"/>
<rect x="157.86885245901638" y="186.25216278818914" width="15.40983606557377" height="311.7478372118108" fill="#DC267F" data-tooltip="1.37x baseline (YJIT 3.4.0dev)"/>
<line x1="150.1639344262295" y1="498.0" x2="150.1639344262295" y2="502.79999999999995" stroke="#000"/>
<text x="150.1639344262295" y="512.4" fill="#111" font-size="small" text-anchor="end" transform="rotate(-60, 150.1639344262295, 512.4)">
chunky-png
</text>
<rect x="188.68852459016395" y="260.6464775881813" width="15.40983606557377" height="237.35352241181863" fill="#785EF0" data-tooltip="1.05x baseline (CRuby 3.4.0dev)"/>
<rect x="204.0983606557377" y="259.85820628000187" width="15.40983606557377" height="238.14179371999808" fill="#FFB000" data-tooltip="1.05x baseline (YJIT 3.3.4)"/>
<rect x="219.5081967213115" y="236.84739277314662" width="15.40983606557377" height="261.1526072268533" fill="#DC267F" data-tooltip="1.15x baseline (YJIT 3.4.0dev)"/>
<line x1="211.8032786885246" y1="498.0" x2="211.8032786885246" y2="502.79999999999995" stroke="#000"/>
<text x="211.8032786885246" y="512.4" fill="#111" font-size="small" text-anchor="end" transform="rotate(-60, 211.8032786885246, 512.4)">
erubi-rails
</text>
<rect x="250.32786885245906" y="302.53867677824263" width="15.40983606557377" height="195.46132322175728" fill="#785EF0" data-tooltip="0.86x baseline (CRuby 3.4.0dev)"/>
<rect x="265.7377049180328" y="110.14037656903764" width="15.40983606557377" height="387.8596234309623" fill="#FFB000" data-tooltip="1.71x baseline (YJIT 3.3.4)"/>
<rect x="281.14754098360663" y="100.19999999999999" width="15.40983606557377" height="397.79999999999995" fill="#DC267F" data-tooltip="1.75x baseline (YJIT 3.4.0dev)"/>
<line x1="273.4426229508197" y1="498.0" x2="273.4426229508197" y2="502.79999999999995" stroke="#000"/>
<text x="273.4426229508197" y="512.4" fill="#111" font-size="small" text-anchor="end" transform="rotate(-60, 273.4426229508197, 512.4)">
hexapdf
</text>
<rect x="311.96721311475414" y="263.1247104764403" width="15.40983606557377" height="234.87528952355962" fill="#785EF0" data-tooltip="1.04x baseline (CRuby 3.4.0dev)"/>
<rect x="327.37704918032796" y="239.4152203398267" width="15.40983606557377" height="258.58477966017324" fill="#FFB000" data-tooltip="1.14x baseline (YJIT 3.3.4)"/>
<rect x="342.7868852459017" y="228.1153782321641" width="15.40983606557377" height="269.8846217678359" fill="#DC267F" data-tooltip="1.19x baseline (YJIT 3.4.0dev)"/>
<line x1="335.08196721311486" y1="498.0" x2="335.08196721311486" y2="502.79999999999995" stroke="#000"/>
<text x="335.08196721311486" y="512.4" fill="#111" font-size="small" text-anchor="end" transform="rotate(-60, 335.08196721311486, 512.4)">
liquid-c
</text>
<rect x="373.6065573770493" y="256.43516645898586" width="15.40983606557377" height="241.56483354101408" fill="#785EF0" data-tooltip="1.06x baseline (CRuby 3.4.0dev)"/>
<rect x="389.01639344262304" y="233.4880223901451" width="15.40983606557377" height="264.51197760985485" fill="#FFB000" data-tooltip="1.17x baseline (YJIT 3.3.4)"/>
<rect x="404.42622950819685" y="238.28130338411668" width="15.40983606557377" height="259.7186966158833" fill="#DC267F" data-tooltip="1.14x baseline (YJIT 3.4.0dev)"/>
<line x1="396.72131147540995" y1="498.0" x2="396.72131147540995" y2="502.79999999999995" stroke="#000"/>
<text x="396.72131147540995" y="512.4" fill="#111" font-size="small" text-anchor="end" transform="rotate(-60, 396.72131147540995, 512.4)">
liquid-compile
</text>
<rect x="435.2459016393444" y="265.6042188276526" width="15.40983606557377" height="232.39578117234737" fill="#785EF0" data-tooltip="1.02x baseline (CRuby 3.4.0dev)"/>
<rect x="450.6557377049182" y="232.14594950755196" width="15.40983606557377" height="265.854050492448" fill="#FFB000" data-tooltip="1.17x baseline (YJIT 3.3.4)"/>
<rect x="466.06557377049194" y="229.4146622161152" width="15.40983606557377" height="268.5853377838847" fill="#DC267F" data-tooltip="1.18x baseline (YJIT 3.4.0dev)"/>
<line x1="458.3606557377051" y1="498.0" x2="458.3606557377051" y2="502.79999999999995" stroke="#000"/>
<text x="458.3606557377051" y="512.4" fill="#111" font-size="small" text-anchor="end" transform="rotate(-60, 458.3606557377051, 512.4)">
liquid-render
</text>
<rect x="496.8852459016395" y="263.7684611386746" width="15.40983606557377" height="234.2315388613254" fill="#785EF0" data-tooltip="1.03x baseline (CRuby 3.4.0dev)"/>
<rect x="512.2950819672133" y="237.27673269333823" width="15.40983606557377" height="260.72326730666174" fill="#FFB000" data-tooltip="1.15x baseline (YJIT 3.3.4)"/>
<rect x="527.7049180327871" y="235.1877218643556" width="15.40983606557377" height="262.8122781356443" fill="#DC267F" data-tooltip="1.16x baseline (YJIT 3.4.0dev)"/>
<line x1="520.0000000000002" y1="498.0" x2="520.0000000000002" y2="502.79999999999995" stroke="#000"/>
<text x="520.0000000000002" y="512.4" fill="#111" font-size="small" text-anchor="end" transform="rotate(-60, 520.0000000000002, 512.4)">
lobsters
</text>
<rect x="558.5245901639346" y="254.57166176404604" width="15.40983606557377" height="243.4283382359539" fill="#785EF0" data-tooltip="1.07x baseline (CRuby 3.4.0dev)"/>
<rect x="573.9344262295084" y="254.64166775678046" width="15.40983606557377" height="243.35833224321948" fill="#FFB000" data-tooltip="1.07x baseline (YJIT 3.3.4)"/>
<rect x="589.3442622950822" y="230.10456730334695" width="15.40983606557377" height="267.89543269665296" fill="#DC267F" data-tooltip="1.18x baseline (YJIT 3.4.0dev)"/>
<line x1="581.6393442622954" y1="498.0" x2="581.6393442622954" y2="502.79999999999995" stroke="#000"/>
<text x="581.6393442622954" y="512.4" fill="#111" font-size="small" text-anchor="end" transform="rotate(-60, 581.6393442622954, 512.4)">
mail
</text>
<rect x="620.1639344262297" y="242.50981466498183" width="15.40983606557377" height="255.4901853350181" fill="#785EF0" data-tooltip="1.13x baseline (CRuby 3.4.0dev)"/>
<rect x="635.5737704918035" y="258.02421552146524" width="15.40983606557377" height="239.9757844785347" fill="#FFB000" data-tooltip="1.06x baseline (YJIT 3.3.4)"/>
<rect x="650.9836065573774" y="227.6138387993114" width="15.40983606557377" height="270.3861612006885" fill="#DC267F" data-tooltip="1.19x baseline (YJIT 3.4.0dev)"/>
<line x1="643.2786885245905" y1="498.0" x2="643.2786885245905" y2="502.79999999999995" stroke="#000"/>
<text x="643.2786885245905" y="512.4" fill="#111" font-size="small" text-anchor="end" transform="rotate(-60, 643.2786885245905, 512.4)">
psych-load
</text>
<rect x="681.8032786885249" y="271.9623687623549" width="15.40983606557377" height="226.03763123764506" fill="#785EF0" data-tooltip="1.00x baseline (CRuby 3.4.0dev)"/>
<rect x="697.2131147540987" y="235.28347282884764" width="15.40983606557377" height="262.71652717115234" fill="#FFB000" data-tooltip="1.16x baseline (YJIT 3.3.4)"/>
<rect x="712.6229508196724" y="235.0027018787651" width="15.40983606557377" height="262.99729812123485" fill="#DC267F" data-tooltip="1.16x baseline (YJIT 3.4.0dev)"/>
<line x1="704.9180327868855" y1="498.0" x2="704.9180327868855" y2="502.79999999999995" stroke="#000"/>
<text x="704.9180327868855" y="512.4" fill="#111" font-size="small" text-anchor="end" transform="rotate(-60, 704.9180327868855, 512.4)">
railsbench
</text>
<rect x="743.44262295082" y="270.39721540387563" width="15.40983606557377" height="227.60278459612434" fill="#785EF0" data-tooltip="1.00x baseline (CRuby 3.4.0dev)"/>
<rect x="758.8524590163937" y="188.4462434666565" width="15.40983606557377" height="309.55375653334346" fill="#FFB000" data-tooltip="1.36x baseline (YJIT 3.3.4)"/>
<rect x="774.2622950819675" y="171.21388884160137" width="15.40983606557377" height="326.78611115839857" fill="#DC267F" data-tooltip="1.44x baseline (YJIT 3.4.0dev)"/>
<line x1="766.5573770491807" y1="498.0" x2="766.5573770491807" y2="502.79999999999995" stroke="#000"/>
<text x="766.5573770491807" y="512.4" fill="#111" font-size="small" text-anchor="end" transform="rotate(-60, 766.5573770491807, 512.4)">
rubocop
</text>
<rect x="805.081967213115" y="260.75156202569264" width="15.40983606557377" height="237.24843797430734" fill="#785EF0" data-tooltip="1.05x baseline (CRuby 3.4.0dev)"/>
<rect x="820.4918032786888" y="235.32924921674802" width="15.40983606557377" height="262.6707507832519" fill="#FFB000" data-tooltip="1.16x baseline (YJIT 3.3.4)"/>
<rect x="835.9016393442627" y="224.22022815075604" width="15.40983606557377" height="273.77977184924396" fill="#DC267F" data-tooltip="1.21x baseline (YJIT 3.4.0dev)"/>
<line x1="828.1967213114758" y1="498.0" x2="828.1967213114758" y2="502.79999999999995" stroke="#000"/>
<text x="828.1967213114758" y="512.4" fill="#111" font-size="small" text-anchor="end" transform="rotate(-60, 828.1967213114758, 512.4)">
ruby-lsp
</text>
<rect x="866.7213114754102" y="265.8410006914739" width="15.40983606557377" height="232.15899930852606" fill="#785EF0" data-tooltip="1.02x baseline (CRuby 3.4.0dev)"/>
<rect x="882.131147540984" y="249.4015820496186" width="15.40983606557377" height="248.59841795038133" fill="#FFB000" data-tooltip="1.10x baseline (YJIT 3.3.4)"/>
<rect x="897.5409836065578" y="243.09343303588344" width="15.40983606557377" height="254.9065669641165" fill="#DC267F" data-tooltip="1.12x baseline (YJIT 3.4.0dev)"/>
<line x1="889.836065573771" y1="498.0" x2="889.836065573771" y2="502.79999999999995" stroke="#000"/>
<text x="889.836065573771" y="512.4" fill="#111" font-size="small" text-anchor="end" transform="rotate(-60, 889.836065573771, 512.4)">
sequel
</text>
<rect x="928.3606557377053" y="262.5791878058202" width="15.40983606557377" height="235.42081219417972" fill="#785EF0" data-tooltip="1.04x baseline (CRuby 3.4.0dev)"/>
<rect x="943.7704918032791" y="224.26875913332972" width="15.40983606557377" height="273.7312408666702" fill="#FFB000" data-tooltip="1.21x baseline (YJIT 3.3.4)"/>
<rect x="959.1803278688528" y="218.65832243604297" width="15.40983606557377" height="279.341677563957" fill="#DC267F" data-tooltip="1.23x baseline (YJIT 3.4.0dev)"/>
<line x1="951.4754098360661" y1="498.0" x2="951.4754098360661" y2="502.79999999999995" stroke="#000"/>
<text x="951.4754098360661" y="512.4" fill="#111" font-size="small" text-anchor="end" transform="rotate(-60, 951.4754098360661, 512.4)" font-style="italic">
geomean*
</text>
<line x1="50.0" y1="271.145580543933" x2="990.0" y2="271.145580543933" stroke="#648FFF" stroke-width="2"/>
<rect x="67.23483606557377" y="266.80674091814797" width="17.85" height="7.2" transform="rotate(-60, 75.11475409836066, 273.466740918148)" fill="#fffa"/>
<text x="67.40983606557377" y="273.466740918148" fill="#111" font-size="0.5em" text-anchor="start" textLength="17.5" transform="rotate(-60, 75.11475409836066, 273.466740918148)" style="text-shadow: 0 0 1px #fff;">
0.96
</text>
<rect x="82.64467213114754" y="217.7924811544229" width="17.85" height="7.2" transform="rotate(-60, 90.52459016393442, 224.45248115442288)" fill="#fffa"/>
<text x="82.81967213114753" y="224.45248115442288" fill="#111" font-size="0.5em" text-anchor="start" textLength="17.5" transform="rotate(-60, 90.52459016393442, 224.45248115442288)" style="text-shadow: 0 0 1px #fff;">
1.17
</text>
<rect x="98.0545081967213" y="230.80453784196462" width="17.85" height="7.2" transform="rotate(-60, 105.93442622950819, 237.4645378419646)" fill="#fffa"/>
<text x="98.2295081967213" y="237.4645378419646" fill="#111" font-size="0.5em" text-anchor="start" textLength="17.5" transform="rotate(-60, 105.93442622950819, 237.4645378419646)" style="text-shadow: 0 0 1px #fff;">
1.12
</text>
<rect x="128.87418032786883" y="190.74532129434604" width="17.85" height="7.2" transform="rotate(-60, 136.75409836065572, 197.40532129434604)" fill="#fffa"/>
<text x="129.04918032786884" y="197.40532129434604" fill="#111" font-size="0.5em" text-anchor="start" textLength="17.5" transform="rotate(-60, 136.75409836065572, 197.40532129434604)" style="text-shadow: 0 0 1px #fff;">
1.29
</text>
<rect x="144.2840163934426" y="116.85090569404777" width="17.85" height="7.2" transform="rotate(-60, 152.1639344262295, 123.51090569404776)" fill="#fffa"/>
<text x="144.4590163934426" y="123.51090569404776" fill="#111" font-size="0.5em" text-anchor="start" textLength="17.5" transform="rotate(-60, 152.1639344262295, 123.51090569404776)" style="text-shadow: 0 0 1px #fff;">
1.62
</text>
<rect x="159.69385245901637" y="172.09216278818914" width="17.85" height="7.2" transform="rotate(-60, 167.5737704918033, 178.75216278818914)" fill="#fffa"/>
<text x="159.86885245901638" y="178.75216278818914" fill="#111" font-size="0.5em" text-anchor="start" textLength="17.5" transform="rotate(-60, 167.5737704918033, 178.75216278818914)" style="text-shadow: 0 0 1px #fff;">
1.37
</text>
<rect x="190.51352459016394" y="246.48647758818132" width="17.85" height="7.2" transform="rotate(-60, 198.39344262295083, 253.1464775881813)" fill="#fffa"/>
<text x="190.68852459016395" y="253.1464775881813" fill="#111" font-size="0.5em" text-anchor="start" textLength="17.5" transform="rotate(-60, 198.39344262295083, 253.1464775881813)" style="text-shadow: 0 0 1px #fff;">
1.05
</text>
<rect x="205.92336065573772" y="245.69820628000184" width="17.85" height="7.2" transform="rotate(-60, 213.8032786885246, 252.35820628000184)" fill="#fffa"/>
<text x="206.09836065573774" y="252.35820628000184" fill="#111" font-size="0.5em" text-anchor="start" textLength="17.5" transform="rotate(-60, 213.8032786885246, 252.35820628000184)" style="text-shadow: 0 0 1px #fff;">
1.05
</text>
<rect x="221.33319672131148" y="222.6873927731466" width="17.85" height="7.2" transform="rotate(-60, 229.2131147540984, 229.3473927731466)" fill="#fffa"/>
<text x="221.5081967213115" y="229.3473927731466" fill="#111" font-size="0.5em" text-anchor="start" textLength="17.5" transform="rotate(-60, 229.2131147540984, 229.3473927731466)" style="text-shadow: 0 0 1px #fff;">
1.15
</text>
<rect x="252.15286885245908" y="288.3786767782426" width="17.85" height="7.2" transform="rotate(-60, 260.03278688524597, 295.03867677824263)" fill="#fffa"/>
<text x="252.32786885245906" y="295.03867677824263" fill="#111" font-size="0.5em" text-anchor="start" textLength="17.5" transform="rotate(-60, 260.03278688524597, 295.03867677824263)" style="text-shadow: 0 0 1px #fff;">
0.86
</text>
<rect x="267.56270491803286" y="95.98037656903765" width="17.85" height="7.2" transform="rotate(-60, 275.4426229508197, 102.64037656903764)" fill="#fffa"/>
<text x="267.7377049180328" y="102.64037656903764" fill="#111" font-size="0.5em" text-anchor="start" textLength="17.5" transform="rotate(-60, 275.4426229508197, 102.64037656903764)" style="text-shadow: 0 0 1px #fff;">
1.71
</text>
<rect x="282.9725409836066" y="86.03999999999998" width="17.85" height="7.2" transform="rotate(-60, 290.8524590163935, 92.69999999999999)" fill="#fffa"/>
<text x="283.14754098360663" y="92.69999999999999" fill="#111" font-size="0.5em" text-anchor="start" textLength="17.5" transform="rotate(-60, 290.8524590163935, 92.69999999999999)" style="text-shadow: 0 0 1px #fff;">
1.75
</text>
<rect x="313.7922131147542" y="248.96471047644033" width="17.85" height="7.2" transform="rotate(-60, 321.67213114754105, 255.62471047644033)" fill="#fffa"/>
<text x="313.96721311475414" y="255.62471047644033" fill="#111" font-size="0.5em" text-anchor="start" textLength="17.5" transform="rotate(-60, 321.67213114754105, 255.62471047644033)" style="text-shadow: 0 0 1px #fff;">
1.04
</text>
<rect x="329.20204918032795" y="225.25522033982668" width="17.85" height="7.2" transform="rotate(-60, 337.08196721311486, 231.91522033982667)" fill="#fffa"/>
<text x="329.37704918032796" y="231.91522033982667" fill="#111" font-size="0.5em" text-anchor="start" textLength="17.5" transform="rotate(-60, 337.08196721311486, 231.91522033982667)" style="text-shadow: 0 0 1px #fff;">
1.14
</text>
<rect x="344.61188524590176" y="213.95537823216407" width="17.85" height="7.2" transform="rotate(-60, 352.4918032786886, 220.61537823216406)" fill="#fffa"/>
<text x="344.7868852459017" y="220.61537823216406" fill="#111" font-size="0.5em" text-anchor="start" textLength="17.5" transform="rotate(-60, 352.4918032786886, 220.61537823216406)" style="text-shadow: 0 0 1px #fff;">
1.19
</text>
<rect x="375.43155737704933" y="242.27516645898586" width="17.85" height="7.2" transform="rotate(-60, 383.3114754098362, 248.93516645898586)" fill="#fffa"/>
<text x="375.6065573770493" y="248.93516645898586" fill="#111" font-size="0.5em" text-anchor="start" textLength="17.5" transform="rotate(-60, 383.3114754098362, 248.93516645898586)" style="text-shadow: 0 0 1px #fff;">
1.06
</text>
<rect x="390.8413934426231" y="219.3280223901451" width="17.85" height="7.2" transform="rotate(-60, 398.72131147540995, 225.9880223901451)" fill="#fffa"/>
<text x="391.01639344262304" y="225.9880223901451" fill="#111" font-size="0.5em" text-anchor="start" textLength="17.5" transform="rotate(-60, 398.72131147540995, 225.9880223901451)" style="text-shadow: 0 0 1px #fff;">
1.17
</text>
<rect x="406.25122950819684" y="224.12130338411666" width="17.85" height="7.2" transform="rotate(-60, 414.13114754098376, 230.78130338411665)" fill="#fffa"/>
<text x="406.42622950819685" y="230.78130338411665" fill="#111" font-size="0.5em" text-anchor="start" textLength="17.5" transform="rotate(-60, 414.13114754098376, 230.78130338411665)" style="text-shadow: 0 0 1px #fff;">
1.14
</text>
<rect x="437.0709016393444" y="251.44421882765258" width="17.85" height="7.2" transform="rotate(-60, 444.9508196721313, 258.1042188276526)" fill="#fffa"/>
<text x="437.2459016393444" y="258.1042188276526" fill="#111" font-size="0.5em" text-anchor="start" textLength="17.5" transform="rotate(-60, 444.9508196721313, 258.1042188276526)" style="text-shadow: 0 0 1px #fff;">
1.02
</text>
<rect x="452.4807377049182" y="217.98594950755196" width="17.85" height="7.2" transform="rotate(-60, 460.3606557377051, 224.64594950755196)" fill="#fffa"/>
<text x="452.6557377049182" y="224.64594950755196" fill="#111" font-size="0.5em" text-anchor="start" textLength="17.5" transform="rotate(-60, 460.3606557377051, 224.64594950755196)" style="text-shadow: 0 0 1px #fff;">
1.17
</text>
<rect x="467.890573770492" y="215.2546622161152" width="17.85" height="7.2" transform="rotate(-60, 475.77049180327884, 221.9146622161152)" fill="#fffa"/>
<text x="468.06557377049194" y="221.9146622161152" fill="#111" font-size="0.5em" text-anchor="start" textLength="17.5" transform="rotate(-60, 475.77049180327884, 221.9146622161152)" style="text-shadow: 0 0 1px #fff;">
1.18
</text>
<rect x="498.71024590163955" y="249.60846113867456" width="17.85" height="7.2" transform="rotate(-60, 506.59016393442636, 256.2684611386745)" fill="#fffa"/>
<text x="498.8852459016395" y="256.2684611386745" fill="#111" font-size="0.5em" text-anchor="start" textLength="17.5" transform="rotate(-60, 506.59016393442636, 256.2684611386745)" style="text-shadow: 0 0 1px #fff;">
1.03
</text>
<rect x="514.1200819672133" y="223.1167326933382" width="17.85" height="7.2" transform="rotate(-60, 522.0000000000001, 229.7767326933382)" fill="#fffa"/>
<text x="514.2950819672133" y="229.7767326933382" fill="#111" font-size="0.5em" text-anchor="start" textLength="17.5" transform="rotate(-60, 522.0000000000001, 229.7767326933382)" style="text-shadow: 0 0 1px #fff;">
1.15
</text>
<rect x="529.529918032787" y="221.0277218643556" width="17.85" height="7.2" transform="rotate(-60, 537.4098360655739, 227.6877218643556)" fill="#fffa"/>
<text x="529.7049180327871" y="227.6877218643556" fill="#111" font-size="0.5em" text-anchor="start" textLength="17.5" transform="rotate(-60, 537.4098360655739, 227.6877218643556)" style="text-shadow: 0 0 1px #fff;">
1.16
</text>
<rect x="560.3495901639346" y="240.41166176404604" width="17.85" height="7.2" transform="rotate(-60, 568.2295081967214, 247.07166176404604)" fill="#fffa"/>
<text x="560.5245901639346" y="247.07166176404604" fill="#111" font-size="0.5em" text-anchor="start" textLength="17.5" transform="rotate(-60, 568.2295081967214, 247.07166176404604)" style="text-shadow: 0 0 1px #fff;">
1.07
</text>
<rect x="575.7594262295083" y="240.48166775678047" width="17.85" height="7.2" transform="rotate(-60, 583.6393442622953, 247.14166775678046)" fill="#fffa"/>
<text x="575.9344262295084" y="247.14166775678046" fill="#111" font-size="0.5em" text-anchor="start" textLength="17.5" transform="rotate(-60, 583.6393442622953, 247.14166775678046)" style="text-shadow: 0 0 1px #fff;">
1.07
</text>
<rect x="591.1692622950821" y="215.94456730334696" width="17.85" height="7.2" transform="rotate(-60, 599.0491803278691, 222.60456730334695)" fill="#fffa"/>
<text x="591.3442622950822" y="222.60456730334695" fill="#111" font-size="0.5em" text-anchor="start" textLength="17.5" transform="rotate(-60, 599.0491803278691, 222.60456730334695)" style="text-shadow: 0 0 1px #fff;">
1.18
</text>
<rect x="621.9889344262297" y="228.34981466498184" width="17.85" height="7.2" transform="rotate(-60, 629.8688524590166, 235.00981466498183)" fill="#fffa"/>
<text x="622.1639344262297" y="235.00981466498183" fill="#111" font-size="0.5em" text-anchor="start" textLength="17.5" transform="rotate(-60, 629.8688524590166, 235.00981466498183)" style="text-shadow: 0 0 1px #fff;">
1.13
</text>
<rect x="637.3987704918035" y="243.8642155214652" width="17.85" height="7.2" transform="rotate(-60, 645.2786885245904, 250.5242155214652)" fill="#fffa"/>
<text x="637.5737704918035" y="250.5242155214652" fill="#111" font-size="0.5em" text-anchor="start" textLength="17.5" transform="rotate(-60, 645.2786885245904, 250.5242155214652)" style="text-shadow: 0 0 1px #fff;">
1.06
</text>
<rect x="652.8086065573773" y="213.4538387993114" width="17.85" height="7.2" transform="rotate(-60, 660.6885245901641, 220.1138387993114)" fill="#fffa"/>
<text x="652.9836065573774" y="220.1138387993114" fill="#111" font-size="0.5em" text-anchor="start" textLength="17.5" transform="rotate(-60, 660.6885245901641, 220.1138387993114)" style="text-shadow: 0 0 1px #fff;">
1.19
</text>
<rect x="683.6282786885248" y="257.8023687623549" width="17.85" height="7.2" transform="rotate(-60, 691.5081967213117, 264.46236876235486)" fill="#fffa"/>
<text x="683.8032786885249" y="264.46236876235486" fill="#111" font-size="0.5em" text-anchor="start" textLength="17.5" transform="rotate(-60, 691.5081967213117, 264.46236876235486)" style="text-shadow: 0 0 1px #fff;">
1.00
</text>
<rect x="699.0381147540986" y="221.1234728288476" width="17.85" height="7.2" transform="rotate(-60, 706.9180327868854, 227.78347282884764)" fill="#fffa"/>
<text x="699.2131147540987" y="227.78347282884764" fill="#111" font-size="0.5em" text-anchor="start" textLength="17.5" transform="rotate(-60, 706.9180327868854, 227.78347282884764)" style="text-shadow: 0 0 1px #fff;">
1.16
</text>
<rect x="714.4479508196724" y="220.84270187876507" width="17.85" height="7.2" transform="rotate(-60, 722.3278688524592, 227.50270187876507)" fill="#fffa"/>
<text x="714.6229508196724" y="227.50270187876507" fill="#111" font-size="0.5em" text-anchor="start" textLength="17.5" transform="rotate(-60, 722.3278688524592, 227.50270187876507)" style="text-shadow: 0 0 1px #fff;">
1.16
</text>
<rect x="745.2676229508199" y="256.2372154038756" width="17.85" height="7.2" transform="rotate(-60, 753.1475409836069, 262.89721540387563)" fill="#fffa"/>
<text x="745.44262295082" y="262.89721540387563" fill="#111" font-size="0.5em" text-anchor="start" textLength="17.5" transform="rotate(-60, 753.1475409836069, 262.89721540387563)" style="text-shadow: 0 0 1px #fff;">
1.00
</text>
<rect x="760.6774590163938" y="174.2862434666565" width="17.85" height="7.2" transform="rotate(-60, 768.5573770491806, 180.9462434666565)" fill="#fffa"/>
<text x="760.8524590163937" y="180.9462434666565" fill="#111" font-size="0.5em" text-anchor="start" textLength="17.5" transform="rotate(-60, 768.5573770491806, 180.9462434666565)" style="text-shadow: 0 0 1px #fff;">
1.36
</text>
<rect x="776.0872950819675" y="157.05388884160135" width="17.85" height="7.2" transform="rotate(-60, 783.9672131147544, 163.71388884160137)" fill="#fffa"/>
<text x="776.2622950819675" y="163.71388884160137" fill="#111" font-size="0.5em" text-anchor="start" textLength="17.5" transform="rotate(-60, 783.9672131147544, 163.71388884160137)" style="text-shadow: 0 0 1px #fff;">
1.44
</text>
<rect x="806.9069672131151" y="246.5915620256926" width="17.85" height="7.2" transform="rotate(-60, 814.7868852459019, 253.2515620256926)" fill="#fffa"/>
<text x="807.0819672131151" y="253.2515620256926" fill="#111" font-size="0.5em" text-anchor="start" textLength="17.5" transform="rotate(-60, 814.7868852459019, 253.2515620256926)" style="text-shadow: 0 0 1px #fff;">
1.05
</text>
<rect x="822.3168032786888" y="221.16924921674803" width="17.85" height="7.2" transform="rotate(-60, 830.1967213114757, 227.82924921674802)" fill="#fffa"/>
<text x="822.4918032786888" y="227.82924921674802" fill="#111" font-size="0.5em" text-anchor="start" textLength="17.5" transform="rotate(-60, 830.1967213114757, 227.82924921674802)" style="text-shadow: 0 0 1px #fff;">
1.16
</text>
<rect x="837.7266393442626" y="210.06022815075605" width="17.85" height="7.2" transform="rotate(-60, 845.6065573770495, 216.72022815075604)" fill="#fffa"/>
<text x="837.9016393442627" y="216.72022815075604" fill="#111" font-size="0.5em" text-anchor="start" textLength="17.5" transform="rotate(-60, 845.6065573770495, 216.72022815075604)" style="text-shadow: 0 0 1px #fff;">
1.21
</text>
<rect x="868.5463114754102" y="251.68100069147388" width="17.85" height="7.2" transform="rotate(-60, 876.426229508197, 258.3410006914739)" fill="#fffa"/>
<text x="868.7213114754102" y="258.3410006914739" fill="#111" font-size="0.5em" text-anchor="start" textLength="17.5" transform="rotate(-60, 876.426229508197, 258.3410006914739)" style="text-shadow: 0 0 1px #fff;">
1.02
</text>
<rect x="883.9561475409839" y="235.24158204961861" width="17.85" height="7.2" transform="rotate(-60, 891.8360655737708, 241.9015820496186)" fill="#fffa"/>
<text x="884.131147540984" y="241.9015820496186" fill="#111" font-size="0.5em" text-anchor="start" textLength="17.5" transform="rotate(-60, 891.8360655737708, 241.9015820496186)" style="text-shadow: 0 0 1px #fff;">
1.10
</text>
<rect x="899.3659836065577" y="228.93343303588344" width="17.85" height="7.2" transform="rotate(-60, 907.2459016393447, 235.59343303588344)" fill="#fffa"/>
<text x="899.5409836065578" y="235.59343303588344" fill="#111" font-size="0.5em" text-anchor="start" textLength="17.5" transform="rotate(-60, 907.2459016393447, 235.59343303588344)" style="text-shadow: 0 0 1px #fff;">
1.12
</text>
<rect x="930.1856557377052" y="248.4191878058202" width="17.85" height="7.2" transform="rotate(-60, 938.0655737704922, 255.0791878058202)" fill="#fffa"/>
<text x="930.3606557377053" y="255.0791878058202" fill="#111" font-size="0.5em" text-anchor="start" textLength="17.5" transform="rotate(-60, 938.0655737704922, 255.0791878058202)" style="text-shadow: 0 0 1px #fff;">
1.04
</text>
<rect x="945.5954918032791" y="210.10875913332973" width="17.85" height="7.2" transform="rotate(-60, 953.475409836066, 216.76875913332972)" fill="#fffa"/>
<text x="945.7704918032791" y="216.76875913332972" fill="#111" font-size="0.5em" text-anchor="start" textLength="17.5" transform="rotate(-60, 953.475409836066, 216.76875913332972)" style="text-shadow: 0 0 1px #fff;">
1.21
</text>
<rect x="961.0053278688529" y="204.49832243604294" width="17.85" height="7.2" transform="rotate(-60, 968.8852459016397, 211.15832243604294)" fill="#fffa"/>
<text x="961.1803278688528" y="211.15832243604294" fill="#111" font-size="0.5em" text-anchor="start" textLength="17.5" transform="rotate(-60, 968.8852459016397, 211.15832243604294)" style="text-shadow: 0 0 1px #fff;">
1.23
</text>
</svg>