<svg viewBox="0 0 1000 600" xmlns="http://www.w3.org/2000/svg" xmlns:xlink="http://www.w3.org/1999/xlink" width="100%" height="100%">

<rect x="50.0" y="30.0" width="940.0" height="467.99999999999994" stroke="#000" fill="#fff"/>
<line x1="42.0" y1="497.9999999999999" x2="50.0" y2="497.9999999999999" stroke="#000"/>
<text x="26.000000000000004" y="497.9999999999999" text-anchor="end" font-weight="bold" font-size="small" fill="#111">
0.0
</text>
<line x1="42.0" y1="421.81887946488257" x2="50.0" y2="421.81887946488257" stroke="#000"/>
<text x="26.000000000000004" y="421.81887946488257" text-anchor="end" font-weight="bold" font-size="small" fill="#111">
0.5
</text>
<line x1="42.0" y1="345.637758929765" x2="50.0" y2="345.637758929765" stroke="#000"/>
<text x="26.000000000000004" y="345.637758929765" text-anchor="end" font-weight="bold" font-size="small" fill="#111">
1.0
</text>
<line x1="42.0" y1="269.4566383946476" x2="50.0" y2="269.4566383946476" stroke="#000"/>
<text x="26.000000000000004" y="269.4566383946476" text-anchor="end" font-weight="bold" font-size="small" fill="#111">
1.5
</text>
<line x1="42.0" y1="193.2755178595302" x2="50.0" y2="193.2755178595302" stroke="#000"/>
<text x="26.000000000000004" y="193.2755178595302" text-anchor="end" font-weight="bold" font-size="small" fill="#111">
2.0
</text>
<line x1="42.0" y1="117.09439732441272" x2="50.0" y2="117.09439732441272" stroke="#000"/>
<text x="26.000000000000004" y="117.09439732441272" text-anchor="end" font-weight="bold" font-size="small" fill="#111">
2.5
</text>
<line x1="142.75" y1="54.60000000000001" x2="262.75" y2="54.60000000000001" stroke="#648FFF" stroke-width="2"/>
<text x="202.75" y="49.500000000000014" font-size="small" text-anchor="middle" font-weight="bold" fill="#000">
CRuby 3.3.1
</text>
<rect x="354.25" y="35.400000000000006" width="120.0" height="19.2" fill="#785EF0" stroke="none"/>
<text x="414.25" y="49.500000000000014" font-size="small" text-anchor="middle" font-weight="bold" fill="#fff" style="text-shadow: 0 0 1px #000;">
CRuby 3.4.0dev
</text>
<rect x="565.75" y="35.400000000000006" width="120.0" height="19.2" fill="#FFB000" stroke="none"/>
<text x="625.7499999999999" y="49.500000000000014" font-size="small" text-anchor="middle" font-weight="bold" fill="#fff" style="text-shadow: 0 0 1px #000;">
YJIT 3.3.1
</text>
<rect x="777.25" y="35.400000000000006" width="120.0" height="19.2" fill="#DC267F" stroke="none"/>
<text x="837.2499999999999" y="49.500000000000014" font-size="small" text-anchor="middle" font-weight="bold" fill="#fff" style="text-shadow: 0 0 1px #000;">
YJIT 3.4.0dev
</text>
<rect x="65.40983606557377" y="331.15107166133123" width="15.40983606557377" height="166.84892833866874" fill="#785EF0" data-tooltip="1.10x baseline (CRuby 3.4.0dev)"/>
<line x1="65.40983606557377" y1="330.4837859259155" x2="80.81967213114753" y2="330.4837859259155" stroke-dasharray="1,0.5" stroke="#333c"/>
<line x1="65.40983606557377" y1="331.81835739674693" x2="80.81967213114753" y2="331.81835739674693" stroke-dasharray="1,0.5" stroke="#333c"/>
<line x1="73.11475409836066" y1="330.4837859259155" x2="73.11475409836066" y2="331.81835739674693" stroke-dasharray="1,0.5" stroke="#333c"/>
<rect x="80.81967213114753" y="179.77065844394716" width="15.40983606557377" height="318.2293415560528" fill="#FFB000" data-tooltip="2.09x baseline (YJIT 3.3.1)"/>
<line x1="80.81967213114753" y1="178.32953241122505" x2="96.2295081967213" y2="178.32953241122505" stroke-dasharray="1,0.5" stroke="#333c"/>
<line x1="80.81967213114753" y1="181.21178447666927" x2="96.2295081967213" y2="181.21178447666927" stroke-dasharray="1,0.5" stroke="#333c"/>
<line x1="88.52459016393442" y1="178.32953241122505" x2="88.52459016393442" y2="181.21178447666927" stroke-dasharray="1,0.5" stroke="#333c"/>
<rect x="96.2295081967213" y="137.16972786546185" width="15.40983606557377" height="360.83027213453806" fill="#DC267F" data-tooltip="2.37x baseline (YJIT 3.4.0dev)"/>
<line x1="96.2295081967213" y1="135.5351954558678" x2="111.63934426229507" y2="135.5351954558678" stroke-dasharray="1,0.5" stroke="#333c"/>
<line x1="96.2295081967213" y1="138.80426027505592" x2="111.63934426229507" y2="138.80426027505592" stroke-dasharray="1,0.5" stroke="#333c"/>
<line x1="103.93442622950819" y1="135.5351954558678" x2="103.93442622950819" y2="138.80426027505592" stroke-dasharray="1,0.5" stroke="#333c"/>
<line x1="88.5245901639344" y1="498.0" x2="88.5245901639344" y2="502.79999999999995" stroke="#000"/>
<text x="88.5245901639344" y="512.4" fill="#111" font-size="small" text-anchor="end" transform="rotate(-60, 88.5245901639344, 512.4)">
activerecord
</text>
<rect x="127.04918032786883" y="353.56828951973836" width="15.40983606557377" height="144.43171048026161" fill="#785EF0" data-tooltip="0.95x baseline (CRuby 3.4.0dev)"/>
<line x1="127.04918032786883" y1="353.19990248004945" x2="142.4590163934426" y2="353.19990248004945" stroke-dasharray="1,0.5" stroke="#333c"/>
<line x1="127.04918032786883" y1="353.93667655942727" x2="142.4590163934426" y2="353.93667655942727" stroke-dasharray="1,0.5" stroke="#333c"/>
<line x1="134.75409836065572" y1="353.19990248004945" x2="134.75409836065572" y2="353.93667655942727" stroke-dasharray="1,0.5" stroke="#333c"/>
<rect x="142.4590163934426" y="245.24870442699464" width="15.40983606557377" height="252.7512955730053" fill="#FFB000" data-tooltip="1.66x baseline (YJIT 3.3.1)"/>
<line x1="142.4590163934426" y1="244.61025377925432" x2="157.86885245901638" y2="244.61025377925432" stroke-dasharray="1,0.5" stroke="#333c"/>
<line x1="142.4590163934426" y1="245.88715507473492" x2="157.86885245901638" y2="245.88715507473492" stroke-dasharray="1,0.5" stroke="#333c"/>
<line x1="150.1639344262295" y1="244.61025377925432" x2="150.1639344262295" y2="245.88715507473492" stroke-dasharray="1,0.5" stroke="#333c"/>
<rect x="157.86885245901638" y="228.2157315425804" width="15.40983606557377" height="269.78426845741956" fill="#DC267F" data-tooltip="1.77x baseline (YJIT 3.4.0dev)"/>
<line x1="157.86885245901638" y1="227.38927764247435" x2="173.27868852459017" y2="227.38927764247435" stroke-dasharray="1,0.5" stroke="#333c"/>
<line x1="157.86885245901638" y1="229.04218544268645" x2="173.27868852459017" y2="229.04218544268645" stroke-dasharray="1,0.5" stroke="#333c"/>
<line x1="165.5737704918033" y1="227.38927764247435" x2="165.5737704918033" y2="229.04218544268645" stroke-dasharray="1,0.5" stroke="#333c"/>
<line x1="150.1639344262295" y1="498.0" x2="150.1639344262295" y2="502.79999999999995" stroke="#000"/>
<text x="150.1639344262295" y="512.4" fill="#111" font-size="small" text-anchor="end" transform="rotate(-60, 150.1639344262295, 512.4)">
chunky-png
</text>
<rect x="188.68852459016395" y="341.1472847626807" width="15.40983606557377" height="156.85271523731922" fill="#785EF0" data-tooltip="1.03x baseline (CRuby 3.4.0dev)"/>
<line x1="188.68852459016395" y1="340.6614254917735" x2="204.0983606557377" y2="340.6614254917735" stroke-dasharray="1,0.5" stroke="#333c"/>
<line x1="188.68852459016395" y1="341.63314403358794" x2="204.0983606557377" y2="341.63314403358794" stroke-dasharray="1,0.5" stroke="#333c"/>
<line x1="196.39344262295083" y1="340.6614254917735" x2="196.39344262295083" y2="341.63314403358794" stroke-dasharray="1,0.5" stroke="#333c"/>
<rect x="204.0983606557377" y="224.71683503978085" width="15.40983606557377" height="273.2831649602191" fill="#FFB000" data-tooltip="1.79x baseline (YJIT 3.3.1)"/>
<line x1="204.0983606557377" y1="223.84981926081707" x2="219.5081967213115" y2="223.84981926081707" stroke-dasharray="1,0.5" stroke="#333c"/>
<line x1="204.0983606557377" y1="225.58385081874465" x2="219.5081967213115" y2="225.58385081874465" stroke-dasharray="1,0.5" stroke="#333c"/>
<line x1="211.8032786885246" y1="223.84981926081707" x2="211.8032786885246" y2="225.58385081874465" stroke-dasharray="1,0.5" stroke="#333c"/>
<rect x="219.5081967213115" y="202.53045342888382" width="15.40983606557377" height="295.4695465711161" fill="#DC267F" data-tooltip="1.94x baseline (YJIT 3.4.0dev)"/>
<line x1="219.5081967213115" y1="201.0870980471674" x2="234.91803278688528" y2="201.0870980471674" stroke-dasharray="1,0.5" stroke="#333c"/>
<line x1="219.5081967213115" y1="203.97380881060025" x2="234.91803278688528" y2="203.97380881060025" stroke-dasharray="1,0.5" stroke="#333c"/>
<line x1="227.2131147540984" y1="201.0870980471674" x2="227.2131147540984" y2="203.97380881060025" stroke-dasharray="1,0.5" stroke="#333c"/>
<line x1="211.8032786885246" y1="498.0" x2="211.8032786885246" y2="502.79999999999995" stroke="#000"/>
<text x="211.8032786885246" y="512.4" fill="#111" font-size="small" text-anchor="end" transform="rotate(-60, 211.8032786885246, 512.4)">
erubi-rails
</text>
<rect x="250.32786885245906" y="335.00718056852736" width="15.40983606557377" height="162.99281943147255" fill="#785EF0" data-tooltip="1.07x baseline (CRuby 3.4.0dev)"/>
<line x1="250.32786885245906" y1="332.04045864100607" x2="265.7377049180328" y2="332.04045864100607" stroke-dasharray="1,0.5" stroke="#333c"/>
<line x1="250.32786885245906" y1="337.9739024960487" x2="265.7377049180328" y2="337.9739024960487" stroke-dasharray="1,0.5" stroke="#333c"/>
<line x1="258.03278688524597" y1="332.04045864100607" x2="258.03278688524597" y2="337.9739024960487" stroke-dasharray="1,0.5" stroke="#333c"/>
<rect x="265.7377049180328" y="250.74593334878998" width="15.40983606557377" height="247.25406665120997" fill="#FFB000" data-tooltip="1.62x baseline (YJIT 3.3.1)"/>
<line x1="265.7377049180328" y1="245.9579782621165" x2="281.14754098360663" y2="245.9579782621165" stroke-dasharray="1,0.5" stroke="#333c"/>
<line x1="265.7377049180328" y1="255.53388843546344" x2="281.14754098360663" y2="255.53388843546344" stroke-dasharray="1,0.5" stroke="#333c"/>
<line x1="273.4426229508197" y1="245.9579782621165" x2="273.4426229508197" y2="255.53388843546344" stroke-dasharray="1,0.5" stroke="#333c"/>
<rect x="281.14754098360663" y="200.08872269766803" width="15.40983606557377" height="297.9112773023319" fill="#DC267F" data-tooltip="1.96x baseline (YJIT 3.4.0dev)"/>
<line x1="281.14754098360663" y1="195.1847105534752" x2="296.5573770491804" y2="195.1847105534752" stroke-dasharray="1,0.5" stroke="#333c"/>
<line x1="281.14754098360663" y1="204.99273484186088" x2="296.5573770491804" y2="204.99273484186088" stroke-dasharray="1,0.5" stroke="#333c"/>
<line x1="288.8524590163935" y1="195.1847105534752" x2="288.8524590163935" y2="204.99273484186088" stroke-dasharray="1,0.5" stroke="#333c"/>
<line x1="273.4426229508197" y1="498.0" x2="273.4426229508197" y2="502.79999999999995" stroke="#000"/>
<text x="273.4426229508197" y="512.4" fill="#111" font-size="small" text-anchor="end" transform="rotate(-60, 273.4426229508197, 512.4)">
hexapdf
</text>
<rect x="311.96721311475414" y="344.27354051976147" width="15.40983606557377" height="153.72645948023847" fill="#785EF0" data-tooltip="1.01x baseline (CRuby 3.4.0dev)"/>
<line x1="311.96721311475414" y1="342.5162822026841" x2="327.37704918032796" y2="342.5162822026841" stroke-dasharray="1,0.5" stroke="#333c"/>
<line x1="311.96721311475414" y1="346.03079883683887" x2="327.37704918032796" y2="346.03079883683887" stroke-dasharray="1,0.5" stroke="#333c"/>
<line x1="319.67213114754105" y1="342.5162822026841" x2="319.67213114754105" y2="346.03079883683887" stroke-dasharray="1,0.5" stroke="#333c"/>
<rect x="327.37704918032796" y="283.6663094434474" width="15.40983606557377" height="214.33369055655254" fill="#FFB000" data-tooltip="1.41x baseline (YJIT 3.3.1)"/>
<line x1="327.37704918032796" y1="280.98354665107007" x2="342.7868852459017" y2="280.98354665107007" stroke-dasharray="1,0.5" stroke="#333c"/>
<line x1="327.37704918032796" y1="286.34907223582474" x2="342.7868852459017" y2="286.34907223582474" stroke-dasharray="1,0.5" stroke="#333c"/>
<line x1="335.08196721311486" y1="280.98354665107007" x2="335.08196721311486" y2="286.34907223582474" stroke-dasharray="1,0.5" stroke="#333c"/>
<rect x="342.7868852459017" y="276.59003597544296" width="15.40983606557377" height="221.409964024557" fill="#DC267F" data-tooltip="1.45x baseline (YJIT 3.4.0dev)"/>
<line x1="342.7868852459017" y1="273.97815140564984" x2="358.1967213114755" y2="273.97815140564984" stroke-dasharray="1,0.5" stroke="#333c"/>
<line x1="342.7868852459017" y1="279.201920545236" x2="358.1967213114755" y2="279.201920545236" stroke-dasharray="1,0.5" stroke="#333c"/>
<line x1="350.4918032786886" y1="273.97815140564984" x2="350.4918032786886" y2="279.201920545236" stroke-dasharray="1,0.5" stroke="#333c"/>
<line x1="335.08196721311486" y1="498.0" x2="335.08196721311486" y2="502.79999999999995" stroke="#000"/>
<text x="335.08196721311486" y="512.4" fill="#111" font-size="small" text-anchor="end" transform="rotate(-60, 335.08196721311486, 512.4)">
liquid-c
</text>
<rect x="373.6065573770493" y="341.5931396759795" width="15.40983606557377" height="156.4068603240204" fill="#785EF0" data-tooltip="1.03x baseline (CRuby 3.4.0dev)"/>
<line x1="373.6065573770493" y1="340.5553467161003" x2="389.01639344262304" y2="340.5553467161003" stroke-dasharray="1,0.5" stroke="#333c"/>
<line x1="373.6065573770493" y1="342.63093263585864" x2="389.01639344262304" y2="342.63093263585864" stroke-dasharray="1,0.5" stroke="#333c"/>
<line x1="381.3114754098362" y1="340.5553467161003" x2="381.3114754098362" y2="342.63093263585864" stroke-dasharray="1,0.5" stroke="#333c"/>
<rect x="389.01639344262304" y="283.6932542011612" width="15.40983606557377" height="214.3067457988387" fill="#FFB000" data-tooltip="1.41x baseline (YJIT 3.3.1)"/>
<line x1="389.01639344262304" y1="281.90215291583576" x2="404.42622950819685" y2="281.90215291583576" stroke-dasharray="1,0.5" stroke="#333c"/>
<line x1="389.01639344262304" y1="285.4843554864867" x2="404.42622950819685" y2="285.4843554864867" stroke-dasharray="1,0.5" stroke="#333c"/>
<line x1="396.72131147540995" y1="281.90215291583576" x2="396.72131147540995" y2="285.4843554864867" stroke-dasharray="1,0.5" stroke="#333c"/>
<rect x="404.42622950819685" y="272.35914497584247" width="15.40983606557377" height="225.64085502415747" fill="#DC267F" data-tooltip="1.48x baseline (YJIT 3.4.0dev)"/>
<line x1="404.42622950819685" y1="270.42665782115796" x2="419.8360655737706" y2="270.42665782115796" stroke-dasharray="1,0.5" stroke="#333c"/>
<line x1="404.42622950819685" y1="274.291632130527" x2="419.8360655737706" y2="274.291632130527" stroke-dasharray="1,0.5" stroke="#333c"/>
<line x1="412.13114754098376" y1="270.42665782115796" x2="412.13114754098376" y2="274.291632130527" stroke-dasharray="1,0.5" stroke="#333c"/>
<line x1="396.72131147540995" y1="498.0" x2="396.72131147540995" y2="502.79999999999995" stroke="#000"/>
<text x="396.72131147540995" y="512.4" fill="#111" font-size="small" text-anchor="end" transform="rotate(-60, 396.72131147540995, 512.4)">
liquid-compile
</text>
<rect x="435.2459016393444" y="340.82980871665285" width="15.40983606557377" height="157.17019128334707" fill="#785EF0" data-tooltip="1.03x baseline (CRuby 3.4.0dev)"/>
<line x1="435.2459016393444" y1="339.9662702787783" x2="450.6557377049182" y2="339.9662702787783" stroke-dasharray="1,0.5" stroke="#333c"/>
<line x1="435.2459016393444" y1="341.69334715452743" x2="450.6557377049182" y2="341.69334715452743" stroke-dasharray="1,0.5" stroke="#333c"/>
<line x1="442.9508196721313" y1="339.9662702787783" x2="442.9508196721313" y2="341.69334715452743" stroke-dasharray="1,0.5" stroke="#333c"/>
<rect x="450.6557377049182" y="123.9494796235196" width="15.40983606557377" height="374.05052037648034" fill="#FFB000" data-tooltip="2.46x baseline (YJIT 3.3.1)"/>
<line x1="450.6557377049182" y1="121.33550214511689" x2="466.06557377049194" y2="121.33550214511689" stroke-dasharray="1,0.5" stroke="#333c"/>
<line x1="450.6557377049182" y1="126.5634571019223" x2="466.06557377049194" y2="126.5634571019223" stroke-dasharray="1,0.5" stroke="#333c"/>
<line x1="458.3606557377051" y1="121.33550214511689" x2="458.3606557377051" y2="126.5634571019223" stroke-dasharray="1,0.5" stroke="#333c"/>
<rect x="466.06557377049194" y="100.19999999999999" width="15.40983606557377" height="397.79999999999995" fill="#DC267F" data-tooltip="2.61x baseline (YJIT 3.4.0dev)"/>
<line x1="466.06557377049194" y1="97.2358355060937" x2="481.47540983606575" y2="97.2358355060937" stroke-dasharray="1,0.5" stroke="#333c"/>
<line x1="466.06557377049194" y1="103.16416449390628" x2="481.47540983606575" y2="103.16416449390628" stroke-dasharray="1,0.5" stroke="#333c"/>
<line x1="473.77049180327884" y1="97.2358355060937" x2="473.77049180327884" y2="103.16416449390628" stroke-dasharray="1,0.5" stroke="#333c"/>
<line x1="458.3606557377051" y1="498.0" x2="458.3606557377051" y2="502.79999999999995" stroke="#000"/>
<text x="458.3606557377051" y="512.4" fill="#111" font-size="small" text-anchor="end" transform="rotate(-60, 458.3606557377051, 512.4)">
liquid-render
</text>
<rect x="496.8852459016395" y="346.8695217399847" width="15.40983606557377" height="151.13047826001525" fill="#785EF0" data-tooltip="0.99x baseline (CRuby 3.4.0dev)"/>
<line x1="496.8852459016395" y1="344.36421646442614" x2="512.2950819672133" y2="344.36421646442614" stroke-dasharray="1,0.5" stroke="#333c"/>
<line x1="496.8852459016395" y1="349.3748270155433" x2="512.2950819672133" y2="349.3748270155433" stroke-dasharray="1,0.5" stroke="#333c"/>
<line x1="504.59016393442636" y1="344.36421646442614" x2="504.59016393442636" y2="349.3748270155433" stroke-dasharray="1,0.5" stroke="#333c"/>
<rect x="512.2950819672133" y="273.1028439856071" width="15.40983606557377" height="224.89715601439286" fill="#FFB000" data-tooltip="1.48x baseline (YJIT 3.3.1)"/>
<line x1="512.2950819672133" y1="268.6034737678728" x2="527.7049180327871" y2="268.6034737678728" stroke-dasharray="1,0.5" stroke="#333c"/>
<line x1="512.2950819672133" y1="277.60221420334136" x2="527.7049180327871" y2="277.60221420334136" stroke-dasharray="1,0.5" stroke="#333c"/>
<line x1="520.0000000000001" y1="268.6034737678728" x2="520.0000000000001" y2="277.60221420334136" stroke-dasharray="1,0.5" stroke="#333c"/>
<rect x="527.7049180327871" y="265.10103805430595" width="15.40983606557377" height="232.89896194569403" fill="#DC267F" data-tooltip="1.53x baseline (YJIT 3.4.0dev)"/>
<line x1="527.7049180327871" y1="260.50683108399676" x2="543.1147540983609" y2="260.50683108399676" stroke-dasharray="1,0.5" stroke="#333c"/>
<line x1="527.7049180327871" y1="269.69524502461513" x2="543.1147540983609" y2="269.69524502461513" stroke-dasharray="1,0.5" stroke="#333c"/>
<line x1="535.4098360655739" y1="260.50683108399676" x2="535.4098360655739" y2="269.69524502461513" stroke-dasharray="1,0.5" stroke="#333c"/>
<line x1="520.0000000000002" y1="498.0" x2="520.0000000000002" y2="502.79999999999995" stroke="#000"/>
<text x="520.0000000000002" y="512.4" fill="#111" font-size="small" text-anchor="end" transform="rotate(-60, 520.0000000000002, 512.4)">
lobsters
</text>
<rect x="558.5245901639346" y="343.7070991880654" width="15.40983606557377" height="154.29290081193457" fill="#785EF0" data-tooltip="1.01x baseline (CRuby 3.4.0dev)"/>
<line x1="558.5245901639346" y1="342.82891291767214" x2="573.9344262295084" y2="342.82891291767214" stroke-dasharray="1,0.5" stroke="#333c"/>
<line x1="558.5245901639346" y1="344.58528545845866" x2="573.9344262295084" y2="344.58528545845866" stroke-dasharray="1,0.5" stroke="#333c"/>
<line x1="566.2295081967214" y1="342.82891291767214" x2="566.2295081967214" y2="344.58528545845866" stroke-dasharray="1,0.5" stroke="#333c"/>
<rect x="573.9344262295084" y="285.2576631010546" width="15.40983606557377" height="212.74233689894533" fill="#FFB000" data-tooltip="1.40x baseline (YJIT 3.3.1)"/>
<line x1="573.9344262295084" y1="284.3275885888958" x2="589.3442622950822" y2="284.3275885888958" stroke-dasharray="1,0.5" stroke="#333c"/>
<line x1="573.9344262295084" y1="286.1877376132134" x2="589.3442622950822" y2="286.1877376132134" stroke-dasharray="1,0.5" stroke="#333c"/>
<line x1="581.6393442622953" y1="284.3275885888958" x2="581.6393442622953" y2="286.1877376132134" stroke-dasharray="1,0.5" stroke="#333c"/>
<rect x="589.3442622950822" y="275.77201747256254" width="15.40983606557377" height="222.2279825274374" fill="#DC267F" data-tooltip="1.46x baseline (YJIT 3.4.0dev)"/>
<line x1="589.3442622950822" y1="274.6300695522874" x2="604.7540983606559" y2="274.6300695522874" stroke-dasharray="1,0.5" stroke="#333c"/>
<line x1="589.3442622950822" y1="276.9139653928377" x2="604.7540983606559" y2="276.9139653928377" stroke-dasharray="1,0.5" stroke="#333c"/>
<line x1="597.0491803278691" y1="274.6300695522874" x2="597.0491803278691" y2="276.9139653928377" stroke-dasharray="1,0.5" stroke="#333c"/>
<line x1="581.6393442622954" y1="498.0" x2="581.6393442622954" y2="502.79999999999995" stroke="#000"/>
<text x="581.6393442622954" y="512.4" fill="#111" font-size="small" text-anchor="end" transform="rotate(-60, 581.6393442622954, 512.4)">
mail
</text>
<rect x="620.1639344262297" y="330.38141904478675" width="15.40983606557377" height="167.61858095521325" fill="#785EF0" data-tooltip="1.10x baseline (CRuby 3.4.0dev)"/>
<line x1="620.1639344262297" y1="330.22539327010793" x2="635.5737704918035" y2="330.22539327010793" stroke-dasharray="1,0.5" stroke="#333c"/>
<line x1="620.1639344262297" y1="330.5374448194655" x2="635.5737704918035" y2="330.5374448194655" stroke-dasharray="1,0.5" stroke="#333c"/>
<line x1="627.8688524590166" y1="330.22539327010793" x2="627.8688524590166" y2="330.5374448194655" stroke-dasharray="1,0.5" stroke="#333c"/>
<rect x="635.5737704918035" y="267.21378672449634" width="15.40983606557377" height="230.7862132755036" fill="#FFB000" data-tooltip="1.51x baseline (YJIT 3.3.1)"/>
<line x1="635.5737704918035" y1="267.02787712713234" x2="650.9836065573774" y2="267.02787712713234" stroke-dasharray="1,0.5" stroke="#333c"/>
<line x1="635.5737704918035" y1="267.39969632186035" x2="650.9836065573774" y2="267.39969632186035" stroke-dasharray="1,0.5" stroke="#333c"/>
<line x1="643.2786885245904" y1="267.02787712713234" x2="643.2786885245904" y2="267.39969632186035" stroke-dasharray="1,0.5" stroke="#333c"/>
<rect x="650.9836065573774" y="220.03916204673956" width="15.40983606557377" height="277.9608379532604" fill="#DC267F" data-tooltip="1.82x baseline (YJIT 3.4.0dev)"/>
<line x1="650.9836065573774" y1="219.76710008641737" x2="666.393442622951" y2="219.76710008641737" stroke-dasharray="1,0.5" stroke="#333c"/>
<line x1="650.9836065573774" y1="220.31122400706175" x2="666.393442622951" y2="220.31122400706175" stroke-dasharray="1,0.5" stroke="#333c"/>
<line x1="658.6885245901641" y1="219.76710008641737" x2="658.6885245901641" y2="220.31122400706175" stroke-dasharray="1,0.5" stroke="#333c"/>
<line x1="643.2786885245905" y1="498.0" x2="643.2786885245905" y2="502.79999999999995" stroke="#000"/>
<text x="643.2786885245905" y="512.4" fill="#111" font-size="small" text-anchor="end" transform="rotate(-60, 643.2786885245905, 512.4)">
psych-load
</text>
<rect x="681.8032786885249" y="343.36836117285674" width="15.40983606557377" height="154.63163882714318" fill="#785EF0" data-tooltip="1.01x baseline (CRuby 3.4.0dev)"/>
<line x1="681.8032786885249" y1="342.36243748356566" x2="697.2131147540987" y2="342.36243748356566" stroke-dasharray="1,0.5" stroke="#333c"/>
<line x1="681.8032786885249" y1="344.3742848621479" x2="697.2131147540987" y2="344.3742848621479" stroke-dasharray="1,0.5" stroke="#333c"/>
<line x1="689.5081967213117" y1="342.36243748356566" x2="689.5081967213117" y2="344.3742848621479" stroke-dasharray="1,0.5" stroke="#333c"/>
<rect x="697.2131147540987" y="238.29030794558085" width="15.40983606557377" height="259.7096920544191" fill="#FFB000" data-tooltip="1.70x baseline (YJIT 3.3.1)"/>
<line x1="697.2131147540987" y1="236.54845325179244" x2="712.6229508196724" y2="236.54845325179244" stroke-dasharray="1,0.5" stroke="#333c"/>
<line x1="697.2131147540987" y1="240.03216263936923" x2="712.6229508196724" y2="240.03216263936923" stroke-dasharray="1,0.5" stroke="#333c"/>
<line x1="704.9180327868854" y1="236.54845325179244" x2="704.9180327868854" y2="240.03216263936923" stroke-dasharray="1,0.5" stroke="#333c"/>
<rect x="712.6229508196724" y="219.44828450581002" width="15.40983606557377" height="278.5517154941899" fill="#DC267F" data-tooltip="1.83x baseline (YJIT 3.4.0dev)"/>
<line x1="712.6229508196724" y1="217.6039815803895" x2="728.0327868852462" y2="217.6039815803895" stroke-dasharray="1,0.5" stroke="#333c"/>
<line x1="712.6229508196724" y1="221.29258743123052" x2="728.0327868852462" y2="221.29258743123052" stroke-dasharray="1,0.5" stroke="#333c"/>
<line x1="720.3278688524592" y1="217.6039815803895" x2="720.3278688524592" y2="221.29258743123052" stroke-dasharray="1,0.5" stroke="#333c"/>
<line x1="704.9180327868855" y1="498.0" x2="704.9180327868855" y2="502.79999999999995" stroke="#000"/>
<text x="704.9180327868855" y="512.4" fill="#111" font-size="small" text-anchor="end" transform="rotate(-60, 704.9180327868855, 512.4)">
railsbench
</text>
<rect x="743.44262295082" y="343.6291323567725" width="15.40983606557377" height="154.37086764322746" fill="#785EF0" data-tooltip="1.01x baseline (CRuby 3.4.0dev)"/>
<line x1="743.44262295082" y1="340.9910329640218" x2="758.8524590163937" y2="340.9910329640218" stroke-dasharray="1,0.5" stroke="#333c"/>
<line x1="743.44262295082" y1="346.26723174952326" x2="758.8524590163937" y2="346.26723174952326" stroke-dasharray="1,0.5" stroke="#333c"/>
<line x1="751.1475409836069" y1="340.9910329640218" x2="751.1475409836069" y2="346.26723174952326" stroke-dasharray="1,0.5" stroke="#333c"/>
<rect x="758.8524590163937" y="242.69108109323298" width="15.40983606557377" height="255.30891890676696" fill="#FFB000" data-tooltip="1.68x baseline (YJIT 3.3.1)"/>
<line x1="758.8524590163937" y1="236.32518510579797" x2="774.2622950819675" y2="236.32518510579797" stroke-dasharray="1,0.5" stroke="#333c"/>
<line x1="758.8524590163937" y1="249.056977080668" x2="774.2622950819675" y2="249.056977080668" stroke-dasharray="1,0.5" stroke="#333c"/>
<line x1="766.5573770491806" y1="236.32518510579797" x2="766.5573770491806" y2="249.056977080668" stroke-dasharray="1,0.5" stroke="#333c"/>
<rect x="774.2622950819675" y="200.34440990906484" width="15.40983606557377" height="297.6555900909351" fill="#DC267F" data-tooltip="1.95x baseline (YJIT 3.4.0dev)"/>
<line x1="774.2622950819675" y1="191.60744732921765" x2="789.6721311475413" y2="191.60744732921765" stroke-dasharray="1,0.5" stroke="#333c"/>
<line x1="774.2622950819675" y1="209.081372488912" x2="789.6721311475413" y2="209.081372488912" stroke-dasharray="1,0.5" stroke="#333c"/>
<line x1="781.9672131147544" y1="191.60744732921765" x2="781.9672131147544" y2="209.081372488912" stroke-dasharray="1,0.5" stroke="#333c"/>
<line x1="766.5573770491807" y1="498.0" x2="766.5573770491807" y2="502.79999999999995" stroke="#000"/>
<text x="766.5573770491807" y="512.4" fill="#111" font-size="small" text-anchor="end" transform="rotate(-60, 766.5573770491807, 512.4)">
rubocop
</text>
<rect x="805.081967213115" y="321.8084464535111" width="15.40983606557377" height="176.19155354648882" fill="#785EF0" data-tooltip="1.16x baseline (CRuby 3.4.0dev)"/>
<line x1="805.081967213115" y1="318.3255374038687" x2="820.4918032786888" y2="318.3255374038687" stroke-dasharray="1,0.5" stroke="#333c"/>
<line x1="805.081967213115" y1="325.2913555031536" x2="820.4918032786888" y2="325.2913555031536" stroke-dasharray="1,0.5" stroke="#333c"/>
<line x1="812.7868852459019" y1="318.3255374038687" x2="812.7868852459019" y2="325.2913555031536" stroke-dasharray="1,0.5" stroke="#333c"/>
<rect x="820.4918032786888" y="245.52352995870314" width="15.40983606557377" height="252.4764700412968" fill="#FFB000" data-tooltip="1.66x baseline (YJIT 3.3.1)"/>
<line x1="820.4918032786888" y1="240.1889851574717" x2="835.9016393442627" y2="240.1889851574717" stroke-dasharray="1,0.5" stroke="#333c"/>
<line x1="820.4918032786888" y1="250.85807475993457" x2="835.9016393442627" y2="250.85807475993457" stroke-dasharray="1,0.5" stroke="#333c"/>
<line x1="828.1967213114757" y1="240.1889851574717" x2="828.1967213114757" y2="250.85807475993457" stroke-dasharray="1,0.5" stroke="#333c"/>
<rect x="835.9016393442627" y="267.9641658711279" width="15.40983606557377" height="230.0358341288721" fill="#DC267F" data-tooltip="1.51x baseline (YJIT 3.4.0dev)"/>
<line x1="835.9016393442627" y1="263.3116672983437" x2="851.3114754098365" y2="263.3116672983437" stroke-dasharray="1,0.5" stroke="#333c"/>
<line x1="835.9016393442627" y1="272.61666444391204" x2="851.3114754098365" y2="272.61666444391204" stroke-dasharray="1,0.5" stroke="#333c"/>
<line x1="843.6065573770495" y1="263.3116672983437" x2="843.6065573770495" y2="272.61666444391204" stroke-dasharray="1,0.5" stroke="#333c"/>
<line x1="828.1967213114758" y1="498.0" x2="828.1967213114758" y2="502.79999999999995" stroke="#000"/>
<text x="828.1967213114758" y="512.4" fill="#111" font-size="small" text-anchor="end" transform="rotate(-60, 828.1967213114758, 512.4)">
ruby-lsp
</text>
<rect x="866.7213114754102" y="344.1327136568956" width="15.40983606557377" height="153.86728634310433" fill="#785EF0" data-tooltip="1.01x baseline (CRuby 3.4.0dev)"/>
<line x1="866.7213114754102" y1="340.1607103686821" x2="882.131147540984" y2="340.1607103686821" stroke-dasharray="1,0.5" stroke="#333c"/>
<line x1="866.7213114754102" y1="348.1047169451091" x2="882.131147540984" y2="348.1047169451091" stroke-dasharray="1,0.5" stroke="#333c"/>
<line x1="874.426229508197" y1="340.1607103686821" x2="874.426229508197" y2="348.1047169451091" stroke-dasharray="1,0.5" stroke="#333c"/>
<rect x="882.131147540984" y="301.4347236018579" width="15.40983606557377" height="196.56527639814203" fill="#FFB000" data-tooltip="1.29x baseline (YJIT 3.3.1)"/>
<line x1="882.131147540984" y1="300.36700960506073" x2="897.5409836065578" y2="300.36700960506073" stroke-dasharray="1,0.5" stroke="#333c"/>
<line x1="882.131147540984" y1="302.50243759865504" x2="897.5409836065578" y2="302.50243759865504" stroke-dasharray="1,0.5" stroke="#333c"/>
<line x1="889.8360655737708" y1="300.36700960506073" x2="889.8360655737708" y2="302.50243759865504" stroke-dasharray="1,0.5" stroke="#333c"/>
<rect x="897.5409836065578" y="294.4800504971675" width="15.40983606557377" height="203.51994950283242" fill="#DC267F" data-tooltip="1.34x baseline (YJIT 3.4.0dev)"/>
<line x1="897.5409836065578" y1="293.293725767667" x2="912.9508196721315" y2="293.293725767667" stroke-dasharray="1,0.5" stroke="#333c"/>
<line x1="897.5409836065578" y1="295.66637522666804" x2="912.9508196721315" y2="295.66637522666804" stroke-dasharray="1,0.5" stroke="#333c"/>
<line x1="905.2459016393447" y1="293.293725767667" x2="905.2459016393447" y2="295.66637522666804" stroke-dasharray="1,0.5" stroke="#333c"/>
<line x1="889.836065573771" y1="498.0" x2="889.836065573771" y2="502.79999999999995" stroke="#000"/>
<text x="889.836065573771" y="512.4" fill="#111" font-size="small" text-anchor="end" transform="rotate(-60, 889.836065573771, 512.4)">
sequel
</text>
<rect x="928.3606557377053" y="340.28981600301273" width="15.40983606557377" height="157.71018399698718" fill="#785EF0" data-tooltip="1.04x baseline (CRuby 3.4.0dev)"/>
<rect x="943.7704918032791" y="249.6631609493471" width="15.40983606557377" height="248.33683905065286" fill="#FFB000" data-tooltip="1.63x baseline (YJIT 3.3.1)"/>
<rect x="959.1803278688528" y="230.69183241080552" width="15.40983606557377" height="267.3081675891944" fill="#DC267F" data-tooltip="1.75x baseline (YJIT 3.4.0dev)"/>
<line x1="951.4754098360661" y1="498.0" x2="951.4754098360661" y2="502.79999999999995" stroke="#000"/>
<text x="951.4754098360661" y="512.4" fill="#111" font-size="small" text-anchor="end" transform="rotate(-60, 951.4754098360661, 512.4)" font-style="italic">
geomean*
</text>
<line x1="50.0" y1="345.637758929765" x2="990.0" y2="345.637758929765" stroke="#648FFF" stroke-width="2"/>
</svg>