<svg viewBox="0 0 1000 600" xmlns="http://www.w3.org/2000/svg" xmlns:xlink="http://www.w3.org/1999/xlink" width="100%" height="100%">

<rect x="50.0" y="30.0" width="940.0" height="467.99999999999994" stroke="#000" fill="#fff"/>
<line x1="42.0" y1="497.9999999999999" x2="50.0" y2="497.9999999999999" stroke="#000"/>
<text x="26.000000000000004" y="497.9999999999999" text-anchor="end" font-weight="bold" font-size="small" fill="#111">
0.0
</text>
<line x1="42.0" y1="435.71575363160946" x2="50.0" y2="435.71575363160946" stroke="#000"/>
<text x="26.000000000000004" y="435.71575363160946" text-anchor="end" font-weight="bold" font-size="small" fill="#111">
0.2
</text>
<line x1="42.0" y1="373.43150726321903" x2="50.0" y2="373.43150726321903" stroke="#000"/>
<text x="26.000000000000004" y="373.43150726321903" text-anchor="end" font-weight="bold" font-size="small" fill="#111">
0.4
</text>
<line x1="42.0" y1="311.14726089482855" x2="50.0" y2="311.14726089482855" stroke="#000"/>
<text x="26.000000000000004" y="311.14726089482855" text-anchor="end" font-weight="bold" font-size="small" fill="#111">
0.6
</text>
<line x1="42.0" y1="248.86301452643806" x2="50.0" y2="248.86301452643806" stroke="#000"/>
<text x="26.000000000000004" y="248.86301452643806" text-anchor="end" font-weight="bold" font-size="small" fill="#111">
0.8
</text>
<line x1="42.0" y1="186.57876815804764" x2="50.0" y2="186.57876815804764" stroke="#000"/>
<text x="26.000000000000004" y="186.57876815804764" text-anchor="end" font-weight="bold" font-size="small" fill="#111">
1.0
</text>
<line x1="42.0" y1="124.29452178965718" x2="50.0" y2="124.29452178965718" stroke="#000"/>
<text x="26.000000000000004" y="124.29452178965718" text-anchor="end" font-weight="bold" font-size="small" fill="#111">
1.2
</text>
<line x1="248.5" y1="54.60000000000001" x2="368.5" y2="54.60000000000001" stroke="#648FFF" stroke-width="2"/>
<text x="308.5" y="49.500000000000014" font-size="small" text-anchor="middle" font-weight="bold" fill="#000">
CRuby 3.3.0dev
</text>
<rect x="671.5" y="35.400000000000006" width="120.0" height="19.2" fill="#785EF0" stroke="none"/>
<text x="731.4999999999999" y="49.500000000000014" font-size="small" text-anchor="middle" font-weight="bold" fill="#fff" style="text-shadow: 0 0 1px #000;">
YJIT 3.3.0dev
</text>
<rect x="87.6" y="182.28875300126157" width="37.599999999999994" height="315.7112469987383" fill="#785EF0" data-tooltip="1.01x baseline (YJIT 3.3.0dev)"/>
<line x1="106.39999999999998" y1="498.0" x2="106.39999999999998" y2="502.79999999999995" stroke="#000"/>
<text x="106.39999999999998" y="512.4" fill="#111" font-size="small" text-anchor="end" transform="rotate(-60, 106.39999999999998, 512.4)">
binarytrees
</text>
<rect x="162.79999999999998" y="100.19999999999999" width="37.599999999999994" height="397.79999999999995" fill="#785EF0" data-tooltip="1.28x baseline (YJIT 3.3.0dev)"/>
<line x1="181.6" y1="498.0" x2="181.6" y2="502.79999999999995" stroke="#000"/>
<text x="181.6" y="512.4" fill="#111" font-size="small" text-anchor="end" transform="rotate(-60, 181.6, 512.4)">
chunky_png
</text>
<rect x="237.99999999999997" y="159.00268838354125" width="37.599999999999994" height="338.9973116164587" fill="#785EF0" data-tooltip="1.09x baseline (YJIT 3.3.0dev)"/>
<line x1="256.79999999999995" y1="498.0" x2="256.79999999999995" y2="502.79999999999995" stroke="#000"/>
<text x="256.79999999999995" y="512.4" fill="#111" font-size="small" text-anchor="end" transform="rotate(-60, 256.79999999999995, 512.4)">
erubi
</text>
<rect x="313.19999999999993" y="156.52502299753124" width="37.599999999999994" height="341.47497700246873" fill="#785EF0" data-tooltip="1.10x baseline (YJIT 3.3.0dev)"/>
<line x1="331.9999999999999" y1="498.0" x2="331.9999999999999" y2="502.79999999999995" stroke="#000"/>
<text x="331.9999999999999" y="512.4" fill="#111" font-size="small" text-anchor="end" transform="rotate(-60, 331.9999999999999, 512.4)">
erubi_rails
</text>
<rect x="388.39999999999986" y="179.74627445144748" width="37.599999999999994" height="318.2537255485525" fill="#785EF0" data-tooltip="1.02x baseline (YJIT 3.3.0dev)"/>
<line x1="407.1999999999998" y1="498.0" x2="407.1999999999998" y2="502.79999999999995" stroke="#000"/>
<text x="407.1999999999998" y="512.4" fill="#111" font-size="small" text-anchor="end" transform="rotate(-60, 407.1999999999998, 512.4)">
etanni
</text>
<rect x="463.5999999999998" y="177.1837656148433" width="37.599999999999994" height="320.81623438515663" fill="#785EF0" data-tooltip="1.03x baseline (YJIT 3.3.0dev)"/>
<line x1="482.39999999999975" y1="498.0" x2="482.39999999999975" y2="502.79999999999995" stroke="#000"/>
<text x="482.39999999999975" y="512.4" fill="#111" font-size="small" text-anchor="end" transform="rotate(-60, 482.39999999999975, 512.4)">
fannkuchredux
</text>
<rect x="538.7999999999997" y="129.99501863942422" width="37.599999999999994" height="368.00498136057575" fill="#785EF0" data-tooltip="1.18x baseline (YJIT 3.3.0dev)"/>
<line x1="557.5999999999997" y1="498.0" x2="557.5999999999997" y2="502.79999999999995" stroke="#000"/>
<text x="557.5999999999997" y="512.4" fill="#111" font-size="small" text-anchor="end" transform="rotate(-60, 557.5999999999997, 512.4)">
lee
</text>
<rect x="613.9999999999997" y="178.5100566205381" width="37.599999999999994" height="319.4899433794618" fill="#785EF0" data-tooltip="1.03x baseline (YJIT 3.3.0dev)"/>
<line x1="632.7999999999996" y1="498.0" x2="632.7999999999996" y2="502.79999999999995" stroke="#000"/>
<text x="632.7999999999996" y="512.4" fill="#111" font-size="small" text-anchor="end" transform="rotate(-60, 632.7999999999996, 512.4)">
nbody
</text>
<rect x="689.1999999999996" y="173.24533579741728" width="37.599999999999994" height="324.75466420258266" fill="#785EF0" data-tooltip="1.04x baseline (YJIT 3.3.0dev)"/>
<line x1="707.9999999999995" y1="498.0" x2="707.9999999999995" y2="502.79999999999995" stroke="#000"/>
<text x="707.9999999999995" y="512.4" fill="#111" font-size="small" text-anchor="end" transform="rotate(-60, 707.9999999999995, 512.4)">
optcarrot
</text>
<rect x="764.3999999999995" y="169.25693788371606" width="37.599999999999994" height="328.74306211628385" fill="#785EF0" data-tooltip="1.06x baseline (YJIT 3.3.0dev)"/>
<line x1="783.1999999999995" y1="498.0" x2="783.1999999999995" y2="502.79999999999995" stroke="#000"/>
<text x="783.1999999999995" y="512.4" fill="#111" font-size="small" text-anchor="end" transform="rotate(-60, 783.1999999999995, 512.4)">
ruby-json
</text>
<rect x="839.5999999999995" y="180.10765156720473" width="37.599999999999994" height="317.89234843279525" fill="#785EF0" data-tooltip="1.02x baseline (YJIT 3.3.0dev)"/>
<line x1="858.3999999999994" y1="498.0" x2="858.3999999999994" y2="502.79999999999995" stroke="#000"/>
<text x="858.3999999999994" y="512.4" fill="#111" font-size="small" text-anchor="end" transform="rotate(-60, 858.3999999999994, 512.4)">
rubykon
</text>
<rect x="914.7999999999994" y="163.20681056796246" width="37.599999999999994" height="334.7931894320375" fill="#785EF0" data-tooltip="1.08x baseline (YJIT 3.3.0dev)"/>
<line x1="933.5999999999993" y1="498.0" x2="933.5999999999993" y2="502.79999999999995" stroke="#000"/>
<text x="933.5999999999993" y="512.4" fill="#111" font-size="small" text-anchor="end" transform="rotate(-60, 933.5999999999993, 512.4)" font-style="italic">
geomean*
</text>
<line x1="50.0" y1="186.57876815804764" x2="990.0" y2="186.57876815804764" stroke="#648FFF" stroke-width="2"/>
</svg>