<svg viewBox="0 0 1000 600" xmlns="http://www.w3.org/2000/svg" xmlns:xlink="http://www.w3.org/1999/xlink" width="100%" height="100%">

<rect x="50.0" y="30.0" width="940.0" height="467.99999999999994" stroke="#000" fill="#EEE"/>
<line x1="42.0" y1="497.9999999999999" x2="50.0" y2="497.9999999999999" stroke="#000"/>
<text x="26.000000000000004" y="497.9999999999999" text-anchor="end" font-weight="bold" font-size="small" fill="#111">
0.0
</text>
<line x1="42.0" y1="426.8244124846429" x2="50.0" y2="426.8244124846429" stroke="#000"/>
<text x="26.000000000000004" y="426.8244124846429" text-anchor="end" font-weight="bold" font-size="small" fill="#111">
0.5
</text>
<line x1="42.0" y1="355.6488249692857" x2="50.0" y2="355.6488249692857" stroke="#000"/>
<text x="26.000000000000004" y="355.6488249692857" text-anchor="end" font-weight="bold" font-size="small" fill="#111">
1.0
</text>
<line x1="42.0" y1="284.47323745392856" x2="50.0" y2="284.47323745392856" stroke="#000"/>
<text x="26.000000000000004" y="284.47323745392856" text-anchor="end" font-weight="bold" font-size="small" fill="#111">
1.5
</text>
<line x1="42.0" y1="213.29764993857142" x2="50.0" y2="213.29764993857142" stroke="#000"/>
<text x="26.000000000000004" y="213.29764993857142" text-anchor="end" font-weight="bold" font-size="small" fill="#111">
2.0
</text>
<line x1="42.0" y1="142.12206242321432" x2="50.0" y2="142.12206242321432" stroke="#000"/>
<text x="26.000000000000004" y="142.12206242321432" text-anchor="end" font-weight="bold" font-size="small" fill="#111">
2.5
</text>
<rect x="268.5" y="36.00000000000001" width="80.0" height="18.0" fill="#7070f8" stroke="#888"/>
<text x="308.5" y="52.50000000000001" font-size="small" text-anchor="middle" font-weight="bold" fill="#EEE">
No JIT
</text>
<rect x="691.4999999999999" y="36.00000000000001" width="80.0" height="18.0" fill="orange" stroke="#888"/>
<text x="731.4999999999999" y="52.50000000000001" font-size="small" text-anchor="middle" font-weight="bold" fill="#EEE">
YJIT
</text>
<rect x="97.0" y="355.6488249692857" width="25.636363636363637" height="142.35117503071424" fill="#7070f8" data-tooltip="1.00x baseline speed (No JIT)"/>
<line x1="97.0" y1="355.5895321849523" x2="122.63636363636364" y2="355.5895321849523" stroke="#000"/>
<line x1="97.0" y1="355.70811775361915" x2="122.63636363636364" y2="355.70811775361915" stroke="#000"/>
<line x1="109.81818181818181" y1="355.5895321849523" x2="109.81818181818181" y2="355.70811775361915" stroke="#000"/>
<rect x="122.63636363636364" y="209.3658377249047" width="25.636363636363637" height="288.63416227509526" fill="orange" data-tooltip="2.03x baseline speed (YJIT)"/>
<line x1="122.63636363636364" y1="207.57483459252924" x2="148.27272727272728" y2="207.57483459252924" stroke="#000"/>
<line x1="122.63636363636364" y1="211.15684085728017" x2="148.27272727272728" y2="211.15684085728017" stroke="#000"/>
<line x1="135.45454545454547" y1="207.57483459252924" x2="135.45454545454547" y2="211.15684085728017" stroke="#000"/>
<line x1="135.45454545454547" y1="498.0" x2="135.45454545454547" y2="502.79999999999995" stroke="#000"/>
<text x="135.45454545454547" y="512.4" fill="#111" font-size="small" font-family="monospace" font-weight="bold" text-anchor="end" transform="rotate(-60, 135.45454545454547, 512.4)">
binarytrees
</text>
<rect x="173.9090909090909" y="355.6488249692857" width="25.636363636363637" height="142.35117503071424" fill="#7070f8" data-tooltip="1.00x baseline speed (No JIT)"/>
<line x1="173.9090909090909" y1="355.31511521668125" x2="199.54545454545453" y2="355.31511521668125" stroke="#000"/>
<line x1="173.9090909090909" y1="355.9825347218902" x2="199.54545454545453" y2="355.9825347218902" stroke="#000"/>
<line x1="186.72727272727272" y1="355.31511521668125" x2="186.72727272727272" y2="355.9825347218902" stroke="#000"/>
<rect x="199.54545454545453" y="280.771784158442" width="25.636363636363637" height="217.2282158415579" fill="orange" data-tooltip="1.53x baseline speed (YJIT)"/>
<line x1="199.54545454545453" y1="279.7674345361881" x2="225.18181818181816" y2="279.7674345361881" stroke="#000"/>
<line x1="199.54545454545453" y1="281.776133780696" x2="225.18181818181816" y2="281.776133780696" stroke="#000"/>
<line x1="212.36363636363635" y1="279.7674345361881" x2="212.36363636363635" y2="281.776133780696" stroke="#000"/>
<line x1="212.36363636363637" y1="498.0" x2="212.36363636363637" y2="502.79999999999995" stroke="#000"/>
<text x="212.36363636363637" y="512.4" fill="#111" font-size="small" font-family="monospace" font-weight="bold" text-anchor="end" transform="rotate(-60, 212.36363636363637, 512.4)">
chunky_png
</text>
<rect x="250.81818181818184" y="355.6488249692857" width="25.636363636363637" height="142.35117503071424" fill="#7070f8" data-tooltip="1.00x baseline speed (No JIT)"/>
<line x1="250.81818181818184" y1="355.555627406486" x2="276.45454545454544" y2="355.555627406486" stroke="#000"/>
<line x1="250.81818181818184" y1="355.74202253208546" x2="276.45454545454544" y2="355.74202253208546" stroke="#000"/>
<line x1="263.6363636363637" y1="355.555627406486" x2="263.6363636363637" y2="355.74202253208546" stroke="#000"/>
<rect x="276.45454545454544" y="329.3491108347921" width="25.636363636363637" height="168.65088916520787" fill="orange" data-tooltip="1.18x baseline speed (YJIT)"/>
<line x1="276.45454545454544" y1="329.1911705951903" x2="302.09090909090907" y2="329.1911705951903" stroke="#000"/>
<line x1="276.45454545454544" y1="329.5070510743939" x2="302.09090909090907" y2="329.5070510743939" stroke="#000"/>
<line x1="289.2727272727273" y1="329.1911705951903" x2="289.2727272727273" y2="329.5070510743939" stroke="#000"/>
<line x1="289.2727272727273" y1="498.0" x2="289.2727272727273" y2="502.79999999999995" stroke="#000"/>
<text x="289.2727272727273" y="512.4" fill="#111" font-size="small" font-family="monospace" font-weight="bold" text-anchor="end" transform="rotate(-60, 289.2727272727273, 512.4)">
erubi
</text>
<rect x="327.72727272727275" y="355.6488249692857" width="25.636363636363637" height="142.35117503071424" fill="#7070f8" data-tooltip="1.00x baseline speed (No JIT)"/>
<line x1="327.72727272727275" y1="340.1443528957609" x2="353.3636363636364" y2="340.1443528957609" stroke="#000"/>
<line x1="327.72727272727275" y1="371.1532970428106" x2="353.3636363636364" y2="371.1532970428106" stroke="#000"/>
<line x1="340.5454545454546" y1="340.1443528957609" x2="340.5454545454546" y2="371.1532970428106" stroke="#000"/>
<rect x="353.3636363636364" y="256.43347140051316" width="25.636363636363637" height="241.5665285994868" fill="orange" data-tooltip="1.70x baseline speed (YJIT)"/>
<line x1="353.3636363636364" y1="202.30472411025357" x2="379.0" y2="202.30472411025357" stroke="#000"/>
<line x1="353.3636363636364" y1="310.5622186907727" x2="379.0" y2="310.5622186907727" stroke="#000"/>
<line x1="366.18181818181824" y1="202.30472411025357" x2="366.18181818181824" y2="310.5622186907727" stroke="#000"/>
<line x1="366.18181818181824" y1="498.0" x2="366.18181818181824" y2="502.79999999999995" stroke="#000"/>
<text x="366.18181818181824" y="512.4" fill="#111" font-size="small" font-family="monospace" font-weight="bold" text-anchor="end" transform="rotate(-60, 366.18181818181824, 512.4)">
erubi_rails
</text>
<rect x="404.6363636363637" y="355.6488249692857" width="25.636363636363637" height="142.35117503071424" fill="#7070f8" data-tooltip="1.00x baseline speed (No JIT)"/>
<line x1="404.6363636363637" y1="355.59019008703075" x2="430.2727272727273" y2="355.59019008703075" stroke="#000"/>
<line x1="404.6363636363637" y1="355.70745985154076" x2="430.2727272727273" y2="355.70745985154076" stroke="#000"/>
<line x1="417.4545454545455" y1="355.59019008703075" x2="417.4545454545455" y2="355.70745985154076" stroke="#000"/>
<rect x="430.2727272727273" y="355.9629537649503" width="25.636363636363637" height="142.03704623504964" fill="orange" data-tooltip="1.00x baseline speed (YJIT)"/>
<line x1="430.2727272727273" y1="355.8756473735922" x2="455.90909090909093" y2="355.8756473735922" stroke="#000"/>
<line x1="430.2727272727273" y1="356.05026015630847" x2="455.90909090909093" y2="356.05026015630847" stroke="#000"/>
<line x1="443.0909090909091" y1="355.8756473735922" x2="443.0909090909091" y2="356.05026015630847" stroke="#000"/>
<line x1="443.0909090909091" y1="498.0" x2="443.0909090909091" y2="502.79999999999995" stroke="#000"/>
<text x="443.0909090909091" y="512.4" fill="#111" font-size="small" font-family="monospace" font-weight="bold" text-anchor="end" transform="rotate(-60, 443.0909090909091, 512.4)">
etanni
</text>
<rect x="481.5454545454546" y="355.6488249692857" width="25.636363636363637" height="142.35117503071424" fill="#7070f8" data-tooltip="1.00x baseline speed (No JIT)"/>
<line x1="481.5454545454546" y1="355.4797413180742" x2="507.1818181818183" y2="355.4797413180742" stroke="#000"/>
<line x1="481.5454545454546" y1="355.8179086204973" x2="507.1818181818183" y2="355.8179086204973" stroke="#000"/>
<line x1="494.36363636363643" y1="355.4797413180742" x2="494.36363636363643" y2="355.8179086204973" stroke="#000"/>
<rect x="507.1818181818183" y="103.80797604932008" width="25.636363636363637" height="394.19202395067987" fill="orange" data-tooltip="2.77x baseline speed (YJIT)"/>
<line x1="507.1818181818183" y1="103.28465141169318" x2="532.818181818182" y2="103.28465141169318" stroke="#000"/>
<line x1="507.1818181818183" y1="104.33130068694696" x2="532.818181818182" y2="104.33130068694696" stroke="#000"/>
<line x1="520.0000000000001" y1="103.28465141169318" x2="520.0000000000001" y2="104.33130068694696" stroke="#000"/>
<line x1="520.0" y1="498.0" x2="520.0" y2="502.79999999999995" stroke="#000"/>
<text x="520.0" y="512.4" fill="#111" font-size="small" font-family="monospace" font-weight="bold" text-anchor="end" transform="rotate(-60, 520.0, 512.4)">
fannkuchredux
</text>
<rect x="558.4545454545454" y="355.6488249692857" width="25.636363636363637" height="142.35117503071424" fill="#7070f8" data-tooltip="1.00x baseline speed (No JIT)"/>
<line x1="558.4545454545454" y1="355.17696077829646" x2="584.0909090909091" y2="355.17696077829646" stroke="#000"/>
<line x1="558.4545454545454" y1="356.120689160275" x2="584.0909090909091" y2="356.120689160275" stroke="#000"/>
<line x1="571.2727272727273" y1="355.17696077829646" x2="571.2727272727273" y2="356.120689160275" stroke="#000"/>
<rect x="584.0909090909091" y="301.1389368362042" width="25.636363636363637" height="196.8610631637957" fill="orange" data-tooltip="1.38x baseline speed (YJIT)"/>
<line x1="584.0909090909091" y1="300.04780302233013" x2="609.7272727272727" y2="300.04780302233013" stroke="#000"/>
<line x1="584.0909090909091" y1="302.2300706500783" x2="609.7272727272727" y2="302.2300706500783" stroke="#000"/>
<line x1="596.909090909091" y1="300.04780302233013" x2="596.909090909091" y2="302.2300706500783" stroke="#000"/>
<line x1="596.9090909090909" y1="498.0" x2="596.9090909090909" y2="502.79999999999995" stroke="#000"/>
<text x="596.9090909090909" y="512.4" fill="#111" font-size="small" font-family="monospace" font-weight="bold" text-anchor="end" transform="rotate(-60, 596.9090909090909, 512.4)">
lee
</text>
<rect x="635.3636363636364" y="355.6488249692857" width="25.636363636363637" height="142.35117503071424" fill="#7070f8" data-tooltip="1.00x baseline speed (No JIT)"/>
<line x1="635.3636363636364" y1="355.5776933667694" x2="661.0" y2="355.5776933667694" stroke="#000"/>
<line x1="635.3636363636364" y1="355.7199565718021" x2="661.0" y2="355.7199565718021" stroke="#000"/>
<line x1="648.1818181818182" y1="355.5776933667694" x2="648.1818181818182" y2="355.7199565718021" stroke="#000"/>
<rect x="661.0" y="237.78413328594343" width="25.636363636363637" height="260.2158667140565" fill="orange" data-tooltip="1.83x baseline speed (YJIT)"/>
<line x1="661.0" y1="237.57600052904093" x2="686.6363636363637" y2="237.57600052904093" stroke="#000"/>
<line x1="661.0" y1="237.99226604284593" x2="686.6363636363637" y2="237.99226604284593" stroke="#000"/>
<line x1="673.8181818181819" y1="237.57600052904093" x2="673.8181818181819" y2="237.99226604284593" stroke="#000"/>
<line x1="673.8181818181818" y1="498.0" x2="673.8181818181818" y2="502.79999999999995" stroke="#000"/>
<text x="673.8181818181818" y="512.4" fill="#111" font-size="small" font-family="monospace" font-weight="bold" text-anchor="end" transform="rotate(-60, 673.8181818181818, 512.4)">
nbody
</text>
<rect x="712.2727272727273" y="355.6488249692857" width="25.636363636363637" height="142.35117503071424" fill="#7070f8" data-tooltip="1.00x baseline speed (No JIT)"/>
<line x1="712.2727272727273" y1="354.7049646296586" x2="737.909090909091" y2="354.7049646296586" stroke="#000"/>
<line x1="712.2727272727273" y1="356.59268530891285" x2="737.909090909091" y2="356.59268530891285" stroke="#000"/>
<line x1="725.0909090909091" y1="354.7049646296586" x2="725.0909090909091" y2="356.59268530891285" stroke="#000"/>
<rect x="737.909090909091" y="100.19999999999999" width="25.636363636363637" height="397.79999999999995" fill="orange" data-tooltip="2.79x baseline speed (YJIT)"/>
<line x1="737.909090909091" y1="96.57777248536938" x2="763.5454545454546" y2="96.57777248536938" stroke="#000"/>
<line x1="737.909090909091" y1="103.82222751463061" x2="763.5454545454546" y2="103.82222751463061" stroke="#000"/>
<line x1="750.7272727272727" y1="96.57777248536938" x2="750.7272727272727" y2="103.82222751463061" stroke="#000"/>
<line x1="750.7272727272726" y1="498.0" x2="750.7272727272726" y2="502.79999999999995" stroke="#000"/>
<text x="750.7272727272726" y="512.4" fill="#111" font-size="small" font-family="monospace" font-weight="bold" text-anchor="end" transform="rotate(-60, 750.7272727272726, 512.4)">
optcarrot
</text>
<rect x="789.1818181818182" y="355.6488249692857" width="25.636363636363637" height="142.35117503071424" fill="#7070f8" data-tooltip="1.00x baseline speed (No JIT)"/>
<line x1="789.1818181818182" y1="355.49917708443195" x2="814.8181818181819" y2="355.49917708443195" stroke="#000"/>
<line x1="789.1818181818182" y1="355.79847285413956" x2="814.8181818181819" y2="355.79847285413956" stroke="#000"/>
<line x1="802.0" y1="355.49917708443195" x2="802.0" y2="355.79847285413956" stroke="#000"/>
<rect x="814.8181818181819" y="330.39116068599526" width="25.636363636363637" height="167.6088393140047" fill="orange" data-tooltip="1.18x baseline speed (YJIT)"/>
<line x1="814.8181818181819" y1="330.1253865264652" x2="840.4545454545456" y2="330.1253865264652" stroke="#000"/>
<line x1="814.8181818181819" y1="330.65693484552526" x2="840.4545454545456" y2="330.65693484552526" stroke="#000"/>
<line x1="827.6363636363637" y1="330.1253865264652" x2="827.6363636363637" y2="330.65693484552526" stroke="#000"/>
<line x1="827.6363636363636" y1="498.0" x2="827.6363636363636" y2="502.79999999999995" stroke="#000"/>
<text x="827.6363636363636" y="512.4" fill="#111" font-size="small" font-family="monospace" font-weight="bold" text-anchor="end" transform="rotate(-60, 827.6363636363636, 512.4)">
ruby-json
</text>
<rect x="866.0909090909091" y="355.6488249692857" width="25.636363636363637" height="142.35117503071424" fill="#7070f8" data-tooltip="1.00x baseline speed (No JIT)"/>
<line x1="866.0909090909091" y1="355.1132214260041" x2="891.7272727272729" y2="355.1132214260041" stroke="#000"/>
<line x1="866.0909090909091" y1="356.1844285125674" x2="891.7272727272729" y2="356.1844285125674" stroke="#000"/>
<line x1="878.909090909091" y1="355.1132214260041" x2="878.909090909091" y2="356.1844285125674" stroke="#000"/>
<rect x="891.7272727272729" y="230.65354554333757" width="25.636363636363637" height="267.34645445666234" fill="orange" data-tooltip="1.88x baseline speed (YJIT)"/>
<line x1="891.7272727272729" y1="229.2771675987297" x2="917.3636363636365" y2="229.2771675987297" stroke="#000"/>
<line x1="891.7272727272729" y1="232.02992348794544" x2="917.3636363636365" y2="232.02992348794544" stroke="#000"/>
<line x1="904.5454545454546" y1="229.2771675987297" x2="904.5454545454546" y2="232.02992348794544" stroke="#000"/>
<line x1="904.5454545454545" y1="498.0" x2="904.5454545454545" y2="502.79999999999995" stroke="#000"/>
<text x="904.5454545454545" y="512.4" fill="#111" font-size="small" font-family="monospace" font-weight="bold" text-anchor="end" transform="rotate(-60, 904.5454545454545, 512.4)">
rubykon
</text>
</svg>