<svg viewBox="0 0 1000 600" xmlns="http://www.w3.org/2000/svg" xmlns:xlink="http://www.w3.org/1999/xlink" width="100%" height="100%">

<rect x="50.0" y="30.0" width="940.0" height="467.99999999999994" stroke="#000" fill="#fff"/>
<line x1="42.0" y1="497.9999999999999" x2="50.0" y2="497.9999999999999" stroke="#000"/>
<text x="26.000000000000004" y="497.9999999999999" text-anchor="end" font-weight="bold" font-size="small" fill="#111">
0.0
</text>
<line x1="42.0" y1="442.4056240610601" x2="50.0" y2="442.4056240610601" stroke="#000"/>
<text x="26.000000000000004" y="442.4056240610601" text-anchor="end" font-weight="bold" font-size="small" fill="#111">
0.2
</text>
<line x1="42.0" y1="386.81124812212016" x2="50.0" y2="386.81124812212016" stroke="#000"/>
<text x="26.000000000000004" y="386.81124812212016" text-anchor="end" font-weight="bold" font-size="small" fill="#111">
0.4
</text>
<line x1="42.0" y1="331.2168721831802" x2="50.0" y2="331.2168721831802" stroke="#000"/>
<text x="26.000000000000004" y="331.2168721831802" text-anchor="end" font-weight="bold" font-size="small" fill="#111">
0.6
</text>
<line x1="42.0" y1="275.62249624424027" x2="50.0" y2="275.62249624424027" stroke="#000"/>
<text x="26.000000000000004" y="275.62249624424027" text-anchor="end" font-weight="bold" font-size="small" fill="#111">
0.8
</text>
<line x1="42.0" y1="220.02812030530038" x2="50.0" y2="220.02812030530038" stroke="#000"/>
<text x="26.000000000000004" y="220.02812030530038" text-anchor="end" font-weight="bold" font-size="small" fill="#111">
1.0
</text>
<line x1="42.0" y1="164.4337443663605" x2="50.0" y2="164.4337443663605" stroke="#000"/>
<text x="26.000000000000004" y="164.4337443663605" text-anchor="end" font-weight="bold" font-size="small" fill="#111">
1.2
</text>
<line x1="42.0" y1="108.83936842742062" x2="50.0" y2="108.83936842742062" stroke="#000"/>
<text x="26.000000000000004" y="108.83936842742062" text-anchor="end" font-weight="bold" font-size="small" fill="#111">
1.4
</text>
<line x1="248.5" y1="54.60000000000001" x2="368.5" y2="54.60000000000001" stroke="#648FFF" stroke-width="2"/>
<text x="308.5" y="49.500000000000014" font-size="small" text-anchor="middle" font-weight="bold" fill="#000">
CRuby 3.3.0dev
</text>
<rect x="671.5" y="35.400000000000006" width="120.0" height="19.2" fill="#785EF0" stroke="none"/>
<text x="731.4999999999999" y="49.500000000000014" font-size="small" text-anchor="middle" font-weight="bold" fill="#fff" style="text-shadow: 0 0 1px #000;">
YJIT 3.3.0dev
</text>
<rect x="94.76190476190477" y="183.35281186761947" width="44.76190476190476" height="314.6471881323805" fill="#785EF0" data-tooltip="1.13x baseline (YJIT 3.3.0dev)"/>
<line x1="117.14285714285714" y1="498.0" x2="117.14285714285714" y2="502.79999999999995" stroke="#000"/>
<text x="117.14285714285714" y="512.4" fill="#111" font-size="small" text-anchor="end" transform="rotate(-60, 117.14285714285714, 512.4)">
activerecord
</text>
<rect x="184.28571428571428" y="100.19999999999999" width="44.76190476190476" height="397.79999999999995" fill="#785EF0" data-tooltip="1.43x baseline (YJIT 3.3.0dev)"/>
<line x1="206.66666666666666" y1="498.0" x2="206.66666666666666" y2="502.79999999999995" stroke="#000"/>
<text x="206.66666666666666" y="512.4" fill="#111" font-size="small" text-anchor="end" transform="rotate(-60, 206.66666666666666, 512.4)">
hexapdf
</text>
<rect x="273.8095238095238" y="190.73259086684237" width="44.76190476190476" height="307.2674091331575" fill="#785EF0" data-tooltip="1.11x baseline (YJIT 3.3.0dev)"/>
<line x1="296.19047619047615" y1="498.0" x2="296.19047619047615" y2="502.79999999999995" stroke="#000"/>
<text x="296.19047619047615" y="512.4" fill="#111" font-size="small" text-anchor="end" transform="rotate(-60, 296.19047619047615, 512.4)">
liquid-c
</text>
<rect x="363.3333333333333" y="178.99205827890427" width="44.76190476190476" height="319.00794172109573" fill="#785EF0" data-tooltip="1.15x baseline (YJIT 3.3.0dev)"/>
<line x1="385.7142857142857" y1="498.0" x2="385.7142857142857" y2="502.79999999999995" stroke="#000"/>
<text x="385.7142857142857" y="512.4" fill="#111" font-size="small" text-anchor="end" transform="rotate(-60, 385.7142857142857, 512.4)">
liquid-render
</text>
<rect x="452.8571428571429" y="200.0562381717787" width="44.76190476190476" height="297.9437618282212" fill="#785EF0" data-tooltip="1.07x baseline (YJIT 3.3.0dev)"/>
<line x1="475.2380952380953" y1="498.0" x2="475.2380952380953" y2="502.79999999999995" stroke="#000"/>
<text x="475.2380952380953" y="512.4" fill="#111" font-size="small" text-anchor="end" transform="rotate(-60, 475.2380952380953, 512.4)">
mail
</text>
<rect x="542.3809523809524" y="202.67374127984408" width="44.76190476190476" height="295.32625872015586" fill="#785EF0" data-tooltip="1.06x baseline (YJIT 3.3.0dev)"/>
<line x1="564.7619047619048" y1="498.0" x2="564.7619047619048" y2="502.79999999999995" stroke="#000"/>
<text x="564.7619047619048" y="512.4" fill="#111" font-size="small" text-anchor="end" transform="rotate(-60, 564.7619047619048, 512.4)">
psych-load
</text>
<rect x="631.9047619047619" y="176.69952782319308" width="44.76190476190476" height="321.3004721768069" fill="#785EF0" data-tooltip="1.16x baseline (YJIT 3.3.0dev)"/>
<line x1="654.2857142857143" y1="498.0" x2="654.2857142857143" y2="502.79999999999995" stroke="#000"/>
<text x="654.2857142857143" y="512.4" fill="#111" font-size="small" text-anchor="end" transform="rotate(-60, 654.2857142857143, 512.4)">
railsbench
</text>
<rect x="721.4285714285716" y="111.07408903530248" width="44.76190476190476" height="386.92591096469744" fill="#785EF0" data-tooltip="1.39x baseline (YJIT 3.3.0dev)"/>
<line x1="743.809523809524" y1="498.0" x2="743.809523809524" y2="502.79999999999995" stroke="#000"/>
<text x="743.809523809524" y="512.4" fill="#111" font-size="small" text-anchor="end" transform="rotate(-60, 743.809523809524, 512.4)">
ruby-lsp
</text>
<rect x="810.9523809523811" y="184.8807760337971" width="44.76190476190476" height="313.11922396620287" fill="#785EF0" data-tooltip="1.13x baseline (YJIT 3.3.0dev)"/>
<line x1="833.3333333333335" y1="498.0" x2="833.3333333333335" y2="502.79999999999995" stroke="#000"/>
<text x="833.3333333333335" y="512.4" fill="#111" font-size="small" text-anchor="end" transform="rotate(-60, 833.3333333333335, 512.4)">
sequel
</text>
<rect x="900.4761904761906" y="171.62166548531462" width="44.76190476190476" height="326.3783345146854" fill="#785EF0" data-tooltip="1.17x baseline (YJIT 3.3.0dev)"/>
<line x1="922.857142857143" y1="498.0" x2="922.857142857143" y2="502.79999999999995" stroke="#000"/>
<text x="922.857142857143" y="512.4" fill="#111" font-size="small" text-anchor="end" transform="rotate(-60, 922.857142857143, 512.4)" font-style="italic">
geomean*
</text>
<line x1="50.0" y1="220.02812030530038" x2="990.0" y2="220.02812030530038" stroke="#648FFF" stroke-width="2"/>
</svg>