<svg viewBox="0 0 1000 600" xmlns="http://www.w3.org/2000/svg" xmlns:xlink="http://www.w3.org/1999/xlink" width="100%" height="100%">

<rect x="50.0" y="30.0" width="940.0" height="467.99999999999994" stroke="#000" fill="#fff"/>
<line x1="42.0" y1="497.9999999999999" x2="50.0" y2="497.9999999999999" stroke="#000"/>
<text x="26.000000000000004" y="497.9999999999999" text-anchor="end" font-weight="bold" font-size="small" fill="#111">
0.0
</text>
<line x1="42.0" y1="406.56719999999996" x2="50.0" y2="406.56719999999996" stroke="#000"/>
<text x="26.000000000000004" y="406.56719999999996" text-anchor="end" font-weight="bold" font-size="small" fill="#111">
0.5
</text>
<line x1="42.0" y1="315.13439999999997" x2="50.0" y2="315.13439999999997" stroke="#000"/>
<text x="26.000000000000004" y="315.13439999999997" text-anchor="end" font-weight="bold" font-size="small" fill="#111">
1.0
</text>
<line x1="42.0" y1="223.70159999999996" x2="50.0" y2="223.70159999999996" stroke="#000"/>
<text x="26.000000000000004" y="223.70159999999996" text-anchor="end" font-weight="bold" font-size="small" fill="#111">
1.5
</text>
<line x1="42.0" y1="132.2688" x2="50.0" y2="132.2688" stroke="#000"/>
<text x="26.000000000000004" y="132.2688" text-anchor="end" font-weight="bold" font-size="small" fill="#111">
2.0
</text>
<line x1="142.75" y1="54.60000000000001" x2="262.75" y2="54.60000000000001" stroke="#648FFF" stroke-width="2"/>
<text x="202.75" y="49.500000000000014" font-size="small" text-anchor="middle" font-weight="bold" fill="#000">
CRuby 3.3.4
</text>
<rect x="354.25" y="35.400000000000006" width="120.0" height="19.2" fill="#785EF0" stroke="none"/>
<text x="414.25" y="49.500000000000014" font-size="small" text-anchor="middle" font-weight="bold" fill="#fff" style="text-shadow: 0 0 1px #000;">
CRuby 3.4.0dev
</text>
<rect x="565.75" y="35.400000000000006" width="120.0" height="19.2" fill="#FFB000" stroke="none"/>
<text x="625.7499999999999" y="49.500000000000014" font-size="small" text-anchor="middle" font-weight="bold" fill="#fff" style="text-shadow: 0 0 1px #000;">
YJIT 3.3.4
</text>
<rect x="777.25" y="35.400000000000006" width="120.0" height="19.2" fill="#DC267F" stroke="none"/>
<text x="837.2499999999999" y="49.500000000000014" font-size="small" text-anchor="middle" font-weight="bold" fill="#fff" style="text-shadow: 0 0 1px #000;">
YJIT 3.4.0dev
</text>
<rect x="65.40983606557377" y="297.883818815331" width="15.40983606557377" height="200.116181184669" fill="#785EF0" data-tooltip="1.09x baseline (CRuby 3.4.0dev)"/>
<rect x="80.81967213114753" y="257.19982160278744" width="15.40983606557377" height="240.8001783972125" fill="#FFB000" data-tooltip="1.32x baseline (YJIT 3.3.4)"/>
<rect x="96.2295081967213" y="274.9459735191638" width="15.40983606557377" height="223.0540264808362" fill="#DC267F" data-tooltip="1.22x baseline (YJIT 3.4.0dev)"/>
<line x1="88.5245901639344" y1="498.0" x2="88.5245901639344" y2="502.79999999999995" stroke="#000"/>
<text x="88.5245901639344" y="512.4" fill="#111" font-size="small" text-anchor="end" transform="rotate(-60, 88.5245901639344, 512.4)">
activerecord
</text>
<rect x="127.04918032786883" y="293.868502245001" width="15.40983606557377" height="204.1314977549989" fill="#785EF0" data-tooltip="1.12x baseline (CRuby 3.4.0dev)"/>
<rect x="142.4590163934426" y="256.77528518010536" width="15.40983606557377" height="241.2247148198946" fill="#FFB000" data-tooltip="1.32x baseline (YJIT 3.3.4)"/>
<rect x="157.86885245901638" y="317.94609225438523" width="15.40983606557377" height="180.05390774561465" fill="#DC267F" data-tooltip="0.98x baseline (YJIT 3.4.0dev)"/>
<line x1="150.1639344262295" y1="498.0" x2="150.1639344262295" y2="502.79999999999995" stroke="#000"/>
<text x="150.1639344262295" y="512.4" fill="#111" font-size="small" text-anchor="end" transform="rotate(-60, 150.1639344262295, 512.4)">
chunky-png
</text>
<rect x="188.68852459016395" y="299.9851806750496" width="15.40983606557377" height="198.01481932495037" fill="#785EF0" data-tooltip="1.08x baseline (CRuby 3.4.0dev)"/>
<rect x="204.0983606557377" y="303.0605861019193" width="15.40983606557377" height="194.93941389808072" fill="#FFB000" data-tooltip="1.07x baseline (YJIT 3.3.4)"/>
<rect x="219.5081967213115" y="291.08643812045" width="15.40983606557377" height="206.91356187954995" fill="#DC267F" data-tooltip="1.13x baseline (YJIT 3.4.0dev)"/>
<line x1="211.8032786885246" y1="498.0" x2="211.8032786885246" y2="502.79999999999995" stroke="#000"/>
<text x="211.8032786885246" y="512.4" fill="#111" font-size="small" text-anchor="end" transform="rotate(-60, 211.8032786885246, 512.4)">
erubi-rails
</text>
<rect x="250.32786885245906" y="298.2765818181818" width="15.40983606557377" height="199.72341818181815" fill="#785EF0" data-tooltip="1.09x baseline (CRuby 3.4.0dev)"/>
<rect x="265.7377049180328" y="131.18389090909093" width="15.40983606557377" height="366.81610909090904" fill="#FFB000" data-tooltip="2.01x baseline (YJIT 3.3.4)"/>
<rect x="281.14754098360663" y="100.19999999999999" width="15.40983606557377" height="397.79999999999995" fill="#DC267F" data-tooltip="2.18x baseline (YJIT 3.4.0dev)"/>
<line x1="273.4426229508197" y1="498.0" x2="273.4426229508197" y2="502.79999999999995" stroke="#000"/>
<text x="273.4426229508197" y="512.4" fill="#111" font-size="small" text-anchor="end" transform="rotate(-60, 273.4426229508197, 512.4)">
hexapdf
</text>
<rect x="311.96721311475414" y="311.64513424717614" width="15.40983606557377" height="186.3548657528238" fill="#785EF0" data-tooltip="1.02x baseline (CRuby 3.4.0dev)"/>
<rect x="327.37704918032796" y="290.66943322732754" width="15.40983606557377" height="207.3305667726724" fill="#FFB000" data-tooltip="1.13x baseline (YJIT 3.3.4)"/>
<rect x="342.7868852459017" y="290.0477824322842" width="15.40983606557377" height="207.95221756771573" fill="#DC267F" data-tooltip="1.14x baseline (YJIT 3.4.0dev)"/>
<line x1="335.08196721311486" y1="498.0" x2="335.08196721311486" y2="502.79999999999995" stroke="#000"/>
<text x="335.08196721311486" y="512.4" fill="#111" font-size="small" text-anchor="end" transform="rotate(-60, 335.08196721311486, 512.4)">
liquid-c
</text>
<rect x="373.6065573770493" y="315.11386022688976" width="15.40983606557377" height="182.88613977311016" fill="#785EF0" data-tooltip="1.00x baseline (CRuby 3.4.0dev)"/>
<rect x="389.01639344262304" y="299.25715538582494" width="15.40983606557377" height="198.74284461417497" fill="#FFB000" data-tooltip="1.09x baseline (YJIT 3.3.4)"/>
<rect x="404.42622950819685" y="301.3932917892845" width="15.40983606557377" height="196.60670821071548" fill="#DC267F" data-tooltip="1.08x baseline (YJIT 3.4.0dev)"/>
<line x1="396.72131147540995" y1="498.0" x2="396.72131147540995" y2="502.79999999999995" stroke="#000"/>
<text x="396.72131147540995" y="512.4" fill="#111" font-size="small" text-anchor="end" transform="rotate(-60, 396.72131147540995, 512.4)">
liquid-compile
</text>
<rect x="435.2459016393444" y="301.6758579456262" width="15.40983606557377" height="196.3241420543738" fill="#785EF0" data-tooltip="1.07x baseline (CRuby 3.4.0dev)"/>
<rect x="450.6557377049182" y="284.4730538050278" width="15.40983606557377" height="213.5269461949721" fill="#FFB000" data-tooltip="1.17x baseline (YJIT 3.3.4)"/>
<rect x="466.06557377049194" y="274.4051490842907" width="15.40983606557377" height="223.5948509157092" fill="#DC267F" data-tooltip="1.22x baseline (YJIT 3.4.0dev)"/>
<line x1="458.3606557377051" y1="498.0" x2="458.3606557377051" y2="502.79999999999995" stroke="#000"/>
<text x="458.3606557377051" y="512.4" fill="#111" font-size="small" text-anchor="end" transform="rotate(-60, 458.3606557377051, 512.4)">
liquid-render
</text>
<rect x="496.8852459016395" y="311.92989001255825" width="15.40983606557377" height="186.07010998744173" fill="#785EF0" data-tooltip="1.02x baseline (CRuby 3.4.0dev)"/>
<rect x="512.2950819672133" y="284.0501251959525" width="15.40983606557377" height="213.94987480404748" fill="#FFB000" data-tooltip="1.17x baseline (YJIT 3.3.4)"/>
<rect x="527.7049180327871" y="274.59761262179364" width="15.40983606557377" height="223.4023873782063" fill="#DC267F" data-tooltip="1.22x baseline (YJIT 3.4.0dev)"/>
<line x1="520.0000000000002" y1="498.0" x2="520.0000000000002" y2="502.79999999999995" stroke="#000"/>
<text x="520.0000000000002" y="512.4" fill="#111" font-size="small" text-anchor="end" transform="rotate(-60, 520.0000000000002, 512.4)">
lobsters
</text>
<rect x="558.5245901639346" y="253.10393072164945" width="15.40983606557377" height="244.8960692783505" fill="#785EF0" data-tooltip="1.34x baseline (CRuby 3.4.0dev)"/>
<rect x="573.9344262295084" y="296.75707051546385" width="15.40983606557377" height="201.24292948453606" fill="#FFB000" data-tooltip="1.10x baseline (YJIT 3.3.4)"/>
<rect x="589.3442622950822" y="243.3287554639175" width="15.40983606557377" height="254.67124453608244" fill="#DC267F" data-tooltip="1.39x baseline (YJIT 3.4.0dev)"/>
<line x1="581.6393442622954" y1="498.0" x2="581.6393442622954" y2="502.79999999999995" stroke="#000"/>
<text x="581.6393442622954" y="512.4" fill="#111" font-size="small" text-anchor="end" transform="rotate(-60, 581.6393442622954, 512.4)">
mail
</text>
<rect x="620.1639344262297" y="309.304827643979" width="15.40983606557377" height="188.69517235602092" fill="#785EF0" data-tooltip="1.03x baseline (CRuby 3.4.0dev)"/>
<rect x="635.5737704918035" y="304.56032167539263" width="15.40983606557377" height="193.43967832460729" fill="#FFB000" data-tooltip="1.06x baseline (YJIT 3.3.4)"/>
<rect x="650.9836065573774" y="297.34782157068054" width="15.40983606557377" height="200.65217842931938" fill="#DC267F" data-tooltip="1.10x baseline (YJIT 3.4.0dev)"/>
<line x1="643.2786885245905" y1="498.0" x2="643.2786885245905" y2="502.79999999999995" stroke="#000"/>
<text x="643.2786885245905" y="512.4" fill="#111" font-size="small" text-anchor="end" transform="rotate(-60, 643.2786885245905, 512.4)">
psych-load
</text>
<rect x="681.8032786885249" y="302.1699958292106" width="15.40983606557377" height="195.83000417078927" fill="#785EF0" data-tooltip="1.07x baseline (CRuby 3.4.0dev)"/>
<rect x="697.2131147540987" y="292.7267878529568" width="15.40983606557377" height="205.27321214704313" fill="#FFB000" data-tooltip="1.12x baseline (YJIT 3.3.4)"/>
<rect x="712.6229508196724" y="286.18543523860257" width="15.40983606557377" height="211.81456476139735" fill="#DC267F" data-tooltip="1.16x baseline (YJIT 3.4.0dev)"/>
<line x1="704.9180327868855" y1="498.0" x2="704.9180327868855" y2="502.79999999999995" stroke="#000"/>
<text x="704.9180327868855" y="512.4" fill="#111" font-size="small" text-anchor="end" transform="rotate(-60, 704.9180327868855, 512.4)">
railsbench
</text>
<rect x="743.44262295082" y="307.5311086680761" width="15.40983606557377" height="190.46889133192386" fill="#785EF0" data-tooltip="1.04x baseline (CRuby 3.4.0dev)"/>
<rect x="758.8524590163937" y="248.08206913319236" width="15.40983606557377" height="249.91793086680758" fill="#FFB000" data-tooltip="1.37x baseline (YJIT 3.3.4)"/>
<rect x="774.2622950819675" y="241.62249323467228" width="15.40983606557377" height="256.37750676532767" fill="#DC267F" data-tooltip="1.40x baseline (YJIT 3.4.0dev)"/>
<line x1="766.5573770491807" y1="498.0" x2="766.5573770491807" y2="502.79999999999995" stroke="#000"/>
<text x="766.5573770491807" y="512.4" fill="#111" font-size="small" text-anchor="end" transform="rotate(-60, 766.5573770491807, 512.4)">
rubocop
</text>
<rect x="805.081967213115" y="306.53236071078163" width="15.40983606557377" height="191.46763928921834" fill="#785EF0" data-tooltip="1.05x baseline (CRuby 3.4.0dev)"/>
<rect x="820.4918032786888" y="299.71452192303497" width="15.40983606557377" height="198.285478076965" fill="#FFB000" data-tooltip="1.08x baseline (YJIT 3.3.4)"/>
<rect x="835.9016393442627" y="291.31183464515425" width="15.40983606557377" height="206.68816535484572" fill="#DC267F" data-tooltip="1.13x baseline (YJIT 3.4.0dev)"/>
<line x1="828.1967213114758" y1="498.0" x2="828.1967213114758" y2="502.79999999999995" stroke="#000"/>
<text x="828.1967213114758" y="512.4" fill="#111" font-size="small" text-anchor="end" transform="rotate(-60, 828.1967213114758, 512.4)">
ruby-lsp
</text>
<rect x="866.7213114754102" y="307.7451292856406" width="15.40983606557377" height="190.25487071435933" fill="#785EF0" data-tooltip="1.04x baseline (CRuby 3.4.0dev)"/>
<rect x="882.131147540984" y="298.6216419750541" width="15.40983606557377" height="199.37835802494584" fill="#FFB000" data-tooltip="1.09x baseline (YJIT 3.3.4)"/>
<rect x="897.5409836065578" y="292.4764831666838" width="15.40983606557377" height="205.52351683331614" fill="#DC267F" data-tooltip="1.12x baseline (YJIT 3.4.0dev)"/>
<line x1="889.836065573771" y1="498.0" x2="889.836065573771" y2="502.79999999999995" stroke="#000"/>
<text x="889.836065573771" y="512.4" fill="#111" font-size="small" text-anchor="end" transform="rotate(-60, 889.836065573771, 512.4)">
sequel
</text>
<rect x="928.3606557377053" y="301.6843851817974" width="15.40983606557377" height="196.3156148182026" fill="#785EF0" data-tooltip="1.07x baseline (CRuby 3.4.0dev)"/>
<rect x="943.7704918032791" y="278.1232243877518" width="15.40983606557377" height="219.87677561224817" fill="#FFB000" data-tooltip="1.20x baseline (YJIT 3.3.4)"/>
<rect x="959.1803278688528" y="274.0978935161149" width="15.40983606557377" height="223.90210648388506" fill="#DC267F" data-tooltip="1.22x baseline (YJIT 3.4.0dev)"/>
<line x1="951.4754098360661" y1="498.0" x2="951.4754098360661" y2="502.79999999999995" stroke="#000"/>
<text x="951.4754098360661" y="512.4" fill="#111" font-size="small" text-anchor="end" transform="rotate(-60, 951.4754098360661, 512.4)" font-style="italic">
geomean*
</text>
<line x1="50.0" y1="315.13439999999997" x2="990.0" y2="315.13439999999997" stroke="#648FFF" stroke-width="2"/>
<rect x="67.23483606557377" y="283.72381881533096" width="17.85" height="7.2" transform="rotate(-60, 75.11475409836066, 290.3838188153309)" fill="#fffa"/>
<text x="67.40983606557377" y="290.3838188153309" fill="#111" font-size="0.5em" text-anchor="start" textLength="17.5" transform="rotate(-60, 75.11475409836066, 290.3838188153309)" style="text-shadow: 0 0 1px #fff;">
1.09
</text>
<rect x="82.64467213114754" y="243.03982160278744" width="17.85" height="7.2" transform="rotate(-60, 90.52459016393442, 249.69982160278744)" fill="#fffa"/>
<text x="82.81967213114753" y="249.69982160278744" fill="#111" font-size="0.5em" text-anchor="start" textLength="17.5" transform="rotate(-60, 90.52459016393442, 249.69982160278744)" style="text-shadow: 0 0 1px #fff;">
1.32
</text>
<rect x="98.0545081967213" y="260.78597351916375" width="17.85" height="7.2" transform="rotate(-60, 105.93442622950819, 267.4459735191637)" fill="#fffa"/>
<text x="98.2295081967213" y="267.4459735191637" fill="#111" font-size="0.5em" text-anchor="start" textLength="17.5" transform="rotate(-60, 105.93442622950819, 267.4459735191637)" style="text-shadow: 0 0 1px #fff;">
1.22
</text>
<rect x="128.87418032786883" y="279.70850224500106" width="17.85" height="7.2" transform="rotate(-60, 136.75409836065572, 286.368502245001)" fill="#fffa"/>
<text x="129.04918032786884" y="286.368502245001" fill="#111" font-size="0.5em" text-anchor="start" textLength="17.5" transform="rotate(-60, 136.75409836065572, 286.368502245001)" style="text-shadow: 0 0 1px #fff;">
1.12
</text>
<rect x="144.2840163934426" y="242.61528518010536" width="17.85" height="7.2" transform="rotate(-60, 152.1639344262295, 249.27528518010536)" fill="#fffa"/>
<text x="144.4590163934426" y="249.27528518010536" fill="#111" font-size="0.5em" text-anchor="start" textLength="17.5" transform="rotate(-60, 152.1639344262295, 249.27528518010536)" style="text-shadow: 0 0 1px #fff;">
1.32
</text>
<rect x="159.69385245901637" y="303.78609225438527" width="17.85" height="7.2" transform="rotate(-60, 167.5737704918033, 310.4460922543853)" fill="#fffa"/>
<text x="159.86885245901638" y="310.4460922543853" fill="#111" font-size="0.5em" text-anchor="start" textLength="17.5" transform="rotate(-60, 167.5737704918033, 310.4460922543853)" style="text-shadow: 0 0 1px #fff;">
0.98
</text>
<rect x="190.51352459016394" y="285.8251806750496" width="17.85" height="7.2" transform="rotate(-60, 198.39344262295083, 292.4851806750496)" fill="#fffa"/>
<text x="190.68852459016395" y="292.4851806750496" fill="#111" font-size="0.5em" text-anchor="start" textLength="17.5" transform="rotate(-60, 198.39344262295083, 292.4851806750496)" style="text-shadow: 0 0 1px #fff;">
1.08
</text>
<rect x="205.92336065573772" y="288.90058610191926" width="17.85" height="7.2" transform="rotate(-60, 213.8032786885246, 295.5605861019192)" fill="#fffa"/>
<text x="206.09836065573774" y="295.5605861019192" fill="#111" font-size="0.5em" text-anchor="start" textLength="17.5" transform="rotate(-60, 213.8032786885246, 295.5605861019192)" style="text-shadow: 0 0 1px #fff;">
1.07
</text>
<rect x="221.33319672131148" y="276.92643812045003" width="17.85" height="7.2" transform="rotate(-60, 229.2131147540984, 283.58643812045)" fill="#fffa"/>
<text x="221.5081967213115" y="283.58643812045" fill="#111" font-size="0.5em" text-anchor="start" textLength="17.5" transform="rotate(-60, 229.2131147540984, 283.58643812045)" style="text-shadow: 0 0 1px #fff;">
1.13
</text>
<rect x="252.15286885245908" y="284.11658181818177" width="17.85" height="7.2" transform="rotate(-60, 260.03278688524597, 290.7765818181818)" fill="#fffa"/>
<text x="252.32786885245906" y="290.7765818181818" fill="#111" font-size="0.5em" text-anchor="start" textLength="17.5" transform="rotate(-60, 260.03278688524597, 290.7765818181818)" style="text-shadow: 0 0 1px #fff;">
1.09
</text>
<rect x="267.56270491803286" y="117.02389090909092" width="17.85" height="7.2" transform="rotate(-60, 275.4426229508197, 123.68389090909092)" fill="#fffa"/>
<text x="267.7377049180328" y="123.68389090909092" fill="#111" font-size="0.5em" text-anchor="start" textLength="17.5" transform="rotate(-60, 275.4426229508197, 123.68389090909092)" style="text-shadow: 0 0 1px #fff;">
2.01
</text>
<rect x="282.9725409836066" y="86.03999999999998" width="17.85" height="7.2" transform="rotate(-60, 290.8524590163935, 92.69999999999999)" fill="#fffa"/>
<text x="283.14754098360663" y="92.69999999999999" fill="#111" font-size="0.5em" text-anchor="start" textLength="17.5" transform="rotate(-60, 290.8524590163935, 92.69999999999999)" style="text-shadow: 0 0 1px #fff;">
2.18
</text>
<rect x="313.7922131147542" y="297.4851342471762" width="17.85" height="7.2" transform="rotate(-60, 321.67213114754105, 304.14513424717614)" fill="#fffa"/>
<text x="313.96721311475414" y="304.14513424717614" fill="#111" font-size="0.5em" text-anchor="start" textLength="17.5" transform="rotate(-60, 321.67213114754105, 304.14513424717614)" style="text-shadow: 0 0 1px #fff;">
1.02
</text>
<rect x="329.20204918032795" y="276.5094332273275" width="17.85" height="7.2" transform="rotate(-60, 337.08196721311486, 283.16943322732754)" fill="#fffa"/>
<text x="329.37704918032796" y="283.16943322732754" fill="#111" font-size="0.5em" text-anchor="start" textLength="17.5" transform="rotate(-60, 337.08196721311486, 283.16943322732754)" style="text-shadow: 0 0 1px #fff;">
1.13
</text>
<rect x="344.61188524590176" y="275.8877824322842" width="17.85" height="7.2" transform="rotate(-60, 352.4918032786886, 282.5477824322842)" fill="#fffa"/>
<text x="344.7868852459017" y="282.5477824322842" fill="#111" font-size="0.5em" text-anchor="start" textLength="17.5" transform="rotate(-60, 352.4918032786886, 282.5477824322842)" style="text-shadow: 0 0 1px #fff;">
1.14
</text>
<rect x="375.43155737704933" y="300.9538602268898" width="17.85" height="7.2" transform="rotate(-60, 383.3114754098362, 307.61386022688976)" fill="#fffa"/>
<text x="375.6065573770493" y="307.61386022688976" fill="#111" font-size="0.5em" text-anchor="start" textLength="17.5" transform="rotate(-60, 383.3114754098362, 307.61386022688976)" style="text-shadow: 0 0 1px #fff;">
1.00
</text>
<rect x="390.8413934426231" y="285.097155385825" width="17.85" height="7.2" transform="rotate(-60, 398.72131147540995, 291.75715538582494)" fill="#fffa"/>
<text x="391.01639344262304" y="291.75715538582494" fill="#111" font-size="0.5em" text-anchor="start" textLength="17.5" transform="rotate(-60, 398.72131147540995, 291.75715538582494)" style="text-shadow: 0 0 1px #fff;">
1.09
</text>
<rect x="406.25122950819684" y="287.23329178928446" width="17.85" height="7.2" transform="rotate(-60, 414.13114754098376, 293.89329178928443)" fill="#fffa"/>
<text x="406.42622950819685" y="293.89329178928443" fill="#111" font-size="0.5em" text-anchor="start" textLength="17.5" transform="rotate(-60, 414.13114754098376, 293.89329178928443)" style="text-shadow: 0 0 1px #fff;">
1.08
</text>
<rect x="437.0709016393444" y="287.5158579456262" width="17.85" height="7.2" transform="rotate(-60, 444.9508196721313, 294.1758579456262)" fill="#fffa"/>
<text x="437.2459016393444" y="294.1758579456262" fill="#111" font-size="0.5em" text-anchor="start" textLength="17.5" transform="rotate(-60, 444.9508196721313, 294.1758579456262)" style="text-shadow: 0 0 1px #fff;">
1.07
</text>
<rect x="452.4807377049182" y="270.31305380502783" width="17.85" height="7.2" transform="rotate(-60, 460.3606557377051, 276.9730538050278)" fill="#fffa"/>
<text x="452.6557377049182" y="276.9730538050278" fill="#111" font-size="0.5em" text-anchor="start" textLength="17.5" transform="rotate(-60, 460.3606557377051, 276.9730538050278)" style="text-shadow: 0 0 1px #fff;">
1.17
</text>
<rect x="467.890573770492" y="260.24514908429074" width="17.85" height="7.2" transform="rotate(-60, 475.77049180327884, 266.9051490842907)" fill="#fffa"/>
<text x="468.06557377049194" y="266.9051490842907" fill="#111" font-size="0.5em" text-anchor="start" textLength="17.5" transform="rotate(-60, 475.77049180327884, 266.9051490842907)" style="text-shadow: 0 0 1px #fff;">
1.22
</text>
<rect x="498.71024590163955" y="297.7698900125583" width="17.85" height="7.2" transform="rotate(-60, 506.59016393442636, 304.4298900125583)" fill="#fffa"/>
<text x="498.8852459016395" y="304.4298900125583" fill="#111" font-size="0.5em" text-anchor="start" textLength="17.5" transform="rotate(-60, 506.59016393442636, 304.4298900125583)" style="text-shadow: 0 0 1px #fff;">
1.02
</text>
<rect x="514.1200819672133" y="269.89012519595246" width="17.85" height="7.2" transform="rotate(-60, 522.0000000000001, 276.55012519595243)" fill="#fffa"/>
<text x="514.2950819672133" y="276.55012519595243" fill="#111" font-size="0.5em" text-anchor="start" textLength="17.5" transform="rotate(-60, 522.0000000000001, 276.55012519595243)" style="text-shadow: 0 0 1px #fff;">
1.17
</text>
<rect x="529.529918032787" y="260.4376126217936" width="17.85" height="7.2" transform="rotate(-60, 537.4098360655739, 267.09761262179364)" fill="#fffa"/>
<text x="529.7049180327871" y="267.09761262179364" fill="#111" font-size="0.5em" text-anchor="start" textLength="17.5" transform="rotate(-60, 537.4098360655739, 267.09761262179364)" style="text-shadow: 0 0 1px #fff;">
1.22
</text>
<rect x="560.3495901639346" y="238.94393072164942" width="17.85" height="7.2" transform="rotate(-60, 568.2295081967214, 245.60393072164942)" fill="#fffa"/>
<text x="560.5245901639346" y="245.60393072164942" fill="#111" font-size="0.5em" text-anchor="start" textLength="17.5" transform="rotate(-60, 568.2295081967214, 245.60393072164942)" style="text-shadow: 0 0 1px #fff;">
1.34
</text>
<rect x="575.7594262295083" y="282.5970705154639" width="17.85" height="7.2" transform="rotate(-60, 583.6393442622953, 289.25707051546385)" fill="#fffa"/>
<text x="575.9344262295084" y="289.25707051546385" fill="#111" font-size="0.5em" text-anchor="start" textLength="17.5" transform="rotate(-60, 583.6393442622953, 289.25707051546385)" style="text-shadow: 0 0 1px #fff;">
1.10
</text>
<rect x="591.1692622950821" y="229.16875546391748" width="17.85" height="7.2" transform="rotate(-60, 599.0491803278691, 235.82875546391747)" fill="#fffa"/>
<text x="591.3442622950822" y="235.82875546391747" fill="#111" font-size="0.5em" text-anchor="start" textLength="17.5" transform="rotate(-60, 599.0491803278691, 235.82875546391747)" style="text-shadow: 0 0 1px #fff;">
1.39
</text>
<rect x="621.9889344262297" y="295.14482764397906" width="17.85" height="7.2" transform="rotate(-60, 629.8688524590166, 301.804827643979)" fill="#fffa"/>
<text x="622.1639344262297" y="301.804827643979" fill="#111" font-size="0.5em" text-anchor="start" textLength="17.5" transform="rotate(-60, 629.8688524590166, 301.804827643979)" style="text-shadow: 0 0 1px #fff;">
1.03
</text>
<rect x="637.3987704918035" y="290.4003216753926" width="17.85" height="7.2" transform="rotate(-60, 645.2786885245904, 297.06032167539263)" fill="#fffa"/>
<text x="637.5737704918035" y="297.06032167539263" fill="#111" font-size="0.5em" text-anchor="start" textLength="17.5" transform="rotate(-60, 645.2786885245904, 297.06032167539263)" style="text-shadow: 0 0 1px #fff;">
1.06
</text>
<rect x="652.8086065573773" y="283.18782157068057" width="17.85" height="7.2" transform="rotate(-60, 660.6885245901641, 289.84782157068054)" fill="#fffa"/>
<text x="652.9836065573774" y="289.84782157068054" fill="#111" font-size="0.5em" text-anchor="start" textLength="17.5" transform="rotate(-60, 660.6885245901641, 289.84782157068054)" style="text-shadow: 0 0 1px #fff;">
1.10
</text>
<rect x="683.6282786885248" y="288.00999582921065" width="17.85" height="7.2" transform="rotate(-60, 691.5081967213117, 294.6699958292106)" fill="#fffa"/>
<text x="683.8032786885249" y="294.6699958292106" fill="#111" font-size="0.5em" text-anchor="start" textLength="17.5" transform="rotate(-60, 691.5081967213117, 294.6699958292106)" style="text-shadow: 0 0 1px #fff;">
1.07
</text>
<rect x="699.0381147540986" y="278.5667878529568" width="17.85" height="7.2" transform="rotate(-60, 706.9180327868854, 285.2267878529568)" fill="#fffa"/>
<text x="699.2131147540987" y="285.2267878529568" fill="#111" font-size="0.5em" text-anchor="start" textLength="17.5" transform="rotate(-60, 706.9180327868854, 285.2267878529568)" style="text-shadow: 0 0 1px #fff;">
1.12
</text>
<rect x="714.4479508196724" y="272.0254352386026" width="17.85" height="7.2" transform="rotate(-60, 722.3278688524592, 278.68543523860257)" fill="#fffa"/>
<text x="714.6229508196724" y="278.68543523860257" fill="#111" font-size="0.5em" text-anchor="start" textLength="17.5" transform="rotate(-60, 722.3278688524592, 278.68543523860257)" style="text-shadow: 0 0 1px #fff;">
1.16
</text>
<rect x="745.2676229508199" y="293.37110866807615" width="17.85" height="7.2" transform="rotate(-60, 753.1475409836069, 300.0311086680761)" fill="#fffa"/>
<text x="745.44262295082" y="300.0311086680761" fill="#111" font-size="0.5em" text-anchor="start" textLength="17.5" transform="rotate(-60, 753.1475409836069, 300.0311086680761)" style="text-shadow: 0 0 1px #fff;">
1.04
</text>
<rect x="760.6774590163938" y="233.92206913319237" width="17.85" height="7.2" transform="rotate(-60, 768.5573770491806, 240.58206913319236)" fill="#fffa"/>
<text x="760.8524590163937" y="240.58206913319236" fill="#111" font-size="0.5em" text-anchor="start" textLength="17.5" transform="rotate(-60, 768.5573770491806, 240.58206913319236)" style="text-shadow: 0 0 1px #fff;">
1.37
</text>
<rect x="776.0872950819675" y="227.46249323467228" width="17.85" height="7.2" transform="rotate(-60, 783.9672131147544, 234.12249323467228)" fill="#fffa"/>
<text x="776.2622950819675" y="234.12249323467228" fill="#111" font-size="0.5em" text-anchor="start" textLength="17.5" transform="rotate(-60, 783.9672131147544, 234.12249323467228)" style="text-shadow: 0 0 1px #fff;">
1.40
</text>
<rect x="806.9069672131151" y="292.3723607107816" width="17.85" height="7.2" transform="rotate(-60, 814.7868852459019, 299.0323607107816)" fill="#fffa"/>
<text x="807.0819672131151" y="299.0323607107816" fill="#111" font-size="0.5em" text-anchor="start" textLength="17.5" transform="rotate(-60, 814.7868852459019, 299.0323607107816)" style="text-shadow: 0 0 1px #fff;">
1.05
</text>
<rect x="822.3168032786888" y="285.55452192303494" width="17.85" height="7.2" transform="rotate(-60, 830.1967213114757, 292.21452192303497)" fill="#fffa"/>
<text x="822.4918032786888" y="292.21452192303497" fill="#111" font-size="0.5em" text-anchor="start" textLength="17.5" transform="rotate(-60, 830.1967213114757, 292.21452192303497)" style="text-shadow: 0 0 1px #fff;">
1.08
</text>
<rect x="837.7266393442626" y="277.1518346451542" width="17.85" height="7.2" transform="rotate(-60, 845.6065573770495, 283.8118346451542)" fill="#fffa"/>
<text x="837.9016393442627" y="283.8118346451542" fill="#111" font-size="0.5em" text-anchor="start" textLength="17.5" transform="rotate(-60, 845.6065573770495, 283.8118346451542)" style="text-shadow: 0 0 1px #fff;">
1.13
</text>
<rect x="868.5463114754102" y="293.5851292856406" width="17.85" height="7.2" transform="rotate(-60, 876.426229508197, 300.2451292856406)" fill="#fffa"/>
<text x="868.7213114754102" y="300.2451292856406" fill="#111" font-size="0.5em" text-anchor="start" textLength="17.5" transform="rotate(-60, 876.426229508197, 300.2451292856406)" style="text-shadow: 0 0 1px #fff;">
1.04
</text>
<rect x="883.9561475409839" y="284.4616419750541" width="17.85" height="7.2" transform="rotate(-60, 891.8360655737708, 291.1216419750541)" fill="#fffa"/>
<text x="884.131147540984" y="291.1216419750541" fill="#111" font-size="0.5em" text-anchor="start" textLength="17.5" transform="rotate(-60, 891.8360655737708, 291.1216419750541)" style="text-shadow: 0 0 1px #fff;">
1.09
</text>
<rect x="899.3659836065577" y="278.3164831666838" width="17.85" height="7.2" transform="rotate(-60, 907.2459016393447, 284.9764831666838)" fill="#fffa"/>
<text x="899.5409836065578" y="284.9764831666838" fill="#111" font-size="0.5em" text-anchor="start" textLength="17.5" transform="rotate(-60, 907.2459016393447, 284.9764831666838)" style="text-shadow: 0 0 1px #fff;">
1.12
</text>
<rect x="930.1856557377052" y="287.52438518179736" width="17.85" height="7.2" transform="rotate(-60, 938.0655737704922, 294.1843851817974)" fill="#fffa"/>
<text x="930.3606557377053" y="294.1843851817974" fill="#111" font-size="0.5em" text-anchor="start" textLength="17.5" transform="rotate(-60, 938.0655737704922, 294.1843851817974)" style="text-shadow: 0 0 1px #fff;">
1.07
</text>
<rect x="945.5954918032791" y="263.9632243877518" width="17.85" height="7.2" transform="rotate(-60, 953.475409836066, 270.62322438775175)" fill="#fffa"/>
<text x="945.7704918032791" y="270.62322438775175" fill="#111" font-size="0.5em" text-anchor="start" textLength="17.5" transform="rotate(-60, 953.475409836066, 270.62322438775175)" style="text-shadow: 0 0 1px #fff;">
1.20
</text>
<rect x="961.0053278688529" y="259.93789351611485" width="17.85" height="7.2" transform="rotate(-60, 968.8852459016397, 266.5978935161149)" fill="#fffa"/>
<text x="961.1803278688528" y="266.5978935161149" fill="#111" font-size="0.5em" text-anchor="start" textLength="17.5" transform="rotate(-60, 968.8852459016397, 266.5978935161149)" style="text-shadow: 0 0 1px #fff;">
1.22
</text>
</svg>