<svg viewBox="0 0 1000 600" xmlns="http://www.w3.org/2000/svg" xmlns:xlink="http://www.w3.org/1999/xlink" width="100%" height="100%">

<rect x="50.0" y="30.0" width="940.0" height="467.99999999999994" stroke="#000" fill="#fff"/>
<line x1="42.0" y1="497.9999999999999" x2="50.0" y2="497.9999999999999" stroke="#000"/>
<text x="26.000000000000004" y="497.9999999999999" text-anchor="end" font-weight="bold" font-size="small" fill="#111">
0.0
</text>
<line x1="42.0" y1="449.47639728562615" x2="50.0" y2="449.47639728562615" stroke="#000"/>
<text x="26.000000000000004" y="449.47639728562615" text-anchor="end" font-weight="bold" font-size="small" fill="#111">
0.2
</text>
<line x1="42.0" y1="400.9527945712523" x2="50.0" y2="400.9527945712523" stroke="#000"/>
<text x="26.000000000000004" y="400.9527945712523" text-anchor="end" font-weight="bold" font-size="small" fill="#111">
0.4
</text>
<line x1="42.0" y1="352.4291918568784" x2="50.0" y2="352.4291918568784" stroke="#000"/>
<text x="26.000000000000004" y="352.4291918568784" text-anchor="end" font-weight="bold" font-size="small" fill="#111">
0.6
</text>
<line x1="42.0" y1="303.9055891425046" x2="50.0" y2="303.9055891425046" stroke="#000"/>
<text x="26.000000000000004" y="303.9055891425046" text-anchor="end" font-weight="bold" font-size="small" fill="#111">
0.8
</text>
<line x1="42.0" y1="255.38198642813077" x2="50.0" y2="255.38198642813077" stroke="#000"/>
<text x="26.000000000000004" y="255.38198642813077" text-anchor="end" font-weight="bold" font-size="small" fill="#111">
1.0
</text>
<line x1="42.0" y1="206.85838371375692" x2="50.0" y2="206.85838371375692" stroke="#000"/>
<text x="26.000000000000004" y="206.85838371375692" text-anchor="end" font-weight="bold" font-size="small" fill="#111">
1.2
</text>
<line x1="42.0" y1="158.3347809993831" x2="50.0" y2="158.3347809993831" stroke="#000"/>
<text x="26.000000000000004" y="158.3347809993831" text-anchor="end" font-weight="bold" font-size="small" fill="#111">
1.4
</text>
<line x1="42.0" y1="109.8111782850093" x2="50.0" y2="109.8111782850093" stroke="#000"/>
<text x="26.000000000000004" y="109.8111782850093" text-anchor="end" font-weight="bold" font-size="small" fill="#111">
1.6
</text>
<line x1="248.5" y1="54.60000000000001" x2="368.5" y2="54.60000000000001" stroke="#648FFF" stroke-width="2"/>
<text x="308.5" y="49.500000000000014" font-size="small" text-anchor="middle" font-weight="bold" fill="#000">
CRuby 3.3.0dev
</text>
<rect x="671.5" y="35.400000000000006" width="120.0" height="19.2" fill="#785EF0" stroke="none"/>
<text x="731.4999999999999" y="49.500000000000014" font-size="small" text-anchor="middle" font-weight="bold" fill="#fff" style="text-shadow: 0 0 1px #000;">
YJIT 3.3.0dev
</text>
<rect x="65.40983606557377" y="225.5296974902347" width="15.40983606557377" height="272.4703025097652" fill="#785EF0" data-tooltip="1.12x baseline (YJIT 3.3.0dev)"/>
<line x1="73.11475409836066" y1="498.0" x2="73.11475409836066" y2="502.79999999999995" stroke="#000"/>
<text x="73.11475409836066" y="512.4" fill="#111" font-size="small" text-anchor="end" transform="rotate(-60, 73.11475409836066, 512.4)">
activerecord
</text>
<rect x="96.2295081967213" y="154.42517531633726" width="15.40983606557377" height="343.5748246836627" fill="#785EF0" data-tooltip="1.42x baseline (YJIT 3.3.0dev)"/>
<line x1="103.93442622950819" y1="498.0" x2="103.93442622950819" y2="502.79999999999995" stroke="#000"/>
<text x="103.93442622950819" y="512.4" fill="#111" font-size="small" text-anchor="end" transform="rotate(-60, 103.93442622950819, 512.4)">
hexapdf
</text>
<rect x="127.04918032786883" y="230.71769376756458" width="15.40983606557377" height="267.28230623243536" fill="#785EF0" data-tooltip="1.10x baseline (YJIT 3.3.0dev)"/>
<line x1="134.75409836065572" y1="498.0" x2="134.75409836065572" y2="502.79999999999995" stroke="#000"/>
<text x="134.75409836065572" y="512.4" fill="#111" font-size="small" text-anchor="end" transform="rotate(-60, 134.75409836065572, 512.4)">
liquid-c
</text>
<rect x="157.86885245901638" y="226.11788505750147" width="15.40983606557377" height="271.88211494249845" fill="#785EF0" data-tooltip="1.12x baseline (YJIT 3.3.0dev)"/>
<line x1="165.5737704918033" y1="498.0" x2="165.5737704918033" y2="502.79999999999995" stroke="#000"/>
<text x="165.5737704918033" y="512.4" fill="#111" font-size="small" text-anchor="end" transform="rotate(-60, 165.5737704918033, 512.4)">
liquid-render
</text>
<rect x="188.68852459016395" y="236.12999081259736" width="15.40983606557377" height="261.87000918740256" fill="#785EF0" data-tooltip="1.08x baseline (YJIT 3.3.0dev)"/>
<line x1="196.39344262295083" y1="498.0" x2="196.39344262295083" y2="502.79999999999995" stroke="#000"/>
<text x="196.39344262295083" y="512.4" fill="#111" font-size="small" text-anchor="end" transform="rotate(-60, 196.39344262295083, 512.4)">
mail
</text>
<rect x="219.5081967213115" y="241.47010206233062" width="15.40983606557377" height="256.5298979376693" fill="#785EF0" data-tooltip="1.06x baseline (YJIT 3.3.0dev)"/>
<line x1="227.2131147540984" y1="498.0" x2="227.2131147540984" y2="502.79999999999995" stroke="#000"/>
<text x="227.2131147540984" y="512.4" fill="#111" font-size="small" text-anchor="end" transform="rotate(-60, 227.2131147540984, 512.4)">
psych-load
</text>
<rect x="250.32786885245906" y="217.76036157655753" width="15.40983606557377" height="280.23963842344244" fill="#785EF0" data-tooltip="1.16x baseline (YJIT 3.3.0dev)"/>
<line x1="258.03278688524597" y1="498.0" x2="258.03278688524597" y2="502.79999999999995" stroke="#000"/>
<text x="258.03278688524597" y="512.4" fill="#111" font-size="small" text-anchor="end" transform="rotate(-60, 258.03278688524597, 512.4)">
railsbench
</text>
<rect x="281.14754098360663" y="159.1504239821962" width="15.40983606557377" height="338.84957601780377" fill="#785EF0" data-tooltip="1.40x baseline (YJIT 3.3.0dev)"/>
<line x1="288.8524590163935" y1="498.0" x2="288.8524590163935" y2="502.79999999999995" stroke="#000"/>
<text x="288.8524590163935" y="512.4" fill="#111" font-size="small" text-anchor="end" transform="rotate(-60, 288.8524590163935, 512.4)">
ruby-lsp
</text>
<rect x="311.96721311475414" y="225.55991135701407" width="15.40983606557377" height="272.44008864298587" fill="#785EF0" data-tooltip="1.12x baseline (YJIT 3.3.0dev)"/>
<line x1="319.67213114754105" y1="498.0" x2="319.67213114754105" y2="502.79999999999995" stroke="#000"/>
<text x="319.67213114754105" y="512.4" fill="#111" font-size="small" text-anchor="end" transform="rotate(-60, 319.67213114754105, 512.4)">
sequel
</text>
<rect x="342.7868852459017" y="252.185016951627" width="15.40983606557377" height="245.81498304837294" fill="#785EF0" data-tooltip="1.01x baseline (YJIT 3.3.0dev)"/>
<line x1="350.4918032786886" y1="498.0" x2="350.4918032786886" y2="502.79999999999995" stroke="#000"/>
<text x="350.4918032786886" y="512.4" fill="#111" font-size="small" text-anchor="end" transform="rotate(-60, 350.4918032786886, 512.4)">
binarytrees
</text>
<rect x="373.6065573770493" y="270.1705237430224" width="15.40983606557377" height="227.82947625697756" fill="#785EF0" data-tooltip="0.94x baseline (YJIT 3.3.0dev)"/>
<line x1="381.3114754098362" y1="498.0" x2="381.3114754098362" y2="502.79999999999995" stroke="#000"/>
<text x="381.3114754098362" y="512.4" fill="#111" font-size="small" text-anchor="end" transform="rotate(-60, 381.3114754098362, 512.4)">
chunky_png
</text>
<rect x="404.42622950819685" y="255.07509991871956" width="15.40983606557377" height="242.92490008128038" fill="#785EF0" data-tooltip="1.00x baseline (YJIT 3.3.0dev)"/>
<line x1="412.13114754098376" y1="498.0" x2="412.13114754098376" y2="502.79999999999995" stroke="#000"/>
<text x="412.13114754098376" y="512.4" fill="#111" font-size="small" text-anchor="end" transform="rotate(-60, 412.13114754098376, 512.4)">
erubi
</text>
<rect x="435.2459016393444" y="238.37384931079254" width="15.40983606557377" height="259.6261506892074" fill="#785EF0" data-tooltip="1.07x baseline (YJIT 3.3.0dev)"/>
<line x1="442.9508196721313" y1="498.0" x2="442.9508196721313" y2="502.79999999999995" stroke="#000"/>
<text x="442.9508196721313" y="512.4" fill="#111" font-size="small" text-anchor="end" transform="rotate(-60, 442.9508196721313, 512.4)">
erubi_rails
</text>
<rect x="466.06557377049194" y="120.22690334601275" width="15.40983606557377" height="377.7730966539872" fill="#785EF0" data-tooltip="1.56x baseline (YJIT 3.3.0dev)"/>
<line x1="473.77049180327884" y1="498.0" x2="473.77049180327884" y2="502.79999999999995" stroke="#000"/>
<text x="473.77049180327884" y="512.4" fill="#111" font-size="small" text-anchor="end" transform="rotate(-60, 473.77049180327884, 512.4)">
etanni
</text>
<rect x="496.8852459016395" y="248.02631082819698" width="15.40983606557377" height="249.97368917180296" fill="#785EF0" data-tooltip="1.03x baseline (YJIT 3.3.0dev)"/>
<line x1="504.59016393442636" y1="498.0" x2="504.59016393442636" y2="502.79999999999995" stroke="#000"/>
<text x="504.59016393442636" y="512.4" fill="#111" font-size="small" text-anchor="end" transform="rotate(-60, 504.59016393442636, 512.4)">
fannkuchredux
</text>
<rect x="527.7049180327871" y="232.2689025642965" width="15.40983606557377" height="265.7310974357035" fill="#785EF0" data-tooltip="1.10x baseline (YJIT 3.3.0dev)"/>
<line x1="535.4098360655739" y1="498.0" x2="535.4098360655739" y2="502.79999999999995" stroke="#000"/>
<text x="535.4098360655739" y="512.4" fill="#111" font-size="small" text-anchor="end" transform="rotate(-60, 535.4098360655739, 512.4)">
lee
</text>
<rect x="558.5245901639346" y="249.18342597657303" width="15.40983606557377" height="248.8165740234269" fill="#785EF0" data-tooltip="1.03x baseline (YJIT 3.3.0dev)"/>
<line x1="566.2295081967214" y1="498.0" x2="566.2295081967214" y2="502.79999999999995" stroke="#000"/>
<text x="566.2295081967214" y="512.4" fill="#111" font-size="small" text-anchor="end" transform="rotate(-60, 566.2295081967214, 512.4)">
nbody
</text>
<rect x="589.3442622950822" y="240.4952474106302" width="15.40983606557377" height="257.50475258936973" fill="#785EF0" data-tooltip="1.06x baseline (YJIT 3.3.0dev)"/>
<line x1="597.0491803278691" y1="498.0" x2="597.0491803278691" y2="502.79999999999995" stroke="#000"/>
<text x="597.0491803278691" y="512.4" fill="#111" font-size="small" text-anchor="end" transform="rotate(-60, 597.0491803278691, 512.4)">
optcarrot
</text>
<rect x="620.1639344262297" y="242.4862221813277" width="15.40983606557377" height="255.51377781867225" fill="#785EF0" data-tooltip="1.05x baseline (YJIT 3.3.0dev)"/>
<line x1="627.8688524590166" y1="498.0" x2="627.8688524590166" y2="502.79999999999995" stroke="#000"/>
<text x="627.8688524590166" y="512.4" fill="#111" font-size="small" text-anchor="end" transform="rotate(-60, 627.8688524590166, 512.4)">
rubykon
</text>
<rect x="650.9836065573774" y="100.19999999999999" width="15.40983606557377" height="397.79999999999995" fill="#785EF0" data-tooltip="1.64x baseline (YJIT 3.3.0dev)"/>
<line x1="658.6885245901641" y1="498.0" x2="658.6885245901641" y2="502.79999999999995" stroke="#000"/>
<text x="658.6885245901641" y="512.4" fill="#111" font-size="small" text-anchor="end" transform="rotate(-60, 658.6885245901641, 512.4)">
30k_ifelse
</text>
<rect x="681.8032786885249" y="194.02308625586915" width="15.40983606557377" height="303.97691374413074" fill="#785EF0" data-tooltip="1.25x baseline (YJIT 3.3.0dev)"/>
<line x1="689.5081967213117" y1="498.0" x2="689.5081967213117" y2="502.79999999999995" stroke="#000"/>
<text x="689.5081967213117" y="512.4" fill="#111" font-size="small" text-anchor="end" transform="rotate(-60, 689.5081967213117, 512.4)">
30k_methods
</text>
<rect x="712.6229508196724" y="250.04972239358418" width="15.40983606557377" height="247.95027760641577" fill="#785EF0" data-tooltip="1.02x baseline (YJIT 3.3.0dev)"/>
<line x1="720.3278688524592" y1="498.0" x2="720.3278688524592" y2="502.79999999999995" stroke="#000"/>
<text x="720.3278688524592" y="512.4" fill="#111" font-size="small" text-anchor="end" transform="rotate(-60, 720.3278688524592, 512.4)">
cfunc_itself
</text>
<rect x="743.44262295082" y="250.0895154087674" width="15.40983606557377" height="247.91048459123255" fill="#785EF0" data-tooltip="1.02x baseline (YJIT 3.3.0dev)"/>
<line x1="751.1475409836069" y1="498.0" x2="751.1475409836069" y2="502.79999999999995" stroke="#000"/>
<text x="751.1475409836069" y="512.4" fill="#111" font-size="small" text-anchor="end" transform="rotate(-60, 751.1475409836069, 512.4)">
fib
</text>
<rect x="774.2622950819675" y="250.00992937840104" width="15.40983606557377" height="247.9900706215989" fill="#785EF0" data-tooltip="1.02x baseline (YJIT 3.3.0dev)"/>
<line x1="781.9672131147544" y1="498.0" x2="781.9672131147544" y2="502.79999999999995" stroke="#000"/>
<text x="781.9672131147544" y="512.4" fill="#111" font-size="small" text-anchor="end" transform="rotate(-60, 781.9672131147544, 512.4)">
getivar
</text>
<rect x="805.081967213115" y="250.0895154087674" width="15.40983606557377" height="247.91048459123255" fill="#785EF0" data-tooltip="1.02x baseline (YJIT 3.3.0dev)"/>
<line x1="812.7868852459019" y1="498.0" x2="812.7868852459019" y2="502.79999999999995" stroke="#000"/>
<text x="812.7868852459019" y="512.4" fill="#111" font-size="small" text-anchor="end" transform="rotate(-60, 812.7868852459019, 512.4)">
keyword_args
</text>
<rect x="835.9016393442627" y="251.1088707292133" width="15.40983606557377" height="246.89112927078665" fill="#785EF0" data-tooltip="1.02x baseline (YJIT 3.3.0dev)"/>
<line x1="843.6065573770495" y1="498.0" x2="843.6065573770495" y2="502.79999999999995" stroke="#000"/>
<text x="843.6065573770495" y="512.4" fill="#111" font-size="small" text-anchor="end" transform="rotate(-60, 843.6065573770495, 512.4)">
respond_to
</text>
<rect x="866.7213114754102" y="251.34560779751084" width="15.40983606557377" height="246.6543922024891" fill="#785EF0" data-tooltip="1.02x baseline (YJIT 3.3.0dev)"/>
<line x1="874.426229508197" y1="498.0" x2="874.426229508197" y2="502.79999999999995" stroke="#000"/>
<text x="874.426229508197" y="512.4" fill="#111" font-size="small" text-anchor="end" transform="rotate(-60, 874.426229508197, 512.4)">
setivar
</text>
<rect x="897.5409836065578" y="250.09038331152556" width="15.40983606557377" height="247.9096166884744" fill="#785EF0" data-tooltip="1.02x baseline (YJIT 3.3.0dev)"/>
<line x1="905.2459016393447" y1="498.0" x2="905.2459016393447" y2="502.79999999999995" stroke="#000"/>
<text x="905.2459016393447" y="512.4" fill="#111" font-size="small" text-anchor="end" transform="rotate(-60, 905.2459016393447, 512.4)">
setivar_object
</text>
<rect x="928.3606557377053" y="236.99961753939036" width="15.40983606557377" height="261.00038246060956" fill="#785EF0" data-tooltip="1.08x baseline (YJIT 3.3.0dev)"/>
<line x1="936.0655737704922" y1="498.0" x2="936.0655737704922" y2="502.79999999999995" stroke="#000"/>
<text x="936.0655737704922" y="512.4" fill="#111" font-size="small" text-anchor="end" transform="rotate(-60, 936.0655737704922, 512.4)">
str_concat
</text>
<rect x="959.1803278688528" y="228.42238737467324" width="15.40983606557377" height="269.5776126253267" fill="#785EF0" data-tooltip="1.11x baseline (YJIT 3.3.0dev)"/>
<line x1="966.8852459016397" y1="498.0" x2="966.8852459016397" y2="502.79999999999995" stroke="#000"/>
<text x="966.8852459016397" y="512.4" fill="#111" font-size="small" text-anchor="end" transform="rotate(-60, 966.8852459016397, 512.4)" font-style="italic">
geomean*
</text>
<line x1="50.0" y1="255.38198642813077" x2="990.0" y2="255.38198642813077" stroke="#648FFF" stroke-width="2"/>
</svg>