<svg viewBox="0 0 1000 600" xmlns="http://www.w3.org/2000/svg" xmlns:xlink="http://www.w3.org/1999/xlink" width="100%" height="100%">

<rect x="50.0" y="30.0" width="940.0" height="467.99999999999994" stroke="#000" fill="#EEE"/>
<line x1="42.0" y1="497.9999999999999" x2="50.0" y2="497.9999999999999" stroke="#000"/>
<text x="26.000000000000004" y="497.9999999999999" text-anchor="end" font-weight="bold" font-size="small" fill="#111">
0.0
</text>
<line x1="42.0" y1="444.2827628804849" x2="50.0" y2="444.2827628804849" stroke="#000"/>
<text x="26.000000000000004" y="444.2827628804849" text-anchor="end" font-weight="bold" font-size="small" fill="#111">
0.5
</text>
<line x1="42.0" y1="390.56552576096993" x2="50.0" y2="390.56552576096993" stroke="#000"/>
<text x="26.000000000000004" y="390.56552576096993" text-anchor="end" font-weight="bold" font-size="small" fill="#111">
1.0
</text>
<line x1="42.0" y1="336.848288641455" x2="50.0" y2="336.848288641455" stroke="#000"/>
<text x="26.000000000000004" y="336.848288641455" text-anchor="end" font-weight="bold" font-size="small" fill="#111">
1.5
</text>
<line x1="42.0" y1="283.1310515219399" x2="50.0" y2="283.1310515219399" stroke="#000"/>
<text x="26.000000000000004" y="283.1310515219399" text-anchor="end" font-weight="bold" font-size="small" fill="#111">
2.0
</text>
<line x1="42.0" y1="229.41381440242498" x2="50.0" y2="229.41381440242498" stroke="#000"/>
<text x="26.000000000000004" y="229.41381440242498" text-anchor="end" font-weight="bold" font-size="small" fill="#111">
2.5
</text>
<line x1="42.0" y1="175.69657728290994" x2="50.0" y2="175.69657728290994" stroke="#000"/>
<text x="26.000000000000004" y="175.69657728290994" text-anchor="end" font-weight="bold" font-size="small" fill="#111">
3.0
</text>
<line x1="42.0" y1="121.97934016339497" x2="50.0" y2="121.97934016339497" stroke="#000"/>
<text x="26.000000000000004" y="121.97934016339497" text-anchor="end" font-weight="bold" font-size="small" fill="#111">
3.5
</text>
<rect x="268.5" y="36.00000000000001" width="80.0" height="18.0" fill="#7070f8" stroke="#888"/>
<text x="308.5" y="52.50000000000001" font-size="small" text-anchor="middle" font-weight="bold" fill="#EEE">
No JIT
</text>
<rect x="691.4999999999999" y="36.00000000000001" width="80.0" height="18.0" fill="orange" stroke="#888"/>
<text x="731.4999999999999" y="52.50000000000001" font-size="small" text-anchor="middle" font-weight="bold" fill="#EEE">
YJIT
</text>
<rect x="97.0" y="390.56552576096993" width="25.636363636363637" height="107.43447423903" fill="#7070f8" data-tooltip="1.00x baseline speed (No JIT)"/>
<line x1="97.0" y1="390.26433434009914" x2="122.63636363636364" y2="390.26433434009914" stroke="#000"/>
<line x1="97.0" y1="390.8667171818407" x2="122.63636363636364" y2="390.8667171818407" stroke="#000"/>
<line x1="109.81818181818181" y1="390.26433434009914" x2="109.81818181818181" y2="390.8667171818407" stroke="#000"/>
<rect x="122.63636363636364" y="276.4213639401727" width="25.636363636363637" height="221.57863605982723" fill="orange" data-tooltip="2.06x baseline speed (YJIT)"/>
<line x1="122.63636363636364" y1="275.7057128496026" x2="148.27272727272728" y2="275.7057128496026" stroke="#000"/>
<line x1="122.63636363636364" y1="277.1370150307428" x2="148.27272727272728" y2="277.1370150307428" stroke="#000"/>
<line x1="135.45454545454547" y1="275.7057128496026" x2="135.45454545454547" y2="277.1370150307428" stroke="#000"/>
<line x1="135.45454545454547" y1="498.0" x2="135.45454545454547" y2="502.79999999999995" stroke="#000"/>
<text x="135.45454545454547" y="512.4" fill="#111" font-size="small" font-family="monospace" font-weight="bold" text-anchor="end" transform="rotate(-60, 135.45454545454547, 512.4)">
binarytrees
</text>
<rect x="173.9090909090909" y="390.56552576096993" width="25.636363636363637" height="107.43447423903" fill="#7070f8" data-tooltip="1.00x baseline speed (No JIT)"/>
<line x1="173.9090909090909" y1="390.0082479208073" x2="199.54545454545453" y2="390.0082479208073" stroke="#000"/>
<line x1="173.9090909090909" y1="391.12280360113255" x2="199.54545454545453" y2="391.12280360113255" stroke="#000"/>
<line x1="186.72727272727272" y1="390.0082479208073" x2="186.72727272727272" y2="391.12280360113255" stroke="#000"/>
<rect x="199.54545454545453" y="318.75434084758274" width="25.636363636363637" height="179.24565915241723" fill="orange" data-tooltip="1.67x baseline speed (YJIT)"/>
<line x1="199.54545454545453" y1="317.8130231094243" x2="225.18181818181816" y2="317.8130231094243" stroke="#000"/>
<line x1="199.54545454545453" y1="319.6956585857411" x2="225.18181818181816" y2="319.6956585857411" stroke="#000"/>
<line x1="212.36363636363635" y1="317.8130231094243" x2="212.36363636363635" y2="319.6956585857411" stroke="#000"/>
<line x1="212.36363636363637" y1="498.0" x2="212.36363636363637" y2="502.79999999999995" stroke="#000"/>
<text x="212.36363636363637" y="512.4" fill="#111" font-size="small" font-family="monospace" font-weight="bold" text-anchor="end" transform="rotate(-60, 212.36363636363637, 512.4)">
chunky_png
</text>
<rect x="250.81818181818184" y="390.56552576096993" width="25.636363636363637" height="107.43447423903" fill="#7070f8" data-tooltip="1.00x baseline speed (No JIT)"/>
<line x1="250.81818181818184" y1="389.7372904395402" x2="276.45454545454544" y2="389.7372904395402" stroke="#000"/>
<line x1="250.81818181818184" y1="391.3937610823997" x2="276.45454545454544" y2="391.3937610823997" stroke="#000"/>
<line x1="263.6363636363637" y1="389.7372904395402" x2="263.6363636363637" y2="391.3937610823997" stroke="#000"/>
<rect x="276.45454545454544" y="381.02175887169204" width="25.636363636363637" height="116.97824112830786" fill="orange" data-tooltip="1.09x baseline speed (YJIT)"/>
<line x1="276.45454545454544" y1="379.72356316356263" x2="302.09090909090907" y2="379.72356316356263" stroke="#000"/>
<line x1="276.45454545454544" y1="382.31995457982146" x2="302.09090909090907" y2="382.31995457982146" stroke="#000"/>
<line x1="289.2727272727273" y1="379.72356316356263" x2="289.2727272727273" y2="382.31995457982146" stroke="#000"/>
<line x1="289.2727272727273" y1="498.0" x2="289.2727272727273" y2="502.79999999999995" stroke="#000"/>
<text x="289.2727272727273" y="512.4" fill="#111" font-size="small" font-family="monospace" font-weight="bold" text-anchor="end" transform="rotate(-60, 289.2727272727273, 512.4)">
erubi
</text>
<rect x="327.72727272727275" y="390.56552576096993" width="25.636363636363637" height="107.43447423903" fill="#7070f8" data-tooltip="1.00x baseline speed (No JIT)"/>
<line x1="327.72727272727275" y1="388.83877872685605" x2="353.3636363636364" y2="388.83877872685605" stroke="#000"/>
<line x1="327.72727272727275" y1="392.2922727950838" x2="353.3636363636364" y2="392.2922727950838" stroke="#000"/>
<line x1="340.5454545454546" y1="388.83877872685605" x2="340.5454545454546" y2="392.2922727950838" stroke="#000"/>
<rect x="353.3636363636364" y="345.26724947163945" width="25.636363636363637" height="152.73275052836047" fill="orange" data-tooltip="1.42x baseline speed (YJIT)"/>
<line x1="353.3636363636364" y1="341.16420250927007" x2="379.0" y2="341.16420250927007" stroke="#000"/>
<line x1="353.3636363636364" y1="349.3702964340089" x2="379.0" y2="349.3702964340089" stroke="#000"/>
<line x1="366.18181818181824" y1="341.16420250927007" x2="366.18181818181824" y2="349.3702964340089" stroke="#000"/>
<line x1="366.18181818181824" y1="498.0" x2="366.18181818181824" y2="502.79999999999995" stroke="#000"/>
<text x="366.18181818181824" y="512.4" fill="#111" font-size="small" font-family="monospace" font-weight="bold" text-anchor="end" transform="rotate(-60, 366.18181818181824, 512.4)">
erubi_rails
</text>
<rect x="404.6363636363637" y="390.56552576096993" width="25.636363636363637" height="107.43447423903" fill="#7070f8" data-tooltip="1.00x baseline speed (No JIT)"/>
<line x1="404.6363636363637" y1="390.1789054490175" x2="430.2727272727273" y2="390.1789054490175" stroke="#000"/>
<line x1="404.6363636363637" y1="390.95214607292235" x2="430.2727272727273" y2="390.95214607292235" stroke="#000"/>
<line x1="417.4545454545455" y1="390.1789054490175" x2="417.4545454545455" y2="390.95214607292235" stroke="#000"/>
<rect x="430.2727272727273" y="390.5225556945435" width="25.636363636363637" height="107.47744430545647" fill="orange" data-tooltip="1.00x baseline speed (YJIT)"/>
<line x1="430.2727272727273" y1="389.9010582866386" x2="455.90909090909093" y2="389.9010582866386" stroke="#000"/>
<line x1="430.2727272727273" y1="391.14405310244837" x2="455.90909090909093" y2="391.14405310244837" stroke="#000"/>
<line x1="443.0909090909091" y1="389.9010582866386" x2="443.0909090909091" y2="391.14405310244837" stroke="#000"/>
<line x1="443.0909090909091" y1="498.0" x2="443.0909090909091" y2="502.79999999999995" stroke="#000"/>
<text x="443.0909090909091" y="512.4" fill="#111" font-size="small" font-family="monospace" font-weight="bold" text-anchor="end" transform="rotate(-60, 443.0909090909091, 512.4)">
etanni
</text>
<rect x="481.5454545454546" y="390.56552576096993" width="25.636363636363637" height="107.43447423903" fill="#7070f8" data-tooltip="1.00x baseline speed (No JIT)"/>
<line x1="481.5454545454546" y1="389.8891042535851" x2="507.1818181818183" y2="389.8891042535851" stroke="#000"/>
<line x1="481.5454545454546" y1="391.24194726835475" x2="507.1818181818183" y2="391.24194726835475" stroke="#000"/>
<line x1="494.36363636363643" y1="389.8891042535851" x2="494.36363636363643" y2="391.24194726835475" stroke="#000"/>
<rect x="507.1818181818183" y="100.19999999999999" width="25.636363636363637" height="397.79999999999995" fill="orange" data-tooltip="3.70x baseline speed (YJIT)"/>
<line x1="507.1818181818183" y1="97.43311199290696" x2="532.818181818182" y2="97.43311199290696" stroke="#000"/>
<line x1="507.1818181818183" y1="102.96688800709302" x2="532.818181818182" y2="102.96688800709302" stroke="#000"/>
<line x1="520.0000000000001" y1="97.43311199290696" x2="520.0000000000001" y2="102.96688800709302" stroke="#000"/>
<line x1="520.0" y1="498.0" x2="520.0" y2="502.79999999999995" stroke="#000"/>
<text x="520.0" y="512.4" fill="#111" font-size="small" font-family="monospace" font-weight="bold" text-anchor="end" transform="rotate(-60, 520.0, 512.4)">
fannkuchredux
</text>
<rect x="558.4545454545454" y="390.56552576096993" width="25.636363636363637" height="107.43447423903" fill="#7070f8" data-tooltip="1.00x baseline speed (No JIT)"/>
<line x1="558.4545454545454" y1="390.24919487903577" x2="584.0909090909091" y2="390.24919487903577" stroke="#000"/>
<line x1="558.4545454545454" y1="390.88185664290415" x2="584.0909090909091" y2="390.88185664290415" stroke="#000"/>
<line x1="571.2727272727273" y1="390.24919487903577" x2="571.2727272727273" y2="390.88185664290415" stroke="#000"/>
<rect x="584.0909090909091" y="348.5162700494297" width="25.636363636363637" height="149.48372995057022" fill="orange" data-tooltip="1.39x baseline speed (YJIT)"/>
<line x1="584.0909090909091" y1="347.97248798454757" x2="609.7272727272727" y2="347.97248798454757" stroke="#000"/>
<line x1="584.0909090909091" y1="349.0600521143119" x2="609.7272727272727" y2="349.0600521143119" stroke="#000"/>
<line x1="596.909090909091" y1="347.97248798454757" x2="596.909090909091" y2="349.0600521143119" stroke="#000"/>
<line x1="596.9090909090909" y1="498.0" x2="596.9090909090909" y2="502.79999999999995" stroke="#000"/>
<text x="596.9090909090909" y="512.4" fill="#111" font-size="small" font-family="monospace" font-weight="bold" text-anchor="end" transform="rotate(-60, 596.9090909090909, 512.4)">
lee
</text>
<rect x="635.3636363636364" y="390.56552576096993" width="25.636363636363637" height="107.43447423903" fill="#7070f8" data-tooltip="1.00x baseline speed (No JIT)"/>
<line x1="635.3636363636364" y1="389.65681906507484" x2="661.0" y2="389.65681906507484" stroke="#000"/>
<line x1="635.3636363636364" y1="391.474232456865" x2="661.0" y2="391.474232456865" stroke="#000"/>
<line x1="648.1818181818182" y1="389.65681906507484" x2="648.1818181818182" y2="391.474232456865" stroke="#000"/>
<rect x="661.0" y="301.81830218937984" width="25.636363636363637" height="196.1816978106201" fill="orange" data-tooltip="1.83x baseline speed (YJIT)"/>
<line x1="661.0" y1="300.1516743133692" x2="686.6363636363637" y2="300.1516743133692" stroke="#000"/>
<line x1="661.0" y1="303.4849300653905" x2="686.6363636363637" y2="303.4849300653905" stroke="#000"/>
<line x1="673.8181818181819" y1="300.1516743133692" x2="673.8181818181819" y2="303.4849300653905" stroke="#000"/>
<line x1="673.8181818181818" y1="498.0" x2="673.8181818181818" y2="502.79999999999995" stroke="#000"/>
<text x="673.8181818181818" y="512.4" fill="#111" font-size="small" font-family="monospace" font-weight="bold" text-anchor="end" transform="rotate(-60, 673.8181818181818, 512.4)">
nbody
</text>
<rect x="712.2727272727273" y="390.56552576096993" width="25.636363636363637" height="107.43447423903" fill="#7070f8" data-tooltip="1.00x baseline speed (No JIT)"/>
<line x1="712.2727272727273" y1="389.62368989973686" x2="737.909090909091" y2="389.62368989973686" stroke="#000"/>
<line x1="712.2727272727273" y1="391.507361622203" x2="737.909090909091" y2="391.507361622203" stroke="#000"/>
<line x1="725.0909090909091" y1="389.62368989973686" x2="725.0909090909091" y2="391.507361622203" stroke="#000"/>
<rect x="737.909090909091" y="323.6059071904421" width="25.636363636363637" height="174.3940928095578" fill="orange" data-tooltip="1.62x baseline speed (YJIT)"/>
<line x1="737.909090909091" y1="321.88502027558343" x2="763.5454545454546" y2="321.88502027558343" stroke="#000"/>
<line x1="737.909090909091" y1="325.32679410530085" x2="763.5454545454546" y2="325.32679410530085" stroke="#000"/>
<line x1="750.7272727272727" y1="321.88502027558343" x2="750.7272727272727" y2="325.32679410530085" stroke="#000"/>
<line x1="750.7272727272726" y1="498.0" x2="750.7272727272726" y2="502.79999999999995" stroke="#000"/>
<text x="750.7272727272726" y="512.4" fill="#111" font-size="small" font-family="monospace" font-weight="bold" text-anchor="end" transform="rotate(-60, 750.7272727272726, 512.4)">
optcarrot
</text>
<rect x="789.1818181818182" y="390.56552576096993" width="25.636363636363637" height="107.43447423903" fill="#7070f8" data-tooltip="1.00x baseline speed (No JIT)"/>
<line x1="789.1818181818182" y1="390.394114649693" x2="814.8181818181819" y2="390.394114649693" stroke="#000"/>
<line x1="789.1818181818182" y1="390.7369368722469" x2="814.8181818181819" y2="390.7369368722469" stroke="#000"/>
<line x1="802.0" y1="390.394114649693" x2="802.0" y2="390.7369368722469" stroke="#000"/>
<rect x="814.8181818181819" y="366.60424890956324" width="25.636363636363637" height="131.3957510904367" fill="orange" data-tooltip="1.22x baseline speed (YJIT)"/>
<line x1="814.8181818181819" y1="365.8941647465993" x2="840.4545454545456" y2="365.8941647465993" stroke="#000"/>
<line x1="814.8181818181819" y1="367.3143330725272" x2="840.4545454545456" y2="367.3143330725272" stroke="#000"/>
<line x1="827.6363636363637" y1="365.8941647465993" x2="827.6363636363637" y2="367.3143330725272" stroke="#000"/>
<line x1="827.6363636363636" y1="498.0" x2="827.6363636363636" y2="502.79999999999995" stroke="#000"/>
<text x="827.6363636363636" y="512.4" fill="#111" font-size="small" font-family="monospace" font-weight="bold" text-anchor="end" transform="rotate(-60, 827.6363636363636, 512.4)">
ruby-json
</text>
<rect x="866.0909090909091" y="390.56552576096993" width="25.636363636363637" height="107.43447423903" fill="#7070f8" data-tooltip="1.00x baseline speed (No JIT)"/>
<line x1="866.0909090909091" y1="390.10867663046054" x2="891.7272727272729" y2="390.10867663046054" stroke="#000"/>
<line x1="866.0909090909091" y1="391.0223748914794" x2="891.7272727272729" y2="391.0223748914794" stroke="#000"/>
<line x1="878.909090909091" y1="390.10867663046054" x2="878.909090909091" y2="391.0223748914794" stroke="#000"/>
<rect x="891.7272727272729" y="321.4039777690495" width="25.636363636363637" height="176.5960222309504" fill="orange" data-tooltip="1.64x baseline speed (YJIT)"/>
<line x1="891.7272727272729" y1="320.38127999760144" x2="917.3636363636365" y2="320.38127999760144" stroke="#000"/>
<line x1="891.7272727272729" y1="322.42667554049757" x2="917.3636363636365" y2="322.42667554049757" stroke="#000"/>
<line x1="904.5454545454546" y1="320.38127999760144" x2="904.5454545454546" y2="322.42667554049757" stroke="#000"/>
<line x1="904.5454545454545" y1="498.0" x2="904.5454545454545" y2="502.79999999999995" stroke="#000"/>
<text x="904.5454545454545" y="512.4" fill="#111" font-size="small" font-family="monospace" font-weight="bold" text-anchor="end" transform="rotate(-60, 904.5454545454545, 512.4)">
rubykon
</text>
</svg>