<svg viewBox="0 0 1000 600" xmlns="http://www.w3.org/2000/svg" xmlns:xlink="http://www.w3.org/1999/xlink" width="100%" height="100%">

<rect x="50.0" y="30.0" width="940.0" height="467.99999999999994" stroke="#000" fill="#EEE"/>
<line x1="42.0" y1="497.9999999999999" x2="50.0" y2="497.9999999999999" stroke="#000"/>
<text x="26.000000000000004" y="497.9999999999999" text-anchor="end" font-weight="bold" font-size="small" fill="#111">
0.0
</text>
<line x1="42.0" y1="423.62483075233905" x2="50.0" y2="423.62483075233905" stroke="#000"/>
<text x="26.000000000000004" y="423.62483075233905" text-anchor="end" font-weight="bold" font-size="small" fill="#111">
2.0
</text>
<line x1="42.0" y1="349.24966150467833" x2="50.0" y2="349.24966150467833" stroke="#000"/>
<text x="26.000000000000004" y="349.24966150467833" text-anchor="end" font-weight="bold" font-size="small" fill="#111">
4.0
</text>
<line x1="42.0" y1="274.8744922570175" x2="50.0" y2="274.8744922570175" stroke="#000"/>
<text x="26.000000000000004" y="274.8744922570175" text-anchor="end" font-weight="bold" font-size="small" fill="#111">
6.0
</text>
<line x1="42.0" y1="200.4993230093567" x2="50.0" y2="200.4993230093567" stroke="#000"/>
<text x="26.000000000000004" y="200.4993230093567" text-anchor="end" font-weight="bold" font-size="small" fill="#111">
8.0
</text>
<line x1="42.0" y1="126.12415376169587" x2="50.0" y2="126.12415376169587" stroke="#000"/>
<text x="26.000000000000004" y="126.12415376169587" text-anchor="end" font-weight="bold" font-size="small" fill="#111">
10.0
</text>
<rect x="268.5" y="36.00000000000001" width="80.0" height="18.0" fill="#7070f8" stroke="#888"/>
<text x="308.5" y="52.50000000000001" font-size="small" text-anchor="middle" font-weight="bold" fill="#EEE">
No JIT
</text>
<rect x="691.4999999999999" y="36.00000000000001" width="80.0" height="18.0" fill="orange" stroke="#888"/>
<text x="731.4999999999999" y="52.50000000000001" font-size="small" text-anchor="middle" font-weight="bold" fill="#EEE">
YJIT
</text>
<rect x="97.0" y="460.81241537616955" width="8.545454545454545" height="37.1875846238304" fill="#7070f8" data-tooltip="1.00x baseline speed (No JIT)"/>
<line x1="97.0" y1="460.1391982343889" x2="105.54545454545455" y2="460.1391982343889" stroke="#000"/>
<line x1="97.0" y1="461.4856325179502" x2="105.54545454545455" y2="461.4856325179502" stroke="#000"/>
<line x1="101.27272727272728" y1="460.1391982343889" x2="101.27272727272728" y2="461.4856325179502" stroke="#000"/>
<rect x="105.54545454545455" y="427.7609748943677" width="8.545454545454545" height="70.2390251056323" fill="orange" data-tooltip="1.89x baseline speed (YJIT)"/>
<line x1="105.54545454545455" y1="424.77219407830137" x2="114.09090909090911" y2="424.77219407830137" stroke="#000"/>
<line x1="105.54545454545455" y1="430.749755710434" x2="114.09090909090911" y2="430.749755710434" stroke="#000"/>
<line x1="109.81818181818183" y1="424.77219407830137" x2="109.81818181818183" y2="430.749755710434" stroke="#000"/>
<line x1="109.81818181818181" y1="498.0" x2="109.81818181818181" y2="502.79999999999995" stroke="#000"/>
<text x="109.81818181818181" y="512.4" fill="#111" font-size="small" font-family="monospace" font-weight="bold" text-anchor="end" transform="rotate(-60, 109.81818181818181, 512.4)">
activerecord
</text>
<rect x="122.63636363636364" y="460.81241537616955" width="8.545454545454545" height="37.1875846238304" fill="#7070f8" data-tooltip="1.00x baseline speed (No JIT)"/>
<line x1="122.63636363636364" y1="460.7198804629" x2="131.1818181818182" y2="460.7198804629" stroke="#000"/>
<line x1="122.63636363636364" y1="460.9049502894391" x2="131.1818181818182" y2="460.9049502894391" stroke="#000"/>
<line x1="126.90909090909092" y1="460.7198804629" x2="126.90909090909092" y2="460.9049502894391" stroke="#000"/>
<rect x="131.1818181818182" y="440.2039834915758" width="8.545454545454545" height="57.79601650842408" fill="orange" data-tooltip="1.55x baseline speed (YJIT)"/>
<line x1="131.1818181818182" y1="439.938834910238" x2="139.72727272727272" y2="439.938834910238" stroke="#000"/>
<line x1="131.1818181818182" y1="440.4691320729136" x2="139.72727272727272" y2="440.4691320729136" stroke="#000"/>
<line x1="135.45454545454544" y1="439.938834910238" x2="135.45454545454544" y2="440.4691320729136" stroke="#000"/>
<line x1="135.45454545454547" y1="498.0" x2="135.45454545454547" y2="502.79999999999995" stroke="#000"/>
<text x="135.45454545454547" y="512.4" fill="#111" font-size="small" font-family="monospace" font-weight="bold" text-anchor="end" transform="rotate(-60, 135.45454545454547, 512.4)">
chunky-png
</text>
<rect x="148.27272727272728" y="460.81241537616955" width="8.545454545454545" height="37.1875846238304" fill="#7070f8" data-tooltip="1.00x baseline speed (No JIT)"/>
<line x1="148.27272727272728" y1="460.157541361426" x2="156.81818181818184" y2="460.157541361426" stroke="#000"/>
<line x1="148.27272727272728" y1="461.4672893909131" x2="156.81818181818184" y2="461.4672893909131" stroke="#000"/>
<line x1="152.54545454545453" y1="460.157541361426" x2="152.54545454545453" y2="461.4672893909131" stroke="#000"/>
<rect x="156.81818181818184" y="434.91165924843654" width="8.545454545454545" height="63.08834075156336" fill="orange" data-tooltip="1.70x baseline speed (YJIT)"/>
<line x1="156.81818181818184" y1="432.4520044835223" x2="165.36363636363637" y2="432.4520044835223" stroke="#000"/>
<line x1="156.81818181818184" y1="437.37131401335074" x2="165.36363636363637" y2="437.37131401335074" stroke="#000"/>
<line x1="161.0909090909091" y1="432.4520044835223" x2="161.0909090909091" y2="437.37131401335074" stroke="#000"/>
<line x1="161.0909090909091" y1="498.0" x2="161.0909090909091" y2="502.79999999999995" stroke="#000"/>
<text x="161.0909090909091" y="512.4" fill="#111" font-size="small" font-family="monospace" font-weight="bold" text-anchor="end" transform="rotate(-60, 161.0909090909091, 512.4)">
erubi-rails
</text>
<rect x="173.9090909090909" y="460.81241537616955" width="8.545454545454545" height="37.1875846238304" fill="#7070f8" data-tooltip="1.00x baseline speed (No JIT)"/>
<line x1="173.9090909090909" y1="460.4926603894803" x2="182.45454545454544" y2="460.4926603894803" stroke="#000"/>
<line x1="173.9090909090909" y1="461.1321703628588" x2="182.45454545454544" y2="461.1321703628588" stroke="#000"/>
<line x1="178.18181818181816" y1="460.4926603894803" x2="178.18181818181816" y2="461.1321703628588" stroke="#000"/>
<rect x="182.45454545454544" y="437.96310901422913" width="8.545454545454545" height="60.03689098577077" fill="orange" data-tooltip="1.61x baseline speed (YJIT)"/>
<line x1="182.45454545454544" y1="436.8290685187731" x2="191.0" y2="436.8290685187731" stroke="#000"/>
<line x1="182.45454545454544" y1="439.09714950968515" x2="191.0" y2="439.09714950968515" stroke="#000"/>
<line x1="186.72727272727272" y1="436.8290685187731" x2="186.72727272727272" y2="439.09714950968515" stroke="#000"/>
<line x1="186.72727272727272" y1="498.0" x2="186.72727272727272" y2="502.79999999999995" stroke="#000"/>
<text x="186.72727272727272" y="512.4" fill="#111" font-size="small" font-family="monospace" font-weight="bold" text-anchor="end" transform="rotate(-60, 186.72727272727272, 512.4)">
hexapdf
</text>
<rect x="199.54545454545453" y="460.81241537616955" width="8.545454545454545" height="37.1875846238304" fill="#7070f8" data-tooltip="1.00x baseline speed (No JIT)"/>
<line x1="199.54545454545453" y1="460.56681441281614" x2="208.09090909090907" y2="460.56681441281614" stroke="#000"/>
<line x1="199.54545454545453" y1="461.05801633952296" x2="208.09090909090907" y2="461.05801633952296" stroke="#000"/>
<line x1="203.81818181818178" y1="460.56681441281614" x2="203.81818181818178" y2="461.05801633952296" stroke="#000"/>
<rect x="208.09090909090907" y="446.9171344955646" width="8.545454545454545" height="51.08286550443541" fill="orange" data-tooltip="1.37x baseline speed (YJIT)"/>
<line x1="208.09090909090907" y1="446.3956483393809" x2="216.63636363636363" y2="446.3956483393809" stroke="#000"/>
<line x1="208.09090909090907" y1="447.43862065174835" x2="216.63636363636363" y2="447.43862065174835" stroke="#000"/>
<line x1="212.36363636363635" y1="446.3956483393809" x2="212.36363636363635" y2="447.43862065174835" stroke="#000"/>
<line x1="212.36363636363635" y1="498.0" x2="212.36363636363635" y2="502.79999999999995" stroke="#000"/>
<text x="212.36363636363635" y="512.4" fill="#111" font-size="small" font-family="monospace" font-weight="bold" text-anchor="end" transform="rotate(-60, 212.36363636363635, 512.4)">
liquid-c
</text>
<rect x="225.1818181818182" y="460.81241537616955" width="8.545454545454545" height="37.1875846238304" fill="#7070f8" data-tooltip="1.00x baseline speed (No JIT)"/>
<line x1="225.1818181818182" y1="460.25519031095985" x2="233.72727272727272" y2="460.25519031095985" stroke="#000"/>
<line x1="225.1818181818182" y1="461.36964044137926" x2="233.72727272727272" y2="461.36964044137926" stroke="#000"/>
<line x1="229.45454545454544" y1="460.25519031095985" x2="229.45454545454544" y2="461.36964044137926" stroke="#000"/>
<rect x="233.72727272727272" y="449.6769617930909" width="8.545454545454545" height="48.32303820690899" fill="orange" data-tooltip="1.30x baseline speed (YJIT)"/>
<line x1="233.72727272727272" y1="448.66766954586006" x2="242.27272727272728" y2="448.66766954586006" stroke="#000"/>
<line x1="233.72727272727272" y1="450.6862540403217" x2="242.27272727272728" y2="450.6862540403217" stroke="#000"/>
<line x1="238.0" y1="448.66766954586006" x2="238.0" y2="450.6862540403217" stroke="#000"/>
<line x1="238.0" y1="498.0" x2="238.0" y2="502.79999999999995" stroke="#000"/>
<text x="238.0" y="512.4" fill="#111" font-size="small" font-family="monospace" font-weight="bold" text-anchor="end" transform="rotate(-60, 238.0, 512.4)">
liquid-compile
</text>
<rect x="250.81818181818184" y="460.81241537616955" width="8.545454545454545" height="37.1875846238304" fill="#7070f8" data-tooltip="1.00x baseline speed (No JIT)"/>
<line x1="250.81818181818184" y1="460.4656546298707" x2="259.3636363636364" y2="460.4656546298707" stroke="#000"/>
<line x1="250.81818181818184" y1="461.15917612246835" x2="259.3636363636364" y2="461.15917612246835" stroke="#000"/>
<line x1="255.0909090909091" y1="460.4656546298707" x2="255.0909090909091" y2="461.15917612246835" stroke="#000"/>
<rect x="259.3636363636364" y="427.61192998797554" width="8.545454545454545" height="70.3880700120244" fill="orange" data-tooltip="1.89x baseline speed (YJIT)"/>
<line x1="259.3636363636364" y1="426.88057926107166" x2="267.9090909090909" y2="426.88057926107166" stroke="#000"/>
<line x1="259.3636363636364" y1="428.3432807148795" x2="267.9090909090909" y2="428.3432807148795" stroke="#000"/>
<line x1="263.6363636363636" y1="426.88057926107166" x2="263.6363636363636" y2="428.3432807148795" stroke="#000"/>
<line x1="263.6363636363637" y1="498.0" x2="263.6363636363637" y2="502.79999999999995" stroke="#000"/>
<text x="263.6363636363637" y="512.4" fill="#111" font-size="small" font-family="monospace" font-weight="bold" text-anchor="end" transform="rotate(-60, 263.6363636363637, 512.4)">
liquid-render
</text>
<rect x="276.45454545454544" y="460.81241537616955" width="8.545454545454545" height="37.1875846238304" fill="#7070f8" data-tooltip="1.00x baseline speed (No JIT)"/>
<line x1="276.45454545454544" y1="460.76567826755524" x2="285.0" y2="460.76567826755524" stroke="#000"/>
<line x1="276.45454545454544" y1="460.85915248478386" x2="285.0" y2="460.85915248478386" stroke="#000"/>
<line x1="280.7272727272727" y1="460.76567826755524" x2="280.7272727272727" y2="460.85915248478386" stroke="#000"/>
<rect x="285.0" y="450.17322684810796" width="8.545454545454545" height="47.82677315189201" fill="orange" data-tooltip="1.29x baseline speed (YJIT)"/>
<line x1="285.0" y1="450.06611812085805" x2="293.5454545454545" y2="450.06611812085805" stroke="#000"/>
<line x1="285.0" y1="450.28033557535787" x2="293.5454545454545" y2="450.28033557535787" stroke="#000"/>
<line x1="289.27272727272725" y1="450.06611812085805" x2="289.27272727272725" y2="450.28033557535787" stroke="#000"/>
<line x1="289.2727272727273" y1="498.0" x2="289.2727272727273" y2="502.79999999999995" stroke="#000"/>
<text x="289.2727272727273" y="512.4" fill="#111" font-size="small" font-family="monospace" font-weight="bold" text-anchor="end" transform="rotate(-60, 289.2727272727273, 512.4)">
mail
</text>
<rect x="302.09090909090907" y="460.81241537616955" width="8.545454545454545" height="37.1875846238304" fill="#7070f8" data-tooltip="1.00x baseline speed (No JIT)"/>
<line x1="302.09090909090907" y1="460.55683933519873" x2="310.6363636363636" y2="460.55683933519873" stroke="#000"/>
<line x1="302.09090909090907" y1="461.0679914171403" x2="310.6363636363636" y2="461.0679914171403" stroke="#000"/>
<line x1="306.3636363636363" y1="460.55683933519873" x2="306.3636363636363" y2="461.0679914171403" stroke="#000"/>
<rect x="310.6363636363636" y="446.2277216729171" width="8.545454545454545" height="51.7722783270828" fill="orange" data-tooltip="1.39x baseline speed (YJIT)"/>
<line x1="310.6363636363636" y1="445.86966161406497" x2="319.18181818181813" y2="445.86966161406497" stroke="#000"/>
<line x1="310.6363636363636" y1="446.5857817317692" x2="319.18181818181813" y2="446.5857817317692" stroke="#000"/>
<line x1="314.9090909090909" y1="445.86966161406497" x2="314.9090909090909" y2="446.5857817317692" stroke="#000"/>
<line x1="314.90909090909093" y1="498.0" x2="314.90909090909093" y2="502.79999999999995" stroke="#000"/>
<text x="314.90909090909093" y="512.4" fill="#111" font-size="small" font-family="monospace" font-weight="bold" text-anchor="end" transform="rotate(-60, 314.90909090909093, 512.4)">
psych-load
</text>
<rect x="327.7272727272727" y="460.81241537616955" width="8.545454545454545" height="37.1875846238304" fill="#7070f8" data-tooltip="1.00x baseline speed (No JIT)"/>
<line x1="327.7272727272727" y1="460.57306168406143" x2="336.2727272727272" y2="460.57306168406143" stroke="#000"/>
<line x1="327.7272727272727" y1="461.0517690682776" x2="336.2727272727272" y2="461.0517690682776" stroke="#000"/>
<line x1="331.99999999999994" y1="460.57306168406143" x2="331.99999999999994" y2="461.0517690682776" stroke="#000"/>
<rect x="336.2727272727272" y="440.71525573416324" width="8.545454545454545" height="57.28474426583673" fill="orange" data-tooltip="1.54x baseline speed (YJIT)"/>
<line x1="336.2727272727272" y1="439.99367157457976" x2="344.81818181818176" y2="439.99367157457976" stroke="#000"/>
<line x1="336.2727272727272" y1="441.4368398937467" x2="344.81818181818176" y2="441.4368398937467" stroke="#000"/>
<line x1="340.5454545454545" y1="439.99367157457976" x2="340.5454545454545" y2="441.4368398937467" stroke="#000"/>
<line x1="340.54545454545456" y1="498.0" x2="340.54545454545456" y2="502.79999999999995" stroke="#000"/>
<text x="340.54545454545456" y="512.4" fill="#111" font-size="small" font-family="monospace" font-weight="bold" text-anchor="end" transform="rotate(-60, 340.54545454545456, 512.4)">
railsbench
</text>
<rect x="353.3636363636363" y="460.81241537616955" width="8.545454545454545" height="37.1875846238304" fill="#7070f8" data-tooltip="1.00x baseline speed (No JIT)"/>
<line x1="353.3636363636363" y1="458.2273368741924" x2="361.9090909090908" y2="458.2273368741924" stroke="#000"/>
<line x1="353.3636363636363" y1="463.3974938781467" x2="361.9090909090908" y2="463.3974938781467" stroke="#000"/>
<line x1="357.63636363636357" y1="458.2273368741924" x2="357.63636363636357" y2="463.3974938781467" stroke="#000"/>
<rect x="361.9090909090908" y="449.37130642162424" width="8.545454545454545" height="48.62869357837568" fill="orange" data-tooltip="1.31x baseline speed (YJIT)"/>
<line x1="361.9090909090908" y1="443.326114603312" x2="370.4545454545454" y2="443.326114603312" stroke="#000"/>
<line x1="361.9090909090908" y1="455.4164982399364" x2="370.4545454545454" y2="455.4164982399364" stroke="#000"/>
<line x1="366.18181818181813" y1="443.326114603312" x2="366.18181818181813" y2="455.4164982399364" stroke="#000"/>
<line x1="366.1818181818182" y1="498.0" x2="366.1818181818182" y2="502.79999999999995" stroke="#000"/>
<text x="366.1818181818182" y="512.4" fill="#111" font-size="small" font-family="monospace" font-weight="bold" text-anchor="end" transform="rotate(-60, 366.1818181818182, 512.4)">
ruby-lsp
</text>
<rect x="379.0" y="460.81241537616955" width="8.545454545454545" height="37.1875846238304" fill="#7070f8" data-tooltip="1.00x baseline speed (No JIT)"/>
<line x1="379.0" y1="460.51790727100916" x2="387.5454545454545" y2="460.51790727100916" stroke="#000"/>
<line x1="379.0" y1="461.10692348132994" x2="387.5454545454545" y2="461.10692348132994" stroke="#000"/>
<line x1="383.27272727272725" y1="460.51790727100916" x2="383.27272727272725" y2="461.10692348132994" stroke="#000"/>
<rect x="387.5454545454545" y="450.161365786943" width="8.545454545454545" height="47.83863421305698" fill="orange" data-tooltip="1.29x baseline speed (YJIT)"/>
<line x1="387.5454545454545" y1="449.45288470384133" x2="396.09090909090907" y2="449.45288470384133" stroke="#000"/>
<line x1="387.5454545454545" y1="450.8698468700447" x2="396.09090909090907" y2="450.8698468700447" stroke="#000"/>
<line x1="391.8181818181818" y1="449.45288470384133" x2="391.8181818181818" y2="450.8698468700447" stroke="#000"/>
<line x1="391.81818181818187" y1="498.0" x2="391.81818181818187" y2="502.79999999999995" stroke="#000"/>
<text x="391.81818181818187" y="512.4" fill="#111" font-size="small" font-family="monospace" font-weight="bold" text-anchor="end" transform="rotate(-60, 391.81818181818187, 512.4)">
sequel
</text>
<rect x="404.63636363636357" y="460.81241537616955" width="8.545454545454545" height="37.1875846238304" fill="#7070f8" data-tooltip="1.00x baseline speed (No JIT)"/>
<line x1="404.63636363636357" y1="460.79467937409794" x2="413.1818181818181" y2="460.79467937409794" stroke="#000"/>
<line x1="404.63636363636357" y1="460.83015137824117" x2="413.1818181818181" y2="460.83015137824117" stroke="#000"/>
<line x1="408.9090909090908" y1="460.79467937409794" x2="408.9090909090908" y2="460.83015137824117" stroke="#000"/>
<rect x="413.1818181818181" y="421.4969142992592" width="8.545454545454545" height="76.50308570074084" fill="orange" data-tooltip="2.06x baseline speed (YJIT)"/>
<line x1="413.1818181818181" y1="421.41485417568" x2="421.72727272727263" y2="421.41485417568" stroke="#000"/>
<line x1="413.1818181818181" y1="421.5789744228383" x2="421.72727272727263" y2="421.5789744228383" stroke="#000"/>
<line x1="417.4545454545454" y1="421.41485417568" x2="417.4545454545454" y2="421.5789744228383" stroke="#000"/>
<line x1="417.45454545454544" y1="498.0" x2="417.45454545454544" y2="502.79999999999995" stroke="#000"/>
<text x="417.45454545454544" y="512.4" fill="#111" font-size="small" font-family="monospace" font-weight="bold" text-anchor="end" transform="rotate(-60, 417.45454545454544, 512.4)">
binarytrees
</text>
<rect x="430.27272727272725" y="460.81241537616955" width="8.545454545454545" height="37.1875846238304" fill="#7070f8" data-tooltip="1.00x baseline speed (No JIT)"/>
<line x1="430.27272727272725" y1="460.79470754642193" x2="438.81818181818176" y2="460.79470754642193" stroke="#000"/>
<line x1="430.27272727272725" y1="460.8301232059171" x2="438.81818181818176" y2="460.8301232059171" stroke="#000"/>
<line x1="434.5454545454545" y1="460.79470754642193" x2="434.5454545454545" y2="460.8301232059171" stroke="#000"/>
<rect x="438.81818181818176" y="453.7377315530216" width="8.545454545454545" height="44.26226844697837" fill="orange" data-tooltip="1.19x baseline speed (YJIT)"/>
<line x1="438.81818181818176" y1="453.705075701608" x2="447.3636363636363" y2="453.705075701608" stroke="#000"/>
<line x1="438.81818181818176" y1="453.77038740443516" x2="447.3636363636363" y2="453.77038740443516" stroke="#000"/>
<line x1="443.090909090909" y1="453.705075701608" x2="443.090909090909" y2="453.77038740443516" stroke="#000"/>
<line x1="443.09090909090907" y1="498.0" x2="443.09090909090907" y2="502.79999999999995" stroke="#000"/>
<text x="443.09090909090907" y="512.4" fill="#111" font-size="small" font-family="monospace" font-weight="bold" text-anchor="end" transform="rotate(-60, 443.09090909090907, 512.4)">
erubi
</text>
<rect x="455.90909090909093" y="460.81241537616955" width="8.545454545454545" height="37.1875846238304" fill="#7070f8" data-tooltip="1.00x baseline speed (No JIT)"/>
<line x1="455.90909090909093" y1="460.79849953412923" x2="464.45454545454544" y2="460.79849953412923" stroke="#000"/>
<line x1="455.90909090909093" y1="460.8263312182098" x2="464.45454545454544" y2="460.8263312182098" stroke="#000"/>
<line x1="460.1818181818182" y1="460.79849953412923" x2="460.1818181818182" y2="460.8263312182098" stroke="#000"/>
<rect x="464.45454545454544" y="460.98935231180127" width="8.545454545454545" height="37.010647688198745" fill="orange" data-tooltip="1.00x baseline speed (YJIT)"/>
<line x1="464.45454545454544" y1="460.9698929498056" x2="473.0" y2="460.9698929498056" stroke="#000"/>
<line x1="464.45454545454544" y1="461.00881167379686" x2="473.0" y2="461.00881167379686" stroke="#000"/>
<line x1="468.7272727272727" y1="460.9698929498056" x2="468.7272727272727" y2="461.00881167379686" stroke="#000"/>
<line x1="468.72727272727275" y1="498.0" x2="468.72727272727275" y2="502.79999999999995" stroke="#000"/>
<text x="468.72727272727275" y="512.4" fill="#111" font-size="small" font-family="monospace" font-weight="bold" text-anchor="end" transform="rotate(-60, 468.72727272727275, 512.4)">
etanni
</text>
<rect x="481.5454545454545" y="460.81241537616955" width="8.545454545454545" height="37.1875846238304" fill="#7070f8" data-tooltip="1.00x baseline speed (No JIT)"/>
<line x1="481.5454545454545" y1="460.7793433480317" x2="490.090909090909" y2="460.7793433480317" stroke="#000"/>
<line x1="481.5454545454545" y1="460.84548740430733" x2="490.090909090909" y2="460.84548740430733" stroke="#000"/>
<line x1="485.81818181818176" y1="460.7793433480317" x2="485.81818181818176" y2="460.84548740430733" stroke="#000"/>
<rect x="490.090909090909" y="394.7011895196725" width="8.545454545454545" height="103.29881048032752" fill="orange" data-tooltip="2.78x baseline speed (YJIT)"/>
<line x1="490.090909090909" y1="394.5915294430837" x2="498.63636363636357" y2="394.5915294430837" stroke="#000"/>
<line x1="490.090909090909" y1="394.8108495962612" x2="498.63636363636357" y2="394.8108495962612" stroke="#000"/>
<line x1="494.36363636363626" y1="394.5915294430837" x2="494.36363636363626" y2="394.8108495962612" stroke="#000"/>
<line x1="494.3636363636363" y1="498.0" x2="494.3636363636363" y2="502.79999999999995" stroke="#000"/>
<text x="494.3636363636363" y="512.4" fill="#111" font-size="small" font-family="monospace" font-weight="bold" text-anchor="end" transform="rotate(-60, 494.3636363636363, 512.4)">
fannkuchredux
</text>
<rect x="507.1818181818182" y="460.81241537616955" width="8.545454545454545" height="37.1875846238304" fill="#7070f8" data-tooltip="1.00x baseline speed (No JIT)"/>
<line x1="507.1818181818182" y1="460.69361911193045" x2="515.7272727272727" y2="460.69361911193045" stroke="#000"/>
<line x1="507.1818181818182" y1="460.93121164040866" x2="515.7272727272727" y2="460.93121164040866" stroke="#000"/>
<line x1="511.4545454545455" y1="460.69361911193045" x2="511.4545454545455" y2="460.93121164040866" stroke="#000"/>
<rect x="515.7272727272727" y="445.7806955456591" width="8.545454545454545" height="52.219304454340794" fill="orange" data-tooltip="1.40x baseline speed (YJIT)"/>
<line x1="515.7272727272727" y1="445.5285585747654" x2="524.2727272727273" y2="445.5285585747654" stroke="#000"/>
<line x1="515.7272727272727" y1="446.0328325165529" x2="524.2727272727273" y2="446.0328325165529" stroke="#000"/>
<line x1="520.0" y1="445.5285585747654" x2="520.0" y2="446.0328325165529" stroke="#000"/>
<line x1="520.0" y1="498.0" x2="520.0" y2="502.79999999999995" stroke="#000"/>
<text x="520.0" y="512.4" fill="#111" font-size="small" font-family="monospace" font-weight="bold" text-anchor="end" transform="rotate(-60, 520.0, 512.4)">
lee
</text>
<rect x="532.8181818181818" y="460.81241537616955" width="8.545454545454545" height="37.1875846238304" fill="#7070f8" data-tooltip="1.00x baseline speed (No JIT)"/>
<line x1="532.8181818181818" y1="460.79353826080035" x2="541.3636363636363" y2="460.79353826080035" stroke="#000"/>
<line x1="532.8181818181818" y1="460.83129249153876" x2="541.3636363636363" y2="460.83129249153876" stroke="#000"/>
<line x1="537.090909090909" y1="460.79353826080035" x2="537.090909090909" y2="460.83129249153876" stroke="#000"/>
<rect x="541.3636363636363" y="426.3056041736502" width="8.545454545454545" height="71.69439582634983" fill="orange" data-tooltip="1.93x baseline speed (YJIT)"/>
<line x1="541.3636363636363" y1="426.2476763697299" x2="549.9090909090908" y2="426.2476763697299" stroke="#000"/>
<line x1="541.3636363636363" y1="426.3635319775704" x2="549.9090909090908" y2="426.3635319775704" stroke="#000"/>
<line x1="545.6363636363636" y1="426.2476763697299" x2="545.6363636363636" y2="426.3635319775704" stroke="#000"/>
<line x1="545.6363636363636" y1="498.0" x2="545.6363636363636" y2="502.79999999999995" stroke="#000"/>
<text x="545.6363636363636" y="512.4" fill="#111" font-size="small" font-family="monospace" font-weight="bold" text-anchor="end" transform="rotate(-60, 545.6363636363636, 512.4)">
nbody
</text>
<rect x="558.4545454545454" y="460.81241537616955" width="8.545454545454545" height="37.1875846238304" fill="#7070f8" data-tooltip="1.00x baseline speed (No JIT)"/>
<line x1="558.4545454545454" y1="460.57084917549804" x2="567.0" y2="460.57084917549804" stroke="#000"/>
<line x1="558.4545454545454" y1="461.05398157684107" x2="567.0" y2="461.05398157684107" stroke="#000"/>
<line x1="562.7272727272727" y1="460.57084917549804" x2="562.7272727272727" y2="461.05398157684107" stroke="#000"/>
<rect x="567.0" y="394.6025121524575" width="8.545454545454545" height="103.39748784754241" fill="orange" data-tooltip="2.78x baseline speed (YJIT)"/>
<line x1="567.0" y1="393.6987320127324" x2="575.5454545454545" y2="393.6987320127324" stroke="#000"/>
<line x1="567.0" y1="395.5062922921826" x2="575.5454545454545" y2="395.5062922921826" stroke="#000"/>
<line x1="571.2727272727273" y1="393.6987320127324" x2="571.2727272727273" y2="395.5062922921826" stroke="#000"/>
<line x1="571.2727272727273" y1="498.0" x2="571.2727272727273" y2="502.79999999999995" stroke="#000"/>
<text x="571.2727272727273" y="512.4" fill="#111" font-size="small" font-family="monospace" font-weight="bold" text-anchor="end" transform="rotate(-60, 571.2727272727273, 512.4)">
optcarrot
</text>
<rect x="584.0909090909091" y="460.81241537616955" width="8.545454545454545" height="37.1875846238304" fill="#7070f8" data-tooltip="1.00x baseline speed (No JIT)"/>
<line x1="584.0909090909091" y1="460.79543992197137" x2="592.6363636363636" y2="460.79543992197137" stroke="#000"/>
<line x1="584.0909090909091" y1="460.82939083036774" x2="592.6363636363636" y2="460.82939083036774" stroke="#000"/>
<line x1="588.3636363636364" y1="460.79543992197137" x2="588.3636363636364" y2="460.82939083036774" stroke="#000"/>
<rect x="592.6363636363636" y="455.15706433263784" width="8.545454545454545" height="42.84293566736211" fill="orange" data-tooltip="1.15x baseline speed (YJIT)"/>
<line x1="592.6363636363636" y1="455.1271112664856" x2="601.1818181818181" y2="455.1271112664856" stroke="#000"/>
<line x1="592.6363636363636" y1="455.1870173987901" x2="601.1818181818181" y2="455.1870173987901" stroke="#000"/>
<line x1="596.909090909091" y1="455.1271112664856" x2="596.909090909091" y2="455.1870173987901" stroke="#000"/>
<line x1="596.909090909091" y1="498.0" x2="596.909090909091" y2="502.79999999999995" stroke="#000"/>
<text x="596.909090909091" y="512.4" fill="#111" font-size="small" font-family="monospace" font-weight="bold" text-anchor="end" transform="rotate(-60, 596.909090909091, 512.4)">
ruby-json
</text>
<rect x="609.7272727272726" y="460.81241537616955" width="8.545454545454545" height="37.1875846238304" fill="#7070f8" data-tooltip="1.00x baseline speed (No JIT)"/>
<line x1="609.7272727272726" y1="460.6732712005709" x2="618.2727272727273" y2="460.6732712005709" stroke="#000"/>
<line x1="609.7272727272726" y1="460.9515595517682" x2="618.2727272727273" y2="460.9515595517682" stroke="#000"/>
<line x1="614.0" y1="460.6732712005709" x2="614.0" y2="460.9515595517682" stroke="#000"/>
<rect x="618.2727272727273" y="428.42274231972397" width="8.545454545454545" height="69.57725768027603" fill="orange" data-tooltip="1.87x baseline speed (YJIT)"/>
<line x1="618.2727272727273" y1="427.262319876623" x2="626.8181818181818" y2="427.262319876623" stroke="#000"/>
<line x1="618.2727272727273" y1="429.58316476282494" x2="626.8181818181818" y2="429.58316476282494" stroke="#000"/>
<line x1="622.5454545454545" y1="427.262319876623" x2="622.5454545454545" y2="429.58316476282494" stroke="#000"/>
<line x1="622.5454545454545" y1="498.0" x2="622.5454545454545" y2="502.79999999999995" stroke="#000"/>
<text x="622.5454545454545" y="512.4" fill="#111" font-size="small" font-family="monospace" font-weight="bold" text-anchor="end" transform="rotate(-60, 622.5454545454545, 512.4)">
rubykon
</text>
<rect x="635.3636363636363" y="460.81241537616955" width="8.545454545454545" height="37.1875846238304" fill="#7070f8" data-tooltip="1.00x baseline speed (No JIT)"/>
<line x1="635.3636363636363" y1="460.80328111433204" x2="643.9090909090908" y2="460.80328111433204" stroke="#000"/>
<line x1="635.3636363636363" y1="460.82154963800707" x2="643.9090909090908" y2="460.82154963800707" stroke="#000"/>
<line x1="639.6363636363635" y1="460.80328111433204" x2="639.6363636363635" y2="460.82154963800707" stroke="#000"/>
<rect x="643.9090909090908" y="252.471705079886" width="8.545454545454545" height="245.52829492011395" fill="orange" data-tooltip="6.60x baseline speed (YJIT)"/>
<line x1="643.9090909090908" y1="252.30594650968206" x2="652.4545454545453" y2="252.30594650968206" stroke="#000"/>
<line x1="643.9090909090908" y1="252.63746365008993" x2="652.4545454545453" y2="252.63746365008993" stroke="#000"/>
<line x1="648.1818181818181" y1="252.30594650968206" x2="648.1818181818181" y2="252.63746365008993" stroke="#000"/>
<line x1="648.1818181818181" y1="498.0" x2="648.1818181818181" y2="502.79999999999995" stroke="#000"/>
<text x="648.1818181818181" y="512.4" fill="#111" font-size="small" font-family="monospace" font-weight="bold" text-anchor="end" transform="rotate(-60, 648.1818181818181, 512.4)">
30k_ifelse
</text>
<rect x="660.9999999999999" y="460.81241537616955" width="8.545454545454545" height="37.1875846238304" fill="#7070f8" data-tooltip="1.00x baseline speed (No JIT)"/>
<line x1="660.9999999999999" y1="460.800905394739" x2="669.5454545454544" y2="460.800905394739" stroke="#000"/>
<line x1="660.9999999999999" y1="460.8239253576001" x2="669.5454545454544" y2="460.8239253576001" stroke="#000"/>
<line x1="665.2727272727273" y1="460.800905394739" x2="665.2727272727273" y2="460.8239253576001" stroke="#000"/>
<rect x="669.5454545454544" y="210.13956103582916" width="8.545454545454545" height="287.86043896417084" fill="orange" data-tooltip="7.74x baseline speed (YJIT)"/>
<line x1="669.5454545454544" y1="210.0319309043905" x2="678.090909090909" y2="210.0319309043905" stroke="#000"/>
<line x1="669.5454545454544" y1="210.24719116726783" x2="678.090909090909" y2="210.24719116726783" stroke="#000"/>
<line x1="673.8181818181818" y1="210.0319309043905" x2="673.8181818181818" y2="210.24719116726783" stroke="#000"/>
<line x1="673.8181818181818" y1="498.0" x2="673.8181818181818" y2="502.79999999999995" stroke="#000"/>
<text x="673.8181818181818" y="512.4" fill="#111" font-size="small" font-family="monospace" font-weight="bold" text-anchor="end" transform="rotate(-60, 673.8181818181818, 512.4)">
30k_methods
</text>
<rect x="686.6363636363636" y="460.81241537616955" width="8.545454545454545" height="37.1875846238304" fill="#7070f8" data-tooltip="1.00x baseline speed (No JIT)"/>
<line x1="686.6363636363636" y1="460.70650503689643" x2="695.1818181818181" y2="460.70650503689643" stroke="#000"/>
<line x1="686.6363636363636" y1="460.9183257154427" x2="695.1818181818181" y2="460.9183257154427" stroke="#000"/>
<line x1="690.9090909090909" y1="460.70650503689643" x2="690.9090909090909" y2="460.9183257154427" stroke="#000"/>
<rect x="695.1818181818181" y="395.8774471116001" width="8.545454545454545" height="102.12255288839985" fill="orange" data-tooltip="2.75x baseline speed (YJIT)"/>
<line x1="695.1818181818181" y1="395.4558369200612" x2="703.7272727272726" y2="395.4558369200612" stroke="#000"/>
<line x1="695.1818181818181" y1="396.299057303139" x2="703.7272727272726" y2="396.299057303139" stroke="#000"/>
<line x1="699.4545454545455" y1="395.4558369200612" x2="699.4545454545455" y2="396.299057303139" stroke="#000"/>
<line x1="699.4545454545455" y1="498.0" x2="699.4545454545455" y2="502.79999999999995" stroke="#000"/>
<text x="699.4545454545455" y="512.4" fill="#111" font-size="small" font-family="monospace" font-weight="bold" text-anchor="end" transform="rotate(-60, 699.4545454545455, 512.4)">
cfunc_itself
</text>
<rect x="712.2727272727271" y="460.81241537616955" width="8.545454545454545" height="37.1875846238304" fill="#7070f8" data-tooltip="1.00x baseline speed (No JIT)"/>
<line x1="712.2727272727271" y1="460.79738631590254" x2="720.8181818181816" y2="460.79738631590254" stroke="#000"/>
<line x1="712.2727272727271" y1="460.82744443643656" x2="720.8181818181816" y2="460.82744443643656" stroke="#000"/>
<line x1="716.5454545454545" y1="460.79738631590254" x2="716.5454545454545" y2="460.82744443643656" stroke="#000"/>
<rect x="720.8181818181816" y="302.17661213179264" width="8.545454545454545" height="195.82338786820728" fill="orange" data-tooltip="5.27x baseline speed (YJIT)"/>
<line x1="720.8181818181816" y1="302.0504598918119" x2="729.3636363636363" y2="302.0504598918119" stroke="#000"/>
<line x1="720.8181818181816" y1="302.30276437177343" x2="729.3636363636363" y2="302.30276437177343" stroke="#000"/>
<line x1="725.090909090909" y1="302.0504598918119" x2="725.090909090909" y2="302.30276437177343" stroke="#000"/>
<line x1="725.090909090909" y1="498.0" x2="725.090909090909" y2="502.79999999999995" stroke="#000"/>
<text x="725.090909090909" y="512.4" fill="#111" font-size="small" font-family="monospace" font-weight="bold" text-anchor="end" transform="rotate(-60, 725.090909090909, 512.4)">
fib
</text>
<rect x="737.9090909090909" y="460.81241537616955" width="8.545454545454545" height="37.1875846238304" fill="#7070f8" data-tooltip="1.00x baseline speed (No JIT)"/>
<line x1="737.9090909090909" y1="460.71422335173014" x2="746.4545454545454" y2="460.71422335173014" stroke="#000"/>
<line x1="737.9090909090909" y1="460.91060740060897" x2="746.4545454545454" y2="460.91060740060897" stroke="#000"/>
<line x1="742.1818181818181" y1="460.71422335173014" x2="742.1818181818181" y2="460.91060740060897" stroke="#000"/>
<rect x="746.4545454545454" y="299.33485492796643" width="8.545454545454545" height="198.66514507203345" fill="orange" data-tooltip="5.34x baseline speed (YJIT)"/>
<line x1="746.4545454545454" y1="298.7271781802149" x2="754.9999999999999" y2="298.7271781802149" stroke="#000"/>
<line x1="746.4545454545454" y1="299.942531675718" x2="754.9999999999999" y2="299.942531675718" stroke="#000"/>
<line x1="750.7272727272726" y1="298.7271781802149" x2="750.7272727272726" y2="299.942531675718" stroke="#000"/>
<line x1="750.7272727272726" y1="498.0" x2="750.7272727272726" y2="502.79999999999995" stroke="#000"/>
<text x="750.7272727272726" y="512.4" fill="#111" font-size="small" font-family="monospace" font-weight="bold" text-anchor="end" transform="rotate(-60, 750.7272727272726, 512.4)">
getivar
</text>
<rect x="763.5454545454544" y="460.81241537616955" width="8.545454545454545" height="37.1875846238304" fill="#7070f8" data-tooltip="1.00x baseline speed (No JIT)"/>
<line x1="763.5454545454544" y1="460.76989113421996" x2="772.0909090909089" y2="460.76989113421996" stroke="#000"/>
<line x1="763.5454545454544" y1="460.85493961811915" x2="772.0909090909089" y2="460.85493961811915" stroke="#000"/>
<line x1="767.8181818181818" y1="460.76989113421996" x2="767.8181818181818" y2="460.85493961811915" stroke="#000"/>
<rect x="772.0909090909089" y="281.73790968849414" width="8.545454545454545" height="216.26209031150577" fill="orange" data-tooltip="5.82x baseline speed (YJIT)"/>
<line x1="772.0909090909089" y1="281.39724369562543" x2="780.6363636363635" y2="281.39724369562543" stroke="#000"/>
<line x1="772.0909090909089" y1="282.07857568136285" x2="780.6363636363635" y2="282.07857568136285" stroke="#000"/>
<line x1="776.3636363636363" y1="281.39724369562543" x2="776.3636363636363" y2="282.07857568136285" stroke="#000"/>
<line x1="776.3636363636363" y1="498.0" x2="776.3636363636363" y2="502.79999999999995" stroke="#000"/>
<text x="776.3636363636363" y="512.4" fill="#111" font-size="small" font-family="monospace" font-weight="bold" text-anchor="end" transform="rotate(-60, 776.3636363636363, 512.4)">
keyword_args
</text>
<rect x="789.1818181818181" y="460.81241537616955" width="8.545454545454545" height="37.1875846238304" fill="#7070f8" data-tooltip="1.00x baseline speed (No JIT)"/>
<line x1="789.1818181818181" y1="460.65504369470796" x2="797.7272727272726" y2="460.65504369470796" stroke="#000"/>
<line x1="789.1818181818181" y1="460.9697870576311" x2="797.7272727272726" y2="460.9697870576311" stroke="#000"/>
<line x1="793.4545454545454" y1="460.65504369470796" x2="793.4545454545454" y2="460.9697870576311" stroke="#000"/>
<rect x="797.7272727272726" y="100.19999999999999" width="8.545454545454545" height="397.79999999999995" fill="orange" data-tooltip="10.70x baseline speed (YJIT)"/>
<line x1="797.7272727272726" y1="96.57541484875337" x2="806.2727272727271" y2="96.57541484875337" stroke="#000"/>
<line x1="797.7272727272726" y1="103.82458515124661" x2="806.2727272727271" y2="103.82458515124661" stroke="#000"/>
<line x1="801.9999999999999" y1="96.57541484875337" x2="801.9999999999999" y2="103.82458515124661" stroke="#000"/>
<line x1="801.9999999999999" y1="498.0" x2="801.9999999999999" y2="502.79999999999995" stroke="#000"/>
<text x="801.9999999999999" y="512.4" fill="#111" font-size="small" font-family="monospace" font-weight="bold" text-anchor="end" transform="rotate(-60, 801.9999999999999, 512.4)">
respond_to
</text>
<rect x="814.8181818181818" y="460.81241537616955" width="8.545454545454545" height="37.1875846238304" fill="#7070f8" data-tooltip="1.00x baseline speed (No JIT)"/>
<line x1="814.8181818181818" y1="460.77969231269896" x2="823.3636363636363" y2="460.77969231269896" stroke="#000"/>
<line x1="814.8181818181818" y1="460.8451384396401" x2="823.3636363636363" y2="460.8451384396401" stroke="#000"/>
<line x1="819.0909090909091" y1="460.77969231269896" x2="819.0909090909091" y2="460.8451384396401" stroke="#000"/>
<rect x="823.3636363636363" y="284.5667820284303" width="8.545454545454545" height="213.43321797156966" fill="orange" data-tooltip="5.74x baseline speed (YJIT)"/>
<line x1="823.3636363636363" y1="284.3026572421961" x2="831.9090909090908" y2="284.3026572421961" stroke="#000"/>
<line x1="823.3636363636363" y1="284.83090681466444" x2="831.9090909090908" y2="284.83090681466444" stroke="#000"/>
<line x1="827.6363636363636" y1="284.3026572421961" x2="827.6363636363636" y2="284.83090681466444" stroke="#000"/>
<line x1="827.6363636363636" y1="498.0" x2="827.6363636363636" y2="502.79999999999995" stroke="#000"/>
<text x="827.6363636363636" y="512.4" fill="#111" font-size="small" font-family="monospace" font-weight="bold" text-anchor="end" transform="rotate(-60, 827.6363636363636, 512.4)">
setivar
</text>
<rect x="840.4545454545454" y="460.81241537616955" width="8.545454545454545" height="37.1875846238304" fill="#7070f8" data-tooltip="1.00x baseline speed (No JIT)"/>
<line x1="840.4545454545454" y1="460.7995295997888" x2="848.9999999999999" y2="460.7995295997888" stroke="#000"/>
<line x1="840.4545454545454" y1="460.82530115255025" x2="848.9999999999999" y2="460.82530115255025" stroke="#000"/>
<line x1="844.7272727272726" y1="460.7995295997888" x2="844.7272727272726" y2="460.82530115255025" stroke="#000"/>
<rect x="848.9999999999999" y="408.7411512393841" width="8.545454545454545" height="89.25884876061586" fill="orange" data-tooltip="2.40x baseline speed (YJIT)"/>
<line x1="848.9999999999999" y1="408.69242982955376" x2="857.5454545454544" y2="408.69242982955376" stroke="#000"/>
<line x1="848.9999999999999" y1="408.78987264921443" x2="857.5454545454544" y2="408.78987264921443" stroke="#000"/>
<line x1="853.2727272727271" y1="408.69242982955376" x2="853.2727272727271" y2="408.78987264921443" stroke="#000"/>
<line x1="853.2727272727271" y1="498.0" x2="853.2727272727271" y2="502.79999999999995" stroke="#000"/>
<text x="853.2727272727271" y="512.4" fill="#111" font-size="small" font-family="monospace" font-weight="bold" text-anchor="end" transform="rotate(-60, 853.2727272727271, 512.4)">
setivar_object
</text>
<rect x="866.090909090909" y="460.81241537616955" width="8.545454545454545" height="37.1875846238304" fill="#7070f8" data-tooltip="1.00x baseline speed (No JIT)"/>
<line x1="866.090909090909" y1="460.71522082464736" x2="874.6363636363635" y2="460.71522082464736" stroke="#000"/>
<line x1="866.090909090909" y1="460.90960992769175" x2="874.6363636363635" y2="460.90960992769175" stroke="#000"/>
<line x1="870.3636363636364" y1="460.71522082464736" x2="870.3636363636364" y2="460.90960992769175" stroke="#000"/>
<rect x="874.6363636363635" y="408.72739864667614" width="8.545454545454545" height="89.27260135332382" fill="orange" data-tooltip="2.40x baseline speed (YJIT)"/>
<line x1="874.6363636363635" y1="407.4508094286006" x2="883.181818181818" y2="407.4508094286006" stroke="#000"/>
<line x1="874.6363636363635" y1="410.00398786475165" x2="883.181818181818" y2="410.00398786475165" stroke="#000"/>
<line x1="878.9090909090909" y1="407.4508094286006" x2="878.9090909090909" y2="410.00398786475165" stroke="#000"/>
<line x1="878.9090909090909" y1="498.0" x2="878.9090909090909" y2="502.79999999999995" stroke="#000"/>
<text x="878.9090909090909" y="512.4" fill="#111" font-size="small" font-family="monospace" font-weight="bold" text-anchor="end" transform="rotate(-60, 878.9090909090909, 512.4)">
setivar_young
</text>
<rect x="891.7272727272726" y="460.81241537616955" width="8.545454545454545" height="37.1875846238304" fill="#7070f8" data-tooltip="1.00x baseline speed (No JIT)"/>
<line x1="891.7272727272726" y1="460.74013943471783" x2="900.2727272727271" y2="460.74013943471783" stroke="#000"/>
<line x1="891.7272727272726" y1="460.8846913176212" x2="900.2727272727271" y2="460.8846913176212" stroke="#000"/>
<line x1="895.9999999999999" y1="460.74013943471783" x2="895.9999999999999" y2="460.8846913176212" stroke="#000"/>
<rect x="900.2727272727271" y="427.08991145373267" width="8.545454545454545" height="70.91008854626732" fill="orange" data-tooltip="1.91x baseline speed (YJIT)"/>
<line x1="900.2727272727271" y1="426.76310194820206" x2="908.8181818181816" y2="426.76310194820206" stroke="#000"/>
<line x1="900.2727272727271" y1="427.4167209592633" x2="908.8181818181816" y2="427.4167209592633" stroke="#000"/>
<line x1="904.5454545454544" y1="426.76310194820206" x2="904.5454545454544" y2="427.4167209592633" stroke="#000"/>
<line x1="904.5454545454544" y1="498.0" x2="904.5454545454544" y2="502.79999999999995" stroke="#000"/>
<text x="904.5454545454544" y="512.4" fill="#111" font-size="small" font-family="monospace" font-weight="bold" text-anchor="end" transform="rotate(-60, 904.5454545454544, 512.4)">
str_concat
</text>
<rect x="917.3636363636363" y="460.81241537616955" width="8.545454545454545" height="37.1875846238304" fill="#7070f8" data-tooltip="1.00x baseline speed (No JIT)"/>
<line x1="917.3636363636363" y1="460.7353053678118" x2="925.9090909090908" y2="460.7353053678118" stroke="#000"/>
<line x1="917.3636363636363" y1="460.8895253845273" x2="925.9090909090908" y2="460.8895253845273" stroke="#000"/>
<line x1="921.6363636363636" y1="460.7353053678118" x2="921.6363636363636" y2="460.8895253845273" stroke="#000"/>
<rect x="925.9090909090908" y="452.4828361519039" width="8.545454545454545" height="45.51716384809611" fill="orange" data-tooltip="1.22x baseline speed (YJIT)"/>
<line x1="925.9090909090908" y1="452.2939071748435" x2="934.4545454545453" y2="452.2939071748435" stroke="#000"/>
<line x1="925.9090909090908" y1="452.6717651289642" x2="934.4545454545453" y2="452.6717651289642" stroke="#000"/>
<line x1="930.1818181818181" y1="452.2939071748435" x2="930.1818181818181" y2="452.6717651289642" stroke="#000"/>
<line x1="930.1818181818181" y1="498.0" x2="930.1818181818181" y2="502.79999999999995" stroke="#000"/>
<text x="930.1818181818181" y="512.4" fill="#111" font-size="small" font-family="monospace" font-weight="bold" text-anchor="end" transform="rotate(-60, 930.1818181818181, 512.4)">
throw
</text>
</svg>