<svg viewBox="0 0 1000 600" xmlns="http://www.w3.org/2000/svg" xmlns:xlink="http://www.w3.org/1999/xlink" width="100%" height="100%">

<rect x="50.0" y="30.0" width="940.0" height="467.99999999999994" stroke="#000" fill="#fff"/>
<line x1="42.0" y1="497.9999999999999" x2="50.0" y2="497.9999999999999" stroke="#000"/>
<text x="26.000000000000004" y="497.9999999999999" text-anchor="end" font-weight="bold" font-size="small" fill="#111">
0.0
</text>
<line x1="42.0" y1="421.0353820986211" x2="50.0" y2="421.0353820986211" stroke="#000"/>
<text x="26.000000000000004" y="421.0353820986211" text-anchor="end" font-weight="bold" font-size="small" fill="#111">
2.0
</text>
<line x1="42.0" y1="344.0707641972423" x2="50.0" y2="344.0707641972423" stroke="#000"/>
<text x="26.000000000000004" y="344.0707641972423" text-anchor="end" font-weight="bold" font-size="small" fill="#111">
4.0
</text>
<line x1="42.0" y1="267.1061462958635" x2="50.0" y2="267.1061462958635" stroke="#000"/>
<text x="26.000000000000004" y="267.1061462958635" text-anchor="end" font-weight="bold" font-size="small" fill="#111">
6.0
</text>
<line x1="42.0" y1="190.14152839448468" x2="50.0" y2="190.14152839448468" stroke="#000"/>
<text x="26.000000000000004" y="190.14152839448468" text-anchor="end" font-weight="bold" font-size="small" fill="#111">
8.0
</text>
<line x1="42.0" y1="113.17691049310584" x2="50.0" y2="113.17691049310584" stroke="#000"/>
<text x="26.000000000000004" y="113.17691049310584" text-anchor="end" font-weight="bold" font-size="small" fill="#111">
10.0
</text>
<line x1="178.0" y1="54.60000000000001" x2="298.0" y2="54.60000000000001" stroke="#648FFF" stroke-width="2"/>
<text x="238.0" y="49.500000000000014" font-size="small" text-anchor="middle" font-weight="bold" fill="#000">
CRuby 3.1.0dev
</text>
<rect x="459.9999999999999" y="35.400000000000006" width="120.0" height="19.2" fill="#785EF0" stroke="none"/>
<text x="519.9999999999999" y="49.500000000000014" font-size="small" text-anchor="middle" font-weight="bold" fill="#fff" style="text-shadow: 0 0 1px #000;">
MJIT3.0
</text>
<rect x="742.0" y="35.400000000000006" width="120.0" height="19.2" fill="#FFB000" stroke="none"/>
<text x="801.9999999999999" y="49.500000000000014" font-size="small" text-anchor="middle" font-weight="bold" fill="#fff" style="text-shadow: 0 0 1px #000;">
YJIT 3.1.0dev
</text>
<rect x="108.75" y="456.99669200437125" width="58.75" height="41.0033079956286" fill="#785EF0" data-tooltip="1.07x baseline (MJIT3.0)"/>
<rect x="167.49999999999997" y="294.70119956718315" width="58.75" height="203.29880043281676" fill="#FFB000" data-tooltip="5.28x baseline (YJIT 3.1.0dev)"/>
<line x1="167.49999999999997" y1="498.0" x2="167.49999999999997" y2="502.79999999999995" stroke="#000"/>
<text x="167.49999999999997" y="512.4" fill="#111" font-size="small" text-anchor="end" transform="rotate(-60, 167.49999999999997, 512.4)">
activerecord
</text>
<rect x="285.0" y="454.38990478344266" width="58.75" height="43.610095216557305" fill="#785EF0" data-tooltip="1.13x baseline (MJIT3.0)"/>
<rect x="343.75" y="108.46359814302829" width="58.75" height="389.5364018569717" fill="#FFB000" data-tooltip="10.12x baseline (YJIT 3.1.0dev)"/>
<line x1="343.75" y1="498.0" x2="343.75" y2="502.79999999999995" stroke="#000"/>
<text x="343.75" y="512.4" fill="#111" font-size="small" text-anchor="end" transform="rotate(-60, 343.75, 512.4)">
liquid-render
</text>
<rect x="461.24999999999994" y="453.48039261509683" width="58.75" height="44.51960738490301" fill="#785EF0" data-tooltip="1.16x baseline (MJIT3.0)"/>
<rect x="519.9999999999999" y="100.19999999999999" width="58.75" height="397.79999999999995" fill="#FFB000" data-tooltip="10.34x baseline (YJIT 3.1.0dev)"/>
<line x1="519.9999999999999" y1="498.0" x2="519.9999999999999" y2="502.79999999999995" stroke="#000"/>
<text x="519.9999999999999" y="512.4" fill="#111" font-size="small" text-anchor="end" transform="rotate(-60, 519.9999999999999, 512.4)">
psych-load
</text>
<rect x="637.4999999999999" y="458.919992922311" width="58.75" height="39.080007077688975" fill="#785EF0" data-tooltip="1.02x baseline (MJIT3.0)"/>
<rect x="696.2499999999998" y="402.54238651317536" width="58.75" height="95.45761348682461" fill="#FFB000" data-tooltip="2.48x baseline (YJIT 3.1.0dev)"/>
<line x1="696.2499999999998" y1="498.0" x2="696.2499999999998" y2="502.79999999999995" stroke="#000"/>
<text x="696.2499999999998" y="512.4" fill="#111" font-size="small" text-anchor="end" transform="rotate(-60, 696.2499999999998, 512.4)">
railsbench
</text>
<rect x="813.7499999999998" y="456.0020615807536" width="58.75" height="41.99793841924632" fill="#785EF0" data-tooltip="1.09x baseline (MJIT3.0)"/>
<rect x="872.4999999999998" y="263.8255257128182" width="58.75" height="234.1744742871817" fill="#FFB000" data-tooltip="6.09x baseline (YJIT 3.1.0dev)"/>
<line x1="872.4999999999998" y1="498.0" x2="872.4999999999998" y2="502.79999999999995" stroke="#000"/>
<text x="872.4999999999998" y="512.4" fill="#111" font-size="small" text-anchor="end" transform="rotate(-60, 872.4999999999998, 512.4)" font-style="italic">
geomean*
</text>
<line x1="50.0" y1="459.5176910493106" x2="990.0" y2="459.5176910493106" stroke="#648FFF" stroke-width="2"/>
</svg>