<svg viewBox="0 0 1000 600" xmlns="http://www.w3.org/2000/svg" xmlns:xlink="http://www.w3.org/1999/xlink" width="100%" height="100%">

<rect x="50.0" y="30.0" width="940.0" height="467.99999999999994" stroke="#000" fill="#EEE"/>
<line x1="42.0" y1="497.9999999999999" x2="50.0" y2="497.9999999999999" stroke="#000"/>
<text x="26.000000000000004" y="497.9999999999999" text-anchor="end" font-weight="bold" font-size="small" fill="#111">
0.0
</text>
<line x1="42.0" y1="457.1786367076157" x2="50.0" y2="457.1786367076157" stroke="#000"/>
<text x="26.000000000000004" y="457.1786367076157" text-anchor="end" font-weight="bold" font-size="small" fill="#111">
0.2
</text>
<line x1="42.0" y1="416.35727341523136" x2="50.0" y2="416.35727341523136" stroke="#000"/>
<text x="26.000000000000004" y="416.35727341523136" text-anchor="end" font-weight="bold" font-size="small" fill="#111">
0.4
</text>
<line x1="42.0" y1="375.535910122847" x2="50.0" y2="375.535910122847" stroke="#000"/>
<text x="26.000000000000004" y="375.535910122847" text-anchor="end" font-weight="bold" font-size="small" fill="#111">
0.6
</text>
<line x1="42.0" y1="334.7145468304628" x2="50.0" y2="334.7145468304628" stroke="#000"/>
<text x="26.000000000000004" y="334.7145468304628" text-anchor="end" font-weight="bold" font-size="small" fill="#111">
0.8
</text>
<line x1="42.0" y1="293.89318353807846" x2="50.0" y2="293.89318353807846" stroke="#000"/>
<text x="26.000000000000004" y="293.89318353807846" text-anchor="end" font-weight="bold" font-size="small" fill="#111">
1.0
</text>
<line x1="42.0" y1="253.07182024569417" x2="50.0" y2="253.07182024569417" stroke="#000"/>
<text x="26.000000000000004" y="253.07182024569417" text-anchor="end" font-weight="bold" font-size="small" fill="#111">
1.2
</text>
<line x1="42.0" y1="212.25045695330985" x2="50.0" y2="212.25045695330985" stroke="#000"/>
<text x="26.000000000000004" y="212.25045695330985" text-anchor="end" font-weight="bold" font-size="small" fill="#111">
1.4
</text>
<line x1="42.0" y1="171.42909366092562" x2="50.0" y2="171.42909366092562" stroke="#000"/>
<text x="26.000000000000004" y="171.42909366092562" text-anchor="end" font-weight="bold" font-size="small" fill="#111">
1.6
</text>
<line x1="42.0" y1="130.60773036854133" x2="50.0" y2="130.60773036854133" stroke="#000"/>
<text x="26.000000000000004" y="130.60773036854133" text-anchor="end" font-weight="bold" font-size="small" fill="#111">
1.8
</text>
<rect x="197.99999999999997" y="36.00000000000001" width="80.0" height="18.0" fill="#7070f8" stroke="#888"/>
<text x="238.0" y="52.50000000000001" font-size="small" text-anchor="middle" font-weight="bold" fill="#EEE">
No JIT
</text>
<rect x="479.99999999999994" y="36.00000000000001" width="80.0" height="18.0" fill="orange" stroke="#888"/>
<text x="519.9999999999999" y="52.50000000000001" font-size="small" text-anchor="middle" font-weight="bold" fill="#EEE">
MJIT3.0
</text>
<rect x="761.9999999999999" y="36.00000000000001" width="80.0" height="18.0" fill="green" stroke="#888"/>
<text x="801.9999999999999" y="52.50000000000001" font-size="small" text-anchor="middle" font-weight="bold" fill="#EEE">
YJIT
</text>
<rect x="97.0" y="293.89318353807846" width="35.25" height="204.10681646192148" fill="#7070f8" data-tooltip="1.00x baseline speed (No JIT)"/>
<line x1="97.0" y1="293.36442588325514" x2="132.25" y2="293.36442588325514" stroke="#000"/>
<line x1="97.0" y1="294.4219411929018" x2="132.25" y2="294.4219411929018" stroke="#000"/>
<line x1="114.625" y1="293.36442588325514" x2="114.625" y2="294.4219411929018" stroke="#000"/>
<rect x="132.25" y="188.0924370663403" width="35.25" height="309.9075629336596" fill="orange" data-tooltip="1.52x baseline speed (MJIT3.0)"/>
<line x1="132.25" y1="186.56732339619776" x2="167.5" y2="186.56732339619776" stroke="#000"/>
<line x1="132.25" y1="189.61755073648283" x2="167.5" y2="189.61755073648283" stroke="#000"/>
<line x1="149.875" y1="186.56732339619776" x2="149.875" y2="189.61755073648283" stroke="#000"/>
<rect x="167.49999999999997" y="236.10735667457257" width="35.25" height="261.8926433254274" fill="green" data-tooltip="1.28x baseline speed (YJIT)"/>
<line x1="167.49999999999997" y1="234.69600948609096" x2="202.75" y2="234.69600948609096" stroke="#000"/>
<line x1="167.49999999999997" y1="237.51870386305418" x2="202.75" y2="237.51870386305418" stroke="#000"/>
<line x1="185.12499999999997" y1="234.69600948609096" x2="185.12499999999997" y2="237.51870386305418" stroke="#000"/>
<line x1="167.49999999999997" y1="498.0" x2="167.49999999999997" y2="502.79999999999995" stroke="#000"/>
<text x="167.49999999999997" y="512.4" fill="#111" font-size="small" font-family="monospace" font-weight="bold" text-anchor="end" transform="rotate(-60, 167.49999999999997, 512.4)">
binarytrees
</text>
<rect x="238.0" y="293.89318353807846" width="35.25" height="204.10681646192148" fill="#7070f8" data-tooltip="1.00x baseline speed (No JIT)"/>
<line x1="238.0" y1="293.85691312377645" x2="273.25" y2="293.85691312377645" stroke="#000"/>
<line x1="238.0" y1="293.92945395238047" x2="273.25" y2="293.92945395238047" stroke="#000"/>
<line x1="255.625" y1="293.85691312377645" x2="255.625" y2="293.92945395238047" stroke="#000"/>
<rect x="273.25" y="212.85437032480198" width="35.25" height="285.14562967519794" fill="orange" data-tooltip="1.40x baseline speed (MJIT3.0)"/>
<line x1="273.25" y1="212.6575480105152" x2="308.5" y2="212.6575480105152" stroke="#000"/>
<line x1="273.25" y1="213.05119263908878" x2="308.5" y2="213.05119263908878" stroke="#000"/>
<line x1="290.875" y1="212.6575480105152" x2="290.875" y2="213.05119263908878" stroke="#000"/>
<rect x="308.5" y="293.94629025175186" width="35.25" height="204.05370974824808" fill="green" data-tooltip="1.00x baseline speed (YJIT)"/>
<line x1="308.5" y1="293.701962445412" x2="343.75" y2="293.701962445412" stroke="#000"/>
<line x1="308.5" y1="294.1906180580918" x2="343.75" y2="294.1906180580918" stroke="#000"/>
<line x1="326.125" y1="293.701962445412" x2="326.125" y2="294.1906180580918" stroke="#000"/>
<line x1="308.5" y1="498.0" x2="308.5" y2="502.79999999999995" stroke="#000"/>
<text x="308.5" y="512.4" fill="#111" font-size="small" font-family="monospace" font-weight="bold" text-anchor="end" transform="rotate(-60, 308.5, 512.4)">
fannkuchredux
</text>
<rect x="379.0" y="293.89318353807846" width="35.25" height="204.10681646192148" fill="#7070f8" data-tooltip="1.00x baseline speed (No JIT)"/>
<line x1="379.0" y1="288.88039475328287" x2="414.25" y2="288.88039475328287" stroke="#000"/>
<line x1="379.0" y1="298.90597232287405" x2="414.25" y2="298.90597232287405" stroke="#000"/>
<line x1="396.625" y1="288.88039475328287" x2="396.625" y2="298.90597232287405" stroke="#000"/>
<rect x="414.25" y="291.3489232310198" width="35.25" height="206.65107676898018" fill="orange" data-tooltip="1.01x baseline speed (MJIT3.0)"/>
<line x1="414.25" y1="284.3483345535672" x2="449.5" y2="284.3483345535672" stroke="#000"/>
<line x1="414.25" y1="298.3495119084724" x2="449.5" y2="298.3495119084724" stroke="#000"/>
<line x1="431.875" y1="284.3483345535672" x2="431.875" y2="298.3495119084724" stroke="#000"/>
<rect x="449.5" y="274.31877685325657" width="35.25" height="223.68122314674338" fill="green" data-tooltip="1.10x baseline speed (YJIT)"/>
<line x1="449.5" y1="266.07213668343456" x2="484.75" y2="266.07213668343456" stroke="#000"/>
<line x1="449.5" y1="282.56541702307857" x2="484.75" y2="282.56541702307857" stroke="#000"/>
<line x1="467.125" y1="266.07213668343456" x2="467.125" y2="282.56541702307857" stroke="#000"/>
<line x1="449.5" y1="498.0" x2="449.5" y2="502.79999999999995" stroke="#000"/>
<text x="449.5" y="512.4" fill="#111" font-size="small" font-family="monospace" font-weight="bold" text-anchor="end" transform="rotate(-60, 449.5, 512.4)">
jekyll
</text>
<rect x="519.9999999999999" y="293.89318353807846" width="35.25" height="204.10681646192148" fill="#7070f8" data-tooltip="1.00x baseline speed (No JIT)"/>
<line x1="519.9999999999999" y1="291.43186960415875" x2="555.2499999999999" y2="291.43186960415875" stroke="#000"/>
<line x1="519.9999999999999" y1="296.3544974719982" x2="555.2499999999999" y2="296.3544974719982" stroke="#000"/>
<line x1="537.6249999999999" y1="291.43186960415875" x2="537.6249999999999" y2="296.3544974719982" stroke="#000"/>
<rect x="555.2499999999999" y="237.6638668852513" width="35.25" height="260.33613311474863" fill="orange" data-tooltip="1.28x baseline speed (MJIT3.0)"/>
<line x1="555.2499999999999" y1="233.37724600834684" x2="590.4999999999999" y2="233.37724600834684" stroke="#000"/>
<line x1="555.2499999999999" y1="241.95048776215577" x2="590.4999999999999" y2="241.95048776215577" stroke="#000"/>
<line x1="572.8749999999999" y1="233.37724600834684" x2="572.8749999999999" y2="241.95048776215577" stroke="#000"/>
<rect x="590.4999999999999" y="213.65146118003864" width="35.25" height="284.3485388199613" fill="green" data-tooltip="1.39x baseline speed (YJIT)"/>
<line x1="590.4999999999999" y1="207.76768371225995" x2="625.7499999999999" y2="207.76768371225995" stroke="#000"/>
<line x1="590.4999999999999" y1="219.53523864781735" x2="625.7499999999999" y2="219.53523864781735" stroke="#000"/>
<line x1="608.1249999999999" y1="207.76768371225995" x2="608.1249999999999" y2="219.53523864781735" stroke="#000"/>
<line x1="590.4999999999999" y1="498.0" x2="590.4999999999999" y2="502.79999999999995" stroke="#000"/>
<text x="590.4999999999999" y="512.4" fill="#111" font-size="small" font-family="monospace" font-weight="bold" text-anchor="end" transform="rotate(-60, 590.4999999999999, 512.4)">
lee
</text>
<rect x="660.9999999999999" y="293.89318353807846" width="35.25" height="204.10681646192148" fill="#7070f8" data-tooltip="1.00x baseline speed (No JIT)"/>
<line x1="660.9999999999999" y1="293.77345887976014" x2="696.2499999999999" y2="293.77345887976014" stroke="#000"/>
<line x1="660.9999999999999" y1="294.0129081963968" x2="696.2499999999999" y2="294.0129081963968" stroke="#000"/>
<line x1="678.6249999999999" y1="293.77345887976014" x2="678.6249999999999" y2="294.0129081963968" stroke="#000"/>
<rect x="696.2499999999999" y="166.08602312183243" width="35.25" height="331.91397687816755" fill="orange" data-tooltip="1.63x baseline speed (MJIT3.0)"/>
<line x1="696.2499999999999" y1="164.65277497438137" x2="731.4999999999999" y2="164.65277497438137" stroke="#000"/>
<line x1="696.2499999999999" y1="167.51927126928348" x2="731.4999999999999" y2="167.51927126928348" stroke="#000"/>
<line x1="713.8749999999999" y1="164.65277497438137" x2="713.8749999999999" y2="167.51927126928348" stroke="#000"/>
<rect x="731.4999999999999" y="291.890981689436" width="35.25" height="206.10901831056398" fill="green" data-tooltip="1.01x baseline speed (YJIT)"/>
<line x1="731.4999999999999" y1="291.6292444931657" x2="766.7499999999999" y2="291.6292444931657" stroke="#000"/>
<line x1="731.4999999999999" y1="292.1527188857063" x2="766.7499999999999" y2="292.1527188857063" stroke="#000"/>
<line x1="749.1249999999999" y1="291.6292444931657" x2="749.1249999999999" y2="292.1527188857063" stroke="#000"/>
<line x1="731.4999999999999" y1="498.0" x2="731.4999999999999" y2="502.79999999999995" stroke="#000"/>
<text x="731.4999999999999" y="512.4" fill="#111" font-size="small" font-family="monospace" font-weight="bold" text-anchor="end" transform="rotate(-60, 731.4999999999999, 512.4)">
nbody
</text>
<rect x="801.9999999999999" y="293.89318353807846" width="35.25" height="204.10681646192148" fill="#7070f8" data-tooltip="1.00x baseline speed (No JIT)"/>
<line x1="801.9999999999999" y1="292.9879109186319" x2="837.2499999999999" y2="292.9879109186319" stroke="#000"/>
<line x1="801.9999999999999" y1="294.79845615752504" x2="837.2499999999999" y2="294.79845615752504" stroke="#000"/>
<line x1="819.6249999999999" y1="292.9879109186319" x2="819.6249999999999" y2="294.79845615752504" stroke="#000"/>
<rect x="837.2499999999999" y="100.19999999999999" width="35.25" height="397.79999999999995" fill="orange" data-tooltip="1.95x baseline speed (MJIT3.0)"/>
<line x1="837.2499999999999" y1="97.63054037674796" x2="872.4999999999999" y2="97.63054037674796" stroke="#000"/>
<line x1="837.2499999999999" y1="102.76945962325202" x2="872.4999999999999" y2="102.76945962325202" stroke="#000"/>
<line x1="854.8749999999999" y1="97.63054037674796" x2="854.8749999999999" y2="102.76945962325202" stroke="#000"/>
<rect x="872.4999999999999" y="153.48015729534276" width="35.25" height="344.51984270465715" fill="green" data-tooltip="1.69x baseline speed (YJIT)"/>
<line x1="872.4999999999999" y1="151.59699644736716" x2="907.75" y2="151.59699644736716" stroke="#000"/>
<line x1="872.4999999999999" y1="155.3633181433184" x2="907.75" y2="155.3633181433184" stroke="#000"/>
<line x1="890.125" y1="151.59699644736716" x2="890.125" y2="155.3633181433184" stroke="#000"/>
<line x1="872.4999999999999" y1="498.0" x2="872.4999999999999" y2="502.79999999999995" stroke="#000"/>
<text x="872.4999999999999" y="512.4" fill="#111" font-size="small" font-family="monospace" font-weight="bold" text-anchor="end" transform="rotate(-60, 872.4999999999999, 512.4)">
optcarrot
</text>
</svg>