<svg viewBox="0 0 1000 600" xmlns="http://www.w3.org/2000/svg" xmlns:xlink="http://www.w3.org/1999/xlink" width="100%" height="100%">

<rect x="50.0" y="30.0" width="940.0" height="467.99999999999994" stroke="#000" fill="#fff"/>
<line x1="42.0" y1="497.9999999999999" x2="50.0" y2="497.9999999999999" stroke="#000"/>
<text x="26.000000000000004" y="497.9999999999999" text-anchor="end" font-weight="bold" font-size="small" fill="#111">
0.0
</text>
<line x1="42.0" y1="400.18573250031875" x2="50.0" y2="400.18573250031875" stroke="#000"/>
<text x="26.000000000000004" y="400.18573250031875" text-anchor="end" font-weight="bold" font-size="small" fill="#111">
0.5
</text>
<line x1="42.0" y1="302.3714650006374" x2="50.0" y2="302.3714650006374" stroke="#000"/>
<text x="26.000000000000004" y="302.3714650006374" text-anchor="end" font-weight="bold" font-size="small" fill="#111">
1.0
</text>
<line x1="42.0" y1="204.55719750095622" x2="50.0" y2="204.55719750095622" stroke="#000"/>
<text x="26.000000000000004" y="204.55719750095622" text-anchor="end" font-weight="bold" font-size="small" fill="#111">
1.5
</text>
<line x1="42.0" y1="106.74293000127496" x2="50.0" y2="106.74293000127496" stroke="#000"/>
<text x="26.000000000000004" y="106.74293000127496" text-anchor="end" font-weight="bold" font-size="small" fill="#111">
2.0
</text>
<line x1="142.75" y1="54.60000000000001" x2="262.75" y2="54.60000000000001" stroke="#648FFF" stroke-width="2"/>
<text x="202.75" y="49.500000000000014" font-size="small" text-anchor="middle" font-weight="bold" fill="#000">
CRuby 3.3.6
</text>
<rect x="354.25" y="35.400000000000006" width="120.0" height="19.2" fill="#785EF0" stroke="none"/>
<text x="414.25" y="49.500000000000014" font-size="small" text-anchor="middle" font-weight="bold" fill="#fff" style="text-shadow: 0 0 1px #000;">
CRuby 3.5.0dev
</text>
<rect x="565.75" y="35.400000000000006" width="120.0" height="19.2" fill="#FFB000" stroke="none"/>
<text x="625.7499999999999" y="49.500000000000014" font-size="small" text-anchor="middle" font-weight="bold" fill="#fff" style="text-shadow: 0 0 1px #000;">
YJIT 3.3.6
</text>
<rect x="777.25" y="35.400000000000006" width="120.0" height="19.2" fill="#DC267F" stroke="none"/>
<text x="837.2499999999999" y="49.500000000000014" font-size="small" text-anchor="middle" font-weight="bold" fill="#fff" style="text-shadow: 0 0 1px #000;">
YJIT 3.5.0dev
</text>
<rect x="63.6231884057971" y="138.05008925156184" width="13.6231884057971" height="359.9499107484381" fill="#785EF0" data-tooltip="1.84x baseline (CRuby 3.5.0dev)"/>
<rect x="77.2463768115942" y="201.564694632156" width="13.6231884057971" height="296.4353053678439" fill="#FFB000" data-tooltip="1.52x baseline (YJIT 3.3.6)"/>
<rect x="90.8695652173913" y="100.19999999999999" width="13.6231884057971" height="397.79999999999995" fill="#DC267F" data-tooltip="2.03x baseline (YJIT 3.5.0dev)"/>
<line x1="84.05797101449275" y1="498.0" x2="84.05797101449275" y2="502.79999999999995" stroke="#000"/>
<text x="84.05797101449275" y="512.4" fill="#111" font-size="small" text-anchor="end" transform="rotate(-60, 84.05797101449275, 512.4)">
30k_ifelse
</text>
<rect x="118.1159420289855" y="287.27438137548916" width="13.6231884057971" height="210.7256186245108" fill="#785EF0" data-tooltip="1.08x baseline (CRuby 3.5.0dev)"/>
<rect x="131.7391304347826" y="263.89476261924625" width="13.6231884057971" height="234.1052373807537" fill="#FFB000" data-tooltip="1.20x baseline (YJIT 3.3.6)"/>
<rect x="145.36231884057972" y="269.3340394217562" width="13.6231884057971" height="228.66596057824378" fill="#DC267F" data-tooltip="1.17x baseline (YJIT 3.5.0dev)"/>
<line x1="138.55072463768116" y1="498.0" x2="138.55072463768116" y2="502.79999999999995" stroke="#000"/>
<text x="138.55072463768116" y="512.4" fill="#111" font-size="small" text-anchor="end" transform="rotate(-60, 138.55072463768116, 512.4)">
30k_methods
</text>
<rect x="172.6086956521739" y="370.9365261525009" width="13.6231884057971" height="127.06347384749904" fill="#785EF0" data-tooltip="0.65x baseline (CRuby 3.5.0dev)"/>
<rect x="186.231884057971" y="299.1277671647418" width="13.6231884057971" height="198.87223283525813" fill="#FFB000" data-tooltip="1.02x baseline (YJIT 3.3.6)"/>
<rect x="199.8550724637681" y="354.53161755716656" width="13.6231884057971" height="143.4683824428334" fill="#DC267F" data-tooltip="0.73x baseline (YJIT 3.5.0dev)"/>
<line x1="193.04347826086953" y1="498.0" x2="193.04347826086953" y2="502.79999999999995" stroke="#000"/>
<text x="193.04347826086953" y="512.4" fill="#111" font-size="small" text-anchor="end" transform="rotate(-60, 193.04347826086953, 512.4)">
attr_accessor
</text>
<rect x="227.1014492753623" y="371.5893018008293" width="13.6231884057971" height="126.41069819917068" fill="#785EF0" data-tooltip="0.65x baseline (CRuby 3.5.0dev)"/>
<rect x="240.7246376811594" y="299.7734764880297" width="13.6231884057971" height="198.22652351197024" fill="#FFB000" data-tooltip="1.01x baseline (YJIT 3.3.6)"/>
<rect x="254.3478260869565" y="355.37043065783524" width="13.6231884057971" height="142.6295693421647" fill="#DC267F" data-tooltip="0.73x baseline (YJIT 3.5.0dev)"/>
<line x1="247.536231884058" y1="498.0" x2="247.536231884058" y2="502.79999999999995" stroke="#000"/>
<text x="247.536231884058" y="512.4" fill="#111" font-size="small" text-anchor="end" transform="rotate(-60, 247.536231884058, 512.4)">
cfunc_itself
</text>
<rect x="281.59420289855075" y="368.73611658804026" width="13.6231884057971" height="129.2638834119597" fill="#785EF0" data-tooltip="0.66x baseline (CRuby 3.5.0dev)"/>
<rect x="295.21739130434787" y="298.98057039398185" width="13.6231884057971" height="199.01942960601812" fill="#FFB000" data-tooltip="1.02x baseline (YJIT 3.3.6)"/>
<rect x="308.840579710145" y="354.8371749585617" width="13.6231884057971" height="143.16282504143823" fill="#DC267F" data-tooltip="0.73x baseline (YJIT 3.5.0dev)"/>
<line x1="302.02898550724643" y1="498.0" x2="302.02898550724643" y2="502.79999999999995" stroke="#000"/>
<text x="302.02898550724643" y="512.4" fill="#111" font-size="small" text-anchor="end" transform="rotate(-60, 302.02898550724643, 512.4)">
fib
</text>
<rect x="336.08695652173924" y="371.1671895827159" width="13.6231884057971" height="126.83281041728411" fill="#785EF0" data-tooltip="0.65x baseline (CRuby 3.5.0dev)"/>
<rect x="349.71014492753636" y="299.4677493526926" width="13.6231884057971" height="198.53225064730736" fill="#FFB000" data-tooltip="1.01x baseline (YJIT 3.3.6)"/>
<rect x="363.3333333333335" y="354.86170940579467" width="13.6231884057971" height="143.13829059420527" fill="#DC267F" data-tooltip="0.73x baseline (YJIT 3.5.0dev)"/>
<line x1="356.5217391304349" y1="498.0" x2="356.5217391304349" y2="502.79999999999995" stroke="#000"/>
<text x="356.5217391304349" y="512.4" fill="#111" font-size="small" text-anchor="end" transform="rotate(-60, 356.5217391304349, 512.4)">
getivar
</text>
<rect x="390.5797101449278" y="368.7972941667704" width="13.6231884057971" height="129.20270583322952" fill="#785EF0" data-tooltip="0.66x baseline (CRuby 3.5.0dev)"/>
<rect x="404.2028985507249" y="299.0203861749917" width="13.6231884057971" height="198.97961382500822" fill="#FFB000" data-tooltip="1.02x baseline (YJIT 3.3.6)"/>
<rect x="417.82608695652203" y="354.9089341449276" width="13.6231884057971" height="143.09106585507234" fill="#DC267F" data-tooltip="0.73x baseline (YJIT 3.5.0dev)"/>
<line x1="411.0144927536235" y1="498.0" x2="411.0144927536235" y2="502.79999999999995" stroke="#000"/>
<text x="411.0144927536235" y="512.4" fill="#111" font-size="small" text-anchor="end" transform="rotate(-60, 411.0144927536235, 512.4)">
keyword_args
</text>
<rect x="445.0724637681163" y="358.65287080438594" width="13.6231884057971" height="139.347129195614" fill="#785EF0" data-tooltip="0.71x baseline (CRuby 3.5.0dev)"/>
<rect x="458.6956521739134" y="269.37181217732916" width="13.6231884057971" height="228.62818782267078" fill="#FFB000" data-tooltip="1.17x baseline (YJIT 3.3.6)"/>
<rect x="472.3188405797105" y="292.89393723868835" width="13.6231884057971" height="205.1060627613116" fill="#DC267F" data-tooltip="1.05x baseline (YJIT 3.5.0dev)"/>
<line x1="465.50724637681196" y1="498.0" x2="465.50724637681196" y2="502.79999999999995" stroke="#000"/>
<text x="465.50724637681196" y="512.4" fill="#111" font-size="small" text-anchor="end" transform="rotate(-60, 465.50724637681196, 512.4)">
loops-times
</text>
<rect x="499.56521739130477" y="372.5469790635568" width="13.6231884057971" height="125.45302093644321" fill="#785EF0" data-tooltip="0.64x baseline (CRuby 3.5.0dev)"/>
<rect x="513.188405797102" y="301.0807960609621" width="13.6231884057971" height="196.9192039390378" fill="#FFB000" data-tooltip="1.01x baseline (YJIT 3.3.6)"/>
<rect x="526.8115942028991" y="356.35830293448606" width="13.6231884057971" height="141.6416970655139" fill="#DC267F" data-tooltip="0.72x baseline (YJIT 3.5.0dev)"/>
<line x1="520.0000000000005" y1="498.0" x2="520.0000000000005" y2="502.79999999999995" stroke="#000"/>
<text x="520.0000000000005" y="512.4" fill="#111" font-size="small" text-anchor="end" transform="rotate(-60, 520.0000000000005, 512.4)">
object-new
</text>
<rect x="554.0579710144933" y="370.8750141416647" width="13.6231884057971" height="127.12498585833525" fill="#785EF0" data-tooltip="0.65x baseline (CRuby 3.5.0dev)"/>
<rect x="567.6811594202904" y="299.08985785615715" width="13.6231884057971" height="198.91014214384282" fill="#FFB000" data-tooltip="1.02x baseline (YJIT 3.3.6)"/>
<rect x="581.3043478260876" y="354.39239643870656" width="13.6231884057971" height="143.60760356129336" fill="#DC267F" data-tooltip="0.73x baseline (YJIT 3.5.0dev)"/>
<line x1="574.492753623189" y1="498.0" x2="574.492753623189" y2="502.79999999999995" stroke="#000"/>
<text x="574.492753623189" y="512.4" fill="#111" font-size="small" text-anchor="end" transform="rotate(-60, 574.492753623189, 512.4)">
respond_to
</text>
<rect x="608.5507246376818" y="368.1574273385071" width="13.6231884057971" height="129.84257266149282" fill="#785EF0" data-tooltip="0.66x baseline (CRuby 3.5.0dev)"/>
<rect x="622.1739130434789" y="301.2067993583898" width="13.6231884057971" height="196.79320064161018" fill="#FFB000" data-tooltip="1.01x baseline (YJIT 3.3.6)"/>
<rect x="635.797101449276" y="352.6285521085379" width="13.6231884057971" height="145.37144789146203" fill="#DC267F" data-tooltip="0.74x baseline (YJIT 3.5.0dev)"/>
<line x1="628.9855072463774" y1="498.0" x2="628.9855072463774" y2="502.79999999999995" stroke="#000"/>
<text x="628.9855072463774" y="512.4" fill="#111" font-size="small" text-anchor="end" transform="rotate(-60, 628.9855072463774, 512.4)">
ruby-xor
</text>
<rect x="663.0434782608703" y="371.5893018008293" width="13.6231884057971" height="126.41069819917068" fill="#785EF0" data-tooltip="0.65x baseline (CRuby 3.5.0dev)"/>
<rect x="676.6666666666674" y="299.8105906096384" width="13.6231884057971" height="198.18940939036156" fill="#FFB000" data-tooltip="1.01x baseline (YJIT 3.3.6)"/>
<rect x="690.2898550724645" y="355.07351768496585" width="13.6231884057971" height="142.92648231503412" fill="#DC267F" data-tooltip="0.73x baseline (YJIT 3.5.0dev)"/>
<line x1="683.4782608695659" y1="498.0" x2="683.4782608695659" y2="502.79999999999995" stroke="#000"/>
<text x="683.4782608695659" y="512.4" fill="#111" font-size="small" text-anchor="end" transform="rotate(-60, 683.4782608695659, 512.4)">
setivar
</text>
<rect x="717.5362318840588" y="371.2856401647678" width="13.6231884057971" height="126.71435983523213" fill="#785EF0" data-tooltip="0.65x baseline (CRuby 3.5.0dev)"/>
<rect x="731.1594202898559" y="299.17479883876297" width="13.6231884057971" height="198.82520116123692" fill="#FFB000" data-tooltip="1.02x baseline (YJIT 3.3.6)"/>
<rect x="744.782608695653" y="355.15362720833167" width="13.6231884057971" height="142.84637279166827" fill="#DC267F" data-tooltip="0.73x baseline (YJIT 3.5.0dev)"/>
<line x1="737.9710144927545" y1="498.0" x2="737.9710144927545" y2="502.79999999999995" stroke="#000"/>
<text x="737.9710144927545" y="512.4" fill="#111" font-size="small" text-anchor="end" transform="rotate(-60, 737.9710144927545, 512.4)">
setivar_object
</text>
<rect x="772.0289855072473" y="371.6001481618" width="13.6231884057971" height="126.3998518381999" fill="#785EF0" data-tooltip="0.65x baseline (CRuby 3.5.0dev)"/>
<rect x="785.6521739130444" y="299.32926134618117" width="13.6231884057971" height="198.67073865381874" fill="#FFB000" data-tooltip="1.02x baseline (YJIT 3.3.6)"/>
<rect x="799.2753623188415" y="355.4245287307889" width="13.6231884057971" height="142.57547126921108" fill="#DC267F" data-tooltip="0.73x baseline (YJIT 3.5.0dev)"/>
<line x1="792.463768115943" y1="498.0" x2="792.463768115943" y2="502.79999999999995" stroke="#000"/>
<text x="792.463768115943" y="512.4" fill="#111" font-size="small" text-anchor="end" transform="rotate(-60, 792.463768115943, 512.4)">
setivar_young
</text>
<rect x="826.5217391304358" y="331.48849833122955" width="13.6231884057971" height="166.51150166877042" fill="#785EF0" data-tooltip="0.85x baseline (CRuby 3.5.0dev)"/>
<rect x="840.1449275362329" y="247.12921029874497" width="13.6231884057971" height="250.87078970125498" fill="#FFB000" data-tooltip="1.28x baseline (YJIT 3.3.6)"/>
<rect x="853.76811594203" y="324.4258602633936" width="13.6231884057971" height="173.57413973660636" fill="#DC267F" data-tooltip="0.89x baseline (YJIT 3.5.0dev)"/>
<line x1="846.9565217391315" y1="498.0" x2="846.9565217391315" y2="502.79999999999995" stroke="#000"/>
<text x="846.9565217391315" y="512.4" fill="#111" font-size="small" text-anchor="end" transform="rotate(-60, 846.9565217391315, 512.4)">
str_concat
</text>
<rect x="881.0144927536243" y="372.32840622258976" width="13.6231884057971" height="125.67159377741017" fill="#785EF0" data-tooltip="0.64x baseline (CRuby 3.5.0dev)"/>
<rect x="894.6376811594214" y="300.9324772856289" width="13.6231884057971" height="197.06752271437097" fill="#FFB000" data-tooltip="1.01x baseline (YJIT 3.3.6)"/>
<rect x="908.2608695652185" y="356.1674672694173" width="13.6231884057971" height="141.8325327305827" fill="#DC267F" data-tooltip="0.73x baseline (YJIT 3.5.0dev)"/>
<line x1="901.44927536232" y1="498.0" x2="901.44927536232" y2="502.79999999999995" stroke="#000"/>
<text x="901.44927536232" y="512.4" fill="#111" font-size="small" text-anchor="end" transform="rotate(-60, 901.44927536232, 512.4)">
throw
</text>
<rect x="935.5072463768129" y="354.7191754396136" width="13.6231884057971" height="143.28082456038635" fill="#785EF0" data-tooltip="0.73x baseline (CRuby 3.5.0dev)"/>
<rect x="949.13043478261" y="287.66914202001504" width="13.6231884057971" height="210.3308579799849" fill="#FFB000" data-tooltip="1.08x baseline (YJIT 3.3.6)"/>
<rect x="962.7536231884071" y="335.4651371864883" width="13.6231884057971" height="162.53486281351164" fill="#DC267F" data-tooltip="0.83x baseline (YJIT 3.5.0dev)"/>
<line x1="955.9420289855085" y1="498.0" x2="955.9420289855085" y2="502.79999999999995" stroke="#000"/>
<text x="955.9420289855085" y="512.4" fill="#111" font-size="small" text-anchor="end" transform="rotate(-60, 955.9420289855085, 512.4)" font-style="italic">
geomean*
</text>
<line x1="50.0" y1="302.3714650006374" x2="990.0" y2="302.3714650006374" stroke="#648FFF" stroke-width="2"/>
<rect x="65.44818840579711" y="123.89008925156183" width="17.85" height="7.2" transform="rotate(-60, 72.43478260869566, 130.55008925156184)" fill="#fffa"/>
<text x="65.62318840579711" y="130.55008925156184" fill="#111" font-size="0.5em" text-anchor="start" textLength="17.5" transform="rotate(-60, 72.43478260869566, 130.55008925156184)" style="text-shadow: 0 0 1px #fff;">
1.84
</text>
<rect x="79.0713768115942" y="187.404694632156" width="17.85" height="7.2" transform="rotate(-60, 86.05797101449275, 194.064694632156)" fill="#fffa"/>
<text x="79.2463768115942" y="194.064694632156" fill="#111" font-size="0.5em" text-anchor="start" textLength="17.5" transform="rotate(-60, 86.05797101449275, 194.064694632156)" style="text-shadow: 0 0 1px #fff;">
1.52
</text>
<rect x="92.6945652173913" y="86.03999999999998" width="17.85" height="7.2" transform="rotate(-60, 99.68115942028984, 92.69999999999999)" fill="#fffa"/>
<text x="92.8695652173913" y="92.69999999999999" fill="#111" font-size="0.5em" text-anchor="start" textLength="17.5" transform="rotate(-60, 99.68115942028984, 92.69999999999999)" style="text-shadow: 0 0 1px #fff;">
2.03
</text>
<rect x="119.9409420289855" y="273.11438137548913" width="17.85" height="7.2" transform="rotate(-60, 126.92753623188405, 279.77438137548916)" fill="#fffa"/>
<text x="120.1159420289855" y="279.77438137548916" fill="#111" font-size="0.5em" text-anchor="start" textLength="17.5" transform="rotate(-60, 126.92753623188405, 279.77438137548916)" style="text-shadow: 0 0 1px #fff;">
1.08
</text>
<rect x="133.5641304347826" y="249.73476261924625" width="17.85" height="7.2" transform="rotate(-60, 140.55072463768118, 256.39476261924625)" fill="#fffa"/>
<text x="133.73913043478262" y="256.39476261924625" fill="#111" font-size="0.5em" text-anchor="start" textLength="17.5" transform="rotate(-60, 140.55072463768118, 256.39476261924625)" style="text-shadow: 0 0 1px #fff;">
1.20
</text>
<rect x="147.1873188405797" y="255.17403942175616" width="17.85" height="7.2" transform="rotate(-60, 154.17391304347828, 261.8340394217562)" fill="#fffa"/>
<text x="147.36231884057972" y="261.8340394217562" fill="#111" font-size="0.5em" text-anchor="start" textLength="17.5" transform="rotate(-60, 154.17391304347828, 261.8340394217562)" style="text-shadow: 0 0 1px #fff;">
1.17
</text>
<rect x="174.4336956521739" y="356.77652615250094" width="17.85" height="7.2" transform="rotate(-60, 181.42028985507247, 363.43652615250096)" fill="#fffa"/>
<text x="174.6086956521739" y="363.43652615250096" fill="#111" font-size="0.5em" text-anchor="start" textLength="17.5" transform="rotate(-60, 181.42028985507247, 363.43652615250096)" style="text-shadow: 0 0 1px #fff;">
0.65
</text>
<rect x="188.056884057971" y="284.9677671647418" width="17.85" height="7.2" transform="rotate(-60, 195.04347826086956, 291.6277671647418)" fill="#fffa"/>
<text x="188.231884057971" y="291.6277671647418" fill="#111" font-size="0.5em" text-anchor="start" textLength="17.5" transform="rotate(-60, 195.04347826086956, 291.6277671647418)" style="text-shadow: 0 0 1px #fff;">
1.02
</text>
<rect x="201.68007246376808" y="340.3716175571666" width="17.85" height="7.2" transform="rotate(-60, 208.66666666666666, 347.03161755716656)" fill="#fffa"/>
<text x="201.8550724637681" y="347.03161755716656" fill="#111" font-size="0.5em" text-anchor="start" textLength="17.5" transform="rotate(-60, 208.66666666666666, 347.03161755716656)" style="text-shadow: 0 0 1px #fff;">
0.73
</text>
<rect x="228.9264492753623" y="357.4293018008293" width="17.85" height="7.2" transform="rotate(-60, 235.91304347826087, 364.08930180082933)" fill="#fffa"/>
<text x="229.1014492753623" y="364.08930180082933" fill="#111" font-size="0.5em" text-anchor="start" textLength="17.5" transform="rotate(-60, 235.91304347826087, 364.08930180082933)" style="text-shadow: 0 0 1px #fff;">
0.65
</text>
<rect x="242.5496376811594" y="285.61347648802973" width="17.85" height="7.2" transform="rotate(-60, 249.53623188405797, 292.2734764880297)" fill="#fffa"/>
<text x="242.7246376811594" y="292.2734764880297" fill="#111" font-size="0.5em" text-anchor="start" textLength="17.5" transform="rotate(-60, 249.53623188405797, 292.2734764880297)" style="text-shadow: 0 0 1px #fff;">
1.01
</text>
<rect x="256.1728260869565" y="341.2104306578353" width="17.85" height="7.2" transform="rotate(-60, 263.15942028985506, 347.87043065783524)" fill="#fffa"/>
<text x="256.3478260869565" y="347.87043065783524" fill="#111" font-size="0.5em" text-anchor="start" textLength="17.5" transform="rotate(-60, 263.15942028985506, 347.87043065783524)" style="text-shadow: 0 0 1px #fff;">
0.73
</text>
<rect x="283.4192028985508" y="354.5761165880403" width="17.85" height="7.2" transform="rotate(-60, 290.4057971014493, 361.2361165880403)" fill="#fffa"/>
<text x="283.59420289855075" y="361.2361165880403" fill="#111" font-size="0.5em" text-anchor="start" textLength="17.5" transform="rotate(-60, 290.4057971014493, 361.2361165880403)" style="text-shadow: 0 0 1px #fff;">
0.66
</text>
<rect x="297.0423913043479" y="284.8205703939818" width="17.85" height="7.2" transform="rotate(-60, 304.02898550724643, 291.4805703939818)" fill="#fffa"/>
<text x="297.21739130434787" y="291.4805703939818" fill="#111" font-size="0.5em" text-anchor="start" textLength="17.5" transform="rotate(-60, 304.02898550724643, 291.4805703939818)" style="text-shadow: 0 0 1px #fff;">
1.02
</text>
<rect x="310.66557971014504" y="340.67717495856175" width="17.85" height="7.2" transform="rotate(-60, 317.65217391304355, 347.3371749585617)" fill="#fffa"/>
<text x="310.840579710145" y="347.3371749585617" fill="#111" font-size="0.5em" text-anchor="start" textLength="17.5" transform="rotate(-60, 317.65217391304355, 347.3371749585617)" style="text-shadow: 0 0 1px #fff;">
0.73
</text>
<rect x="337.9119565217393" y="357.0071895827159" width="17.85" height="7.2" transform="rotate(-60, 344.8985507246378, 363.6671895827159)" fill="#fffa"/>
<text x="338.08695652173924" y="363.6671895827159" fill="#111" font-size="0.5em" text-anchor="start" textLength="17.5" transform="rotate(-60, 344.8985507246378, 363.6671895827159)" style="text-shadow: 0 0 1px #fff;">
0.65
</text>
<rect x="351.5351449275364" y="285.3077493526926" width="17.85" height="7.2" transform="rotate(-60, 358.5217391304349, 291.9677493526926)" fill="#fffa"/>
<text x="351.71014492753636" y="291.9677493526926" fill="#111" font-size="0.5em" text-anchor="start" textLength="17.5" transform="rotate(-60, 358.5217391304349, 291.9677493526926)" style="text-shadow: 0 0 1px #fff;">
1.01
</text>
<rect x="365.15833333333353" y="340.7017094057947" width="17.85" height="7.2" transform="rotate(-60, 372.14492753623205, 347.36170940579467)" fill="#fffa"/>
<text x="365.3333333333335" y="347.36170940579467" fill="#111" font-size="0.5em" text-anchor="start" textLength="17.5" transform="rotate(-60, 372.14492753623205, 347.36170940579467)" style="text-shadow: 0 0 1px #fff;">
0.73
</text>
<rect x="392.4047101449278" y="354.63729416677046" width="17.85" height="7.2" transform="rotate(-60, 399.39130434782635, 361.2972941667704)" fill="#fffa"/>
<text x="392.5797101449278" y="361.2972941667704" fill="#111" font-size="0.5em" text-anchor="start" textLength="17.5" transform="rotate(-60, 399.39130434782635, 361.2972941667704)" style="text-shadow: 0 0 1px #fff;">
0.66
</text>
<rect x="406.0278985507249" y="284.86038617499173" width="17.85" height="7.2" transform="rotate(-60, 413.0144927536235, 291.5203861749917)" fill="#fffa"/>
<text x="406.2028985507249" y="291.5203861749917" fill="#111" font-size="0.5em" text-anchor="start" textLength="17.5" transform="rotate(-60, 413.0144927536235, 291.5203861749917)" style="text-shadow: 0 0 1px #fff;">
1.02
</text>
<rect x="419.651086956522" y="340.74893414492766" width="17.85" height="7.2" transform="rotate(-60, 426.6376811594206, 347.4089341449276)" fill="#fffa"/>
<text x="419.82608695652203" y="347.4089341449276" fill="#111" font-size="0.5em" text-anchor="start" textLength="17.5" transform="rotate(-60, 426.6376811594206, 347.4089341449276)" style="text-shadow: 0 0 1px #fff;">
0.73
</text>
<rect x="446.89746376811627" y="344.492870804386" width="17.85" height="7.2" transform="rotate(-60, 453.88405797101484, 351.152870804386)" fill="#fffa"/>
<text x="447.0724637681163" y="351.152870804386" fill="#111" font-size="0.5em" text-anchor="start" textLength="17.5" transform="rotate(-60, 453.88405797101484, 351.152870804386)" style="text-shadow: 0 0 1px #fff;">
0.71
</text>
<rect x="460.5206521739134" y="255.21181217732916" width="17.85" height="7.2" transform="rotate(-60, 467.50724637681196, 261.87181217732916)" fill="#fffa"/>
<text x="460.6956521739134" y="261.87181217732916" fill="#111" font-size="0.5em" text-anchor="start" textLength="17.5" transform="rotate(-60, 467.50724637681196, 261.87181217732916)" style="text-shadow: 0 0 1px #fff;">
1.17
</text>
<rect x="474.1438405797105" y="278.7339372386884" width="17.85" height="7.2" transform="rotate(-60, 481.1304347826091, 285.39393723868835)" fill="#fffa"/>
<text x="474.3188405797105" y="285.39393723868835" fill="#111" font-size="0.5em" text-anchor="start" textLength="17.5" transform="rotate(-60, 481.1304347826091, 285.39393723868835)" style="text-shadow: 0 0 1px #fff;">
1.05
</text>
<rect x="501.39021739130476" y="358.38697906355685" width="17.85" height="7.2" transform="rotate(-60, 508.37681159420333, 365.0469790635568)" fill="#fffa"/>
<text x="501.56521739130477" y="365.0469790635568" fill="#111" font-size="0.5em" text-anchor="start" textLength="17.5" transform="rotate(-60, 508.37681159420333, 365.0469790635568)" style="text-shadow: 0 0 1px #fff;">
0.64
</text>
<rect x="515.0134057971019" y="286.9207960609621" width="17.85" height="7.2" transform="rotate(-60, 522.0000000000005, 293.5807960609621)" fill="#fffa"/>
<text x="515.188405797102" y="293.5807960609621" fill="#111" font-size="0.5em" text-anchor="start" textLength="17.5" transform="rotate(-60, 522.0000000000005, 293.5807960609621)" style="text-shadow: 0 0 1px #fff;">
1.01
</text>
<rect x="528.636594202899" y="342.1983029344861" width="17.85" height="7.2" transform="rotate(-60, 535.6231884057976, 348.8583029344861)" fill="#fffa"/>
<text x="528.8115942028991" y="348.8583029344861" fill="#111" font-size="0.5em" text-anchor="start" textLength="17.5" transform="rotate(-60, 535.6231884057976, 348.8583029344861)" style="text-shadow: 0 0 1px #fff;">
0.72
</text>
<rect x="555.8829710144933" y="356.7150141416647" width="17.85" height="7.2" transform="rotate(-60, 562.8695652173918, 363.3750141416647)" fill="#fffa"/>
<text x="556.0579710144933" y="363.3750141416647" fill="#111" font-size="0.5em" text-anchor="start" textLength="17.5" transform="rotate(-60, 562.8695652173918, 363.3750141416647)" style="text-shadow: 0 0 1px #fff;">
0.65
</text>
<rect x="569.5061594202904" y="284.9298578561571" width="17.85" height="7.2" transform="rotate(-60, 576.492753623189, 291.58985785615715)" fill="#fffa"/>
<text x="569.6811594202904" y="291.58985785615715" fill="#111" font-size="0.5em" text-anchor="start" textLength="17.5" transform="rotate(-60, 576.492753623189, 291.58985785615715)" style="text-shadow: 0 0 1px #fff;">
1.02
</text>
<rect x="583.1293478260875" y="340.2323964387066" width="17.85" height="7.2" transform="rotate(-60, 590.1159420289861, 346.89239643870656)" fill="#fffa"/>
<text x="583.3043478260876" y="346.89239643870656" fill="#111" font-size="0.5em" text-anchor="start" textLength="17.5" transform="rotate(-60, 590.1159420289861, 346.89239643870656)" style="text-shadow: 0 0 1px #fff;">
0.73
</text>
<rect x="610.3757246376817" y="353.9974273385071" width="17.85" height="7.2" transform="rotate(-60, 617.3623188405803, 360.65742733850715)" fill="#fffa"/>
<text x="610.5507246376818" y="360.65742733850715" fill="#111" font-size="0.5em" text-anchor="start" textLength="17.5" transform="rotate(-60, 617.3623188405803, 360.65742733850715)" style="text-shadow: 0 0 1px #fff;">
0.66
</text>
<rect x="623.9989130434789" y="287.04679935838976" width="17.85" height="7.2" transform="rotate(-60, 630.9855072463774, 293.7067993583898)" fill="#fffa"/>
<text x="624.1739130434789" y="293.7067993583898" fill="#111" font-size="0.5em" text-anchor="start" textLength="17.5" transform="rotate(-60, 630.9855072463774, 293.7067993583898)" style="text-shadow: 0 0 1px #fff;">
1.01
</text>
<rect x="637.622101449276" y="338.46855210853795" width="17.85" height="7.2" transform="rotate(-60, 644.6086956521746, 345.128552108538)" fill="#fffa"/>
<text x="637.797101449276" y="345.128552108538" fill="#111" font-size="0.5em" text-anchor="start" textLength="17.5" transform="rotate(-60, 644.6086956521746, 345.128552108538)" style="text-shadow: 0 0 1px #fff;">
0.74
</text>
<rect x="664.8684782608702" y="357.4293018008293" width="17.85" height="7.2" transform="rotate(-60, 671.8550724637688, 364.08930180082933)" fill="#fffa"/>
<text x="665.0434782608703" y="364.08930180082933" fill="#111" font-size="0.5em" text-anchor="start" textLength="17.5" transform="rotate(-60, 671.8550724637688, 364.08930180082933)" style="text-shadow: 0 0 1px #fff;">
0.65
</text>
<rect x="678.4916666666674" y="285.65059060963836" width="17.85" height="7.2" transform="rotate(-60, 685.4782608695659, 292.3105906096384)" fill="#fffa"/>
<text x="678.6666666666674" y="292.3105906096384" fill="#111" font-size="0.5em" text-anchor="start" textLength="17.5" transform="rotate(-60, 685.4782608695659, 292.3105906096384)" style="text-shadow: 0 0 1px #fff;">
1.01
</text>
<rect x="692.1148550724645" y="340.9135176849659" width="17.85" height="7.2" transform="rotate(-60, 699.101449275363, 347.57351768496585)" fill="#fffa"/>
<text x="692.2898550724645" y="347.57351768496585" fill="#111" font-size="0.5em" text-anchor="start" textLength="17.5" transform="rotate(-60, 699.101449275363, 347.57351768496585)" style="text-shadow: 0 0 1px #fff;">
0.73
</text>
<rect x="719.3612318840587" y="357.12564016476784" width="17.85" height="7.2" transform="rotate(-60, 726.3478260869574, 363.78564016476787)" fill="#fffa"/>
<text x="719.5362318840588" y="363.78564016476787" fill="#111" font-size="0.5em" text-anchor="start" textLength="17.5" transform="rotate(-60, 726.3478260869574, 363.78564016476787)" style="text-shadow: 0 0 1px #fff;">
0.65
</text>
<rect x="732.9844202898558" y="285.014798838763" width="17.85" height="7.2" transform="rotate(-60, 739.9710144927545, 291.67479883876297)" fill="#fffa"/>
<text x="733.1594202898559" y="291.67479883876297" fill="#111" font-size="0.5em" text-anchor="start" textLength="17.5" transform="rotate(-60, 739.9710144927545, 291.67479883876297)" style="text-shadow: 0 0 1px #fff;">
1.02
</text>
<rect x="746.607608695653" y="340.9936272083317" width="17.85" height="7.2" transform="rotate(-60, 753.5942028985517, 347.6536272083317)" fill="#fffa"/>
<text x="746.782608695653" y="347.6536272083317" fill="#111" font-size="0.5em" text-anchor="start" textLength="17.5" transform="rotate(-60, 753.5942028985517, 347.6536272083317)" style="text-shadow: 0 0 1px #fff;">
0.73
</text>
<rect x="773.8539855072472" y="357.44014816180004" width="17.85" height="7.2" transform="rotate(-60, 780.8405797101459, 364.1001481618)" fill="#fffa"/>
<text x="774.0289855072473" y="364.1001481618" fill="#111" font-size="0.5em" text-anchor="start" textLength="17.5" transform="rotate(-60, 780.8405797101459, 364.1001481618)" style="text-shadow: 0 0 1px #fff;">
0.65
</text>
<rect x="787.4771739130443" y="285.1692613461812" width="17.85" height="7.2" transform="rotate(-60, 794.463768115943, 291.82926134618117)" fill="#fffa"/>
<text x="787.6521739130444" y="291.82926134618117" fill="#111" font-size="0.5em" text-anchor="start" textLength="17.5" transform="rotate(-60, 794.463768115943, 291.82926134618117)" style="text-shadow: 0 0 1px #fff;">
1.02
</text>
<rect x="801.1003623188415" y="341.2645287307889" width="17.85" height="7.2" transform="rotate(-60, 808.0869565217401, 347.9245287307889)" fill="#fffa"/>
<text x="801.2753623188415" y="347.9245287307889" fill="#111" font-size="0.5em" text-anchor="start" textLength="17.5" transform="rotate(-60, 808.0869565217401, 347.9245287307889)" style="text-shadow: 0 0 1px #fff;">
0.73
</text>
<rect x="828.3467391304358" y="317.3284983312296" width="17.85" height="7.2" transform="rotate(-60, 835.3333333333344, 323.98849833122955)" fill="#fffa"/>
<text x="828.5217391304358" y="323.98849833122955" fill="#111" font-size="0.5em" text-anchor="start" textLength="17.5" transform="rotate(-60, 835.3333333333344, 323.98849833122955)" style="text-shadow: 0 0 1px #fff;">
0.85
</text>
<rect x="841.969927536233" y="232.96921029874497" width="17.85" height="7.2" transform="rotate(-60, 848.9565217391315, 239.62921029874497)" fill="#fffa"/>
<text x="842.1449275362329" y="239.62921029874497" fill="#111" font-size="0.5em" text-anchor="start" textLength="17.5" transform="rotate(-60, 848.9565217391315, 239.62921029874497)" style="text-shadow: 0 0 1px #fff;">
1.28
</text>
<rect x="855.5931159420301" y="310.2658602633936" width="17.85" height="7.2" transform="rotate(-60, 862.5797101449286, 316.92586026339364)" fill="#fffa"/>
<text x="855.76811594203" y="316.92586026339364" fill="#111" font-size="0.5em" text-anchor="start" textLength="17.5" transform="rotate(-60, 862.5797101449286, 316.92586026339364)" style="text-shadow: 0 0 1px #fff;">
0.89
</text>
<rect x="882.8394927536243" y="358.1684062225898" width="17.85" height="7.2" transform="rotate(-60, 889.8260869565229, 364.8284062225898)" fill="#fffa"/>
<text x="883.0144927536243" y="364.8284062225898" fill="#111" font-size="0.5em" text-anchor="start" textLength="17.5" transform="rotate(-60, 889.8260869565229, 364.8284062225898)" style="text-shadow: 0 0 1px #fff;">
0.64
</text>
<rect x="896.4626811594214" y="286.77247728562895" width="17.85" height="7.2" transform="rotate(-60, 903.44927536232, 293.4324772856289)" fill="#fffa"/>
<text x="896.6376811594214" y="293.4324772856289" fill="#111" font-size="0.5em" text-anchor="start" textLength="17.5" transform="rotate(-60, 903.44927536232, 293.4324772856289)" style="text-shadow: 0 0 1px #fff;">
1.01
</text>
<rect x="910.0858695652186" y="342.0074672694173" width="17.85" height="7.2" transform="rotate(-60, 917.0724637681171, 348.66746726941733)" fill="#fffa"/>
<text x="910.2608695652185" y="348.66746726941733" fill="#111" font-size="0.5em" text-anchor="start" textLength="17.5" transform="rotate(-60, 917.0724637681171, 348.66746726941733)" style="text-shadow: 0 0 1px #fff;">
0.73
</text>
<rect x="937.3322463768128" y="340.5591754396136" width="17.85" height="7.2" transform="rotate(-60, 944.3188405797114, 347.21917543961365)" fill="#fffa"/>
<text x="937.5072463768129" y="347.21917543961365" fill="#111" font-size="0.5em" text-anchor="start" textLength="17.5" transform="rotate(-60, 944.3188405797114, 347.21917543961365)" style="text-shadow: 0 0 1px #fff;">
0.73
</text>
<rect x="950.9554347826099" y="273.509142020015" width="17.85" height="7.2" transform="rotate(-60, 957.9420289855085, 280.16914202001504)" fill="#fffa"/>
<text x="951.13043478261" y="280.16914202001504" fill="#111" font-size="0.5em" text-anchor="start" textLength="17.5" transform="rotate(-60, 957.9420289855085, 280.16914202001504)" style="text-shadow: 0 0 1px #fff;">
1.08
</text>
<rect x="964.578623188407" y="321.3051371864883" width="17.85" height="7.2" transform="rotate(-60, 971.5652173913056, 327.96513718648833)" fill="#fffa"/>
<text x="964.7536231884071" y="327.96513718648833" fill="#111" font-size="0.5em" text-anchor="start" textLength="17.5" transform="rotate(-60, 971.5652173913056, 327.96513718648833)" style="text-shadow: 0 0 1px #fff;">
0.83
</text>
</svg>