<svg viewBox="0 0 1000 600" xmlns="http://www.w3.org/2000/svg" xmlns:xlink="http://www.w3.org/1999/xlink" width="100%" height="100%">

<rect x="50.0" y="30.0" width="940.0" height="467.99999999999994" stroke="#000" fill="#EEE"/>
<line x1="42.0" y1="497.9999999999999" x2="50.0" y2="497.9999999999999" stroke="#000"/>
<text x="26.000000000000004" y="497.9999999999999" text-anchor="end" font-weight="bold" font-size="small" fill="#111">
0.0
</text>
<line x1="42.0" y1="444.9508962548643" x2="50.0" y2="444.9508962548643" stroke="#000"/>
<text x="26.000000000000004" y="444.9508962548643" text-anchor="end" font-weight="bold" font-size="small" fill="#111">
1.0
</text>
<line x1="42.0" y1="391.9017925097285" x2="50.0" y2="391.9017925097285" stroke="#000"/>
<text x="26.000000000000004" y="391.9017925097285" text-anchor="end" font-weight="bold" font-size="small" fill="#111">
2.0
</text>
<line x1="42.0" y1="338.85268876459287" x2="50.0" y2="338.85268876459287" stroke="#000"/>
<text x="26.000000000000004" y="338.85268876459287" text-anchor="end" font-weight="bold" font-size="small" fill="#111">
3.0
</text>
<line x1="42.0" y1="285.80358501945716" x2="50.0" y2="285.80358501945716" stroke="#000"/>
<text x="26.000000000000004" y="285.80358501945716" text-anchor="end" font-weight="bold" font-size="small" fill="#111">
4.0
</text>
<line x1="42.0" y1="232.75448127432148" x2="50.0" y2="232.75448127432148" stroke="#000"/>
<text x="26.000000000000004" y="232.75448127432148" text-anchor="end" font-weight="bold" font-size="small" fill="#111">
5.0
</text>
<line x1="42.0" y1="179.7053775291858" x2="50.0" y2="179.7053775291858" stroke="#000"/>
<text x="26.000000000000004" y="179.7053775291858" text-anchor="end" font-weight="bold" font-size="small" fill="#111">
6.0
</text>
<line x1="42.0" y1="126.65627378405007" x2="50.0" y2="126.65627378405007" stroke="#000"/>
<text x="26.000000000000004" y="126.65627378405007" text-anchor="end" font-weight="bold" font-size="small" fill="#111">
7.0
</text>
<rect x="268.5" y="36.00000000000001" width="80.0" height="18.0" fill="#7070f8" stroke="#888"/>
<text x="308.5" y="52.50000000000001" font-size="small" text-anchor="middle" font-weight="bold" fill="#EEE">
No JIT
</text>
<rect x="691.4999999999999" y="36.00000000000001" width="80.0" height="18.0" fill="orange" stroke="#888"/>
<text x="731.4999999999999" y="52.50000000000001" font-size="small" text-anchor="middle" font-weight="bold" fill="#EEE">
YJIT
</text>
<rect x="97.0" y="444.9508962548643" width="23.499999999999996" height="53.049103745135696" fill="#7070f8" data-tooltip="1.00x baseline speed (No JIT)"/>
<line x1="97.0" y1="444.9246004567622" x2="120.5" y2="444.9246004567622" stroke="#000"/>
<line x1="97.0" y1="444.9771920529663" x2="120.5" y2="444.9771920529663" stroke="#000"/>
<line x1="108.75" y1="444.9246004567622" x2="108.75" y2="444.9771920529663" stroke="#000"/>
<rect x="120.5" y="265.45386216584046" width="23.499999999999996" height="232.54613783415948" fill="orange" data-tooltip="4.38x baseline speed (YJIT)"/>
<line x1="120.5" y1="265.30189426567364" x2="144.0" y2="265.30189426567364" stroke="#000"/>
<line x1="120.5" y1="265.60583006600723" x2="144.0" y2="265.60583006600723" stroke="#000"/>
<line x1="132.25" y1="265.30189426567364" x2="132.25" y2="265.60583006600723" stroke="#000"/>
<line x1="132.25" y1="498.0" x2="132.25" y2="502.79999999999995" stroke="#000"/>
<text x="132.25" y="512.4" fill="#111" font-size="small" font-family="monospace" font-weight="bold" text-anchor="end" transform="rotate(-60, 132.25, 512.4)">
30k_ifelse
</text>
<rect x="167.49999999999997" y="444.9508962548643" width="23.499999999999996" height="53.049103745135696" fill="#7070f8" data-tooltip="1.00x baseline speed (No JIT)"/>
<line x1="167.49999999999997" y1="444.8762978959491" x2="190.99999999999997" y2="444.8762978959491" stroke="#000"/>
<line x1="167.49999999999997" y1="445.0254946137795" x2="190.99999999999997" y2="445.0254946137795" stroke="#000"/>
<line x1="179.25" y1="444.8762978959491" x2="179.25" y2="445.0254946137795" stroke="#000"/>
<rect x="190.99999999999997" y="189.58953538082704" width="23.499999999999996" height="308.4104646191729" fill="orange" data-tooltip="5.81x baseline speed (YJIT)"/>
<line x1="190.99999999999997" y1="189.08709533054483" x2="214.49999999999997" y2="189.08709533054483" stroke="#000"/>
<line x1="190.99999999999997" y1="190.09197543110923" x2="214.49999999999997" y2="190.09197543110923" stroke="#000"/>
<line x1="202.75" y1="189.08709533054483" x2="202.75" y2="190.09197543110923" stroke="#000"/>
<line x1="202.75" y1="498.0" x2="202.75" y2="502.79999999999995" stroke="#000"/>
<text x="202.75" y="512.4" fill="#111" font-size="small" font-family="monospace" font-weight="bold" text-anchor="end" transform="rotate(-60, 202.75, 512.4)">
30k_methods
</text>
<rect x="238.0" y="444.9508962548643" width="23.499999999999996" height="53.049103745135696" fill="#7070f8" data-tooltip="1.00x baseline speed (No JIT)"/>
<line x1="238.0" y1="444.9381501255592" x2="261.5" y2="444.9381501255592" stroke="#000"/>
<line x1="238.0" y1="444.96364238416936" x2="261.5" y2="444.96364238416936" stroke="#000"/>
<line x1="249.75" y1="444.9381501255592" x2="249.75" y2="444.96364238416936" stroke="#000"/>
<rect x="261.5" y="337.0803618351211" width="23.499999999999996" height="160.91963816487882" fill="orange" data-tooltip="3.03x baseline speed (YJIT)"/>
<line x1="261.5" y1="337.03741152787563" x2="285.00000000000006" y2="337.03741152787563" stroke="#000"/>
<line x1="261.5" y1="337.1233121423666" x2="285.00000000000006" y2="337.1233121423666" stroke="#000"/>
<line x1="273.25" y1="337.03741152787563" x2="273.25" y2="337.1233121423666" stroke="#000"/>
<line x1="273.25" y1="498.0" x2="273.25" y2="502.79999999999995" stroke="#000"/>
<text x="273.25" y="512.4" fill="#111" font-size="small" font-family="monospace" font-weight="bold" text-anchor="end" transform="rotate(-60, 273.25, 512.4)">
cfunc_itself
</text>
<rect x="308.5" y="444.9508962548643" width="23.499999999999996" height="53.049103745135696" fill="#7070f8" data-tooltip="1.00x baseline speed (No JIT)"/>
<line x1="308.5" y1="444.45854316730185" x2="332.0" y2="444.45854316730185" stroke="#000"/>
<line x1="308.5" y1="445.44324934242667" x2="332.0" y2="445.44324934242667" stroke="#000"/>
<line x1="320.25" y1="444.45854316730185" x2="320.25" y2="445.44324934242667" stroke="#000"/>
<rect x="332.0" y="290.39529262322355" width="23.499999999999996" height="207.60470737677636" fill="orange" data-tooltip="3.91x baseline speed (YJIT)"/>
<line x1="332.0" y1="288.46843337155" x2="355.50000000000006" y2="288.46843337155" stroke="#000"/>
<line x1="332.0" y1="292.32215187489714" x2="355.50000000000006" y2="292.32215187489714" stroke="#000"/>
<line x1="343.75" y1="288.46843337155" x2="343.75" y2="292.32215187489714" stroke="#000"/>
<line x1="343.75" y1="498.0" x2="343.75" y2="502.79999999999995" stroke="#000"/>
<text x="343.75" y="512.4" fill="#111" font-size="small" font-family="monospace" font-weight="bold" text-anchor="end" transform="rotate(-60, 343.75, 512.4)">
fib
</text>
<rect x="379.0" y="444.9508962548643" width="23.499999999999996" height="53.049103745135696" fill="#7070f8" data-tooltip="1.00x baseline speed (No JIT)"/>
<line x1="379.0" y1="442.9172816412771" x2="402.5" y2="442.9172816412771" stroke="#000"/>
<line x1="379.0" y1="446.9845108684514" x2="402.5" y2="446.9845108684514" stroke="#000"/>
<line x1="390.75" y1="442.9172816412771" x2="390.75" y2="446.9845108684514" stroke="#000"/>
<rect x="402.5" y="293.05674503623607" width="23.499999999999996" height="204.94325496376388" fill="orange" data-tooltip="3.86x baseline speed (YJIT)"/>
<line x1="402.5" y1="285.2002990173245" x2="426.00000000000006" y2="285.2002990173245" stroke="#000"/>
<line x1="402.5" y1="300.9131910551477" x2="426.00000000000006" y2="300.9131910551477" stroke="#000"/>
<line x1="414.25" y1="285.2002990173245" x2="414.25" y2="300.9131910551477" stroke="#000"/>
<line x1="414.25" y1="498.0" x2="414.25" y2="502.79999999999995" stroke="#000"/>
<text x="414.25" y="512.4" fill="#111" font-size="small" font-family="monospace" font-weight="bold" text-anchor="end" transform="rotate(-60, 414.25, 512.4)">
getivar
</text>
<rect x="449.5" y="444.9508962548643" width="23.499999999999996" height="53.049103745135696" fill="#7070f8" data-tooltip="1.00x baseline speed (No JIT)"/>
<line x1="449.5" y1="444.5387711095669" x2="473.00000000000006" y2="444.5387711095669" stroke="#000"/>
<line x1="449.5" y1="445.3630214001617" x2="473.00000000000006" y2="445.3630214001617" stroke="#000"/>
<line x1="461.25" y1="444.5387711095669" x2="461.25" y2="445.3630214001617" stroke="#000"/>
<rect x="473.00000000000006" y="215.49635369995633" width="23.499999999999996" height="282.5036463000436" fill="orange" data-tooltip="5.33x baseline speed (YJIT)"/>
<line x1="473.00000000000006" y1="213.30090090394035" x2="496.50000000000006" y2="213.30090090394035" stroke="#000"/>
<line x1="473.00000000000006" y1="217.69180649597234" x2="496.50000000000006" y2="217.69180649597234" stroke="#000"/>
<line x1="484.75" y1="213.30090090394035" x2="484.75" y2="217.69180649597234" stroke="#000"/>
<line x1="484.75" y1="498.0" x2="484.75" y2="502.79999999999995" stroke="#000"/>
<text x="484.75" y="512.4" fill="#111" font-size="small" font-family="monospace" font-weight="bold" text-anchor="end" transform="rotate(-60, 484.75, 512.4)">
keyword_args
</text>
<rect x="519.9999999999999" y="444.9508962548643" width="23.499999999999996" height="53.049103745135696" fill="#7070f8" data-tooltip="1.00x baseline speed (No JIT)"/>
<line x1="519.9999999999999" y1="444.6291796576321" x2="543.4999999999999" y2="444.6291796576321" stroke="#000"/>
<line x1="519.9999999999999" y1="445.2726128520965" x2="543.4999999999999" y2="445.2726128520965" stroke="#000"/>
<line x1="531.75" y1="444.6291796576321" x2="531.75" y2="445.2726128520965" stroke="#000"/>
<rect x="543.4999999999999" y="100.19999999999999" width="23.499999999999996" height="397.79999999999995" fill="orange" data-tooltip="7.50x baseline speed (YJIT)"/>
<line x1="543.4999999999999" y1="96.57131203153912" x2="566.9999999999999" y2="96.57131203153912" stroke="#000"/>
<line x1="543.4999999999999" y1="103.82868796846086" x2="566.9999999999999" y2="103.82868796846086" stroke="#000"/>
<line x1="555.2499999999999" y1="96.57131203153912" x2="555.2499999999999" y2="103.82868796846086" stroke="#000"/>
<line x1="555.2499999999999" y1="498.0" x2="555.2499999999999" y2="502.79999999999995" stroke="#000"/>
<text x="555.2499999999999" y="512.4" fill="#111" font-size="small" font-family="monospace" font-weight="bold" text-anchor="end" transform="rotate(-60, 555.2499999999999, 512.4)">
respond_to
</text>
<rect x="590.4999999999999" y="444.9508962548643" width="23.499999999999996" height="53.049103745135696" fill="#7070f8" data-tooltip="1.00x baseline speed (No JIT)"/>
<line x1="590.4999999999999" y1="444.6763539114215" x2="613.9999999999999" y2="444.6763539114215" stroke="#000"/>
<line x1="590.4999999999999" y1="445.2254385983071" x2="613.9999999999999" y2="445.2254385983071" stroke="#000"/>
<line x1="602.25" y1="444.6763539114215" x2="602.25" y2="445.2254385983071" stroke="#000"/>
<rect x="613.9999999999999" y="229.4794959340936" width="23.499999999999996" height="268.5205040659064" fill="orange" data-tooltip="5.06x baseline speed (YJIT)"/>
<line x1="613.9999999999999" y1="228.08929470236578" x2="637.4999999999999" y2="228.08929470236578" stroke="#000"/>
<line x1="613.9999999999999" y1="230.8696971658214" x2="637.4999999999999" y2="230.8696971658214" stroke="#000"/>
<line x1="625.7499999999999" y1="228.08929470236578" x2="625.7499999999999" y2="230.8696971658214" stroke="#000"/>
<line x1="625.7499999999999" y1="498.0" x2="625.7499999999999" y2="502.79999999999995" stroke="#000"/>
<text x="625.7499999999999" y="512.4" fill="#111" font-size="small" font-family="monospace" font-weight="bold" text-anchor="end" transform="rotate(-60, 625.7499999999999, 512.4)">
setivar
</text>
<rect x="660.9999999999999" y="444.9508962548643" width="23.499999999999996" height="53.049103745135696" fill="#7070f8" data-tooltip="1.00x baseline speed (No JIT)"/>
<line x1="660.9999999999999" y1="444.8052997651981" x2="684.4999999999999" y2="444.8052997651981" stroke="#000"/>
<line x1="660.9999999999999" y1="445.0964927445305" x2="684.4999999999999" y2="445.0964927445305" stroke="#000"/>
<line x1="672.75" y1="444.8052997651981" x2="672.75" y2="445.0964927445305" stroke="#000"/>
<rect x="684.4999999999999" y="354.4589370373501" width="23.499999999999996" height="143.54106296264982" fill="orange" data-tooltip="2.71x baseline speed (YJIT)"/>
<line x1="684.4999999999999" y1="354.0648217444995" x2="707.9999999999999" y2="354.0648217444995" stroke="#000"/>
<line x1="684.4999999999999" y1="354.8530523302007" x2="707.9999999999999" y2="354.8530523302007" stroke="#000"/>
<line x1="696.2499999999999" y1="354.0648217444995" x2="696.2499999999999" y2="354.8530523302007" stroke="#000"/>
<line x1="696.2499999999999" y1="498.0" x2="696.2499999999999" y2="502.79999999999995" stroke="#000"/>
<text x="696.2499999999999" y="512.4" fill="#111" font-size="small" font-family="monospace" font-weight="bold" text-anchor="end" transform="rotate(-60, 696.2499999999999, 512.4)">
setivar_object
</text>
<rect x="731.4999999999999" y="444.9508962548643" width="23.499999999999996" height="53.049103745135696" fill="#7070f8" data-tooltip="1.00x baseline speed (No JIT)"/>
<line x1="731.4999999999999" y1="444.8534744507382" x2="754.9999999999999" y2="444.8534744507382" stroke="#000"/>
<line x1="731.4999999999999" y1="445.04831805899033" x2="754.9999999999999" y2="445.04831805899033" stroke="#000"/>
<line x1="743.25" y1="444.8534744507382" x2="743.25" y2="445.04831805899033" stroke="#000"/>
<rect x="754.9999999999999" y="354.7397845762176" width="23.499999999999996" height="143.26021542378237" fill="orange" data-tooltip="2.70x baseline speed (YJIT)"/>
<line x1="754.9999999999999" y1="348.87501158914563" x2="778.4999999999999" y2="348.87501158914563" stroke="#000"/>
<line x1="754.9999999999999" y1="360.60455756328946" x2="778.4999999999999" y2="360.60455756328946" stroke="#000"/>
<line x1="766.7499999999999" y1="348.87501158914563" x2="766.7499999999999" y2="360.60455756328946" stroke="#000"/>
<line x1="766.7499999999999" y1="498.0" x2="766.7499999999999" y2="502.79999999999995" stroke="#000"/>
<text x="766.7499999999999" y="512.4" fill="#111" font-size="small" font-family="monospace" font-weight="bold" text-anchor="end" transform="rotate(-60, 766.7499999999999, 512.4)">
setivar_young
</text>
<rect x="801.9999999999999" y="444.9508962548643" width="23.499999999999996" height="53.049103745135696" fill="#7070f8" data-tooltip="1.00x baseline speed (No JIT)"/>
<line x1="801.9999999999999" y1="443.754008625833" x2="825.4999999999999" y2="443.754008625833" stroke="#000"/>
<line x1="801.9999999999999" y1="446.14778388389556" x2="825.4999999999999" y2="446.14778388389556" stroke="#000"/>
<line x1="813.75" y1="443.754008625833" x2="813.75" y2="446.14778388389556" stroke="#000"/>
<rect x="825.4999999999999" y="405.63566860094215" width="23.499999999999996" height="92.36433139905776" fill="orange" data-tooltip="1.74x baseline speed (YJIT)"/>
<line x1="825.4999999999999" y1="403.5448967469423" x2="848.9999999999999" y2="403.5448967469423" stroke="#000"/>
<line x1="825.4999999999999" y1="407.72644045494195" x2="848.9999999999999" y2="407.72644045494195" stroke="#000"/>
<line x1="837.2499999999999" y1="403.5448967469423" x2="837.2499999999999" y2="407.72644045494195" stroke="#000"/>
<line x1="837.2499999999999" y1="498.0" x2="837.2499999999999" y2="502.79999999999995" stroke="#000"/>
<text x="837.2499999999999" y="512.4" fill="#111" font-size="small" font-family="monospace" font-weight="bold" text-anchor="end" transform="rotate(-60, 837.2499999999999, 512.4)">
str_concat
</text>
<rect x="872.4999999999999" y="444.9508962548643" width="23.499999999999996" height="53.049103745135696" fill="#7070f8" data-tooltip="1.00x baseline speed (No JIT)"/>
<line x1="872.4999999999999" y1="444.89417970088647" x2="895.9999999999999" y2="444.89417970088647" stroke="#000"/>
<line x1="872.4999999999999" y1="445.00761280884205" x2="895.9999999999999" y2="445.00761280884205" stroke="#000"/>
<line x1="884.25" y1="444.89417970088647" x2="884.25" y2="445.00761280884205" stroke="#000"/>
<rect x="895.9999999999999" y="428.10612547089346" width="23.499999999999996" height="69.89387452910643" fill="orange" data-tooltip="1.32x baseline speed (YJIT)"/>
<line x1="895.9999999999999" y1="427.99523741801704" x2="919.4999999999999" y2="427.99523741801704" stroke="#000"/>
<line x1="895.9999999999999" y1="428.2170135237699" x2="919.4999999999999" y2="428.2170135237699" stroke="#000"/>
<line x1="907.75" y1="427.99523741801704" x2="907.75" y2="428.2170135237699" stroke="#000"/>
<line x1="907.75" y1="498.0" x2="907.75" y2="502.79999999999995" stroke="#000"/>
<text x="907.75" y="512.4" fill="#111" font-size="small" font-family="monospace" font-weight="bold" text-anchor="end" transform="rotate(-60, 907.75, 512.4)">
throw
</text>
</svg>