<svg viewBox="0 0 1000 600" xmlns="http://www.w3.org/2000/svg" xmlns:xlink="http://www.w3.org/1999/xlink" width="100%" height="100%">

<rect x="50.0" y="30.0" width="940.0" height="467.99999999999994" stroke="#000" fill="#EEE"/>
<line x1="42.0" y1="497.9999999999999" x2="50.0" y2="497.9999999999999" stroke="#000"/>
<text x="26.000000000000004" y="497.9999999999999" text-anchor="end" font-weight="bold" font-size="small" fill="#111">
0.0
</text>
<line x1="42.0" y1="431.173915821587" x2="50.0" y2="431.173915821587" stroke="#000"/>
<text x="26.000000000000004" y="431.173915821587" text-anchor="end" font-weight="bold" font-size="small" fill="#111">
2.0
</text>
<line x1="42.0" y1="364.34783164317423" x2="50.0" y2="364.34783164317423" stroke="#000"/>
<text x="26.000000000000004" y="364.34783164317423" text-anchor="end" font-weight="bold" font-size="small" fill="#111">
4.0
</text>
<line x1="42.0" y1="297.5217474647613" x2="50.0" y2="297.5217474647613" stroke="#000"/>
<text x="26.000000000000004" y="297.5217474647613" text-anchor="end" font-weight="bold" font-size="small" fill="#111">
6.0
</text>
<line x1="42.0" y1="230.69566328634838" x2="50.0" y2="230.69566328634838" stroke="#000"/>
<text x="26.000000000000004" y="230.69566328634838" text-anchor="end" font-weight="bold" font-size="small" fill="#111">
8.0
</text>
<line x1="42.0" y1="163.8695791079355" x2="50.0" y2="163.8695791079355" stroke="#000"/>
<text x="26.000000000000004" y="163.8695791079355" text-anchor="end" font-weight="bold" font-size="small" fill="#111">
10.0
</text>
<rect x="268.5" y="36.00000000000001" width="80.0" height="18.0" fill="#7070f8" stroke="#888"/>
<text x="308.5" y="52.50000000000001" font-size="small" text-anchor="middle" font-weight="bold" fill="#EEE">
No JIT
</text>
<rect x="691.4999999999999" y="36.00000000000001" width="80.0" height="18.0" fill="orange" stroke="#888"/>
<text x="731.4999999999999" y="52.50000000000001" font-size="small" text-anchor="middle" font-weight="bold" fill="#EEE">
YJIT
</text>
<rect x="97.0" y="464.5869579107935" width="8.057142857142857" height="33.41304208920644" fill="#7070f8" data-tooltip="1.00x baseline speed (No JIT)"/>
<line x1="97.0" y1="464.01346806723336" x2="105.05714285714286" y2="464.01346806723336" stroke="#000"/>
<line x1="97.0" y1="465.16044775435364" x2="105.05714285714286" y2="465.16044775435364" stroke="#000"/>
<line x1="101.02857142857142" y1="464.01346806723336" x2="101.02857142857142" y2="465.16044775435364" stroke="#000"/>
<rect x="105.05714285714286" y="432.076602739429" width="8.057142857142857" height="65.92339726057092" fill="orange" data-tooltip="1.97x baseline speed (YJIT)"/>
<line x1="105.05714285714286" y1="429.250872104649" x2="113.11428571428573" y2="429.250872104649" stroke="#000"/>
<line x1="105.05714285714286" y1="434.902333374209" x2="113.11428571428573" y2="434.902333374209" stroke="#000"/>
<line x1="109.08571428571429" y1="429.250872104649" x2="109.08571428571429" y2="434.902333374209" stroke="#000"/>
<line x1="109.08571428571429" y1="498.0" x2="109.08571428571429" y2="502.79999999999995" stroke="#000"/>
<text x="109.08571428571429" y="512.4" fill="#111" font-size="small" font-family="monospace" font-weight="bold" text-anchor="end" transform="rotate(-60, 109.08571428571429, 512.4)">
activerecord
</text>
<rect x="121.17142857142856" y="464.5869579107935" width="8.057142857142857" height="33.41304208920644" fill="#7070f8" data-tooltip="1.00x baseline speed (No JIT)"/>
<line x1="121.17142857142856" y1="464.5165622459569" x2="129.22857142857143" y2="464.5165622459569" stroke="#000"/>
<line x1="121.17142857142856" y1="464.6573535756301" x2="129.22857142857143" y2="464.6573535756301" stroke="#000"/>
<line x1="125.2" y1="464.5165622459569" x2="125.2" y2="464.6573535756301" stroke="#000"/>
<rect x="129.22857142857143" y="443.3145427050579" width="8.057142857142857" height="54.685457294942104" fill="orange" data-tooltip="1.64x baseline speed (YJIT)"/>
<line x1="129.22857142857143" y1="443.11134322446884" x2="137.28571428571425" y2="443.11134322446884" stroke="#000"/>
<line x1="129.22857142857143" y1="443.5177421856469" x2="137.28571428571425" y2="443.5177421856469" stroke="#000"/>
<line x1="133.25714285714284" y1="443.11134322446884" x2="133.25714285714284" y2="443.5177421856469" stroke="#000"/>
<line x1="133.25714285714284" y1="498.0" x2="133.25714285714284" y2="502.79999999999995" stroke="#000"/>
<text x="133.25714285714284" y="512.4" fill="#111" font-size="small" font-family="monospace" font-weight="bold" text-anchor="end" transform="rotate(-60, 133.25714285714284, 512.4)">
chunky-png
</text>
<rect x="145.34285714285713" y="464.5869579107935" width="8.057142857142857" height="33.41304208920644" fill="#7070f8" data-tooltip="1.00x baseline speed (No JIT)"/>
<line x1="145.34285714285713" y1="460.53005029329796" x2="153.39999999999998" y2="460.53005029329796" stroke="#000"/>
<line x1="145.34285714285713" y1="468.6438655282891" x2="153.39999999999998" y2="468.6438655282891" stroke="#000"/>
<line x1="149.37142857142857" y1="460.53005029329796" x2="149.37142857142857" y2="468.6438655282891" stroke="#000"/>
<rect x="153.39999999999998" y="437.0632002523009" width="8.057142857142857" height="60.93679974769904" fill="orange" data-tooltip="1.82x baseline speed (YJIT)"/>
<line x1="153.39999999999998" y1="421.26136502991716" x2="161.45714285714283" y2="421.26136502991716" stroke="#000"/>
<line x1="153.39999999999998" y1="452.8650354746846" x2="161.45714285714283" y2="452.8650354746846" stroke="#000"/>
<line x1="157.42857142857142" y1="421.26136502991716" x2="157.42857142857142" y2="452.8650354746846" stroke="#000"/>
<line x1="157.42857142857142" y1="498.0" x2="157.42857142857142" y2="502.79999999999995" stroke="#000"/>
<text x="157.42857142857142" y="512.4" fill="#111" font-size="small" font-family="monospace" font-weight="bold" text-anchor="end" transform="rotate(-60, 157.42857142857142, 512.4)">
erubi-rails
</text>
<rect x="169.51428571428573" y="464.5869579107935" width="8.057142857142857" height="33.41304208920644" fill="#7070f8" data-tooltip="1.00x baseline speed (No JIT)"/>
<line x1="169.51428571428573" y1="464.3413022992669" x2="177.57142857142858" y2="464.3413022992669" stroke="#000"/>
<line x1="169.51428571428573" y1="464.8326135223201" x2="177.57142857142858" y2="464.8326135223201" stroke="#000"/>
<line x1="173.54285714285717" y1="464.3413022992669" x2="173.54285714285717" y2="464.8326135223201" stroke="#000"/>
<rect x="177.57142857142858" y="442.20465641794357" width="8.057142857142857" height="55.79534358205645" fill="orange" data-tooltip="1.67x baseline speed (YJIT)"/>
<line x1="177.57142857142858" y1="440.4144327289347" x2="185.62857142857143" y2="440.4144327289347" stroke="#000"/>
<line x1="177.57142857142858" y1="443.9948801069524" x2="185.62857142857143" y2="443.9948801069524" stroke="#000"/>
<line x1="181.60000000000002" y1="440.4144327289347" x2="181.60000000000002" y2="443.9948801069524" stroke="#000"/>
<line x1="181.60000000000002" y1="498.0" x2="181.60000000000002" y2="502.79999999999995" stroke="#000"/>
<text x="181.60000000000002" y="512.4" fill="#111" font-size="small" font-family="monospace" font-weight="bold" text-anchor="end" transform="rotate(-60, 181.60000000000002, 512.4)">
hexapdf
</text>
<rect x="193.68571428571428" y="464.5869579107935" width="8.057142857142857" height="33.41304208920644" fill="#7070f8" data-tooltip="1.00x baseline speed (No JIT)"/>
<line x1="193.68571428571428" y1="464.465174668134" x2="201.74285714285713" y2="464.465174668134" stroke="#000"/>
<line x1="193.68571428571428" y1="464.70874115345305" x2="201.74285714285713" y2="464.70874115345305" stroke="#000"/>
<line x1="197.71428571428572" y1="464.465174668134" x2="197.71428571428572" y2="464.70874115345305" stroke="#000"/>
<rect x="201.74285714285713" y="451.04567765041236" width="8.057142857142857" height="46.954322349587514" fill="orange" data-tooltip="1.41x baseline speed (YJIT)"/>
<line x1="201.74285714285713" y1="450.7298273406818" x2="209.79999999999998" y2="450.7298273406818" stroke="#000"/>
<line x1="201.74285714285713" y1="451.36152796014295" x2="209.79999999999998" y2="451.36152796014295" stroke="#000"/>
<line x1="205.77142857142857" y1="450.7298273406818" x2="205.77142857142857" y2="451.36152796014295" stroke="#000"/>
<line x1="205.77142857142857" y1="498.0" x2="205.77142857142857" y2="502.79999999999995" stroke="#000"/>
<text x="205.77142857142857" y="512.4" fill="#111" font-size="small" font-family="monospace" font-weight="bold" text-anchor="end" transform="rotate(-60, 205.77142857142857, 512.4)">
liquid-c
</text>
<rect x="217.85714285714286" y="464.5869579107935" width="8.057142857142857" height="33.41304208920644" fill="#7070f8" data-tooltip="1.00x baseline speed (No JIT)"/>
<line x1="217.85714285714286" y1="463.47389165907776" x2="225.9142857142857" y2="463.47389165907776" stroke="#000"/>
<line x1="217.85714285714286" y1="465.70002416250924" x2="225.9142857142857" y2="465.70002416250924" stroke="#000"/>
<line x1="221.8857142857143" y1="463.47389165907776" x2="221.8857142857143" y2="465.70002416250924" stroke="#000"/>
<rect x="225.9142857142857" y="449.9866118353002" width="8.057142857142857" height="48.01338816469971" fill="orange" data-tooltip="1.44x baseline speed (YJIT)"/>
<line x1="225.9142857142857" y1="447.39621309822235" x2="233.97142857142856" y2="447.39621309822235" stroke="#000"/>
<line x1="225.9142857142857" y1="452.5770105723781" x2="233.97142857142856" y2="452.5770105723781" stroke="#000"/>
<line x1="229.94285714285715" y1="447.39621309822235" x2="229.94285714285715" y2="452.5770105723781" stroke="#000"/>
<line x1="229.94285714285715" y1="498.0" x2="229.94285714285715" y2="502.79999999999995" stroke="#000"/>
<text x="229.94285714285715" y="512.4" fill="#111" font-size="small" font-family="monospace" font-weight="bold" text-anchor="end" transform="rotate(-60, 229.94285714285715, 512.4)">
liquid-compile
</text>
<rect x="242.02857142857144" y="464.5869579107935" width="8.057142857142857" height="33.41304208920644" fill="#7070f8" data-tooltip="1.00x baseline speed (No JIT)"/>
<line x1="242.02857142857144" y1="464.5508460819412" x2="250.0857142857143" y2="464.5508460819412" stroke="#000"/>
<line x1="242.02857142857144" y1="464.62306973964587" x2="250.0857142857143" y2="464.62306973964587" stroke="#000"/>
<line x1="246.05714285714285" y1="464.5508460819412" x2="246.05714285714285" y2="464.62306973964587" stroke="#000"/>
<rect x="250.0857142857143" y="422.1040735963108" width="8.057142857142857" height="75.89592640368916" fill="orange" data-tooltip="2.27x baseline speed (YJIT)"/>
<line x1="250.0857142857143" y1="421.82671874534554" x2="258.14285714285717" y2="421.82671874534554" stroke="#000"/>
<line x1="250.0857142857143" y1="422.3814284472761" x2="258.14285714285717" y2="422.3814284472761" stroke="#000"/>
<line x1="254.11428571428573" y1="421.82671874534554" x2="254.11428571428573" y2="422.3814284472761" stroke="#000"/>
<line x1="254.11428571428573" y1="498.0" x2="254.11428571428573" y2="502.79999999999995" stroke="#000"/>
<text x="254.11428571428573" y="512.4" fill="#111" font-size="small" font-family="monospace" font-weight="bold" text-anchor="end" transform="rotate(-60, 254.11428571428573, 512.4)">
liquid-render
</text>
<rect x="266.2" y="464.5869579107935" width="8.057142857142857" height="33.41304208920644" fill="#7070f8" data-tooltip="1.00x baseline speed (No JIT)"/>
<line x1="266.2" y1="464.5536540262567" x2="274.25714285714287" y2="464.5536540262567" stroke="#000"/>
<line x1="266.2" y1="464.62026179533035" x2="274.25714285714287" y2="464.62026179533035" stroke="#000"/>
<line x1="270.22857142857146" y1="464.5536540262567" x2="270.22857142857146" y2="464.62026179533035" stroke="#000"/>
<rect x="274.25714285714287" y="452.7375361562059" width="8.057142857142857" height="45.26246384379398" fill="orange" data-tooltip="1.35x baseline speed (YJIT)"/>
<line x1="274.25714285714287" y1="452.65862567896727" x2="282.31428571428575" y2="452.65862567896727" stroke="#000"/>
<line x1="274.25714285714287" y1="452.81644663344457" x2="282.31428571428575" y2="452.81644663344457" stroke="#000"/>
<line x1="278.2857142857143" y1="452.65862567896727" x2="278.2857142857143" y2="452.81644663344457" stroke="#000"/>
<line x1="278.2857142857143" y1="498.0" x2="278.2857142857143" y2="502.79999999999995" stroke="#000"/>
<text x="278.2857142857143" y="512.4" fill="#111" font-size="small" font-family="monospace" font-weight="bold" text-anchor="end" transform="rotate(-60, 278.2857142857143, 512.4)">
mail
</text>
<rect x="290.37142857142857" y="464.5869579107935" width="8.057142857142857" height="33.41304208920644" fill="#7070f8" data-tooltip="1.00x baseline speed (No JIT)"/>
<line x1="290.37142857142857" y1="464.5758427901463" x2="298.42857142857144" y2="464.5758427901463" stroke="#000"/>
<line x1="290.37142857142857" y1="464.5980730314407" x2="298.42857142857144" y2="464.5980730314407" stroke="#000"/>
<line x1="294.4" y1="464.5758427901463" x2="294.4" y2="464.5980730314407" stroke="#000"/>
<rect x="298.42857142857144" y="450.3311160680465" width="8.057142857142857" height="47.668883931953346" fill="orange" data-tooltip="1.43x baseline speed (YJIT)"/>
<line x1="298.42857142857144" y1="450.29842322863004" x2="306.4857142857143" y2="450.29842322863004" stroke="#000"/>
<line x1="298.42857142857144" y1="450.36380890746307" x2="306.4857142857143" y2="450.36380890746307" stroke="#000"/>
<line x1="302.45714285714286" y1="450.29842322863004" x2="302.45714285714286" y2="450.36380890746307" stroke="#000"/>
<line x1="302.45714285714286" y1="498.0" x2="302.45714285714286" y2="502.79999999999995" stroke="#000"/>
<text x="302.45714285714286" y="512.4" fill="#111" font-size="small" font-family="monospace" font-weight="bold" text-anchor="end" transform="rotate(-60, 302.45714285714286, 512.4)">
psych-load
</text>
<rect x="314.54285714285714" y="464.5869579107935" width="8.057142857142857" height="33.41304208920644" fill="#7070f8" data-tooltip="1.00x baseline speed (No JIT)"/>
<line x1="314.54285714285714" y1="464.441474603972" x2="322.6" y2="464.441474603972" stroke="#000"/>
<line x1="314.54285714285714" y1="464.732441217615" x2="322.6" y2="464.732441217615" stroke="#000"/>
<line x1="318.57142857142856" y1="464.441474603972" x2="318.57142857142856" y2="464.732441217615" stroke="#000"/>
<rect x="322.6" y="443.29976900225756" width="8.057142857142857" height="54.70023099774243" fill="orange" data-tooltip="1.64x baseline speed (YJIT)"/>
<line x1="322.6" y1="442.7551071260585" x2="330.65714285714284" y2="442.7551071260585" stroke="#000"/>
<line x1="322.6" y1="443.8444308784566" x2="330.65714285714284" y2="443.8444308784566" stroke="#000"/>
<line x1="326.62857142857143" y1="442.7551071260585" x2="326.62857142857143" y2="443.8444308784566" stroke="#000"/>
<line x1="326.62857142857143" y1="498.0" x2="326.62857142857143" y2="502.79999999999995" stroke="#000"/>
<text x="326.62857142857143" y="512.4" fill="#111" font-size="small" font-family="monospace" font-weight="bold" text-anchor="end" transform="rotate(-60, 326.62857142857143, 512.4)">
railsbench
</text>
<rect x="338.71428571428567" y="464.5869579107935" width="8.057142857142857" height="33.41304208920644" fill="#7070f8" data-tooltip="1.00x baseline speed (No JIT)"/>
<line x1="338.71428571428567" y1="463.5833078763952" x2="346.77142857142854" y2="463.5833078763952" stroke="#000"/>
<line x1="338.71428571428567" y1="465.5906079451918" x2="346.77142857142854" y2="465.5906079451918" stroke="#000"/>
<line x1="342.74285714285713" y1="463.5833078763952" x2="342.74285714285713" y2="465.5906079451918" stroke="#000"/>
<rect x="346.77142857142854" y="445.42683981035884" width="8.057142857142857" height="52.57316018964107" fill="orange" data-tooltip="1.57x baseline speed (YJIT)"/>
<line x1="346.77142857142854" y1="441.03447732302084" x2="354.8285714285714" y2="441.03447732302084" stroke="#000"/>
<line x1="346.77142857142854" y1="449.81920229769685" x2="354.8285714285714" y2="449.81920229769685" stroke="#000"/>
<line x1="350.8" y1="441.03447732302084" x2="350.8" y2="449.81920229769685" stroke="#000"/>
<line x1="350.8" y1="498.0" x2="350.8" y2="502.79999999999995" stroke="#000"/>
<text x="350.8" y="512.4" fill="#111" font-size="small" font-family="monospace" font-weight="bold" text-anchor="end" transform="rotate(-60, 350.8, 512.4)">
ruby-lsp
</text>
<rect x="362.88571428571424" y="464.5869579107935" width="8.057142857142857" height="33.41304208920644" fill="#7070f8" data-tooltip="1.00x baseline speed (No JIT)"/>
<line x1="362.88571428571424" y1="464.3313000904004" x2="370.9428571428571" y2="464.3313000904004" stroke="#000"/>
<line x1="362.88571428571424" y1="464.84261573118664" x2="370.9428571428571" y2="464.84261573118664" stroke="#000"/>
<line x1="366.9142857142857" y1="464.3313000904004" x2="366.9142857142857" y2="464.84261573118664" stroke="#000"/>
<rect x="370.9428571428571" y="453.0881752776317" width="8.057142857142857" height="44.911824722368216" fill="orange" data-tooltip="1.34x baseline speed (YJIT)"/>
<line x1="370.9428571428571" y1="452.4788618938266" x2="379.0" y2="452.4788618938266" stroke="#000"/>
<line x1="370.9428571428571" y1="453.6974886614368" x2="379.0" y2="453.6974886614368" stroke="#000"/>
<line x1="374.9714285714286" y1="452.4788618938266" x2="374.9714285714286" y2="453.6974886614368" stroke="#000"/>
<line x1="374.9714285714286" y1="498.0" x2="374.9714285714286" y2="502.79999999999995" stroke="#000"/>
<text x="374.9714285714286" y="512.4" fill="#111" font-size="small" font-family="monospace" font-weight="bold" text-anchor="end" transform="rotate(-60, 374.9714285714286, 512.4)">
sequel
</text>
<rect x="387.0571428571429" y="464.5869579107935" width="8.057142857142857" height="33.41304208920644" fill="#7070f8" data-tooltip="1.00x baseline speed (No JIT)"/>
<line x1="387.0571428571429" y1="464.3723101372793" x2="395.11428571428576" y2="464.3723101372793" stroke="#000"/>
<line x1="387.0571428571429" y1="464.8016056843077" x2="395.11428571428576" y2="464.8016056843077" stroke="#000"/>
<line x1="391.0857142857143" y1="464.3723101372793" x2="391.0857142857143" y2="464.8016056843077" stroke="#000"/>
<rect x="395.11428571428576" y="426.5100180505637" width="8.057142857142857" height="71.48998194943616" fill="orange" data-tooltip="2.14x baseline speed (YJIT)"/>
<line x1="395.11428571428576" y1="426.0486472311624" x2="403.17142857142863" y2="426.0486472311624" stroke="#000"/>
<line x1="395.11428571428576" y1="426.971388869965" x2="403.17142857142863" y2="426.971388869965" stroke="#000"/>
<line x1="399.14285714285717" y1="426.0486472311624" x2="399.14285714285717" y2="426.971388869965" stroke="#000"/>
<line x1="399.14285714285717" y1="498.0" x2="399.14285714285717" y2="502.79999999999995" stroke="#000"/>
<text x="399.14285714285717" y="512.4" fill="#111" font-size="small" font-family="monospace" font-weight="bold" text-anchor="end" transform="rotate(-60, 399.14285714285717, 512.4)">
binarytrees
</text>
<rect x="411.2285714285714" y="464.5869579107935" width="8.057142857142857" height="33.41304208920644" fill="#7070f8" data-tooltip="1.00x baseline speed (No JIT)"/>
<line x1="411.2285714285714" y1="464.5613014468556" x2="419.2857142857143" y2="464.5613014468556" stroke="#000"/>
<line x1="411.2285714285714" y1="464.61261437473144" x2="419.2857142857143" y2="464.61261437473144" stroke="#000"/>
<line x1="415.2571428571428" y1="464.5613014468556" x2="415.2571428571428" y2="464.61261437473144" stroke="#000"/>
<rect x="419.2857142857143" y="454.9737186516689" width="8.057142857142857" height="43.02628134833101" fill="orange" data-tooltip="1.29x baseline speed (YJIT)"/>
<line x1="419.2857142857143" y1="454.9364354537634" x2="427.34285714285716" y2="454.9364354537634" stroke="#000"/>
<line x1="419.2857142857143" y1="455.0110018495744" x2="427.34285714285716" y2="455.0110018495744" stroke="#000"/>
<line x1="423.3142857142857" y1="454.9364354537634" x2="423.3142857142857" y2="455.0110018495744" stroke="#000"/>
<line x1="423.3142857142857" y1="498.0" x2="423.3142857142857" y2="502.79999999999995" stroke="#000"/>
<text x="423.3142857142857" y="512.4" fill="#111" font-size="small" font-family="monospace" font-weight="bold" text-anchor="end" transform="rotate(-60, 423.3142857142857, 512.4)">
erubi
</text>
<rect x="435.40000000000003" y="464.5869579107935" width="8.057142857142857" height="33.41304208920644" fill="#7070f8" data-tooltip="1.00x baseline speed (No JIT)"/>
<line x1="435.40000000000003" y1="464.5782256455192" x2="443.45714285714286" y2="464.5782256455192" stroke="#000"/>
<line x1="435.40000000000003" y1="464.5956901760679" x2="443.45714285714286" y2="464.5956901760679" stroke="#000"/>
<line x1="439.42857142857144" y1="464.5782256455192" x2="439.42857142857144" y2="464.5956901760679" stroke="#000"/>
<rect x="443.45714285714286" y="459.8126975014122" width="8.057142857142857" height="38.187302498587854" fill="orange" data-tooltip="1.14x baseline speed (YJIT)"/>
<line x1="443.45714285714286" y1="459.7974807554224" x2="451.51428571428573" y2="459.7974807554224" stroke="#000"/>
<line x1="443.45714285714286" y1="459.82791424740196" x2="451.51428571428573" y2="459.82791424740196" stroke="#000"/>
<line x1="447.4857142857143" y1="459.7974807554224" x2="447.4857142857143" y2="459.82791424740196" stroke="#000"/>
<line x1="447.4857142857143" y1="498.0" x2="447.4857142857143" y2="502.79999999999995" stroke="#000"/>
<text x="447.4857142857143" y="512.4" fill="#111" font-size="small" font-family="monospace" font-weight="bold" text-anchor="end" transform="rotate(-60, 447.4857142857143, 512.4)">
etanni
</text>
<rect x="459.5714285714285" y="464.5869579107935" width="8.057142857142857" height="33.41304208920644" fill="#7070f8" data-tooltip="1.00x baseline speed (No JIT)"/>
<line x1="459.5714285714285" y1="464.4829379808579" x2="467.6285714285714" y2="464.4829379808579" stroke="#000"/>
<line x1="459.5714285714285" y1="464.6909778407291" x2="467.6285714285714" y2="464.6909778407291" stroke="#000"/>
<line x1="463.59999999999997" y1="464.4829379808579" x2="463.59999999999997" y2="464.6909778407291" stroke="#000"/>
<rect x="467.6285714285714" y="393.5251224542628" width="8.057142857142857" height="104.47487754573707" fill="orange" data-tooltip="3.13x baseline speed (YJIT)"/>
<line x1="467.6285714285714" y1="393.1822010588838" x2="475.68571428571425" y2="393.1822010588838" stroke="#000"/>
<line x1="467.6285714285714" y1="393.86804384964194" x2="475.68571428571425" y2="393.86804384964194" stroke="#000"/>
<line x1="471.65714285714284" y1="393.1822010588838" x2="471.65714285714284" y2="393.86804384964194" stroke="#000"/>
<line x1="471.65714285714284" y1="498.0" x2="471.65714285714284" y2="502.79999999999995" stroke="#000"/>
<text x="471.65714285714284" y="512.4" fill="#111" font-size="small" font-family="monospace" font-weight="bold" text-anchor="end" transform="rotate(-60, 471.65714285714284, 512.4)">
fannkuchredux
</text>
<rect x="483.74285714285713" y="464.5869579107935" width="8.057142857142857" height="33.41304208920644" fill="#7070f8" data-tooltip="1.00x baseline speed (No JIT)"/>
<line x1="483.74285714285713" y1="464.56000188609346" x2="491.8" y2="464.56000188609346" stroke="#000"/>
<line x1="483.74285714285713" y1="464.61391393549354" x2="491.8" y2="464.61391393549354" stroke="#000"/>
<line x1="487.7714285714286" y1="464.56000188609346" x2="487.7714285714286" y2="464.61391393549354" stroke="#000"/>
<rect x="491.8" y="459.53066355976773" width="8.057142857142857" height="38.46933644023222" fill="orange" data-tooltip="1.15x baseline speed (YJIT)"/>
<line x1="491.8" y1="459.4493281379556" x2="499.8571428571429" y2="459.4493281379556" stroke="#000"/>
<line x1="491.8" y1="459.61199898157986" x2="499.8571428571429" y2="459.61199898157986" stroke="#000"/>
<line x1="495.8285714285715" y1="459.4493281379556" x2="495.8285714285715" y2="459.61199898157986" stroke="#000"/>
<line x1="495.8285714285715" y1="498.0" x2="495.8285714285715" y2="502.79999999999995" stroke="#000"/>
<text x="495.8285714285715" y="512.4" fill="#111" font-size="small" font-family="monospace" font-weight="bold" text-anchor="end" transform="rotate(-60, 495.8285714285715, 512.4)">
fluentd
</text>
<rect x="507.91428571428565" y="464.5869579107935" width="8.057142857142857" height="33.41304208920644" fill="#7070f8" data-tooltip="1.00x baseline speed (No JIT)"/>
<line x1="507.91428571428565" y1="464.170334779259" x2="515.9714285714285" y2="464.170334779259" stroke="#000"/>
<line x1="507.91428571428565" y1="465.003581042328" x2="515.9714285714285" y2="465.003581042328" stroke="#000"/>
<line x1="511.942857142857" y1="464.170334779259" x2="511.942857142857" y2="465.003581042328" stroke="#000"/>
<rect x="515.9714285714285" y="450.0549216679438" width="8.057142857142857" height="47.94507833205613" fill="orange" data-tooltip="1.43x baseline speed (YJIT)"/>
<line x1="515.9714285714285" y1="449.01717241200924" x2="524.0285714285714" y2="449.01717241200924" stroke="#000"/>
<line x1="515.9714285714285" y1="451.09267092387836" x2="524.0285714285714" y2="451.09267092387836" stroke="#000"/>
<line x1="519.9999999999999" y1="449.01717241200924" x2="519.9999999999999" y2="451.09267092387836" stroke="#000"/>
<line x1="519.9999999999999" y1="498.0" x2="519.9999999999999" y2="502.79999999999995" stroke="#000"/>
<text x="519.9999999999999" y="512.4" fill="#111" font-size="small" font-family="monospace" font-weight="bold" text-anchor="end" transform="rotate(-60, 519.9999999999999, 512.4)">
lee
</text>
<rect x="532.0857142857143" y="464.5869579107935" width="8.057142857142857" height="33.41304208920644" fill="#7070f8" data-tooltip="1.00x baseline speed (No JIT)"/>
<line x1="532.0857142857143" y1="464.5753387594001" x2="540.1428571428571" y2="464.5753387594001" stroke="#000"/>
<line x1="532.0857142857143" y1="464.59857706218696" x2="540.1428571428571" y2="464.59857706218696" stroke="#000"/>
<line x1="536.1142857142856" y1="464.5753387594001" x2="536.1142857142856" y2="464.59857706218696" stroke="#000"/>
<rect x="540.1428571428571" y="439.419105444117" width="8.057142857142857" height="58.58089455588296" fill="orange" data-tooltip="1.75x baseline speed (YJIT)"/>
<line x1="540.1428571428571" y1="439.3664567697762" x2="548.2" y2="439.3664567697762" stroke="#000"/>
<line x1="540.1428571428571" y1="439.4717541184578" x2="548.2" y2="439.4717541184578" stroke="#000"/>
<line x1="544.1714285714286" y1="439.3664567697762" x2="544.1714285714286" y2="439.4717541184578" stroke="#000"/>
<line x1="544.1714285714286" y1="498.0" x2="544.1714285714286" y2="502.79999999999995" stroke="#000"/>
<text x="544.1714285714286" y="512.4" fill="#111" font-size="small" font-family="monospace" font-weight="bold" text-anchor="end" transform="rotate(-60, 544.1714285714286, 512.4)">
nbody
</text>
<rect x="556.2571428571428" y="464.5869579107935" width="8.057142857142857" height="33.41304208920644" fill="#7070f8" data-tooltip="1.00x baseline speed (No JIT)"/>
<line x1="556.2571428571428" y1="464.38886207297526" x2="564.3142857142857" y2="464.38886207297526" stroke="#000"/>
<line x1="556.2571428571428" y1="464.78505374861174" x2="564.3142857142857" y2="464.78505374861174" stroke="#000"/>
<line x1="560.2857142857142" y1="464.38886207297526" x2="560.2857142857142" y2="464.78505374861174" stroke="#000"/>
<rect x="564.3142857142857" y="392.8837572173257" width="8.057142857142857" height="105.11624278267429" fill="orange" data-tooltip="3.15x baseline speed (YJIT)"/>
<line x1="564.3142857142857" y1="391.94467986579474" x2="572.3714285714285" y2="391.94467986579474" stroke="#000"/>
<line x1="564.3142857142857" y1="393.82283456885665" x2="572.3714285714285" y2="393.82283456885665" stroke="#000"/>
<line x1="568.342857142857" y1="391.94467986579474" x2="568.342857142857" y2="393.82283456885665" stroke="#000"/>
<line x1="568.342857142857" y1="498.0" x2="568.342857142857" y2="502.79999999999995" stroke="#000"/>
<text x="568.342857142857" y="512.4" fill="#111" font-size="small" font-family="monospace" font-weight="bold" text-anchor="end" transform="rotate(-60, 568.342857142857, 512.4)">
optcarrot
</text>
<rect x="580.4285714285714" y="464.5869579107935" width="8.057142857142857" height="33.41304208920644" fill="#7070f8" data-tooltip="1.00x baseline speed (No JIT)"/>
<line x1="580.4285714285714" y1="464.3493697181305" x2="588.4857142857143" y2="464.3493697181305" stroke="#000"/>
<line x1="580.4285714285714" y1="464.8245461034565" x2="588.4857142857143" y2="464.8245461034565" stroke="#000"/>
<line x1="584.4571428571428" y1="464.3493697181305" x2="584.4571428571428" y2="464.8245461034565" stroke="#000"/>
<rect x="588.4857142857143" y="456.7819874087015" width="8.057142857142857" height="41.218012591298354" fill="orange" data-tooltip="1.23x baseline speed (YJIT)"/>
<line x1="588.4857142857143" y1="456.305329472687" x2="596.5428571428572" y2="456.305329472687" stroke="#000"/>
<line x1="588.4857142857143" y1="457.25864534471606" x2="596.5428571428572" y2="457.25864534471606" stroke="#000"/>
<line x1="592.5142857142856" y1="456.305329472687" x2="592.5142857142856" y2="457.25864534471606" stroke="#000"/>
<line x1="592.5142857142856" y1="498.0" x2="592.5142857142856" y2="502.79999999999995" stroke="#000"/>
<text x="592.5142857142856" y="512.4" fill="#111" font-size="small" font-family="monospace" font-weight="bold" text-anchor="end" transform="rotate(-60, 592.5142857142856, 512.4)">
rack
</text>
<rect x="604.5999999999999" y="464.5869579107935" width="8.057142857142857" height="33.41304208920644" fill="#7070f8" data-tooltip="1.00x baseline speed (No JIT)"/>
<line x1="604.5999999999999" y1="464.57363399556317" x2="612.6571428571428" y2="464.57363399556317" stroke="#000"/>
<line x1="604.5999999999999" y1="464.60028182602383" x2="612.6571428571428" y2="464.60028182602383" stroke="#000"/>
<line x1="608.6285714285713" y1="464.57363399556317" x2="608.6285714285713" y2="464.60028182602383" stroke="#000"/>
<rect x="612.6571428571428" y="458.90748909633436" width="8.057142857142857" height="39.0925109036656" fill="orange" data-tooltip="1.17x baseline speed (YJIT)"/>
<line x1="612.6571428571428" y1="458.88308849302643" x2="620.7142857142857" y2="458.88308849302643" stroke="#000"/>
<line x1="612.6571428571428" y1="458.93188969964234" x2="620.7142857142857" y2="458.93188969964234" stroke="#000"/>
<line x1="616.6857142857142" y1="458.88308849302643" x2="616.6857142857142" y2="458.93188969964234" stroke="#000"/>
<line x1="616.6857142857142" y1="498.0" x2="616.6857142857142" y2="502.79999999999995" stroke="#000"/>
<text x="616.6857142857142" y="512.4" fill="#111" font-size="small" font-family="monospace" font-weight="bold" text-anchor="end" transform="rotate(-60, 616.6857142857142, 512.4)">
ruby-json
</text>
<rect x="628.7714285714285" y="464.5869579107935" width="8.057142857142857" height="33.41304208920644" fill="#7070f8" data-tooltip="1.00x baseline speed (No JIT)"/>
<line x1="628.7714285714285" y1="464.41150765469615" x2="636.8285714285714" y2="464.41150765469615" stroke="#000"/>
<line x1="628.7714285714285" y1="464.76240816689085" x2="636.8285714285714" y2="464.76240816689085" stroke="#000"/>
<line x1="632.8" y1="464.41150765469615" x2="632.8" y2="464.76240816689085" stroke="#000"/>
<rect x="636.8285714285714" y="431.4888859632803" width="8.057142857142857" height="66.51111403671972" fill="orange" data-tooltip="1.99x baseline speed (YJIT)"/>
<line x1="636.8285714285714" y1="430.942803841523" x2="644.8857142857142" y2="430.942803841523" stroke="#000"/>
<line x1="636.8285714285714" y1="432.03496808503763" x2="644.8857142857142" y2="432.03496808503763" stroke="#000"/>
<line x1="640.8571428571428" y1="430.942803841523" x2="640.8571428571428" y2="432.03496808503763" stroke="#000"/>
<line x1="640.8571428571428" y1="498.0" x2="640.8571428571428" y2="502.79999999999995" stroke="#000"/>
<text x="640.8571428571428" y="512.4" fill="#111" font-size="small" font-family="monospace" font-weight="bold" text-anchor="end" transform="rotate(-60, 640.8571428571428, 512.4)">
rubykon
</text>
<rect x="652.9428571428571" y="464.5869579107935" width="8.057142857142857" height="33.41304208920644" fill="#7070f8" data-tooltip="1.00x baseline speed (No JIT)"/>
<line x1="652.9428571428571" y1="464.5844694011214" x2="660.9999999999999" y2="464.5844694011214" stroke="#000"/>
<line x1="652.9428571428571" y1="464.58944642046566" x2="660.9999999999999" y2="464.58944642046566" stroke="#000"/>
<line x1="656.9714285714284" y1="464.5844694011214" x2="656.9714285714284" y2="464.58944642046566" stroke="#000"/>
<rect x="660.9999999999999" y="261.19674482549" width="8.057142857142857" height="236.80325517450999" fill="orange" data-tooltip="7.09x baseline speed (YJIT)"/>
<line x1="660.9999999999999" y1="261.0516039632277" x2="669.0571428571428" y2="261.0516039632277" stroke="#000"/>
<line x1="660.9999999999999" y1="261.3418856877522" x2="669.0571428571428" y2="261.3418856877522" stroke="#000"/>
<line x1="665.0285714285714" y1="261.0516039632277" x2="665.0285714285714" y2="261.3418856877522" stroke="#000"/>
<line x1="665.0285714285714" y1="498.0" x2="665.0285714285714" y2="502.79999999999995" stroke="#000"/>
<text x="665.0285714285714" y="512.4" fill="#111" font-size="small" font-family="monospace" font-weight="bold" text-anchor="end" transform="rotate(-60, 665.0285714285714, 512.4)">
30k_ifelse
</text>
<rect x="677.1142857142856" y="464.5869579107935" width="8.057142857142857" height="33.41304208920644" fill="#7070f8" data-tooltip="1.00x baseline speed (No JIT)"/>
<line x1="677.1142857142856" y1="464.58597178282344" x2="685.1714285714286" y2="464.58597178282344" stroke="#000"/>
<line x1="677.1142857142856" y1="464.5879440387636" x2="685.1714285714286" y2="464.5879440387636" stroke="#000"/>
<line x1="681.142857142857" y1="464.58597178282344" x2="681.142857142857" y2="464.5879440387636" stroke="#000"/>
<rect x="685.1714285714286" y="220.23512018972346" width="8.057142857142857" height="277.7648798102765" fill="orange" data-tooltip="8.31x baseline speed (YJIT)"/>
<line x1="685.1714285714286" y1="220.18707742277823" x2="693.2285714285714" y2="220.18707742277823" stroke="#000"/>
<line x1="685.1714285714286" y1="220.2831629566687" x2="693.2285714285714" y2="220.2831629566687" stroke="#000"/>
<line x1="689.1999999999999" y1="220.18707742277823" x2="689.1999999999999" y2="220.2831629566687" stroke="#000"/>
<line x1="689.1999999999999" y1="498.0" x2="689.1999999999999" y2="502.79999999999995" stroke="#000"/>
<text x="689.1999999999999" y="512.4" fill="#111" font-size="small" font-family="monospace" font-weight="bold" text-anchor="end" transform="rotate(-60, 689.1999999999999, 512.4)">
30k_methods
</text>
<rect x="701.2857142857142" y="464.5869579107935" width="8.057142857142857" height="33.41304208920644" fill="#7070f8" data-tooltip="1.00x baseline speed (No JIT)"/>
<line x1="701.2857142857142" y1="464.53836258553093" x2="709.342857142857" y2="464.53836258553093" stroke="#000"/>
<line x1="701.2857142857142" y1="464.6355532360561" x2="709.342857142857" y2="464.6355532360561" stroke="#000"/>
<line x1="705.3142857142856" y1="464.53836258553093" x2="705.3142857142856" y2="464.6355532360561" stroke="#000"/>
<rect x="709.342857142857" y="399.2975359726955" width="8.057142857142857" height="98.70246402730436" fill="orange" data-tooltip="2.95x baseline speed (YJIT)"/>
<line x1="709.342857142857" y1="399.11862976719374" x2="717.4" y2="399.11862976719374" stroke="#000"/>
<line x1="709.342857142857" y1="399.4764421781973" x2="717.4" y2="399.4764421781973" stroke="#000"/>
<line x1="713.3714285714284" y1="399.11862976719374" x2="713.3714285714284" y2="399.4764421781973" stroke="#000"/>
<line x1="713.3714285714284" y1="498.0" x2="713.3714285714284" y2="502.79999999999995" stroke="#000"/>
<text x="713.3714285714284" y="512.4" fill="#111" font-size="small" font-family="monospace" font-weight="bold" text-anchor="end" transform="rotate(-60, 713.3714285714284, 512.4)">
cfunc_itself
</text>
<rect x="725.4571428571428" y="464.5869579107935" width="8.057142857142857" height="33.41304208920644" fill="#7070f8" data-tooltip="1.00x baseline speed (No JIT)"/>
<line x1="725.4571428571428" y1="464.5687652034584" x2="733.5142857142856" y2="464.5687652034584" stroke="#000"/>
<line x1="725.4571428571428" y1="464.6051506181287" x2="733.5142857142856" y2="464.6051506181287" stroke="#000"/>
<line x1="729.4857142857142" y1="464.5687652034584" x2="729.4857142857142" y2="464.6051506181287" stroke="#000"/>
<rect x="733.5142857142856" y="300.3692625995087" width="8.057142857142857" height="197.6307374004913" fill="orange" data-tooltip="5.91x baseline speed (YJIT)"/>
<line x1="733.5142857142856" y1="300.1915415675776" x2="741.5714285714286" y2="300.1915415675776" stroke="#000"/>
<line x1="733.5142857142856" y1="300.5469836314398" x2="741.5714285714286" y2="300.5469836314398" stroke="#000"/>
<line x1="737.5428571428571" y1="300.1915415675776" x2="737.5428571428571" y2="300.5469836314398" stroke="#000"/>
<line x1="737.5428571428571" y1="498.0" x2="737.5428571428571" y2="502.79999999999995" stroke="#000"/>
<text x="737.5428571428571" y="512.4" fill="#111" font-size="small" font-family="monospace" font-weight="bold" text-anchor="end" transform="rotate(-60, 737.5428571428571, 512.4)">
fib
</text>
<rect x="749.6285714285713" y="464.5869579107935" width="8.057142857142857" height="33.41304208920644" fill="#7070f8" data-tooltip="1.00x baseline speed (No JIT)"/>
<line x1="749.6285714285713" y1="464.4261146338526" x2="757.6857142857142" y2="464.4261146338526" stroke="#000"/>
<line x1="749.6285714285713" y1="464.74780118773447" x2="757.6857142857142" y2="464.74780118773447" stroke="#000"/>
<line x1="753.6571428571427" y1="464.4261146338526" x2="753.6571428571427" y2="464.74780118773447" stroke="#000"/>
<rect x="757.6857142857142" y="299.6208014051215" width="8.057142857142857" height="198.37919859487843" fill="orange" data-tooltip="5.94x baseline speed (YJIT)"/>
<line x1="757.6857142857142" y1="297.3247997650988" x2="765.742857142857" y2="297.3247997650988" stroke="#000"/>
<line x1="757.6857142857142" y1="301.9168030451442" x2="765.742857142857" y2="301.9168030451442" stroke="#000"/>
<line x1="761.7142857142856" y1="297.3247997650988" x2="761.7142857142856" y2="301.9168030451442" stroke="#000"/>
<line x1="761.7142857142856" y1="498.0" x2="761.7142857142856" y2="502.79999999999995" stroke="#000"/>
<text x="761.7142857142856" y="512.4" fill="#111" font-size="small" font-family="monospace" font-weight="bold" text-anchor="end" transform="rotate(-60, 761.7142857142856, 512.4)">
getivar
</text>
<rect x="773.8" y="464.5869579107935" width="8.057142857142857" height="33.41304208920644" fill="#7070f8" data-tooltip="1.00x baseline speed (No JIT)"/>
<line x1="773.8" y1="464.5624737307221" x2="781.8571428571428" y2="464.5624737307221" stroke="#000"/>
<line x1="773.8" y1="464.6114420908649" x2="781.8571428571428" y2="464.6114420908649" stroke="#000"/>
<line x1="777.8285714285713" y1="464.5624737307221" x2="777.8285714285713" y2="464.6114420908649" stroke="#000"/>
<rect x="781.8571428571428" y="278.0238419738328" width="8.057142857142857" height="219.9761580261671" fill="orange" data-tooltip="6.58x baseline speed (YJIT)"/>
<line x1="781.8571428571428" y1="277.32654423803797" x2="789.9142857142857" y2="277.32654423803797" stroke="#000"/>
<line x1="781.8571428571428" y1="278.72113970962766" x2="789.9142857142857" y2="278.72113970962766" stroke="#000"/>
<line x1="785.8857142857142" y1="277.32654423803797" x2="785.8857142857142" y2="278.72113970962766" stroke="#000"/>
<line x1="785.8857142857142" y1="498.0" x2="785.8857142857142" y2="502.79999999999995" stroke="#000"/>
<text x="785.8857142857142" y="512.4" fill="#111" font-size="small" font-family="monospace" font-weight="bold" text-anchor="end" transform="rotate(-60, 785.8857142857142, 512.4)">
keyword_args
</text>
<rect x="797.9714285714284" y="464.5869579107935" width="8.057142857142857" height="33.41304208920644" fill="#7070f8" data-tooltip="1.00x baseline speed (No JIT)"/>
<line x1="797.9714285714284" y1="464.3107312880278" x2="806.0285714285714" y2="464.3107312880278" stroke="#000"/>
<line x1="797.9714285714284" y1="464.8631845335592" x2="806.0285714285714" y2="464.8631845335592" stroke="#000"/>
<line x1="801.9999999999998" y1="464.3107312880278" x2="801.9999999999998" y2="464.8631845335592" stroke="#000"/>
<rect x="806.0285714285714" y="100.19999999999999" width="8.057142857142857" height="397.79999999999995" fill="orange" data-tooltip="11.91x baseline speed (YJIT)"/>
<line x1="806.0285714285714" y1="96.52313840087554" x2="814.0857142857142" y2="96.52313840087554" stroke="#000"/>
<line x1="806.0285714285714" y1="103.87686159912444" x2="814.0857142857142" y2="103.87686159912444" stroke="#000"/>
<line x1="810.0571428571427" y1="96.52313840087554" x2="810.0571428571427" y2="103.87686159912444" stroke="#000"/>
<line x1="810.0571428571427" y1="498.0" x2="810.0571428571427" y2="502.79999999999995" stroke="#000"/>
<text x="810.0571428571427" y="512.4" fill="#111" font-size="small" font-family="monospace" font-weight="bold" text-anchor="end" transform="rotate(-60, 810.0571428571427, 512.4)">
respond_to
</text>
<rect x="822.1428571428571" y="464.5869579107935" width="8.057142857142857" height="33.41304208920644" fill="#7070f8" data-tooltip="1.00x baseline speed (No JIT)"/>
<line x1="822.1428571428571" y1="464.4777842937027" x2="830.1999999999999" y2="464.4777842937027" stroke="#000"/>
<line x1="822.1428571428571" y1="464.69613152788435" x2="830.1999999999999" y2="464.69613152788435" stroke="#000"/>
<line x1="826.1714285714285" y1="464.4777842937027" x2="826.1714285714285" y2="464.69613152788435" stroke="#000"/>
<rect x="830.1999999999999" y="273.8964782808151" width="8.057142857142857" height="224.10352171918487" fill="orange" data-tooltip="6.71x baseline speed (YJIT)"/>
<line x1="830.1999999999999" y1="273.14579090840385" x2="838.2571428571429" y2="273.14579090840385" stroke="#000"/>
<line x1="830.1999999999999" y1="274.6471656532263" x2="838.2571428571429" y2="274.6471656532263" stroke="#000"/>
<line x1="834.2285714285713" y1="273.14579090840385" x2="834.2285714285713" y2="274.6471656532263" stroke="#000"/>
<line x1="834.2285714285713" y1="498.0" x2="834.2285714285713" y2="502.79999999999995" stroke="#000"/>
<text x="834.2285714285713" y="512.4" fill="#111" font-size="small" font-family="monospace" font-weight="bold" text-anchor="end" transform="rotate(-60, 834.2285714285713, 512.4)">
setivar
</text>
<rect x="846.3142857142856" y="464.5869579107935" width="8.057142857142857" height="33.41304208920644" fill="#7070f8" data-tooltip="1.00x baseline speed (No JIT)"/>
<line x1="846.3142857142856" y1="464.5514662521437" x2="854.3714285714284" y2="464.5514662521437" stroke="#000"/>
<line x1="846.3142857142856" y1="464.62244956944335" x2="854.3714285714284" y2="464.62244956944335" stroke="#000"/>
<line x1="850.3428571428569" y1="464.5514662521437" x2="850.3428571428569" y2="464.62244956944335" stroke="#000"/>
<rect x="854.3714285714284" y="410.18050694993843" width="8.057142857142857" height="87.81949305006151" fill="orange" data-tooltip="2.63x baseline speed (YJIT)"/>
<line x1="854.3714285714284" y1="410.08397437899214" x2="862.4285714285713" y2="410.08397437899214" stroke="#000"/>
<line x1="854.3714285714284" y1="410.2770395208847" x2="862.4285714285713" y2="410.2770395208847" stroke="#000"/>
<line x1="858.3999999999999" y1="410.08397437899214" x2="858.3999999999999" y2="410.2770395208847" stroke="#000"/>
<line x1="858.3999999999999" y1="498.0" x2="858.3999999999999" y2="502.79999999999995" stroke="#000"/>
<text x="858.3999999999999" y="512.4" fill="#111" font-size="small" font-family="monospace" font-weight="bold" text-anchor="end" transform="rotate(-60, 858.3999999999999, 512.4)">
setivar_object
</text>
<rect x="870.4857142857142" y="464.5869579107935" width="8.057142857142857" height="33.41304208920644" fill="#7070f8" data-tooltip="1.00x baseline speed (No JIT)"/>
<line x1="870.4857142857142" y1="464.456773371473" x2="878.5428571428571" y2="464.456773371473" stroke="#000"/>
<line x1="870.4857142857142" y1="464.71714245011407" x2="878.5428571428571" y2="464.71714245011407" stroke="#000"/>
<line x1="874.5142857142856" y1="464.456773371473" x2="874.5142857142856" y2="464.71714245011407" stroke="#000"/>
<rect x="878.5428571428571" y="410.37125323727935" width="8.057142857142857" height="87.62874676272062" fill="orange" data-tooltip="2.62x baseline speed (YJIT)"/>
<line x1="878.5428571428571" y1="409.0472938702892" x2="886.5999999999999" y2="409.0472938702892" stroke="#000"/>
<line x1="878.5428571428571" y1="411.69521260426944" x2="886.5999999999999" y2="411.69521260426944" stroke="#000"/>
<line x1="882.5714285714284" y1="409.0472938702892" x2="882.5714285714284" y2="411.69521260426944" stroke="#000"/>
<line x1="882.5714285714284" y1="498.0" x2="882.5714285714284" y2="502.79999999999995" stroke="#000"/>
<text x="882.5714285714284" y="512.4" fill="#111" font-size="small" font-family="monospace" font-weight="bold" text-anchor="end" transform="rotate(-60, 882.5714285714284, 512.4)">
setivar_young
</text>
<rect x="894.6571428571428" y="464.5869579107935" width="8.057142857142857" height="33.41304208920644" fill="#7070f8" data-tooltip="1.00x baseline speed (No JIT)"/>
<line x1="894.6571428571428" y1="464.5275039394296" x2="902.7142857142857" y2="464.5275039394296" stroke="#000"/>
<line x1="894.6571428571428" y1="464.6464118821574" x2="902.7142857142857" y2="464.6464118821574" stroke="#000"/>
<line x1="898.6857142857142" y1="464.5275039394296" x2="898.6857142857142" y2="464.6464118821574" stroke="#000"/>
<rect x="902.7142857142857" y="427.2788218841211" width="8.057142857142857" height="70.72117811587886" fill="orange" data-tooltip="2.12x baseline speed (YJIT)"/>
<line x1="902.7142857142857" y1="426.9116932279512" x2="910.7714285714286" y2="426.9116932279512" stroke="#000"/>
<line x1="902.7142857142857" y1="427.64595054029104" x2="910.7714285714286" y2="427.64595054029104" stroke="#000"/>
<line x1="906.742857142857" y1="426.9116932279512" x2="906.742857142857" y2="427.64595054029104" stroke="#000"/>
<line x1="906.742857142857" y1="498.0" x2="906.742857142857" y2="502.79999999999995" stroke="#000"/>
<text x="906.742857142857" y="512.4" fill="#111" font-size="small" font-family="monospace" font-weight="bold" text-anchor="end" transform="rotate(-60, 906.742857142857, 512.4)">
str_concat
</text>
<rect x="918.8285714285713" y="464.5869579107935" width="8.057142857142857" height="33.41304208920644" fill="#7070f8" data-tooltip="1.00x baseline speed (No JIT)"/>
<line x1="918.8285714285713" y1="464.5458754543111" x2="926.8857142857142" y2="464.5458754543111" stroke="#000"/>
<line x1="918.8285714285713" y1="464.62804036727596" x2="926.8857142857142" y2="464.62804036727596" stroke="#000"/>
<line x1="922.8571428571427" y1="464.5458754543111" x2="922.8571428571427" y2="464.62804036727596" stroke="#000"/>
<rect x="926.8857142857142" y="456.53877151998984" width="8.057142857142857" height="41.46122848001012" fill="orange" data-tooltip="1.24x baseline speed (YJIT)"/>
<line x1="926.8857142857142" y1="456.4316491939109" x2="934.9428571428571" y2="456.4316491939109" stroke="#000"/>
<line x1="926.8857142857142" y1="456.6458938460687" x2="934.9428571428571" y2="456.6458938460687" stroke="#000"/>
<line x1="930.9142857142856" y1="456.4316491939109" x2="930.9142857142856" y2="456.6458938460687" stroke="#000"/>
<line x1="930.9142857142856" y1="498.0" x2="930.9142857142856" y2="502.79999999999995" stroke="#000"/>
<text x="930.9142857142856" y="512.4" fill="#111" font-size="small" font-family="monospace" font-weight="bold" text-anchor="end" transform="rotate(-60, 930.9142857142856, 512.4)">
throw
</text>
</svg>