<svg viewBox="0 0 1000 600" xmlns="http://www.w3.org/2000/svg" xmlns:xlink="http://www.w3.org/1999/xlink" width="100%" height="100%">

<rect x="50.0" y="30.0" width="940.0" height="467.99999999999994" stroke="#000" fill="#EEE"/>
<line x1="42.0" y1="497.9999999999999" x2="50.0" y2="497.9999999999999" stroke="#000"/>
<text x="26.000000000000004" y="497.9999999999999" text-anchor="end" font-weight="bold" font-size="small" fill="#111">
0.0
</text>
<line x1="42.0" y1="406.34328417836116" x2="50.0" y2="406.34328417836116" stroke="#000"/>
<text x="26.000000000000004" y="406.34328417836116" text-anchor="end" font-weight="bold" font-size="small" fill="#111">
5.0
</text>
<line x1="42.0" y1="314.6865683567224" x2="50.0" y2="314.6865683567224" stroke="#000"/>
<text x="26.000000000000004" y="314.6865683567224" text-anchor="end" font-weight="bold" font-size="small" fill="#111">
10.0
</text>
<line x1="42.0" y1="223.02985253508353" x2="50.0" y2="223.02985253508353" stroke="#000"/>
<text x="26.000000000000004" y="223.02985253508353" text-anchor="end" font-weight="bold" font-size="small" fill="#111">
15.0
</text>
<line x1="42.0" y1="131.37313671344472" x2="50.0" y2="131.37313671344472" stroke="#000"/>
<text x="26.000000000000004" y="131.37313671344472" text-anchor="end" font-weight="bold" font-size="small" fill="#111">
20.0
</text>
<rect x="268.5" y="36.00000000000001" width="80.0" height="18.0" fill="#7070f8" stroke="#888"/>
<text x="308.5" y="52.50000000000001" font-size="small" text-anchor="middle" font-weight="bold" fill="#EEE">
No JIT
</text>
<rect x="691.4999999999999" y="36.00000000000001" width="80.0" height="18.0" fill="orange" stroke="#888"/>
<text x="731.4999999999999" y="52.50000000000001" font-size="small" text-anchor="middle" font-weight="bold" fill="#EEE">
YJIT
</text>
<rect x="97.0" y="479.6686568356722" width="21.69230769230769" height="18.331343164327762" fill="#7070f8" data-tooltip="1.00x baseline speed (No JIT)"/>
<line x1="97.0" y1="479.65975815859997" x2="118.6923076923077" y2="479.65975815859997" stroke="#000"/>
<line x1="97.0" y1="479.6775555127445" x2="118.6923076923077" y2="479.6775555127445" stroke="#000"/>
<line x1="107.84615384615384" y1="479.65975815859997" x2="107.84615384615384" y2="479.6775555127445" stroke="#000"/>
<rect x="118.6923076923077" y="415.3862273977336" width="21.69230769230769" height="82.61377260226632" fill="orange" data-tooltip="4.51x baseline speed (YJIT)"/>
<line x1="118.6923076923077" y1="415.3290333840402" x2="140.3846153846154" y2="415.3290333840402" stroke="#000"/>
<line x1="118.6923076923077" y1="415.4434214114269" x2="140.3846153846154" y2="415.4434214114269" stroke="#000"/>
<line x1="129.53846153846155" y1="415.3290333840402" x2="129.53846153846155" y2="415.4434214114269" stroke="#000"/>
<line x1="129.53846153846155" y1="498.0" x2="129.53846153846155" y2="502.79999999999995" stroke="#000"/>
<text x="129.53846153846155" y="512.4" fill="#111" font-size="small" font-family="monospace" font-weight="bold" text-anchor="end" transform="rotate(-60, 129.53846153846155, 512.4)">
30k_ifelse
</text>
<rect x="162.07692307692307" y="479.6686568356722" width="21.69230769230769" height="18.331343164327762" fill="#7070f8" data-tooltip="1.00x baseline speed (No JIT)"/>
<line x1="162.07692307692307" y1="479.65239423941347" x2="183.76923076923075" y2="479.65239423941347" stroke="#000"/>
<line x1="162.07692307692307" y1="479.684919431931" x2="183.76923076923075" y2="479.684919431931" stroke="#000"/>
<line x1="172.9230769230769" y1="479.65239423941347" x2="172.9230769230769" y2="479.684919431931" stroke="#000"/>
<rect x="183.76923076923075" y="393.7683675522476" width="21.69230769230769" height="104.23163244775239" fill="orange" data-tooltip="5.69x baseline speed (YJIT)"/>
<line x1="183.76923076923075" y1="393.6323891871259" x2="205.46153846153842" y2="393.6323891871259" stroke="#000"/>
<line x1="183.76923076923075" y1="393.9043459173692" x2="205.46153846153842" y2="393.9043459173692" stroke="#000"/>
<line x1="194.61538461538458" y1="393.6323891871259" x2="194.61538461538458" y2="393.9043459173692" stroke="#000"/>
<line x1="194.6153846153846" y1="498.0" x2="194.6153846153846" y2="502.79999999999995" stroke="#000"/>
<text x="194.6153846153846" y="512.4" fill="#111" font-size="small" font-family="monospace" font-weight="bold" text-anchor="end" transform="rotate(-60, 194.6153846153846, 512.4)">
30k_methods
</text>
<rect x="227.15384615384616" y="479.6686568356722" width="21.69230769230769" height="18.331343164327762" fill="#7070f8" data-tooltip="1.00x baseline speed (No JIT)"/>
<line x1="227.15384615384616" y1="479.6277715258858" x2="248.84615384615384" y2="479.6277715258858" stroke="#000"/>
<line x1="227.15384615384616" y1="479.70954214545867" x2="248.84615384615384" y2="479.70954214545867" stroke="#000"/>
<line x1="238.0" y1="479.6277715258858" x2="238.0" y2="479.70954214545867" stroke="#000"/>
<rect x="248.84615384615384" y="378.1706924541655" width="21.69230769230769" height="119.8293075458345" fill="orange" data-tooltip="6.54x baseline speed (YJIT)"/>
<line x1="248.84615384615384" y1="377.90282089970464" x2="270.5384615384615" y2="377.90282089970464" stroke="#000"/>
<line x1="248.84615384615384" y1="378.43856400862626" x2="270.5384615384615" y2="378.43856400862626" stroke="#000"/>
<line x1="259.6923076923077" y1="377.90282089970464" x2="259.6923076923077" y2="378.43856400862626" stroke="#000"/>
<line x1="259.6923076923077" y1="498.0" x2="259.6923076923077" y2="502.79999999999995" stroke="#000"/>
<text x="259.6923076923077" y="512.4" fill="#111" font-size="small" font-family="monospace" font-weight="bold" text-anchor="end" transform="rotate(-60, 259.6923076923077, 512.4)">
cfunc_itself
</text>
<rect x="292.23076923076917" y="479.6686568356722" width="21.69230769230769" height="18.331343164327762" fill="#7070f8" data-tooltip="1.00x baseline speed (No JIT)"/>
<line x1="292.23076923076917" y1="479.16485964556" x2="313.92307692307685" y2="479.16485964556" stroke="#000"/>
<line x1="292.23076923076917" y1="480.1724540257845" x2="313.92307692307685" y2="480.1724540257845" stroke="#000"/>
<line x1="303.07692307692304" y1="479.16485964556" x2="303.07692307692304" y2="480.1724540257845" stroke="#000"/>
<rect x="313.92307692307685" y="416.8823372533982" width="21.69230769230769" height="81.11766274660175" fill="orange" data-tooltip="4.43x baseline speed (YJIT)"/>
<line x1="313.92307692307685" y1="414.6529856103999" x2="335.6153846153845" y2="414.6529856103999" stroke="#000"/>
<line x1="313.92307692307685" y1="419.11168889639646" x2="335.6153846153845" y2="419.11168889639646" stroke="#000"/>
<line x1="324.7692307692307" y1="414.6529856103999" x2="324.7692307692307" y2="419.11168889639646" stroke="#000"/>
<line x1="324.7692307692307" y1="498.0" x2="324.7692307692307" y2="502.79999999999995" stroke="#000"/>
<text x="324.7692307692307" y="512.4" fill="#111" font-size="small" font-family="monospace" font-weight="bold" text-anchor="end" transform="rotate(-60, 324.7692307692307, 512.4)">
fib
</text>
<rect x="357.3076923076923" y="479.6686568356722" width="21.69230769230769" height="18.331343164327762" fill="#7070f8" data-tooltip="1.00x baseline speed (No JIT)"/>
<line x1="357.3076923076923" y1="479.11641874961776" x2="379.0" y2="479.11641874961776" stroke="#000"/>
<line x1="357.3076923076923" y1="480.2208949217267" x2="379.0" y2="480.2208949217267" stroke="#000"/>
<line x1="368.1538461538462" y1="479.11641874961776" x2="368.1538461538462" y2="480.2208949217267" stroke="#000"/>
<rect x="379.0" y="382.4214224107161" width="21.69230769230769" height="115.57857758928381" fill="orange" data-tooltip="6.30x baseline speed (YJIT)"/>
<line x1="379.0" y1="378.93953340275755" x2="400.6923076923077" y2="378.93953340275755" stroke="#000"/>
<line x1="379.0" y1="385.9033114186747" x2="400.6923076923077" y2="385.9033114186747" stroke="#000"/>
<line x1="389.84615384615387" y1="378.93953340275755" x2="389.84615384615387" y2="385.9033114186747" stroke="#000"/>
<line x1="389.84615384615387" y1="498.0" x2="389.84615384615387" y2="502.79999999999995" stroke="#000"/>
<text x="389.84615384615387" y="512.4" fill="#111" font-size="small" font-family="monospace" font-weight="bold" text-anchor="end" transform="rotate(-60, 389.84615384615387, 512.4)">
getivar
</text>
<rect x="422.38461538461536" y="479.6686568356722" width="21.69230769230769" height="18.331343164327762" fill="#7070f8" data-tooltip="1.00x baseline speed (No JIT)"/>
<line x1="422.38461538461536" y1="479.646484265971" x2="444.07692307692304" y2="479.646484265971" stroke="#000"/>
<line x1="422.38461538461536" y1="479.69082940537345" x2="444.07692307692304" y2="479.69082940537345" stroke="#000"/>
<line x1="433.23076923076917" y1="479.646484265971" x2="433.23076923076917" y2="479.69082940537345" stroke="#000"/>
<rect x="444.07692307692304" y="329.9505782779139" width="21.69230769230769" height="168.04942172208607" fill="orange" data-tooltip="9.17x baseline speed (YJIT)"/>
<line x1="444.07692307692304" y1="329.74654815101775" x2="465.7692307692307" y2="329.74654815101775" stroke="#000"/>
<line x1="444.07692307692304" y1="330.1546084048101" x2="465.7692307692307" y2="330.1546084048101" stroke="#000"/>
<line x1="454.92307692307685" y1="329.74654815101775" x2="454.92307692307685" y2="330.1546084048101" stroke="#000"/>
<line x1="454.92307692307685" y1="498.0" x2="454.92307692307685" y2="502.79999999999995" stroke="#000"/>
<text x="454.92307692307685" y="512.4" fill="#111" font-size="small" font-family="monospace" font-weight="bold" text-anchor="end" transform="rotate(-60, 454.92307692307685, 512.4)">
keyword_args
</text>
<rect x="487.4615384615384" y="479.6686568356722" width="21.69230769230769" height="18.331343164327762" fill="#7070f8" data-tooltip="1.00x baseline speed (No JIT)"/>
<line x1="487.4615384615384" y1="479.51399584461353" x2="509.1538461538461" y2="479.51399584461353" stroke="#000"/>
<line x1="487.4615384615384" y1="479.82331782673094" x2="509.1538461538461" y2="479.82331782673094" stroke="#000"/>
<line x1="498.3076923076922" y1="479.51399584461353" x2="498.3076923076922" y2="479.82331782673094" stroke="#000"/>
<rect x="509.1538461538461" y="100.19999999999999" width="21.69230769230769" height="397.79999999999995" fill="orange" data-tooltip="21.70x baseline speed (YJIT)"/>
<line x1="509.1538461538461" y1="96.22559526183237" x2="530.8461538461537" y2="96.22559526183237" stroke="#000"/>
<line x1="509.1538461538461" y1="104.17440473816761" x2="530.8461538461537" y2="104.17440473816761" stroke="#000"/>
<line x1="519.9999999999999" y1="96.22559526183237" x2="519.9999999999999" y2="104.17440473816761" stroke="#000"/>
<line x1="519.9999999999999" y1="498.0" x2="519.9999999999999" y2="502.79999999999995" stroke="#000"/>
<text x="519.9999999999999" y="512.4" fill="#111" font-size="small" font-family="monospace" font-weight="bold" text-anchor="end" transform="rotate(-60, 519.9999999999999, 512.4)">
respond_to
</text>
<rect x="552.5384615384615" y="479.6686568356722" width="21.69230769230769" height="18.331343164327762" fill="#7070f8" data-tooltip="1.00x baseline speed (No JIT)"/>
<line x1="552.5384615384615" y1="479.1637075578906" x2="574.2307692307692" y2="479.1637075578906" stroke="#000"/>
<line x1="552.5384615384615" y1="480.1736061134539" x2="574.2307692307692" y2="480.1736061134539" stroke="#000"/>
<line x1="563.3846153846154" y1="479.1637075578906" x2="563.3846153846154" y2="480.1736061134539" stroke="#000"/>
<rect x="574.2307692307692" y="404.396700019166" width="21.69230769230769" height="93.60329998083398" fill="orange" data-tooltip="5.11x baseline speed (YJIT)"/>
<line x1="574.2307692307692" y1="401.8180619372904" x2="595.9230769230769" y2="401.8180619372904" stroke="#000"/>
<line x1="574.2307692307692" y1="406.9753381010417" x2="595.9230769230769" y2="406.9753381010417" stroke="#000"/>
<line x1="585.0769230769231" y1="401.8180619372904" x2="585.0769230769231" y2="406.9753381010417" stroke="#000"/>
<line x1="585.0769230769231" y1="498.0" x2="585.0769230769231" y2="502.79999999999995" stroke="#000"/>
<text x="585.0769230769231" y="512.4" fill="#111" font-size="small" font-family="monospace" font-weight="bold" text-anchor="end" transform="rotate(-60, 585.0769230769231, 512.4)">
ruby-xor
</text>
<rect x="617.6153846153845" y="479.6686568356722" width="21.69230769230769" height="18.331343164327762" fill="#7070f8" data-tooltip="1.00x baseline speed (No JIT)"/>
<line x1="617.6153846153845" y1="479.6355476989721" x2="639.3076923076923" y2="479.6355476989721" stroke="#000"/>
<line x1="617.6153846153845" y1="479.70176597237236" x2="639.3076923076923" y2="479.70176597237236" stroke="#000"/>
<line x1="628.4615384615385" y1="479.6355476989721" x2="628.4615384615385" y2="479.70176597237236" stroke="#000"/>
<rect x="639.3076923076923" y="380.6706771886839" width="21.69230769230769" height="117.32932281131602" fill="orange" data-tooltip="6.40x baseline speed (YJIT)"/>
<line x1="639.3076923076923" y1="380.45743325974445" x2="660.9999999999999" y2="380.45743325974445" stroke="#000"/>
<line x1="639.3076923076923" y1="380.88392111762334" x2="660.9999999999999" y2="380.88392111762334" stroke="#000"/>
<line x1="650.1538461538461" y1="380.45743325974445" x2="650.1538461538461" y2="380.88392111762334" stroke="#000"/>
<line x1="650.1538461538461" y1="498.0" x2="650.1538461538461" y2="502.79999999999995" stroke="#000"/>
<text x="650.1538461538461" y="512.4" fill="#111" font-size="small" font-family="monospace" font-weight="bold" text-anchor="end" transform="rotate(-60, 650.1538461538461, 512.4)">
setivar
</text>
<rect x="682.6923076923076" y="479.6686568356722" width="21.69230769230769" height="18.331343164327762" fill="#7070f8" data-tooltip="1.00x baseline speed (No JIT)"/>
<line x1="682.6923076923076" y1="479.6012587904074" x2="704.3846153846152" y2="479.6012587904074" stroke="#000"/>
<line x1="682.6923076923076" y1="479.73605488093705" x2="704.3846153846152" y2="479.73605488093705" stroke="#000"/>
<line x1="693.5384615384614" y1="479.6012587904074" x2="693.5384615384614" y2="479.73605488093705" stroke="#000"/>
<rect x="704.3846153846152" y="448.7160416428373" width="21.69230769230769" height="49.283958357162625" fill="orange" data-tooltip="2.69x baseline speed (YJIT)"/>
<line x1="704.3846153846152" y1="448.53479879365153" x2="726.076923076923" y2="448.53479879365153" stroke="#000"/>
<line x1="704.3846153846152" y1="448.89728449202306" x2="726.076923076923" y2="448.89728449202306" stroke="#000"/>
<line x1="715.2307692307692" y1="448.53479879365153" x2="715.2307692307692" y2="448.89728449202306" stroke="#000"/>
<line x1="715.2307692307692" y1="498.0" x2="715.2307692307692" y2="502.79999999999995" stroke="#000"/>
<text x="715.2307692307692" y="512.4" fill="#111" font-size="small" font-family="monospace" font-weight="bold" text-anchor="end" transform="rotate(-60, 715.2307692307692, 512.4)">
setivar_object
</text>
<rect x="747.7692307692307" y="479.6686568356722" width="21.69230769230769" height="18.331343164327762" fill="#7070f8" data-tooltip="1.00x baseline speed (No JIT)"/>
<line x1="747.7692307692307" y1="479.64358868475875" x2="769.4615384615385" y2="479.64358868475875" stroke="#000"/>
<line x1="747.7692307692307" y1="479.6937249865857" x2="769.4615384615385" y2="479.6937249865857" stroke="#000"/>
<line x1="758.6153846153845" y1="479.64358868475875" x2="758.6153846153845" y2="479.6937249865857" stroke="#000"/>
<rect x="769.4615384615385" y="448.34137784962604" width="21.69230769230769" height="49.65862215037393" fill="orange" data-tooltip="2.71x baseline speed (YJIT)"/>
<line x1="769.4615384615385" y1="448.27333464574053" x2="791.1538461538461" y2="448.27333464574053" stroke="#000"/>
<line x1="769.4615384615385" y1="448.40942105351155" x2="791.1538461538461" y2="448.40942105351155" stroke="#000"/>
<line x1="780.3076923076923" y1="448.27333464574053" x2="780.3076923076923" y2="448.40942105351155" stroke="#000"/>
<line x1="780.3076923076923" y1="498.0" x2="780.3076923076923" y2="502.79999999999995" stroke="#000"/>
<text x="780.3076923076923" y="512.4" fill="#111" font-size="small" font-family="monospace" font-weight="bold" text-anchor="end" transform="rotate(-60, 780.3076923076923, 512.4)">
setivar_young
</text>
<rect x="812.8461538461538" y="479.6686568356722" width="21.69230769230769" height="18.331343164327762" fill="#7070f8" data-tooltip="1.00x baseline speed (No JIT)"/>
<line x1="812.8461538461538" y1="479.6516972934175" x2="834.5384615384614" y2="479.6516972934175" stroke="#000"/>
<line x1="812.8461538461538" y1="479.685616377927" x2="834.5384615384614" y2="479.685616377927" stroke="#000"/>
<line x1="823.6923076923076" y1="479.6516972934175" x2="823.6923076923076" y2="479.685616377927" stroke="#000"/>
<rect x="834.5384615384614" y="458.7135627064656" width="21.69230769230769" height="39.28643729353431" fill="orange" data-tooltip="2.14x baseline speed (YJIT)"/>
<line x1="834.5384615384614" y1="458.61878421113994" x2="856.2307692307692" y2="458.61878421113994" stroke="#000"/>
<line x1="834.5384615384614" y1="458.8083412017913" x2="856.2307692307692" y2="458.8083412017913" stroke="#000"/>
<line x1="845.3846153846152" y1="458.61878421113994" x2="845.3846153846152" y2="458.8083412017913" stroke="#000"/>
<line x1="845.3846153846152" y1="498.0" x2="845.3846153846152" y2="502.79999999999995" stroke="#000"/>
<text x="845.3846153846152" y="512.4" fill="#111" font-size="small" font-family="monospace" font-weight="bold" text-anchor="end" transform="rotate(-60, 845.3846153846152, 512.4)">
str_concat
</text>
<rect x="877.9230769230768" y="479.6686568356722" width="21.69230769230769" height="18.331343164327762" fill="#7070f8" data-tooltip="1.00x baseline speed (No JIT)"/>
<line x1="877.9230769230768" y1="479.62886908776215" x2="899.6153846153845" y2="479.62886908776215" stroke="#000"/>
<line x1="877.9230769230768" y1="479.7084445835823" x2="899.6153846153845" y2="479.7084445835823" stroke="#000"/>
<line x1="888.7692307692306" y1="479.62886908776215" x2="888.7692307692306" y2="479.7084445835823" stroke="#000"/>
<rect x="899.6153846153845" y="470.97338081895003" width="21.69230769230769" height="27.026619181049934" fill="orange" data-tooltip="1.47x baseline speed (YJIT)"/>
<line x1="899.6153846153845" y1="470.8853897916041" x2="921.3076923076922" y2="470.8853897916041" stroke="#000"/>
<line x1="899.6153846153845" y1="471.0613718462959" x2="921.3076923076922" y2="471.0613718462959" stroke="#000"/>
<line x1="910.4615384615383" y1="470.8853897916041" x2="910.4615384615383" y2="471.0613718462959" stroke="#000"/>
<line x1="910.4615384615383" y1="498.0" x2="910.4615384615383" y2="502.79999999999995" stroke="#000"/>
<text x="910.4615384615383" y="512.4" fill="#111" font-size="small" font-family="monospace" font-weight="bold" text-anchor="end" transform="rotate(-60, 910.4615384615383, 512.4)">
throw
</text>
</svg>