<svg viewBox="0 0 1000 600" xmlns="http://www.w3.org/2000/svg" xmlns:xlink="http://www.w3.org/1999/xlink" width="100%" height="100%">

<rect x="50.0" y="30.0" width="940.0" height="467.99999999999994" stroke="#000" fill="#fff"/>
<line x1="42.0" y1="497.9999999999999" x2="50.0" y2="497.9999999999999" stroke="#000"/>
<text x="26.000000000000004" y="497.9999999999999" text-anchor="end" font-weight="bold" font-size="small" fill="#111">
0.0
</text>
<line x1="42.0" y1="429.78779655760576" x2="50.0" y2="429.78779655760576" stroke="#000"/>
<text x="26.000000000000004" y="429.78779655760576" text-anchor="end" font-weight="bold" font-size="small" fill="#111">
0.5
</text>
<line x1="42.0" y1="361.5755931152116" x2="50.0" y2="361.5755931152116" stroke="#000"/>
<text x="26.000000000000004" y="361.5755931152116" text-anchor="end" font-weight="bold" font-size="small" fill="#111">
1.0
</text>
<line x1="42.0" y1="293.36338967281745" x2="50.0" y2="293.36338967281745" stroke="#000"/>
<text x="26.000000000000004" y="293.36338967281745" text-anchor="end" font-weight="bold" font-size="small" fill="#111">
1.5
</text>
<line x1="42.0" y1="225.15118623042326" x2="50.0" y2="225.15118623042326" stroke="#000"/>
<text x="26.000000000000004" y="225.15118623042326" text-anchor="end" font-weight="bold" font-size="small" fill="#111">
2.0
</text>
<line x1="42.0" y1="156.9389827880291" x2="50.0" y2="156.9389827880291" stroke="#000"/>
<text x="26.000000000000004" y="156.9389827880291" text-anchor="end" font-weight="bold" font-size="small" fill="#111">
2.5
</text>
<line x1="142.75" y1="54.60000000000001" x2="262.75" y2="54.60000000000001" stroke="#648FFF" stroke-width="2"/>
<text x="202.75" y="49.500000000000014" font-size="small" text-anchor="middle" font-weight="bold" fill="#000">
CRuby 3.3.4
</text>
<rect x="354.25" y="35.400000000000006" width="120.0" height="19.2" fill="#785EF0" stroke="none"/>
<text x="414.25" y="49.500000000000014" font-size="small" text-anchor="middle" font-weight="bold" fill="#fff" style="text-shadow: 0 0 1px #000;">
CRuby 3.4.0dev
</text>
<rect x="565.75" y="35.400000000000006" width="120.0" height="19.2" fill="#FFB000" stroke="none"/>
<text x="625.7499999999999" y="49.500000000000014" font-size="small" text-anchor="middle" font-weight="bold" fill="#fff" style="text-shadow: 0 0 1px #000;">
YJIT 3.3.4
</text>
<rect x="777.25" y="35.400000000000006" width="120.0" height="19.2" fill="#DC267F" stroke="none"/>
<text x="837.2499999999999" y="49.500000000000014" font-size="small" text-anchor="middle" font-weight="bold" fill="#fff" style="text-shadow: 0 0 1px #000;">
YJIT 3.4.0dev
</text>
<rect x="54.77157360406092" y="369.7666877707451" width="4.771573604060913" height="128.23331222925486" fill="#785EF0" data-tooltip="0.94x baseline (CRuby 3.4.0dev)"/>
<rect x="59.54314720812183" y="337.6561437552614" width="4.771573604060913" height="160.34385624473856" fill="#FFB000" data-tooltip="1.18x baseline (YJIT 3.3.4)"/>
<rect x="64.31472081218274" y="344.14000360454173" width="4.771573604060913" height="153.8599963954582" fill="#DC267F" data-tooltip="1.13x baseline (YJIT 3.4.0dev)"/>
<line x1="61.92893401015229" y1="498.0" x2="61.92893401015229" y2="502.79999999999995" stroke="#000"/>
<text x="61.92893401015229" y="512.4" fill="#111" font-size="small" text-anchor="end" transform="rotate(-60, 61.92893401015229, 512.4)">
activerecord
</text>
<rect x="73.85786802030456" y="333.3445630869442" width="4.771573604060913" height="164.65543691305567" fill="#785EF0" data-tooltip="1.21x baseline (CRuby 3.4.0dev)"/>
<rect x="78.62944162436548" y="367.02234075653496" width="4.771573604060913" height="130.97765924346498" fill="#FFB000" data-tooltip="0.96x baseline (YJIT 3.3.4)"/>
<rect x="83.4010152284264" y="393.3355018970124" width="4.771573604060913" height="104.66449810298757" fill="#DC267F" data-tooltip="0.77x baseline (YJIT 3.4.0dev)"/>
<line x1="81.01522842639594" y1="498.0" x2="81.01522842639594" y2="502.79999999999995" stroke="#000"/>
<text x="81.01522842639594" y="512.4" fill="#111" font-size="small" text-anchor="end" transform="rotate(-60, 81.01522842639594, 512.4)">
chunky-png
</text>
<rect x="92.94416243654823" y="351.4867206460719" width="4.771573604060913" height="146.51327935392806" fill="#785EF0" data-tooltip="1.07x baseline (CRuby 3.4.0dev)"/>
<rect x="97.71573604060914" y="352.75129619470516" width="4.771573604060913" height="145.2487038052948" fill="#FFB000" data-tooltip="1.06x baseline (YJIT 3.3.4)"/>
<rect x="102.48730964467005" y="344.35407084106157" width="4.771573604060913" height="153.64592915893834" fill="#DC267F" data-tooltip="1.13x baseline (YJIT 3.4.0dev)"/>
<line x1="100.1015228426396" y1="498.0" x2="100.1015228426396" y2="502.79999999999995" stroke="#000"/>
<text x="100.1015228426396" y="512.4" fill="#111" font-size="small" text-anchor="end" transform="rotate(-60, 100.1015228426396, 512.4)">
erubi-rails
</text>
<rect x="112.03045685279189" y="390.96532834842213" width="4.771573604060913" height="107.03467165157784" fill="#785EF0" data-tooltip="0.78x baseline (CRuby 3.4.0dev)"/>
<rect x="116.80203045685279" y="298.44921154754354" width="4.771573604060913" height="199.5507884524564" fill="#FFB000" data-tooltip="1.46x baseline (YJIT 3.3.4)"/>
<rect x="121.57360406091371" y="282.43360102996934" width="4.771573604060913" height="215.5663989700306" fill="#DC267F" data-tooltip="1.58x baseline (YJIT 3.4.0dev)"/>
<line x1="119.18781725888324" y1="498.0" x2="119.18781725888324" y2="502.79999999999995" stroke="#000"/>
<text x="119.18781725888324" y="512.4" fill="#111" font-size="small" text-anchor="end" transform="rotate(-60, 119.18781725888324, 512.4)">
hexapdf
</text>
<rect x="131.11675126903552" y="362.3081249029214" width="4.771573604060913" height="135.69187509707857" fill="#785EF0" data-tooltip="0.99x baseline (CRuby 3.4.0dev)"/>
<rect x="135.88832487309642" y="340.2936169670123" width="4.771573604060913" height="157.70638303298762" fill="#FFB000" data-tooltip="1.16x baseline (YJIT 3.3.4)"/>
<rect x="140.65989847715736" y="343.4936242501655" width="4.771573604060913" height="154.50637574983446" fill="#DC267F" data-tooltip="1.13x baseline (YJIT 3.4.0dev)"/>
<line x1="138.27411167512687" y1="498.0" x2="138.27411167512687" y2="502.79999999999995" stroke="#000"/>
<text x="138.27411167512687" y="512.4" fill="#111" font-size="small" text-anchor="end" transform="rotate(-60, 138.27411167512687, 512.4)">
liquid-c
</text>
<rect x="150.20304568527916" y="360.0692657339114" width="4.771573604060913" height="137.9307342660886" fill="#785EF0" data-tooltip="1.01x baseline (CRuby 3.4.0dev)"/>
<rect x="154.9746192893401" y="343.78464539553016" width="4.771573604060913" height="154.21535460446978" fill="#FFB000" data-tooltip="1.13x baseline (YJIT 3.3.4)"/>
<rect x="159.746192893401" y="344.72101106498707" width="4.771573604060913" height="153.27898893501285" fill="#DC267F" data-tooltip="1.12x baseline (YJIT 3.4.0dev)"/>
<line x1="157.36040609137052" y1="498.0" x2="157.36040609137052" y2="502.79999999999995" stroke="#000"/>
<text x="157.36040609137052" y="512.4" fill="#111" font-size="small" text-anchor="end" transform="rotate(-60, 157.36040609137052, 512.4)">
liquid-compile
</text>
<rect x="169.28934010152284" y="361.72526333669794" width="4.771573604060913" height="136.274736663302" fill="#785EF0" data-tooltip="1.00x baseline (CRuby 3.4.0dev)"/>
<rect x="174.06091370558374" y="337.3477260121122" width="4.771573604060913" height="160.65227398788772" fill="#FFB000" data-tooltip="1.18x baseline (YJIT 3.3.4)"/>
<rect x="178.83248730964465" y="350.31290894836536" width="4.771573604060913" height="147.68709105163452" fill="#DC267F" data-tooltip="1.08x baseline (YJIT 3.4.0dev)"/>
<line x1="176.4467005076142" y1="498.0" x2="176.4467005076142" y2="502.79999999999995" stroke="#000"/>
<text x="176.4467005076142" y="512.4" fill="#111" font-size="small" text-anchor="end" transform="rotate(-60, 176.4467005076142, 512.4)">
liquid-render
</text>
<rect x="188.37563451776649" y="360.4870317019113" width="4.771573604060913" height="137.51296829808868" fill="#785EF0" data-tooltip="1.01x baseline (CRuby 3.4.0dev)"/>
<rect x="193.1472081218274" y="340.09491323374175" width="4.771573604060913" height="157.9050867662582" fill="#FFB000" data-tooltip="1.16x baseline (YJIT 3.3.4)"/>
<rect x="197.91878172588832" y="336.825248878984" width="4.771573604060913" height="161.17475112101596" fill="#DC267F" data-tooltip="1.18x baseline (YJIT 3.4.0dev)"/>
<line x1="195.53299492385784" y1="498.0" x2="195.53299492385784" y2="502.79999999999995" stroke="#000"/>
<text x="195.53299492385784" y="512.4" fill="#111" font-size="small" text-anchor="end" transform="rotate(-60, 195.53299492385784, 512.4)">
lobsters
</text>
<rect x="207.46192893401013" y="302.9752204196302" width="4.771573604060913" height="195.0247795803697" fill="#785EF0" data-tooltip="1.43x baseline (CRuby 3.4.0dev)"/>
<rect x="212.23350253807104" y="347.5736259331497" width="4.771573604060913" height="150.42637406685023" fill="#FFB000" data-tooltip="1.10x baseline (YJIT 3.3.4)"/>
<rect x="217.00507614213197" y="296.6529348011796" width="4.771573604060913" height="201.34706519882036" fill="#DC267F" data-tooltip="1.48x baseline (YJIT 3.4.0dev)"/>
<line x1="214.6192893401015" y1="498.0" x2="214.6192893401015" y2="502.79999999999995" stroke="#000"/>
<text x="214.6192893401015" y="512.4" fill="#111" font-size="small" text-anchor="end" transform="rotate(-60, 214.6192893401015, 512.4)">
mail
</text>
<rect x="226.54822335025378" y="341.3637892835243" width="4.771573604060913" height="156.63621071647563" fill="#785EF0" data-tooltip="1.15x baseline (CRuby 3.4.0dev)"/>
<rect x="231.3197969543147" y="348.6771322758032" width="4.771573604060913" height="149.32286772419673" fill="#FFB000" data-tooltip="1.09x baseline (YJIT 3.3.4)"/>
<rect x="236.09137055837562" y="342.0382186084607" width="4.771573604060913" height="155.96178139153926" fill="#DC267F" data-tooltip="1.14x baseline (YJIT 3.4.0dev)"/>
<line x1="233.70558375634513" y1="498.0" x2="233.70558375634513" y2="502.79999999999995" stroke="#000"/>
<text x="233.70558375634513" y="512.4" fill="#111" font-size="small" text-anchor="end" transform="rotate(-60, 233.70558375634513, 512.4)">
psych-load
</text>
<rect x="245.63451776649745" y="350.7755897524509" width="4.771573604060913" height="147.22441024754906" fill="#785EF0" data-tooltip="1.08x baseline (CRuby 3.4.0dev)"/>
<rect x="250.40609137055836" y="338.88872164449714" width="4.771573604060913" height="159.11127835550286" fill="#FFB000" data-tooltip="1.17x baseline (YJIT 3.3.4)"/>
<rect x="255.17766497461923" y="334.9588475395095" width="4.771573604060913" height="163.04115246049048" fill="#DC267F" data-tooltip="1.20x baseline (YJIT 3.4.0dev)"/>
<line x1="252.79187817258875" y1="498.0" x2="252.79187817258875" y2="502.79999999999995" stroke="#000"/>
<text x="252.79187817258875" y="512.4" fill="#111" font-size="small" text-anchor="end" transform="rotate(-60, 252.79187817258875, 512.4)">
railsbench
</text>
<rect x="264.72081218274104" y="359.45183417487993" width="4.771573604060913" height="138.54816582511998" fill="#785EF0" data-tooltip="1.02x baseline (CRuby 3.4.0dev)"/>
<rect x="269.4923857868019" y="304.08103801884556" width="4.771573604060913" height="193.9189619811544" fill="#FFB000" data-tooltip="1.42x baseline (YJIT 3.3.4)"/>
<rect x="274.2639593908628" y="303.545315042906" width="4.771573604060913" height="194.45468495709395" fill="#DC267F" data-tooltip="1.43x baseline (YJIT 3.4.0dev)"/>
<line x1="271.8781725888323" y1="498.0" x2="271.8781725888323" y2="502.79999999999995" stroke="#000"/>
<text x="271.8781725888323" y="512.4" fill="#111" font-size="small" text-anchor="end" transform="rotate(-60, 271.8781725888323, 512.4)">
rubocop
</text>
<rect x="283.80710659898455" y="361.2022723111248" width="4.771573604060913" height="136.7977276888752" fill="#785EF0" data-tooltip="1.00x baseline (CRuby 3.4.0dev)"/>
<rect x="288.57868020304545" y="347.94126809638686" width="4.771573604060913" height="150.0587319036131" fill="#FFB000" data-tooltip="1.10x baseline (YJIT 3.3.4)"/>
<rect x="293.35025380710636" y="344.0700936713991" width="4.771573604060913" height="153.92990632860082" fill="#DC267F" data-tooltip="1.13x baseline (YJIT 3.4.0dev)"/>
<line x1="290.96446700507585" y1="498.0" x2="290.96446700507585" y2="502.79999999999995" stroke="#000"/>
<text x="290.96446700507585" y="512.4" fill="#111" font-size="small" text-anchor="end" transform="rotate(-60, 290.96446700507585, 512.4)">
ruby-lsp
</text>
<rect x="302.8934010152281" y="350.25103396826165" width="4.771573604060913" height="147.74896603173823" fill="#785EF0" data-tooltip="1.08x baseline (CRuby 3.4.0dev)"/>
<rect x="307.664974619289" y="342.6526200890179" width="4.771573604060913" height="155.34737991098203" fill="#FFB000" data-tooltip="1.14x baseline (YJIT 3.3.4)"/>
<rect x="312.43654822334986" y="337.92187683246954" width="4.771573604060913" height="160.07812316753046" fill="#DC267F" data-tooltip="1.17x baseline (YJIT 3.4.0dev)"/>
<line x1="310.05076142131935" y1="498.0" x2="310.05076142131935" y2="502.79999999999995" stroke="#000"/>
<text x="310.05076142131935" y="512.4" fill="#111" font-size="small" text-anchor="end" transform="rotate(-60, 310.05076142131935, 512.4)">
sequel
</text>
<rect x="321.97969543147167" y="353.5642382907286" width="4.771573604060913" height="144.43576170927133" fill="#785EF0" data-tooltip="1.06x baseline (CRuby 3.4.0dev)"/>
<rect x="326.7512690355325" y="354.43189404789285" width="4.771573604060913" height="143.56810595210712" fill="#FFB000" data-tooltip="1.05x baseline (YJIT 3.3.4)"/>
<rect x="331.5228426395934" y="351.0480365949523" width="4.771573604060913" height="146.9519634050476" fill="#DC267F" data-tooltip="1.08x baseline (YJIT 3.4.0dev)"/>
<line x1="329.1370558375629" y1="498.0" x2="329.1370558375629" y2="502.79999999999995" stroke="#000"/>
<text x="329.1370558375629" y="512.4" fill="#111" font-size="small" text-anchor="end" transform="rotate(-60, 329.1370558375629, 512.4)">
binarytrees
</text>
<rect x="341.0659898477152" y="350.3991329593441" width="4.771573604060913" height="147.60086704065583" fill="#785EF0" data-tooltip="1.08x baseline (CRuby 3.4.0dev)"/>
<rect x="345.8375634517761" y="358.5130043892266" width="4.771573604060913" height="139.48699561077336" fill="#FFB000" data-tooltip="1.02x baseline (YJIT 3.3.4)"/>
<rect x="350.609137055837" y="345.5467196532379" width="4.771573604060913" height="152.453280346762" fill="#DC267F" data-tooltip="1.12x baseline (YJIT 3.4.0dev)"/>
<line x1="348.2233502538065" y1="498.0" x2="348.2233502538065" y2="502.79999999999995" stroke="#000"/>
<text x="348.2233502538065" y="512.4" fill="#111" font-size="small" text-anchor="end" transform="rotate(-60, 348.2233502538065, 512.4)">
blurhash
</text>
<rect x="360.15228426395873" y="351.7702452056339" width="4.771573604060913" height="146.22975479436604" fill="#785EF0" data-tooltip="1.07x baseline (CRuby 3.4.0dev)"/>
<rect x="364.92385786801964" y="346.6924757524597" width="4.771573604060913" height="151.30752424754027" fill="#FFB000" data-tooltip="1.11x baseline (YJIT 3.3.4)"/>
<rect x="369.6954314720805" y="340.33901052533537" width="4.771573604060913" height="157.66098947466463" fill="#DC267F" data-tooltip="1.16x baseline (YJIT 3.4.0dev)"/>
<line x1="367.30964467005003" y1="498.0" x2="367.30964467005003" y2="502.79999999999995" stroke="#000"/>
<text x="367.30964467005003" y="512.4" fill="#111" font-size="small" text-anchor="end" transform="rotate(-60, 367.30964467005003, 512.4)">
erubi
</text>
<rect x="379.2385786802023" y="350.5332245207097" width="4.771573604060913" height="147.46677547929022" fill="#785EF0" data-tooltip="1.08x baseline (CRuby 3.4.0dev)"/>
<rect x="384.01015228426314" y="358.36519202224144" width="4.771573604060913" height="139.63480797775853" fill="#FFB000" data-tooltip="1.02x baseline (YJIT 3.3.4)"/>
<rect x="388.78172588832405" y="345.13551718857303" width="4.771573604060913" height="152.8644828114269" fill="#DC267F" data-tooltip="1.12x baseline (YJIT 3.4.0dev)"/>
<line x1="386.39593908629354" y1="498.0" x2="386.39593908629354" y2="502.79999999999995" stroke="#000"/>
<text x="386.39593908629354" y="512.4" fill="#111" font-size="small" text-anchor="end" transform="rotate(-60, 386.39593908629354, 512.4)">
etanni
</text>
<rect x="398.3248730964458" y="347.54941743161555" width="4.771573604060913" height="150.45058256838442" fill="#785EF0" data-tooltip="1.10x baseline (CRuby 3.4.0dev)"/>
<rect x="403.0964467005067" y="359.8112942870863" width="4.771573604060913" height="138.18870571291362" fill="#FFB000" data-tooltip="1.01x baseline (YJIT 3.3.4)"/>
<rect x="407.8680203045676" y="342.9622404784897" width="4.771573604060913" height="155.03775952151017" fill="#DC267F" data-tooltip="1.14x baseline (YJIT 3.4.0dev)"/>
<line x1="405.4822335025371" y1="498.0" x2="405.4822335025371" y2="502.79999999999995" stroke="#000"/>
<text x="405.4822335025371" y="512.4" fill="#111" font-size="small" text-anchor="end" transform="rotate(-60, 405.4822335025371, 512.4)">
fannkuchredux
</text>
<rect x="417.41116751268936" y="360.7200095265798" width="4.771573604060913" height="137.27999047342013" fill="#785EF0" data-tooltip="1.01x baseline (CRuby 3.4.0dev)"/>
<rect x="422.18274111675026" y="358.3829747191316" width="4.771573604060913" height="139.61702528086835" fill="#FFB000" data-tooltip="1.02x baseline (YJIT 3.3.4)"/>
<rect x="426.9543147208111" y="352.7527666054907" width="4.771573604060913" height="145.2472333945093" fill="#DC267F" data-tooltip="1.06x baseline (YJIT 3.4.0dev)"/>
<line x1="424.56852791878066" y1="498.0" x2="424.56852791878066" y2="502.79999999999995" stroke="#000"/>
<text x="424.56852791878066" y="512.4" fill="#111" font-size="small" text-anchor="end" transform="rotate(-60, 424.56852791878066, 512.4)">
fluentd
</text>
<rect x="436.4974619289329" y="356.41752053304316" width="4.771573604060913" height="141.58247946695676" fill="#785EF0" data-tooltip="1.04x baseline (CRuby 3.4.0dev)"/>
<rect x="441.26903553299377" y="347.2421029589936" width="4.771573604060913" height="150.75789704100637" fill="#FFB000" data-tooltip="1.11x baseline (YJIT 3.3.4)"/>
<rect x="446.0406091370547" y="344.3820178413169" width="4.771573604060913" height="153.6179821586831" fill="#DC267F" data-tooltip="1.13x baseline (YJIT 3.4.0dev)"/>
<line x1="443.65482233502416" y1="498.0" x2="443.65482233502416" y2="502.79999999999995" stroke="#000"/>
<text x="443.65482233502416" y="512.4" fill="#111" font-size="small" text-anchor="end" transform="rotate(-60, 443.65482233502416, 512.4)">
graphql
</text>
<rect x="455.5837563451764" y="351.5736965107378" width="4.771573604060913" height="146.42630348926215" fill="#785EF0" data-tooltip="1.07x baseline (CRuby 3.4.0dev)"/>
<rect x="460.35532994923733" y="338.5913444281484" width="4.771573604060913" height="159.4086555718516" fill="#FFB000" data-tooltip="1.17x baseline (YJIT 3.3.4)"/>
<rect x="465.12690355329823" y="336.3057190614953" width="4.771573604060913" height="161.69428093850462" fill="#DC267F" data-tooltip="1.19x baseline (YJIT 3.4.0dev)"/>
<line x1="462.7411167512677" y1="498.0" x2="462.7411167512677" y2="502.79999999999995" stroke="#000"/>
<text x="462.7411167512677" y="512.4" fill="#111" font-size="small" text-anchor="end" transform="rotate(-60, 462.7411167512677, 512.4)">
graphql-native
</text>
<rect x="474.67005076142" y="360.3197188424786" width="4.771573604060913" height="137.68028115752134" fill="#785EF0" data-tooltip="1.01x baseline (CRuby 3.4.0dev)"/>
<rect x="479.4416243654809" y="346.950734648869" width="4.771573604060913" height="151.04926535113088" fill="#FFB000" data-tooltip="1.11x baseline (YJIT 3.3.4)"/>
<rect x="484.21319796954174" y="350.7183574670681" width="4.771573604060913" height="147.28164253293184" fill="#DC267F" data-tooltip="1.08x baseline (YJIT 3.4.0dev)"/>
<line x1="481.8274111675113" y1="498.0" x2="481.8274111675113" y2="502.79999999999995" stroke="#000"/>
<text x="481.8274111675113" y="512.4" fill="#111" font-size="small" text-anchor="end" transform="rotate(-60, 481.8274111675113, 512.4)">
lee
</text>
<rect x="493.75634517766355" y="356.5160052995115" width="4.771573604060913" height="141.4839947004884" fill="#785EF0" data-tooltip="1.04x baseline (CRuby 3.4.0dev)"/>
<rect x="498.5279187817244" y="359.915415863185" width="4.771573604060913" height="138.08458413681493" fill="#FFB000" data-tooltip="1.01x baseline (YJIT 3.3.4)"/>
<rect x="503.2994923857853" y="353.4855230140662" width="4.771573604060913" height="144.51447698593378" fill="#DC267F" data-tooltip="1.06x baseline (YJIT 3.4.0dev)"/>
<line x1="500.9137055837548" y1="498.0" x2="500.9137055837548" y2="502.79999999999995" stroke="#000"/>
<text x="500.9137055837548" y="512.4" fill="#111" font-size="small" text-anchor="end" transform="rotate(-60, 500.9137055837548, 512.4)">
matmul
</text>
<rect x="512.842639593907" y="347.4566376808221" width="4.771573604060913" height="150.54336231917782" fill="#785EF0" data-tooltip="1.10x baseline (CRuby 3.4.0dev)"/>
<rect x="517.614213197968" y="358.9724107069961" width="4.771573604060913" height="139.02758929300387" fill="#FFB000" data-tooltip="1.02x baseline (YJIT 3.3.4)"/>
<rect x="522.3857868020289" y="342.6473684859832" width="4.771573604060913" height="155.35263151401674" fill="#DC267F" data-tooltip="1.14x baseline (YJIT 3.4.0dev)"/>
<line x1="519.9999999999984" y1="498.0" x2="519.9999999999984" y2="502.79999999999995" stroke="#000"/>
<text x="519.9999999999984" y="512.4" fill="#111" font-size="small" text-anchor="end" transform="rotate(-60, 519.9999999999984, 512.4)">
nbody
</text>
<rect x="531.9289340101507" y="345.25354315522736" width="4.771573604060913" height="152.7464568447726" fill="#785EF0" data-tooltip="1.12x baseline (CRuby 3.4.0dev)"/>
<rect x="536.7005076142115" y="359.9608448571383" width="4.771573604060913" height="138.03915514286166" fill="#FFB000" data-tooltip="1.01x baseline (YJIT 3.3.4)"/>
<rect x="541.4720812182724" y="329.80433009149885" width="4.771573604060913" height="168.19566990850103" fill="#DC267F" data-tooltip="1.23x baseline (YJIT 3.4.0dev)"/>
<line x1="539.0862944162419" y1="498.0" x2="539.0862944162419" y2="502.79999999999995" stroke="#000"/>
<text x="539.0862944162419" y="512.4" fill="#111" font-size="small" text-anchor="end" transform="rotate(-60, 539.0862944162419, 512.4)">
nqueens
</text>
<rect x="551.0152284263942" y="354.08118947942927" width="4.771573604060913" height="143.91881052057073" fill="#785EF0" data-tooltip="1.05x baseline (CRuby 3.4.0dev)"/>
<rect x="555.7868020304551" y="354.20239277273026" width="4.771573604060913" height="143.79760722726965" fill="#FFB000" data-tooltip="1.05x baseline (YJIT 3.3.4)"/>
<rect x="560.558375634516" y="343.69810735330475" width="4.771573604060913" height="154.30189264669514" fill="#DC267F" data-tooltip="1.13x baseline (YJIT 3.4.0dev)"/>
<line x1="558.1725888324854" y1="498.0" x2="558.1725888324854" y2="502.79999999999995" stroke="#000"/>
<text x="558.1725888324854" y="512.4" fill="#111" font-size="small" text-anchor="end" transform="rotate(-60, 558.1725888324854, 512.4)">
optcarrot
</text>
<rect x="570.1015228426377" y="330.49317283886893" width="4.771573604060913" height="167.506827161131" fill="#785EF0" data-tooltip="1.23x baseline (CRuby 3.4.0dev)"/>
<rect x="574.8730964466986" y="325.7526553193938" width="4.771573604060913" height="172.24734468060615" fill="#FFB000" data-tooltip="1.26x baseline (YJIT 3.3.4)"/>
<rect x="579.6446700507595" y="323.01084248380545" width="4.771573604060913" height="174.9891575161945" fill="#DC267F" data-tooltip="1.28x baseline (YJIT 3.4.0dev)"/>
<line x1="577.258883248729" y1="498.0" x2="577.258883248729" y2="502.79999999999995" stroke="#000"/>
<text x="577.258883248729" y="512.4" fill="#111" font-size="small" text-anchor="end" transform="rotate(-60, 577.258883248729, 512.4)">
protoboeuf
</text>
<rect x="589.1878172588813" y="377.03671260026" width="4.771573604060913" height="120.96328739973998" fill="#785EF0" data-tooltip="0.89x baseline (CRuby 3.4.0dev)"/>
<rect x="593.9593908629421" y="349.56855351512087" width="4.771573604060913" height="148.43144648487907" fill="#FFB000" data-tooltip="1.09x baseline (YJIT 3.3.4)"/>
<rect x="598.730964467003" y="271.781264677351" width="4.771573604060913" height="226.21873532264897" fill="#DC267F" data-tooltip="1.66x baseline (YJIT 3.4.0dev)"/>
<line x1="596.3451776649725" y1="498.0" x2="596.3451776649725" y2="502.79999999999995" stroke="#000"/>
<text x="596.3451776649725" y="512.4" fill="#111" font-size="small" text-anchor="end" transform="rotate(-60, 596.3451776649725, 512.4)">
protoboeuf-encode
</text>
<rect x="608.2741116751248" y="354.1993653413884" width="4.771573604060913" height="143.80063465861156" fill="#785EF0" data-tooltip="1.05x baseline (CRuby 3.4.0dev)"/>
<rect x="613.0456852791857" y="347.63476133555866" width="4.771573604060913" height="150.36523866444125" fill="#FFB000" data-tooltip="1.10x baseline (YJIT 3.3.4)"/>
<rect x="617.8172588832466" y="343.0514741751249" width="4.771573604060913" height="154.94852582487508" fill="#DC267F" data-tooltip="1.14x baseline (YJIT 3.4.0dev)"/>
<line x1="615.431472081216" y1="498.0" x2="615.431472081216" y2="502.79999999999995" stroke="#000"/>
<text x="615.431472081216" y="512.4" fill="#111" font-size="small" text-anchor="end" transform="rotate(-60, 615.431472081216, 512.4)">
rack
</text>
<rect x="627.3604060913683" y="345.0180304152116" width="4.771573604060913" height="152.98196958478837" fill="#785EF0" data-tooltip="1.12x baseline (CRuby 3.4.0dev)"/>
<rect x="632.1319796954292" y="357.9420132708226" width="4.771573604060913" height="140.05798672917737" fill="#FFB000" data-tooltip="1.03x baseline (YJIT 3.3.4)"/>
<rect x="636.9035532994901" y="340.3934742496255" width="4.771573604060913" height="157.6065257503744" fill="#DC267F" data-tooltip="1.16x baseline (YJIT 3.4.0dev)"/>
<line x1="634.5177664974597" y1="498.0" x2="634.5177664974597" y2="502.79999999999995" stroke="#000"/>
<text x="634.5177664974597" y="512.4" fill="#111" font-size="small" text-anchor="end" transform="rotate(-60, 634.5177664974597, 512.4)">
ruby-json
</text>
<rect x="646.4467005076119" y="354.7730005599167" width="4.771573604060913" height="143.22699944008323" fill="#785EF0" data-tooltip="1.05x baseline (CRuby 3.4.0dev)"/>
<rect x="651.2182741116727" y="357.8362369641266" width="4.771573604060913" height="140.16376303587336" fill="#FFB000" data-tooltip="1.03x baseline (YJIT 3.3.4)"/>
<rect x="655.9898477157336" y="351.9167395884237" width="4.771573604060913" height="146.08326041157622" fill="#DC267F" data-tooltip="1.07x baseline (YJIT 3.4.0dev)"/>
<line x1="653.6040609137032" y1="498.0" x2="653.6040609137032" y2="502.79999999999995" stroke="#000"/>
<text x="653.6040609137032" y="512.4" fill="#111" font-size="small" text-anchor="end" transform="rotate(-60, 653.6040609137032, 512.4)">
rubykon
</text>
<rect x="665.5329949238554" y="348.44869718441106" width="4.771573604060913" height="149.55130281558885" fill="#785EF0" data-tooltip="1.10x baseline (CRuby 3.4.0dev)"/>
<rect x="670.3045685279163" y="358.2397152714109" width="4.771573604060913" height="139.76028472858914" fill="#FFB000" data-tooltip="1.02x baseline (YJIT 3.3.4)"/>
<rect x="675.0761421319772" y="342.8600187188227" width="4.771573604060913" height="155.1399812811772" fill="#DC267F" data-tooltip="1.14x baseline (YJIT 3.4.0dev)"/>
<line x1="672.6903553299467" y1="498.0" x2="672.6903553299467" y2="502.79999999999995" stroke="#000"/>
<text x="672.6903553299467" y="512.4" fill="#111" font-size="small" text-anchor="end" transform="rotate(-60, 672.6903553299467, 512.4)">
sudoku
</text>
<rect x="684.6192893400989" y="349.1879680146709" width="4.771573604060913" height="148.81203198532904" fill="#785EF0" data-tooltip="1.09x baseline (CRuby 3.4.0dev)"/>
<rect x="689.3908629441598" y="345.44224984172126" width="4.771573604060913" height="152.55775015827868" fill="#FFB000" data-tooltip="1.12x baseline (YJIT 3.3.4)"/>
<rect x="694.1624365482207" y="335.7568928516657" width="4.771573604060913" height="162.24310714833425" fill="#DC267F" data-tooltip="1.19x baseline (YJIT 3.4.0dev)"/>
<line x1="691.7766497461903" y1="498.0" x2="691.7766497461903" y2="502.79999999999995" stroke="#000"/>
<text x="691.7766497461903" y="512.4" fill="#111" font-size="small" text-anchor="end" transform="rotate(-60, 691.7766497461903, 512.4)">
tinygql
</text>
<rect x="703.7055837563425" y="133.51963095053497" width="4.771573604060913" height="364.48036904946497" fill="#785EF0" data-tooltip="2.67x baseline (CRuby 3.4.0dev)"/>
<rect x="708.4771573604035" y="270.6328423011319" width="4.771573604060913" height="227.36715769886803" fill="#FFB000" data-tooltip="1.67x baseline (YJIT 3.3.4)"/>
<rect x="713.2487309644642" y="100.19999999999999" width="4.771573604060913" height="397.79999999999995" fill="#DC267F" data-tooltip="2.92x baseline (YJIT 3.4.0dev)"/>
<line x1="710.8629441624338" y1="498.0" x2="710.8629441624338" y2="502.79999999999995" stroke="#000"/>
<text x="710.8629441624338" y="512.4" fill="#111" font-size="small" text-anchor="end" transform="rotate(-60, 710.8629441624338, 512.4)">
30k_ifelse
</text>
<rect x="722.791878172586" y="215.58575196661417" width="4.771573604060913" height="282.4142480333858" fill="#785EF0" data-tooltip="2.07x baseline (CRuby 3.4.0dev)"/>
<rect x="727.563451776647" y="326.8359113391766" width="4.771573604060913" height="171.16408866082332" fill="#FFB000" data-tooltip="1.25x baseline (YJIT 3.3.4)"/>
<rect x="732.3350253807079" y="200.9386807501565" width="4.771573604060913" height="297.06131924984345" fill="#DC267F" data-tooltip="2.18x baseline (YJIT 3.4.0dev)"/>
<line x1="729.9492385786773" y1="498.0" x2="729.9492385786773" y2="502.79999999999995" stroke="#000"/>
<text x="729.9492385786773" y="512.4" fill="#111" font-size="small" text-anchor="end" transform="rotate(-60, 729.9492385786773, 512.4)">
30k_methods
</text>
<rect x="741.8781725888296" y="347.10366379496236" width="4.771573604060913" height="150.89633620503756" fill="#785EF0" data-tooltip="1.11x baseline (CRuby 3.4.0dev)"/>
<rect x="746.6497461928905" y="357.91348904941685" width="4.771573604060913" height="140.0865109505831" fill="#FFB000" data-tooltip="1.03x baseline (YJIT 3.3.4)"/>
<rect x="751.4213197969514" y="342.0296641857286" width="4.771573604060913" height="155.97033581427127" fill="#DC267F" data-tooltip="1.14x baseline (YJIT 3.4.0dev)"/>
<line x1="749.0355329949209" y1="498.0" x2="749.0355329949209" y2="502.79999999999995" stroke="#000"/>
<text x="749.0355329949209" y="512.4" fill="#111" font-size="small" text-anchor="end" transform="rotate(-60, 749.0355329949209, 512.4)">
cfunc_itself
</text>
<rect x="760.9644670050732" y="346.66316200260263" width="4.771573604060913" height="151.33683799739737" fill="#785EF0" data-tooltip="1.11x baseline (CRuby 3.4.0dev)"/>
<rect x="765.7360406091341" y="358.9648114070693" width="4.771573604060913" height="139.03518859293058" fill="#FFB000" data-tooltip="1.02x baseline (YJIT 3.3.4)"/>
<rect x="770.5076142131949" y="342.3266093348409" width="4.771573604060913" height="155.67339066515905" fill="#DC267F" data-tooltip="1.14x baseline (YJIT 3.4.0dev)"/>
<line x1="768.1218274111644" y1="498.0" x2="768.1218274111644" y2="502.79999999999995" stroke="#000"/>
<text x="768.1218274111644" y="512.4" fill="#111" font-size="small" text-anchor="end" transform="rotate(-60, 768.1218274111644, 512.4)">
fib
</text>
<rect x="780.0507614213167" y="346.85925767866" width="4.771573604060913" height="151.14074232133987" fill="#785EF0" data-tooltip="1.11x baseline (CRuby 3.4.0dev)"/>
<rect x="784.8223350253776" y="357.8191711569328" width="4.771573604060913" height="140.18082884306722" fill="#FFB000" data-tooltip="1.03x baseline (YJIT 3.3.4)"/>
<rect x="789.5939086294385" y="341.77703973510626" width="4.771573604060913" height="156.22296026489366" fill="#DC267F" data-tooltip="1.15x baseline (YJIT 3.4.0dev)"/>
<line x1="787.2081218274079" y1="498.0" x2="787.2081218274079" y2="502.79999999999995" stroke="#000"/>
<text x="787.2081218274079" y="512.4" fill="#111" font-size="small" text-anchor="end" transform="rotate(-60, 787.2081218274079, 512.4)">
getivar
</text>
<rect x="799.1370558375602" y="347.10366379496236" width="4.771573604060913" height="150.89633620503756" fill="#785EF0" data-tooltip="1.11x baseline (CRuby 3.4.0dev)"/>
<rect x="803.9086294416211" y="358.84004549979863" width="4.771573604060913" height="139.1599545002013" fill="#FFB000" data-tooltip="1.02x baseline (YJIT 3.3.4)"/>
<rect x="808.680203045682" y="341.9855424499962" width="4.771573604060913" height="156.01445755000373" fill="#DC267F" data-tooltip="1.14x baseline (YJIT 3.4.0dev)"/>
<line x1="806.2944162436515" y1="498.0" x2="806.2944162436515" y2="502.79999999999995" stroke="#000"/>
<text x="806.2944162436515" y="512.4" fill="#111" font-size="small" text-anchor="end" transform="rotate(-60, 806.2944162436515, 512.4)">
keyword_args
</text>
<rect x="818.2233502538038" y="348.020046953411" width="4.771573604060913" height="149.97995304658895" fill="#785EF0" data-tooltip="1.10x baseline (CRuby 3.4.0dev)"/>
<rect x="822.9949238578647" y="360.098386161682" width="4.771573604060913" height="137.90161383831793" fill="#FFB000" data-tooltip="1.01x baseline (YJIT 3.3.4)"/>
<rect x="827.7664974619255" y="344.4139240962653" width="4.771573604060913" height="153.58607590373464" fill="#DC267F" data-tooltip="1.13x baseline (YJIT 3.4.0dev)"/>
<line x1="825.380710659895" y1="498.0" x2="825.380710659895" y2="502.79999999999995" stroke="#000"/>
<text x="825.380710659895" y="512.4" fill="#111" font-size="small" text-anchor="end" transform="rotate(-60, 825.380710659895, 512.4)">
object-new
</text>
<rect x="837.3096446700473" y="346.9286652271594" width="4.771573604060913" height="151.07133477284054" fill="#785EF0" data-tooltip="1.11x baseline (CRuby 3.4.0dev)"/>
<rect x="842.0812182741082" y="357.5487942094329" width="4.771573604060913" height="140.45120579056703" fill="#FFB000" data-tooltip="1.03x baseline (YJIT 3.3.4)"/>
<rect x="846.8527918781691" y="341.57435019859656" width="4.771573604060913" height="156.4256498014034" fill="#DC267F" data-tooltip="1.15x baseline (YJIT 3.4.0dev)"/>
<line x1="844.4670050761385" y1="498.0" x2="844.4670050761385" y2="502.79999999999995" stroke="#000"/>
<text x="844.4670050761385" y="512.4" fill="#111" font-size="small" text-anchor="end" transform="rotate(-60, 844.4670050761385, 512.4)">
respond_to
</text>
<rect x="856.3959390862908" y="347.46829889216235" width="4.771573604060913" height="150.53170110783753" fill="#785EF0" data-tooltip="1.10x baseline (CRuby 3.4.0dev)"/>
<rect x="861.1675126903517" y="360.16082148825825" width="4.771573604060913" height="137.8391785117417" fill="#FFB000" data-tooltip="1.01x baseline (YJIT 3.3.4)"/>
<rect x="865.9390862944126" y="344.0728469874743" width="4.771573604060913" height="153.92715301252562" fill="#DC267F" data-tooltip="1.13x baseline (YJIT 3.4.0dev)"/>
<line x1="863.5532994923822" y1="498.0" x2="863.5532994923822" y2="502.79999999999995" stroke="#000"/>
<text x="863.5532994923822" y="512.4" fill="#111" font-size="small" text-anchor="end" transform="rotate(-60, 863.5532994923822, 512.4)">
ruby-xor
</text>
<rect x="875.4822335025344" y="346.85925767866" width="4.771573604060913" height="151.14074232133987" fill="#785EF0" data-tooltip="1.11x baseline (CRuby 3.4.0dev)"/>
<rect x="880.2538071065953" y="357.8633643564419" width="4.771573604060913" height="140.1366356435581" fill="#FFB000" data-tooltip="1.03x baseline (YJIT 3.3.4)"/>
<rect x="885.0253807106561" y="341.77703973510626" width="4.771573604060913" height="156.22296026489366" fill="#DC267F" data-tooltip="1.15x baseline (YJIT 3.4.0dev)"/>
<line x1="882.6395939086257" y1="498.0" x2="882.6395939086257" y2="502.79999999999995" stroke="#000"/>
<text x="882.6395939086257" y="512.4" fill="#111" font-size="small" text-anchor="end" transform="rotate(-60, 882.6395939086257, 512.4)">
setivar
</text>
<rect x="894.5685279187779" y="346.9571150709044" width="4.771573604060913" height="151.04288492909552" fill="#785EF0" data-tooltip="1.11x baseline (CRuby 3.4.0dev)"/>
<rect x="899.3401015228388" y="359.4556929758559" width="4.771573604060913" height="138.54430702414408" fill="#FFB000" data-tooltip="1.02x baseline (YJIT 3.3.4)"/>
<rect x="904.1116751268997" y="342.5848210334832" width="4.771573604060913" height="155.41517896651672" fill="#DC267F" data-tooltip="1.14x baseline (YJIT 3.4.0dev)"/>
<line x1="901.7258883248692" y1="498.0" x2="901.7258883248692" y2="502.79999999999995" stroke="#000"/>
<text x="901.7258883248692" y="512.4" fill="#111" font-size="small" text-anchor="end" transform="rotate(-60, 901.7258883248692, 512.4)">
setivar_object
</text>
<rect x="913.6548223350214" y="347.20120505947756" width="4.771573604060913" height="150.79879494052233" fill="#785EF0" data-tooltip="1.11x baseline (CRuby 3.4.0dev)"/>
<rect x="918.4263959390823" y="359.32683915557226" width="4.771573604060913" height="138.67316084442768" fill="#FFB000" data-tooltip="1.02x baseline (YJIT 3.3.4)"/>
<rect x="923.1979695431432" y="342.83597678488354" width="4.771573604060913" height="155.16402321511637" fill="#DC267F" data-tooltip="1.14x baseline (YJIT 3.4.0dev)"/>
<line x1="920.8121827411128" y1="498.0" x2="920.8121827411128" y2="502.79999999999995" stroke="#000"/>
<text x="920.8121827411128" y="512.4" fill="#111" font-size="small" text-anchor="end" transform="rotate(-60, 920.8121827411128, 512.4)">
setivar_young
</text>
<rect x="932.741116751265" y="357.32630831060345" width="4.771573604060913" height="140.6736916893965" fill="#785EF0" data-tooltip="1.03x baseline (CRuby 3.4.0dev)"/>
<rect x="937.512690355326" y="312.55506084626154" width="4.771573604060913" height="185.4449391537384" fill="#FFB000" data-tooltip="1.36x baseline (YJIT 3.3.4)"/>
<rect x="942.2842639593867" y="354.3490133652694" width="4.771573604060913" height="143.6509866347305" fill="#DC267F" data-tooltip="1.05x baseline (YJIT 3.4.0dev)"/>
<line x1="939.8984771573563" y1="498.0" x2="939.8984771573563" y2="502.79999999999995" stroke="#000"/>
<text x="939.8984771573563" y="512.4" fill="#111" font-size="small" text-anchor="end" transform="rotate(-60, 939.8984771573563, 512.4)">
str_concat
</text>
<rect x="951.8274111675086" y="348.11551477839294" width="4.771573604060913" height="149.88448522160704" fill="#785EF0" data-tooltip="1.10x baseline (CRuby 3.4.0dev)"/>
<rect x="956.5989847715695" y="360.22958528152975" width="4.771573604060913" height="137.7704147184702" fill="#FFB000" data-tooltip="1.01x baseline (YJIT 3.3.4)"/>
<rect x="961.3705583756304" y="344.4248481376523" width="4.771573604060913" height="153.57515186234764" fill="#DC267F" data-tooltip="1.13x baseline (YJIT 3.4.0dev)"/>
<line x1="958.9847715735998" y1="498.0" x2="958.9847715735998" y2="502.79999999999995" stroke="#000"/>
<text x="958.9847715735998" y="512.4" fill="#111" font-size="small" text-anchor="end" transform="rotate(-60, 958.9847715735998, 512.4)">
throw
</text>
<rect x="970.9137055837521" y="347.338946277045" width="4.771573604060913" height="150.66105372295493" fill="#785EF0" data-tooltip="1.10x baseline (CRuby 3.4.0dev)"/>
<rect x="975.685279187813" y="347.8284875824726" width="4.771573604060913" height="150.17151241752737" fill="#FFB000" data-tooltip="1.10x baseline (YJIT 3.3.4)"/>
<rect x="980.4568527918739" y="335.16007892392287" width="4.771573604060913" height="162.83992107607708" fill="#DC267F" data-tooltip="1.19x baseline (YJIT 3.4.0dev)"/>
<line x1="978.0710659898434" y1="498.0" x2="978.0710659898434" y2="502.79999999999995" stroke="#000"/>
<text x="978.0710659898434" y="512.4" fill="#111" font-size="small" text-anchor="end" transform="rotate(-60, 978.0710659898434, 512.4)" font-style="italic">
geomean*
</text>
<line x1="50.0" y1="361.5755931152116" x2="990.0" y2="361.5755931152116" stroke="#648FFF" stroke-width="2"/>
<rect x="56.596573604060914" y="355.6066877707451" width="17.85" height="7.2" transform="rotate(-60, 59.15736040609138, 362.26668777074514)" fill="#fffa"/>
<text x="56.77157360406092" y="362.26668777074514" fill="#111" font-size="0.5em" text-anchor="start" textLength="17.5" transform="rotate(-60, 59.15736040609138, 362.26668777074514)" style="text-shadow: 0 0 1px #fff;">
0.94
</text>
<rect x="61.36814720812183" y="323.4961437552614" width="17.85" height="7.2" transform="rotate(-60, 63.92893401015229, 330.1561437552614)" fill="#fffa"/>
<text x="61.54314720812183" y="330.1561437552614" fill="#111" font-size="0.5em" text-anchor="start" textLength="17.5" transform="rotate(-60, 63.92893401015229, 330.1561437552614)" style="text-shadow: 0 0 1px #fff;">
1.18
</text>
<rect x="66.13972081218274" y="329.98000360454176" width="17.85" height="7.2" transform="rotate(-60, 68.70050761421321, 336.64000360454173)" fill="#fffa"/>
<text x="66.31472081218274" y="336.64000360454173" fill="#111" font-size="0.5em" text-anchor="start" textLength="17.5" transform="rotate(-60, 68.70050761421321, 336.64000360454173)" style="text-shadow: 0 0 1px #fff;">
1.13
</text>
<rect x="75.68286802030458" y="319.18456308694425" width="17.85" height="7.2" transform="rotate(-60, 78.24365482233503, 325.8445630869443)" fill="#fffa"/>
<text x="75.85786802030458" y="325.8445630869443" fill="#111" font-size="0.5em" text-anchor="start" textLength="17.5" transform="rotate(-60, 78.24365482233503, 325.8445630869443)" style="text-shadow: 0 0 1px #fff;">
1.21
</text>
<rect x="80.45444162436549" y="352.862340756535" width="17.85" height="7.2" transform="rotate(-60, 83.01522842639594, 359.52234075653496)" fill="#fffa"/>
<text x="80.62944162436548" y="359.52234075653496" fill="#111" font-size="0.5em" text-anchor="start" textLength="17.5" transform="rotate(-60, 83.01522842639594, 359.52234075653496)" style="text-shadow: 0 0 1px #fff;">
0.96
</text>
<rect x="85.2260152284264" y="379.17550189701245" width="17.85" height="7.2" transform="rotate(-60, 87.78680203045685, 385.8355018970125)" fill="#fffa"/>
<text x="85.4010152284264" y="385.8355018970125" fill="#111" font-size="0.5em" text-anchor="start" textLength="17.5" transform="rotate(-60, 87.78680203045685, 385.8355018970125)" style="text-shadow: 0 0 1px #fff;">
0.77
</text>
<rect x="94.76916243654823" y="337.3267206460719" width="17.85" height="7.2" transform="rotate(-60, 97.32994923857868, 343.98672064607194)" fill="#fffa"/>
<text x="94.94416243654823" y="343.98672064607194" fill="#111" font-size="0.5em" text-anchor="start" textLength="17.5" transform="rotate(-60, 97.32994923857868, 343.98672064607194)" style="text-shadow: 0 0 1px #fff;">
1.07
</text>
<rect x="99.54073604060915" y="338.5912961947052" width="17.85" height="7.2" transform="rotate(-60, 102.1015228426396, 345.25129619470516)" fill="#fffa"/>
<text x="99.71573604060914" y="345.25129619470516" fill="#111" font-size="0.5em" text-anchor="start" textLength="17.5" transform="rotate(-60, 102.1015228426396, 345.25129619470516)" style="text-shadow: 0 0 1px #fff;">
1.06
</text>
<rect x="104.31230964467007" y="330.1940708410616" width="17.85" height="7.2" transform="rotate(-60, 106.87309644670052, 336.85407084106157)" fill="#fffa"/>
<text x="104.48730964467005" y="336.85407084106157" fill="#111" font-size="0.5em" text-anchor="start" textLength="17.5" transform="rotate(-60, 106.87309644670052, 336.85407084106157)" style="text-shadow: 0 0 1px #fff;">
1.13
</text>
<rect x="113.85545685279189" y="376.80532834842217" width="17.85" height="7.2" transform="rotate(-60, 116.41624365482234, 383.46532834842213)" fill="#fffa"/>
<text x="114.03045685279189" y="383.46532834842213" fill="#111" font-size="0.5em" text-anchor="start" textLength="17.5" transform="rotate(-60, 116.41624365482234, 383.46532834842213)" style="text-shadow: 0 0 1px #fff;">
0.78
</text>
<rect x="118.6270304568528" y="284.2892115475435" width="17.85" height="7.2" transform="rotate(-60, 121.18781725888326, 290.94921154754354)" fill="#fffa"/>
<text x="118.80203045685279" y="290.94921154754354" fill="#111" font-size="0.5em" text-anchor="start" textLength="17.5" transform="rotate(-60, 121.18781725888326, 290.94921154754354)" style="text-shadow: 0 0 1px #fff;">
1.46
</text>
<rect x="123.39860406091371" y="268.27360102996937" width="17.85" height="7.2" transform="rotate(-60, 125.95939086294416, 274.93360102996934)" fill="#fffa"/>
<text x="123.57360406091371" y="274.93360102996934" fill="#111" font-size="0.5em" text-anchor="start" textLength="17.5" transform="rotate(-60, 125.95939086294416, 274.93360102996934)" style="text-shadow: 0 0 1px #fff;">
1.58
</text>
<rect x="132.9417512690355" y="348.14812490292144" width="17.85" height="7.2" transform="rotate(-60, 135.502538071066, 354.8081249029214)" fill="#fffa"/>
<text x="133.11675126903552" y="354.8081249029214" fill="#111" font-size="0.5em" text-anchor="start" textLength="17.5" transform="rotate(-60, 135.502538071066, 354.8081249029214)" style="text-shadow: 0 0 1px #fff;">
0.99
</text>
<rect x="137.71332487309644" y="326.13361696701236" width="17.85" height="7.2" transform="rotate(-60, 140.27411167512687, 332.7936169670123)" fill="#fffa"/>
<text x="137.88832487309642" y="332.7936169670123" fill="#111" font-size="0.5em" text-anchor="start" textLength="17.5" transform="rotate(-60, 140.27411167512687, 332.7936169670123)" style="text-shadow: 0 0 1px #fff;">
1.16
</text>
<rect x="142.48489847715734" y="329.33362425016554" width="17.85" height="7.2" transform="rotate(-60, 145.0456852791878, 335.99362425016557)" fill="#fffa"/>
<text x="142.65989847715736" y="335.99362425016557" fill="#111" font-size="0.5em" text-anchor="start" textLength="17.5" transform="rotate(-60, 145.0456852791878, 335.99362425016557)" style="text-shadow: 0 0 1px #fff;">
1.13
</text>
<rect x="152.02804568527915" y="345.9092657339114" width="17.85" height="7.2" transform="rotate(-60, 154.58883248730965, 352.5692657339114)" fill="#fffa"/>
<text x="152.20304568527916" y="352.5692657339114" fill="#111" font-size="0.5em" text-anchor="start" textLength="17.5" transform="rotate(-60, 154.58883248730965, 352.5692657339114)" style="text-shadow: 0 0 1px #fff;">
1.01
</text>
<rect x="156.7996192893401" y="329.6246453955302" width="17.85" height="7.2" transform="rotate(-60, 159.36040609137052, 336.28464539553016)" fill="#fffa"/>
<text x="156.9746192893401" y="336.28464539553016" fill="#111" font-size="0.5em" text-anchor="start" textLength="17.5" transform="rotate(-60, 159.36040609137052, 336.28464539553016)" style="text-shadow: 0 0 1px #fff;">
1.13
</text>
<rect x="161.571192893401" y="330.5610110649871" width="17.85" height="7.2" transform="rotate(-60, 164.13197969543148, 337.2210110649871)" fill="#fffa"/>
<text x="161.746192893401" y="337.2210110649871" fill="#111" font-size="0.5em" text-anchor="start" textLength="17.5" transform="rotate(-60, 164.13197969543148, 337.2210110649871)" style="text-shadow: 0 0 1px #fff;">
1.12
</text>
<rect x="171.11434010152283" y="347.56526333669797" width="17.85" height="7.2" transform="rotate(-60, 173.6751269035533, 354.225263336698)" fill="#fffa"/>
<text x="171.28934010152284" y="354.225263336698" fill="#111" font-size="0.5em" text-anchor="start" textLength="17.5" transform="rotate(-60, 173.6751269035533, 354.225263336698)" style="text-shadow: 0 0 1px #fff;">
1.00
</text>
<rect x="175.88591370558373" y="323.18772601211225" width="17.85" height="7.2" transform="rotate(-60, 178.4467005076142, 329.8477260121123)" fill="#fffa"/>
<text x="176.06091370558374" y="329.8477260121123" fill="#111" font-size="0.5em" text-anchor="start" textLength="17.5" transform="rotate(-60, 178.4467005076142, 329.8477260121123)" style="text-shadow: 0 0 1px #fff;">
1.18
</text>
<rect x="180.65748730964464" y="336.1529089483654" width="17.85" height="7.2" transform="rotate(-60, 183.21827411167513, 342.8129089483654)" fill="#fffa"/>
<text x="180.83248730964465" y="342.8129089483654" fill="#111" font-size="0.5em" text-anchor="start" textLength="17.5" transform="rotate(-60, 183.21827411167513, 342.8129089483654)" style="text-shadow: 0 0 1px #fff;">
1.08
</text>
<rect x="190.20063451776647" y="346.3270317019113" width="17.85" height="7.2" transform="rotate(-60, 192.76142131979697, 352.9870317019113)" fill="#fffa"/>
<text x="190.37563451776649" y="352.9870317019113" fill="#111" font-size="0.5em" text-anchor="start" textLength="17.5" transform="rotate(-60, 192.76142131979697, 352.9870317019113)" style="text-shadow: 0 0 1px #fff;">
1.01
</text>
<rect x="194.97220812182738" y="325.9349132337418" width="17.85" height="7.2" transform="rotate(-60, 197.53299492385784, 332.5949132337418)" fill="#fffa"/>
<text x="195.1472081218274" y="332.5949132337418" fill="#111" font-size="0.5em" text-anchor="start" textLength="17.5" transform="rotate(-60, 197.53299492385784, 332.5949132337418)" style="text-shadow: 0 0 1px #fff;">
1.16
</text>
<rect x="199.7437817258883" y="322.665248878984" width="17.85" height="7.2" transform="rotate(-60, 202.30456852791878, 329.32524887898404)" fill="#fffa"/>
<text x="199.91878172588832" y="329.32524887898404" fill="#111" font-size="0.5em" text-anchor="start" textLength="17.5" transform="rotate(-60, 202.30456852791878, 329.32524887898404)" style="text-shadow: 0 0 1px #fff;">
1.18
</text>
<rect x="209.28692893401012" y="288.8152204196302" width="17.85" height="7.2" transform="rotate(-60, 211.8477157360406, 295.4752204196302)" fill="#fffa"/>
<text x="209.46192893401013" y="295.4752204196302" fill="#111" font-size="0.5em" text-anchor="start" textLength="17.5" transform="rotate(-60, 211.8477157360406, 295.4752204196302)" style="text-shadow: 0 0 1px #fff;">
1.43
</text>
<rect x="214.05850253807105" y="333.4136259331497" width="17.85" height="7.2" transform="rotate(-60, 216.6192893401015, 340.07362593314974)" fill="#fffa"/>
<text x="214.23350253807106" y="340.07362593314974" fill="#111" font-size="0.5em" text-anchor="start" textLength="17.5" transform="rotate(-60, 216.6192893401015, 340.07362593314974)" style="text-shadow: 0 0 1px #fff;">
1.10
</text>
<rect x="218.83007614213196" y="282.49293480117956" width="17.85" height="7.2" transform="rotate(-60, 221.39086294416245, 289.1529348011796)" fill="#fffa"/>
<text x="219.00507614213197" y="289.1529348011796" fill="#111" font-size="0.5em" text-anchor="start" textLength="17.5" transform="rotate(-60, 221.39086294416245, 289.1529348011796)" style="text-shadow: 0 0 1px #fff;">
1.48
</text>
<rect x="228.3732233502538" y="327.2037892835243" width="17.85" height="7.2" transform="rotate(-60, 230.93401015228426, 333.8637892835243)" fill="#fffa"/>
<text x="228.5482233502538" y="333.8637892835243" fill="#111" font-size="0.5em" text-anchor="start" textLength="17.5" transform="rotate(-60, 230.93401015228426, 333.8637892835243)" style="text-shadow: 0 0 1px #fff;">
1.15
</text>
<rect x="233.1447969543147" y="334.5171322758032" width="17.85" height="7.2" transform="rotate(-60, 235.70558375634516, 341.1771322758032)" fill="#fffa"/>
<text x="233.3197969543147" y="341.1771322758032" fill="#111" font-size="0.5em" text-anchor="start" textLength="17.5" transform="rotate(-60, 235.70558375634516, 341.1771322758032)" style="text-shadow: 0 0 1px #fff;">
1.09
</text>
<rect x="237.9163705583756" y="327.8782186084607" width="17.85" height="7.2" transform="rotate(-60, 240.4771573604061, 334.53821860846074)" fill="#fffa"/>
<text x="238.09137055837562" y="334.53821860846074" fill="#111" font-size="0.5em" text-anchor="start" textLength="17.5" transform="rotate(-60, 240.4771573604061, 334.53821860846074)" style="text-shadow: 0 0 1px #fff;">
1.14
</text>
<rect x="247.45951776649744" y="336.61558975245094" width="17.85" height="7.2" transform="rotate(-60, 250.0203045685279, 343.2755897524509)" fill="#fffa"/>
<text x="247.63451776649745" y="343.2755897524509" fill="#111" font-size="0.5em" text-anchor="start" textLength="17.5" transform="rotate(-60, 250.0203045685279, 343.2755897524509)" style="text-shadow: 0 0 1px #fff;">
1.08
</text>
<rect x="252.23109137055837" y="324.72872164449717" width="17.85" height="7.2" transform="rotate(-60, 254.7918781725888, 331.38872164449714)" fill="#fffa"/>
<text x="252.40609137055836" y="331.38872164449714" fill="#111" font-size="0.5em" text-anchor="start" textLength="17.5" transform="rotate(-60, 254.7918781725888, 331.38872164449714)" style="text-shadow: 0 0 1px #fff;">
1.17
</text>
<rect x="257.0026649746193" y="320.79884753950955" width="17.85" height="7.2" transform="rotate(-60, 259.5634517766497, 327.4588475395095)" fill="#fffa"/>
<text x="257.17766497461923" y="327.4588475395095" fill="#111" font-size="0.5em" text-anchor="start" textLength="17.5" transform="rotate(-60, 259.5634517766497, 327.4588475395095)" style="text-shadow: 0 0 1px #fff;">
1.20
</text>
<rect x="266.54581218274103" y="345.29183417487997" width="17.85" height="7.2" transform="rotate(-60, 269.10659898477144, 351.95183417488)" fill="#fffa"/>
<text x="266.72081218274104" y="351.95183417488" fill="#111" font-size="0.5em" text-anchor="start" textLength="17.5" transform="rotate(-60, 269.10659898477144, 351.95183417488)" style="text-shadow: 0 0 1px #fff;">
1.02
</text>
<rect x="271.31738578680194" y="289.92103801884554" width="17.85" height="7.2" transform="rotate(-60, 273.87817258883234, 296.58103801884556)" fill="#fffa"/>
<text x="271.4923857868019" y="296.58103801884556" fill="#111" font-size="0.5em" text-anchor="start" textLength="17.5" transform="rotate(-60, 273.87817258883234, 296.58103801884556)" style="text-shadow: 0 0 1px #fff;">
1.42
</text>
<rect x="276.0889593908628" y="289.385315042906" width="17.85" height="7.2" transform="rotate(-60, 278.64974619289325, 296.045315042906)" fill="#fffa"/>
<text x="276.2639593908628" y="296.045315042906" fill="#111" font-size="0.5em" text-anchor="start" textLength="17.5" transform="rotate(-60, 278.64974619289325, 296.045315042906)" style="text-shadow: 0 0 1px #fff;">
1.43
</text>
<rect x="285.6321065989846" y="347.0422723111248" width="17.85" height="7.2" transform="rotate(-60, 288.192893401015, 353.70227231112483)" fill="#fffa"/>
<text x="285.80710659898455" y="353.70227231112483" fill="#111" font-size="0.5em" text-anchor="start" textLength="17.5" transform="rotate(-60, 288.192893401015, 353.70227231112483)" style="text-shadow: 0 0 1px #fff;">
1.00
</text>
<rect x="290.40368020304544" y="333.7812680963869" width="17.85" height="7.2" transform="rotate(-60, 292.9644670050759, 340.4412680963869)" fill="#fffa"/>
<text x="290.57868020304545" y="340.4412680963869" fill="#111" font-size="0.5em" text-anchor="start" textLength="17.5" transform="rotate(-60, 292.9644670050759, 340.4412680963869)" style="text-shadow: 0 0 1px #fff;">
1.10
</text>
<rect x="295.17525380710634" y="329.9100936713991" width="17.85" height="7.2" transform="rotate(-60, 297.73604060913675, 336.57009367139915)" fill="#fffa"/>
<text x="295.35025380710636" y="336.57009367139915" fill="#111" font-size="0.5em" text-anchor="start" textLength="17.5" transform="rotate(-60, 297.73604060913675, 336.57009367139915)" style="text-shadow: 0 0 1px #fff;">
1.13
</text>
<rect x="304.7184010152281" y="336.0910339682617" width="17.85" height="7.2" transform="rotate(-60, 307.27918781725856, 342.7510339682617)" fill="#fffa"/>
<text x="304.8934010152281" y="342.7510339682617" fill="#111" font-size="0.5em" text-anchor="start" textLength="17.5" transform="rotate(-60, 307.27918781725856, 342.7510339682617)" style="text-shadow: 0 0 1px #fff;">
1.08
</text>
<rect x="309.489974619289" y="328.4926200890179" width="17.85" height="7.2" transform="rotate(-60, 312.0507614213194, 335.15262008901794)" fill="#fffa"/>
<text x="309.664974619289" y="335.15262008901794" fill="#111" font-size="0.5em" text-anchor="start" textLength="17.5" transform="rotate(-60, 312.0507614213194, 335.15262008901794)" style="text-shadow: 0 0 1px #fff;">
1.14
</text>
<rect x="314.2615482233499" y="323.76187683246957" width="17.85" height="7.2" transform="rotate(-60, 316.8223350253803, 330.42187683246954)" fill="#fffa"/>
<text x="314.43654822334986" y="330.42187683246954" fill="#111" font-size="0.5em" text-anchor="start" textLength="17.5" transform="rotate(-60, 316.8223350253803, 330.42187683246954)" style="text-shadow: 0 0 1px #fff;">
1.17
</text>
<rect x="323.80469543147166" y="339.40423829072864" width="17.85" height="7.2" transform="rotate(-60, 326.36548223350206, 346.0642382907286)" fill="#fffa"/>
<text x="323.97969543147167" y="346.0642382907286" fill="#111" font-size="0.5em" text-anchor="start" textLength="17.5" transform="rotate(-60, 326.36548223350206, 346.0642382907286)" style="text-shadow: 0 0 1px #fff;">
1.06
</text>
<rect x="328.57626903553256" y="340.2718940478929" width="17.85" height="7.2" transform="rotate(-60, 331.13705583756297, 346.9318940478929)" fill="#fffa"/>
<text x="328.7512690355325" y="346.9318940478929" fill="#111" font-size="0.5em" text-anchor="start" textLength="17.5" transform="rotate(-60, 331.13705583756297, 346.9318940478929)" style="text-shadow: 0 0 1px #fff;">
1.05
</text>
<rect x="333.34784263959347" y="336.8880365949523" width="17.85" height="7.2" transform="rotate(-60, 335.9086294416239, 343.54803659495235)" fill="#fffa"/>
<text x="333.5228426395934" y="343.54803659495235" fill="#111" font-size="0.5em" text-anchor="start" textLength="17.5" transform="rotate(-60, 335.9086294416239, 343.54803659495235)" style="text-shadow: 0 0 1px #fff;">
1.08
</text>
<rect x="342.8909898477152" y="336.23913295934415" width="17.85" height="7.2" transform="rotate(-60, 345.4517766497456, 342.8991329593441)" fill="#fffa"/>
<text x="343.0659898477152" y="342.8991329593441" fill="#111" font-size="0.5em" text-anchor="start" textLength="17.5" transform="rotate(-60, 345.4517766497456, 342.8991329593441)" style="text-shadow: 0 0 1px #fff;">
1.08
</text>
<rect x="347.6625634517761" y="344.35300438922656" width="17.85" height="7.2" transform="rotate(-60, 350.22335025380653, 351.0130043892266)" fill="#fffa"/>
<text x="347.8375634517761" y="351.0130043892266" fill="#111" font-size="0.5em" text-anchor="start" textLength="17.5" transform="rotate(-60, 350.22335025380653, 351.0130043892266)" style="text-shadow: 0 0 1px #fff;">
1.02
</text>
<rect x="352.43413705583697" y="331.3867196532379" width="17.85" height="7.2" transform="rotate(-60, 354.99492385786743, 338.0467196532379)" fill="#fffa"/>
<text x="352.609137055837" y="338.0467196532379" fill="#111" font-size="0.5em" text-anchor="start" textLength="17.5" transform="rotate(-60, 354.99492385786743, 338.0467196532379)" style="text-shadow: 0 0 1px #fff;">
1.12
</text>
<rect x="361.9772842639588" y="337.61024520563393" width="17.85" height="7.2" transform="rotate(-60, 364.5380710659892, 344.2702452056339)" fill="#fffa"/>
<text x="362.15228426395873" y="344.2702452056339" fill="#111" font-size="0.5em" text-anchor="start" textLength="17.5" transform="rotate(-60, 364.5380710659892, 344.2702452056339)" style="text-shadow: 0 0 1px #fff;">
1.07
</text>
<rect x="366.7488578680196" y="332.53247575245973" width="17.85" height="7.2" transform="rotate(-60, 369.3096446700501, 339.1924757524597)" fill="#fffa"/>
<text x="366.92385786801964" y="339.1924757524597" fill="#111" font-size="0.5em" text-anchor="start" textLength="17.5" transform="rotate(-60, 369.3096446700501, 339.1924757524597)" style="text-shadow: 0 0 1px #fff;">
1.11
</text>
<rect x="371.52043147208053" y="326.1790105253354" width="17.85" height="7.2" transform="rotate(-60, 374.08121827411094, 332.83901052533537)" fill="#fffa"/>
<text x="371.6954314720805" y="332.83901052533537" fill="#111" font-size="0.5em" text-anchor="start" textLength="17.5" transform="rotate(-60, 374.08121827411094, 332.83901052533537)" style="text-shadow: 0 0 1px #fff;">
1.16
</text>
<rect x="381.0635786802023" y="336.37322452070975" width="17.85" height="7.2" transform="rotate(-60, 383.62436548223275, 343.0332245207098)" fill="#fffa"/>
<text x="381.2385786802023" y="343.0332245207098" fill="#111" font-size="0.5em" text-anchor="start" textLength="17.5" transform="rotate(-60, 383.62436548223275, 343.0332245207098)" style="text-shadow: 0 0 1px #fff;">
1.08
</text>
<rect x="385.8351522842632" y="344.2051920222415" width="17.85" height="7.2" transform="rotate(-60, 388.3959390862936, 350.86519202224144)" fill="#fffa"/>
<text x="386.01015228426314" y="350.86519202224144" fill="#111" font-size="0.5em" text-anchor="start" textLength="17.5" transform="rotate(-60, 388.3959390862936, 350.86519202224144)" style="text-shadow: 0 0 1px #fff;">
1.02
</text>
<rect x="390.6067258883241" y="330.97551718857306" width="17.85" height="7.2" transform="rotate(-60, 393.1675126903545, 337.63551718857303)" fill="#fffa"/>
<text x="390.78172588832405" y="337.63551718857303" fill="#111" font-size="0.5em" text-anchor="start" textLength="17.5" transform="rotate(-60, 393.1675126903545, 337.63551718857303)" style="text-shadow: 0 0 1px #fff;">
1.12
</text>
<rect x="400.14987309644584" y="333.3894174316156" width="17.85" height="7.2" transform="rotate(-60, 402.71065989847625, 340.0494174316156)" fill="#fffa"/>
<text x="400.3248730964458" y="340.0494174316156" fill="#111" font-size="0.5em" text-anchor="start" textLength="17.5" transform="rotate(-60, 402.71065989847625, 340.0494174316156)" style="text-shadow: 0 0 1px #fff;">
1.10
</text>
<rect x="404.92144670050675" y="345.65129428708633" width="17.85" height="7.2" transform="rotate(-60, 407.48223350253716, 352.31129428708635)" fill="#fffa"/>
<text x="405.0964467005067" y="352.31129428708635" fill="#111" font-size="0.5em" text-anchor="start" textLength="17.5" transform="rotate(-60, 407.48223350253716, 352.31129428708635)" style="text-shadow: 0 0 1px #fff;">
1.01
</text>
<rect x="409.6930203045676" y="328.80224047848975" width="17.85" height="7.2" transform="rotate(-60, 412.25380710659806, 335.4622404784898)" fill="#fffa"/>
<text x="409.8680203045676" y="335.4622404784898" fill="#111" font-size="0.5em" text-anchor="start" textLength="17.5" transform="rotate(-60, 412.25380710659806, 335.4622404784898)" style="text-shadow: 0 0 1px #fff;">
1.14
</text>
<rect x="419.2361675126894" y="346.56000952657985" width="17.85" height="7.2" transform="rotate(-60, 421.7969543147198, 353.2200095265799)" fill="#fffa"/>
<text x="419.41116751268936" y="353.2200095265799" fill="#111" font-size="0.5em" text-anchor="start" textLength="17.5" transform="rotate(-60, 421.7969543147198, 353.2200095265799)" style="text-shadow: 0 0 1px #fff;">
1.01
</text>
<rect x="424.00774111675025" y="344.2229747191316" width="17.85" height="7.2" transform="rotate(-60, 426.5685279187807, 350.8829747191316)" fill="#fffa"/>
<text x="424.18274111675026" y="350.8829747191316" fill="#111" font-size="0.5em" text-anchor="start" textLength="17.5" transform="rotate(-60, 426.5685279187807, 350.8829747191316)" style="text-shadow: 0 0 1px #fff;">
1.02
</text>
<rect x="428.77931472081116" y="338.59276660549074" width="17.85" height="7.2" transform="rotate(-60, 431.34010152284156, 345.2527666054907)" fill="#fffa"/>
<text x="428.9543147208111" y="345.2527666054907" fill="#111" font-size="0.5em" text-anchor="start" textLength="17.5" transform="rotate(-60, 431.34010152284156, 345.2527666054907)" style="text-shadow: 0 0 1px #fff;">
1.06
</text>
<rect x="438.3224619289329" y="342.2575205330432" width="17.85" height="7.2" transform="rotate(-60, 440.8832487309634, 348.9175205330432)" fill="#fffa"/>
<text x="438.4974619289329" y="348.9175205330432" fill="#111" font-size="0.5em" text-anchor="start" textLength="17.5" transform="rotate(-60, 440.8832487309634, 348.9175205330432)" style="text-shadow: 0 0 1px #fff;">
1.04
</text>
<rect x="443.0940355329938" y="333.08210295899363" width="17.85" height="7.2" transform="rotate(-60, 445.6548223350242, 339.74210295899366)" fill="#fffa"/>
<text x="443.26903553299377" y="339.74210295899366" fill="#111" font-size="0.5em" text-anchor="start" textLength="17.5" transform="rotate(-60, 445.6548223350242, 339.74210295899366)" style="text-shadow: 0 0 1px #fff;">
1.11
</text>
<rect x="447.8656091370547" y="330.2220178413169" width="17.85" height="7.2" transform="rotate(-60, 450.4263959390851, 336.8820178413169)" fill="#fffa"/>
<text x="448.0406091370547" y="336.8820178413169" fill="#111" font-size="0.5em" text-anchor="start" textLength="17.5" transform="rotate(-60, 450.4263959390851, 336.8820178413169)" style="text-shadow: 0 0 1px #fff;">
1.13
</text>
<rect x="457.40875634517647" y="337.41369651073785" width="17.85" height="7.2" transform="rotate(-60, 459.9695431472069, 344.0736965107379)" fill="#fffa"/>
<text x="457.5837563451764" y="344.0736965107379" fill="#111" font-size="0.5em" text-anchor="start" textLength="17.5" transform="rotate(-60, 459.9695431472069, 344.0736965107379)" style="text-shadow: 0 0 1px #fff;">
1.07
</text>
<rect x="462.1803299492374" y="324.4313444281484" width="17.85" height="7.2" transform="rotate(-60, 464.7411167512678, 331.0913444281484)" fill="#fffa"/>
<text x="462.35532994923733" y="331.0913444281484" fill="#111" font-size="0.5em" text-anchor="start" textLength="17.5" transform="rotate(-60, 464.7411167512678, 331.0913444281484)" style="text-shadow: 0 0 1px #fff;">
1.17
</text>
<rect x="466.9519035532982" y="322.14571906149536" width="17.85" height="7.2" transform="rotate(-60, 469.5126903553287, 328.8057190614953)" fill="#fffa"/>
<text x="467.12690355329823" y="328.8057190614953" fill="#111" font-size="0.5em" text-anchor="start" textLength="17.5" transform="rotate(-60, 469.5126903553287, 328.8057190614953)" style="text-shadow: 0 0 1px #fff;">
1.19
</text>
<rect x="476.49505076142003" y="346.15971884247864" width="17.85" height="7.2" transform="rotate(-60, 479.05583756345044, 352.81971884247866)" fill="#fffa"/>
<text x="476.67005076142" y="352.81971884247866" fill="#111" font-size="0.5em" text-anchor="start" textLength="17.5" transform="rotate(-60, 479.05583756345044, 352.81971884247866)" style="text-shadow: 0 0 1px #fff;">
1.01
</text>
<rect x="481.2666243654809" y="332.79073464886903" width="17.85" height="7.2" transform="rotate(-60, 483.82741116751134, 339.45073464886906)" fill="#fffa"/>
<text x="481.4416243654809" y="339.45073464886906" fill="#111" font-size="0.5em" text-anchor="start" textLength="17.5" transform="rotate(-60, 483.82741116751134, 339.45073464886906)" style="text-shadow: 0 0 1px #fff;">
1.11
</text>
<rect x="486.0381979695418" y="336.5583574670681" width="17.85" height="7.2" transform="rotate(-60, 488.5989847715722, 343.21835746706813)" fill="#fffa"/>
<text x="486.21319796954174" y="343.21835746706813" fill="#111" font-size="0.5em" text-anchor="start" textLength="17.5" transform="rotate(-60, 488.5989847715722, 343.21835746706813)" style="text-shadow: 0 0 1px #fff;">
1.08
</text>
<rect x="495.58134517766354" y="342.35600529951154" width="17.85" height="7.2" transform="rotate(-60, 498.142131979694, 349.01600529951156)" fill="#fffa"/>
<text x="495.75634517766355" y="349.01600529951156" fill="#111" font-size="0.5em" text-anchor="start" textLength="17.5" transform="rotate(-60, 498.142131979694, 349.01600529951156)" style="text-shadow: 0 0 1px #fff;">
1.04
</text>
<rect x="500.3529187817244" y="345.755415863185" width="17.85" height="7.2" transform="rotate(-60, 502.9137055837549, 352.415415863185)" fill="#fffa"/>
<text x="500.52791878172445" y="352.415415863185" fill="#111" font-size="0.5em" text-anchor="start" textLength="17.5" transform="rotate(-60, 502.9137055837549, 352.415415863185)" style="text-shadow: 0 0 1px #fff;">
1.01
</text>
<rect x="505.1244923857853" y="339.3255230140662" width="17.85" height="7.2" transform="rotate(-60, 507.6852791878158, 345.98552301406625)" fill="#fffa"/>
<text x="505.2994923857853" y="345.98552301406625" fill="#111" font-size="0.5em" text-anchor="start" textLength="17.5" transform="rotate(-60, 507.6852791878158, 345.98552301406625)" style="text-shadow: 0 0 1px #fff;">
1.06
</text>
<rect x="514.6676395939071" y="333.29663768082213" width="17.85" height="7.2" transform="rotate(-60, 517.2284263959376, 339.9566376808221)" fill="#fffa"/>
<text x="514.842639593907" y="339.9566376808221" fill="#111" font-size="0.5em" text-anchor="start" textLength="17.5" transform="rotate(-60, 517.2284263959376, 339.9566376808221)" style="text-shadow: 0 0 1px #fff;">
1.10
</text>
<rect x="519.4392131979679" y="344.8124107069961" width="17.85" height="7.2" transform="rotate(-60, 521.9999999999984, 351.4724107069961)" fill="#fffa"/>
<text x="519.614213197968" y="351.4724107069961" fill="#111" font-size="0.5em" text-anchor="start" textLength="17.5" transform="rotate(-60, 521.9999999999984, 351.4724107069961)" style="text-shadow: 0 0 1px #fff;">
1.02
</text>
<rect x="524.2107868020288" y="328.4873684859832" width="17.85" height="7.2" transform="rotate(-60, 526.7715736040593, 335.14736848598324)" fill="#fffa"/>
<text x="524.3857868020289" y="335.14736848598324" fill="#111" font-size="0.5em" text-anchor="start" textLength="17.5" transform="rotate(-60, 526.7715736040593, 335.14736848598324)" style="text-shadow: 0 0 1px #fff;">
1.14
</text>
<rect x="533.7539340101506" y="331.0935431552274" width="17.85" height="7.2" transform="rotate(-60, 536.3147208121811, 337.75354315522736)" fill="#fffa"/>
<text x="533.9289340101507" y="337.75354315522736" fill="#111" font-size="0.5em" text-anchor="start" textLength="17.5" transform="rotate(-60, 536.3147208121811, 337.75354315522736)" style="text-shadow: 0 0 1px #fff;">
1.12
</text>
<rect x="538.5255076142115" y="345.8008448571383" width="17.85" height="7.2" transform="rotate(-60, 541.086294416242, 352.46084485713834)" fill="#fffa"/>
<text x="538.7005076142115" y="352.46084485713834" fill="#111" font-size="0.5em" text-anchor="start" textLength="17.5" transform="rotate(-60, 541.086294416242, 352.46084485713834)" style="text-shadow: 0 0 1px #fff;">
1.01
</text>
<rect x="543.2970812182724" y="315.6443300914989" width="17.85" height="7.2" transform="rotate(-60, 545.8578680203029, 322.3043300914989)" fill="#fffa"/>
<text x="543.4720812182724" y="322.3043300914989" fill="#111" font-size="0.5em" text-anchor="start" textLength="17.5" transform="rotate(-60, 545.8578680203029, 322.3043300914989)" style="text-shadow: 0 0 1px #fff;">
1.23
</text>
<rect x="552.8402284263941" y="339.9211894794293" width="17.85" height="7.2" transform="rotate(-60, 555.4010152284246, 346.58118947942927)" fill="#fffa"/>
<text x="553.0152284263942" y="346.58118947942927" fill="#111" font-size="0.5em" text-anchor="start" textLength="17.5" transform="rotate(-60, 555.4010152284246, 346.58118947942927)" style="text-shadow: 0 0 1px #fff;">
1.05
</text>
<rect x="557.611802030455" y="340.0423927727303" width="17.85" height="7.2" transform="rotate(-60, 560.1725888324855, 346.70239277273026)" fill="#fffa"/>
<text x="557.7868020304551" y="346.70239277273026" fill="#111" font-size="0.5em" text-anchor="start" textLength="17.5" transform="rotate(-60, 560.1725888324855, 346.70239277273026)" style="text-shadow: 0 0 1px #fff;">
1.05
</text>
<rect x="562.3833756345159" y="329.5381073533048" width="17.85" height="7.2" transform="rotate(-60, 564.9441624365464, 336.19810735330475)" fill="#fffa"/>
<text x="562.558375634516" y="336.19810735330475" fill="#111" font-size="0.5em" text-anchor="start" textLength="17.5" transform="rotate(-60, 564.9441624365464, 336.19810735330475)" style="text-shadow: 0 0 1px #fff;">
1.13
</text>
<rect x="571.9265228426377" y="316.33317283886896" width="17.85" height="7.2" transform="rotate(-60, 574.4873096446682, 322.993172838869)" fill="#fffa"/>
<text x="572.1015228426377" y="322.993172838869" fill="#111" font-size="0.5em" text-anchor="start" textLength="17.5" transform="rotate(-60, 574.4873096446682, 322.993172838869)" style="text-shadow: 0 0 1px #fff;">
1.23
</text>
<rect x="576.6980964466985" y="311.5926553193938" width="17.85" height="7.2" transform="rotate(-60, 579.2588832487291, 318.2526553193938)" fill="#fffa"/>
<text x="576.8730964466986" y="318.2526553193938" fill="#111" font-size="0.5em" text-anchor="start" textLength="17.5" transform="rotate(-60, 579.2588832487291, 318.2526553193938)" style="text-shadow: 0 0 1px #fff;">
1.26
</text>
<rect x="581.4696700507594" y="308.8508424838055" width="17.85" height="7.2" transform="rotate(-60, 584.0304568527899, 315.5108424838055)" fill="#fffa"/>
<text x="581.6446700507595" y="315.5108424838055" fill="#111" font-size="0.5em" text-anchor="start" textLength="17.5" transform="rotate(-60, 584.0304568527899, 315.5108424838055)" style="text-shadow: 0 0 1px #fff;">
1.28
</text>
<rect x="591.0128172588812" y="362.87671260026" width="17.85" height="7.2" transform="rotate(-60, 593.5736040609117, 369.53671260026005)" fill="#fffa"/>
<text x="591.1878172588813" y="369.53671260026005" fill="#111" font-size="0.5em" text-anchor="start" textLength="17.5" transform="rotate(-60, 593.5736040609117, 369.53671260026005)" style="text-shadow: 0 0 1px #fff;">
0.89
</text>
<rect x="595.7843908629421" y="335.4085535151209" width="17.85" height="7.2" transform="rotate(-60, 598.3451776649727, 342.06855351512087)" fill="#fffa"/>
<text x="595.9593908629421" y="342.06855351512087" fill="#111" font-size="0.5em" text-anchor="start" textLength="17.5" transform="rotate(-60, 598.3451776649727, 342.06855351512087)" style="text-shadow: 0 0 1px #fff;">
1.09
</text>
<rect x="600.555964467003" y="257.621264677351" width="17.85" height="7.2" transform="rotate(-60, 603.1167512690336, 264.281264677351)" fill="#fffa"/>
<text x="600.730964467003" y="264.281264677351" fill="#111" font-size="0.5em" text-anchor="start" textLength="17.5" transform="rotate(-60, 603.1167512690336, 264.281264677351)" style="text-shadow: 0 0 1px #fff;">
1.66
</text>
<rect x="610.0991116751247" y="340.03936534138836" width="17.85" height="7.2" transform="rotate(-60, 612.6598984771553, 346.6993653413884)" fill="#fffa"/>
<text x="610.2741116751248" y="346.6993653413884" fill="#111" font-size="0.5em" text-anchor="start" textLength="17.5" transform="rotate(-60, 612.6598984771553, 346.6993653413884)" style="text-shadow: 0 0 1px #fff;">
1.05
</text>
<rect x="614.8706852791856" y="333.47476133555864" width="17.85" height="7.2" transform="rotate(-60, 617.4314720812162, 340.13476133555866)" fill="#fffa"/>
<text x="615.0456852791857" y="340.13476133555866" fill="#111" font-size="0.5em" text-anchor="start" textLength="17.5" transform="rotate(-60, 617.4314720812162, 340.13476133555866)" style="text-shadow: 0 0 1px #fff;">
1.10
</text>
<rect x="619.6422588832465" y="328.8914741751249" width="17.85" height="7.2" transform="rotate(-60, 622.2030456852771, 335.5514741751249)" fill="#fffa"/>
<text x="619.8172588832466" y="335.5514741751249" fill="#111" font-size="0.5em" text-anchor="start" textLength="17.5" transform="rotate(-60, 622.2030456852771, 335.5514741751249)" style="text-shadow: 0 0 1px #fff;">
1.14
</text>
<rect x="629.1854060913683" y="330.85803041521166" width="17.85" height="7.2" transform="rotate(-60, 631.7461928933989, 337.5180304152117)" fill="#fffa"/>
<text x="629.3604060913683" y="337.5180304152117" fill="#111" font-size="0.5em" text-anchor="start" textLength="17.5" transform="rotate(-60, 631.7461928933989, 337.5180304152117)" style="text-shadow: 0 0 1px #fff;">
1.12
</text>
<rect x="633.9569796954291" y="343.78201327082263" width="17.85" height="7.2" transform="rotate(-60, 636.5177664974598, 350.4420132708226)" fill="#fffa"/>
<text x="634.1319796954292" y="350.4420132708226" fill="#111" font-size="0.5em" text-anchor="start" textLength="17.5" transform="rotate(-60, 636.5177664974598, 350.4420132708226)" style="text-shadow: 0 0 1px #fff;">
1.03
</text>
<rect x="638.72855329949" y="326.23347424962554" width="17.85" height="7.2" transform="rotate(-60, 641.2893401015206, 332.89347424962557)" fill="#fffa"/>
<text x="638.9035532994901" y="332.89347424962557" fill="#111" font-size="0.5em" text-anchor="start" textLength="17.5" transform="rotate(-60, 641.2893401015206, 332.89347424962557)" style="text-shadow: 0 0 1px #fff;">
1.16
</text>
<rect x="648.2717005076119" y="340.6130005599167" width="17.85" height="7.2" transform="rotate(-60, 650.8324873096424, 347.27300055991674)" fill="#fffa"/>
<text x="648.4467005076119" y="347.27300055991674" fill="#111" font-size="0.5em" text-anchor="start" textLength="17.5" transform="rotate(-60, 650.8324873096424, 347.27300055991674)" style="text-shadow: 0 0 1px #fff;">
1.05
</text>
<rect x="653.0432741116728" y="343.6762369641266" width="17.85" height="7.2" transform="rotate(-60, 655.6040609137033, 350.3362369641266)" fill="#fffa"/>
<text x="653.2182741116728" y="350.3362369641266" fill="#111" font-size="0.5em" text-anchor="start" textLength="17.5" transform="rotate(-60, 655.6040609137033, 350.3362369641266)" style="text-shadow: 0 0 1px #fff;">
1.03
</text>
<rect x="657.8148477157337" y="337.7567395884237" width="17.85" height="7.2" transform="rotate(-60, 660.3756345177642, 344.4167395884237)" fill="#fffa"/>
<text x="657.9898477157336" y="344.4167395884237" fill="#111" font-size="0.5em" text-anchor="start" textLength="17.5" transform="rotate(-60, 660.3756345177642, 344.4167395884237)" style="text-shadow: 0 0 1px #fff;">
1.07
</text>
<rect x="667.3579949238554" y="334.2886971844111" width="17.85" height="7.2" transform="rotate(-60, 669.9187817258859, 340.94869718441106)" fill="#fffa"/>
<text x="667.5329949238554" y="340.94869718441106" fill="#111" font-size="0.5em" text-anchor="start" textLength="17.5" transform="rotate(-60, 669.9187817258859, 340.94869718441106)" style="text-shadow: 0 0 1px #fff;">
1.10
</text>
<rect x="672.1295685279163" y="344.0797152714109" width="17.85" height="7.2" transform="rotate(-60, 674.6903553299468, 350.7397152714109)" fill="#fffa"/>
<text x="672.3045685279163" y="350.7397152714109" fill="#111" font-size="0.5em" text-anchor="start" textLength="17.5" transform="rotate(-60, 674.6903553299468, 350.7397152714109)" style="text-shadow: 0 0 1px #fff;">
1.02
</text>
<rect x="676.9011421319772" y="328.7000187188227" width="17.85" height="7.2" transform="rotate(-60, 679.4619289340077, 335.36001871882274)" fill="#fffa"/>
<text x="677.0761421319772" y="335.36001871882274" fill="#111" font-size="0.5em" text-anchor="start" textLength="17.5" transform="rotate(-60, 679.4619289340077, 335.36001871882274)" style="text-shadow: 0 0 1px #fff;">
1.14
</text>
<rect x="686.444289340099" y="335.02796801467093" width="17.85" height="7.2" transform="rotate(-60, 689.0050761421295, 341.68796801467096)" fill="#fffa"/>
<text x="686.6192893400989" y="341.68796801467096" fill="#111" font-size="0.5em" text-anchor="start" textLength="17.5" transform="rotate(-60, 689.0050761421295, 341.68796801467096)" style="text-shadow: 0 0 1px #fff;">
1.09
</text>
<rect x="691.2158629441598" y="331.2822498417213" width="17.85" height="7.2" transform="rotate(-60, 693.7766497461904, 337.94224984172126)" fill="#fffa"/>
<text x="691.3908629441598" y="337.94224984172126" fill="#111" font-size="0.5em" text-anchor="start" textLength="17.5" transform="rotate(-60, 693.7766497461904, 337.94224984172126)" style="text-shadow: 0 0 1px #fff;">
1.12
</text>
<rect x="695.9874365482207" y="321.5968928516657" width="17.85" height="7.2" transform="rotate(-60, 698.5482233502512, 328.2568928516657)" fill="#fffa"/>
<text x="696.1624365482207" y="328.2568928516657" fill="#111" font-size="0.5em" text-anchor="start" textLength="17.5" transform="rotate(-60, 698.5482233502512, 328.2568928516657)" style="text-shadow: 0 0 1px #fff;">
1.19
</text>
<rect x="705.5305837563425" y="119.35963095053495" width="17.85" height="7.2" transform="rotate(-60, 708.091370558373, 126.01963095053496)" fill="#fffa"/>
<text x="705.7055837563425" y="126.01963095053496" fill="#111" font-size="0.5em" text-anchor="start" textLength="17.5" transform="rotate(-60, 708.091370558373, 126.01963095053496)" style="text-shadow: 0 0 1px #fff;">
2.67
</text>
<rect x="710.3021573604034" y="256.47284230113195" width="17.85" height="7.2" transform="rotate(-60, 712.8629441624339, 263.1328423011319)" fill="#fffa"/>
<text x="710.4771573604035" y="263.1328423011319" fill="#111" font-size="0.5em" text-anchor="start" textLength="17.5" transform="rotate(-60, 712.8629441624339, 263.1328423011319)" style="text-shadow: 0 0 1px #fff;">
1.67
</text>
<rect x="715.0737309644643" y="86.03999999999998" width="17.85" height="7.2" transform="rotate(-60, 717.6345177664948, 92.69999999999999)" fill="#fffa"/>
<text x="715.2487309644642" y="92.69999999999999" fill="#111" font-size="0.5em" text-anchor="start" textLength="17.5" transform="rotate(-60, 717.6345177664948, 92.69999999999999)" style="text-shadow: 0 0 1px #fff;">
2.92
</text>
<rect x="724.616878172586" y="201.42575196661417" width="17.85" height="7.2" transform="rotate(-60, 727.1776649746165, 208.08575196661417)" fill="#fffa"/>
<text x="724.791878172586" y="208.08575196661417" fill="#111" font-size="0.5em" text-anchor="start" textLength="17.5" transform="rotate(-60, 727.1776649746165, 208.08575196661417)" style="text-shadow: 0 0 1px #fff;">
2.07
</text>
<rect x="729.3884517766469" y="312.67591133917665" width="17.85" height="7.2" transform="rotate(-60, 731.9492385786774, 319.3359113391766)" fill="#fffa"/>
<text x="729.563451776647" y="319.3359113391766" fill="#111" font-size="0.5em" text-anchor="start" textLength="17.5" transform="rotate(-60, 731.9492385786774, 319.3359113391766)" style="text-shadow: 0 0 1px #fff;">
1.25
</text>
<rect x="734.1600253807078" y="186.77868075015647" width="17.85" height="7.2" transform="rotate(-60, 736.7208121827383, 193.43868075015646)" fill="#fffa"/>
<text x="734.3350253807079" y="193.43868075015646" fill="#111" font-size="0.5em" text-anchor="start" textLength="17.5" transform="rotate(-60, 736.7208121827383, 193.43868075015646)" style="text-shadow: 0 0 1px #fff;">
2.18
</text>
<rect x="743.7031725888296" y="332.9436637949624" width="17.85" height="7.2" transform="rotate(-60, 746.2639593908601, 339.60366379496236)" fill="#fffa"/>
<text x="743.8781725888296" y="339.60366379496236" fill="#111" font-size="0.5em" text-anchor="start" textLength="17.5" transform="rotate(-60, 746.2639593908601, 339.60366379496236)" style="text-shadow: 0 0 1px #fff;">
1.11
</text>
<rect x="748.4747461928905" y="343.7534890494169" width="17.85" height="7.2" transform="rotate(-60, 751.035532994921, 350.4134890494169)" fill="#fffa"/>
<text x="748.6497461928905" y="350.4134890494169" fill="#111" font-size="0.5em" text-anchor="start" textLength="17.5" transform="rotate(-60, 751.035532994921, 350.4134890494169)" style="text-shadow: 0 0 1px #fff;">
1.03
</text>
<rect x="753.2463197969513" y="327.86966418572865" width="17.85" height="7.2" transform="rotate(-60, 755.8071065989818, 334.5296641857287)" fill="#fffa"/>
<text x="753.4213197969514" y="334.5296641857287" fill="#111" font-size="0.5em" text-anchor="start" textLength="17.5" transform="rotate(-60, 755.8071065989818, 334.5296641857287)" style="text-shadow: 0 0 1px #fff;">
1.14
</text>
<rect x="762.7894670050731" y="332.50316200260266" width="17.85" height="7.2" transform="rotate(-60, 765.3502538071036, 339.16316200260263)" fill="#fffa"/>
<text x="762.9644670050732" y="339.16316200260263" fill="#111" font-size="0.5em" text-anchor="start" textLength="17.5" transform="rotate(-60, 765.3502538071036, 339.16316200260263)" style="text-shadow: 0 0 1px #fff;">
1.11
</text>
<rect x="767.561040609134" y="344.80481140706934" width="17.85" height="7.2" transform="rotate(-60, 770.1218274111645, 351.46481140706936)" fill="#fffa"/>
<text x="767.7360406091341" y="351.46481140706936" fill="#111" font-size="0.5em" text-anchor="start" textLength="17.5" transform="rotate(-60, 770.1218274111645, 351.46481140706936)" style="text-shadow: 0 0 1px #fff;">
1.02
</text>
<rect x="772.3326142131949" y="328.1666093348409" width="17.85" height="7.2" transform="rotate(-60, 774.8934010152254, 334.8266093348409)" fill="#fffa"/>
<text x="772.5076142131949" y="334.8266093348409" fill="#111" font-size="0.5em" text-anchor="start" textLength="17.5" transform="rotate(-60, 774.8934010152254, 334.8266093348409)" style="text-shadow: 0 0 1px #fff;">
1.14
</text>
<rect x="781.8757614213166" y="332.69925767866005" width="17.85" height="7.2" transform="rotate(-60, 784.4365482233471, 339.3592576786601)" fill="#fffa"/>
<text x="782.0507614213167" y="339.3592576786601" fill="#111" font-size="0.5em" text-anchor="start" textLength="17.5" transform="rotate(-60, 784.4365482233471, 339.3592576786601)" style="text-shadow: 0 0 1px #fff;">
1.11
</text>
<rect x="786.6473350253775" y="343.6591711569328" width="17.85" height="7.2" transform="rotate(-60, 789.208121827408, 350.3191711569328)" fill="#fffa"/>
<text x="786.8223350253776" y="350.3191711569328" fill="#111" font-size="0.5em" text-anchor="start" textLength="17.5" transform="rotate(-60, 789.208121827408, 350.3191711569328)" style="text-shadow: 0 0 1px #fff;">
1.03
</text>
<rect x="791.4189086294384" y="327.6170397351063" width="17.85" height="7.2" transform="rotate(-60, 793.9796954314689, 334.27703973510626)" fill="#fffa"/>
<text x="791.5939086294385" y="334.27703973510626" fill="#111" font-size="0.5em" text-anchor="start" textLength="17.5" transform="rotate(-60, 793.9796954314689, 334.27703973510626)" style="text-shadow: 0 0 1px #fff;">
1.15
</text>
<rect x="800.9620558375602" y="332.9436637949624" width="17.85" height="7.2" transform="rotate(-60, 803.5228426395907, 339.60366379496236)" fill="#fffa"/>
<text x="801.1370558375602" y="339.60366379496236" fill="#111" font-size="0.5em" text-anchor="start" textLength="17.5" transform="rotate(-60, 803.5228426395907, 339.60366379496236)" style="text-shadow: 0 0 1px #fff;">
1.11
</text>
<rect x="805.7336294416211" y="344.68004549979867" width="17.85" height="7.2" transform="rotate(-60, 808.2944162436517, 351.3400454997987)" fill="#fffa"/>
<text x="805.9086294416211" y="351.3400454997987" fill="#111" font-size="0.5em" text-anchor="start" textLength="17.5" transform="rotate(-60, 808.2944162436517, 351.3400454997987)" style="text-shadow: 0 0 1px #fff;">
1.02
</text>
<rect x="810.5052030456819" y="327.82554244999625" width="17.85" height="7.2" transform="rotate(-60, 813.0659898477124, 334.4855424499962)" fill="#fffa"/>
<text x="810.680203045682" y="334.4855424499962" fill="#111" font-size="0.5em" text-anchor="start" textLength="17.5" transform="rotate(-60, 813.0659898477124, 334.4855424499962)" style="text-shadow: 0 0 1px #fff;">
1.14
</text>
<rect x="820.0483502538037" y="333.86004695341103" width="17.85" height="7.2" transform="rotate(-60, 822.6091370558343, 340.52004695341105)" fill="#fffa"/>
<text x="820.2233502538038" y="340.52004695341105" fill="#111" font-size="0.5em" text-anchor="start" textLength="17.5" transform="rotate(-60, 822.6091370558343, 340.52004695341105)" style="text-shadow: 0 0 1px #fff;">
1.10
</text>
<rect x="824.8199238578646" y="345.93838616168205" width="17.85" height="7.2" transform="rotate(-60, 827.3807106598952, 352.598386161682)" fill="#fffa"/>
<text x="824.9949238578647" y="352.598386161682" fill="#111" font-size="0.5em" text-anchor="start" textLength="17.5" transform="rotate(-60, 827.3807106598952, 352.598386161682)" style="text-shadow: 0 0 1px #fff;">
1.01
</text>
<rect x="829.5914974619255" y="330.25392409626534" width="17.85" height="7.2" transform="rotate(-60, 832.1522842639561, 336.9139240962653)" fill="#fffa"/>
<text x="829.7664974619255" y="336.9139240962653" fill="#111" font-size="0.5em" text-anchor="start" textLength="17.5" transform="rotate(-60, 832.1522842639561, 336.9139240962653)" style="text-shadow: 0 0 1px #fff;">
1.13
</text>
<rect x="839.1346446700472" y="332.7686652271594" width="17.85" height="7.2" transform="rotate(-60, 841.6954314720779, 339.4286652271594)" fill="#fffa"/>
<text x="839.3096446700473" y="339.4286652271594" fill="#111" font-size="0.5em" text-anchor="start" textLength="17.5" transform="rotate(-60, 841.6954314720779, 339.4286652271594)" style="text-shadow: 0 0 1px #fff;">
1.11
</text>
<rect x="843.9062182741081" y="343.38879420943294" width="17.85" height="7.2" transform="rotate(-60, 846.4670050761387, 350.04879420943297)" fill="#fffa"/>
<text x="844.0812182741082" y="350.04879420943297" fill="#111" font-size="0.5em" text-anchor="start" textLength="17.5" transform="rotate(-60, 846.4670050761387, 350.04879420943297)" style="text-shadow: 0 0 1px #fff;">
1.03
</text>
<rect x="848.677791878169" y="327.4143501985966" width="17.85" height="7.2" transform="rotate(-60, 851.2385786801996, 334.0743501985966)" fill="#fffa"/>
<text x="848.8527918781691" y="334.0743501985966" fill="#111" font-size="0.5em" text-anchor="start" textLength="17.5" transform="rotate(-60, 851.2385786801996, 334.0743501985966)" style="text-shadow: 0 0 1px #fff;">
1.15
</text>
<rect x="858.2209390862909" y="333.3082988921624" width="17.85" height="7.2" transform="rotate(-60, 860.7817258883214, 339.9682988921624)" fill="#fffa"/>
<text x="858.3959390862908" y="339.9682988921624" fill="#111" font-size="0.5em" text-anchor="start" textLength="17.5" transform="rotate(-60, 860.7817258883214, 339.9682988921624)" style="text-shadow: 0 0 1px #fff;">
1.10
</text>
<rect x="862.9925126903518" y="346.0008214882583" width="17.85" height="7.2" transform="rotate(-60, 865.5532994923823, 352.6608214882583)" fill="#fffa"/>
<text x="863.1675126903517" y="352.6608214882583" fill="#111" font-size="0.5em" text-anchor="start" textLength="17.5" transform="rotate(-60, 865.5532994923823, 352.6608214882583)" style="text-shadow: 0 0 1px #fff;">
1.01
</text>
<rect x="867.7640862944126" y="329.9128469874743" width="17.85" height="7.2" transform="rotate(-60, 870.3248730964432, 336.57284698747435)" fill="#fffa"/>
<text x="867.9390862944126" y="336.57284698747435" fill="#111" font-size="0.5em" text-anchor="start" textLength="17.5" transform="rotate(-60, 870.3248730964432, 336.57284698747435)" style="text-shadow: 0 0 1px #fff;">
1.13
</text>
<rect x="877.3072335025344" y="332.69925767866005" width="17.85" height="7.2" transform="rotate(-60, 879.8680203045649, 339.3592576786601)" fill="#fffa"/>
<text x="877.4822335025344" y="339.3592576786601" fill="#111" font-size="0.5em" text-anchor="start" textLength="17.5" transform="rotate(-60, 879.8680203045649, 339.3592576786601)" style="text-shadow: 0 0 1px #fff;">
1.11
</text>
<rect x="882.0788071065953" y="343.7033643564419" width="17.85" height="7.2" transform="rotate(-60, 884.6395939086258, 350.3633643564419)" fill="#fffa"/>
<text x="882.2538071065953" y="350.3633643564419" fill="#111" font-size="0.5em" text-anchor="start" textLength="17.5" transform="rotate(-60, 884.6395939086258, 350.3633643564419)" style="text-shadow: 0 0 1px #fff;">
1.03
</text>
<rect x="886.8503807106562" y="327.6170397351063" width="17.85" height="7.2" transform="rotate(-60, 889.4111675126867, 334.27703973510626)" fill="#fffa"/>
<text x="887.0253807106561" y="334.27703973510626" fill="#111" font-size="0.5em" text-anchor="start" textLength="17.5" transform="rotate(-60, 889.4111675126867, 334.27703973510626)" style="text-shadow: 0 0 1px #fff;">
1.15
</text>
<rect x="896.3935279187779" y="332.79711507090445" width="17.85" height="7.2" transform="rotate(-60, 898.9543147208085, 339.4571150709044)" fill="#fffa"/>
<text x="896.5685279187779" y="339.4571150709044" fill="#111" font-size="0.5em" text-anchor="start" textLength="17.5" transform="rotate(-60, 898.9543147208085, 339.4571150709044)" style="text-shadow: 0 0 1px #fff;">
1.11
</text>
<rect x="901.1651015228388" y="345.29569297585596" width="17.85" height="7.2" transform="rotate(-60, 903.7258883248693, 351.9556929758559)" fill="#fffa"/>
<text x="901.3401015228388" y="351.9556929758559" fill="#111" font-size="0.5em" text-anchor="start" textLength="17.5" transform="rotate(-60, 903.7258883248693, 351.9556929758559)" style="text-shadow: 0 0 1px #fff;">
1.02
</text>
<rect x="905.9366751268997" y="328.4248210334832" width="17.85" height="7.2" transform="rotate(-60, 908.4974619289302, 335.08482103348325)" fill="#fffa"/>
<text x="906.1116751268997" y="335.08482103348325" fill="#111" font-size="0.5em" text-anchor="start" textLength="17.5" transform="rotate(-60, 908.4974619289302, 335.08482103348325)" style="text-shadow: 0 0 1px #fff;">
1.14
</text>
<rect x="915.4798223350215" y="333.0412050594776" width="17.85" height="7.2" transform="rotate(-60, 918.040609137052, 339.70120505947756)" fill="#fffa"/>
<text x="915.6548223350214" y="339.70120505947756" fill="#111" font-size="0.5em" text-anchor="start" textLength="17.5" transform="rotate(-60, 918.040609137052, 339.70120505947756)" style="text-shadow: 0 0 1px #fff;">
1.11
</text>
<rect x="920.2513959390824" y="345.1668391555723" width="17.85" height="7.2" transform="rotate(-60, 922.8121827411129, 351.8268391555723)" fill="#fffa"/>
<text x="920.4263959390823" y="351.8268391555723" fill="#111" font-size="0.5em" text-anchor="start" textLength="17.5" transform="rotate(-60, 922.8121827411129, 351.8268391555723)" style="text-shadow: 0 0 1px #fff;">
1.02
</text>
<rect x="925.0229695431432" y="328.6759767848836" width="17.85" height="7.2" transform="rotate(-60, 927.5837563451738, 335.3359767848836)" fill="#fffa"/>
<text x="925.1979695431432" y="335.3359767848836" fill="#111" font-size="0.5em" text-anchor="start" textLength="17.5" transform="rotate(-60, 927.5837563451738, 335.3359767848836)" style="text-shadow: 0 0 1px #fff;">
1.14
</text>
<rect x="934.566116751265" y="343.1663083106035" width="17.85" height="7.2" transform="rotate(-60, 937.1269035532955, 349.82630831060345)" fill="#fffa"/>
<text x="934.741116751265" y="349.82630831060345" fill="#111" font-size="0.5em" text-anchor="start" textLength="17.5" transform="rotate(-60, 937.1269035532955, 349.82630831060345)" style="text-shadow: 0 0 1px #fff;">
1.03
</text>
<rect x="939.3376903553259" y="298.3950608462616" width="17.85" height="7.2" transform="rotate(-60, 941.8984771573564, 305.0550608462616)" fill="#fffa"/>
<text x="939.512690355326" y="305.0550608462616" fill="#111" font-size="0.5em" text-anchor="start" textLength="17.5" transform="rotate(-60, 941.8984771573564, 305.0550608462616)" style="text-shadow: 0 0 1px #fff;">
1.36
</text>
<rect x="944.1092639593868" y="340.18901336526943" width="17.85" height="7.2" transform="rotate(-60, 946.6700507614173, 346.84901336526946)" fill="#fffa"/>
<text x="944.2842639593867" y="346.84901336526946" fill="#111" font-size="0.5em" text-anchor="start" textLength="17.5" transform="rotate(-60, 946.6700507614173, 346.84901336526946)" style="text-shadow: 0 0 1px #fff;">
1.05
</text>
<rect x="953.6524111675085" y="333.9555147783929" width="17.85" height="7.2" transform="rotate(-60, 956.2131979695391, 340.61551477839294)" fill="#fffa"/>
<text x="953.8274111675086" y="340.61551477839294" fill="#111" font-size="0.5em" text-anchor="start" textLength="17.5" transform="rotate(-60, 956.2131979695391, 340.61551477839294)" style="text-shadow: 0 0 1px #fff;">
1.10
</text>
<rect x="958.4239847715694" y="346.0695852815298" width="17.85" height="7.2" transform="rotate(-60, 960.9847715735999, 352.72958528152975)" fill="#fffa"/>
<text x="958.5989847715695" y="352.72958528152975" fill="#111" font-size="0.5em" text-anchor="start" textLength="17.5" transform="rotate(-60, 960.9847715735999, 352.72958528152975)" style="text-shadow: 0 0 1px #fff;">
1.01
</text>
<rect x="963.1955583756303" y="330.26484813765234" width="17.85" height="7.2" transform="rotate(-60, 965.7563451776608, 336.92484813765236)" fill="#fffa"/>
<text x="963.3705583756304" y="336.92484813765236" fill="#111" font-size="0.5em" text-anchor="start" textLength="17.5" transform="rotate(-60, 965.7563451776608, 336.92484813765236)" style="text-shadow: 0 0 1px #fff;">
1.13
</text>
<rect x="972.7387055837521" y="333.17894627704504" width="17.85" height="7.2" transform="rotate(-60, 975.2994923857826, 339.83894627704507)" fill="#fffa"/>
<text x="972.9137055837522" y="339.83894627704507" fill="#111" font-size="0.5em" text-anchor="start" textLength="17.5" transform="rotate(-60, 975.2994923857826, 339.83894627704507)" style="text-shadow: 0 0 1px #fff;">
1.10
</text>
<rect x="977.510279187813" y="333.6684875824726" width="17.85" height="7.2" transform="rotate(-60, 980.0710659898435, 340.32848758247263)" fill="#fffa"/>
<text x="977.685279187813" y="340.32848758247263" fill="#111" font-size="0.5em" text-anchor="start" textLength="17.5" transform="rotate(-60, 980.0710659898435, 340.32848758247263)" style="text-shadow: 0 0 1px #fff;">
1.10
</text>
<rect x="982.2818527918738" y="321.0000789239229" width="17.85" height="7.2" transform="rotate(-60, 984.8426395939044, 327.66007892392287)" fill="#fffa"/>
<text x="982.4568527918739" y="327.66007892392287" fill="#111" font-size="0.5em" text-anchor="start" textLength="17.5" transform="rotate(-60, 984.8426395939044, 327.66007892392287)" style="text-shadow: 0 0 1px #fff;">
1.19
</text>
</svg>