<svg viewBox="0 0 1000 600" xmlns="http://www.w3.org/2000/svg" xmlns:xlink="http://www.w3.org/1999/xlink" width="100%" height="100%">

<rect x="50.0" y="30.0" width="940.0" height="467.99999999999994" stroke="#000" fill="#fff"/>
<line x1="42.0" y1="497.9999999999999" x2="50.0" y2="497.9999999999999" stroke="#000"/>
<text x="26.000000000000004" y="497.9999999999999" text-anchor="end" font-weight="bold" font-size="small" fill="#111">
0.0
</text>
<line x1="42.0" y1="426.7853638198991" x2="50.0" y2="426.7853638198991" stroke="#000"/>
<text x="26.000000000000004" y="426.7853638198991" text-anchor="end" font-weight="bold" font-size="small" fill="#111">
1.0
</text>
<line x1="42.0" y1="355.570727639798" x2="50.0" y2="355.570727639798" stroke="#000"/>
<text x="26.000000000000004" y="355.570727639798" text-anchor="end" font-weight="bold" font-size="small" fill="#111">
2.0
</text>
<line x1="42.0" y1="284.3560914596971" x2="50.0" y2="284.3560914596971" stroke="#000"/>
<text x="26.000000000000004" y="284.3560914596971" text-anchor="end" font-weight="bold" font-size="small" fill="#111">
3.0
</text>
<line x1="42.0" y1="213.14145527959613" x2="50.0" y2="213.14145527959613" stroke="#000"/>
<text x="26.000000000000004" y="213.14145527959613" text-anchor="end" font-weight="bold" font-size="small" fill="#111">
4.0
</text>
<line x1="42.0" y1="141.9268190994952" x2="50.0" y2="141.9268190994952" stroke="#000"/>
<text x="26.000000000000004" y="141.9268190994952" text-anchor="end" font-weight="bold" font-size="small" fill="#111">
5.0
</text>
<line x1="142.75" y1="54.60000000000001" x2="262.75" y2="54.60000000000001" stroke="#648FFF" stroke-width="2"/>
<text x="202.75" y="49.500000000000014" font-size="small" text-anchor="middle" font-weight="bold" fill="#000">
CRuby 3.3.3
</text>
<rect x="354.25" y="35.400000000000006" width="120.0" height="19.2" fill="#785EF0" stroke="none"/>
<text x="414.25" y="49.500000000000014" font-size="small" text-anchor="middle" font-weight="bold" fill="#fff" style="text-shadow: 0 0 1px #000;">
CRuby 3.4.0dev
</text>
<rect x="565.75" y="35.400000000000006" width="120.0" height="19.2" fill="#FFB000" stroke="none"/>
<text x="625.7499999999999" y="49.500000000000014" font-size="small" text-anchor="middle" font-weight="bold" fill="#fff" style="text-shadow: 0 0 1px #000;">
YJIT 3.3.3
</text>
<rect x="777.25" y="35.400000000000006" width="120.0" height="19.2" fill="#DC267F" stroke="none"/>
<text x="837.2499999999999" y="49.500000000000014" font-size="small" text-anchor="middle" font-weight="bold" fill="#fff" style="text-shadow: 0 0 1px #000;">
YJIT 3.4.0dev
</text>
<rect x="61.05882352941176" y="433.83609087209146" width="11.058823529411763" height="64.16390912790843" fill="#785EF0" data-tooltip="0.90x baseline (CRuby 3.4.0dev)"/>
<line x1="61.05882352941176" y1="432.8185525331238" x2="72.11764705882352" y2="432.8185525331238" stroke-dasharray="1,0.5" stroke="#333c"/>
<line x1="61.05882352941176" y1="434.8536292110592" x2="72.11764705882352" y2="434.8536292110592" stroke-dasharray="1,0.5" stroke="#333c"/>
<line x1="66.58823529411764" y1="432.8185525331238" x2="66.58823529411764" y2="434.8536292110592" stroke-dasharray="1,0.5" stroke="#333c"/>
<rect x="72.11764705882352" y="349.91637342705815" width="11.058823529411763" height="148.0836265729418" fill="#FFB000" data-tooltip="2.08x baseline (YJIT 3.3.3)"/>
<line x1="72.11764705882352" y1="345.68764761315873" x2="83.17647058823528" y2="345.68764761315873" stroke-dasharray="1,0.5" stroke="#333c"/>
<line x1="72.11764705882352" y1="354.14509924095756" x2="83.17647058823528" y2="354.14509924095756" stroke-dasharray="1,0.5" stroke="#333c"/>
<line x1="77.6470588235294" y1="345.68764761315873" x2="77.6470588235294" y2="354.14509924095756" stroke-dasharray="1,0.5" stroke="#333c"/>
<rect x="83.17647058823528" y="364.8590863898384" width="11.058823529411763" height="133.14091361016156" fill="#DC267F" data-tooltip="1.87x baseline (YJIT 3.4.0dev)"/>
<line x1="83.17647058823528" y1="361.4583806280382" x2="94.23529411764704" y2="361.4583806280382" stroke-dasharray="1,0.5" stroke="#333c"/>
<line x1="83.17647058823528" y1="368.25979215163864" x2="94.23529411764704" y2="368.25979215163864" stroke-dasharray="1,0.5" stroke="#333c"/>
<line x1="88.70588235294116" y1="361.4583806280382" x2="88.70588235294116" y2="368.25979215163864" stroke-dasharray="1,0.5" stroke="#333c"/>
<line x1="77.6470588235294" y1="498.0" x2="77.6470588235294" y2="502.79999999999995" stroke="#000"/>
<text x="77.6470588235294" y="512.4" fill="#111" font-size="small" text-anchor="end" transform="rotate(-60, 77.6470588235294, 512.4)">
binarytrees
</text>
<rect x="105.2941176470588" y="431.0245037762704" width="11.058823529411763" height="66.97549622372951" fill="#785EF0" data-tooltip="0.94x baseline (CRuby 3.4.0dev)"/>
<line x1="105.2941176470588" y1="430.41598851317815" x2="116.35294117647057" y2="430.41598851317815" stroke-dasharray="1,0.5" stroke="#333c"/>
<line x1="105.2941176470588" y1="431.63301903936264" x2="116.35294117647057" y2="431.63301903936264" stroke-dasharray="1,0.5" stroke="#333c"/>
<line x1="110.82352941176468" y1="430.41598851317815" x2="110.82352941176468" y2="431.63301903936264" stroke-dasharray="1,0.5" stroke="#333c"/>
<rect x="116.35294117647057" y="354.4127158231614" width="11.058823529411763" height="143.58728417683852" fill="#FFB000" data-tooltip="2.02x baseline (YJIT 3.3.3)"/>
<line x1="116.35294117647057" y1="353.9262676257445" x2="127.41176470588233" y2="353.9262676257445" stroke-dasharray="1,0.5" stroke="#333c"/>
<line x1="116.35294117647057" y1="354.8991640205783" x2="127.41176470588233" y2="354.8991640205783" stroke-dasharray="1,0.5" stroke="#333c"/>
<line x1="121.88235294117644" y1="353.9262676257445" x2="121.88235294117644" y2="354.8991640205783" stroke-dasharray="1,0.5" stroke="#333c"/>
<rect x="127.41176470588233" y="323.7609879242747" width="11.058823529411763" height="174.23901207572524" fill="#DC267F" data-tooltip="2.45x baseline (YJIT 3.4.0dev)"/>
<line x1="127.41176470588233" y1="323.018864497867" x2="138.4705882352941" y2="323.018864497867" stroke-dasharray="1,0.5" stroke="#333c"/>
<line x1="127.41176470588233" y1="324.5031113506824" x2="138.4705882352941" y2="324.5031113506824" stroke-dasharray="1,0.5" stroke="#333c"/>
<line x1="132.94117647058823" y1="323.018864497867" x2="132.94117647058823" y2="324.5031113506824" stroke-dasharray="1,0.5" stroke="#333c"/>
<line x1="121.88235294117644" y1="498.0" x2="121.88235294117644" y2="502.79999999999995" stroke="#000"/>
<text x="121.88235294117644" y="512.4" fill="#111" font-size="small" text-anchor="end" transform="rotate(-60, 121.88235294117644, 512.4)">
blurhash
</text>
<rect x="149.52941176470586" y="433.55888160682093" width="11.058823529411763" height="64.44111839317897" fill="#785EF0" data-tooltip="0.90x baseline (CRuby 3.4.0dev)"/>
<line x1="149.52941176470586" y1="433.2563118284752" x2="160.58823529411762" y2="433.2563118284752" stroke-dasharray="1,0.5" stroke="#333c"/>
<line x1="149.52941176470586" y1="433.8614513851667" x2="160.58823529411762" y2="433.8614513851667" stroke-dasharray="1,0.5" stroke="#333c"/>
<line x1="155.05882352941174" y1="433.2563118284752" x2="155.05882352941174" y2="433.8614513851667" stroke-dasharray="1,0.5" stroke="#333c"/>
<rect x="160.58823529411762" y="418.2176909489092" width="11.058823529411763" height="79.7823090510908" fill="#FFB000" data-tooltip="1.12x baseline (YJIT 3.3.3)"/>
<line x1="160.58823529411762" y1="417.7790520205685" x2="171.64705882352936" y2="417.7790520205685" stroke-dasharray="1,0.5" stroke="#333c"/>
<line x1="160.58823529411762" y1="418.6563298772499" x2="171.64705882352936" y2="418.6563298772499" stroke-dasharray="1,0.5" stroke="#333c"/>
<line x1="166.1176470588235" y1="417.7790520205685" x2="166.1176470588235" y2="418.6563298772499" stroke-dasharray="1,0.5" stroke="#333c"/>
<rect x="171.64705882352936" y="419.77881415013087" width="11.058823529411763" height="78.22118584986906" fill="#DC267F" data-tooltip="1.10x baseline (YJIT 3.4.0dev)"/>
<line x1="171.64705882352936" y1="419.4104529876169" x2="182.70588235294113" y2="419.4104529876169" stroke-dasharray="1,0.5" stroke="#333c"/>
<line x1="171.64705882352936" y1="420.1471753126449" x2="182.70588235294113" y2="420.1471753126449" stroke-dasharray="1,0.5" stroke="#333c"/>
<line x1="177.17647058823528" y1="419.4104529876169" x2="177.17647058823528" y2="420.1471753126449" stroke-dasharray="1,0.5" stroke="#333c"/>
<line x1="166.11764705882348" y1="498.0" x2="166.11764705882348" y2="502.79999999999995" stroke="#000"/>
<text x="166.11764705882348" y="512.4" fill="#111" font-size="small" text-anchor="end" transform="rotate(-60, 166.11764705882348, 512.4)">
erubi
</text>
<rect x="193.7647058823529" y="434.77335099158915" width="11.058823529411763" height="63.22664900841085" fill="#785EF0" data-tooltip="0.89x baseline (CRuby 3.4.0dev)"/>
<line x1="193.7647058823529" y1="434.6514137935951" x2="204.82352941176467" y2="434.6514137935951" stroke-dasharray="1,0.5" stroke="#333c"/>
<line x1="193.7647058823529" y1="434.89528818958325" x2="204.82352941176467" y2="434.89528818958325" stroke-dasharray="1,0.5" stroke="#333c"/>
<line x1="199.29411764705878" y1="434.6514137935951" x2="199.29411764705878" y2="434.89528818958325" stroke-dasharray="1,0.5" stroke="#333c"/>
<rect x="204.82352941176467" y="418.86523262602833" width="11.058823529411763" height="79.1347673739716" fill="#FFB000" data-tooltip="1.11x baseline (YJIT 3.3.3)"/>
<line x1="204.82352941176467" y1="418.756842470869" x2="215.8823529411764" y2="418.756842470869" stroke-dasharray="1,0.5" stroke="#333c"/>
<line x1="204.82352941176467" y1="418.9736227811876" x2="215.8823529411764" y2="418.9736227811876" stroke-dasharray="1,0.5" stroke="#333c"/>
<line x1="210.35294117647055" y1="418.756842470869" x2="210.35294117647055" y2="418.9736227811876" stroke-dasharray="1,0.5" stroke="#333c"/>
<rect x="215.8823529411764" y="425.1322640987063" width="11.058823529411763" height="72.86773590129363" fill="#DC267F" data-tooltip="1.02x baseline (YJIT 3.4.0dev)"/>
<line x1="215.8823529411764" y1="425.069956434877" x2="226.94117647058818" y2="425.069956434877" stroke-dasharray="1,0.5" stroke="#333c"/>
<line x1="215.8823529411764" y1="425.19457176253553" x2="226.94117647058818" y2="425.19457176253553" stroke-dasharray="1,0.5" stroke="#333c"/>
<line x1="221.41176470588232" y1="425.069956434877" x2="221.41176470588232" y2="425.19457176253553" stroke-dasharray="1,0.5" stroke="#333c"/>
<line x1="210.35294117647052" y1="498.0" x2="210.35294117647052" y2="502.79999999999995" stroke="#000"/>
<text x="210.35294117647052" y="512.4" fill="#111" font-size="small" text-anchor="end" transform="rotate(-60, 210.35294117647052, 512.4)">
etanni
</text>
<rect x="237.99999999999994" y="427.49412555149127" width="11.058823529411763" height="70.50587444850868" fill="#785EF0" data-tooltip="0.99x baseline (CRuby 3.4.0dev)"/>
<line x1="237.99999999999994" y1="426.66564642225006" x2="249.05882352941168" y2="426.66564642225006" stroke-dasharray="1,0.5" stroke="#333c"/>
<line x1="237.99999999999994" y1="428.3226046807324" x2="249.05882352941168" y2="428.3226046807324" stroke-dasharray="1,0.5" stroke="#333c"/>
<line x1="243.52941176470583" y1="426.66564642225006" x2="243.52941176470583" y2="428.3226046807324" stroke-dasharray="1,0.5" stroke="#333c"/>
<rect x="249.05882352941168" y="234.1124989907047" width="11.058823529411763" height="263.88750100929525" fill="#FFB000" data-tooltip="3.71x baseline (YJIT 3.3.3)"/>
<line x1="249.05882352941168" y1="231.36838810464542" x2="260.1176470588235" y2="231.36838810464542" stroke-dasharray="1,0.5" stroke="#333c"/>
<line x1="249.05882352941168" y1="236.856609876764" x2="260.1176470588235" y2="236.856609876764" stroke-dasharray="1,0.5" stroke="#333c"/>
<line x1="254.58823529411757" y1="231.36838810464542" x2="254.58823529411757" y2="236.856609876764" stroke-dasharray="1,0.5" stroke="#333c"/>
<rect x="260.1176470588235" y="208.45903643954387" width="11.058823529411763" height="289.54096356045613" fill="#DC267F" data-tooltip="4.07x baseline (YJIT 3.4.0dev)"/>
<line x1="260.1176470588235" y1="205.68825970647643" x2="271.17647058823525" y2="205.68825970647643" stroke-dasharray="1,0.5" stroke="#333c"/>
<line x1="260.1176470588235" y1="211.2298131726113" x2="271.17647058823525" y2="211.2298131726113" stroke-dasharray="1,0.5" stroke="#333c"/>
<line x1="265.64705882352933" y1="205.68825970647643" x2="265.64705882352933" y2="211.2298131726113" stroke-dasharray="1,0.5" stroke="#333c"/>
<line x1="254.58823529411757" y1="498.0" x2="254.58823529411757" y2="502.79999999999995" stroke="#000"/>
<text x="254.58823529411757" y="512.4" fill="#111" font-size="small" text-anchor="end" transform="rotate(-60, 254.58823529411757, 512.4)">
fannkuchredux
</text>
<rect x="282.235294117647" y="436.0772348393279" width="11.058823529411763" height="61.92276516067199" fill="#785EF0" data-tooltip="0.87x baseline (CRuby 3.4.0dev)"/>
<line x1="282.235294117647" y1="435.56312920110946" x2="293.29411764705884" y2="435.56312920110946" stroke-dasharray="1,0.5" stroke="#333c"/>
<line x1="282.235294117647" y1="436.5913404775463" x2="293.29411764705884" y2="436.5913404775463" stroke-dasharray="1,0.5" stroke="#333c"/>
<line x1="287.7647058823529" y1="435.56312920110946" x2="287.7647058823529" y2="436.5913404775463" stroke-dasharray="1,0.5" stroke="#333c"/>
<rect x="293.29411764705884" y="414.6958115189327" width="11.058823529411763" height="83.30418848106721" fill="#FFB000" data-tooltip="1.17x baseline (YJIT 3.3.3)"/>
<line x1="293.29411764705884" y1="414.177526754125" x2="304.3529411764706" y2="414.177526754125" stroke-dasharray="1,0.5" stroke="#333c"/>
<line x1="293.29411764705884" y1="415.21409628374045" x2="304.3529411764706" y2="415.21409628374045" stroke-dasharray="1,0.5" stroke="#333c"/>
<line x1="298.8235294117647" y1="414.177526754125" x2="298.8235294117647" y2="415.21409628374045" stroke-dasharray="1,0.5" stroke="#333c"/>
<rect x="304.3529411764706" y="433.17819729479766" width="11.058823529411763" height="64.82180270520223" fill="#DC267F" data-tooltip="0.91x baseline (YJIT 3.4.0dev)"/>
<line x1="304.3529411764706" y1="432.6419452390934" x2="315.4117647058824" y2="432.6419452390934" stroke-dasharray="1,0.5" stroke="#333c"/>
<line x1="304.3529411764706" y1="433.714449350502" x2="315.4117647058824" y2="433.714449350502" stroke-dasharray="1,0.5" stroke="#333c"/>
<line x1="309.8823529411765" y1="432.6419452390934" x2="309.8823529411765" y2="433.714449350502" stroke-dasharray="1,0.5" stroke="#333c"/>
<line x1="298.8235294117647" y1="498.0" x2="298.8235294117647" y2="502.79999999999995" stroke="#000"/>
<text x="298.8235294117647" y="512.4" fill="#111" font-size="small" text-anchor="end" transform="rotate(-60, 298.8235294117647, 512.4)">
fluentd
</text>
<rect x="326.4705882352942" y="430.73527554896066" width="11.058823529411763" height="67.26472445103921" fill="#785EF0" data-tooltip="0.94x baseline (CRuby 3.4.0dev)"/>
<line x1="326.4705882352942" y1="430.6606892527878" x2="337.52941176470597" y2="430.6606892527878" stroke-dasharray="1,0.5" stroke="#333c"/>
<line x1="326.4705882352942" y1="430.8098618451336" x2="337.52941176470597" y2="430.8098618451336" stroke-dasharray="1,0.5" stroke="#333c"/>
<line x1="332.00000000000006" y1="430.6606892527878" x2="332.00000000000006" y2="430.8098618451336" stroke-dasharray="1,0.5" stroke="#333c"/>
<rect x="337.52941176470597" y="410.8826282587796" width="11.058823529411763" height="87.11737174122032" fill="#FFB000" data-tooltip="1.22x baseline (YJIT 3.3.3)"/>
<line x1="337.52941176470597" y1="410.80499026820985" x2="348.58823529411774" y2="410.80499026820985" stroke-dasharray="1,0.5" stroke="#333c"/>
<line x1="337.52941176470597" y1="410.96026624934933" x2="348.58823529411774" y2="410.96026624934933" stroke-dasharray="1,0.5" stroke="#333c"/>
<line x1="343.0588235294119" y1="410.80499026820985" x2="343.0588235294119" y2="410.96026624934933" stroke-dasharray="1,0.5" stroke="#333c"/>
<rect x="348.58823529411774" y="414.92530252072146" width="11.058823529411763" height="83.0746974792785" fill="#DC267F" data-tooltip="1.17x baseline (YJIT 3.4.0dev)"/>
<line x1="348.58823529411774" y1="414.85153943661425" x2="359.64705882352956" y2="414.85153943661425" stroke-dasharray="1,0.5" stroke="#333c"/>
<line x1="348.58823529411774" y1="414.9990656048286" x2="359.64705882352956" y2="414.9990656048286" stroke-dasharray="1,0.5" stroke="#333c"/>
<line x1="354.11764705882365" y1="414.85153943661425" x2="354.11764705882365" y2="414.9990656048286" stroke-dasharray="1,0.5" stroke="#333c"/>
<line x1="343.0588235294119" y1="498.0" x2="343.0588235294119" y2="502.79999999999995" stroke="#000"/>
<text x="343.0588235294119" y="512.4" fill="#111" font-size="small" text-anchor="end" transform="rotate(-60, 343.0588235294119, 512.4)">
graphql
</text>
<rect x="370.70588235294133" y="434.49070797362685" width="11.058823529411763" height="63.50929202637308" fill="#785EF0" data-tooltip="0.89x baseline (CRuby 3.4.0dev)"/>
<line x1="370.70588235294133" y1="434.4110718964046" x2="381.7647058823531" y2="434.4110718964046" stroke-dasharray="1,0.5" stroke="#333c"/>
<line x1="370.70588235294133" y1="434.57034405084903" x2="381.7647058823531" y2="434.57034405084903" stroke-dasharray="1,0.5" stroke="#333c"/>
<line x1="376.23529411764724" y1="434.4110718964046" x2="376.23529411764724" y2="434.57034405084903" stroke-dasharray="1,0.5" stroke="#333c"/>
<rect x="381.7647058823531" y="419.92042803846397" width="11.058823529411763" height="78.07957196153598" fill="#FFB000" data-tooltip="1.10x baseline (YJIT 3.3.3)"/>
<line x1="381.7647058823531" y1="419.8216662730798" x2="392.8235294117649" y2="419.8216662730798" stroke-dasharray="1,0.5" stroke="#333c"/>
<line x1="381.7647058823531" y1="420.0191898038481" x2="392.8235294117649" y2="420.0191898038481" stroke-dasharray="1,0.5" stroke="#333c"/>
<line x1="387.294117647059" y1="419.8216662730798" x2="387.294117647059" y2="420.0191898038481" stroke-dasharray="1,0.5" stroke="#333c"/>
<rect x="392.8235294117649" y="435.10014499309773" width="11.058823529411763" height="62.89985500690221" fill="#DC267F" data-tooltip="0.88x baseline (YJIT 3.4.0dev)"/>
<line x1="392.8235294117649" y1="434.8019868383559" x2="403.8823529411767" y2="434.8019868383559" stroke-dasharray="1,0.5" stroke="#333c"/>
<line x1="392.8235294117649" y1="435.3983031478395" x2="403.8823529411767" y2="435.3983031478395" stroke-dasharray="1,0.5" stroke="#333c"/>
<line x1="398.3529411764708" y1="434.8019868383559" x2="398.3529411764708" y2="435.3983031478395" stroke-dasharray="1,0.5" stroke="#333c"/>
<line x1="387.294117647059" y1="498.0" x2="387.294117647059" y2="502.79999999999995" stroke="#000"/>
<text x="387.294117647059" y="512.4" fill="#111" font-size="small" text-anchor="end" transform="rotate(-60, 387.294117647059, 512.4)">
graphql-native
</text>
<rect x="414.94117647058846" y="434.7348815627286" width="11.058823529411763" height="63.26511843727132" fill="#785EF0" data-tooltip="0.89x baseline (CRuby 3.4.0dev)"/>
<line x1="414.94117647058846" y1="434.23045159139093" x2="426.0000000000003" y2="434.23045159139093" stroke-dasharray="1,0.5" stroke="#333c"/>
<line x1="414.94117647058846" y1="435.23931153406625" x2="426.0000000000003" y2="435.23931153406625" stroke-dasharray="1,0.5" stroke="#333c"/>
<line x1="420.4705882352944" y1="434.23045159139093" x2="420.4705882352944" y2="435.23931153406625" stroke-dasharray="1,0.5" stroke="#333c"/>
<rect x="426.0000000000003" y="396.8006982208237" width="11.058823529411763" height="101.19930177917624" fill="#FFB000" data-tooltip="1.42x baseline (YJIT 3.3.3)"/>
<line x1="426.0000000000003" y1="395.2802057638391" x2="437.05882352941205" y2="395.2802057638391" stroke-dasharray="1,0.5" stroke="#333c"/>
<line x1="426.0000000000003" y1="398.3211906778083" x2="437.05882352941205" y2="398.3211906778083" stroke-dasharray="1,0.5" stroke="#333c"/>
<line x1="431.52941176470614" y1="395.2802057638391" x2="431.52941176470614" y2="398.3211906778083" stroke-dasharray="1,0.5" stroke="#333c"/>
<rect x="437.05882352941205" y="400.2024375664202" width="11.058823529411763" height="97.7975624335798" fill="#DC267F" data-tooltip="1.37x baseline (YJIT 3.4.0dev)"/>
<line x1="437.05882352941205" y1="399.42427693030425" x2="448.1176470588238" y2="399.42427693030425" stroke-dasharray="1,0.5" stroke="#333c"/>
<line x1="437.05882352941205" y1="400.98059820253616" x2="448.1176470588238" y2="400.98059820253616" stroke-dasharray="1,0.5" stroke="#333c"/>
<line x1="442.58823529411796" y1="399.42427693030425" x2="442.58823529411796" y2="400.98059820253616" stroke-dasharray="1,0.5" stroke="#333c"/>
<line x1="431.52941176470614" y1="498.0" x2="431.52941176470614" y2="502.79999999999995" stroke="#000"/>
<text x="431.52941176470614" y="512.4" fill="#111" font-size="small" text-anchor="end" transform="rotate(-60, 431.52941176470614, 512.4)">
lee
</text>
<rect x="459.17647058823565" y="434.5247837857695" width="11.058823529411763" height="63.475216214230414" fill="#785EF0" data-tooltip="0.89x baseline (CRuby 3.4.0dev)"/>
<line x1="459.17647058823565" y1="432.9094748838993" x2="470.2352941176474" y2="432.9094748838993" stroke-dasharray="1,0.5" stroke="#333c"/>
<line x1="459.17647058823565" y1="436.1400926876397" x2="470.2352941176474" y2="436.1400926876397" stroke-dasharray="1,0.5" stroke="#333c"/>
<line x1="464.7058823529415" y1="432.9094748838993" x2="464.7058823529415" y2="436.1400926876397" stroke-dasharray="1,0.5" stroke="#333c"/>
<rect x="470.2352941176474" y="384.8565152658489" width="11.058823529411763" height="113.14348473415107" fill="#FFB000" data-tooltip="1.59x baseline (YJIT 3.3.3)"/>
<line x1="470.2352941176474" y1="384.41855304785025" x2="481.2941176470592" y2="384.41855304785025" stroke-dasharray="1,0.5" stroke="#333c"/>
<line x1="470.2352941176474" y1="385.29447748384746" x2="481.2941176470592" y2="385.29447748384746" stroke-dasharray="1,0.5" stroke="#333c"/>
<line x1="475.7647058823533" y1="384.41855304785025" x2="475.7647058823533" y2="385.29447748384746" stroke-dasharray="1,0.5" stroke="#333c"/>
<rect x="481.2941176470592" y="375.68552239205104" width="11.058823529411763" height="122.3144776079489" fill="#DC267F" data-tooltip="1.72x baseline (YJIT 3.4.0dev)"/>
<line x1="481.2941176470592" y1="375.2043623141623" x2="492.352941176471" y2="375.2043623141623" stroke-dasharray="1,0.5" stroke="#333c"/>
<line x1="481.2941176470592" y1="376.16668246993976" x2="492.352941176471" y2="376.16668246993976" stroke-dasharray="1,0.5" stroke="#333c"/>
<line x1="486.8235294117651" y1="375.2043623141623" x2="486.8235294117651" y2="376.16668246993976" stroke-dasharray="1,0.5" stroke="#333c"/>
<line x1="475.7647058823533" y1="498.0" x2="475.7647058823533" y2="502.79999999999995" stroke="#000"/>
<text x="475.7647058823533" y="512.4" fill="#111" font-size="small" text-anchor="end" transform="rotate(-60, 475.7647058823533, 512.4)">
matmul
</text>
<rect x="503.4117647058828" y="430.85370758706244" width="11.058823529411763" height="67.14629241293746" fill="#785EF0" data-tooltip="0.94x baseline (CRuby 3.4.0dev)"/>
<line x1="503.4117647058828" y1="429.9743892665856" x2="514.4705882352946" y2="429.9743892665856" stroke-dasharray="1,0.5" stroke="#333c"/>
<line x1="503.4117647058828" y1="431.73302590753934" x2="514.4705882352946" y2="431.73302590753934" stroke-dasharray="1,0.5" stroke="#333c"/>
<line x1="508.9411764705887" y1="429.9743892665856" x2="508.9411764705887" y2="431.73302590753934" stroke-dasharray="1,0.5" stroke="#333c"/>
<rect x="514.4705882352946" y="362.2542007585718" width="11.058823529411763" height="135.7457992414281" fill="#FFB000" data-tooltip="1.91x baseline (YJIT 3.3.3)"/>
<line x1="514.4705882352946" y1="361.3702872373927" x2="525.5294117647063" y2="361.3702872373927" stroke-dasharray="1,0.5" stroke="#333c"/>
<line x1="514.4705882352946" y1="363.1381142797509" x2="525.5294117647063" y2="363.1381142797509" stroke-dasharray="1,0.5" stroke="#333c"/>
<line x1="520.0000000000005" y1="361.3702872373927" x2="520.0000000000005" y2="363.1381142797509" stroke-dasharray="1,0.5" stroke="#333c"/>
<rect x="525.5294117647063" y="346.2066082638934" width="11.058823529411763" height="151.7933917361066" fill="#DC267F" data-tooltip="2.13x baseline (YJIT 3.4.0dev)"/>
<line x1="525.5294117647063" y1="345.1669882234875" x2="536.5882352941181" y2="345.1669882234875" stroke-dasharray="1,0.5" stroke="#333c"/>
<line x1="525.5294117647063" y1="347.2462283042993" x2="536.5882352941181" y2="347.2462283042993" stroke-dasharray="1,0.5" stroke="#333c"/>
<line x1="531.0588235294123" y1="345.1669882234875" x2="531.0588235294123" y2="347.2462283042993" stroke-dasharray="1,0.5" stroke="#333c"/>
<line x1="520.0000000000005" y1="498.0" x2="520.0000000000005" y2="502.79999999999995" stroke="#000"/>
<text x="520.0000000000005" y="512.4" fill="#111" font-size="small" text-anchor="end" transform="rotate(-60, 520.0000000000005, 512.4)">
nbody
</text>
<rect x="547.64705882353" y="423.58063180311314" width="11.058823529411763" height="74.41936819688678" fill="#785EF0" data-tooltip="1.05x baseline (CRuby 3.4.0dev)"/>
<line x1="547.64705882353" y1="421.51952124756224" x2="558.7058823529417" y2="421.51952124756224" stroke-dasharray="1,0.5" stroke="#333c"/>
<line x1="547.64705882353" y1="425.64174235866403" x2="558.7058823529417" y2="425.64174235866403" stroke-dasharray="1,0.5" stroke="#333c"/>
<line x1="553.1764705882358" y1="421.51952124756224" x2="553.1764705882358" y2="425.64174235866403" stroke-dasharray="1,0.5" stroke="#333c"/>
<rect x="558.7058823529417" y="422.8725392074268" width="11.058823529411763" height="75.12746079257306" fill="#FFB000" data-tooltip="1.05x baseline (YJIT 3.3.3)"/>
<line x1="558.7058823529417" y1="420.30290071437025" x2="569.7647058823535" y2="420.30290071437025" stroke-dasharray="1,0.5" stroke="#333c"/>
<line x1="558.7058823529417" y1="425.44217770048346" x2="569.7647058823535" y2="425.44217770048346" stroke-dasharray="1,0.5" stroke="#333c"/>
<line x1="564.2352941176476" y1="420.30290071437025" x2="564.2352941176476" y2="425.44217770048346" stroke-dasharray="1,0.5" stroke="#333c"/>
<rect x="569.7647058823535" y="100.19999999999999" width="11.058823529411763" height="397.79999999999995" fill="#DC267F" data-tooltip="5.59x baseline (YJIT 3.4.0dev)"/>
<line x1="569.7647058823535" y1="91.98531906885293" x2="580.8235294117653" y2="91.98531906885293" stroke-dasharray="1,0.5" stroke="#333c"/>
<line x1="569.7647058823535" y1="108.41468093114705" x2="580.8235294117653" y2="108.41468093114705" stroke-dasharray="1,0.5" stroke="#333c"/>
<line x1="575.2941176470594" y1="91.98531906885293" x2="575.2941176470594" y2="108.41468093114705" stroke-dasharray="1,0.5" stroke="#333c"/>
<line x1="564.2352941176476" y1="498.0" x2="564.2352941176476" y2="502.79999999999995" stroke="#000"/>
<text x="564.2352941176476" y="512.4" fill="#111" font-size="small" text-anchor="end" transform="rotate(-60, 564.2352941176476, 512.4)">
nqueens
</text>
<rect x="591.882352941177" y="427.5472217977043" width="11.058823529411763" height="70.45277820229565" fill="#785EF0" data-tooltip="0.99x baseline (CRuby 3.4.0dev)"/>
<line x1="591.882352941177" y1="427.07751586440196" x2="602.9411764705889" y2="427.07751586440196" stroke-dasharray="1,0.5" stroke="#333c"/>
<line x1="591.882352941177" y1="428.01692773100666" x2="602.9411764705889" y2="428.01692773100666" stroke-dasharray="1,0.5" stroke="#333c"/>
<line x1="597.411764705883" y1="427.07751586440196" x2="597.411764705883" y2="428.01692773100666" stroke-dasharray="1,0.5" stroke="#333c"/>
<rect x="602.9411764705889" y="330.776466658351" width="11.058823529411763" height="167.22353334164893" fill="#FFB000" data-tooltip="2.35x baseline (YJIT 3.3.3)"/>
<line x1="602.9411764705889" y1="329.47020919046435" x2="614.0000000000007" y2="329.47020919046435" stroke-dasharray="1,0.5" stroke="#333c"/>
<line x1="602.9411764705889" y1="332.0827241262376" x2="614.0000000000007" y2="332.0827241262376" stroke-dasharray="1,0.5" stroke="#333c"/>
<line x1="608.4705882352947" y1="329.47020919046435" x2="608.4705882352947" y2="332.0827241262376" stroke-dasharray="1,0.5" stroke="#333c"/>
<rect x="614.0000000000007" y="338.2226464254402" width="11.058823529411763" height="159.7773535745598" fill="#DC267F" data-tooltip="2.24x baseline (YJIT 3.4.0dev)"/>
<line x1="614.0000000000007" y1="337.12151741847265" x2="625.0588235294124" y2="337.12151741847265" stroke-dasharray="1,0.5" stroke="#333c"/>
<line x1="614.0000000000007" y1="339.32377543240773" x2="625.0588235294124" y2="339.32377543240773" stroke-dasharray="1,0.5" stroke="#333c"/>
<line x1="619.5294117647065" y1="337.12151741847265" x2="619.5294117647065" y2="339.32377543240773" stroke-dasharray="1,0.5" stroke="#333c"/>
<line x1="608.4705882352947" y1="498.0" x2="608.4705882352947" y2="502.79999999999995" stroke="#000"/>
<text x="608.4705882352947" y="512.4" fill="#111" font-size="small" text-anchor="end" transform="rotate(-60, 608.4705882352947, 512.4)">
optcarrot
</text>
<rect x="636.1176470588242" y="427.20720390028373" width="11.058823529411763" height="70.79279609971626" fill="#785EF0" data-tooltip="0.99x baseline (CRuby 3.4.0dev)"/>
<line x1="636.1176470588242" y1="426.52364289438185" x2="647.176470588236" y2="426.52364289438185" stroke-dasharray="1,0.5" stroke="#333c"/>
<line x1="636.1176470588242" y1="427.8907649061856" x2="647.176470588236" y2="427.8907649061856" stroke-dasharray="1,0.5" stroke="#333c"/>
<line x1="641.6470588235301" y1="426.52364289438185" x2="641.6470588235301" y2="427.8907649061856" stroke-dasharray="1,0.5" stroke="#333c"/>
<rect x="647.176470588236" y="347.1896644503613" width="11.058823529411763" height="150.8103355496386" fill="#FFB000" data-tooltip="2.12x baseline (YJIT 3.3.3)"/>
<line x1="647.176470588236" y1="345.99995363392355" x2="658.2352941176478" y2="345.99995363392355" stroke-dasharray="1,0.5" stroke="#333c"/>
<line x1="647.176470588236" y1="348.3793752667991" x2="658.2352941176478" y2="348.3793752667991" stroke-dasharray="1,0.5" stroke="#333c"/>
<line x1="652.7058823529419" y1="345.99995363392355" x2="652.7058823529419" y2="348.3793752667991" stroke-dasharray="1,0.5" stroke="#333c"/>
<rect x="658.2352941176478" y="269.17655269046537" width="11.058823529411763" height="228.82344730953454" fill="#DC267F" data-tooltip="3.21x baseline (YJIT 3.4.0dev)"/>
<line x1="658.2352941176478" y1="267.3600798731926" x2="669.2941176470596" y2="267.3600798731926" stroke-dasharray="1,0.5" stroke="#333c"/>
<line x1="658.2352941176478" y1="270.9930255077382" x2="669.2941176470596" y2="270.9930255077382" stroke-dasharray="1,0.5" stroke="#333c"/>
<line x1="663.7647058823537" y1="267.3600798731926" x2="663.7647058823537" y2="270.9930255077382" stroke-dasharray="1,0.5" stroke="#333c"/>
<line x1="652.7058823529419" y1="498.0" x2="652.7058823529419" y2="502.79999999999995" stroke="#000"/>
<text x="652.7058823529419" y="512.4" fill="#111" font-size="small" text-anchor="end" transform="rotate(-60, 652.7058823529419, 512.4)">
protoboeuf
</text>
<rect x="680.3529411764714" y="429.3546231644632" width="11.058823529411763" height="68.6453768355367" fill="#785EF0" data-tooltip="0.96x baseline (CRuby 3.4.0dev)"/>
<line x1="680.3529411764714" y1="428.6974578527538" x2="691.4117647058831" y2="428.6974578527538" stroke-dasharray="1,0.5" stroke="#333c"/>
<line x1="680.3529411764714" y1="430.01178847617257" x2="691.4117647058831" y2="430.01178847617257" stroke-dasharray="1,0.5" stroke="#333c"/>
<line x1="685.8823529411773" y1="428.6974578527538" x2="685.8823529411773" y2="430.01178847617257" stroke-dasharray="1,0.5" stroke="#333c"/>
<rect x="691.4117647058831" y="393.1332328950881" width="11.058823529411763" height="104.86676710491186" fill="#FFB000" data-tooltip="1.47x baseline (YJIT 3.3.3)"/>
<line x1="691.4117647058831" y1="392.2340705318301" x2="702.4705882352949" y2="392.2340705318301" stroke-dasharray="1,0.5" stroke="#333c"/>
<line x1="691.4117647058831" y1="394.0323952583461" x2="702.4705882352949" y2="394.0323952583461" stroke-dasharray="1,0.5" stroke="#333c"/>
<line x1="696.9411764705891" y1="392.2340705318301" x2="696.9411764705891" y2="394.0323952583461" stroke-dasharray="1,0.5" stroke="#333c"/>
<rect x="702.4705882352949" y="381.09991579737243" width="11.058823529411763" height="116.90008420262748" fill="#DC267F" data-tooltip="1.64x baseline (YJIT 3.4.0dev)"/>
<line x1="702.4705882352949" y1="380.03342963688635" x2="713.5294117647068" y2="380.03342963688635" stroke-dasharray="1,0.5" stroke="#333c"/>
<line x1="702.4705882352949" y1="382.16640195785857" x2="713.5294117647068" y2="382.16640195785857" stroke-dasharray="1,0.5" stroke="#333c"/>
<line x1="708.0000000000008" y1="380.03342963688635" x2="708.0000000000008" y2="382.16640195785857" stroke-dasharray="1,0.5" stroke="#333c"/>
<line x1="696.9411764705891" y1="498.0" x2="696.9411764705891" y2="502.79999999999995" stroke="#000"/>
<text x="696.9411764705891" y="512.4" fill="#111" font-size="small" text-anchor="end" transform="rotate(-60, 696.9411764705891, 512.4)">
protoboeuf-encode
</text>
<rect x="724.5882352941185" y="429.9039321047051" width="11.058823529411763" height="68.09606789529487" fill="#785EF0" data-tooltip="0.96x baseline (CRuby 3.4.0dev)"/>
<line x1="724.5882352941185" y1="429.4531052195705" x2="735.6470588235303" y2="429.4531052195705" stroke-dasharray="1,0.5" stroke="#333c"/>
<line x1="724.5882352941185" y1="430.35475898983975" x2="735.6470588235303" y2="430.35475898983975" stroke-dasharray="1,0.5" stroke="#333c"/>
<line x1="730.1176470588244" y1="429.4531052195705" x2="730.1176470588244" y2="430.35475898983975" stroke-dasharray="1,0.5" stroke="#333c"/>
<rect x="735.6470588235303" y="394.26809719422124" width="11.058823529411763" height="103.73190280577866" fill="#FFB000" data-tooltip="1.46x baseline (YJIT 3.3.3)"/>
<line x1="735.6470588235303" y1="393.56452684832635" x2="746.7058823529421" y2="393.56452684832635" stroke-dasharray="1,0.5" stroke="#333c"/>
<line x1="735.6470588235303" y1="394.9716675401162" x2="746.7058823529421" y2="394.9716675401162" stroke-dasharray="1,0.5" stroke="#333c"/>
<line x1="741.1764705882363" y1="393.56452684832635" x2="741.1764705882363" y2="394.9716675401162" stroke-dasharray="1,0.5" stroke="#333c"/>
<rect x="746.7058823529421" y="399.46281106446617" width="11.058823529411763" height="98.53718893553375" fill="#DC267F" data-tooltip="1.38x baseline (YJIT 3.4.0dev)"/>
<line x1="746.7058823529421" y1="398.2233377323955" x2="757.764705882354" y2="398.2233377323955" stroke-dasharray="1,0.5" stroke="#333c"/>
<line x1="746.7058823529421" y1="400.7022843965368" x2="757.764705882354" y2="400.7022843965368" stroke-dasharray="1,0.5" stroke="#333c"/>
<line x1="752.235294117648" y1="398.2233377323955" x2="752.235294117648" y2="400.7022843965368" stroke-dasharray="1,0.5" stroke="#333c"/>
<line x1="741.1764705882363" y1="498.0" x2="741.1764705882363" y2="502.79999999999995" stroke="#000"/>
<text x="741.1764705882363" y="512.4" fill="#111" font-size="small" text-anchor="end" transform="rotate(-60, 741.1764705882363, 512.4)">
rack
</text>
<rect x="768.8235294117657" y="433.3723462034818" width="11.058823529411763" height="64.62765379651809" fill="#785EF0" data-tooltip="0.91x baseline (CRuby 3.4.0dev)"/>
<line x1="768.8235294117657" y1="433.3022125101984" x2="779.8823529411775" y2="433.3022125101984" stroke-dasharray="1,0.5" stroke="#333c"/>
<line x1="768.8235294117657" y1="433.44247989676524" x2="779.8823529411775" y2="433.44247989676524" stroke-dasharray="1,0.5" stroke="#333c"/>
<line x1="774.3529411764716" y1="433.3022125101984" x2="774.3529411764716" y2="433.44247989676524" stroke-dasharray="1,0.5" stroke="#333c"/>
<rect x="779.8823529411775" y="411.1427388886932" width="11.058823529411763" height="86.85726111130678" fill="#FFB000" data-tooltip="1.22x baseline (YJIT 3.3.3)"/>
<line x1="779.8823529411775" y1="411.0126877009633" x2="790.9411764705893" y2="411.0126877009633" stroke-dasharray="1,0.5" stroke="#333c"/>
<line x1="779.8823529411775" y1="411.2727900764231" x2="790.9411764705893" y2="411.2727900764231" stroke-dasharray="1,0.5" stroke="#333c"/>
<line x1="785.4117647058833" y1="411.0126877009633" x2="785.4117647058833" y2="411.2727900764231" stroke-dasharray="1,0.5" stroke="#333c"/>
<rect x="790.9411764705893" y="417.4576159639497" width="11.058823529411763" height="80.54238403605031" fill="#DC267F" data-tooltip="1.13x baseline (YJIT 3.4.0dev)"/>
<line x1="790.9411764705893" y1="417.3478123830219" x2="802.000000000001" y2="417.3478123830219" stroke-dasharray="1,0.5" stroke="#333c"/>
<line x1="790.9411764705893" y1="417.56741954487745" x2="802.000000000001" y2="417.56741954487745" stroke-dasharray="1,0.5" stroke="#333c"/>
<line x1="796.4705882352952" y1="417.3478123830219" x2="796.4705882352952" y2="417.56741954487745" stroke-dasharray="1,0.5" stroke="#333c"/>
<line x1="785.4117647058833" y1="498.0" x2="785.4117647058833" y2="502.79999999999995" stroke="#000"/>
<text x="785.4117647058833" y="512.4" fill="#111" font-size="small" text-anchor="end" transform="rotate(-60, 785.4117647058833, 512.4)">
ruby-json
</text>
<rect x="813.0588235294128" y="435.25987678160055" width="11.058823529411763" height="62.74012321839942" fill="#785EF0" data-tooltip="0.88x baseline (CRuby 3.4.0dev)"/>
<line x1="813.0588235294128" y1="434.71345507283525" x2="824.1176470588247" y2="434.71345507283525" stroke-dasharray="1,0.5" stroke="#333c"/>
<line x1="813.0588235294128" y1="435.8062984903658" x2="824.1176470588247" y2="435.8062984903658" stroke-dasharray="1,0.5" stroke="#333c"/>
<line x1="818.5882352941187" y1="434.71345507283525" x2="818.5882352941187" y2="435.8062984903658" stroke-dasharray="1,0.5" stroke="#333c"/>
<rect x="824.1176470588247" y="371.22852375009495" width="11.058823529411763" height="126.77147624990496" fill="#FFB000" data-tooltip="1.78x baseline (YJIT 3.3.3)"/>
<line x1="824.1176470588247" y1="370.2657148207276" x2="835.1764705882364" y2="370.2657148207276" stroke-dasharray="1,0.5" stroke="#333c"/>
<line x1="824.1176470588247" y1="372.1913326794623" x2="835.1764705882364" y2="372.1913326794623" stroke-dasharray="1,0.5" stroke="#333c"/>
<line x1="829.6470588235305" y1="370.2657148207276" x2="829.6470588235305" y2="372.1913326794623" stroke-dasharray="1,0.5" stroke="#333c"/>
<rect x="835.1764705882364" y="384.59747885999724" width="11.058823529411763" height="113.4025211400027" fill="#DC267F" data-tooltip="1.59x baseline (YJIT 3.4.0dev)"/>
<line x1="835.1764705882364" y1="383.581017544232" x2="846.2352941176482" y2="383.581017544232" stroke-dasharray="1,0.5" stroke="#333c"/>
<line x1="835.1764705882364" y1="385.6139401757625" x2="846.2352941176482" y2="385.6139401757625" stroke-dasharray="1,0.5" stroke="#333c"/>
<line x1="840.7058823529424" y1="383.581017544232" x2="840.7058823529424" y2="385.6139401757625" stroke-dasharray="1,0.5" stroke="#333c"/>
<line x1="829.6470588235305" y1="498.0" x2="829.6470588235305" y2="502.79999999999995" stroke="#000"/>
<text x="829.6470588235305" y="512.4" fill="#111" font-size="small" text-anchor="end" transform="rotate(-60, 829.6470588235305, 512.4)">
rubykon
</text>
<rect x="857.29411764706" y="426.40904105424494" width="11.058823529411763" height="71.59095894575508" fill="#785EF0" data-tooltip="1.01x baseline (CRuby 3.4.0dev)"/>
<line x1="857.29411764706" y1="424.66400133233606" x2="868.3529411764717" y2="424.66400133233606" stroke-dasharray="1,0.5" stroke="#333c"/>
<line x1="857.29411764706" y1="428.1540807761538" x2="868.3529411764717" y2="428.1540807761538" stroke-dasharray="1,0.5" stroke="#333c"/>
<line x1="862.8235294117659" y1="424.66400133233606" x2="862.8235294117659" y2="428.1540807761538" stroke-dasharray="1,0.5" stroke="#333c"/>
<rect x="868.3529411764717" y="275.4855599239375" width="11.058823529411763" height="222.5144400760624" fill="#FFB000" data-tooltip="3.12x baseline (YJIT 3.3.3)"/>
<line x1="868.3529411764717" y1="270.07541188292794" x2="879.4117647058836" y2="270.07541188292794" stroke-dasharray="1,0.5" stroke="#333c"/>
<line x1="868.3529411764717" y1="280.8957079649471" x2="879.4117647058836" y2="280.8957079649471" stroke-dasharray="1,0.5" stroke="#333c"/>
<line x1="873.8823529411777" y1="270.07541188292794" x2="873.8823529411777" y2="280.8957079649471" stroke-dasharray="1,0.5" stroke="#333c"/>
<rect x="879.4117647058836" y="266.25561586072047" width="11.058823529411763" height="231.7443841392795" fill="#DC267F" data-tooltip="3.25x baseline (YJIT 3.4.0dev)"/>
<line x1="879.4117647058836" y1="260.6197186804855" x2="890.4705882352954" y2="260.6197186804855" stroke-dasharray="1,0.5" stroke="#333c"/>
<line x1="879.4117647058836" y1="271.8915130409554" x2="890.4705882352954" y2="271.8915130409554" stroke-dasharray="1,0.5" stroke="#333c"/>
<line x1="884.9411764705894" y1="260.6197186804855" x2="884.9411764705894" y2="271.8915130409554" stroke-dasharray="1,0.5" stroke="#333c"/>
<line x1="873.8823529411777" y1="498.0" x2="873.8823529411777" y2="502.79999999999995" stroke="#000"/>
<text x="873.8823529411777" y="512.4" fill="#111" font-size="small" text-anchor="end" transform="rotate(-60, 873.8823529411777, 512.4)">
sudoku
</text>
<rect x="901.5294117647071" y="429.2778710860092" width="11.058823529411763" height="68.7221289139908" fill="#785EF0" data-tooltip="0.97x baseline (CRuby 3.4.0dev)"/>
<line x1="901.5294117647071" y1="429.0362624669395" x2="912.5882352941189" y2="429.0362624669395" stroke-dasharray="1,0.5" stroke="#333c"/>
<line x1="901.5294117647071" y1="429.51947970507894" x2="912.5882352941189" y2="429.51947970507894" stroke-dasharray="1,0.5" stroke="#333c"/>
<line x1="907.0588235294131" y1="429.0362624669395" x2="907.0588235294131" y2="429.51947970507894" stroke-dasharray="1,0.5" stroke="#333c"/>
<rect x="912.5882352941189" y="355.47458746512933" width="11.058823529411763" height="142.52541253487064" fill="#FFB000" data-tooltip="2.00x baseline (YJIT 3.3.3)"/>
<line x1="912.5882352941189" y1="355.1379843765266" x2="923.6470588235308" y2="355.1379843765266" stroke-dasharray="1,0.5" stroke="#333c"/>
<line x1="912.5882352941189" y1="355.81119055373205" x2="923.6470588235308" y2="355.81119055373205" stroke-dasharray="1,0.5" stroke="#333c"/>
<line x1="918.1176470588248" y1="355.1379843765266" x2="918.1176470588248" y2="355.81119055373205" stroke-dasharray="1,0.5" stroke="#333c"/>
<rect x="923.6470588235308" y="365.2779618683479" width="11.058823529411763" height="132.72203813165206" fill="#DC267F" data-tooltip="1.86x baseline (YJIT 3.4.0dev)"/>
<line x1="923.6470588235308" y1="364.8808199108877" x2="934.7058823529425" y2="364.8808199108877" stroke-dasharray="1,0.5" stroke="#333c"/>
<line x1="923.6470588235308" y1="365.6751038258081" x2="934.7058823529425" y2="365.6751038258081" stroke-dasharray="1,0.5" stroke="#333c"/>
<line x1="929.1764705882366" y1="364.8808199108877" x2="929.1764705882366" y2="365.6751038258081" stroke-dasharray="1,0.5" stroke="#333c"/>
<line x1="918.1176470588248" y1="498.0" x2="918.1176470588248" y2="502.79999999999995" stroke="#000"/>
<text x="918.1176470588248" y="512.4" fill="#111" font-size="small" text-anchor="end" transform="rotate(-60, 918.1176470588248, 512.4)">
tinygql
</text>
<rect x="945.7647058823543" y="431.28871699933654" width="11.058823529411763" height="66.71128300066334" fill="#785EF0" data-tooltip="0.94x baseline (CRuby 3.4.0dev)"/>
<rect x="956.8235294117661" y="381.1669553715101" width="11.058823529411763" height="116.83304462848987" fill="#FFB000" data-tooltip="1.64x baseline (YJIT 3.3.3)"/>
<rect x="967.8823529411778" y="371.4590783245666" width="11.058823529411763" height="126.54092167543347" fill="#DC267F" data-tooltip="1.78x baseline (YJIT 3.4.0dev)"/>
<line x1="962.352941176472" y1="498.0" x2="962.352941176472" y2="502.79999999999995" stroke="#000"/>
<text x="962.352941176472" y="512.4" fill="#111" font-size="small" text-anchor="end" transform="rotate(-60, 962.352941176472, 512.4)" font-style="italic">
geomean*
</text>
<line x1="50.0" y1="426.7853638198991" x2="990.0" y2="426.7853638198991" stroke="#648FFF" stroke-width="2"/>
<rect x="62.88382352941177" y="419.6760908720915" width="17.85" height="7.2" transform="rotate(-60, 68.58823529411764, 426.3360908720915)" fill="#fffa"/>
<text x="63.05882352941176" y="426.3360908720915" fill="#111" font-size="0.5em" text-anchor="start" textLength="17.5" transform="rotate(-60, 68.58823529411764, 426.3360908720915)" style="text-shadow: 0 0 1px #fff;">
0.90
</text>
<rect x="73.94264705882352" y="335.7563734270582" width="17.85" height="7.2" transform="rotate(-60, 79.6470588235294, 342.41637342705815)" fill="#fffa"/>
<text x="74.11764705882352" y="342.41637342705815" fill="#111" font-size="0.5em" text-anchor="start" textLength="17.5" transform="rotate(-60, 79.6470588235294, 342.41637342705815)" style="text-shadow: 0 0 1px #fff;">
2.08
</text>
<rect x="85.00147058823529" y="350.69908638983844" width="17.85" height="7.2" transform="rotate(-60, 90.70588235294116, 357.3590863898384)" fill="#fffa"/>
<text x="85.17647058823529" y="357.3590863898384" fill="#111" font-size="0.5em" text-anchor="start" textLength="17.5" transform="rotate(-60, 90.70588235294116, 357.3590863898384)" style="text-shadow: 0 0 1px #fff;">
1.87
</text>
<rect x="107.11911764705881" y="416.86450377627045" width="17.85" height="7.2" transform="rotate(-60, 112.82352941176468, 423.5245037762704)" fill="#fffa"/>
<text x="107.2941176470588" y="423.5245037762704" fill="#111" font-size="0.5em" text-anchor="start" textLength="17.5" transform="rotate(-60, 112.82352941176468, 423.5245037762704)" style="text-shadow: 0 0 1px #fff;">
0.94
</text>
<rect x="118.17794117647057" y="340.25271582316145" width="17.85" height="7.2" transform="rotate(-60, 123.88235294117645, 346.9127158231615)" fill="#fffa"/>
<text x="118.35294117647057" y="346.9127158231615" fill="#111" font-size="0.5em" text-anchor="start" textLength="17.5" transform="rotate(-60, 123.88235294117645, 346.9127158231615)" style="text-shadow: 0 0 1px #fff;">
2.02
</text>
<rect x="129.23676470588234" y="309.6009879242747" width="17.85" height="7.2" transform="rotate(-60, 134.94117647058823, 316.26098792427473)" fill="#fffa"/>
<text x="129.41176470588235" y="316.26098792427473" fill="#111" font-size="0.5em" text-anchor="start" textLength="17.5" transform="rotate(-60, 134.94117647058823, 316.26098792427473)" style="text-shadow: 0 0 1px #fff;">
2.45
</text>
<rect x="151.35441176470584" y="419.39888160682096" width="17.85" height="7.2" transform="rotate(-60, 157.05882352941174, 426.058881606821)" fill="#fffa"/>
<text x="151.52941176470586" y="426.058881606821" fill="#111" font-size="0.5em" text-anchor="start" textLength="17.5" transform="rotate(-60, 157.05882352941174, 426.058881606821)" style="text-shadow: 0 0 1px #fff;">
0.90
</text>
<rect x="162.4132352941176" y="404.0576909489092" width="17.85" height="7.2" transform="rotate(-60, 168.1176470588235, 410.7176909489092)" fill="#fffa"/>
<text x="162.58823529411762" y="410.7176909489092" fill="#111" font-size="0.5em" text-anchor="start" textLength="17.5" transform="rotate(-60, 168.1176470588235, 410.7176909489092)" style="text-shadow: 0 0 1px #fff;">
1.12
</text>
<rect x="173.47205882352938" y="405.6188141501309" width="17.85" height="7.2" transform="rotate(-60, 179.17647058823528, 412.2788141501309)" fill="#fffa"/>
<text x="173.64705882352936" y="412.2788141501309" fill="#111" font-size="0.5em" text-anchor="start" textLength="17.5" transform="rotate(-60, 179.17647058823528, 412.2788141501309)" style="text-shadow: 0 0 1px #fff;">
1.10
</text>
<rect x="195.5897058823529" y="420.6133509915892" width="17.85" height="7.2" transform="rotate(-60, 201.29411764705878, 427.2733509915892)" fill="#fffa"/>
<text x="195.7647058823529" y="427.2733509915892" fill="#111" font-size="0.5em" text-anchor="start" textLength="17.5" transform="rotate(-60, 201.29411764705878, 427.2733509915892)" style="text-shadow: 0 0 1px #fff;">
0.89
</text>
<rect x="206.64852941176466" y="404.7052326260283" width="17.85" height="7.2" transform="rotate(-60, 212.35294117647055, 411.36523262602833)" fill="#fffa"/>
<text x="206.82352941176467" y="411.36523262602833" fill="#111" font-size="0.5em" text-anchor="start" textLength="17.5" transform="rotate(-60, 212.35294117647055, 411.36523262602833)" style="text-shadow: 0 0 1px #fff;">
1.11
</text>
<rect x="217.7073529411764" y="410.97226409870626" width="17.85" height="7.2" transform="rotate(-60, 223.41176470588232, 417.6322640987063)" fill="#fffa"/>
<text x="217.8823529411764" y="417.6322640987063" fill="#111" font-size="0.5em" text-anchor="start" textLength="17.5" transform="rotate(-60, 223.41176470588232, 417.6322640987063)" style="text-shadow: 0 0 1px #fff;">
1.02
</text>
<rect x="239.82499999999993" y="413.3341255514913" width="17.85" height="7.2" transform="rotate(-60, 245.52941176470583, 419.99412555149127)" fill="#fffa"/>
<text x="239.99999999999994" y="419.99412555149127" fill="#111" font-size="0.5em" text-anchor="start" textLength="17.5" transform="rotate(-60, 245.52941176470583, 419.99412555149127)" style="text-shadow: 0 0 1px #fff;">
0.99
</text>
<rect x="250.8838235294117" y="219.9524989907047" width="17.85" height="7.2" transform="rotate(-60, 256.58823529411757, 226.6124989907047)" fill="#fffa"/>
<text x="251.05882352941165" y="226.6124989907047" fill="#111" font-size="0.5em" text-anchor="start" textLength="17.5" transform="rotate(-60, 256.58823529411757, 226.6124989907047)" style="text-shadow: 0 0 1px #fff;">
3.71
</text>
<rect x="261.94264705882347" y="194.29903643954387" width="17.85" height="7.2" transform="rotate(-60, 267.64705882352933, 200.95903643954387)" fill="#fffa"/>
<text x="262.1176470588235" y="200.95903643954387" fill="#111" font-size="0.5em" text-anchor="start" textLength="17.5" transform="rotate(-60, 267.64705882352933, 200.95903643954387)" style="text-shadow: 0 0 1px #fff;">
4.07
</text>
<rect x="284.06029411764706" y="421.91723483932793" width="17.85" height="7.2" transform="rotate(-60, 289.7647058823529, 428.5772348393279)" fill="#fffa"/>
<text x="284.235294117647" y="428.5772348393279" fill="#111" font-size="0.5em" text-anchor="start" textLength="17.5" transform="rotate(-60, 289.7647058823529, 428.5772348393279)" style="text-shadow: 0 0 1px #fff;">
0.87
</text>
<rect x="295.11911764705883" y="400.53581151893275" width="17.85" height="7.2" transform="rotate(-60, 300.8235294117647, 407.1958115189327)" fill="#fffa"/>
<text x="295.29411764705884" y="407.1958115189327" fill="#111" font-size="0.5em" text-anchor="start" textLength="17.5" transform="rotate(-60, 300.8235294117647, 407.1958115189327)" style="text-shadow: 0 0 1px #fff;">
1.17
</text>
<rect x="306.1779411764706" y="419.0181972947977" width="17.85" height="7.2" transform="rotate(-60, 311.8823529411765, 425.6781972947977)" fill="#fffa"/>
<text x="306.3529411764706" y="425.6781972947977" fill="#111" font-size="0.5em" text-anchor="start" textLength="17.5" transform="rotate(-60, 311.8823529411765, 425.6781972947977)" style="text-shadow: 0 0 1px #fff;">
0.91
</text>
<rect x="328.2955882352942" y="416.5752755489607" width="17.85" height="7.2" transform="rotate(-60, 334.00000000000006, 423.2352755489607)" fill="#fffa"/>
<text x="328.4705882352942" y="423.2352755489607" fill="#111" font-size="0.5em" text-anchor="start" textLength="17.5" transform="rotate(-60, 334.00000000000006, 423.2352755489607)" style="text-shadow: 0 0 1px #fff;">
0.94
</text>
<rect x="339.354411764706" y="396.7226282587796" width="17.85" height="7.2" transform="rotate(-60, 345.0588235294119, 403.3826282587796)" fill="#fffa"/>
<text x="339.52941176470597" y="403.3826282587796" fill="#111" font-size="0.5em" text-anchor="start" textLength="17.5" transform="rotate(-60, 345.0588235294119, 403.3826282587796)" style="text-shadow: 0 0 1px #fff;">
1.22
</text>
<rect x="350.4132352941178" y="400.7653025207215" width="17.85" height="7.2" transform="rotate(-60, 356.11764705882365, 407.42530252072146)" fill="#fffa"/>
<text x="350.58823529411774" y="407.42530252072146" fill="#111" font-size="0.5em" text-anchor="start" textLength="17.5" transform="rotate(-60, 356.11764705882365, 407.42530252072146)" style="text-shadow: 0 0 1px #fff;">
1.17
</text>
<rect x="372.5308823529414" y="420.3307079736269" width="17.85" height="7.2" transform="rotate(-60, 378.23529411764724, 426.99070797362685)" fill="#fffa"/>
<text x="372.70588235294133" y="426.99070797362685" fill="#111" font-size="0.5em" text-anchor="start" textLength="17.5" transform="rotate(-60, 378.23529411764724, 426.99070797362685)" style="text-shadow: 0 0 1px #fff;">
0.89
</text>
<rect x="383.58970588235314" y="405.760428038464" width="17.85" height="7.2" transform="rotate(-60, 389.294117647059, 412.420428038464)" fill="#fffa"/>
<text x="383.7647058823531" y="412.420428038464" fill="#111" font-size="0.5em" text-anchor="start" textLength="17.5" transform="rotate(-60, 389.294117647059, 412.420428038464)" style="text-shadow: 0 0 1px #fff;">
1.10
</text>
<rect x="394.6485294117649" y="420.9401449930977" width="17.85" height="7.2" transform="rotate(-60, 400.3529411764708, 427.60014499309773)" fill="#fffa"/>
<text x="394.8235294117649" y="427.60014499309773" fill="#111" font-size="0.5em" text-anchor="start" textLength="17.5" transform="rotate(-60, 400.3529411764708, 427.60014499309773)" style="text-shadow: 0 0 1px #fff;">
0.88
</text>
<rect x="416.7661764705885" y="420.5748815627286" width="17.85" height="7.2" transform="rotate(-60, 422.4705882352944, 427.2348815627286)" fill="#fffa"/>
<text x="416.94117647058846" y="427.2348815627286" fill="#111" font-size="0.5em" text-anchor="start" textLength="17.5" transform="rotate(-60, 422.4705882352944, 427.2348815627286)" style="text-shadow: 0 0 1px #fff;">
0.89
</text>
<rect x="427.8250000000003" y="382.6406982208237" width="17.85" height="7.2" transform="rotate(-60, 433.52941176470614, 389.30069822082373)" fill="#fffa"/>
<text x="428.0000000000003" y="389.30069822082373" fill="#111" font-size="0.5em" text-anchor="start" textLength="17.5" transform="rotate(-60, 433.52941176470614, 389.30069822082373)" style="text-shadow: 0 0 1px #fff;">
1.42
</text>
<rect x="438.8838235294121" y="386.04243756642023" width="17.85" height="7.2" transform="rotate(-60, 444.58823529411796, 392.7024375664202)" fill="#fffa"/>
<text x="439.05882352941205" y="392.7024375664202" fill="#111" font-size="0.5em" text-anchor="start" textLength="17.5" transform="rotate(-60, 444.58823529411796, 392.7024375664202)" style="text-shadow: 0 0 1px #fff;">
1.37
</text>
<rect x="461.00147058823563" y="420.36478378576953" width="17.85" height="7.2" transform="rotate(-60, 466.7058823529415, 427.0247837857695)" fill="#fffa"/>
<text x="461.17647058823565" y="427.0247837857695" fill="#111" font-size="0.5em" text-anchor="start" textLength="17.5" transform="rotate(-60, 466.7058823529415, 427.0247837857695)" style="text-shadow: 0 0 1px #fff;">
0.89
</text>
<rect x="472.06029411764746" y="370.6965152658489" width="17.85" height="7.2" transform="rotate(-60, 477.7647058823533, 377.3565152658489)" fill="#fffa"/>
<text x="472.2352941176474" y="377.3565152658489" fill="#111" font-size="0.5em" text-anchor="start" textLength="17.5" transform="rotate(-60, 477.7647058823533, 377.3565152658489)" style="text-shadow: 0 0 1px #fff;">
1.59
</text>
<rect x="483.1191176470592" y="361.5255223920511" width="17.85" height="7.2" transform="rotate(-60, 488.8235294117651, 368.18552239205104)" fill="#fffa"/>
<text x="483.2941176470592" y="368.18552239205104" fill="#111" font-size="0.5em" text-anchor="start" textLength="17.5" transform="rotate(-60, 488.8235294117651, 368.18552239205104)" style="text-shadow: 0 0 1px #fff;">
1.72
</text>
<rect x="505.23676470588276" y="416.6937075870625" width="17.85" height="7.2" transform="rotate(-60, 510.9411764705887, 423.3537075870625)" fill="#fffa"/>
<text x="505.4117647058828" y="423.3537075870625" fill="#111" font-size="0.5em" text-anchor="start" textLength="17.5" transform="rotate(-60, 510.9411764705887, 423.3537075870625)" style="text-shadow: 0 0 1px #fff;">
0.94
</text>
<rect x="516.2955882352945" y="348.09420075857184" width="17.85" height="7.2" transform="rotate(-60, 522.0000000000005, 354.7542007585718)" fill="#fffa"/>
<text x="516.4705882352946" y="354.7542007585718" fill="#111" font-size="0.5em" text-anchor="start" textLength="17.5" transform="rotate(-60, 522.0000000000005, 354.7542007585718)" style="text-shadow: 0 0 1px #fff;">
1.91
</text>
<rect x="527.3544117647064" y="332.0466082638934" width="17.85" height="7.2" transform="rotate(-60, 533.0588235294123, 338.70660826389343)" fill="#fffa"/>
<text x="527.5294117647063" y="338.70660826389343" fill="#111" font-size="0.5em" text-anchor="start" textLength="17.5" transform="rotate(-60, 533.0588235294123, 338.70660826389343)" style="text-shadow: 0 0 1px #fff;">
2.13
</text>
<rect x="549.4720588235299" y="409.42063180311317" width="17.85" height="7.2" transform="rotate(-60, 555.1764705882358, 416.0806318031132)" fill="#fffa"/>
<text x="549.64705882353" y="416.0806318031132" fill="#111" font-size="0.5em" text-anchor="start" textLength="17.5" transform="rotate(-60, 555.1764705882358, 416.0806318031132)" style="text-shadow: 0 0 1px #fff;">
1.05
</text>
<rect x="560.5308823529417" y="408.71253920742686" width="17.85" height="7.2" transform="rotate(-60, 566.2352941176476, 415.3725392074269)" fill="#fffa"/>
<text x="560.7058823529417" y="415.3725392074269" fill="#111" font-size="0.5em" text-anchor="start" textLength="17.5" transform="rotate(-60, 566.2352941176476, 415.3725392074269)" style="text-shadow: 0 0 1px #fff;">
1.05
</text>
<rect x="571.5897058823534" y="86.03999999999998" width="17.85" height="7.2" transform="rotate(-60, 577.2941176470594, 92.69999999999999)" fill="#fffa"/>
<text x="571.7647058823535" y="92.69999999999999" fill="#111" font-size="0.5em" text-anchor="start" textLength="17.5" transform="rotate(-60, 577.2941176470594, 92.69999999999999)" style="text-shadow: 0 0 1px #fff;">
5.59
</text>
<rect x="593.7073529411771" y="413.38722179770434" width="17.85" height="7.2" transform="rotate(-60, 599.411764705883, 420.04722179770437)" fill="#fffa"/>
<text x="593.882352941177" y="420.04722179770437" fill="#111" font-size="0.5em" text-anchor="start" textLength="17.5" transform="rotate(-60, 599.411764705883, 420.04722179770437)" style="text-shadow: 0 0 1px #fff;">
0.99
</text>
<rect x="604.7661764705888" y="316.61646665835104" width="17.85" height="7.2" transform="rotate(-60, 610.4705882352947, 323.276466658351)" fill="#fffa"/>
<text x="604.9411764705889" y="323.276466658351" fill="#111" font-size="0.5em" text-anchor="start" textLength="17.5" transform="rotate(-60, 610.4705882352947, 323.276466658351)" style="text-shadow: 0 0 1px #fff;">
2.35
</text>
<rect x="615.8250000000006" y="324.0626464254402" width="17.85" height="7.2" transform="rotate(-60, 621.5294117647065, 330.7226464254402)" fill="#fffa"/>
<text x="616.0000000000007" y="330.7226464254402" fill="#111" font-size="0.5em" text-anchor="start" textLength="17.5" transform="rotate(-60, 621.5294117647065, 330.7226464254402)" style="text-shadow: 0 0 1px #fff;">
2.24
</text>
<rect x="637.9426470588242" y="413.04720390028376" width="17.85" height="7.2" transform="rotate(-60, 643.6470588235301, 419.7072039002838)" fill="#fffa"/>
<text x="638.1176470588242" y="419.7072039002838" fill="#111" font-size="0.5em" text-anchor="start" textLength="17.5" transform="rotate(-60, 643.6470588235301, 419.7072039002838)" style="text-shadow: 0 0 1px #fff;">
0.99
</text>
<rect x="649.001470588236" y="333.02966445036134" width="17.85" height="7.2" transform="rotate(-60, 654.7058823529419, 339.68966445036136)" fill="#fffa"/>
<text x="649.176470588236" y="339.68966445036136" fill="#111" font-size="0.5em" text-anchor="start" textLength="17.5" transform="rotate(-60, 654.7058823529419, 339.68966445036136)" style="text-shadow: 0 0 1px #fff;">
2.12
</text>
<rect x="660.0602941176478" y="255.0165526904654" width="17.85" height="7.2" transform="rotate(-60, 665.7647058823537, 261.67655269046537)" fill="#fffa"/>
<text x="660.2352941176478" y="261.67655269046537" fill="#111" font-size="0.5em" text-anchor="start" textLength="17.5" transform="rotate(-60, 665.7647058823537, 261.67655269046537)" style="text-shadow: 0 0 1px #fff;">
3.21
</text>
<rect x="682.1779411764713" y="415.1946231644632" width="17.85" height="7.2" transform="rotate(-60, 687.8823529411773, 421.85462316446325)" fill="#fffa"/>
<text x="682.3529411764714" y="421.85462316446325" fill="#111" font-size="0.5em" text-anchor="start" textLength="17.5" transform="rotate(-60, 687.8823529411773, 421.85462316446325)" style="text-shadow: 0 0 1px #fff;">
0.96
</text>
<rect x="693.2367647058832" y="378.97323289508813" width="17.85" height="7.2" transform="rotate(-60, 698.9411764705891, 385.63323289508816)" fill="#fffa"/>
<text x="693.4117647058831" y="385.63323289508816" fill="#111" font-size="0.5em" text-anchor="start" textLength="17.5" transform="rotate(-60, 698.9411764705891, 385.63323289508816)" style="text-shadow: 0 0 1px #fff;">
1.47
</text>
<rect x="704.2955882352949" y="366.93991579737246" width="17.85" height="7.2" transform="rotate(-60, 710.0000000000009, 373.5999157973725)" fill="#fffa"/>
<text x="704.4705882352949" y="373.5999157973725" fill="#111" font-size="0.5em" text-anchor="start" textLength="17.5" transform="rotate(-60, 710.0000000000009, 373.5999157973725)" style="text-shadow: 0 0 1px #fff;">
1.64
</text>
<rect x="726.4132352941185" y="415.74393210470515" width="17.85" height="7.2" transform="rotate(-60, 732.1176470588244, 422.4039321047052)" fill="#fffa"/>
<text x="726.5882352941186" y="422.4039321047052" fill="#111" font-size="0.5em" text-anchor="start" textLength="17.5" transform="rotate(-60, 732.1176470588244, 422.4039321047052)" style="text-shadow: 0 0 1px #fff;">
0.96
</text>
<rect x="737.4720588235302" y="380.1080971942213" width="17.85" height="7.2" transform="rotate(-60, 743.1764705882363, 386.7680971942213)" fill="#fffa"/>
<text x="737.6470588235303" y="386.7680971942213" fill="#111" font-size="0.5em" text-anchor="start" textLength="17.5" transform="rotate(-60, 743.1764705882363, 386.7680971942213)" style="text-shadow: 0 0 1px #fff;">
1.46
</text>
<rect x="748.5308823529421" y="385.3028110644662" width="17.85" height="7.2" transform="rotate(-60, 754.235294117648, 391.9628110644662)" fill="#fffa"/>
<text x="748.7058823529421" y="391.9628110644662" fill="#111" font-size="0.5em" text-anchor="start" textLength="17.5" transform="rotate(-60, 754.235294117648, 391.9628110644662)" style="text-shadow: 0 0 1px #fff;">
1.38
</text>
<rect x="770.6485294117656" y="419.21234620348184" width="17.85" height="7.2" transform="rotate(-60, 776.3529411764716, 425.8723462034818)" fill="#fffa"/>
<text x="770.8235294117657" y="425.8723462034818" fill="#111" font-size="0.5em" text-anchor="start" textLength="17.5" transform="rotate(-60, 776.3529411764716, 425.8723462034818)" style="text-shadow: 0 0 1px #fff;">
0.91
</text>
<rect x="781.7073529411774" y="396.98273888869323" width="17.85" height="7.2" transform="rotate(-60, 787.4117647058833, 403.6427388886932)" fill="#fffa"/>
<text x="781.8823529411775" y="403.6427388886932" fill="#111" font-size="0.5em" text-anchor="start" textLength="17.5" transform="rotate(-60, 787.4117647058833, 403.6427388886932)" style="text-shadow: 0 0 1px #fff;">
1.22
</text>
<rect x="792.7661764705892" y="403.2976159639497" width="17.85" height="7.2" transform="rotate(-60, 798.4705882352952, 409.9576159639497)" fill="#fffa"/>
<text x="792.9411764705893" y="409.9576159639497" fill="#111" font-size="0.5em" text-anchor="start" textLength="17.5" transform="rotate(-60, 798.4705882352952, 409.9576159639497)" style="text-shadow: 0 0 1px #fff;">
1.13
</text>
<rect x="814.8838235294128" y="421.0998767816006" width="17.85" height="7.2" transform="rotate(-60, 820.5882352941187, 427.75987678160055)" fill="#fffa"/>
<text x="815.0588235294128" y="427.75987678160055" fill="#111" font-size="0.5em" text-anchor="start" textLength="17.5" transform="rotate(-60, 820.5882352941187, 427.75987678160055)" style="text-shadow: 0 0 1px #fff;">
0.88
</text>
<rect x="825.9426470588246" y="357.068523750095" width="17.85" height="7.2" transform="rotate(-60, 831.6470588235305, 363.728523750095)" fill="#fffa"/>
<text x="826.1176470588247" y="363.728523750095" fill="#111" font-size="0.5em" text-anchor="start" textLength="17.5" transform="rotate(-60, 831.6470588235305, 363.728523750095)" style="text-shadow: 0 0 1px #fff;">
1.78
</text>
<rect x="837.0014705882364" y="370.43747885999727" width="17.85" height="7.2" transform="rotate(-60, 842.7058823529424, 377.0974788599973)" fill="#fffa"/>
<text x="837.1764705882364" y="377.0974788599973" fill="#111" font-size="0.5em" text-anchor="start" textLength="17.5" transform="rotate(-60, 842.7058823529424, 377.0974788599973)" style="text-shadow: 0 0 1px #fff;">
1.59
</text>
<rect x="859.11911764706" y="412.24904105424497" width="17.85" height="7.2" transform="rotate(-60, 864.8235294117659, 418.90904105424494)" fill="#fffa"/>
<text x="859.29411764706" y="418.90904105424494" fill="#111" font-size="0.5em" text-anchor="start" textLength="17.5" transform="rotate(-60, 864.8235294117659, 418.90904105424494)" style="text-shadow: 0 0 1px #fff;">
1.01
</text>
<rect x="870.1779411764718" y="261.32555992393753" width="17.85" height="7.2" transform="rotate(-60, 875.8823529411777, 267.9855599239375)" fill="#fffa"/>
<text x="870.3529411764717" y="267.9855599239375" fill="#111" font-size="0.5em" text-anchor="start" textLength="17.5" transform="rotate(-60, 875.8823529411777, 267.9855599239375)" style="text-shadow: 0 0 1px #fff;">
3.12
</text>
<rect x="881.2367647058835" y="252.09561586072044" width="17.85" height="7.2" transform="rotate(-60, 886.9411764705894, 258.7556158607204)" fill="#fffa"/>
<text x="881.4117647058836" y="258.7556158607204" fill="#111" font-size="0.5em" text-anchor="start" textLength="17.5" transform="rotate(-60, 886.9411764705894, 258.7556158607204)" style="text-shadow: 0 0 1px #fff;">
3.25
</text>
<rect x="903.3544117647072" y="415.1178710860092" width="17.85" height="7.2" transform="rotate(-60, 909.0588235294131, 421.7778710860092)" fill="#fffa"/>
<text x="903.5294117647071" y="421.7778710860092" fill="#111" font-size="0.5em" text-anchor="start" textLength="17.5" transform="rotate(-60, 909.0588235294131, 421.7778710860092)" style="text-shadow: 0 0 1px #fff;">
0.97
</text>
<rect x="914.4132352941189" y="341.31458746512936" width="17.85" height="7.2" transform="rotate(-60, 920.1176470588248, 347.97458746512933)" fill="#fffa"/>
<text x="914.5882352941189" y="347.97458746512933" fill="#111" font-size="0.5em" text-anchor="start" textLength="17.5" transform="rotate(-60, 920.1176470588248, 347.97458746512933)" style="text-shadow: 0 0 1px #fff;">
2.00
</text>
<rect x="925.4720588235307" y="351.1179618683479" width="17.85" height="7.2" transform="rotate(-60, 931.1764705882366, 357.7779618683479)" fill="#fffa"/>
<text x="925.6470588235308" y="357.7779618683479" fill="#111" font-size="0.5em" text-anchor="start" textLength="17.5" transform="rotate(-60, 931.1764705882366, 357.7779618683479)" style="text-shadow: 0 0 1px #fff;">
1.86
</text>
<rect x="947.5897058823542" y="417.1287169993366" width="17.85" height="7.2" transform="rotate(-60, 953.2941176470601, 423.7887169993366)" fill="#fffa"/>
<text x="947.7647058823543" y="423.7887169993366" fill="#111" font-size="0.5em" text-anchor="start" textLength="17.5" transform="rotate(-60, 953.2941176470601, 423.7887169993366)" style="text-shadow: 0 0 1px #fff;">
0.94
</text>
<rect x="958.648529411766" y="367.0069553715101" width="17.85" height="7.2" transform="rotate(-60, 964.352941176472, 373.6669553715101)" fill="#fffa"/>
<text x="958.8235294117661" y="373.6669553715101" fill="#111" font-size="0.5em" text-anchor="start" textLength="17.5" transform="rotate(-60, 964.352941176472, 373.6669553715101)" style="text-shadow: 0 0 1px #fff;">
1.64
</text>
<rect x="969.7073529411779" y="357.29907832456655" width="17.85" height="7.2" transform="rotate(-60, 975.4117647058838, 363.9590783245666)" fill="#fffa"/>
<text x="969.8823529411778" y="363.9590783245666" fill="#111" font-size="0.5em" text-anchor="start" textLength="17.5" transform="rotate(-60, 975.4117647058838, 363.9590783245666)" style="text-shadow: 0 0 1px #fff;">
1.78
</text>
</svg>