<svg viewBox="0 0 1000 600" xmlns="http://www.w3.org/2000/svg" xmlns:xlink="http://www.w3.org/1999/xlink" width="100%" height="100%">

<rect x="50.0" y="30.0" width="940.0" height="467.99999999999994" stroke="#000" fill="#fff"/>
<line x1="42.0" y1="497.9999999999999" x2="50.0" y2="497.9999999999999" stroke="#000"/>
<text x="26.000000000000004" y="497.9999999999999" text-anchor="end" font-weight="bold" font-size="small" fill="#111">
0.0
</text>
<line x1="42.0" y1="406.27079335192235" x2="50.0" y2="406.27079335192235" stroke="#000"/>
<text x="26.000000000000004" y="406.27079335192235" text-anchor="end" font-weight="bold" font-size="small" fill="#111">
0.5
</text>
<line x1="42.0" y1="314.5415867038447" x2="50.0" y2="314.5415867038447" stroke="#000"/>
<text x="26.000000000000004" y="314.5415867038447" text-anchor="end" font-weight="bold" font-size="small" fill="#111">
1.0
</text>
<line x1="42.0" y1="222.8123800557671" x2="50.0" y2="222.8123800557671" stroke="#000"/>
<text x="26.000000000000004" y="222.8123800557671" text-anchor="end" font-weight="bold" font-size="small" fill="#111">
1.5
</text>
<line x1="42.0" y1="131.08317340768951" x2="50.0" y2="131.08317340768951" stroke="#000"/>
<text x="26.000000000000004" y="131.08317340768951" text-anchor="end" font-weight="bold" font-size="small" fill="#111">
2.0
</text>
<line x1="142.75" y1="54.60000000000001" x2="262.75" y2="54.60000000000001" stroke="#648FFF" stroke-width="2"/>
<text x="202.75" y="49.500000000000014" font-size="small" text-anchor="middle" font-weight="bold" fill="#000">
CRuby 3.3.3
</text>
<rect x="354.25" y="35.400000000000006" width="120.0" height="19.2" fill="#785EF0" stroke="none"/>
<text x="414.25" y="49.500000000000014" font-size="small" text-anchor="middle" font-weight="bold" fill="#fff" style="text-shadow: 0 0 1px #000;">
CRuby 3.4.0dev
</text>
<rect x="565.75" y="35.400000000000006" width="120.0" height="19.2" fill="#FFB000" stroke="none"/>
<text x="625.7499999999999" y="49.500000000000014" font-size="small" text-anchor="middle" font-weight="bold" fill="#fff" style="text-shadow: 0 0 1px #000;">
YJIT 3.3.3
</text>
<rect x="777.25" y="35.400000000000006" width="120.0" height="19.2" fill="#DC267F" stroke="none"/>
<text x="837.2499999999999" y="49.500000000000014" font-size="small" text-anchor="middle" font-weight="bold" fill="#fff" style="text-shadow: 0 0 1px #000;">
YJIT 3.4.0dev
</text>
<rect x="65.40983606557377" y="326.5747381699187" width="15.40983606557377" height="171.42526183008127" fill="#785EF0" data-tooltip="0.93x baseline (CRuby 3.4.0dev)"/>
<line x1="65.40983606557377" y1="326.42654542977294" x2="80.81967213114753" y2="326.42654542977294" stroke-dasharray="1,0.5" stroke="#333c"/>
<line x1="65.40983606557377" y1="326.72293091006446" x2="80.81967213114753" y2="326.72293091006446" stroke-dasharray="1,0.5" stroke="#333c"/>
<line x1="73.11475409836066" y1="326.42654542977294" x2="73.11475409836066" y2="326.72293091006446" stroke-dasharray="1,0.5" stroke="#333c"/>
<rect x="80.81967213114753" y="206.0612927153506" width="15.40983606557377" height="291.93870728464935" fill="#FFB000" data-tooltip="1.59x baseline (YJIT 3.3.3)"/>
<line x1="80.81967213114753" y1="205.8130856067882" x2="96.2295081967213" y2="205.8130856067882" stroke-dasharray="1,0.5" stroke="#333c"/>
<line x1="80.81967213114753" y1="206.30949982391297" x2="96.2295081967213" y2="206.30949982391297" stroke-dasharray="1,0.5" stroke="#333c"/>
<line x1="88.52459016393442" y1="205.8130856067882" x2="88.52459016393442" y2="206.30949982391297" stroke-dasharray="1,0.5" stroke="#333c"/>
<rect x="96.2295081967213" y="195.0805115546213" width="15.40983606557377" height="302.9194884453786" fill="#DC267F" data-tooltip="1.65x baseline (YJIT 3.4.0dev)"/>
<line x1="96.2295081967213" y1="194.77880156440048" x2="111.63934426229507" y2="194.77880156440048" stroke-dasharray="1,0.5" stroke="#333c"/>
<line x1="96.2295081967213" y1="195.3822215448421" x2="111.63934426229507" y2="195.3822215448421" stroke-dasharray="1,0.5" stroke="#333c"/>
<line x1="103.93442622950819" y1="194.77880156440048" x2="103.93442622950819" y2="195.3822215448421" stroke-dasharray="1,0.5" stroke="#333c"/>
<line x1="88.5245901639344" y1="498.0" x2="88.5245901639344" y2="502.79999999999995" stroke="#000"/>
<text x="88.5245901639344" y="512.4" fill="#111" font-size="small" text-anchor="end" transform="rotate(-60, 88.5245901639344, 512.4)">
activerecord
</text>
<rect x="127.04918032786883" y="333.3851356414775" width="15.40983606557377" height="164.6148643585224" fill="#785EF0" data-tooltip="0.90x baseline (CRuby 3.4.0dev)"/>
<line x1="127.04918032786883" y1="331.80084764551367" x2="142.4590163934426" y2="331.80084764551367" stroke-dasharray="1,0.5" stroke="#333c"/>
<line x1="127.04918032786883" y1="334.9694236374414" x2="142.4590163934426" y2="334.9694236374414" stroke-dasharray="1,0.5" stroke="#333c"/>
<line x1="134.75409836065572" y1="331.80084764551367" x2="134.75409836065572" y2="334.9694236374414" stroke-dasharray="1,0.5" stroke="#333c"/>
<rect x="142.4590163934426" y="174.72010298006478" width="15.40983606557377" height="323.27989701993516" fill="#FFB000" data-tooltip="1.76x baseline (YJIT 3.3.3)"/>
<line x1="142.4590163934426" y1="172.33130961083768" x2="157.86885245901638" y2="172.33130961083768" stroke-dasharray="1,0.5" stroke="#333c"/>
<line x1="142.4590163934426" y1="177.10889634929188" x2="157.86885245901638" y2="177.10889634929188" stroke-dasharray="1,0.5" stroke="#333c"/>
<line x1="150.1639344262295" y1="172.33130961083768" x2="150.1639344262295" y2="177.10889634929188" stroke-dasharray="1,0.5" stroke="#333c"/>
<rect x="157.86885245901638" y="100.19999999999999" width="15.40983606557377" height="397.79999999999995" fill="#DC267F" data-tooltip="2.17x baseline (YJIT 3.4.0dev)"/>
<line x1="157.86885245901638" y1="97.25958208388317" x2="173.27868852459017" y2="97.25958208388317" stroke-dasharray="1,0.5" stroke="#333c"/>
<line x1="157.86885245901638" y1="103.14041791611682" x2="173.27868852459017" y2="103.14041791611682" stroke-dasharray="1,0.5" stroke="#333c"/>
<line x1="165.5737704918033" y1="97.25958208388317" x2="165.5737704918033" y2="103.14041791611682" stroke-dasharray="1,0.5" stroke="#333c"/>
<line x1="150.1639344262295" y1="498.0" x2="150.1639344262295" y2="502.79999999999995" stroke="#000"/>
<text x="150.1639344262295" y="512.4" fill="#111" font-size="small" text-anchor="end" transform="rotate(-60, 150.1639344262295, 512.4)">
chunky-png
</text>
<rect x="188.68852459016395" y="329.30952808572863" width="15.40983606557377" height="168.69047191427126" fill="#785EF0" data-tooltip="0.92x baseline (CRuby 3.4.0dev)"/>
<line x1="188.68852459016395" y1="329.14424325410135" x2="204.0983606557377" y2="329.14424325410135" stroke-dasharray="1,0.5" stroke="#333c"/>
<line x1="188.68852459016395" y1="329.47481291735596" x2="204.0983606557377" y2="329.47481291735596" stroke-dasharray="1,0.5" stroke="#333c"/>
<line x1="196.39344262295083" y1="329.14424325410135" x2="196.39344262295083" y2="329.47481291735596" stroke-dasharray="1,0.5" stroke="#333c"/>
<rect x="204.0983606557377" y="236.59198541206163" width="15.40983606557377" height="261.4080145879383" fill="#FFB000" data-tooltip="1.42x baseline (YJIT 3.3.3)"/>
<line x1="204.0983606557377" y1="236.28973921883215" x2="219.5081967213115" y2="236.28973921883215" stroke-dasharray="1,0.5" stroke="#333c"/>
<line x1="204.0983606557377" y1="236.89423160529114" x2="219.5081967213115" y2="236.89423160529114" stroke-dasharray="1,0.5" stroke="#333c"/>
<line x1="211.8032786885246" y1="236.28973921883215" x2="211.8032786885246" y2="236.89423160529114" stroke-dasharray="1,0.5" stroke="#333c"/>
<rect x="219.5081967213115" y="237.50642453664864" width="15.40983606557377" height="260.49357546335136" fill="#DC267F" data-tooltip="1.42x baseline (YJIT 3.4.0dev)"/>
<line x1="219.5081967213115" y1="237.28546340632792" x2="234.91803278688528" y2="237.28546340632792" stroke-dasharray="1,0.5" stroke="#333c"/>
<line x1="219.5081967213115" y1="237.72738566696933" x2="234.91803278688528" y2="237.72738566696933" stroke-dasharray="1,0.5" stroke="#333c"/>
<line x1="227.2131147540984" y1="237.28546340632792" x2="227.2131147540984" y2="237.72738566696933" stroke-dasharray="1,0.5" stroke="#333c"/>
<line x1="211.8032786885246" y1="498.0" x2="211.8032786885246" y2="502.79999999999995" stroke="#000"/>
<text x="211.8032786885246" y="512.4" fill="#111" font-size="small" text-anchor="end" transform="rotate(-60, 211.8032786885246, 512.4)">
erubi-rails
</text>
<rect x="250.32786885245906" y="321.35888947482675" width="15.40983606557377" height="176.64111052517316" fill="#785EF0" data-tooltip="0.96x baseline (CRuby 3.4.0dev)"/>
<line x1="250.32786885245906" y1="320.12294291393346" x2="265.7377049180328" y2="320.12294291393346" stroke-dasharray="1,0.5" stroke="#333c"/>
<line x1="250.32786885245906" y1="322.59483603572005" x2="265.7377049180328" y2="322.59483603572005" stroke-dasharray="1,0.5" stroke="#333c"/>
<line x1="258.03278688524597" y1="320.12294291393346" x2="258.03278688524597" y2="322.59483603572005" stroke-dasharray="1,0.5" stroke="#333c"/>
<rect x="265.7377049180328" y="232.4869961055733" width="15.40983606557377" height="265.5130038944266" fill="#FFB000" data-tooltip="1.45x baseline (YJIT 3.3.3)"/>
<line x1="265.7377049180328" y1="230.2135121332853" x2="281.14754098360663" y2="230.2135121332853" stroke-dasharray="1,0.5" stroke="#333c"/>
<line x1="265.7377049180328" y1="234.76048007786133" x2="281.14754098360663" y2="234.76048007786133" stroke-dasharray="1,0.5" stroke="#333c"/>
<line x1="273.4426229508197" y1="230.2135121332853" x2="273.4426229508197" y2="234.76048007786133" stroke-dasharray="1,0.5" stroke="#333c"/>
<rect x="281.14754098360663" y="200.04491611801885" width="15.40983606557377" height="297.95508388198107" fill="#DC267F" data-tooltip="1.62x baseline (YJIT 3.4.0dev)"/>
<line x1="281.14754098360663" y1="194.43703683818717" x2="296.5573770491804" y2="194.43703683818717" stroke-dasharray="1,0.5" stroke="#333c"/>
<line x1="281.14754098360663" y1="205.65279539785053" x2="296.5573770491804" y2="205.65279539785053" stroke-dasharray="1,0.5" stroke="#333c"/>
<line x1="288.8524590163935" y1="194.43703683818717" x2="288.8524590163935" y2="205.65279539785053" stroke-dasharray="1,0.5" stroke="#333c"/>
<line x1="273.4426229508197" y1="498.0" x2="273.4426229508197" y2="502.79999999999995" stroke="#000"/>
<text x="273.4426229508197" y="512.4" fill="#111" font-size="small" text-anchor="end" transform="rotate(-60, 273.4426229508197, 512.4)">
hexapdf
</text>
<rect x="311.96721311475414" y="325.21585562372934" width="15.40983606557377" height="172.78414437627058" fill="#785EF0" data-tooltip="0.94x baseline (CRuby 3.4.0dev)"/>
<line x1="311.96721311475414" y1="324.554466527827" x2="327.37704918032796" y2="324.554466527827" stroke-dasharray="1,0.5" stroke="#333c"/>
<line x1="311.96721311475414" y1="325.8772447196316" x2="327.37704918032796" y2="325.8772447196316" stroke-dasharray="1,0.5" stroke="#333c"/>
<line x1="319.67213114754105" y1="324.554466527827" x2="319.67213114754105" y2="325.8772447196316" stroke-dasharray="1,0.5" stroke="#333c"/>
<rect x="327.37704918032796" y="267.47910102527" width="15.40983606557377" height="230.52089897472996" fill="#FFB000" data-tooltip="1.26x baseline (YJIT 3.3.3)"/>
<line x1="327.37704918032796" y1="266.8853778918255" x2="342.7868852459017" y2="266.8853778918255" stroke-dasharray="1,0.5" stroke="#333c"/>
<line x1="327.37704918032796" y1="268.07282415871447" x2="342.7868852459017" y2="268.07282415871447" stroke-dasharray="1,0.5" stroke="#333c"/>
<line x1="335.08196721311486" y1="266.8853778918255" x2="335.08196721311486" y2="268.07282415871447" stroke-dasharray="1,0.5" stroke="#333c"/>
<rect x="342.7868852459017" y="269.16270334546886" width="15.40983606557377" height="228.83729665453106" fill="#DC267F" data-tooltip="1.25x baseline (YJIT 3.4.0dev)"/>
<line x1="342.7868852459017" y1="268.13572963137705" x2="358.1967213114755" y2="268.13572963137705" stroke-dasharray="1,0.5" stroke="#333c"/>
<line x1="342.7868852459017" y1="270.1896770595607" x2="358.1967213114755" y2="270.1896770595607" stroke-dasharray="1,0.5" stroke="#333c"/>
<line x1="350.4918032786886" y1="268.13572963137705" x2="350.4918032786886" y2="270.1896770595607" stroke-dasharray="1,0.5" stroke="#333c"/>
<line x1="335.08196721311486" y1="498.0" x2="335.08196721311486" y2="502.79999999999995" stroke="#000"/>
<text x="335.08196721311486" y="512.4" fill="#111" font-size="small" text-anchor="end" transform="rotate(-60, 335.08196721311486, 512.4)">
liquid-c
</text>
<rect x="373.6065573770493" y="326.46336445261437" width="15.40983606557377" height="171.53663554738554" fill="#785EF0" data-tooltip="0.94x baseline (CRuby 3.4.0dev)"/>
<line x1="373.6065573770493" y1="326.2153940010248" x2="389.01639344262304" y2="326.2153940010248" stroke-dasharray="1,0.5" stroke="#333c"/>
<line x1="373.6065573770493" y1="326.711334904204" x2="389.01639344262304" y2="326.711334904204" stroke-dasharray="1,0.5" stroke="#333c"/>
<line x1="381.3114754098362" y1="326.2153940010248" x2="381.3114754098362" y2="326.711334904204" stroke-dasharray="1,0.5" stroke="#333c"/>
<rect x="389.01639344262304" y="273.9071847489066" width="15.40983606557377" height="224.09281525109336" fill="#FFB000" data-tooltip="1.22x baseline (YJIT 3.3.3)"/>
<line x1="389.01639344262304" y1="273.3989831856611" x2="404.42622950819685" y2="273.3989831856611" stroke-dasharray="1,0.5" stroke="#333c"/>
<line x1="389.01639344262304" y1="274.41538631215207" x2="404.42622950819685" y2="274.41538631215207" stroke-dasharray="1,0.5" stroke="#333c"/>
<line x1="396.72131147540995" y1="273.3989831856611" x2="396.72131147540995" y2="274.41538631215207" stroke-dasharray="1,0.5" stroke="#333c"/>
<rect x="404.42622950819685" y="282.1908501003602" width="15.40983606557377" height="215.80914989963975" fill="#DC267F" data-tooltip="1.18x baseline (YJIT 3.4.0dev)"/>
<line x1="404.42622950819685" y1="281.31726196155415" x2="419.8360655737706" y2="281.31726196155415" stroke-dasharray="1,0.5" stroke="#333c"/>
<line x1="404.42622950819685" y1="283.06443823916624" x2="419.8360655737706" y2="283.06443823916624" stroke-dasharray="1,0.5" stroke="#333c"/>
<line x1="412.13114754098376" y1="281.31726196155415" x2="412.13114754098376" y2="283.06443823916624" stroke-dasharray="1,0.5" stroke="#333c"/>
<line x1="396.72131147540995" y1="498.0" x2="396.72131147540995" y2="502.79999999999995" stroke="#000"/>
<text x="396.72131147540995" y="512.4" fill="#111" font-size="small" text-anchor="end" transform="rotate(-60, 396.72131147540995, 512.4)">
liquid-compile
</text>
<rect x="435.2459016393444" y="326.68315295296566" width="15.40983606557377" height="171.31684704703426" fill="#785EF0" data-tooltip="0.93x baseline (CRuby 3.4.0dev)"/>
<line x1="435.2459016393444" y1="326.20784955916486" x2="450.6557377049182" y2="326.20784955916486" stroke-dasharray="1,0.5" stroke="#333c"/>
<line x1="435.2459016393444" y1="327.15845634676646" x2="450.6557377049182" y2="327.15845634676646" stroke-dasharray="1,0.5" stroke="#333c"/>
<line x1="442.9508196721313" y1="326.20784955916486" x2="442.9508196721313" y2="327.15845634676646" stroke-dasharray="1,0.5" stroke="#333c"/>
<rect x="450.6557377049182" y="157.34721113520123" width="15.40983606557377" height="340.6527888647987" fill="#FFB000" data-tooltip="1.86x baseline (YJIT 3.3.3)"/>
<line x1="450.6557377049182" y1="156.2117068337819" x2="466.06557377049194" y2="156.2117068337819" stroke-dasharray="1,0.5" stroke="#333c"/>
<line x1="450.6557377049182" y1="158.48271543662057" x2="466.06557377049194" y2="158.48271543662057" stroke-dasharray="1,0.5" stroke="#333c"/>
<line x1="458.3606557377051" y1="156.2117068337819" x2="458.3606557377051" y2="158.48271543662057" stroke-dasharray="1,0.5" stroke="#333c"/>
<rect x="466.06557377049194" y="154.09202381682255" width="15.40983606557377" height="343.9079761831774" fill="#DC267F" data-tooltip="1.87x baseline (YJIT 3.4.0dev)"/>
<line x1="466.06557377049194" y1="152.95581997692545" x2="481.47540983606575" y2="152.95581997692545" stroke-dasharray="1,0.5" stroke="#333c"/>
<line x1="466.06557377049194" y1="155.2282276567196" x2="481.47540983606575" y2="155.2282276567196" stroke-dasharray="1,0.5" stroke="#333c"/>
<line x1="473.77049180327884" y1="152.95581997692545" x2="473.77049180327884" y2="155.2282276567196" stroke-dasharray="1,0.5" stroke="#333c"/>
<line x1="458.3606557377051" y1="498.0" x2="458.3606557377051" y2="502.79999999999995" stroke="#000"/>
<text x="458.3606557377051" y="512.4" fill="#111" font-size="small" text-anchor="end" transform="rotate(-60, 458.3606557377051, 512.4)">
liquid-render
</text>
<rect x="496.8852459016395" y="324.49681699782786" width="15.40983606557377" height="173.50318300217205" fill="#785EF0" data-tooltip="0.95x baseline (CRuby 3.4.0dev)"/>
<line x1="496.8852459016395" y1="323.11513947976255" x2="512.2950819672133" y2="323.11513947976255" stroke-dasharray="1,0.5" stroke="#333c"/>
<line x1="496.8852459016395" y1="325.8784945158932" x2="512.2950819672133" y2="325.8784945158932" stroke-dasharray="1,0.5" stroke="#333c"/>
<line x1="504.59016393442636" y1="323.11513947976255" x2="504.59016393442636" y2="325.8784945158932" stroke-dasharray="1,0.5" stroke="#333c"/>
<rect x="512.2950819672133" y="246.3433585871196" width="15.40983606557377" height="251.65664141288033" fill="#FFB000" data-tooltip="1.37x baseline (YJIT 3.3.3)"/>
<line x1="512.2950819672133" y1="243.47334503180042" x2="527.7049180327871" y2="243.47334503180042" stroke-dasharray="1,0.5" stroke="#333c"/>
<line x1="512.2950819672133" y1="249.21337214243877" x2="527.7049180327871" y2="249.21337214243877" stroke-dasharray="1,0.5" stroke="#333c"/>
<line x1="520.0000000000001" y1="243.47334503180042" x2="520.0000000000001" y2="249.21337214243877" stroke-dasharray="1,0.5" stroke="#333c"/>
<rect x="527.7049180327871" y="247.55216743813548" width="15.40983606557377" height="250.44783256186446" fill="#DC267F" data-tooltip="1.37x baseline (YJIT 3.4.0dev)"/>
<line x1="527.7049180327871" y1="243.94087911298416" x2="543.1147540983609" y2="243.94087911298416" stroke-dasharray="1,0.5" stroke="#333c"/>
<line x1="527.7049180327871" y1="251.1634557632868" x2="543.1147540983609" y2="251.1634557632868" stroke-dasharray="1,0.5" stroke="#333c"/>
<line x1="535.4098360655739" y1="243.94087911298416" x2="535.4098360655739" y2="251.1634557632868" stroke-dasharray="1,0.5" stroke="#333c"/>
<line x1="520.0000000000002" y1="498.0" x2="520.0000000000002" y2="502.79999999999995" stroke="#000"/>
<text x="520.0000000000002" y="512.4" fill="#111" font-size="small" text-anchor="end" transform="rotate(-60, 520.0000000000002, 512.4)">
lobsters
</text>
<rect x="558.5245901639346" y="332.2671060656109" width="15.40983606557377" height="165.732893934389" fill="#785EF0" data-tooltip="0.90x baseline (CRuby 3.4.0dev)"/>
<line x1="558.5245901639346" y1="331.9617790536797" x2="573.9344262295084" y2="331.9617790536797" stroke-dasharray="1,0.5" stroke="#333c"/>
<line x1="558.5245901639346" y1="332.57243307754214" x2="573.9344262295084" y2="332.57243307754214" stroke-dasharray="1,0.5" stroke="#333c"/>
<line x1="566.2295081967214" y1="331.9617790536797" x2="566.2295081967214" y2="332.57243307754214" stroke-dasharray="1,0.5" stroke="#333c"/>
<rect x="573.9344262295084" y="248.05605482806135" width="15.40983606557377" height="249.9439451719386" fill="#FFB000" data-tooltip="1.36x baseline (YJIT 3.3.3)"/>
<line x1="573.9344262295084" y1="247.5307196525489" x2="589.3442622950822" y2="247.5307196525489" stroke-dasharray="1,0.5" stroke="#333c"/>
<line x1="573.9344262295084" y1="248.5813900035738" x2="589.3442622950822" y2="248.5813900035738" stroke-dasharray="1,0.5" stroke="#333c"/>
<line x1="581.6393442622953" y1="247.5307196525489" x2="581.6393442622953" y2="248.5813900035738" stroke-dasharray="1,0.5" stroke="#333c"/>
<rect x="589.3442622950822" y="258.72129180843035" width="15.40983606557377" height="239.2787081915696" fill="#DC267F" data-tooltip="1.30x baseline (YJIT 3.4.0dev)"/>
<line x1="589.3442622950822" y1="258.311120100796" x2="604.7540983606559" y2="258.311120100796" stroke-dasharray="1,0.5" stroke="#333c"/>
<line x1="589.3442622950822" y1="259.1314635160646" x2="604.7540983606559" y2="259.1314635160646" stroke-dasharray="1,0.5" stroke="#333c"/>
<line x1="597.0491803278691" y1="258.311120100796" x2="597.0491803278691" y2="259.1314635160646" stroke-dasharray="1,0.5" stroke="#333c"/>
<line x1="581.6393442622954" y1="498.0" x2="581.6393442622954" y2="502.79999999999995" stroke="#000"/>
<text x="581.6393442622954" y="512.4" fill="#111" font-size="small" text-anchor="end" transform="rotate(-60, 581.6393442622954, 512.4)">
mail
</text>
<rect x="620.1639344262297" y="328.4416963278794" width="15.40983606557377" height="169.5583036721206" fill="#785EF0" data-tooltip="0.92x baseline (CRuby 3.4.0dev)"/>
<line x1="620.1639344262297" y1="328.2807592852164" x2="635.5737704918035" y2="328.2807592852164" stroke-dasharray="1,0.5" stroke="#333c"/>
<line x1="620.1639344262297" y1="328.6026333705425" x2="635.5737704918035" y2="328.6026333705425" stroke-dasharray="1,0.5" stroke="#333c"/>
<line x1="627.8688524590166" y1="328.2807592852164" x2="627.8688524590166" y2="328.6026333705425" stroke-dasharray="1,0.5" stroke="#333c"/>
<rect x="635.5737704918035" y="206.70492703370405" width="15.40983606557377" height="291.29507296629595" fill="#FFB000" data-tooltip="1.59x baseline (YJIT 3.3.3)"/>
<line x1="635.5737704918035" y1="206.51003902740484" x2="650.9836065573774" y2="206.51003902740484" stroke-dasharray="1,0.5" stroke="#333c"/>
<line x1="635.5737704918035" y1="206.89981504000323" x2="650.9836065573774" y2="206.89981504000323" stroke-dasharray="1,0.5" stroke="#333c"/>
<line x1="643.2786885245904" y1="206.51003902740484" x2="643.2786885245904" y2="206.89981504000323" stroke-dasharray="1,0.5" stroke="#333c"/>
<rect x="650.9836065573774" y="192.5448212789497" width="15.40983606557377" height="305.45517872105023" fill="#DC267F" data-tooltip="1.66x baseline (YJIT 3.4.0dev)"/>
<line x1="650.9836065573774" y1="192.35129333665353" x2="666.393442622951" y2="192.35129333665353" stroke-dasharray="1,0.5" stroke="#333c"/>
<line x1="650.9836065573774" y1="192.7383492212459" x2="666.393442622951" y2="192.7383492212459" stroke-dasharray="1,0.5" stroke="#333c"/>
<line x1="658.6885245901641" y1="192.35129333665353" x2="658.6885245901641" y2="192.7383492212459" stroke-dasharray="1,0.5" stroke="#333c"/>
<line x1="643.2786885245905" y1="498.0" x2="643.2786885245905" y2="502.79999999999995" stroke="#000"/>
<text x="643.2786885245905" y="512.4" fill="#111" font-size="small" text-anchor="end" transform="rotate(-60, 643.2786885245905, 512.4)">
psych-load
</text>
<rect x="681.8032786885249" y="323.87264288039285" width="15.40983606557377" height="174.1273571196071" fill="#785EF0" data-tooltip="0.95x baseline (CRuby 3.4.0dev)"/>
<line x1="681.8032786885249" y1="323.7637999563637" x2="697.2131147540987" y2="323.7637999563637" stroke-dasharray="1,0.5" stroke="#333c"/>
<line x1="681.8032786885249" y1="323.981485804422" x2="697.2131147540987" y2="323.981485804422" stroke-dasharray="1,0.5" stroke="#333c"/>
<line x1="689.5081967213117" y1="323.7637999563637" x2="689.5081967213117" y2="323.981485804422" stroke-dasharray="1,0.5" stroke="#333c"/>
<rect x="697.2131147540987" y="216.54508352550755" width="15.40983606557377" height="281.45491647449245" fill="#FFB000" data-tooltip="1.53x baseline (YJIT 3.3.3)"/>
<line x1="697.2131147540987" y1="216.15312773029683" x2="712.6229508196724" y2="216.15312773029683" stroke-dasharray="1,0.5" stroke="#333c"/>
<line x1="697.2131147540987" y1="216.93703932071824" x2="712.6229508196724" y2="216.93703932071824" stroke-dasharray="1,0.5" stroke="#333c"/>
<line x1="704.9180327868854" y1="216.15312773029683" x2="704.9180327868854" y2="216.93703932071824" stroke-dasharray="1,0.5" stroke="#333c"/>
<rect x="712.6229508196724" y="210.78905759852572" width="15.40983606557377" height="287.21094240147426" fill="#DC267F" data-tooltip="1.57x baseline (YJIT 3.4.0dev)"/>
<line x1="712.6229508196724" y1="210.5974319291857" x2="728.0327868852462" y2="210.5974319291857" stroke-dasharray="1,0.5" stroke="#333c"/>
<line x1="712.6229508196724" y1="210.98068326786574" x2="728.0327868852462" y2="210.98068326786574" stroke-dasharray="1,0.5" stroke="#333c"/>
<line x1="720.3278688524592" y1="210.5974319291857" x2="720.3278688524592" y2="210.98068326786574" stroke-dasharray="1,0.5" stroke="#333c"/>
<line x1="704.9180327868855" y1="498.0" x2="704.9180327868855" y2="502.79999999999995" stroke="#000"/>
<text x="704.9180327868855" y="512.4" fill="#111" font-size="small" text-anchor="end" transform="rotate(-60, 704.9180327868855, 512.4)">
railsbench
</text>
<rect x="743.44262295082" y="326.0348376921109" width="15.40983606557377" height="171.96516230788905" fill="#785EF0" data-tooltip="0.94x baseline (CRuby 3.4.0dev)"/>
<line x1="743.44262295082" y1="325.2144905493178" x2="758.8524590163937" y2="325.2144905493178" stroke-dasharray="1,0.5" stroke="#333c"/>
<line x1="743.44262295082" y1="326.855184834904" x2="758.8524590163937" y2="326.855184834904" stroke-dasharray="1,0.5" stroke="#333c"/>
<line x1="751.1475409836069" y1="325.2144905493178" x2="751.1475409836069" y2="326.855184834904" stroke-dasharray="1,0.5" stroke="#333c"/>
<rect x="758.8524590163937" y="244.95363938295327" width="15.40983606557377" height="253.04636061704667" fill="#FFB000" data-tooltip="1.38x baseline (YJIT 3.3.3)"/>
<line x1="758.8524590163937" y1="234.64188544801559" x2="774.2622950819675" y2="234.64188544801559" stroke-dasharray="1,0.5" stroke="#333c"/>
<line x1="758.8524590163937" y1="255.26539331789095" x2="774.2622950819675" y2="255.26539331789095" stroke-dasharray="1,0.5" stroke="#333c"/>
<line x1="766.5573770491806" y1="234.64188544801559" x2="766.5573770491806" y2="255.26539331789095" stroke-dasharray="1,0.5" stroke="#333c"/>
<rect x="774.2622950819675" y="246.52058138611747" width="15.40983606557377" height="251.47941861388244" fill="#DC267F" data-tooltip="1.37x baseline (YJIT 3.4.0dev)"/>
<line x1="774.2622950819675" y1="232.24471274344768" x2="789.6721311475413" y2="232.24471274344768" stroke-dasharray="1,0.5" stroke="#333c"/>
<line x1="774.2622950819675" y1="260.79645002878726" x2="789.6721311475413" y2="260.79645002878726" stroke-dasharray="1,0.5" stroke="#333c"/>
<line x1="781.9672131147544" y1="232.24471274344768" x2="781.9672131147544" y2="260.79645002878726" stroke-dasharray="1,0.5" stroke="#333c"/>
<line x1="766.5573770491807" y1="498.0" x2="766.5573770491807" y2="502.79999999999995" stroke="#000"/>
<text x="766.5573770491807" y="512.4" fill="#111" font-size="small" text-anchor="end" transform="rotate(-60, 766.5573770491807, 512.4)">
rubocop
</text>
<rect x="805.081967213115" y="308.9697584769456" width="15.40983606557377" height="189.0302415230544" fill="#785EF0" data-tooltip="1.03x baseline (CRuby 3.4.0dev)"/>
<line x1="805.081967213115" y1="308.387129168505" x2="820.4918032786888" y2="308.387129168505" stroke-dasharray="1,0.5" stroke="#333c"/>
<line x1="805.081967213115" y1="309.55238778538614" x2="820.4918032786888" y2="309.55238778538614" stroke-dasharray="1,0.5" stroke="#333c"/>
<line x1="812.7868852459019" y1="308.387129168505" x2="812.7868852459019" y2="309.55238778538614" stroke-dasharray="1,0.5" stroke="#333c"/>
<rect x="820.4918032786888" y="255.09112764537025" width="15.40983606557377" height="242.9088723546297" fill="#FFB000" data-tooltip="1.32x baseline (YJIT 3.3.3)"/>
<line x1="820.4918032786888" y1="253.06943649251187" x2="835.9016393442627" y2="253.06943649251187" stroke-dasharray="1,0.5" stroke="#333c"/>
<line x1="820.4918032786888" y1="257.11281879822866" x2="835.9016393442627" y2="257.11281879822866" stroke-dasharray="1,0.5" stroke="#333c"/>
<line x1="828.1967213114757" y1="253.06943649251187" x2="828.1967213114757" y2="257.11281879822866" stroke-dasharray="1,0.5" stroke="#333c"/>
<rect x="835.9016393442627" y="218.3000381907771" width="15.40983606557377" height="279.6999618092228" fill="#DC267F" data-tooltip="1.52x baseline (YJIT 3.4.0dev)"/>
<line x1="835.9016393442627" y1="215.1911204958457" x2="851.3114754098365" y2="215.1911204958457" stroke-dasharray="1,0.5" stroke="#333c"/>
<line x1="835.9016393442627" y1="221.40895588570848" x2="851.3114754098365" y2="221.40895588570848" stroke-dasharray="1,0.5" stroke="#333c"/>
<line x1="843.6065573770495" y1="215.1911204958457" x2="843.6065573770495" y2="221.40895588570848" stroke-dasharray="1,0.5" stroke="#333c"/>
<line x1="828.1967213114758" y1="498.0" x2="828.1967213114758" y2="502.79999999999995" stroke="#000"/>
<text x="828.1967213114758" y="512.4" fill="#111" font-size="small" text-anchor="end" transform="rotate(-60, 828.1967213114758, 512.4)">
ruby-lsp
</text>
<rect x="866.7213114754102" y="327.2531970283758" width="15.40983606557377" height="170.74680297162413" fill="#785EF0" data-tooltip="0.93x baseline (CRuby 3.4.0dev)"/>
<line x1="866.7213114754102" y1="326.36002719791594" x2="882.131147540984" y2="326.36002719791594" stroke-dasharray="1,0.5" stroke="#333c"/>
<line x1="866.7213114754102" y1="328.14636685883556" x2="882.131147540984" y2="328.14636685883556" stroke-dasharray="1,0.5" stroke="#333c"/>
<line x1="874.426229508197" y1="326.36002719791594" x2="874.426229508197" y2="328.14636685883556" stroke-dasharray="1,0.5" stroke="#333c"/>
<rect x="882.131147540984" y="280.48410363480787" width="15.40983606557377" height="217.51589636519208" fill="#FFB000" data-tooltip="1.19x baseline (YJIT 3.3.3)"/>
<line x1="882.131147540984" y1="279.28976668603275" x2="897.5409836065578" y2="279.28976668603275" stroke-dasharray="1,0.5" stroke="#333c"/>
<line x1="882.131147540984" y1="281.67844058358304" x2="897.5409836065578" y2="281.67844058358304" stroke-dasharray="1,0.5" stroke="#333c"/>
<line x1="889.8360655737708" y1="279.28976668603275" x2="889.8360655737708" y2="281.67844058358304" stroke-dasharray="1,0.5" stroke="#333c"/>
<rect x="897.5409836065578" y="290.94334242119135" width="15.40983606557377" height="207.0566575788086" fill="#DC267F" data-tooltip="1.13x baseline (YJIT 3.4.0dev)"/>
<line x1="897.5409836065578" y1="289.9335105324584" x2="912.9508196721315" y2="289.9335105324584" stroke-dasharray="1,0.5" stroke="#333c"/>
<line x1="897.5409836065578" y1="291.9531743099243" x2="912.9508196721315" y2="291.9531743099243" stroke-dasharray="1,0.5" stroke="#333c"/>
<line x1="905.2459016393447" y1="289.9335105324584" x2="905.2459016393447" y2="291.9531743099243" stroke-dasharray="1,0.5" stroke="#333c"/>
<line x1="889.836065573771" y1="498.0" x2="889.836065573771" y2="502.79999999999995" stroke="#000"/>
<text x="889.836065573771" y="512.4" fill="#111" font-size="small" text-anchor="end" transform="rotate(-60, 889.836065573771, 512.4)">
sequel
</text>
<rect x="928.3606557377053" y="325.8240839326612" width="15.40983606557377" height="172.17591606733873" fill="#785EF0" data-tooltip="0.94x baseline (CRuby 3.4.0dev)"/>
<rect x="943.7704918032791" y="234.09560459011357" width="15.40983606557377" height="263.9043954098864" fill="#FFB000" data-tooltip="1.44x baseline (YJIT 3.3.3)"/>
<rect x="959.1803278688528" y="225.95222111907506" width="15.40983606557377" height="272.0477788809249" fill="#DC267F" data-tooltip="1.48x baseline (YJIT 3.4.0dev)"/>
<line x1="951.4754098360661" y1="498.0" x2="951.4754098360661" y2="502.79999999999995" stroke="#000"/>
<text x="951.4754098360661" y="512.4" fill="#111" font-size="small" text-anchor="end" transform="rotate(-60, 951.4754098360661, 512.4)" font-style="italic">
geomean*
</text>
<line x1="50.0" y1="314.5415867038447" x2="990.0" y2="314.5415867038447" stroke="#648FFF" stroke-width="2"/>
<rect x="67.23483606557377" y="312.41473816991873" width="17.85" height="7.2" transform="rotate(-60, 75.11475409836066, 319.0747381699187)" fill="#fffa"/>
<text x="67.40983606557377" y="319.0747381699187" fill="#111" font-size="0.5em" text-anchor="start" textLength="17.5" transform="rotate(-60, 75.11475409836066, 319.0747381699187)" style="text-shadow: 0 0 1px #fff;">
0.93
</text>
<rect x="82.64467213114754" y="191.9012927153506" width="17.85" height="7.2" transform="rotate(-60, 90.52459016393442, 198.5612927153506)" fill="#fffa"/>
<text x="82.81967213114753" y="198.5612927153506" fill="#111" font-size="0.5em" text-anchor="start" textLength="17.5" transform="rotate(-60, 90.52459016393442, 198.5612927153506)" style="text-shadow: 0 0 1px #fff;">
1.59
</text>
<rect x="98.0545081967213" y="180.9205115546213" width="17.85" height="7.2" transform="rotate(-60, 105.93442622950819, 187.5805115546213)" fill="#fffa"/>
<text x="98.2295081967213" y="187.5805115546213" fill="#111" font-size="0.5em" text-anchor="start" textLength="17.5" transform="rotate(-60, 105.93442622950819, 187.5805115546213)" style="text-shadow: 0 0 1px #fff;">
1.65
</text>
<rect x="128.87418032786883" y="319.22513564147755" width="17.85" height="7.2" transform="rotate(-60, 136.75409836065572, 325.8851356414776)" fill="#fffa"/>
<text x="129.04918032786884" y="325.8851356414776" fill="#111" font-size="0.5em" text-anchor="start" textLength="17.5" transform="rotate(-60, 136.75409836065572, 325.8851356414776)" style="text-shadow: 0 0 1px #fff;">
0.90
</text>
<rect x="144.2840163934426" y="160.56010298006478" width="17.85" height="7.2" transform="rotate(-60, 152.1639344262295, 167.22010298006478)" fill="#fffa"/>
<text x="144.4590163934426" y="167.22010298006478" fill="#111" font-size="0.5em" text-anchor="start" textLength="17.5" transform="rotate(-60, 152.1639344262295, 167.22010298006478)" style="text-shadow: 0 0 1px #fff;">
1.76
</text>
<rect x="159.69385245901637" y="86.03999999999998" width="17.85" height="7.2" transform="rotate(-60, 167.5737704918033, 92.69999999999999)" fill="#fffa"/>
<text x="159.86885245901638" y="92.69999999999999" fill="#111" font-size="0.5em" text-anchor="start" textLength="17.5" transform="rotate(-60, 167.5737704918033, 92.69999999999999)" style="text-shadow: 0 0 1px #fff;">
2.17
</text>
<rect x="190.51352459016394" y="315.14952808572866" width="17.85" height="7.2" transform="rotate(-60, 198.39344262295083, 321.8095280857287)" fill="#fffa"/>
<text x="190.68852459016395" y="321.8095280857287" fill="#111" font-size="0.5em" text-anchor="start" textLength="17.5" transform="rotate(-60, 198.39344262295083, 321.8095280857287)" style="text-shadow: 0 0 1px #fff;">
0.92
</text>
<rect x="205.92336065573772" y="222.43198541206164" width="17.85" height="7.2" transform="rotate(-60, 213.8032786885246, 229.09198541206163)" fill="#fffa"/>
<text x="206.09836065573774" y="229.09198541206163" fill="#111" font-size="0.5em" text-anchor="start" textLength="17.5" transform="rotate(-60, 213.8032786885246, 229.09198541206163)" style="text-shadow: 0 0 1px #fff;">
1.42
</text>
<rect x="221.33319672131148" y="223.3464245366486" width="17.85" height="7.2" transform="rotate(-60, 229.2131147540984, 230.00642453664864)" fill="#fffa"/>
<text x="221.5081967213115" y="230.00642453664864" fill="#111" font-size="0.5em" text-anchor="start" textLength="17.5" transform="rotate(-60, 229.2131147540984, 230.00642453664864)" style="text-shadow: 0 0 1px #fff;">
1.42
</text>
<rect x="252.15286885245908" y="307.1988894748268" width="17.85" height="7.2" transform="rotate(-60, 260.03278688524597, 313.8588894748268)" fill="#fffa"/>
<text x="252.32786885245906" y="313.8588894748268" fill="#111" font-size="0.5em" text-anchor="start" textLength="17.5" transform="rotate(-60, 260.03278688524597, 313.8588894748268)" style="text-shadow: 0 0 1px #fff;">
0.96
</text>
<rect x="267.56270491803286" y="218.3269961055733" width="17.85" height="7.2" transform="rotate(-60, 275.4426229508197, 224.9869961055733)" fill="#fffa"/>
<text x="267.7377049180328" y="224.9869961055733" fill="#111" font-size="0.5em" text-anchor="start" textLength="17.5" transform="rotate(-60, 275.4426229508197, 224.9869961055733)" style="text-shadow: 0 0 1px #fff;">
1.45
</text>
<rect x="282.9725409836066" y="185.88491611801885" width="17.85" height="7.2" transform="rotate(-60, 290.8524590163935, 192.54491611801885)" fill="#fffa"/>
<text x="283.14754098360663" y="192.54491611801885" fill="#111" font-size="0.5em" text-anchor="start" textLength="17.5" transform="rotate(-60, 290.8524590163935, 192.54491611801885)" style="text-shadow: 0 0 1px #fff;">
1.62
</text>
<rect x="313.7922131147542" y="311.05585562372937" width="17.85" height="7.2" transform="rotate(-60, 321.67213114754105, 317.71585562372934)" fill="#fffa"/>
<text x="313.96721311475414" y="317.71585562372934" fill="#111" font-size="0.5em" text-anchor="start" textLength="17.5" transform="rotate(-60, 321.67213114754105, 317.71585562372934)" style="text-shadow: 0 0 1px #fff;">
0.94
</text>
<rect x="329.20204918032795" y="253.31910102527" width="17.85" height="7.2" transform="rotate(-60, 337.08196721311486, 259.97910102527)" fill="#fffa"/>
<text x="329.37704918032796" y="259.97910102527" fill="#111" font-size="0.5em" text-anchor="start" textLength="17.5" transform="rotate(-60, 337.08196721311486, 259.97910102527)" style="text-shadow: 0 0 1px #fff;">
1.26
</text>
<rect x="344.61188524590176" y="255.00270334546886" width="17.85" height="7.2" transform="rotate(-60, 352.4918032786886, 261.66270334546886)" fill="#fffa"/>
<text x="344.7868852459017" y="261.66270334546886" fill="#111" font-size="0.5em" text-anchor="start" textLength="17.5" transform="rotate(-60, 352.4918032786886, 261.66270334546886)" style="text-shadow: 0 0 1px #fff;">
1.25
</text>
<rect x="375.43155737704933" y="312.3033644526144" width="17.85" height="7.2" transform="rotate(-60, 383.3114754098362, 318.9633644526144)" fill="#fffa"/>
<text x="375.6065573770493" y="318.9633644526144" fill="#111" font-size="0.5em" text-anchor="start" textLength="17.5" transform="rotate(-60, 383.3114754098362, 318.9633644526144)" style="text-shadow: 0 0 1px #fff;">
0.94
</text>
<rect x="390.8413934426231" y="259.7471847489066" width="17.85" height="7.2" transform="rotate(-60, 398.72131147540995, 266.4071847489066)" fill="#fffa"/>
<text x="391.01639344262304" y="266.4071847489066" fill="#111" font-size="0.5em" text-anchor="start" textLength="17.5" transform="rotate(-60, 398.72131147540995, 266.4071847489066)" style="text-shadow: 0 0 1px #fff;">
1.22
</text>
<rect x="406.25122950819684" y="268.03085010036017" width="17.85" height="7.2" transform="rotate(-60, 414.13114754098376, 274.6908501003602)" fill="#fffa"/>
<text x="406.42622950819685" y="274.6908501003602" fill="#111" font-size="0.5em" text-anchor="start" textLength="17.5" transform="rotate(-60, 414.13114754098376, 274.6908501003602)" style="text-shadow: 0 0 1px #fff;">
1.18
</text>
<rect x="437.0709016393444" y="312.5231529529657" width="17.85" height="7.2" transform="rotate(-60, 444.9508196721313, 319.18315295296566)" fill="#fffa"/>
<text x="437.2459016393444" y="319.18315295296566" fill="#111" font-size="0.5em" text-anchor="start" textLength="17.5" transform="rotate(-60, 444.9508196721313, 319.18315295296566)" style="text-shadow: 0 0 1px #fff;">
0.93
</text>
<rect x="452.4807377049182" y="143.1872111352012" width="17.85" height="7.2" transform="rotate(-60, 460.3606557377051, 149.8472111352012)" fill="#fffa"/>
<text x="452.6557377049182" y="149.8472111352012" fill="#111" font-size="0.5em" text-anchor="start" textLength="17.5" transform="rotate(-60, 460.3606557377051, 149.8472111352012)" style="text-shadow: 0 0 1px #fff;">
1.86
</text>
<rect x="467.890573770492" y="139.93202381682255" width="17.85" height="7.2" transform="rotate(-60, 475.77049180327884, 146.59202381682255)" fill="#fffa"/>
<text x="468.06557377049194" y="146.59202381682255" fill="#111" font-size="0.5em" text-anchor="start" textLength="17.5" transform="rotate(-60, 475.77049180327884, 146.59202381682255)" style="text-shadow: 0 0 1px #fff;">
1.87
</text>
<rect x="498.71024590163955" y="310.3368169978279" width="17.85" height="7.2" transform="rotate(-60, 506.59016393442636, 316.99681699782786)" fill="#fffa"/>
<text x="498.8852459016395" y="316.99681699782786" fill="#111" font-size="0.5em" text-anchor="start" textLength="17.5" transform="rotate(-60, 506.59016393442636, 316.99681699782786)" style="text-shadow: 0 0 1px #fff;">
0.95
</text>
<rect x="514.1200819672133" y="232.18335858711959" width="17.85" height="7.2" transform="rotate(-60, 522.0000000000001, 238.84335858711958)" fill="#fffa"/>
<text x="514.2950819672133" y="238.84335858711958" fill="#111" font-size="0.5em" text-anchor="start" textLength="17.5" transform="rotate(-60, 522.0000000000001, 238.84335858711958)" style="text-shadow: 0 0 1px #fff;">
1.37
</text>
<rect x="529.529918032787" y="233.3921674381355" width="17.85" height="7.2" transform="rotate(-60, 537.4098360655739, 240.05216743813548)" fill="#fffa"/>
<text x="529.7049180327871" y="240.05216743813548" fill="#111" font-size="0.5em" text-anchor="start" textLength="17.5" transform="rotate(-60, 537.4098360655739, 240.05216743813548)" style="text-shadow: 0 0 1px #fff;">
1.37
</text>
<rect x="560.3495901639346" y="318.10710606561094" width="17.85" height="7.2" transform="rotate(-60, 568.2295081967214, 324.76710606561096)" fill="#fffa"/>
<text x="560.5245901639346" y="324.76710606561096" fill="#111" font-size="0.5em" text-anchor="start" textLength="17.5" transform="rotate(-60, 568.2295081967214, 324.76710606561096)" style="text-shadow: 0 0 1px #fff;">
0.90
</text>
<rect x="575.7594262295083" y="233.89605482806135" width="17.85" height="7.2" transform="rotate(-60, 583.6393442622953, 240.55605482806135)" fill="#fffa"/>
<text x="575.9344262295084" y="240.55605482806135" fill="#111" font-size="0.5em" text-anchor="start" textLength="17.5" transform="rotate(-60, 583.6393442622953, 240.55605482806135)" style="text-shadow: 0 0 1px #fff;">
1.36
</text>
<rect x="591.1692622950821" y="244.56129180843033" width="17.85" height="7.2" transform="rotate(-60, 599.0491803278691, 251.22129180843032)" fill="#fffa"/>
<text x="591.3442622950822" y="251.22129180843032" fill="#111" font-size="0.5em" text-anchor="start" textLength="17.5" transform="rotate(-60, 599.0491803278691, 251.22129180843032)" style="text-shadow: 0 0 1px #fff;">
1.30
</text>
<rect x="621.9889344262297" y="314.28169632787944" width="17.85" height="7.2" transform="rotate(-60, 629.8688524590166, 320.94169632787947)" fill="#fffa"/>
<text x="622.1639344262297" y="320.94169632787947" fill="#111" font-size="0.5em" text-anchor="start" textLength="17.5" transform="rotate(-60, 629.8688524590166, 320.94169632787947)" style="text-shadow: 0 0 1px #fff;">
0.92
</text>
<rect x="637.3987704918035" y="192.54492703370403" width="17.85" height="7.2" transform="rotate(-60, 645.2786885245904, 199.20492703370402)" fill="#fffa"/>
<text x="637.5737704918035" y="199.20492703370402" fill="#111" font-size="0.5em" text-anchor="start" textLength="17.5" transform="rotate(-60, 645.2786885245904, 199.20492703370402)" style="text-shadow: 0 0 1px #fff;">
1.59
</text>
<rect x="652.8086065573773" y="178.38482127894972" width="17.85" height="7.2" transform="rotate(-60, 660.6885245901641, 185.0448212789497)" fill="#fffa"/>
<text x="652.9836065573774" y="185.0448212789497" fill="#111" font-size="0.5em" text-anchor="start" textLength="17.5" transform="rotate(-60, 660.6885245901641, 185.0448212789497)" style="text-shadow: 0 0 1px #fff;">
1.66
</text>
<rect x="683.6282786885248" y="309.7126428803929" width="17.85" height="7.2" transform="rotate(-60, 691.5081967213117, 316.37264288039285)" fill="#fffa"/>
<text x="683.8032786885249" y="316.37264288039285" fill="#111" font-size="0.5em" text-anchor="start" textLength="17.5" transform="rotate(-60, 691.5081967213117, 316.37264288039285)" style="text-shadow: 0 0 1px #fff;">
0.95
</text>
<rect x="699.0381147540986" y="202.38508352550753" width="17.85" height="7.2" transform="rotate(-60, 706.9180327868854, 209.04508352550752)" fill="#fffa"/>
<text x="699.2131147540987" y="209.04508352550752" fill="#111" font-size="0.5em" text-anchor="start" textLength="17.5" transform="rotate(-60, 706.9180327868854, 209.04508352550752)" style="text-shadow: 0 0 1px #fff;">
1.53
</text>
<rect x="714.4479508196724" y="196.6290575985257" width="17.85" height="7.2" transform="rotate(-60, 722.3278688524592, 203.28905759852572)" fill="#fffa"/>
<text x="714.6229508196724" y="203.28905759852572" fill="#111" font-size="0.5em" text-anchor="start" textLength="17.5" transform="rotate(-60, 722.3278688524592, 203.28905759852572)" style="text-shadow: 0 0 1px #fff;">
1.57
</text>
<rect x="745.2676229508199" y="311.87483769211093" width="17.85" height="7.2" transform="rotate(-60, 753.1475409836069, 318.53483769211095)" fill="#fffa"/>
<text x="745.44262295082" y="318.53483769211095" fill="#111" font-size="0.5em" text-anchor="start" textLength="17.5" transform="rotate(-60, 753.1475409836069, 318.53483769211095)" style="text-shadow: 0 0 1px #fff;">
0.94
</text>
<rect x="760.6774590163938" y="230.79363938295327" width="17.85" height="7.2" transform="rotate(-60, 768.5573770491806, 237.45363938295327)" fill="#fffa"/>
<text x="760.8524590163937" y="237.45363938295327" fill="#111" font-size="0.5em" text-anchor="start" textLength="17.5" transform="rotate(-60, 768.5573770491806, 237.45363938295327)" style="text-shadow: 0 0 1px #fff;">
1.38
</text>
<rect x="776.0872950819675" y="232.36058138611747" width="17.85" height="7.2" transform="rotate(-60, 783.9672131147544, 239.02058138611747)" fill="#fffa"/>
<text x="776.2622950819675" y="239.02058138611747" fill="#111" font-size="0.5em" text-anchor="start" textLength="17.5" transform="rotate(-60, 783.9672131147544, 239.02058138611747)" style="text-shadow: 0 0 1px #fff;">
1.37
</text>
<rect x="806.9069672131151" y="294.8097584769456" width="17.85" height="7.2" transform="rotate(-60, 814.7868852459019, 301.46975847694563)" fill="#fffa"/>
<text x="807.0819672131151" y="301.46975847694563" fill="#111" font-size="0.5em" text-anchor="start" textLength="17.5" transform="rotate(-60, 814.7868852459019, 301.46975847694563)" style="text-shadow: 0 0 1px #fff;">
1.03
</text>
<rect x="822.3168032786888" y="240.93112764537025" width="17.85" height="7.2" transform="rotate(-60, 830.1967213114757, 247.59112764537025)" fill="#fffa"/>
<text x="822.4918032786888" y="247.59112764537025" fill="#111" font-size="0.5em" text-anchor="start" textLength="17.5" transform="rotate(-60, 830.1967213114757, 247.59112764537025)" style="text-shadow: 0 0 1px #fff;">
1.32
</text>
<rect x="837.7266393442626" y="204.14003819077706" width="17.85" height="7.2" transform="rotate(-60, 845.6065573770495, 210.80003819077706)" fill="#fffa"/>
<text x="837.9016393442627" y="210.80003819077706" fill="#111" font-size="0.5em" text-anchor="start" textLength="17.5" transform="rotate(-60, 845.6065573770495, 210.80003819077706)" style="text-shadow: 0 0 1px #fff;">
1.52
</text>
<rect x="868.5463114754102" y="313.0931970283758" width="17.85" height="7.2" transform="rotate(-60, 876.426229508197, 319.7531970283758)" fill="#fffa"/>
<text x="868.7213114754102" y="319.7531970283758" fill="#111" font-size="0.5em" text-anchor="start" textLength="17.5" transform="rotate(-60, 876.426229508197, 319.7531970283758)" style="text-shadow: 0 0 1px #fff;">
0.93
</text>
<rect x="883.9561475409839" y="266.3241036348079" width="17.85" height="7.2" transform="rotate(-60, 891.8360655737708, 272.98410363480787)" fill="#fffa"/>
<text x="884.131147540984" y="272.98410363480787" fill="#111" font-size="0.5em" text-anchor="start" textLength="17.5" transform="rotate(-60, 891.8360655737708, 272.98410363480787)" style="text-shadow: 0 0 1px #fff;">
1.19
</text>
<rect x="899.3659836065577" y="276.7833424211913" width="17.85" height="7.2" transform="rotate(-60, 907.2459016393447, 283.44334242119135)" fill="#fffa"/>
<text x="899.5409836065578" y="283.44334242119135" fill="#111" font-size="0.5em" text-anchor="start" textLength="17.5" transform="rotate(-60, 907.2459016393447, 283.44334242119135)" style="text-shadow: 0 0 1px #fff;">
1.13
</text>
<rect x="930.1856557377052" y="311.66408393266124" width="17.85" height="7.2" transform="rotate(-60, 938.0655737704922, 318.3240839326612)" fill="#fffa"/>
<text x="930.3606557377053" y="318.3240839326612" fill="#111" font-size="0.5em" text-anchor="start" textLength="17.5" transform="rotate(-60, 938.0655737704922, 318.3240839326612)" style="text-shadow: 0 0 1px #fff;">
0.94
</text>
<rect x="945.5954918032791" y="219.93560459011357" width="17.85" height="7.2" transform="rotate(-60, 953.475409836066, 226.59560459011357)" fill="#fffa"/>
<text x="945.7704918032791" y="226.59560459011357" fill="#111" font-size="0.5em" text-anchor="start" textLength="17.5" transform="rotate(-60, 953.475409836066, 226.59560459011357)" style="text-shadow: 0 0 1px #fff;">
1.44
</text>
<rect x="961.0053278688529" y="211.79222111907507" width="17.85" height="7.2" transform="rotate(-60, 968.8852459016397, 218.45222111907506)" fill="#fffa"/>
<text x="961.1803278688528" y="218.45222111907506" fill="#111" font-size="0.5em" text-anchor="start" textLength="17.5" transform="rotate(-60, 968.8852459016397, 218.45222111907506)" style="text-shadow: 0 0 1px #fff;">
1.48
</text>
</svg>