<svg viewBox="0 0 1000 600" xmlns="http://www.w3.org/2000/svg" xmlns:xlink="http://www.w3.org/1999/xlink" width="100%" height="100%">

<rect x="50.0" y="30.0" width="940.0" height="467.99999999999994" stroke="#000" fill="#fff"/>
<line x1="42.0" y1="497.9999999999999" x2="50.0" y2="497.9999999999999" stroke="#000"/>
<text x="26.000000000000004" y="497.9999999999999" text-anchor="end" font-weight="bold" font-size="small" fill="#111">
0.0
</text>
<line x1="42.0" y1="456.42108751373115" x2="50.0" y2="456.42108751373115" stroke="#000"/>
<text x="26.000000000000004" y="456.42108751373115" text-anchor="end" font-weight="bold" font-size="small" fill="#111">
0.2
</text>
<line x1="42.0" y1="414.8421750274624" x2="50.0" y2="414.8421750274624" stroke="#000"/>
<text x="26.000000000000004" y="414.8421750274624" text-anchor="end" font-weight="bold" font-size="small" fill="#111">
0.4
</text>
<line x1="42.0" y1="373.2632625411937" x2="50.0" y2="373.2632625411937" stroke="#000"/>
<text x="26.000000000000004" y="373.2632625411937" text-anchor="end" font-weight="bold" font-size="small" fill="#111">
0.6
</text>
<line x1="42.0" y1="331.6843500549249" x2="50.0" y2="331.6843500549249" stroke="#000"/>
<text x="26.000000000000004" y="331.6843500549249" text-anchor="end" font-weight="bold" font-size="small" fill="#111">
0.8
</text>
<line x1="42.0" y1="290.10543756865616" x2="50.0" y2="290.10543756865616" stroke="#000"/>
<text x="26.000000000000004" y="290.10543756865616" text-anchor="end" font-weight="bold" font-size="small" fill="#111">
1.0
</text>
<line x1="42.0" y1="248.5265250823874" x2="50.0" y2="248.5265250823874" stroke="#000"/>
<text x="26.000000000000004" y="248.5265250823874" text-anchor="end" font-weight="bold" font-size="small" fill="#111">
1.2
</text>
<line x1="42.0" y1="206.9476125961186" x2="50.0" y2="206.9476125961186" stroke="#000"/>
<text x="26.000000000000004" y="206.9476125961186" text-anchor="end" font-weight="bold" font-size="small" fill="#111">
1.4
</text>
<line x1="42.0" y1="165.3687001098499" x2="50.0" y2="165.3687001098499" stroke="#000"/>
<text x="26.000000000000004" y="165.3687001098499" text-anchor="end" font-weight="bold" font-size="small" fill="#111">
1.6
</text>
<line x1="42.0" y1="123.7897876235811" x2="50.0" y2="123.7897876235811" stroke="#000"/>
<text x="26.000000000000004" y="123.7897876235811" text-anchor="end" font-weight="bold" font-size="small" fill="#111">
1.8
</text>
<line x1="248.5" y1="54.60000000000001" x2="368.5" y2="54.60000000000001" stroke="#648FFF" stroke-width="2"/>
<text x="308.5" y="49.500000000000014" font-size="small" text-anchor="middle" font-weight="bold" fill="#000">
CRuby 3.3.0dev
</text>
<rect x="671.5" y="35.400000000000006" width="120.0" height="19.2" fill="#785EF0" stroke="none"/>
<text x="731.4999999999999" y="49.500000000000014" font-size="small" text-anchor="middle" font-weight="bold" fill="#fff" style="text-shadow: 0 0 1px #000;">
YJIT 3.3.0dev
</text>
<rect x="61.60493827160494" y="259.5713526987757" width="11.604938271604937" height="238.42864730122426" fill="#785EF0" data-tooltip="1.15x baseline (YJIT 3.3.0dev)"/>
<line x1="67.4074074074074" y1="498.0" x2="67.4074074074074" y2="502.79999999999995" stroke="#000"/>
<text x="67.4074074074074" y="512.4" fill="#111" font-size="small" text-anchor="end" transform="rotate(-60, 67.4074074074074, 512.4)">
activerecord
</text>
<rect x="84.81481481481481" y="342.414493820837" width="11.604938271604937" height="155.58550617916296" fill="#785EF0" data-tooltip="0.75x baseline (YJIT 3.3.0dev)"/>
<line x1="90.61728395061729" y1="498.0" x2="90.61728395061729" y2="502.79999999999995" stroke="#000"/>
<text x="90.61728395061729" y="512.4" fill="#111" font-size="small" text-anchor="end" transform="rotate(-60, 90.61728395061729, 512.4)">
chunky-png
</text>
<rect x="108.0246913580247" y="263.7772547778597" width="11.604938271604937" height="234.22274522214025" fill="#785EF0" data-tooltip="1.13x baseline (YJIT 3.3.0dev)"/>
<line x1="113.82716049382717" y1="498.0" x2="113.82716049382717" y2="502.79999999999995" stroke="#000"/>
<text x="113.82716049382717" y="512.4" fill="#111" font-size="small" text-anchor="end" transform="rotate(-60, 113.82716049382717, 512.4)">
erubi-rails
</text>
<rect x="131.23456790123458" y="100.19999999999999" width="11.604938271604937" height="397.79999999999995" fill="#785EF0" data-tooltip="1.91x baseline (YJIT 3.3.0dev)"/>
<line x1="137.03703703703707" y1="498.0" x2="137.03703703703707" y2="502.79999999999995" stroke="#000"/>
<text x="137.03703703703707" y="512.4" fill="#111" font-size="small" text-anchor="end" transform="rotate(-60, 137.03703703703707, 512.4)">
hexapdf
</text>
<rect x="154.44444444444446" y="257.6200928930219" width="11.604938271604937" height="240.37990710697807" fill="#785EF0" data-tooltip="1.16x baseline (YJIT 3.3.0dev)"/>
<line x1="160.24691358024694" y1="498.0" x2="160.24691358024694" y2="502.79999999999995" stroke="#000"/>
<text x="160.24691358024694" y="512.4" fill="#111" font-size="small" text-anchor="end" transform="rotate(-60, 160.24691358024694, 512.4)">
liquid-c
</text>
<rect x="177.65432098765436" y="263.09147021715245" width="11.604938271604937" height="234.9085297828475" fill="#785EF0" data-tooltip="1.13x baseline (YJIT 3.3.0dev)"/>
<line x1="183.45679012345684" y1="498.0" x2="183.45679012345684" y2="502.79999999999995" stroke="#000"/>
<text x="183.45679012345684" y="512.4" fill="#111" font-size="small" text-anchor="end" transform="rotate(-60, 183.45679012345684, 512.4)">
liquid-compile
</text>
<rect x="200.86419753086423" y="252.60155532159786" width="11.604938271604937" height="245.3984446784021" fill="#785EF0" data-tooltip="1.18x baseline (YJIT 3.3.0dev)"/>
<line x1="206.6666666666667" y1="498.0" x2="206.6666666666667" y2="502.79999999999995" stroke="#000"/>
<text x="206.6666666666667" y="512.4" fill="#111" font-size="small" text-anchor="end" transform="rotate(-60, 206.6666666666667, 512.4)">
liquid-render
</text>
<rect x="224.07407407407413" y="255.45535104783647" width="11.604938271604937" height="242.54464895216347" fill="#785EF0" data-tooltip="1.17x baseline (YJIT 3.3.0dev)"/>
<line x1="229.87654320987662" y1="498.0" x2="229.87654320987662" y2="502.79999999999995" stroke="#000"/>
<text x="229.87654320987662" y="512.4" fill="#111" font-size="small" text-anchor="end" transform="rotate(-60, 229.87654320987662, 512.4)">
lobsters
</text>
<rect x="247.283950617284" y="261.2354080047415" width="11.604938271604937" height="236.76459199525848" fill="#785EF0" data-tooltip="1.14x baseline (YJIT 3.3.0dev)"/>
<line x1="253.0864197530865" y1="498.0" x2="253.0864197530865" y2="502.79999999999995" stroke="#000"/>
<text x="253.0864197530865" y="512.4" fill="#111" font-size="small" text-anchor="end" transform="rotate(-60, 253.0864197530865, 512.4)">
mail
</text>
<rect x="270.4938271604939" y="270.04629009284497" width="11.604938271604937" height="227.953709907155" fill="#785EF0" data-tooltip="1.10x baseline (YJIT 3.3.0dev)"/>
<line x1="276.2962962962963" y1="498.0" x2="276.2962962962963" y2="502.79999999999995" stroke="#000"/>
<text x="276.2962962962963" y="512.4" fill="#111" font-size="small" text-anchor="end" transform="rotate(-60, 276.2962962962963, 512.4)">
psych-load
</text>
<rect x="293.7037037037037" y="244.30079670385672" width="11.604938271604937" height="253.69920329614322" fill="#785EF0" data-tooltip="1.22x baseline (YJIT 3.3.0dev)"/>
<line x1="299.5061728395061" y1="498.0" x2="299.5061728395061" y2="502.79999999999995" stroke="#000"/>
<text x="299.5061728395061" y="512.4" fill="#111" font-size="small" text-anchor="end" transform="rotate(-60, 299.5061728395061, 512.4)">
railsbench
</text>
<rect x="316.9135802469135" y="175.83895848199367" width="11.604938271604937" height="322.16104151800624" fill="#785EF0" data-tooltip="1.55x baseline (YJIT 3.3.0dev)"/>
<line x1="322.716049382716" y1="498.0" x2="322.716049382716" y2="502.79999999999995" stroke="#000"/>
<text x="322.716049382716" y="512.4" fill="#111" font-size="small" text-anchor="end" transform="rotate(-60, 322.716049382716, 512.4)">
ruby-lsp
</text>
<rect x="340.1234567901233" y="259.28353595349984" width="11.604938271604937" height="238.7164640465001" fill="#785EF0" data-tooltip="1.15x baseline (YJIT 3.3.0dev)"/>
<line x1="345.9259259259258" y1="498.0" x2="345.9259259259258" y2="502.79999999999995" stroke="#000"/>
<text x="345.9259259259258" y="512.4" fill="#111" font-size="small" text-anchor="end" transform="rotate(-60, 345.9259259259258, 512.4)">
sequel
</text>
<rect x="363.3333333333332" y="286.91559438258486" width="11.604938271604937" height="211.0844056174151" fill="#785EF0" data-tooltip="1.02x baseline (YJIT 3.3.0dev)"/>
<line x1="369.1358024691356" y1="498.0" x2="369.1358024691356" y2="502.79999999999995" stroke="#000"/>
<text x="369.1358024691356" y="512.4" fill="#111" font-size="small" text-anchor="end" transform="rotate(-60, 369.1358024691356, 512.4)">
binarytrees
</text>
<rect x="386.543209876543" y="270.07713375454176" width="11.604938271604937" height="227.92286624545815" fill="#785EF0" data-tooltip="1.10x baseline (YJIT 3.3.0dev)"/>
<line x1="392.34567901234544" y1="498.0" x2="392.34567901234544" y2="502.79999999999995" stroke="#000"/>
<text x="392.34567901234544" y="512.4" fill="#111" font-size="small" text-anchor="end" transform="rotate(-60, 392.34567901234544, 512.4)">
erubi
</text>
<rect x="409.75308641975283" y="279.7052356566089" width="11.604938271604937" height="218.29476434339105" fill="#785EF0" data-tooltip="1.05x baseline (YJIT 3.3.0dev)"/>
<line x1="415.5555555555553" y1="498.0" x2="415.5555555555553" y2="502.79999999999995" stroke="#000"/>
<text x="415.5555555555553" y="512.4" fill="#111" font-size="small" text-anchor="end" transform="rotate(-60, 415.5555555555553, 512.4)">
etanni
</text>
<rect x="432.96296296296265" y="286.28532471933744" width="11.604938271604937" height="211.7146752806625" fill="#785EF0" data-tooltip="1.02x baseline (YJIT 3.3.0dev)"/>
<line x1="438.76543209876513" y1="498.0" x2="438.76543209876513" y2="502.79999999999995" stroke="#000"/>
<text x="438.76543209876513" y="512.4" fill="#111" font-size="small" text-anchor="end" transform="rotate(-60, 438.76543209876513, 512.4)">
fannkuchredux
</text>
<rect x="456.17283950617247" y="277.9915645255577" width="11.604938271604937" height="220.00843547444225" fill="#785EF0" data-tooltip="1.06x baseline (YJIT 3.3.0dev)"/>
<line x1="461.97530864197495" y1="498.0" x2="461.97530864197495" y2="502.79999999999995" stroke="#000"/>
<text x="461.97530864197495" y="512.4" fill="#111" font-size="small" text-anchor="end" transform="rotate(-60, 461.97530864197495, 512.4)">
fluentd
</text>
<rect x="479.38271604938234" y="263.29182170930267" width="11.604938271604937" height="234.70817829069725" fill="#785EF0" data-tooltip="1.13x baseline (YJIT 3.3.0dev)"/>
<line x1="485.18518518518476" y1="498.0" x2="485.18518518518476" y2="502.79999999999995" stroke="#000"/>
<text x="485.18518518518476" y="512.4" fill="#111" font-size="small" text-anchor="end" transform="rotate(-60, 485.18518518518476, 512.4)">
graphql
</text>
<rect x="502.59259259259215" y="270.73654863779905" width="11.604938271604937" height="227.26345136220093" fill="#785EF0" data-tooltip="1.09x baseline (YJIT 3.3.0dev)"/>
<line x1="508.3950617283945" y1="498.0" x2="508.3950617283945" y2="502.79999999999995" stroke="#000"/>
<text x="508.3950617283945" y="512.4" fill="#111" font-size="small" text-anchor="end" transform="rotate(-60, 508.3950617283945, 512.4)">
graphql-native
</text>
<rect x="525.802469135802" y="265.2733261048731" width="11.604938271604937" height="232.72667389512682" fill="#785EF0" data-tooltip="1.12x baseline (YJIT 3.3.0dev)"/>
<line x1="531.6049382716044" y1="498.0" x2="531.6049382716044" y2="502.79999999999995" stroke="#000"/>
<text x="531.6049382716044" y="512.4" fill="#111" font-size="small" text-anchor="end" transform="rotate(-60, 531.6049382716044, 512.4)">
lee
</text>
<rect x="549.0123456790118" y="285.0910315647711" width="11.604938271604937" height="212.9089684352289" fill="#785EF0" data-tooltip="1.02x baseline (YJIT 3.3.0dev)"/>
<line x1="554.8148148148142" y1="498.0" x2="554.8148148148142" y2="502.79999999999995" stroke="#000"/>
<text x="554.8148148148142" y="512.4" fill="#111" font-size="small" text-anchor="end" transform="rotate(-60, 554.8148148148142, 512.4)">
nbody
</text>
<rect x="572.2222222222216" y="274.93303243715377" width="11.604938271604937" height="223.0669675628462" fill="#785EF0" data-tooltip="1.07x baseline (YJIT 3.3.0dev)"/>
<line x1="578.024691358024" y1="498.0" x2="578.024691358024" y2="502.79999999999995" stroke="#000"/>
<text x="578.024691358024" y="512.4" fill="#111" font-size="small" text-anchor="end" transform="rotate(-60, 578.024691358024, 512.4)">
optcarrot
</text>
<rect x="595.4320987654314" y="270.58253435547476" width="11.604938271604937" height="227.41746564452515" fill="#785EF0" data-tooltip="1.09x baseline (YJIT 3.3.0dev)"/>
<line x1="601.2345679012338" y1="498.0" x2="601.2345679012338" y2="502.79999999999995" stroke="#000"/>
<text x="601.2345679012338" y="512.4" fill="#111" font-size="small" text-anchor="end" transform="rotate(-60, 601.2345679012338, 512.4)">
rack
</text>
<rect x="618.6419753086412" y="282.49721936439835" width="11.604938271604937" height="215.5027806356016" fill="#785EF0" data-tooltip="1.04x baseline (YJIT 3.3.0dev)"/>
<line x1="624.4444444444437" y1="498.0" x2="624.4444444444437" y2="502.79999999999995" stroke="#000"/>
<text x="624.4444444444437" y="512.4" fill="#111" font-size="small" text-anchor="end" transform="rotate(-60, 624.4444444444437, 512.4)">
ruby-json
</text>
<rect x="641.8518518518512" y="267.8915302035201" width="11.604938271604937" height="230.10846979647985" fill="#785EF0" data-tooltip="1.11x baseline (YJIT 3.3.0dev)"/>
<line x1="647.6543209876535" y1="498.0" x2="647.6543209876535" y2="502.79999999999995" stroke="#000"/>
<text x="647.6543209876535" y="512.4" fill="#111" font-size="small" text-anchor="end" transform="rotate(-60, 647.6543209876535, 512.4)">
rubykon
</text>
<rect x="665.061728395061" y="266.71883788721425" width="11.604938271604937" height="231.28116211278567" fill="#785EF0" data-tooltip="1.11x baseline (YJIT 3.3.0dev)"/>
<line x1="670.8641975308633" y1="498.0" x2="670.8641975308633" y2="502.79999999999995" stroke="#000"/>
<text x="670.8641975308633" y="512.4" fill="#111" font-size="small" text-anchor="end" transform="rotate(-60, 670.8641975308633, 512.4)">
tinygql
</text>
<rect x="688.2716049382708" y="161.50399350054926" width="11.604938271604937" height="336.49600649945074" fill="#785EF0" data-tooltip="1.62x baseline (YJIT 3.3.0dev)"/>
<line x1="694.0740740740732" y1="498.0" x2="694.0740740740732" y2="502.79999999999995" stroke="#000"/>
<text x="694.0740740740732" y="512.4" fill="#111" font-size="small" text-anchor="end" transform="rotate(-60, 694.0740740740732, 512.4)">
30k_ifelse
</text>
<rect x="711.4814814814806" y="248.34258081443622" width="11.604938271604937" height="249.65741918556373" fill="#785EF0" data-tooltip="1.20x baseline (YJIT 3.3.0dev)"/>
<line x1="717.283950617283" y1="498.0" x2="717.283950617283" y2="502.79999999999995" stroke="#000"/>
<text x="717.283950617283" y="512.4" fill="#111" font-size="small" text-anchor="end" transform="rotate(-60, 717.283950617283, 512.4)">
30k_methods
</text>
<rect x="734.6913580246904" y="285.03984730855757" width="11.604938271604937" height="212.96015269144237" fill="#785EF0" data-tooltip="1.02x baseline (YJIT 3.3.0dev)"/>
<line x1="740.4938271604929" y1="498.0" x2="740.4938271604929" y2="502.79999999999995" stroke="#000"/>
<text x="740.4938271604929" y="512.4" fill="#111" font-size="small" text-anchor="end" transform="rotate(-60, 740.4938271604929, 512.4)">
cfunc_itself
</text>
<rect x="757.9012345679002" y="285.5038730880152" width="11.604938271604937" height="212.4961269119847" fill="#785EF0" data-tooltip="1.02x baseline (YJIT 3.3.0dev)"/>
<line x1="763.7037037037027" y1="498.0" x2="763.7037037037027" y2="502.79999999999995" stroke="#000"/>
<text x="763.7037037037027" y="512.4" fill="#111" font-size="small" text-anchor="end" transform="rotate(-60, 763.7037037037027, 512.4)">
fib
</text>
<rect x="781.1111111111101" y="285.6676226070675" width="11.604938271604937" height="212.33237739293241" fill="#785EF0" data-tooltip="1.02x baseline (YJIT 3.3.0dev)"/>
<line x1="786.9135802469125" y1="498.0" x2="786.9135802469125" y2="502.79999999999995" stroke="#000"/>
<text x="786.9135802469125" y="512.4" fill="#111" font-size="small" text-anchor="end" transform="rotate(-60, 786.9135802469125, 512.4)">
getivar
</text>
<rect x="804.3209876543199" y="285.57554614558956" width="11.604938271604937" height="212.4244538544104" fill="#785EF0" data-tooltip="1.02x baseline (YJIT 3.3.0dev)"/>
<line x1="810.1234567901223" y1="498.0" x2="810.1234567901223" y2="502.79999999999995" stroke="#000"/>
<text x="810.1234567901223" y="512.4" fill="#111" font-size="small" text-anchor="end" transform="rotate(-60, 810.1234567901223, 512.4)">
keyword_args
</text>
<rect x="827.5308641975297" y="285.2468088877393" width="11.604938271604937" height="212.75319111226065" fill="#785EF0" data-tooltip="1.02x baseline (YJIT 3.3.0dev)"/>
<line x1="833.3333333333321" y1="498.0" x2="833.3333333333321" y2="502.79999999999995" stroke="#000"/>
<text x="833.3333333333321" y="512.4" fill="#111" font-size="small" text-anchor="end" transform="rotate(-60, 833.3333333333321, 512.4)">
respond_to
</text>
<rect x="850.7407407407396" y="285.5963869211147" width="11.604938271604937" height="212.40361307888526" fill="#785EF0" data-tooltip="1.02x baseline (YJIT 3.3.0dev)"/>
<line x1="856.5432098765419" y1="498.0" x2="856.5432098765419" y2="502.79999999999995" stroke="#000"/>
<text x="856.5432098765419" y="512.4" fill="#111" font-size="small" text-anchor="end" transform="rotate(-60, 856.5432098765419, 512.4)">
setivar
</text>
<rect x="873.9506172839494" y="285.43364964885063" width="11.604938271604937" height="212.5663503511493" fill="#785EF0" data-tooltip="1.02x baseline (YJIT 3.3.0dev)"/>
<line x1="879.7530864197518" y1="498.0" x2="879.7530864197518" y2="502.79999999999995" stroke="#000"/>
<text x="879.7530864197518" y="512.4" fill="#111" font-size="small" text-anchor="end" transform="rotate(-60, 879.7530864197518, 512.4)">
setivar_object
</text>
<rect x="897.1604938271593" y="285.5038730880152" width="11.604938271604937" height="212.4961269119847" fill="#785EF0" data-tooltip="1.02x baseline (YJIT 3.3.0dev)"/>
<line x1="902.9629629629617" y1="498.0" x2="902.9629629629617" y2="502.79999999999995" stroke="#000"/>
<text x="902.9629629629617" y="512.4" fill="#111" font-size="small" text-anchor="end" transform="rotate(-60, 902.9629629629617, 512.4)">
setivar_young
</text>
<rect x="920.3703703703691" y="285.3255130999285" width="11.604938271604937" height="212.67448690007146" fill="#785EF0" data-tooltip="1.02x baseline (YJIT 3.3.0dev)"/>
<line x1="926.1728395061715" y1="498.0" x2="926.1728395061715" y2="502.79999999999995" stroke="#000"/>
<text x="926.1728395061715" y="512.4" fill="#111" font-size="small" text-anchor="end" transform="rotate(-60, 926.1728395061715, 512.4)">
str_concat
</text>
<rect x="943.5802469135789" y="285.25160201041035" width="11.604938271604937" height="212.7483979895896" fill="#785EF0" data-tooltip="1.02x baseline (YJIT 3.3.0dev)"/>
<line x1="949.3827160493813" y1="498.0" x2="949.3827160493813" y2="502.79999999999995" stroke="#000"/>
<text x="949.3827160493813" y="512.4" fill="#111" font-size="small" text-anchor="end" transform="rotate(-60, 949.3827160493813, 512.4)">
throw
</text>
<rect x="966.7901234567887" y="267.2361956567499" width="11.604938271604937" height="230.76380434325006" fill="#785EF0" data-tooltip="1.11x baseline (YJIT 3.3.0dev)"/>
<line x1="972.5925925925911" y1="498.0" x2="972.5925925925911" y2="502.79999999999995" stroke="#000"/>
<text x="972.5925925925911" y="512.4" fill="#111" font-size="small" text-anchor="end" transform="rotate(-60, 972.5925925925911, 512.4)" font-style="italic">
geomean*
</text>
<line x1="50.0" y1="290.10543756865616" x2="990.0" y2="290.10543756865616" stroke="#648FFF" stroke-width="2"/>
</svg>