<svg viewBox="0 0 1000 600" xmlns="http://www.w3.org/2000/svg" xmlns:xlink="http://www.w3.org/1999/xlink" width="100%" height="100%">

<rect x="50.0" y="30.0" width="940.0" height="467.99999999999994" stroke="#000" fill="#fff"/>
<line x1="42.0" y1="497.9999999999999" x2="50.0" y2="497.9999999999999" stroke="#000"/>
<text x="26.000000000000004" y="497.9999999999999" text-anchor="end" font-weight="bold" font-size="small" fill="#111">
0.0
</text>
<line x1="42.0" y1="400.4253110934604" x2="50.0" y2="400.4253110934604" stroke="#000"/>
<text x="26.000000000000004" y="400.4253110934604" text-anchor="end" font-weight="bold" font-size="small" fill="#111">
0.5
</text>
<line x1="42.0" y1="302.8506221869208" x2="50.0" y2="302.8506221869208" stroke="#000"/>
<text x="26.000000000000004" y="302.8506221869208" text-anchor="end" font-weight="bold" font-size="small" fill="#111">
1.0
</text>
<line x1="42.0" y1="205.2759332803812" x2="50.0" y2="205.2759332803812" stroke="#000"/>
<text x="26.000000000000004" y="205.2759332803812" text-anchor="end" font-weight="bold" font-size="small" fill="#111">
1.5
</text>
<line x1="42.0" y1="107.7012443738416" x2="50.0" y2="107.7012443738416" stroke="#000"/>
<text x="26.000000000000004" y="107.7012443738416" text-anchor="end" font-weight="bold" font-size="small" fill="#111">
2.0
</text>
<line x1="142.75" y1="54.60000000000001" x2="262.75" y2="54.60000000000001" stroke="#648FFF" stroke-width="2"/>
<text x="202.75" y="49.500000000000014" font-size="small" text-anchor="middle" font-weight="bold" fill="#000">
CRuby 3.3.3
</text>
<rect x="354.25" y="35.400000000000006" width="120.0" height="19.2" fill="#785EF0" stroke="none"/>
<text x="414.25" y="49.500000000000014" font-size="small" text-anchor="middle" font-weight="bold" fill="#fff" style="text-shadow: 0 0 1px #000;">
CRuby 3.4.0dev
</text>
<rect x="565.75" y="35.400000000000006" width="120.0" height="19.2" fill="#FFB000" stroke="none"/>
<text x="625.7499999999999" y="49.500000000000014" font-size="small" text-anchor="middle" font-weight="bold" fill="#fff" style="text-shadow: 0 0 1px #000;">
YJIT 3.3.3
</text>
<rect x="777.25" y="35.400000000000006" width="120.0" height="19.2" fill="#DC267F" stroke="none"/>
<text x="837.2499999999999" y="49.500000000000014" font-size="small" text-anchor="middle" font-weight="bold" fill="#fff" style="text-shadow: 0 0 1px #000;">
YJIT 3.4.0dev
</text>
<rect x="65.40983606557377" y="291.0970640241422" width="15.40983606557377" height="206.90293597585776" fill="#785EF0" data-tooltip="1.06x baseline (CRuby 3.4.0dev)"/>
<rect x="80.81967213114753" y="241.23577441184042" width="15.40983606557377" height="256.7642255881595" fill="#FFB000" data-tooltip="1.32x baseline (YJIT 3.3.3)"/>
<rect x="96.2295081967213" y="268.29541314029524" width="15.40983606557377" height="229.7045868597047" fill="#DC267F" data-tooltip="1.18x baseline (YJIT 3.4.0dev)"/>
<line x1="88.5245901639344" y1="498.0" x2="88.5245901639344" y2="502.79999999999995" stroke="#000"/>
<text x="88.5245901639344" y="512.4" fill="#111" font-size="small" text-anchor="end" transform="rotate(-60, 88.5245901639344, 512.4)">
activerecord
</text>
<rect x="127.04918032786883" y="303.24883017711073" width="15.40983606557377" height="194.75116982288924" fill="#785EF0" data-tooltip="1.00x baseline (CRuby 3.4.0dev)"/>
<rect x="142.4590163934426" y="256.83700235497395" width="15.40983606557377" height="241.162997645026" fill="#FFB000" data-tooltip="1.24x baseline (YJIT 3.3.3)"/>
<rect x="157.86885245901638" y="280.6470939063305" width="15.40983606557377" height="217.35290609366945" fill="#DC267F" data-tooltip="1.11x baseline (YJIT 3.4.0dev)"/>
<line x1="150.1639344262295" y1="498.0" x2="150.1639344262295" y2="502.79999999999995" stroke="#000"/>
<text x="150.1639344262295" y="512.4" fill="#111" font-size="small" text-anchor="end" transform="rotate(-60, 150.1639344262295, 512.4)">
chunky-png
</text>
<rect x="188.68852459016395" y="290.41691892470413" width="15.40983606557377" height="207.58308107529578" fill="#785EF0" data-tooltip="1.06x baseline (CRuby 3.4.0dev)"/>
<rect x="204.0983606557377" y="293.20830717173163" width="15.40983606557377" height="204.79169282826828" fill="#FFB000" data-tooltip="1.05x baseline (YJIT 3.3.3)"/>
<rect x="219.5081967213115" y="281.52529056602634" width="15.40983606557377" height="216.4747094339736" fill="#DC267F" data-tooltip="1.11x baseline (YJIT 3.4.0dev)"/>
<line x1="211.8032786885246" y1="498.0" x2="211.8032786885246" y2="502.79999999999995" stroke="#000"/>
<text x="211.8032786885246" y="512.4" fill="#111" font-size="small" text-anchor="end" transform="rotate(-60, 211.8032786885246, 512.4)">
erubi-rails
</text>
<rect x="250.32786885245906" y="299.47447709822603" width="15.40983606557377" height="198.5255229017739" fill="#785EF0" data-tooltip="1.02x baseline (CRuby 3.4.0dev)"/>
<rect x="265.7377049180328" y="100.19999999999999" width="15.40983606557377" height="397.79999999999995" fill="#FFB000" data-tooltip="2.04x baseline (YJIT 3.3.3)"/>
<rect x="281.14754098360663" y="127.47246491924803" width="15.40983606557377" height="370.52753508075193" fill="#DC267F" data-tooltip="1.90x baseline (YJIT 3.4.0dev)"/>
<line x1="273.4426229508197" y1="498.0" x2="273.4426229508197" y2="502.79999999999995" stroke="#000"/>
<text x="273.4426229508197" y="512.4" fill="#111" font-size="small" text-anchor="end" transform="rotate(-60, 273.4426229508197, 512.4)">
hexapdf
</text>
<rect x="311.96721311475414" y="293.1739716471005" width="15.40983606557377" height="204.82602835289947" fill="#785EF0" data-tooltip="1.05x baseline (CRuby 3.4.0dev)"/>
<rect x="327.37704918032796" y="275.6094500659123" width="15.40983606557377" height="222.39054993408766" fill="#FFB000" data-tooltip="1.14x baseline (YJIT 3.3.3)"/>
<rect x="342.7868852459017" y="271.5146536236721" width="15.40983606557377" height="226.48534637632787" fill="#DC267F" data-tooltip="1.16x baseline (YJIT 3.4.0dev)"/>
<line x1="335.08196721311486" y1="498.0" x2="335.08196721311486" y2="502.79999999999995" stroke="#000"/>
<text x="335.08196721311486" y="512.4" fill="#111" font-size="small" text-anchor="end" transform="rotate(-60, 335.08196721311486, 512.4)">
liquid-c
</text>
<rect x="373.6065573770493" y="296.5127392591903" width="15.40983606557377" height="201.4872607408096" fill="#785EF0" data-tooltip="1.03x baseline (CRuby 3.4.0dev)"/>
<rect x="389.01639344262304" y="285.62571388159074" width="15.40983606557377" height="212.37428611840923" fill="#FFB000" data-tooltip="1.09x baseline (YJIT 3.3.3)"/>
<rect x="404.42622950819685" y="280.2815756637832" width="15.40983606557377" height="217.71842433621674" fill="#DC267F" data-tooltip="1.12x baseline (YJIT 3.4.0dev)"/>
<line x1="396.72131147540995" y1="498.0" x2="396.72131147540995" y2="502.79999999999995" stroke="#000"/>
<text x="396.72131147540995" y="512.4" fill="#111" font-size="small" text-anchor="end" transform="rotate(-60, 396.72131147540995, 512.4)">
liquid-compile
</text>
<rect x="435.2459016393444" y="287.02951151571267" width="15.40983606557377" height="210.97048848428727" fill="#785EF0" data-tooltip="1.08x baseline (CRuby 3.4.0dev)"/>
<rect x="450.6557377049182" y="270.0463983658283" width="15.40983606557377" height="227.95360163417163" fill="#FFB000" data-tooltip="1.17x baseline (YJIT 3.3.3)"/>
<rect x="466.06557377049194" y="259.14145202748153" width="15.40983606557377" height="238.85854797251838" fill="#DC267F" data-tooltip="1.22x baseline (YJIT 3.4.0dev)"/>
<line x1="458.3606557377051" y1="498.0" x2="458.3606557377051" y2="502.79999999999995" stroke="#000"/>
<text x="458.3606557377051" y="512.4" fill="#111" font-size="small" text-anchor="end" transform="rotate(-60, 458.3606557377051, 512.4)">
liquid-render
</text>
<rect x="496.8852459016395" y="294.92623276523307" width="15.40983606557377" height="203.07376723476685" fill="#785EF0" data-tooltip="1.04x baseline (CRuby 3.4.0dev)"/>
<rect x="512.2950819672133" y="264.15431600808114" width="15.40983606557377" height="233.8456839919188" fill="#FFB000" data-tooltip="1.20x baseline (YJIT 3.3.3)"/>
<rect x="527.7049180327871" y="273.7098653605863" width="15.40983606557377" height="224.29013463941362" fill="#DC267F" data-tooltip="1.15x baseline (YJIT 3.4.0dev)"/>
<line x1="520.0000000000002" y1="498.0" x2="520.0000000000002" y2="502.79999999999995" stroke="#000"/>
<text x="520.0000000000002" y="512.4" fill="#111" font-size="small" text-anchor="end" transform="rotate(-60, 520.0000000000002, 512.4)">
lobsters
</text>
<rect x="558.5245901639346" y="235.88394890882392" width="15.40983606557377" height="262.116051091176" fill="#785EF0" data-tooltip="1.34x baseline (CRuby 3.4.0dev)"/>
<rect x="573.9344262295084" y="283.5278690741974" width="15.40983606557377" height="214.47213092580256" fill="#FFB000" data-tooltip="1.10x baseline (YJIT 3.3.3)"/>
<rect x="589.3442622950822" y="223.38449643266748" width="15.40983606557377" height="274.61550356733244" fill="#DC267F" data-tooltip="1.41x baseline (YJIT 3.4.0dev)"/>
<line x1="581.6393442622954" y1="498.0" x2="581.6393442622954" y2="502.79999999999995" stroke="#000"/>
<text x="581.6393442622954" y="512.4" fill="#111" font-size="small" text-anchor="end" transform="rotate(-60, 581.6393442622954, 512.4)">
mail
</text>
<rect x="620.1639344262297" y="289.117379554051" width="15.40983606557377" height="208.88262044594893" fill="#785EF0" data-tooltip="1.07x baseline (CRuby 3.4.0dev)"/>
<rect x="635.5737704918035" y="291.7038069165749" width="15.40983606557377" height="206.2961930834251" fill="#FFB000" data-tooltip="1.06x baseline (YJIT 3.3.3)"/>
<rect x="650.9836065573774" y="277.1923472011758" width="15.40983606557377" height="220.80765279882414" fill="#DC267F" data-tooltip="1.13x baseline (YJIT 3.4.0dev)"/>
<line x1="643.2786885245905" y1="498.0" x2="643.2786885245905" y2="502.79999999999995" stroke="#000"/>
<text x="643.2786885245905" y="512.4" fill="#111" font-size="small" text-anchor="end" transform="rotate(-60, 643.2786885245905, 512.4)">
psych-load
</text>
<rect x="681.8032786885249" y="288.14109510483047" width="15.40983606557377" height="209.85890489516945" fill="#785EF0" data-tooltip="1.08x baseline (CRuby 3.4.0dev)"/>
<rect x="697.2131147540987" y="279.1482081774237" width="15.40983606557377" height="218.85179182257622" fill="#FFB000" data-tooltip="1.12x baseline (YJIT 3.3.3)"/>
<rect x="712.6229508196724" y="275.12566373437613" width="15.40983606557377" height="222.8743362656238" fill="#DC267F" data-tooltip="1.14x baseline (YJIT 3.4.0dev)"/>
<line x1="704.9180327868855" y1="498.0" x2="704.9180327868855" y2="502.79999999999995" stroke="#000"/>
<text x="704.9180327868855" y="512.4" fill="#111" font-size="small" text-anchor="end" transform="rotate(-60, 704.9180327868855, 512.4)">
railsbench
</text>
<rect x="743.44262295082" y="292.162578678115" width="15.40983606557377" height="205.83742132188496" fill="#785EF0" data-tooltip="1.05x baseline (CRuby 3.4.0dev)"/>
<rect x="758.8524590163937" y="229.79986872866857" width="15.40983606557377" height="268.2001312713314" fill="#FFB000" data-tooltip="1.37x baseline (YJIT 3.3.3)"/>
<rect x="774.2622950819675" y="224.45154075206227" width="15.40983606557377" height="273.54845924793767" fill="#DC267F" data-tooltip="1.40x baseline (YJIT 3.4.0dev)"/>
<line x1="766.5573770491807" y1="498.0" x2="766.5573770491807" y2="502.79999999999995" stroke="#000"/>
<text x="766.5573770491807" y="512.4" fill="#111" font-size="small" text-anchor="end" transform="rotate(-60, 766.5573770491807, 512.4)">
rubocop
</text>
<rect x="805.081967213115" y="299.96488080370307" width="15.40983606557377" height="198.03511919629688" fill="#785EF0" data-tooltip="1.01x baseline (CRuby 3.4.0dev)"/>
<rect x="820.4918032786888" y="311.13261061491716" width="15.40983606557377" height="186.8673893850828" fill="#FFB000" data-tooltip="0.96x baseline (YJIT 3.3.3)"/>
<rect x="835.9016393442627" y="281.25669982395726" width="15.40983606557377" height="216.74330017604268" fill="#DC267F" data-tooltip="1.11x baseline (YJIT 3.4.0dev)"/>
<line x1="828.1967213114758" y1="498.0" x2="828.1967213114758" y2="502.79999999999995" stroke="#000"/>
<text x="828.1967213114758" y="512.4" fill="#111" font-size="small" text-anchor="end" transform="rotate(-60, 828.1967213114758, 512.4)">
ruby-lsp
</text>
<rect x="866.7213114754102" y="289.13300901847003" width="15.40983606557377" height="208.8669909815299" fill="#785EF0" data-tooltip="1.07x baseline (CRuby 3.4.0dev)"/>
<rect x="882.131147540984" y="284.66253686982316" width="15.40983606557377" height="213.33746313017681" fill="#FFB000" data-tooltip="1.09x baseline (YJIT 3.3.3)"/>
<rect x="897.5409836065578" y="277.82414340043175" width="15.40983606557377" height="220.17585659956816" fill="#DC267F" data-tooltip="1.13x baseline (YJIT 3.4.0dev)"/>
<line x1="889.836065573771" y1="498.0" x2="889.836065573771" y2="502.79999999999995" stroke="#000"/>
<text x="889.836065573771" y="512.4" fill="#111" font-size="small" text-anchor="end" transform="rotate(-60, 889.836065573771, 512.4)">
sequel
</text>
<rect x="928.3606557377053" y="289.81736611102986" width="15.40983606557377" height="208.1826338889701" fill="#785EF0" data-tooltip="1.07x baseline (CRuby 3.4.0dev)"/>
<rect x="943.7704918032791" y="265.9215200352" width="15.40983606557377" height="232.07847996479995" fill="#FFB000" data-tooltip="1.19x baseline (YJIT 3.3.3)"/>
<rect x="959.1803278688528" y="260.04225180885953" width="15.40983606557377" height="237.95774819114038" fill="#DC267F" data-tooltip="1.22x baseline (YJIT 3.4.0dev)"/>
<line x1="951.4754098360661" y1="498.0" x2="951.4754098360661" y2="502.79999999999995" stroke="#000"/>
<text x="951.4754098360661" y="512.4" fill="#111" font-size="small" text-anchor="end" transform="rotate(-60, 951.4754098360661, 512.4)" font-style="italic">
geomean*
</text>
<line x1="50.0" y1="302.8506221869208" x2="990.0" y2="302.8506221869208" stroke="#648FFF" stroke-width="2"/>
<rect x="67.23483606557377" y="276.93706402414216" width="17.85" height="7.2" transform="rotate(-60, 75.11475409836066, 283.5970640241422)" fill="#fffa"/>
<text x="67.40983606557377" y="283.5970640241422" fill="#111" font-size="0.5em" text-anchor="start" textLength="17.5" transform="rotate(-60, 75.11475409836066, 283.5970640241422)" style="text-shadow: 0 0 1px #fff;">
1.06
</text>
<rect x="82.64467213114754" y="227.07577441184043" width="17.85" height="7.2" transform="rotate(-60, 90.52459016393442, 233.73577441184042)" fill="#fffa"/>
<text x="82.81967213114753" y="233.73577441184042" fill="#111" font-size="0.5em" text-anchor="start" textLength="17.5" transform="rotate(-60, 90.52459016393442, 233.73577441184042)" style="text-shadow: 0 0 1px #fff;">
1.32
</text>
<rect x="98.0545081967213" y="254.13541314029524" width="17.85" height="7.2" transform="rotate(-60, 105.93442622950819, 260.79541314029524)" fill="#fffa"/>
<text x="98.2295081967213" y="260.79541314029524" fill="#111" font-size="0.5em" text-anchor="start" textLength="17.5" transform="rotate(-60, 105.93442622950819, 260.79541314029524)" style="text-shadow: 0 0 1px #fff;">
1.18
</text>
<rect x="128.87418032786883" y="289.08883017711076" width="17.85" height="7.2" transform="rotate(-60, 136.75409836065572, 295.74883017711073)" fill="#fffa"/>
<text x="129.04918032786884" y="295.74883017711073" fill="#111" font-size="0.5em" text-anchor="start" textLength="17.5" transform="rotate(-60, 136.75409836065572, 295.74883017711073)" style="text-shadow: 0 0 1px #fff;">
1.00
</text>
<rect x="144.2840163934426" y="242.67700235497395" width="17.85" height="7.2" transform="rotate(-60, 152.1639344262295, 249.33700235497395)" fill="#fffa"/>
<text x="144.4590163934426" y="249.33700235497395" fill="#111" font-size="0.5em" text-anchor="start" textLength="17.5" transform="rotate(-60, 152.1639344262295, 249.33700235497395)" style="text-shadow: 0 0 1px #fff;">
1.24
</text>
<rect x="159.69385245901637" y="266.4870939063305" width="17.85" height="7.2" transform="rotate(-60, 167.5737704918033, 273.1470939063305)" fill="#fffa"/>
<text x="159.86885245901638" y="273.1470939063305" fill="#111" font-size="0.5em" text-anchor="start" textLength="17.5" transform="rotate(-60, 167.5737704918033, 273.1470939063305)" style="text-shadow: 0 0 1px #fff;">
1.11
</text>
<rect x="190.51352459016394" y="276.25691892470417" width="17.85" height="7.2" transform="rotate(-60, 198.39344262295083, 282.91691892470413)" fill="#fffa"/>
<text x="190.68852459016395" y="282.91691892470413" fill="#111" font-size="0.5em" text-anchor="start" textLength="17.5" transform="rotate(-60, 198.39344262295083, 282.91691892470413)" style="text-shadow: 0 0 1px #fff;">
1.06
</text>
<rect x="205.92336065573772" y="279.04830717173166" width="17.85" height="7.2" transform="rotate(-60, 213.8032786885246, 285.70830717173163)" fill="#fffa"/>
<text x="206.09836065573774" y="285.70830717173163" fill="#111" font-size="0.5em" text-anchor="start" textLength="17.5" transform="rotate(-60, 213.8032786885246, 285.70830717173163)" style="text-shadow: 0 0 1px #fff;">
1.05
</text>
<rect x="221.33319672131148" y="267.3652905660263" width="17.85" height="7.2" transform="rotate(-60, 229.2131147540984, 274.02529056602634)" fill="#fffa"/>
<text x="221.5081967213115" y="274.02529056602634" fill="#111" font-size="0.5em" text-anchor="start" textLength="17.5" transform="rotate(-60, 229.2131147540984, 274.02529056602634)" style="text-shadow: 0 0 1px #fff;">
1.11
</text>
<rect x="252.15286885245908" y="285.31447709822606" width="17.85" height="7.2" transform="rotate(-60, 260.03278688524597, 291.97447709822603)" fill="#fffa"/>
<text x="252.32786885245906" y="291.97447709822603" fill="#111" font-size="0.5em" text-anchor="start" textLength="17.5" transform="rotate(-60, 260.03278688524597, 291.97447709822603)" style="text-shadow: 0 0 1px #fff;">
1.02
</text>
<rect x="267.56270491803286" y="86.03999999999998" width="17.85" height="7.2" transform="rotate(-60, 275.4426229508197, 92.69999999999999)" fill="#fffa"/>
<text x="267.7377049180328" y="92.69999999999999" fill="#111" font-size="0.5em" text-anchor="start" textLength="17.5" transform="rotate(-60, 275.4426229508197, 92.69999999999999)" style="text-shadow: 0 0 1px #fff;">
2.04
</text>
<rect x="282.9725409836066" y="113.31246491924803" width="17.85" height="7.2" transform="rotate(-60, 290.8524590163935, 119.97246491924803)" fill="#fffa"/>
<text x="283.14754098360663" y="119.97246491924803" fill="#111" font-size="0.5em" text-anchor="start" textLength="17.5" transform="rotate(-60, 290.8524590163935, 119.97246491924803)" style="text-shadow: 0 0 1px #fff;">
1.90
</text>
<rect x="313.7922131147542" y="279.0139716471005" width="17.85" height="7.2" transform="rotate(-60, 321.67213114754105, 285.6739716471005)" fill="#fffa"/>
<text x="313.96721311475414" y="285.6739716471005" fill="#111" font-size="0.5em" text-anchor="start" textLength="17.5" transform="rotate(-60, 321.67213114754105, 285.6739716471005)" style="text-shadow: 0 0 1px #fff;">
1.05
</text>
<rect x="329.20204918032795" y="261.4494500659123" width="17.85" height="7.2" transform="rotate(-60, 337.08196721311486, 268.10945006591226)" fill="#fffa"/>
<text x="329.37704918032796" y="268.10945006591226" fill="#111" font-size="0.5em" text-anchor="start" textLength="17.5" transform="rotate(-60, 337.08196721311486, 268.10945006591226)" style="text-shadow: 0 0 1px #fff;">
1.14
</text>
<rect x="344.61188524590176" y="257.3546536236721" width="17.85" height="7.2" transform="rotate(-60, 352.4918032786886, 264.0146536236721)" fill="#fffa"/>
<text x="344.7868852459017" y="264.0146536236721" fill="#111" font-size="0.5em" text-anchor="start" textLength="17.5" transform="rotate(-60, 352.4918032786886, 264.0146536236721)" style="text-shadow: 0 0 1px #fff;">
1.16
</text>
<rect x="375.43155737704933" y="282.35273925919034" width="17.85" height="7.2" transform="rotate(-60, 383.3114754098362, 289.0127392591903)" fill="#fffa"/>
<text x="375.6065573770493" y="289.0127392591903" fill="#111" font-size="0.5em" text-anchor="start" textLength="17.5" transform="rotate(-60, 383.3114754098362, 289.0127392591903)" style="text-shadow: 0 0 1px #fff;">
1.03
</text>
<rect x="390.8413934426231" y="271.4657138815907" width="17.85" height="7.2" transform="rotate(-60, 398.72131147540995, 278.12571388159074)" fill="#fffa"/>
<text x="391.01639344262304" y="278.12571388159074" fill="#111" font-size="0.5em" text-anchor="start" textLength="17.5" transform="rotate(-60, 398.72131147540995, 278.12571388159074)" style="text-shadow: 0 0 1px #fff;">
1.09
</text>
<rect x="406.25122950819684" y="266.1215756637832" width="17.85" height="7.2" transform="rotate(-60, 414.13114754098376, 272.7815756637832)" fill="#fffa"/>
<text x="406.42622950819685" y="272.7815756637832" fill="#111" font-size="0.5em" text-anchor="start" textLength="17.5" transform="rotate(-60, 414.13114754098376, 272.7815756637832)" style="text-shadow: 0 0 1px #fff;">
1.12
</text>
<rect x="437.0709016393444" y="272.86951151571265" width="17.85" height="7.2" transform="rotate(-60, 444.9508196721313, 279.52951151571267)" fill="#fffa"/>
<text x="437.2459016393444" y="279.52951151571267" fill="#111" font-size="0.5em" text-anchor="start" textLength="17.5" transform="rotate(-60, 444.9508196721313, 279.52951151571267)" style="text-shadow: 0 0 1px #fff;">
1.08
</text>
<rect x="452.4807377049182" y="255.88639836582828" width="17.85" height="7.2" transform="rotate(-60, 460.3606557377051, 262.5463983658283)" fill="#fffa"/>
<text x="452.6557377049182" y="262.5463983658283" fill="#111" font-size="0.5em" text-anchor="start" textLength="17.5" transform="rotate(-60, 460.3606557377051, 262.5463983658283)" style="text-shadow: 0 0 1px #fff;">
1.17
</text>
<rect x="467.890573770492" y="244.98145202748154" width="17.85" height="7.2" transform="rotate(-60, 475.77049180327884, 251.64145202748156)" fill="#fffa"/>
<text x="468.06557377049194" y="251.64145202748156" fill="#111" font-size="0.5em" text-anchor="start" textLength="17.5" transform="rotate(-60, 475.77049180327884, 251.64145202748156)" style="text-shadow: 0 0 1px #fff;">
1.22
</text>
<rect x="498.71024590163955" y="280.7662327652331" width="17.85" height="7.2" transform="rotate(-60, 506.59016393442636, 287.42623276523307)" fill="#fffa"/>
<text x="498.8852459016395" y="287.42623276523307" fill="#111" font-size="0.5em" text-anchor="start" textLength="17.5" transform="rotate(-60, 506.59016393442636, 287.42623276523307)" style="text-shadow: 0 0 1px #fff;">
1.04
</text>
<rect x="514.1200819672133" y="249.99431600808114" width="17.85" height="7.2" transform="rotate(-60, 522.0000000000001, 256.65431600808114)" fill="#fffa"/>
<text x="514.2950819672133" y="256.65431600808114" fill="#111" font-size="0.5em" text-anchor="start" textLength="17.5" transform="rotate(-60, 522.0000000000001, 256.65431600808114)" style="text-shadow: 0 0 1px #fff;">
1.20
</text>
<rect x="529.529918032787" y="259.5498653605863" width="17.85" height="7.2" transform="rotate(-60, 537.4098360655739, 266.2098653605863)" fill="#fffa"/>
<text x="529.7049180327871" y="266.2098653605863" fill="#111" font-size="0.5em" text-anchor="start" textLength="17.5" transform="rotate(-60, 537.4098360655739, 266.2098653605863)" style="text-shadow: 0 0 1px #fff;">
1.15
</text>
<rect x="560.3495901639346" y="221.72394890882393" width="17.85" height="7.2" transform="rotate(-60, 568.2295081967214, 228.38394890882392)" fill="#fffa"/>
<text x="560.5245901639346" y="228.38394890882392" fill="#111" font-size="0.5em" text-anchor="start" textLength="17.5" transform="rotate(-60, 568.2295081967214, 228.38394890882392)" style="text-shadow: 0 0 1px #fff;">
1.34
</text>
<rect x="575.7594262295083" y="269.36786907419736" width="17.85" height="7.2" transform="rotate(-60, 583.6393442622953, 276.0278690741974)" fill="#fffa"/>
<text x="575.9344262295084" y="276.0278690741974" fill="#111" font-size="0.5em" text-anchor="start" textLength="17.5" transform="rotate(-60, 583.6393442622953, 276.0278690741974)" style="text-shadow: 0 0 1px #fff;">
1.10
</text>
<rect x="591.1692622950821" y="209.22449643266748" width="17.85" height="7.2" transform="rotate(-60, 599.0491803278691, 215.88449643266748)" fill="#fffa"/>
<text x="591.3442622950822" y="215.88449643266748" fill="#111" font-size="0.5em" text-anchor="start" textLength="17.5" transform="rotate(-60, 599.0491803278691, 215.88449643266748)" style="text-shadow: 0 0 1px #fff;">
1.41
</text>
<rect x="621.9889344262297" y="274.957379554051" width="17.85" height="7.2" transform="rotate(-60, 629.8688524590166, 281.617379554051)" fill="#fffa"/>
<text x="622.1639344262297" y="281.617379554051" fill="#111" font-size="0.5em" text-anchor="start" textLength="17.5" transform="rotate(-60, 629.8688524590166, 281.617379554051)" style="text-shadow: 0 0 1px #fff;">
1.07
</text>
<rect x="637.3987704918035" y="277.54380691657485" width="17.85" height="7.2" transform="rotate(-60, 645.2786885245904, 284.2038069165749)" fill="#fffa"/>
<text x="637.5737704918035" y="284.2038069165749" fill="#111" font-size="0.5em" text-anchor="start" textLength="17.5" transform="rotate(-60, 645.2786885245904, 284.2038069165749)" style="text-shadow: 0 0 1px #fff;">
1.06
</text>
<rect x="652.8086065573773" y="263.0323472011758" width="17.85" height="7.2" transform="rotate(-60, 660.6885245901641, 269.6923472011758)" fill="#fffa"/>
<text x="652.9836065573774" y="269.6923472011758" fill="#111" font-size="0.5em" text-anchor="start" textLength="17.5" transform="rotate(-60, 660.6885245901641, 269.6923472011758)" style="text-shadow: 0 0 1px #fff;">
1.13
</text>
<rect x="683.6282786885248" y="273.9810951048305" width="17.85" height="7.2" transform="rotate(-60, 691.5081967213117, 280.64109510483047)" fill="#fffa"/>
<text x="683.8032786885249" y="280.64109510483047" fill="#111" font-size="0.5em" text-anchor="start" textLength="17.5" transform="rotate(-60, 691.5081967213117, 280.64109510483047)" style="text-shadow: 0 0 1px #fff;">
1.08
</text>
<rect x="699.0381147540986" y="264.9882081774237" width="17.85" height="7.2" transform="rotate(-60, 706.9180327868854, 271.6482081774237)" fill="#fffa"/>
<text x="699.2131147540987" y="271.6482081774237" fill="#111" font-size="0.5em" text-anchor="start" textLength="17.5" transform="rotate(-60, 706.9180327868854, 271.6482081774237)" style="text-shadow: 0 0 1px #fff;">
1.12
</text>
<rect x="714.4479508196724" y="260.9656637343761" width="17.85" height="7.2" transform="rotate(-60, 722.3278688524592, 267.62566373437613)" fill="#fffa"/>
<text x="714.6229508196724" y="267.62566373437613" fill="#111" font-size="0.5em" text-anchor="start" textLength="17.5" transform="rotate(-60, 722.3278688524592, 267.62566373437613)" style="text-shadow: 0 0 1px #fff;">
1.14
</text>
<rect x="745.2676229508199" y="278.00257867811496" width="17.85" height="7.2" transform="rotate(-60, 753.1475409836069, 284.662578678115)" fill="#fffa"/>
<text x="745.44262295082" y="284.662578678115" fill="#111" font-size="0.5em" text-anchor="start" textLength="17.5" transform="rotate(-60, 753.1475409836069, 284.662578678115)" style="text-shadow: 0 0 1px #fff;">
1.05
</text>
<rect x="760.6774590163938" y="215.63986872866855" width="17.85" height="7.2" transform="rotate(-60, 768.5573770491806, 222.29986872866857)" fill="#fffa"/>
<text x="760.8524590163937" y="222.29986872866857" fill="#111" font-size="0.5em" text-anchor="start" textLength="17.5" transform="rotate(-60, 768.5573770491806, 222.29986872866857)" style="text-shadow: 0 0 1px #fff;">
1.37
</text>
<rect x="776.0872950819675" y="210.29154075206225" width="17.85" height="7.2" transform="rotate(-60, 783.9672131147544, 216.95154075206224)" fill="#fffa"/>
<text x="776.2622950819675" y="216.95154075206224" fill="#111" font-size="0.5em" text-anchor="start" textLength="17.5" transform="rotate(-60, 783.9672131147544, 216.95154075206224)" style="text-shadow: 0 0 1px #fff;">
1.40
</text>
<rect x="806.9069672131151" y="285.80488080370304" width="17.85" height="7.2" transform="rotate(-60, 814.7868852459019, 292.46488080370307)" fill="#fffa"/>
<text x="807.0819672131151" y="292.46488080370307" fill="#111" font-size="0.5em" text-anchor="start" textLength="17.5" transform="rotate(-60, 814.7868852459019, 292.46488080370307)" style="text-shadow: 0 0 1px #fff;">
1.01
</text>
<rect x="822.3168032786888" y="296.9726106149172" width="17.85" height="7.2" transform="rotate(-60, 830.1967213114757, 303.63261061491716)" fill="#fffa"/>
<text x="822.4918032786888" y="303.63261061491716" fill="#111" font-size="0.5em" text-anchor="start" textLength="17.5" transform="rotate(-60, 830.1967213114757, 303.63261061491716)" style="text-shadow: 0 0 1px #fff;">
0.96
</text>
<rect x="837.7266393442626" y="267.09669982395724" width="17.85" height="7.2" transform="rotate(-60, 845.6065573770495, 273.75669982395726)" fill="#fffa"/>
<text x="837.9016393442627" y="273.75669982395726" fill="#111" font-size="0.5em" text-anchor="start" textLength="17.5" transform="rotate(-60, 845.6065573770495, 273.75669982395726)" style="text-shadow: 0 0 1px #fff;">
1.11
</text>
<rect x="868.5463114754102" y="274.97300901847" width="17.85" height="7.2" transform="rotate(-60, 876.426229508197, 281.63300901847003)" fill="#fffa"/>
<text x="868.7213114754102" y="281.63300901847003" fill="#111" font-size="0.5em" text-anchor="start" textLength="17.5" transform="rotate(-60, 876.426229508197, 281.63300901847003)" style="text-shadow: 0 0 1px #fff;">
1.07
</text>
<rect x="883.9561475409839" y="270.50253686982313" width="17.85" height="7.2" transform="rotate(-60, 891.8360655737708, 277.16253686982316)" fill="#fffa"/>
<text x="884.131147540984" y="277.16253686982316" fill="#111" font-size="0.5em" text-anchor="start" textLength="17.5" transform="rotate(-60, 891.8360655737708, 277.16253686982316)" style="text-shadow: 0 0 1px #fff;">
1.09
</text>
<rect x="899.3659836065577" y="263.6641434004318" width="17.85" height="7.2" transform="rotate(-60, 907.2459016393447, 270.32414340043175)" fill="#fffa"/>
<text x="899.5409836065578" y="270.32414340043175" fill="#111" font-size="0.5em" text-anchor="start" textLength="17.5" transform="rotate(-60, 907.2459016393447, 270.32414340043175)" style="text-shadow: 0 0 1px #fff;">
1.13
</text>
<rect x="930.1856557377052" y="275.65736611102983" width="17.85" height="7.2" transform="rotate(-60, 938.0655737704922, 282.31736611102986)" fill="#fffa"/>
<text x="930.3606557377053" y="282.31736611102986" fill="#111" font-size="0.5em" text-anchor="start" textLength="17.5" transform="rotate(-60, 938.0655737704922, 282.31736611102986)" style="text-shadow: 0 0 1px #fff;">
1.07
</text>
<rect x="945.5954918032791" y="251.7615200352" width="17.85" height="7.2" transform="rotate(-60, 953.475409836066, 258.4215200352)" fill="#fffa"/>
<text x="945.7704918032791" y="258.4215200352" fill="#111" font-size="0.5em" text-anchor="start" textLength="17.5" transform="rotate(-60, 953.475409836066, 258.4215200352)" style="text-shadow: 0 0 1px #fff;">
1.19
</text>
<rect x="961.0053278688529" y="245.88225180885954" width="17.85" height="7.2" transform="rotate(-60, 968.8852459016397, 252.54225180885953)" fill="#fffa"/>
<text x="961.1803278688528" y="252.54225180885953" fill="#111" font-size="0.5em" text-anchor="start" textLength="17.5" transform="rotate(-60, 968.8852459016397, 252.54225180885953)" style="text-shadow: 0 0 1px #fff;">
1.22
</text>
</svg>