<svg viewBox="0 0 1000 600" xmlns="http://www.w3.org/2000/svg" xmlns:xlink="http://www.w3.org/1999/xlink" width="100%" height="100%">

<rect x="50.0" y="30.0" width="940.0" height="467.99999999999994" stroke="#000" fill="#fff"/>
<line x1="42.0" y1="497.9999999999999" x2="50.0" y2="497.9999999999999" stroke="#000"/>
<text x="26.000000000000004" y="497.9999999999999" text-anchor="end" font-weight="bold" font-size="small" fill="#111">
0.0
</text>
<line x1="42.0" y1="450.358807218122" x2="50.0" y2="450.358807218122" stroke="#000"/>
<text x="26.000000000000004" y="450.358807218122" text-anchor="end" font-weight="bold" font-size="small" fill="#111">
2.0
</text>
<line x1="42.0" y1="402.71761443624416" x2="50.0" y2="402.71761443624416" stroke="#000"/>
<text x="26.000000000000004" y="402.71761443624416" text-anchor="end" font-weight="bold" font-size="small" fill="#111">
4.0
</text>
<line x1="42.0" y1="355.07642165436624" x2="50.0" y2="355.07642165436624" stroke="#000"/>
<text x="26.000000000000004" y="355.07642165436624" text-anchor="end" font-weight="bold" font-size="small" fill="#111">
6.0
</text>
<line x1="42.0" y1="307.4352288724884" x2="50.0" y2="307.4352288724884" stroke="#000"/>
<text x="26.000000000000004" y="307.4352288724884" text-anchor="end" font-weight="bold" font-size="small" fill="#111">
8.0
</text>
<line x1="42.0" y1="259.79403609061046" x2="50.0" y2="259.79403609061046" stroke="#000"/>
<text x="26.000000000000004" y="259.79403609061046" text-anchor="end" font-weight="bold" font-size="small" fill="#111">
10.0
</text>
<line x1="42.0" y1="212.15284330873254" x2="50.0" y2="212.15284330873254" stroke="#000"/>
<text x="26.000000000000004" y="212.15284330873254" text-anchor="end" font-weight="bold" font-size="small" fill="#111">
12.0
</text>
<line x1="42.0" y1="164.51165052685468" x2="50.0" y2="164.51165052685468" stroke="#000"/>
<text x="26.000000000000004" y="164.51165052685468" text-anchor="end" font-weight="bold" font-size="small" fill="#111">
14.0
</text>
<line x1="42.0" y1="116.87045774497678" x2="50.0" y2="116.87045774497678" stroke="#000"/>
<text x="26.000000000000004" y="116.87045774497678" text-anchor="end" font-weight="bold" font-size="small" fill="#111">
16.0
</text>
<line x1="178.0" y1="54.60000000000001" x2="298.0" y2="54.60000000000001" stroke="#648FFF" stroke-width="2"/>
<text x="238.0" y="49.500000000000014" font-size="small" text-anchor="middle" font-weight="bold" fill="#000">
CRuby 3.2.0dev
</text>
<rect x="459.9999999999999" y="35.400000000000006" width="120.0" height="19.2" fill="#785EF0" stroke="none"/>
<text x="519.9999999999999" y="49.500000000000014" font-size="small" text-anchor="middle" font-weight="bold" fill="#fff" style="text-shadow: 0 0 1px #000;">
MJIT
</text>
<rect x="742.0" y="35.400000000000006" width="120.0" height="19.2" fill="#FFB000" stroke="none"/>
<text x="801.9999999999999" y="49.500000000000014" font-size="small" text-anchor="middle" font-weight="bold" fill="#fff" style="text-shadow: 0 0 1px #000;">
YJIT 3.2.0dev
</text>
<rect x="62.20779220779221" y="470.73572165012865" width="12.207792207792208" height="27.26427834987124" fill="#785EF0" data-tooltip="1.14x baseline (MJIT)"/>
<rect x="74.41558441558442" y="361.69684633516385" width="12.207792207792208" height="136.3031536648361" fill="#FFB000" data-tooltip="5.72x baseline (YJIT 3.2.0dev)"/>
<line x1="74.41558441558442" y1="498.0" x2="74.41558441558442" y2="502.79999999999995" stroke="#000"/>
<text x="74.41558441558442" y="512.4" fill="#111" font-size="small" text-anchor="end" transform="rotate(-60, 74.41558441558442, 512.4)">
activerecord
</text>
<rect x="98.83116883116884" y="428.1097546971985" width="12.207792207792208" height="69.89024530280143" fill="#FFB000" data-tooltip="2.93x baseline (YJIT 3.2.0dev)"/>
<line x1="104.93506493506494" y1="498.0" x2="104.93506493506494" y2="502.79999999999995" stroke="#000"/>
<text x="104.93506493506494" y="512.4" fill="#111" font-size="small" text-anchor="end" transform="rotate(-60, 104.93506493506494, 512.4)">
hexapdf
</text>
<rect x="123.24675324675326" y="198.5493035491119" width="12.207792207792208" height="299.4506964508881" fill="#FFB000" data-tooltip="12.57x baseline (YJIT 3.2.0dev)"/>
<line x1="129.35064935064935" y1="498.0" x2="129.35064935064935" y2="502.79999999999995" stroke="#000"/>
<text x="129.35064935064935" y="512.4" fill="#111" font-size="small" text-anchor="end" transform="rotate(-60, 129.35064935064935, 512.4)">
liquid-render
</text>
<rect x="147.66233766233765" y="468.5873859038811" width="12.207792207792208" height="29.412614096118777" fill="#785EF0" data-tooltip="1.23x baseline (MJIT)"/>
<rect x="159.87012987012986" y="325.99658863933934" width="12.207792207792208" height="172.00341136066066" fill="#FFB000" data-tooltip="7.22x baseline (YJIT 3.2.0dev)"/>
<line x1="159.87012987012983" y1="498.0" x2="159.87012987012983" y2="502.79999999999995" stroke="#000"/>
<text x="159.87012987012983" y="512.4" fill="#111" font-size="small" text-anchor="end" transform="rotate(-60, 159.87012987012983, 512.4)">
mail
</text>
<rect x="184.28571428571425" y="471.9276613376436" width="12.207792207792208" height="26.072338662356323" fill="#785EF0" data-tooltip="1.09x baseline (MJIT)"/>
<rect x="196.49350649350643" y="278.87547143057435" width="12.207792207792208" height="219.1245285694256" fill="#FFB000" data-tooltip="9.20x baseline (YJIT 3.2.0dev)"/>
<line x1="196.49350649350643" y1="498.0" x2="196.49350649350643" y2="502.79999999999995" stroke="#000"/>
<text x="196.49350649350643" y="512.4" fill="#111" font-size="small" text-anchor="end" transform="rotate(-60, 196.49350649350643, 512.4)">
psych-load
</text>
<rect x="220.90909090909082" y="465.0783570347452" width="12.207792207792208" height="32.921642965254804" fill="#785EF0" data-tooltip="1.38x baseline (MJIT)"/>
<rect x="233.11688311688303" y="401.3482770358212" width="12.207792207792208" height="96.65172296417883" fill="#FFB000" data-tooltip="4.06x baseline (YJIT 3.2.0dev)"/>
<line x1="233.116883116883" y1="498.0" x2="233.116883116883" y2="502.79999999999995" stroke="#000"/>
<text x="233.116883116883" y="512.4" fill="#111" font-size="small" text-anchor="end" transform="rotate(-60, 233.116883116883, 512.4)">
railsbench
</text>
<rect x="257.5324675324674" y="465.6068653271227" width="12.207792207792208" height="32.39313467287726" fill="#785EF0" data-tooltip="1.36x baseline (MJIT)"/>
<rect x="269.74025974025966" y="172.22650907034384" width="12.207792207792208" height="325.77349092965613" fill="#FFB000" data-tooltip="13.68x baseline (YJIT 3.2.0dev)"/>
<line x1="269.7402597402597" y1="498.0" x2="269.7402597402597" y2="502.79999999999995" stroke="#000"/>
<text x="269.7402597402597" y="512.4" fill="#111" font-size="small" text-anchor="end" transform="rotate(-60, 269.7402597402597, 512.4)">
binarytrees
</text>
<rect x="294.15584415584414" y="469.52034161121674" width="12.207792207792208" height="28.479658388783193" fill="#785EF0" data-tooltip="1.20x baseline (MJIT)"/>
<rect x="306.3636363636363" y="317.2457890995836" width="12.207792207792208" height="180.75421090041633" fill="#FFB000" data-tooltip="7.59x baseline (YJIT 3.2.0dev)"/>
<line x1="306.3636363636364" y1="498.0" x2="306.3636363636364" y2="502.79999999999995" stroke="#000"/>
<text x="306.3636363636364" y="512.4" fill="#111" font-size="small" text-anchor="end" transform="rotate(-60, 306.3636363636364, 512.4)">
chunky_png
</text>
<rect x="330.7792207792208" y="469.75369327841366" width="12.207792207792208" height="28.24630672158629" fill="#785EF0" data-tooltip="1.19x baseline (MJIT)"/>
<rect x="342.98701298701303" y="454.27021532755685" width="12.207792207792208" height="43.72978467244309" fill="#FFB000" data-tooltip="1.84x baseline (YJIT 3.2.0dev)"/>
<line x1="342.9870129870131" y1="498.0" x2="342.9870129870131" y2="502.79999999999995" stroke="#000"/>
<text x="342.9870129870131" y="512.4" fill="#111" font-size="small" text-anchor="end" transform="rotate(-60, 342.9870129870131, 512.4)">
discourse
</text>
<rect x="367.40259740259745" y="473.4839982655313" width="12.207792207792208" height="24.516001734468748" fill="#785EF0" data-tooltip="1.03x baseline (MJIT)"/>
<rect x="379.6103896103897" y="275.8014768653215" width="12.207792207792208" height="222.19852313467848" fill="#FFB000" data-tooltip="9.33x baseline (YJIT 3.2.0dev)"/>
<line x1="379.61038961038975" y1="498.0" x2="379.61038961038975" y2="502.79999999999995" stroke="#000"/>
<text x="379.61038961038975" y="512.4" fill="#111" font-size="small" text-anchor="end" transform="rotate(-60, 379.61038961038975, 512.4)">
erubi
</text>
<rect x="404.0259740259741" y="469.4748358218506" width="12.207792207792208" height="28.52516417814939" fill="#785EF0" data-tooltip="1.20x baseline (MJIT)"/>
<rect x="416.23376623376635" y="403.1751955322623" width="12.207792207792208" height="94.82480446773766" fill="#FFB000" data-tooltip="3.98x baseline (YJIT 3.2.0dev)"/>
<line x1="416.2337662337664" y1="498.0" x2="416.2337662337664" y2="502.79999999999995" stroke="#000"/>
<text x="416.2337662337664" y="512.4" fill="#111" font-size="small" text-anchor="end" transform="rotate(-60, 416.2337662337664, 512.4)">
erubi_rails
</text>
<rect x="440.64935064935077" y="473.17394270849786" width="12.207792207792208" height="24.82605729150205" fill="#785EF0" data-tooltip="1.04x baseline (MJIT)"/>
<rect x="452.857142857143" y="109.4030650394762" width="12.207792207792208" height="388.59693496052375" fill="#FFB000" data-tooltip="16.31x baseline (YJIT 3.2.0dev)"/>
<line x1="452.85714285714306" y1="498.0" x2="452.85714285714306" y2="502.79999999999995" stroke="#000"/>
<text x="452.85714285714306" y="512.4" fill="#111" font-size="small" text-anchor="end" transform="rotate(-60, 452.85714285714306, 512.4)">
fannkuchredux
</text>
<rect x="477.2727272727275" y="468.4063860407287" width="12.207792207792208" height="29.593613959271234" fill="#785EF0" data-tooltip="1.24x baseline (MJIT)"/>
<rect x="489.48051948051966" y="219.57724679186043" width="12.207792207792208" height="278.4227532081395" fill="#FFB000" data-tooltip="11.69x baseline (YJIT 3.2.0dev)"/>
<line x1="489.4805194805196" y1="498.0" x2="489.4805194805196" y2="502.79999999999995" stroke="#000"/>
<text x="489.4805194805196" y="512.4" fill="#111" font-size="small" text-anchor="end" transform="rotate(-60, 489.4805194805196, 512.4)">
lee
</text>
<rect x="513.896103896104" y="465.73357295268966" width="12.207792207792208" height="32.266427047310266" fill="#785EF0" data-tooltip="1.35x baseline (MJIT)"/>
<rect x="526.1038961038963" y="106.79593647828123" width="12.207792207792208" height="391.20406352171875" fill="#FFB000" data-tooltip="16.42x baseline (YJIT 3.2.0dev)"/>
<line x1="526.1038961038963" y1="498.0" x2="526.1038961038963" y2="502.79999999999995" stroke="#000"/>
<text x="526.1038961038963" y="512.4" fill="#111" font-size="small" text-anchor="end" transform="rotate(-60, 526.1038961038963, 512.4)">
nbody
</text>
<rect x="550.5194805194808" y="470.2241387716117" width="12.207792207792208" height="27.775861228388177" fill="#785EF0" data-tooltip="1.17x baseline (MJIT)"/>
<rect x="562.727272727273" y="358.49289409271097" width="12.207792207792208" height="139.50710590728895" fill="#FFB000" data-tooltip="5.86x baseline (YJIT 3.2.0dev)"/>
<line x1="562.727272727273" y1="498.0" x2="562.727272727273" y2="502.79999999999995" stroke="#000"/>
<text x="562.727272727273" y="512.4" fill="#111" font-size="small" text-anchor="end" transform="rotate(-60, 562.727272727273, 512.4)">
optcarrot
</text>
<rect x="587.1428571428575" y="470.0293539233701" width="12.207792207792208" height="27.970646076629897" fill="#785EF0" data-tooltip="1.17x baseline (MJIT)"/>
<rect x="599.3506493506496" y="330.1171734282964" width="12.207792207792208" height="167.88282657170356" fill="#FFB000" data-tooltip="7.05x baseline (YJIT 3.2.0dev)"/>
<line x1="599.3506493506496" y1="498.0" x2="599.3506493506496" y2="502.79999999999995" stroke="#000"/>
<text x="599.3506493506496" y="512.4" fill="#111" font-size="small" text-anchor="end" transform="rotate(-60, 599.3506493506496, 512.4)">
rubykon
</text>
<rect x="623.7662337662341" y="470.07591928131296" width="12.207792207792208" height="27.924080718686966" fill="#785EF0" data-tooltip="1.17x baseline (MJIT)"/>
<rect x="635.9740259740263" y="348.9180494364459" width="12.207792207792208" height="149.08195056355405" fill="#FFB000" data-tooltip="6.26x baseline (YJIT 3.2.0dev)"/>
<line x1="635.9740259740263" y1="498.0" x2="635.9740259740263" y2="502.79999999999995" stroke="#000"/>
<text x="635.9740259740263" y="512.4" fill="#111" font-size="small" text-anchor="end" transform="rotate(-60, 635.9740259740263, 512.4)">
30k_ifelse
</text>
<rect x="660.3896103896108" y="452.53495518213293" width="12.207792207792208" height="45.465044817867" fill="#785EF0" data-tooltip="1.91x baseline (MJIT)"/>
<rect x="672.597402597403" y="340.1192134095383" width="12.207792207792208" height="157.88078659046164" fill="#FFB000" data-tooltip="6.63x baseline (YJIT 3.2.0dev)"/>
<line x1="672.597402597403" y1="498.0" x2="672.597402597403" y2="502.79999999999995" stroke="#000"/>
<text x="672.597402597403" y="512.4" fill="#111" font-size="small" text-anchor="end" transform="rotate(-60, 672.597402597403, 512.4)">
30k_methods
</text>
<rect x="697.0129870129874" y="431.4687353065495" width="12.207792207792208" height="66.53126469345044" fill="#785EF0" data-tooltip="2.79x baseline (MJIT)"/>
<rect x="709.2207792207796" y="107.0498805581385" width="12.207792207792208" height="390.95011944186143" fill="#FFB000" data-tooltip="16.41x baseline (YJIT 3.2.0dev)"/>
<line x1="709.2207792207796" y1="498.0" x2="709.2207792207796" y2="502.79999999999995" stroke="#000"/>
<text x="709.2207792207796" y="512.4" fill="#111" font-size="small" text-anchor="end" transform="rotate(-60, 709.2207792207796, 512.4)">
cfunc_itself
</text>
<rect x="733.6363636363641" y="468.74390587916406" width="12.207792207792208" height="29.256094120835886" fill="#785EF0" data-tooltip="1.23x baseline (MJIT)"/>
<rect x="745.8441558441563" y="105.90763296702245" width="12.207792207792208" height="392.09236703297745" fill="#FFB000" data-tooltip="16.46x baseline (YJIT 3.2.0dev)"/>
<line x1="745.8441558441563" y1="498.0" x2="745.8441558441563" y2="502.79999999999995" stroke="#000"/>
<text x="745.8441558441563" y="512.4" fill="#111" font-size="small" text-anchor="end" transform="rotate(-60, 745.8441558441563, 512.4)">
fib
</text>
<rect x="770.2597402597407" y="469.56465072845793" width="12.207792207792208" height="28.435349271542" fill="#785EF0" data-tooltip="1.19x baseline (MJIT)"/>
<rect x="782.467532467533" y="107.61645304124919" width="12.207792207792208" height="390.38354695875074" fill="#FFB000" data-tooltip="16.39x baseline (YJIT 3.2.0dev)"/>
<line x1="782.467532467533" y1="498.0" x2="782.467532467533" y2="502.79999999999995" stroke="#000"/>
<text x="782.467532467533" y="512.4" fill="#111" font-size="small" text-anchor="end" transform="rotate(-60, 782.467532467533, 512.4)">
getivar
</text>
<rect x="806.8831168831174" y="469.7938824837192" width="12.207792207792208" height="28.20611751628077" fill="#785EF0" data-tooltip="1.18x baseline (MJIT)"/>
<rect x="819.0909090909097" y="105.2562410712521" width="12.207792207792208" height="392.74375892874787" fill="#FFB000" data-tooltip="16.49x baseline (YJIT 3.2.0dev)"/>
<line x1="819.0909090909097" y1="498.0" x2="819.0909090909097" y2="502.79999999999995" stroke="#000"/>
<text x="819.0909090909097" y="512.4" fill="#111" font-size="small" text-anchor="end" transform="rotate(-60, 819.0909090909097, 512.4)">
keyword_args
</text>
<rect x="843.506493506494" y="468.2801189493914" width="12.207792207792208" height="29.719881050608628" fill="#785EF0" data-tooltip="1.25x baseline (MJIT)"/>
<rect x="855.7142857142863" y="100.19999999999999" width="12.207792207792208" height="397.79999999999995" fill="#FFB000" data-tooltip="16.70x baseline (YJIT 3.2.0dev)"/>
<line x1="855.7142857142863" y1="498.0" x2="855.7142857142863" y2="502.79999999999995" stroke="#000"/>
<text x="855.7142857142863" y="512.4" fill="#111" font-size="small" text-anchor="end" transform="rotate(-60, 855.7142857142863, 512.4)">
respond_to
</text>
<rect x="880.1298701298707" y="467.973943091165" width="12.207792207792208" height="30.026056908834942" fill="#785EF0" data-tooltip="1.26x baseline (MJIT)"/>
<rect x="892.337662337663" y="110.69515526100415" width="12.207792207792208" height="387.30484473899577" fill="#FFB000" data-tooltip="16.26x baseline (YJIT 3.2.0dev)"/>
<line x1="892.337662337663" y1="498.0" x2="892.337662337663" y2="502.79999999999995" stroke="#000"/>
<text x="892.337662337663" y="512.4" fill="#111" font-size="small" text-anchor="end" transform="rotate(-60, 892.337662337663, 512.4)">
setivar
</text>
<rect x="916.7532467532475" y="470.1891234834994" width="12.207792207792208" height="27.81087651650058" fill="#785EF0" data-tooltip="1.17x baseline (MJIT)"/>
<rect x="928.9610389610397" y="411.39768299216945" width="12.207792207792208" height="86.60231700783051" fill="#FFB000" data-tooltip="3.64x baseline (YJIT 3.2.0dev)"/>
<line x1="928.9610389610397" y1="498.0" x2="928.9610389610397" y2="502.79999999999995" stroke="#000"/>
<text x="928.9610389610397" y="512.4" fill="#111" font-size="small" text-anchor="end" transform="rotate(-60, 928.9610389610397, 512.4)">
str_concat
</text>
<rect x="953.3766233766241" y="467.7535737637903" width="12.207792207792208" height="30.24642623620956" fill="#785EF0" data-tooltip="1.27x baseline (MJIT)"/>
<rect x="965.5844155844163" y="296.3407770012949" width="12.207792207792208" height="201.65922299870508" fill="#FFB000" data-tooltip="8.47x baseline (YJIT 3.2.0dev)"/>
<line x1="965.5844155844163" y1="498.0" x2="965.5844155844163" y2="502.79999999999995" stroke="#000"/>
<text x="965.5844155844163" y="512.4" fill="#111" font-size="small" text-anchor="end" transform="rotate(-60, 965.5844155844163, 512.4)" font-style="italic">
geomean*
</text>
<line x1="50.0" y1="474.17940360906096" x2="990.0" y2="474.17940360906096" stroke="#648FFF" stroke-width="2"/>
</svg>