<svg viewBox="0 0 1000 600" xmlns="http://www.w3.org/2000/svg" xmlns:xlink="http://www.w3.org/1999/xlink" width="100%" height="100%">

<rect x="50.0" y="30.0" width="940.0" height="467.99999999999994" stroke="#000" fill="#fff"/>
<line x1="42.0" y1="497.9999999999999" x2="50.0" y2="497.9999999999999" stroke="#000"/>
<text x="26.000000000000004" y="497.9999999999999" text-anchor="end" font-weight="bold" font-size="small" fill="#111">
0.0
</text>
<line x1="42.0" y1="457.03231336138106" x2="50.0" y2="457.03231336138106" stroke="#000"/>
<text x="26.000000000000004" y="457.03231336138106" text-anchor="end" font-weight="bold" font-size="small" fill="#111">
0.2
</text>
<line x1="42.0" y1="416.0646267227621" x2="50.0" y2="416.0646267227621" stroke="#000"/>
<text x="26.000000000000004" y="416.0646267227621" text-anchor="end" font-weight="bold" font-size="small" fill="#111">
0.4
</text>
<line x1="42.0" y1="375.0969400841433" x2="50.0" y2="375.0969400841433" stroke="#000"/>
<text x="26.000000000000004" y="375.0969400841433" text-anchor="end" font-weight="bold" font-size="small" fill="#111">
0.6
</text>
<line x1="42.0" y1="334.1292534455244" x2="50.0" y2="334.1292534455244" stroke="#000"/>
<text x="26.000000000000004" y="334.1292534455244" text-anchor="end" font-weight="bold" font-size="small" fill="#111">
0.8
</text>
<line x1="42.0" y1="293.1615668069055" x2="50.0" y2="293.1615668069055" stroke="#000"/>
<text x="26.000000000000004" y="293.1615668069055" text-anchor="end" font-weight="bold" font-size="small" fill="#111">
1.0
</text>
<line x1="42.0" y1="252.19388016828665" x2="50.0" y2="252.19388016828665" stroke="#000"/>
<text x="26.000000000000004" y="252.19388016828665" text-anchor="end" font-weight="bold" font-size="small" fill="#111">
1.2
</text>
<line x1="42.0" y1="211.22619352966774" x2="50.0" y2="211.22619352966774" stroke="#000"/>
<text x="26.000000000000004" y="211.22619352966774" text-anchor="end" font-weight="bold" font-size="small" fill="#111">
1.4
</text>
<line x1="42.0" y1="170.25850689104888" x2="50.0" y2="170.25850689104888" stroke="#000"/>
<text x="26.000000000000004" y="170.25850689104888" text-anchor="end" font-weight="bold" font-size="small" fill="#111">
1.6
</text>
<line x1="42.0" y1="129.29082025243002" x2="50.0" y2="129.29082025243002" stroke="#000"/>
<text x="26.000000000000004" y="129.29082025243002" text-anchor="end" font-weight="bold" font-size="small" fill="#111">
1.8
</text>
<line x1="178.0" y1="54.60000000000001" x2="298.0" y2="54.60000000000001" stroke="#648FFF" stroke-width="2"/>
<text x="238.0" y="49.500000000000014" font-size="small" text-anchor="middle" font-weight="bold" fill="#000">
CRuby 3.2.0dev
</text>
<rect x="459.9999999999999" y="35.400000000000006" width="120.0" height="19.2" fill="#785EF0" stroke="none"/>
<text x="519.9999999999999" y="49.500000000000014" font-size="small" text-anchor="middle" font-weight="bold" fill="#fff" style="text-shadow: 0 0 1px #000;">
MJIT
</text>
<rect x="742.0" y="35.400000000000006" width="120.0" height="19.2" fill="#FFB000" stroke="none"/>
<text x="801.9999999999999" y="49.500000000000014" font-size="small" text-anchor="middle" font-weight="bold" fill="#fff" style="text-shadow: 0 0 1px #000;">
YJIT 3.2.0dev
</text>
<rect x="80.3225806451613" y="288.5406324554114" width="30.32258064516129" height="209.4593675445885" fill="#785EF0" data-tooltip="1.02x baseline (MJIT)"/>
<rect x="110.64516129032258" y="278.70205038727966" width="30.32258064516129" height="219.29794961272026" fill="#FFB000" data-tooltip="1.07x baseline (YJIT 3.2.0dev)"/>
<line x1="110.64516129032258" y1="498.0" x2="110.64516129032258" y2="502.79999999999995" stroke="#000"/>
<text x="110.64516129032258" y="512.4" fill="#111" font-size="small" text-anchor="end" transform="rotate(-60, 110.64516129032258, 512.4)">
binarytrees
</text>
<rect x="171.29032258064512" y="258.4134529843996" width="30.32258064516129" height="239.5865470156003" fill="#785EF0" data-tooltip="1.17x baseline (MJIT)"/>
<rect x="201.61290322580643" y="266.9487070261144" width="30.32258064516129" height="231.05129297388555" fill="#FFB000" data-tooltip="1.13x baseline (YJIT 3.2.0dev)"/>
<line x1="201.61290322580643" y1="498.0" x2="201.61290322580643" y2="502.79999999999995" stroke="#000"/>
<text x="201.61290322580643" y="512.4" fill="#111" font-size="small" text-anchor="end" transform="rotate(-60, 201.61290322580643, 512.4)">
chunky_png
</text>
<rect x="262.258064516129" y="276.18524439440216" width="30.32258064516129" height="221.81475560559778" fill="#785EF0" data-tooltip="1.08x baseline (MJIT)"/>
<rect x="292.58064516129036" y="100.19999999999999" width="30.32258064516129" height="397.79999999999995" fill="#FFB000" data-tooltip="1.94x baseline (YJIT 3.2.0dev)"/>
<line x1="292.58064516129036" y1="498.0" x2="292.58064516129036" y2="502.79999999999995" stroke="#000"/>
<text x="292.58064516129036" y="512.4" fill="#111" font-size="small" text-anchor="end" transform="rotate(-60, 292.58064516129036, 512.4)">
erubi
</text>
<rect x="353.2258064516129" y="250.90577687509068" width="30.32258064516129" height="247.09422312490926" fill="#785EF0" data-tooltip="1.21x baseline (MJIT)"/>
<rect x="383.54838709677426" y="253.46985161482135" width="30.32258064516129" height="244.5301483851786" fill="#FFB000" data-tooltip="1.19x baseline (YJIT 3.2.0dev)"/>
<line x1="383.54838709677426" y1="498.0" x2="383.54838709677426" y2="502.79999999999995" stroke="#000"/>
<text x="383.54838709677426" y="512.4" fill="#111" font-size="small" text-anchor="end" transform="rotate(-60, 383.54838709677426, 512.4)">
erubi_rails
</text>
<rect x="444.1935483870968" y="292.6182699622739" width="30.32258064516129" height="205.38173003772602" fill="#785EF0" data-tooltip="1.00x baseline (MJIT)"/>
<rect x="474.51612903225816" y="276.86649612904273" width="30.32258064516129" height="221.1335038709572" fill="#FFB000" data-tooltip="1.08x baseline (YJIT 3.2.0dev)"/>
<line x1="474.5161290322581" y1="498.0" x2="474.5161290322581" y2="502.79999999999995" stroke="#000"/>
<text x="474.5161290322581" y="512.4" fill="#111" font-size="small" text-anchor="end" transform="rotate(-60, 474.5161290322581, 512.4)">
fannkuchredux
</text>
<rect x="535.1612903225806" y="273.9832728878304" width="30.32258064516129" height="224.01672711216952" fill="#785EF0" data-tooltip="1.09x baseline (MJIT)"/>
<rect x="565.4838709677418" y="264.41814499023957" width="30.32258064516129" height="233.58185500976035" fill="#FFB000" data-tooltip="1.14x baseline (YJIT 3.2.0dev)"/>
<line x1="565.4838709677418" y1="498.0" x2="565.4838709677418" y2="502.79999999999995" stroke="#000"/>
<text x="565.4838709677418" y="512.4" fill="#111" font-size="small" text-anchor="end" transform="rotate(-60, 565.4838709677418, 512.4)">
lee
</text>
<rect x="626.1290322580644" y="258.25725735335976" width="30.32258064516129" height="239.7427426466402" fill="#785EF0" data-tooltip="1.17x baseline (MJIT)"/>
<rect x="656.4516129032256" y="274.53694645807104" width="30.32258064516129" height="223.4630535419289" fill="#FFB000" data-tooltip="1.09x baseline (YJIT 3.2.0dev)"/>
<line x1="656.4516129032256" y1="498.0" x2="656.4516129032256" y2="502.79999999999995" stroke="#000"/>
<text x="656.4516129032256" y="512.4" fill="#111" font-size="small" text-anchor="end" transform="rotate(-60, 656.4516129032256, 512.4)">
nbody
</text>
<rect x="717.0967741935481" y="277.5492763579695" width="30.32258064516129" height="220.45072364203043" fill="#785EF0" data-tooltip="1.08x baseline (MJIT)"/>
<rect x="747.4193548387094" y="274.8872847174588" width="30.32258064516129" height="223.1127152825412" fill="#FFB000" data-tooltip="1.09x baseline (YJIT 3.2.0dev)"/>
<line x1="747.4193548387094" y1="498.0" x2="747.4193548387094" y2="502.79999999999995" stroke="#000"/>
<text x="747.4193548387094" y="512.4" fill="#111" font-size="small" text-anchor="end" transform="rotate(-60, 747.4193548387094, 512.4)">
optcarrot
</text>
<rect x="808.0645161290319" y="272.88203223145325" width="30.32258064516129" height="225.11796776854666" fill="#785EF0" data-tooltip="1.10x baseline (MJIT)"/>
<rect x="838.3870967741931" y="278.51379937821116" width="30.32258064516129" height="219.48620062178878" fill="#FFB000" data-tooltip="1.07x baseline (YJIT 3.2.0dev)"/>
<line x1="838.3870967741931" y1="498.0" x2="838.3870967741931" y2="502.79999999999995" stroke="#000"/>
<text x="838.3870967741931" y="512.4" fill="#111" font-size="small" text-anchor="end" transform="rotate(-60, 838.3870967741931, 512.4)">
rubykon
</text>
<rect x="899.0322580645156" y="272.53428183981543" width="30.32258064516129" height="225.4657181601845" fill="#785EF0" data-tooltip="1.10x baseline (MJIT)"/>
<rect x="929.3548387096769" y="256.5792664668635" width="30.32258064516129" height="241.42073353313646" fill="#FFB000" data-tooltip="1.18x baseline (YJIT 3.2.0dev)"/>
<line x1="929.3548387096769" y1="498.0" x2="929.3548387096769" y2="502.79999999999995" stroke="#000"/>
<text x="929.3548387096769" y="512.4" fill="#111" font-size="small" text-anchor="end" transform="rotate(-60, 929.3548387096769, 512.4)" font-style="italic">
geomean*
</text>
<line x1="50.0" y1="293.1615668069055" x2="990.0" y2="293.1615668069055" stroke="#648FFF" stroke-width="2"/>
</svg>