<svg viewBox="0 0 1000 600" xmlns="http://www.w3.org/2000/svg" xmlns:xlink="http://www.w3.org/1999/xlink" width="100%" height="100%">

<rect x="50.0" y="30.0" width="940.0" height="467.99999999999994" stroke="#000" fill="#fff"/>
<line x1="42.0" y1="497.9999999999999" x2="50.0" y2="497.9999999999999" stroke="#000"/>
<text x="26.000000000000004" y="497.9999999999999" text-anchor="end" font-weight="bold" font-size="small" fill="#111">
0.0
</text>
<line x1="42.0" y1="435.3134930793272" x2="50.0" y2="435.3134930793272" stroke="#000"/>
<text x="26.000000000000004" y="435.3134930793272" text-anchor="end" font-weight="bold" font-size="small" fill="#111">
0.2
</text>
<line x1="42.0" y1="372.6269861586545" x2="50.0" y2="372.6269861586545" stroke="#000"/>
<text x="26.000000000000004" y="372.6269861586545" text-anchor="end" font-weight="bold" font-size="small" fill="#111">
0.4
</text>
<line x1="42.0" y1="309.9404792379818" x2="50.0" y2="309.9404792379818" stroke="#000"/>
<text x="26.000000000000004" y="309.9404792379818" text-anchor="end" font-weight="bold" font-size="small" fill="#111">
0.6
</text>
<line x1="42.0" y1="247.2539723173091" x2="50.0" y2="247.2539723173091" stroke="#000"/>
<text x="26.000000000000004" y="247.2539723173091" text-anchor="end" font-weight="bold" font-size="small" fill="#111">
0.8
</text>
<line x1="42.0" y1="184.56746539663644" x2="50.0" y2="184.56746539663644" stroke="#000"/>
<text x="26.000000000000004" y="184.56746539663644" text-anchor="end" font-weight="bold" font-size="small" fill="#111">
1.0
</text>
<line x1="42.0" y1="121.8809584759637" x2="50.0" y2="121.8809584759637" stroke="#000"/>
<text x="26.000000000000004" y="121.8809584759637" text-anchor="end" font-weight="bold" font-size="small" fill="#111">
1.2
</text>
<line x1="142.75" y1="54.60000000000001" x2="262.75" y2="54.60000000000001" stroke="#648FFF" stroke-width="2"/>
<text x="202.75" y="49.500000000000014" font-size="small" text-anchor="middle" font-weight="bold" fill="#000">
CRuby 3.3.1
</text>
<rect x="354.25" y="35.400000000000006" width="120.0" height="19.2" fill="#785EF0" stroke="none"/>
<text x="414.25" y="49.500000000000014" font-size="small" text-anchor="middle" font-weight="bold" fill="#fff" style="text-shadow: 0 0 1px #000;">
CRuby 3.4.0dev
</text>
<rect x="565.75" y="35.400000000000006" width="120.0" height="19.2" fill="#FFB000" stroke="none"/>
<text x="625.7499999999999" y="49.500000000000014" font-size="small" text-anchor="middle" font-weight="bold" fill="#fff" style="text-shadow: 0 0 1px #000;">
YJIT 3.3.1
</text>
<rect x="777.25" y="35.400000000000006" width="120.0" height="19.2" fill="#DC267F" stroke="none"/>
<text x="837.2499999999999" y="49.500000000000014" font-size="small" text-anchor="middle" font-weight="bold" fill="#fff" style="text-shadow: 0 0 1px #000;">
YJIT 3.4.0dev
</text>
<rect x="61.60493827160494" y="157.0221294661144" width="11.604938271604937" height="340.9778705338855" fill="#785EF0" data-tooltip="1.09x baseline (CRuby 3.4.0dev)"/>
<rect x="73.20987654320987" y="168.4297938413811" width="11.604938271604937" height="329.5702061586189" fill="#FFB000" data-tooltip="1.05x baseline (YJIT 3.3.1)"/>
<rect x="84.81481481481481" y="154.51800801788517" width="11.604938271604937" height="343.4819919821147" fill="#DC267F" data-tooltip="1.10x baseline (YJIT 3.4.0dev)"/>
<line x1="79.01234567901236" y1="498.0" x2="79.01234567901236" y2="502.79999999999995" stroke="#000"/>
<text x="79.01234567901236" y="512.4" fill="#111" font-size="small" text-anchor="end" transform="rotate(-60, 79.01234567901236, 512.4)">
binarytrees
</text>
<rect x="108.0246913580247" y="158.0433772478416" width="11.604938271604937" height="339.95662275215835" fill="#785EF0" data-tooltip="1.08x baseline (CRuby 3.4.0dev)"/>
<rect x="119.62962962962965" y="174.5742350025482" width="11.604938271604937" height="323.4257649974517" fill="#FFB000" data-tooltip="1.03x baseline (YJIT 3.3.1)"/>
<rect x="131.23456790123458" y="150.9453818277417" width="11.604938271604937" height="347.0546181722583" fill="#DC267F" data-tooltip="1.11x baseline (YJIT 3.4.0dev)"/>
<line x1="125.43209876543213" y1="498.0" x2="125.43209876543213" y2="502.79999999999995" stroke="#000"/>
<text x="125.43209876543213" y="512.4" fill="#111" font-size="small" text-anchor="end" transform="rotate(-60, 125.43209876543213, 512.4)">
blurhash
</text>
<rect x="154.44444444444446" y="155.865497340261" width="11.604938271604937" height="342.1345026597389" fill="#785EF0" data-tooltip="1.09x baseline (CRuby 3.4.0dev)"/>
<rect x="166.04938271604942" y="158.97634459381493" width="11.604938271604937" height="339.02365540618496" fill="#FFB000" data-tooltip="1.08x baseline (YJIT 3.3.1)"/>
<rect x="177.65432098765436" y="129.57003376304996" width="11.604938271604937" height="368.42996623694995" fill="#DC267F" data-tooltip="1.18x baseline (YJIT 3.4.0dev)"/>
<line x1="171.8518518518519" y1="498.0" x2="171.8518518518519" y2="502.79999999999995" stroke="#000"/>
<text x="171.8518518518519" y="512.4" fill="#111" font-size="small" text-anchor="end" transform="rotate(-60, 171.8518518518519, 512.4)">
erubi
</text>
<rect x="200.86419753086423" y="148.6293894394968" width="11.604938271604937" height="349.3706105605031" fill="#785EF0" data-tooltip="1.11x baseline (CRuby 3.4.0dev)"/>
<rect x="212.46913580246917" y="175.04961879611542" width="11.604938271604937" height="322.95038120388455" fill="#FFB000" data-tooltip="1.03x baseline (YJIT 3.3.1)"/>
<rect x="224.07407407407413" y="145.18327256689443" width="11.604938271604937" height="352.8167274331055" fill="#DC267F" data-tooltip="1.13x baseline (YJIT 3.4.0dev)"/>
<line x1="218.27160493827165" y1="498.0" x2="218.27160493827165" y2="502.79999999999995" stroke="#000"/>
<text x="218.27160493827165" y="512.4" fill="#111" font-size="small" text-anchor="end" transform="rotate(-60, 218.27160493827165, 512.4)">
etanni
</text>
<rect x="247.283950617284" y="155.50409472404402" width="11.604938271604937" height="342.49590527595586" fill="#785EF0" data-tooltip="1.09x baseline (CRuby 3.4.0dev)"/>
<rect x="258.88888888888897" y="176.9678561041564" width="11.604938271604937" height="321.03214389584355" fill="#FFB000" data-tooltip="1.02x baseline (YJIT 3.3.1)"/>
<rect x="270.4938271604939" y="150.9854081177046" width="11.604938271604937" height="347.01459188229535" fill="#DC267F" data-tooltip="1.11x baseline (YJIT 3.4.0dev)"/>
<line x1="264.69135802469134" y1="498.0" x2="264.69135802469134" y2="502.79999999999995" stroke="#000"/>
<text x="264.69135802469134" y="512.4" fill="#111" font-size="small" text-anchor="end" transform="rotate(-60, 264.69135802469134, 512.4)">
fannkuchredux
</text>
<rect x="293.7037037037037" y="179.0909044163636" width="11.604938271604937" height="318.9090955836363" fill="#785EF0" data-tooltip="1.02x baseline (CRuby 3.4.0dev)"/>
<rect x="305.3086419753086" y="181.88666005921655" width="11.604938271604937" height="316.1133399407834" fill="#FFB000" data-tooltip="1.01x baseline (YJIT 3.3.1)"/>
<rect x="316.9135802469135" y="170.36289193955707" width="11.604938271604937" height="327.63710806044287" fill="#DC267F" data-tooltip="1.05x baseline (YJIT 3.4.0dev)"/>
<line x1="311.11111111111103" y1="498.0" x2="311.11111111111103" y2="502.79999999999995" stroke="#000"/>
<text x="311.11111111111103" y="512.4" fill="#111" font-size="small" text-anchor="end" transform="rotate(-60, 311.11111111111103, 512.4)">
fluentd
</text>
<rect x="340.1234567901233" y="162.1377051864814" width="11.604938271604937" height="335.86229481351853" fill="#785EF0" data-tooltip="1.07x baseline (CRuby 3.4.0dev)"/>
<rect x="351.72839506172824" y="156.2576812424998" width="11.604938271604937" height="341.74231875750013" fill="#FFB000" data-tooltip="1.09x baseline (YJIT 3.3.1)"/>
<rect x="363.3333333333332" y="131.41360656527954" width="11.604938271604937" height="366.5863934347204" fill="#DC267F" data-tooltip="1.17x baseline (YJIT 3.4.0dev)"/>
<line x1="357.53086419753066" y1="498.0" x2="357.53086419753066" y2="502.79999999999995" stroke="#000"/>
<text x="357.53086419753066" y="512.4" fill="#111" font-size="small" text-anchor="end" transform="rotate(-60, 357.53086419753066, 512.4)">
graphql
</text>
<rect x="386.543209876543" y="157.71017331908277" width="11.604938271604937" height="340.28982668091714" fill="#785EF0" data-tooltip="1.09x baseline (CRuby 3.4.0dev)"/>
<rect x="398.1481481481479" y="155.7888118329747" width="11.604938271604937" height="342.2111881670252" fill="#FFB000" data-tooltip="1.09x baseline (YJIT 3.3.1)"/>
<rect x="409.75308641975283" y="125.46471533483476" width="11.604938271604937" height="372.5352846651652" fill="#DC267F" data-tooltip="1.19x baseline (YJIT 3.4.0dev)"/>
<line x1="403.9506172839503" y1="498.0" x2="403.9506172839503" y2="502.79999999999995" stroke="#000"/>
<text x="403.9506172839503" y="512.4" fill="#111" font-size="small" text-anchor="end" transform="rotate(-60, 403.9506172839503, 512.4)">
graphql-native
</text>
<rect x="432.96296296296265" y="182.76558395716168" width="11.604938271604937" height="315.23441604283823" fill="#785EF0" data-tooltip="1.01x baseline (CRuby 3.4.0dev)"/>
<rect x="444.56790123456756" y="157.68149760236906" width="11.604938271604937" height="340.3185023976308" fill="#FFB000" data-tooltip="1.09x baseline (YJIT 3.3.1)"/>
<rect x="456.17283950617247" y="166.26414340618282" width="11.604938271604937" height="331.7358565938172" fill="#DC267F" data-tooltip="1.06x baseline (YJIT 3.4.0dev)"/>
<line x1="450.37037037037" y1="498.0" x2="450.37037037037" y2="502.79999999999995" stroke="#000"/>
<text x="450.37037037037" y="512.4" fill="#111" font-size="small" text-anchor="end" transform="rotate(-60, 450.37037037037, 512.4)">
lee
</text>
<rect x="479.38271604938234" y="207.94519874679966" width="11.604938271604937" height="290.05480125320025" fill="#785EF0" data-tooltip="0.93x baseline (CRuby 3.4.0dev)"/>
<rect x="490.98765432098725" y="180.17269568067883" width="11.604938271604937" height="317.8273043193212" fill="#FFB000" data-tooltip="1.01x baseline (YJIT 3.3.1)"/>
<rect x="502.59259259259215" y="205.4426215474349" width="11.604938271604937" height="292.55737845256505" fill="#DC267F" data-tooltip="0.93x baseline (YJIT 3.4.0dev)"/>
<line x1="496.7901234567896" y1="498.0" x2="496.7901234567896" y2="502.79999999999995" stroke="#000"/>
<text x="496.7901234567896" y="512.4" fill="#111" font-size="small" text-anchor="end" transform="rotate(-60, 496.7901234567896, 512.4)">
matmul
</text>
<rect x="525.802469135802" y="154.8196813242646" width="11.604938271604937" height="343.18031867573535" fill="#785EF0" data-tooltip="1.09x baseline (CRuby 3.4.0dev)"/>
<rect x="537.4074074074069" y="175.40638310445274" width="11.604938271604937" height="322.59361689554726" fill="#FFB000" data-tooltip="1.03x baseline (YJIT 3.3.1)"/>
<rect x="549.0123456790118" y="148.95247131691104" width="11.604938271604937" height="349.0475286830889" fill="#DC267F" data-tooltip="1.11x baseline (YJIT 3.4.0dev)"/>
<line x1="543.2098765432092" y1="498.0" x2="543.2098765432092" y2="502.79999999999995" stroke="#000"/>
<text x="543.2098765432092" y="512.4" fill="#111" font-size="small" text-anchor="end" transform="rotate(-60, 543.2098765432092, 512.4)">
nbody
</text>
<rect x="572.2222222222216" y="153.05138180045" width="11.604938271604937" height="344.9486181995499" fill="#785EF0" data-tooltip="1.10x baseline (CRuby 3.4.0dev)"/>
<rect x="583.8271604938266" y="177.45093039104594" width="11.604938271604937" height="320.54906960895397" fill="#FFB000" data-tooltip="1.02x baseline (YJIT 3.3.1)"/>
<rect x="595.4320987654314" y="120.72197991791042" width="11.604938271604937" height="377.27802008208954" fill="#DC267F" data-tooltip="1.20x baseline (YJIT 3.4.0dev)"/>
<line x1="589.629629629629" y1="498.0" x2="589.629629629629" y2="502.79999999999995" stroke="#000"/>
<text x="589.629629629629" y="512.4" fill="#111" font-size="small" text-anchor="end" transform="rotate(-60, 589.629629629629, 512.4)">
nqueens
</text>
<rect x="618.6419753086412" y="173.57063646529997" width="11.604938271604937" height="324.4293635347" fill="#785EF0" data-tooltip="1.04x baseline (CRuby 3.4.0dev)"/>
<rect x="630.2469135802462" y="177.14460586798424" width="11.604938271604937" height="320.8553941320157" fill="#FFB000" data-tooltip="1.02x baseline (YJIT 3.3.1)"/>
<rect x="641.8518518518512" y="156.27354095871857" width="11.604938271604937" height="341.7264590412814" fill="#DC267F" data-tooltip="1.09x baseline (YJIT 3.4.0dev)"/>
<line x1="636.0493827160486" y1="498.0" x2="636.0493827160486" y2="502.79999999999995" stroke="#000"/>
<text x="636.0493827160486" y="512.4" fill="#111" font-size="small" text-anchor="end" transform="rotate(-60, 636.0493827160486, 512.4)">
optcarrot
</text>
<rect x="665.061728395061" y="112.51468968596517" width="11.604938271604937" height="385.48531031403473" fill="#785EF0" data-tooltip="1.23x baseline (CRuby 3.4.0dev)"/>
<rect x="676.6666666666658" y="168.87807709480578" width="11.604938271604937" height="329.1219229051942" fill="#FFB000" data-tooltip="1.05x baseline (YJIT 3.3.1)"/>
<rect x="688.2716049382708" y="100.19999999999999" width="11.604938271604937" height="397.79999999999995" fill="#DC267F" data-tooltip="1.27x baseline (YJIT 3.4.0dev)"/>
<line x1="682.4691358024683" y1="498.0" x2="682.4691358024683" y2="502.79999999999995" stroke="#000"/>
<text x="682.4691358024683" y="512.4" fill="#111" font-size="small" text-anchor="end" transform="rotate(-60, 682.4691358024683, 512.4)">
protoboeuf
</text>
<rect x="711.4814814814806" y="157.93594284863823" width="11.604938271604937" height="340.06405715136174" fill="#785EF0" data-tooltip="1.08x baseline (CRuby 3.4.0dev)"/>
<rect x="723.0864197530855" y="154.50318942249288" width="11.604938271604937" height="343.496810577507" fill="#FFB000" data-tooltip="1.10x baseline (YJIT 3.3.1)"/>
<rect x="734.6913580246904" y="127.48409793928472" width="11.604938271604937" height="370.5159020607152" fill="#DC267F" data-tooltip="1.18x baseline (YJIT 3.4.0dev)"/>
<line x1="728.8888888888879" y1="498.0" x2="728.8888888888879" y2="502.79999999999995" stroke="#000"/>
<text x="728.8888888888879" y="512.4" fill="#111" font-size="small" text-anchor="end" transform="rotate(-60, 728.8888888888879, 512.4)">
rack
</text>
<rect x="757.9012345679002" y="152.94375703029888" width="11.604938271604937" height="345.0562429697011" fill="#785EF0" data-tooltip="1.10x baseline (CRuby 3.4.0dev)"/>
<rect x="769.5061728395052" y="175.38014951039153" width="11.604938271604937" height="322.6198504896084" fill="#FFB000" data-tooltip="1.03x baseline (YJIT 3.3.1)"/>
<rect x="781.1111111111101" y="147.14124173372326" width="11.604938271604937" height="350.8587582662767" fill="#DC267F" data-tooltip="1.12x baseline (YJIT 3.4.0dev)"/>
<line x1="775.3086419753075" y1="498.0" x2="775.3086419753075" y2="502.79999999999995" stroke="#000"/>
<text x="775.3086419753075" y="512.4" fill="#111" font-size="small" text-anchor="end" transform="rotate(-60, 775.3086419753075, 512.4)">
ruby-json
</text>
<rect x="804.3209876543199" y="197.29900841508666" width="11.604938271604937" height="300.70099158491325" fill="#785EF0" data-tooltip="0.96x baseline (CRuby 3.4.0dev)"/>
<rect x="815.9259259259248" y="180.80092088506555" width="11.604938271604937" height="317.19907911493436" fill="#FFB000" data-tooltip="1.01x baseline (YJIT 3.3.1)"/>
<rect x="827.5308641975297" y="190.5441310678893" width="11.604938271604937" height="307.4558689321106" fill="#DC267F" data-tooltip="0.98x baseline (YJIT 3.4.0dev)"/>
<line x1="821.7283950617273" y1="498.0" x2="821.7283950617273" y2="502.79999999999995" stroke="#000"/>
<text x="821.7283950617273" y="512.4" fill="#111" font-size="small" text-anchor="end" transform="rotate(-60, 821.7283950617273, 512.4)">
rubykon
</text>
<rect x="850.7407407407396" y="159.90524725951266" width="11.604938271604937" height="338.09475274048725" fill="#785EF0" data-tooltip="1.08x baseline (CRuby 3.4.0dev)"/>
<rect x="862.3456790123445" y="173.65140163102427" width="11.604938271604937" height="324.3485983689757" fill="#FFB000" data-tooltip="1.03x baseline (YJIT 3.3.1)"/>
<rect x="873.9506172839494" y="153.6386180607353" width="11.604938271604937" height="344.3613819392646" fill="#DC267F" data-tooltip="1.10x baseline (YJIT 3.4.0dev)"/>
<line x1="868.1481481481469" y1="498.0" x2="868.1481481481469" y2="502.79999999999995" stroke="#000"/>
<text x="868.1481481481469" y="512.4" fill="#111" font-size="small" text-anchor="end" transform="rotate(-60, 868.1481481481469, 512.4)">
sudoku
</text>
<rect x="897.1604938271593" y="159.68891306568847" width="11.604938271604937" height="338.31108693431145" fill="#785EF0" data-tooltip="1.08x baseline (CRuby 3.4.0dev)"/>
<rect x="908.7654320987641" y="151.93375336152772" width="11.604938271604937" height="346.0662466384722" fill="#FFB000" data-tooltip="1.10x baseline (YJIT 3.3.1)"/>
<rect x="920.3703703703691" y="123.20864181731604" width="11.604938271604937" height="374.7913581826839" fill="#DC267F" data-tooltip="1.20x baseline (YJIT 3.4.0dev)"/>
<line x1="914.5679012345665" y1="498.0" x2="914.5679012345665" y2="502.79999999999995" stroke="#000"/>
<text x="914.5679012345665" y="512.4" fill="#111" font-size="small" text-anchor="end" transform="rotate(-60, 914.5679012345665, 512.4)">
tinygql
</text>
<rect x="943.5802469135789" y="163.0173466757702" width="11.604938271604937" height="334.9826533242297" fill="#785EF0" data-tooltip="1.07x baseline (CRuby 3.4.0dev)"/>
<rect x="955.1851851851839" y="169.67071237248277" width="11.604938271604937" height="328.3292876275172" fill="#FFB000" data-tooltip="1.05x baseline (YJIT 3.3.1)"/>
<rect x="966.7901234567887" y="148.15196284538814" width="11.604938271604937" height="349.8480371546118" fill="#DC267F" data-tooltip="1.12x baseline (YJIT 3.4.0dev)"/>
<line x1="960.9876543209862" y1="498.0" x2="960.9876543209862" y2="502.79999999999995" stroke="#000"/>
<text x="960.9876543209862" y="512.4" fill="#111" font-size="small" text-anchor="end" transform="rotate(-60, 960.9876543209862, 512.4)" font-style="italic">
geomean*
</text>
<line x1="50.0" y1="184.56746539663644" x2="990.0" y2="184.56746539663644" stroke="#648FFF" stroke-width="2"/>
</svg>