<svg viewBox="0 0 1000 600" xmlns="http://www.w3.org/2000/svg" xmlns:xlink="http://www.w3.org/1999/xlink" width="100%" height="100%">

<rect x="50.0" y="30.0" width="940.0" height="467.99999999999994" stroke="#000" fill="#fff"/>
<line x1="42.0" y1="497.9999999999999" x2="50.0" y2="497.9999999999999" stroke="#000"/>
<text x="26.000000000000004" y="497.9999999999999" text-anchor="end" font-weight="bold" font-size="small" fill="#111">
0.0
</text>
<line x1="42.0" y1="432.8988898973678" x2="50.0" y2="432.8988898973678" stroke="#000"/>
<text x="26.000000000000004" y="432.8988898973678" text-anchor="end" font-weight="bold" font-size="small" fill="#111">
2.0
</text>
<line x1="42.0" y1="367.7977797947357" x2="50.0" y2="367.7977797947357" stroke="#000"/>
<text x="26.000000000000004" y="367.7977797947357" text-anchor="end" font-weight="bold" font-size="small" fill="#111">
4.0
</text>
<line x1="42.0" y1="302.69666969210357" x2="50.0" y2="302.69666969210357" stroke="#000"/>
<text x="26.000000000000004" y="302.69666969210357" text-anchor="end" font-weight="bold" font-size="small" fill="#111">
6.0
</text>
<line x1="42.0" y1="237.59555958947143" x2="50.0" y2="237.59555958947143" stroke="#000"/>
<text x="26.000000000000004" y="237.59555958947143" text-anchor="end" font-weight="bold" font-size="small" fill="#111">
8.0
</text>
<line x1="42.0" y1="172.49444948683936" x2="50.0" y2="172.49444948683936" stroke="#000"/>
<text x="26.000000000000004" y="172.49444948683936" text-anchor="end" font-weight="bold" font-size="small" fill="#111">
10.0
</text>
<line x1="42.0" y1="107.39333938420722" x2="50.0" y2="107.39333938420722" stroke="#000"/>
<text x="26.000000000000004" y="107.39333938420722" text-anchor="end" font-weight="bold" font-size="small" fill="#111">
12.0
</text>
<line x1="178.0" y1="54.60000000000001" x2="298.0" y2="54.60000000000001" stroke="#648FFF" stroke-width="2"/>
<text x="238.0" y="49.500000000000014" font-size="small" text-anchor="middle" font-weight="bold" fill="#000">
CRuby 3.1.0dev
</text>
<rect x="459.9999999999999" y="35.400000000000006" width="120.0" height="19.2" fill="#785EF0" stroke="none"/>
<text x="519.9999999999999" y="49.500000000000014" font-size="small" text-anchor="middle" font-weight="bold" fill="#fff" style="text-shadow: 0 0 1px #000;">
MJIT3.0
</text>
<rect x="742.0" y="35.400000000000006" width="120.0" height="19.2" fill="#FFB000" stroke="none"/>
<text x="801.9999999999999" y="49.500000000000014" font-size="small" text-anchor="middle" font-weight="bold" fill="#fff" style="text-shadow: 0 0 1px #000;">
YJIT 3.1.0dev
</text>
<rect x="64.02985074626866" y="463.5285987973303" width="14.029850746268655" height="34.47140120266963" fill="#785EF0" data-tooltip="1.06x baseline (MJIT3.0)"/>
<rect x="78.05970149253731" y="326.9553991408739" width="14.029850746268655" height="171.04460085912606" fill="#FFB000" data-tooltip="5.25x baseline (YJIT 3.1.0dev)"/>
<line x1="78.05970149253731" y1="498.0" x2="78.05970149253731" y2="502.79999999999995" stroke="#000"/>
<text x="78.05970149253731" y="512.4" fill="#111" font-size="small" text-anchor="end" transform="rotate(-60, 78.05970149253731, 512.4)">
activerecord
</text>
<rect x="106.11940298507461" y="464.58926221942886" width="14.029850746268655" height="33.410737780571026" fill="#785EF0" data-tooltip="1.03x baseline (MJIT3.0)"/>
<rect x="120.14925373134328" y="431.5996477819814" width="14.029850746268655" height="66.40035221801854" fill="#FFB000" data-tooltip="2.04x baseline (YJIT 3.1.0dev)"/>
<line x1="120.1492537313433" y1="498.0" x2="120.1492537313433" y2="502.79999999999995" stroke="#000"/>
<text x="120.1492537313433" y="512.4" fill="#111" font-size="small" text-anchor="end" transform="rotate(-60, 120.1492537313433, 512.4)">
hexapdf
</text>
<rect x="148.20895522388062" y="464.490373476509" width="14.029850746268655" height="33.50962652349099" fill="#785EF0" data-tooltip="1.03x baseline (MJIT3.0)"/>
<rect x="162.2388059701493" y="191.54772713879714" width="14.029850746268655" height="306.4522728612028" fill="#FFB000" data-tooltip="9.41x baseline (YJIT 3.1.0dev)"/>
<line x1="162.2388059701493" y1="498.0" x2="162.2388059701493" y2="502.79999999999995" stroke="#000"/>
<text x="162.2388059701493" y="512.4" fill="#111" font-size="small" text-anchor="end" transform="rotate(-60, 162.2388059701493, 512.4)">
liquid-render
</text>
<rect x="190.29850746268662" y="465.2629163442736" width="14.029850746268655" height="32.737083655726344" fill="#785EF0" data-tooltip="1.01x baseline (MJIT3.0)"/>
<rect x="204.32835820895528" y="291.72826232009027" width="14.029850746268655" height="206.27173767990965" fill="#FFB000" data-tooltip="6.34x baseline (YJIT 3.1.0dev)"/>
<line x1="204.32835820895528" y1="498.0" x2="204.32835820895528" y2="502.79999999999995" stroke="#000"/>
<text x="204.32835820895528" y="512.4" fill="#111" font-size="small" text-anchor="end" transform="rotate(-60, 204.32835820895528, 512.4)">
mail
</text>
<rect x="232.3880597014926" y="464.0548574238125" width="14.029850746268655" height="33.94514257618741" fill="#785EF0" data-tooltip="1.04x baseline (MJIT3.0)"/>
<rect x="246.4179104477613" y="241.17873337600227" width="14.029850746268655" height="256.8212666239977" fill="#FFB000" data-tooltip="7.89x baseline (YJIT 3.1.0dev)"/>
<line x1="246.4179104477613" y1="498.0" x2="246.4179104477613" y2="502.79999999999995" stroke="#000"/>
<text x="246.4179104477613" y="512.4" fill="#111" font-size="small" text-anchor="end" transform="rotate(-60, 246.4179104477613, 512.4)">
psych-load
</text>
<rect x="274.47761194029863" y="443.5986809394443" width="14.029850746268655" height="54.401319060555586" fill="#785EF0" data-tooltip="1.67x baseline (MJIT3.0)"/>
<rect x="288.5074626865673" y="384.42605457784487" width="14.029850746268655" height="113.57394542215513" fill="#FFB000" data-tooltip="3.49x baseline (YJIT 3.1.0dev)"/>
<line x1="288.5074626865673" y1="498.0" x2="288.5074626865673" y2="502.79999999999995" stroke="#000"/>
<text x="288.5074626865673" y="512.4" fill="#111" font-size="small" text-anchor="end" transform="rotate(-60, 288.5074626865673, 512.4)">
railsbench
</text>
<rect x="316.5671641791046" y="462.0553544094135" width="14.029850746268655" height="35.944645590586454" fill="#785EF0" data-tooltip="1.10x baseline (MJIT3.0)"/>
<rect x="330.5970149253733" y="166.0606714364955" width="14.029850746268655" height="331.9393285635045" fill="#FFB000" data-tooltip="10.20x baseline (YJIT 3.1.0dev)"/>
<line x1="330.5970149253733" y1="498.0" x2="330.5970149253733" y2="502.79999999999995" stroke="#000"/>
<text x="330.5970149253733" y="512.4" fill="#111" font-size="small" text-anchor="end" transform="rotate(-60, 330.5970149253733, 512.4)">
binarytrees
</text>
<rect x="358.6567164179106" y="466.9397245268624" width="14.029850746268655" height="31.060275473137644" fill="#785EF0" data-tooltip="0.95x baseline (MJIT3.0)"/>
<rect x="372.6865671641793" y="105.4318684688106" width="14.029850746268655" height="392.56813153118935" fill="#FFB000" data-tooltip="12.06x baseline (YJIT 3.1.0dev)"/>
<line x1="372.6865671641793" y1="498.0" x2="372.6865671641793" y2="502.79999999999995" stroke="#000"/>
<text x="372.6865671641793" y="512.4" fill="#111" font-size="small" text-anchor="end" transform="rotate(-60, 372.6865671641793, 512.4)">
fannkuchredux
</text>
<rect x="400.74626865671667" y="464.3751648290821" width="14.029850746268655" height="33.62483517091786" fill="#785EF0" data-tooltip="1.03x baseline (MJIT3.0)"/>
<rect x="414.77611940298533" y="455.3176562216235" width="14.029850746268655" height="42.682343778376435" fill="#FFB000" data-tooltip="1.31x baseline (YJIT 3.1.0dev)"/>
<line x1="414.77611940298533" y1="498.0" x2="414.77611940298533" y2="502.79999999999995" stroke="#000"/>
<text x="414.77611940298533" y="512.4" fill="#111" font-size="small" text-anchor="end" transform="rotate(-60, 414.77611940298533, 512.4)">
jekyll
</text>
<rect x="442.83582089552266" y="464.1017403340818" width="14.029850746268655" height="33.898259665918154" fill="#785EF0" data-tooltip="1.04x baseline (MJIT3.0)"/>
<rect x="456.8656716417913" y="226.0097065674834" width="14.029850746268655" height="271.9902934325165" fill="#FFB000" data-tooltip="8.36x baseline (YJIT 3.1.0dev)"/>
<line x1="456.8656716417913" y1="498.0" x2="456.8656716417913" y2="502.79999999999995" stroke="#000"/>
<text x="456.8656716417913" y="512.4" fill="#111" font-size="small" text-anchor="end" transform="rotate(-60, 456.8656716417913, 512.4)">
lee
</text>
<rect x="484.92537313432865" y="466.4013120926795" width="14.029850746268655" height="31.59868790732051" fill="#785EF0" data-tooltip="0.97x baseline (MJIT3.0)"/>
<rect x="498.9552238805973" y="103.97652148581855" width="14.029850746268655" height="394.0234785141814" fill="#FFB000" data-tooltip="12.10x baseline (YJIT 3.1.0dev)"/>
<line x1="498.95522388059726" y1="498.0" x2="498.95522388059726" y2="502.79999999999995" stroke="#000"/>
<text x="498.95522388059726" y="512.4" fill="#111" font-size="small" text-anchor="end" transform="rotate(-60, 498.95522388059726, 512.4)">
nbody
</text>
<rect x="527.0149253731346" y="465.47784565879846" width="14.029850746268655" height="32.52215434120149" fill="#785EF0" data-tooltip="1.00x baseline (MJIT3.0)"/>
<rect x="541.0447761194032" y="354.5597076213304" width="14.029850746268655" height="143.44029237866954" fill="#FFB000" data-tooltip="4.41x baseline (YJIT 3.1.0dev)"/>
<line x1="541.0447761194031" y1="498.0" x2="541.0447761194031" y2="502.79999999999995" stroke="#000"/>
<text x="541.0447761194031" y="512.4" fill="#111" font-size="small" text-anchor="end" transform="rotate(-60, 541.0447761194031, 512.4)">
optcarrot
</text>
<rect x="569.1044776119404" y="456.52556089476025" width="14.029850746268655" height="41.474439105239675" fill="#785EF0" data-tooltip="1.27x baseline (MJIT3.0)"/>
<rect x="583.134328358209" y="337.8241436849822" width="14.029850746268655" height="160.17585631501777" fill="#FFB000" data-tooltip="4.92x baseline (YJIT 3.1.0dev)"/>
<line x1="583.1343283582089" y1="498.0" x2="583.1343283582089" y2="502.79999999999995" stroke="#000"/>
<text x="583.1343283582089" y="512.4" fill="#111" font-size="small" text-anchor="end" transform="rotate(-60, 583.1343283582089, 512.4)">
rubykon
</text>
<rect x="611.1940298507462" y="466.3230487248837" width="14.029850746268655" height="31.67695127511634" fill="#785EF0" data-tooltip="0.97x baseline (MJIT3.0)"/>
<rect x="625.2238805970148" y="322.2313119791884" width="14.029850746268655" height="175.76868802081157" fill="#FFB000" data-tooltip="5.40x baseline (YJIT 3.1.0dev)"/>
<line x1="625.2238805970147" y1="498.0" x2="625.2238805970147" y2="502.79999999999995" stroke="#000"/>
<text x="625.2238805970147" y="512.4" fill="#111" font-size="small" text-anchor="end" transform="rotate(-60, 625.2238805970147, 512.4)">
30k_ifelse
</text>
<rect x="653.283582089552" y="465.04093696619873" width="14.029850746268655" height="32.95906303380121" fill="#785EF0" data-tooltip="1.01x baseline (MJIT3.0)"/>
<rect x="667.3134328358207" y="311.95085890426697" width="14.029850746268655" height="186.04914109573295" fill="#FFB000" data-tooltip="5.72x baseline (YJIT 3.1.0dev)"/>
<line x1="667.3134328358205" y1="498.0" x2="667.3134328358205" y2="502.79999999999995" stroke="#000"/>
<text x="667.3134328358205" y="512.4" fill="#111" font-size="small" text-anchor="end" transform="rotate(-60, 667.3134328358205, 512.4)">
30k_methods
</text>
<rect x="695.3731343283579" y="466.76607175055557" width="14.029850746268655" height="31.233928249444336" fill="#785EF0" data-tooltip="0.96x baseline (MJIT3.0)"/>
<rect x="709.4029850746265" y="101.96640286052585" width="14.029850746268655" height="396.0335971394741" fill="#FFB000" data-tooltip="12.17x baseline (YJIT 3.1.0dev)"/>
<line x1="709.4029850746264" y1="498.0" x2="709.4029850746264" y2="502.79999999999995" stroke="#000"/>
<text x="709.4029850746264" y="512.4" fill="#111" font-size="small" text-anchor="end" transform="rotate(-60, 709.4029850746264, 512.4)">
cfunc_itself
</text>
<rect x="737.4626865671637" y="466.6449763023795" width="14.029850746268655" height="31.355023697620386" fill="#785EF0" data-tooltip="0.96x baseline (MJIT3.0)"/>
<rect x="751.4925373134323" y="101.47656615688929" width="14.029850746268655" height="396.5234338431107" fill="#FFB000" data-tooltip="12.18x baseline (YJIT 3.1.0dev)"/>
<line x1="751.4925373134322" y1="498.0" x2="751.4925373134322" y2="502.79999999999995" stroke="#000"/>
<text x="751.4925373134322" y="512.4" fill="#111" font-size="small" text-anchor="end" transform="rotate(-60, 751.4925373134322, 512.4)">
fib
</text>
<rect x="779.5522388059695" y="466.7510240599752" width="14.029850746268655" height="31.24897594002471" fill="#785EF0" data-tooltip="0.96x baseline (MJIT3.0)"/>
<rect x="793.5820895522382" y="101.21222326420235" width="14.029850746268655" height="396.7877767357976" fill="#FFB000" data-tooltip="12.19x baseline (YJIT 3.1.0dev)"/>
<line x1="793.5820895522381" y1="498.0" x2="793.5820895522381" y2="502.79999999999995" stroke="#000"/>
<text x="793.5820895522381" y="512.4" fill="#111" font-size="small" text-anchor="end" transform="rotate(-60, 793.5820895522381, 512.4)">
getivar
</text>
<rect x="821.6417910447755" y="466.66037003421064" width="14.029850746268655" height="31.339629965789285" fill="#785EF0" data-tooltip="0.96x baseline (MJIT3.0)"/>
<rect x="835.6716417910441" y="100.19999999999999" width="14.029850746268655" height="397.79999999999995" fill="#FFB000" data-tooltip="12.22x baseline (YJIT 3.1.0dev)"/>
<line x1="835.671641791044" y1="498.0" x2="835.671641791044" y2="502.79999999999995" stroke="#000"/>
<text x="835.671641791044" y="512.4" fill="#111" font-size="small" text-anchor="end" transform="rotate(-60, 835.671641791044, 512.4)">
keyword_args
</text>
<rect x="863.7313432835813" y="466.7441636095726" width="14.029850746268655" height="31.255836390427405" fill="#785EF0" data-tooltip="0.96x baseline (MJIT3.0)"/>
<rect x="877.7611940298499" y="101.95441441132881" width="14.029850746268655" height="396.04558558867114" fill="#FFB000" data-tooltip="12.17x baseline (YJIT 3.1.0dev)"/>
<line x1="877.7611940298498" y1="498.0" x2="877.7611940298498" y2="502.79999999999995" stroke="#000"/>
<text x="877.7611940298498" y="512.4" fill="#111" font-size="small" text-anchor="end" transform="rotate(-60, 877.7611940298498, 512.4)">
respond_to
</text>
<rect x="905.8208955223871" y="466.93403282742315" width="14.029850746268655" height="31.06596717257682" fill="#785EF0" data-tooltip="0.95x baseline (MJIT3.0)"/>
<rect x="919.8507462686557" y="102.66914895966897" width="14.029850746268655" height="395.33085104033097" fill="#FFB000" data-tooltip="12.15x baseline (YJIT 3.1.0dev)"/>
<line x1="919.8507462686556" y1="498.0" x2="919.8507462686556" y2="502.79999999999995" stroke="#000"/>
<text x="919.8507462686556" y="512.4" fill="#111" font-size="small" text-anchor="end" transform="rotate(-60, 919.8507462686556, 512.4)">
setivar
</text>
<rect x="947.9104477611929" y="464.26370450554623" width="14.029850746268655" height="33.73629549445374" fill="#785EF0" data-tooltip="1.04x baseline (MJIT3.0)"/>
<rect x="961.9402985074615" y="268.8866884198589" width="14.029850746268655" height="229.11331158014104" fill="#FFB000" data-tooltip="7.04x baseline (YJIT 3.1.0dev)"/>
<line x1="961.9402985074614" y1="498.0" x2="961.9402985074614" y2="502.79999999999995" stroke="#000"/>
<text x="961.9402985074614" y="512.4" fill="#111" font-size="small" text-anchor="end" transform="rotate(-60, 961.9402985074614, 512.4)" font-style="italic">
geomean*
</text>
<line x1="50.0" y1="465.44944494868383" x2="990.0" y2="465.44944494868383" stroke="#648FFF" stroke-width="2"/>
</svg>