<svg viewBox="0 0 1000 600" xmlns="http://www.w3.org/2000/svg" xmlns:xlink="http://www.w3.org/1999/xlink" width="100%" height="100%">

<rect x="50.0" y="30.0" width="940.0" height="467.99999999999994" stroke="#000" fill="#EEE"/>
<line x1="42.0" y1="497.9999999999999" x2="50.0" y2="497.9999999999999" stroke="#000"/>
<text x="26.000000000000004" y="497.9999999999999" text-anchor="end" font-weight="bold" font-size="small" fill="#111">
0.0
</text>
<line x1="42.0" y1="425.1300046714181" x2="50.0" y2="425.1300046714181" stroke="#000"/>
<text x="26.000000000000004" y="425.1300046714181" text-anchor="end" font-weight="bold" font-size="small" fill="#111">
2.0
</text>
<line x1="42.0" y1="352.2600093428362" x2="50.0" y2="352.2600093428362" stroke="#000"/>
<text x="26.000000000000004" y="352.2600093428362" text-anchor="end" font-weight="bold" font-size="small" fill="#111">
4.0
</text>
<line x1="42.0" y1="279.39001401425435" x2="50.0" y2="279.39001401425435" stroke="#000"/>
<text x="26.000000000000004" y="279.39001401425435" text-anchor="end" font-weight="bold" font-size="small" fill="#111">
6.0
</text>
<line x1="42.0" y1="206.52001868567245" x2="50.0" y2="206.52001868567245" stroke="#000"/>
<text x="26.000000000000004" y="206.52001868567245" text-anchor="end" font-weight="bold" font-size="small" fill="#111">
8.0
</text>
<line x1="42.0" y1="133.6500233570906" x2="50.0" y2="133.6500233570906" stroke="#000"/>
<text x="26.000000000000004" y="133.6500233570906" text-anchor="end" font-weight="bold" font-size="small" fill="#111">
10.0
</text>
<rect x="268.5" y="36.00000000000001" width="80.0" height="18.0" fill="#7070f8" stroke="#888"/>
<text x="308.5" y="52.50000000000001" font-size="small" text-anchor="middle" font-weight="bold" fill="#EEE">
No JIT
</text>
<rect x="691.4999999999999" y="36.00000000000001" width="80.0" height="18.0" fill="orange" stroke="#888"/>
<text x="731.4999999999999" y="52.50000000000001" font-size="small" text-anchor="middle" font-weight="bold" fill="#EEE">
YJIT
</text>
<rect x="97.0" y="461.56500233570904" width="8.057142857142857" height="36.43499766429093" fill="#7070f8" data-tooltip="1.00x baseline speed (No JIT)"/>
<line x1="97.0" y1="460.9491436490214" x2="105.05714285714286" y2="460.9491436490214" stroke="#000"/>
<line x1="97.0" y1="462.1808610223967" x2="105.05714285714286" y2="462.1808610223967" stroke="#000"/>
<line x1="101.02857142857142" y1="460.9491436490214" x2="101.02857142857142" y2="462.1808610223967" stroke="#000"/>
<rect x="105.05714285714286" y="424.6780659080381" width="8.057142857142857" height="73.32193409196194" fill="orange" data-tooltip="2.01x baseline speed (YJIT)"/>
<line x1="105.05714285714286" y1="421.521943945331" x2="113.11428571428573" y2="421.521943945331" stroke="#000"/>
<line x1="105.05714285714286" y1="427.83418787074515" x2="113.11428571428573" y2="427.83418787074515" stroke="#000"/>
<line x1="109.08571428571429" y1="421.521943945331" x2="109.08571428571429" y2="427.83418787074515" stroke="#000"/>
<line x1="109.08571428571429" y1="498.0" x2="109.08571428571429" y2="502.79999999999995" stroke="#000"/>
<text x="109.08571428571429" y="512.4" fill="#111" font-size="small" font-family="monospace" font-weight="bold" text-anchor="end" transform="rotate(-60, 109.08571428571429, 512.4)">
activerecord
</text>
<rect x="121.17142857142856" y="461.56500233570904" width="8.057142857142857" height="36.43499766429093" fill="#7070f8" data-tooltip="1.00x baseline speed (No JIT)"/>
<line x1="121.17142857142856" y1="461.4839822169197" x2="129.22857142857143" y2="461.4839822169197" stroke="#000"/>
<line x1="121.17142857142856" y1="461.6460224544984" x2="129.22857142857143" y2="461.6460224544984" stroke="#000"/>
<line x1="125.2" y1="461.4839822169197" x2="125.2" y2="461.6460224544984" stroke="#000"/>
<rect x="129.22857142857143" y="439.8015936195504" width="8.057142857142857" height="58.19840638044961" fill="orange" data-tooltip="1.60x baseline speed (YJIT)"/>
<line x1="129.22857142857143" y1="439.56841323255907" x2="137.28571428571425" y2="439.56841323255907" stroke="#000"/>
<line x1="129.22857142857143" y1="440.03477400654174" x2="137.28571428571425" y2="440.03477400654174" stroke="#000"/>
<line x1="133.25714285714284" y1="439.56841323255907" x2="133.25714285714284" y2="440.03477400654174" stroke="#000"/>
<line x1="133.25714285714284" y1="498.0" x2="133.25714285714284" y2="502.79999999999995" stroke="#000"/>
<text x="133.25714285714284" y="512.4" fill="#111" font-size="small" font-family="monospace" font-weight="bold" text-anchor="end" transform="rotate(-60, 133.25714285714284, 512.4)">
chunky-png
</text>
<rect x="145.34285714285713" y="461.56500233570904" width="8.057142857142857" height="36.43499766429093" fill="#7070f8" data-tooltip="1.00x baseline speed (No JIT)"/>
<line x1="145.34285714285713" y1="457.43291864875175" x2="153.39999999999998" y2="457.43291864875175" stroke="#000"/>
<line x1="145.34285714285713" y1="465.6970860226664" x2="153.39999999999998" y2="465.6970860226664" stroke="#000"/>
<line x1="149.37142857142857" y1="457.43291864875175" x2="149.37142857142857" y2="465.6970860226664" stroke="#000"/>
<rect x="153.39999999999998" y="431.2783605122662" width="8.057142857142857" height="66.72163948773368" fill="orange" data-tooltip="1.83x baseline speed (YJIT)"/>
<line x1="153.39999999999998" y1="414.5531620438631" x2="161.45714285714283" y2="414.5531620438631" stroke="#000"/>
<line x1="153.39999999999998" y1="448.0035589806693" x2="161.45714285714283" y2="448.0035589806693" stroke="#000"/>
<line x1="157.42857142857142" y1="414.5531620438631" x2="157.42857142857142" y2="448.0035589806693" stroke="#000"/>
<line x1="157.42857142857142" y1="498.0" x2="157.42857142857142" y2="502.79999999999995" stroke="#000"/>
<text x="157.42857142857142" y="512.4" fill="#111" font-size="small" font-family="monospace" font-weight="bold" text-anchor="end" transform="rotate(-60, 157.42857142857142, 512.4)">
erubi-rails
</text>
<rect x="169.51428571428573" y="461.56500233570904" width="8.057142857142857" height="36.43499766429093" fill="#7070f8" data-tooltip="1.00x baseline speed (No JIT)"/>
<line x1="169.51428571428573" y1="461.2829633872313" x2="177.57142857142858" y2="461.2829633872313" stroke="#000"/>
<line x1="169.51428571428573" y1="461.8470412841868" x2="177.57142857142858" y2="461.8470412841868" stroke="#000"/>
<line x1="173.54285714285717" y1="461.2829633872313" x2="173.54285714285717" y2="461.8470412841868" stroke="#000"/>
<rect x="177.57142857142858" y="438.3856706826938" width="8.057142857142857" height="59.61432931730618" fill="orange" data-tooltip="1.64x baseline speed (YJIT)"/>
<line x1="177.57142857142858" y1="437.16212413299536" x2="185.62857142857143" y2="437.16212413299536" stroke="#000"/>
<line x1="177.57142857142858" y1="439.60921723239215" x2="185.62857142857143" y2="439.60921723239215" stroke="#000"/>
<line x1="181.60000000000002" y1="437.16212413299536" x2="181.60000000000002" y2="439.60921723239215" stroke="#000"/>
<line x1="181.60000000000002" y1="498.0" x2="181.60000000000002" y2="502.79999999999995" stroke="#000"/>
<text x="181.60000000000002" y="512.4" fill="#111" font-size="small" font-family="monospace" font-weight="bold" text-anchor="end" transform="rotate(-60, 181.60000000000002, 512.4)">
hexapdf
</text>
<rect x="193.68571428571428" y="461.56500233570904" width="8.057142857142857" height="36.43499766429093" fill="#7070f8" data-tooltip="1.00x baseline speed (No JIT)"/>
<line x1="193.68571428571428" y1="461.347810469839" x2="201.74285714285713" y2="461.347810469839" stroke="#000"/>
<line x1="193.68571428571428" y1="461.78219420157916" x2="201.74285714285713" y2="461.78219420157916" stroke="#000"/>
<line x1="197.71428571428572" y1="461.347810469839" x2="197.71428571428572" y2="461.78219420157916" stroke="#000"/>
<rect x="201.74285714285713" y="446.7851473392332" width="8.057142857142857" height="51.2148526607667" fill="orange" data-tooltip="1.41x baseline speed (YJIT)"/>
<line x1="201.74285714285713" y1="446.35388372077347" x2="209.79999999999998" y2="446.35388372077347" stroke="#000"/>
<line x1="201.74285714285713" y1="447.216410957693" x2="209.79999999999998" y2="447.216410957693" stroke="#000"/>
<line x1="205.77142857142857" y1="446.35388372077347" x2="205.77142857142857" y2="447.216410957693" stroke="#000"/>
<line x1="205.77142857142857" y1="498.0" x2="205.77142857142857" y2="502.79999999999995" stroke="#000"/>
<text x="205.77142857142857" y="512.4" fill="#111" font-size="small" font-family="monospace" font-weight="bold" text-anchor="end" transform="rotate(-60, 205.77142857142857, 512.4)">
liquid-c
</text>
<rect x="217.85714285714286" y="461.56500233570904" width="8.057142857142857" height="36.43499766429093" fill="#7070f8" data-tooltip="1.00x baseline speed (No JIT)"/>
<line x1="217.85714285714286" y1="460.8874418925066" x2="225.9142857142857" y2="460.8874418925066" stroke="#000"/>
<line x1="217.85714285714286" y1="462.24256277891146" x2="225.9142857142857" y2="462.24256277891146" stroke="#000"/>
<line x1="221.8857142857143" y1="460.8874418925066" x2="221.8857142857143" y2="462.24256277891146" stroke="#000"/>
<rect x="225.9142857142857" y="447.2149488207095" width="8.057142857142857" height="50.78505117929052" fill="orange" data-tooltip="1.39x baseline speed (YJIT)"/>
<line x1="225.9142857142857" y1="445.4981060768861" x2="233.97142857142856" y2="445.4981060768861" stroke="#000"/>
<line x1="225.9142857142857" y1="448.93179156453283" x2="233.97142857142856" y2="448.93179156453283" stroke="#000"/>
<line x1="229.94285714285715" y1="445.4981060768861" x2="229.94285714285715" y2="448.93179156453283" stroke="#000"/>
<line x1="229.94285714285715" y1="498.0" x2="229.94285714285715" y2="502.79999999999995" stroke="#000"/>
<text x="229.94285714285715" y="512.4" fill="#111" font-size="small" font-family="monospace" font-weight="bold" text-anchor="end" transform="rotate(-60, 229.94285714285715, 512.4)">
liquid-compile
</text>
<rect x="242.02857142857144" y="461.56500233570904" width="8.057142857142857" height="36.43499766429093" fill="#7070f8" data-tooltip="1.00x baseline speed (No JIT)"/>
<line x1="242.02857142857144" y1="461.1947846340461" x2="250.0857142857143" y2="461.1947846340461" stroke="#000"/>
<line x1="242.02857142857144" y1="461.93522003737206" x2="250.0857142857143" y2="461.93522003737206" stroke="#000"/>
<line x1="246.05714285714285" y1="461.1947846340461" x2="246.05714285714285" y2="461.93522003737206" stroke="#000"/>
<rect x="250.0857142857143" y="427.6917661291761" width="8.057142857142857" height="70.30823387082381" fill="orange" data-tooltip="1.93x baseline speed (YJIT)"/>
<line x1="250.0857142857143" y1="426.9535395097939" x2="258.14285714285717" y2="426.9535395097939" stroke="#000"/>
<line x1="250.0857142857143" y1="428.4299927485583" x2="258.14285714285717" y2="428.4299927485583" stroke="#000"/>
<line x1="254.11428571428573" y1="426.9535395097939" x2="254.11428571428573" y2="428.4299927485583" stroke="#000"/>
<line x1="254.11428571428573" y1="498.0" x2="254.11428571428573" y2="502.79999999999995" stroke="#000"/>
<text x="254.11428571428573" y="512.4" fill="#111" font-size="small" font-family="monospace" font-weight="bold" text-anchor="end" transform="rotate(-60, 254.11428571428573, 512.4)">
liquid-render
</text>
<rect x="266.2" y="461.56500233570904" width="8.057142857142857" height="36.43499766429093" fill="#7070f8" data-tooltip="1.00x baseline speed (No JIT)"/>
<line x1="266.2" y1="461.54691838392296" x2="274.25714285714287" y2="461.54691838392296" stroke="#000"/>
<line x1="266.2" y1="461.5830862874952" x2="274.25714285714287" y2="461.5830862874952" stroke="#000"/>
<line x1="270.22857142857146" y1="461.54691838392296" x2="270.22857142857146" y2="461.5830862874952" stroke="#000"/>
<rect x="274.25714285714287" y="448.7840191399486" width="8.057142857142857" height="49.215980860051346" fill="orange" data-tooltip="1.35x baseline speed (YJIT)"/>
<line x1="274.25714285714287" y1="448.72608343037376" x2="282.31428571428575" y2="448.72608343037376" stroke="#000"/>
<line x1="274.25714285714287" y1="448.8419548495234" x2="282.31428571428575" y2="448.8419548495234" stroke="#000"/>
<line x1="278.2857142857143" y1="448.72608343037376" x2="278.2857142857143" y2="448.8419548495234" stroke="#000"/>
<line x1="278.2857142857143" y1="498.0" x2="278.2857142857143" y2="502.79999999999995" stroke="#000"/>
<text x="278.2857142857143" y="512.4" fill="#111" font-size="small" font-family="monospace" font-weight="bold" text-anchor="end" transform="rotate(-60, 278.2857142857143, 512.4)">
mail
</text>
<rect x="290.37142857142857" y="461.56500233570904" width="8.057142857142857" height="36.43499766429093" fill="#7070f8" data-tooltip="1.00x baseline speed (No JIT)"/>
<line x1="290.37142857142857" y1="461.54476886315064" x2="298.42857142857144" y2="461.54476886315064" stroke="#000"/>
<line x1="290.37142857142857" y1="461.58523580826744" x2="298.42857142857144" y2="461.58523580826744" stroke="#000"/>
<line x1="294.4" y1="461.54476886315064" x2="294.4" y2="461.58523580826744" stroke="#000"/>
<rect x="298.42857142857144" y="444.3893841996089" width="8.057142857142857" height="53.610615800391024" fill="orange" data-tooltip="1.47x baseline speed (YJIT)"/>
<line x1="298.42857142857144" y1="444.3420777699278" x2="306.4857142857143" y2="444.3420777699278" stroke="#000"/>
<line x1="298.42857142857144" y1="444.43669062929007" x2="306.4857142857143" y2="444.43669062929007" stroke="#000"/>
<line x1="302.45714285714286" y1="444.3420777699278" x2="302.45714285714286" y2="444.43669062929007" stroke="#000"/>
<line x1="302.45714285714286" y1="498.0" x2="302.45714285714286" y2="502.79999999999995" stroke="#000"/>
<text x="302.45714285714286" y="512.4" fill="#111" font-size="small" font-family="monospace" font-weight="bold" text-anchor="end" transform="rotate(-60, 302.45714285714286, 512.4)">
psych-load
</text>
<rect x="314.54285714285714" y="461.56500233570904" width="8.057142857142857" height="36.43499766429093" fill="#7070f8" data-tooltip="1.00x baseline speed (No JIT)"/>
<line x1="314.54285714285714" y1="461.3980825512761" x2="322.6" y2="461.3980825512761" stroke="#000"/>
<line x1="314.54285714285714" y1="461.73192212014203" x2="322.6" y2="461.73192212014203" stroke="#000"/>
<line x1="318.57142857142856" y1="461.3980825512761" x2="318.57142857142856" y2="461.73192212014203" stroke="#000"/>
<rect x="322.6" y="437.70410370394495" width="8.057142857142857" height="60.29589629605497" fill="orange" data-tooltip="1.65x baseline speed (YJIT)"/>
<line x1="322.6" y1="437.03510451230426" x2="330.65714285714284" y2="437.03510451230426" stroke="#000"/>
<line x1="322.6" y1="438.37310289558565" x2="330.65714285714284" y2="438.37310289558565" stroke="#000"/>
<line x1="326.62857142857143" y1="437.03510451230426" x2="326.62857142857143" y2="438.37310289558565" stroke="#000"/>
<line x1="326.62857142857143" y1="498.0" x2="326.62857142857143" y2="502.79999999999995" stroke="#000"/>
<text x="326.62857142857143" y="512.4" fill="#111" font-size="small" font-family="monospace" font-weight="bold" text-anchor="end" transform="rotate(-60, 326.62857142857143, 512.4)">
railsbench
</text>
<rect x="338.71428571428567" y="461.56500233570904" width="8.057142857142857" height="36.43499766429093" fill="#7070f8" data-tooltip="1.00x baseline speed (No JIT)"/>
<line x1="338.71428571428567" y1="460.4898745958738" x2="346.77142857142854" y2="460.4898745958738" stroke="#000"/>
<line x1="338.71428571428567" y1="462.6401300755443" x2="346.77142857142854" y2="462.6401300755443" stroke="#000"/>
<line x1="342.74285714285713" y1="460.4898745958738" x2="342.74285714285713" y2="462.6401300755443" stroke="#000"/>
<rect x="346.77142857142854" y="440.8663967468945" width="8.057142857142857" height="57.13360325310544" fill="orange" data-tooltip="1.57x baseline speed (YJIT)"/>
<line x1="346.77142857142854" y1="436.0730296082722" x2="354.8285714285714" y2="436.0730296082722" stroke="#000"/>
<line x1="346.77142857142854" y1="445.65976388551684" x2="354.8285714285714" y2="445.65976388551684" stroke="#000"/>
<line x1="350.8" y1="436.0730296082722" x2="350.8" y2="445.65976388551684" stroke="#000"/>
<line x1="350.8" y1="498.0" x2="350.8" y2="502.79999999999995" stroke="#000"/>
<text x="350.8" y="512.4" fill="#111" font-size="small" font-family="monospace" font-weight="bold" text-anchor="end" transform="rotate(-60, 350.8, 512.4)">
ruby-lsp
</text>
<rect x="362.88571428571424" y="461.56500233570904" width="8.057142857142857" height="36.43499766429093" fill="#7070f8" data-tooltip="1.00x baseline speed (No JIT)"/>
<line x1="362.88571428571424" y1="461.2843313329558" x2="370.9428571428571" y2="461.2843313329558" stroke="#000"/>
<line x1="362.88571428571424" y1="461.8456733384623" x2="370.9428571428571" y2="461.8456733384623" stroke="#000"/>
<line x1="366.9142857142857" y1="461.2843313329558" x2="366.9142857142857" y2="461.8456733384623" stroke="#000"/>
<rect x="370.9428571428571" y="450.18231346713986" width="8.057142857142857" height="47.81768653286008" fill="orange" data-tooltip="1.31x baseline speed (YJIT)"/>
<line x1="370.9428571428571" y1="449.5257108549042" x2="379.0" y2="449.5257108549042" stroke="#000"/>
<line x1="370.9428571428571" y1="450.83891607937545" x2="379.0" y2="450.83891607937545" stroke="#000"/>
<line x1="374.9714285714286" y1="449.5257108549042" x2="374.9714285714286" y2="450.83891607937545" stroke="#000"/>
<line x1="374.9714285714286" y1="498.0" x2="374.9714285714286" y2="502.79999999999995" stroke="#000"/>
<text x="374.9714285714286" y="512.4" fill="#111" font-size="small" font-family="monospace" font-weight="bold" text-anchor="end" transform="rotate(-60, 374.9714285714286, 512.4)">
sequel
</text>
<rect x="387.0571428571429" y="461.56500233570904" width="8.057142857142857" height="36.43499766429093" fill="#7070f8" data-tooltip="1.00x baseline speed (No JIT)"/>
<line x1="387.0571428571429" y1="461.54755547412026" x2="395.11428571428576" y2="461.54755547412026" stroke="#000"/>
<line x1="387.0571428571429" y1="461.5824491972978" x2="395.11428571428576" y2="461.5824491972978" stroke="#000"/>
<line x1="391.0857142857143" y1="461.54755547412026" x2="391.0857142857143" y2="461.5824491972978" stroke="#000"/>
<rect x="395.11428571428576" y="421.8275721163809" width="8.057142857142857" height="76.17242788361901" fill="orange" data-tooltip="2.09x baseline speed (YJIT)"/>
<line x1="395.11428571428576" y1="421.7595748025662" x2="403.17142857142863" y2="421.7595748025662" stroke="#000"/>
<line x1="395.11428571428576" y1="421.8955694301956" x2="403.17142857142863" y2="421.8955694301956" stroke="#000"/>
<line x1="399.14285714285717" y1="421.7595748025662" x2="399.14285714285717" y2="421.8955694301956" stroke="#000"/>
<line x1="399.14285714285717" y1="498.0" x2="399.14285714285717" y2="502.79999999999995" stroke="#000"/>
<text x="399.14285714285717" y="512.4" fill="#111" font-size="small" font-family="monospace" font-weight="bold" text-anchor="end" transform="rotate(-60, 399.14285714285717, 512.4)">
binarytrees
</text>
<rect x="411.2285714285714" y="461.56500233570904" width="8.057142857142857" height="36.43499766429093" fill="#7070f8" data-tooltip="1.00x baseline speed (No JIT)"/>
<line x1="411.2285714285714" y1="461.55361087863963" x2="419.2857142857143" y2="461.55361087863963" stroke="#000"/>
<line x1="411.2285714285714" y1="461.5763937927785" x2="419.2857142857143" y2="461.5763937927785" stroke="#000"/>
<line x1="415.2571428571428" y1="461.55361087863963" x2="415.2571428571428" y2="461.5763937927785" stroke="#000"/>
<rect x="419.2857142857143" y="453.6741362229032" width="8.057142857142857" height="44.325863777096735" fill="orange" data-tooltip="1.22x baseline speed (YJIT)"/>
<line x1="419.2857142857143" y1="453.6524199160065" x2="427.34285714285716" y2="453.6524199160065" stroke="#000"/>
<line x1="419.2857142857143" y1="453.6958525297998" x2="427.34285714285716" y2="453.6958525297998" stroke="#000"/>
<line x1="423.3142857142857" y1="453.6524199160065" x2="423.3142857142857" y2="453.6958525297998" stroke="#000"/>
<line x1="423.3142857142857" y1="498.0" x2="423.3142857142857" y2="502.79999999999995" stroke="#000"/>
<text x="423.3142857142857" y="512.4" fill="#111" font-size="small" font-family="monospace" font-weight="bold" text-anchor="end" transform="rotate(-60, 423.3142857142857, 512.4)">
erubi
</text>
<rect x="435.40000000000003" y="461.56500233570904" width="8.057142857142857" height="36.43499766429093" fill="#7070f8" data-tooltip="1.00x baseline speed (No JIT)"/>
<line x1="435.40000000000003" y1="460.76488930638595" x2="443.45714285714286" y2="460.76488930638595" stroke="#000"/>
<line x1="435.40000000000003" y1="462.3651153650321" x2="443.45714285714286" y2="462.3651153650321" stroke="#000"/>
<line x1="439.42857142857144" y1="460.76488930638595" x2="439.42857142857144" y2="462.3651153650321" stroke="#000"/>
<rect x="443.45714285714286" y="456.3238735180719" width="8.057142857142857" height="41.67612648192811" fill="orange" data-tooltip="1.14x baseline speed (YJIT)"/>
<line x1="443.45714285714286" y1="455.4086207129511" x2="451.51428571428573" y2="455.4086207129511" stroke="#000"/>
<line x1="443.45714285714286" y1="457.23912632319264" x2="451.51428571428573" y2="457.23912632319264" stroke="#000"/>
<line x1="447.4857142857143" y1="455.4086207129511" x2="447.4857142857143" y2="457.23912632319264" stroke="#000"/>
<line x1="447.4857142857143" y1="498.0" x2="447.4857142857143" y2="502.79999999999995" stroke="#000"/>
<text x="447.4857142857143" y="512.4" fill="#111" font-size="small" font-family="monospace" font-weight="bold" text-anchor="end" transform="rotate(-60, 447.4857142857143, 512.4)">
etanni
</text>
<rect x="459.5714285714285" y="461.56500233570904" width="8.057142857142857" height="36.43499766429093" fill="#7070f8" data-tooltip="1.00x baseline speed (No JIT)"/>
<line x1="459.5714285714285" y1="461.3743865014155" x2="467.6285714285714" y2="461.3743865014155" stroke="#000"/>
<line x1="459.5714285714285" y1="461.75561817000266" x2="467.6285714285714" y2="461.75561817000266" stroke="#000"/>
<line x1="463.59999999999997" y1="461.3743865014155" x2="463.59999999999997" y2="461.75561817000266" stroke="#000"/>
<rect x="467.6285714285714" y="385.8131543109387" width="8.057142857142857" height="112.18684568906124" fill="orange" data-tooltip="3.08x baseline speed (YJIT)"/>
<line x1="467.6285714285714" y1="385.2210831368981" x2="475.68571428571425" y2="385.2210831368981" stroke="#000"/>
<line x1="467.6285714285714" y1="386.4052254849794" x2="475.68571428571425" y2="386.4052254849794" stroke="#000"/>
<line x1="471.65714285714284" y1="385.2210831368981" x2="471.65714285714284" y2="386.4052254849794" stroke="#000"/>
<line x1="471.65714285714284" y1="498.0" x2="471.65714285714284" y2="502.79999999999995" stroke="#000"/>
<text x="471.65714285714284" y="512.4" fill="#111" font-size="small" font-family="monospace" font-weight="bold" text-anchor="end" transform="rotate(-60, 471.65714285714284, 512.4)">
fannkuchredux
</text>
<rect x="483.74285714285713" y="461.56500233570904" width="8.057142857142857" height="36.43499766429093" fill="#7070f8" data-tooltip="1.00x baseline speed (No JIT)"/>
<line x1="483.74285714285713" y1="460.987898735565" x2="491.8" y2="460.987898735565" stroke="#000"/>
<line x1="483.74285714285713" y1="462.1421059358531" x2="491.8" y2="462.1421059358531" stroke="#000"/>
<line x1="487.7714285714286" y1="460.987898735565" x2="487.7714285714286" y2="462.1421059358531" stroke="#000"/>
<rect x="491.8" y="458.6897234313415" width="8.057142857142857" height="39.310276568658445" fill="orange" data-tooltip="1.08x baseline speed (YJIT)"/>
<line x1="491.8" y1="458.0644421306029" x2="499.8571428571429" y2="458.0644421306029" stroke="#000"/>
<line x1="491.8" y1="459.3150047320801" x2="499.8571428571429" y2="459.3150047320801" stroke="#000"/>
<line x1="495.8285714285715" y1="458.0644421306029" x2="495.8285714285715" y2="459.3150047320801" stroke="#000"/>
<line x1="495.8285714285715" y1="498.0" x2="495.8285714285715" y2="502.79999999999995" stroke="#000"/>
<text x="495.8285714285715" y="512.4" fill="#111" font-size="small" font-family="monospace" font-weight="bold" text-anchor="end" transform="rotate(-60, 495.8285714285715, 512.4)">
fluentd
</text>
<rect x="507.91428571428565" y="461.56500233570904" width="8.057142857142857" height="36.43499766429093" fill="#7070f8" data-tooltip="1.00x baseline speed (No JIT)"/>
<line x1="507.91428571428565" y1="461.1334778801953" x2="515.9714285714285" y2="461.1334778801953" stroke="#000"/>
<line x1="507.91428571428565" y1="461.99652679122283" x2="515.9714285714285" y2="461.99652679122283" stroke="#000"/>
<line x1="511.942857142857" y1="461.1334778801953" x2="511.942857142857" y2="461.99652679122283" stroke="#000"/>
<rect x="515.9714285714285" y="445.3559357180197" width="8.057142857142857" height="52.644064281980256" fill="orange" data-tooltip="1.44x baseline speed (YJIT)"/>
<line x1="515.9714285714285" y1="444.26505001610485" x2="524.0285714285714" y2="444.26505001610485" stroke="#000"/>
<line x1="515.9714285714285" y1="446.4468214199345" x2="524.0285714285714" y2="446.4468214199345" stroke="#000"/>
<line x1="519.9999999999999" y1="444.26505001610485" x2="519.9999999999999" y2="446.4468214199345" stroke="#000"/>
<line x1="519.9999999999999" y1="498.0" x2="519.9999999999999" y2="502.79999999999995" stroke="#000"/>
<text x="519.9999999999999" y="512.4" fill="#111" font-size="small" font-family="monospace" font-weight="bold" text-anchor="end" transform="rotate(-60, 519.9999999999999, 512.4)">
lee
</text>
<rect x="532.0857142857143" y="461.56500233570904" width="8.057142857142857" height="36.43499766429093" fill="#7070f8" data-tooltip="1.00x baseline speed (No JIT)"/>
<line x1="532.0857142857143" y1="461.5010332265724" x2="540.1428571428571" y2="461.5010332265724" stroke="#000"/>
<line x1="532.0857142857143" y1="461.62897144484566" x2="540.1428571428571" y2="461.62897144484566" stroke="#000"/>
<line x1="536.1142857142856" y1="461.5010332265724" x2="536.1142857142856" y2="461.62897144484566" stroke="#000"/>
<rect x="540.1428571428571" y="435.69610133570336" width="8.057142857142857" height="62.303898664296604" fill="orange" data-tooltip="1.71x baseline speed (YJIT)"/>
<line x1="540.1428571428571" y1="435.5839664672721" x2="548.2" y2="435.5839664672721" stroke="#000"/>
<line x1="540.1428571428571" y1="435.8082362041347" x2="548.2" y2="435.8082362041347" stroke="#000"/>
<line x1="544.1714285714286" y1="435.5839664672721" x2="544.1714285714286" y2="435.8082362041347" stroke="#000"/>
<line x1="544.1714285714286" y1="498.0" x2="544.1714285714286" y2="502.79999999999995" stroke="#000"/>
<text x="544.1714285714286" y="512.4" fill="#111" font-size="small" font-family="monospace" font-weight="bold" text-anchor="end" transform="rotate(-60, 544.1714285714286, 512.4)">
nbody
</text>
<rect x="556.2571428571428" y="461.56500233570904" width="8.057142857142857" height="36.43499766429093" fill="#7070f8" data-tooltip="1.00x baseline speed (No JIT)"/>
<line x1="556.2571428571428" y1="461.26200357110696" x2="564.3142857142857" y2="461.26200357110696" stroke="#000"/>
<line x1="556.2571428571428" y1="461.8680011003111" x2="564.3142857142857" y2="461.8680011003111" stroke="#000"/>
<line x1="560.2857142857142" y1="461.26200357110696" x2="560.2857142857142" y2="461.8680011003111" stroke="#000"/>
<rect x="564.3142857142857" y="380.93702752832166" width="8.057142857142857" height="117.06297247167825" fill="orange" data-tooltip="3.21x baseline speed (YJIT)"/>
<line x1="564.3142857142857" y1="379.6853237118757" x2="572.3714285714285" y2="379.6853237118757" stroke="#000"/>
<line x1="564.3142857142857" y1="382.1887313447677" x2="572.3714285714285" y2="382.1887313447677" stroke="#000"/>
<line x1="568.342857142857" y1="379.6853237118757" x2="568.342857142857" y2="382.1887313447677" stroke="#000"/>
<line x1="568.342857142857" y1="498.0" x2="568.342857142857" y2="502.79999999999995" stroke="#000"/>
<text x="568.342857142857" y="512.4" fill="#111" font-size="small" font-family="monospace" font-weight="bold" text-anchor="end" transform="rotate(-60, 568.342857142857, 512.4)">
optcarrot
</text>
<rect x="580.4285714285714" y="461.56500233570904" width="8.057142857142857" height="36.43499766429093" fill="#7070f8" data-tooltip="1.00x baseline speed (No JIT)"/>
<line x1="580.4285714285714" y1="461.3073451804319" x2="588.4857142857143" y2="461.3073451804319" stroke="#000"/>
<line x1="580.4285714285714" y1="461.8226594909862" x2="588.4857142857143" y2="461.8226594909862" stroke="#000"/>
<line x1="584.4571428571428" y1="461.3073451804319" x2="584.4571428571428" y2="461.8226594909862" stroke="#000"/>
<rect x="588.4857142857143" y="452.46884941572756" width="8.057142857142857" height="45.53115058427244" fill="orange" data-tooltip="1.25x baseline speed (YJIT)"/>
<line x1="588.4857142857143" y1="451.94848145774546" x2="596.5428571428572" y2="451.94848145774546" stroke="#000"/>
<line x1="588.4857142857143" y1="452.9892173737096" x2="596.5428571428572" y2="452.9892173737096" stroke="#000"/>
<line x1="592.5142857142856" y1="451.94848145774546" x2="592.5142857142856" y2="452.9892173737096" stroke="#000"/>
<line x1="592.5142857142856" y1="498.0" x2="592.5142857142856" y2="502.79999999999995" stroke="#000"/>
<text x="592.5142857142856" y="512.4" fill="#111" font-size="small" font-family="monospace" font-weight="bold" text-anchor="end" transform="rotate(-60, 592.5142857142856, 512.4)">
rack
</text>
<rect x="604.5999999999999" y="461.56500233570904" width="8.057142857142857" height="36.43499766429093" fill="#7070f8" data-tooltip="1.00x baseline speed (No JIT)"/>
<line x1="604.5999999999999" y1="461.54705041586254" x2="612.6571428571428" y2="461.54705041586254" stroke="#000"/>
<line x1="604.5999999999999" y1="461.5829542555556" x2="612.6571428571428" y2="461.5829542555556" stroke="#000"/>
<line x1="608.6285714285713" y1="461.54705041586254" x2="608.6285714285713" y2="461.5829542555556" stroke="#000"/>
<rect x="612.6571428571428" y="456.14734342319656" width="8.057142857142857" height="41.852656576803334" fill="orange" data-tooltip="1.15x baseline speed (YJIT)"/>
<line x1="612.6571428571428" y1="456.12264500819634" x2="620.7142857142857" y2="456.12264500819634" stroke="#000"/>
<line x1="612.6571428571428" y1="456.17204183819683" x2="620.7142857142857" y2="456.17204183819683" stroke="#000"/>
<line x1="616.6857142857142" y1="456.12264500819634" x2="616.6857142857142" y2="456.17204183819683" stroke="#000"/>
<line x1="616.6857142857142" y1="498.0" x2="616.6857142857142" y2="502.79999999999995" stroke="#000"/>
<text x="616.6857142857142" y="512.4" fill="#111" font-size="small" font-family="monospace" font-weight="bold" text-anchor="end" transform="rotate(-60, 616.6857142857142, 512.4)">
ruby-json
</text>
<rect x="628.7714285714285" y="461.56500233570904" width="8.057142857142857" height="36.43499766429093" fill="#7070f8" data-tooltip="1.00x baseline speed (No JIT)"/>
<line x1="628.7714285714285" y1="461.36298150923284" x2="636.8285714285714" y2="461.36298150923284" stroke="#000"/>
<line x1="628.7714285714285" y1="461.76702316218524" x2="636.8285714285714" y2="461.76702316218524" stroke="#000"/>
<line x1="632.8" y1="461.36298150923284" x2="632.8" y2="461.76702316218524" stroke="#000"/>
<rect x="636.8285714285714" y="425.5646335624502" width="8.057142857142857" height="72.43536643754977" fill="orange" data-tooltip="1.99x baseline speed (YJIT)"/>
<line x1="636.8285714285714" y1="424.99721500295107" x2="644.8857142857142" y2="424.99721500295107" stroke="#000"/>
<line x1="636.8285714285714" y1="426.13205212194924" x2="644.8857142857142" y2="426.13205212194924" stroke="#000"/>
<line x1="640.8571428571428" y1="424.99721500295107" x2="640.8571428571428" y2="426.13205212194924" stroke="#000"/>
<line x1="640.8571428571428" y1="498.0" x2="640.8571428571428" y2="502.79999999999995" stroke="#000"/>
<text x="640.8571428571428" y="512.4" fill="#111" font-size="small" font-family="monospace" font-weight="bold" text-anchor="end" transform="rotate(-60, 640.8571428571428, 512.4)">
rubykon
</text>
<rect x="652.9428571428571" y="461.56500233570904" width="8.057142857142857" height="36.43499766429093" fill="#7070f8" data-tooltip="1.00x baseline speed (No JIT)"/>
<line x1="652.9428571428571" y1="461.5603105530103" x2="660.9999999999999" y2="461.5603105530103" stroke="#000"/>
<line x1="652.9428571428571" y1="461.5696941184078" x2="660.9999999999999" y2="461.5696941184078" stroke="#000"/>
<line x1="656.9714285714284" y1="461.5603105530103" x2="656.9714285714284" y2="461.5696941184078" stroke="#000"/>
<rect x="660.9999999999999" y="239.46934462087833" width="8.057142857142857" height="258.5306553791216" fill="orange" data-tooltip="7.10x baseline speed (YJIT)"/>
<line x1="660.9999999999999" y1="239.2996622523543" x2="669.0571428571428" y2="239.2996622523543" stroke="#000"/>
<line x1="660.9999999999999" y1="239.63902698940237" x2="669.0571428571428" y2="239.63902698940237" stroke="#000"/>
<line x1="665.0285714285714" y1="239.2996622523543" x2="665.0285714285714" y2="239.63902698940237" stroke="#000"/>
<line x1="665.0285714285714" y1="498.0" x2="665.0285714285714" y2="502.79999999999995" stroke="#000"/>
<text x="665.0285714285714" y="512.4" fill="#111" font-size="small" font-family="monospace" font-weight="bold" text-anchor="end" transform="rotate(-60, 665.0285714285714, 512.4)">
30k_ifelse
</text>
<rect x="677.1142857142856" y="461.56500233570904" width="8.057142857142857" height="36.43499766429093" fill="#7070f8" data-tooltip="1.00x baseline speed (No JIT)"/>
<line x1="677.1142857142856" y1="461.5609763394565" x2="685.1714285714286" y2="461.5609763394565" stroke="#000"/>
<line x1="677.1142857142856" y1="461.56902833196165" x2="685.1714285714286" y2="461.56902833196165" stroke="#000"/>
<line x1="681.142857142857" y1="461.5609763394565" x2="681.142857142857" y2="461.56902833196165" stroke="#000"/>
<rect x="685.1714285714286" y="189.30272757935325" width="8.057142857142857" height="308.69727242064675" fill="orange" data-tooltip="8.47x baseline speed (YJIT)"/>
<line x1="685.1714285714286" y1="189.21451432186066" x2="693.2285714285714" y2="189.21451432186066" stroke="#000"/>
<line x1="685.1714285714286" y1="189.39094083684583" x2="693.2285714285714" y2="189.39094083684583" stroke="#000"/>
<line x1="689.1999999999999" y1="189.21451432186066" x2="689.1999999999999" y2="189.39094083684583" stroke="#000"/>
<line x1="689.1999999999999" y1="498.0" x2="689.1999999999999" y2="502.79999999999995" stroke="#000"/>
<text x="689.1999999999999" y="512.4" fill="#111" font-size="small" font-family="monospace" font-weight="bold" text-anchor="end" transform="rotate(-60, 689.1999999999999, 512.4)">
30k_methods
</text>
<rect x="701.2857142857142" y="461.56500233570904" width="8.057142857142857" height="36.43499766429093" fill="#7070f8" data-tooltip="1.00x baseline speed (No JIT)"/>
<line x1="701.2857142857142" y1="461.49966212151827" x2="709.342857142857" y2="461.49966212151827" stroke="#000"/>
<line x1="701.2857142857142" y1="461.6303425498998" x2="709.342857142857" y2="461.6303425498998" stroke="#000"/>
<line x1="705.3142857142856" y1="461.49966212151827" x2="705.3142857142856" y2="461.6303425498998" stroke="#000"/>
<rect x="709.342857142857" y="387.1419755135711" width="8.057142857142857" height="110.8580244864289" fill="orange" data-tooltip="3.04x baseline speed (YJIT)"/>
<line x1="709.342857142857" y1="386.71114033876853" x2="717.4" y2="386.71114033876853" stroke="#000"/>
<line x1="709.342857142857" y1="387.5728106883736" x2="717.4" y2="387.5728106883736" stroke="#000"/>
<line x1="713.3714285714284" y1="386.71114033876853" x2="713.3714285714284" y2="387.5728106883736" stroke="#000"/>
<line x1="713.3714285714284" y1="498.0" x2="713.3714285714284" y2="502.79999999999995" stroke="#000"/>
<text x="713.3714285714284" y="512.4" fill="#111" font-size="small" font-family="monospace" font-weight="bold" text-anchor="end" transform="rotate(-60, 713.3714285714284, 512.4)">
cfunc_itself
</text>
<rect x="725.4571428571428" y="461.56500233570904" width="8.057142857142857" height="36.43499766429093" fill="#7070f8" data-tooltip="1.00x baseline speed (No JIT)"/>
<line x1="725.4571428571428" y1="461.5405730793902" x2="733.5142857142856" y2="461.5405730793902" stroke="#000"/>
<line x1="725.4571428571428" y1="461.5894315920279" x2="733.5142857142856" y2="461.5894315920279" stroke="#000"/>
<line x1="729.4857142857142" y1="461.5405730793902" x2="729.4857142857142" y2="461.5894315920279" stroke="#000"/>
<rect x="733.5142857142856" y="285.49015356489997" width="8.057142857142857" height="212.50984643509997" fill="orange" data-tooltip="5.83x baseline speed (YJIT)"/>
<line x1="733.5142857142856" y1="285.2345551468632" x2="741.5714285714286" y2="285.2345551468632" stroke="#000"/>
<line x1="733.5142857142856" y1="285.7457519829367" x2="741.5714285714286" y2="285.7457519829367" stroke="#000"/>
<line x1="737.5428571428571" y1="285.2345551468632" x2="737.5428571428571" y2="285.7457519829367" stroke="#000"/>
<line x1="737.5428571428571" y1="498.0" x2="737.5428571428571" y2="502.79999999999995" stroke="#000"/>
<text x="737.5428571428571" y="512.4" fill="#111" font-size="small" font-family="monospace" font-weight="bold" text-anchor="end" transform="rotate(-60, 737.5428571428571, 512.4)">
fib
</text>
<rect x="749.6285714285713" y="461.56500233570904" width="8.057142857142857" height="36.43499766429093" fill="#7070f8" data-tooltip="1.00x baseline speed (No JIT)"/>
<line x1="749.6285714285713" y1="461.539434441097" x2="757.6857142857142" y2="461.539434441097" stroke="#000"/>
<line x1="749.6285714285713" y1="461.5905702303211" x2="757.6857142857142" y2="461.5905702303211" stroke="#000"/>
<line x1="753.6571428571427" y1="461.539434441097" x2="753.6571428571427" y2="461.5905702303211" stroke="#000"/>
<rect x="757.6857142857142" y="289.2725899004745" width="8.057142857142857" height="208.72741009952546" fill="orange" data-tooltip="5.73x baseline speed (YJIT)"/>
<line x1="757.6857142857142" y1="287.08542257471777" x2="765.742857142857" y2="287.08542257471777" stroke="#000"/>
<line x1="757.6857142857142" y1="291.4597572262312" x2="765.742857142857" y2="291.4597572262312" stroke="#000"/>
<line x1="761.7142857142856" y1="287.08542257471777" x2="761.7142857142856" y2="291.4597572262312" stroke="#000"/>
<line x1="761.7142857142856" y1="498.0" x2="761.7142857142856" y2="502.79999999999995" stroke="#000"/>
<text x="761.7142857142856" y="512.4" fill="#111" font-size="small" font-family="monospace" font-weight="bold" text-anchor="end" transform="rotate(-60, 761.7142857142856, 512.4)">
getivar
</text>
<rect x="773.8" y="461.56500233570904" width="8.057142857142857" height="36.43499766429093" fill="#7070f8" data-tooltip="1.00x baseline speed (No JIT)"/>
<line x1="773.8" y1="461.54062239541355" x2="781.8571428571428" y2="461.54062239541355" stroke="#000"/>
<line x1="773.8" y1="461.5893822760046" x2="781.8571428571428" y2="461.5893822760046" stroke="#000"/>
<line x1="777.8285714285713" y1="461.54062239541355" x2="777.8285714285713" y2="461.5893822760046" stroke="#000"/>
<rect x="781.8571428571428" y="259.2520099240317" width="8.057142857142857" height="238.74799007596823" fill="orange" data-tooltip="6.55x baseline speed (YJIT)"/>
<line x1="781.8571428571428" y1="258.852126347398" x2="789.9142857142857" y2="258.852126347398" stroke="#000"/>
<line x1="781.8571428571428" y1="259.65189350066544" x2="789.9142857142857" y2="259.65189350066544" stroke="#000"/>
<line x1="785.8857142857142" y1="258.852126347398" x2="785.8857142857142" y2="259.65189350066544" stroke="#000"/>
<line x1="785.8857142857142" y1="498.0" x2="785.8857142857142" y2="502.79999999999995" stroke="#000"/>
<text x="785.8857142857142" y="512.4" fill="#111" font-size="small" font-family="monospace" font-weight="bold" text-anchor="end" transform="rotate(-60, 785.8857142857142, 512.4)">
keyword_args
</text>
<rect x="797.9714285714284" y="461.56500233570904" width="8.057142857142857" height="36.43499766429093" fill="#7070f8" data-tooltip="1.00x baseline speed (No JIT)"/>
<line x1="797.9714285714284" y1="461.28452020122353" x2="806.0285714285714" y2="461.28452020122353" stroke="#000"/>
<line x1="797.9714285714284" y1="461.84548447019455" x2="806.0285714285714" y2="461.84548447019455" stroke="#000"/>
<line x1="801.9999999999998" y1="461.28452020122353" x2="801.9999999999998" y2="461.84548447019455" stroke="#000"/>
<rect x="806.0285714285714" y="100.19999999999999" width="8.057142857142857" height="397.79999999999995" fill="orange" data-tooltip="10.92x baseline speed (YJIT)"/>
<line x1="806.0285714285714" y1="96.03830481043914" x2="814.0857142857142" y2="96.03830481043914" stroke="#000"/>
<line x1="806.0285714285714" y1="104.36169518956083" x2="814.0857142857142" y2="104.36169518956083" stroke="#000"/>
<line x1="810.0571428571427" y1="96.03830481043914" x2="810.0571428571427" y2="104.36169518956083" stroke="#000"/>
<line x1="810.0571428571427" y1="498.0" x2="810.0571428571427" y2="502.79999999999995" stroke="#000"/>
<text x="810.0571428571427" y="512.4" fill="#111" font-size="small" font-family="monospace" font-weight="bold" text-anchor="end" transform="rotate(-60, 810.0571428571427, 512.4)">
respond_to
</text>
<rect x="822.1428571428571" y="461.56500233570904" width="8.057142857142857" height="36.43499766429093" fill="#7070f8" data-tooltip="1.00x baseline speed (No JIT)"/>
<line x1="822.1428571428571" y1="461.5402529338969" x2="830.1999999999999" y2="461.5402529338969" stroke="#000"/>
<line x1="822.1428571428571" y1="461.5897517375212" x2="830.1999999999999" y2="461.5897517375212" stroke="#000"/>
<line x1="826.1714285714285" y1="461.5402529338969" x2="826.1714285714285" y2="461.5897517375212" stroke="#000"/>
<rect x="830.1999999999999" y="270.00926564799477" width="8.057142857142857" height="227.99073435200518" fill="orange" data-tooltip="6.26x baseline speed (YJIT)"/>
<line x1="830.1999999999999" y1="269.70333107470543" x2="838.2571428571429" y2="269.70333107470543" stroke="#000"/>
<line x1="830.1999999999999" y1="270.3152002212841" x2="838.2571428571429" y2="270.3152002212841" stroke="#000"/>
<line x1="834.2285714285713" y1="269.70333107470543" x2="834.2285714285713" y2="270.3152002212841" stroke="#000"/>
<line x1="834.2285714285713" y1="498.0" x2="834.2285714285713" y2="502.79999999999995" stroke="#000"/>
<text x="834.2285714285713" y="512.4" fill="#111" font-size="small" font-family="monospace" font-weight="bold" text-anchor="end" transform="rotate(-60, 834.2285714285713, 512.4)">
setivar
</text>
<rect x="846.3142857142856" y="461.56500233570904" width="8.057142857142857" height="36.43499766429093" fill="#7070f8" data-tooltip="1.00x baseline speed (No JIT)"/>
<line x1="846.3142857142856" y1="461.49903442278304" x2="854.3714285714284" y2="461.49903442278304" stroke="#000"/>
<line x1="846.3142857142856" y1="461.6309702486351" x2="854.3714285714284" y2="461.6309702486351" stroke="#000"/>
<line x1="850.3428571428569" y1="461.49903442278304" x2="850.3428571428569" y2="461.6309702486351" stroke="#000"/>
<rect x="854.3714285714284" y="407.7130526196851" width="8.057142857142857" height="90.28694738031491" fill="orange" data-tooltip="2.48x baseline speed (YJIT)"/>
<line x1="854.3714285714284" y1="407.52858719634855" x2="862.4285714285713" y2="407.52858719634855" stroke="#000"/>
<line x1="854.3714285714284" y1="407.89751804302165" x2="862.4285714285713" y2="407.89751804302165" stroke="#000"/>
<line x1="858.3999999999999" y1="407.52858719634855" x2="858.3999999999999" y2="407.89751804302165" stroke="#000"/>
<line x1="858.3999999999999" y1="498.0" x2="858.3999999999999" y2="502.79999999999995" stroke="#000"/>
<text x="858.3999999999999" y="512.4" fill="#111" font-size="small" font-family="monospace" font-weight="bold" text-anchor="end" transform="rotate(-60, 858.3999999999999, 512.4)">
setivar_object
</text>
<rect x="870.4857142857142" y="461.56500233570904" width="8.057142857142857" height="36.43499766429093" fill="#7070f8" data-tooltip="1.00x baseline speed (No JIT)"/>
<line x1="870.4857142857142" y1="461.4023477401947" x2="878.5428571428571" y2="461.4023477401947" stroke="#000"/>
<line x1="870.4857142857142" y1="461.72765693122335" x2="878.5428571428571" y2="461.72765693122335" stroke="#000"/>
<line x1="874.5142857142856" y1="461.4023477401947" x2="874.5142857142856" y2="461.72765693122335" stroke="#000"/>
<rect x="878.5428571428571" y="407.95392294434663" width="8.057142857142857" height="90.04607705565337" fill="orange" data-tooltip="2.47x baseline speed (YJIT)"/>
<line x1="878.5428571428571" y1="403.7402350391525" x2="886.5999999999999" y2="403.7402350391525" stroke="#000"/>
<line x1="878.5428571428571" y1="412.1676108495407" x2="886.5999999999999" y2="412.1676108495407" stroke="#000"/>
<line x1="882.5714285714284" y1="403.7402350391525" x2="882.5714285714284" y2="412.1676108495407" stroke="#000"/>
<line x1="882.5714285714284" y1="498.0" x2="882.5714285714284" y2="502.79999999999995" stroke="#000"/>
<text x="882.5714285714284" y="512.4" fill="#111" font-size="small" font-family="monospace" font-weight="bold" text-anchor="end" transform="rotate(-60, 882.5714285714284, 512.4)">
setivar_young
</text>
<rect x="894.6571428571428" y="461.56500233570904" width="8.057142857142857" height="36.43499766429093" fill="#7070f8" data-tooltip="1.00x baseline speed (No JIT)"/>
<line x1="894.6571428571428" y1="461.5046248396197" x2="902.7142857142857" y2="461.5046248396197" stroke="#000"/>
<line x1="894.6571428571428" y1="461.62537983179845" x2="902.7142857142857" y2="461.62537983179845" stroke="#000"/>
<line x1="898.6857142857142" y1="461.5046248396197" x2="898.6857142857142" y2="461.62537983179845" stroke="#000"/>
<rect x="902.7142857142857" y="428.5363343260039" width="8.057142857142857" height="69.46366567399613" fill="orange" data-tooltip="1.91x baseline speed (YJIT)"/>
<line x1="902.7142857142857" y1="428.1568400188673" x2="910.7714285714286" y2="428.1568400188673" stroke="#000"/>
<line x1="902.7142857142857" y1="428.91582863314045" x2="910.7714285714286" y2="428.91582863314045" stroke="#000"/>
<line x1="906.742857142857" y1="428.1568400188673" x2="906.742857142857" y2="428.91582863314045" stroke="#000"/>
<line x1="906.742857142857" y1="498.0" x2="906.742857142857" y2="502.79999999999995" stroke="#000"/>
<text x="906.742857142857" y="512.4" fill="#111" font-size="small" font-family="monospace" font-weight="bold" text-anchor="end" transform="rotate(-60, 906.742857142857, 512.4)">
str_concat
</text>
<rect x="918.8285714285713" y="461.56500233570904" width="8.057142857142857" height="36.43499766429093" fill="#7070f8" data-tooltip="1.00x baseline speed (No JIT)"/>
<line x1="918.8285714285713" y1="461.50599883938514" x2="926.8857142857142" y2="461.50599883938514" stroke="#000"/>
<line x1="918.8285714285713" y1="461.62400583203294" x2="926.8857142857142" y2="461.62400583203294" stroke="#000"/>
<line x1="922.8571428571427" y1="461.50599883938514" x2="922.8571428571427" y2="461.62400583203294" stroke="#000"/>
<rect x="926.8857142857142" y="452.73622368267536" width="8.057142857142857" height="45.263776317324506" fill="orange" data-tooltip="1.24x baseline speed (YJIT)"/>
<line x1="926.8857142857142" y1="452.6219215215828" x2="934.9428571428571" y2="452.6219215215828" stroke="#000"/>
<line x1="926.8857142857142" y1="452.85052584376797" x2="934.9428571428571" y2="452.85052584376797" stroke="#000"/>
<line x1="930.9142857142856" y1="452.6219215215828" x2="930.9142857142856" y2="452.85052584376797" stroke="#000"/>
<line x1="930.9142857142856" y1="498.0" x2="930.9142857142856" y2="502.79999999999995" stroke="#000"/>
<text x="930.9142857142856" y="512.4" fill="#111" font-size="small" font-family="monospace" font-weight="bold" text-anchor="end" transform="rotate(-60, 930.9142857142856, 512.4)">
throw
</text>
</svg>