<svg viewBox="0 0 1000 600" xmlns="http://www.w3.org/2000/svg" xmlns:xlink="http://www.w3.org/1999/xlink" width="100%" height="100%">

<rect x="50.0" y="30.0" width="940.0" height="467.99999999999994" stroke="#000" fill="#EEE"/>
<line x1="42.0" y1="497.9999999999999" x2="50.0" y2="497.9999999999999" stroke="#000"/>
<text x="26.000000000000004" y="497.9999999999999" text-anchor="end" font-weight="bold" font-size="small" fill="#111">
0.0
</text>
<line x1="42.0" y1="414.06537667259016" x2="50.0" y2="414.06537667259016" stroke="#000"/>
<text x="26.000000000000004" y="414.06537667259016" text-anchor="end" font-weight="bold" font-size="small" fill="#111">
2.0
</text>
<line x1="42.0" y1="330.13075334518044" x2="50.0" y2="330.13075334518044" stroke="#000"/>
<text x="26.000000000000004" y="330.13075334518044" text-anchor="end" font-weight="bold" font-size="small" fill="#111">
4.0
</text>
<line x1="42.0" y1="246.19613001777066" x2="50.0" y2="246.19613001777066" stroke="#000"/>
<text x="26.000000000000004" y="246.19613001777066" text-anchor="end" font-weight="bold" font-size="small" fill="#111">
6.0
</text>
<line x1="42.0" y1="162.2615066903609" x2="50.0" y2="162.2615066903609" stroke="#000"/>
<text x="26.000000000000004" y="162.2615066903609" text-anchor="end" font-weight="bold" font-size="small" fill="#111">
8.0
</text>
<rect x="268.5" y="36.00000000000001" width="80.0" height="18.0" fill="#7070f8" stroke="#888"/>
<text x="308.5" y="52.50000000000001" font-size="small" text-anchor="middle" font-weight="bold" fill="#EEE">
No JIT
</text>
<rect x="691.4999999999999" y="36.00000000000001" width="80.0" height="18.0" fill="orange" stroke="#888"/>
<text x="731.4999999999999" y="52.50000000000001" font-size="small" text-anchor="middle" font-weight="bold" fill="#EEE">
YJIT
</text>
<rect x="97.0" y="456.032688336295" width="23.499999999999996" height="41.96731166370488" fill="#7070f8" data-tooltip="1.00x baseline speed (No JIT)"/>
<line x1="97.0" y1="456.00212985765296" x2="120.5" y2="456.00212985765296" stroke="#000"/>
<line x1="97.0" y1="456.063246814937" x2="120.5" y2="456.063246814937" stroke="#000"/>
<line x1="108.75" y1="456.00212985765296" x2="108.75" y2="456.063246814937" stroke="#000"/>
<rect x="120.5" y="346.2351056608876" width="23.499999999999996" height="151.76489433911235" fill="orange" data-tooltip="3.62x baseline speed (YJIT)"/>
<line x1="120.5" y1="346.10966334522624" x2="144.0" y2="346.10966334522624" stroke="#000"/>
<line x1="120.5" y1="346.3605479765489" x2="144.0" y2="346.3605479765489" stroke="#000"/>
<line x1="132.25" y1="346.10966334522624" x2="132.25" y2="346.3605479765489" stroke="#000"/>
<line x1="132.25" y1="498.0" x2="132.25" y2="502.79999999999995" stroke="#000"/>
<text x="132.25" y="512.4" fill="#111" font-size="small" font-family="monospace" font-weight="bold" text-anchor="end" transform="rotate(-60, 132.25, 512.4)">
30k_ifelse
</text>
<rect x="167.49999999999997" y="456.032688336295" width="23.499999999999996" height="41.96731166370488" fill="#7070f8" data-tooltip="1.00x baseline speed (No JIT)"/>
<line x1="167.49999999999997" y1="455.97714861009933" x2="190.99999999999997" y2="455.97714861009933" stroke="#000"/>
<line x1="167.49999999999997" y1="456.0882280624906" x2="190.99999999999997" y2="456.0882280624906" stroke="#000"/>
<line x1="179.25" y1="455.97714861009933" x2="179.25" y2="456.0882280624906" stroke="#000"/>
<rect x="190.99999999999997" y="289.34120871039494" width="23.499999999999996" height="208.658791289605" fill="orange" data-tooltip="4.97x baseline speed (YJIT)"/>
<line x1="190.99999999999997" y1="288.9790053993834" x2="214.49999999999997" y2="288.9790053993834" stroke="#000"/>
<line x1="190.99999999999997" y1="289.70341202140645" x2="214.49999999999997" y2="289.70341202140645" stroke="#000"/>
<line x1="202.75" y1="288.9790053993834" x2="202.75" y2="289.70341202140645" stroke="#000"/>
<line x1="202.75" y1="498.0" x2="202.75" y2="502.79999999999995" stroke="#000"/>
<text x="202.75" y="512.4" fill="#111" font-size="small" font-family="monospace" font-weight="bold" text-anchor="end" transform="rotate(-60, 202.75, 512.4)">
30k_methods
</text>
<rect x="238.0" y="456.032688336295" width="23.499999999999996" height="41.96731166370488" fill="#7070f8" data-tooltip="1.00x baseline speed (No JIT)"/>
<line x1="238.0" y1="455.515444692972" x2="261.5" y2="455.515444692972" stroke="#000"/>
<line x1="238.0" y1="456.54993197961795" x2="261.5" y2="456.54993197961795" stroke="#000"/>
<line x1="249.75" y1="455.515444692972" x2="249.75" y2="456.54993197961795" stroke="#000"/>
<rect x="261.5" y="277.37642502866623" width="23.499999999999996" height="220.6235749713337" fill="orange" data-tooltip="5.26x baseline speed (YJIT)"/>
<line x1="261.5" y1="274.65707191043776" x2="285.00000000000006" y2="274.65707191043776" stroke="#000"/>
<line x1="261.5" y1="280.0957781468947" x2="285.00000000000006" y2="280.0957781468947" stroke="#000"/>
<line x1="273.25" y1="274.65707191043776" x2="273.25" y2="280.0957781468947" stroke="#000"/>
<line x1="273.25" y1="498.0" x2="273.25" y2="502.79999999999995" stroke="#000"/>
<text x="273.25" y="512.4" fill="#111" font-size="small" font-family="monospace" font-weight="bold" text-anchor="end" transform="rotate(-60, 273.25, 512.4)">
cfunc_itself
</text>
<rect x="308.5" y="456.032688336295" width="23.499999999999996" height="41.96731166370488" fill="#7070f8" data-tooltip="1.00x baseline speed (No JIT)"/>
<line x1="308.5" y1="454.94429122848015" x2="332.0" y2="454.94429122848015" stroke="#000"/>
<line x1="308.5" y1="457.1210854441098" x2="332.0" y2="457.1210854441098" stroke="#000"/>
<line x1="320.25" y1="454.94429122848015" x2="320.25" y2="457.1210854441098" stroke="#000"/>
<rect x="332.0" y="328.44530699913594" width="23.499999999999996" height="169.554693000864" fill="orange" data-tooltip="4.04x baseline speed (YJIT)"/>
<line x1="332.0" y1="324.04799140089" x2="355.50000000000006" y2="324.04799140089" stroke="#000"/>
<line x1="332.0" y1="332.84262259738193" x2="355.50000000000006" y2="332.84262259738193" stroke="#000"/>
<line x1="343.75" y1="324.04799140089" x2="343.75" y2="332.84262259738193" stroke="#000"/>
<line x1="343.75" y1="498.0" x2="343.75" y2="502.79999999999995" stroke="#000"/>
<text x="343.75" y="512.4" fill="#111" font-size="small" font-family="monospace" font-weight="bold" text-anchor="end" transform="rotate(-60, 343.75, 512.4)">
fib
</text>
<rect x="379.0" y="456.032688336295" width="23.499999999999996" height="41.96731166370488" fill="#7070f8" data-tooltip="1.00x baseline speed (No JIT)"/>
<line x1="379.0" y1="455.95338471450776" x2="402.5" y2="455.95338471450776" stroke="#000"/>
<line x1="379.0" y1="456.1119919580822" x2="402.5" y2="456.1119919580822" stroke="#000"/>
<line x1="390.75" y1="455.95338471450776" x2="390.75" y2="456.1119919580822" stroke="#000"/>
<rect x="402.5" y="344.3149515310505" width="23.499999999999996" height="153.68504846894945" fill="orange" data-tooltip="3.66x baseline speed (YJIT)"/>
<line x1="402.5" y1="344.0240610854339" x2="426.00000000000006" y2="344.0240610854339" stroke="#000"/>
<line x1="402.5" y1="344.6058419766671" x2="426.00000000000006" y2="344.6058419766671" stroke="#000"/>
<line x1="414.25" y1="344.0240610854339" x2="414.25" y2="344.6058419766671" stroke="#000"/>
<line x1="414.25" y1="498.0" x2="414.25" y2="502.79999999999995" stroke="#000"/>
<text x="414.25" y="512.4" fill="#111" font-size="small" font-family="monospace" font-weight="bold" text-anchor="end" transform="rotate(-60, 414.25, 512.4)">
getivar
</text>
<rect x="449.5" y="456.032688336295" width="23.499999999999996" height="41.96731166370488" fill="#7070f8" data-tooltip="1.00x baseline speed (No JIT)"/>
<line x1="449.5" y1="455.95726234799446" x2="473.00000000000006" y2="455.95726234799446" stroke="#000"/>
<line x1="449.5" y1="456.1081143245955" x2="473.00000000000006" y2="456.1081143245955" stroke="#000"/>
<line x1="461.25" y1="455.95726234799446" x2="461.25" y2="456.1081143245955" stroke="#000"/>
<rect x="473.00000000000006" y="209.43050434545532" width="23.499999999999996" height="288.56949565454465" fill="orange" data-tooltip="6.88x baseline speed (YJIT)"/>
<line x1="473.00000000000006" y1="208.91124899100495" x2="496.50000000000006" y2="208.91124899100495" stroke="#000"/>
<line x1="473.00000000000006" y1="209.94975969990566" x2="496.50000000000006" y2="209.94975969990566" stroke="#000"/>
<line x1="484.75" y1="208.91124899100495" x2="484.75" y2="209.94975969990566" stroke="#000"/>
<line x1="484.75" y1="498.0" x2="484.75" y2="502.79999999999995" stroke="#000"/>
<text x="484.75" y="512.4" fill="#111" font-size="small" font-family="monospace" font-weight="bold" text-anchor="end" transform="rotate(-60, 484.75, 512.4)">
keyword_args
</text>
<rect x="519.9999999999999" y="456.032688336295" width="23.499999999999996" height="41.96731166370488" fill="#7070f8" data-tooltip="1.00x baseline speed (No JIT)"/>
<line x1="519.9999999999999" y1="455.79660182474333" x2="543.4999999999999" y2="455.79660182474333" stroke="#000"/>
<line x1="519.9999999999999" y1="456.26877484784666" x2="543.4999999999999" y2="456.26877484784666" stroke="#000"/>
<line x1="531.75" y1="455.79660182474333" x2="531.75" y2="456.26877484784666" stroke="#000"/>
<rect x="543.4999999999999" y="100.19999999999999" width="23.499999999999996" height="397.79999999999995" fill="orange" data-tooltip="9.48x baseline speed (YJIT)"/>
<line x1="543.4999999999999" y1="97.8366138961895" x2="566.9999999999999" y2="97.8366138961895" stroke="#000"/>
<line x1="543.4999999999999" y1="102.56338610381047" x2="566.9999999999999" y2="102.56338610381047" stroke="#000"/>
<line x1="555.2499999999999" y1="97.8366138961895" x2="555.2499999999999" y2="102.56338610381047" stroke="#000"/>
<line x1="555.2499999999999" y1="498.0" x2="555.2499999999999" y2="502.79999999999995" stroke="#000"/>
<text x="555.2499999999999" y="512.4" fill="#111" font-size="small" font-family="monospace" font-weight="bold" text-anchor="end" transform="rotate(-60, 555.2499999999999, 512.4)">
respond_to
</text>
<rect x="590.4999999999999" y="456.032688336295" width="23.499999999999996" height="41.96731166370488" fill="#7070f8" data-tooltip="1.00x baseline speed (No JIT)"/>
<line x1="590.4999999999999" y1="455.8852948222445" x2="613.9999999999999" y2="455.8852948222445" stroke="#000"/>
<line x1="590.4999999999999" y1="456.18008185034546" x2="613.9999999999999" y2="456.18008185034546" stroke="#000"/>
<line x1="602.25" y1="455.8852948222445" x2="602.25" y2="456.18008185034546" stroke="#000"/>
<rect x="613.9999999999999" y="290.4608659393984" width="23.499999999999996" height="207.53913406060153" fill="orange" data-tooltip="4.95x baseline speed (YJIT)"/>
<line x1="613.9999999999999" y1="289.73111405548553" x2="637.4999999999999" y2="289.73111405548553" stroke="#000"/>
<line x1="613.9999999999999" y1="291.19061782331124" x2="637.4999999999999" y2="291.19061782331124" stroke="#000"/>
<line x1="625.7499999999999" y1="289.73111405548553" x2="625.7499999999999" y2="291.19061782331124" stroke="#000"/>
<line x1="625.7499999999999" y1="498.0" x2="625.7499999999999" y2="502.79999999999995" stroke="#000"/>
<text x="625.7499999999999" y="512.4" fill="#111" font-size="small" font-family="monospace" font-weight="bold" text-anchor="end" transform="rotate(-60, 625.7499999999999, 512.4)">
setivar
</text>
<rect x="660.9999999999999" y="456.032688336295" width="23.499999999999996" height="41.96731166370488" fill="#7070f8" data-tooltip="1.00x baseline speed (No JIT)"/>
<line x1="660.9999999999999" y1="455.9221219479485" x2="684.4999999999999" y2="455.9221219479485" stroke="#000"/>
<line x1="660.9999999999999" y1="456.14325472464145" x2="684.4999999999999" y2="456.14325472464145" stroke="#000"/>
<line x1="672.75" y1="455.9221219479485" x2="672.75" y2="456.14325472464145" stroke="#000"/>
<rect x="684.4999999999999" y="386.33811723373094" width="23.499999999999996" height="111.66188276626896" fill="orange" data-tooltip="2.66x baseline speed (YJIT)"/>
<line x1="684.4999999999999" y1="386.04379298060013" x2="707.9999999999999" y2="386.04379298060013" stroke="#000"/>
<line x1="684.4999999999999" y1="386.63244148686175" x2="707.9999999999999" y2="386.63244148686175" stroke="#000"/>
<line x1="696.2499999999999" y1="386.04379298060013" x2="696.2499999999999" y2="386.63244148686175" stroke="#000"/>
<line x1="696.2499999999999" y1="498.0" x2="696.2499999999999" y2="502.79999999999995" stroke="#000"/>
<text x="696.2499999999999" y="512.4" fill="#111" font-size="small" font-family="monospace" font-weight="bold" text-anchor="end" transform="rotate(-60, 696.2499999999999, 512.4)">
setivar_object
</text>
<rect x="731.4999999999999" y="456.032688336295" width="23.499999999999996" height="41.96731166370488" fill="#7070f8" data-tooltip="1.00x baseline speed (No JIT)"/>
<line x1="731.4999999999999" y1="455.810990084265" x2="754.9999999999999" y2="455.810990084265" stroke="#000"/>
<line x1="731.4999999999999" y1="456.25438658832496" x2="754.9999999999999" y2="456.25438658832496" stroke="#000"/>
<line x1="743.25" y1="455.810990084265" x2="743.25" y2="456.25438658832496" stroke="#000"/>
<rect x="754.9999999999999" y="385.86447399625223" width="23.499999999999996" height="112.13552600374774" fill="orange" data-tooltip="2.67x baseline speed (YJIT)"/>
<line x1="754.9999999999999" y1="385.2705118813005" x2="778.4999999999999" y2="385.2705118813005" stroke="#000"/>
<line x1="754.9999999999999" y1="386.4584361112039" x2="778.4999999999999" y2="386.4584361112039" stroke="#000"/>
<line x1="766.7499999999999" y1="385.2705118813005" x2="766.7499999999999" y2="386.4584361112039" stroke="#000"/>
<line x1="766.7499999999999" y1="498.0" x2="766.7499999999999" y2="502.79999999999995" stroke="#000"/>
<text x="766.7499999999999" y="512.4" fill="#111" font-size="small" font-family="monospace" font-weight="bold" text-anchor="end" transform="rotate(-60, 766.7499999999999, 512.4)">
setivar_young
</text>
<rect x="801.9999999999999" y="456.032688336295" width="23.499999999999996" height="41.96731166370488" fill="#7070f8" data-tooltip="1.00x baseline speed (No JIT)"/>
<line x1="801.9999999999999" y1="453.1860398155114" x2="825.4999999999999" y2="453.1860398155114" stroke="#000"/>
<line x1="801.9999999999999" y1="458.87933685707856" x2="825.4999999999999" y2="458.87933685707856" stroke="#000"/>
<line x1="813.75" y1="453.1860398155114" x2="813.75" y2="458.87933685707856" stroke="#000"/>
<rect x="825.4999999999999" y="410.8633647668529" width="23.499999999999996" height="87.13663523314703" fill="orange" data-tooltip="2.08x baseline speed (YJIT)"/>
<line x1="825.4999999999999" y1="404.9344855324033" x2="848.9999999999999" y2="404.9344855324033" stroke="#000"/>
<line x1="825.4999999999999" y1="416.79224400130255" x2="848.9999999999999" y2="416.79224400130255" stroke="#000"/>
<line x1="837.2499999999999" y1="404.9344855324033" x2="837.2499999999999" y2="416.79224400130255" stroke="#000"/>
<line x1="837.2499999999999" y1="498.0" x2="837.2499999999999" y2="502.79999999999995" stroke="#000"/>
<text x="837.2499999999999" y="512.4" fill="#111" font-size="small" font-family="monospace" font-weight="bold" text-anchor="end" transform="rotate(-60, 837.2499999999999, 512.4)">
str_concat
</text>
<rect x="872.4999999999999" y="456.032688336295" width="23.499999999999996" height="41.96731166370488" fill="#7070f8" data-tooltip="1.00x baseline speed (No JIT)"/>
<line x1="872.4999999999999" y1="455.9541602793777" x2="895.9999999999999" y2="455.9541602793777" stroke="#000"/>
<line x1="872.4999999999999" y1="456.11121639321226" x2="895.9999999999999" y2="456.11121639321226" stroke="#000"/>
<line x1="884.25" y1="455.9541602793777" x2="884.25" y2="456.11121639321226" stroke="#000"/>
<rect x="895.9999999999999" y="437.3304373020615" width="23.499999999999996" height="60.66956269793839" fill="orange" data-tooltip="1.45x baseline speed (YJIT)"/>
<line x1="895.9999999999999" y1="437.15677492217515" x2="919.4999999999999" y2="437.15677492217515" stroke="#000"/>
<line x1="895.9999999999999" y1="437.5040996819478" x2="919.4999999999999" y2="437.5040996819478" stroke="#000"/>
<line x1="907.75" y1="437.15677492217515" x2="907.75" y2="437.5040996819478" stroke="#000"/>
<line x1="907.75" y1="498.0" x2="907.75" y2="502.79999999999995" stroke="#000"/>
<text x="907.75" y="512.4" fill="#111" font-size="small" font-family="monospace" font-weight="bold" text-anchor="end" transform="rotate(-60, 907.75, 512.4)">
throw
</text>
</svg>