<svg viewBox="0 0 1000 600" xmlns="http://www.w3.org/2000/svg" xmlns:xlink="http://www.w3.org/1999/xlink" width="100%" height="100%">

<rect x="50.0" y="30.0" width="940.0" height="467.99999999999994" stroke="#000" fill="#fff"/>
<line x1="42.0" y1="497.9999999999999" x2="50.0" y2="497.9999999999999" stroke="#000"/>
<text x="26.000000000000004" y="497.9999999999999" text-anchor="end" font-weight="bold" font-size="small" fill="#111">
0.0
</text>
<line x1="42.0" y1="433.06349614395884" x2="50.0" y2="433.06349614395884" stroke="#000"/>
<text x="26.000000000000004" y="433.06349614395884" text-anchor="end" font-weight="bold" font-size="small" fill="#111">
2.0
</text>
<line x1="42.0" y1="368.1269922879177" x2="50.0" y2="368.1269922879177" stroke="#000"/>
<text x="26.000000000000004" y="368.1269922879177" text-anchor="end" font-weight="bold" font-size="small" fill="#111">
4.0
</text>
<line x1="42.0" y1="303.19048843187653" x2="50.0" y2="303.19048843187653" stroke="#000"/>
<text x="26.000000000000004" y="303.19048843187653" text-anchor="end" font-weight="bold" font-size="small" fill="#111">
6.0
</text>
<line x1="42.0" y1="238.25398457583543" x2="50.0" y2="238.25398457583543" stroke="#000"/>
<text x="26.000000000000004" y="238.25398457583543" text-anchor="end" font-weight="bold" font-size="small" fill="#111">
8.0
</text>
<line x1="42.0" y1="173.3174807197943" x2="50.0" y2="173.3174807197943" stroke="#000"/>
<text x="26.000000000000004" y="173.3174807197943" text-anchor="end" font-weight="bold" font-size="small" fill="#111">
10.0
</text>
<line x1="42.0" y1="108.38097686375319" x2="50.0" y2="108.38097686375319" stroke="#000"/>
<text x="26.000000000000004" y="108.38097686375319" text-anchor="end" font-weight="bold" font-size="small" fill="#111">
12.0
</text>
<line x1="178.0" y1="54.60000000000001" x2="298.0" y2="54.60000000000001" stroke="#648FFF" stroke-width="2"/>
<text x="238.0" y="49.500000000000014" font-size="small" text-anchor="middle" font-weight="bold" fill="#000">
CRuby 3.1.0dev
</text>
<rect x="459.9999999999999" y="35.400000000000006" width="120.0" height="19.2" fill="#785EF0" stroke="none"/>
<text x="519.9999999999999" y="49.500000000000014" font-size="small" text-anchor="middle" font-weight="bold" fill="#fff" style="text-shadow: 0 0 1px #000;">
MJIT3.0
</text>
<rect x="742.0" y="35.400000000000006" width="120.0" height="19.2" fill="#FFB000" stroke="none"/>
<text x="801.9999999999999" y="49.500000000000014" font-size="small" text-anchor="middle" font-weight="bold" fill="#fff" style="text-shadow: 0 0 1px #000;">
YJIT 3.1.0dev
</text>
<rect x="64.68750000000001" y="463.6464680021416" width="14.6875" height="34.35353199785841" fill="#785EF0" data-tooltip="1.06x baseline (MJIT3.0)"/>
<rect x="79.375" y="326.9760933569406" width="14.6875" height="171.0239066430593" fill="#FFB000" data-tooltip="5.27x baseline (YJIT 3.1.0dev)"/>
<line x1="79.375" y1="498.0" x2="79.375" y2="502.79999999999995" stroke="#000"/>
<text x="79.375" y="512.4" fill="#111" font-size="small" text-anchor="end" transform="rotate(-60, 79.375, 512.4)">
activerecord
</text>
<rect x="108.74999999999999" y="464.6487650621927" width="14.6875" height="33.35123493780728" fill="#785EF0" data-tooltip="1.03x baseline (MJIT3.0)"/>
<rect x="123.43749999999997" y="433.77225143740503" width="14.6875" height="64.22774856259484" fill="#FFB000" data-tooltip="1.98x baseline (YJIT 3.1.0dev)"/>
<line x1="123.43749999999997" y1="498.0" x2="123.43749999999997" y2="502.79999999999995" stroke="#000"/>
<text x="123.43749999999997" y="512.4" fill="#111" font-size="small" text-anchor="end" transform="rotate(-60, 123.43749999999997, 512.4)">
hexapdf
</text>
<rect x="152.81249999999997" y="464.0903714077427" width="14.6875" height="33.90962859225722" fill="#785EF0" data-tooltip="1.04x baseline (MJIT3.0)"/>
<rect x="167.49999999999994" y="191.2062905268004" width="14.6875" height="306.79370947319956" fill="#FFB000" data-tooltip="9.45x baseline (YJIT 3.1.0dev)"/>
<line x1="167.49999999999994" y1="498.0" x2="167.49999999999994" y2="502.79999999999995" stroke="#000"/>
<text x="167.49999999999994" y="512.4" fill="#111" font-size="small" text-anchor="end" transform="rotate(-60, 167.49999999999994, 512.4)">
liquid-render
</text>
<rect x="196.87499999999994" y="464.7484652475096" width="14.6875" height="33.251534752490315" fill="#785EF0" data-tooltip="1.02x baseline (MJIT3.0)"/>
<rect x="211.56249999999994" y="291.9101678895128" width="14.6875" height="206.08983211048712" fill="#FFB000" data-tooltip="6.35x baseline (YJIT 3.1.0dev)"/>
<line x1="211.56249999999994" y1="498.0" x2="211.56249999999994" y2="502.79999999999995" stroke="#000"/>
<text x="211.56249999999994" y="512.4" fill="#111" font-size="small" text-anchor="end" transform="rotate(-60, 211.56249999999994, 512.4)">
mail
</text>
<rect x="240.93749999999991" y="460.6947645445275" width="14.6875" height="37.30523545547241" fill="#785EF0" data-tooltip="1.15x baseline (MJIT3.0)"/>
<rect x="255.62499999999994" y="204.00814120147635" width="14.6875" height="293.9918587985236" fill="#FFB000" data-tooltip="9.05x baseline (YJIT 3.1.0dev)"/>
<line x1="255.625" y1="498.0" x2="255.625" y2="502.79999999999995" stroke="#000"/>
<text x="255.625" y="512.4" fill="#111" font-size="small" text-anchor="end" transform="rotate(-60, 255.625, 512.4)">
psych-load
</text>
<rect x="285.0" y="442.1450096880635" width="14.6875" height="55.85499031193646" fill="#785EF0" data-tooltip="1.72x baseline (MJIT3.0)"/>
<rect x="299.6875" y="383.78981194605376" width="14.6875" height="114.21018805394621" fill="#FFB000" data-tooltip="3.52x baseline (YJIT 3.1.0dev)"/>
<line x1="299.6875" y1="498.0" x2="299.6875" y2="502.79999999999995" stroke="#000"/>
<text x="299.6875" y="512.4" fill="#111" font-size="small" text-anchor="end" transform="rotate(-60, 299.6875, 512.4)">
railsbench
</text>
<rect x="329.06250000000006" y="458.2438533420936" width="14.6875" height="39.756146657906385" fill="#785EF0" data-tooltip="1.22x baseline (MJIT3.0)"/>
<rect x="343.75000000000006" y="177.97400176480875" width="14.6875" height="320.0259982351912" fill="#FFB000" data-tooltip="9.86x baseline (YJIT 3.1.0dev)"/>
<line x1="343.7500000000001" y1="498.0" x2="343.7500000000001" y2="502.79999999999995" stroke="#000"/>
<text x="343.7500000000001" y="512.4" fill="#111" font-size="small" text-anchor="end" transform="rotate(-60, 343.7500000000001, 512.4)">
binarytrees
</text>
<rect x="373.1250000000001" y="466.99334140635966" width="14.6875" height="31.006658593640218" fill="#785EF0" data-tooltip="0.95x baseline (MJIT3.0)"/>
<rect x="387.8125000000001" y="104.32038485583186" width="14.6875" height="393.67961514416805" fill="#FFB000" data-tooltip="12.13x baseline (YJIT 3.1.0dev)"/>
<line x1="387.8125000000001" y1="498.0" x2="387.8125000000001" y2="502.79999999999995" stroke="#000"/>
<text x="387.8125000000001" y="512.4" fill="#111" font-size="small" text-anchor="end" transform="rotate(-60, 387.8125000000001, 512.4)">
fannkuchredux
</text>
<rect x="417.18750000000017" y="466.6498572054571" width="14.6875" height="31.350142794542844" fill="#785EF0" data-tooltip="0.97x baseline (MJIT3.0)"/>
<rect x="431.87500000000017" y="456.8616268053578" width="14.6875" height="41.13837319464219" fill="#FFB000" data-tooltip="1.27x baseline (YJIT 3.1.0dev)"/>
<line x1="431.8750000000002" y1="498.0" x2="431.8750000000002" y2="502.79999999999995" stroke="#000"/>
<text x="431.8750000000002" y="512.4" fill="#111" font-size="small" text-anchor="end" transform="rotate(-60, 431.8750000000002, 512.4)">
jekyll
</text>
<rect x="461.2500000000002" y="468.0039722855953" width="14.6875" height="29.996027714404715" fill="#785EF0" data-tooltip="0.92x baseline (MJIT3.0)"/>
<rect x="475.9375000000002" y="176.26834159288467" width="14.6875" height="321.7316584071152" fill="#FFB000" data-tooltip="9.91x baseline (YJIT 3.1.0dev)"/>
<line x1="475.9375000000002" y1="498.0" x2="475.9375000000002" y2="502.79999999999995" stroke="#000"/>
<text x="475.9375000000002" y="512.4" fill="#111" font-size="small" text-anchor="end" transform="rotate(-60, 475.9375000000002, 512.4)">
lee
</text>
<rect x="505.3125000000003" y="466.690343297958" width="14.6875" height="31.309656702041917" fill="#785EF0" data-tooltip="0.96x baseline (MJIT3.0)"/>
<rect x="520.0000000000002" y="103.03488746388031" width="14.6875" height="394.96511253611965" fill="#FFB000" data-tooltip="12.16x baseline (YJIT 3.1.0dev)"/>
<line x1="520.0000000000002" y1="498.0" x2="520.0000000000002" y2="502.79999999999995" stroke="#000"/>
<text x="520.0000000000002" y="512.4" fill="#111" font-size="small" text-anchor="end" transform="rotate(-60, 520.0000000000002, 512.4)">
nbody
</text>
<rect x="549.3750000000001" y="465.01088465390376" width="14.6875" height="32.98911534609623" fill="#785EF0" data-tooltip="1.02x baseline (MJIT3.0)"/>
<rect x="564.0625000000001" y="356.4916287809679" width="14.6875" height="141.50837121903206" fill="#FFB000" data-tooltip="4.36x baseline (YJIT 3.1.0dev)"/>
<line x1="564.0625000000001" y1="498.0" x2="564.0625000000001" y2="502.79999999999995" stroke="#000"/>
<text x="564.0625000000001" y="512.4" fill="#111" font-size="small" text-anchor="end" transform="rotate(-60, 564.0625000000001, 512.4)">
optcarrot
</text>
<rect x="593.4375000000001" y="466.0434450560512" width="14.6875" height="31.956554943948746" fill="#785EF0" data-tooltip="0.98x baseline (MJIT3.0)"/>
<rect x="608.125" y="322.34481614981394" width="14.6875" height="175.655183850186" fill="#FFB000" data-tooltip="5.41x baseline (YJIT 3.1.0dev)"/>
<line x1="608.125" y1="498.0" x2="608.125" y2="502.79999999999995" stroke="#000"/>
<text x="608.125" y="512.4" fill="#111" font-size="small" text-anchor="end" transform="rotate(-60, 608.125, 512.4)">
30k_ifelse
</text>
<rect x="637.5" y="464.3300928845127" width="14.6875" height="33.66990711548721" fill="#785EF0" data-tooltip="1.04x baseline (MJIT3.0)"/>
<rect x="652.1874999999999" y="303.89027586457775" width="14.6875" height="194.1097241354222" fill="#FFB000" data-tooltip="5.98x baseline (YJIT 3.1.0dev)"/>
<line x1="652.1874999999999" y1="498.0" x2="652.1874999999999" y2="502.79999999999995" stroke="#000"/>
<text x="652.1874999999999" y="512.4" fill="#111" font-size="small" text-anchor="end" transform="rotate(-60, 652.1874999999999, 512.4)">
30k_methods
</text>
<rect x="681.5624999999999" y="466.78904817222855" width="14.6875" height="31.210951827771385" fill="#785EF0" data-tooltip="0.96x baseline (MJIT3.0)"/>
<rect x="696.2499999999998" y="101.41320802624892" width="14.6875" height="396.586791973751" fill="#FFB000" data-tooltip="12.21x baseline (YJIT 3.1.0dev)"/>
<line x1="696.2499999999998" y1="498.0" x2="696.2499999999998" y2="502.79999999999995" stroke="#000"/>
<text x="696.2499999999998" y="512.4" fill="#111" font-size="small" text-anchor="end" transform="rotate(-60, 696.2499999999998, 512.4)">
cfunc_itself
</text>
<rect x="725.6249999999998" y="466.59327428188215" width="14.6875" height="31.406725718117805" fill="#785EF0" data-tooltip="0.97x baseline (MJIT3.0)"/>
<rect x="740.3124999999997" y="100.19999999999999" width="14.6875" height="397.79999999999995" fill="#FFB000" data-tooltip="12.25x baseline (YJIT 3.1.0dev)"/>
<line x1="740.3124999999997" y1="498.0" x2="740.3124999999997" y2="502.79999999999995" stroke="#000"/>
<text x="740.3124999999997" y="512.4" fill="#111" font-size="small" text-anchor="end" transform="rotate(-60, 740.3124999999997, 512.4)">
fib
</text>
<rect x="769.6874999999997" y="466.9163099533816" width="14.6875" height="31.083690046618397" fill="#785EF0" data-tooltip="0.96x baseline (MJIT3.0)"/>
<rect x="784.3749999999995" y="103.05786046712734" width="14.6875" height="394.9421395328726" fill="#FFB000" data-tooltip="12.16x baseline (YJIT 3.1.0dev)"/>
<line x1="784.3749999999995" y1="498.0" x2="784.3749999999995" y2="502.79999999999995" stroke="#000"/>
<text x="784.3749999999995" y="512.4" fill="#111" font-size="small" text-anchor="end" transform="rotate(-60, 784.3749999999995, 512.4)">
getivar
</text>
<rect x="813.7499999999995" y="466.520685245694" width="14.6875" height="31.479314754306042" fill="#785EF0" data-tooltip="0.97x baseline (MJIT3.0)"/>
<rect x="828.4374999999995" y="100.29169301584115" width="14.6875" height="397.70830698415875" fill="#FFB000" data-tooltip="12.25x baseline (YJIT 3.1.0dev)"/>
<line x1="828.4374999999995" y1="498.0" x2="828.4374999999995" y2="502.79999999999995" stroke="#000"/>
<text x="828.4374999999995" y="512.4" fill="#111" font-size="small" text-anchor="end" transform="rotate(-60, 828.4374999999995, 512.4)">
keyword_args
</text>
<rect x="857.8124999999994" y="466.67690536438016" width="14.6875" height="31.323094635619768" fill="#785EF0" data-tooltip="0.96x baseline (MJIT3.0)"/>
<rect x="872.4999999999994" y="102.10750647929667" width="14.6875" height="395.8924935207033" fill="#FFB000" data-tooltip="12.19x baseline (YJIT 3.1.0dev)"/>
<line x1="872.4999999999994" y1="498.0" x2="872.4999999999994" y2="502.79999999999995" stroke="#000"/>
<text x="872.4999999999994" y="512.4" fill="#111" font-size="small" text-anchor="end" transform="rotate(-60, 872.4999999999994, 512.4)">
respond_to
</text>
<rect x="901.8749999999993" y="467.0178352088782" width="14.6875" height="30.982164791121843" fill="#785EF0" data-tooltip="0.95x baseline (MJIT3.0)"/>
<rect x="916.5624999999993" y="104.07132416674688" width="14.6875" height="393.92867583325307" fill="#FFB000" data-tooltip="12.13x baseline (YJIT 3.1.0dev)"/>
<line x1="916.5624999999993" y1="498.0" x2="916.5624999999993" y2="502.79999999999995" stroke="#000"/>
<text x="916.5624999999993" y="512.4" fill="#111" font-size="small" text-anchor="end" transform="rotate(-60, 916.5624999999993, 512.4)">
setivar
</text>
<rect x="945.9374999999992" y="464.46901157355046" width="14.6875" height="33.53098842644951" fill="#785EF0" data-tooltip="1.03x baseline (MJIT3.0)"/>
<rect x="960.6249999999992" y="262.0354036382854" width="14.6875" height="235.96459636171454" fill="#FFB000" data-tooltip="7.27x baseline (YJIT 3.1.0dev)"/>
<line x1="960.6249999999992" y1="498.0" x2="960.6249999999992" y2="502.79999999999995" stroke="#000"/>
<text x="960.6249999999992" y="512.4" fill="#111" font-size="small" text-anchor="end" transform="rotate(-60, 960.6249999999992, 512.4)" font-style="italic">
geomean*
</text>
<line x1="50.0" y1="465.5317480719794" x2="990.0" y2="465.5317480719794" stroke="#648FFF" stroke-width="2"/>
</svg>