<svg viewBox="0 0 1000 600" xmlns="http://www.w3.org/2000/svg" xmlns:xlink="http://www.w3.org/1999/xlink" width="100%" height="100%">

<rect x="50.0" y="30.0" width="940.0" height="467.99999999999994" stroke="#000" fill="#fff"/>
<line x1="42.0" y1="497.9999999999999" x2="50.0" y2="497.9999999999999" stroke="#000"/>
<text x="26.000000000000004" y="497.9999999999999" text-anchor="end" font-weight="bold" font-size="small" fill="#111">
0.0
</text>
<line x1="42.0" y1="428.20242841158677" x2="50.0" y2="428.20242841158677" stroke="#000"/>
<text x="26.000000000000004" y="428.20242841158677" text-anchor="end" font-weight="bold" font-size="small" fill="#111">
2.0
</text>
<line x1="42.0" y1="358.4048568231735" x2="50.0" y2="358.4048568231735" stroke="#000"/>
<text x="26.000000000000004" y="358.4048568231735" text-anchor="end" font-weight="bold" font-size="small" fill="#111">
4.0
</text>
<line x1="42.0" y1="288.60728523476024" x2="50.0" y2="288.60728523476024" stroke="#000"/>
<text x="26.000000000000004" y="288.60728523476024" text-anchor="end" font-weight="bold" font-size="small" fill="#111">
6.0
</text>
<line x1="42.0" y1="218.80971364634703" x2="50.0" y2="218.80971364634703" stroke="#000"/>
<text x="26.000000000000004" y="218.80971364634703" text-anchor="end" font-weight="bold" font-size="small" fill="#111">
8.0
</text>
<line x1="42.0" y1="149.01214205793377" x2="50.0" y2="149.01214205793377" stroke="#000"/>
<text x="26.000000000000004" y="149.01214205793377" text-anchor="end" font-weight="bold" font-size="small" fill="#111">
10.0
</text>
<line x1="178.0" y1="54.60000000000001" x2="298.0" y2="54.60000000000001" stroke="#648FFF" stroke-width="2"/>
<text x="238.0" y="49.500000000000014" font-size="small" text-anchor="middle" font-weight="bold" fill="#000">
CRuby 3.2.0dev
</text>
<rect x="459.9999999999999" y="35.400000000000006" width="120.0" height="19.2" fill="#785EF0" stroke="none"/>
<text x="519.9999999999999" y="49.500000000000014" font-size="small" text-anchor="middle" font-weight="bold" fill="#fff" style="text-shadow: 0 0 1px #000;">
MJIT
</text>
<rect x="742.0" y="35.400000000000006" width="120.0" height="19.2" fill="#FFB000" stroke="none"/>
<text x="801.9999999999999" y="49.500000000000014" font-size="small" text-anchor="middle" font-weight="bold" fill="#fff" style="text-shadow: 0 0 1px #000;">
YJIT 3.2.0dev
</text>
<rect x="80.3225806451613" y="443.15142657790767" width="30.32258064516129" height="54.84857342209227" fill="#785EF0" data-tooltip="1.57x baseline (MJIT)"/>
<rect x="110.64516129032258" y="301.84496664732166" width="30.32258064516129" height="196.15503335267826" fill="#FFB000" data-tooltip="5.62x baseline (YJIT 3.2.0dev)"/>
<line x1="110.64516129032258" y1="498.0" x2="110.64516129032258" y2="502.79999999999995" stroke="#000"/>
<text x="110.64516129032258" y="512.4" fill="#111" font-size="small" text-anchor="end" transform="rotate(-60, 110.64516129032258, 512.4)">
30k_ifelse
</text>
<rect x="171.29032258064512" y="409.1554194660019" width="30.32258064516129" height="88.84458053399804" fill="#785EF0" data-tooltip="2.55x baseline (MJIT)"/>
<rect x="201.61290322580643" y="297.84845544540303" width="30.32258064516129" height="200.15154455459694" fill="#FFB000" data-tooltip="5.74x baseline (YJIT 3.2.0dev)"/>
<line x1="201.61290322580643" y1="498.0" x2="201.61290322580643" y2="502.79999999999995" stroke="#000"/>
<text x="201.61290322580643" y="512.4" fill="#111" font-size="small" text-anchor="end" transform="rotate(-60, 201.61290322580643, 512.4)">
30k_methods
</text>
<rect x="262.258064516129" y="386.5406042093364" width="30.32258064516129" height="111.45939579066354" fill="#785EF0" data-tooltip="3.19x baseline (MJIT)"/>
<rect x="292.58064516129036" y="101.23658650138051" width="30.32258064516129" height="396.76341349861946" fill="#FFB000" data-tooltip="11.37x baseline (YJIT 3.2.0dev)"/>
<line x1="292.58064516129036" y1="498.0" x2="292.58064516129036" y2="502.79999999999995" stroke="#000"/>
<text x="292.58064516129036" y="512.4" fill="#111" font-size="small" text-anchor="end" transform="rotate(-60, 292.58064516129036, 512.4)">
cfunc_itself
</text>
<rect x="353.2258064516129" y="459.4190060014117" width="30.32258064516129" height="38.58099399858828" fill="#785EF0" data-tooltip="1.11x baseline (MJIT)"/>
<rect x="383.54838709677426" y="102.38386615967592" width="30.32258064516129" height="395.616133840324" fill="#FFB000" data-tooltip="11.34x baseline (YJIT 3.2.0dev)"/>
<line x1="383.54838709677426" y1="498.0" x2="383.54838709677426" y2="502.79999999999995" stroke="#000"/>
<text x="383.54838709677426" y="512.4" fill="#111" font-size="small" text-anchor="end" transform="rotate(-60, 383.54838709677426, 512.4)">
fib
</text>
<rect x="444.1935483870968" y="459.78897235907607" width="30.32258064516129" height="38.211027640923795" fill="#785EF0" data-tooltip="1.09x baseline (MJIT)"/>
<rect x="474.51612903225816" y="105.52955553422044" width="30.32258064516129" height="392.4704444657795" fill="#FFB000" data-tooltip="11.25x baseline (YJIT 3.2.0dev)"/>
<line x1="474.5161290322581" y1="498.0" x2="474.5161290322581" y2="502.79999999999995" stroke="#000"/>
<text x="474.5161290322581" y="512.4" fill="#111" font-size="small" text-anchor="end" transform="rotate(-60, 474.5161290322581, 512.4)">
getivar
</text>
<rect x="535.1612903225806" y="460.1586613042011" width="30.32258064516129" height="37.84133869579888" fill="#785EF0" data-tooltip="1.08x baseline (MJIT)"/>
<rect x="565.4838709677418" y="104.18422213156434" width="30.32258064516129" height="393.81577786843565" fill="#FFB000" data-tooltip="11.28x baseline (YJIT 3.2.0dev)"/>
<line x1="565.4838709677418" y1="498.0" x2="565.4838709677418" y2="502.79999999999995" stroke="#000"/>
<text x="565.4838709677418" y="512.4" fill="#111" font-size="small" text-anchor="end" transform="rotate(-60, 565.4838709677418, 512.4)">
keyword_args
</text>
<rect x="626.1290322580644" y="459.1480485354306" width="30.32258064516129" height="38.85195146456938" fill="#785EF0" data-tooltip="1.11x baseline (MJIT)"/>
<rect x="656.4516129032256" y="100.19999999999999" width="30.32258064516129" height="397.79999999999995" fill="#FFB000" data-tooltip="11.40x baseline (YJIT 3.2.0dev)"/>
<line x1="656.4516129032256" y1="498.0" x2="656.4516129032256" y2="502.79999999999995" stroke="#000"/>
<text x="656.4516129032256" y="512.4" fill="#111" font-size="small" text-anchor="end" transform="rotate(-60, 656.4516129032256, 512.4)">
respond_to
</text>
<rect x="717.0967741935481" y="459.06238448468764" width="30.32258064516129" height="38.937615515312245" fill="#785EF0" data-tooltip="1.12x baseline (MJIT)"/>
<rect x="747.4193548387094" y="104.22926332497232" width="30.32258064516129" height="393.77073667502765" fill="#FFB000" data-tooltip="11.28x baseline (YJIT 3.2.0dev)"/>
<line x1="747.4193548387094" y1="498.0" x2="747.4193548387094" y2="502.79999999999995" stroke="#000"/>
<text x="747.4193548387094" y="512.4" fill="#111" font-size="small" text-anchor="end" transform="rotate(-60, 747.4193548387094, 512.4)">
setivar
</text>
<rect x="808.0645161290319" y="460.3936903974876" width="30.32258064516129" height="37.60630960251241" fill="#785EF0" data-tooltip="1.08x baseline (MJIT)"/>
<rect x="838.3870967741931" y="390.76888617632557" width="30.32258064516129" height="107.23111382367439" fill="#FFB000" data-tooltip="3.07x baseline (YJIT 3.2.0dev)"/>
<line x1="838.3870967741931" y1="498.0" x2="838.3870967741931" y2="502.79999999999995" stroke="#000"/>
<text x="838.3870967741931" y="512.4" fill="#111" font-size="small" text-anchor="end" transform="rotate(-60, 838.3870967741931, 512.4)">
str_concat
</text>
<rect x="899.0322580645156" y="448.68912360527753" width="30.32258064516129" height="49.31087639472241" fill="#785EF0" data-tooltip="1.41x baseline (MJIT)"/>
<rect x="929.3548387096769" y="204.8286967944226" width="30.32258064516129" height="293.1713032055773" fill="#FFB000" data-tooltip="8.40x baseline (YJIT 3.2.0dev)"/>
<line x1="929.3548387096769" y1="498.0" x2="929.3548387096769" y2="502.79999999999995" stroke="#000"/>
<text x="929.3548387096769" y="512.4" fill="#111" font-size="small" text-anchor="end" transform="rotate(-60, 929.3548387096769, 512.4)" font-style="italic">
geomean*
</text>
<line x1="50.0" y1="463.10121420579327" x2="990.0" y2="463.10121420579327" stroke="#648FFF" stroke-width="2"/>
</svg>