<svg viewBox="0 0 1000 600" xmlns="http://www.w3.org/2000/svg" xmlns:xlink="http://www.w3.org/1999/xlink" width="100%" height="100%">

<rect x="50.0" y="30.0" width="940.0" height="467.99999999999994" stroke="#000" fill="#EEE"/>
<line x1="42.0" y1="497.9999999999999" x2="50.0" y2="497.9999999999999" stroke="#000"/>
<text x="26.000000000000004" y="497.9999999999999" text-anchor="end" font-weight="bold" font-size="small" fill="#111">
0.0
</text>
<line x1="42.0" y1="411.43668817906223" x2="50.0" y2="411.43668817906223" stroke="#000"/>
<text x="26.000000000000004" y="411.43668817906223" text-anchor="end" font-weight="bold" font-size="small" fill="#111">
5.0
</text>
<line x1="42.0" y1="324.8733763581244" x2="50.0" y2="324.8733763581244" stroke="#000"/>
<text x="26.000000000000004" y="324.8733763581244" text-anchor="end" font-weight="bold" font-size="small" fill="#111">
10.0
</text>
<line x1="42.0" y1="238.3100645371866" x2="50.0" y2="238.3100645371866" stroke="#000"/>
<text x="26.000000000000004" y="238.3100645371866" text-anchor="end" font-weight="bold" font-size="small" fill="#111">
15.0
</text>
<line x1="42.0" y1="151.74675271624884" x2="50.0" y2="151.74675271624884" stroke="#000"/>
<text x="26.000000000000004" y="151.74675271624884" text-anchor="end" font-weight="bold" font-size="small" fill="#111">
20.0
</text>
<rect x="268.5" y="36.00000000000001" width="80.0" height="18.0" fill="#7070f8" stroke="#888"/>
<text x="308.5" y="52.50000000000001" font-size="small" text-anchor="middle" font-weight="bold" fill="#EEE">
No JIT
</text>
<rect x="691.4999999999999" y="36.00000000000001" width="80.0" height="18.0" fill="orange" stroke="#888"/>
<text x="731.4999999999999" y="52.50000000000001" font-size="small" text-anchor="middle" font-weight="bold" fill="#EEE">
YJIT
</text>
<rect x="97.0" y="480.68733763581236" width="6.130434782608696" height="17.312662364187556" fill="#7070f8" data-tooltip="1.00x baseline speed (No JIT)"/>
<line x1="97.0" y1="480.63779586788615" x2="103.13043478260869" y2="480.63779586788615" stroke="#000"/>
<line x1="97.0" y1="480.7368794037386" x2="103.13043478260869" y2="480.7368794037386" stroke="#000"/>
<line x1="100.06521739130434" y1="480.63779586788615" x2="100.06521739130434" y2="480.7368794037386" stroke="#000"/>
<rect x="103.13043478260869" y="469.5585332638717" width="6.130434782608696" height="28.441466736128234" fill="orange" data-tooltip="1.64x baseline speed (YJIT)"/>
<line x1="103.13043478260869" y1="469.4039030814008" x2="109.26086956521738" y2="469.4039030814008" stroke="#000"/>
<line x1="103.13043478260869" y1="469.71316344634255" x2="109.26086956521738" y2="469.71316344634255" stroke="#000"/>
<line x1="106.19565217391303" y1="469.4039030814008" x2="106.19565217391303" y2="469.71316344634255" stroke="#000"/>
<line x1="106.19565217391305" y1="498.0" x2="106.19565217391305" y2="502.79999999999995" stroke="#000"/>
<text x="106.19565217391305" y="512.4" fill="#111" font-size="small" font-family="monospace" font-weight="bold" text-anchor="end" transform="rotate(-60, 106.19565217391305, 512.4)">
activerecord
</text>
<rect x="115.3913043478261" y="480.68733763581236" width="6.130434782608696" height="17.312662364187556" fill="#7070f8" data-tooltip="1.00x baseline speed (No JIT)"/>
<line x1="115.3913043478261" y1="480.65417396669096" x2="121.52173913043478" y2="480.65417396669096" stroke="#000"/>
<line x1="115.3913043478261" y1="480.7205013049338" x2="121.52173913043478" y2="480.7205013049338" stroke="#000"/>
<line x1="118.45652173913044" y1="480.65417396669096" x2="118.45652173913044" y2="480.7205013049338" stroke="#000"/>
<rect x="121.52173913043478" y="464.97881191834676" width="6.130434782608696" height="33.02118808165319" fill="orange" data-tooltip="1.91x baseline speed (YJIT)"/>
<line x1="121.52173913043478" y1="464.911628531624" x2="127.65217391304348" y2="464.911628531624" stroke="#000"/>
<line x1="121.52173913043478" y1="465.04599530506954" x2="127.65217391304348" y2="465.04599530506954" stroke="#000"/>
<line x1="124.58695652173913" y1="464.911628531624" x2="124.58695652173913" y2="465.04599530506954" stroke="#000"/>
<line x1="124.58695652173914" y1="498.0" x2="124.58695652173914" y2="502.79999999999995" stroke="#000"/>
<text x="124.58695652173914" y="512.4" fill="#111" font-size="small" font-family="monospace" font-weight="bold" text-anchor="end" transform="rotate(-60, 124.58695652173914, 512.4)">
chunky-png
</text>
<rect x="133.7826086956522" y="480.68733763581236" width="6.130434782608696" height="17.312662364187556" fill="#7070f8" data-tooltip="1.00x baseline speed (No JIT)"/>
<line x1="133.7826086956522" y1="480.67967727875043" x2="139.91304347826087" y2="480.67967727875043" stroke="#000"/>
<line x1="133.7826086956522" y1="480.69499799287433" x2="139.91304347826087" y2="480.69499799287433" stroke="#000"/>
<line x1="136.84782608695653" y1="480.67967727875043" x2="136.84782608695653" y2="480.69499799287433" stroke="#000"/>
<rect x="139.91304347826087" y="471.4279171807272" width="6.130434782608696" height="26.57208281927271" fill="orange" data-tooltip="1.53x baseline speed (YJIT)"/>
<line x1="139.91304347826087" y1="471.39430142875676" x2="146.04347826086956" y2="471.39430142875676" stroke="#000"/>
<line x1="139.91304347826087" y1="471.4615329326976" x2="146.04347826086956" y2="471.4615329326976" stroke="#000"/>
<line x1="142.97826086956522" y1="471.39430142875676" x2="142.97826086956522" y2="471.4615329326976" stroke="#000"/>
<line x1="142.97826086956522" y1="498.0" x2="142.97826086956522" y2="502.79999999999995" stroke="#000"/>
<text x="142.97826086956522" y="512.4" fill="#111" font-size="small" font-family="monospace" font-weight="bold" text-anchor="end" transform="rotate(-60, 142.97826086956522, 512.4)">
erubi-rails
</text>
<rect x="152.17391304347828" y="480.68733763581236" width="6.130434782608696" height="17.312662364187556" fill="#7070f8" data-tooltip="1.00x baseline speed (No JIT)"/>
<line x1="152.17391304347828" y1="480.6202017556114" x2="158.30434782608697" y2="480.6202017556114" stroke="#000"/>
<line x1="152.17391304347828" y1="480.7544735160134" x2="158.30434782608697" y2="480.7544735160134" stroke="#000"/>
<line x1="155.23913043478262" y1="480.6202017556114" x2="155.23913043478262" y2="480.7544735160134" stroke="#000"/>
<rect x="158.30434782608697" y="469.03273929554103" width="6.130434782608696" height="28.967260704458944" fill="orange" data-tooltip="1.67x baseline speed (YJIT)"/>
<line x1="158.30434782608697" y1="468.35450157745856" x2="164.43478260869566" y2="468.35450157745856" stroke="#000"/>
<line x1="158.30434782608697" y1="469.7109770136235" x2="164.43478260869566" y2="469.7109770136235" stroke="#000"/>
<line x1="161.3695652173913" y1="468.35450157745856" x2="161.3695652173913" y2="469.7109770136235" stroke="#000"/>
<line x1="161.3695652173913" y1="498.0" x2="161.3695652173913" y2="502.79999999999995" stroke="#000"/>
<text x="161.3695652173913" y="512.4" fill="#111" font-size="small" font-family="monospace" font-weight="bold" text-anchor="end" transform="rotate(-60, 161.3695652173913, 512.4)">
hexapdf
</text>
<rect x="170.56521739130437" y="480.68733763581236" width="6.130434782608696" height="17.312662364187556" fill="#7070f8" data-tooltip="1.00x baseline speed (No JIT)"/>
<line x1="170.56521739130437" y1="480.61066945650145" x2="176.69565217391306" y2="480.61066945650145" stroke="#000"/>
<line x1="170.56521739130437" y1="480.7640058151233" x2="176.69565217391306" y2="480.7640058151233" stroke="#000"/>
<line x1="173.63043478260872" y1="480.61066945650145" x2="173.63043478260872" y2="480.7640058151233" stroke="#000"/>
<rect x="176.69565217391306" y="475.15192998794305" width="6.130434782608696" height="22.84807001205695" fill="orange" data-tooltip="1.32x baseline speed (YJIT)"/>
<line x1="176.69565217391306" y1="474.99276744086444" x2="182.82608695652175" y2="474.99276744086444" stroke="#000"/>
<line x1="176.69565217391306" y1="475.3110925350216" x2="182.82608695652175" y2="475.3110925350216" stroke="#000"/>
<line x1="179.7608695652174" y1="474.99276744086444" x2="179.7608695652174" y2="475.3110925350216" stroke="#000"/>
<line x1="179.7608695652174" y1="498.0" x2="179.7608695652174" y2="502.79999999999995" stroke="#000"/>
<text x="179.7608695652174" y="512.4" fill="#111" font-size="small" font-family="monospace" font-weight="bold" text-anchor="end" transform="rotate(-60, 179.7608695652174, 512.4)">
liquid-c
</text>
<rect x="188.95652173913044" y="480.68733763581236" width="6.130434782608696" height="17.312662364187556" fill="#7070f8" data-tooltip="1.00x baseline speed (No JIT)"/>
<line x1="188.95652173913044" y1="480.6723671069404" x2="195.08695652173913" y2="480.6723671069404" stroke="#000"/>
<line x1="188.95652173913044" y1="480.7023081646843" x2="195.08695652173913" y2="480.7023081646843" stroke="#000"/>
<line x1="192.0217391304348" y1="480.6723671069404" x2="192.0217391304348" y2="480.7023081646843" stroke="#000"/>
<rect x="195.08695652173913" y="475.69853656289524" width="6.130434782608696" height="22.301463437104616" fill="orange" data-tooltip="1.29x baseline speed (YJIT)"/>
<line x1="195.08695652173913" y1="475.67044422081494" x2="201.2173913043478" y2="475.67044422081494" stroke="#000"/>
<line x1="195.08695652173913" y1="475.72662890497554" x2="201.2173913043478" y2="475.72662890497554" stroke="#000"/>
<line x1="198.1521739130435" y1="475.67044422081494" x2="198.1521739130435" y2="475.72662890497554" stroke="#000"/>
<line x1="198.1521739130435" y1="498.0" x2="198.1521739130435" y2="502.79999999999995" stroke="#000"/>
<text x="198.1521739130435" y="512.4" fill="#111" font-size="small" font-family="monospace" font-weight="bold" text-anchor="end" transform="rotate(-60, 198.1521739130435, 512.4)">
liquid-compile
</text>
<rect x="207.34782608695653" y="480.68733763581236" width="6.130434782608696" height="17.312662364187556" fill="#7070f8" data-tooltip="1.00x baseline speed (No JIT)"/>
<line x1="207.34782608695653" y1="480.6614264515621" x2="213.47826086956522" y2="480.6614264515621" stroke="#000"/>
<line x1="207.34782608695653" y1="480.71324882006263" x2="213.47826086956522" y2="480.71324882006263" stroke="#000"/>
<line x1="210.4130434782609" y1="480.6614264515621" x2="210.4130434782609" y2="480.71324882006263" stroke="#000"/>
<rect x="213.47826086956522" y="463.2322398796346" width="6.130434782608696" height="34.767760120365324" fill="orange" data-tooltip="2.01x baseline speed (YJIT)"/>
<line x1="213.47826086956522" y1="463.131589521721" x2="219.6086956521739" y2="463.131589521721" stroke="#000"/>
<line x1="213.47826086956522" y1="463.33289023754827" x2="219.6086956521739" y2="463.33289023754827" stroke="#000"/>
<line x1="216.5434782608696" y1="463.131589521721" x2="216.5434782608696" y2="463.33289023754827" stroke="#000"/>
<line x1="216.5434782608696" y1="498.0" x2="216.5434782608696" y2="502.79999999999995" stroke="#000"/>
<text x="216.5434782608696" y="512.4" fill="#111" font-size="small" font-family="monospace" font-weight="bold" text-anchor="end" transform="rotate(-60, 216.5434782608696, 512.4)">
liquid-render
</text>
<rect x="225.7391304347826" y="480.68733763581236" width="6.130434782608696" height="17.312662364187556" fill="#7070f8" data-tooltip="1.00x baseline speed (No JIT)"/>
<line x1="225.7391304347826" y1="480.6281500490644" x2="231.8695652173913" y2="480.6281500490644" stroke="#000"/>
<line x1="225.7391304347826" y1="480.74652522256036" x2="231.8695652173913" y2="480.74652522256036" stroke="#000"/>
<line x1="228.80434782608697" y1="480.6281500490644" x2="228.80434782608697" y2="480.74652522256036" stroke="#000"/>
<rect x="231.8695652173913" y="473.2045161155254" width="6.130434782608696" height="24.79548388447454" fill="orange" data-tooltip="1.43x baseline speed (YJIT)"/>
<line x1="231.8695652173913" y1="472.88816629666144" x2="238.0" y2="472.88816629666144" stroke="#000"/>
<line x1="231.8695652173913" y1="473.52086593438935" x2="238.0" y2="473.52086593438935" stroke="#000"/>
<line x1="234.93478260869566" y1="472.88816629666144" x2="234.93478260869566" y2="473.52086593438935" stroke="#000"/>
<line x1="234.93478260869566" y1="498.0" x2="234.93478260869566" y2="502.79999999999995" stroke="#000"/>
<text x="234.93478260869566" y="512.4" fill="#111" font-size="small" font-family="monospace" font-weight="bold" text-anchor="end" transform="rotate(-60, 234.93478260869566, 512.4)">
lobsters
</text>
<rect x="244.13043478260872" y="480.68733763581236" width="6.130434782608696" height="17.312662364187556" fill="#7070f8" data-tooltip="1.00x baseline speed (No JIT)"/>
<line x1="244.13043478260872" y1="480.65512266794855" x2="250.26086956521743" y2="480.65512266794855" stroke="#000"/>
<line x1="244.13043478260872" y1="480.7195526036762" x2="250.26086956521743" y2="480.7195526036762" stroke="#000"/>
<line x1="247.19565217391306" y1="480.65512266794855" x2="247.19565217391306" y2="480.7195526036762" stroke="#000"/>
<rect x="250.26086956521743" y="473.42191437871816" width="6.130434782608696" height="24.578085621281826" fill="orange" data-tooltip="1.42x baseline speed (YJIT)"/>
<line x1="250.26086956521743" y1="473.350951274664" x2="256.3913043478261" y2="473.350951274664" stroke="#000"/>
<line x1="250.26086956521743" y1="473.4928774827723" x2="256.3913043478261" y2="473.4928774827723" stroke="#000"/>
<line x1="253.32608695652175" y1="473.350951274664" x2="253.32608695652175" y2="473.4928774827723" stroke="#000"/>
<line x1="253.32608695652175" y1="498.0" x2="253.32608695652175" y2="502.79999999999995" stroke="#000"/>
<text x="253.32608695652175" y="512.4" fill="#111" font-size="small" font-family="monospace" font-weight="bold" text-anchor="end" transform="rotate(-60, 253.32608695652175, 512.4)">
mail
</text>
<rect x="262.5217391304348" y="480.68733763581236" width="6.130434782608696" height="17.312662364187556" fill="#7070f8" data-tooltip="1.00x baseline speed (No JIT)"/>
<line x1="262.5217391304348" y1="480.67686486821896" x2="268.6521739130435" y2="480.67686486821896" stroke="#000"/>
<line x1="262.5217391304348" y1="480.69781040340575" x2="268.6521739130435" y2="480.69781040340575" stroke="#000"/>
<line x1="265.5869565217391" y1="480.67686486821896" x2="265.5869565217391" y2="480.69781040340575" stroke="#000"/>
<rect x="268.6521739130435" y="464.2459260675997" width="6.130434782608696" height="33.75407393240024" fill="orange" data-tooltip="1.95x baseline speed (YJIT)"/>
<line x1="268.6521739130435" y1="464.219893050759" x2="274.78260869565224" y2="464.219893050759" stroke="#000"/>
<line x1="268.6521739130435" y1="464.2719590844404" x2="274.78260869565224" y2="464.2719590844404" stroke="#000"/>
<line x1="271.71739130434787" y1="464.219893050759" x2="271.71739130434787" y2="464.2719590844404" stroke="#000"/>
<line x1="271.71739130434787" y1="498.0" x2="271.71739130434787" y2="502.79999999999995" stroke="#000"/>
<text x="271.71739130434787" y="512.4" fill="#111" font-size="small" font-family="monospace" font-weight="bold" text-anchor="end" transform="rotate(-60, 271.71739130434787, 512.4)">
psych-load
</text>
<rect x="280.9130434782609" y="480.68733763581236" width="6.130434782608696" height="17.312662364187556" fill="#7070f8" data-tooltip="1.00x baseline speed (No JIT)"/>
<line x1="280.9130434782609" y1="480.6807863386044" x2="287.04347826086956" y2="480.6807863386044" stroke="#000"/>
<line x1="280.9130434782609" y1="480.6938889330204" x2="287.04347826086956" y2="480.6938889330204" stroke="#000"/>
<line x1="283.9782608695652" y1="480.6807863386044" x2="283.9782608695652" y2="480.6938889330204" stroke="#000"/>
<rect x="287.04347826086956" y="469.8604990152259" width="6.130434782608696" height="28.139500984774127" fill="orange" data-tooltip="1.63x baseline speed (YJIT)"/>
<line x1="287.04347826086956" y1="469.84522445410107" x2="293.1739130434783" y2="469.84522445410107" stroke="#000"/>
<line x1="287.04347826086956" y1="469.8757735763507" x2="293.1739130434783" y2="469.8757735763507" stroke="#000"/>
<line x1="290.1086956521739" y1="469.84522445410107" x2="290.1086956521739" y2="469.8757735763507" stroke="#000"/>
<line x1="290.1086956521739" y1="498.0" x2="290.1086956521739" y2="502.79999999999995" stroke="#000"/>
<text x="290.1086956521739" y="512.4" fill="#111" font-size="small" font-family="monospace" font-weight="bold" text-anchor="end" transform="rotate(-60, 290.1086956521739, 512.4)">
railsbench
</text>
<rect x="299.30434782608694" y="480.68733763581236" width="6.130434782608696" height="17.312662364187556" fill="#7070f8" data-tooltip="1.00x baseline speed (No JIT)"/>
<line x1="299.30434782608694" y1="480.6306911260745" x2="305.4347826086957" y2="480.6306911260745" stroke="#000"/>
<line x1="299.30434782608694" y1="480.7439841455502" x2="305.4347826086957" y2="480.7439841455502" stroke="#000"/>
<line x1="302.36956521739125" y1="480.6306911260745" x2="302.36956521739125" y2="480.7439841455502" stroke="#000"/>
<rect x="305.4347826086957" y="472.5800926001881" width="6.130434782608696" height="25.41990739981187" fill="orange" data-tooltip="1.47x baseline speed (YJIT)"/>
<line x1="305.4347826086957" y1="470.68644777673194" x2="311.5652173913044" y2="470.68644777673194" stroke="#000"/>
<line x1="305.4347826086957" y1="474.47373742364425" x2="311.5652173913044" y2="474.47373742364425" stroke="#000"/>
<line x1="308.5" y1="470.68644777673194" x2="308.5" y2="474.47373742364425" stroke="#000"/>
<line x1="308.5" y1="498.0" x2="308.5" y2="502.79999999999995" stroke="#000"/>
<text x="308.5" y="512.4" fill="#111" font-size="small" font-family="monospace" font-weight="bold" text-anchor="end" transform="rotate(-60, 308.5, 512.4)">
rubocop
</text>
<rect x="317.69565217391306" y="480.68733763581236" width="6.130434782608696" height="17.312662364187556" fill="#7070f8" data-tooltip="1.00x baseline speed (No JIT)"/>
<line x1="317.69565217391306" y1="480.66085220243286" x2="323.82608695652175" y2="480.66085220243286" stroke="#000"/>
<line x1="317.69565217391306" y1="480.7138230691919" x2="323.82608695652175" y2="480.7138230691919" stroke="#000"/>
<line x1="320.7608695652174" y1="480.66085220243286" x2="320.7608695652174" y2="480.7138230691919" stroke="#000"/>
<rect x="323.82608695652175" y="475.89260965504207" width="6.130434782608696" height="22.107390344957903" fill="orange" data-tooltip="1.28x baseline speed (YJIT)"/>
<line x1="323.82608695652175" y1="475.85304916820036" x2="329.9565217391305" y2="475.85304916820036" stroke="#000"/>
<line x1="323.82608695652175" y1="475.93217014188383" x2="329.9565217391305" y2="475.93217014188383" stroke="#000"/>
<line x1="326.8913043478261" y1="475.85304916820036" x2="326.8913043478261" y2="475.93217014188383" stroke="#000"/>
<line x1="326.8913043478261" y1="498.0" x2="326.8913043478261" y2="502.79999999999995" stroke="#000"/>
<text x="326.8913043478261" y="512.4" fill="#111" font-size="small" font-family="monospace" font-weight="bold" text-anchor="end" transform="rotate(-60, 326.8913043478261, 512.4)">
ruby-lsp
</text>
<rect x="336.0869565217391" y="480.68733763581236" width="6.130434782608696" height="17.312662364187556" fill="#7070f8" data-tooltip="1.00x baseline speed (No JIT)"/>
<line x1="336.0869565217391" y1="480.66611567196935" x2="342.21739130434787" y2="480.66611567196935" stroke="#000"/>
<line x1="336.0869565217391" y1="480.7085595996554" x2="342.21739130434787" y2="480.7085595996554" stroke="#000"/>
<line x1="339.1521739130435" y1="480.66611567196935" x2="339.1521739130435" y2="480.7085595996554" stroke="#000"/>
<rect x="342.21739130434787" y="477.3666595457946" width="6.130434782608696" height="20.633340454205307" fill="orange" data-tooltip="1.19x baseline speed (YJIT)"/>
<line x1="342.21739130434787" y1="477.3220163743369" x2="348.34782608695656" y2="477.3220163743369" stroke="#000"/>
<line x1="342.21739130434787" y1="477.41130271725234" x2="348.34782608695656" y2="477.41130271725234" stroke="#000"/>
<line x1="345.2826086956522" y1="477.3220163743369" x2="345.2826086956522" y2="477.41130271725234" stroke="#000"/>
<line x1="345.2826086956522" y1="498.0" x2="345.2826086956522" y2="502.79999999999995" stroke="#000"/>
<text x="345.2826086956522" y="512.4" fill="#111" font-size="small" font-family="monospace" font-weight="bold" text-anchor="end" transform="rotate(-60, 345.2826086956522, 512.4)">
sequel
</text>
<rect x="354.47826086956525" y="480.68733763581236" width="6.130434782608696" height="17.312662364187556" fill="#7070f8" data-tooltip="1.00x baseline speed (No JIT)"/>
<line x1="354.47826086956525" y1="480.5279847572718" x2="360.60869565217394" y2="480.5279847572718" stroke="#000"/>
<line x1="354.47826086956525" y1="480.84669051435293" x2="360.60869565217394" y2="480.84669051435293" stroke="#000"/>
<line x1="357.54347826086956" y1="480.5279847572718" x2="357.54347826086956" y2="480.84669051435293" stroke="#000"/>
<rect x="360.60869565217394" y="461.5514303473026" width="6.130434782608696" height="36.448569652697316" fill="orange" data-tooltip="2.11x baseline speed (YJIT)"/>
<line x1="360.60869565217394" y1="460.72882343817884" x2="366.7391304347827" y2="460.72882343817884" stroke="#000"/>
<line x1="360.60869565217394" y1="462.37403725642633" x2="366.7391304347827" y2="462.37403725642633" stroke="#000"/>
<line x1="363.6739130434783" y1="460.72882343817884" x2="363.6739130434783" y2="462.37403725642633" stroke="#000"/>
<line x1="363.6739130434783" y1="498.0" x2="363.6739130434783" y2="502.79999999999995" stroke="#000"/>
<text x="363.6739130434783" y="512.4" fill="#111" font-size="small" font-family="monospace" font-weight="bold" text-anchor="end" transform="rotate(-60, 363.6739130434783, 512.4)">
binarytrees
</text>
<rect x="372.86956521739137" y="480.68733763581236" width="6.130434782608696" height="17.312662364187556" fill="#7070f8" data-tooltip="1.00x baseline speed (No JIT)"/>
<line x1="372.86956521739137" y1="480.4542114142345" x2="379.00000000000006" y2="480.4542114142345" stroke="#000"/>
<line x1="372.86956521739137" y1="480.92046385739025" x2="379.00000000000006" y2="480.92046385739025" stroke="#000"/>
<line x1="375.9347826086957" y1="480.4542114142345" x2="375.9347826086957" y2="480.92046385739025" stroke="#000"/>
<rect x="379.00000000000006" y="454.8205488736511" width="6.130434782608696" height="43.179451126348816" fill="orange" data-tooltip="2.49x baseline speed (YJIT)"/>
<line x1="379.00000000000006" y1="454.1600192588288" x2="385.1304347826088" y2="454.1600192588288" stroke="#000"/>
<line x1="379.00000000000006" y1="455.4810784884733" x2="385.1304347826088" y2="455.4810784884733" stroke="#000"/>
<line x1="382.0652173913044" y1="454.1600192588288" x2="382.0652173913044" y2="455.4810784884733" stroke="#000"/>
<line x1="382.0652173913044" y1="498.0" x2="382.0652173913044" y2="502.79999999999995" stroke="#000"/>
<text x="382.0652173913044" y="512.4" fill="#111" font-size="small" font-family="monospace" font-weight="bold" text-anchor="end" transform="rotate(-60, 382.0652173913044, 512.4)">
blurhash
</text>
<rect x="391.26086956521743" y="480.68733763581236" width="6.130434782608696" height="17.312662364187556" fill="#7070f8" data-tooltip="1.00x baseline speed (No JIT)"/>
<line x1="391.26086956521743" y1="480.6734146861439" x2="397.3913043478262" y2="480.6734146861439" stroke="#000"/>
<line x1="391.26086956521743" y1="480.7012605854809" x2="397.3913043478262" y2="480.7012605854809" stroke="#000"/>
<line x1="394.32608695652175" y1="480.6734146861439" x2="394.32608695652175" y2="480.7012605854809" stroke="#000"/>
<rect x="397.3913043478262" y="477.5228682806937" width="6.130434782608696" height="20.47713171930629" fill="orange" data-tooltip="1.18x baseline speed (YJIT)"/>
<line x1="397.3913043478262" y1="477.50385074726535" x2="403.52173913043487" y2="477.50385074726535" stroke="#000"/>
<line x1="397.3913043478262" y1="477.54188581412194" x2="403.52173913043487" y2="477.54188581412194" stroke="#000"/>
<line x1="400.4565217391305" y1="477.50385074726535" x2="400.4565217391305" y2="477.54188581412194" stroke="#000"/>
<line x1="400.4565217391305" y1="498.0" x2="400.4565217391305" y2="502.79999999999995" stroke="#000"/>
<text x="400.4565217391305" y="512.4" fill="#111" font-size="small" font-family="monospace" font-weight="bold" text-anchor="end" transform="rotate(-60, 400.4565217391305, 512.4)">
erubi
</text>
<rect x="409.65217391304355" y="480.68733763581236" width="6.130434782608696" height="17.312662364187556" fill="#7070f8" data-tooltip="1.00x baseline speed (No JIT)"/>
<line x1="409.65217391304355" y1="480.6806136409794" x2="415.78260869565224" y2="480.6806136409794" stroke="#000"/>
<line x1="409.65217391304355" y1="480.69406163064536" x2="415.78260869565224" y2="480.69406163064536" stroke="#000"/>
<line x1="412.71739130434787" y1="480.6806136409794" x2="412.71739130434787" y2="480.69406163064536" stroke="#000"/>
<rect x="415.78260869565224" y="479.1690348619508" width="6.130434782608696" height="18.830965138049173" fill="orange" data-tooltip="1.09x baseline speed (YJIT)"/>
<line x1="415.78260869565224" y1="479.15878623149786" x2="421.913043478261" y2="479.15878623149786" stroke="#000"/>
<line x1="415.78260869565224" y1="479.1792834924038" x2="421.913043478261" y2="479.1792834924038" stroke="#000"/>
<line x1="418.8478260869566" y1="479.15878623149786" x2="418.8478260869566" y2="479.1792834924038" stroke="#000"/>
<line x1="418.8478260869566" y1="498.0" x2="418.8478260869566" y2="502.79999999999995" stroke="#000"/>
<text x="418.8478260869566" y="512.4" fill="#111" font-size="small" font-family="monospace" font-weight="bold" text-anchor="end" transform="rotate(-60, 418.8478260869566, 512.4)">
etanni
</text>
<rect x="428.0434782608696" y="480.68733763581236" width="6.130434782608696" height="17.312662364187556" fill="#7070f8" data-tooltip="1.00x baseline speed (No JIT)"/>
<line x1="428.0434782608696" y1="480.56855681938526" x2="434.17391304347836" y2="480.56855681938526" stroke="#000"/>
<line x1="428.0434782608696" y1="480.80611845223945" x2="434.17391304347836" y2="480.80611845223945" stroke="#000"/>
<line x1="431.108695652174" y1="480.56855681938526" x2="431.108695652174" y2="480.80611845223945" stroke="#000"/>
<rect x="434.17391304347836" y="427.3196228306601" width="6.130434782608696" height="70.68037716933985" fill="orange" data-tooltip="4.08x baseline speed (YJIT)"/>
<line x1="434.17391304347836" y1="426.6674970163373" x2="440.30434782608705" y2="426.6674970163373" stroke="#000"/>
<line x1="434.17391304347836" y1="427.9717486449828" x2="440.30434782608705" y2="427.9717486449828" stroke="#000"/>
<line x1="437.2391304347827" y1="426.6674970163373" x2="437.2391304347827" y2="427.9717486449828" stroke="#000"/>
<line x1="437.2391304347827" y1="498.0" x2="437.2391304347827" y2="502.79999999999995" stroke="#000"/>
<text x="437.2391304347827" y="512.4" fill="#111" font-size="small" font-family="monospace" font-weight="bold" text-anchor="end" transform="rotate(-60, 437.2391304347827, 512.4)">
fannkuchredux
</text>
<rect x="446.4347826086956" y="480.68733763581236" width="6.130434782608696" height="17.312662364187556" fill="#7070f8" data-tooltip="1.00x baseline speed (No JIT)"/>
<line x1="446.4347826086956" y1="480.54661396135725" x2="452.5652173913043" y2="480.54661396135725" stroke="#000"/>
<line x1="446.4347826086956" y1="480.8280613102675" x2="452.5652173913043" y2="480.8280613102675" stroke="#000"/>
<line x1="449.49999999999994" y1="480.54661396135725" x2="449.49999999999994" y2="480.8280613102675" stroke="#000"/>
<rect x="452.5652173913043" y="478.58687206209277" width="6.130434782608696" height="19.413127937907245" fill="orange" data-tooltip="1.12x baseline speed (YJIT)"/>
<line x1="452.5652173913043" y1="478.05324144159687" x2="458.69565217391306" y2="478.05324144159687" stroke="#000"/>
<line x1="452.5652173913043" y1="479.12050268258866" x2="458.69565217391306" y2="479.12050268258866" stroke="#000"/>
<line x1="455.6304347826087" y1="478.05324144159687" x2="455.6304347826087" y2="479.12050268258866" stroke="#000"/>
<line x1="455.6304347826087" y1="498.0" x2="455.6304347826087" y2="502.79999999999995" stroke="#000"/>
<text x="455.6304347826087" y="512.4" fill="#111" font-size="small" font-family="monospace" font-weight="bold" text-anchor="end" transform="rotate(-60, 455.6304347826087, 512.4)">
fluentd
</text>
<rect x="464.82608695652175" y="480.68733763581236" width="6.130434782608696" height="17.312662364187556" fill="#7070f8" data-tooltip="1.00x baseline speed (No JIT)"/>
<line x1="464.82608695652175" y1="480.6641871592398" x2="470.95652173913044" y2="480.6641871592398" stroke="#000"/>
<line x1="464.82608695652175" y1="480.71048811238495" x2="470.95652173913044" y2="480.71048811238495" stroke="#000"/>
<line x1="467.89130434782606" y1="480.6641871592398" x2="467.89130434782606" y2="480.71048811238495" stroke="#000"/>
<rect x="470.95652173913044" y="476.6641037676144" width="6.130434782608696" height="21.335896232385565" fill="orange" data-tooltip="1.23x baseline speed (YJIT)"/>
<line x1="470.95652173913044" y1="476.633008416967" x2="477.0869565217392" y2="476.633008416967" stroke="#000"/>
<line x1="470.95652173913044" y1="476.69519911826177" x2="477.0869565217392" y2="476.69519911826177" stroke="#000"/>
<line x1="474.02173913043475" y1="476.633008416967" x2="474.02173913043475" y2="476.69519911826177" stroke="#000"/>
<line x1="474.02173913043475" y1="498.0" x2="474.02173913043475" y2="502.79999999999995" stroke="#000"/>
<text x="474.02173913043475" y="512.4" fill="#111" font-size="small" font-family="monospace" font-weight="bold" text-anchor="end" transform="rotate(-60, 474.02173913043475, 512.4)">
graphql
</text>
<rect x="483.2173913043478" y="480.68733763581236" width="6.130434782608696" height="17.312662364187556" fill="#7070f8" data-tooltip="1.00x baseline speed (No JIT)"/>
<line x1="483.2173913043478" y1="480.67204282970624" x2="489.34782608695656" y2="480.67204282970624" stroke="#000"/>
<line x1="483.2173913043478" y1="480.7026324419185" x2="489.34782608695656" y2="480.7026324419185" stroke="#000"/>
<line x1="486.28260869565213" y1="480.67204282970624" x2="486.28260869565213" y2="480.7026324419185" stroke="#000"/>
<rect x="489.34782608695656" y="477.0278202834081" width="6.130434782608696" height="20.97217971659174" fill="orange" data-tooltip="1.21x baseline speed (YJIT)"/>
<line x1="489.34782608695656" y1="476.98466319826747" x2="495.47826086956525" y2="476.98466319826747" stroke="#000"/>
<line x1="489.34782608695656" y1="477.07097736854877" x2="495.47826086956525" y2="477.07097736854877" stroke="#000"/>
<line x1="492.4130434782609" y1="476.98466319826747" x2="492.4130434782609" y2="477.07097736854877" stroke="#000"/>
<line x1="492.4130434782609" y1="498.0" x2="492.4130434782609" y2="502.79999999999995" stroke="#000"/>
<text x="492.4130434782609" y="512.4" fill="#111" font-size="small" font-family="monospace" font-weight="bold" text-anchor="end" transform="rotate(-60, 492.4130434782609, 512.4)">
graphql-native
</text>
<rect x="501.60869565217394" y="480.68733763581236" width="6.130434782608696" height="17.312662364187556" fill="#7070f8" data-tooltip="1.00x baseline speed (No JIT)"/>
<line x1="501.60869565217394" y1="480.5452906569604" x2="507.73913043478257" y2="480.5452906569604" stroke="#000"/>
<line x1="501.60869565217394" y1="480.8293846146644" x2="507.73913043478257" y2="480.8293846146644" stroke="#000"/>
<line x1="504.6739130434783" y1="480.5452906569604" x2="504.6739130434783" y2="480.8293846146644" stroke="#000"/>
<rect x="507.73913043478257" y="471.97859361186244" width="6.130434782608696" height="26.021406388137443" fill="orange" data-tooltip="1.50x baseline speed (YJIT)"/>
<line x1="507.73913043478257" y1="471.54901512530364" x2="513.8695652173913" y2="471.54901512530364" stroke="#000"/>
<line x1="507.73913043478257" y1="472.40817209842123" x2="513.8695652173913" y2="472.40817209842123" stroke="#000"/>
<line x1="510.804347826087" y1="471.54901512530364" x2="510.804347826087" y2="472.40817209842123" stroke="#000"/>
<line x1="510.804347826087" y1="498.0" x2="510.804347826087" y2="502.79999999999995" stroke="#000"/>
<text x="510.804347826087" y="512.4" fill="#111" font-size="small" font-family="monospace" font-weight="bold" text-anchor="end" transform="rotate(-60, 510.804347826087, 512.4)">
lee
</text>
<rect x="520.0" y="480.68733763581236" width="6.130434782608696" height="17.312662364187556" fill="#7070f8" data-tooltip="1.00x baseline speed (No JIT)"/>
<line x1="520.0" y1="480.12984323097965" x2="526.1304347826086" y2="480.12984323097965" stroke="#000"/>
<line x1="520.0" y1="481.2448320406451" x2="526.1304347826086" y2="481.2448320406451" stroke="#000"/>
<line x1="523.0652173913044" y1="480.12984323097965" x2="523.0652173913044" y2="481.2448320406451" stroke="#000"/>
<rect x="526.1304347826086" y="467.3867241596973" width="6.130434782608696" height="30.613275840302727" fill="orange" data-tooltip="1.77x baseline speed (YJIT)"/>
<line x1="526.1304347826086" y1="466.4006482812189" x2="532.2608695652174" y2="466.4006482812189" stroke="#000"/>
<line x1="526.1304347826086" y1="468.3728000381756" x2="532.2608695652174" y2="468.3728000381756" stroke="#000"/>
<line x1="529.1956521739131" y1="466.4006482812189" x2="529.1956521739131" y2="468.3728000381756" stroke="#000"/>
<line x1="529.1956521739131" y1="498.0" x2="529.1956521739131" y2="502.79999999999995" stroke="#000"/>
<text x="529.1956521739131" y="512.4" fill="#111" font-size="small" font-family="monospace" font-weight="bold" text-anchor="end" transform="rotate(-60, 529.1956521739131, 512.4)">
matmul
</text>
<rect x="538.3913043478261" y="480.68733763581236" width="6.130434782608696" height="17.312662364187556" fill="#7070f8" data-tooltip="1.00x baseline speed (No JIT)"/>
<line x1="538.3913043478261" y1="480.4635621053143" x2="544.5217391304348" y2="480.4635621053143" stroke="#000"/>
<line x1="538.3913043478261" y1="480.91111316631043" x2="544.5217391304348" y2="480.91111316631043" stroke="#000"/>
<line x1="541.4565217391305" y1="480.4635621053143" x2="541.4565217391305" y2="480.91111316631043" stroke="#000"/>
<rect x="544.5217391304348" y="455.29780942616804" width="6.130434782608696" height="42.70219057383195" fill="orange" data-tooltip="2.47x baseline speed (YJIT)"/>
<line x1="544.5217391304348" y1="454.74467143903166" x2="550.6521739130435" y2="454.74467143903166" stroke="#000"/>
<line x1="544.5217391304348" y1="455.85094741330437" x2="550.6521739130435" y2="455.85094741330437" stroke="#000"/>
<line x1="547.5869565217391" y1="454.74467143903166" x2="547.5869565217391" y2="455.85094741330437" stroke="#000"/>
<line x1="547.5869565217391" y1="498.0" x2="547.5869565217391" y2="502.79999999999995" stroke="#000"/>
<text x="547.5869565217391" y="512.4" fill="#111" font-size="small" font-family="monospace" font-weight="bold" text-anchor="end" transform="rotate(-60, 547.5869565217391, 512.4)">
nbody
</text>
<rect x="556.7826086956522" y="480.68733763581236" width="6.130434782608696" height="17.312662364187556" fill="#7070f8" data-tooltip="1.00x baseline speed (No JIT)"/>
<line x1="556.7826086956522" y1="480.42834599440204" x2="562.9130434782609" y2="480.42834599440204" stroke="#000"/>
<line x1="556.7826086956522" y1="480.94632927722273" x2="562.9130434782609" y2="480.94632927722273" stroke="#000"/>
<line x1="559.8478260869566" y1="480.42834599440204" x2="559.8478260869566" y2="480.94632927722273" stroke="#000"/>
<rect x="562.9130434782609" y="409.28322918678646" width="6.130434782608696" height="88.71677081321351" fill="orange" data-tooltip="5.12x baseline speed (YJIT)"/>
<line x1="562.9130434782609" y1="407.58074492254167" x2="569.0434782608695" y2="407.58074492254167" stroke="#000"/>
<line x1="562.9130434782609" y1="410.98571345103124" x2="569.0434782608695" y2="410.98571345103124" stroke="#000"/>
<line x1="565.9782608695652" y1="407.58074492254167" x2="565.9782608695652" y2="410.98571345103124" stroke="#000"/>
<line x1="565.9782608695652" y1="498.0" x2="565.9782608695652" y2="502.79999999999995" stroke="#000"/>
<text x="565.9782608695652" y="512.4" fill="#111" font-size="small" font-family="monospace" font-weight="bold" text-anchor="end" transform="rotate(-60, 565.9782608695652, 512.4)">
nqueens
</text>
<rect x="575.1739130434784" y="480.68733763581236" width="6.130434782608696" height="17.312662364187556" fill="#7070f8" data-tooltip="1.00x baseline speed (No JIT)"/>
<line x1="575.1739130434784" y1="480.5709697539603" x2="581.304347826087" y2="480.5709697539603" stroke="#000"/>
<line x1="575.1739130434784" y1="480.80370551766447" x2="581.304347826087" y2="480.80370551766447" stroke="#000"/>
<line x1="578.2391304347827" y1="480.5709697539603" x2="578.2391304347827" y2="480.80370551766447" stroke="#000"/>
<rect x="581.304347826087" y="458.1604996968493" width="6.130434782608696" height="39.83950030315067" fill="orange" data-tooltip="2.30x baseline speed (YJIT)"/>
<line x1="581.304347826087" y1="457.8238180677429" x2="587.4347826086956" y2="457.8238180677429" stroke="#000"/>
<line x1="581.304347826087" y1="458.49718132595564" x2="587.4347826086956" y2="458.49718132595564" stroke="#000"/>
<line x1="584.3695652173914" y1="457.8238180677429" x2="584.3695652173914" y2="458.49718132595564" stroke="#000"/>
<line x1="584.3695652173914" y1="498.0" x2="584.3695652173914" y2="502.79999999999995" stroke="#000"/>
<text x="584.3695652173914" y="512.4" fill="#111" font-size="small" font-family="monospace" font-weight="bold" text-anchor="end" transform="rotate(-60, 584.3695652173914, 512.4)">
optcarrot
</text>
<rect x="593.5652173913044" y="480.68733763581236" width="6.130434782608696" height="17.312662364187556" fill="#7070f8" data-tooltip="1.00x baseline speed (No JIT)"/>
<line x1="593.5652173913044" y1="480.63152056474667" x2="599.6956521739131" y2="480.63152056474667" stroke="#000"/>
<line x1="593.5652173913044" y1="480.74315470687804" x2="599.6956521739131" y2="480.74315470687804" stroke="#000"/>
<line x1="596.6304347826087" y1="480.63152056474667" x2="596.6304347826087" y2="480.74315470687804" stroke="#000"/>
<rect x="599.6956521739131" y="449.07274791098973" width="6.130434782608696" height="48.927252089010246" fill="orange" data-tooltip="2.83x baseline speed (YJIT)"/>
<line x1="599.6956521739131" y1="448.88840517701857" x2="605.8260869565217" y2="448.88840517701857" stroke="#000"/>
<line x1="599.6956521739131" y1="449.25709064496084" x2="605.8260869565217" y2="449.25709064496084" stroke="#000"/>
<line x1="602.7608695652175" y1="448.88840517701857" x2="602.7608695652175" y2="449.25709064496084" stroke="#000"/>
<line x1="602.7608695652175" y1="498.0" x2="602.7608695652175" y2="502.79999999999995" stroke="#000"/>
<text x="602.7608695652175" y="512.4" fill="#111" font-size="small" font-family="monospace" font-weight="bold" text-anchor="end" transform="rotate(-60, 602.7608695652175, 512.4)">
protoboeuf
</text>
<rect x="611.9565217391304" y="480.68733763581236" width="6.130434782608696" height="17.312662364187556" fill="#7070f8" data-tooltip="1.00x baseline speed (No JIT)"/>
<line x1="611.9565217391304" y1="480.66733948495255" x2="618.086956521739" y2="480.66733948495255" stroke="#000"/>
<line x1="611.9565217391304" y1="480.7073357866722" x2="618.086956521739" y2="480.7073357866722" stroke="#000"/>
<line x1="615.0217391304348" y1="480.66733948495255" x2="615.0217391304348" y2="480.7073357866722" stroke="#000"/>
<rect x="618.086956521739" y="476.9533115621629" width="6.130434782608696" height="21.046688437837062" fill="orange" data-tooltip="1.22x baseline speed (YJIT)"/>
<line x1="618.086956521739" y1="476.8647344300981" x2="624.2173913043478" y2="476.8647344300981" stroke="#000"/>
<line x1="618.086956521739" y1="477.0418886942277" x2="624.2173913043478" y2="477.0418886942277" stroke="#000"/>
<line x1="621.1521739130435" y1="476.8647344300981" x2="621.1521739130435" y2="477.0418886942277" stroke="#000"/>
<line x1="621.1521739130435" y1="498.0" x2="621.1521739130435" y2="502.79999999999995" stroke="#000"/>
<text x="621.1521739130435" y="512.4" fill="#111" font-size="small" font-family="monospace" font-weight="bold" text-anchor="end" transform="rotate(-60, 621.1521739130435, 512.4)">
rack
</text>
<rect x="630.3478260869565" y="480.68733763581236" width="6.130434782608696" height="17.312662364187556" fill="#7070f8" data-tooltip="1.00x baseline speed (No JIT)"/>
<line x1="630.3478260869565" y1="480.6737379356205" x2="636.4782608695651" y2="480.6737379356205" stroke="#000"/>
<line x1="630.3478260869565" y1="480.70093733600424" x2="636.4782608695651" y2="480.70093733600424" stroke="#000"/>
<line x1="633.4130434782609" y1="480.6737379356205" x2="633.4130434782609" y2="480.70093733600424" stroke="#000"/>
<rect x="636.4782608695651" y="476.3174192983333" width="6.130434782608696" height="21.68258070166665" fill="orange" data-tooltip="1.25x baseline speed (YJIT)"/>
<line x1="636.4782608695651" y1="476.2969389553044" x2="642.6086956521739" y2="476.2969389553044" stroke="#000"/>
<line x1="636.4782608695651" y1="476.33789964136207" x2="642.6086956521739" y2="476.33789964136207" stroke="#000"/>
<line x1="639.5434782608695" y1="476.2969389553044" x2="639.5434782608695" y2="476.33789964136207" stroke="#000"/>
<line x1="639.5434782608695" y1="498.0" x2="639.5434782608695" y2="502.79999999999995" stroke="#000"/>
<text x="639.5434782608695" y="512.4" fill="#111" font-size="small" font-family="monospace" font-weight="bold" text-anchor="end" transform="rotate(-60, 639.5434782608695, 512.4)">
ruby-json
</text>
<rect x="648.7391304347826" y="480.68733763581236" width="6.130434782608696" height="17.312662364187556" fill="#7070f8" data-tooltip="1.00x baseline speed (No JIT)"/>
<line x1="648.7391304347826" y1="480.60297453861176" x2="654.8695652173913" y2="480.60297453861176" stroke="#000"/>
<line x1="648.7391304347826" y1="480.77170073301295" x2="654.8695652173913" y2="480.77170073301295" stroke="#000"/>
<line x1="651.804347826087" y1="480.60297453861176" x2="651.804347826087" y2="480.77170073301295" stroke="#000"/>
<rect x="654.8695652173913" y="465.70609486538984" width="6.130434782608696" height="32.29390513461004" fill="orange" data-tooltip="1.87x baseline speed (YJIT)"/>
<line x1="654.8695652173913" y1="465.4535956614534" x2="660.9999999999999" y2="465.4535956614534" stroke="#000"/>
<line x1="654.8695652173913" y1="465.9585940693263" x2="660.9999999999999" y2="465.9585940693263" stroke="#000"/>
<line x1="657.9347826086956" y1="465.4535956614534" x2="657.9347826086956" y2="465.9585940693263" stroke="#000"/>
<line x1="657.9347826086956" y1="498.0" x2="657.9347826086956" y2="502.79999999999995" stroke="#000"/>
<text x="657.9347826086956" y="512.4" fill="#111" font-size="small" font-family="monospace" font-weight="bold" text-anchor="end" transform="rotate(-60, 657.9347826086956, 512.4)">
rubykon
</text>
<rect x="667.1304347826087" y="480.68733763581236" width="6.130434782608696" height="17.312662364187556" fill="#7070f8" data-tooltip="1.00x baseline speed (No JIT)"/>
<line x1="667.1304347826087" y1="480.6303356086759" x2="673.2608695652174" y2="480.6303356086759" stroke="#000"/>
<line x1="667.1304347826087" y1="480.7443396629488" x2="673.2608695652174" y2="480.7443396629488" stroke="#000"/>
<line x1="670.1956521739131" y1="480.6303356086759" x2="670.1956521739131" y2="480.7443396629488" stroke="#000"/>
<rect x="673.2608695652174" y="442.8777799775871" width="6.130434782608696" height="55.122220022412755" fill="orange" data-tooltip="3.18x baseline speed (YJIT)"/>
<line x1="673.2608695652174" y1="442.69247968334497" x2="679.391304347826" y2="442.69247968334497" stroke="#000"/>
<line x1="673.2608695652174" y1="443.0630802718293" x2="679.391304347826" y2="443.0630802718293" stroke="#000"/>
<line x1="676.3260869565217" y1="442.69247968334497" x2="676.3260869565217" y2="443.0630802718293" stroke="#000"/>
<line x1="676.3260869565217" y1="498.0" x2="676.3260869565217" y2="502.79999999999995" stroke="#000"/>
<text x="676.3260869565217" y="512.4" fill="#111" font-size="small" font-family="monospace" font-weight="bold" text-anchor="end" transform="rotate(-60, 676.3260869565217, 512.4)">
sudoku
</text>
<rect x="685.5217391304348" y="480.68733763581236" width="6.130434782608696" height="17.312662364187556" fill="#7070f8" data-tooltip="1.00x baseline speed (No JIT)"/>
<line x1="685.5217391304348" y1="480.6587053346604" x2="691.6521739130435" y2="480.6587053346604" stroke="#000"/>
<line x1="685.5217391304348" y1="480.7159699369643" x2="691.6521739130435" y2="480.7159699369643" stroke="#000"/>
<line x1="688.5869565217391" y1="480.6587053346604" x2="688.5869565217391" y2="480.7159699369643" stroke="#000"/>
<rect x="691.6521739130435" y="462.50870013677456" width="6.130434782608696" height="35.49129986322532" fill="orange" data-tooltip="2.05x baseline speed (YJIT)"/>
<line x1="691.6521739130435" y1="462.4192456472806" x2="697.7826086956521" y2="462.4192456472806" stroke="#000"/>
<line x1="691.6521739130435" y1="462.5981546262685" x2="697.7826086956521" y2="462.5981546262685" stroke="#000"/>
<line x1="694.7173913043479" y1="462.4192456472806" x2="694.7173913043479" y2="462.5981546262685" stroke="#000"/>
<line x1="694.7173913043479" y1="498.0" x2="694.7173913043479" y2="502.79999999999995" stroke="#000"/>
<text x="694.7173913043479" y="512.4" fill="#111" font-size="small" font-family="monospace" font-weight="bold" text-anchor="end" transform="rotate(-60, 694.7173913043479, 512.4)">
tinygql
</text>
<rect x="703.9130434782609" y="480.68733763581236" width="6.130434782608696" height="17.312662364187556" fill="#7070f8" data-tooltip="1.00x baseline speed (No JIT)"/>
<line x1="703.9130434782609" y1="480.6750472456381" x2="710.0434782608695" y2="480.6750472456381" stroke="#000"/>
<line x1="703.9130434782609" y1="480.6996280259866" x2="710.0434782608695" y2="480.6996280259866" stroke="#000"/>
<line x1="706.9782608695652" y1="480.6750472456381" x2="706.9782608695652" y2="480.6996280259866" stroke="#000"/>
<rect x="710.0434782608695" y="424.1189471326847" width="6.130434782608696" height="73.88105286731523" fill="orange" data-tooltip="4.27x baseline speed (YJIT)"/>
<line x1="710.0434782608695" y1="424.0586407981688" x2="716.1739130434783" y2="424.0586407981688" stroke="#000"/>
<line x1="710.0434782608695" y1="424.1792534672006" x2="716.1739130434783" y2="424.1792534672006" stroke="#000"/>
<line x1="713.108695652174" y1="424.0586407981688" x2="713.108695652174" y2="424.1792534672006" stroke="#000"/>
<line x1="713.108695652174" y1="498.0" x2="713.108695652174" y2="502.79999999999995" stroke="#000"/>
<text x="713.108695652174" y="512.4" fill="#111" font-size="small" font-family="monospace" font-weight="bold" text-anchor="end" transform="rotate(-60, 713.108695652174, 512.4)">
30k_ifelse
</text>
<rect x="722.304347826087" y="480.68733763581236" width="6.130434782608696" height="17.312662364187556" fill="#7070f8" data-tooltip="1.00x baseline speed (No JIT)"/>
<line x1="722.304347826087" y1="480.677253792009" x2="728.4347826086956" y2="480.677253792009" stroke="#000"/>
<line x1="722.304347826087" y1="480.69742147961574" x2="728.4347826086956" y2="480.69742147961574" stroke="#000"/>
<line x1="725.3695652173914" y1="480.677253792009" x2="725.3695652173914" y2="480.69742147961574" stroke="#000"/>
<rect x="728.4347826086956" y="397.9423467972849" width="6.130434782608696" height="100.05765320271507" fill="orange" data-tooltip="5.78x baseline speed (YJIT)"/>
<line x1="728.4347826086956" y1="397.8446947963878" x2="734.5652173913043" y2="397.8446947963878" stroke="#000"/>
<line x1="728.4347826086956" y1="398.039998798182" x2="734.5652173913043" y2="398.039998798182" stroke="#000"/>
<line x1="731.5" y1="397.8446947963878" x2="731.5" y2="398.039998798182" stroke="#000"/>
<line x1="731.5" y1="498.0" x2="731.5" y2="502.79999999999995" stroke="#000"/>
<text x="731.5" y="512.4" fill="#111" font-size="small" font-family="monospace" font-weight="bold" text-anchor="end" transform="rotate(-60, 731.5, 512.4)">
30k_methods
</text>
<rect x="740.6956521739131" y="480.68733763581236" width="6.130434782608696" height="17.312662364187556" fill="#7070f8" data-tooltip="1.00x baseline speed (No JIT)"/>
<line x1="740.6956521739131" y1="480.6270454439338" x2="746.8260869565217" y2="480.6270454439338" stroke="#000"/>
<line x1="740.6956521739131" y1="480.7476298276909" x2="746.8260869565217" y2="480.7476298276909" stroke="#000"/>
<line x1="743.7608695652175" y1="480.6270454439338" x2="743.7608695652175" y2="480.7476298276909" stroke="#000"/>
<rect x="746.8260869565217" y="380.86572454636445" width="6.130434782608696" height="117.13427545363554" fill="orange" data-tooltip="6.77x baseline speed (YJIT)"/>
<line x1="746.8260869565217" y1="380.45727270190343" x2="752.9565217391304" y2="380.45727270190343" stroke="#000"/>
<line x1="746.8260869565217" y1="381.2741763908254" x2="752.9565217391304" y2="381.2741763908254" stroke="#000"/>
<line x1="749.8913043478261" y1="380.45727270190343" x2="749.8913043478261" y2="381.2741763908254" stroke="#000"/>
<line x1="749.8913043478261" y1="498.0" x2="749.8913043478261" y2="502.79999999999995" stroke="#000"/>
<text x="749.8913043478261" y="512.4" fill="#111" font-size="small" font-family="monospace" font-weight="bold" text-anchor="end" transform="rotate(-60, 749.8913043478261, 512.4)">
cfunc_itself
</text>
<rect x="759.0869565217392" y="480.68733763581236" width="6.130434782608696" height="17.312662364187556" fill="#7070f8" data-tooltip="1.00x baseline speed (No JIT)"/>
<line x1="759.0869565217392" y1="480.3075624178317" x2="765.2173913043479" y2="480.3075624178317" stroke="#000"/>
<line x1="759.0869565217392" y1="481.067112853793" x2="765.2173913043479" y2="481.067112853793" stroke="#000"/>
<line x1="762.1521739130436" y1="480.3075624178317" x2="762.1521739130436" y2="481.067112853793" stroke="#000"/>
<rect x="765.2173913043479" y="414.1957409334079" width="6.130434782608696" height="83.804259066592" fill="orange" data-tooltip="4.84x baseline speed (YJIT)"/>
<line x1="765.2173913043479" y1="411.7242961460168" x2="771.3478260869565" y2="411.7242961460168" stroke="#000"/>
<line x1="765.2173913043479" y1="416.66718572079895" x2="771.3478260869565" y2="416.66718572079895" stroke="#000"/>
<line x1="768.2826086956522" y1="411.7242961460168" x2="768.2826086956522" y2="416.66718572079895" stroke="#000"/>
<line x1="768.2826086956522" y1="498.0" x2="768.2826086956522" y2="502.79999999999995" stroke="#000"/>
<text x="768.2826086956522" y="512.4" fill="#111" font-size="small" font-family="monospace" font-weight="bold" text-anchor="end" transform="rotate(-60, 768.2826086956522, 512.4)">
fib
</text>
<rect x="777.4782608695652" y="480.68733763581236" width="6.130434782608696" height="17.312662364187556" fill="#7070f8" data-tooltip="1.00x baseline speed (No JIT)"/>
<line x1="777.4782608695652" y1="480.64449051182396" x2="783.608695652174" y2="480.64449051182396" stroke="#000"/>
<line x1="777.4782608695652" y1="480.7301847598008" x2="783.608695652174" y2="480.7301847598008" stroke="#000"/>
<line x1="780.5434782608696" y1="480.64449051182396" x2="780.5434782608696" y2="480.7301847598008" stroke="#000"/>
<rect x="783.608695652174" y="385.8725008359324" width="6.130434782608696" height="112.12749916406757" fill="orange" data-tooltip="6.48x baseline speed (YJIT)"/>
<line x1="783.608695652174" y1="385.5594864522361" x2="789.7391304347826" y2="385.5594864522361" stroke="#000"/>
<line x1="783.608695652174" y1="386.1855152196287" x2="789.7391304347826" y2="386.1855152196287" stroke="#000"/>
<line x1="786.6739130434784" y1="385.5594864522361" x2="786.6739130434784" y2="386.1855152196287" stroke="#000"/>
<line x1="786.6739130434784" y1="498.0" x2="786.6739130434784" y2="502.79999999999995" stroke="#000"/>
<text x="786.6739130434784" y="512.4" fill="#111" font-size="small" font-family="monospace" font-weight="bold" text-anchor="end" transform="rotate(-60, 786.6739130434784, 512.4)">
getivar
</text>
<rect x="795.8695652173913" y="480.68733763581236" width="6.130434782608696" height="17.312662364187556" fill="#7070f8" data-tooltip="1.00x baseline speed (No JIT)"/>
<line x1="795.8695652173913" y1="480.6381544611532" x2="801.9999999999999" y2="480.6381544611532" stroke="#000"/>
<line x1="795.8695652173913" y1="480.7365208104715" x2="801.9999999999999" y2="480.7365208104715" stroke="#000"/>
<line x1="798.9347826086956" y1="480.6381544611532" x2="798.9347826086956" y2="480.7365208104715" stroke="#000"/>
<rect x="801.9999999999999" y="315.6875558945631" width="6.130434782608696" height="182.31244410543678" fill="orange" data-tooltip="10.53x baseline speed (YJIT)"/>
<line x1="801.9999999999999" y1="315.1604559155265" x2="808.1304347826086" y2="315.1604559155265" stroke="#000"/>
<line x1="801.9999999999999" y1="316.2146558735997" x2="808.1304347826086" y2="316.2146558735997" stroke="#000"/>
<line x1="805.0652173913044" y1="315.1604559155265" x2="805.0652173913044" y2="316.2146558735997" stroke="#000"/>
<line x1="805.0652173913044" y1="498.0" x2="805.0652173913044" y2="502.79999999999995" stroke="#000"/>
<text x="805.0652173913044" y="512.4" fill="#111" font-size="small" font-family="monospace" font-weight="bold" text-anchor="end" transform="rotate(-60, 805.0652173913044, 512.4)">
keyword_args
</text>
<rect x="814.2608695652174" y="480.68733763581236" width="6.130434782608696" height="17.312662364187556" fill="#7070f8" data-tooltip="1.00x baseline speed (No JIT)"/>
<line x1="814.2608695652174" y1="480.584583697389" x2="820.391304347826" y2="480.584583697389" stroke="#000"/>
<line x1="814.2608695652174" y1="480.79009157423576" x2="820.391304347826" y2="480.79009157423576" stroke="#000"/>
<line x1="817.3260869565217" y1="480.584583697389" x2="817.3260869565217" y2="480.79009157423576" stroke="#000"/>
<rect x="820.391304347826" y="100.19999999999999" width="6.130434782608696" height="397.79999999999995" fill="orange" data-tooltip="22.98x baseline speed (YJIT)"/>
<line x1="820.391304347826" y1="97.83194216525635" x2="826.5217391304348" y2="97.83194216525635" stroke="#000"/>
<line x1="820.391304347826" y1="102.56805783474363" x2="826.5217391304348" y2="102.56805783474363" stroke="#000"/>
<line x1="823.4565217391304" y1="97.83194216525635" x2="823.4565217391304" y2="102.56805783474363" stroke="#000"/>
<line x1="823.4565217391304" y1="498.0" x2="823.4565217391304" y2="502.79999999999995" stroke="#000"/>
<text x="823.4565217391304" y="512.4" fill="#111" font-size="small" font-family="monospace" font-weight="bold" text-anchor="end" transform="rotate(-60, 823.4565217391304, 512.4)">
respond_to
</text>
<rect x="832.6521739130435" y="480.68733763581236" width="6.130434782608696" height="17.312662364187556" fill="#7070f8" data-tooltip="1.00x baseline speed (No JIT)"/>
<line x1="832.6521739130435" y1="480.1743335958347" x2="838.7826086956521" y2="480.1743335958347" stroke="#000"/>
<line x1="832.6521739130435" y1="481.20034167579" x2="838.7826086956521" y2="481.20034167579" stroke="#000"/>
<line x1="835.7173913043479" y1="480.1743335958347" x2="835.7173913043479" y2="481.20034167579" stroke="#000"/>
<rect x="838.7826086956521" y="394.0387105494601" width="6.130434782608696" height="103.96128945053982" fill="orange" data-tooltip="6.00x baseline speed (YJIT)"/>
<line x1="838.7826086956521" y1="390.9567810628115" x2="844.9130434782608" y2="390.9567810628115" stroke="#000"/>
<line x1="838.7826086956521" y1="397.1206400361087" x2="844.9130434782608" y2="397.1206400361087" stroke="#000"/>
<line x1="841.8478260869565" y1="390.9567810628115" x2="841.8478260869565" y2="397.1206400361087" stroke="#000"/>
<line x1="841.8478260869565" y1="498.0" x2="841.8478260869565" y2="502.79999999999995" stroke="#000"/>
<text x="841.8478260869565" y="512.4" fill="#111" font-size="small" font-family="monospace" font-weight="bold" text-anchor="end" transform="rotate(-60, 841.8478260869565, 512.4)">
ruby-xor
</text>
<rect x="851.0434782608696" y="480.68733763581236" width="6.130434782608696" height="17.312662364187556" fill="#7070f8" data-tooltip="1.00x baseline speed (No JIT)"/>
<line x1="851.0434782608696" y1="480.66694751804783" x2="857.1739130434783" y2="480.66694751804783" stroke="#000"/>
<line x1="851.0434782608696" y1="480.70772775357693" x2="857.1739130434783" y2="480.70772775357693" stroke="#000"/>
<line x1="854.108695652174" y1="480.66694751804783" x2="854.108695652174" y2="480.70772775357693" stroke="#000"/>
<rect x="857.1739130434783" y="379.9310628771193" width="6.130434782608696" height="118.06893712288064" fill="orange" data-tooltip="6.82x baseline speed (YJIT)"/>
<line x1="857.1739130434783" y1="379.79016171135044" x2="863.3043478260869" y2="379.79016171135044" stroke="#000"/>
<line x1="857.1739130434783" y1="380.07196404288817" x2="863.3043478260869" y2="380.07196404288817" stroke="#000"/>
<line x1="860.2391304347826" y1="379.79016171135044" x2="860.2391304347826" y2="380.07196404288817" stroke="#000"/>
<line x1="860.2391304347826" y1="498.0" x2="860.2391304347826" y2="502.79999999999995" stroke="#000"/>
<text x="860.2391304347826" y="512.4" fill="#111" font-size="small" font-family="monospace" font-weight="bold" text-anchor="end" transform="rotate(-60, 860.2391304347826, 512.4)">
setivar
</text>
<rect x="869.4347826086956" y="480.68733763581236" width="6.130434782608696" height="17.312662364187556" fill="#7070f8" data-tooltip="1.00x baseline speed (No JIT)"/>
<line x1="869.4347826086956" y1="479.58135037115096" x2="875.5652173913044" y2="479.58135037115096" stroke="#000"/>
<line x1="869.4347826086956" y1="481.79332490047375" x2="875.5652173913044" y2="481.79332490047375" stroke="#000"/>
<line x1="872.5" y1="479.58135037115096" x2="872.5" y2="481.79332490047375" stroke="#000"/>
<rect x="875.5652173913044" y="453.97399417104396" width="6.130434782608696" height="44.02600582895599" fill="orange" data-tooltip="2.54x baseline speed (YJIT)"/>
<line x1="875.5652173913044" y1="445.04428236777886" x2="881.695652173913" y2="445.04428236777886" stroke="#000"/>
<line x1="875.5652173913044" y1="462.903705974309" x2="881.695652173913" y2="462.903705974309" stroke="#000"/>
<line x1="878.6304347826087" y1="445.04428236777886" x2="878.6304347826087" y2="462.903705974309" stroke="#000"/>
<line x1="878.6304347826087" y1="498.0" x2="878.6304347826087" y2="502.79999999999995" stroke="#000"/>
<text x="878.6304347826087" y="512.4" fill="#111" font-size="small" font-family="monospace" font-weight="bold" text-anchor="end" transform="rotate(-60, 878.6304347826087, 512.4)">
setivar_object
</text>
<rect x="887.8260869565217" y="480.68733763581236" width="6.130434782608696" height="17.312662364187556" fill="#7070f8" data-tooltip="1.00x baseline speed (No JIT)"/>
<line x1="887.8260869565217" y1="479.8563826784185" x2="893.9565217391304" y2="479.8563826784185" stroke="#000"/>
<line x1="887.8260869565217" y1="481.51829259320624" x2="893.9565217391304" y2="481.51829259320624" stroke="#000"/>
<line x1="890.8913043478261" y1="479.8563826784185" x2="890.8913043478261" y2="481.51829259320624" stroke="#000"/>
<rect x="893.9565217391304" y="453.15968431595286" width="6.130434782608696" height="44.84031568404701" fill="orange" data-tooltip="2.59x baseline speed (YJIT)"/>
<line x1="893.9565217391304" y1="445.7611408806536" x2="900.0869565217391" y2="445.7611408806536" stroke="#000"/>
<line x1="893.9565217391304" y1="460.55822775125216" x2="900.0869565217391" y2="460.55822775125216" stroke="#000"/>
<line x1="897.0217391304349" y1="445.7611408806536" x2="897.0217391304349" y2="460.55822775125216" stroke="#000"/>
<line x1="897.0217391304349" y1="498.0" x2="897.0217391304349" y2="502.79999999999995" stroke="#000"/>
<text x="897.0217391304349" y="512.4" fill="#111" font-size="small" font-family="monospace" font-weight="bold" text-anchor="end" transform="rotate(-60, 897.0217391304349, 512.4)">
setivar_young
</text>
<rect x="906.2173913043479" y="480.68733763581236" width="6.130434782608696" height="17.312662364187556" fill="#7070f8" data-tooltip="1.00x baseline speed (No JIT)"/>
<line x1="906.2173913043479" y1="480.672045000385" x2="912.3478260869565" y2="480.672045000385" stroke="#000"/>
<line x1="906.2173913043479" y1="480.7026302712397" x2="912.3478260869565" y2="480.7026302712397" stroke="#000"/>
<line x1="909.2826086956522" y1="480.672045000385" x2="909.2826086956522" y2="480.7026302712397" stroke="#000"/>
<rect x="912.3478260869565" y="459.5560427177825" width="6.130434782608696" height="38.443957282217504" fill="orange" data-tooltip="2.22x baseline speed (YJIT)"/>
<line x1="912.3478260869565" y1="459.42364844872884" x2="918.4782608695651" y2="459.42364844872884" stroke="#000"/>
<line x1="912.3478260869565" y1="459.68843698683617" x2="918.4782608695651" y2="459.68843698683617" stroke="#000"/>
<line x1="915.4130434782609" y1="459.42364844872884" x2="915.4130434782609" y2="459.68843698683617" stroke="#000"/>
<line x1="915.4130434782609" y1="498.0" x2="915.4130434782609" y2="502.79999999999995" stroke="#000"/>
<text x="915.4130434782609" y="512.4" fill="#111" font-size="small" font-family="monospace" font-weight="bold" text-anchor="end" transform="rotate(-60, 915.4130434782609, 512.4)">
str_concat
</text>
<rect x="924.608695652174" y="480.68733763581236" width="6.130434782608696" height="17.312662364187556" fill="#7070f8" data-tooltip="1.00x baseline speed (No JIT)"/>
<line x1="924.608695652174" y1="480.61850770335525" x2="930.7391304347826" y2="480.61850770335525" stroke="#000"/>
<line x1="924.608695652174" y1="480.7561675682695" x2="930.7391304347826" y2="480.7561675682695" stroke="#000"/>
<line x1="927.6739130434784" y1="480.61850770335525" x2="927.6739130434784" y2="480.7561675682695" stroke="#000"/>
<rect x="930.7391304347826" y="473.2820105041393" width="6.130434782608696" height="24.717989495860678" fill="orange" data-tooltip="1.43x baseline speed (YJIT)"/>
<line x1="930.7391304347826" y1="473.16890537001154" x2="936.8695652173913" y2="473.16890537001154" stroke="#000"/>
<line x1="930.7391304347826" y1="473.39511563826704" x2="936.8695652173913" y2="473.39511563826704" stroke="#000"/>
<line x1="933.804347826087" y1="473.16890537001154" x2="933.804347826087" y2="473.39511563826704" stroke="#000"/>
<line x1="933.804347826087" y1="498.0" x2="933.804347826087" y2="502.79999999999995" stroke="#000"/>
<text x="933.804347826087" y="512.4" fill="#111" font-size="small" font-family="monospace" font-weight="bold" text-anchor="end" transform="rotate(-60, 933.804347826087, 512.4)">
throw
</text>
</svg>