<svg viewBox="0 0 1000 600" xmlns="http://www.w3.org/2000/svg" xmlns:xlink="http://www.w3.org/1999/xlink" width="100%" height="100%">

<rect x="50.0" y="30.0" width="940.0" height="467.99999999999994" stroke="#000" fill="#fff"/>
<line x1="42.0" y1="497.9999999999999" x2="50.0" y2="497.9999999999999" stroke="#000"/>
<text x="26.000000000000004" y="497.9999999999999" text-anchor="end" font-weight="bold" font-size="small" fill="#111">
0.0
</text>
<line x1="42.0" y1="436.9742612137202" x2="50.0" y2="436.9742612137202" stroke="#000"/>
<text x="26.000000000000004" y="436.9742612137202" text-anchor="end" font-weight="bold" font-size="small" fill="#111">
0.2
</text>
<line x1="42.0" y1="375.9485224274406" x2="50.0" y2="375.9485224274406" stroke="#000"/>
<text x="26.000000000000004" y="375.9485224274406" text-anchor="end" font-weight="bold" font-size="small" fill="#111">
0.4
</text>
<line x1="42.0" y1="314.9227836411609" x2="50.0" y2="314.9227836411609" stroke="#000"/>
<text x="26.000000000000004" y="314.9227836411609" text-anchor="end" font-weight="bold" font-size="small" fill="#111">
0.6
</text>
<line x1="42.0" y1="253.89704485488122" x2="50.0" y2="253.89704485488122" stroke="#000"/>
<text x="26.000000000000004" y="253.89704485488122" text-anchor="end" font-weight="bold" font-size="small" fill="#111">
0.8
</text>
<line x1="42.0" y1="192.87130606860154" x2="50.0" y2="192.87130606860154" stroke="#000"/>
<text x="26.000000000000004" y="192.87130606860154" text-anchor="end" font-weight="bold" font-size="small" fill="#111">
1.0
</text>
<line x1="42.0" y1="131.8455672823219" x2="50.0" y2="131.8455672823219" stroke="#000"/>
<text x="26.000000000000004" y="131.8455672823219" text-anchor="end" font-weight="bold" font-size="small" fill="#111">
1.2
</text>
<line x1="142.75" y1="54.60000000000001" x2="262.75" y2="54.60000000000001" stroke="#648FFF" stroke-width="2"/>
<text x="202.75" y="49.500000000000014" font-size="small" text-anchor="middle" font-weight="bold" fill="#000">
CRuby 3.3.3
</text>
<rect x="354.25" y="35.400000000000006" width="120.0" height="19.2" fill="#785EF0" stroke="none"/>
<text x="414.25" y="49.500000000000014" font-size="small" text-anchor="middle" font-weight="bold" fill="#fff" style="text-shadow: 0 0 1px #000;">
CRuby 3.4.0dev
</text>
<rect x="565.75" y="35.400000000000006" width="120.0" height="19.2" fill="#FFB000" stroke="none"/>
<text x="625.7499999999999" y="49.500000000000014" font-size="small" text-anchor="middle" font-weight="bold" fill="#fff" style="text-shadow: 0 0 1px #000;">
YJIT 3.3.3
</text>
<rect x="777.25" y="35.400000000000006" width="120.0" height="19.2" fill="#DC267F" stroke="none"/>
<text x="837.2499999999999" y="49.500000000000014" font-size="small" text-anchor="middle" font-weight="bold" fill="#fff" style="text-shadow: 0 0 1px #000;">
YJIT 3.4.0dev
</text>
<rect x="61.05882352941176" y="179.9177294394384" width="11.058823529411763" height="318.0822705605616" fill="#785EF0" data-tooltip="1.04x baseline (CRuby 3.4.0dev)"/>
<rect x="72.11764705882352" y="180.8463012408121" width="11.058823529411763" height="317.1536987591878" fill="#FFB000" data-tooltip="1.04x baseline (YJIT 3.3.3)"/>
<rect x="83.17647058823528" y="173.8820127305093" width="11.058823529411763" height="324.11798726949064" fill="#DC267F" data-tooltip="1.06x baseline (YJIT 3.4.0dev)"/>
<line x1="77.6470588235294" y1="498.0" x2="77.6470588235294" y2="502.79999999999995" stroke="#000"/>
<text x="77.6470588235294" y="512.4" fill="#111" font-size="small" text-anchor="end" transform="rotate(-60, 77.6470588235294, 512.4)">
binarytrees
</text>
<rect x="105.2941176470588" y="170.54211346748417" width="11.058823529411763" height="327.4578865325158" fill="#785EF0" data-tooltip="1.07x baseline (CRuby 3.4.0dev)"/>
<rect x="116.35294117647057" y="186.00078526825772" width="11.058823529411763" height="311.9992147317422" fill="#FFB000" data-tooltip="1.02x baseline (YJIT 3.3.3)"/>
<rect x="127.41176470588233" y="165.00137088656166" width="11.058823529411763" height="332.9986291134383" fill="#DC267F" data-tooltip="1.09x baseline (YJIT 3.4.0dev)"/>
<line x1="121.88235294117644" y1="498.0" x2="121.88235294117644" y2="502.79999999999995" stroke="#000"/>
<text x="121.88235294117644" y="512.4" fill="#111" font-size="small" text-anchor="end" transform="rotate(-60, 121.88235294117644, 512.4)">
blurhash
</text>
<rect x="149.52941176470586" y="174.27429763485944" width="11.058823529411763" height="323.72570236514053" fill="#785EF0" data-tooltip="1.06x baseline (CRuby 3.4.0dev)"/>
<rect x="160.58823529411762" y="176.74579548770964" width="11.058823529411763" height="321.2542045122903" fill="#FFB000" data-tooltip="1.05x baseline (YJIT 3.3.3)"/>
<rect x="171.64705882352936" y="158.59446699464547" width="11.058823529411763" height="339.40553300535447" fill="#DC267F" data-tooltip="1.11x baseline (YJIT 3.4.0dev)"/>
<line x1="166.11764705882348" y1="498.0" x2="166.11764705882348" y2="502.79999999999995" stroke="#000"/>
<text x="166.11764705882348" y="512.4" fill="#111" font-size="small" text-anchor="end" transform="rotate(-60, 166.11764705882348, 512.4)">
erubi
</text>
<rect x="193.7647058823529" y="183.2505872091648" width="11.058823529411763" height="314.74941279083515" fill="#785EF0" data-tooltip="1.03x baseline (CRuby 3.4.0dev)"/>
<rect x="204.82352941176467" y="188.97238316240882" width="11.058823529411763" height="309.0276168375911" fill="#FFB000" data-tooltip="1.01x baseline (YJIT 3.3.3)"/>
<rect x="215.8823529411764" y="174.2881280611632" width="11.058823529411763" height="323.71187193883674" fill="#DC267F" data-tooltip="1.06x baseline (YJIT 3.4.0dev)"/>
<line x1="210.35294117647052" y1="498.0" x2="210.35294117647052" y2="502.79999999999995" stroke="#000"/>
<text x="210.35294117647052" y="512.4" fill="#111" font-size="small" text-anchor="end" transform="rotate(-60, 210.35294117647052, 512.4)">
etanni
</text>
<rect x="237.99999999999994" y="170.27356254750921" width="11.058823529411763" height="327.72643745249076" fill="#785EF0" data-tooltip="1.07x baseline (CRuby 3.4.0dev)"/>
<rect x="249.05882352941168" y="189.20360947617297" width="11.058823529411763" height="308.79639052382703" fill="#FFB000" data-tooltip="1.01x baseline (YJIT 3.3.3)"/>
<rect x="260.1176470588235" y="164.6537048655622" width="11.058823529411763" height="333.3462951344378" fill="#DC267F" data-tooltip="1.09x baseline (YJIT 3.4.0dev)"/>
<line x1="254.58823529411757" y1="498.0" x2="254.58823529411757" y2="502.79999999999995" stroke="#000"/>
<text x="254.58823529411757" y="512.4" fill="#111" font-size="small" text-anchor="end" transform="rotate(-60, 254.58823529411757, 512.4)">
fannkuchredux
</text>
<rect x="282.235294117647" y="180.08516288055756" width="11.058823529411763" height="317.9148371194423" fill="#785EF0" data-tooltip="1.04x baseline (CRuby 3.4.0dev)"/>
<rect x="293.29411764705884" y="167.3952890557918" width="11.058823529411763" height="330.60471094420814" fill="#FFB000" data-tooltip="1.08x baseline (YJIT 3.3.3)"/>
<rect x="304.3529411764706" y="166.02983584194874" width="11.058823529411763" height="331.97016415805115" fill="#DC267F" data-tooltip="1.09x baseline (YJIT 3.4.0dev)"/>
<line x1="298.8235294117647" y1="498.0" x2="298.8235294117647" y2="502.79999999999995" stroke="#000"/>
<text x="298.8235294117647" y="512.4" fill="#111" font-size="small" text-anchor="end" transform="rotate(-60, 298.8235294117647, 512.4)">
fluentd
</text>
<rect x="326.4705882352942" y="189.13046775126514" width="11.058823529411763" height="308.86953224873486" fill="#785EF0" data-tooltip="1.01x baseline (CRuby 3.4.0dev)"/>
<rect x="337.52941176470597" y="174.99186623692293" width="11.058823529411763" height="323.008133763077" fill="#FFB000" data-tooltip="1.06x baseline (YJIT 3.3.3)"/>
<rect x="348.58823529411774" y="167.4218233427855" width="11.058823529411763" height="330.5781766572144" fill="#DC267F" data-tooltip="1.08x baseline (YJIT 3.4.0dev)"/>
<line x1="343.0588235294119" y1="498.0" x2="343.0588235294119" y2="502.79999999999995" stroke="#000"/>
<text x="343.0588235294119" y="512.4" fill="#111" font-size="small" text-anchor="end" transform="rotate(-60, 343.0588235294119, 512.4)">
graphql
</text>
<rect x="370.70588235294133" y="176.87779262117667" width="11.058823529411763" height="321.12220737882325" fill="#785EF0" data-tooltip="1.05x baseline (CRuby 3.4.0dev)"/>
<rect x="381.7647058823531" y="174.8433926718957" width="11.058823529411763" height="323.1566073281042" fill="#FFB000" data-tooltip="1.06x baseline (YJIT 3.3.3)"/>
<rect x="392.8235294117649" y="154.31160241453625" width="11.058823529411763" height="343.68839758546375" fill="#DC267F" data-tooltip="1.13x baseline (YJIT 3.4.0dev)"/>
<line x1="387.294117647059" y1="498.0" x2="387.294117647059" y2="502.79999999999995" stroke="#000"/>
<text x="387.294117647059" y="512.4" fill="#111" font-size="small" text-anchor="end" transform="rotate(-60, 387.294117647059, 512.4)">
graphql-native
</text>
<rect x="414.94117647058846" y="191.6741864309377" width="11.058823529411763" height="306.32581356906223" fill="#785EF0" data-tooltip="1.00x baseline (CRuby 3.4.0dev)"/>
<rect x="426.0000000000003" y="177.51397128828566" width="11.058823529411763" height="320.48602871171425" fill="#FFB000" data-tooltip="1.05x baseline (YJIT 3.3.3)"/>
<rect x="437.05882352941205" y="171.69939019106144" width="11.058823529411763" height="326.30060980893853" fill="#DC267F" data-tooltip="1.07x baseline (YJIT 3.4.0dev)"/>
<line x1="431.52941176470614" y1="498.0" x2="431.52941176470614" y2="502.79999999999995" stroke="#000"/>
<text x="431.52941176470614" y="512.4" fill="#111" font-size="small" text-anchor="end" transform="rotate(-60, 431.52941176470614, 512.4)">
lee
</text>
<rect x="459.17647058823565" y="110.78127330855835" width="11.058823529411763" height="387.2187266914416" fill="#785EF0" data-tooltip="1.27x baseline (CRuby 3.4.0dev)"/>
<rect x="470.2352941176474" y="190.5102162717025" width="11.058823529411763" height="307.4897837282974" fill="#FFB000" data-tooltip="1.01x baseline (YJIT 3.3.3)"/>
<rect x="481.2941176470592" y="107.11315165980453" width="11.058823529411763" height="390.88684834019546" fill="#DC267F" data-tooltip="1.28x baseline (YJIT 3.4.0dev)"/>
<line x1="475.7647058823533" y1="498.0" x2="475.7647058823533" y2="502.79999999999995" stroke="#000"/>
<text x="475.7647058823533" y="512.4" fill="#111" font-size="small" text-anchor="end" transform="rotate(-60, 475.7647058823533, 512.4)">
matmul
</text>
<rect x="503.4117647058828" y="171.2870188674242" width="11.058823529411763" height="326.7129811325757" fill="#785EF0" data-tooltip="1.07x baseline (CRuby 3.4.0dev)"/>
<rect x="514.4705882352946" y="188.44829639622915" width="11.058823529411763" height="309.5517036037708" fill="#FFB000" data-tooltip="1.01x baseline (YJIT 3.3.3)"/>
<rect x="525.5294117647063" y="166.33324803436707" width="11.058823529411763" height="331.6667519656329" fill="#DC267F" data-tooltip="1.09x baseline (YJIT 3.4.0dev)"/>
<line x1="520.0000000000005" y1="498.0" x2="520.0000000000005" y2="502.79999999999995" stroke="#000"/>
<text x="520.0000000000005" y="512.4" fill="#111" font-size="small" text-anchor="end" transform="rotate(-60, 520.0000000000005, 512.4)">
nbody
</text>
<rect x="547.64705882353" y="176.19666758333636" width="11.058823529411763" height="321.80333241666364" fill="#785EF0" data-tooltip="1.05x baseline (CRuby 3.4.0dev)"/>
<rect x="558.7058823529417" y="189.43323627782524" width="11.058823529411763" height="308.56676372217476" fill="#FFB000" data-tooltip="1.01x baseline (YJIT 3.3.3)"/>
<rect x="569.7647058823535" y="158.89171630309554" width="11.058823529411763" height="339.1082836969044" fill="#DC267F" data-tooltip="1.11x baseline (YJIT 3.4.0dev)"/>
<line x1="564.2352941176476" y1="498.0" x2="564.2352941176476" y2="502.79999999999995" stroke="#000"/>
<text x="564.2352941176476" y="512.4" fill="#111" font-size="small" text-anchor="end" transform="rotate(-60, 564.2352941176476, 512.4)">
nqueens
</text>
<rect x="591.882352941177" y="204.56848411687483" width="11.058823529411763" height="293.43151588312514" fill="#785EF0" data-tooltip="0.96x baseline (CRuby 3.4.0dev)"/>
<rect x="602.9411764705889" y="159.9958764963541" width="11.058823529411763" height="338.00412350364587" fill="#FFB000" data-tooltip="1.11x baseline (YJIT 3.3.3)"/>
<rect x="614.0000000000007" y="179.16999866774108" width="11.058823529411763" height="318.8300013322588" fill="#DC267F" data-tooltip="1.04x baseline (YJIT 3.4.0dev)"/>
<line x1="608.4705882352947" y1="498.0" x2="608.4705882352947" y2="502.79999999999995" stroke="#000"/>
<text x="608.4705882352947" y="512.4" fill="#111" font-size="small" text-anchor="end" transform="rotate(-60, 608.4705882352947, 512.4)">
optcarrot
</text>
<rect x="636.1176470588242" y="118.43687335092342" width="11.058823529411763" height="379.56312664907654" fill="#785EF0" data-tooltip="1.24x baseline (CRuby 3.4.0dev)"/>
<rect x="647.176470588236" y="125.47796833773083" width="11.058823529411763" height="372.5220316622691" fill="#FFB000" data-tooltip="1.22x baseline (YJIT 3.3.3)"/>
<rect x="658.2352941176478" y="100.19999999999999" width="11.058823529411763" height="397.79999999999995" fill="#DC267F" data-tooltip="1.30x baseline (YJIT 3.4.0dev)"/>
<line x1="652.7058823529419" y1="498.0" x2="652.7058823529419" y2="502.79999999999995" stroke="#000"/>
<text x="652.7058823529419" y="512.4" fill="#111" font-size="small" text-anchor="end" transform="rotate(-60, 652.7058823529419, 512.4)">
protoboeuf
</text>
<rect x="680.3529411764714" y="174.36977884208693" width="11.058823529411763" height="323.63022115791296" fill="#785EF0" data-tooltip="1.06x baseline (CRuby 3.4.0dev)"/>
<rect x="691.4117647058831" y="179.2672419314585" width="11.058823529411763" height="318.7327580685415" fill="#FFB000" data-tooltip="1.04x baseline (YJIT 3.3.3)"/>
<rect x="702.4705882352949" y="160.99593732880322" width="11.058823529411763" height="337.0040626711967" fill="#DC267F" data-tooltip="1.10x baseline (YJIT 3.4.0dev)"/>
<line x1="696.9411764705891" y1="498.0" x2="696.9411764705891" y2="502.79999999999995" stroke="#000"/>
<text x="696.9411764705891" y="512.4" fill="#111" font-size="small" text-anchor="end" transform="rotate(-60, 696.9411764705891, 512.4)">
protoboeuf-encode
</text>
<rect x="724.5882352941185" y="173.52563716710438" width="11.058823529411763" height="324.4743628328955" fill="#785EF0" data-tooltip="1.06x baseline (CRuby 3.4.0dev)"/>
<rect x="735.6470588235303" y="173.2167242904338" width="11.058823529411763" height="324.7832757095661" fill="#FFB000" data-tooltip="1.06x baseline (YJIT 3.3.3)"/>
<rect x="746.7058823529421" y="151.20668182765255" width="11.058823529411763" height="346.7933181723474" fill="#DC267F" data-tooltip="1.14x baseline (YJIT 3.4.0dev)"/>
<line x1="741.1764705882363" y1="498.0" x2="741.1764705882363" y2="502.79999999999995" stroke="#000"/>
<text x="741.1764705882363" y="512.4" fill="#111" font-size="small" text-anchor="end" transform="rotate(-60, 741.1764705882363, 512.4)">
rack
</text>
<rect x="768.8235294117657" y="171.5332393625846" width="11.058823529411763" height="326.4667606374154" fill="#785EF0" data-tooltip="1.07x baseline (CRuby 3.4.0dev)"/>
<rect x="779.8823529411775" y="188.79613152527736" width="11.058823529411763" height="309.2038684747225" fill="#FFB000" data-tooltip="1.01x baseline (YJIT 3.3.3)"/>
<rect x="790.9411764705893" y="165.42047754759835" width="11.058823529411763" height="332.5795224524016" fill="#DC267F" data-tooltip="1.09x baseline (YJIT 3.4.0dev)"/>
<line x1="785.4117647058833" y1="498.0" x2="785.4117647058833" y2="502.79999999999995" stroke="#000"/>
<text x="785.4117647058833" y="512.4" fill="#111" font-size="small" text-anchor="end" transform="rotate(-60, 785.4117647058833, 512.4)">
ruby-json
</text>
<rect x="813.0588235294128" y="187.84500976633868" width="11.058823529411763" height="310.15499023366124" fill="#785EF0" data-tooltip="1.02x baseline (CRuby 3.4.0dev)"/>
<rect x="824.1176470588247" y="199.94813121059346" width="11.058823529411763" height="298.05186878940646" fill="#FFB000" data-tooltip="0.98x baseline (YJIT 3.3.3)"/>
<rect x="835.1764705882364" y="165.01412158740354" width="11.058823529411763" height="332.9858784125964" fill="#DC267F" data-tooltip="1.09x baseline (YJIT 3.4.0dev)"/>
<line x1="829.6470588235305" y1="498.0" x2="829.6470588235305" y2="502.79999999999995" stroke="#000"/>
<text x="829.6470588235305" y="512.4" fill="#111" font-size="small" text-anchor="end" transform="rotate(-60, 829.6470588235305, 512.4)">
rubykon
</text>
<rect x="857.29411764706" y="170.38197430859063" width="11.058823529411763" height="327.61802569140934" fill="#785EF0" data-tooltip="1.07x baseline (CRuby 3.4.0dev)"/>
<rect x="868.3529411764717" y="186.95614328797365" width="11.058823529411763" height="311.0438567120263" fill="#FFB000" data-tooltip="1.02x baseline (YJIT 3.3.3)"/>
<rect x="879.4117647058836" y="164.58394346421278" width="11.058823529411763" height="333.4160565357872" fill="#DC267F" data-tooltip="1.09x baseline (YJIT 3.4.0dev)"/>
<line x1="873.8823529411777" y1="498.0" x2="873.8823529411777" y2="502.79999999999995" stroke="#000"/>
<text x="873.8823529411777" y="512.4" fill="#111" font-size="small" text-anchor="end" transform="rotate(-60, 873.8823529411777, 512.4)">
sudoku
</text>
<rect x="901.5294117647071" y="168.57843319704148" width="11.058823529411763" height="329.42156680295847" fill="#785EF0" data-tooltip="1.08x baseline (CRuby 3.4.0dev)"/>
<rect x="912.5882352941189" y="169.72713296504875" width="11.058823529411763" height="328.2728670349512" fill="#FFB000" data-tooltip="1.08x baseline (YJIT 3.3.3)"/>
<rect x="923.6470588235308" y="144.62591581229847" width="11.058823529411763" height="353.3740841877015" fill="#DC267F" data-tooltip="1.16x baseline (YJIT 3.4.0dev)"/>
<line x1="918.1176470588248" y1="498.0" x2="918.1176470588248" y2="502.79999999999995" stroke="#000"/>
<text x="918.1176470588248" y="512.4" fill="#111" font-size="small" text-anchor="end" transform="rotate(-60, 918.1176470588248, 512.4)">
tinygql
</text>
<rect x="945.7647058823543" y="172.81689845192346" width="11.058823529411763" height="325.18310154807654" fill="#785EF0" data-tooltip="1.07x baseline (CRuby 3.4.0dev)"/>
<rect x="956.8235294117661" y="178.76217050998144" width="11.058823529411763" height="319.23782949001856" fill="#FFB000" data-tooltip="1.05x baseline (YJIT 3.3.3)"/>
<rect x="967.8823529411778" y="158.50613984976943" width="11.058823529411763" height="339.4938601502305" fill="#DC267F" data-tooltip="1.11x baseline (YJIT 3.4.0dev)"/>
<line x1="962.352941176472" y1="498.0" x2="962.352941176472" y2="502.79999999999995" stroke="#000"/>
<text x="962.352941176472" y="512.4" fill="#111" font-size="small" text-anchor="end" transform="rotate(-60, 962.352941176472, 512.4)" font-style="italic">
geomean*
</text>
<line x1="50.0" y1="192.87130606860154" x2="990.0" y2="192.87130606860154" stroke="#648FFF" stroke-width="2"/>
<rect x="62.88382352941177" y="165.7577294394384" width="17.85" height="7.2" transform="rotate(-60, 68.58823529411764, 172.4177294394384)" fill="#fffa"/>
<text x="63.05882352941176" y="172.4177294394384" fill="#111" font-size="0.5em" text-anchor="start" textLength="17.5" transform="rotate(-60, 68.58823529411764, 172.4177294394384)" style="text-shadow: 0 0 1px #fff;">
1.04
</text>
<rect x="73.94264705882352" y="166.6863012408121" width="17.85" height="7.2" transform="rotate(-60, 79.6470588235294, 173.3463012408121)" fill="#fffa"/>
<text x="74.11764705882352" y="173.3463012408121" fill="#111" font-size="0.5em" text-anchor="start" textLength="17.5" transform="rotate(-60, 79.6470588235294, 173.3463012408121)" style="text-shadow: 0 0 1px #fff;">
1.04
</text>
<rect x="85.00147058823529" y="159.72201273050928" width="17.85" height="7.2" transform="rotate(-60, 90.70588235294116, 166.38201273050927)" fill="#fffa"/>
<text x="85.17647058823529" y="166.38201273050927" fill="#111" font-size="0.5em" text-anchor="start" textLength="17.5" transform="rotate(-60, 90.70588235294116, 166.38201273050927)" style="text-shadow: 0 0 1px #fff;">
1.06
</text>
<rect x="107.11911764705881" y="156.38211346748415" width="17.85" height="7.2" transform="rotate(-60, 112.82352941176468, 163.04211346748414)" fill="#fffa"/>
<text x="107.2941176470588" y="163.04211346748414" fill="#111" font-size="0.5em" text-anchor="start" textLength="17.5" transform="rotate(-60, 112.82352941176468, 163.04211346748414)" style="text-shadow: 0 0 1px #fff;">
1.07
</text>
<rect x="118.17794117647057" y="171.84078526825772" width="17.85" height="7.2" transform="rotate(-60, 123.88235294117645, 178.50078526825772)" fill="#fffa"/>
<text x="118.35294117647057" y="178.50078526825772" fill="#111" font-size="0.5em" text-anchor="start" textLength="17.5" transform="rotate(-60, 123.88235294117645, 178.50078526825772)" style="text-shadow: 0 0 1px #fff;">
1.02
</text>
<rect x="129.23676470588234" y="150.84137088656163" width="17.85" height="7.2" transform="rotate(-60, 134.94117647058823, 157.50137088656163)" fill="#fffa"/>
<text x="129.41176470588235" y="157.50137088656163" fill="#111" font-size="0.5em" text-anchor="start" textLength="17.5" transform="rotate(-60, 134.94117647058823, 157.50137088656163)" style="text-shadow: 0 0 1px #fff;">
1.09
</text>
<rect x="151.35441176470584" y="160.11429763485944" width="17.85" height="7.2" transform="rotate(-60, 157.05882352941174, 166.77429763485944)" fill="#fffa"/>
<text x="151.52941176470586" y="166.77429763485944" fill="#111" font-size="0.5em" text-anchor="start" textLength="17.5" transform="rotate(-60, 157.05882352941174, 166.77429763485944)" style="text-shadow: 0 0 1px #fff;">
1.06
</text>
<rect x="162.4132352941176" y="162.58579548770965" width="17.85" height="7.2" transform="rotate(-60, 168.1176470588235, 169.24579548770964)" fill="#fffa"/>
<text x="162.58823529411762" y="169.24579548770964" fill="#111" font-size="0.5em" text-anchor="start" textLength="17.5" transform="rotate(-60, 168.1176470588235, 169.24579548770964)" style="text-shadow: 0 0 1px #fff;">
1.05
</text>
<rect x="173.47205882352938" y="144.43446699464545" width="17.85" height="7.2" transform="rotate(-60, 179.17647058823528, 151.09446699464547)" fill="#fffa"/>
<text x="173.64705882352936" y="151.09446699464547" fill="#111" font-size="0.5em" text-anchor="start" textLength="17.5" transform="rotate(-60, 179.17647058823528, 151.09446699464547)" style="text-shadow: 0 0 1px #fff;">
1.11
</text>
<rect x="195.5897058823529" y="169.0905872091648" width="17.85" height="7.2" transform="rotate(-60, 201.29411764705878, 175.7505872091648)" fill="#fffa"/>
<text x="195.7647058823529" y="175.7505872091648" fill="#111" font-size="0.5em" text-anchor="start" textLength="17.5" transform="rotate(-60, 201.29411764705878, 175.7505872091648)" style="text-shadow: 0 0 1px #fff;">
1.03
</text>
<rect x="206.64852941176466" y="174.81238316240882" width="17.85" height="7.2" transform="rotate(-60, 212.35294117647055, 181.47238316240882)" fill="#fffa"/>
<text x="206.82352941176467" y="181.47238316240882" fill="#111" font-size="0.5em" text-anchor="start" textLength="17.5" transform="rotate(-60, 212.35294117647055, 181.47238316240882)" style="text-shadow: 0 0 1px #fff;">
1.01
</text>
<rect x="217.7073529411764" y="160.1281280611632" width="17.85" height="7.2" transform="rotate(-60, 223.41176470588232, 166.7881280611632)" fill="#fffa"/>
<text x="217.8823529411764" y="166.7881280611632" fill="#111" font-size="0.5em" text-anchor="start" textLength="17.5" transform="rotate(-60, 223.41176470588232, 166.7881280611632)" style="text-shadow: 0 0 1px #fff;">
1.06
</text>
<rect x="239.82499999999993" y="156.11356254750922" width="17.85" height="7.2" transform="rotate(-60, 245.52941176470583, 162.77356254750921)" fill="#fffa"/>
<text x="239.99999999999994" y="162.77356254750921" fill="#111" font-size="0.5em" text-anchor="start" textLength="17.5" transform="rotate(-60, 245.52941176470583, 162.77356254750921)" style="text-shadow: 0 0 1px #fff;">
1.07
</text>
<rect x="250.8838235294117" y="175.04360947617295" width="17.85" height="7.2" transform="rotate(-60, 256.58823529411757, 181.70360947617294)" fill="#fffa"/>
<text x="251.05882352941165" y="181.70360947617294" fill="#111" font-size="0.5em" text-anchor="start" textLength="17.5" transform="rotate(-60, 256.58823529411757, 181.70360947617294)" style="text-shadow: 0 0 1px #fff;">
1.01
</text>
<rect x="261.94264705882347" y="150.4937048655622" width="17.85" height="7.2" transform="rotate(-60, 267.64705882352933, 157.1537048655622)" fill="#fffa"/>
<text x="262.1176470588235" y="157.1537048655622" fill="#111" font-size="0.5em" text-anchor="start" textLength="17.5" transform="rotate(-60, 267.64705882352933, 157.1537048655622)" style="text-shadow: 0 0 1px #fff;">
1.09
</text>
<rect x="284.06029411764706" y="165.92516288055756" width="17.85" height="7.2" transform="rotate(-60, 289.7647058823529, 172.58516288055756)" fill="#fffa"/>
<text x="284.235294117647" y="172.58516288055756" fill="#111" font-size="0.5em" text-anchor="start" textLength="17.5" transform="rotate(-60, 289.7647058823529, 172.58516288055756)" style="text-shadow: 0 0 1px #fff;">
1.04
</text>
<rect x="295.11911764705883" y="153.2352890557918" width="17.85" height="7.2" transform="rotate(-60, 300.8235294117647, 159.8952890557918)" fill="#fffa"/>
<text x="295.29411764705884" y="159.8952890557918" fill="#111" font-size="0.5em" text-anchor="start" textLength="17.5" transform="rotate(-60, 300.8235294117647, 159.8952890557918)" style="text-shadow: 0 0 1px #fff;">
1.08
</text>
<rect x="306.1779411764706" y="151.86983584194874" width="17.85" height="7.2" transform="rotate(-60, 311.8823529411765, 158.52983584194874)" fill="#fffa"/>
<text x="306.3529411764706" y="158.52983584194874" fill="#111" font-size="0.5em" text-anchor="start" textLength="17.5" transform="rotate(-60, 311.8823529411765, 158.52983584194874)" style="text-shadow: 0 0 1px #fff;">
1.09
</text>
<rect x="328.2955882352942" y="174.97046775126515" width="17.85" height="7.2" transform="rotate(-60, 334.00000000000006, 181.63046775126514)" fill="#fffa"/>
<text x="328.4705882352942" y="181.63046775126514" fill="#111" font-size="0.5em" text-anchor="start" textLength="17.5" transform="rotate(-60, 334.00000000000006, 181.63046775126514)" style="text-shadow: 0 0 1px #fff;">
1.01
</text>
<rect x="339.354411764706" y="160.83186623692293" width="17.85" height="7.2" transform="rotate(-60, 345.0588235294119, 167.49186623692293)" fill="#fffa"/>
<text x="339.52941176470597" y="167.49186623692293" fill="#111" font-size="0.5em" text-anchor="start" textLength="17.5" transform="rotate(-60, 345.0588235294119, 167.49186623692293)" style="text-shadow: 0 0 1px #fff;">
1.06
</text>
<rect x="350.4132352941178" y="153.2618233427855" width="17.85" height="7.2" transform="rotate(-60, 356.11764705882365, 159.9218233427855)" fill="#fffa"/>
<text x="350.58823529411774" y="159.9218233427855" fill="#111" font-size="0.5em" text-anchor="start" textLength="17.5" transform="rotate(-60, 356.11764705882365, 159.9218233427855)" style="text-shadow: 0 0 1px #fff;">
1.08
</text>
<rect x="372.5308823529414" y="162.71779262117667" width="17.85" height="7.2" transform="rotate(-60, 378.23529411764724, 169.37779262117667)" fill="#fffa"/>
<text x="372.70588235294133" y="169.37779262117667" fill="#111" font-size="0.5em" text-anchor="start" textLength="17.5" transform="rotate(-60, 378.23529411764724, 169.37779262117667)" style="text-shadow: 0 0 1px #fff;">
1.05
</text>
<rect x="383.58970588235314" y="160.68339267189572" width="17.85" height="7.2" transform="rotate(-60, 389.294117647059, 167.3433926718957)" fill="#fffa"/>
<text x="383.7647058823531" y="167.3433926718957" fill="#111" font-size="0.5em" text-anchor="start" textLength="17.5" transform="rotate(-60, 389.294117647059, 167.3433926718957)" style="text-shadow: 0 0 1px #fff;">
1.06
</text>
<rect x="394.6485294117649" y="140.15160241453626" width="17.85" height="7.2" transform="rotate(-60, 400.3529411764708, 146.81160241453625)" fill="#fffa"/>
<text x="394.8235294117649" y="146.81160241453625" fill="#111" font-size="0.5em" text-anchor="start" textLength="17.5" transform="rotate(-60, 400.3529411764708, 146.81160241453625)" style="text-shadow: 0 0 1px #fff;">
1.13
</text>
<rect x="416.7661764705885" y="177.5141864309377" width="17.85" height="7.2" transform="rotate(-60, 422.4705882352944, 184.1741864309377)" fill="#fffa"/>
<text x="416.94117647058846" y="184.1741864309377" fill="#111" font-size="0.5em" text-anchor="start" textLength="17.5" transform="rotate(-60, 422.4705882352944, 184.1741864309377)" style="text-shadow: 0 0 1px #fff;">
1.00
</text>
<rect x="427.8250000000003" y="163.35397128828563" width="17.85" height="7.2" transform="rotate(-60, 433.52941176470614, 170.01397128828566)" fill="#fffa"/>
<text x="428.0000000000003" y="170.01397128828566" fill="#111" font-size="0.5em" text-anchor="start" textLength="17.5" transform="rotate(-60, 433.52941176470614, 170.01397128828566)" style="text-shadow: 0 0 1px #fff;">
1.05
</text>
<rect x="438.8838235294121" y="157.53939019106141" width="17.85" height="7.2" transform="rotate(-60, 444.58823529411796, 164.1993901910614)" fill="#fffa"/>
<text x="439.05882352941205" y="164.1993901910614" fill="#111" font-size="0.5em" text-anchor="start" textLength="17.5" transform="rotate(-60, 444.58823529411796, 164.1993901910614)" style="text-shadow: 0 0 1px #fff;">
1.07
</text>
<rect x="461.00147058823563" y="96.62127330855834" width="17.85" height="7.2" transform="rotate(-60, 466.7058823529415, 103.28127330855834)" fill="#fffa"/>
<text x="461.17647058823565" y="103.28127330855834" fill="#111" font-size="0.5em" text-anchor="start" textLength="17.5" transform="rotate(-60, 466.7058823529415, 103.28127330855834)" style="text-shadow: 0 0 1px #fff;">
1.27
</text>
<rect x="472.06029411764746" y="176.35021627170246" width="17.85" height="7.2" transform="rotate(-60, 477.7647058823533, 183.01021627170246)" fill="#fffa"/>
<text x="472.2352941176474" y="183.01021627170246" fill="#111" font-size="0.5em" text-anchor="start" textLength="17.5" transform="rotate(-60, 477.7647058823533, 183.01021627170246)" style="text-shadow: 0 0 1px #fff;">
1.01
</text>
<rect x="483.1191176470592" y="92.95315165980452" width="17.85" height="7.2" transform="rotate(-60, 488.8235294117651, 99.61315165980452)" fill="#fffa"/>
<text x="483.2941176470592" y="99.61315165980452" fill="#111" font-size="0.5em" text-anchor="start" textLength="17.5" transform="rotate(-60, 488.8235294117651, 99.61315165980452)" style="text-shadow: 0 0 1px #fff;">
1.28
</text>
<rect x="505.23676470588276" y="157.1270188674242" width="17.85" height="7.2" transform="rotate(-60, 510.9411764705887, 163.7870188674242)" fill="#fffa"/>
<text x="505.4117647058828" y="163.7870188674242" fill="#111" font-size="0.5em" text-anchor="start" textLength="17.5" transform="rotate(-60, 510.9411764705887, 163.7870188674242)" style="text-shadow: 0 0 1px #fff;">
1.07
</text>
<rect x="516.2955882352945" y="174.28829639622913" width="17.85" height="7.2" transform="rotate(-60, 522.0000000000005, 180.94829639622913)" fill="#fffa"/>
<text x="516.4705882352946" y="180.94829639622913" fill="#111" font-size="0.5em" text-anchor="start" textLength="17.5" transform="rotate(-60, 522.0000000000005, 180.94829639622913)" style="text-shadow: 0 0 1px #fff;">
1.01
</text>
<rect x="527.3544117647064" y="152.17324803436705" width="17.85" height="7.2" transform="rotate(-60, 533.0588235294123, 158.83324803436705)" fill="#fffa"/>
<text x="527.5294117647063" y="158.83324803436705" fill="#111" font-size="0.5em" text-anchor="start" textLength="17.5" transform="rotate(-60, 533.0588235294123, 158.83324803436705)" style="text-shadow: 0 0 1px #fff;">
1.09
</text>
<rect x="549.4720588235299" y="162.03666758333637" width="17.85" height="7.2" transform="rotate(-60, 555.1764705882358, 168.69666758333636)" fill="#fffa"/>
<text x="549.64705882353" y="168.69666758333636" fill="#111" font-size="0.5em" text-anchor="start" textLength="17.5" transform="rotate(-60, 555.1764705882358, 168.69666758333636)" style="text-shadow: 0 0 1px #fff;">
1.05
</text>
<rect x="560.5308823529417" y="175.27323627782525" width="17.85" height="7.2" transform="rotate(-60, 566.2352941176476, 181.93323627782524)" fill="#fffa"/>
<text x="560.7058823529417" y="181.93323627782524" fill="#111" font-size="0.5em" text-anchor="start" textLength="17.5" transform="rotate(-60, 566.2352941176476, 181.93323627782524)" style="text-shadow: 0 0 1px #fff;">
1.01
</text>
<rect x="571.5897058823534" y="144.73171630309554" width="17.85" height="7.2" transform="rotate(-60, 577.2941176470594, 151.39171630309554)" fill="#fffa"/>
<text x="571.7647058823535" y="151.39171630309554" fill="#111" font-size="0.5em" text-anchor="start" textLength="17.5" transform="rotate(-60, 577.2941176470594, 151.39171630309554)" style="text-shadow: 0 0 1px #fff;">
1.11
</text>
<rect x="593.7073529411771" y="190.40848411687483" width="17.85" height="7.2" transform="rotate(-60, 599.411764705883, 197.06848411687483)" fill="#fffa"/>
<text x="593.882352941177" y="197.06848411687483" fill="#111" font-size="0.5em" text-anchor="start" textLength="17.5" transform="rotate(-60, 599.411764705883, 197.06848411687483)" style="text-shadow: 0 0 1px #fff;">
0.96
</text>
<rect x="604.7661764705888" y="145.83587649635408" width="17.85" height="7.2" transform="rotate(-60, 610.4705882352947, 152.4958764963541)" fill="#fffa"/>
<text x="604.9411764705889" y="152.4958764963541" fill="#111" font-size="0.5em" text-anchor="start" textLength="17.5" transform="rotate(-60, 610.4705882352947, 152.4958764963541)" style="text-shadow: 0 0 1px #fff;">
1.11
</text>
<rect x="615.8250000000006" y="165.0099986677411" width="17.85" height="7.2" transform="rotate(-60, 621.5294117647065, 171.66999866774108)" fill="#fffa"/>
<text x="616.0000000000007" y="171.66999866774108" fill="#111" font-size="0.5em" text-anchor="start" textLength="17.5" transform="rotate(-60, 621.5294117647065, 171.66999866774108)" style="text-shadow: 0 0 1px #fff;">
1.04
</text>
<rect x="637.9426470588242" y="104.27687335092341" width="17.85" height="7.2" transform="rotate(-60, 643.6470588235301, 110.9368733509234)" fill="#fffa"/>
<text x="638.1176470588242" y="110.9368733509234" fill="#111" font-size="0.5em" text-anchor="start" textLength="17.5" transform="rotate(-60, 643.6470588235301, 110.9368733509234)" style="text-shadow: 0 0 1px #fff;">
1.24
</text>
<rect x="649.001470588236" y="111.31796833773083" width="17.85" height="7.2" transform="rotate(-60, 654.7058823529419, 117.97796833773083)" fill="#fffa"/>
<text x="649.176470588236" y="117.97796833773083" fill="#111" font-size="0.5em" text-anchor="start" textLength="17.5" transform="rotate(-60, 654.7058823529419, 117.97796833773083)" style="text-shadow: 0 0 1px #fff;">
1.22
</text>
<rect x="660.0602941176478" y="86.03999999999998" width="17.85" height="7.2" transform="rotate(-60, 665.7647058823537, 92.69999999999999)" fill="#fffa"/>
<text x="660.2352941176478" y="92.69999999999999" fill="#111" font-size="0.5em" text-anchor="start" textLength="17.5" transform="rotate(-60, 665.7647058823537, 92.69999999999999)" style="text-shadow: 0 0 1px #fff;">
1.30
</text>
<rect x="682.1779411764713" y="160.20977884208693" width="17.85" height="7.2" transform="rotate(-60, 687.8823529411773, 166.86977884208693)" fill="#fffa"/>
<text x="682.3529411764714" y="166.86977884208693" fill="#111" font-size="0.5em" text-anchor="start" textLength="17.5" transform="rotate(-60, 687.8823529411773, 166.86977884208693)" style="text-shadow: 0 0 1px #fff;">
1.06
</text>
<rect x="693.2367647058832" y="165.10724193145847" width="17.85" height="7.2" transform="rotate(-60, 698.9411764705891, 171.76724193145847)" fill="#fffa"/>
<text x="693.4117647058831" y="171.76724193145847" fill="#111" font-size="0.5em" text-anchor="start" textLength="17.5" transform="rotate(-60, 698.9411764705891, 171.76724193145847)" style="text-shadow: 0 0 1px #fff;">
1.04
</text>
<rect x="704.2955882352949" y="146.83593732880323" width="17.85" height="7.2" transform="rotate(-60, 710.0000000000009, 153.49593732880322)" fill="#fffa"/>
<text x="704.4705882352949" y="153.49593732880322" fill="#111" font-size="0.5em" text-anchor="start" textLength="17.5" transform="rotate(-60, 710.0000000000009, 153.49593732880322)" style="text-shadow: 0 0 1px #fff;">
1.10
</text>
<rect x="726.4132352941185" y="159.36563716710438" width="17.85" height="7.2" transform="rotate(-60, 732.1176470588244, 166.02563716710438)" fill="#fffa"/>
<text x="726.5882352941186" y="166.02563716710438" fill="#111" font-size="0.5em" text-anchor="start" textLength="17.5" transform="rotate(-60, 732.1176470588244, 166.02563716710438)" style="text-shadow: 0 0 1px #fff;">
1.06
</text>
<rect x="737.4720588235302" y="159.0567242904338" width="17.85" height="7.2" transform="rotate(-60, 743.1764705882363, 165.7167242904338)" fill="#fffa"/>
<text x="737.6470588235303" y="165.7167242904338" fill="#111" font-size="0.5em" text-anchor="start" textLength="17.5" transform="rotate(-60, 743.1764705882363, 165.7167242904338)" style="text-shadow: 0 0 1px #fff;">
1.06
</text>
<rect x="748.5308823529421" y="137.04668182765255" width="17.85" height="7.2" transform="rotate(-60, 754.235294117648, 143.70668182765255)" fill="#fffa"/>
<text x="748.7058823529421" y="143.70668182765255" fill="#111" font-size="0.5em" text-anchor="start" textLength="17.5" transform="rotate(-60, 754.235294117648, 143.70668182765255)" style="text-shadow: 0 0 1px #fff;">
1.14
</text>
<rect x="770.6485294117656" y="157.3732393625846" width="17.85" height="7.2" transform="rotate(-60, 776.3529411764716, 164.0332393625846)" fill="#fffa"/>
<text x="770.8235294117657" y="164.0332393625846" fill="#111" font-size="0.5em" text-anchor="start" textLength="17.5" transform="rotate(-60, 776.3529411764716, 164.0332393625846)" style="text-shadow: 0 0 1px #fff;">
1.07
</text>
<rect x="781.7073529411774" y="174.63613152527736" width="17.85" height="7.2" transform="rotate(-60, 787.4117647058833, 181.29613152527736)" fill="#fffa"/>
<text x="781.8823529411775" y="181.29613152527736" fill="#111" font-size="0.5em" text-anchor="start" textLength="17.5" transform="rotate(-60, 787.4117647058833, 181.29613152527736)" style="text-shadow: 0 0 1px #fff;">
1.01
</text>
<rect x="792.7661764705892" y="151.26047754759836" width="17.85" height="7.2" transform="rotate(-60, 798.4705882352952, 157.92047754759835)" fill="#fffa"/>
<text x="792.9411764705893" y="157.92047754759835" fill="#111" font-size="0.5em" text-anchor="start" textLength="17.5" transform="rotate(-60, 798.4705882352952, 157.92047754759835)" style="text-shadow: 0 0 1px #fff;">
1.09
</text>
<rect x="814.8838235294128" y="173.68500976633865" width="17.85" height="7.2" transform="rotate(-60, 820.5882352941187, 180.34500976633865)" fill="#fffa"/>
<text x="815.0588235294128" y="180.34500976633865" fill="#111" font-size="0.5em" text-anchor="start" textLength="17.5" transform="rotate(-60, 820.5882352941187, 180.34500976633865)" style="text-shadow: 0 0 1px #fff;">
1.02
</text>
<rect x="825.9426470588246" y="185.78813121059346" width="17.85" height="7.2" transform="rotate(-60, 831.6470588235305, 192.44813121059346)" fill="#fffa"/>
<text x="826.1176470588247" y="192.44813121059346" fill="#111" font-size="0.5em" text-anchor="start" textLength="17.5" transform="rotate(-60, 831.6470588235305, 192.44813121059346)" style="text-shadow: 0 0 1px #fff;">
0.98
</text>
<rect x="837.0014705882364" y="150.85412158740354" width="17.85" height="7.2" transform="rotate(-60, 842.7058823529424, 157.51412158740354)" fill="#fffa"/>
<text x="837.1764705882364" y="157.51412158740354" fill="#111" font-size="0.5em" text-anchor="start" textLength="17.5" transform="rotate(-60, 842.7058823529424, 157.51412158740354)" style="text-shadow: 0 0 1px #fff;">
1.09
</text>
<rect x="859.11911764706" y="156.22197430859063" width="17.85" height="7.2" transform="rotate(-60, 864.8235294117659, 162.88197430859063)" fill="#fffa"/>
<text x="859.29411764706" y="162.88197430859063" fill="#111" font-size="0.5em" text-anchor="start" textLength="17.5" transform="rotate(-60, 864.8235294117659, 162.88197430859063)" style="text-shadow: 0 0 1px #fff;">
1.07
</text>
<rect x="870.1779411764718" y="172.79614328797365" width="17.85" height="7.2" transform="rotate(-60, 875.8823529411777, 179.45614328797365)" fill="#fffa"/>
<text x="870.3529411764717" y="179.45614328797365" fill="#111" font-size="0.5em" text-anchor="start" textLength="17.5" transform="rotate(-60, 875.8823529411777, 179.45614328797365)" style="text-shadow: 0 0 1px #fff;">
1.02
</text>
<rect x="881.2367647058835" y="150.42394346421275" width="17.85" height="7.2" transform="rotate(-60, 886.9411764705894, 157.08394346421275)" fill="#fffa"/>
<text x="881.4117647058836" y="157.08394346421275" fill="#111" font-size="0.5em" text-anchor="start" textLength="17.5" transform="rotate(-60, 886.9411764705894, 157.08394346421275)" style="text-shadow: 0 0 1px #fff;">
1.09
</text>
<rect x="903.3544117647072" y="154.41843319704148" width="17.85" height="7.2" transform="rotate(-60, 909.0588235294131, 161.07843319704148)" fill="#fffa"/>
<text x="903.5294117647071" y="161.07843319704148" fill="#111" font-size="0.5em" text-anchor="start" textLength="17.5" transform="rotate(-60, 909.0588235294131, 161.07843319704148)" style="text-shadow: 0 0 1px #fff;">
1.08
</text>
<rect x="914.4132352941189" y="155.56713296504873" width="17.85" height="7.2" transform="rotate(-60, 920.1176470588248, 162.22713296504872)" fill="#fffa"/>
<text x="914.5882352941189" y="162.22713296504872" fill="#111" font-size="0.5em" text-anchor="start" textLength="17.5" transform="rotate(-60, 920.1176470588248, 162.22713296504872)" style="text-shadow: 0 0 1px #fff;">
1.08
</text>
<rect x="925.4720588235307" y="130.46591581229848" width="17.85" height="7.2" transform="rotate(-60, 931.1764705882366, 137.12591581229847)" fill="#fffa"/>
<text x="925.6470588235308" y="137.12591581229847" fill="#111" font-size="0.5em" text-anchor="start" textLength="17.5" transform="rotate(-60, 931.1764705882366, 137.12591581229847)" style="text-shadow: 0 0 1px #fff;">
1.16
</text>
<rect x="947.5897058823542" y="158.65689845192344" width="17.85" height="7.2" transform="rotate(-60, 953.2941176470601, 165.31689845192344)" fill="#fffa"/>
<text x="947.7647058823543" y="165.31689845192344" fill="#111" font-size="0.5em" text-anchor="start" textLength="17.5" transform="rotate(-60, 953.2941176470601, 165.31689845192344)" style="text-shadow: 0 0 1px #fff;">
1.07
</text>
<rect x="958.648529411766" y="164.60217050998145" width="17.85" height="7.2" transform="rotate(-60, 964.352941176472, 171.26217050998144)" fill="#fffa"/>
<text x="958.8235294117661" y="171.26217050998144" fill="#111" font-size="0.5em" text-anchor="start" textLength="17.5" transform="rotate(-60, 964.352941176472, 171.26217050998144)" style="text-shadow: 0 0 1px #fff;">
1.05
</text>
<rect x="969.7073529411779" y="144.34613984976943" width="17.85" height="7.2" transform="rotate(-60, 975.4117647058838, 151.00613984976943)" fill="#fffa"/>
<text x="969.8823529411778" y="151.00613984976943" fill="#111" font-size="0.5em" text-anchor="start" textLength="17.5" transform="rotate(-60, 975.4117647058838, 151.00613984976943)" style="text-shadow: 0 0 1px #fff;">
1.11
</text>
</svg>