<svg viewBox="0 0 1000 600" xmlns="http://www.w3.org/2000/svg" xmlns:xlink="http://www.w3.org/1999/xlink" width="100%" height="100%">

<rect x="50.0" y="30.0" width="940.0" height="467.99999999999994" stroke="#000" fill="#EEE"/>
<line x1="42.0" y1="497.9999999999999" x2="50.0" y2="497.9999999999999" stroke="#000"/>
<text x="26.000000000000004" y="497.9999999999999" text-anchor="end" font-weight="bold" font-size="small" fill="#111">
0.0
</text>
<line x1="42.0" y1="415.52232993632356" x2="50.0" y2="415.52232993632356" stroke="#000"/>
<text x="26.000000000000004" y="415.52232993632356" text-anchor="end" font-weight="bold" font-size="small" fill="#111">
0.5
</text>
<line x1="42.0" y1="333.0446598726472" x2="50.0" y2="333.0446598726472" stroke="#000"/>
<text x="26.000000000000004" y="333.0446598726472" text-anchor="end" font-weight="bold" font-size="small" fill="#111">
1.0
</text>
<line x1="42.0" y1="250.5669898089707" x2="50.0" y2="250.5669898089707" stroke="#000"/>
<text x="26.000000000000004" y="250.5669898089707" text-anchor="end" font-weight="bold" font-size="small" fill="#111">
1.5
</text>
<line x1="42.0" y1="168.08931974529435" x2="50.0" y2="168.08931974529435" stroke="#000"/>
<text x="26.000000000000004" y="168.08931974529435" text-anchor="end" font-weight="bold" font-size="small" fill="#111">
2.0
</text>
<rect x="268.5" y="36.00000000000001" width="80.0" height="18.0" fill="#7070f8" stroke="#888"/>
<text x="308.5" y="52.50000000000001" font-size="small" text-anchor="middle" font-weight="bold" fill="#EEE">
No JIT
</text>
<rect x="691.4999999999999" y="36.00000000000001" width="80.0" height="18.0" fill="orange" stroke="#888"/>
<text x="731.4999999999999" y="52.50000000000001" font-size="small" text-anchor="middle" font-weight="bold" fill="#EEE">
YJIT
</text>
<rect x="97.0" y="333.0446598726472" width="21.69230769230769" height="164.9553401273528" fill="#7070f8" data-tooltip="1.00x baseline speed (No JIT)"/>
<line x1="97.0" y1="329.901088711387" x2="118.6923076923077" y2="329.901088711387" stroke="#000"/>
<line x1="97.0" y1="336.18823103390736" x2="118.6923076923077" y2="336.18823103390736" stroke="#000"/>
<line x1="107.84615384615384" y1="329.901088711387" x2="107.84615384615384" y2="336.18823103390736" stroke="#000"/>
<rect x="118.6923076923077" y="165.50153265927523" width="21.69230769230769" height="332.49846734072474" fill="orange" data-tooltip="2.02x baseline speed (YJIT)"/>
<line x1="118.6923076923077" y1="150.44606201844206" x2="140.3846153846154" y2="150.44606201844206" stroke="#000"/>
<line x1="118.6923076923077" y1="180.55700330010836" x2="140.3846153846154" y2="180.55700330010836" stroke="#000"/>
<line x1="129.53846153846155" y1="150.44606201844206" x2="129.53846153846155" y2="180.55700330010836" stroke="#000"/>
<line x1="129.53846153846155" y1="498.0" x2="129.53846153846155" y2="502.79999999999995" stroke="#000"/>
<text x="129.53846153846155" y="512.4" fill="#111" font-size="small" font-family="monospace" font-weight="bold" text-anchor="end" transform="rotate(-60, 129.53846153846155, 512.4)">
activerecord
</text>
<rect x="162.07692307692307" y="333.0446598726472" width="21.69230769230769" height="164.9553401273528" fill="#7070f8" data-tooltip="1.00x baseline speed (No JIT)"/>
<line x1="162.07692307692307" y1="332.6209320637732" x2="183.76923076923075" y2="332.6209320637732" stroke="#000"/>
<line x1="162.07692307692307" y1="333.46838768152116" x2="183.76923076923075" y2="333.46838768152116" stroke="#000"/>
<line x1="172.9230769230769" y1="332.6209320637732" x2="172.9230769230769" y2="333.46838768152116" stroke="#000"/>
<rect x="183.76923076923075" y="217.30137837629178" width="21.69230769230769" height="280.69862162370816" fill="orange" data-tooltip="1.70x baseline speed (YJIT)"/>
<line x1="183.76923076923075" y1="215.8600824517865" x2="205.46153846153842" y2="215.8600824517865" stroke="#000"/>
<line x1="183.76923076923075" y1="218.74267430079706" x2="205.46153846153842" y2="218.74267430079706" stroke="#000"/>
<line x1="194.61538461538458" y1="215.8600824517865" x2="194.61538461538458" y2="218.74267430079706" stroke="#000"/>
<line x1="194.6153846153846" y1="498.0" x2="194.6153846153846" y2="502.79999999999995" stroke="#000"/>
<text x="194.6153846153846" y="512.4" fill="#111" font-size="small" font-family="monospace" font-weight="bold" text-anchor="end" transform="rotate(-60, 194.6153846153846, 512.4)">
chunky-png
</text>
<rect x="227.15384615384616" y="333.0446598726472" width="21.69230769230769" height="164.9553401273528" fill="#7070f8" data-tooltip="1.00x baseline speed (No JIT)"/>
<line x1="227.15384615384616" y1="315.9811921188164" x2="248.84615384615384" y2="315.9811921188164" stroke="#000"/>
<line x1="227.15384615384616" y1="350.10812762647794" x2="248.84615384615384" y2="350.10812762647794" stroke="#000"/>
<line x1="238.0" y1="315.9811921188164" x2="238.0" y2="350.10812762647794" stroke="#000"/>
<rect x="248.84615384615384" y="184.35451998170214" width="21.69230769230769" height="313.64548001829775" fill="orange" data-tooltip="1.90x baseline speed (YJIT)"/>
<line x1="248.84615384615384" y1="109.81614473533392" x2="270.5384615384615" y2="109.81614473533392" stroke="#000"/>
<line x1="248.84615384615384" y1="258.89289522807036" x2="270.5384615384615" y2="258.89289522807036" stroke="#000"/>
<line x1="259.6923076923077" y1="109.81614473533392" x2="259.6923076923077" y2="258.89289522807036" stroke="#000"/>
<line x1="259.6923076923077" y1="498.0" x2="259.6923076923077" y2="502.79999999999995" stroke="#000"/>
<text x="259.6923076923077" y="512.4" fill="#111" font-size="small" font-family="monospace" font-weight="bold" text-anchor="end" transform="rotate(-60, 259.6923076923077, 512.4)">
erubi-rails
</text>
<rect x="292.23076923076917" y="333.0446598726472" width="21.69230769230769" height="164.9553401273528" fill="#7070f8" data-tooltip="1.00x baseline speed (No JIT)"/>
<line x1="292.23076923076917" y1="331.85686586592436" x2="313.92307692307685" y2="331.85686586592436" stroke="#000"/>
<line x1="292.23076923076917" y1="334.23245387937" x2="313.92307692307685" y2="334.23245387937" stroke="#000"/>
<line x1="303.07692307692304" y1="331.85686586592436" x2="303.07692307692304" y2="334.23245387937" stroke="#000"/>
<rect x="313.92307692307685" y="229.21991520430979" width="21.69230769230769" height="268.78008479569013" fill="orange" data-tooltip="1.63x baseline speed (YJIT)"/>
<line x1="313.92307692307685" y1="224.08801511950483" x2="335.6153846153845" y2="224.08801511950483" stroke="#000"/>
<line x1="313.92307692307685" y1="234.35181528911477" x2="335.6153846153845" y2="234.35181528911477" stroke="#000"/>
<line x1="324.7692307692307" y1="224.08801511950483" x2="324.7692307692307" y2="234.35181528911477" stroke="#000"/>
<line x1="324.7692307692307" y1="498.0" x2="324.7692307692307" y2="502.79999999999995" stroke="#000"/>
<text x="324.7692307692307" y="512.4" fill="#111" font-size="small" font-family="monospace" font-weight="bold" text-anchor="end" transform="rotate(-60, 324.7692307692307, 512.4)">
hexapdf
</text>
<rect x="357.3076923076923" y="333.0446598726472" width="21.69230769230769" height="164.9553401273528" fill="#7070f8" data-tooltip="1.00x baseline speed (No JIT)"/>
<line x1="357.3076923076923" y1="331.89904138840643" x2="379.0" y2="331.89904138840643" stroke="#000"/>
<line x1="357.3076923076923" y1="334.1902783568879" x2="379.0" y2="334.1902783568879" stroke="#000"/>
<line x1="368.1538461538462" y1="331.89904138840643" x2="368.1538461538462" y2="334.1902783568879" stroke="#000"/>
<rect x="379.0" y="259.99456200471684" width="21.69230769230769" height="238.00543799528307" fill="orange" data-tooltip="1.44x baseline speed (YJIT)"/>
<line x1="379.0" y1="257.2386522354079" x2="400.6923076923077" y2="257.2386522354079" stroke="#000"/>
<line x1="379.0" y1="262.7504717740258" x2="400.6923076923077" y2="262.7504717740258" stroke="#000"/>
<line x1="389.84615384615387" y1="257.2386522354079" x2="389.84615384615387" y2="262.7504717740258" stroke="#000"/>
<line x1="389.84615384615387" y1="498.0" x2="389.84615384615387" y2="502.79999999999995" stroke="#000"/>
<text x="389.84615384615387" y="512.4" fill="#111" font-size="small" font-family="monospace" font-weight="bold" text-anchor="end" transform="rotate(-60, 389.84615384615387, 512.4)">
liquid-c
</text>
<rect x="422.38461538461536" y="333.0446598726472" width="21.69230769230769" height="164.9553401273528" fill="#7070f8" data-tooltip="1.00x baseline speed (No JIT)"/>
<line x1="422.38461538461536" y1="331.32831318151545" x2="444.07692307692304" y2="331.32831318151545" stroke="#000"/>
<line x1="422.38461538461536" y1="334.7610065637789" x2="444.07692307692304" y2="334.7610065637789" stroke="#000"/>
<line x1="433.23076923076917" y1="331.32831318151545" x2="433.23076923076917" y2="334.7610065637789" stroke="#000"/>
<rect x="444.07692307692304" y="252.07116416471504" width="21.69230769230769" height="245.9288358352849" fill="orange" data-tooltip="1.49x baseline speed (YJIT)"/>
<line x1="444.07692307692304" y1="239.36334635163678" x2="465.7692307692307" y2="239.36334635163678" stroke="#000"/>
<line x1="444.07692307692304" y1="264.7789819777933" x2="465.7692307692307" y2="264.7789819777933" stroke="#000"/>
<line x1="454.92307692307685" y1="239.36334635163678" x2="454.92307692307685" y2="264.7789819777933" stroke="#000"/>
<line x1="454.92307692307685" y1="498.0" x2="454.92307692307685" y2="502.79999999999995" stroke="#000"/>
<text x="454.92307692307685" y="512.4" fill="#111" font-size="small" font-family="monospace" font-weight="bold" text-anchor="end" transform="rotate(-60, 454.92307692307685, 512.4)">
liquid-compile
</text>
<rect x="487.4615384615384" y="333.0446598726472" width="21.69230769230769" height="164.9553401273528" fill="#7070f8" data-tooltip="1.00x baseline speed (No JIT)"/>
<line x1="487.4615384615384" y1="332.7034912824572" x2="509.1538461538461" y2="332.7034912824572" stroke="#000"/>
<line x1="487.4615384615384" y1="333.38582846283714" x2="509.1538461538461" y2="333.38582846283714" stroke="#000"/>
<line x1="498.3076923076922" y1="332.7034912824572" x2="498.3076923076922" y2="333.38582846283714" stroke="#000"/>
<rect x="509.1538461538461" y="100.19999999999999" width="21.69230769230769" height="397.79999999999995" fill="orange" data-tooltip="2.41x baseline speed (YJIT)"/>
<line x1="509.1538461538461" y1="97.96676107961515" x2="530.8461538461537" y2="97.96676107961515" stroke="#000"/>
<line x1="509.1538461538461" y1="102.43323892038482" x2="530.8461538461537" y2="102.43323892038482" stroke="#000"/>
<line x1="519.9999999999999" y1="97.96676107961515" x2="519.9999999999999" y2="102.43323892038482" stroke="#000"/>
<line x1="519.9999999999999" y1="498.0" x2="519.9999999999999" y2="502.79999999999995" stroke="#000"/>
<text x="519.9999999999999" y="512.4" fill="#111" font-size="small" font-family="monospace" font-weight="bold" text-anchor="end" transform="rotate(-60, 519.9999999999999, 512.4)">
liquid-render
</text>
<rect x="552.5384615384615" y="333.0446598726472" width="21.69230769230769" height="164.9553401273528" fill="#7070f8" data-tooltip="1.00x baseline speed (No JIT)"/>
<line x1="552.5384615384615" y1="330.3075711570949" x2="574.2307692307692" y2="330.3075711570949" stroke="#000"/>
<line x1="552.5384615384615" y1="335.78174858819943" x2="574.2307692307692" y2="335.78174858819943" stroke="#000"/>
<line x1="563.3846153846154" y1="330.3075711570949" x2="563.3846153846154" y2="335.78174858819943" stroke="#000"/>
<rect x="574.2307692307692" y="256.57670170393646" width="21.69230769230769" height="241.4232982960635" fill="orange" data-tooltip="1.46x baseline speed (YJIT)"/>
<line x1="574.2307692307692" y1="249.30220158565697" x2="595.9230769230769" y2="249.30220158565697" stroke="#000"/>
<line x1="574.2307692307692" y1="263.85120182221596" x2="595.9230769230769" y2="263.85120182221596" stroke="#000"/>
<line x1="585.0769230769231" y1="249.30220158565697" x2="585.0769230769231" y2="263.85120182221596" stroke="#000"/>
<line x1="585.0769230769231" y1="498.0" x2="585.0769230769231" y2="502.79999999999995" stroke="#000"/>
<text x="585.0769230769231" y="512.4" fill="#111" font-size="small" font-family="monospace" font-weight="bold" text-anchor="end" transform="rotate(-60, 585.0769230769231, 512.4)">
lobsters
</text>
<rect x="617.6153846153845" y="333.0446598726472" width="21.69230769230769" height="164.9553401273528" fill="#7070f8" data-tooltip="1.00x baseline speed (No JIT)"/>
<line x1="617.6153846153845" y1="332.6323218739404" x2="639.3076923076923" y2="332.6323218739404" stroke="#000"/>
<line x1="617.6153846153845" y1="333.45699787135396" x2="639.3076923076923" y2="333.45699787135396" stroke="#000"/>
<line x1="628.4615384615385" y1="332.6323218739404" x2="628.4615384615385" y2="333.45699787135396" stroke="#000"/>
<rect x="639.3076923076923" y="270.6247583837191" width="21.69230769230769" height="227.37524161628082" fill="orange" data-tooltip="1.38x baseline speed (YJIT)"/>
<line x1="639.3076923076923" y1="269.68939457855294" x2="660.9999999999999" y2="269.68939457855294" stroke="#000"/>
<line x1="639.3076923076923" y1="271.5601221888853" x2="660.9999999999999" y2="271.5601221888853" stroke="#000"/>
<line x1="650.1538461538461" y1="269.68939457855294" x2="650.1538461538461" y2="271.5601221888853" stroke="#000"/>
<line x1="650.1538461538461" y1="498.0" x2="650.1538461538461" y2="502.79999999999995" stroke="#000"/>
<text x="650.1538461538461" y="512.4" fill="#111" font-size="small" font-family="monospace" font-weight="bold" text-anchor="end" transform="rotate(-60, 650.1538461538461, 512.4)">
mail
</text>
<rect x="682.6923076923076" y="333.0446598726472" width="21.69230769230769" height="164.9553401273528" fill="#7070f8" data-tooltip="1.00x baseline speed (No JIT)"/>
<line x1="682.6923076923076" y1="332.9295519315231" x2="704.3846153846152" y2="332.9295519315231" stroke="#000"/>
<line x1="682.6923076923076" y1="333.1597678137712" x2="704.3846153846152" y2="333.1597678137712" stroke="#000"/>
<line x1="693.5384615384614" y1="332.9295519315231" x2="693.5384615384614" y2="333.1597678137712" stroke="#000"/>
<rect x="704.3846153846152" y="260.81068530573356" width="21.69230769230769" height="237.18931469426636" fill="orange" data-tooltip="1.44x baseline speed (YJIT)"/>
<line x1="704.3846153846152" y1="260.32353072534823" x2="726.076923076923" y2="260.32353072534823" stroke="#000"/>
<line x1="704.3846153846152" y1="261.29783988611894" x2="726.076923076923" y2="261.29783988611894" stroke="#000"/>
<line x1="715.2307692307692" y1="260.32353072534823" x2="715.2307692307692" y2="261.29783988611894" stroke="#000"/>
<line x1="715.2307692307692" y1="498.0" x2="715.2307692307692" y2="502.79999999999995" stroke="#000"/>
<text x="715.2307692307692" y="512.4" fill="#111" font-size="small" font-family="monospace" font-weight="bold" text-anchor="end" transform="rotate(-60, 715.2307692307692, 512.4)">
psych-load
</text>
<rect x="747.7692307692307" y="333.0446598726472" width="21.69230769230769" height="164.9553401273528" fill="#7070f8" data-tooltip="1.00x baseline speed (No JIT)"/>
<line x1="747.7692307692307" y1="332.219451273693" x2="769.4615384615385" y2="332.219451273693" stroke="#000"/>
<line x1="747.7692307692307" y1="333.86986847160136" x2="769.4615384615385" y2="333.86986847160136" stroke="#000"/>
<line x1="758.6153846153845" y1="332.219451273693" x2="758.6153846153845" y2="333.86986847160136" stroke="#000"/>
<rect x="769.4615384615385" y="221.0883217141732" width="21.69230769230769" height="276.9116782858267" fill="orange" data-tooltip="1.68x baseline speed (YJIT)"/>
<line x1="769.4615384615385" y1="217.67748466537196" x2="791.1538461538461" y2="217.67748466537196" stroke="#000"/>
<line x1="769.4615384615385" y1="224.49915876297442" x2="791.1538461538461" y2="224.49915876297442" stroke="#000"/>
<line x1="780.3076923076923" y1="217.67748466537196" x2="780.3076923076923" y2="224.49915876297442" stroke="#000"/>
<line x1="780.3076923076923" y1="498.0" x2="780.3076923076923" y2="502.79999999999995" stroke="#000"/>
<text x="780.3076923076923" y="512.4" fill="#111" font-size="small" font-family="monospace" font-weight="bold" text-anchor="end" transform="rotate(-60, 780.3076923076923, 512.4)">
railsbench
</text>
<rect x="812.8461538461538" y="333.0446598726472" width="21.69230769230769" height="164.9553401273528" fill="#7070f8" data-tooltip="1.00x baseline speed (No JIT)"/>
<line x1="812.8461538461538" y1="327.7160574759607" x2="834.5384615384614" y2="327.7160574759607" stroke="#000"/>
<line x1="812.8461538461538" y1="338.3732622693336" x2="834.5384615384614" y2="338.3732622693336" stroke="#000"/>
<line x1="823.6923076923076" y1="327.7160574759607" x2="823.6923076923076" y2="338.3732622693336" stroke="#000"/>
<rect x="834.5384615384614" y="243.3451572129479" width="21.69230769230769" height="254.65484278705205" fill="orange" data-tooltip="1.54x baseline speed (YJIT)"/>
<line x1="834.5384615384614" y1="220.5285038887634" x2="856.2307692307692" y2="220.5285038887634" stroke="#000"/>
<line x1="834.5384615384614" y1="266.1618105371324" x2="856.2307692307692" y2="266.1618105371324" stroke="#000"/>
<line x1="845.3846153846152" y1="220.5285038887634" x2="845.3846153846152" y2="266.1618105371324" stroke="#000"/>
<line x1="845.3846153846152" y1="498.0" x2="845.3846153846152" y2="502.79999999999995" stroke="#000"/>
<text x="845.3846153846152" y="512.4" fill="#111" font-size="small" font-family="monospace" font-weight="bold" text-anchor="end" transform="rotate(-60, 845.3846153846152, 512.4)">
ruby-lsp
</text>
<rect x="877.9230769230768" y="333.0446598726472" width="21.69230769230769" height="164.9553401273528" fill="#7070f8" data-tooltip="1.00x baseline speed (No JIT)"/>
<line x1="877.9230769230768" y1="331.0350881214762" x2="899.6153846153845" y2="331.0350881214762" stroke="#000"/>
<line x1="877.9230769230768" y1="335.05423162381817" x2="899.6153846153845" y2="335.05423162381817" stroke="#000"/>
<line x1="888.7692307692306" y1="331.0350881214762" x2="888.7692307692306" y2="335.05423162381817" stroke="#000"/>
<rect x="899.6153846153845" y="274.915913082713" width="21.69230769230769" height="223.0840869172869" fill="orange" data-tooltip="1.35x baseline speed (YJIT)"/>
<line x1="899.6153846153845" y1="270.07579720103774" x2="921.3076923076922" y2="270.07579720103774" stroke="#000"/>
<line x1="899.6153846153845" y1="279.75602896438835" x2="921.3076923076922" y2="279.75602896438835" stroke="#000"/>
<line x1="910.4615384615383" y1="270.07579720103774" x2="910.4615384615383" y2="279.75602896438835" stroke="#000"/>
<line x1="910.4615384615383" y1="498.0" x2="910.4615384615383" y2="502.79999999999995" stroke="#000"/>
<text x="910.4615384615383" y="512.4" fill="#111" font-size="small" font-family="monospace" font-weight="bold" text-anchor="end" transform="rotate(-60, 910.4615384615383, 512.4)">
sequel
</text>
</svg>