<svg viewBox="0 0 1000 600" xmlns="http://www.w3.org/2000/svg" xmlns:xlink="http://www.w3.org/1999/xlink" width="100%" height="100%">

<rect x="50.0" y="30.0" width="940.0" height="467.99999999999994" stroke="#000" fill="#EEE"/>
<line x1="42.0" y1="497.9999999999999" x2="50.0" y2="497.9999999999999" stroke="#000"/>
<text x="26.000000000000004" y="497.9999999999999" text-anchor="end" font-weight="bold" font-size="small" fill="#111">
0.0
</text>
<line x1="42.0" y1="458.0607500468339" x2="50.0" y2="458.0607500468339" stroke="#000"/>
<text x="26.000000000000004" y="458.0607500468339" text-anchor="end" font-weight="bold" font-size="small" fill="#111">
2.0
</text>
<line x1="42.0" y1="418.12150009366786" x2="50.0" y2="418.12150009366786" stroke="#000"/>
<text x="26.000000000000004" y="418.12150009366786" text-anchor="end" font-weight="bold" font-size="small" fill="#111">
4.0
</text>
<line x1="42.0" y1="378.182250140502" x2="50.0" y2="378.182250140502" stroke="#000"/>
<text x="26.000000000000004" y="378.182250140502" text-anchor="end" font-weight="bold" font-size="small" fill="#111">
6.0
</text>
<line x1="42.0" y1="338.24300018733595" x2="50.0" y2="338.24300018733595" stroke="#000"/>
<text x="26.000000000000004" y="338.24300018733595" text-anchor="end" font-weight="bold" font-size="small" fill="#111">
8.0
</text>
<line x1="42.0" y1="298.3037502341699" x2="50.0" y2="298.3037502341699" stroke="#000"/>
<text x="26.000000000000004" y="298.3037502341699" text-anchor="end" font-weight="bold" font-size="small" fill="#111">
10.0
</text>
<line x1="42.0" y1="258.3645002810039" x2="50.0" y2="258.3645002810039" stroke="#000"/>
<text x="26.000000000000004" y="258.3645002810039" text-anchor="end" font-weight="bold" font-size="small" fill="#111">
12.0
</text>
<line x1="42.0" y1="218.4252503278379" x2="50.0" y2="218.4252503278379" stroke="#000"/>
<text x="26.000000000000004" y="218.4252503278379" text-anchor="end" font-weight="bold" font-size="small" fill="#111">
14.0
</text>
<line x1="42.0" y1="178.48600037467185" x2="50.0" y2="178.48600037467185" stroke="#000"/>
<text x="26.000000000000004" y="178.48600037467185" text-anchor="end" font-weight="bold" font-size="small" fill="#111">
16.0
</text>
<line x1="42.0" y1="138.5467504215059" x2="50.0" y2="138.5467504215059" stroke="#000"/>
<text x="26.000000000000004" y="138.5467504215059" text-anchor="end" font-weight="bold" font-size="small" fill="#111">
18.0
</text>
<rect x="268.5" y="36.00000000000001" width="80.0" height="18.0" fill="#7070f8" stroke="#888"/>
<text x="308.5" y="52.50000000000001" font-size="small" text-anchor="middle" font-weight="bold" fill="#EEE">
No JIT
</text>
<rect x="691.4999999999999" y="36.00000000000001" width="80.0" height="18.0" fill="orange" stroke="#888"/>
<text x="731.4999999999999" y="52.50000000000001" font-size="small" text-anchor="middle" font-weight="bold" fill="#EEE">
YJIT
</text>
<rect x="97.0" y="478.0303750234169" width="6.714285714285714" height="19.969624976583003" fill="#7070f8" data-tooltip="1.00x baseline speed (No JIT)"/>
<line x1="97.0" y1="477.97414279962646" x2="103.71428571428572" y2="477.97414279962646" stroke="#000"/>
<line x1="97.0" y1="478.0866072472073" x2="103.71428571428572" y2="478.0866072472073" stroke="#000"/>
<line x1="100.35714285714286" y1="477.97414279962646" x2="100.35714285714286" y2="478.0866072472073" stroke="#000"/>
<rect x="103.71428571428572" y="468.06882398373307" width="6.714285714285714" height="29.93117601626693" fill="orange" data-tooltip="1.50x baseline speed (YJIT)"/>
<line x1="103.71428571428572" y1="467.9296259289613" x2="110.42857142857143" y2="467.9296259289613" stroke="#000"/>
<line x1="103.71428571428572" y1="468.2080220385048" x2="110.42857142857143" y2="468.2080220385048" stroke="#000"/>
<line x1="107.07142857142857" y1="467.9296259289613" x2="107.07142857142857" y2="468.2080220385048" stroke="#000"/>
<line x1="107.07142857142857" y1="498.0" x2="107.07142857142857" y2="502.79999999999995" stroke="#000"/>
<text x="107.07142857142857" y="512.4" fill="#111" font-size="small" font-family="monospace" font-weight="bold" text-anchor="end" transform="rotate(-60, 107.07142857142857, 512.4)">
activerecord
</text>
<rect x="117.14285714285714" y="478.0303750234169" width="6.714285714285714" height="19.969624976583003" fill="#7070f8" data-tooltip="1.00x baseline speed (No JIT)"/>
<line x1="117.14285714285714" y1="477.9946524442713" x2="123.85714285714286" y2="477.9946524442713" stroke="#000"/>
<line x1="117.14285714285714" y1="478.06609760256254" x2="123.85714285714286" y2="478.06609760256254" stroke="#000"/>
<line x1="120.5" y1="477.9946524442713" x2="120.5" y2="478.06609760256254" stroke="#000"/>
<rect x="123.85714285714286" y="461.3223164184654" width="6.714285714285714" height="36.67768358153447" fill="orange" data-tooltip="1.84x baseline speed (YJIT)"/>
<line x1="123.85714285714286" y1="461.23802331413503" x2="130.57142857142856" y2="461.23802331413503" stroke="#000"/>
<line x1="123.85714285714286" y1="461.40660952279575" x2="130.57142857142856" y2="461.40660952279575" stroke="#000"/>
<line x1="127.21428571428572" y1="461.23802331413503" x2="127.21428571428572" y2="461.40660952279575" stroke="#000"/>
<line x1="127.21428571428572" y1="498.0" x2="127.21428571428572" y2="502.79999999999995" stroke="#000"/>
<text x="127.21428571428572" y="512.4" fill="#111" font-size="small" font-family="monospace" font-weight="bold" text-anchor="end" transform="rotate(-60, 127.21428571428572, 512.4)">
chunky-png
</text>
<rect x="137.28571428571428" y="478.0303750234169" width="6.714285714285714" height="19.969624976583003" fill="#7070f8" data-tooltip="1.00x baseline speed (No JIT)"/>
<line x1="137.28571428571428" y1="478.0211593563498" x2="144.00000000000003" y2="478.0211593563498" stroke="#000"/>
<line x1="137.28571428571428" y1="478.039590690484" x2="144.00000000000003" y2="478.039590690484" stroke="#000"/>
<line x1="140.64285714285714" y1="478.0211593563498" x2="140.64285714285714" y2="478.039590690484" stroke="#000"/>
<rect x="144.00000000000003" y="467.2193504164578" width="6.714285714285714" height="30.780649583542093" fill="orange" data-tooltip="1.54x baseline speed (YJIT)"/>
<line x1="144.00000000000003" y1="467.2013435753138" x2="150.71428571428575" y2="467.2013435753138" stroke="#000"/>
<line x1="144.00000000000003" y1="467.23735725760184" x2="150.71428571428575" y2="467.23735725760184" stroke="#000"/>
<line x1="147.3571428571429" y1="467.2013435753138" x2="147.3571428571429" y2="467.23735725760184" stroke="#000"/>
<line x1="147.35714285714286" y1="498.0" x2="147.35714285714286" y2="502.79999999999995" stroke="#000"/>
<text x="147.35714285714286" y="512.4" fill="#111" font-size="small" font-family="monospace" font-weight="bold" text-anchor="end" transform="rotate(-60, 147.35714285714286, 512.4)">
erubi-rails
</text>
<rect x="157.42857142857142" y="478.0303750234169" width="6.714285714285714" height="19.969624976583003" fill="#7070f8" data-tooltip="1.00x baseline speed (No JIT)"/>
<line x1="157.42857142857142" y1="477.9474120361441" x2="164.14285714285714" y2="477.9474120361441" stroke="#000"/>
<line x1="157.42857142857142" y1="478.1133380106897" x2="164.14285714285714" y2="478.1133380106897" stroke="#000"/>
<line x1="160.78571428571428" y1="477.9474120361441" x2="160.78571428571428" y2="478.1133380106897" stroke="#000"/>
<rect x="164.14285714285714" y="466.882395949044" width="6.714285714285714" height="31.1176040509559" fill="orange" data-tooltip="1.56x baseline speed (YJIT)"/>
<line x1="164.14285714285714" y1="466.39623064871853" x2="170.85714285714286" y2="466.39623064871853" stroke="#000"/>
<line x1="164.14285714285714" y1="467.3685612493694" x2="170.85714285714286" y2="467.3685612493694" stroke="#000"/>
<line x1="167.5" y1="466.39623064871853" x2="167.5" y2="467.3685612493694" stroke="#000"/>
<line x1="167.49999999999997" y1="498.0" x2="167.49999999999997" y2="502.79999999999995" stroke="#000"/>
<text x="167.49999999999997" y="512.4" fill="#111" font-size="small" font-family="monospace" font-weight="bold" text-anchor="end" transform="rotate(-60, 167.49999999999997, 512.4)">
hexapdf
</text>
<rect x="177.57142857142858" y="478.0303750234169" width="6.714285714285714" height="19.969624976583003" fill="#7070f8" data-tooltip="1.00x baseline speed (No JIT)"/>
<line x1="177.57142857142858" y1="477.9437024532882" x2="184.28571428571428" y2="477.9437024532882" stroke="#000"/>
<line x1="177.57142857142858" y1="478.1170475935456" x2="184.28571428571428" y2="478.1170475935456" stroke="#000"/>
<line x1="180.92857142857144" y1="477.9437024532882" x2="180.92857142857144" y2="478.1170475935456" stroke="#000"/>
<rect x="184.28571428571428" y="472.39671183642145" width="6.714285714285714" height="25.60328816357855" fill="orange" data-tooltip="1.28x baseline speed (YJIT)"/>
<line x1="184.28571428571428" y1="472.21366310338453" x2="191.0" y2="472.21366310338453" stroke="#000"/>
<line x1="184.28571428571428" y1="472.57976056945836" x2="191.0" y2="472.57976056945836" stroke="#000"/>
<line x1="187.64285714285714" y1="472.21366310338453" x2="187.64285714285714" y2="472.57976056945836" stroke="#000"/>
<line x1="187.64285714285714" y1="498.0" x2="187.64285714285714" y2="502.79999999999995" stroke="#000"/>
<text x="187.64285714285714" y="512.4" fill="#111" font-size="small" font-family="monospace" font-weight="bold" text-anchor="end" transform="rotate(-60, 187.64285714285714, 512.4)">
liquid-c
</text>
<rect x="197.71428571428572" y="478.0303750234169" width="6.714285714285714" height="19.969624976583003" fill="#7070f8" data-tooltip="1.00x baseline speed (No JIT)"/>
<line x1="197.71428571428572" y1="477.98809268317643" x2="204.42857142857147" y2="477.98809268317643" stroke="#000"/>
<line x1="197.71428571428572" y1="478.07265736365736" x2="204.42857142857147" y2="478.07265736365736" stroke="#000"/>
<line x1="201.07142857142858" y1="477.98809268317643" x2="201.07142857142858" y2="478.07265736365736" stroke="#000"/>
<rect x="204.42857142857147" y="473.2555595464952" width="6.714285714285714" height="24.74444045350468" fill="orange" data-tooltip="1.24x baseline speed (YJIT)"/>
<line x1="204.42857142857147" y1="473.19752287219137" x2="211.1428571428572" y2="473.19752287219137" stroke="#000"/>
<line x1="204.42857142857147" y1="473.31359622079907" x2="211.1428571428572" y2="473.31359622079907" stroke="#000"/>
<line x1="207.78571428571433" y1="473.19752287219137" x2="207.78571428571433" y2="473.31359622079907" stroke="#000"/>
<line x1="207.7857142857143" y1="498.0" x2="207.7857142857143" y2="502.79999999999995" stroke="#000"/>
<text x="207.7857142857143" y="512.4" fill="#111" font-size="small" font-family="monospace" font-weight="bold" text-anchor="end" transform="rotate(-60, 207.7857142857143, 512.4)">
liquid-compile
</text>
<rect x="217.85714285714286" y="478.0303750234169" width="6.714285714285714" height="19.969624976583003" fill="#7070f8" data-tooltip="1.00x baseline speed (No JIT)"/>
<line x1="217.85714285714286" y1="478.0124760890335" x2="224.57142857142858" y2="478.0124760890335" stroke="#000"/>
<line x1="217.85714285714286" y1="478.0482739578003" x2="224.57142857142858" y2="478.0482739578003" stroke="#000"/>
<line x1="221.21428571428572" y1="478.0124760890335" x2="221.21428571428572" y2="478.0482739578003" stroke="#000"/>
<rect x="224.57142857142858" y="459.77773642376263" width="6.714285714285714" height="38.22226357623735" fill="orange" data-tooltip="1.91x baseline speed (YJIT)"/>
<line x1="224.57142857142858" y1="459.71439988455245" x2="231.2857142857143" y2="459.71439988455245" stroke="#000"/>
<line x1="224.57142857142858" y1="459.84107296297276" x2="231.2857142857143" y2="459.84107296297276" stroke="#000"/>
<line x1="227.92857142857144" y1="459.71439988455245" x2="227.92857142857144" y2="459.84107296297276" stroke="#000"/>
<line x1="227.92857142857142" y1="498.0" x2="227.92857142857142" y2="502.79999999999995" stroke="#000"/>
<text x="227.92857142857142" y="512.4" fill="#111" font-size="small" font-family="monospace" font-weight="bold" text-anchor="end" transform="rotate(-60, 227.92857142857142, 512.4)">
liquid-render
</text>
<rect x="238.00000000000003" y="478.0303750234169" width="6.714285714285714" height="19.969624976583003" fill="#7070f8" data-tooltip="1.00x baseline speed (No JIT)"/>
<line x1="238.00000000000003" y1="477.9527037396144" x2="244.71428571428572" y2="477.9527037396144" stroke="#000"/>
<line x1="238.00000000000003" y1="478.1080463072194" x2="244.71428571428572" y2="478.1080463072194" stroke="#000"/>
<line x1="241.3571428571429" y1="477.9527037396144" x2="241.3571428571429" y2="478.1080463072194" stroke="#000"/>
<rect x="244.71428571428572" y="470.12093347773794" width="6.714285714285714" height="27.87906652226192" fill="orange" data-tooltip="1.40x baseline speed (YJIT)"/>
<line x1="244.71428571428572" y1="469.73281848412773" x2="251.42857142857144" y2="469.73281848412773" stroke="#000"/>
<line x1="244.71428571428572" y1="470.5090484713482" x2="251.42857142857144" y2="470.5090484713482" stroke="#000"/>
<line x1="248.07142857142858" y1="469.73281848412773" x2="248.07142857142858" y2="470.5090484713482" stroke="#000"/>
<line x1="248.07142857142858" y1="498.0" x2="248.07142857142858" y2="502.79999999999995" stroke="#000"/>
<text x="248.07142857142858" y="512.4" fill="#111" font-size="small" font-family="monospace" font-weight="bold" text-anchor="end" transform="rotate(-60, 248.07142857142858, 512.4)">
lobsters
</text>
<rect x="258.1428571428571" y="478.0303750234169" width="6.714285714285714" height="19.969624976583003" fill="#7070f8" data-tooltip="1.00x baseline speed (No JIT)"/>
<line x1="258.1428571428571" y1="477.99617278595423" x2="264.85714285714283" y2="477.99617278595423" stroke="#000"/>
<line x1="258.1428571428571" y1="478.06457726087956" x2="264.85714285714283" y2="478.06457726087956" stroke="#000"/>
<line x1="261.49999999999994" y1="477.99617278595423" x2="261.49999999999994" y2="478.06457726087956" stroke="#000"/>
<rect x="264.85714285714283" y="471.05337413249595" width="6.714285714285714" height="26.94662586750401" fill="orange" data-tooltip="1.35x baseline speed (YJIT)"/>
<line x1="264.85714285714283" y1="470.9775063505394" x2="271.57142857142856" y2="470.9775063505394" stroke="#000"/>
<line x1="264.85714285714283" y1="471.1292419144525" x2="271.57142857142856" y2="471.1292419144525" stroke="#000"/>
<line x1="268.21428571428567" y1="470.9775063505394" x2="268.21428571428567" y2="471.1292419144525" stroke="#000"/>
<line x1="268.21428571428567" y1="498.0" x2="268.21428571428567" y2="502.79999999999995" stroke="#000"/>
<text x="268.21428571428567" y="512.4" fill="#111" font-size="small" font-family="monospace" font-weight="bold" text-anchor="end" transform="rotate(-60, 268.21428571428567, 512.4)">
mail
</text>
<rect x="278.2857142857142" y="478.0303750234169" width="6.714285714285714" height="19.969624976583003" fill="#7070f8" data-tooltip="1.00x baseline speed (No JIT)"/>
<line x1="278.2857142857142" y1="478.0178597763954" x2="285.0" y2="478.0178597763954" stroke="#000"/>
<line x1="278.2857142857142" y1="478.04289027043836" x2="285.0" y2="478.04289027043836" stroke="#000"/>
<line x1="281.6428571428571" y1="478.0178597763954" x2="281.6428571428571" y2="478.04289027043836" stroke="#000"/>
<rect x="285.0" y="465.88283497617994" width="6.714285714285714" height="32.11716502382002" fill="orange" data-tooltip="1.61x baseline speed (YJIT)"/>
<line x1="285.0" y1="465.8508889873821" x2="291.7142857142857" y2="465.8508889873821" stroke="#000"/>
<line x1="285.0" y1="465.91478096497775" x2="291.7142857142857" y2="465.91478096497775" stroke="#000"/>
<line x1="288.35714285714283" y1="465.8508889873821" x2="288.35714285714283" y2="465.91478096497775" stroke="#000"/>
<line x1="288.35714285714283" y1="498.0" x2="288.35714285714283" y2="502.79999999999995" stroke="#000"/>
<text x="288.35714285714283" y="512.4" fill="#111" font-size="small" font-family="monospace" font-weight="bold" text-anchor="end" transform="rotate(-60, 288.35714285714283, 512.4)">
psych-load
</text>
<rect x="298.42857142857144" y="478.0303750234169" width="6.714285714285714" height="19.969624976583003" fill="#7070f8" data-tooltip="1.00x baseline speed (No JIT)"/>
<line x1="298.42857142857144" y1="478.01961308121065" x2="305.14285714285717" y2="478.01961308121065" stroke="#000"/>
<line x1="298.42857142857144" y1="478.04113696562314" x2="305.14285714285717" y2="478.04113696562314" stroke="#000"/>
<line x1="301.7857142857143" y1="478.01961308121065" x2="301.7857142857143" y2="478.04113696562314" stroke="#000"/>
<rect x="305.14285714285717" y="467.21614319601315" width="6.714285714285714" height="30.783856803986865" fill="orange" data-tooltip="1.54x baseline speed (YJIT)"/>
<line x1="305.14285714285717" y1="467.0351782497295" x2="311.8571428571429" y2="467.0351782497295" stroke="#000"/>
<line x1="305.14285714285717" y1="467.39710814229676" x2="311.8571428571429" y2="467.39710814229676" stroke="#000"/>
<line x1="308.5" y1="467.0351782497295" x2="308.5" y2="467.39710814229676" stroke="#000"/>
<line x1="308.5" y1="498.0" x2="308.5" y2="502.79999999999995" stroke="#000"/>
<text x="308.5" y="512.4" fill="#111" font-size="small" font-family="monospace" font-weight="bold" text-anchor="end" transform="rotate(-60, 308.5, 512.4)">
railsbench
</text>
<rect x="318.5714285714286" y="478.0303750234169" width="6.714285714285714" height="19.969624976583003" fill="#7070f8" data-tooltip="1.00x baseline speed (No JIT)"/>
<line x1="318.5714285714286" y1="478.01374065374733" x2="325.28571428571433" y2="478.01374065374733" stroke="#000"/>
<line x1="318.5714285714286" y1="478.04700939308646" x2="325.28571428571433" y2="478.04700939308646" stroke="#000"/>
<line x1="321.92857142857144" y1="478.01374065374733" x2="321.92857142857144" y2="478.04700939308646" stroke="#000"/>
<rect x="325.28571428571433" y="470.355463988219" width="6.714285714285714" height="27.644536011780893" fill="orange" data-tooltip="1.38x baseline speed (YJIT)"/>
<line x1="325.28571428571433" y1="470.1212273628825" x2="332.00000000000006" y2="470.1212273628825" stroke="#000"/>
<line x1="325.28571428571433" y1="470.5897006135556" x2="332.00000000000006" y2="470.5897006135556" stroke="#000"/>
<line x1="328.64285714285717" y1="470.1212273628825" x2="328.64285714285717" y2="470.5897006135556" stroke="#000"/>
<line x1="328.64285714285717" y1="498.0" x2="328.64285714285717" y2="502.79999999999995" stroke="#000"/>
<text x="328.64285714285717" y="512.4" fill="#111" font-size="small" font-family="monospace" font-weight="bold" text-anchor="end" transform="rotate(-60, 328.64285714285717, 512.4)">
ruby-lsp
</text>
<rect x="338.7142857142857" y="478.0303750234169" width="6.714285714285714" height="19.969624976583003" fill="#7070f8" data-tooltip="1.00x baseline speed (No JIT)"/>
<line x1="338.7142857142857" y1="477.959621088139" x2="345.4285714285715" y2="477.959621088139" stroke="#000"/>
<line x1="338.7142857142857" y1="478.10112895869486" x2="345.4285714285715" y2="478.10112895869486" stroke="#000"/>
<line x1="342.07142857142856" y1="477.959621088139" x2="342.07142857142856" y2="478.10112895869486" stroke="#000"/>
<rect x="345.4285714285715" y="474.24038359768656" width="6.714285714285714" height="23.75961640231339" fill="orange" data-tooltip="1.19x baseline speed (YJIT)"/>
<line x1="345.4285714285715" y1="474.11257965204953" x2="352.1428571428572" y2="474.11257965204953" stroke="#000"/>
<line x1="345.4285714285715" y1="474.3681875433236" x2="352.1428571428572" y2="474.3681875433236" stroke="#000"/>
<line x1="348.78571428571433" y1="474.11257965204953" x2="348.78571428571433" y2="474.3681875433236" stroke="#000"/>
<line x1="348.78571428571433" y1="498.0" x2="348.78571428571433" y2="502.79999999999995" stroke="#000"/>
<text x="348.78571428571433" y="512.4" fill="#111" font-size="small" font-family="monospace" font-weight="bold" text-anchor="end" transform="rotate(-60, 348.78571428571433, 512.4)">
sequel
</text>
<rect x="358.8571428571429" y="478.0303750234169" width="6.714285714285714" height="19.969624976583003" fill="#7070f8" data-tooltip="1.00x baseline speed (No JIT)"/>
<line x1="358.8571428571429" y1="477.80221870473616" x2="365.5714285714286" y2="477.80221870473616" stroke="#000"/>
<line x1="358.8571428571429" y1="478.2585313420977" x2="365.5714285714286" y2="478.2585313420977" stroke="#000"/>
<line x1="362.2142857142857" y1="477.80221870473616" x2="362.2142857142857" y2="478.2585313420977" stroke="#000"/>
<rect x="365.5714285714286" y="456.9645047619849" width="6.714285714285714" height="41.03549523801499" fill="orange" data-tooltip="2.05x baseline speed (YJIT)"/>
<line x1="365.5714285714286" y1="455.9142624734617" x2="372.28571428571433" y2="455.9142624734617" stroke="#000"/>
<line x1="365.5714285714286" y1="458.0147470505082" x2="372.28571428571433" y2="458.0147470505082" stroke="#000"/>
<line x1="368.92857142857144" y1="455.9142624734617" x2="368.92857142857144" y2="458.0147470505082" stroke="#000"/>
<line x1="368.92857142857144" y1="498.0" x2="368.92857142857144" y2="502.79999999999995" stroke="#000"/>
<text x="368.92857142857144" y="512.4" fill="#111" font-size="small" font-family="monospace" font-weight="bold" text-anchor="end" transform="rotate(-60, 368.92857142857144, 512.4)">
binarytrees
</text>
<rect x="379.0" y="478.0303750234169" width="6.714285714285714" height="19.969624976583003" fill="#7070f8" data-tooltip="1.00x baseline speed (No JIT)"/>
<line x1="379.0" y1="478.001529520939" x2="385.7142857142857" y2="478.001529520939" stroke="#000"/>
<line x1="379.0" y1="478.0592205258948" x2="385.7142857142857" y2="478.0592205258948" stroke="#000"/>
<line x1="382.35714285714283" y1="478.001529520939" x2="382.35714285714283" y2="478.0592205258948" stroke="#000"/>
<rect x="385.7142857142857" y="474.8892383259755" width="6.714285714285714" height="23.11076167402451" fill="orange" data-tooltip="1.16x baseline speed (YJIT)"/>
<line x1="385.7142857142857" y1="474.8497955261039" x2="392.42857142857144" y2="474.8497955261039" stroke="#000"/>
<line x1="385.7142857142857" y1="474.92868112584705" x2="392.42857142857144" y2="474.92868112584705" stroke="#000"/>
<line x1="389.07142857142856" y1="474.8497955261039" x2="389.07142857142856" y2="474.92868112584705" stroke="#000"/>
<line x1="389.07142857142856" y1="498.0" x2="389.07142857142856" y2="502.79999999999995" stroke="#000"/>
<text x="389.07142857142856" y="512.4" fill="#111" font-size="small" font-family="monospace" font-weight="bold" text-anchor="end" transform="rotate(-60, 389.07142857142856, 512.4)">
erubi
</text>
<rect x="399.1428571428571" y="478.0303750234169" width="6.714285714285714" height="19.969624976583003" fill="#7070f8" data-tooltip="1.00x baseline speed (No JIT)"/>
<line x1="399.1428571428571" y1="477.9790488541951" x2="405.85714285714283" y2="477.9790488541951" stroke="#000"/>
<line x1="399.1428571428571" y1="478.08170119263866" x2="405.85714285714283" y2="478.08170119263866" stroke="#000"/>
<line x1="402.49999999999994" y1="477.9790488541951" x2="402.49999999999994" y2="478.08170119263866" stroke="#000"/>
<rect x="405.85714285714283" y="476.7693415973425" width="6.714285714285714" height="21.230658402657486" fill="orange" data-tooltip="1.06x baseline speed (YJIT)"/>
<line x1="405.85714285714283" y1="476.7108949994586" x2="412.5714285714286" y2="476.7108949994586" stroke="#000"/>
<line x1="405.85714285714283" y1="476.82778819522633" x2="412.5714285714286" y2="476.82778819522633" stroke="#000"/>
<line x1="409.2142857142857" y1="476.7108949994586" x2="409.2142857142857" y2="476.82778819522633" stroke="#000"/>
<line x1="409.2142857142857" y1="498.0" x2="409.2142857142857" y2="502.79999999999995" stroke="#000"/>
<text x="409.2142857142857" y="512.4" fill="#111" font-size="small" font-family="monospace" font-weight="bold" text-anchor="end" transform="rotate(-60, 409.2142857142857, 512.4)">
etanni
</text>
<rect x="419.2857142857143" y="478.0303750234169" width="6.714285714285714" height="19.969624976583003" fill="#7070f8" data-tooltip="1.00x baseline speed (No JIT)"/>
<line x1="419.2857142857143" y1="477.82702008475155" x2="426.0" y2="477.82702008475155" stroke="#000"/>
<line x1="419.2857142857143" y1="478.23372996208224" x2="426.0" y2="478.23372996208224" stroke="#000"/>
<line x1="422.6428571428571" y1="477.82702008475155" x2="422.6428571428571" y2="478.23372996208224" stroke="#000"/>
<rect x="426.0" y="418.62141870123236" width="6.714285714285714" height="79.37858129876761" fill="orange" data-tooltip="3.97x baseline speed (YJIT)"/>
<line x1="426.0" y1="417.78543451554793" x2="432.7142857142857" y2="417.78543451554793" stroke="#000"/>
<line x1="426.0" y1="419.4574028869168" x2="432.7142857142857" y2="419.4574028869168" stroke="#000"/>
<line x1="429.35714285714283" y1="417.78543451554793" x2="429.35714285714283" y2="419.4574028869168" stroke="#000"/>
<line x1="429.35714285714283" y1="498.0" x2="429.35714285714283" y2="502.79999999999995" stroke="#000"/>
<text x="429.35714285714283" y="512.4" fill="#111" font-size="small" font-family="monospace" font-weight="bold" text-anchor="end" transform="rotate(-60, 429.35714285714283, 512.4)">
fannkuchredux
</text>
<rect x="439.4285714285714" y="478.0303750234169" width="6.714285714285714" height="19.969624976583003" fill="#7070f8" data-tooltip="1.00x baseline speed (No JIT)"/>
<line x1="439.4285714285714" y1="477.9458628399147" x2="446.1428571428571" y2="477.9458628399147" stroke="#000"/>
<line x1="439.4285714285714" y1="478.11488720691915" x2="446.1428571428571" y2="478.11488720691915" stroke="#000"/>
<line x1="442.7857142857142" y1="477.9458628399147" x2="442.7857142857142" y2="478.11488720691915" stroke="#000"/>
<rect x="446.1428571428571" y="475.48939349528337" width="6.714285714285714" height="22.5106065047166" fill="orange" data-tooltip="1.13x baseline speed (YJIT)"/>
<line x1="446.1428571428571" y1="475.3871804243354" x2="452.85714285714283" y2="475.3871804243354" stroke="#000"/>
<line x1="446.1428571428571" y1="475.5916065662313" x2="452.85714285714283" y2="475.5916065662313" stroke="#000"/>
<line x1="449.49999999999994" y1="475.3871804243354" x2="449.49999999999994" y2="475.5916065662313" stroke="#000"/>
<line x1="449.49999999999994" y1="498.0" x2="449.49999999999994" y2="502.79999999999995" stroke="#000"/>
<text x="449.49999999999994" y="512.4" fill="#111" font-size="small" font-family="monospace" font-weight="bold" text-anchor="end" transform="rotate(-60, 449.49999999999994, 512.4)">
fluentd
</text>
<rect x="459.5714285714285" y="478.0303750234169" width="6.714285714285714" height="19.969624976583003" fill="#7070f8" data-tooltip="1.00x baseline speed (No JIT)"/>
<line x1="459.5714285714285" y1="477.9820394481543" x2="466.2857142857142" y2="477.9820394481543" stroke="#000"/>
<line x1="459.5714285714285" y1="478.07871059867955" x2="466.2857142857142" y2="478.07871059867955" stroke="#000"/>
<line x1="462.92857142857133" y1="477.9820394481543" x2="462.92857142857133" y2="478.07871059867955" stroke="#000"/>
<rect x="466.2857142857142" y="473.48161202729733" width="6.714285714285714" height="24.518387972702552" fill="orange" data-tooltip="1.23x baseline speed (YJIT)"/>
<line x1="466.2857142857142" y1="473.42091164845556" x2="473.0" y2="473.42091164845556" stroke="#000"/>
<line x1="466.2857142857142" y1="473.5423124061391" x2="473.0" y2="473.5423124061391" stroke="#000"/>
<line x1="469.6428571428571" y1="473.42091164845556" x2="469.6428571428571" y2="473.5423124061391" stroke="#000"/>
<line x1="469.6428571428571" y1="498.0" x2="469.6428571428571" y2="502.79999999999995" stroke="#000"/>
<text x="469.6428571428571" y="512.4" fill="#111" font-size="small" font-family="monospace" font-weight="bold" text-anchor="end" transform="rotate(-60, 469.6428571428571, 512.4)">
graphql
</text>
<rect x="479.7142857142858" y="478.0303750234169" width="6.714285714285714" height="19.969624976583003" fill="#7070f8" data-tooltip="1.00x baseline speed (No JIT)"/>
<line x1="479.7142857142858" y1="478.0204337129944" x2="486.4285714285715" y2="478.0204337129944" stroke="#000"/>
<line x1="479.7142857142858" y1="478.04031633383937" x2="486.4285714285715" y2="478.04031633383937" stroke="#000"/>
<line x1="483.0714285714286" y1="478.0204337129944" x2="483.0714285714286" y2="478.04031633383937" stroke="#000"/>
<rect x="486.4285714285715" y="475.88820706863373" width="6.714285714285714" height="22.111792931366256" fill="orange" data-tooltip="1.11x baseline speed (YJIT)"/>
<line x1="486.4285714285715" y1="475.8665119330149" x2="493.1428571428572" y2="475.8665119330149" stroke="#000"/>
<line x1="486.4285714285715" y1="475.9099022042525" x2="493.1428571428572" y2="475.9099022042525" stroke="#000"/>
<line x1="489.78571428571433" y1="475.8665119330149" x2="489.78571428571433" y2="475.9099022042525" stroke="#000"/>
<line x1="489.78571428571433" y1="498.0" x2="489.78571428571433" y2="502.79999999999995" stroke="#000"/>
<text x="489.78571428571433" y="512.4" fill="#111" font-size="small" font-family="monospace" font-weight="bold" text-anchor="end" transform="rotate(-60, 489.78571428571433, 512.4)">
graphql-native
</text>
<rect x="499.8571428571429" y="478.0303750234169" width="6.714285714285714" height="19.969624976583003" fill="#7070f8" data-tooltip="1.00x baseline speed (No JIT)"/>
<line x1="499.8571428571429" y1="477.8704468295222" x2="506.57142857142856" y2="477.8704468295222" stroke="#000"/>
<line x1="499.8571428571429" y1="478.19030321731157" x2="506.57142857142856" y2="478.19030321731157" stroke="#000"/>
<line x1="503.2142857142857" y1="477.8704468295222" x2="503.2142857142857" y2="478.19030321731157" stroke="#000"/>
<rect x="506.57142857142856" y="470.0847793545239" width="6.714285714285714" height="27.91522064547605" fill="orange" data-tooltip="1.40x baseline speed (YJIT)"/>
<line x1="506.57142857142856" y1="469.7232926757795" x2="513.2857142857142" y2="469.7232926757795" stroke="#000"/>
<line x1="506.57142857142856" y1="470.4462660332684" x2="513.2857142857142" y2="470.4462660332684" stroke="#000"/>
<line x1="509.9285714285714" y1="469.7232926757795" x2="509.9285714285714" y2="470.4462660332684" stroke="#000"/>
<line x1="509.9285714285715" y1="498.0" x2="509.9285714285715" y2="502.79999999999995" stroke="#000"/>
<text x="509.9285714285715" y="512.4" fill="#111" font-size="small" font-family="monospace" font-weight="bold" text-anchor="end" transform="rotate(-60, 509.9285714285715, 512.4)">
lee
</text>
<rect x="520.0" y="478.0303750234169" width="6.714285714285714" height="19.969624976583003" fill="#7070f8" data-tooltip="1.00x baseline speed (No JIT)"/>
<line x1="520.0" y1="477.9872309337509" x2="526.7142857142857" y2="477.9872309337509" stroke="#000"/>
<line x1="520.0" y1="478.0735191130829" x2="526.7142857142857" y2="478.0735191130829" stroke="#000"/>
<line x1="523.3571428571429" y1="477.9872309337509" x2="523.3571428571429" y2="478.0735191130829" stroke="#000"/>
<rect x="526.7142857142857" y="470.4128088411203" width="6.714285714285714" height="27.58719115887962" fill="orange" data-tooltip="1.38x baseline speed (YJIT)"/>
<line x1="526.7142857142857" y1="470.3441272933698" x2="533.4285714285713" y2="470.3441272933698" stroke="#000"/>
<line x1="526.7142857142857" y1="470.4814903888708" x2="533.4285714285713" y2="470.4814903888708" stroke="#000"/>
<line x1="530.0714285714286" y1="470.3441272933698" x2="530.0714285714286" y2="470.4814903888708" stroke="#000"/>
<line x1="530.0714285714287" y1="498.0" x2="530.0714285714287" y2="502.79999999999995" stroke="#000"/>
<text x="530.0714285714287" y="512.4" fill="#111" font-size="small" font-family="monospace" font-weight="bold" text-anchor="end" transform="rotate(-60, 530.0714285714287, 512.4)">
matmul
</text>
<rect x="540.1428571428571" y="478.0303750234169" width="6.714285714285714" height="19.969624976583003" fill="#7070f8" data-tooltip="1.00x baseline speed (No JIT)"/>
<line x1="540.1428571428571" y1="477.6954726626472" x2="546.8571428571428" y2="477.6954726626472" stroke="#000"/>
<line x1="540.1428571428571" y1="478.3652773841866" x2="546.8571428571428" y2="478.3652773841866" stroke="#000"/>
<line x1="543.5" y1="477.6954726626472" x2="543.5" y2="478.3652773841866" stroke="#000"/>
<rect x="546.8571428571428" y="456.63484929382145" width="6.714285714285714" height="41.36515070617847" fill="orange" data-tooltip="2.07x baseline speed (YJIT)"/>
<line x1="546.8571428571428" y1="455.9405717644309" x2="553.5714285714284" y2="455.9405717644309" stroke="#000"/>
<line x1="546.8571428571428" y1="457.329126823212" x2="553.5714285714284" y2="457.329126823212" stroke="#000"/>
<line x1="550.2142857142857" y1="455.9405717644309" x2="550.2142857142857" y2="457.329126823212" stroke="#000"/>
<line x1="550.2142857142858" y1="498.0" x2="550.2142857142858" y2="502.79999999999995" stroke="#000"/>
<text x="550.2142857142858" y="512.4" fill="#111" font-size="small" font-family="monospace" font-weight="bold" text-anchor="end" transform="rotate(-60, 550.2142857142858, 512.4)">
nbody
</text>
<rect x="560.2857142857142" y="478.0303750234169" width="6.714285714285714" height="19.969624976583003" fill="#7070f8" data-tooltip="1.00x baseline speed (No JIT)"/>
<line x1="560.2857142857142" y1="477.79917020831834" x2="567.0" y2="477.79917020831834" stroke="#000"/>
<line x1="560.2857142857142" y1="478.26157983851544" x2="567.0" y2="478.26157983851544" stroke="#000"/>
<line x1="563.6428571428571" y1="477.79917020831834" x2="563.6428571428571" y2="478.26157983851544" stroke="#000"/>
<rect x="567.0" y="477.88988995281284" width="6.714285714285714" height="20.110110047187117" fill="orange" data-tooltip="1.01x baseline speed (YJIT)"/>
<line x1="567.0" y1="473.5757043769699" x2="573.7142857142857" y2="473.5757043769699" stroke="#000"/>
<line x1="567.0" y1="482.2040755286557" x2="573.7142857142857" y2="482.2040755286557" stroke="#000"/>
<line x1="570.3571428571428" y1="473.5757043769699" x2="570.3571428571428" y2="482.2040755286557" stroke="#000"/>
<line x1="570.3571428571429" y1="498.0" x2="570.3571428571429" y2="502.79999999999995" stroke="#000"/>
<text x="570.3571428571429" y="512.4" fill="#111" font-size="small" font-family="monospace" font-weight="bold" text-anchor="end" transform="rotate(-60, 570.3571428571429, 512.4)">
nqueens
</text>
<rect x="580.4285714285714" y="478.0303750234169" width="6.714285714285714" height="19.969624976583003" fill="#7070f8" data-tooltip="1.00x baseline speed (No JIT)"/>
<line x1="580.4285714285714" y1="477.90624284888804" x2="587.1428571428571" y2="477.90624284888804" stroke="#000"/>
<line x1="580.4285714285714" y1="478.15450719794575" x2="587.1428571428571" y2="478.15450719794575" stroke="#000"/>
<line x1="583.7857142857142" y1="477.90624284888804" x2="583.7857142857142" y2="478.15450719794575" stroke="#000"/>
<rect x="587.1428571428571" y="452.81050959541244" width="6.714285714285714" height="45.18949040458751" fill="orange" data-tooltip="2.26x baseline speed (YJIT)"/>
<line x1="587.1428571428571" y1="452.4321828000125" x2="593.8571428571428" y2="452.4321828000125" stroke="#000"/>
<line x1="587.1428571428571" y1="453.1888363908123" x2="593.8571428571428" y2="453.1888363908123" stroke="#000"/>
<line x1="590.4999999999999" y1="452.4321828000125" x2="590.4999999999999" y2="453.1888363908123" stroke="#000"/>
<line x1="590.5" y1="498.0" x2="590.5" y2="502.79999999999995" stroke="#000"/>
<text x="590.5" y="512.4" fill="#111" font-size="small" font-family="monospace" font-weight="bold" text-anchor="end" transform="rotate(-60, 590.5, 512.4)">
optcarrot
</text>
<rect x="600.5714285714286" y="478.0303750234169" width="6.714285714285714" height="19.969624976583003" fill="#7070f8" data-tooltip="1.00x baseline speed (No JIT)"/>
<line x1="600.5714285714286" y1="477.9977434621603" x2="607.2857142857142" y2="477.9977434621603" stroke="#000"/>
<line x1="600.5714285714286" y1="478.0630065846735" x2="607.2857142857142" y2="478.0630065846735" stroke="#000"/>
<line x1="603.9285714285713" y1="477.9977434621603" x2="603.9285714285713" y2="478.0630065846735" stroke="#000"/>
<rect x="607.2857142857142" y="474.1200227297123" width="6.714285714285714" height="23.879977270287668" fill="orange" data-tooltip="1.20x baseline speed (YJIT)"/>
<line x1="607.2857142857142" y1="474.06307698868926" x2="613.9999999999999" y2="474.06307698868926" stroke="#000"/>
<line x1="607.2857142857142" y1="474.17696847073523" x2="613.9999999999999" y2="474.17696847073523" stroke="#000"/>
<line x1="610.642857142857" y1="474.06307698868926" x2="610.642857142857" y2="474.17696847073523" stroke="#000"/>
<line x1="610.6428571428571" y1="498.0" x2="610.6428571428571" y2="502.79999999999995" stroke="#000"/>
<text x="610.6428571428571" y="512.4" fill="#111" font-size="small" font-family="monospace" font-weight="bold" text-anchor="end" transform="rotate(-60, 610.6428571428571, 512.4)">
rack
</text>
<rect x="620.7142857142857" y="478.0303750234169" width="6.714285714285714" height="19.969624976583003" fill="#7070f8" data-tooltip="1.00x baseline speed (No JIT)"/>
<line x1="620.7142857142857" y1="477.9993033227758" x2="627.4285714285713" y2="477.9993033227758" stroke="#000"/>
<line x1="620.7142857142857" y1="478.061446724058" x2="627.4285714285713" y2="478.061446724058" stroke="#000"/>
<line x1="624.0714285714286" y1="477.9993033227758" x2="624.0714285714286" y2="478.061446724058" stroke="#000"/>
<rect x="627.4285714285713" y="474.9603040902365" width="6.714285714285714" height="23.039695909763452" fill="orange" data-tooltip="1.15x baseline speed (YJIT)"/>
<line x1="627.4285714285713" y1="474.91008338047686" x2="634.142857142857" y2="474.91008338047686" stroke="#000"/>
<line x1="627.4285714285713" y1="475.0105247999962" x2="634.142857142857" y2="475.0105247999962" stroke="#000"/>
<line x1="630.7857142857142" y1="474.91008338047686" x2="630.7857142857142" y2="475.0105247999962" stroke="#000"/>
<line x1="630.7857142857143" y1="498.0" x2="630.7857142857143" y2="502.79999999999995" stroke="#000"/>
<text x="630.7857142857143" y="512.4" fill="#111" font-size="small" font-family="monospace" font-weight="bold" text-anchor="end" transform="rotate(-60, 630.7857142857143, 512.4)">
ruby-json
</text>
<rect x="640.8571428571428" y="478.0303750234169" width="6.714285714285714" height="19.969624976583003" fill="#7070f8" data-tooltip="1.00x baseline speed (No JIT)"/>
<line x1="640.8571428571428" y1="477.92174782058316" x2="647.5714285714284" y2="477.92174782058316" stroke="#000"/>
<line x1="640.8571428571428" y1="478.1390022262506" x2="647.5714285714284" y2="478.1390022262506" stroke="#000"/>
<line x1="644.2142857142857" y1="477.92174782058316" x2="644.2142857142857" y2="478.1390022262506" stroke="#000"/>
<rect x="647.5714285714284" y="462.71455060131365" width="6.714285714285714" height="35.28544939868633" fill="orange" data-tooltip="1.77x baseline speed (YJIT)"/>
<line x1="647.5714285714284" y1="462.36142372364645" x2="654.2857142857141" y2="462.36142372364645" stroke="#000"/>
<line x1="647.5714285714284" y1="463.0676774789808" x2="654.2857142857141" y2="463.0676774789808" stroke="#000"/>
<line x1="650.9285714285713" y1="462.36142372364645" x2="650.9285714285713" y2="463.0676774789808" stroke="#000"/>
<line x1="650.9285714285714" y1="498.0" x2="650.9285714285714" y2="502.79999999999995" stroke="#000"/>
<text x="650.9285714285714" y="512.4" fill="#111" font-size="small" font-family="monospace" font-weight="bold" text-anchor="end" transform="rotate(-60, 650.9285714285714, 512.4)">
rubykon
</text>
<rect x="661.0" y="478.0303750234169" width="6.714285714285714" height="19.969624976583003" fill="#7070f8" data-tooltip="1.00x baseline speed (No JIT)"/>
<line x1="661.0" y1="477.77081812831017" x2="667.7142857142857" y2="477.77081812831017" stroke="#000"/>
<line x1="661.0" y1="478.2899319185236" x2="667.7142857142857" y2="478.2899319185236" stroke="#000"/>
<line x1="664.3571428571429" y1="477.77081812831017" x2="664.3571428571429" y2="478.2899319185236" stroke="#000"/>
<rect x="667.7142857142857" y="463.1788810141973" width="6.714285714285714" height="34.82111898580262" fill="orange" data-tooltip="1.74x baseline speed (YJIT)"/>
<line x1="667.7142857142857" y1="462.7184992442526" x2="674.4285714285713" y2="462.7184992442526" stroke="#000"/>
<line x1="667.7142857142857" y1="463.6392627841421" x2="674.4285714285713" y2="463.6392627841421" stroke="#000"/>
<line x1="671.0714285714286" y1="462.7184992442526" x2="671.0714285714286" y2="463.6392627841421" stroke="#000"/>
<line x1="671.0714285714287" y1="498.0" x2="671.0714285714287" y2="502.79999999999995" stroke="#000"/>
<text x="671.0714285714287" y="512.4" fill="#111" font-size="small" font-family="monospace" font-weight="bold" text-anchor="end" transform="rotate(-60, 671.0714285714287, 512.4)">
sudoku
</text>
<rect x="681.1428571428571" y="478.0303750234169" width="6.714285714285714" height="19.969624976583003" fill="#7070f8" data-tooltip="1.00x baseline speed (No JIT)"/>
<line x1="681.1428571428571" y1="477.9720977804134" x2="687.8571428571429" y2="477.9720977804134" stroke="#000"/>
<line x1="681.1428571428571" y1="478.0886522664204" x2="687.8571428571429" y2="478.0886522664204" stroke="#000"/>
<line x1="684.5" y1="477.9720977804134" x2="684.5" y2="478.0886522664204" stroke="#000"/>
<rect x="687.8571428571429" y="458.94001588117123" width="6.714285714285714" height="39.059984118828694" fill="orange" data-tooltip="1.96x baseline speed (YJIT)"/>
<line x1="687.8571428571429" y1="458.82165279707556" x2="694.5714285714286" y2="458.82165279707556" stroke="#000"/>
<line x1="687.8571428571429" y1="459.05837896526697" x2="694.5714285714286" y2="459.05837896526697" stroke="#000"/>
<line x1="691.2142857142857" y1="458.82165279707556" x2="691.2142857142857" y2="459.05837896526697" stroke="#000"/>
<line x1="691.2142857142858" y1="498.0" x2="691.2142857142858" y2="502.79999999999995" stroke="#000"/>
<text x="691.2142857142858" y="512.4" fill="#111" font-size="small" font-family="monospace" font-weight="bold" text-anchor="end" transform="rotate(-60, 691.2142857142858, 512.4)">
tinygql
</text>
<rect x="701.2857142857143" y="478.0303750234169" width="6.714285714285714" height="19.969624976583003" fill="#7070f8" data-tooltip="1.00x baseline speed (No JIT)"/>
<line x1="701.2857142857143" y1="478.01750243161496" x2="708.0" y2="478.01750243161496" stroke="#000"/>
<line x1="701.2857142857143" y1="478.04324761521883" x2="708.0" y2="478.04324761521883" stroke="#000"/>
<line x1="704.6428571428571" y1="478.01750243161496" x2="704.6428571428571" y2="478.04324761521883" stroke="#000"/>
<rect x="708.0" y="415.1278593412868" width="6.714285714285714" height="82.87214065871319" fill="orange" data-tooltip="4.15x baseline speed (YJIT)"/>
<line x1="708.0" y1="415.06428849794895" x2="714.7142857142857" y2="415.06428849794895" stroke="#000"/>
<line x1="708.0" y1="415.1914301846247" x2="714.7142857142857" y2="415.1914301846247" stroke="#000"/>
<line x1="711.3571428571428" y1="415.06428849794895" x2="711.3571428571428" y2="415.1914301846247" stroke="#000"/>
<line x1="711.3571428571429" y1="498.0" x2="711.3571428571429" y2="502.79999999999995" stroke="#000"/>
<text x="711.3571428571429" y="512.4" fill="#111" font-size="small" font-family="monospace" font-weight="bold" text-anchor="end" transform="rotate(-60, 711.3571428571429, 512.4)">
30k_ifelse
</text>
<rect x="721.4285714285714" y="478.0303750234169" width="6.714285714285714" height="19.969624976583003" fill="#7070f8" data-tooltip="1.00x baseline speed (No JIT)"/>
<line x1="721.4285714285714" y1="478.0177380643116" x2="728.1428571428571" y2="478.0177380643116" stroke="#000"/>
<line x1="721.4285714285714" y1="478.0430119825222" x2="728.1428571428571" y2="478.0430119825222" stroke="#000"/>
<line x1="724.7857142857142" y1="478.0177380643116" x2="724.7857142857142" y2="478.0430119825222" stroke="#000"/>
<rect x="728.1428571428571" y="380.65662598162737" width="6.714285714285714" height="117.34337401837264" fill="orange" data-tooltip="5.88x baseline speed (YJIT)"/>
<line x1="728.1428571428571" y1="380.514703356889" x2="734.8571428571428" y2="380.514703356889" stroke="#000"/>
<line x1="728.1428571428571" y1="380.79854860636567" x2="734.8571428571428" y2="380.79854860636567" stroke="#000"/>
<line x1="731.4999999999999" y1="380.514703356889" x2="731.4999999999999" y2="380.79854860636567" stroke="#000"/>
<line x1="731.5" y1="498.0" x2="731.5" y2="502.79999999999995" stroke="#000"/>
<text x="731.5" y="512.4" fill="#111" font-size="small" font-family="monospace" font-weight="bold" text-anchor="end" transform="rotate(-60, 731.5, 512.4)">
30k_methods
</text>
<rect x="741.5714285714286" y="478.0303750234169" width="6.714285714285714" height="19.969624976583003" fill="#7070f8" data-tooltip="1.00x baseline speed (No JIT)"/>
<line x1="741.5714285714286" y1="477.96513460843886" x2="748.2857142857142" y2="477.96513460843886" stroke="#000"/>
<line x1="741.5714285714286" y1="478.09561543839493" x2="748.2857142857142" y2="478.09561543839493" stroke="#000"/>
<line x1="744.9285714285713" y1="477.96513460843886" x2="744.9285714285713" y2="478.09561543839493" stroke="#000"/>
<rect x="748.2857142857142" y="381.373021997878" width="6.714285714285714" height="116.62697800212189" fill="orange" data-tooltip="5.84x baseline speed (YJIT)"/>
<line x1="748.2857142857142" y1="380.9914333355371" x2="754.9999999999999" y2="380.9914333355371" stroke="#000"/>
<line x1="748.2857142857142" y1="381.75461066021893" x2="754.9999999999999" y2="381.75461066021893" stroke="#000"/>
<line x1="751.6428571428571" y1="380.9914333355371" x2="751.6428571428571" y2="381.75461066021893" stroke="#000"/>
<line x1="751.6428571428572" y1="498.0" x2="751.6428571428572" y2="502.79999999999995" stroke="#000"/>
<text x="751.6428571428572" y="512.4" fill="#111" font-size="small" font-family="monospace" font-weight="bold" text-anchor="end" transform="rotate(-60, 751.6428571428572, 512.4)">
cfunc_itself
</text>
<rect x="761.7142857142857" y="478.0303750234169" width="6.714285714285714" height="19.969624976583003" fill="#7070f8" data-tooltip="1.00x baseline speed (No JIT)"/>
<line x1="761.7142857142857" y1="477.55843747239936" x2="768.4285714285713" y2="477.55843747239936" stroke="#000"/>
<line x1="761.7142857142857" y1="478.5023125744344" x2="768.4285714285713" y2="478.5023125744344" stroke="#000"/>
<line x1="765.0714285714286" y1="477.55843747239936" x2="765.0714285714286" y2="478.5023125744344" stroke="#000"/>
<rect x="768.4285714285713" y="410.33445682210834" width="6.714285714285714" height="87.66554317789156" fill="orange" data-tooltip="4.39x baseline speed (YJIT)"/>
<line x1="768.4285714285713" y1="408.262665397639" x2="775.142857142857" y2="408.262665397639" stroke="#000"/>
<line x1="768.4285714285713" y1="412.40624824657766" x2="775.142857142857" y2="412.40624824657766" stroke="#000"/>
<line x1="771.7857142857142" y1="408.262665397639" x2="771.7857142857142" y2="412.40624824657766" stroke="#000"/>
<line x1="771.7857142857143" y1="498.0" x2="771.7857142857143" y2="502.79999999999995" stroke="#000"/>
<text x="771.7857142857143" y="512.4" fill="#111" font-size="small" font-family="monospace" font-weight="bold" text-anchor="end" transform="rotate(-60, 771.7857142857143, 512.4)">
fib
</text>
<rect x="781.8571428571428" y="478.0303750234169" width="6.714285714285714" height="19.969624976583003" fill="#7070f8" data-tooltip="1.00x baseline speed (No JIT)"/>
<line x1="781.8571428571428" y1="477.93987023086686" x2="788.5714285714284" y2="477.93987023086686" stroke="#000"/>
<line x1="781.8571428571428" y1="478.12087981596693" x2="788.5714285714284" y2="478.12087981596693" stroke="#000"/>
<line x1="785.2142857142857" y1="477.93987023086686" x2="785.2142857142857" y2="478.12087981596693" stroke="#000"/>
<rect x="788.5714285714284" y="374.38418903989674" width="6.714285714285714" height="123.61581096010313" fill="orange" data-tooltip="6.19x baseline speed (YJIT)"/>
<line x1="788.5714285714284" y1="373.823597827497" x2="795.2857142857141" y2="373.823597827497" stroke="#000"/>
<line x1="788.5714285714284" y1="374.94478025229654" x2="795.2857142857141" y2="374.94478025229654" stroke="#000"/>
<line x1="791.9285714285713" y1="373.823597827497" x2="791.9285714285713" y2="374.94478025229654" stroke="#000"/>
<line x1="791.9285714285714" y1="498.0" x2="791.9285714285714" y2="502.79999999999995" stroke="#000"/>
<text x="791.9285714285714" y="512.4" fill="#111" font-size="small" font-family="monospace" font-weight="bold" text-anchor="end" transform="rotate(-60, 791.9285714285714, 512.4)">
getivar
</text>
<rect x="801.9999999999999" y="478.0303750234169" width="6.714285714285714" height="19.969624976583003" fill="#7070f8" data-tooltip="1.00x baseline speed (No JIT)"/>
<line x1="801.9999999999999" y1="478.0221466223949" x2="808.7142857142856" y2="478.0221466223949" stroke="#000"/>
<line x1="801.9999999999999" y1="478.03860342443886" x2="808.7142857142856" y2="478.03860342443886" stroke="#000"/>
<line x1="805.3571428571428" y1="478.0221466223949" x2="805.3571428571428" y2="478.03860342443886" stroke="#000"/>
<rect x="808.7142857142856" y="336.2674124655431" width="6.714285714285714" height="161.73258753445683" fill="orange" data-tooltip="8.10x baseline speed (YJIT)"/>
<line x1="808.7142857142856" y1="336.19879659268463" x2="815.4285714285713" y2="336.19879659268463" stroke="#000"/>
<line x1="808.7142857142856" y1="336.3360283384016" x2="815.4285714285713" y2="336.3360283384016" stroke="#000"/>
<line x1="812.0714285714284" y1="336.19879659268463" x2="812.0714285714284" y2="336.3360283384016" stroke="#000"/>
<line x1="812.0714285714286" y1="498.0" x2="812.0714285714286" y2="502.79999999999995" stroke="#000"/>
<text x="812.0714285714286" y="512.4" fill="#111" font-size="small" font-family="monospace" font-weight="bold" text-anchor="end" transform="rotate(-60, 812.0714285714286, 512.4)">
keyword_args
</text>
<rect x="822.1428571428571" y="478.0303750234169" width="6.714285714285714" height="19.969624976583003" fill="#7070f8" data-tooltip="1.00x baseline speed (No JIT)"/>
<line x1="822.1428571428571" y1="477.8230011730438" x2="828.8571428571428" y2="477.8230011730438" stroke="#000"/>
<line x1="822.1428571428571" y1="478.23774887379" x2="828.8571428571428" y2="478.23774887379" stroke="#000"/>
<line x1="825.4999999999999" y1="477.8230011730438" x2="825.4999999999999" y2="478.23774887379" stroke="#000"/>
<rect x="828.8571428571428" y="100.19999999999999" width="6.714285714285714" height="397.79999999999995" fill="orange" data-tooltip="19.92x baseline speed (YJIT)"/>
<line x1="828.8571428571428" y1="96.06824582006944" x2="835.5714285714284" y2="96.06824582006944" stroke="#000"/>
<line x1="828.8571428571428" y1="104.33175417993054" x2="835.5714285714284" y2="104.33175417993054" stroke="#000"/>
<line x1="832.2142857142856" y1="96.06824582006944" x2="832.2142857142856" y2="104.33175417993054" stroke="#000"/>
<line x1="832.2142857142857" y1="498.0" x2="832.2142857142857" y2="502.79999999999995" stroke="#000"/>
<text x="832.2142857142857" y="512.4" fill="#111" font-size="small" font-family="monospace" font-weight="bold" text-anchor="end" transform="rotate(-60, 832.2142857142857, 512.4)">
respond_to
</text>
<rect x="842.2857142857143" y="478.0303750234169" width="6.714285714285714" height="19.969624976583003" fill="#7070f8" data-tooltip="1.00x baseline speed (No JIT)"/>
<line x1="842.2857142857143" y1="478.0018622950821" x2="849.0" y2="478.0018622950821" stroke="#000"/>
<line x1="842.2857142857143" y1="478.0588877517517" x2="849.0" y2="478.0588877517517" stroke="#000"/>
<line x1="845.6428571428571" y1="478.0018622950821" x2="845.6428571428571" y2="478.0588877517517" stroke="#000"/>
<rect x="849.0" y="375.31373863842816" width="6.714285714285714" height="122.68626136157181" fill="orange" data-tooltip="6.14x baseline speed (YJIT)"/>
<line x1="849.0" y1="375.13648779255186" x2="855.7142857142857" y2="375.13648779255186" stroke="#000"/>
<line x1="849.0" y1="375.49098948430446" x2="855.7142857142857" y2="375.49098948430446" stroke="#000"/>
<line x1="852.3571428571428" y1="375.13648779255186" x2="852.3571428571428" y2="375.49098948430446" stroke="#000"/>
<line x1="852.3571428571429" y1="498.0" x2="852.3571428571429" y2="502.79999999999995" stroke="#000"/>
<text x="852.3571428571429" y="512.4" fill="#111" font-size="small" font-family="monospace" font-weight="bold" text-anchor="end" transform="rotate(-60, 852.3571428571429, 512.4)">
setivar
</text>
<rect x="862.4285714285714" y="478.0303750234169" width="6.714285714285714" height="19.969624976583003" fill="#7070f8" data-tooltip="1.00x baseline speed (No JIT)"/>
<line x1="862.4285714285714" y1="477.98178128976633" x2="869.1428571428571" y2="477.98178128976633" stroke="#000"/>
<line x1="862.4285714285714" y1="478.07896875706746" x2="869.1428571428571" y2="478.07896875706746" stroke="#000"/>
<line x1="865.7857142857142" y1="477.98178128976633" x2="865.7857142857142" y2="478.07896875706746" stroke="#000"/>
<rect x="869.1428571428571" y="444.45021971520737" width="6.714285714285714" height="53.5497802847926" fill="orange" data-tooltip="2.68x baseline speed (YJIT)"/>
<line x1="869.1428571428571" y1="444.3197824342161" x2="875.8571428571428" y2="444.3197824342161" stroke="#000"/>
<line x1="869.1428571428571" y1="444.5806569961986" x2="875.8571428571428" y2="444.5806569961986" stroke="#000"/>
<line x1="872.4999999999999" y1="444.3197824342161" x2="872.4999999999999" y2="444.5806569961986" stroke="#000"/>
<line x1="872.5" y1="498.0" x2="872.5" y2="502.79999999999995" stroke="#000"/>
<text x="872.5" y="512.4" fill="#111" font-size="small" font-family="monospace" font-weight="bold" text-anchor="end" transform="rotate(-60, 872.5, 512.4)">
setivar_object
</text>
<rect x="882.5714285714286" y="478.0303750234169" width="6.714285714285714" height="19.969624976583003" fill="#7070f8" data-tooltip="1.00x baseline speed (No JIT)"/>
<line x1="882.5714285714286" y1="477.8417055075352" x2="889.2857142857142" y2="477.8417055075352" stroke="#000"/>
<line x1="882.5714285714286" y1="478.2190445392986" x2="889.2857142857142" y2="478.2190445392986" stroke="#000"/>
<line x1="885.9285714285714" y1="477.8417055075352" x2="885.9285714285714" y2="478.2190445392986" stroke="#000"/>
<rect x="889.2857142857142" y="444.04162204067165" width="6.714285714285714" height="53.95837795932832" fill="orange" data-tooltip="2.70x baseline speed (YJIT)"/>
<line x1="889.2857142857142" y1="443.5318069486612" x2="895.9999999999999" y2="443.5318069486612" stroke="#000"/>
<line x1="889.2857142857142" y1="444.55143713268205" x2="895.9999999999999" y2="444.55143713268205" stroke="#000"/>
<line x1="892.6428571428571" y1="443.5318069486612" x2="892.6428571428571" y2="444.55143713268205" stroke="#000"/>
<line x1="892.6428571428572" y1="498.0" x2="892.6428571428572" y2="502.79999999999995" stroke="#000"/>
<text x="892.6428571428572" y="512.4" fill="#111" font-size="small" font-family="monospace" font-weight="bold" text-anchor="end" transform="rotate(-60, 892.6428571428572, 512.4)">
setivar_young
</text>
<rect x="902.7142857142857" y="478.0303750234169" width="6.714285714285714" height="19.969624976583003" fill="#7070f8" data-tooltip="1.00x baseline speed (No JIT)"/>
<line x1="902.7142857142857" y1="477.77968642786453" x2="909.4285714285713" y2="477.77968642786453" stroke="#000"/>
<line x1="902.7142857142857" y1="478.28106361896926" x2="909.4285714285713" y2="478.28106361896926" stroke="#000"/>
<line x1="906.0714285714286" y1="477.77968642786453" x2="906.0714285714286" y2="478.28106361896926" stroke="#000"/>
<rect x="909.4285714285713" y="453.53865121355534" width="6.714285714285714" height="44.46134878644462" fill="orange" data-tooltip="2.23x baseline speed (YJIT)"/>
<line x1="909.4285714285713" y1="452.9716904508479" x2="916.142857142857" y2="452.9716904508479" stroke="#000"/>
<line x1="909.4285714285713" y1="454.10561197626276" x2="916.142857142857" y2="454.10561197626276" stroke="#000"/>
<line x1="912.7857142857142" y1="452.9716904508479" x2="912.7857142857142" y2="454.10561197626276" stroke="#000"/>
<line x1="912.7857142857143" y1="498.0" x2="912.7857142857143" y2="502.79999999999995" stroke="#000"/>
<text x="912.7857142857143" y="512.4" fill="#111" font-size="small" font-family="monospace" font-weight="bold" text-anchor="end" transform="rotate(-60, 912.7857142857143, 512.4)">
str_concat
</text>
<rect x="922.8571428571428" y="478.0303750234169" width="6.714285714285714" height="19.969624976583003" fill="#7070f8" data-tooltip="1.00x baseline speed (No JIT)"/>
<line x1="922.8571428571428" y1="477.9885132899657" x2="929.5714285714284" y2="477.9885132899657" stroke="#000"/>
<line x1="922.8571428571428" y1="478.0722367568681" x2="929.5714285714284" y2="478.0722367568681" stroke="#000"/>
<line x1="926.2142857142857" y1="477.9885132899657" x2="926.2142857142857" y2="478.0722367568681" stroke="#000"/>
<rect x="929.5714285714284" y="469.8396903959349" width="6.714285714285714" height="28.16030960406508" fill="orange" data-tooltip="1.41x baseline speed (YJIT)"/>
<line x1="929.5714285714284" y1="469.7479189799482" x2="936.2857142857142" y2="469.7479189799482" stroke="#000"/>
<line x1="929.5714285714284" y1="469.93146181192157" x2="936.2857142857142" y2="469.93146181192157" stroke="#000"/>
<line x1="932.9285714285713" y1="469.7479189799482" x2="932.9285714285713" y2="469.93146181192157" stroke="#000"/>
<line x1="932.9285714285714" y1="498.0" x2="932.9285714285714" y2="502.79999999999995" stroke="#000"/>
<text x="932.9285714285714" y="512.4" fill="#111" font-size="small" font-family="monospace" font-weight="bold" text-anchor="end" transform="rotate(-60, 932.9285714285714, 512.4)">
throw
</text>
</svg>