<svg viewBox="0 0 1000 600" xmlns="http://www.w3.org/2000/svg" xmlns:xlink="http://www.w3.org/1999/xlink" width="100%" height="100%">

<rect x="50.0" y="30.0" width="940.0" height="467.99999999999994" stroke="#000" fill="#fff"/>
<line x1="42.0" y1="497.9999999999999" x2="50.0" y2="497.9999999999999" stroke="#000"/>
<text x="26.000000000000004" y="497.9999999999999" text-anchor="end" font-weight="bold" font-size="small" fill="#111">
0.0
</text>
<line x1="42.0" y1="431.511596752368" x2="50.0" y2="431.511596752368" stroke="#000"/>
<text x="26.000000000000004" y="431.511596752368" text-anchor="end" font-weight="bold" font-size="small" fill="#111">
0.2
</text>
<line x1="42.0" y1="365.02319350473607" x2="50.0" y2="365.02319350473607" stroke="#000"/>
<text x="26.000000000000004" y="365.02319350473607" text-anchor="end" font-weight="bold" font-size="small" fill="#111">
0.4
</text>
<line x1="42.0" y1="298.53479025710413" x2="50.0" y2="298.53479025710413" stroke="#000"/>
<text x="26.000000000000004" y="298.53479025710413" text-anchor="end" font-weight="bold" font-size="small" fill="#111">
0.6
</text>
<line x1="42.0" y1="232.04638700947223" x2="50.0" y2="232.04638700947223" stroke="#000"/>
<text x="26.000000000000004" y="232.04638700947223" text-anchor="end" font-weight="bold" font-size="small" fill="#111">
0.8
</text>
<line x1="42.0" y1="165.55798376184032" x2="50.0" y2="165.55798376184032" stroke="#000"/>
<text x="26.000000000000004" y="165.55798376184032" text-anchor="end" font-weight="bold" font-size="small" fill="#111">
1.0
</text>
<line x1="142.75" y1="54.60000000000001" x2="262.75" y2="54.60000000000001" stroke="#648FFF" stroke-width="2"/>
<text x="202.75" y="49.500000000000014" font-size="small" text-anchor="middle" font-weight="bold" fill="#000">
CRuby 3.3.1
</text>
<rect x="354.25" y="35.400000000000006" width="120.0" height="19.2" fill="#785EF0" stroke="none"/>
<text x="414.25" y="49.500000000000014" font-size="small" text-anchor="middle" font-weight="bold" fill="#fff" style="text-shadow: 0 0 1px #000;">
CRuby 3.4.0dev
</text>
<rect x="565.75" y="35.400000000000006" width="120.0" height="19.2" fill="#FFB000" stroke="none"/>
<text x="625.7499999999999" y="49.500000000000014" font-size="small" text-anchor="middle" font-weight="bold" fill="#fff" style="text-shadow: 0 0 1px #000;">
YJIT 3.3.1
</text>
<rect x="777.25" y="35.400000000000006" width="120.0" height="19.2" fill="#DC267F" stroke="none"/>
<text x="837.2499999999999" y="49.500000000000014" font-size="small" text-anchor="middle" font-weight="bold" fill="#fff" style="text-shadow: 0 0 1px #000;">
YJIT 3.4.0dev
</text>
<rect x="61.60493827160494" y="175.7869688768606" width="11.604938271604937" height="322.2130311231394" fill="#785EF0" data-tooltip="0.97x baseline (CRuby 3.4.0dev)"/>
<rect x="73.20987654320987" y="186.91851150202976" width="11.604938271604937" height="311.0814884979702" fill="#FFB000" data-tooltip="0.94x baseline (YJIT 3.3.1)"/>
<rect x="84.81481481481481" y="173.78128552097425" width="11.604938271604937" height="324.21871447902566" fill="#DC267F" data-tooltip="0.98x baseline (YJIT 3.4.0dev)"/>
<line x1="79.01234567901236" y1="498.0" x2="79.01234567901236" y2="502.79999999999995" stroke="#000"/>
<text x="79.01234567901236" y="512.4" fill="#111" font-size="small" text-anchor="end" transform="rotate(-60, 79.01234567901236, 512.4)">
binarytrees
</text>
<rect x="108.0246913580247" y="150.93530979804336" width="11.604938271604937" height="347.06469020195664" fill="#785EF0" data-tooltip="1.04x baseline (CRuby 3.4.0dev)"/>
<rect x="119.62962962962965" y="161.4994456820926" width="11.604938271604937" height="336.50055431790736" fill="#FFB000" data-tooltip="1.01x baseline (YJIT 3.3.1)"/>
<rect x="131.23456790123458" y="145.74276843130724" width="11.604938271604937" height="352.2572315686927" fill="#DC267F" data-tooltip="1.06x baseline (YJIT 3.4.0dev)"/>
<line x1="125.43209876543213" y1="498.0" x2="125.43209876543213" y2="502.79999999999995" stroke="#000"/>
<text x="125.43209876543213" y="512.4" fill="#111" font-size="small" text-anchor="end" transform="rotate(-60, 125.43209876543213, 512.4)">
blurhash
</text>
<rect x="154.44444444444446" y="153.11410384137633" width="11.604938271604937" height="344.8858961586236" fill="#785EF0" data-tooltip="1.04x baseline (CRuby 3.4.0dev)"/>
<rect x="166.04938271604942" y="146.47146331443835" width="11.604938271604937" height="351.52853668556156" fill="#FFB000" data-tooltip="1.06x baseline (YJIT 3.3.1)"/>
<rect x="177.65432098765436" y="128.0049226495505" width="11.604938271604937" height="369.99507735044944" fill="#DC267F" data-tooltip="1.11x baseline (YJIT 3.4.0dev)"/>
<line x1="171.8518518518519" y1="498.0" x2="171.8518518518519" y2="502.79999999999995" stroke="#000"/>
<text x="171.8518518518519" y="512.4" fill="#111" font-size="small" text-anchor="end" transform="rotate(-60, 171.8518518518519, 512.4)">
erubi
</text>
<rect x="200.86419753086423" y="142.13011485720938" width="11.604938271604937" height="355.86988514279057" fill="#785EF0" data-tooltip="1.07x baseline (CRuby 3.4.0dev)"/>
<rect x="212.46913580246917" y="163.1651135411773" width="11.604938271604937" height="334.83488645882267" fill="#FFB000" data-tooltip="1.01x baseline (YJIT 3.3.1)"/>
<rect x="224.07407407407413" y="139.51465205788003" width="11.604938271604937" height="358.4853479421199" fill="#DC267F" data-tooltip="1.08x baseline (YJIT 3.4.0dev)"/>
<line x1="218.27160493827165" y1="498.0" x2="218.27160493827165" y2="502.79999999999995" stroke="#000"/>
<text x="218.27160493827165" y="512.4" fill="#111" font-size="small" text-anchor="end" transform="rotate(-60, 218.27160493827165, 512.4)">
etanni
</text>
<rect x="247.283950617284" y="147.95962355139676" width="11.604938271604937" height="350.0403764486032" fill="#785EF0" data-tooltip="1.05x baseline (CRuby 3.4.0dev)"/>
<rect x="258.88888888888897" y="161.8327834253231" width="11.604938271604937" height="336.16721657467684" fill="#FFB000" data-tooltip="1.01x baseline (YJIT 3.3.1)"/>
<rect x="270.4938271604939" y="142.7571885986744" width="11.604938271604937" height="355.2428114013256" fill="#DC267F" data-tooltip="1.07x baseline (YJIT 3.4.0dev)"/>
<line x1="264.69135802469134" y1="498.0" x2="264.69135802469134" y2="502.79999999999995" stroke="#000"/>
<text x="264.69135802469134" y="512.4" fill="#111" font-size="small" text-anchor="end" transform="rotate(-60, 264.69135802469134, 512.4)">
fannkuchredux
</text>
<rect x="293.7037037037037" y="164.1784585354617" width="11.604938271604937" height="333.8215414645382" fill="#785EF0" data-tooltip="1.00x baseline (CRuby 3.4.0dev)"/>
<rect x="305.3086419753086" y="164.23415365329686" width="11.604938271604937" height="333.7658463467031" fill="#FFB000" data-tooltip="1.00x baseline (YJIT 3.3.1)"/>
<rect x="316.9135802469135" y="136.1980881830435" width="11.604938271604937" height="361.8019118169564" fill="#DC267F" data-tooltip="1.09x baseline (YJIT 3.4.0dev)"/>
<line x1="311.11111111111103" y1="498.0" x2="311.11111111111103" y2="502.79999999999995" stroke="#000"/>
<text x="311.11111111111103" y="512.4" fill="#111" font-size="small" text-anchor="end" transform="rotate(-60, 311.11111111111103, 512.4)">
fluentd
</text>
<rect x="340.1234567901233" y="158.79997561313652" width="11.604938271604937" height="339.2000243868634" fill="#785EF0" data-tooltip="1.02x baseline (CRuby 3.4.0dev)"/>
<rect x="351.72839506172824" y="144.9915455016023" width="11.604938271604937" height="353.00845449839767" fill="#FFB000" data-tooltip="1.06x baseline (YJIT 3.3.1)"/>
<rect x="363.3333333333332" y="134.59460988821186" width="11.604938271604937" height="363.40539011178805" fill="#DC267F" data-tooltip="1.09x baseline (YJIT 3.4.0dev)"/>
<line x1="357.53086419753066" y1="498.0" x2="357.53086419753066" y2="502.79999999999995" stroke="#000"/>
<text x="357.53086419753066" y="512.4" fill="#111" font-size="small" text-anchor="end" transform="rotate(-60, 357.53086419753066, 512.4)">
graphql
</text>
<rect x="386.543209876543" y="145.21498183156268" width="11.604938271604937" height="352.7850181684373" fill="#785EF0" data-tooltip="1.06x baseline (CRuby 3.4.0dev)"/>
<rect x="398.1481481481479" y="143.5197316707062" width="11.604938271604937" height="354.4802683292938" fill="#FFB000" data-tooltip="1.07x baseline (YJIT 3.3.1)"/>
<rect x="409.75308641975283" y="120.96252544869766" width="11.604938271604937" height="377.0374745513023" fill="#DC267F" data-tooltip="1.13x baseline (YJIT 3.4.0dev)"/>
<line x1="403.9506172839503" y1="498.0" x2="403.9506172839503" y2="502.79999999999995" stroke="#000"/>
<text x="403.9506172839503" y="512.4" fill="#111" font-size="small" text-anchor="end" transform="rotate(-60, 403.9506172839503, 512.4)">
graphql-native
</text>
<rect x="432.96296296296265" y="164.06403020049592" width="11.604938271604937" height="333.93596979950405" fill="#785EF0" data-tooltip="1.00x baseline (CRuby 3.4.0dev)"/>
<rect x="444.56790123456756" y="147.219703796338" width="11.604938271604937" height="350.7802962036619" fill="#FFB000" data-tooltip="1.06x baseline (YJIT 3.3.1)"/>
<rect x="456.17283950617247" y="154.0171925004549" width="11.604938271604937" height="343.982807499545" fill="#DC267F" data-tooltip="1.03x baseline (YJIT 3.4.0dev)"/>
<line x1="450.37037037037" y1="498.0" x2="450.37037037037" y2="502.79999999999995" stroke="#000"/>
<text x="450.37037037037" y="512.4" fill="#111" font-size="small" text-anchor="end" transform="rotate(-60, 450.37037037037, 512.4)">
lee
</text>
<rect x="479.38271604938234" y="178.02555518318513" width="11.604938271604937" height="319.9744448168148" fill="#785EF0" data-tooltip="0.96x baseline (CRuby 3.4.0dev)"/>
<rect x="490.98765432098725" y="163.36719645138038" width="11.604938271604937" height="334.63280354861956" fill="#FFB000" data-tooltip="1.01x baseline (YJIT 3.3.1)"/>
<rect x="502.59259259259215" y="176.51192031414013" width="11.604938271604937" height="321.4880796858599" fill="#DC267F" data-tooltip="0.97x baseline (YJIT 3.4.0dev)"/>
<line x1="496.7901234567896" y1="498.0" x2="496.7901234567896" y2="502.79999999999995" stroke="#000"/>
<text x="496.7901234567896" y="512.4" fill="#111" font-size="small" text-anchor="end" transform="rotate(-60, 496.7901234567896, 512.4)">
matmul
</text>
<rect x="525.802469135802" y="147.58120420473628" width="11.604938271604937" height="350.41879579526363" fill="#785EF0" data-tooltip="1.05x baseline (CRuby 3.4.0dev)"/>
<rect x="537.4074074074069" y="160.87118052016675" width="11.604938271604937" height="337.1288194798332" fill="#FFB000" data-tooltip="1.01x baseline (YJIT 3.3.1)"/>
<rect x="549.0123456790118" y="143.98584829331548" width="11.604938271604937" height="354.0141517066844" fill="#DC267F" data-tooltip="1.06x baseline (YJIT 3.4.0dev)"/>
<line x1="543.2098765432092" y1="498.0" x2="543.2098765432092" y2="502.79999999999995" stroke="#000"/>
<text x="543.2098765432092" y="512.4" fill="#111" font-size="small" text-anchor="end" transform="rotate(-60, 543.2098765432092, 512.4)">
nbody
</text>
<rect x="572.2222222222216" y="141.99910072134082" width="11.604938271604937" height="356.0008992786592" fill="#785EF0" data-tooltip="1.07x baseline (CRuby 3.4.0dev)"/>
<rect x="583.8271604938266" y="161.98265191829566" width="11.604938271604937" height="336.01734808170426" fill="#FFB000" data-tooltip="1.01x baseline (YJIT 3.3.1)"/>
<rect x="595.4320987654314" y="126.86778559776793" width="11.604938271604937" height="371.132214402232" fill="#DC267F" data-tooltip="1.12x baseline (YJIT 3.4.0dev)"/>
<line x1="589.629629629629" y1="498.0" x2="589.629629629629" y2="502.79999999999995" stroke="#000"/>
<text x="589.629629629629" y="512.4" fill="#111" font-size="small" text-anchor="end" transform="rotate(-60, 589.629629629629, 512.4)">
nqueens
</text>
<rect x="618.6419753086412" y="139.20225985253745" width="11.604938271604937" height="358.7977401474625" fill="#785EF0" data-tooltip="1.08x baseline (CRuby 3.4.0dev)"/>
<rect x="630.2469135802462" y="159.2598215953374" width="11.604938271604937" height="338.7401784046626" fill="#FFB000" data-tooltip="1.02x baseline (YJIT 3.3.1)"/>
<rect x="641.8518518518512" y="105.53891224481829" width="11.604938271604937" height="392.46108775518167" fill="#DC267F" data-tooltip="1.18x baseline (YJIT 3.4.0dev)"/>
<line x1="636.0493827160486" y1="498.0" x2="636.0493827160486" y2="502.79999999999995" stroke="#000"/>
<text x="636.0493827160486" y="512.4" fill="#111" font-size="small" text-anchor="end" transform="rotate(-60, 636.0493827160486, 512.4)">
optcarrot
</text>
<rect x="665.061728395061" y="109.30615696887683" width="11.604938271604937" height="388.6938430311231" fill="#785EF0" data-tooltip="1.17x baseline (CRuby 3.4.0dev)"/>
<rect x="676.6666666666658" y="155.06123139377536" width="11.604938271604937" height="342.9387686062246" fill="#FFB000" data-tooltip="1.03x baseline (YJIT 3.3.1)"/>
<rect x="688.2716049382708" y="100.19999999999999" width="11.604938271604937" height="397.79999999999995" fill="#DC267F" data-tooltip="1.20x baseline (YJIT 3.4.0dev)"/>
<line x1="682.4691358024683" y1="498.0" x2="682.4691358024683" y2="502.79999999999995" stroke="#000"/>
<text x="682.4691358024683" y="512.4" fill="#111" font-size="small" text-anchor="end" transform="rotate(-60, 682.4691358024683, 512.4)">
protoboeuf
</text>
<rect x="711.4814814814806" y="148.60314422400225" width="11.604938271604937" height="349.3968557759977" fill="#785EF0" data-tooltip="1.05x baseline (CRuby 3.4.0dev)"/>
<rect x="723.0864197530855" y="144.83069242683328" width="11.604938271604937" height="353.1693075731667" fill="#FFB000" data-tooltip="1.06x baseline (YJIT 3.3.1)"/>
<rect x="734.6913580246904" y="126.5618528248128" width="11.604938271604937" height="371.43814717518717" fill="#DC267F" data-tooltip="1.12x baseline (YJIT 3.4.0dev)"/>
<line x1="728.8888888888879" y1="498.0" x2="728.8888888888879" y2="502.79999999999995" stroke="#000"/>
<text x="728.8888888888879" y="512.4" fill="#111" font-size="small" text-anchor="end" transform="rotate(-60, 728.8888888888879, 512.4)">
rack
</text>
<rect x="757.9012345679002" y="146.934817576731" width="11.604938271604937" height="351.06518242326894" fill="#785EF0" data-tooltip="1.06x baseline (CRuby 3.4.0dev)"/>
<rect x="769.5061728395052" y="161.73468474370526" width="11.604938271604937" height="336.2653152562946" fill="#FFB000" data-tooltip="1.01x baseline (YJIT 3.3.1)"/>
<rect x="781.1111111111101" y="144.09817636972767" width="11.604938271604937" height="353.9018236302723" fill="#DC267F" data-tooltip="1.06x baseline (YJIT 3.4.0dev)"/>
<line x1="775.3086419753075" y1="498.0" x2="775.3086419753075" y2="502.79999999999995" stroke="#000"/>
<text x="775.3086419753075" y="512.4" fill="#111" font-size="small" text-anchor="end" transform="rotate(-60, 775.3086419753075, 512.4)">
ruby-json
</text>
<rect x="804.3209876543199" y="172.35063729819348" width="11.604938271604937" height="325.64936270180647" fill="#785EF0" data-tooltip="0.98x baseline (CRuby 3.4.0dev)"/>
<rect x="815.9259259259248" y="169.61765560192643" width="11.604938271604937" height="328.38234439807354" fill="#FFB000" data-tooltip="0.99x baseline (YJIT 3.3.1)"/>
<rect x="827.5308641975297" y="162.533130233933" width="11.604938271604937" height="335.4668697660669" fill="#DC267F" data-tooltip="1.01x baseline (YJIT 3.4.0dev)"/>
<line x1="821.7283950617273" y1="498.0" x2="821.7283950617273" y2="502.79999999999995" stroke="#000"/>
<text x="821.7283950617273" y="512.4" fill="#111" font-size="small" text-anchor="end" transform="rotate(-60, 821.7283950617273, 512.4)">
rubykon
</text>
<rect x="850.7407407407396" y="147.95103376865902" width="11.604938271604937" height="350.04896623134096" fill="#785EF0" data-tooltip="1.05x baseline (CRuby 3.4.0dev)"/>
<rect x="862.3456790123445" y="159.85789203742908" width="11.604938271604937" height="338.1421079625709" fill="#FFB000" data-tooltip="1.02x baseline (YJIT 3.3.1)"/>
<rect x="873.9506172839494" y="142.31427639674132" width="11.604938271604937" height="355.6857236032586" fill="#DC267F" data-tooltip="1.07x baseline (YJIT 3.4.0dev)"/>
<line x1="868.1481481481469" y1="498.0" x2="868.1481481481469" y2="502.79999999999995" stroke="#000"/>
<text x="868.1481481481469" y="512.4" fill="#111" font-size="small" text-anchor="end" transform="rotate(-60, 868.1481481481469, 512.4)">
sudoku
</text>
<rect x="897.1604938271593" y="146.79221953657603" width="11.604938271604937" height="351.20778046342394" fill="#785EF0" data-tooltip="1.06x baseline (CRuby 3.4.0dev)"/>
<rect x="908.7654320987641" y="143.72652538096358" width="11.604938271604937" height="354.2734746190364" fill="#FFB000" data-tooltip="1.07x baseline (YJIT 3.3.1)"/>
<rect x="920.3703703703691" y="125.19301071294258" width="11.604938271604937" height="372.8069892870574" fill="#DC267F" data-tooltip="1.12x baseline (YJIT 3.4.0dev)"/>
<line x1="914.5679012345665" y1="498.0" x2="914.5679012345665" y2="502.79999999999995" stroke="#000"/>
<text x="914.5679012345665" y="512.4" fill="#111" font-size="small" text-anchor="end" transform="rotate(-60, 914.5679012345665, 512.4)">
tinygql
</text>
<rect x="943.5802469135789" y="151.95399442612015" width="11.604938271604937" height="346.04600557387977" fill="#785EF0" data-tooltip="1.04x baseline (CRuby 3.4.0dev)"/>
<rect x="955.1851851851839" y="158.07195388916193" width="11.604938271604937" height="339.928046110838" fill="#FFB000" data-tooltip="1.02x baseline (YJIT 3.3.1)"/>
<rect x="966.7901234567887" y="138.91190725397234" width="11.604938271604937" height="359.0880927460276" fill="#DC267F" data-tooltip="1.08x baseline (YJIT 3.4.0dev)"/>
<line x1="960.9876543209862" y1="498.0" x2="960.9876543209862" y2="502.79999999999995" stroke="#000"/>
<text x="960.9876543209862" y="512.4" fill="#111" font-size="small" text-anchor="end" transform="rotate(-60, 960.9876543209862, 512.4)" font-style="italic">
geomean*
</text>
<line x1="50.0" y1="165.55798376184032" x2="990.0" y2="165.55798376184032" stroke="#648FFF" stroke-width="2"/>
</svg>