<svg viewBox="0 0 1000 600" xmlns="http://www.w3.org/2000/svg" xmlns:xlink="http://www.w3.org/1999/xlink" width="100%" height="100%">

<rect x="50.0" y="30.0" width="940.0" height="467.99999999999994" stroke="#000" fill="#EEE"/>
<line x1="42.0" y1="497.9999999999999" x2="50.0" y2="497.9999999999999" stroke="#000"/>
<text x="26.000000000000004" y="497.9999999999999" text-anchor="end" font-weight="bold" font-size="small" fill="#111">
0.0
</text>
<line x1="42.0" y1="414.75777385297994" x2="50.0" y2="414.75777385297994" stroke="#000"/>
<text x="26.000000000000004" y="414.75777385297994" text-anchor="end" font-weight="bold" font-size="small" fill="#111">
0.5
</text>
<line x1="42.0" y1="331.5155477059599" x2="50.0" y2="331.5155477059599" stroke="#000"/>
<text x="26.000000000000004" y="331.5155477059599" text-anchor="end" font-weight="bold" font-size="small" fill="#111">
1.0
</text>
<line x1="42.0" y1="248.27332155893987" x2="50.0" y2="248.27332155893987" stroke="#000"/>
<text x="26.000000000000004" y="248.27332155893987" text-anchor="end" font-weight="bold" font-size="small" fill="#111">
1.5
</text>
<line x1="42.0" y1="165.03109541191984" x2="50.0" y2="165.03109541191984" stroke="#000"/>
<text x="26.000000000000004" y="165.03109541191984" text-anchor="end" font-weight="bold" font-size="small" fill="#111">
2.0
</text>
<rect x="268.5" y="36.00000000000001" width="80.0" height="18.0" fill="#7070f8" stroke="#888"/>
<text x="308.5" y="52.50000000000001" font-size="small" text-anchor="middle" font-weight="bold" fill="#EEE">
No JIT
</text>
<rect x="691.4999999999999" y="36.00000000000001" width="80.0" height="18.0" fill="orange" stroke="#888"/>
<text x="731.4999999999999" y="52.50000000000001" font-size="small" text-anchor="middle" font-weight="bold" fill="#EEE">
YJIT
</text>
<rect x="97.0" y="331.5155477059599" width="21.69230769230769" height="166.48445229404007" fill="#7070f8" data-tooltip="1.00x baseline speed (No JIT)"/>
<line x1="97.0" y1="328.2737318551412" x2="118.6923076923077" y2="328.2737318551412" stroke="#000"/>
<line x1="97.0" y1="334.75736355677856" x2="118.6923076923077" y2="334.75736355677856" stroke="#000"/>
<line x1="107.84615384615384" y1="328.2737318551412" x2="107.84615384615384" y2="334.75736355677856" stroke="#000"/>
<rect x="118.6923076923077" y="160.02613976470687" width="21.69230769230769" height="337.9738602352931" fill="orange" data-tooltip="2.03x baseline speed (YJIT)"/>
<line x1="118.6923076923077" y1="144.07372504749543" x2="140.3846153846154" y2="144.07372504749543" stroke="#000"/>
<line x1="118.6923076923077" y1="175.9785544819183" x2="140.3846153846154" y2="175.9785544819183" stroke="#000"/>
<line x1="129.53846153846155" y1="144.07372504749543" x2="129.53846153846155" y2="175.9785544819183" stroke="#000"/>
<line x1="129.53846153846155" y1="498.0" x2="129.53846153846155" y2="502.79999999999995" stroke="#000"/>
<text x="129.53846153846155" y="512.4" fill="#111" font-size="small" font-family="monospace" font-weight="bold" text-anchor="end" transform="rotate(-60, 129.53846153846155, 512.4)">
activerecord
</text>
<rect x="162.07692307692307" y="331.5155477059599" width="21.69230769230769" height="166.48445229404007" fill="#7070f8" data-tooltip="1.00x baseline speed (No JIT)"/>
<line x1="162.07692307692307" y1="331.16459619330703" x2="183.76923076923075" y2="331.16459619330703" stroke="#000"/>
<line x1="162.07692307692307" y1="331.8664992186127" x2="183.76923076923075" y2="331.8664992186127" stroke="#000"/>
<line x1="172.9230769230769" y1="331.16459619330703" x2="172.9230769230769" y2="331.8664992186127" stroke="#000"/>
<rect x="183.76923076923075" y="214.81186711729046" width="21.69230769230769" height="283.18813288270945" fill="orange" data-tooltip="1.70x baseline speed (YJIT)"/>
<line x1="183.76923076923075" y1="213.49381207613263" x2="205.46153846153842" y2="213.49381207613263" stroke="#000"/>
<line x1="183.76923076923075" y1="216.1299221584483" x2="205.46153846153842" y2="216.1299221584483" stroke="#000"/>
<line x1="194.61538461538458" y1="213.49381207613263" x2="194.61538461538458" y2="216.1299221584483" stroke="#000"/>
<line x1="194.6153846153846" y1="498.0" x2="194.6153846153846" y2="502.79999999999995" stroke="#000"/>
<text x="194.6153846153846" y="512.4" fill="#111" font-size="small" font-family="monospace" font-weight="bold" text-anchor="end" transform="rotate(-60, 194.6153846153846, 512.4)">
chunky-png
</text>
<rect x="227.15384615384616" y="331.5155477059599" width="21.69230769230769" height="166.48445229404007" fill="#7070f8" data-tooltip="1.00x baseline speed (No JIT)"/>
<line x1="227.15384615384616" y1="330.38955476490946" x2="248.84615384615384" y2="330.38955476490946" stroke="#000"/>
<line x1="227.15384615384616" y1="332.6415406470103" x2="248.84615384615384" y2="332.6415406470103" stroke="#000"/>
<line x1="238.0" y1="330.38955476490946" x2="238.0" y2="332.6415406470103" stroke="#000"/>
<rect x="248.84615384615384" y="184.7556961752375" width="21.69230769230769" height="313.2443038247624" fill="orange" data-tooltip="1.88x baseline speed (YJIT)"/>
<line x1="248.84615384615384" y1="180.25064095320204" x2="270.5384615384615" y2="180.25064095320204" stroke="#000"/>
<line x1="248.84615384615384" y1="189.26075139727294" x2="270.5384615384615" y2="189.26075139727294" stroke="#000"/>
<line x1="259.6923076923077" y1="180.25064095320204" x2="259.6923076923077" y2="189.26075139727294" stroke="#000"/>
<line x1="259.6923076923077" y1="498.0" x2="259.6923076923077" y2="502.79999999999995" stroke="#000"/>
<text x="259.6923076923077" y="512.4" fill="#111" font-size="small" font-family="monospace" font-weight="bold" text-anchor="end" transform="rotate(-60, 259.6923076923077, 512.4)">
erubi-rails
</text>
<rect x="292.23076923076917" y="331.5155477059599" width="21.69230769230769" height="166.48445229404007" fill="#7070f8" data-tooltip="1.00x baseline speed (No JIT)"/>
<line x1="292.23076923076917" y1="329.8802010253383" x2="313.92307692307685" y2="329.8802010253383" stroke="#000"/>
<line x1="292.23076923076917" y1="333.15089438658146" x2="313.92307692307685" y2="333.15089438658146" stroke="#000"/>
<line x1="303.07692307692304" y1="329.8802010253383" x2="303.07692307692304" y2="333.15089438658146" stroke="#000"/>
<rect x="313.92307692307685" y="216.32188755758818" width="21.69230769230769" height="281.6781124424117" fill="orange" data-tooltip="1.69x baseline speed (YJIT)"/>
<line x1="313.92307692307685" y1="210.02477334819642" x2="335.6153846153845" y2="210.02477334819642" stroke="#000"/>
<line x1="313.92307692307685" y1="222.61900176697995" x2="335.6153846153845" y2="222.61900176697995" stroke="#000"/>
<line x1="324.7692307692307" y1="210.02477334819642" x2="324.7692307692307" y2="222.61900176697995" stroke="#000"/>
<line x1="324.7692307692307" y1="498.0" x2="324.7692307692307" y2="502.79999999999995" stroke="#000"/>
<text x="324.7692307692307" y="512.4" fill="#111" font-size="small" font-family="monospace" font-weight="bold" text-anchor="end" transform="rotate(-60, 324.7692307692307, 512.4)">
hexapdf
</text>
<rect x="357.3076923076923" y="331.5155477059599" width="21.69230769230769" height="166.48445229404007" fill="#7070f8" data-tooltip="1.00x baseline speed (No JIT)"/>
<line x1="357.3076923076923" y1="330.58591975499445" x2="379.0" y2="330.58591975499445" stroke="#000"/>
<line x1="357.3076923076923" y1="332.44517565692536" x2="379.0" y2="332.44517565692536" stroke="#000"/>
<line x1="368.1538461538462" y1="330.58591975499445" x2="368.1538461538462" y2="332.44517565692536" stroke="#000"/>
<rect x="379.0" y="263.67102355757083" width="21.69230769230769" height="234.3289764424291" fill="orange" data-tooltip="1.41x baseline speed (YJIT)"/>
<line x1="379.0" y1="261.36298259489394" x2="400.6923076923077" y2="261.36298259489394" stroke="#000"/>
<line x1="379.0" y1="265.97906452024773" x2="400.6923076923077" y2="265.97906452024773" stroke="#000"/>
<line x1="389.84615384615387" y1="261.36298259489394" x2="389.84615384615387" y2="265.97906452024773" stroke="#000"/>
<line x1="389.84615384615387" y1="498.0" x2="389.84615384615387" y2="502.79999999999995" stroke="#000"/>
<text x="389.84615384615387" y="512.4" fill="#111" font-size="small" font-family="monospace" font-weight="bold" text-anchor="end" transform="rotate(-60, 389.84615384615387, 512.4)">
liquid-c
</text>
<rect x="422.38461538461536" y="331.5155477059599" width="21.69230769230769" height="166.48445229404007" fill="#7070f8" data-tooltip="1.00x baseline speed (No JIT)"/>
<line x1="422.38461538461536" y1="326.4128191610196" x2="444.07692307692304" y2="326.4128191610196" stroke="#000"/>
<line x1="422.38461538461536" y1="336.6182762509001" x2="444.07692307692304" y2="336.6182762509001" stroke="#000"/>
<line x1="433.23076923076917" y1="326.4128191610196" x2="433.23076923076917" y2="336.6182762509001" stroke="#000"/>
<rect x="444.07692307692304" y="269.6992280540667" width="21.69230769230769" height="228.3007719459333" fill="orange" data-tooltip="1.37x baseline speed (YJIT)"/>
<line x1="444.07692307692304" y1="261.7875437965478" x2="465.7692307692307" y2="261.7875437965478" stroke="#000"/>
<line x1="444.07692307692304" y1="277.61091231158554" x2="465.7692307692307" y2="277.61091231158554" stroke="#000"/>
<line x1="454.92307692307685" y1="261.7875437965478" x2="454.92307692307685" y2="277.61091231158554" stroke="#000"/>
<line x1="454.92307692307685" y1="498.0" x2="454.92307692307685" y2="502.79999999999995" stroke="#000"/>
<text x="454.92307692307685" y="512.4" fill="#111" font-size="small" font-family="monospace" font-weight="bold" text-anchor="end" transform="rotate(-60, 454.92307692307685, 512.4)">
liquid-compile
</text>
<rect x="487.4615384615384" y="331.5155477059599" width="21.69230769230769" height="166.48445229404007" fill="#7070f8" data-tooltip="1.00x baseline speed (No JIT)"/>
<line x1="487.4615384615384" y1="331.1361902721911" x2="509.1538461538461" y2="331.1361902721911" stroke="#000"/>
<line x1="487.4615384615384" y1="331.8949051397287" x2="509.1538461538461" y2="331.8949051397287" stroke="#000"/>
<line x1="498.3076923076922" y1="331.1361902721911" x2="498.3076923076922" y2="331.8949051397287" stroke="#000"/>
<rect x="509.1538461538461" y="100.19999999999999" width="21.69230769230769" height="397.79999999999995" fill="orange" data-tooltip="2.39x baseline speed (YJIT)"/>
<line x1="509.1538461538461" y1="98.03807574270803" x2="530.8461538461537" y2="98.03807574270803" stroke="#000"/>
<line x1="509.1538461538461" y1="102.36192425729195" x2="530.8461538461537" y2="102.36192425729195" stroke="#000"/>
<line x1="519.9999999999999" y1="98.03807574270803" x2="519.9999999999999" y2="102.36192425729195" stroke="#000"/>
<line x1="519.9999999999999" y1="498.0" x2="519.9999999999999" y2="502.79999999999995" stroke="#000"/>
<text x="519.9999999999999" y="512.4" fill="#111" font-size="small" font-family="monospace" font-weight="bold" text-anchor="end" transform="rotate(-60, 519.9999999999999, 512.4)">
liquid-render
</text>
<rect x="552.5384615384615" y="331.5155477059599" width="21.69230769230769" height="166.48445229404007" fill="#7070f8" data-tooltip="1.00x baseline speed (No JIT)"/>
<line x1="552.5384615384615" y1="328.1351943189956" x2="574.2307692307692" y2="328.1351943189956" stroke="#000"/>
<line x1="552.5384615384615" y1="334.89590109292413" x2="574.2307692307692" y2="334.89590109292413" stroke="#000"/>
<line x1="563.3846153846154" y1="328.1351943189956" x2="563.3846153846154" y2="334.89590109292413" stroke="#000"/>
<rect x="574.2307692307692" y="248.92343914207783" width="21.69230769230769" height="249.07656085792215" fill="orange" data-tooltip="1.50x baseline speed (YJIT)"/>
<line x1="574.2307692307692" y1="239.73985501863092" x2="595.9230769230769" y2="239.73985501863092" stroke="#000"/>
<line x1="574.2307692307692" y1="258.10702326552473" x2="595.9230769230769" y2="258.10702326552473" stroke="#000"/>
<line x1="585.0769230769231" y1="239.73985501863092" x2="585.0769230769231" y2="258.10702326552473" stroke="#000"/>
<line x1="585.0769230769231" y1="498.0" x2="585.0769230769231" y2="502.79999999999995" stroke="#000"/>
<text x="585.0769230769231" y="512.4" fill="#111" font-size="small" font-family="monospace" font-weight="bold" text-anchor="end" transform="rotate(-60, 585.0769230769231, 512.4)">
lobsters
</text>
<rect x="617.6153846153845" y="331.5155477059599" width="21.69230769230769" height="166.48445229404007" fill="#7070f8" data-tooltip="1.00x baseline speed (No JIT)"/>
<line x1="617.6153846153845" y1="331.0484413801664" x2="639.3076923076923" y2="331.0484413801664" stroke="#000"/>
<line x1="617.6153846153845" y1="331.9826540317533" x2="639.3076923076923" y2="331.9826540317533" stroke="#000"/>
<line x1="628.4615384615385" y1="331.0484413801664" x2="628.4615384615385" y2="331.9826540317533" stroke="#000"/>
<rect x="639.3076923076923" y="261.18890934773236" width="21.69230769230769" height="236.81109065226755" fill="orange" data-tooltip="1.42x baseline speed (YJIT)"/>
<line x1="639.3076923076923" y1="260.1174715415868" x2="660.9999999999999" y2="260.1174715415868" stroke="#000"/>
<line x1="639.3076923076923" y1="262.260347153878" x2="660.9999999999999" y2="262.260347153878" stroke="#000"/>
<line x1="650.1538461538461" y1="260.1174715415868" x2="650.1538461538461" y2="262.260347153878" stroke="#000"/>
<line x1="650.1538461538461" y1="498.0" x2="650.1538461538461" y2="502.79999999999995" stroke="#000"/>
<text x="650.1538461538461" y="512.4" fill="#111" font-size="small" font-family="monospace" font-weight="bold" text-anchor="end" transform="rotate(-60, 650.1538461538461, 512.4)">
mail
</text>
<rect x="682.6923076923076" y="331.5155477059599" width="21.69230769230769" height="166.48445229404007" fill="#7070f8" data-tooltip="1.00x baseline speed (No JIT)"/>
<line x1="682.6923076923076" y1="331.399887220242" x2="704.3846153846152" y2="331.399887220242" stroke="#000"/>
<line x1="682.6923076923076" y1="331.63120819167773" x2="704.3846153846152" y2="331.63120819167773" stroke="#000"/>
<line x1="693.5384615384614" y1="331.399887220242" x2="693.5384615384614" y2="331.63120819167773" stroke="#000"/>
<rect x="704.3846153846152" y="255.7062295536539" width="21.69230769230769" height="242.29377044634603" fill="orange" data-tooltip="1.46x baseline speed (YJIT)"/>
<line x1="704.3846153846152" y1="255.42557557240528" x2="726.076923076923" y2="255.42557557240528" stroke="#000"/>
<line x1="704.3846153846152" y1="255.98688353490252" x2="726.076923076923" y2="255.98688353490252" stroke="#000"/>
<line x1="715.2307692307692" y1="255.42557557240528" x2="715.2307692307692" y2="255.98688353490252" stroke="#000"/>
<line x1="715.2307692307692" y1="498.0" x2="715.2307692307692" y2="502.79999999999995" stroke="#000"/>
<text x="715.2307692307692" y="512.4" fill="#111" font-size="small" font-family="monospace" font-weight="bold" text-anchor="end" transform="rotate(-60, 715.2307692307692, 512.4)">
psych-load
</text>
<rect x="747.7692307692307" y="331.5155477059599" width="21.69230769230769" height="166.48445229404007" fill="#7070f8" data-tooltip="1.00x baseline speed (No JIT)"/>
<line x1="747.7692307692307" y1="330.68817572370926" x2="769.4615384615385" y2="330.68817572370926" stroke="#000"/>
<line x1="747.7692307692307" y1="332.3429196882105" x2="769.4615384615385" y2="332.3429196882105" stroke="#000"/>
<line x1="758.6153846153845" y1="330.68817572370926" x2="758.6153846153845" y2="332.3429196882105" stroke="#000"/>
<rect x="769.4615384615385" y="217.84489525002732" width="21.69230769230769" height="280.1551047499726" fill="orange" data-tooltip="1.68x baseline speed (YJIT)"/>
<line x1="769.4615384615385" y1="214.72675371465814" x2="791.1538461538461" y2="214.72675371465814" stroke="#000"/>
<line x1="769.4615384615385" y1="220.9630367853965" x2="791.1538461538461" y2="220.9630367853965" stroke="#000"/>
<line x1="780.3076923076923" y1="214.72675371465814" x2="780.3076923076923" y2="220.9630367853965" stroke="#000"/>
<line x1="780.3076923076923" y1="498.0" x2="780.3076923076923" y2="502.79999999999995" stroke="#000"/>
<text x="780.3076923076923" y="512.4" fill="#111" font-size="small" font-family="monospace" font-weight="bold" text-anchor="end" transform="rotate(-60, 780.3076923076923, 512.4)">
railsbench
</text>
<rect x="812.8461538461538" y="331.5155477059599" width="21.69230769230769" height="166.48445229404007" fill="#7070f8" data-tooltip="1.00x baseline speed (No JIT)"/>
<line x1="812.8461538461538" y1="326.1142318336724" x2="834.5384615384614" y2="326.1142318336724" stroke="#000"/>
<line x1="812.8461538461538" y1="336.91686357824733" x2="834.5384615384614" y2="336.91686357824733" stroke="#000"/>
<line x1="823.6923076923076" y1="326.1142318336724" x2="823.6923076923076" y2="336.91686357824733" stroke="#000"/>
<rect x="834.5384615384614" y="238.8246052930244" width="21.69230769230769" height="259.1753947069755" fill="orange" data-tooltip="1.56x baseline speed (YJIT)"/>
<line x1="834.5384615384614" y1="216.54229803722572" x2="856.2307692307692" y2="216.54229803722572" stroke="#000"/>
<line x1="834.5384615384614" y1="261.1069125488231" x2="856.2307692307692" y2="261.1069125488231" stroke="#000"/>
<line x1="845.3846153846152" y1="216.54229803722572" x2="845.3846153846152" y2="261.1069125488231" stroke="#000"/>
<line x1="845.3846153846152" y1="498.0" x2="845.3846153846152" y2="502.79999999999995" stroke="#000"/>
<text x="845.3846153846152" y="512.4" fill="#111" font-size="small" font-family="monospace" font-weight="bold" text-anchor="end" transform="rotate(-60, 845.3846153846152, 512.4)">
ruby-lsp
</text>
<rect x="877.9230769230768" y="331.5155477059599" width="21.69230769230769" height="166.48445229404007" fill="#7070f8" data-tooltip="1.00x baseline speed (No JIT)"/>
<line x1="877.9230769230768" y1="329.4998636992943" x2="899.6153846153845" y2="329.4998636992943" stroke="#000"/>
<line x1="877.9230769230768" y1="333.53123171262547" x2="899.6153846153845" y2="333.53123171262547" stroke="#000"/>
<line x1="888.7692307692306" y1="329.4998636992943" x2="888.7692307692306" y2="333.53123171262547" stroke="#000"/>
<rect x="899.6153846153845" y="277.78184679633296" width="21.69230769230769" height="220.218153203667" fill="orange" data-tooltip="1.32x baseline speed (YJIT)"/>
<line x1="899.6153846153845" y1="273.29140638367556" x2="921.3076923076922" y2="273.29140638367556" stroke="#000"/>
<line x1="899.6153846153845" y1="282.27228720899035" x2="921.3076923076922" y2="282.27228720899035" stroke="#000"/>
<line x1="910.4615384615383" y1="273.29140638367556" x2="910.4615384615383" y2="282.27228720899035" stroke="#000"/>
<line x1="910.4615384615383" y1="498.0" x2="910.4615384615383" y2="502.79999999999995" stroke="#000"/>
<text x="910.4615384615383" y="512.4" fill="#111" font-size="small" font-family="monospace" font-weight="bold" text-anchor="end" transform="rotate(-60, 910.4615384615383, 512.4)">
sequel
</text>
</svg>