<svg viewBox="0 0 1000 600" xmlns="http://www.w3.org/2000/svg" xmlns:xlink="http://www.w3.org/1999/xlink" width="100%" height="100%">

<rect x="50.0" y="30.0" width="940.0" height="467.99999999999994" stroke="#000" fill="#EEE"/>
<line x1="42.0" y1="497.9999999999999" x2="50.0" y2="497.9999999999999" stroke="#000"/>
<text x="26.000000000000004" y="497.9999999999999" text-anchor="end" font-weight="bold" font-size="small" fill="#111">
0.0
</text>
<line x1="42.0" y1="413.558618006529" x2="50.0" y2="413.558618006529" stroke="#000"/>
<text x="26.000000000000004" y="413.558618006529" text-anchor="end" font-weight="bold" font-size="small" fill="#111">
5.0
</text>
<line x1="42.0" y1="329.1172360130582" x2="50.0" y2="329.1172360130582" stroke="#000"/>
<text x="26.000000000000004" y="329.1172360130582" text-anchor="end" font-weight="bold" font-size="small" fill="#111">
10.0
</text>
<line x1="42.0" y1="244.67585401958732" x2="50.0" y2="244.67585401958732" stroke="#000"/>
<text x="26.000000000000004" y="244.67585401958732" text-anchor="end" font-weight="bold" font-size="small" fill="#111">
15.0
</text>
<line x1="42.0" y1="160.23447202611644" x2="50.0" y2="160.23447202611644" stroke="#000"/>
<text x="26.000000000000004" y="160.23447202611644" text-anchor="end" font-weight="bold" font-size="small" fill="#111">
20.0
</text>
<rect x="268.5" y="36.00000000000001" width="80.0" height="18.0" fill="#7070f8" stroke="#888"/>
<text x="308.5" y="52.50000000000001" font-size="small" text-anchor="middle" font-weight="bold" fill="#EEE">
No JIT
</text>
<rect x="691.4999999999999" y="36.00000000000001" width="80.0" height="18.0" fill="orange" stroke="#888"/>
<text x="731.4999999999999" y="52.50000000000001" font-size="small" text-anchor="middle" font-weight="bold" fill="#EEE">
YJIT
</text>
<rect x="97.0" y="481.1117236013058" width="6.266666666666667" height="16.888276398694178" fill="#7070f8" data-tooltip="1.00x baseline speed (No JIT)"/>
<line x1="97.0" y1="481.076976347652" x2="103.26666666666668" y2="481.076976347652" stroke="#000"/>
<line x1="97.0" y1="481.14647085495955" x2="103.26666666666668" y2="481.14647085495955" stroke="#000"/>
<line x1="100.13333333333334" y1="481.076976347652" x2="100.13333333333334" y2="481.14647085495955" stroke="#000"/>
<rect x="103.26666666666668" y="469.295736929313" width="6.266666666666667" height="28.704263070686984" fill="orange" data-tooltip="1.70x baseline speed (YJIT)"/>
<line x1="103.26666666666668" y1="469.1557820780547" x2="109.53333333333335" y2="469.1557820780547" stroke="#000"/>
<line x1="103.26666666666668" y1="469.43569178057135" x2="109.53333333333335" y2="469.43569178057135" stroke="#000"/>
<line x1="106.4" y1="469.1557820780547" x2="106.4" y2="469.43569178057135" stroke="#000"/>
<line x1="106.4" y1="498.0" x2="106.4" y2="502.79999999999995" stroke="#000"/>
<text x="106.4" y="512.4" fill="#111" font-size="small" font-family="monospace" font-weight="bold" text-anchor="end" transform="rotate(-60, 106.4, 512.4)">
activerecord
</text>
<rect x="115.8" y="481.1117236013058" width="6.266666666666667" height="16.888276398694178" fill="#7070f8" data-tooltip="1.00x baseline speed (No JIT)"/>
<line x1="115.8" y1="481.07771118027557" x2="122.06666666666668" y2="481.07771118027557" stroke="#000"/>
<line x1="115.8" y1="481.145736022336" x2="122.06666666666668" y2="481.145736022336" stroke="#000"/>
<line x1="118.93333333333334" y1="481.07771118027557" x2="118.93333333333334" y2="481.145736022336" stroke="#000"/>
<rect x="122.06666666666668" y="466.59838950184024" width="6.266666666666667" height="31.401610498159652" fill="orange" data-tooltip="1.86x baseline speed (YJIT)"/>
<line x1="122.06666666666668" y1="466.52725954556473" x2="128.33333333333331" y2="466.52725954556473" stroke="#000"/>
<line x1="122.06666666666668" y1="466.6695194581158" x2="128.33333333333331" y2="466.6695194581158" stroke="#000"/>
<line x1="125.2" y1="466.52725954556473" x2="125.2" y2="466.6695194581158" stroke="#000"/>
<line x1="125.2" y1="498.0" x2="125.2" y2="502.79999999999995" stroke="#000"/>
<text x="125.2" y="512.4" fill="#111" font-size="small" font-family="monospace" font-weight="bold" text-anchor="end" transform="rotate(-60, 125.2, 512.4)">
chunky-png
</text>
<rect x="134.6" y="481.1117236013058" width="6.266666666666667" height="16.888276398694178" fill="#7070f8" data-tooltip="1.00x baseline speed (No JIT)"/>
<line x1="134.6" y1="481.09771141437056" x2="140.86666666666667" y2="481.09771141437056" stroke="#000"/>
<line x1="134.6" y1="481.125735788241" x2="140.86666666666667" y2="481.125735788241" stroke="#000"/>
<line x1="137.73333333333332" y1="481.09771141437056" x2="137.73333333333332" y2="481.125735788241" stroke="#000"/>
<rect x="140.86666666666667" y="471.5874559969487" width="6.266666666666667" height="26.412544003051245" fill="orange" data-tooltip="1.56x baseline speed (YJIT)"/>
<line x1="140.86666666666667" y1="471.55253723308175" x2="147.13333333333333" y2="471.55253723308175" stroke="#000"/>
<line x1="140.86666666666667" y1="471.6223747608156" x2="147.13333333333333" y2="471.6223747608156" stroke="#000"/>
<line x1="144.0" y1="471.55253723308175" x2="144.0" y2="471.6223747608156" stroke="#000"/>
<line x1="144.0" y1="498.0" x2="144.0" y2="502.79999999999995" stroke="#000"/>
<text x="144.0" y="512.4" fill="#111" font-size="small" font-family="monospace" font-weight="bold" text-anchor="end" transform="rotate(-60, 144.0, 512.4)">
erubi-rails
</text>
<rect x="153.4" y="481.1117236013058" width="6.266666666666667" height="16.888276398694178" fill="#7070f8" data-tooltip="1.00x baseline speed (No JIT)"/>
<line x1="153.4" y1="481.0266369450236" x2="159.66666666666669" y2="481.0266369450236" stroke="#000"/>
<line x1="153.4" y1="481.19681025758797" x2="159.66666666666669" y2="481.19681025758797" stroke="#000"/>
<line x1="156.53333333333333" y1="481.0266369450236" x2="156.53333333333333" y2="481.19681025758797" stroke="#000"/>
<rect x="159.66666666666669" y="469.8342227364352" width="6.266666666666667" height="28.16577726356474" fill="orange" data-tooltip="1.67x baseline speed (YJIT)"/>
<line x1="159.66666666666669" y1="469.0179324668672" x2="165.93333333333334" y2="469.0179324668672" stroke="#000"/>
<line x1="159.66666666666669" y1="470.6505130060032" x2="165.93333333333334" y2="470.6505130060032" stroke="#000"/>
<line x1="162.8" y1="469.0179324668672" x2="162.8" y2="470.6505130060032" stroke="#000"/>
<line x1="162.8" y1="498.0" x2="162.8" y2="502.79999999999995" stroke="#000"/>
<text x="162.8" y="512.4" fill="#111" font-size="small" font-family="monospace" font-weight="bold" text-anchor="end" transform="rotate(-60, 162.8, 512.4)">
hexapdf
</text>
<rect x="172.20000000000002" y="481.1117236013058" width="6.266666666666667" height="16.888276398694178" fill="#7070f8" data-tooltip="1.00x baseline speed (No JIT)"/>
<line x1="172.20000000000002" y1="481.0402242109855" x2="178.4666666666667" y2="481.0402242109855" stroke="#000"/>
<line x1="172.20000000000002" y1="481.18322299162605" x2="178.4666666666667" y2="481.18322299162605" stroke="#000"/>
<line x1="175.33333333333334" y1="481.0402242109855" x2="175.33333333333334" y2="481.18322299162605" stroke="#000"/>
<rect x="178.4666666666667" y="475.4602106791626" width="6.266666666666667" height="22.539789320837297" fill="orange" data-tooltip="1.33x baseline speed (YJIT)"/>
<line x1="178.4666666666667" y1="475.3054890346772" x2="184.73333333333335" y2="475.3054890346772" stroke="#000"/>
<line x1="178.4666666666667" y1="475.6149323236481" x2="184.73333333333335" y2="475.6149323236481" stroke="#000"/>
<line x1="181.60000000000002" y1="475.3054890346772" x2="181.60000000000002" y2="475.6149323236481" stroke="#000"/>
<line x1="181.60000000000002" y1="498.0" x2="181.60000000000002" y2="502.79999999999995" stroke="#000"/>
<text x="181.60000000000002" y="512.4" fill="#111" font-size="small" font-family="monospace" font-weight="bold" text-anchor="end" transform="rotate(-60, 181.60000000000002, 512.4)">
liquid-c
</text>
<rect x="191.0" y="481.1117236013058" width="6.266666666666667" height="16.888276398694178" fill="#7070f8" data-tooltip="1.00x baseline speed (No JIT)"/>
<line x1="191.0" y1="481.0315118131324" x2="197.26666666666668" y2="481.0315118131324" stroke="#000"/>
<line x1="191.0" y1="481.19193538947917" x2="197.26666666666668" y2="481.19193538947917" stroke="#000"/>
<line x1="194.13333333333333" y1="481.0315118131324" x2="194.13333333333333" y2="481.19193538947917" stroke="#000"/>
<rect x="197.26666666666668" y="476.1636148985007" width="6.266666666666667" height="21.836385101499218" fill="orange" data-tooltip="1.29x baseline speed (YJIT)"/>
<line x1="197.26666666666668" y1="475.99552826227296" x2="203.53333333333333" y2="475.99552826227296" stroke="#000"/>
<line x1="197.26666666666668" y1="476.3317015347285" x2="203.53333333333333" y2="476.3317015347285" stroke="#000"/>
<line x1="200.4" y1="475.99552826227296" x2="200.4" y2="476.3317015347285" stroke="#000"/>
<line x1="200.4" y1="498.0" x2="200.4" y2="502.79999999999995" stroke="#000"/>
<text x="200.4" y="512.4" fill="#111" font-size="small" font-family="monospace" font-weight="bold" text-anchor="end" transform="rotate(-60, 200.4, 512.4)">
liquid-compile
</text>
<rect x="209.8" y="481.1117236013058" width="6.266666666666667" height="16.888276398694178" fill="#7070f8" data-tooltip="1.00x baseline speed (No JIT)"/>
<line x1="209.8" y1="481.07714771178604" x2="216.0666666666667" y2="481.07714771178604" stroke="#000"/>
<line x1="209.8" y1="481.1462994908255" x2="216.0666666666667" y2="481.1462994908255" stroke="#000"/>
<line x1="212.93333333333334" y1="481.07714771178604" x2="212.93333333333334" y2="481.1462994908255" stroke="#000"/>
<rect x="216.0666666666667" y="464.7468271630991" width="6.266666666666667" height="33.25317283690076" fill="orange" data-tooltip="1.97x baseline speed (YJIT)"/>
<line x1="216.0666666666667" y1="464.6245304268452" x2="222.33333333333334" y2="464.6245304268452" stroke="#000"/>
<line x1="216.0666666666667" y1="464.869123899353" x2="222.33333333333334" y2="464.869123899353" stroke="#000"/>
<line x1="219.20000000000002" y1="464.6245304268452" x2="219.20000000000002" y2="464.869123899353" stroke="#000"/>
<line x1="219.20000000000002" y1="498.0" x2="219.20000000000002" y2="502.79999999999995" stroke="#000"/>
<text x="219.20000000000002" y="512.4" fill="#111" font-size="small" font-family="monospace" font-weight="bold" text-anchor="end" transform="rotate(-60, 219.20000000000002, 512.4)">
liquid-render
</text>
<rect x="228.6" y="481.1117236013058" width="6.266666666666667" height="16.888276398694178" fill="#7070f8" data-tooltip="1.00x baseline speed (No JIT)"/>
<line x1="228.6" y1="481.03567906456425" x2="234.86666666666667" y2="481.03567906456425" stroke="#000"/>
<line x1="228.6" y1="481.1877681380473" x2="234.86666666666667" y2="481.1877681380473" stroke="#000"/>
<line x1="231.73333333333332" y1="481.03567906456425" x2="231.73333333333332" y2="481.1877681380473" stroke="#000"/>
<rect x="234.86666666666667" y="473.5800472859419" width="6.266666666666667" height="24.419952714058052" fill="orange" data-tooltip="1.45x baseline speed (YJIT)"/>
<line x1="234.86666666666667" y1="473.24292843357193" x2="241.13333333333333" y2="473.24292843357193" stroke="#000"/>
<line x1="234.86666666666667" y1="473.91716613831187" x2="241.13333333333333" y2="473.91716613831187" stroke="#000"/>
<line x1="238.0" y1="473.24292843357193" x2="238.0" y2="473.91716613831187" stroke="#000"/>
<line x1="238.0" y1="498.0" x2="238.0" y2="502.79999999999995" stroke="#000"/>
<text x="238.0" y="512.4" fill="#111" font-size="small" font-family="monospace" font-weight="bold" text-anchor="end" transform="rotate(-60, 238.0, 512.4)">
lobsters
</text>
<rect x="247.4" y="481.1117236013058" width="6.266666666666667" height="16.888276398694178" fill="#7070f8" data-tooltip="1.00x baseline speed (No JIT)"/>
<line x1="247.4" y1="481.09779092382945" x2="253.66666666666666" y2="481.09779092382945" stroke="#000"/>
<line x1="247.4" y1="481.1256562787821" x2="253.66666666666666" y2="481.1256562787821" stroke="#000"/>
<line x1="250.53333333333333" y1="481.09779092382945" x2="250.53333333333333" y2="481.1256562787821" stroke="#000"/>
<rect x="253.66666666666666" y="474.1233210834609" width="6.266666666666667" height="23.876678916539035" fill="orange" data-tooltip="1.41x baseline speed (YJIT)"/>
<line x1="253.66666666666666" y1="474.09899521222445" x2="259.9333333333333" y2="474.09899521222445" stroke="#000"/>
<line x1="253.66666666666666" y1="474.1476469546974" x2="259.9333333333333" y2="474.1476469546974" stroke="#000"/>
<line x1="256.79999999999995" y1="474.09899521222445" x2="256.79999999999995" y2="474.1476469546974" stroke="#000"/>
<line x1="256.8" y1="498.0" x2="256.8" y2="502.79999999999995" stroke="#000"/>
<text x="256.8" y="512.4" fill="#111" font-size="small" font-family="monospace" font-weight="bold" text-anchor="end" transform="rotate(-60, 256.8, 512.4)">
mail
</text>
<rect x="266.2" y="481.1117236013058" width="6.266666666666667" height="16.888276398694178" fill="#7070f8" data-tooltip="1.00x baseline speed (No JIT)"/>
<line x1="266.2" y1="481.09957509752167" x2="272.46666666666664" y2="481.09957509752167" stroke="#000"/>
<line x1="266.2" y1="481.12387210508996" x2="272.46666666666664" y2="481.12387210508996" stroke="#000"/>
<line x1="269.3333333333333" y1="481.09957509752167" x2="269.3333333333333" y2="481.12387210508996" stroke="#000"/>
<rect x="272.46666666666664" y="466.32718303160516" width="6.266666666666667" height="31.67281696839473" fill="orange" data-tooltip="1.88x baseline speed (YJIT)"/>
<line x1="272.46666666666664" y1="466.2693464494677" x2="278.7333333333333" y2="466.2693464494677" stroke="#000"/>
<line x1="272.46666666666664" y1="466.38501961374266" x2="278.7333333333333" y2="466.38501961374266" stroke="#000"/>
<line x1="275.59999999999997" y1="466.2693464494677" x2="275.59999999999997" y2="466.38501961374266" stroke="#000"/>
<line x1="275.6" y1="498.0" x2="275.6" y2="502.79999999999995" stroke="#000"/>
<text x="275.6" y="512.4" fill="#111" font-size="small" font-family="monospace" font-weight="bold" text-anchor="end" transform="rotate(-60, 275.6, 512.4)">
psych-load
</text>
<rect x="285.00000000000006" y="481.1117236013058" width="6.266666666666667" height="16.888276398694178" fill="#7070f8" data-tooltip="1.00x baseline speed (No JIT)"/>
<line x1="285.00000000000006" y1="481.1023031568994" x2="291.26666666666665" y2="481.1023031568994" stroke="#000"/>
<line x1="285.00000000000006" y1="481.1211440457122" x2="291.26666666666665" y2="481.1211440457122" stroke="#000"/>
<line x1="288.1333333333333" y1="481.1023031568994" x2="288.1333333333333" y2="481.1211440457122" stroke="#000"/>
<rect x="291.26666666666665" y="470.2429030534299" width="6.266666666666667" height="27.757096946570034" fill="orange" data-tooltip="1.64x baseline speed (YJIT)"/>
<line x1="291.26666666666665" y1="470.12040399154876" x2="297.5333333333333" y2="470.12040399154876" stroke="#000"/>
<line x1="291.26666666666665" y1="470.36540211531116" x2="297.5333333333333" y2="470.36540211531116" stroke="#000"/>
<line x1="294.4" y1="470.12040399154876" x2="294.4" y2="470.36540211531116" stroke="#000"/>
<line x1="294.40000000000003" y1="498.0" x2="294.40000000000003" y2="502.79999999999995" stroke="#000"/>
<text x="294.40000000000003" y="512.4" fill="#111" font-size="small" font-family="monospace" font-weight="bold" text-anchor="end" transform="rotate(-60, 294.40000000000003, 512.4)">
railsbench
</text>
<rect x="303.8" y="481.1117236013058" width="6.266666666666667" height="16.888276398694178" fill="#7070f8" data-tooltip="1.00x baseline speed (No JIT)"/>
<line x1="303.8" y1="481.0420755083225" x2="310.06666666666666" y2="481.0420755083225" stroke="#000"/>
<line x1="303.8" y1="481.18137169428906" x2="310.06666666666666" y2="481.18137169428906" stroke="#000"/>
<line x1="306.93333333333334" y1="481.0420755083225" x2="306.93333333333334" y2="481.18137169428906" stroke="#000"/>
<rect x="310.06666666666666" y="473.12476006602185" width="6.266666666666667" height="24.875239933978026" fill="orange" data-tooltip="1.47x baseline speed (YJIT)"/>
<line x1="310.06666666666666" y1="471.28469962154657" x2="316.3333333333333" y2="471.28469962154657" stroke="#000"/>
<line x1="310.06666666666666" y1="474.96482051049713" x2="316.3333333333333" y2="474.96482051049713" stroke="#000"/>
<line x1="313.2" y1="471.28469962154657" x2="313.2" y2="474.96482051049713" stroke="#000"/>
<line x1="313.20000000000005" y1="498.0" x2="313.20000000000005" y2="502.79999999999995" stroke="#000"/>
<text x="313.20000000000005" y="512.4" fill="#111" font-size="small" font-family="monospace" font-weight="bold" text-anchor="end" transform="rotate(-60, 313.20000000000005, 512.4)">
rubocop
</text>
<rect x="322.6" y="481.1117236013058" width="6.266666666666667" height="16.888276398694178" fill="#7070f8" data-tooltip="1.00x baseline speed (No JIT)"/>
<line x1="322.6" y1="480.99183411352317" x2="328.8666666666666" y2="480.99183411352317" stroke="#000"/>
<line x1="322.6" y1="481.2316130890884" x2="328.8666666666666" y2="481.2316130890884" stroke="#000"/>
<line x1="325.7333333333333" y1="480.99183411352317" x2="325.7333333333333" y2="481.2316130890884" stroke="#000"/>
<rect x="328.8666666666666" y="475.9456184846104" width="6.266666666666667" height="22.054381515389558" fill="orange" data-tooltip="1.31x baseline speed (YJIT)"/>
<line x1="328.8666666666666" y1="475.6764159932495" x2="335.13333333333327" y2="475.6764159932495" stroke="#000"/>
<line x1="328.8666666666666" y1="476.21482097597135" x2="335.13333333333327" y2="476.21482097597135" stroke="#000"/>
<line x1="331.99999999999994" y1="475.6764159932495" x2="331.99999999999994" y2="476.21482097597135" stroke="#000"/>
<line x1="332.0" y1="498.0" x2="332.0" y2="502.79999999999995" stroke="#000"/>
<text x="332.0" y="512.4" fill="#111" font-size="small" font-family="monospace" font-weight="bold" text-anchor="end" transform="rotate(-60, 332.0, 512.4)">
ruby-lsp
</text>
<rect x="341.40000000000003" y="481.1117236013058" width="6.266666666666667" height="16.888276398694178" fill="#7070f8" data-tooltip="1.00x baseline speed (No JIT)"/>
<line x1="341.40000000000003" y1="481.093197031312" x2="347.6666666666667" y2="481.093197031312" stroke="#000"/>
<line x1="341.40000000000003" y1="481.13025017129956" x2="347.6666666666667" y2="481.13025017129956" stroke="#000"/>
<line x1="344.53333333333336" y1="481.093197031312" x2="344.53333333333336" y2="481.13025017129956" stroke="#000"/>
<rect x="347.6666666666667" y="477.8100599292683" width="6.266666666666667" height="20.18994007073167" fill="orange" data-tooltip="1.20x baseline speed (YJIT)"/>
<line x1="347.6666666666667" y1="477.76789467174876" x2="353.93333333333334" y2="477.76789467174876" stroke="#000"/>
<line x1="347.6666666666667" y1="477.85222518678785" x2="353.93333333333334" y2="477.85222518678785" stroke="#000"/>
<line x1="350.8" y1="477.76789467174876" x2="350.8" y2="477.85222518678785" stroke="#000"/>
<line x1="350.80000000000007" y1="498.0" x2="350.80000000000007" y2="502.79999999999995" stroke="#000"/>
<text x="350.80000000000007" y="512.4" fill="#111" font-size="small" font-family="monospace" font-weight="bold" text-anchor="end" transform="rotate(-60, 350.80000000000007, 512.4)">
sequel
</text>
<rect x="360.2" y="481.1117236013058" width="6.266666666666667" height="16.888276398694178" fill="#7070f8" data-tooltip="1.00x baseline speed (No JIT)"/>
<line x1="360.2" y1="480.8667752523857" x2="366.4666666666666" y2="480.8667752523857" stroke="#000"/>
<line x1="360.2" y1="481.35667195022586" x2="366.4666666666666" y2="481.35667195022586" stroke="#000"/>
<line x1="363.33333333333326" y1="480.8667752523857" x2="363.33333333333326" y2="481.35667195022586" stroke="#000"/>
<rect x="366.4666666666666" y="463.5510983315628" width="6.266666666666667" height="34.4489016684372" fill="orange" data-tooltip="2.04x baseline speed (YJIT)"/>
<line x1="366.4666666666666" y1="462.4804325692777" x2="372.73333333333323" y2="462.4804325692777" stroke="#000"/>
<line x1="366.4666666666666" y1="464.6217640938479" x2="372.73333333333323" y2="464.6217640938479" stroke="#000"/>
<line x1="369.5999999999999" y1="462.4804325692777" x2="369.5999999999999" y2="464.6217640938479" stroke="#000"/>
<line x1="369.59999999999997" y1="498.0" x2="369.59999999999997" y2="502.79999999999995" stroke="#000"/>
<text x="369.59999999999997" y="512.4" fill="#111" font-size="small" font-family="monospace" font-weight="bold" text-anchor="end" transform="rotate(-60, 369.59999999999997, 512.4)">
binarytrees
</text>
<rect x="379.0" y="481.1117236013058" width="6.266666666666667" height="16.888276398694178" fill="#7070f8" data-tooltip="1.00x baseline speed (No JIT)"/>
<line x1="379.0" y1="480.7604149874369" x2="385.26666666666665" y2="480.7604149874369" stroke="#000"/>
<line x1="379.0" y1="481.4630322151747" x2="385.26666666666665" y2="481.4630322151747" stroke="#000"/>
<line x1="382.1333333333333" y1="480.7604149874369" x2="382.1333333333333" y2="481.4630322151747" stroke="#000"/>
<rect x="385.26666666666665" y="454.4841169576558" width="6.266666666666667" height="43.51588304234421" fill="orange" data-tooltip="2.58x baseline speed (YJIT)"/>
<line x1="385.26666666666665" y1="453.1519270675298" x2="391.5333333333333" y2="453.1519270675298" stroke="#000"/>
<line x1="385.26666666666665" y1="455.81630684778173" x2="391.5333333333333" y2="455.81630684778173" stroke="#000"/>
<line x1="388.4" y1="453.1519270675298" x2="388.4" y2="455.81630684778173" stroke="#000"/>
<line x1="388.40000000000003" y1="498.0" x2="388.40000000000003" y2="502.79999999999995" stroke="#000"/>
<text x="388.40000000000003" y="512.4" fill="#111" font-size="small" font-family="monospace" font-weight="bold" text-anchor="end" transform="rotate(-60, 388.40000000000003, 512.4)">
blurhash
</text>
<rect x="397.80000000000007" y="481.1117236013058" width="6.266666666666667" height="16.888276398694178" fill="#7070f8" data-tooltip="1.00x baseline speed (No JIT)"/>
<line x1="397.80000000000007" y1="481.0736425419304" x2="404.06666666666666" y2="481.0736425419304" stroke="#000"/>
<line x1="397.80000000000007" y1="481.1498046606812" x2="404.06666666666666" y2="481.1498046606812" stroke="#000"/>
<line x1="400.93333333333334" y1="481.0736425419304" x2="400.93333333333334" y2="481.1498046606812" stroke="#000"/>
<rect x="404.06666666666666" y="478.22308852065584" width="6.266666666666667" height="19.776911479344044" fill="orange" data-tooltip="1.17x baseline speed (YJIT)"/>
<line x1="404.06666666666666" y1="478.1547934936931" x2="410.3333333333333" y2="478.1547934936931" stroke="#000"/>
<line x1="404.06666666666666" y1="478.29138354761864" x2="410.3333333333333" y2="478.29138354761864" stroke="#000"/>
<line x1="407.2" y1="478.1547934936931" x2="407.2" y2="478.29138354761864" stroke="#000"/>
<line x1="407.20000000000005" y1="498.0" x2="407.20000000000005" y2="502.79999999999995" stroke="#000"/>
<text x="407.20000000000005" y="512.4" fill="#111" font-size="small" font-family="monospace" font-weight="bold" text-anchor="end" transform="rotate(-60, 407.20000000000005, 512.4)">
erubi
</text>
<rect x="416.59999999999997" y="481.1117236013058" width="6.266666666666667" height="16.888276398694178" fill="#7070f8" data-tooltip="1.00x baseline speed (No JIT)"/>
<line x1="416.59999999999997" y1="481.06732184192884" x2="422.8666666666666" y2="481.06732184192884" stroke="#000"/>
<line x1="416.59999999999997" y1="481.1561253606827" x2="422.8666666666666" y2="481.1561253606827" stroke="#000"/>
<line x1="419.7333333333333" y1="481.06732184192884" x2="419.7333333333333" y2="481.1561253606827" stroke="#000"/>
<rect x="422.8666666666666" y="478.8771269662001" width="6.266666666666667" height="19.122873033799834" fill="orange" data-tooltip="1.13x baseline speed (YJIT)"/>
<line x1="422.8666666666666" y1="478.8238116819642" x2="429.13333333333327" y2="478.8238116819642" stroke="#000"/>
<line x1="422.8666666666666" y1="478.93044225043604" x2="429.13333333333327" y2="478.93044225043604" stroke="#000"/>
<line x1="425.99999999999994" y1="478.8238116819642" x2="425.99999999999994" y2="478.93044225043604" stroke="#000"/>
<line x1="426.0" y1="498.0" x2="426.0" y2="502.79999999999995" stroke="#000"/>
<text x="426.0" y="512.4" fill="#111" font-size="small" font-family="monospace" font-weight="bold" text-anchor="end" transform="rotate(-60, 426.0, 512.4)">
etanni
</text>
<rect x="435.40000000000003" y="481.1117236013058" width="6.266666666666667" height="16.888276398694178" fill="#7070f8" data-tooltip="1.00x baseline speed (No JIT)"/>
<line x1="435.40000000000003" y1="480.5843736032137" x2="441.66666666666663" y2="480.5843736032137" stroke="#000"/>
<line x1="435.40000000000003" y1="481.6390735993979" x2="441.66666666666663" y2="481.6390735993979" stroke="#000"/>
<line x1="438.5333333333333" y1="480.5843736032137" x2="438.5333333333333" y2="481.6390735993979" stroke="#000"/>
<rect x="441.66666666666663" y="436.4775285611089" width="6.266666666666667" height="61.52247143889111" fill="orange" data-tooltip="3.64x baseline speed (YJIT)"/>
<line x1="441.66666666666663" y1="434.554043608968" x2="447.9333333333333" y2="434.554043608968" stroke="#000"/>
<line x1="441.66666666666663" y1="438.4010135132497" x2="447.9333333333333" y2="438.4010135132497" stroke="#000"/>
<line x1="444.79999999999995" y1="434.554043608968" x2="444.79999999999995" y2="438.4010135132497" stroke="#000"/>
<line x1="444.8" y1="498.0" x2="444.8" y2="502.79999999999995" stroke="#000"/>
<text x="444.8" y="512.4" fill="#111" font-size="small" font-family="monospace" font-weight="bold" text-anchor="end" transform="rotate(-60, 444.8, 512.4)">
fannkuchredux
</text>
<rect x="454.20000000000005" y="481.1117236013058" width="6.266666666666667" height="16.888276398694178" fill="#7070f8" data-tooltip="1.00x baseline speed (No JIT)"/>
<line x1="454.20000000000005" y1="481.0542148072067" x2="460.4666666666667" y2="481.0542148072067" stroke="#000"/>
<line x1="454.20000000000005" y1="481.1692323954049" x2="460.4666666666667" y2="481.1692323954049" stroke="#000"/>
<line x1="457.33333333333337" y1="481.0542148072067" x2="457.33333333333337" y2="481.1692323954049" stroke="#000"/>
<rect x="460.4666666666667" y="478.1643101371161" width="6.266666666666667" height="19.835689862883886" fill="orange" data-tooltip="1.17x baseline speed (YJIT)"/>
<line x1="460.4666666666667" y1="477.4481846458032" x2="466.73333333333335" y2="477.4481846458032" stroke="#000"/>
<line x1="460.4666666666667" y1="478.88043562842904" x2="466.73333333333335" y2="478.88043562842904" stroke="#000"/>
<line x1="463.6" y1="477.4481846458032" x2="463.6" y2="478.88043562842904" stroke="#000"/>
<line x1="463.6000000000001" y1="498.0" x2="463.6000000000001" y2="502.79999999999995" stroke="#000"/>
<text x="463.6000000000001" y="512.4" fill="#111" font-size="small" font-family="monospace" font-weight="bold" text-anchor="end" transform="rotate(-60, 463.6000000000001, 512.4)">
fluentd
</text>
<rect x="473.0" y="481.1117236013058" width="6.266666666666667" height="16.888276398694178" fill="#7070f8" data-tooltip="1.00x baseline speed (No JIT)"/>
<line x1="473.0" y1="481.1005724817739" x2="479.2666666666666" y2="481.1005724817739" stroke="#000"/>
<line x1="473.0" y1="481.1228747208377" x2="479.2666666666666" y2="481.1228747208377" stroke="#000"/>
<line x1="476.1333333333333" y1="481.1005724817739" x2="476.1333333333333" y2="481.1228747208377" stroke="#000"/>
<rect x="479.2666666666666" y="477.3278492801983" width="6.266666666666667" height="20.672150719801706" fill="orange" data-tooltip="1.22x baseline speed (YJIT)"/>
<line x1="479.2666666666666" y1="477.26967845085784" x2="485.53333333333325" y2="477.26967845085784" stroke="#000"/>
<line x1="479.2666666666666" y1="477.3860201095387" x2="485.53333333333325" y2="477.3860201095387" stroke="#000"/>
<line x1="482.3999999999999" y1="477.26967845085784" x2="482.3999999999999" y2="477.3860201095387" stroke="#000"/>
<line x1="482.4" y1="498.0" x2="482.4" y2="502.79999999999995" stroke="#000"/>
<text x="482.4" y="512.4" fill="#111" font-size="small" font-family="monospace" font-weight="bold" text-anchor="end" transform="rotate(-60, 482.4, 512.4)">
graphql
</text>
<rect x="491.8" y="481.1117236013058" width="6.266666666666667" height="16.888276398694178" fill="#7070f8" data-tooltip="1.00x baseline speed (No JIT)"/>
<line x1="491.8" y1="481.1050061499335" x2="498.06666666666666" y2="481.1050061499335" stroke="#000"/>
<line x1="491.8" y1="481.11844105267807" x2="498.06666666666666" y2="481.11844105267807" stroke="#000"/>
<line x1="494.93333333333334" y1="481.1050061499335" x2="494.93333333333334" y2="481.11844105267807" stroke="#000"/>
<rect x="498.06666666666666" y="481.83662821012103" width="6.266666666666667" height="16.163371789878898" fill="orange" data-tooltip="0.96x baseline speed (YJIT)"/>
<line x1="498.06666666666666" y1="481.7649597946065" x2="504.3333333333333" y2="481.7649597946065" stroke="#000"/>
<line x1="498.06666666666666" y1="481.9082966256356" x2="504.3333333333333" y2="481.9082966256356" stroke="#000"/>
<line x1="501.2" y1="481.7649597946065" x2="501.2" y2="481.9082966256356" stroke="#000"/>
<line x1="501.2" y1="498.0" x2="501.2" y2="502.79999999999995" stroke="#000"/>
<text x="501.2" y="512.4" fill="#111" font-size="small" font-family="monospace" font-weight="bold" text-anchor="end" transform="rotate(-60, 501.2, 512.4)">
graphql-native
</text>
<rect x="510.6000000000001" y="481.1117236013058" width="6.266666666666667" height="16.888276398694178" fill="#7070f8" data-tooltip="1.00x baseline speed (No JIT)"/>
<line x1="510.6000000000001" y1="480.9943947705571" x2="516.8666666666667" y2="480.9943947705571" stroke="#000"/>
<line x1="510.6000000000001" y1="481.22905243205446" x2="516.8666666666667" y2="481.22905243205446" stroke="#000"/>
<line x1="513.7333333333333" y1="480.9943947705571" x2="513.7333333333333" y2="481.22905243205446" stroke="#000"/>
<rect x="516.8666666666667" y="472.1855508456292" width="6.266666666666667" height="25.814449154370685" fill="orange" data-tooltip="1.53x baseline speed (YJIT)"/>
<line x1="516.8666666666667" y1="471.8223515924078" x2="523.1333333333333" y2="471.8223515924078" stroke="#000"/>
<line x1="516.8666666666667" y1="472.5487500988507" x2="523.1333333333333" y2="472.5487500988507" stroke="#000"/>
<line x1="520.0" y1="471.8223515924078" x2="520.0" y2="472.5487500988507" stroke="#000"/>
<line x1="520.0" y1="498.0" x2="520.0" y2="502.79999999999995" stroke="#000"/>
<text x="520.0" y="512.4" fill="#111" font-size="small" font-family="monospace" font-weight="bold" text-anchor="end" transform="rotate(-60, 520.0, 512.4)">
lee
</text>
<rect x="529.4" y="481.1117236013058" width="6.266666666666667" height="16.888276398694178" fill="#7070f8" data-tooltip="1.00x baseline speed (No JIT)"/>
<line x1="529.4" y1="480.95430677230127" x2="535.6666666666666" y2="480.95430677230127" stroke="#000"/>
<line x1="529.4" y1="481.2691404303103" x2="535.6666666666666" y2="481.2691404303103" stroke="#000"/>
<line x1="532.5333333333333" y1="480.95430677230127" x2="532.5333333333333" y2="481.2691404303103" stroke="#000"/>
<rect x="535.6666666666666" y="468.116216751669" width="6.266666666666667" height="29.883783248330925" fill="orange" data-tooltip="1.77x baseline speed (YJIT)"/>
<line x1="535.6666666666666" y1="467.8366140943585" x2="541.9333333333333" y2="467.8366140943585" stroke="#000"/>
<line x1="535.6666666666666" y1="468.3958194089795" x2="541.9333333333333" y2="468.3958194089795" stroke="#000"/>
<line x1="538.8" y1="467.8366140943585" x2="538.8" y2="468.3958194089795" stroke="#000"/>
<line x1="538.8" y1="498.0" x2="538.8" y2="502.79999999999995" stroke="#000"/>
<text x="538.8" y="512.4" fill="#111" font-size="small" font-family="monospace" font-weight="bold" text-anchor="end" transform="rotate(-60, 538.8, 512.4)">
matmul
</text>
<rect x="548.2" y="481.1117236013058" width="6.266666666666667" height="16.888276398694178" fill="#7070f8" data-tooltip="1.00x baseline speed (No JIT)"/>
<line x1="548.2" y1="480.91130110881954" x2="554.4666666666667" y2="480.91130110881954" stroke="#000"/>
<line x1="548.2" y1="481.312146093792" x2="554.4666666666667" y2="481.312146093792" stroke="#000"/>
<line x1="551.3333333333334" y1="480.91130110881954" x2="551.3333333333334" y2="481.312146093792" stroke="#000"/>
<rect x="554.4666666666667" y="460.0080575519037" width="6.266666666666667" height="37.99194244809626" fill="orange" data-tooltip="2.25x baseline speed (YJIT)"/>
<line x1="554.4666666666667" y1="459.55472105949326" x2="560.7333333333333" y2="459.55472105949326" stroke="#000"/>
<line x1="554.4666666666667" y1="460.46139404431403" x2="560.7333333333333" y2="460.46139404431403" stroke="#000"/>
<line x1="557.6" y1="459.55472105949326" x2="557.6" y2="460.46139404431403" stroke="#000"/>
<line x1="557.6" y1="498.0" x2="557.6" y2="502.79999999999995" stroke="#000"/>
<text x="557.6" y="512.4" fill="#111" font-size="small" font-family="monospace" font-weight="bold" text-anchor="end" transform="rotate(-60, 557.6, 512.4)">
nbody
</text>
<rect x="567.0000000000001" y="481.1117236013058" width="6.266666666666667" height="16.888276398694178" fill="#7070f8" data-tooltip="1.00x baseline speed (No JIT)"/>
<line x1="567.0000000000001" y1="480.54521652451206" x2="573.2666666666667" y2="480.54521652451206" stroke="#000"/>
<line x1="567.0000000000001" y1="481.6782306780995" x2="573.2666666666667" y2="481.6782306780995" stroke="#000"/>
<line x1="570.1333333333333" y1="480.54521652451206" x2="570.1333333333333" y2="481.6782306780995" stroke="#000"/>
<rect x="573.2666666666667" y="407.30627399684397" width="6.266666666666667" height="90.69372600315593" fill="orange" data-tooltip="5.37x baseline speed (YJIT)"/>
<line x1="573.2666666666667" y1="404.2396557926127" x2="579.5333333333333" y2="404.2396557926127" stroke="#000"/>
<line x1="573.2666666666667" y1="410.3728922010752" x2="579.5333333333333" y2="410.3728922010752" stroke="#000"/>
<line x1="576.4" y1="404.2396557926127" x2="576.4" y2="410.3728922010752" stroke="#000"/>
<line x1="576.4" y1="498.0" x2="576.4" y2="502.79999999999995" stroke="#000"/>
<text x="576.4" y="512.4" fill="#111" font-size="small" font-family="monospace" font-weight="bold" text-anchor="end" transform="rotate(-60, 576.4, 512.4)">
nqueens
</text>
<rect x="585.8" y="481.1117236013058" width="6.266666666666667" height="16.888276398694178" fill="#7070f8" data-tooltip="1.00x baseline speed (No JIT)"/>
<line x1="585.8" y1="480.9997731019711" x2="592.0666666666666" y2="480.9997731019711" stroke="#000"/>
<line x1="585.8" y1="481.2236741006405" x2="592.0666666666666" y2="481.2236741006405" stroke="#000"/>
<line x1="588.9333333333333" y1="480.9997731019711" x2="588.9333333333333" y2="481.2236741006405" stroke="#000"/>
<rect x="592.0666666666666" y="455.04625200314024" width="6.266666666666667" height="42.953747996859704" fill="orange" data-tooltip="2.54x baseline speed (YJIT)"/>
<line x1="592.0666666666666" y1="454.65451654788205" x2="598.3333333333333" y2="454.65451654788205" stroke="#000"/>
<line x1="592.0666666666666" y1="455.4379874583984" x2="598.3333333333333" y2="455.4379874583984" stroke="#000"/>
<line x1="595.1999999999999" y1="454.65451654788205" x2="595.1999999999999" y2="455.4379874583984" stroke="#000"/>
<line x1="595.1999999999999" y1="498.0" x2="595.1999999999999" y2="502.79999999999995" stroke="#000"/>
<text x="595.1999999999999" y="512.4" fill="#111" font-size="small" font-family="monospace" font-weight="bold" text-anchor="end" transform="rotate(-60, 595.1999999999999, 512.4)">
optcarrot
</text>
<rect x="604.6" y="481.1117236013058" width="6.266666666666667" height="16.888276398694178" fill="#7070f8" data-tooltip="1.00x baseline speed (No JIT)"/>
<line x1="604.6" y1="481.0917318711512" x2="610.8666666666667" y2="481.0917318711512" stroke="#000"/>
<line x1="604.6" y1="481.1317153314604" x2="610.8666666666667" y2="481.1317153314604" stroke="#000"/>
<line x1="607.7333333333333" y1="481.0917318711512" x2="607.7333333333333" y2="481.1317153314604" stroke="#000"/>
<rect x="610.8666666666667" y="477.2799175749057" width="6.266666666666667" height="20.720082425094276" fill="orange" data-tooltip="1.23x baseline speed (YJIT)"/>
<line x1="610.8666666666667" y1="477.1828071039057" x2="617.1333333333333" y2="477.1828071039057" stroke="#000"/>
<line x1="610.8666666666667" y1="477.3770280459057" x2="617.1333333333333" y2="477.3770280459057" stroke="#000"/>
<line x1="614.0" y1="477.1828071039057" x2="614.0" y2="477.3770280459057" stroke="#000"/>
<line x1="614.0" y1="498.0" x2="614.0" y2="502.79999999999995" stroke="#000"/>
<text x="614.0" y="512.4" fill="#111" font-size="small" font-family="monospace" font-weight="bold" text-anchor="end" transform="rotate(-60, 614.0, 512.4)">
rack
</text>
<rect x="623.4" y="481.1117236013058" width="6.266666666666667" height="16.888276398694178" fill="#7070f8" data-tooltip="1.00x baseline speed (No JIT)"/>
<line x1="623.4" y1="481.0995342694592" x2="629.6666666666666" y2="481.0995342694592" stroke="#000"/>
<line x1="623.4" y1="481.1239129331524" x2="629.6666666666666" y2="481.1239129331524" stroke="#000"/>
<line x1="626.5333333333333" y1="481.0995342694592" x2="626.5333333333333" y2="481.1239129331524" stroke="#000"/>
<rect x="629.6666666666666" y="477.73174394664676" width="6.266666666666667" height="20.26825605335313" fill="orange" data-tooltip="1.20x baseline speed (YJIT)"/>
<line x1="629.6666666666666" y1="477.716687695555" x2="635.9333333333333" y2="477.716687695555" stroke="#000"/>
<line x1="629.6666666666666" y1="477.7468001977386" x2="635.9333333333333" y2="477.7468001977386" stroke="#000"/>
<line x1="632.8" y1="477.716687695555" x2="632.8" y2="477.7468001977386" stroke="#000"/>
<line x1="632.8" y1="498.0" x2="632.8" y2="502.79999999999995" stroke="#000"/>
<text x="632.8" y="512.4" fill="#111" font-size="small" font-family="monospace" font-weight="bold" text-anchor="end" transform="rotate(-60, 632.8, 512.4)">
ruby-json
</text>
<rect x="642.2" y="481.1117236013058" width="6.266666666666667" height="16.888276398694178" fill="#7070f8" data-tooltip="1.00x baseline speed (No JIT)"/>
<line x1="642.2" y1="481.01126579119693" x2="648.4666666666666" y2="481.01126579119693" stroke="#000"/>
<line x1="642.2" y1="481.2121814114147" x2="648.4666666666666" y2="481.2121814114147" stroke="#000"/>
<line x1="645.3333333333333" y1="481.01126579119693" x2="645.3333333333333" y2="481.2121814114147" stroke="#000"/>
<rect x="648.4666666666666" y="467.4069237314095" width="6.266666666666667" height="30.59307626859047" fill="orange" data-tooltip="1.81x baseline speed (YJIT)"/>
<line x1="648.4666666666666" y1="467.12805737625223" x2="654.7333333333332" y2="467.12805737625223" stroke="#000"/>
<line x1="648.4666666666666" y1="467.6857900865667" x2="654.7333333333332" y2="467.6857900865667" stroke="#000"/>
<line x1="651.5999999999999" y1="467.12805737625223" x2="651.5999999999999" y2="467.6857900865667" stroke="#000"/>
<line x1="651.5999999999999" y1="498.0" x2="651.5999999999999" y2="502.79999999999995" stroke="#000"/>
<text x="651.5999999999999" y="512.4" fill="#111" font-size="small" font-family="monospace" font-weight="bold" text-anchor="end" transform="rotate(-60, 651.5999999999999, 512.4)">
rubykon
</text>
<rect x="661.0" y="481.1117236013058" width="6.266666666666667" height="16.888276398694178" fill="#7070f8" data-tooltip="1.00x baseline speed (No JIT)"/>
<line x1="661.0" y1="481.018072728682" x2="667.2666666666667" y2="481.018072728682" stroke="#000"/>
<line x1="661.0" y1="481.20537447392957" x2="667.2666666666667" y2="481.20537447392957" stroke="#000"/>
<line x1="664.1333333333333" y1="481.018072728682" x2="664.1333333333333" y2="481.20537447392957" stroke="#000"/>
<rect x="667.2666666666667" y="447.4462019889528" width="6.266666666666667" height="50.55379801104714" fill="orange" data-tooltip="2.99x baseline speed (YJIT)"/>
<line x1="667.2666666666667" y1="447.16239599805266" x2="673.5333333333333" y2="447.16239599805266" stroke="#000"/>
<line x1="667.2666666666667" y1="447.730007979853" x2="673.5333333333333" y2="447.730007979853" stroke="#000"/>
<line x1="670.4" y1="447.16239599805266" x2="670.4" y2="447.730007979853" stroke="#000"/>
<line x1="670.4" y1="498.0" x2="670.4" y2="502.79999999999995" stroke="#000"/>
<text x="670.4" y="512.4" fill="#111" font-size="small" font-family="monospace" font-weight="bold" text-anchor="end" transform="rotate(-60, 670.4, 512.4)">
sudoku
</text>
<rect x="679.8" y="481.1117236013058" width="6.266666666666667" height="16.888276398694178" fill="#7070f8" data-tooltip="1.00x baseline speed (No JIT)"/>
<line x1="679.8" y1="481.07955315524936" x2="686.0666666666666" y2="481.07955315524936" stroke="#000"/>
<line x1="679.8" y1="481.1438940473622" x2="686.0666666666666" y2="481.1438940473622" stroke="#000"/>
<line x1="682.9333333333333" y1="481.07955315524936" x2="682.9333333333333" y2="481.1438940473622" stroke="#000"/>
<rect x="686.0666666666666" y="465.5614534647249" width="6.266666666666667" height="32.43854653527506" fill="orange" data-tooltip="1.92x baseline speed (YJIT)"/>
<line x1="686.0666666666666" y1="465.4344124919455" x2="692.3333333333333" y2="465.4344124919455" stroke="#000"/>
<line x1="686.0666666666666" y1="465.6884944375042" x2="692.3333333333333" y2="465.6884944375042" stroke="#000"/>
<line x1="689.1999999999999" y1="465.4344124919455" x2="689.1999999999999" y2="465.6884944375042" stroke="#000"/>
<line x1="689.1999999999999" y1="498.0" x2="689.1999999999999" y2="502.79999999999995" stroke="#000"/>
<text x="689.1999999999999" y="512.4" fill="#111" font-size="small" font-family="monospace" font-weight="bold" text-anchor="end" transform="rotate(-60, 689.1999999999999, 512.4)">
tinygql
</text>
<rect x="698.6" y="481.1117236013058" width="6.266666666666667" height="16.888276398694178" fill="#7070f8" data-tooltip="1.00x baseline speed (No JIT)"/>
<line x1="698.6" y1="481.10077972145564" x2="704.8666666666667" y2="481.10077972145564" stroke="#000"/>
<line x1="698.6" y1="481.12266748115593" x2="704.8666666666667" y2="481.12266748115593" stroke="#000"/>
<line x1="701.7333333333333" y1="481.10077972145564" x2="701.7333333333333" y2="481.12266748115593" stroke="#000"/>
<rect x="704.8666666666667" y="422.65622946868024" width="6.266666666666667" height="75.34377053131966" fill="orange" data-tooltip="4.46x baseline speed (YJIT)"/>
<line x1="704.8666666666667" y1="422.59660991355247" x2="711.1333333333333" y2="422.59660991355247" stroke="#000"/>
<line x1="704.8666666666667" y1="422.715849023808" x2="711.1333333333333" y2="422.715849023808" stroke="#000"/>
<line x1="708.0" y1="422.59660991355247" x2="708.0" y2="422.715849023808" stroke="#000"/>
<line x1="708.0" y1="498.0" x2="708.0" y2="502.79999999999995" stroke="#000"/>
<text x="708.0" y="512.4" fill="#111" font-size="small" font-family="monospace" font-weight="bold" text-anchor="end" transform="rotate(-60, 708.0, 512.4)">
30k_ifelse
</text>
<rect x="717.4000000000001" y="481.1117236013058" width="6.266666666666667" height="16.888276398694178" fill="#7070f8" data-tooltip="1.00x baseline speed (No JIT)"/>
<line x1="717.4000000000001" y1="481.0616618996021" x2="723.6666666666666" y2="481.0616618996021" stroke="#000"/>
<line x1="717.4000000000001" y1="481.1617853030095" x2="723.6666666666666" y2="481.1617853030095" stroke="#000"/>
<line x1="720.5333333333333" y1="481.0616618996021" x2="720.5333333333333" y2="481.1617853030095" stroke="#000"/>
<rect x="723.6666666666666" y="407.14887895955565" width="6.266666666666667" height="90.85112104044428" fill="orange" data-tooltip="5.38x baseline speed (YJIT)"/>
<line x1="723.6666666666666" y1="406.8729968976459" x2="729.9333333333333" y2="406.8729968976459" stroke="#000"/>
<line x1="723.6666666666666" y1="407.4247610214654" x2="729.9333333333333" y2="407.4247610214654" stroke="#000"/>
<line x1="726.8" y1="406.8729968976459" x2="726.8" y2="407.4247610214654" stroke="#000"/>
<line x1="726.8" y1="498.0" x2="726.8" y2="502.79999999999995" stroke="#000"/>
<text x="726.8" y="512.4" fill="#111" font-size="small" font-family="monospace" font-weight="bold" text-anchor="end" transform="rotate(-60, 726.8, 512.4)">
30k_methods
</text>
<rect x="736.1999999999999" y="481.1117236013058" width="6.266666666666667" height="16.888276398694178" fill="#7070f8" data-tooltip="1.00x baseline speed (No JIT)"/>
<line x1="736.1999999999999" y1="481.03178215296344" x2="742.4666666666666" y2="481.03178215296344" stroke="#000"/>
<line x1="736.1999999999999" y1="481.1916650496481" x2="742.4666666666666" y2="481.1916650496481" stroke="#000"/>
<line x1="739.3333333333333" y1="481.03178215296344" x2="739.3333333333333" y2="481.1916650496481" stroke="#000"/>
<rect x="742.4666666666666" y="387.54210365937837" width="6.266666666666667" height="110.4578963406215" fill="orange" data-tooltip="6.54x baseline speed (YJIT)"/>
<line x1="742.4666666666666" y1="386.71860482211804" x2="748.7333333333332" y2="386.71860482211804" stroke="#000"/>
<line x1="742.4666666666666" y1="388.36560249663876" x2="748.7333333333332" y2="388.36560249663876" stroke="#000"/>
<line x1="745.5999999999999" y1="386.71860482211804" x2="745.5999999999999" y2="388.36560249663876" stroke="#000"/>
<line x1="745.5999999999999" y1="498.0" x2="745.5999999999999" y2="502.79999999999995" stroke="#000"/>
<text x="745.5999999999999" y="512.4" fill="#111" font-size="small" font-family="monospace" font-weight="bold" text-anchor="end" transform="rotate(-60, 745.5999999999999, 512.4)">
cfunc_itself
</text>
<rect x="755.0" y="481.1117236013058" width="6.266666666666667" height="16.888276398694178" fill="#7070f8" data-tooltip="1.00x baseline speed (No JIT)"/>
<line x1="755.0" y1="480.7851324284804" x2="761.2666666666667" y2="480.7851324284804" stroke="#000"/>
<line x1="755.0" y1="481.43831477413124" x2="761.2666666666667" y2="481.43831477413124" stroke="#000"/>
<line x1="758.1333333333333" y1="480.7851324284804" x2="758.1333333333333" y2="481.43831477413124" stroke="#000"/>
<rect x="761.2666666666667" y="422.22901105042354" width="6.266666666666667" height="75.77098894957635" fill="orange" data-tooltip="4.49x baseline speed (YJIT)"/>
<line x1="761.2666666666667" y1="420.76371279581446" x2="767.5333333333333" y2="420.76371279581446" stroke="#000"/>
<line x1="761.2666666666667" y1="423.6943093050326" x2="767.5333333333333" y2="423.6943093050326" stroke="#000"/>
<line x1="764.4" y1="420.76371279581446" x2="764.4" y2="423.6943093050326" stroke="#000"/>
<line x1="764.4" y1="498.0" x2="764.4" y2="502.79999999999995" stroke="#000"/>
<text x="764.4" y="512.4" fill="#111" font-size="small" font-family="monospace" font-weight="bold" text-anchor="end" transform="rotate(-60, 764.4, 512.4)">
fib
</text>
<rect x="773.8000000000001" y="481.1117236013058" width="6.266666666666667" height="16.888276398694178" fill="#7070f8" data-tooltip="1.00x baseline speed (No JIT)"/>
<line x1="773.8000000000001" y1="481.0483623420635" x2="780.0666666666667" y2="481.0483623420635" stroke="#000"/>
<line x1="773.8000000000001" y1="481.17508486054805" x2="780.0666666666667" y2="481.17508486054805" stroke="#000"/>
<line x1="776.9333333333334" y1="481.0483623420635" x2="776.9333333333334" y2="481.17508486054805" stroke="#000"/>
<rect x="780.0666666666667" y="394.7779977443922" width="6.266666666666667" height="103.22200225560769" fill="orange" data-tooltip="6.11x baseline speed (YJIT)"/>
<line x1="780.0666666666667" y1="394.39042716628956" x2="786.3333333333334" y2="394.39042716628956" stroke="#000"/>
<line x1="780.0666666666667" y1="395.16556832249495" x2="786.3333333333334" y2="395.16556832249495" stroke="#000"/>
<line x1="783.2" y1="394.39042716628956" x2="783.2" y2="395.16556832249495" stroke="#000"/>
<line x1="783.2" y1="498.0" x2="783.2" y2="502.79999999999995" stroke="#000"/>
<text x="783.2" y="512.4" fill="#111" font-size="small" font-family="monospace" font-weight="bold" text-anchor="end" transform="rotate(-60, 783.2, 512.4)">
getivar
</text>
<rect x="792.6" y="481.1117236013058" width="6.266666666666667" height="16.888276398694178" fill="#7070f8" data-tooltip="1.00x baseline speed (No JIT)"/>
<line x1="792.6" y1="481.10288888263386" x2="798.8666666666666" y2="481.10288888263386" stroke="#000"/>
<line x1="792.6" y1="481.1205583199777" x2="798.8666666666666" y2="481.1205583199777" stroke="#000"/>
<line x1="795.7333333333333" y1="481.10288888263386" x2="795.7333333333333" y2="481.1205583199777" stroke="#000"/>
<rect x="798.8666666666666" y="343.33120957830226" width="6.266666666666667" height="154.66879042169768" fill="orange" data-tooltip="9.16x baseline speed (YJIT)"/>
<line x1="798.8666666666666" y1="343.2483775778065" x2="805.1333333333332" y2="343.2483775778065" stroke="#000"/>
<line x1="798.8666666666666" y1="343.41404157879805" x2="805.1333333333332" y2="343.41404157879805" stroke="#000"/>
<line x1="801.9999999999999" y1="343.2483775778065" x2="801.9999999999999" y2="343.41404157879805" stroke="#000"/>
<line x1="801.9999999999999" y1="498.0" x2="801.9999999999999" y2="502.79999999999995" stroke="#000"/>
<text x="801.9999999999999" y="512.4" fill="#111" font-size="small" font-family="monospace" font-weight="bold" text-anchor="end" transform="rotate(-60, 801.9999999999999, 512.4)">
keyword_args
</text>
<rect x="811.4" y="481.1117236013058" width="6.266666666666667" height="16.888276398694178" fill="#7070f8" data-tooltip="1.00x baseline speed (No JIT)"/>
<line x1="811.4" y1="480.96674110405854" x2="817.6666666666666" y2="480.96674110405854" stroke="#000"/>
<line x1="811.4" y1="481.256706098553" x2="817.6666666666666" y2="481.256706098553" stroke="#000"/>
<line x1="814.5333333333333" y1="480.96674110405854" x2="814.5333333333333" y2="481.256706098553" stroke="#000"/>
<rect x="817.6666666666666" y="100.19999999999999" width="6.266666666666667" height="397.79999999999995" fill="orange" data-tooltip="23.55x baseline speed (YJIT)"/>
<line x1="817.6666666666666" y1="91.70511142921191" x2="823.9333333333333" y2="91.70511142921191" stroke="#000"/>
<line x1="817.6666666666666" y1="108.69488857078807" x2="823.9333333333333" y2="108.69488857078807" stroke="#000"/>
<line x1="820.8" y1="91.70511142921191" x2="820.8" y2="108.69488857078807" stroke="#000"/>
<line x1="820.8" y1="498.0" x2="820.8" y2="502.79999999999995" stroke="#000"/>
<text x="820.8" y="512.4" fill="#111" font-size="small" font-family="monospace" font-weight="bold" text-anchor="end" transform="rotate(-60, 820.8, 512.4)">
respond_to
</text>
<rect x="830.2" y="481.1117236013058" width="6.266666666666667" height="16.888276398694178" fill="#7070f8" data-tooltip="1.00x baseline speed (No JIT)"/>
<line x1="830.2" y1="480.752202171059" x2="836.4666666666667" y2="480.752202171059" stroke="#000"/>
<line x1="830.2" y1="481.47124503155254" x2="836.4666666666667" y2="481.47124503155254" stroke="#000"/>
<line x1="833.3333333333334" y1="480.752202171059" x2="833.3333333333334" y2="481.47124503155254" stroke="#000"/>
<rect x="836.4666666666667" y="416.14529173817283" width="6.266666666666667" height="81.85470826182708" fill="orange" data-tooltip="4.85x baseline speed (YJIT)"/>
<line x1="836.4666666666667" y1="414.4017153104403" x2="842.7333333333333" y2="414.4017153104403" stroke="#000"/>
<line x1="836.4666666666667" y1="417.8888681659054" x2="842.7333333333333" y2="417.8888681659054" stroke="#000"/>
<line x1="839.6" y1="414.4017153104403" x2="839.6" y2="417.8888681659054" stroke="#000"/>
<line x1="839.6" y1="498.0" x2="839.6" y2="502.79999999999995" stroke="#000"/>
<text x="839.6" y="512.4" fill="#111" font-size="small" font-family="monospace" font-weight="bold" text-anchor="end" transform="rotate(-60, 839.6, 512.4)">
ruby-xor
</text>
<rect x="849.0" y="481.1117236013058" width="6.266666666666667" height="16.888276398694178" fill="#7070f8" data-tooltip="1.00x baseline speed (No JIT)"/>
<line x1="849.0" y1="481.0830198502744" x2="855.2666666666667" y2="481.0830198502744" stroke="#000"/>
<line x1="849.0" y1="481.14042735233716" x2="855.2666666666667" y2="481.14042735233716" stroke="#000"/>
<line x1="852.1333333333333" y1="481.0830198502744" x2="852.1333333333333" y2="481.14042735233716" stroke="#000"/>
<rect x="855.2666666666667" y="389.26346238743315" width="6.266666666666667" height="108.73653761256683" fill="orange" data-tooltip="6.44x baseline speed (YJIT)"/>
<line x1="855.2666666666667" y1="389.07746591397705" x2="861.5333333333333" y2="389.07746591397705" stroke="#000"/>
<line x1="855.2666666666667" y1="389.4494588608892" x2="861.5333333333333" y2="389.4494588608892" stroke="#000"/>
<line x1="858.4" y1="389.07746591397705" x2="858.4" y2="389.4494588608892" stroke="#000"/>
<line x1="858.4" y1="498.0" x2="858.4" y2="502.79999999999995" stroke="#000"/>
<text x="858.4" y="512.4" fill="#111" font-size="small" font-family="monospace" font-weight="bold" text-anchor="end" transform="rotate(-60, 858.4, 512.4)">
setivar
</text>
<rect x="867.8000000000001" y="481.1117236013058" width="6.266666666666667" height="16.888276398694178" fill="#7070f8" data-tooltip="1.00x baseline speed (No JIT)"/>
<line x1="867.8000000000001" y1="481.08804839770113" x2="874.0666666666666" y2="481.08804839770113" stroke="#000"/>
<line x1="867.8000000000001" y1="481.13539880491044" x2="874.0666666666666" y2="481.13539880491044" stroke="#000"/>
<line x1="870.9333333333334" y1="481.08804839770113" x2="870.9333333333334" y2="481.13539880491044" stroke="#000"/>
<rect x="874.0666666666666" y="452.726101195674" width="6.266666666666667" height="45.273898804325945" fill="orange" data-tooltip="2.68x baseline speed (YJIT)"/>
<line x1="874.0666666666666" y1="452.66252124623236" x2="880.3333333333333" y2="452.66252124623236" stroke="#000"/>
<line x1="874.0666666666666" y1="452.7896811451156" x2="880.3333333333333" y2="452.7896811451156" stroke="#000"/>
<line x1="877.1999999999999" y1="452.66252124623236" x2="877.1999999999999" y2="452.7896811451156" stroke="#000"/>
<line x1="877.1999999999999" y1="498.0" x2="877.1999999999999" y2="502.79999999999995" stroke="#000"/>
<text x="877.1999999999999" y="512.4" fill="#111" font-size="small" font-family="monospace" font-weight="bold" text-anchor="end" transform="rotate(-60, 877.1999999999999, 512.4)">
setivar_object
</text>
<rect x="886.6" y="481.1117236013058" width="6.266666666666667" height="16.888276398694178" fill="#7070f8" data-tooltip="1.00x baseline speed (No JIT)"/>
<line x1="886.6" y1="481.07146081312635" x2="892.8666666666667" y2="481.07146081312635" stroke="#000"/>
<line x1="886.6" y1="481.1519863894852" x2="892.8666666666667" y2="481.1519863894852" stroke="#000"/>
<line x1="889.7333333333333" y1="481.07146081312635" x2="889.7333333333333" y2="481.1519863894852" stroke="#000"/>
<rect x="892.8666666666667" y="452.4855750365765" width="6.266666666666667" height="45.51442496342339" fill="orange" data-tooltip="2.70x baseline speed (YJIT)"/>
<line x1="892.8666666666667" y1="452.37698087682907" x2="899.1333333333333" y2="452.37698087682907" stroke="#000"/>
<line x1="892.8666666666667" y1="452.59416919632395" x2="899.1333333333333" y2="452.59416919632395" stroke="#000"/>
<line x1="896.0" y1="452.37698087682907" x2="896.0" y2="452.59416919632395" stroke="#000"/>
<line x1="896.0" y1="498.0" x2="896.0" y2="502.79999999999995" stroke="#000"/>
<text x="896.0" y="512.4" fill="#111" font-size="small" font-family="monospace" font-weight="bold" text-anchor="end" transform="rotate(-60, 896.0, 512.4)">
setivar_young
</text>
<rect x="905.4" y="481.1117236013058" width="6.266666666666667" height="16.888276398694178" fill="#7070f8" data-tooltip="1.00x baseline speed (No JIT)"/>
<line x1="905.4" y1="481.09548357741" x2="911.6666666666666" y2="481.09548357741" stroke="#000"/>
<line x1="905.4" y1="481.1279636252016" x2="911.6666666666666" y2="481.1279636252016" stroke="#000"/>
<line x1="908.5333333333333" y1="481.09548357741" x2="908.5333333333333" y2="481.1279636252016" stroke="#000"/>
<rect x="911.6666666666666" y="461.6058786110648" width="6.266666666666667" height="36.394121388935126" fill="orange" data-tooltip="2.15x baseline speed (YJIT)"/>
<line x1="911.6666666666666" y1="461.5125349856025" x2="917.9333333333333" y2="461.5125349856025" stroke="#000"/>
<line x1="911.6666666666666" y1="461.6992222365271" x2="917.9333333333333" y2="461.6992222365271" stroke="#000"/>
<line x1="914.8" y1="461.5125349856025" x2="914.8" y2="461.6992222365271" stroke="#000"/>
<line x1="914.8" y1="498.0" x2="914.8" y2="502.79999999999995" stroke="#000"/>
<text x="914.8" y="512.4" fill="#111" font-size="small" font-family="monospace" font-weight="bold" text-anchor="end" transform="rotate(-60, 914.8, 512.4)">
str_concat
</text>
<rect x="924.2" y="481.1117236013058" width="6.266666666666667" height="16.888276398694178" fill="#7070f8" data-tooltip="1.00x baseline speed (No JIT)"/>
<line x1="924.2" y1="481.0123899035989" x2="930.4666666666667" y2="481.0123899035989" stroke="#000"/>
<line x1="924.2" y1="481.2110572990127" x2="930.4666666666667" y2="481.2110572990127" stroke="#000"/>
<line x1="927.3333333333334" y1="481.0123899035989" x2="927.3333333333334" y2="481.2110572990127" stroke="#000"/>
<rect x="930.4666666666667" y="472.53836695359144" width="6.266666666666667" height="25.461633046408544" fill="orange" data-tooltip="1.51x baseline speed (YJIT)"/>
<line x1="930.4666666666667" y1="472.3466833163536" x2="936.7333333333333" y2="472.3466833163536" stroke="#000"/>
<line x1="930.4666666666667" y1="472.7300505908292" x2="936.7333333333333" y2="472.7300505908292" stroke="#000"/>
<line x1="933.6" y1="472.3466833163536" x2="933.6" y2="472.7300505908292" stroke="#000"/>
<line x1="933.6" y1="498.0" x2="933.6" y2="502.79999999999995" stroke="#000"/>
<text x="933.6" y="512.4" fill="#111" font-size="small" font-family="monospace" font-weight="bold" text-anchor="end" transform="rotate(-60, 933.6, 512.4)">
throw
</text>
</svg>