<svg viewBox="0 0 1000 600" xmlns="http://www.w3.org/2000/svg" xmlns:xlink="http://www.w3.org/1999/xlink" width="100%" height="100%">

<rect x="50.0" y="30.0" width="940.0" height="467.99999999999994" stroke="#000" fill="#fff"/>
<line x1="42.0" y1="497.9999999999999" x2="50.0" y2="497.9999999999999" stroke="#000"/>
<text x="26.000000000000004" y="497.9999999999999" text-anchor="end" font-weight="bold" font-size="small" fill="#111">
0.0
</text>
<line x1="42.0" y1="430.0817991631798" x2="50.0" y2="430.0817991631798" stroke="#000"/>
<text x="26.000000000000004" y="430.0817991631798" text-anchor="end" font-weight="bold" font-size="small" fill="#111">
0.5
</text>
<line x1="42.0" y1="362.1635983263598" x2="50.0" y2="362.1635983263598" stroke="#000"/>
<text x="26.000000000000004" y="362.1635983263598" text-anchor="end" font-weight="bold" font-size="small" fill="#111">
1.0
</text>
<line x1="42.0" y1="294.2453974895397" x2="50.0" y2="294.2453974895397" stroke="#000"/>
<text x="26.000000000000004" y="294.2453974895397" text-anchor="end" font-weight="bold" font-size="small" fill="#111">
1.5
</text>
<line x1="42.0" y1="226.32719665271964" x2="50.0" y2="226.32719665271964" stroke="#000"/>
<text x="26.000000000000004" y="226.32719665271964" text-anchor="end" font-weight="bold" font-size="small" fill="#111">
2.0
</text>
<line x1="42.0" y1="158.4089958158996" x2="50.0" y2="158.4089958158996" stroke="#000"/>
<text x="26.000000000000004" y="158.4089958158996" text-anchor="end" font-weight="bold" font-size="small" fill="#111">
2.5
</text>
<line x1="142.75" y1="54.60000000000001" x2="262.75" y2="54.60000000000001" stroke="#648FFF" stroke-width="2"/>
<text x="202.75" y="49.500000000000014" font-size="small" text-anchor="middle" font-weight="bold" fill="#000">
CRuby 3.3.3
</text>
<rect x="354.25" y="35.400000000000006" width="120.0" height="19.2" fill="#785EF0" stroke="none"/>
<text x="414.25" y="49.500000000000014" font-size="small" text-anchor="middle" font-weight="bold" fill="#fff" style="text-shadow: 0 0 1px #000;">
CRuby 3.4.0dev
</text>
<rect x="565.75" y="35.400000000000006" width="120.0" height="19.2" fill="#FFB000" stroke="none"/>
<text x="625.7499999999999" y="49.500000000000014" font-size="small" text-anchor="middle" font-weight="bold" fill="#fff" style="text-shadow: 0 0 1px #000;">
YJIT 3.3.3
</text>
<rect x="777.25" y="35.400000000000006" width="120.0" height="19.2" fill="#DC267F" stroke="none"/>
<text x="837.2499999999999" y="49.500000000000014" font-size="small" text-anchor="middle" font-weight="bold" fill="#fff" style="text-shadow: 0 0 1px #000;">
YJIT 3.4.0dev
</text>
<rect x="54.870466321243526" y="350.17248175939693" width="4.870466321243523" height="147.82751824060304" fill="#785EF0" data-tooltip="1.09x baseline (CRuby 3.4.0dev)"/>
<rect x="59.740932642487046" y="336.045416508178" width="4.870466321243523" height="161.95458349182198" fill="#FFB000" data-tooltip="1.19x baseline (YJIT 3.3.3)"/>
<rect x="64.61139896373057" y="330.2634530931221" width="4.870466321243523" height="167.7365469068778" fill="#DC267F" data-tooltip="1.23x baseline (YJIT 3.4.0dev)"/>
<line x1="62.17616580310881" y1="498.0" x2="62.17616580310881" y2="502.79999999999995" stroke="#000"/>
<text x="62.17616580310881" y="512.4" fill="#111" font-size="small" text-anchor="end" transform="rotate(-60, 62.17616580310881, 512.4)">
activerecord
</text>
<rect x="74.35233160621762" y="351.0700059772863" width="4.870466321243523" height="146.92999402271366" fill="#785EF0" data-tooltip="1.08x baseline (CRuby 3.4.0dev)"/>
<rect x="79.22279792746113" y="370.15464833632194" width="4.870466321243523" height="127.84535166367799" fill="#FFB000" data-tooltip="0.94x baseline (YJIT 3.3.3)"/>
<rect x="84.09326424870466" y="338.2591392707711" width="4.870466321243523" height="159.74086072922893" fill="#DC267F" data-tooltip="1.18x baseline (YJIT 3.4.0dev)"/>
<line x1="81.6580310880829" y1="498.0" x2="81.6580310880829" y2="502.79999999999995" stroke="#000"/>
<text x="81.6580310880829" y="512.4" fill="#111" font-size="small" text-anchor="end" transform="rotate(-60, 81.6580310880829, 512.4)">
chunky-png
</text>
<rect x="93.8341968911917" y="346.2416381712531" width="4.870466321243523" height="151.75836182874687" fill="#785EF0" data-tooltip="1.12x baseline (CRuby 3.4.0dev)"/>
<rect x="98.70466321243522" y="344.85863579281676" width="4.870466321243523" height="153.14136420718313" fill="#FFB000" data-tooltip="1.13x baseline (YJIT 3.3.3)"/>
<rect x="103.57512953367875" y="335.55532987736945" width="4.870466321243523" height="162.4446701226305" fill="#DC267F" data-tooltip="1.20x baseline (YJIT 3.4.0dev)"/>
<line x1="101.13989637305698" y1="498.0" x2="101.13989637305698" y2="502.79999999999995" stroke="#000"/>
<text x="101.13989637305698" y="512.4" fill="#111" font-size="small" text-anchor="end" transform="rotate(-60, 101.13989637305698, 512.4)">
erubi-rails
</text>
<rect x="113.31606217616579" y="378.339406428017" width="4.870466321243523" height="119.66059357198299" fill="#785EF0" data-tooltip="0.88x baseline (CRuby 3.4.0dev)"/>
<rect x="118.18652849740931" y="267.78346174373854" width="4.870466321243523" height="230.21653825626143" fill="#FFB000" data-tooltip="1.69x baseline (YJIT 3.3.3)"/>
<rect x="123.05699481865283" y="263.59957445331867" width="4.870466321243523" height="234.40042554668125" fill="#DC267F" data-tooltip="1.73x baseline (YJIT 3.4.0dev)"/>
<line x1="120.62176165803108" y1="498.0" x2="120.62176165803108" y2="502.79999999999995" stroke="#000"/>
<text x="120.62176165803108" y="512.4" fill="#111" font-size="small" text-anchor="end" transform="rotate(-60, 120.62176165803108, 512.4)">
hexapdf
</text>
<rect x="132.7979274611399" y="358.15796358787213" width="4.870466321243523" height="139.8420364121278" fill="#785EF0" data-tooltip="1.03x baseline (CRuby 3.4.0dev)"/>
<rect x="137.66839378238342" y="341.6026554815118" width="4.870466321243523" height="156.39734451848804" fill="#FFB000" data-tooltip="1.15x baseline (YJIT 3.3.3)"/>
<rect x="142.53886010362692" y="340.3397952683926" width="4.870466321243523" height="157.66020473160734" fill="#DC267F" data-tooltip="1.16x baseline (YJIT 3.4.0dev)"/>
<line x1="140.10362694300517" y1="498.0" x2="140.10362694300517" y2="502.79999999999995" stroke="#000"/>
<text x="140.10362694300517" y="512.4" fill="#111" font-size="small" text-anchor="end" transform="rotate(-60, 140.10362694300517, 512.4)">
liquid-c
</text>
<rect x="152.27979274611397" y="345.5949973208076" width="4.870466321243523" height="152.40500267919234" fill="#785EF0" data-tooltip="1.12x baseline (CRuby 3.4.0dev)"/>
<rect x="157.1502590673575" y="343.6137322859781" width="4.870466321243523" height="154.38626771402184" fill="#FFB000" data-tooltip="1.14x baseline (YJIT 3.3.3)"/>
<rect x="162.02072538860102" y="327.72006772086235" width="4.870466321243523" height="170.27993227913763" fill="#DC267F" data-tooltip="1.25x baseline (YJIT 3.4.0dev)"/>
<line x1="159.58549222797924" y1="498.0" x2="159.58549222797924" y2="502.79999999999995" stroke="#000"/>
<text x="159.58549222797924" y="512.4" fill="#111" font-size="small" text-anchor="end" transform="rotate(-60, 159.58549222797924, 512.4)">
liquid-compile
</text>
<rect x="171.76165803108805" y="347.944093167068" width="4.870466321243523" height="150.05590683293198" fill="#785EF0" data-tooltip="1.10x baseline (CRuby 3.4.0dev)"/>
<rect x="176.63212435233157" y="336.1322321519688" width="4.870466321243523" height="161.86776784803112" fill="#FFB000" data-tooltip="1.19x baseline (YJIT 3.3.3)"/>
<rect x="181.5025906735751" y="326.11067062870524" width="4.870466321243523" height="171.88932937129468" fill="#DC267F" data-tooltip="1.27x baseline (YJIT 3.4.0dev)"/>
<line x1="179.06735751295332" y1="498.0" x2="179.06735751295332" y2="502.79999999999995" stroke="#000"/>
<text x="179.06735751295332" y="512.4" fill="#111" font-size="small" text-anchor="end" transform="rotate(-60, 179.06735751295332, 512.4)">
liquid-render
</text>
<rect x="191.24352331606215" y="367.22143205099826" width="4.870466321243523" height="130.77856794900165" fill="#785EF0" data-tooltip="0.96x baseline (CRuby 3.4.0dev)"/>
<rect x="196.11398963730568" y="337.4561104623618" width="4.870466321243523" height="160.5438895376381" fill="#FFB000" data-tooltip="1.18x baseline (YJIT 3.3.3)"/>
<rect x="200.98445595854918" y="340.9999805671793" width="4.870466321243523" height="157.00001943282058" fill="#DC267F" data-tooltip="1.16x baseline (YJIT 3.4.0dev)"/>
<line x1="198.54922279792743" y1="498.0" x2="198.54922279792743" y2="502.79999999999995" stroke="#000"/>
<text x="198.54922279792743" y="512.4" fill="#111" font-size="small" text-anchor="end" transform="rotate(-60, 198.54922279792743, 512.4)">
lobsters
</text>
<rect x="210.72538860103623" y="306.7113963773105" width="4.870466321243523" height="191.28860362268944" fill="#785EF0" data-tooltip="1.41x baseline (CRuby 3.4.0dev)"/>
<rect x="215.59585492227976" y="347.7816429592863" width="4.870466321243523" height="150.2183570407136" fill="#FFB000" data-tooltip="1.11x baseline (YJIT 3.3.3)"/>
<rect x="220.46632124352328" y="290.20469440177953" width="4.870466321243523" height="207.79530559822038" fill="#DC267F" data-tooltip="1.53x baseline (YJIT 3.4.0dev)"/>
<line x1="218.0310880829015" y1="498.0" x2="218.0310880829015" y2="502.79999999999995" stroke="#000"/>
<text x="218.0310880829015" y="512.4" fill="#111" font-size="small" text-anchor="end" transform="rotate(-60, 218.0310880829015, 512.4)">
mail
</text>
<rect x="230.20725388601034" y="343.4792316056306" width="4.870466321243523" height="154.52076839436933" fill="#785EF0" data-tooltip="1.14x baseline (CRuby 3.4.0dev)"/>
<rect x="235.07772020725383" y="351.22743791806863" width="4.870466321243523" height="146.77256208193134" fill="#FFB000" data-tooltip="1.08x baseline (YJIT 3.3.3)"/>
<rect x="239.94818652849736" y="331.50856953709564" width="4.870466321243523" height="166.49143046290428" fill="#DC267F" data-tooltip="1.23x baseline (YJIT 3.4.0dev)"/>
<line x1="237.51295336787558" y1="498.0" x2="237.51295336787558" y2="502.79999999999995" stroke="#000"/>
<text x="237.51295336787558" y="512.4" fill="#111" font-size="small" text-anchor="end" transform="rotate(-60, 237.51295336787558, 512.4)">
psych-load
</text>
<rect x="249.6891191709844" y="354.7088524262384" width="4.870466321243523" height="143.29114757376152" fill="#785EF0" data-tooltip="1.05x baseline (CRuby 3.4.0dev)"/>
<rect x="254.55958549222797" y="340.3853723974338" width="4.870466321243523" height="157.61462760256617" fill="#FFB000" data-tooltip="1.16x baseline (YJIT 3.3.3)"/>
<rect x="259.4300518134715" y="340.2106958117167" width="4.870466321243523" height="157.78930418828327" fill="#DC267F" data-tooltip="1.16x baseline (YJIT 3.4.0dev)"/>
<line x1="256.9948186528498" y1="498.0" x2="256.9948186528498" y2="502.79999999999995" stroke="#000"/>
<text x="256.9948186528498" y="512.4" fill="#111" font-size="small" text-anchor="end" transform="rotate(-60, 256.9948186528498, 512.4)">
railsbench
</text>
<rect x="269.1709844559586" y="355.11945561449085" width="4.870466321243523" height="142.88054438550913" fill="#785EF0" data-tooltip="1.05x baseline (CRuby 3.4.0dev)"/>
<rect x="274.04145077720216" y="303.0620005779355" width="4.870466321243523" height="194.93799942206442" fill="#FFB000" data-tooltip="1.44x baseline (YJIT 3.3.3)"/>
<rect x="278.9119170984457" y="295.6130971170991" width="4.870466321243523" height="202.38690288290084" fill="#DC267F" data-tooltip="1.49x baseline (YJIT 3.4.0dev)"/>
<line x1="276.47668393782396" y1="498.0" x2="276.47668393782396" y2="502.79999999999995" stroke="#000"/>
<text x="276.47668393782396" y="512.4" fill="#111" font-size="small" text-anchor="end" transform="rotate(-60, 276.47668393782396, 512.4)">
rubocop
</text>
<rect x="288.6528497409328" y="331.0504559225601" width="4.870466321243523" height="166.94954407743987" fill="#785EF0" data-tooltip="1.23x baseline (CRuby 3.4.0dev)"/>
<rect x="293.5233160621764" y="346.95184029918886" width="4.870466321243523" height="151.0481597008111" fill="#FFB000" data-tooltip="1.11x baseline (YJIT 3.3.3)"/>
<rect x="298.3937823834199" y="313.71984592314203" width="4.870466321243523" height="184.280154076858" fill="#DC267F" data-tooltip="1.36x baseline (YJIT 3.4.0dev)"/>
<line x1="295.9585492227982" y1="498.0" x2="295.9585492227982" y2="502.79999999999995" stroke="#000"/>
<text x="295.9585492227982" y="512.4" fill="#111" font-size="small" text-anchor="end" transform="rotate(-60, 295.9585492227982, 512.4)">
ruby-lsp
</text>
<rect x="308.134715025907" y="349.235518037658" width="4.870466321243523" height="148.76448196234196" fill="#785EF0" data-tooltip="1.10x baseline (CRuby 3.4.0dev)"/>
<rect x="313.00518134715054" y="342.6432957941273" width="4.870466321243523" height="155.3567042058726" fill="#FFB000" data-tooltip="1.14x baseline (YJIT 3.3.3)"/>
<rect x="317.8756476683941" y="337.0399068871262" width="4.870466321243523" height="160.96009311287366" fill="#DC267F" data-tooltip="1.18x baseline (YJIT 3.4.0dev)"/>
<line x1="315.4404145077724" y1="498.0" x2="315.4404145077724" y2="502.79999999999995" stroke="#000"/>
<text x="315.4404145077724" y="512.4" fill="#111" font-size="small" text-anchor="end" transform="rotate(-60, 315.4404145077724, 512.4)">
sequel
</text>
<rect x="327.6165803108812" y="355.6728210788194" width="4.870466321243523" height="142.32717892118058" fill="#785EF0" data-tooltip="1.05x baseline (CRuby 3.4.0dev)"/>
<rect x="332.48704663212476" y="361.0475370801763" width="4.870466321243523" height="136.95246291982355" fill="#FFB000" data-tooltip="1.01x baseline (YJIT 3.3.3)"/>
<rect x="337.3575129533683" y="348.7121233065701" width="4.870466321243523" height="149.2878766934298" fill="#DC267F" data-tooltip="1.10x baseline (YJIT 3.4.0dev)"/>
<line x1="334.92227979274656" y1="498.0" x2="334.92227979274656" y2="502.79999999999995" stroke="#000"/>
<text x="334.92227979274656" y="512.4" fill="#111" font-size="small" text-anchor="end" transform="rotate(-60, 334.92227979274656, 512.4)">
binarytrees
</text>
<rect x="347.0984455958554" y="344.2551220518978" width="4.870466321243523" height="153.7448779481021" fill="#785EF0" data-tooltip="1.13x baseline (CRuby 3.4.0dev)"/>
<rect x="351.9689119170989" y="358.508807249939" width="4.870466321243523" height="139.49119275006097" fill="#FFB000" data-tooltip="1.03x baseline (YJIT 3.3.3)"/>
<rect x="356.8393782383425" y="340.03180791914485" width="4.870466321243523" height="157.96819208085506" fill="#DC267F" data-tooltip="1.16x baseline (YJIT 3.4.0dev)"/>
<line x1="354.4041450777208" y1="498.0" x2="354.4041450777208" y2="502.79999999999995" stroke="#000"/>
<text x="354.4041450777208" y="512.4" fill="#111" font-size="small" text-anchor="end" transform="rotate(-60, 354.4041450777208, 512.4)">
blurhash
</text>
<rect x="366.5803108808296" y="351.90570220436064" width="4.870466321243523" height="146.0942977956393" fill="#785EF0" data-tooltip="1.08x baseline (CRuby 3.4.0dev)"/>
<rect x="371.45077720207314" y="351.2847641824478" width="4.870466321243523" height="146.7152358175521" fill="#FFB000" data-tooltip="1.08x baseline (YJIT 3.3.3)"/>
<rect x="376.3212435233167" y="342.19423154164474" width="4.870466321243523" height="155.8057684583552" fill="#DC267F" data-tooltip="1.15x baseline (YJIT 3.4.0dev)"/>
<line x1="373.886010362695" y1="498.0" x2="373.886010362695" y2="502.79999999999995" stroke="#000"/>
<text x="373.886010362695" y="512.4" fill="#111" font-size="small" text-anchor="end" transform="rotate(-60, 373.886010362695, 512.4)">
erubi
</text>
<rect x="386.0621761658038" y="348.2017511598004" width="4.870466321243523" height="149.79824884019956" fill="#785EF0" data-tooltip="1.10x baseline (CRuby 3.4.0dev)"/>
<rect x="390.93264248704736" y="359.08845730486445" width="4.870466321243523" height="138.91154269513552" fill="#FFB000" data-tooltip="1.02x baseline (YJIT 3.3.3)"/>
<rect x="395.8031088082909" y="345.2326494838738" width="4.870466321243523" height="152.76735051612613" fill="#DC267F" data-tooltip="1.12x baseline (YJIT 3.4.0dev)"/>
<line x1="393.36787564766917" y1="498.0" x2="393.36787564766917" y2="502.79999999999995" stroke="#000"/>
<text x="393.36787564766917" y="512.4" fill="#111" font-size="small" text-anchor="end" transform="rotate(-60, 393.36787564766917, 512.4)">
etanni
</text>
<rect x="405.54404145077797" y="344.14448381863207" width="4.870466321243523" height="153.85551618136793" fill="#785EF0" data-tooltip="1.13x baseline (CRuby 3.4.0dev)"/>
<rect x="410.4145077720215" y="360.1068259507878" width="4.870466321243523" height="137.89317404921204" fill="#FFB000" data-tooltip="1.02x baseline (YJIT 3.3.3)"/>
<rect x="415.2849740932651" y="340.4333510540131" width="4.870466321243523" height="157.5666489459868" fill="#DC267F" data-tooltip="1.16x baseline (YJIT 3.4.0dev)"/>
<line x1="412.8497409326434" y1="498.0" x2="412.8497409326434" y2="502.79999999999995" stroke="#000"/>
<text x="412.8497409326434" y="512.4" fill="#111" font-size="small" text-anchor="end" transform="rotate(-60, 412.8497409326434, 512.4)">
fannkuchredux
</text>
<rect x="425.0259067357522" y="360.25975940940333" width="4.870466321243523" height="137.74024059059664" fill="#785EF0" data-tooltip="1.01x baseline (CRuby 3.4.0dev)"/>
<rect x="429.89637305699574" y="352.6998727325788" width="4.870466321243523" height="145.30012726742112" fill="#FFB000" data-tooltip="1.07x baseline (YJIT 3.3.3)"/>
<rect x="434.7668393782393" y="348.2900879479554" width="4.870466321243523" height="149.70991205204453" fill="#DC267F" data-tooltip="1.10x baseline (YJIT 3.4.0dev)"/>
<line x1="432.33160621761755" y1="498.0" x2="432.33160621761755" y2="502.79999999999995" stroke="#000"/>
<text x="432.33160621761755" y="512.4" fill="#111" font-size="small" text-anchor="end" transform="rotate(-60, 432.33160621761755, 512.4)">
fluentd
</text>
<rect x="444.5077720207264" y="359.4737685902481" width="4.870466321243523" height="138.52623140975186" fill="#785EF0" data-tooltip="1.02x baseline (CRuby 3.4.0dev)"/>
<rect x="449.37823834196996" y="351.30587097693336" width="4.870466321243523" height="146.69412902306658" fill="#FFB000" data-tooltip="1.08x baseline (YJIT 3.3.3)"/>
<rect x="454.24870466321346" y="341.4158262764739" width="4.870466321243523" height="156.584173723526" fill="#DC267F" data-tooltip="1.15x baseline (YJIT 3.4.0dev)"/>
<line x1="451.81347150259177" y1="498.0" x2="451.81347150259177" y2="502.79999999999995" stroke="#000"/>
<text x="451.81347150259177" y="512.4" fill="#111" font-size="small" text-anchor="end" transform="rotate(-60, 451.81347150259177, 512.4)">
graphql
</text>
<rect x="463.98963730570057" y="346.7187467868367" width="4.870466321243523" height="151.28125321316327" fill="#785EF0" data-tooltip="1.11x baseline (CRuby 3.4.0dev)"/>
<rect x="468.8601036269441" y="350.8290701804195" width="4.870466321243523" height="147.1709298195805" fill="#FFB000" data-tooltip="1.08x baseline (YJIT 3.3.3)"/>
<rect x="473.7305699481877" y="338.99632101707505" width="4.870466321243523" height="159.00367898292487" fill="#DC267F" data-tooltip="1.17x baseline (YJIT 3.4.0dev)"/>
<line x1="471.295336787566" y1="498.0" x2="471.295336787566" y2="502.79999999999995" stroke="#000"/>
<text x="471.295336787566" y="512.4" fill="#111" font-size="small" text-anchor="end" transform="rotate(-60, 471.295336787566, 512.4)">
graphql-native
</text>
<rect x="483.4715025906748" y="361.8567389852296" width="4.870466321243523" height="136.14326101477033" fill="#785EF0" data-tooltip="1.00x baseline (CRuby 3.4.0dev)"/>
<rect x="488.34196891191834" y="348.1503550814134" width="4.870466321243523" height="149.84964491858645" fill="#FFB000" data-tooltip="1.10x baseline (YJIT 3.3.3)"/>
<rect x="493.2124352331619" y="354.32845648283507" width="4.870466321243523" height="143.67154351716488" fill="#DC267F" data-tooltip="1.06x baseline (YJIT 3.4.0dev)"/>
<line x1="490.77720207254015" y1="498.0" x2="490.77720207254015" y2="502.79999999999995" stroke="#000"/>
<text x="490.77720207254015" y="512.4" fill="#111" font-size="small" text-anchor="end" transform="rotate(-60, 490.77720207254015, 512.4)">
lee
</text>
<rect x="502.95336787564895" y="357.4118461474305" width="4.870466321243523" height="140.5881538525695" fill="#785EF0" data-tooltip="1.03x baseline (CRuby 3.4.0dev)"/>
<rect x="507.82383419689245" y="360.4381017250726" width="4.870466321243523" height="137.56189827492733" fill="#FFB000" data-tooltip="1.01x baseline (YJIT 3.3.3)"/>
<rect x="512.6943005181361" y="355.6332573430267" width="4.870466321243523" height="142.36674265697326" fill="#DC267F" data-tooltip="1.05x baseline (YJIT 3.4.0dev)"/>
<line x1="510.25906735751425" y1="498.0" x2="510.25906735751425" y2="502.79999999999995" stroke="#000"/>
<text x="510.25906735751425" y="512.4" fill="#111" font-size="small" text-anchor="end" transform="rotate(-60, 510.25906735751425, 512.4)">
matmul
</text>
<rect x="522.4352331606232" y="343.89424999208853" width="4.870466321243523" height="154.10575000791138" fill="#785EF0" data-tooltip="1.13x baseline (CRuby 3.4.0dev)"/>
<rect x="527.3056994818667" y="359.6175033262291" width="4.870466321243523" height="138.38249667377085" fill="#FFB000" data-tooltip="1.02x baseline (YJIT 3.3.3)"/>
<rect x="532.1761658031103" y="340.9014716586016" width="4.870466321243523" height="157.09852834139835" fill="#DC267F" data-tooltip="1.16x baseline (YJIT 3.4.0dev)"/>
<line x1="529.7409326424885" y1="498.0" x2="529.7409326424885" y2="502.79999999999995" stroke="#000"/>
<text x="529.7409326424885" y="512.4" fill="#111" font-size="small" text-anchor="end" transform="rotate(-60, 529.7409326424885, 512.4)">
nbody
</text>
<rect x="541.9170984455973" y="346.88035623698806" width="4.870466321243523" height="151.11964376301188" fill="#785EF0" data-tooltip="1.11x baseline (CRuby 3.4.0dev)"/>
<rect x="546.7875647668409" y="360.40690383332856" width="4.870466321243523" height="137.5930961666714" fill="#FFB000" data-tooltip="1.01x baseline (YJIT 3.3.3)"/>
<rect x="551.6580310880844" y="332.9585523797155" width="4.870466321243523" height="165.04144762028443" fill="#DC267F" data-tooltip="1.22x baseline (YJIT 3.4.0dev)"/>
<line x1="549.2227979274627" y1="498.0" x2="549.2227979274627" y2="502.79999999999995" stroke="#000"/>
<text x="549.2227979274627" y="512.4" fill="#111" font-size="small" text-anchor="end" transform="rotate(-60, 549.2227979274627, 512.4)">
nqueens
</text>
<rect x="561.3989637305715" y="368.3221519509099" width="4.870466321243523" height="129.67784804909" fill="#785EF0" data-tooltip="0.95x baseline (CRuby 3.4.0dev)"/>
<rect x="566.2694300518151" y="354.01520508159956" width="4.870466321243523" height="143.98479491840035" fill="#FFB000" data-tooltip="1.06x baseline (YJIT 3.3.3)"/>
<rect x="571.1398963730586" y="361.2681704972653" width="4.870466321243523" height="136.73182950273466" fill="#DC267F" data-tooltip="1.01x baseline (YJIT 3.4.0dev)"/>
<line x1="568.7046632124368" y1="498.0" x2="568.7046632124368" y2="502.79999999999995" stroke="#000"/>
<text x="568.7046632124368" y="512.4" fill="#111" font-size="small" text-anchor="end" transform="rotate(-60, 568.7046632124368, 512.4)">
optcarrot
</text>
<rect x="580.8808290155457" y="331.4605015435726" width="4.870466321243523" height="166.53949845642734" fill="#785EF0" data-tooltip="1.23x baseline (CRuby 3.4.0dev)"/>
<rect x="585.7512953367892" y="328.9930612884521" width="4.870466321243523" height="169.00693871154778" fill="#FFB000" data-tooltip="1.24x baseline (YJIT 3.3.3)"/>
<rect x="590.6217616580328" y="327.8738100387068" width="4.870466321243523" height="170.12618996129316" fill="#DC267F" data-tooltip="1.25x baseline (YJIT 3.4.0dev)"/>
<line x1="588.186528497411" y1="498.0" x2="588.186528497411" y2="502.79999999999995" stroke="#000"/>
<text x="588.186528497411" y="512.4" fill="#111" font-size="small" text-anchor="end" transform="rotate(-60, 588.186528497411, 512.4)">
protoboeuf
</text>
<rect x="600.3626943005199" y="340.8672133182044" width="4.870466321243523" height="157.1327866817956" fill="#785EF0" data-tooltip="1.16x baseline (CRuby 3.4.0dev)"/>
<rect x="605.2331606217634" y="352.37877278207213" width="4.870466321243523" height="145.62122721792778" fill="#FFB000" data-tooltip="1.07x baseline (YJIT 3.3.3)"/>
<rect x="610.103626943007" y="333.2184215855455" width="4.870466321243523" height="164.7815784144544" fill="#DC267F" data-tooltip="1.21x baseline (YJIT 3.4.0dev)"/>
<line x1="607.6683937823852" y1="498.0" x2="607.6683937823852" y2="502.79999999999995" stroke="#000"/>
<text x="607.6683937823852" y="512.4" fill="#111" font-size="small" text-anchor="end" transform="rotate(-60, 607.6683937823852, 512.4)">
protoboeuf-encode
</text>
<rect x="619.8445595854942" y="352.8103053764447" width="4.870466321243523" height="145.18969462355525" fill="#785EF0" data-tooltip="1.07x baseline (CRuby 3.4.0dev)"/>
<rect x="624.7150259067377" y="349.5105395895457" width="4.870466321243523" height="148.48946041045423" fill="#FFB000" data-tooltip="1.09x baseline (YJIT 3.3.3)"/>
<rect x="629.5854922279813" y="340.4421185061255" width="4.870466321243523" height="157.55788149387448" fill="#DC267F" data-tooltip="1.16x baseline (YJIT 3.4.0dev)"/>
<line x1="627.1502590673595" y1="498.0" x2="627.1502590673595" y2="502.79999999999995" stroke="#000"/>
<text x="627.1502590673595" y="512.4" fill="#111" font-size="small" text-anchor="end" transform="rotate(-60, 627.1502590673595, 512.4)">
rack
</text>
<rect x="639.3264248704683" y="347.9872024238926" width="4.870466321243523" height="150.01279757610732" fill="#785EF0" data-tooltip="1.10x baseline (CRuby 3.4.0dev)"/>
<rect x="644.1968911917119" y="360.04957437599194" width="4.870466321243523" height="137.95042562400806" fill="#FFB000" data-tooltip="1.02x baseline (YJIT 3.3.3)"/>
<rect x="649.0673575129554" y="344.4638291732794" width="4.870466321243523" height="153.5361708267205" fill="#DC267F" data-tooltip="1.13x baseline (YJIT 3.4.0dev)"/>
<line x1="646.6321243523337" y1="498.0" x2="646.6321243523337" y2="502.79999999999995" stroke="#000"/>
<text x="646.6321243523337" y="512.4" fill="#111" font-size="small" text-anchor="end" transform="rotate(-60, 646.6321243523337, 512.4)">
ruby-json
</text>
<rect x="658.8082901554425" y="353.8487234678748" width="4.870466321243523" height="144.1512765321252" fill="#785EF0" data-tooltip="1.06x baseline (CRuby 3.4.0dev)"/>
<rect x="663.6787564766861" y="360.503301253168" width="4.870466321243523" height="137.496698746832" fill="#FFB000" data-tooltip="1.01x baseline (YJIT 3.3.3)"/>
<rect x="668.5492227979296" y="346.297049683357" width="4.870466321243523" height="151.70295031664298" fill="#DC267F" data-tooltip="1.12x baseline (YJIT 3.4.0dev)"/>
<line x1="666.1139896373078" y1="498.0" x2="666.1139896373078" y2="502.79999999999995" stroke="#000"/>
<text x="666.1139896373078" y="512.4" fill="#111" font-size="small" text-anchor="end" transform="rotate(-60, 666.1139896373078, 512.4)">
rubykon
</text>
<rect x="678.2901554404167" y="348.60197378325404" width="4.870466321243523" height="149.3980262167459" fill="#785EF0" data-tooltip="1.10x baseline (CRuby 3.4.0dev)"/>
<rect x="683.1606217616603" y="358.7731921905834" width="4.870466321243523" height="139.22680780941656" fill="#FFB000" data-tooltip="1.02x baseline (YJIT 3.3.3)"/>
<rect x="688.0310880829038" y="345.2555988959942" width="4.870466321243523" height="152.7444011040057" fill="#DC267F" data-tooltip="1.12x baseline (YJIT 3.4.0dev)"/>
<line x1="685.595854922282" y1="498.0" x2="685.595854922282" y2="502.79999999999995" stroke="#000"/>
<text x="685.595854922282" y="512.4" fill="#111" font-size="small" text-anchor="end" transform="rotate(-60, 685.595854922282, 512.4)">
sudoku
</text>
<rect x="697.7720207253909" y="347.4482165029293" width="4.870466321243523" height="150.5517834970706" fill="#785EF0" data-tooltip="1.11x baseline (CRuby 3.4.0dev)"/>
<rect x="702.6424870466344" y="348.8731696776377" width="4.870466321243523" height="149.12683032236222" fill="#FFB000" data-tooltip="1.10x baseline (YJIT 3.3.3)"/>
<rect x="707.512953367878" y="331.85594041813994" width="4.870466321243523" height="166.14405958186003" fill="#DC267F" data-tooltip="1.22x baseline (YJIT 3.4.0dev)"/>
<line x1="705.0777202072562" y1="498.0" x2="705.0777202072562" y2="502.79999999999995" stroke="#000"/>
<text x="705.0777202072562" y="512.4" fill="#111" font-size="small" text-anchor="end" transform="rotate(-60, 705.0777202072562, 512.4)">
tinygql
</text>
<rect x="717.2538860103651" y="135.5332868433287" width="4.870466321243523" height="362.4667131566713" fill="#785EF0" data-tooltip="2.67x baseline (CRuby 3.4.0dev)"/>
<rect x="722.1243523316086" y="271.3183170618317" width="4.870466321243523" height="226.68168293816828" fill="#FFB000" data-tooltip="1.67x baseline (YJIT 3.3.3)"/>
<rect x="726.9948186528522" y="100.19999999999999" width="4.870466321243523" height="397.79999999999995" fill="#DC267F" data-tooltip="2.93x baseline (YJIT 3.4.0dev)"/>
<line x1="724.5595854922304" y1="498.0" x2="724.5595854922304" y2="502.79999999999995" stroke="#000"/>
<text x="724.5595854922304" y="512.4" fill="#111" font-size="small" text-anchor="end" transform="rotate(-60, 724.5595854922304, 512.4)">
30k_ifelse
</text>
<rect x="736.7357512953394" y="217.54640376309356" width="4.870466321243523" height="280.4535962369064" fill="#785EF0" data-tooltip="2.06x baseline (CRuby 3.4.0dev)"/>
<rect x="741.6062176165829" y="327.5851731509636" width="4.870466321243523" height="170.4148268490364" fill="#FFB000" data-tooltip="1.25x baseline (YJIT 3.3.3)"/>
<rect x="746.4766839378264" y="202.07301245242297" width="4.870466321243523" height="295.92698754757697" fill="#DC267F" data-tooltip="2.18x baseline (YJIT 3.4.0dev)"/>
<line x1="744.0414507772047" y1="498.0" x2="744.0414507772047" y2="502.79999999999995" stroke="#000"/>
<text x="744.0414507772047" y="512.4" fill="#111" font-size="small" text-anchor="end" transform="rotate(-60, 744.0414507772047, 512.4)">
30k_methods
</text>
<rect x="756.2176165803135" y="347.2749600445346" width="4.870466321243523" height="150.72503995546532" fill="#785EF0" data-tooltip="1.11x baseline (CRuby 3.4.0dev)"/>
<rect x="761.0880829015571" y="358.39659345987394" width="4.870466321243523" height="139.60340654012606" fill="#FFB000" data-tooltip="1.03x baseline (YJIT 3.3.3)"/>
<rect x="765.9585492228006" y="343.5079551780487" width="4.870466321243523" height="154.49204482195123" fill="#DC267F" data-tooltip="1.14x baseline (YJIT 3.4.0dev)"/>
<line x1="763.5233160621789" y1="498.0" x2="763.5233160621789" y2="502.79999999999995" stroke="#000"/>
<text x="763.5233160621789" y="512.4" fill="#111" font-size="small" text-anchor="end" transform="rotate(-60, 763.5233160621789, 512.4)">
cfunc_itself
</text>
<rect x="775.6994818652877" y="347.7214792544093" width="4.870466321243523" height="150.27852074559067" fill="#785EF0" data-tooltip="1.11x baseline (CRuby 3.4.0dev)"/>
<rect x="780.5699481865313" y="360.28567572257674" width="4.870466321243523" height="137.7143242774232" fill="#FFB000" data-tooltip="1.01x baseline (YJIT 3.3.3)"/>
<rect x="785.4404145077748" y="344.0103464897903" width="4.870466321243523" height="153.98965351020956" fill="#DC267F" data-tooltip="1.13x baseline (YJIT 3.4.0dev)"/>
<line x1="783.005181347153" y1="498.0" x2="783.005181347153" y2="502.79999999999995" stroke="#000"/>
<text x="783.005181347153" y="512.4" fill="#111" font-size="small" text-anchor="end" transform="rotate(-60, 783.005181347153, 512.4)">
fib
</text>
<rect x="795.1813471502619" y="347.32470428214367" width="4.870466321243523" height="150.6752957178563" fill="#785EF0" data-tooltip="1.11x baseline (CRuby 3.4.0dev)"/>
<rect x="800.0518134715054" y="358.3978366958034" width="4.870466321243523" height="139.6021633041965" fill="#FFB000" data-tooltip="1.03x baseline (YJIT 3.3.3)"/>
<rect x="804.922279792749" y="343.5589426515873" width="4.870466321243523" height="154.44105734841264" fill="#DC267F" data-tooltip="1.14x baseline (YJIT 3.4.0dev)"/>
<line x1="802.4870466321272" y1="498.0" x2="802.4870466321272" y2="502.79999999999995" stroke="#000"/>
<text x="802.4870466321272" y="512.4" fill="#111" font-size="small" text-anchor="end" transform="rotate(-60, 802.4870466321272, 512.4)">
getivar
</text>
<rect x="814.6632124352361" y="347.2749600445346" width="4.870466321243523" height="150.72503995546532" fill="#785EF0" data-tooltip="1.11x baseline (CRuby 3.4.0dev)"/>
<rect x="819.5336787564796" y="359.06927290031774" width="4.870466321243523" height="138.93072709968214" fill="#FFB000" data-tooltip="1.02x baseline (YJIT 3.3.3)"/>
<rect x="824.4041450777232" y="343.4631098820191" width="4.870466321243523" height="154.53689011798082" fill="#DC267F" data-tooltip="1.14x baseline (YJIT 3.4.0dev)"/>
<line x1="821.9689119171014" y1="498.0" x2="821.9689119171014" y2="502.79999999999995" stroke="#000"/>
<text x="821.9689119171014" y="512.4" fill="#111" font-size="small" text-anchor="end" transform="rotate(-60, 821.9689119171014, 512.4)">
keyword_args
</text>
<rect x="834.1450777202103" y="347.8203467022682" width="4.870466321243523" height="150.17965329773176" fill="#785EF0" data-tooltip="1.11x baseline (CRuby 3.4.0dev)"/>
<rect x="839.0155440414538" y="358.3208580158555" width="4.870466321243523" height="139.67914198414445" fill="#FFB000" data-tooltip="1.03x baseline (YJIT 3.3.3)"/>
<rect x="843.8860103626974" y="343.7988742842987" width="4.870466321243523" height="154.20112571570132" fill="#DC267F" data-tooltip="1.14x baseline (YJIT 3.4.0dev)"/>
<line x1="841.4507772020756" y1="498.0" x2="841.4507772020756" y2="502.79999999999995" stroke="#000"/>
<text x="841.4507772020756" y="512.4" fill="#111" font-size="small" text-anchor="end" transform="rotate(-60, 841.4507772020756, 512.4)">
respond_to
</text>
<rect x="853.6269430051844" y="349.3909217510772" width="4.870466321243523" height="148.60907824892274" fill="#785EF0" data-tooltip="1.09x baseline (CRuby 3.4.0dev)"/>
<rect x="858.497409326428" y="360.7038638606132" width="4.870466321243523" height="137.29613613938673" fill="#FFB000" data-tooltip="1.01x baseline (YJIT 3.3.3)"/>
<rect x="863.3678756476716" y="347.2824164116654" width="4.870466321243523" height="150.71758358833446" fill="#DC267F" data-tooltip="1.11x baseline (YJIT 3.4.0dev)"/>
<line x1="860.9326424870499" y1="498.0" x2="860.9326424870499" y2="502.79999999999995" stroke="#000"/>
<text x="860.9326424870499" y="512.4" fill="#111" font-size="small" text-anchor="end" transform="rotate(-60, 860.9326424870499, 512.4)">
ruby-xor
</text>
<rect x="873.1088082901587" y="347.402649884477" width="4.870466321243523" height="150.5973501155229" fill="#785EF0" data-tooltip="1.11x baseline (CRuby 3.4.0dev)"/>
<rect x="877.9792746114023" y="359.17573262966454" width="4.870466321243523" height="138.82426737033543" fill="#FFB000" data-tooltip="1.02x baseline (YJIT 3.3.3)"/>
<rect x="882.8497409326458" y="344.37018917738334" width="4.870466321243523" height="153.62981082261663" fill="#DC267F" data-tooltip="1.13x baseline (YJIT 3.4.0dev)"/>
<line x1="880.414507772024" y1="498.0" x2="880.414507772024" y2="502.79999999999995" stroke="#000"/>
<text x="880.414507772024" y="512.4" fill="#111" font-size="small" text-anchor="end" transform="rotate(-60, 880.414507772024, 512.4)">
setivar
</text>
<rect x="892.5906735751329" y="348.01769184457794" width="4.870466321243523" height="149.982308155422" fill="#785EF0" data-tooltip="1.10x baseline (CRuby 3.4.0dev)"/>
<rect x="897.4611398963764" y="359.8877584822876" width="4.870466321243523" height="138.1122415177123" fill="#FFB000" data-tooltip="1.02x baseline (YJIT 3.3.3)"/>
<rect x="902.33160621762" y="344.2692497484591" width="4.870466321243523" height="153.73075025154083" fill="#DC267F" data-tooltip="1.13x baseline (YJIT 3.4.0dev)"/>
<line x1="899.8963730569982" y1="498.0" x2="899.8963730569982" y2="502.79999999999995" stroke="#000"/>
<text x="899.8963730569982" y="512.4" fill="#111" font-size="small" text-anchor="end" transform="rotate(-60, 899.8963730569982, 512.4)">
setivar_object
</text>
<rect x="912.0725388601071" y="347.32470428214367" width="4.870466321243523" height="150.6752957178563" fill="#785EF0" data-tooltip="1.11x baseline (CRuby 3.4.0dev)"/>
<rect x="916.9430051813506" y="359.832412555063" width="4.870466321243523" height="138.16758744493694" fill="#FFB000" data-tooltip="1.02x baseline (YJIT 3.3.3)"/>
<rect x="921.8134715025942" y="343.5589426515873" width="4.870466321243523" height="154.44105734841264" fill="#DC267F" data-tooltip="1.14x baseline (YJIT 3.4.0dev)"/>
<line x1="919.3782383419724" y1="498.0" x2="919.3782383419724" y2="502.79999999999995" stroke="#000"/>
<text x="919.3782383419724" y="512.4" fill="#111" font-size="small" text-anchor="end" transform="rotate(-60, 919.3782383419724, 512.4)">
setivar_young
</text>
<rect x="931.5544041450813" y="358.168410041841" width="4.870466321243523" height="139.83158995815896" fill="#785EF0" data-tooltip="1.03x baseline (CRuby 3.4.0dev)"/>
<rect x="936.4248704663248" y="359.9145587675922" width="4.870466321243523" height="138.08544123240773" fill="#FFB000" data-tooltip="1.02x baseline (YJIT 3.3.3)"/>
<rect x="941.2953367875684" y="355.86349372384933" width="4.870466321243523" height="142.1365062761506" fill="#DC267F" data-tooltip="1.05x baseline (YJIT 3.4.0dev)"/>
<line x1="938.8601036269466" y1="498.0" x2="938.8601036269466" y2="502.79999999999995" stroke="#000"/>
<text x="938.8601036269466" y="512.4" fill="#111" font-size="small" text-anchor="end" transform="rotate(-60, 938.8601036269466, 512.4)">
str_concat
</text>
<rect x="951.0362694300554" y="348.2135486257195" width="4.870466321243523" height="149.78645137428046" fill="#785EF0" data-tooltip="1.10x baseline (CRuby 3.4.0dev)"/>
<rect x="955.906735751299" y="360.5302064310317" width="4.870466321243523" height="137.46979356896827" fill="#FFB000" data-tooltip="1.01x baseline (YJIT 3.3.3)"/>
<rect x="960.7772020725425" y="345.8738250999792" width="4.870466321243523" height="152.12617490002077" fill="#DC267F" data-tooltip="1.12x baseline (YJIT 3.4.0dev)"/>
<line x1="958.3419689119208" y1="498.0" x2="958.3419689119208" y2="502.79999999999995" stroke="#000"/>
<text x="958.3419689119208" y="512.4" fill="#111" font-size="small" text-anchor="end" transform="rotate(-60, 958.3419689119208, 512.4)">
throw
</text>
<rect x="970.5181347150296" y="345.0727517609198" width="4.870466321243523" height="152.92724823908011" fill="#785EF0" data-tooltip="1.13x baseline (CRuby 3.4.0dev)"/>
<rect x="975.3886010362733" y="348.9866396811463" width="4.870466321243523" height="149.01336031885367" fill="#FFB000" data-tooltip="1.10x baseline (YJIT 3.3.3)"/>
<rect x="980.2590673575168" y="332.6281444003347" width="4.870466321243523" height="165.37185559966525" fill="#DC267F" data-tooltip="1.22x baseline (YJIT 3.4.0dev)"/>
<line x1="977.823834196895" y1="498.0" x2="977.823834196895" y2="502.79999999999995" stroke="#000"/>
<text x="977.823834196895" y="512.4" fill="#111" font-size="small" text-anchor="end" transform="rotate(-60, 977.823834196895, 512.4)" font-style="italic">
geomean*
</text>
<line x1="50.0" y1="362.1635983263598" x2="990.0" y2="362.1635983263598" stroke="#648FFF" stroke-width="2"/>
<rect x="56.69546632124352" y="336.01248175939696" width="17.85" height="7.2" transform="rotate(-60, 59.30569948186529, 342.67248175939693)" fill="#fffa"/>
<text x="56.870466321243526" y="342.67248175939693" fill="#111" font-size="0.5em" text-anchor="start" textLength="17.5" transform="rotate(-60, 59.30569948186529, 342.67248175939693)" style="text-shadow: 0 0 1px #fff;">
1.09
</text>
<rect x="61.56593264248705" y="321.885416508178" width="17.85" height="7.2" transform="rotate(-60, 64.1761658031088, 328.54541650817805)" fill="#fffa"/>
<text x="61.740932642487046" y="328.54541650817805" fill="#111" font-size="0.5em" text-anchor="start" textLength="17.5" transform="rotate(-60, 64.1761658031088, 328.54541650817805)" style="text-shadow: 0 0 1px #fff;">
1.19
</text>
<rect x="66.43639896373058" y="316.10345309312214" width="17.85" height="7.2" transform="rotate(-60, 69.04663212435233, 322.7634530931221)" fill="#fffa"/>
<text x="66.61139896373057" y="322.7634530931221" fill="#111" font-size="0.5em" text-anchor="start" textLength="17.5" transform="rotate(-60, 69.04663212435233, 322.7634530931221)" style="text-shadow: 0 0 1px #fff;">
1.23
</text>
<rect x="76.17733160621762" y="336.91000597728635" width="17.85" height="7.2" transform="rotate(-60, 78.78756476683938, 343.5700059772863)" fill="#fffa"/>
<text x="76.35233160621762" y="343.5700059772863" fill="#111" font-size="0.5em" text-anchor="start" textLength="17.5" transform="rotate(-60, 78.78756476683938, 343.5700059772863)" style="text-shadow: 0 0 1px #fff;">
1.08
</text>
<rect x="81.04779792746115" y="355.994648336322" width="17.85" height="7.2" transform="rotate(-60, 83.6580310880829, 362.65464833632194)" fill="#fffa"/>
<text x="81.22279792746113" y="362.65464833632194" fill="#111" font-size="0.5em" text-anchor="start" textLength="17.5" transform="rotate(-60, 83.6580310880829, 362.65464833632194)" style="text-shadow: 0 0 1px #fff;">
0.94
</text>
<rect x="85.91826424870466" y="324.0991392707711" width="17.85" height="7.2" transform="rotate(-60, 88.52849740932642, 330.75913927077113)" fill="#fffa"/>
<text x="86.09326424870466" y="330.75913927077113" fill="#111" font-size="0.5em" text-anchor="start" textLength="17.5" transform="rotate(-60, 88.52849740932642, 330.75913927077113)" style="text-shadow: 0 0 1px #fff;">
1.18
</text>
<rect x="95.65919689119171" y="332.08163817125313" width="17.85" height="7.2" transform="rotate(-60, 98.26943005181346, 338.7416381712531)" fill="#fffa"/>
<text x="95.8341968911917" y="338.7416381712531" fill="#111" font-size="0.5em" text-anchor="start" textLength="17.5" transform="rotate(-60, 98.26943005181346, 338.7416381712531)" style="text-shadow: 0 0 1px #fff;">
1.12
</text>
<rect x="100.52966321243522" y="330.6986357928168" width="17.85" height="7.2" transform="rotate(-60, 103.13989637305698, 337.3586357928168)" fill="#fffa"/>
<text x="100.70466321243522" y="337.3586357928168" fill="#111" font-size="0.5em" text-anchor="start" textLength="17.5" transform="rotate(-60, 103.13989637305698, 337.3586357928168)" style="text-shadow: 0 0 1px #fff;">
1.13
</text>
<rect x="105.40012953367875" y="321.3953298773695" width="17.85" height="7.2" transform="rotate(-60, 108.01036269430051, 328.0553298773695)" fill="#fffa"/>
<text x="105.57512953367875" y="328.0553298773695" fill="#111" font-size="0.5em" text-anchor="start" textLength="17.5" transform="rotate(-60, 108.01036269430051, 328.0553298773695)" style="text-shadow: 0 0 1px #fff;">
1.20
</text>
<rect x="115.14106217616579" y="364.17940642801705" width="17.85" height="7.2" transform="rotate(-60, 117.75129533678755, 370.839406428017)" fill="#fffa"/>
<text x="115.31606217616579" y="370.839406428017" fill="#111" font-size="0.5em" text-anchor="start" textLength="17.5" transform="rotate(-60, 117.75129533678755, 370.839406428017)" style="text-shadow: 0 0 1px #fff;">
0.88
</text>
<rect x="120.01152849740932" y="253.62346174373852" width="17.85" height="7.2" transform="rotate(-60, 122.62176165803108, 260.2834617437385)" fill="#fffa"/>
<text x="120.18652849740931" y="260.2834617437385" fill="#111" font-size="0.5em" text-anchor="start" textLength="17.5" transform="rotate(-60, 122.62176165803108, 260.2834617437385)" style="text-shadow: 0 0 1px #fff;">
1.69
</text>
<rect x="124.88199481865283" y="249.43957445331867" width="17.85" height="7.2" transform="rotate(-60, 127.49222797927459, 256.09957445331867)" fill="#fffa"/>
<text x="125.05699481865281" y="256.09957445331867" fill="#111" font-size="0.5em" text-anchor="start" textLength="17.5" transform="rotate(-60, 127.49222797927459, 256.09957445331867)" style="text-shadow: 0 0 1px #fff;">
1.73
</text>
<rect x="134.62292746113988" y="343.99796358787216" width="17.85" height="7.2" transform="rotate(-60, 137.23316062176167, 350.65796358787213)" fill="#fffa"/>
<text x="134.7979274611399" y="350.65796358787213" fill="#111" font-size="0.5em" text-anchor="start" textLength="17.5" transform="rotate(-60, 137.23316062176167, 350.65796358787213)" style="text-shadow: 0 0 1px #fff;">
1.03
</text>
<rect x="139.4933937823834" y="327.44265548151185" width="17.85" height="7.2" transform="rotate(-60, 142.1036269430052, 334.1026554815119)" fill="#fffa"/>
<text x="139.66839378238342" y="334.1026554815119" fill="#111" font-size="0.5em" text-anchor="start" textLength="17.5" transform="rotate(-60, 142.1036269430052, 334.1026554815119)" style="text-shadow: 0 0 1px #fff;">
1.15
</text>
<rect x="144.36386010362693" y="326.17979526839264" width="17.85" height="7.2" transform="rotate(-60, 146.9740932642487, 332.83979526839266)" fill="#fffa"/>
<text x="144.53886010362694" y="332.83979526839266" fill="#111" font-size="0.5em" text-anchor="start" textLength="17.5" transform="rotate(-60, 146.9740932642487, 332.83979526839266)" style="text-shadow: 0 0 1px #fff;">
1.16
</text>
<rect x="154.10479274611396" y="331.4349973208076" width="17.85" height="7.2" transform="rotate(-60, 156.71502590673575, 338.09499732080764)" fill="#fffa"/>
<text x="154.27979274611397" y="338.09499732080764" fill="#111" font-size="0.5em" text-anchor="start" textLength="17.5" transform="rotate(-60, 156.71502590673575, 338.09499732080764)" style="text-shadow: 0 0 1px #fff;">
1.12
</text>
<rect x="158.97525906735748" y="329.4537322859781" width="17.85" height="7.2" transform="rotate(-60, 161.58549222797927, 336.1137322859781)" fill="#fffa"/>
<text x="159.1502590673575" y="336.1137322859781" fill="#111" font-size="0.5em" text-anchor="start" textLength="17.5" transform="rotate(-60, 161.58549222797927, 336.1137322859781)" style="text-shadow: 0 0 1px #fff;">
1.14
</text>
<rect x="163.845725388601" y="313.5600677208624" width="17.85" height="7.2" transform="rotate(-60, 166.4559585492228, 320.22006772086235)" fill="#fffa"/>
<text x="164.02072538860102" y="320.22006772086235" fill="#111" font-size="0.5em" text-anchor="start" textLength="17.5" transform="rotate(-60, 166.4559585492228, 320.22006772086235)" style="text-shadow: 0 0 1px #fff;">
1.25
</text>
<rect x="173.58665803108806" y="333.784093167068" width="17.85" height="7.2" transform="rotate(-60, 176.19689119170982, 340.44409316706805)" fill="#fffa"/>
<text x="173.76165803108807" y="340.44409316706805" fill="#111" font-size="0.5em" text-anchor="start" textLength="17.5" transform="rotate(-60, 176.19689119170982, 340.44409316706805)" style="text-shadow: 0 0 1px #fff;">
1.10
</text>
<rect x="178.45712435233156" y="321.97223215196885" width="17.85" height="7.2" transform="rotate(-60, 181.06735751295335, 328.6322321519688)" fill="#fffa"/>
<text x="178.63212435233157" y="328.6322321519688" fill="#111" font-size="0.5em" text-anchor="start" textLength="17.5" transform="rotate(-60, 181.06735751295335, 328.6322321519688)" style="text-shadow: 0 0 1px #fff;">
1.19
</text>
<rect x="183.3275906735751" y="311.95067062870527" width="17.85" height="7.2" transform="rotate(-60, 185.93782383419688, 318.61067062870524)" fill="#fffa"/>
<text x="183.5025906735751" y="318.61067062870524" fill="#111" font-size="0.5em" text-anchor="start" textLength="17.5" transform="rotate(-60, 185.93782383419688, 318.61067062870524)" style="text-shadow: 0 0 1px #fff;">
1.27
</text>
<rect x="193.06852331606214" y="353.0614320509983" width="17.85" height="7.2" transform="rotate(-60, 195.67875647668393, 359.72143205099826)" fill="#fffa"/>
<text x="193.24352331606215" y="359.72143205099826" fill="#111" font-size="0.5em" text-anchor="start" textLength="17.5" transform="rotate(-60, 195.67875647668393, 359.72143205099826)" style="text-shadow: 0 0 1px #fff;">
0.96
</text>
<rect x="197.93898963730567" y="323.2961104623618" width="17.85" height="7.2" transform="rotate(-60, 200.54922279792746, 329.9561104623618)" fill="#fffa"/>
<text x="198.11398963730568" y="329.9561104623618" fill="#111" font-size="0.5em" text-anchor="start" textLength="17.5" transform="rotate(-60, 200.54922279792746, 329.9561104623618)" style="text-shadow: 0 0 1px #fff;">
1.18
</text>
<rect x="202.8094559585492" y="326.83998056717934" width="17.85" height="7.2" transform="rotate(-60, 205.41968911917095, 333.49998056717936)" fill="#fffa"/>
<text x="202.9844559585492" y="333.49998056717936" fill="#111" font-size="0.5em" text-anchor="start" textLength="17.5" transform="rotate(-60, 205.41968911917095, 333.49998056717936)" style="text-shadow: 0 0 1px #fff;">
1.16
</text>
<rect x="212.55038860103622" y="292.5513963773105" width="17.85" height="7.2" transform="rotate(-60, 215.160621761658, 299.2113963773105)" fill="#fffa"/>
<text x="212.72538860103623" y="299.2113963773105" fill="#111" font-size="0.5em" text-anchor="start" textLength="17.5" transform="rotate(-60, 215.160621761658, 299.2113963773105)" style="text-shadow: 0 0 1px #fff;">
1.41
</text>
<rect x="217.42085492227974" y="333.6216429592863" width="17.85" height="7.2" transform="rotate(-60, 220.03108808290153, 340.28164295928633)" fill="#fffa"/>
<text x="217.59585492227976" y="340.28164295928633" fill="#111" font-size="0.5em" text-anchor="start" textLength="17.5" transform="rotate(-60, 220.03108808290153, 340.28164295928633)" style="text-shadow: 0 0 1px #fff;">
1.11
</text>
<rect x="222.29132124352327" y="276.04469440177957" width="17.85" height="7.2" transform="rotate(-60, 224.90155440414506, 282.70469440177953)" fill="#fffa"/>
<text x="222.46632124352328" y="282.70469440177953" fill="#111" font-size="0.5em" text-anchor="start" textLength="17.5" transform="rotate(-60, 224.90155440414506, 282.70469440177953)" style="text-shadow: 0 0 1px #fff;">
1.53
</text>
<rect x="232.03225388601032" y="329.31923160563065" width="17.85" height="7.2" transform="rotate(-60, 234.64248704663208, 335.9792316056306)" fill="#fffa"/>
<text x="232.20725388601034" y="335.9792316056306" fill="#111" font-size="0.5em" text-anchor="start" textLength="17.5" transform="rotate(-60, 234.64248704663208, 335.9792316056306)" style="text-shadow: 0 0 1px #fff;">
1.14
</text>
<rect x="236.90272020725385" y="337.06743791806866" width="17.85" height="7.2" transform="rotate(-60, 239.5129533678756, 343.72743791806863)" fill="#fffa"/>
<text x="237.07772020725383" y="343.72743791806863" fill="#111" font-size="0.5em" text-anchor="start" textLength="17.5" transform="rotate(-60, 239.5129533678756, 343.72743791806863)" style="text-shadow: 0 0 1px #fff;">
1.08
</text>
<rect x="241.77318652849735" y="317.34856953709567" width="17.85" height="7.2" transform="rotate(-60, 244.38341968911914, 324.0085695370957)" fill="#fffa"/>
<text x="241.94818652849736" y="324.0085695370957" fill="#111" font-size="0.5em" text-anchor="start" textLength="17.5" transform="rotate(-60, 244.38341968911914, 324.0085695370957)" style="text-shadow: 0 0 1px #fff;">
1.23
</text>
<rect x="251.51411917098443" y="340.54885242623845" width="17.85" height="7.2" transform="rotate(-60, 254.1243523316062, 347.2088524262384)" fill="#fffa"/>
<text x="251.6891191709844" y="347.2088524262384" fill="#111" font-size="0.5em" text-anchor="start" textLength="17.5" transform="rotate(-60, 254.1243523316062, 347.2088524262384)" style="text-shadow: 0 0 1px #fff;">
1.05
</text>
<rect x="256.384585492228" y="326.22537239743383" width="17.85" height="7.2" transform="rotate(-60, 258.99481865284974, 332.88537239743385)" fill="#fffa"/>
<text x="256.55958549222794" y="332.88537239743385" fill="#111" font-size="0.5em" text-anchor="start" textLength="17.5" transform="rotate(-60, 258.99481865284974, 332.88537239743385)" style="text-shadow: 0 0 1px #fff;">
1.16
</text>
<rect x="261.25505181347154" y="326.0506958117167" width="17.85" height="7.2" transform="rotate(-60, 263.8652849740933, 332.71069581171673)" fill="#fffa"/>
<text x="261.4300518134715" y="332.71069581171673" fill="#111" font-size="0.5em" text-anchor="start" textLength="17.5" transform="rotate(-60, 263.8652849740933, 332.71069581171673)" style="text-shadow: 0 0 1px #fff;">
1.16
</text>
<rect x="270.99598445595865" y="340.9594556144909" width="17.85" height="7.2" transform="rotate(-60, 273.6062176165804, 347.6194556144909)" fill="#fffa"/>
<text x="271.1709844559586" y="347.6194556144909" fill="#111" font-size="0.5em" text-anchor="start" textLength="17.5" transform="rotate(-60, 273.6062176165804, 347.6194556144909)" style="text-shadow: 0 0 1px #fff;">
1.05
</text>
<rect x="275.8664507772022" y="288.9020005779355" width="17.85" height="7.2" transform="rotate(-60, 278.4766839378239, 295.5620005779355)" fill="#fffa"/>
<text x="276.04145077720216" y="295.5620005779355" fill="#111" font-size="0.5em" text-anchor="start" textLength="17.5" transform="rotate(-60, 278.4766839378239, 295.5620005779355)" style="text-shadow: 0 0 1px #fff;">
1.44
</text>
<rect x="280.7369170984457" y="281.4530971170991" width="17.85" height="7.2" transform="rotate(-60, 283.34715025906746, 288.1130971170991)" fill="#fffa"/>
<text x="280.9119170984457" y="288.1130971170991" fill="#111" font-size="0.5em" text-anchor="start" textLength="17.5" transform="rotate(-60, 283.34715025906746, 288.1130971170991)" style="text-shadow: 0 0 1px #fff;">
1.49
</text>
<rect x="290.4778497409328" y="316.89045592256014" width="17.85" height="7.2" transform="rotate(-60, 293.08808290155457, 323.5504559225601)" fill="#fffa"/>
<text x="290.6528497409328" y="323.5504559225601" fill="#111" font-size="0.5em" text-anchor="start" textLength="17.5" transform="rotate(-60, 293.08808290155457, 323.5504559225601)" style="text-shadow: 0 0 1px #fff;">
1.23
</text>
<rect x="295.34831606217637" y="332.7918402991889" width="17.85" height="7.2" transform="rotate(-60, 297.9585492227981, 339.4518402991889)" fill="#fffa"/>
<text x="295.5233160621764" y="339.4518402991889" fill="#111" font-size="0.5em" text-anchor="start" textLength="17.5" transform="rotate(-60, 297.9585492227981, 339.4518402991889)" style="text-shadow: 0 0 1px #fff;">
1.11
</text>
<rect x="300.2187823834199" y="299.55984592314206" width="17.85" height="7.2" transform="rotate(-60, 302.8290155440417, 306.21984592314203)" fill="#fffa"/>
<text x="300.39378238341993" y="306.21984592314203" fill="#111" font-size="0.5em" text-anchor="start" textLength="17.5" transform="rotate(-60, 302.8290155440417, 306.21984592314203)" style="text-shadow: 0 0 1px #fff;">
1.36
</text>
<rect x="309.95971502590703" y="335.075518037658" width="17.85" height="7.2" transform="rotate(-60, 312.5699481865288, 341.735518037658)" fill="#fffa"/>
<text x="310.134715025907" y="341.735518037658" fill="#111" font-size="0.5em" text-anchor="start" textLength="17.5" transform="rotate(-60, 312.5699481865288, 341.735518037658)" style="text-shadow: 0 0 1px #fff;">
1.10
</text>
<rect x="314.8301813471506" y="328.48329579412734" width="17.85" height="7.2" transform="rotate(-60, 317.44041450777235, 335.1432957941273)" fill="#fffa"/>
<text x="315.00518134715054" y="335.1432957941273" fill="#111" font-size="0.5em" text-anchor="start" textLength="17.5" transform="rotate(-60, 317.44041450777235, 335.1432957941273)" style="text-shadow: 0 0 1px #fff;">
1.14
</text>
<rect x="319.70064766839414" y="322.87990688712625" width="17.85" height="7.2" transform="rotate(-60, 322.3108808290159, 329.5399068871263)" fill="#fffa"/>
<text x="319.8756476683941" y="329.5399068871263" fill="#111" font-size="0.5em" text-anchor="start" textLength="17.5" transform="rotate(-60, 322.3108808290159, 329.5399068871263)" style="text-shadow: 0 0 1px #fff;">
1.18
</text>
<rect x="329.44158031088125" y="341.51282107881946" width="17.85" height="7.2" transform="rotate(-60, 332.05181347150295, 348.1728210788194)" fill="#fffa"/>
<text x="329.6165803108812" y="348.1728210788194" fill="#111" font-size="0.5em" text-anchor="start" textLength="17.5" transform="rotate(-60, 332.05181347150295, 348.1728210788194)" style="text-shadow: 0 0 1px #fff;">
1.05
</text>
<rect x="334.31204663212475" y="346.88753708017634" width="17.85" height="7.2" transform="rotate(-60, 336.9222797927465, 353.54753708017637)" fill="#fffa"/>
<text x="334.48704663212476" y="353.54753708017637" fill="#111" font-size="0.5em" text-anchor="start" textLength="17.5" transform="rotate(-60, 336.9222797927465, 353.54753708017637)" style="text-shadow: 0 0 1px #fff;">
1.01
</text>
<rect x="339.1825129533683" y="334.55212330657014" width="17.85" height="7.2" transform="rotate(-60, 341.79274611399006, 341.21212330657016)" fill="#fffa"/>
<text x="339.3575129533683" y="341.21212330657016" fill="#111" font-size="0.5em" text-anchor="start" textLength="17.5" transform="rotate(-60, 341.79274611399006, 341.21212330657016)" style="text-shadow: 0 0 1px #fff;">
1.10
</text>
<rect x="348.9234455958554" y="330.0951220518978" width="17.85" height="7.2" transform="rotate(-60, 351.5336787564772, 336.75512205189784)" fill="#fffa"/>
<text x="349.0984455958554" y="336.75512205189784" fill="#111" font-size="0.5em" text-anchor="start" textLength="17.5" transform="rotate(-60, 351.5336787564772, 336.75512205189784)" style="text-shadow: 0 0 1px #fff;">
1.13
</text>
<rect x="353.79391191709897" y="344.34880724993906" width="17.85" height="7.2" transform="rotate(-60, 356.4041450777207, 351.0088072499391)" fill="#fffa"/>
<text x="353.9689119170989" y="351.0088072499391" fill="#111" font-size="0.5em" text-anchor="start" textLength="17.5" transform="rotate(-60, 356.4041450777207, 351.0088072499391)" style="text-shadow: 0 0 1px #fff;">
1.03
</text>
<rect x="358.6643782383425" y="325.8718079191449" width="17.85" height="7.2" transform="rotate(-60, 361.2746113989643, 332.53180791914485)" fill="#fffa"/>
<text x="358.8393782383425" y="332.53180791914485" fill="#111" font-size="0.5em" text-anchor="start" textLength="17.5" transform="rotate(-60, 361.2746113989643, 332.53180791914485)" style="text-shadow: 0 0 1px #fff;">
1.16
</text>
<rect x="368.40531088082963" y="337.74570220436067" width="17.85" height="7.2" transform="rotate(-60, 371.0155440414514, 344.40570220436064)" fill="#fffa"/>
<text x="368.5803108808296" y="344.40570220436064" fill="#111" font-size="0.5em" text-anchor="start" textLength="17.5" transform="rotate(-60, 371.0155440414514, 344.40570220436064)" style="text-shadow: 0 0 1px #fff;">
1.08
</text>
<rect x="373.2757772020732" y="337.12476418244785" width="17.85" height="7.2" transform="rotate(-60, 375.88601036269495, 343.7847641824479)" fill="#fffa"/>
<text x="373.45077720207314" y="343.7847641824479" fill="#111" font-size="0.5em" text-anchor="start" textLength="17.5" transform="rotate(-60, 375.88601036269495, 343.7847641824479)" style="text-shadow: 0 0 1px #fff;">
1.08
</text>
<rect x="378.14624352331674" y="328.0342315416448" width="17.85" height="7.2" transform="rotate(-60, 380.75647668393844, 334.6942315416448)" fill="#fffa"/>
<text x="378.3212435233167" y="334.6942315416448" fill="#111" font-size="0.5em" text-anchor="start" textLength="17.5" transform="rotate(-60, 380.75647668393844, 334.6942315416448)" style="text-shadow: 0 0 1px #fff;">
1.15
</text>
<rect x="387.8871761658038" y="334.0417511598004" width="17.85" height="7.2" transform="rotate(-60, 390.49740932642555, 340.70175115980044)" fill="#fffa"/>
<text x="388.0621761658038" y="340.70175115980044" fill="#111" font-size="0.5em" text-anchor="start" textLength="17.5" transform="rotate(-60, 390.49740932642555, 340.70175115980044)" style="text-shadow: 0 0 1px #fff;">
1.10
</text>
<rect x="392.75764248704735" y="344.9284573048645" width="17.85" height="7.2" transform="rotate(-60, 395.3678756476691, 351.5884573048645)" fill="#fffa"/>
<text x="392.93264248704736" y="351.5884573048645" fill="#111" font-size="0.5em" text-anchor="start" textLength="17.5" transform="rotate(-60, 395.3678756476691, 351.5884573048645)" style="text-shadow: 0 0 1px #fff;">
1.02
</text>
<rect x="397.6281088082909" y="331.0726494838738" width="17.85" height="7.2" transform="rotate(-60, 400.23834196891266, 337.7326494838738)" fill="#fffa"/>
<text x="397.8031088082909" y="337.7326494838738" fill="#111" font-size="0.5em" text-anchor="start" textLength="17.5" transform="rotate(-60, 400.23834196891266, 337.7326494838738)" style="text-shadow: 0 0 1px #fff;">
1.12
</text>
<rect x="407.369041450778" y="329.9844838186321" width="17.85" height="7.2" transform="rotate(-60, 409.9792746113998, 336.64448381863207)" fill="#fffa"/>
<text x="407.54404145077797" y="336.64448381863207" fill="#111" font-size="0.5em" text-anchor="start" textLength="17.5" transform="rotate(-60, 409.9792746113998, 336.64448381863207)" style="text-shadow: 0 0 1px #fff;">
1.13
</text>
<rect x="412.23950777202157" y="345.94682595078785" width="17.85" height="7.2" transform="rotate(-60, 414.84974093264333, 352.6068259507879)" fill="#fffa"/>
<text x="412.4145077720215" y="352.6068259507879" fill="#111" font-size="0.5em" text-anchor="start" textLength="17.5" transform="rotate(-60, 414.84974093264333, 352.6068259507879)" style="text-shadow: 0 0 1px #fff;">
1.02
</text>
<rect x="417.1099740932651" y="326.2733510540131" width="17.85" height="7.2" transform="rotate(-60, 419.7202072538869, 332.9333510540131)" fill="#fffa"/>
<text x="417.2849740932651" y="332.9333510540131" fill="#111" font-size="0.5em" text-anchor="start" textLength="17.5" transform="rotate(-60, 419.7202072538869, 332.9333510540131)" style="text-shadow: 0 0 1px #fff;">
1.16
</text>
<rect x="426.85090673575223" y="346.09975940940336" width="17.85" height="7.2" transform="rotate(-60, 429.461139896374, 352.75975940940333)" fill="#fffa"/>
<text x="427.0259067357522" y="352.75975940940333" fill="#111" font-size="0.5em" text-anchor="start" textLength="17.5" transform="rotate(-60, 429.461139896374, 352.75975940940333)" style="text-shadow: 0 0 1px #fff;">
1.01
</text>
<rect x="431.7213730569958" y="338.53987273257883" width="17.85" height="7.2" transform="rotate(-60, 434.3316062176175, 345.1998727325788)" fill="#fffa"/>
<text x="431.89637305699574" y="345.1998727325788" fill="#111" font-size="0.5em" text-anchor="start" textLength="17.5" transform="rotate(-60, 434.3316062176175, 345.1998727325788)" style="text-shadow: 0 0 1px #fff;">
1.07
</text>
<rect x="436.5918393782393" y="334.1300879479554" width="17.85" height="7.2" transform="rotate(-60, 439.20207253886105, 340.79008794795544)" fill="#fffa"/>
<text x="436.7668393782393" y="340.79008794795544" fill="#111" font-size="0.5em" text-anchor="start" textLength="17.5" transform="rotate(-60, 439.20207253886105, 340.79008794795544)" style="text-shadow: 0 0 1px #fff;">
1.10
</text>
<rect x="446.3327720207264" y="345.3137685902481" width="17.85" height="7.2" transform="rotate(-60, 448.94300518134816, 351.97376859024814)" fill="#fffa"/>
<text x="446.5077720207264" y="351.97376859024814" fill="#111" font-size="0.5em" text-anchor="start" textLength="17.5" transform="rotate(-60, 448.94300518134816, 351.97376859024814)" style="text-shadow: 0 0 1px #fff;">
1.02
</text>
<rect x="451.20323834196995" y="337.1458709769334" width="17.85" height="7.2" transform="rotate(-60, 453.8134715025917, 343.80587097693336)" fill="#fffa"/>
<text x="451.37823834196996" y="343.80587097693336" fill="#111" font-size="0.5em" text-anchor="start" textLength="17.5" transform="rotate(-60, 453.8134715025917, 343.80587097693336)" style="text-shadow: 0 0 1px #fff;">
1.08
</text>
<rect x="456.0737046632135" y="327.25582627647395" width="17.85" height="7.2" transform="rotate(-60, 458.68393782383527, 333.9158262764739)" fill="#fffa"/>
<text x="456.2487046632135" y="333.9158262764739" fill="#111" font-size="0.5em" text-anchor="start" textLength="17.5" transform="rotate(-60, 458.68393782383527, 333.9158262764739)" style="text-shadow: 0 0 1px #fff;">
1.15
</text>
<rect x="465.8146373057006" y="332.5587467868367" width="17.85" height="7.2" transform="rotate(-60, 468.4248704663224, 339.2187467868367)" fill="#fffa"/>
<text x="465.98963730570057" y="339.2187467868367" fill="#111" font-size="0.5em" text-anchor="start" textLength="17.5" transform="rotate(-60, 468.4248704663224, 339.2187467868367)" style="text-shadow: 0 0 1px #fff;">
1.11
</text>
<rect x="470.68510362694417" y="336.6690701804195" width="17.85" height="7.2" transform="rotate(-60, 473.29533678756593, 343.3290701804195)" fill="#fffa"/>
<text x="470.8601036269441" y="343.3290701804195" fill="#111" font-size="0.5em" text-anchor="start" textLength="17.5" transform="rotate(-60, 473.29533678756593, 343.3290701804195)" style="text-shadow: 0 0 1px #fff;">
1.08
</text>
<rect x="475.5555699481877" y="324.8363210170751" width="17.85" height="7.2" transform="rotate(-60, 478.1658031088095, 331.4963210170751)" fill="#fffa"/>
<text x="475.7305699481877" y="331.4963210170751" fill="#111" font-size="0.5em" text-anchor="start" textLength="17.5" transform="rotate(-60, 478.1658031088095, 331.4963210170751)" style="text-shadow: 0 0 1px #fff;">
1.17
</text>
<rect x="485.2965025906748" y="347.6967389852296" width="17.85" height="7.2" transform="rotate(-60, 487.90673575129654, 354.3567389852296)" fill="#fffa"/>
<text x="485.4715025906748" y="354.3567389852296" fill="#111" font-size="0.5em" text-anchor="start" textLength="17.5" transform="rotate(-60, 487.90673575129654, 354.3567389852296)" style="text-shadow: 0 0 1px #fff;">
1.00
</text>
<rect x="490.16696891191833" y="333.99035508141344" width="17.85" height="7.2" transform="rotate(-60, 492.7772020725401, 340.65035508141347)" fill="#fffa"/>
<text x="490.34196891191834" y="340.65035508141347" fill="#111" font-size="0.5em" text-anchor="start" textLength="17.5" transform="rotate(-60, 492.7772020725401, 340.65035508141347)" style="text-shadow: 0 0 1px #fff;">
1.10
</text>
<rect x="495.0374352331619" y="340.1684564828351" width="17.85" height="7.2" transform="rotate(-60, 497.64766839378365, 346.82845648283507)" fill="#fffa"/>
<text x="495.2124352331619" y="346.82845648283507" fill="#111" font-size="0.5em" text-anchor="start" textLength="17.5" transform="rotate(-60, 497.64766839378365, 346.82845648283507)" style="text-shadow: 0 0 1px #fff;">
1.06
</text>
<rect x="504.7783678756489" y="343.2518461474305" width="17.85" height="7.2" transform="rotate(-60, 507.3886010362707, 349.9118461474305)" fill="#fffa"/>
<text x="504.95336787564895" y="349.9118461474305" fill="#111" font-size="0.5em" text-anchor="start" textLength="17.5" transform="rotate(-60, 507.3886010362707, 349.9118461474305)" style="text-shadow: 0 0 1px #fff;">
1.03
</text>
<rect x="509.64883419689244" y="346.27810172507264" width="17.85" height="7.2" transform="rotate(-60, 512.2590673575143, 352.93810172507267)" fill="#fffa"/>
<text x="509.8238341968925" y="352.93810172507267" fill="#111" font-size="0.5em" text-anchor="start" textLength="17.5" transform="rotate(-60, 512.2590673575143, 352.93810172507267)" style="text-shadow: 0 0 1px #fff;">
1.01
</text>
<rect x="514.519300518136" y="341.4732573430267" width="17.85" height="7.2" transform="rotate(-60, 517.1295336787578, 348.13325734302674)" fill="#fffa"/>
<text x="514.6943005181361" y="348.13325734302674" fill="#111" font-size="0.5em" text-anchor="start" textLength="17.5" transform="rotate(-60, 517.1295336787578, 348.13325734302674)" style="text-shadow: 0 0 1px #fff;">
1.05
</text>
<rect x="524.2602331606231" y="329.73424999208856" width="17.85" height="7.2" transform="rotate(-60, 526.8704663212449, 336.3942499920886)" fill="#fffa"/>
<text x="524.4352331606232" y="336.3942499920886" fill="#111" font-size="0.5em" text-anchor="start" textLength="17.5" transform="rotate(-60, 526.8704663212449, 336.3942499920886)" style="text-shadow: 0 0 1px #fff;">
1.13
</text>
<rect x="529.1306994818666" y="345.45750332622913" width="17.85" height="7.2" transform="rotate(-60, 531.7409326424885, 352.11750332622915)" fill="#fffa"/>
<text x="529.3056994818667" y="352.11750332622915" fill="#111" font-size="0.5em" text-anchor="start" textLength="17.5" transform="rotate(-60, 531.7409326424885, 352.11750332622915)" style="text-shadow: 0 0 1px #fff;">
1.02
</text>
<rect x="534.0011658031102" y="326.74147165860165" width="17.85" height="7.2" transform="rotate(-60, 536.611398963732, 333.4014716586016)" fill="#fffa"/>
<text x="534.1761658031103" y="333.4014716586016" fill="#111" font-size="0.5em" text-anchor="start" textLength="17.5" transform="rotate(-60, 536.611398963732, 333.4014716586016)" style="text-shadow: 0 0 1px #fff;">
1.16
</text>
<rect x="543.7420984455973" y="332.7203562369881" width="17.85" height="7.2" transform="rotate(-60, 546.3523316062191, 339.3803562369881)" fill="#fffa"/>
<text x="543.9170984455973" y="339.3803562369881" fill="#111" font-size="0.5em" text-anchor="start" textLength="17.5" transform="rotate(-60, 546.3523316062191, 339.3803562369881)" style="text-shadow: 0 0 1px #fff;">
1.11
</text>
<rect x="548.6125647668408" y="346.2469038333286" width="17.85" height="7.2" transform="rotate(-60, 551.2227979274627, 352.9069038333286)" fill="#fffa"/>
<text x="548.7875647668409" y="352.9069038333286" fill="#111" font-size="0.5em" text-anchor="start" textLength="17.5" transform="rotate(-60, 551.2227979274627, 352.9069038333286)" style="text-shadow: 0 0 1px #fff;">
1.01
</text>
<rect x="553.4830310880844" y="318.79855237971555" width="17.85" height="7.2" transform="rotate(-60, 556.0932642487062, 325.45855237971557)" fill="#fffa"/>
<text x="553.6580310880844" y="325.45855237971557" fill="#111" font-size="0.5em" text-anchor="start" textLength="17.5" transform="rotate(-60, 556.0932642487062, 325.45855237971557)" style="text-shadow: 0 0 1px #fff;">
1.22
</text>
<rect x="563.2239637305715" y="354.16215195090996" width="17.85" height="7.2" transform="rotate(-60, 565.8341968911933, 360.82215195091)" fill="#fffa"/>
<text x="563.3989637305715" y="360.82215195091" fill="#111" font-size="0.5em" text-anchor="start" textLength="17.5" transform="rotate(-60, 565.8341968911933, 360.82215195091)" style="text-shadow: 0 0 1px #fff;">
0.95
</text>
<rect x="568.094430051815" y="339.8552050815996" width="17.85" height="7.2" transform="rotate(-60, 570.7046632124368, 346.5152050815996)" fill="#fffa"/>
<text x="568.2694300518151" y="346.5152050815996" fill="#111" font-size="0.5em" text-anchor="start" textLength="17.5" transform="rotate(-60, 570.7046632124368, 346.5152050815996)" style="text-shadow: 0 0 1px #fff;">
1.06
</text>
<rect x="572.9648963730585" y="347.10817049726535" width="17.85" height="7.2" transform="rotate(-60, 575.5751295336804, 353.7681704972654)" fill="#fffa"/>
<text x="573.1398963730586" y="353.7681704972654" fill="#111" font-size="0.5em" text-anchor="start" textLength="17.5" transform="rotate(-60, 575.5751295336804, 353.7681704972654)" style="text-shadow: 0 0 1px #fff;">
1.01
</text>
<rect x="582.7058290155456" y="317.30050154357264" width="17.85" height="7.2" transform="rotate(-60, 585.3160621761675, 323.9605015435726)" fill="#fffa"/>
<text x="582.8808290155457" y="323.9605015435726" fill="#111" font-size="0.5em" text-anchor="start" textLength="17.5" transform="rotate(-60, 585.3160621761675, 323.9605015435726)" style="text-shadow: 0 0 1px #fff;">
1.23
</text>
<rect x="587.5762953367893" y="314.83306128845214" width="17.85" height="7.2" transform="rotate(-60, 590.186528497411, 321.49306128845217)" fill="#fffa"/>
<text x="587.7512953367893" y="321.49306128845217" fill="#111" font-size="0.5em" text-anchor="start" textLength="17.5" transform="rotate(-60, 590.186528497411, 321.49306128845217)" style="text-shadow: 0 0 1px #fff;">
1.24
</text>
<rect x="592.4467616580328" y="313.7138100387068" width="17.85" height="7.2" transform="rotate(-60, 595.0569948186546, 320.37381003870684)" fill="#fffa"/>
<text x="592.6217616580328" y="320.37381003870684" fill="#111" font-size="0.5em" text-anchor="start" textLength="17.5" transform="rotate(-60, 595.0569948186546, 320.37381003870684)" style="text-shadow: 0 0 1px #fff;">
1.25
</text>
<rect x="602.1876943005199" y="326.7072133182044" width="17.85" height="7.2" transform="rotate(-60, 604.7979274611417, 333.3672133182044)" fill="#fffa"/>
<text x="602.3626943005199" y="333.3672133182044" fill="#111" font-size="0.5em" text-anchor="start" textLength="17.5" transform="rotate(-60, 604.7979274611417, 333.3672133182044)" style="text-shadow: 0 0 1px #fff;">
1.16
</text>
<rect x="607.0581606217635" y="338.21877278207216" width="17.85" height="7.2" transform="rotate(-60, 609.6683937823852, 344.8787727820722)" fill="#fffa"/>
<text x="607.2331606217634" y="344.8787727820722" fill="#111" font-size="0.5em" text-anchor="start" textLength="17.5" transform="rotate(-60, 609.6683937823852, 344.8787727820722)" style="text-shadow: 0 0 1px #fff;">
1.07
</text>
<rect x="611.928626943007" y="319.05842158554555" width="17.85" height="7.2" transform="rotate(-60, 614.5388601036288, 325.71842158554557)" fill="#fffa"/>
<text x="612.103626943007" y="325.71842158554557" fill="#111" font-size="0.5em" text-anchor="start" textLength="17.5" transform="rotate(-60, 614.5388601036288, 325.71842158554557)" style="text-shadow: 0 0 1px #fff;">
1.21
</text>
<rect x="621.6695595854941" y="338.65030537644475" width="17.85" height="7.2" transform="rotate(-60, 624.2797927461158, 345.3103053764447)" fill="#fffa"/>
<text x="621.8445595854942" y="345.3103053764447" fill="#111" font-size="0.5em" text-anchor="start" textLength="17.5" transform="rotate(-60, 624.2797927461158, 345.3103053764447)" style="text-shadow: 0 0 1px #fff;">
1.07
</text>
<rect x="626.5400259067376" y="335.35053958954575" width="17.85" height="7.2" transform="rotate(-60, 629.1502590673595, 342.0105395895458)" fill="#fffa"/>
<text x="626.7150259067377" y="342.0105395895458" fill="#111" font-size="0.5em" text-anchor="start" textLength="17.5" transform="rotate(-60, 629.1502590673595, 342.0105395895458)" style="text-shadow: 0 0 1px #fff;">
1.09
</text>
<rect x="631.4104922279812" y="326.28211850612547" width="17.85" height="7.2" transform="rotate(-60, 634.020725388603, 332.9421185061255)" fill="#fffa"/>
<text x="631.5854922279813" y="332.9421185061255" fill="#111" font-size="0.5em" text-anchor="start" textLength="17.5" transform="rotate(-60, 634.020725388603, 332.9421185061255)" style="text-shadow: 0 0 1px #fff;">
1.16
</text>
<rect x="641.1514248704683" y="333.82720242389263" width="17.85" height="7.2" transform="rotate(-60, 643.7616580310901, 340.48720242389265)" fill="#fffa"/>
<text x="641.3264248704683" y="340.48720242389265" fill="#111" font-size="0.5em" text-anchor="start" textLength="17.5" transform="rotate(-60, 643.7616580310901, 340.48720242389265)" style="text-shadow: 0 0 1px #fff;">
1.10
</text>
<rect x="646.0218911917118" y="345.88957437599197" width="17.85" height="7.2" transform="rotate(-60, 648.6321243523337, 352.549574375992)" fill="#fffa"/>
<text x="646.1968911917119" y="352.549574375992" fill="#111" font-size="0.5em" text-anchor="start" textLength="17.5" transform="rotate(-60, 648.6321243523337, 352.549574375992)" style="text-shadow: 0 0 1px #fff;">
1.02
</text>
<rect x="650.8923575129554" y="330.30382917327944" width="17.85" height="7.2" transform="rotate(-60, 653.5025906735772, 336.96382917327946)" fill="#fffa"/>
<text x="651.0673575129554" y="336.96382917327946" fill="#111" font-size="0.5em" text-anchor="start" textLength="17.5" transform="rotate(-60, 653.5025906735772, 336.96382917327946)" style="text-shadow: 0 0 1px #fff;">
1.13
</text>
<rect x="660.6332901554425" y="339.6887234678748" width="17.85" height="7.2" transform="rotate(-60, 663.2435233160643, 346.34872346787483)" fill="#fffa"/>
<text x="660.8082901554425" y="346.34872346787483" fill="#111" font-size="0.5em" text-anchor="start" textLength="17.5" transform="rotate(-60, 663.2435233160643, 346.34872346787483)" style="text-shadow: 0 0 1px #fff;">
1.06
</text>
<rect x="665.503756476686" y="346.34330125316797" width="17.85" height="7.2" transform="rotate(-60, 668.1139896373078, 353.003301253168)" fill="#fffa"/>
<text x="665.6787564766861" y="353.003301253168" fill="#111" font-size="0.5em" text-anchor="start" textLength="17.5" transform="rotate(-60, 668.1139896373078, 353.003301253168)" style="text-shadow: 0 0 1px #fff;">
1.01
</text>
<rect x="670.3742227979295" y="332.137049683357" width="17.85" height="7.2" transform="rotate(-60, 672.9844559585514, 338.797049683357)" fill="#fffa"/>
<text x="670.5492227979296" y="338.797049683357" fill="#111" font-size="0.5em" text-anchor="start" textLength="17.5" transform="rotate(-60, 672.9844559585514, 338.797049683357)" style="text-shadow: 0 0 1px #fff;">
1.12
</text>
<rect x="680.1151554404166" y="334.44197378325407" width="17.85" height="7.2" transform="rotate(-60, 682.7253886010385, 341.10197378325404)" fill="#fffa"/>
<text x="680.2901554404167" y="341.10197378325404" fill="#111" font-size="0.5em" text-anchor="start" textLength="17.5" transform="rotate(-60, 682.7253886010385, 341.10197378325404)" style="text-shadow: 0 0 1px #fff;">
1.10
</text>
<rect x="684.9856217616602" y="344.6131921905834" width="17.85" height="7.2" transform="rotate(-60, 687.595854922282, 351.2731921905834)" fill="#fffa"/>
<text x="685.1606217616603" y="351.2731921905834" fill="#111" font-size="0.5em" text-anchor="start" textLength="17.5" transform="rotate(-60, 687.595854922282, 351.2731921905834)" style="text-shadow: 0 0 1px #fff;">
1.02
</text>
<rect x="689.8560880829037" y="331.0955988959942" width="17.85" height="7.2" transform="rotate(-60, 692.4663212435256, 337.7555988959942)" fill="#fffa"/>
<text x="690.0310880829038" y="337.7555988959942" fill="#111" font-size="0.5em" text-anchor="start" textLength="17.5" transform="rotate(-60, 692.4663212435256, 337.7555988959942)" style="text-shadow: 0 0 1px #fff;">
1.12
</text>
<rect x="699.5970207253908" y="333.28821650292934" width="17.85" height="7.2" transform="rotate(-60, 702.2072538860127, 339.94821650292937)" fill="#fffa"/>
<text x="699.7720207253909" y="339.94821650292937" fill="#111" font-size="0.5em" text-anchor="start" textLength="17.5" transform="rotate(-60, 702.2072538860127, 339.94821650292937)" style="text-shadow: 0 0 1px #fff;">
1.11
</text>
<rect x="704.4674870466345" y="334.7131696776377" width="17.85" height="7.2" transform="rotate(-60, 707.0777202072562, 341.37316967763775)" fill="#fffa"/>
<text x="704.6424870466344" y="341.37316967763775" fill="#111" font-size="0.5em" text-anchor="start" textLength="17.5" transform="rotate(-60, 707.0777202072562, 341.37316967763775)" style="text-shadow: 0 0 1px #fff;">
1.10
</text>
<rect x="709.337953367878" y="317.69594041813997" width="17.85" height="7.2" transform="rotate(-60, 711.9481865284998, 324.35594041814)" fill="#fffa"/>
<text x="709.512953367878" y="324.35594041814" fill="#111" font-size="0.5em" text-anchor="start" textLength="17.5" transform="rotate(-60, 711.9481865284998, 324.35594041814)" style="text-shadow: 0 0 1px #fff;">
1.22
</text>
<rect x="719.0788860103651" y="121.3732868433287" width="17.85" height="7.2" transform="rotate(-60, 721.6891191709868, 128.0332868433287)" fill="#fffa"/>
<text x="719.2538860103651" y="128.0332868433287" fill="#111" font-size="0.5em" text-anchor="start" textLength="17.5" transform="rotate(-60, 721.6891191709868, 128.0332868433287)" style="text-shadow: 0 0 1px #fff;">
2.67
</text>
<rect x="723.9493523316086" y="257.15831706183167" width="17.85" height="7.2" transform="rotate(-60, 726.5595854922304, 263.8183170618317)" fill="#fffa"/>
<text x="724.1243523316086" y="263.8183170618317" fill="#111" font-size="0.5em" text-anchor="start" textLength="17.5" transform="rotate(-60, 726.5595854922304, 263.8183170618317)" style="text-shadow: 0 0 1px #fff;">
1.67
</text>
<rect x="728.8198186528522" y="86.03999999999998" width="17.85" height="7.2" transform="rotate(-60, 731.4300518134739, 92.69999999999999)" fill="#fffa"/>
<text x="728.9948186528522" y="92.69999999999999" fill="#111" font-size="0.5em" text-anchor="start" textLength="17.5" transform="rotate(-60, 731.4300518134739, 92.69999999999999)" style="text-shadow: 0 0 1px #fff;">
2.93
</text>
<rect x="738.5607512953393" y="203.38640376309354" width="17.85" height="7.2" transform="rotate(-60, 741.170984455961, 210.04640376309354)" fill="#fffa"/>
<text x="738.7357512953394" y="210.04640376309354" fill="#111" font-size="0.5em" text-anchor="start" textLength="17.5" transform="rotate(-60, 741.170984455961, 210.04640376309354)" style="text-shadow: 0 0 1px #fff;">
2.06
</text>
<rect x="743.4312176165828" y="313.42517315096364" width="17.85" height="7.2" transform="rotate(-60, 746.0414507772047, 320.08517315096367)" fill="#fffa"/>
<text x="743.6062176165829" y="320.08517315096367" fill="#111" font-size="0.5em" text-anchor="start" textLength="17.5" transform="rotate(-60, 746.0414507772047, 320.08517315096367)" style="text-shadow: 0 0 1px #fff;">
1.25
</text>
<rect x="748.3016839378264" y="187.91301245242298" width="17.85" height="7.2" transform="rotate(-60, 750.9119170984482, 194.57301245242297)" fill="#fffa"/>
<text x="748.4766839378264" y="194.57301245242297" fill="#111" font-size="0.5em" text-anchor="start" textLength="17.5" transform="rotate(-60, 750.9119170984482, 194.57301245242297)" style="text-shadow: 0 0 1px #fff;">
2.18
</text>
<rect x="758.0426165803135" y="333.11496004453466" width="17.85" height="7.2" transform="rotate(-60, 760.6528497409353, 339.7749600445346)" fill="#fffa"/>
<text x="758.2176165803135" y="339.7749600445346" fill="#111" font-size="0.5em" text-anchor="start" textLength="17.5" transform="rotate(-60, 760.6528497409353, 339.7749600445346)" style="text-shadow: 0 0 1px #fff;">
1.11
</text>
<rect x="762.913082901557" y="344.2365934598739" width="17.85" height="7.2" transform="rotate(-60, 765.5233160621789, 350.89659345987394)" fill="#fffa"/>
<text x="763.0880829015571" y="350.89659345987394" fill="#111" font-size="0.5em" text-anchor="start" textLength="17.5" transform="rotate(-60, 765.5233160621789, 350.89659345987394)" style="text-shadow: 0 0 1px #fff;">
1.03
</text>
<rect x="767.7835492228006" y="329.3479551780487" width="17.85" height="7.2" transform="rotate(-60, 770.3937823834224, 336.00795517804875)" fill="#fffa"/>
<text x="767.9585492228006" y="336.00795517804875" fill="#111" font-size="0.5em" text-anchor="start" textLength="17.5" transform="rotate(-60, 770.3937823834224, 336.00795517804875)" style="text-shadow: 0 0 1px #fff;">
1.14
</text>
<rect x="777.5244818652876" y="333.56147925440933" width="17.85" height="7.2" transform="rotate(-60, 780.1347150259095, 340.22147925440936)" fill="#fffa"/>
<text x="777.6994818652877" y="340.22147925440936" fill="#111" font-size="0.5em" text-anchor="start" textLength="17.5" transform="rotate(-60, 780.1347150259095, 340.22147925440936)" style="text-shadow: 0 0 1px #fff;">
1.11
</text>
<rect x="782.3949481865312" y="346.1256757225768" width="17.85" height="7.2" transform="rotate(-60, 785.005181347153, 352.7856757225768)" fill="#fffa"/>
<text x="782.5699481865313" y="352.7856757225768" fill="#111" font-size="0.5em" text-anchor="start" textLength="17.5" transform="rotate(-60, 785.005181347153, 352.7856757225768)" style="text-shadow: 0 0 1px #fff;">
1.01
</text>
<rect x="787.2654145077747" y="329.85034648979035" width="17.85" height="7.2" transform="rotate(-60, 789.8756476683966, 336.5103464897904)" fill="#fffa"/>
<text x="787.4404145077748" y="336.5103464897904" fill="#111" font-size="0.5em" text-anchor="start" textLength="17.5" transform="rotate(-60, 789.8756476683966, 336.5103464897904)" style="text-shadow: 0 0 1px #fff;">
1.13
</text>
<rect x="797.0063471502618" y="333.1647042821437" width="17.85" height="7.2" transform="rotate(-60, 799.6165803108837, 339.8247042821437)" fill="#fffa"/>
<text x="797.1813471502619" y="339.8247042821437" fill="#111" font-size="0.5em" text-anchor="start" textLength="17.5" transform="rotate(-60, 799.6165803108837, 339.8247042821437)" style="text-shadow: 0 0 1px #fff;">
1.11
</text>
<rect x="801.8768134715054" y="344.2378366958034" width="17.85" height="7.2" transform="rotate(-60, 804.4870466321272, 350.8978366958034)" fill="#fffa"/>
<text x="802.0518134715054" y="350.8978366958034" fill="#111" font-size="0.5em" text-anchor="start" textLength="17.5" transform="rotate(-60, 804.4870466321272, 350.8978366958034)" style="text-shadow: 0 0 1px #fff;">
1.03
</text>
<rect x="806.7472797927489" y="329.39894265158733" width="17.85" height="7.2" transform="rotate(-60, 809.3575129533708, 336.05894265158736)" fill="#fffa"/>
<text x="806.922279792749" y="336.05894265158736" fill="#111" font-size="0.5em" text-anchor="start" textLength="17.5" transform="rotate(-60, 809.3575129533708, 336.05894265158736)" style="text-shadow: 0 0 1px #fff;">
1.14
</text>
<rect x="816.488212435236" y="333.11496004453466" width="17.85" height="7.2" transform="rotate(-60, 819.0984455958579, 339.7749600445346)" fill="#fffa"/>
<text x="816.6632124352361" y="339.7749600445346" fill="#111" font-size="0.5em" text-anchor="start" textLength="17.5" transform="rotate(-60, 819.0984455958579, 339.7749600445346)" style="text-shadow: 0 0 1px #fff;">
1.11
</text>
<rect x="821.3586787564797" y="344.9092729003178" width="17.85" height="7.2" transform="rotate(-60, 823.9689119171014, 351.5692729003178)" fill="#fffa"/>
<text x="821.5336787564796" y="351.5692729003178" fill="#111" font-size="0.5em" text-anchor="start" textLength="17.5" transform="rotate(-60, 823.9689119171014, 351.5692729003178)" style="text-shadow: 0 0 1px #fff;">
1.02
</text>
<rect x="826.2291450777232" y="329.30310988201916" width="17.85" height="7.2" transform="rotate(-60, 828.8393782383449, 335.9631098820191)" fill="#fffa"/>
<text x="826.4041450777232" y="335.9631098820191" fill="#111" font-size="0.5em" text-anchor="start" textLength="17.5" transform="rotate(-60, 828.8393782383449, 335.9631098820191)" style="text-shadow: 0 0 1px #fff;">
1.14
</text>
<rect x="835.9700777202103" y="333.66034670226816" width="17.85" height="7.2" transform="rotate(-60, 838.580310880832, 340.3203467022682)" fill="#fffa"/>
<text x="836.1450777202103" y="340.3203467022682" fill="#111" font-size="0.5em" text-anchor="start" textLength="17.5" transform="rotate(-60, 838.580310880832, 340.3203467022682)" style="text-shadow: 0 0 1px #fff;">
1.11
</text>
<rect x="840.8405440414538" y="344.1608580158555" width="17.85" height="7.2" transform="rotate(-60, 843.4507772020756, 350.8208580158555)" fill="#fffa"/>
<text x="841.0155440414538" y="350.8208580158555" fill="#111" font-size="0.5em" text-anchor="start" textLength="17.5" transform="rotate(-60, 843.4507772020756, 350.8208580158555)" style="text-shadow: 0 0 1px #fff;">
1.03
</text>
<rect x="845.7110103626974" y="329.63887428429865" width="17.85" height="7.2" transform="rotate(-60, 848.3212435233191, 336.2988742842987)" fill="#fffa"/>
<text x="845.8860103626974" y="336.2988742842987" fill="#111" font-size="0.5em" text-anchor="start" textLength="17.5" transform="rotate(-60, 848.3212435233191, 336.2988742842987)" style="text-shadow: 0 0 1px #fff;">
1.14
</text>
<rect x="855.4519430051845" y="335.23092175107723" width="17.85" height="7.2" transform="rotate(-60, 858.0621761658062, 341.89092175107726)" fill="#fffa"/>
<text x="855.6269430051844" y="341.89092175107726" fill="#111" font-size="0.5em" text-anchor="start" textLength="17.5" transform="rotate(-60, 858.0621761658062, 341.89092175107726)" style="text-shadow: 0 0 1px #fff;">
1.09
</text>
<rect x="860.322409326428" y="346.5438638606132" width="17.85" height="7.2" transform="rotate(-60, 862.9326424870499, 353.2038638606132)" fill="#fffa"/>
<text x="860.497409326428" y="353.2038638606132" fill="#111" font-size="0.5em" text-anchor="start" textLength="17.5" transform="rotate(-60, 862.9326424870499, 353.2038638606132)" style="text-shadow: 0 0 1px #fff;">
1.01
</text>
<rect x="865.1928756476716" y="333.1224164116654" width="17.85" height="7.2" transform="rotate(-60, 867.8031088082934, 339.78241641166545)" fill="#fffa"/>
<text x="865.3678756476716" y="339.78241641166545" fill="#111" font-size="0.5em" text-anchor="start" textLength="17.5" transform="rotate(-60, 867.8031088082934, 339.78241641166545)" style="text-shadow: 0 0 1px #fff;">
1.11
</text>
<rect x="874.9338082901587" y="333.24264988447703" width="17.85" height="7.2" transform="rotate(-60, 877.5440414507805, 339.90264988447706)" fill="#fffa"/>
<text x="875.1088082901587" y="339.90264988447706" fill="#111" font-size="0.5em" text-anchor="start" textLength="17.5" transform="rotate(-60, 877.5440414507805, 339.90264988447706)" style="text-shadow: 0 0 1px #fff;">
1.11
</text>
<rect x="879.8042746114022" y="345.0157326296645" width="17.85" height="7.2" transform="rotate(-60, 882.414507772024, 351.67573262966454)" fill="#fffa"/>
<text x="879.9792746114023" y="351.67573262966454" fill="#111" font-size="0.5em" text-anchor="start" textLength="17.5" transform="rotate(-60, 882.414507772024, 351.67573262966454)" style="text-shadow: 0 0 1px #fff;">
1.02
</text>
<rect x="884.6747409326457" y="330.21018917738337" width="17.85" height="7.2" transform="rotate(-60, 887.2849740932676, 336.87018917738334)" fill="#fffa"/>
<text x="884.8497409326458" y="336.87018917738334" fill="#111" font-size="0.5em" text-anchor="start" textLength="17.5" transform="rotate(-60, 887.2849740932676, 336.87018917738334)" style="text-shadow: 0 0 1px #fff;">
1.13
</text>
<rect x="894.4156735751328" y="333.8576918445779" width="17.85" height="7.2" transform="rotate(-60, 897.0259067357547, 340.51769184457794)" fill="#fffa"/>
<text x="894.5906735751329" y="340.51769184457794" fill="#111" font-size="0.5em" text-anchor="start" textLength="17.5" transform="rotate(-60, 897.0259067357547, 340.51769184457794)" style="text-shadow: 0 0 1px #fff;">
1.10
</text>
<rect x="899.2861398963764" y="345.72775848228764" width="17.85" height="7.2" transform="rotate(-60, 901.8963730569982, 352.38775848228767)" fill="#fffa"/>
<text x="899.4611398963765" y="352.38775848228767" fill="#111" font-size="0.5em" text-anchor="start" textLength="17.5" transform="rotate(-60, 901.8963730569982, 352.38775848228767)" style="text-shadow: 0 0 1px #fff;">
1.02
</text>
<rect x="904.1566062176199" y="330.10924974845915" width="17.85" height="7.2" transform="rotate(-60, 906.7668393782418, 336.7692497484591)" fill="#fffa"/>
<text x="904.33160621762" y="336.7692497484591" fill="#111" font-size="0.5em" text-anchor="start" textLength="17.5" transform="rotate(-60, 906.7668393782418, 336.7692497484591)" style="text-shadow: 0 0 1px #fff;">
1.13
</text>
<rect x="913.897538860107" y="333.1647042821437" width="17.85" height="7.2" transform="rotate(-60, 916.5077720207289, 339.8247042821437)" fill="#fffa"/>
<text x="914.0725388601071" y="339.8247042821437" fill="#111" font-size="0.5em" text-anchor="start" textLength="17.5" transform="rotate(-60, 916.5077720207289, 339.8247042821437)" style="text-shadow: 0 0 1px #fff;">
1.11
</text>
<rect x="918.7680051813506" y="345.67241255506303" width="17.85" height="7.2" transform="rotate(-60, 921.3782383419724, 352.332412555063)" fill="#fffa"/>
<text x="918.9430051813506" y="352.332412555063" fill="#111" font-size="0.5em" text-anchor="start" textLength="17.5" transform="rotate(-60, 921.3782383419724, 352.332412555063)" style="text-shadow: 0 0 1px #fff;">
1.02
</text>
<rect x="923.6384715025941" y="329.39894265158733" width="17.85" height="7.2" transform="rotate(-60, 926.2487046632159, 336.05894265158736)" fill="#fffa"/>
<text x="923.8134715025942" y="336.05894265158736" fill="#111" font-size="0.5em" text-anchor="start" textLength="17.5" transform="rotate(-60, 926.2487046632159, 336.05894265158736)" style="text-shadow: 0 0 1px #fff;">
1.14
</text>
<rect x="933.3794041450813" y="344.008410041841" width="17.85" height="7.2" transform="rotate(-60, 935.989637305703, 350.668410041841)" fill="#fffa"/>
<text x="933.5544041450813" y="350.668410041841" fill="#111" font-size="0.5em" text-anchor="start" textLength="17.5" transform="rotate(-60, 935.989637305703, 350.668410041841)" style="text-shadow: 0 0 1px #fff;">
1.03
</text>
<rect x="938.2498704663248" y="345.75455876759224" width="17.85" height="7.2" transform="rotate(-60, 940.8601036269466, 352.41455876759227)" fill="#fffa"/>
<text x="938.4248704663248" y="352.41455876759227" fill="#111" font-size="0.5em" text-anchor="start" textLength="17.5" transform="rotate(-60, 940.8601036269466, 352.41455876759227)" style="text-shadow: 0 0 1px #fff;">
1.02
</text>
<rect x="943.1203367875684" y="341.70349372384936" width="17.85" height="7.2" transform="rotate(-60, 945.7305699481901, 348.3634937238494)" fill="#fffa"/>
<text x="943.2953367875684" y="348.3634937238494" fill="#111" font-size="0.5em" text-anchor="start" textLength="17.5" transform="rotate(-60, 945.7305699481901, 348.3634937238494)" style="text-shadow: 0 0 1px #fff;">
1.05
</text>
<rect x="952.8612694300555" y="334.05354862571954" width="17.85" height="7.2" transform="rotate(-60, 955.4715025906772, 340.7135486257195)" fill="#fffa"/>
<text x="953.0362694300554" y="340.7135486257195" fill="#111" font-size="0.5em" text-anchor="start" textLength="17.5" transform="rotate(-60, 955.4715025906772, 340.7135486257195)" style="text-shadow: 0 0 1px #fff;">
1.10
</text>
<rect x="957.731735751299" y="346.3702064310317" width="17.85" height="7.2" transform="rotate(-60, 960.3419689119208, 353.0302064310317)" fill="#fffa"/>
<text x="957.906735751299" y="353.0302064310317" fill="#111" font-size="0.5em" text-anchor="start" textLength="17.5" transform="rotate(-60, 960.3419689119208, 353.0302064310317)" style="text-shadow: 0 0 1px #fff;">
1.01
</text>
<rect x="962.6022020725426" y="331.7138250999792" width="17.85" height="7.2" transform="rotate(-60, 965.2124352331643, 338.3738250999792)" fill="#fffa"/>
<text x="962.7772020725425" y="338.3738250999792" fill="#111" font-size="0.5em" text-anchor="start" textLength="17.5" transform="rotate(-60, 965.2124352331643, 338.3738250999792)" style="text-shadow: 0 0 1px #fff;">
1.12
</text>
<rect x="972.3431347150297" y="330.91275176091983" width="17.85" height="7.2" transform="rotate(-60, 974.9533678756515, 337.57275176091986)" fill="#fffa"/>
<text x="972.5181347150296" y="337.57275176091986" fill="#111" font-size="0.5em" text-anchor="start" textLength="17.5" transform="rotate(-60, 974.9533678756515, 337.57275176091986)" style="text-shadow: 0 0 1px #fff;">
1.13
</text>
<rect x="977.2136010362732" y="334.82663968114633" width="17.85" height="7.2" transform="rotate(-60, 979.823834196895, 341.4866396811463)" fill="#fffa"/>
<text x="977.3886010362733" y="341.4866396811463" fill="#111" font-size="0.5em" text-anchor="start" textLength="17.5" transform="rotate(-60, 979.823834196895, 341.4866396811463)" style="text-shadow: 0 0 1px #fff;">
1.10
</text>
<rect x="982.0840673575167" y="318.4681444003347" width="17.85" height="7.2" transform="rotate(-60, 984.6943005181386, 325.1281444003347)" fill="#fffa"/>
<text x="982.2590673575168" y="325.1281444003347" fill="#111" font-size="0.5em" text-anchor="start" textLength="17.5" transform="rotate(-60, 984.6943005181386, 325.1281444003347)" style="text-shadow: 0 0 1px #fff;">
1.22
</text>
</svg>