<svg viewBox="0 0 1000 600" xmlns="http://www.w3.org/2000/svg" xmlns:xlink="http://www.w3.org/1999/xlink" width="100%" height="100%">

<rect x="50.0" y="30.0" width="940.0" height="467.99999999999994" stroke="#000" fill="#fff"/>
<line x1="42.0" y1="497.9999999999999" x2="50.0" y2="497.9999999999999" stroke="#000"/>
<text x="26.000000000000004" y="497.9999999999999" text-anchor="end" font-weight="bold" font-size="small" fill="#111">
0.0
</text>
<line x1="42.0" y1="422.506090336544" x2="50.0" y2="422.506090336544" stroke="#000"/>
<text x="26.000000000000004" y="422.506090336544" text-anchor="end" font-weight="bold" font-size="small" fill="#111">
1.0
</text>
<line x1="42.0" y1="347.01218067308804" x2="50.0" y2="347.01218067308804" stroke="#000"/>
<text x="26.000000000000004" y="347.01218067308804" text-anchor="end" font-weight="bold" font-size="small" fill="#111">
2.0
</text>
<line x1="42.0" y1="271.5182710096321" x2="50.0" y2="271.5182710096321" stroke="#000"/>
<text x="26.000000000000004" y="271.5182710096321" text-anchor="end" font-weight="bold" font-size="small" fill="#111">
3.0
</text>
<line x1="42.0" y1="196.02436134617614" x2="50.0" y2="196.02436134617614" stroke="#000"/>
<text x="26.000000000000004" y="196.02436134617614" text-anchor="end" font-weight="bold" font-size="small" fill="#111">
4.0
</text>
<line x1="42.0" y1="120.53045168272014" x2="50.0" y2="120.53045168272014" stroke="#000"/>
<text x="26.000000000000004" y="120.53045168272014" text-anchor="end" font-weight="bold" font-size="small" fill="#111">
5.0
</text>
<line x1="142.75" y1="54.60000000000001" x2="262.75" y2="54.60000000000001" stroke="#648FFF" stroke-width="2"/>
<text x="202.75" y="49.500000000000014" font-size="small" text-anchor="middle" font-weight="bold" fill="#000">
CRuby 3.3.1
</text>
<rect x="354.25" y="35.400000000000006" width="120.0" height="19.2" fill="#785EF0" stroke="none"/>
<text x="414.25" y="49.500000000000014" font-size="small" text-anchor="middle" font-weight="bold" fill="#fff" style="text-shadow: 0 0 1px #000;">
CRuby 3.4.0dev
</text>
<rect x="565.75" y="35.400000000000006" width="120.0" height="19.2" fill="#FFB000" stroke="none"/>
<text x="625.7499999999999" y="49.500000000000014" font-size="small" text-anchor="middle" font-weight="bold" fill="#fff" style="text-shadow: 0 0 1px #000;">
YJIT 3.3.1
</text>
<rect x="777.25" y="35.400000000000006" width="120.0" height="19.2" fill="#DC267F" stroke="none"/>
<text x="837.2499999999999" y="49.500000000000014" font-size="small" text-anchor="middle" font-weight="bold" fill="#fff" style="text-shadow: 0 0 1px #000;">
YJIT 3.4.0dev
</text>
<rect x="108.13157894736842" y="425.8089513633125" width="11.131578947368421" height="72.19104863668753" fill="#785EF0" data-tooltip="0.96x baseline speed (CRuby 3.4.0dev)"/>
<line x1="108.13157894736842" y1="425.3806959287761" x2="119.26315789473685" y2="425.3806959287761" stroke-dasharray="1,0.5" stroke="#333c"/>
<line x1="108.13157894736842" y1="426.2372067978488" x2="119.26315789473685" y2="426.2372067978488" stroke-dasharray="1,0.5" stroke="#333c"/>
<line x1="113.69736842105263" y1="425.3806959287761" x2="113.69736842105263" y2="426.2372067978488" stroke-dasharray="1,0.5" stroke="#333c"/>
<rect x="119.26315789473685" y="348.75596134672907" width="11.131578947368421" height="149.24403865327085" fill="#FFB000" data-tooltip="1.98x baseline speed (YJIT 3.3.1)"/>
<line x1="119.26315789473685" y1="345.37796739519735" x2="130.39473684210526" y2="345.37796739519735" stroke-dasharray="1,0.5" stroke="#333c"/>
<line x1="119.26315789473685" y1="352.13395529826084" x2="130.39473684210526" y2="352.13395529826084" stroke-dasharray="1,0.5" stroke="#333c"/>
<line x1="124.82894736842105" y1="345.37796739519735" x2="124.82894736842105" y2="352.13395529826084" stroke-dasharray="1,0.5" stroke="#333c"/>
<rect x="130.39473684210526" y="349.40996135122896" width="11.131578947368421" height="148.59003864877096" fill="#DC267F" data-tooltip="1.97x baseline speed (YJIT 3.4.0dev)"/>
<line x1="130.39473684210526" y1="349.0079475740374" x2="141.52631578947367" y2="349.0079475740374" stroke-dasharray="1,0.5" stroke="#333c"/>
<line x1="130.39473684210526" y1="349.8119751284205" x2="141.52631578947367" y2="349.8119751284205" stroke-dasharray="1,0.5" stroke="#333c"/>
<line x1="135.96052631578948" y1="349.0079475740374" x2="135.96052631578948" y2="349.8119751284205" stroke-dasharray="1,0.5" stroke="#333c"/>
<line x1="119.26315789473685" y1="498.0" x2="119.26315789473685" y2="502.79999999999995" stroke="#000"/>
<text x="119.26315789473685" y="512.4" fill="#111" font-size="small" font-family="monospace" font-weight="bold" text-anchor="end" transform="rotate(-60, 119.26315789473685, 512.4)">
binarytrees
</text>
<rect x="152.6578947368421" y="426.2762301046603" width="11.131578947368421" height="71.72376989533957" fill="#785EF0" data-tooltip="0.95x baseline speed (CRuby 3.4.0dev)"/>
<line x1="152.6578947368421" y1="425.1600806287702" x2="163.78947368421052" y2="425.1600806287702" stroke-dasharray="1,0.5" stroke="#333c"/>
<line x1="152.6578947368421" y1="427.3923795805504" x2="163.78947368421052" y2="427.3923795805504" stroke-dasharray="1,0.5" stroke="#333c"/>
<line x1="158.22368421052633" y1="425.1600806287702" x2="158.22368421052633" y2="427.3923795805504" stroke-dasharray="1,0.5" stroke="#333c"/>
<rect x="163.78947368421055" y="322.801124579185" width="11.131578947368421" height="175.19887542081491" fill="#FFB000" data-tooltip="2.32x baseline speed (YJIT 3.3.1)"/>
<line x1="163.78947368421055" y1="321.64958512667937" x2="174.92105263157896" y2="321.64958512667937" stroke-dasharray="1,0.5" stroke="#333c"/>
<line x1="163.78947368421055" y1="323.95266403169063" x2="174.92105263157896" y2="323.95266403169063" stroke-dasharray="1,0.5" stroke="#333c"/>
<line x1="169.35526315789477" y1="321.64958512667937" x2="169.35526315789477" y2="323.95266403169063" stroke-dasharray="1,0.5" stroke="#333c"/>
<rect x="174.92105263157896" y="312.0590148132589" width="11.131578947368421" height="185.94098518674102" fill="#DC267F" data-tooltip="2.46x baseline speed (YJIT 3.4.0dev)"/>
<line x1="174.92105263157896" y1="310.83538307720244" x2="186.05263157894737" y2="310.83538307720244" stroke-dasharray="1,0.5" stroke="#333c"/>
<line x1="174.92105263157896" y1="313.2826465493153" x2="186.05263157894737" y2="313.2826465493153" stroke-dasharray="1,0.5" stroke="#333c"/>
<line x1="180.48684210526318" y1="310.83538307720244" x2="180.48684210526318" y2="313.2826465493153" stroke-dasharray="1,0.5" stroke="#333c"/>
<line x1="163.78947368421055" y1="498.0" x2="163.78947368421055" y2="502.79999999999995" stroke="#000"/>
<text x="163.78947368421055" y="512.4" fill="#111" font-size="small" font-family="monospace" font-weight="bold" text-anchor="end" transform="rotate(-60, 163.78947368421055, 512.4)">
blurhash
</text>
<rect x="197.18421052631578" y="419.08807827848915" width="11.131578947368421" height="78.91192172151078" fill="#785EF0" data-tooltip="1.05x baseline speed (CRuby 3.4.0dev)"/>
<line x1="197.18421052631578" y1="418.9544068622638" x2="208.31578947368416" y2="418.9544068622638" stroke-dasharray="1,0.5" stroke="#333c"/>
<line x1="197.18421052631578" y1="419.2217496947145" x2="208.31578947368416" y2="419.2217496947145" stroke-dasharray="1,0.5" stroke="#333c"/>
<line x1="202.75" y1="418.9544068622638" x2="202.75" y2="419.2217496947145" stroke-dasharray="1,0.5" stroke="#333c"/>
<rect x="208.3157894736842" y="409.8812319090019" width="11.131578947368421" height="88.11876809099802" fill="#FFB000" data-tooltip="1.17x baseline speed (YJIT 3.3.1)"/>
<line x1="208.3157894736842" y1="409.7191618615158" x2="219.4473684210526" y2="409.7191618615158" stroke-dasharray="1,0.5" stroke="#333c"/>
<line x1="208.3157894736842" y1="410.04330195648805" x2="219.4473684210526" y2="410.04330195648805" stroke-dasharray="1,0.5" stroke="#333c"/>
<line x1="213.8815789473684" y1="409.7191618615158" x2="213.8815789473684" y2="410.04330195648805" stroke-dasharray="1,0.5" stroke="#333c"/>
<rect x="219.4473684210526" y="406.8075290625398" width="11.131578947368421" height="91.19247093746009" fill="#DC267F" data-tooltip="1.21x baseline speed (YJIT 3.4.0dev)"/>
<line x1="219.4473684210526" y1="406.6399196220899" x2="230.578947368421" y2="406.6399196220899" stroke-dasharray="1,0.5" stroke="#333c"/>
<line x1="219.4473684210526" y1="406.97513850298964" x2="230.578947368421" y2="406.97513850298964" stroke-dasharray="1,0.5" stroke="#333c"/>
<line x1="225.01315789473682" y1="406.6399196220899" x2="225.01315789473682" y2="406.97513850298964" stroke-dasharray="1,0.5" stroke="#333c"/>
<line x1="208.3157894736842" y1="498.0" x2="208.3157894736842" y2="502.79999999999995" stroke="#000"/>
<text x="208.3157894736842" y="512.4" fill="#111" font-size="small" font-family="monospace" font-weight="bold" text-anchor="end" transform="rotate(-60, 208.3157894736842, 512.4)">
erubi
</text>
<rect x="241.71052631578945" y="469.1187088570845" width="11.131578947368421" height="28.88129114291547" fill="#785EF0" data-tooltip="0.38x baseline speed (CRuby 3.4.0dev)"/>
<line x1="241.71052631578945" y1="469.0927115460981" x2="252.84210526315786" y2="469.0927115460981" stroke-dasharray="1,0.5" stroke="#333c"/>
<line x1="241.71052631578945" y1="469.1447061680709" x2="252.84210526315786" y2="469.1447061680709" stroke-dasharray="1,0.5" stroke="#333c"/>
<line x1="247.27631578947367" y1="469.0927115460981" x2="247.27631578947367" y2="469.1447061680709" stroke-dasharray="1,0.5" stroke="#333c"/>
<rect x="252.84210526315786" y="414.54138547319127" width="11.131578947368421" height="83.45861452680863" fill="#FFB000" data-tooltip="1.11x baseline speed (YJIT 3.3.1)"/>
<line x1="252.84210526315786" y1="414.10923064945655" x2="263.9736842105263" y2="414.10923064945655" stroke-dasharray="1,0.5" stroke="#333c"/>
<line x1="252.84210526315786" y1="414.973540296926" x2="263.9736842105263" y2="414.973540296926" stroke-dasharray="1,0.5" stroke="#333c"/>
<line x1="258.4078947368421" y1="414.10923064945655" x2="258.4078947368421" y2="414.973540296926" stroke-dasharray="1,0.5" stroke="#333c"/>
<rect x="263.9736842105263" y="466.5953971082424" width="11.131578947368421" height="31.404602891757516" fill="#DC267F" data-tooltip="0.42x baseline speed (YJIT 3.4.0dev)"/>
<line x1="263.9736842105263" y1="466.57088195257637" x2="275.10526315789474" y2="466.57088195257637" stroke-dasharray="1,0.5" stroke="#333c"/>
<line x1="263.9736842105263" y1="466.61991226390853" x2="275.10526315789474" y2="466.61991226390853" stroke-dasharray="1,0.5" stroke="#333c"/>
<line x1="269.5394736842105" y1="466.57088195257637" x2="269.5394736842105" y2="466.61991226390853" stroke-dasharray="1,0.5" stroke="#333c"/>
<line x1="252.84210526315786" y1="498.0" x2="252.84210526315786" y2="502.79999999999995" stroke="#000"/>
<text x="252.84210526315786" y="512.4" fill="#111" font-size="small" font-family="monospace" font-weight="bold" text-anchor="end" transform="rotate(-60, 252.84210526315786, 512.4)">
etanni
</text>
<rect x="286.2368421052632" y="418.3212974839487" width="11.131578947368421" height="79.67870251605122" fill="#785EF0" data-tooltip="1.06x baseline speed (CRuby 3.4.0dev)"/>
<line x1="286.2368421052632" y1="416.74263131992745" x2="297.3684210526316" y2="416.74263131992745" stroke-dasharray="1,0.5" stroke="#333c"/>
<line x1="286.2368421052632" y1="419.8999636479699" x2="297.3684210526316" y2="419.8999636479699" stroke-dasharray="1,0.5" stroke="#333c"/>
<line x1="291.80263157894734" y1="416.74263131992745" x2="291.80263157894734" y2="419.8999636479699" stroke-dasharray="1,0.5" stroke="#333c"/>
<rect x="297.36842105263156" y="222.17085404446684" width="11.131578947368421" height="275.82914595553314" fill="#FFB000" data-tooltip="3.65x baseline speed (YJIT 3.3.1)"/>
<line x1="297.36842105263156" y1="218.6751246989802" x2="308.5" y2="218.6751246989802" stroke-dasharray="1,0.5" stroke="#333c"/>
<line x1="297.36842105263156" y1="225.66658338995344" x2="308.5" y2="225.66658338995344" stroke-dasharray="1,0.5" stroke="#333c"/>
<line x1="302.9342105263157" y1="218.6751246989802" x2="302.9342105263157" y2="225.66658338995344" stroke-dasharray="1,0.5" stroke="#333c"/>
<rect x="308.5" y="183.27834761414437" width="11.131578947368421" height="314.7216523858556" fill="#DC267F" data-tooltip="4.17x baseline speed (YJIT 3.4.0dev)"/>
<line x1="308.5" y1="177.492852527086" x2="319.63157894736844" y2="177.492852527086" stroke-dasharray="1,0.5" stroke="#333c"/>
<line x1="308.5" y1="189.0638427012027" x2="319.63157894736844" y2="189.0638427012027" stroke-dasharray="1,0.5" stroke="#333c"/>
<line x1="314.06578947368416" y1="177.492852527086" x2="314.06578947368416" y2="189.0638427012027" stroke-dasharray="1,0.5" stroke="#333c"/>
<line x1="297.36842105263156" y1="498.0" x2="297.36842105263156" y2="502.79999999999995" stroke="#000"/>
<text x="297.36842105263156" y="512.4" fill="#111" font-size="small" font-family="monospace" font-weight="bold" text-anchor="end" transform="rotate(-60, 297.36842105263156, 512.4)">
fannkuchredux
</text>
<rect x="330.7631578947369" y="404.3759591802378" width="11.131578947368421" height="93.62404081976212" fill="#785EF0" data-tooltip="1.24x baseline speed (CRuby 3.4.0dev)"/>
<line x1="330.7631578947369" y1="403.7513045318443" x2="341.8947368421053" y2="403.7513045318443" stroke-dasharray="1,0.5" stroke="#333c"/>
<line x1="330.7631578947369" y1="405.00061382863134" x2="341.8947368421053" y2="405.00061382863134" stroke-dasharray="1,0.5" stroke="#333c"/>
<line x1="336.32894736842104" y1="403.7513045318443" x2="336.32894736842104" y2="405.00061382863134" stroke-dasharray="1,0.5" stroke="#333c"/>
<rect x="341.89473684210526" y="410.21391218807315" width="11.131578947368421" height="87.7860878119267" fill="#FFB000" data-tooltip="1.16x baseline speed (YJIT 3.3.1)"/>
<line x1="341.89473684210526" y1="409.7591216270587" x2="353.0263157894737" y2="409.7591216270587" stroke-dasharray="1,0.5" stroke="#333c"/>
<line x1="341.89473684210526" y1="410.66870274908763" x2="353.0263157894737" y2="410.66870274908763" stroke-dasharray="1,0.5" stroke="#333c"/>
<line x1="347.4605263157894" y1="409.7591216270587" x2="347.4605263157894" y2="410.66870274908763" stroke-dasharray="1,0.5" stroke="#333c"/>
<rect x="353.0263157894737" y="387.57910164875057" width="11.131578947368421" height="110.42089835124936" fill="#DC267F" data-tooltip="1.46x baseline speed (YJIT 3.4.0dev)"/>
<line x1="353.0263157894737" y1="386.8303044423849" x2="364.15789473684214" y2="386.8303044423849" stroke-dasharray="1,0.5" stroke="#333c"/>
<line x1="353.0263157894737" y1="388.32789885511625" x2="364.15789473684214" y2="388.32789885511625" stroke-dasharray="1,0.5" stroke="#333c"/>
<line x1="358.59210526315786" y1="386.8303044423849" x2="358.59210526315786" y2="388.32789885511625" stroke-dasharray="1,0.5" stroke="#333c"/>
<line x1="341.89473684210526" y1="498.0" x2="341.89473684210526" y2="502.79999999999995" stroke="#000"/>
<text x="341.89473684210526" y="512.4" fill="#111" font-size="small" font-family="monospace" font-weight="bold" text-anchor="end" transform="rotate(-60, 341.89473684210526, 512.4)">
fluentd
</text>
<rect x="375.2894736842106" y="418.30454258721613" width="11.131578947368421" height="79.6954574127838" fill="#785EF0" data-tooltip="1.06x baseline speed (CRuby 3.4.0dev)"/>
<line x1="375.2894736842106" y1="418.14305713648173" x2="386.421052631579" y2="418.14305713648173" stroke-dasharray="1,0.5" stroke="#333c"/>
<line x1="375.2894736842106" y1="418.46602803795054" x2="386.421052631579" y2="418.46602803795054" stroke-dasharray="1,0.5" stroke="#333c"/>
<line x1="380.85526315789474" y1="418.14305713648173" x2="380.85526315789474" y2="418.46602803795054" stroke-dasharray="1,0.5" stroke="#333c"/>
<rect x="386.42105263157896" y="401.2728458557318" width="11.131578947368421" height="96.72715414426806" fill="#FFB000" data-tooltip="1.28x baseline speed (YJIT 3.3.1)"/>
<line x1="386.42105263157896" y1="401.0266217223049" x2="397.5526315789474" y2="401.0266217223049" stroke-dasharray="1,0.5" stroke="#333c"/>
<line x1="386.42105263157896" y1="401.51906998915877" x2="397.5526315789474" y2="401.51906998915877" stroke-dasharray="1,0.5" stroke="#333c"/>
<line x1="391.9868421052631" y1="401.0266217223049" x2="391.9868421052631" y2="401.51906998915877" stroke-dasharray="1,0.5" stroke="#333c"/>
<rect x="397.5526315789474" y="397.84197402363804" width="11.131578947368421" height="100.15802597636196" fill="#DC267F" data-tooltip="1.33x baseline speed (YJIT 3.4.0dev)"/>
<line x1="397.5526315789474" y1="397.62365950620153" x2="408.68421052631584" y2="397.62365950620153" stroke-dasharray="1,0.5" stroke="#333c"/>
<line x1="397.5526315789474" y1="398.06028854107456" x2="408.68421052631584" y2="398.06028854107456" stroke-dasharray="1,0.5" stroke="#333c"/>
<line x1="403.11842105263156" y1="397.62365950620153" x2="403.11842105263156" y2="398.06028854107456" stroke-dasharray="1,0.5" stroke="#333c"/>
<line x1="386.42105263157896" y1="498.0" x2="386.42105263157896" y2="502.79999999999995" stroke="#000"/>
<text x="386.42105263157896" y="512.4" fill="#111" font-size="small" font-family="monospace" font-weight="bold" text-anchor="end" transform="rotate(-60, 386.42105263157896, 512.4)">
graphql
</text>
<rect x="419.8157894736842" y="414.70785330618446" width="11.131578947368421" height="83.2921466938155" fill="#785EF0" data-tooltip="1.10x baseline speed (CRuby 3.4.0dev)"/>
<line x1="419.8157894736842" y1="414.61093405537355" x2="430.94736842105266" y2="414.61093405537355" stroke-dasharray="1,0.5" stroke="#333c"/>
<line x1="419.8157894736842" y1="414.8047725569954" x2="430.94736842105266" y2="414.8047725569954" stroke-dasharray="1,0.5" stroke="#333c"/>
<line x1="425.3815789473684" y1="414.61093405537355" x2="425.3815789473684" y2="414.8047725569954" stroke-dasharray="1,0.5" stroke="#333c"/>
<rect x="430.9473684210526" y="418.5676253580486" width="11.131578947368421" height="79.4323746419514" fill="#FFB000" data-tooltip="1.05x baseline speed (YJIT 3.3.1)"/>
<line x1="430.9473684210526" y1="418.02472291931593" x2="442.07894736842104" y2="418.02472291931593" stroke-dasharray="1,0.5" stroke="#333c"/>
<line x1="430.9473684210526" y1="419.11052779678124" x2="442.07894736842104" y2="419.11052779678124" stroke-dasharray="1,0.5" stroke="#333c"/>
<line x1="436.51315789473676" y1="418.02472291931593" x2="436.51315789473676" y2="419.11052779678124" stroke-dasharray="1,0.5" stroke="#333c"/>
<rect x="442.07894736842104" y="412.65190671599686" width="11.131578947368421" height="85.34809328400303" fill="#DC267F" data-tooltip="1.13x baseline speed (YJIT 3.4.0dev)"/>
<line x1="442.07894736842104" y1="411.9824944458003" x2="453.2105263157895" y2="411.9824944458003" stroke-dasharray="1,0.5" stroke="#333c"/>
<line x1="442.07894736842104" y1="413.32131898619343" x2="453.2105263157895" y2="413.32131898619343" stroke-dasharray="1,0.5" stroke="#333c"/>
<line x1="447.6447368421052" y1="411.9824944458003" x2="447.6447368421052" y2="413.32131898619343" stroke-dasharray="1,0.5" stroke="#333c"/>
<line x1="430.9473684210526" y1="498.0" x2="430.9473684210526" y2="502.79999999999995" stroke="#000"/>
<text x="430.9473684210526" y="512.4" fill="#111" font-size="small" font-family="monospace" font-weight="bold" text-anchor="end" transform="rotate(-60, 430.9473684210526, 512.4)">
graphql-native
</text>
<rect x="464.3421052631579" y="417.1490520489299" width="11.131578947368421" height="80.85094795107001" fill="#785EF0" data-tooltip="1.07x baseline speed (CRuby 3.4.0dev)"/>
<line x1="464.3421052631579" y1="416.1231375752621" x2="475.47368421052636" y2="416.1231375752621" stroke-dasharray="1,0.5" stroke="#333c"/>
<line x1="464.3421052631579" y1="418.17496652259774" x2="475.47368421052636" y2="418.17496652259774" stroke-dasharray="1,0.5" stroke="#333c"/>
<line x1="469.90789473684214" y1="416.1231375752621" x2="469.90789473684214" y2="418.17496652259774" stroke-dasharray="1,0.5" stroke="#333c"/>
<rect x="475.4736842105263" y="397.631123440786" width="11.131578947368421" height="100.36887655921393" fill="#FFB000" data-tooltip="1.33x baseline speed (YJIT 3.3.1)"/>
<line x1="475.4736842105263" y1="396.31249362041723" x2="486.60526315789474" y2="396.31249362041723" stroke-dasharray="1,0.5" stroke="#333c"/>
<line x1="475.4736842105263" y1="398.94975326115474" x2="486.60526315789474" y2="398.94975326115474" stroke-dasharray="1,0.5" stroke="#333c"/>
<line x1="481.0394736842105" y1="396.31249362041723" x2="481.0394736842105" y2="398.94975326115474" stroke-dasharray="1,0.5" stroke="#333c"/>
<rect x="486.60526315789474" y="377.2433218523651" width="11.131578947368421" height="120.75667814763482" fill="#DC267F" data-tooltip="1.60x baseline speed (YJIT 3.4.0dev)"/>
<line x1="486.60526315789474" y1="375.7101942192291" x2="497.7368421052632" y2="375.7101942192291" stroke-dasharray="1,0.5" stroke="#333c"/>
<line x1="486.60526315789474" y1="378.7764494855012" x2="497.7368421052632" y2="378.7764494855012" stroke-dasharray="1,0.5" stroke="#333c"/>
<line x1="492.17105263157896" y1="375.7101942192291" x2="492.17105263157896" y2="378.7764494855012" stroke-dasharray="1,0.5" stroke="#333c"/>
<line x1="475.4736842105263" y1="498.0" x2="475.4736842105263" y2="502.79999999999995" stroke="#000"/>
<text x="475.4736842105263" y="512.4" fill="#111" font-size="small" font-family="monospace" font-weight="bold" text-anchor="end" transform="rotate(-60, 475.4736842105263, 512.4)">
lee
</text>
<rect x="508.8684210526315" y="419.03295050392467" width="11.131578947368421" height="78.96704949607536" fill="#785EF0" data-tooltip="1.05x baseline speed (CRuby 3.4.0dev)"/>
<line x1="508.8684210526315" y1="414.5716688787479" x2="519.9999999999999" y2="414.5716688787479" stroke-dasharray="1,0.5" stroke="#333c"/>
<line x1="508.8684210526315" y1="423.4942321291014" x2="519.9999999999999" y2="423.4942321291014" stroke-dasharray="1,0.5" stroke="#333c"/>
<line x1="514.4342105263157" y1="414.5716688787479" x2="514.4342105263157" y2="423.4942321291014" stroke-dasharray="1,0.5" stroke="#333c"/>
<rect x="520.0" y="359.5737356029121" width="11.131578947368421" height="138.4262643970879" fill="#FFB000" data-tooltip="1.83x baseline speed (YJIT 3.3.1)"/>
<line x1="520.0" y1="355.36569515921167" x2="531.1315789473684" y2="355.36569515921167" stroke-dasharray="1,0.5" stroke="#333c"/>
<line x1="520.0" y1="363.78177604661255" x2="531.1315789473684" y2="363.78177604661255" stroke-dasharray="1,0.5" stroke="#333c"/>
<line x1="525.5657894736843" y1="355.36569515921167" x2="525.5657894736843" y2="363.78177604661255" stroke-dasharray="1,0.5" stroke="#333c"/>
<rect x="531.1315789473684" y="357.40737721749866" width="11.131578947368421" height="140.59262278250128" fill="#DC267F" data-tooltip="1.86x baseline speed (YJIT 3.4.0dev)"/>
<line x1="531.1315789473684" y1="353.1477496731394" x2="542.2631578947368" y2="353.1477496731394" stroke-dasharray="1,0.5" stroke="#333c"/>
<line x1="531.1315789473684" y1="361.667004761858" x2="542.2631578947368" y2="361.667004761858" stroke-dasharray="1,0.5" stroke="#333c"/>
<line x1="536.6973684210526" y1="353.1477496731394" x2="536.6973684210526" y2="361.667004761858" stroke-dasharray="1,0.5" stroke="#333c"/>
<line x1="520.0" y1="498.0" x2="520.0" y2="502.79999999999995" stroke="#000"/>
<text x="520.0" y="512.4" fill="#111" font-size="small" font-family="monospace" font-weight="bold" text-anchor="end" transform="rotate(-60, 520.0, 512.4)">
matmul
</text>
<rect x="553.3947368421053" y="423.77261502628045" width="11.131578947368421" height="74.22738497371951" fill="#785EF0" data-tooltip="0.98x baseline speed (CRuby 3.4.0dev)"/>
<line x1="553.3947368421053" y1="422.5900100158827" x2="564.5263157894736" y2="422.5900100158827" stroke-dasharray="1,0.5" stroke="#333c"/>
<line x1="553.3947368421053" y1="424.95522003667827" x2="564.5263157894736" y2="424.95522003667827" stroke-dasharray="1,0.5" stroke="#333c"/>
<line x1="558.9605263157895" y1="422.5900100158827" x2="558.9605263157895" y2="424.95522003667827" stroke-dasharray="1,0.5" stroke="#333c"/>
<rect x="564.5263157894738" y="321.65979595633553" width="11.131578947368421" height="176.34020404366436" fill="#FFB000" data-tooltip="2.34x baseline speed (YJIT 3.3.1)"/>
<line x1="564.5263157894738" y1="319.25073706273207" x2="575.6578947368422" y2="319.25073706273207" stroke-dasharray="1,0.5" stroke="#333c"/>
<line x1="564.5263157894738" y1="324.068854849939" x2="575.6578947368422" y2="324.068854849939" stroke-dasharray="1,0.5" stroke="#333c"/>
<line x1="570.092105263158" y1="319.25073706273207" x2="570.092105263158" y2="324.068854849939" stroke-dasharray="1,0.5" stroke="#333c"/>
<rect x="575.6578947368422" y="333.0130777190462" width="11.131578947368421" height="164.98692228095376" fill="#DC267F" data-tooltip="2.19x baseline speed (YJIT 3.4.0dev)"/>
<line x1="575.6578947368422" y1="330.657112539317" x2="586.7894736842105" y2="330.657112539317" stroke-dasharray="1,0.5" stroke="#333c"/>
<line x1="575.6578947368422" y1="335.3690428987754" x2="586.7894736842105" y2="335.3690428987754" stroke-dasharray="1,0.5" stroke="#333c"/>
<line x1="581.2236842105264" y1="330.657112539317" x2="581.2236842105264" y2="335.3690428987754" stroke-dasharray="1,0.5" stroke="#333c"/>
<line x1="564.5263157894738" y1="498.0" x2="564.5263157894738" y2="502.79999999999995" stroke="#000"/>
<text x="564.5263157894738" y="512.4" fill="#111" font-size="small" font-family="monospace" font-weight="bold" text-anchor="end" transform="rotate(-60, 564.5263157894738, 512.4)">
nbody
</text>
<rect x="597.921052631579" y="419.3981356632519" width="11.131578947368421" height="78.60186433674806" fill="#785EF0" data-tooltip="1.04x baseline speed (CRuby 3.4.0dev)"/>
<line x1="597.921052631579" y1="416.5640970518604" x2="609.0526315789473" y2="416.5640970518604" stroke-dasharray="1,0.5" stroke="#333c"/>
<line x1="597.921052631579" y1="422.23217427464334" x2="609.0526315789473" y2="422.23217427464334" stroke-dasharray="1,0.5" stroke="#333c"/>
<line x1="603.4868421052631" y1="416.5640970518604" x2="603.4868421052631" y2="422.23217427464334" stroke-dasharray="1,0.5" stroke="#333c"/>
<rect x="609.0526315789474" y="420.0828861974337" width="11.131578947368421" height="77.91711380256619" fill="#FFB000" data-tooltip="1.03x baseline speed (YJIT 3.3.1)"/>
<line x1="609.0526315789474" y1="417.5251654847055" x2="620.1842105263158" y2="417.5251654847055" stroke-dasharray="1,0.5" stroke="#333c"/>
<line x1="609.0526315789474" y1="422.64060691016186" x2="620.1842105263158" y2="422.64060691016186" stroke-dasharray="1,0.5" stroke="#333c"/>
<line x1="614.6184210526317" y1="417.5251654847055" x2="614.6184210526317" y2="422.64060691016186" stroke-dasharray="1,0.5" stroke="#333c"/>
<rect x="620.1842105263158" y="100.19999999999999" width="11.131578947368421" height="397.79999999999995" fill="#DC267F" data-tooltip="5.27x baseline speed (YJIT 3.4.0dev)"/>
<line x1="620.1842105263158" y1="89.8353863614756" x2="631.3157894736842" y2="89.8353863614756" stroke-dasharray="1,0.5" stroke="#333c"/>
<line x1="620.1842105263158" y1="110.56461363852438" x2="631.3157894736842" y2="110.56461363852438" stroke-dasharray="1,0.5" stroke="#333c"/>
<line x1="625.75" y1="89.8353863614756" x2="625.75" y2="110.56461363852438" stroke-dasharray="1,0.5" stroke="#333c"/>
<line x1="609.0526315789474" y1="498.0" x2="609.0526315789474" y2="502.79999999999995" stroke="#000"/>
<text x="609.0526315789474" y="512.4" fill="#111" font-size="small" font-family="monospace" font-weight="bold" text-anchor="end" transform="rotate(-60, 609.0526315789474, 512.4)">
nqueens
</text>
<rect x="642.4473684210525" y="417.29324759454937" width="11.131578947368421" height="80.7067524054505" fill="#785EF0" data-tooltip="1.07x baseline speed (CRuby 3.4.0dev)"/>
<line x1="642.4473684210525" y1="416.7875845956562" x2="653.5789473684209" y2="416.7875845956562" stroke-dasharray="1,0.5" stroke="#333c"/>
<line x1="642.4473684210525" y1="417.79891059344254" x2="653.5789473684209" y2="417.79891059344254" stroke-dasharray="1,0.5" stroke="#333c"/>
<line x1="648.0131578947368" y1="416.7875845956562" x2="648.0131578947368" y2="417.79891059344254" stroke-dasharray="1,0.5" stroke="#333c"/>
<rect x="653.578947368421" y="323.6829746365443" width="11.131578947368421" height="174.31702536345557" fill="#FFB000" data-tooltip="2.31x baseline speed (YJIT 3.3.1)"/>
<line x1="653.578947368421" y1="322.5184898453703" x2="664.7105263157894" y2="322.5184898453703" stroke-dasharray="1,0.5" stroke="#333c"/>
<line x1="653.578947368421" y1="324.8474594277184" x2="664.7105263157894" y2="324.8474594277184" stroke-dasharray="1,0.5" stroke="#333c"/>
<line x1="659.1447368421053" y1="322.5184898453703" x2="659.1447368421053" y2="324.8474594277184" stroke-dasharray="1,0.5" stroke="#333c"/>
<rect x="664.7105263157894" y="308.11461111080837" width="11.131578947368421" height="189.88538888919157" fill="#DC267F" data-tooltip="2.52x baseline speed (YJIT 3.4.0dev)"/>
<line x1="664.7105263157894" y1="306.9973849287259" x2="675.8421052631578" y2="306.9973849287259" stroke-dasharray="1,0.5" stroke="#333c"/>
<line x1="664.7105263157894" y1="309.2318372928908" x2="675.8421052631578" y2="309.2318372928908" stroke-dasharray="1,0.5" stroke="#333c"/>
<line x1="670.2763157894736" y1="306.9973849287259" x2="670.2763157894736" y2="309.2318372928908" stroke-dasharray="1,0.5" stroke="#333c"/>
<line x1="653.578947368421" y1="498.0" x2="653.578947368421" y2="502.79999999999995" stroke="#000"/>
<text x="653.578947368421" y="512.4" fill="#111" font-size="small" font-family="monospace" font-weight="bold" text-anchor="end" transform="rotate(-60, 653.578947368421, 512.4)">
optcarrot
</text>
<rect x="686.9736842105262" y="420.6861281621448" width="11.131578947368421" height="77.31387183785507" fill="#785EF0" data-tooltip="1.02x baseline speed (CRuby 3.4.0dev)"/>
<line x1="686.9736842105262" y1="419.583794555331" x2="698.1052631578947" y2="419.583794555331" stroke-dasharray="1,0.5" stroke="#333c"/>
<line x1="686.9736842105262" y1="421.7884617689587" x2="698.1052631578947" y2="421.7884617689587" stroke-dasharray="1,0.5" stroke="#333c"/>
<line x1="692.5394736842105" y1="419.583794555331" x2="692.5394736842105" y2="421.7884617689587" stroke-dasharray="1,0.5" stroke="#333c"/>
<rect x="698.1052631578948" y="340.0363778494856" width="11.131578947368421" height="157.96362215051434" fill="#FFB000" data-tooltip="2.09x baseline speed (YJIT 3.3.1)"/>
<line x1="698.1052631578948" y1="338.2415735763581" x2="709.2368421052631" y2="338.2415735763581" stroke-dasharray="1,0.5" stroke="#333c"/>
<line x1="698.1052631578948" y1="341.83118212261303" x2="709.2368421052631" y2="341.83118212261303" stroke-dasharray="1,0.5" stroke="#333c"/>
<line x1="703.6710526315791" y1="338.2415735763581" x2="703.6710526315791" y2="341.83118212261303" stroke-dasharray="1,0.5" stroke="#333c"/>
<rect x="709.2368421052631" y="266.9602121101934" width="11.131578947368421" height="231.0397878898065" fill="#DC267F" data-tooltip="3.06x baseline speed (YJIT 3.4.0dev)"/>
<line x1="709.2368421052631" y1="264.3381339001509" x2="720.3684210526316" y2="264.3381339001509" stroke-dasharray="1,0.5" stroke="#333c"/>
<line x1="709.2368421052631" y1="269.582290320236" x2="720.3684210526316" y2="269.582290320236" stroke-dasharray="1,0.5" stroke="#333c"/>
<line x1="714.8026315789474" y1="264.3381339001509" x2="714.8026315789474" y2="269.582290320236" stroke-dasharray="1,0.5" stroke="#333c"/>
<line x1="698.1052631578948" y1="498.0" x2="698.1052631578948" y2="502.79999999999995" stroke="#000"/>
<text x="698.1052631578948" y="512.4" fill="#111" font-size="small" font-family="monospace" font-weight="bold" text-anchor="end" transform="rotate(-60, 698.1052631578948, 512.4)">
protoboeuf
</text>
<rect x="731.4999999999999" y="415.42082775660776" width="11.131578947368421" height="82.57917224339221" fill="#785EF0" data-tooltip="1.09x baseline speed (CRuby 3.4.0dev)"/>
<line x1="731.4999999999999" y1="414.88346518400334" x2="742.6315789473683" y2="414.88346518400334" stroke-dasharray="1,0.5" stroke="#333c"/>
<line x1="731.4999999999999" y1="415.95819032921213" x2="742.6315789473683" y2="415.95819032921213" stroke-dasharray="1,0.5" stroke="#333c"/>
<line x1="737.0657894736842" y1="414.88346518400334" x2="737.0657894736842" y2="415.95819032921213" stroke-dasharray="1,0.5" stroke="#333c"/>
<rect x="742.6315789473684" y="389.8138691884073" width="11.131578947368421" height="108.18613081159262" fill="#FFB000" data-tooltip="1.43x baseline speed (YJIT 3.3.1)"/>
<line x1="742.6315789473684" y1="389.1310559301957" x2="753.7631578947368" y2="389.1310559301957" stroke-dasharray="1,0.5" stroke="#333c"/>
<line x1="742.6315789473684" y1="390.4966824466189" x2="753.7631578947368" y2="390.4966824466189" stroke-dasharray="1,0.5" stroke="#333c"/>
<line x1="748.1973684210527" y1="389.1310559301957" x2="748.1973684210527" y2="390.4966824466189" stroke-dasharray="1,0.5" stroke="#333c"/>
<rect x="753.7631578947368" y="371.14525351435" width="11.131578947368421" height="126.85474648564995" fill="#DC267F" data-tooltip="1.68x baseline speed (YJIT 3.4.0dev)"/>
<line x1="753.7631578947368" y1="369.6691411200334" x2="764.8947368421052" y2="369.6691411200334" stroke-dasharray="1,0.5" stroke="#333c"/>
<line x1="753.7631578947368" y1="372.6213659086666" x2="764.8947368421052" y2="372.6213659086666" stroke-dasharray="1,0.5" stroke="#333c"/>
<line x1="759.328947368421" y1="369.6691411200334" x2="759.328947368421" y2="372.6213659086666" stroke-dasharray="1,0.5" stroke="#333c"/>
<line x1="742.6315789473684" y1="498.0" x2="742.6315789473684" y2="502.79999999999995" stroke="#000"/>
<text x="742.6315789473684" y="512.4" fill="#111" font-size="small" font-family="monospace" font-weight="bold" text-anchor="end" transform="rotate(-60, 742.6315789473684, 512.4)">
rack
</text>
<rect x="776.0263157894736" y="418.99955889422176" width="11.131578947368421" height="79.00044110577812" fill="#785EF0" data-tooltip="1.05x baseline speed (CRuby 3.4.0dev)"/>
<line x1="776.0263157894736" y1="418.8730657401938" x2="787.1578947368421" y2="418.8730657401938" stroke-dasharray="1,0.5" stroke="#333c"/>
<line x1="776.0263157894736" y1="419.12605204824973" x2="787.1578947368421" y2="419.12605204824973" stroke-dasharray="1,0.5" stroke="#333c"/>
<line x1="781.5921052631579" y1="418.8730657401938" x2="781.5921052631579" y2="419.12605204824973" stroke-dasharray="1,0.5" stroke="#333c"/>
<rect x="787.1578947368422" y="405.46909597483426" width="11.131578947368421" height="92.53090402516573" fill="#FFB000" data-tooltip="1.23x baseline speed (YJIT 3.3.1)"/>
<line x1="787.1578947368422" y1="405.25147483848735" x2="798.2894736842105" y2="405.25147483848735" stroke-dasharray="1,0.5" stroke="#333c"/>
<line x1="787.1578947368422" y1="405.68671711118117" x2="798.2894736842105" y2="405.68671711118117" stroke-dasharray="1,0.5" stroke="#333c"/>
<line x1="792.7236842105264" y1="405.25147483848735" x2="792.7236842105264" y2="405.68671711118117" stroke-dasharray="1,0.5" stroke="#333c"/>
<rect x="798.2894736842105" y="402.23472538803713" width="11.131578947368421" height="95.7652746119628" fill="#DC267F" data-tooltip="1.27x baseline speed (YJIT 3.4.0dev)"/>
<line x1="798.2894736842105" y1="402.10977557442493" x2="809.421052631579" y2="402.10977557442493" stroke-dasharray="1,0.5" stroke="#333c"/>
<line x1="798.2894736842105" y1="402.3596752016493" x2="809.421052631579" y2="402.3596752016493" stroke-dasharray="1,0.5" stroke="#333c"/>
<line x1="803.8552631578948" y1="402.10977557442493" x2="803.8552631578948" y2="402.3596752016493" stroke-dasharray="1,0.5" stroke="#333c"/>
<line x1="787.1578947368422" y1="498.0" x2="787.1578947368422" y2="502.79999999999995" stroke="#000"/>
<text x="787.1578947368422" y="512.4" fill="#111" font-size="small" font-family="monospace" font-weight="bold" text-anchor="end" transform="rotate(-60, 787.1578947368422, 512.4)">
ruby-json
</text>
<rect x="820.5526315789473" y="420.33535647833224" width="11.131578947368421" height="77.66464352166777" fill="#785EF0" data-tooltip="1.03x baseline speed (CRuby 3.4.0dev)"/>
<line x1="820.5526315789473" y1="419.5430285940827" x2="831.6842105263157" y2="419.5430285940827" stroke-dasharray="1,0.5" stroke="#333c"/>
<line x1="820.5526315789473" y1="421.1276843625817" x2="831.6842105263157" y2="421.1276843625817" stroke-dasharray="1,0.5" stroke="#333c"/>
<line x1="826.1184210526316" y1="419.5430285940827" x2="826.1184210526316" y2="421.1276843625817" stroke-dasharray="1,0.5" stroke="#333c"/>
<rect x="831.6842105263158" y="365.26174019517475" width="11.131578947368421" height="132.73825980482513" fill="#FFB000" data-tooltip="1.76x baseline speed (YJIT 3.3.1)"/>
<line x1="831.6842105263158" y1="363.9758848923167" x2="842.8157894736842" y2="363.9758848923167" stroke-dasharray="1,0.5" stroke="#333c"/>
<line x1="831.6842105263158" y1="366.5475954980329" x2="842.8157894736842" y2="366.5475954980329" stroke-dasharray="1,0.5" stroke="#333c"/>
<line x1="837.25" y1="363.9758848923167" x2="837.25" y2="366.5475954980329" stroke-dasharray="1,0.5" stroke="#333c"/>
<rect x="842.8157894736842" y="357.8486641858693" width="11.131578947368421" height="140.15133581413062" fill="#DC267F" data-tooltip="1.86x baseline speed (YJIT 3.4.0dev)"/>
<line x1="842.8157894736842" y1="356.4104448214314" x2="853.9473684210526" y2="356.4104448214314" stroke-dasharray="1,0.5" stroke="#333c"/>
<line x1="842.8157894736842" y1="359.2868835503072" x2="853.9473684210526" y2="359.2868835503072" stroke-dasharray="1,0.5" stroke="#333c"/>
<line x1="848.3815789473684" y1="356.4104448214314" x2="848.3815789473684" y2="359.2868835503072" stroke-dasharray="1,0.5" stroke="#333c"/>
<line x1="831.6842105263158" y1="498.0" x2="831.6842105263158" y2="502.79999999999995" stroke="#000"/>
<text x="831.6842105263158" y="512.4" fill="#111" font-size="small" font-family="monospace" font-weight="bold" text-anchor="end" transform="rotate(-60, 831.6842105263158, 512.4)">
rubykon
</text>
<rect x="865.0789473684209" y="421.2127784396565" width="11.131578947368421" height="76.78722156034343" fill="#785EF0" data-tooltip="1.02x baseline speed (CRuby 3.4.0dev)"/>
<line x1="865.0789473684209" y1="420.7054755319051" x2="876.2105263157894" y2="420.7054755319051" stroke-dasharray="1,0.5" stroke="#333c"/>
<line x1="865.0789473684209" y1="421.7200813474079" x2="876.2105263157894" y2="421.7200813474079" stroke-dasharray="1,0.5" stroke="#333c"/>
<line x1="870.6447368421052" y1="420.7054755319051" x2="870.6447368421052" y2="421.7200813474079" stroke-dasharray="1,0.5" stroke="#333c"/>
<rect x="876.2105263157895" y="270.99161529150444" width="11.131578947368421" height="227.0083847084955" fill="#FFB000" data-tooltip="3.01x baseline speed (YJIT 3.3.1)"/>
<line x1="876.2105263157895" y1="269.7037816668235" x2="887.3421052631578" y2="269.7037816668235" stroke-dasharray="1,0.5" stroke="#333c"/>
<line x1="876.2105263157895" y1="272.27944891618546" x2="887.3421052631578" y2="272.27944891618546" stroke-dasharray="1,0.5" stroke="#333c"/>
<line x1="881.7763157894736" y1="269.7037816668235" x2="881.7763157894736" y2="272.27944891618546" stroke-dasharray="1,0.5" stroke="#333c"/>
<rect x="887.3421052631578" y="244.46009389577034" width="11.131578947368421" height="253.5399061042296" fill="#DC267F" data-tooltip="3.36x baseline speed (YJIT 3.4.0dev)"/>
<line x1="887.3421052631578" y1="243.00752581739513" x2="898.4736842105262" y2="243.00752581739513" stroke-dasharray="1,0.5" stroke="#333c"/>
<line x1="887.3421052631578" y1="245.91266197414558" x2="898.4736842105262" y2="245.91266197414558" stroke-dasharray="1,0.5" stroke="#333c"/>
<line x1="892.9078947368421" y1="243.00752581739513" x2="892.9078947368421" y2="245.91266197414558" stroke-dasharray="1,0.5" stroke="#333c"/>
<line x1="876.2105263157895" y1="498.0" x2="876.2105263157895" y2="502.79999999999995" stroke="#000"/>
<text x="876.2105263157895" y="512.4" fill="#111" font-size="small" font-family="monospace" font-weight="bold" text-anchor="end" transform="rotate(-60, 876.2105263157895, 512.4)">
sudoku
</text>
<rect x="909.6052631578947" y="421.2974659037072" width="11.131578947368421" height="76.70253409629277" fill="#785EF0" data-tooltip="1.02x baseline speed (CRuby 3.4.0dev)"/>
<line x1="909.6052631578947" y1="421.0472476025788" x2="920.7368421052631" y2="421.0472476025788" stroke-dasharray="1,0.5" stroke="#333c"/>
<line x1="909.6052631578947" y1="421.5476842048355" x2="920.7368421052631" y2="421.5476842048355" stroke-dasharray="1,0.5" stroke="#333c"/>
<line x1="915.171052631579" y1="421.0472476025788" x2="915.171052631579" y2="421.5476842048355" stroke-dasharray="1,0.5" stroke="#333c"/>
<rect x="920.7368421052632" y="364.59077790595353" width="11.131578947368421" height="133.40922209404638" fill="#FFB000" data-tooltip="1.77x baseline speed (YJIT 3.3.1)"/>
<line x1="920.7368421052632" y1="364.3320111027191" x2="931.8684210526316" y2="364.3320111027191" stroke-dasharray="1,0.5" stroke="#333c"/>
<line x1="920.7368421052632" y1="364.849544709188" x2="931.8684210526316" y2="364.849544709188" stroke-dasharray="1,0.5" stroke="#333c"/>
<line x1="926.3026315789474" y1="364.3320111027191" x2="926.3026315789474" y2="364.849544709188" stroke-dasharray="1,0.5" stroke="#333c"/>
<rect x="931.8684210526316" y="358.4650978651483" width="11.131578947368421" height="139.53490213485162" fill="#DC267F" data-tooltip="1.85x baseline speed (YJIT 3.4.0dev)"/>
<line x1="931.8684210526316" y1="358.21149975576924" x2="943.0" y2="358.21149975576924" stroke-dasharray="1,0.5" stroke="#333c"/>
<line x1="931.8684210526316" y1="358.7186959745274" x2="943.0" y2="358.7186959745274" stroke-dasharray="1,0.5" stroke="#333c"/>
<line x1="937.4342105263158" y1="358.21149975576924" x2="937.4342105263158" y2="358.7186959745274" stroke-dasharray="1,0.5" stroke="#333c"/>
<line x1="920.7368421052632" y1="498.0" x2="920.7368421052632" y2="502.79999999999995" stroke="#000"/>
<text x="920.7368421052632" y="512.4" fill="#111" font-size="small" font-family="monospace" font-weight="bold" text-anchor="end" transform="rotate(-60, 920.7368421052632, 512.4)">
tinygql
</text>
<line x1="50.0" y1="422.506090336544" x2="990.0" y2="422.506090336544" stroke="#648FFF" stroke-width="2"/>
</svg>