<svg viewBox="0 0 1000 600" xmlns="http://www.w3.org/2000/svg" xmlns:xlink="http://www.w3.org/1999/xlink" width="100%" height="100%">

<rect x="50.0" y="30.0" width="940.0" height="467.99999999999994" stroke="#000" fill="#fff"/>
<line x1="42.0" y1="497.9999999999999" x2="50.0" y2="497.9999999999999" stroke="#000"/>
<text x="26.000000000000004" y="497.9999999999999" text-anchor="end" font-weight="bold" font-size="small" fill="#111">
0.0
</text>
<line x1="42.0" y1="402.1078430699096" x2="50.0" y2="402.1078430699096" stroke="#000"/>
<text x="26.000000000000004" y="402.1078430699096" text-anchor="end" font-weight="bold" font-size="small" fill="#111">
5.0
</text>
<line x1="42.0" y1="306.21568613981947" x2="50.0" y2="306.21568613981947" stroke="#000"/>
<text x="26.000000000000004" y="306.21568613981947" text-anchor="end" font-weight="bold" font-size="small" fill="#111">
10.0
</text>
<line x1="42.0" y1="210.32352920972914" x2="50.0" y2="210.32352920972914" stroke="#000"/>
<text x="26.000000000000004" y="210.32352920972914" text-anchor="end" font-weight="bold" font-size="small" fill="#111">
15.0
</text>
<line x1="42.0" y1="114.43137227963886" x2="50.0" y2="114.43137227963886" stroke="#000"/>
<text x="26.000000000000004" y="114.43137227963886" text-anchor="end" font-weight="bold" font-size="small" fill="#111">
20.0
</text>
<line x1="142.75" y1="54.60000000000001" x2="262.75" y2="54.60000000000001" stroke="#648FFF" stroke-width="2"/>
<text x="202.75" y="49.500000000000014" font-size="small" text-anchor="middle" font-weight="bold" fill="#000">
CRuby 3.3.1
</text>
<rect x="354.25" y="35.400000000000006" width="120.0" height="19.2" fill="#785EF0" stroke="none"/>
<text x="414.25" y="49.500000000000014" font-size="small" text-anchor="middle" font-weight="bold" fill="#fff" style="text-shadow: 0 0 1px #000;">
CRuby 3.4.0dev
</text>
<rect x="565.75" y="35.400000000000006" width="120.0" height="19.2" fill="#FFB000" stroke="none"/>
<text x="625.7499999999999" y="49.500000000000014" font-size="small" text-anchor="middle" font-weight="bold" fill="#fff" style="text-shadow: 0 0 1px #000;">
YJIT 3.3.1
</text>
<rect x="777.25" y="35.400000000000006" width="120.0" height="19.2" fill="#DC267F" stroke="none"/>
<text x="837.2499999999999" y="49.500000000000014" font-size="small" text-anchor="middle" font-weight="bold" fill="#fff" style="text-shadow: 0 0 1px #000;">
YJIT 3.4.0dev
</text>
<rect x="113.26923076923077" y="480.6862181864288" width="16.26923076923077" height="17.313781813571072" fill="#785EF0" data-tooltip="0.90x baseline speed (CRuby 3.4.0dev)"/>
<line x1="113.26923076923077" y1="480.6600100618248" x2="129.53846153846155" y2="480.6600100618248" stroke-dasharray="1,0.5" stroke="#333c"/>
<line x1="113.26923076923077" y1="480.71242631103274" x2="129.53846153846155" y2="480.71242631103274" stroke-dasharray="1,0.5" stroke="#333c"/>
<line x1="121.40384615384616" y1="480.6600100618248" x2="121.40384615384616" y2="480.71242631103274" stroke-dasharray="1,0.5" stroke="#333c"/>
<rect x="129.53846153846155" y="416.0418288498605" width="16.26923076923077" height="81.95817115013944" fill="#FFB000" data-tooltip="4.27x baseline speed (YJIT 3.3.1)"/>
<line x1="129.53846153846155" y1="415.9197283809063" x2="145.8076923076923" y2="415.9197283809063" stroke-dasharray="1,0.5" stroke="#333c"/>
<line x1="129.53846153846155" y1="416.1639293188147" x2="145.8076923076923" y2="416.1639293188147" stroke-dasharray="1,0.5" stroke="#333c"/>
<line x1="137.67307692307693" y1="415.9197283809063" x2="137.67307692307693" y2="416.1639293188147" stroke-dasharray="1,0.5" stroke="#333c"/>
<rect x="145.8076923076923" y="414.0663484162329" width="16.26923076923077" height="83.93365158376702" fill="#DC267F" data-tooltip="4.38x baseline speed (YJIT 3.4.0dev)"/>
<line x1="145.8076923076923" y1="413.94287298100147" x2="162.07692307692307" y2="413.94287298100147" stroke-dasharray="1,0.5" stroke="#333c"/>
<line x1="145.8076923076923" y1="414.1898238514644" x2="162.07692307692307" y2="414.1898238514644" stroke-dasharray="1,0.5" stroke="#333c"/>
<line x1="153.94230769230768" y1="413.94287298100147" x2="153.94230769230768" y2="414.1898238514644" stroke-dasharray="1,0.5" stroke="#333c"/>
<line x1="129.53846153846155" y1="498.0" x2="129.53846153846155" y2="502.79999999999995" stroke="#000"/>
<text x="129.53846153846155" y="512.4" fill="#111" font-size="small" font-family="monospace" font-weight="bold" text-anchor="end" transform="rotate(-60, 129.53846153846155, 512.4)">
30k_ifelse
</text>
<rect x="178.3461538461538" y="478.9643267449859" width="16.26923076923077" height="19.035673255014082" fill="#785EF0" data-tooltip="0.99x baseline speed (CRuby 3.4.0dev)"/>
<line x1="178.3461538461538" y1="478.9509260815071" x2="194.61538461538458" y2="478.9509260815071" stroke-dasharray="1,0.5" stroke="#333c"/>
<line x1="178.3461538461538" y1="478.9777274084647" x2="194.61538461538458" y2="478.9777274084647" stroke-dasharray="1,0.5" stroke="#333c"/>
<line x1="186.4807692307692" y1="478.9509260815071" x2="186.4807692307692" y2="478.9777274084647" stroke-dasharray="1,0.5" stroke="#333c"/>
<rect x="194.6153846153846" y="388.64739918291394" width="16.26923076923077" height="109.35260081708597" fill="#FFB000" data-tooltip="5.70x baseline speed (YJIT 3.3.1)"/>
<line x1="194.6153846153846" y1="388.55771291479397" x2="210.88461538461536" y2="388.55771291479397" stroke-dasharray="1,0.5" stroke="#333c"/>
<line x1="194.6153846153846" y1="388.7370854510339" x2="210.88461538461536" y2="388.7370854510339" stroke-dasharray="1,0.5" stroke="#333c"/>
<line x1="202.75" y1="388.55771291479397" x2="202.75" y2="388.7370854510339" stroke-dasharray="1,0.5" stroke="#333c"/>
<rect x="210.88461538461536" y="387.2132304968726" width="16.26923076923077" height="110.78676950312737" fill="#DC267F" data-tooltip="5.78x baseline speed (YJIT 3.4.0dev)"/>
<line x1="210.88461538461536" y1="387.132978280971" x2="227.15384615384613" y2="387.132978280971" stroke-dasharray="1,0.5" stroke="#333c"/>
<line x1="210.88461538461536" y1="387.2934827127742" x2="227.15384615384613" y2="387.2934827127742" stroke-dasharray="1,0.5" stroke="#333c"/>
<line x1="219.01923076923075" y1="387.132978280971" x2="219.01923076923075" y2="387.2934827127742" stroke-dasharray="1,0.5" stroke="#333c"/>
<line x1="194.6153846153846" y1="498.0" x2="194.6153846153846" y2="502.79999999999995" stroke="#000"/>
<text x="194.6153846153846" y="512.4" fill="#111" font-size="small" font-family="monospace" font-weight="bold" text-anchor="end" transform="rotate(-60, 194.6153846153846, 512.4)">
30k_methods
</text>
<rect x="243.4230769230769" y="478.74262200870646" width="16.26923076923077" height="19.25737799129352" fill="#785EF0" data-tooltip="1.00x baseline speed (CRuby 3.4.0dev)"/>
<line x1="243.4230769230769" y1="478.69886414323867" x2="259.6923076923077" y2="478.69886414323867" stroke-dasharray="1,0.5" stroke="#333c"/>
<line x1="243.4230769230769" y1="478.78637987417426" x2="259.6923076923077" y2="478.78637987417426" stroke-dasharray="1,0.5" stroke="#333c"/>
<line x1="251.55769230769232" y1="478.69886414323867" x2="251.55769230769232" y2="478.78637987417426" stroke-dasharray="1,0.5" stroke="#333c"/>
<rect x="259.6923076923077" y="387.7239432962191" width="16.26923076923077" height="110.27605670378085" fill="#FFB000" data-tooltip="5.75x baseline speed (YJIT 3.3.1)"/>
<line x1="259.6923076923077" y1="372.784342691634" x2="275.96153846153845" y2="372.784342691634" stroke-dasharray="1,0.5" stroke="#333c"/>
<line x1="259.6923076923077" y1="402.66354390080414" x2="275.96153846153845" y2="402.66354390080414" stroke-dasharray="1,0.5" stroke="#333c"/>
<line x1="267.8269230769231" y1="372.784342691634" x2="267.8269230769231" y2="402.66354390080414" stroke-dasharray="1,0.5" stroke="#333c"/>
<rect x="275.96153846153845" y="373.75446132455346" width="16.26923076923077" height="124.24553867544645" fill="#DC267F" data-tooltip="6.48x baseline speed (YJIT 3.4.0dev)"/>
<line x1="275.96153846153845" y1="356.583362742375" x2="292.2307692307692" y2="356.583362742375" stroke-dasharray="1,0.5" stroke="#333c"/>
<line x1="275.96153846153845" y1="390.9255599067319" x2="292.2307692307692" y2="390.9255599067319" stroke-dasharray="1,0.5" stroke="#333c"/>
<line x1="284.09615384615387" y1="356.583362742375" x2="284.09615384615387" y2="390.9255599067319" stroke-dasharray="1,0.5" stroke="#333c"/>
<line x1="259.6923076923077" y1="498.0" x2="259.6923076923077" y2="502.79999999999995" stroke="#000"/>
<text x="259.6923076923077" y="512.4" fill="#111" font-size="small" font-family="monospace" font-weight="bold" text-anchor="end" transform="rotate(-60, 259.6923076923077, 512.4)">
cfunc_itself
</text>
<rect x="308.49999999999994" y="478.6796541016988" width="16.26923076923077" height="19.32034589830104" fill="#785EF0" data-tooltip="1.01x baseline speed (CRuby 3.4.0dev)"/>
<line x1="308.49999999999994" y1="478.2080863474373" x2="324.7692307692307" y2="478.2080863474373" stroke-dasharray="1,0.5" stroke="#333c"/>
<line x1="308.49999999999994" y1="479.1512218559604" x2="324.7692307692307" y2="479.1512218559604" stroke-dasharray="1,0.5" stroke="#333c"/>
<line x1="316.63461538461536" y1="478.2080863474373" x2="316.63461538461536" y2="479.1512218559604" stroke-dasharray="1,0.5" stroke="#333c"/>
<rect x="324.7692307692307" y="411.3845175376386" width="16.26923076923077" height="86.61548246236134" fill="#FFB000" data-tooltip="4.52x baseline speed (YJIT 3.3.1)"/>
<line x1="324.7692307692307" y1="410.35005266266285" x2="341.03846153846143" y2="410.35005266266285" stroke-dasharray="1,0.5" stroke="#333c"/>
<line x1="324.7692307692307" y1="412.4189824126144" x2="341.03846153846143" y2="412.4189824126144" stroke-dasharray="1,0.5" stroke="#333c"/>
<line x1="332.90384615384613" y1="410.35005266266285" x2="332.90384615384613" y2="412.4189824126144" stroke-dasharray="1,0.5" stroke="#333c"/>
<rect x="341.0384615384615" y="402.07636187791917" width="16.26923076923077" height="95.92363812208082" fill="#DC267F" data-tooltip="5.00x baseline speed (YJIT 3.4.0dev)"/>
<line x1="341.0384615384615" y1="399.03284538202905" x2="357.30769230769226" y2="399.03284538202905" stroke-dasharray="1,0.5" stroke="#333c"/>
<line x1="341.0384615384615" y1="405.11987837380923" x2="357.30769230769226" y2="405.11987837380923" stroke-dasharray="1,0.5" stroke="#333c"/>
<line x1="349.1730769230769" y1="399.03284538202905" x2="349.1730769230769" y2="405.11987837380923" stroke-dasharray="1,0.5" stroke="#333c"/>
<line x1="324.7692307692307" y1="498.0" x2="324.7692307692307" y2="502.79999999999995" stroke="#000"/>
<text x="324.7692307692307" y="512.4" fill="#111" font-size="small" font-family="monospace" font-weight="bold" text-anchor="end" transform="rotate(-60, 324.7692307692307, 512.4)">
fib
</text>
<rect x="373.5769230769231" y="479.25888353554507" width="16.26923076923077" height="18.741116464454798" fill="#785EF0" data-tooltip="0.98x baseline speed (CRuby 3.4.0dev)"/>
<line x1="373.5769230769231" y1="478.506190625302" x2="389.84615384615387" y2="478.506190625302" stroke-dasharray="1,0.5" stroke="#333c"/>
<line x1="373.5769230769231" y1="480.0115764457882" x2="389.84615384615387" y2="480.0115764457882" stroke-dasharray="1,0.5" stroke="#333c"/>
<line x1="381.7115384615385" y1="478.506190625302" x2="381.7115384615385" y2="480.0115764457882" stroke-dasharray="1,0.5" stroke="#333c"/>
<rect x="389.84615384615387" y="395.2134469559806" width="16.26923076923077" height="102.78655304401933" fill="#FFB000" data-tooltip="5.36x baseline speed (YJIT 3.3.1)"/>
<line x1="389.84615384615387" y1="316.4974018258068" x2="406.1153846153846" y2="316.4974018258068" stroke-dasharray="1,0.5" stroke="#333c"/>
<line x1="389.84615384615387" y1="473.9294920861544" x2="406.1153846153846" y2="473.9294920861544" stroke-dasharray="1,0.5" stroke="#333c"/>
<line x1="397.9807692307692" y1="316.4974018258068" x2="397.9807692307692" y2="473.9294920861544" stroke-dasharray="1,0.5" stroke="#333c"/>
<rect x="406.11538461538464" y="387.8351427029844" width="16.26923076923077" height="110.16485729701557" fill="#DC267F" data-tooltip="5.74x baseline speed (YJIT 3.4.0dev)"/>
<line x1="406.11538461538464" y1="298.61445812993276" x2="422.3846153846154" y2="298.61445812993276" stroke-dasharray="1,0.5" stroke="#333c"/>
<line x1="406.11538461538464" y1="477.055827276036" x2="422.3846153846154" y2="477.055827276036" stroke-dasharray="1,0.5" stroke="#333c"/>
<line x1="414.25000000000006" y1="298.61445812993276" x2="414.25000000000006" y2="477.055827276036" stroke-dasharray="1,0.5" stroke="#333c"/>
<line x1="389.84615384615387" y1="498.0" x2="389.84615384615387" y2="502.79999999999995" stroke="#000"/>
<text x="389.84615384615387" y="512.4" fill="#111" font-size="small" font-family="monospace" font-weight="bold" text-anchor="end" transform="rotate(-60, 389.84615384615387, 512.4)">
getivar
</text>
<rect x="438.65384615384613" y="482.4988258553826" width="16.26923076923077" height="15.501174144617385" fill="#785EF0" data-tooltip="0.81x baseline speed (CRuby 3.4.0dev)"/>
<line x1="438.65384615384613" y1="482.4777554762434" x2="454.92307692307685" y2="482.4777554762434" stroke-dasharray="1,0.5" stroke="#333c"/>
<line x1="438.65384615384613" y1="482.51989623452187" x2="454.92307692307685" y2="482.51989623452187" stroke-dasharray="1,0.5" stroke="#333c"/>
<line x1="446.78846153846155" y1="482.4777554762434" x2="446.78846153846155" y2="482.51989623452187" stroke-dasharray="1,0.5" stroke="#333c"/>
<rect x="454.92307692307685" y="344.29379176353905" width="16.26923076923077" height="153.70620823646087" fill="#FFB000" data-tooltip="8.01x baseline speed (YJIT 3.3.1)"/>
<line x1="454.92307692307685" y1="330.65490447859355" x2="471.1923076923076" y2="330.65490447859355" stroke-dasharray="1,0.5" stroke="#333c"/>
<line x1="454.92307692307685" y1="357.9326790484846" x2="471.1923076923076" y2="357.9326790484846" stroke-dasharray="1,0.5" stroke="#333c"/>
<line x1="463.05769230769226" y1="330.65490447859355" x2="463.05769230769226" y2="357.9326790484846" stroke-dasharray="1,0.5" stroke="#333c"/>
<rect x="471.1923076923077" y="316.2767905011708" width="16.26923076923077" height="181.72320949882914" fill="#DC267F" data-tooltip="9.48x baseline speed (YJIT 3.4.0dev)"/>
<line x1="471.1923076923077" y1="286.77259689762076" x2="487.46153846153845" y2="286.77259689762076" stroke-dasharray="1,0.5" stroke="#333c"/>
<line x1="471.1923076923077" y1="345.7809841047209" x2="487.46153846153845" y2="345.7809841047209" stroke-dasharray="1,0.5" stroke="#333c"/>
<line x1="479.3269230769231" y1="286.77259689762076" x2="479.3269230769231" y2="345.7809841047209" stroke-dasharray="1,0.5" stroke="#333c"/>
<line x1="454.92307692307685" y1="498.0" x2="454.92307692307685" y2="502.79999999999995" stroke="#000"/>
<text x="454.92307692307685" y="512.4" fill="#111" font-size="small" font-family="monospace" font-weight="bold" text-anchor="end" transform="rotate(-60, 454.92307692307685, 512.4)">
keyword_args
</text>
<rect x="503.7307692307692" y="478.9104939310825" width="16.26923076923077" height="19.089506068917427" fill="#785EF0" data-tooltip="1.00x baseline speed (CRuby 3.4.0dev)"/>
<line x1="503.7307692307692" y1="478.65837216424285" x2="520.0" y2="478.65837216424285" stroke-dasharray="1,0.5" stroke="#333c"/>
<line x1="503.7307692307692" y1="479.1626156979222" x2="520.0" y2="479.1626156979222" stroke-dasharray="1,0.5" stroke="#333c"/>
<line x1="511.8653846153845" y1="478.65837216424285" x2="511.8653846153845" y2="479.1626156979222" stroke-dasharray="1,0.5" stroke="#333c"/>
<rect x="519.9999999999999" y="152.49439120195612" width="16.26923076923077" height="345.5056087980438" fill="#FFB000" data-tooltip="18.02x baseline speed (YJIT 3.3.1)"/>
<line x1="519.9999999999999" y1="109.58137497281972" x2="536.2692307692307" y2="109.58137497281972" stroke-dasharray="1,0.5" stroke="#333c"/>
<line x1="519.9999999999999" y1="195.4074074310925" x2="536.2692307692307" y2="195.4074074310925" stroke-dasharray="1,0.5" stroke="#333c"/>
<line x1="528.1346153846152" y1="109.58137497281972" x2="528.1346153846152" y2="195.4074074310925" stroke-dasharray="1,0.5" stroke="#333c"/>
<rect x="536.2692307692307" y="100.19999999999999" width="16.26923076923077" height="397.79999999999995" fill="#DC267F" data-tooltip="20.74x baseline speed (YJIT 3.4.0dev)"/>
<line x1="536.2692307692307" y1="38.45781873177668" x2="552.5384615384615" y2="38.45781873177668" stroke-dasharray="1,0.5" stroke="#333c"/>
<line x1="536.2692307692307" y1="161.9421812682233" x2="552.5384615384615" y2="161.9421812682233" stroke-dasharray="1,0.5" stroke="#333c"/>
<line x1="544.4038461538461" y1="38.45781873177668" x2="544.4038461538461" y2="161.9421812682233" stroke-dasharray="1,0.5" stroke="#333c"/>
<line x1="519.9999999999999" y1="498.0" x2="519.9999999999999" y2="502.79999999999995" stroke="#000"/>
<text x="519.9999999999999" y="512.4" fill="#111" font-size="small" font-family="monospace" font-weight="bold" text-anchor="end" transform="rotate(-60, 519.9999999999999, 512.4)">
respond_to
</text>
<rect x="568.8076923076924" y="480.0780461776517" width="16.26923076923077" height="17.921953822348176" fill="#785EF0" data-tooltip="0.93x baseline speed (CRuby 3.4.0dev)"/>
<line x1="568.8076923076924" y1="479.45267385826173" x2="585.0769230769232" y2="479.45267385826173" stroke-dasharray="1,0.5" stroke="#333c"/>
<line x1="568.8076923076924" y1="480.70341849704164" x2="585.0769230769232" y2="480.70341849704164" stroke-dasharray="1,0.5" stroke="#333c"/>
<line x1="576.9423076923077" y1="479.45267385826173" x2="576.9423076923077" y2="480.70341849704164" stroke-dasharray="1,0.5" stroke="#333c"/>
<rect x="585.0769230769231" y="432.8845475522411" width="16.26923076923077" height="65.11545244775883" fill="#FFB000" data-tooltip="3.40x baseline speed (YJIT 3.3.1)"/>
<line x1="585.0769230769231" y1="432.21288061694463" x2="601.3461538461538" y2="432.21288061694463" stroke-dasharray="1,0.5" stroke="#333c"/>
<line x1="585.0769230769231" y1="433.55621448753755" x2="601.3461538461538" y2="433.55621448753755" stroke-dasharray="1,0.5" stroke="#333c"/>
<line x1="593.2115384615385" y1="432.21288061694463" x2="593.2115384615385" y2="433.55621448753755" stroke-dasharray="1,0.5" stroke="#333c"/>
<rect x="601.3461538461538" y="394.59638046873175" width="16.26923076923077" height="103.40361953126822" fill="#DC267F" data-tooltip="5.39x baseline speed (YJIT 3.4.0dev)"/>
<line x1="601.3461538461538" y1="393.529159898618" x2="617.6153846153846" y2="393.529159898618" stroke-dasharray="1,0.5" stroke="#333c"/>
<line x1="601.3461538461538" y1="395.6636010388455" x2="617.6153846153846" y2="395.6636010388455" stroke-dasharray="1,0.5" stroke="#333c"/>
<line x1="609.4807692307692" y1="393.529159898618" x2="609.4807692307692" y2="395.6636010388455" stroke-dasharray="1,0.5" stroke="#333c"/>
<line x1="585.0769230769231" y1="498.0" x2="585.0769230769231" y2="502.79999999999995" stroke="#000"/>
<text x="585.0769230769231" y="512.4" fill="#111" font-size="small" font-family="monospace" font-weight="bold" text-anchor="end" transform="rotate(-60, 585.0769230769231, 512.4)">
ruby-xor
</text>
<rect x="633.8846153846154" y="479.02525639323295" width="16.26923076923077" height="18.974743606767035" fill="#785EF0" data-tooltip="0.99x baseline speed (CRuby 3.4.0dev)"/>
<line x1="633.8846153846154" y1="478.9573461058844" x2="650.1538461538462" y2="478.9573461058844" stroke-dasharray="1,0.5" stroke="#333c"/>
<line x1="633.8846153846154" y1="479.0931666805815" x2="650.1538461538462" y2="479.0931666805815" stroke-dasharray="1,0.5" stroke="#333c"/>
<line x1="642.0192307692307" y1="478.9573461058844" x2="642.0192307692307" y2="479.0931666805815" stroke-dasharray="1,0.5" stroke="#333c"/>
<rect x="650.1538461538461" y="393.29771835510456" width="16.26923076923077" height="104.70228164489541" fill="#FFB000" data-tooltip="5.46x baseline speed (YJIT 3.3.1)"/>
<line x1="650.1538461538461" y1="321.0249156387137" x2="666.4230769230769" y2="321.0249156387137" stroke-dasharray="1,0.5" stroke="#333c"/>
<line x1="650.1538461538461" y1="465.5705210714954" x2="666.4230769230769" y2="465.5705210714954" stroke-dasharray="1,0.5" stroke="#333c"/>
<line x1="658.2884615384614" y1="321.0249156387137" x2="658.2884615384614" y2="465.5705210714954" stroke-dasharray="1,0.5" stroke="#333c"/>
<rect x="666.4230769230769" y="382.2633782567409" width="16.26923076923077" height="115.73662174325908" fill="#DC267F" data-tooltip="6.03x baseline speed (YJIT 3.4.0dev)"/>
<line x1="666.4230769230769" y1="295.70358916443274" x2="682.6923076923077" y2="295.70358916443274" stroke-dasharray="1,0.5" stroke="#333c"/>
<line x1="666.4230769230769" y1="468.82316734904896" x2="682.6923076923077" y2="468.82316734904896" stroke-dasharray="1,0.5" stroke="#333c"/>
<line x1="674.5576923076923" y1="295.70358916443274" x2="674.5576923076923" y2="468.82316734904896" stroke-dasharray="1,0.5" stroke="#333c"/>
<line x1="650.1538461538461" y1="498.0" x2="650.1538461538461" y2="502.79999999999995" stroke="#000"/>
<text x="650.1538461538461" y="512.4" fill="#111" font-size="small" font-family="monospace" font-weight="bold" text-anchor="end" transform="rotate(-60, 650.1538461538461, 512.4)">
setivar
</text>
<rect x="698.9615384615385" y="479.2147268839142" width="16.26923076923077" height="18.785273116085712" fill="#785EF0" data-tooltip="0.98x baseline speed (CRuby 3.4.0dev)"/>
<line x1="698.9615384615385" y1="479.1799582728996" x2="715.2307692307692" y2="479.1799582728996" stroke-dasharray="1,0.5" stroke="#333c"/>
<line x1="698.9615384615385" y1="479.2494954949288" x2="715.2307692307692" y2="479.2494954949288" stroke-dasharray="1,0.5" stroke="#333c"/>
<line x1="707.0961538461538" y1="479.1799582728996" x2="707.0961538461538" y2="479.2494954949288" stroke-dasharray="1,0.5" stroke="#333c"/>
<rect x="715.2307692307692" y="461.096204476442" width="16.26923076923077" height="36.90379552355792" fill="#FFB000" data-tooltip="1.92x baseline speed (YJIT 3.3.1)"/>
<line x1="715.2307692307692" y1="445.62460431552165" x2="731.4999999999999" y2="445.62460431552165" stroke-dasharray="1,0.5" stroke="#333c"/>
<line x1="715.2307692307692" y1="476.5678046373623" x2="731.4999999999999" y2="476.5678046373623" stroke-dasharray="1,0.5" stroke="#333c"/>
<line x1="723.3653846153844" y1="445.62460431552165" x2="723.3653846153844" y2="476.5678046373623" stroke-dasharray="1,0.5" stroke="#333c"/>
<rect x="731.4999999999999" y="452.7219761816119" width="16.26923076923077" height="45.27802381838807" fill="#DC267F" data-tooltip="2.36x baseline speed (YJIT 3.4.0dev)"/>
<line x1="731.4999999999999" y1="432.6004856571398" x2="747.7692307692307" y2="432.6004856571398" stroke-dasharray="1,0.5" stroke="#333c"/>
<line x1="731.4999999999999" y1="472.84346670608403" x2="747.7692307692307" y2="472.84346670608403" stroke-dasharray="1,0.5" stroke="#333c"/>
<line x1="739.6346153846152" y1="432.6004856571398" x2="739.6346153846152" y2="472.84346670608403" stroke-dasharray="1,0.5" stroke="#333c"/>
<line x1="715.2307692307692" y1="498.0" x2="715.2307692307692" y2="502.79999999999995" stroke="#000"/>
<text x="715.2307692307692" y="512.4" fill="#111" font-size="small" font-family="monospace" font-weight="bold" text-anchor="end" transform="rotate(-60, 715.2307692307692, 512.4)">
setivar_object
</text>
<rect x="764.0384615384615" y="479.4248421143396" width="16.26923076923077" height="18.575157885660424" fill="#785EF0" data-tooltip="0.97x baseline speed (CRuby 3.4.0dev)"/>
<line x1="764.0384615384615" y1="479.0139738722135" x2="780.3076923076924" y2="479.0139738722135" stroke-dasharray="1,0.5" stroke="#333c"/>
<line x1="764.0384615384615" y1="479.83571035646565" x2="780.3076923076924" y2="479.83571035646565" stroke-dasharray="1,0.5" stroke="#333c"/>
<line x1="772.1730769230769" y1="479.0139738722135" x2="772.1730769230769" y2="479.83571035646565" stroke-dasharray="1,0.5" stroke="#333c"/>
<rect x="780.3076923076923" y="453.40334864007576" width="16.26923076923077" height="44.596651359924145" fill="#FFB000" data-tooltip="2.33x baseline speed (YJIT 3.3.1)"/>
<line x1="780.3076923076923" y1="434.57964947540177" x2="796.5769230769231" y2="434.57964947540177" stroke-dasharray="1,0.5" stroke="#333c"/>
<line x1="780.3076923076923" y1="472.2270478047498" x2="796.5769230769231" y2="472.2270478047498" stroke-dasharray="1,0.5" stroke="#333c"/>
<line x1="788.4423076923076" y1="434.57964947540177" x2="788.4423076923076" y2="472.2270478047498" stroke-dasharray="1,0.5" stroke="#333c"/>
<rect x="796.5769230769231" y="452.6144606997319" width="16.26923076923077" height="45.38553930026811" fill="#DC267F" data-tooltip="2.37x baseline speed (YJIT 3.4.0dev)"/>
<line x1="796.5769230769231" y1="432.06722544112154" x2="812.8461538461539" y2="432.06722544112154" stroke-dasharray="1,0.5" stroke="#333c"/>
<line x1="796.5769230769231" y1="473.16169595834225" x2="812.8461538461539" y2="473.16169595834225" stroke-dasharray="1,0.5" stroke="#333c"/>
<line x1="804.7115384615385" y1="432.06722544112154" x2="804.7115384615385" y2="473.16169595834225" stroke-dasharray="1,0.5" stroke="#333c"/>
<line x1="780.3076923076923" y1="498.0" x2="780.3076923076923" y2="502.79999999999995" stroke="#000"/>
<text x="780.3076923076923" y="512.4" fill="#111" font-size="small" font-family="monospace" font-weight="bold" text-anchor="end" transform="rotate(-60, 780.3076923076923, 512.4)">
setivar_young
</text>
<rect x="829.1153846153846" y="479.60948012586545" width="16.26923076923077" height="18.390519874134526" fill="#785EF0" data-tooltip="0.96x baseline speed (CRuby 3.4.0dev)"/>
<line x1="829.1153846153846" y1="479.0336977246237" x2="845.3846153846154" y2="479.0336977246237" stroke-dasharray="1,0.5" stroke="#333c"/>
<line x1="829.1153846153846" y1="480.1852625271072" x2="845.3846153846154" y2="480.1852625271072" stroke-dasharray="1,0.5" stroke="#333c"/>
<line x1="837.2499999999999" y1="479.0336977246237" x2="837.2499999999999" y2="480.1852625271072" stroke-dasharray="1,0.5" stroke="#333c"/>
<rect x="845.3846153846152" y="457.3641149339978" width="16.26923076923077" height="40.63588506600216" fill="#FFB000" data-tooltip="2.12x baseline speed (YJIT 3.3.1)"/>
<line x1="845.3846153846152" y1="456.7907868025965" x2="861.6538461538461" y2="456.7907868025965" stroke-dasharray="1,0.5" stroke="#333c"/>
<line x1="845.3846153846152" y1="457.9374430653991" x2="861.6538461538461" y2="457.9374430653991" stroke-dasharray="1,0.5" stroke="#333c"/>
<line x1="853.5192307692306" y1="456.7907868025965" x2="853.5192307692306" y2="457.9374430653991" stroke-dasharray="1,0.5" stroke="#333c"/>
<rect x="861.6538461538461" y="459.8891144692036" width="16.26923076923077" height="38.11088553079628" fill="#DC267F" data-tooltip="1.99x baseline speed (YJIT 3.4.0dev)"/>
<line x1="861.6538461538461" y1="459.5781265154228" x2="877.9230769230769" y2="459.5781265154228" stroke-dasharray="1,0.5" stroke="#333c"/>
<line x1="861.6538461538461" y1="460.20010242298446" x2="877.9230769230769" y2="460.20010242298446" stroke-dasharray="1,0.5" stroke="#333c"/>
<line x1="869.7884615384614" y1="459.5781265154228" x2="869.7884615384614" y2="460.20010242298446" stroke-dasharray="1,0.5" stroke="#333c"/>
<line x1="845.3846153846152" y1="498.0" x2="845.3846153846152" y2="502.79999999999995" stroke="#000"/>
<text x="845.3846153846152" y="512.4" fill="#111" font-size="small" font-family="monospace" font-weight="bold" text-anchor="end" transform="rotate(-60, 845.3846153846152, 512.4)">
str_concat
</text>
<rect x="894.1923076923076" y="479.2635425928877" width="16.26923076923077" height="18.736457407112315" fill="#785EF0" data-tooltip="0.98x baseline speed (CRuby 3.4.0dev)"/>
<line x1="894.1923076923076" y1="479.20337297038327" x2="910.4615384615385" y2="479.20337297038327" stroke-dasharray="1,0.5" stroke="#333c"/>
<line x1="894.1923076923076" y1="479.3237122153921" x2="910.4615384615385" y2="479.3237122153921" stroke-dasharray="1,0.5" stroke="#333c"/>
<line x1="902.326923076923" y1="479.20337297038327" x2="902.326923076923" y2="479.3237122153921" stroke-dasharray="1,0.5" stroke="#333c"/>
<rect x="910.4615384615383" y="472.78362534184595" width="16.26923076923077" height="25.216374658153974" fill="#FFB000" data-tooltip="1.31x baseline speed (YJIT 3.3.1)"/>
<line x1="910.4615384615383" y1="472.70614665712463" x2="926.7307692307692" y2="472.70614665712463" stroke-dasharray="1,0.5" stroke="#333c"/>
<line x1="910.4615384615383" y1="472.86110402656726" x2="926.7307692307692" y2="472.86110402656726" stroke-dasharray="1,0.5" stroke="#333c"/>
<line x1="918.5961538461537" y1="472.70614665712463" x2="918.5961538461537" y2="472.86110402656726" stroke-dasharray="1,0.5" stroke="#333c"/>
<rect x="926.7307692307692" y="474.0794680401177" width="16.26923076923077" height="23.920531959882215" fill="#DC267F" data-tooltip="1.25x baseline speed (YJIT 3.4.0dev)"/>
<line x1="926.7307692307692" y1="473.97476019722615" x2="943.0" y2="473.97476019722615" stroke-dasharray="1,0.5" stroke="#333c"/>
<line x1="926.7307692307692" y1="474.18417588300935" x2="943.0" y2="474.18417588300935" stroke-dasharray="1,0.5" stroke="#333c"/>
<line x1="934.8653846153845" y1="473.97476019722615" x2="934.8653846153845" y2="474.18417588300935" stroke-dasharray="1,0.5" stroke="#333c"/>
<line x1="910.4615384615383" y1="498.0" x2="910.4615384615383" y2="502.79999999999995" stroke="#000"/>
<text x="910.4615384615383" y="512.4" fill="#111" font-size="small" font-family="monospace" font-weight="bold" text-anchor="end" transform="rotate(-60, 910.4615384615383, 512.4)">
throw
</text>
<line x1="50.0" y1="478.8215686139819" x2="990.0" y2="478.8215686139819" stroke="#648FFF" stroke-width="2"/>
</svg>