<svg viewBox="0 0 1000 600" xmlns="http://www.w3.org/2000/svg" xmlns:xlink="http://www.w3.org/1999/xlink" width="100%" height="100%">

<rect x="50.0" y="30.0" width="940.0" height="467.99999999999994" stroke="#000" fill="#fff"/>
<line x1="42.0" y1="497.9999999999999" x2="50.0" y2="497.9999999999999" stroke="#000"/>
<text x="26.000000000000004" y="497.9999999999999" text-anchor="end" font-weight="bold" font-size="small" fill="#111">
0.0
</text>
<line x1="42.0" y1="456.46648126127883" x2="50.0" y2="456.46648126127883" stroke="#000"/>
<text x="26.000000000000004" y="456.46648126127883" text-anchor="end" font-weight="bold" font-size="small" fill="#111">
0.2
</text>
<line x1="42.0" y1="414.9329625225577" x2="50.0" y2="414.9329625225577" stroke="#000"/>
<text x="26.000000000000004" y="414.9329625225577" text-anchor="end" font-weight="bold" font-size="small" fill="#111">
0.4
</text>
<line x1="42.0" y1="373.39944378383666" x2="50.0" y2="373.39944378383666" stroke="#000"/>
<text x="26.000000000000004" y="373.39944378383666" text-anchor="end" font-weight="bold" font-size="small" fill="#111">
0.6
</text>
<line x1="42.0" y1="331.86592504511555" x2="50.0" y2="331.86592504511555" stroke="#000"/>
<text x="26.000000000000004" y="331.86592504511555" text-anchor="end" font-weight="bold" font-size="small" fill="#111">
0.8
</text>
<line x1="42.0" y1="290.3324063063945" x2="50.0" y2="290.3324063063945" stroke="#000"/>
<text x="26.000000000000004" y="290.3324063063945" text-anchor="end" font-weight="bold" font-size="small" fill="#111">
1.0
</text>
<line x1="42.0" y1="248.79888756767343" x2="50.0" y2="248.79888756767343" stroke="#000"/>
<text x="26.000000000000004" y="248.79888756767343" text-anchor="end" font-weight="bold" font-size="small" fill="#111">
1.2
</text>
<line x1="42.0" y1="207.2653688289523" x2="50.0" y2="207.2653688289523" stroke="#000"/>
<text x="26.000000000000004" y="207.2653688289523" text-anchor="end" font-weight="bold" font-size="small" fill="#111">
1.4
</text>
<line x1="42.0" y1="165.7318500902313" x2="50.0" y2="165.7318500902313" stroke="#000"/>
<text x="26.000000000000004" y="165.7318500902313" text-anchor="end" font-weight="bold" font-size="small" fill="#111">
1.6
</text>
<line x1="42.0" y1="124.19833135151016" x2="50.0" y2="124.19833135151016" stroke="#000"/>
<text x="26.000000000000004" y="124.19833135151016" text-anchor="end" font-weight="bold" font-size="small" fill="#111">
1.8
</text>
<line x1="248.5" y1="54.60000000000001" x2="368.5" y2="54.60000000000001" stroke="#648FFF" stroke-width="2"/>
<text x="308.5" y="49.500000000000014" font-size="small" text-anchor="middle" font-weight="bold" fill="#000">
CRuby 3.3.0dev
</text>
<rect x="671.5" y="35.400000000000006" width="120.0" height="19.2" fill="#785EF0" stroke="none"/>
<text x="731.4999999999999" y="49.500000000000014" font-size="small" text-anchor="middle" font-weight="bold" fill="#fff" style="text-shadow: 0 0 1px #000;">
YJIT 3.3.0dev
</text>
<rect x="82.41379310344827" y="258.9702806798941" width="32.41379310344827" height="239.0297193201059" fill="#785EF0" data-tooltip="1.15x baseline (YJIT 3.3.0dev)"/>
<line x1="98.62068965517241" y1="498.0" x2="98.62068965517241" y2="502.79999999999995" stroke="#000"/>
<text x="98.62068965517241" y="512.4" fill="#111" font-size="small" text-anchor="end" transform="rotate(-60, 98.62068965517241, 512.4)">
activerecord
</text>
<rect x="147.2413793103448" y="323.50116253444384" width="32.41379310344827" height="174.49883746555608" fill="#785EF0" data-tooltip="0.84x baseline (YJIT 3.3.0dev)"/>
<line x1="163.44827586206895" y1="498.0" x2="163.44827586206895" y2="502.79999999999995" stroke="#000"/>
<text x="163.44827586206895" y="512.4" fill="#111" font-size="small" text-anchor="end" transform="rotate(-60, 163.44827586206895, 512.4)">
chunky-png
</text>
<rect x="212.06896551724137" y="263.7908246371685" width="32.41379310344827" height="234.20917536283144" fill="#785EF0" data-tooltip="1.13x baseline (YJIT 3.3.0dev)"/>
<line x1="228.2758620689655" y1="498.0" x2="228.2758620689655" y2="502.79999999999995" stroke="#000"/>
<text x="228.2758620689655" y="512.4" fill="#111" font-size="small" text-anchor="end" transform="rotate(-60, 228.2758620689655, 512.4)">
erubi-rails
</text>
<rect x="276.8965517241379" y="100.19999999999999" width="32.41379310344827" height="397.79999999999995" fill="#785EF0" data-tooltip="1.92x baseline (YJIT 3.3.0dev)"/>
<line x1="293.10344827586204" y1="498.0" x2="293.10344827586204" y2="502.79999999999995" stroke="#000"/>
<text x="293.10344827586204" y="512.4" fill="#111" font-size="small" text-anchor="end" transform="rotate(-60, 293.10344827586204, 512.4)">
hexapdf
</text>
<rect x="341.7241379310345" y="258.87443455288906" width="32.41379310344827" height="239.1255654471109" fill="#785EF0" data-tooltip="1.15x baseline (YJIT 3.3.0dev)"/>
<line x1="357.9310344827586" y1="498.0" x2="357.9310344827586" y2="502.79999999999995" stroke="#000"/>
<text x="357.9310344827586" y="512.4" fill="#111" font-size="small" text-anchor="end" transform="rotate(-60, 357.9310344827586, 512.4)">
liquid-c
</text>
<rect x="406.551724137931" y="263.1718977867993" width="32.41379310344827" height="234.82810221320065" fill="#785EF0" data-tooltip="1.13x baseline (YJIT 3.3.0dev)"/>
<line x1="422.7586206896551" y1="498.0" x2="422.7586206896551" y2="502.79999999999995" stroke="#000"/>
<text x="422.7586206896551" y="512.4" fill="#111" font-size="small" text-anchor="end" transform="rotate(-60, 422.7586206896551, 512.4)">
liquid-compile
</text>
<rect x="471.37931034482756" y="252.92625005258506" width="32.41379310344827" height="245.07374994741488" fill="#785EF0" data-tooltip="1.18x baseline (YJIT 3.3.0dev)"/>
<line x1="487.58620689655174" y1="498.0" x2="487.58620689655174" y2="502.79999999999995" stroke="#000"/>
<text x="487.58620689655174" y="512.4" fill="#111" font-size="small" text-anchor="end" transform="rotate(-60, 487.58620689655174, 512.4)">
liquid-render
</text>
<rect x="536.2068965517242" y="231.50523970696054" width="32.41379310344827" height="266.4947602930394" fill="#785EF0" data-tooltip="1.28x baseline (YJIT 3.3.0dev)"/>
<line x1="552.4137931034483" y1="498.0" x2="552.4137931034483" y2="502.79999999999995" stroke="#000"/>
<text x="552.4137931034483" y="512.4" fill="#111" font-size="small" text-anchor="end" transform="rotate(-60, 552.4137931034483, 512.4)">
lobsters
</text>
<rect x="601.0344827586207" y="261.9347033431376" width="32.41379310344827" height="236.06529665686236" fill="#785EF0" data-tooltip="1.14x baseline (YJIT 3.3.0dev)"/>
<line x1="617.2413793103449" y1="498.0" x2="617.2413793103449" y2="502.79999999999995" stroke="#000"/>
<text x="617.2413793103449" y="512.4" fill="#111" font-size="small" text-anchor="end" transform="rotate(-60, 617.2413793103449, 512.4)">
mail
</text>
<rect x="665.8620689655172" y="274.28385948332766" width="32.41379310344827" height="223.71614051667228" fill="#785EF0" data-tooltip="1.08x baseline (YJIT 3.3.0dev)"/>
<line x1="682.0689655172414" y1="498.0" x2="682.0689655172414" y2="502.79999999999995" stroke="#000"/>
<text x="682.0689655172414" y="512.4" fill="#111" font-size="small" text-anchor="end" transform="rotate(-60, 682.0689655172414, 512.4)">
psych-load
</text>
<rect x="730.6896551724138" y="244.65823110277387" width="32.41379310344827" height="253.34176889722607" fill="#785EF0" data-tooltip="1.22x baseline (YJIT 3.3.0dev)"/>
<line x1="746.8965517241379" y1="498.0" x2="746.8965517241379" y2="502.79999999999995" stroke="#000"/>
<text x="746.8965517241379" y="512.4" fill="#111" font-size="small" text-anchor="end" transform="rotate(-60, 746.8965517241379, 512.4)">
railsbench
</text>
<rect x="795.5172413793103" y="175.50060642471436" width="32.41379310344827" height="322.4993935752855" fill="#785EF0" data-tooltip="1.55x baseline (YJIT 3.3.0dev)"/>
<line x1="811.7241379310345" y1="498.0" x2="811.7241379310345" y2="502.79999999999995" stroke="#000"/>
<text x="811.7241379310345" y="512.4" fill="#111" font-size="small" text-anchor="end" transform="rotate(-60, 811.7241379310345, 512.4)">
ruby-lsp
</text>
<rect x="860.3448275862069" y="261.44463034551455" width="32.41379310344827" height="236.5553696544854" fill="#785EF0" data-tooltip="1.14x baseline (YJIT 3.3.0dev)"/>
<line x1="876.551724137931" y1="498.0" x2="876.551724137931" y2="502.79999999999995" stroke="#000"/>
<text x="876.551724137931" y="512.4" fill="#111" font-size="small" text-anchor="end" transform="rotate(-60, 876.551724137931, 512.4)">
sequel
</text>
<rect x="925.1724137931035" y="248.46219094671878" width="32.41379310344827" height="249.53780905328117" fill="#785EF0" data-tooltip="1.20x baseline (YJIT 3.3.0dev)"/>
<line x1="941.3793103448276" y1="498.0" x2="941.3793103448276" y2="502.79999999999995" stroke="#000"/>
<text x="941.3793103448276" y="512.4" fill="#111" font-size="small" text-anchor="end" transform="rotate(-60, 941.3793103448276, 512.4)" font-style="italic">
geomean*
</text>
<line x1="50.0" y1="290.3324063063945" x2="990.0" y2="290.3324063063945" stroke="#648FFF" stroke-width="2"/>
</svg>