<svg viewBox="0 0 1000 600" xmlns="http://www.w3.org/2000/svg" xmlns:xlink="http://www.w3.org/1999/xlink" width="100%" height="100%">

<rect x="50.0" y="30.0" width="940.0" height="467.99999999999994" stroke="#000" fill="#fff"/>
<line x1="42.0" y1="497.9999999999999" x2="50.0" y2="497.9999999999999" stroke="#000"/>
<text x="26.000000000000004" y="497.9999999999999" text-anchor="end" font-weight="bold" font-size="small" fill="#111">
0.0
</text>
<line x1="42.0" y1="417.61238596799217" x2="50.0" y2="417.61238596799217" stroke="#000"/>
<text x="26.000000000000004" y="417.61238596799217" text-anchor="end" font-weight="bold" font-size="small" fill="#111">
0.5
</text>
<line x1="42.0" y1="337.2247719359843" x2="50.0" y2="337.2247719359843" stroke="#000"/>
<text x="26.000000000000004" y="337.2247719359843" text-anchor="end" font-weight="bold" font-size="small" fill="#111">
1.0
</text>
<line x1="42.0" y1="256.83715790397645" x2="50.0" y2="256.83715790397645" stroke="#000"/>
<text x="26.000000000000004" y="256.83715790397645" text-anchor="end" font-weight="bold" font-size="small" fill="#111">
1.5
</text>
<line x1="42.0" y1="176.44954387196867" x2="50.0" y2="176.44954387196867" stroke="#000"/>
<text x="26.000000000000004" y="176.44954387196867" text-anchor="end" font-weight="bold" font-size="small" fill="#111">
2.0
</text>
<line x1="142.75" y1="54.60000000000001" x2="262.75" y2="54.60000000000001" stroke="#648FFF" stroke-width="2"/>
<text x="202.75" y="49.500000000000014" font-size="small" text-anchor="middle" font-weight="bold" fill="#000">
CRuby 3.3.3
</text>
<rect x="354.25" y="35.400000000000006" width="120.0" height="19.2" fill="#785EF0" stroke="none"/>
<text x="414.25" y="49.500000000000014" font-size="small" text-anchor="middle" font-weight="bold" fill="#fff" style="text-shadow: 0 0 1px #000;">
CRuby 3.4.0dev
</text>
<rect x="565.75" y="35.400000000000006" width="120.0" height="19.2" fill="#FFB000" stroke="none"/>
<text x="625.7499999999999" y="49.500000000000014" font-size="small" text-anchor="middle" font-weight="bold" fill="#fff" style="text-shadow: 0 0 1px #000;">
YJIT 3.3.3
</text>
<rect x="777.25" y="35.400000000000006" width="120.0" height="19.2" fill="#DC267F" stroke="none"/>
<text x="837.2499999999999" y="49.500000000000014" font-size="small" text-anchor="middle" font-weight="bold" fill="#fff" style="text-shadow: 0 0 1px #000;">
YJIT 3.4.0dev
</text>
<rect x="65.40983606557377" y="349.43984849889483" width="15.40983606557377" height="148.56015150110514" fill="#785EF0" data-tooltip="0.92x baseline (CRuby 3.4.0dev)"/>
<line x1="65.40983606557377" y1="348.8956978172449" x2="80.81967213114753" y2="348.8956978172449" stroke-dasharray="1,0.5" stroke="#333c"/>
<line x1="65.40983606557377" y1="349.98399918054474" x2="80.81967213114753" y2="349.98399918054474" stroke-dasharray="1,0.5" stroke="#333c"/>
<line x1="73.11475409836066" y1="348.8956978172449" x2="73.11475409836066" y2="349.98399918054474" stroke-dasharray="1,0.5" stroke="#333c"/>
<rect x="80.81967213114753" y="163.4246721603006" width="15.40983606557377" height="334.57532783969936" fill="#FFB000" data-tooltip="2.08x baseline (YJIT 3.3.3)"/>
<line x1="80.81967213114753" y1="161.88305580789404" x2="96.2295081967213" y2="161.88305580789404" stroke-dasharray="1,0.5" stroke="#333c"/>
<line x1="80.81967213114753" y1="164.96628851270714" x2="96.2295081967213" y2="164.96628851270714" stroke-dasharray="1,0.5" stroke="#333c"/>
<line x1="88.52459016393442" y1="161.88305580789404" x2="88.52459016393442" y2="164.96628851270714" stroke-dasharray="1,0.5" stroke="#333c"/>
<rect x="96.2295081967213" y="174.33220318174577" width="15.40983606557377" height="323.66779681825415" fill="#DC267F" data-tooltip="2.01x baseline (YJIT 3.4.0dev)"/>
<line x1="96.2295081967213" y1="172.81565089842292" x2="111.63934426229507" y2="172.81565089842292" stroke-dasharray="1,0.5" stroke="#333c"/>
<line x1="96.2295081967213" y1="175.84875546506862" x2="111.63934426229507" y2="175.84875546506862" stroke-dasharray="1,0.5" stroke="#333c"/>
<line x1="103.93442622950819" y1="172.81565089842292" x2="103.93442622950819" y2="175.84875546506862" stroke-dasharray="1,0.5" stroke="#333c"/>
<line x1="88.5245901639344" y1="498.0" x2="88.5245901639344" y2="502.79999999999995" stroke="#000"/>
<text x="88.5245901639344" y="512.4" fill="#111" font-size="small" text-anchor="end" transform="rotate(-60, 88.5245901639344, 512.4)">
activerecord
</text>
<rect x="127.04918032786883" y="360.03682253946624" width="15.40983606557377" height="137.96317746053373" fill="#785EF0" data-tooltip="0.86x baseline (CRuby 3.4.0dev)"/>
<line x1="127.04918032786883" y1="359.66513063537917" x2="142.4590163934426" y2="359.66513063537917" stroke-dasharray="1,0.5" stroke="#333c"/>
<line x1="127.04918032786883" y1="360.40851444355326" x2="142.4590163934426" y2="360.40851444355326" stroke-dasharray="1,0.5" stroke="#333c"/>
<line x1="134.75409836065572" y1="359.66513063537917" x2="134.75409836065572" y2="360.40851444355326" stroke-dasharray="1,0.5" stroke="#333c"/>
<rect x="142.4590163934426" y="230.59742549990804" width="15.40983606557377" height="267.40257450009193" fill="#FFB000" data-tooltip="1.66x baseline (YJIT 3.3.3)"/>
<line x1="142.4590163934426" y1="229.5834398613272" x2="157.86885245901638" y2="229.5834398613272" stroke-dasharray="1,0.5" stroke="#333c"/>
<line x1="142.4590163934426" y1="231.61141113848888" x2="157.86885245901638" y2="231.61141113848888" stroke-dasharray="1,0.5" stroke="#333c"/>
<line x1="150.1639344262295" y1="229.5834398613272" x2="150.1639344262295" y2="231.61141113848888" stroke-dasharray="1,0.5" stroke="#333c"/>
<rect x="157.86885245901638" y="191.85354441039465" width="15.40983606557377" height="306.1464555896053" fill="#DC267F" data-tooltip="1.90x baseline (YJIT 3.4.0dev)"/>
<line x1="157.86885245901638" y1="190.6872693959763" x2="173.27868852459017" y2="190.6872693959763" stroke-dasharray="1,0.5" stroke="#333c"/>
<line x1="157.86885245901638" y1="193.019819424813" x2="173.27868852459017" y2="193.019819424813" stroke-dasharray="1,0.5" stroke="#333c"/>
<line x1="165.5737704918033" y1="190.6872693959763" x2="165.5737704918033" y2="193.019819424813" stroke-dasharray="1,0.5" stroke="#333c"/>
<line x1="150.1639344262295" y1="498.0" x2="150.1639344262295" y2="502.79999999999995" stroke="#000"/>
<text x="150.1639344262295" y="512.4" fill="#111" font-size="small" text-anchor="end" transform="rotate(-60, 150.1639344262295, 512.4)">
chunky-png
</text>
<rect x="188.68852459016395" y="349.6266694850778" width="15.40983606557377" height="148.37333051492217" fill="#785EF0" data-tooltip="0.92x baseline (CRuby 3.4.0dev)"/>
<line x1="188.68852459016395" y1="349.239668046605" x2="204.0983606557377" y2="349.239668046605" stroke-dasharray="1,0.5" stroke="#333c"/>
<line x1="188.68852459016395" y1="350.01367092355065" x2="204.0983606557377" y2="350.01367092355065" stroke-dasharray="1,0.5" stroke="#333c"/>
<line x1="196.39344262295083" y1="349.239668046605" x2="196.39344262295083" y2="350.01367092355065" stroke-dasharray="1,0.5" stroke="#333c"/>
<rect x="204.0983606557377" y="203.78490781981" width="15.40983606557377" height="294.21509218018997" fill="#FFB000" data-tooltip="1.83x baseline (YJIT 3.3.3)"/>
<line x1="204.0983606557377" y1="202.98091889297035" x2="219.5081967213115" y2="202.98091889297035" stroke-dasharray="1,0.5" stroke="#333c"/>
<line x1="204.0983606557377" y1="204.58889674664965" x2="219.5081967213115" y2="204.58889674664965" stroke-dasharray="1,0.5" stroke="#333c"/>
<line x1="211.8032786885246" y1="202.98091889297035" x2="211.8032786885246" y2="204.58889674664965" stroke-dasharray="1,0.5" stroke="#333c"/>
<rect x="219.5081967213115" y="223.2866401141104" width="15.40983606557377" height="274.71335988588953" fill="#DC267F" data-tooltip="1.71x baseline (YJIT 3.4.0dev)"/>
<line x1="219.5081967213115" y1="222.01096056929586" x2="234.91803278688528" y2="222.01096056929586" stroke-dasharray="1,0.5" stroke="#333c"/>
<line x1="219.5081967213115" y1="224.56231965892496" x2="234.91803278688528" y2="224.56231965892496" stroke-dasharray="1,0.5" stroke="#333c"/>
<line x1="227.2131147540984" y1="222.01096056929586" x2="227.2131147540984" y2="224.56231965892496" stroke-dasharray="1,0.5" stroke="#333c"/>
<line x1="211.8032786885246" y1="498.0" x2="211.8032786885246" y2="502.79999999999995" stroke="#000"/>
<text x="211.8032786885246" y="512.4" fill="#111" font-size="small" text-anchor="end" transform="rotate(-60, 211.8032786885246, 512.4)">
erubi-rails
</text>
<rect x="250.32786885245906" y="344.0924387025904" width="15.40983606557377" height="153.90756129740956" fill="#785EF0" data-tooltip="0.96x baseline (CRuby 3.4.0dev)"/>
<line x1="250.32786885245906" y1="342.5556868308832" x2="265.7377049180328" y2="342.5556868308832" stroke-dasharray="1,0.5" stroke="#333c"/>
<line x1="250.32786885245906" y1="345.62919057429764" x2="265.7377049180328" y2="345.62919057429764" stroke-dasharray="1,0.5" stroke="#333c"/>
<line x1="258.03278688524597" y1="342.5556868308832" x2="258.03278688524597" y2="345.62919057429764" stroke-dasharray="1,0.5" stroke="#333c"/>
<rect x="265.7377049180328" y="236.81015312418123" width="15.40983606557377" height="261.1898468758187" fill="#FFB000" data-tooltip="1.62x baseline (YJIT 3.3.3)"/>
<line x1="265.7377049180328" y1="233.21032035567347" x2="281.14754098360663" y2="233.21032035567347" stroke-dasharray="1,0.5" stroke="#333c"/>
<line x1="265.7377049180328" y1="240.40998589268898" x2="281.14754098360663" y2="240.40998589268898" stroke-dasharray="1,0.5" stroke="#333c"/>
<line x1="273.4426229508197" y1="233.21032035567347" x2="273.4426229508197" y2="240.40998589268898" stroke-dasharray="1,0.5" stroke="#333c"/>
<rect x="281.14754098360663" y="210.33382662218253" width="15.40983606557377" height="287.6661733778174" fill="#DC267F" data-tooltip="1.79x baseline (YJIT 3.4.0dev)"/>
<line x1="281.14754098360663" y1="206.85070755199854" x2="296.5573770491804" y2="206.85070755199854" stroke-dasharray="1,0.5" stroke="#333c"/>
<line x1="281.14754098360663" y1="213.81694569236655" x2="296.5573770491804" y2="213.81694569236655" stroke-dasharray="1,0.5" stroke="#333c"/>
<line x1="288.8524590163935" y1="206.85070755199854" x2="288.8524590163935" y2="213.81694569236655" stroke-dasharray="1,0.5" stroke="#333c"/>
<line x1="273.4426229508197" y1="498.0" x2="273.4426229508197" y2="502.79999999999995" stroke="#000"/>
<text x="273.4426229508197" y="512.4" fill="#111" font-size="small" text-anchor="end" transform="rotate(-60, 273.4426229508197, 512.4)">
hexapdf
</text>
<rect x="311.96721311475414" y="349.8609887872202" width="15.40983606557377" height="148.1390112127797" fill="#785EF0" data-tooltip="0.92x baseline (CRuby 3.4.0dev)"/>
<line x1="311.96721311475414" y1="348.7937563175929" x2="327.37704918032796" y2="348.7937563175929" stroke-dasharray="1,0.5" stroke="#333c"/>
<line x1="311.96721311475414" y1="350.9282212568475" x2="327.37704918032796" y2="350.9282212568475" stroke-dasharray="1,0.5" stroke="#333c"/>
<line x1="319.67213114754105" y1="348.7937563175929" x2="319.67213114754105" y2="350.9282212568475" stroke-dasharray="1,0.5" stroke="#333c"/>
<rect x="327.37704918032796" y="270.7913359642257" width="15.40983606557377" height="227.2086640357742" fill="#FFB000" data-tooltip="1.41x baseline (YJIT 3.3.3)"/>
<line x1="327.37704918032796" y1="269.1987956681425" x2="342.7868852459017" y2="269.1987956681425" stroke-dasharray="1,0.5" stroke="#333c"/>
<line x1="327.37704918032796" y1="272.38387626030897" x2="342.7868852459017" y2="272.38387626030897" stroke-dasharray="1,0.5" stroke="#333c"/>
<line x1="335.08196721311486" y1="269.1987956681425" x2="335.08196721311486" y2="272.38387626030897" stroke-dasharray="1,0.5" stroke="#333c"/>
<rect x="342.7868852459017" y="284.918336685542" width="15.40983606557377" height="213.08166331445798" fill="#DC267F" data-tooltip="1.33x baseline (YJIT 3.4.0dev)"/>
<line x1="342.7868852459017" y1="283.1872584403212" x2="358.1967213114755" y2="283.1872584403212" stroke-dasharray="1,0.5" stroke="#333c"/>
<line x1="342.7868852459017" y1="286.6494149307627" x2="358.1967213114755" y2="286.6494149307627" stroke-dasharray="1,0.5" stroke="#333c"/>
<line x1="350.4918032786886" y1="283.1872584403212" x2="350.4918032786886" y2="286.6494149307627" stroke-dasharray="1,0.5" stroke="#333c"/>
<line x1="335.08196721311486" y1="498.0" x2="335.08196721311486" y2="502.79999999999995" stroke="#000"/>
<text x="335.08196721311486" y="512.4" fill="#111" font-size="small" text-anchor="end" transform="rotate(-60, 335.08196721311486, 512.4)">
liquid-c
</text>
<rect x="373.6065573770493" y="343.2593548689581" width="15.40983606557377" height="154.7406451310418" fill="#785EF0" data-tooltip="0.96x baseline (CRuby 3.4.0dev)"/>
<line x1="373.6065573770493" y1="341.3550864773955" x2="389.01639344262304" y2="341.3550864773955" stroke-dasharray="1,0.5" stroke="#333c"/>
<line x1="373.6065573770493" y1="345.1636232605207" x2="389.01639344262304" y2="345.1636232605207" stroke-dasharray="1,0.5" stroke="#333c"/>
<line x1="381.3114754098362" y1="341.3550864773955" x2="381.3114754098362" y2="345.1636232605207" stroke-dasharray="1,0.5" stroke="#333c"/>
<rect x="389.01639344262304" y="268.376523702997" width="15.40983606557377" height="229.62347629700292" fill="#FFB000" data-tooltip="1.43x baseline (YJIT 3.3.3)"/>
<line x1="389.01639344262304" y1="263.8237943677719" x2="404.42622950819685" y2="263.8237943677719" stroke-dasharray="1,0.5" stroke="#333c"/>
<line x1="389.01639344262304" y1="272.9292530382222" x2="404.42622950819685" y2="272.9292530382222" stroke-dasharray="1,0.5" stroke="#333c"/>
<line x1="396.72131147540995" y1="263.8237943677719" x2="396.72131147540995" y2="272.9292530382222" stroke-dasharray="1,0.5" stroke="#333c"/>
<rect x="404.42622950819685" y="275.2951847366713" width="15.40983606557377" height="222.7048152633287" fill="#DC267F" data-tooltip="1.39x baseline (YJIT 3.4.0dev)"/>
<line x1="404.42622950819685" y1="272.2372233700449" x2="419.8360655737706" y2="272.2372233700449" stroke-dasharray="1,0.5" stroke="#333c"/>
<line x1="404.42622950819685" y1="278.35314610329766" x2="419.8360655737706" y2="278.35314610329766" stroke-dasharray="1,0.5" stroke="#333c"/>
<line x1="412.13114754098376" y1="272.2372233700449" x2="412.13114754098376" y2="278.35314610329766" stroke-dasharray="1,0.5" stroke="#333c"/>
<line x1="396.72131147540995" y1="498.0" x2="396.72131147540995" y2="502.79999999999995" stroke="#000"/>
<text x="396.72131147540995" y="512.4" fill="#111" font-size="small" text-anchor="end" transform="rotate(-60, 396.72131147540995, 512.4)">
liquid-compile
</text>
<rect x="435.2459016393444" y="344.8511831700709" width="15.40983606557377" height="153.148816829929" fill="#785EF0" data-tooltip="0.95x baseline (CRuby 3.4.0dev)"/>
<line x1="435.2459016393444" y1="344.12834511468407" x2="450.6557377049182" y2="344.12834511468407" stroke-dasharray="1,0.5" stroke="#333c"/>
<line x1="435.2459016393444" y1="345.5740212254577" x2="450.6557377049182" y2="345.5740212254577" stroke-dasharray="1,0.5" stroke="#333c"/>
<line x1="442.9508196721313" y1="344.12834511468407" x2="442.9508196721313" y2="345.5740212254577" stroke-dasharray="1,0.5" stroke="#333c"/>
<rect x="450.6557377049182" y="103.27000265653008" width="15.40983606557377" height="394.7299973434699" fill="#FFB000" data-tooltip="2.46x baseline (YJIT 3.3.3)"/>
<line x1="450.6557377049182" y1="100.96299803043541" x2="466.06557377049194" y2="100.96299803043541" stroke-dasharray="1,0.5" stroke="#333c"/>
<line x1="450.6557377049182" y1="105.57700728262475" x2="466.06557377049194" y2="105.57700728262475" stroke-dasharray="1,0.5" stroke="#333c"/>
<line x1="458.3606557377051" y1="100.96299803043541" x2="458.3606557377051" y2="105.57700728262475" stroke-dasharray="1,0.5" stroke="#333c"/>
<rect x="466.06557377049194" y="100.19999999999999" width="15.40983606557377" height="397.79999999999995" fill="#DC267F" data-tooltip="2.47x baseline (YJIT 3.4.0dev)"/>
<line x1="466.06557377049194" y1="97.49098650627246" x2="481.47540983606575" y2="97.49098650627246" stroke-dasharray="1,0.5" stroke="#333c"/>
<line x1="466.06557377049194" y1="102.90901349372751" x2="481.47540983606575" y2="102.90901349372751" stroke-dasharray="1,0.5" stroke="#333c"/>
<line x1="473.77049180327884" y1="97.49098650627246" x2="473.77049180327884" y2="102.90901349372751" stroke-dasharray="1,0.5" stroke="#333c"/>
<line x1="458.3606557377051" y1="498.0" x2="458.3606557377051" y2="502.79999999999995" stroke="#000"/>
<text x="458.3606557377051" y="512.4" fill="#111" font-size="small" text-anchor="end" transform="rotate(-60, 458.3606557377051, 512.4)">
liquid-render
</text>
<rect x="496.8852459016395" y="346.9777521491298" width="15.40983606557377" height="151.0222478508702" fill="#785EF0" data-tooltip="0.94x baseline (CRuby 3.4.0dev)"/>
<line x1="496.8852459016395" y1="344.5039258871088" x2="512.2950819672133" y2="344.5039258871088" stroke-dasharray="1,0.5" stroke="#333c"/>
<line x1="496.8852459016395" y1="349.4515784111508" x2="512.2950819672133" y2="349.4515784111508" stroke-dasharray="1,0.5" stroke="#333c"/>
<line x1="504.59016393442636" y1="344.5039258871088" x2="504.59016393442636" y2="349.4515784111508" stroke-dasharray="1,0.5" stroke="#333c"/>
<rect x="512.2950819672133" y="258.3606877707947" width="15.40983606557377" height="239.63931222920527" fill="#FFB000" data-tooltip="1.49x baseline (YJIT 3.3.3)"/>
<line x1="512.2950819672133" y1="254.3234104200737" x2="527.7049180327871" y2="254.3234104200737" stroke-dasharray="1,0.5" stroke="#333c"/>
<line x1="512.2950819672133" y1="262.39796512151565" x2="527.7049180327871" y2="262.39796512151565" stroke-dasharray="1,0.5" stroke="#333c"/>
<line x1="520.0000000000001" y1="254.3234104200737" x2="520.0000000000001" y2="262.39796512151565" stroke-dasharray="1,0.5" stroke="#333c"/>
<rect x="527.7049180327871" y="263.44430438522403" width="15.40983606557377" height="234.5556956147759" fill="#DC267F" data-tooltip="1.46x baseline (YJIT 3.4.0dev)"/>
<line x1="527.7049180327871" y1="258.0445940735641" x2="543.1147540983609" y2="258.0445940735641" stroke-dasharray="1,0.5" stroke="#333c"/>
<line x1="527.7049180327871" y1="268.8440146968839" x2="543.1147540983609" y2="268.8440146968839" stroke-dasharray="1,0.5" stroke="#333c"/>
<line x1="535.4098360655739" y1="258.0445940735641" x2="535.4098360655739" y2="268.8440146968839" stroke-dasharray="1,0.5" stroke="#333c"/>
<line x1="520.0000000000002" y1="498.0" x2="520.0000000000002" y2="502.79999999999995" stroke="#000"/>
<text x="520.0000000000002" y="512.4" fill="#111" font-size="small" text-anchor="end" transform="rotate(-60, 520.0000000000002, 512.4)">
lobsters
</text>
<rect x="558.5245901639346" y="352.51563509825" width="15.40983606557377" height="145.48436490174993" fill="#785EF0" data-tooltip="0.90x baseline (CRuby 3.4.0dev)"/>
<line x1="558.5245901639346" y1="351.7589909000918" x2="573.9344262295084" y2="351.7589909000918" stroke-dasharray="1,0.5" stroke="#333c"/>
<line x1="558.5245901639346" y1="353.27227929640827" x2="573.9344262295084" y2="353.27227929640827" stroke-dasharray="1,0.5" stroke="#333c"/>
<line x1="566.2295081967214" y1="351.7589909000918" x2="566.2295081967214" y2="353.27227929640827" stroke-dasharray="1,0.5" stroke="#333c"/>
<rect x="573.9344262295084" y="265.20007536603936" width="15.40983606557377" height="232.7999246339606" fill="#FFB000" data-tooltip="1.45x baseline (YJIT 3.3.3)"/>
<line x1="573.9344262295084" y1="264.1710478089586" x2="589.3442622950822" y2="264.1710478089586" stroke-dasharray="1,0.5" stroke="#333c"/>
<line x1="573.9344262295084" y1="266.2291029231201" x2="589.3442622950822" y2="266.2291029231201" stroke-dasharray="1,0.5" stroke="#333c"/>
<line x1="581.6393442622953" y1="264.1710478089586" x2="581.6393442622953" y2="266.2291029231201" stroke-dasharray="1,0.5" stroke="#333c"/>
<rect x="589.3442622950822" y="287.41608009550316" width="15.40983606557377" height="210.58391990449678" fill="#DC267F" data-tooltip="1.31x baseline (YJIT 3.4.0dev)"/>
<line x1="589.3442622950822" y1="286.4809573504835" x2="604.7540983606559" y2="286.4809573504835" stroke-dasharray="1,0.5" stroke="#333c"/>
<line x1="589.3442622950822" y1="288.3512028405228" x2="604.7540983606559" y2="288.3512028405228" stroke-dasharray="1,0.5" stroke="#333c"/>
<line x1="597.0491803278691" y1="286.4809573504835" x2="597.0491803278691" y2="288.3512028405228" stroke-dasharray="1,0.5" stroke="#333c"/>
<line x1="581.6393442622954" y1="498.0" x2="581.6393442622954" y2="502.79999999999995" stroke="#000"/>
<text x="581.6393442622954" y="512.4" fill="#111" font-size="small" text-anchor="end" transform="rotate(-60, 581.6393442622954, 512.4)">
mail
</text>
<rect x="620.1639344262297" y="350.0684647385551" width="15.40983606557377" height="147.93153526144482" fill="#785EF0" data-tooltip="0.92x baseline (CRuby 3.4.0dev)"/>
<line x1="620.1639344262297" y1="349.9561144162262" x2="635.5737704918035" y2="349.9561144162262" stroke-dasharray="1,0.5" stroke="#333c"/>
<line x1="620.1639344262297" y1="350.180815060884" x2="635.5737704918035" y2="350.180815060884" stroke-dasharray="1,0.5" stroke="#333c"/>
<line x1="627.8688524590166" y1="349.9561144162262" x2="627.8688524590166" y2="350.180815060884" stroke-dasharray="1,0.5" stroke="#333c"/>
<rect x="635.5737704918035" y="259.14183885450046" width="15.40983606557377" height="238.85816114549948" fill="#FFB000" data-tooltip="1.49x baseline (YJIT 3.3.3)"/>
<line x1="635.5737704918035" y1="258.9786241467454" x2="650.9836065573774" y2="258.9786241467454" stroke-dasharray="1,0.5" stroke="#333c"/>
<line x1="635.5737704918035" y1="259.3050535622555" x2="650.9836065573774" y2="259.3050535622555" stroke-dasharray="1,0.5" stroke="#333c"/>
<line x1="643.2786885245904" y1="258.9786241467454" x2="643.2786885245904" y2="259.3050535622555" stroke-dasharray="1,0.5" stroke="#333c"/>
<rect x="650.9836065573774" y="239.8240775549176" width="15.40983606557377" height="258.17592244508234" fill="#DC267F" data-tooltip="1.61x baseline (YJIT 3.4.0dev)"/>
<line x1="650.9836065573774" y1="239.5782781173482" x2="666.393442622951" y2="239.5782781173482" stroke-dasharray="1,0.5" stroke="#333c"/>
<line x1="650.9836065573774" y1="240.06987699248702" x2="666.393442622951" y2="240.06987699248702" stroke-dasharray="1,0.5" stroke="#333c"/>
<line x1="658.6885245901641" y1="239.5782781173482" x2="658.6885245901641" y2="240.06987699248702" stroke-dasharray="1,0.5" stroke="#333c"/>
<line x1="643.2786885245905" y1="498.0" x2="643.2786885245905" y2="502.79999999999995" stroke="#000"/>
<text x="643.2786885245905" y="512.4" fill="#111" font-size="small" text-anchor="end" transform="rotate(-60, 643.2786885245905, 512.4)">
psych-load
</text>
<rect x="681.8032786885249" y="346.99867471073543" width="15.40983606557377" height="151.00132528926454" fill="#785EF0" data-tooltip="0.94x baseline (CRuby 3.4.0dev)"/>
<line x1="681.8032786885249" y1="346.706788945173" x2="697.2131147540987" y2="346.706788945173" stroke-dasharray="1,0.5" stroke="#333c"/>
<line x1="681.8032786885249" y1="347.29056047629786" x2="697.2131147540987" y2="347.29056047629786" stroke-dasharray="1,0.5" stroke="#333c"/>
<line x1="689.5081967213117" y1="346.706788945173" x2="689.5081967213117" y2="347.29056047629786" stroke-dasharray="1,0.5" stroke="#333c"/>
<rect x="697.2131147540987" y="223.9365609006283" width="15.40983606557377" height="274.06343909937164" fill="#FFB000" data-tooltip="1.70x baseline (YJIT 3.3.3)"/>
<line x1="697.2131147540987" y1="223.11373113655006" x2="712.6229508196724" y2="223.11373113655006" stroke-dasharray="1,0.5" stroke="#333c"/>
<line x1="697.2131147540987" y1="224.75939066470653" x2="712.6229508196724" y2="224.75939066470653" stroke-dasharray="1,0.5" stroke="#333c"/>
<line x1="704.9180327868854" y1="223.11373113655006" x2="704.9180327868854" y2="224.75939066470653" stroke-dasharray="1,0.5" stroke="#333c"/>
<rect x="712.6229508196724" y="228.39963495165028" width="15.40983606557377" height="269.60036504834966" fill="#DC267F" data-tooltip="1.68x baseline (YJIT 3.4.0dev)"/>
<line x1="712.6229508196724" y1="227.66863920566948" x2="728.0327868852462" y2="227.66863920566948" stroke-dasharray="1,0.5" stroke="#333c"/>
<line x1="712.6229508196724" y1="229.13063069763106" x2="728.0327868852462" y2="229.13063069763106" stroke-dasharray="1,0.5" stroke="#333c"/>
<line x1="720.3278688524592" y1="227.66863920566948" x2="720.3278688524592" y2="229.13063069763106" stroke-dasharray="1,0.5" stroke="#333c"/>
<line x1="704.9180327868855" y1="498.0" x2="704.9180327868855" y2="502.79999999999995" stroke="#000"/>
<text x="704.9180327868855" y="512.4" fill="#111" font-size="small" text-anchor="end" transform="rotate(-60, 704.9180327868855, 512.4)">
railsbench
</text>
<rect x="743.44262295082" y="348.1204324772231" width="15.40983606557377" height="149.87956752277677" fill="#785EF0" data-tooltip="0.93x baseline (CRuby 3.4.0dev)"/>
<line x1="743.44262295082" y1="345.4416060838714" x2="758.8524590163937" y2="345.4416060838714" stroke-dasharray="1,0.5" stroke="#333c"/>
<line x1="743.44262295082" y1="350.7992588705748" x2="758.8524590163937" y2="350.7992588705748" stroke-dasharray="1,0.5" stroke="#333c"/>
<line x1="751.1475409836069" y1="345.4416060838714" x2="751.1475409836069" y2="350.7992588705748" stroke-dasharray="1,0.5" stroke="#333c"/>
<rect x="758.8524590163937" y="227.12422416998982" width="15.40983606557377" height="270.8757758300101" fill="#FFB000" data-tooltip="1.68x baseline (YJIT 3.3.3)"/>
<line x1="758.8524590163937" y1="214.15695542303973" x2="774.2622950819675" y2="214.15695542303973" stroke-dasharray="1,0.5" stroke="#333c"/>
<line x1="758.8524590163937" y1="240.09149291693996" x2="774.2622950819675" y2="240.09149291693996" stroke-dasharray="1,0.5" stroke="#333c"/>
<line x1="766.5573770491806" y1="214.15695542303973" x2="766.5573770491806" y2="240.09149291693996" stroke-dasharray="1,0.5" stroke="#333c"/>
<rect x="774.2622950819675" y="216.59283483203012" width="15.40983606557377" height="281.4071651679698" fill="#DC267F" data-tooltip="1.75x baseline (YJIT 3.4.0dev)"/>
<line x1="774.2622950819675" y1="205.80765945300917" x2="789.6721311475413" y2="205.80765945300917" stroke-dasharray="1,0.5" stroke="#333c"/>
<line x1="774.2622950819675" y1="227.37801021105105" x2="789.6721311475413" y2="227.37801021105105" stroke-dasharray="1,0.5" stroke="#333c"/>
<line x1="781.9672131147544" y1="205.80765945300917" x2="781.9672131147544" y2="227.37801021105105" stroke-dasharray="1,0.5" stroke="#333c"/>
<line x1="766.5573770491807" y1="498.0" x2="766.5573770491807" y2="502.79999999999995" stroke="#000"/>
<text x="766.5573770491807" y="512.4" fill="#111" font-size="small" text-anchor="end" transform="rotate(-60, 766.5573770491807, 512.4)">
rubocop
</text>
<rect x="805.081967213115" y="345.6572530911652" width="15.40983606557377" height="152.34274690883467" fill="#785EF0" data-tooltip="0.95x baseline (CRuby 3.4.0dev)"/>
<line x1="805.081967213115" y1="343.24833899246994" x2="820.4918032786888" y2="343.24833899246994" stroke-dasharray="1,0.5" stroke="#333c"/>
<line x1="805.081967213115" y1="348.06616718986055" x2="820.4918032786888" y2="348.06616718986055" stroke-dasharray="1,0.5" stroke="#333c"/>
<line x1="812.7868852459019" y1="343.24833899246994" x2="812.7868852459019" y2="348.06616718986055" stroke-dasharray="1,0.5" stroke="#333c"/>
<rect x="820.4918032786888" y="239.98857294119523" width="15.40983606557377" height="258.0114270588047" fill="#FFB000" data-tooltip="1.60x baseline (YJIT 3.3.3)"/>
<line x1="820.4918032786888" y1="235.7616727104876" x2="835.9016393442627" y2="235.7616727104876" stroke-dasharray="1,0.5" stroke="#333c"/>
<line x1="820.4918032786888" y1="244.21547317190283" x2="835.9016393442627" y2="244.21547317190283" stroke-dasharray="1,0.5" stroke="#333c"/>
<line x1="828.1967213114757" y1="235.7616727104876" x2="828.1967213114757" y2="244.21547317190283" stroke-dasharray="1,0.5" stroke="#333c"/>
<rect x="835.9016393442627" y="243.27977464394323" width="15.40983606557377" height="254.72022535605672" fill="#DC267F" data-tooltip="1.58x baseline (YJIT 3.4.0dev)"/>
<line x1="835.9016393442627" y1="238.90615016104533" x2="851.3114754098365" y2="238.90615016104533" stroke-dasharray="1,0.5" stroke="#333c"/>
<line x1="835.9016393442627" y1="247.65339912684112" x2="851.3114754098365" y2="247.65339912684112" stroke-dasharray="1,0.5" stroke="#333c"/>
<line x1="843.6065573770495" y1="238.90615016104533" x2="843.6065573770495" y2="247.65339912684112" stroke-dasharray="1,0.5" stroke="#333c"/>
<line x1="828.1967213114758" y1="498.0" x2="828.1967213114758" y2="502.79999999999995" stroke="#000"/>
<text x="828.1967213114758" y="512.4" fill="#111" font-size="small" text-anchor="end" transform="rotate(-60, 828.1967213114758, 512.4)">
ruby-lsp
</text>
<rect x="866.7213114754102" y="347.2726140680634" width="15.40983606557377" height="150.7273859319365" fill="#785EF0" data-tooltip="0.94x baseline (CRuby 3.4.0dev)"/>
<line x1="866.7213114754102" y1="346.1361350988155" x2="882.131147540984" y2="346.1361350988155" stroke-dasharray="1,0.5" stroke="#333c"/>
<line x1="866.7213114754102" y1="348.4090930373113" x2="882.131147540984" y2="348.4090930373113" stroke-dasharray="1,0.5" stroke="#333c"/>
<line x1="874.426229508197" y1="346.1361350988155" x2="874.426229508197" y2="348.4090930373113" stroke-dasharray="1,0.5" stroke="#333c"/>
<rect x="882.131147540984" y="283.26979352408324" width="15.40983606557377" height="214.73020647591673" fill="#FFB000" data-tooltip="1.34x baseline (YJIT 3.3.3)"/>
<line x1="882.131147540984" y1="281.73656759855277" x2="897.5409836065578" y2="281.73656759855277" stroke-dasharray="1,0.5" stroke="#333c"/>
<line x1="882.131147540984" y1="284.80301944961366" x2="897.5409836065578" y2="284.80301944961366" stroke-dasharray="1,0.5" stroke="#333c"/>
<line x1="889.8360655737708" y1="281.73656759855277" x2="889.8360655737708" y2="284.80301944961366" stroke-dasharray="1,0.5" stroke="#333c"/>
<rect x="897.5409836065578" y="301.4686647075363" width="15.40983606557377" height="196.53133529246367" fill="#DC267F" data-tooltip="1.22x baseline (YJIT 3.4.0dev)"/>
<line x1="897.5409836065578" y1="300.2203288274321" x2="912.9508196721315" y2="300.2203288274321" stroke-dasharray="1,0.5" stroke="#333c"/>
<line x1="897.5409836065578" y1="302.7170005876405" x2="912.9508196721315" y2="302.7170005876405" stroke-dasharray="1,0.5" stroke="#333c"/>
<line x1="905.2459016393447" y1="300.2203288274321" x2="905.2459016393447" y2="302.7170005876405" stroke-dasharray="1,0.5" stroke="#333c"/>
<line x1="889.836065573771" y1="498.0" x2="889.836065573771" y2="502.79999999999995" stroke="#000"/>
<text x="889.836065573771" y="512.4" fill="#111" font-size="small" text-anchor="end" transform="rotate(-60, 889.836065573771, 512.4)">
sequel
</text>
<rect x="928.3606557377053" y="348.5406322332713" width="15.40983606557377" height="149.45936776672858" fill="#785EF0" data-tooltip="0.93x baseline (CRuby 3.4.0dev)"/>
<rect x="943.7704918032791" y="234.54646692121213" width="15.40983606557377" height="263.4535330787878" fill="#FFB000" data-tooltip="1.64x baseline (YJIT 3.3.3)"/>
<rect x="959.1803278688528" y="236.05784452005494" width="15.40983606557377" height="261.942155479945" fill="#DC267F" data-tooltip="1.63x baseline (YJIT 3.4.0dev)"/>
<line x1="951.4754098360661" y1="498.0" x2="951.4754098360661" y2="502.79999999999995" stroke="#000"/>
<text x="951.4754098360661" y="512.4" fill="#111" font-size="small" text-anchor="end" transform="rotate(-60, 951.4754098360661, 512.4)" font-style="italic">
geomean*
</text>
<line x1="50.0" y1="337.2247719359843" x2="990.0" y2="337.2247719359843" stroke="#648FFF" stroke-width="2"/>
<rect x="67.23483606557377" y="335.27984849889486" width="17.85" height="7.2" transform="rotate(-60, 75.11475409836066, 341.93984849889483)" fill="#fffa"/>
<text x="67.40983606557377" y="341.93984849889483" fill="#111" font-size="0.5em" text-anchor="start" textLength="17.5" transform="rotate(-60, 75.11475409836066, 341.93984849889483)" style="text-shadow: 0 0 1px #fff;">
0.92
</text>
<rect x="82.64467213114754" y="149.2646721603006" width="17.85" height="7.2" transform="rotate(-60, 90.52459016393442, 155.9246721603006)" fill="#fffa"/>
<text x="82.81967213114753" y="155.9246721603006" fill="#111" font-size="0.5em" text-anchor="start" textLength="17.5" transform="rotate(-60, 90.52459016393442, 155.9246721603006)" style="text-shadow: 0 0 1px #fff;">
2.08
</text>
<rect x="98.0545081967213" y="160.17220318174574" width="17.85" height="7.2" transform="rotate(-60, 105.93442622950819, 166.83220318174574)" fill="#fffa"/>
<text x="98.2295081967213" y="166.83220318174574" fill="#111" font-size="0.5em" text-anchor="start" textLength="17.5" transform="rotate(-60, 105.93442622950819, 166.83220318174574)" style="text-shadow: 0 0 1px #fff;">
2.01
</text>
<rect x="128.87418032786883" y="345.8768225394663" width="17.85" height="7.2" transform="rotate(-60, 136.75409836065572, 352.53682253946624)" fill="#fffa"/>
<text x="129.04918032786884" y="352.53682253946624" fill="#111" font-size="0.5em" text-anchor="start" textLength="17.5" transform="rotate(-60, 136.75409836065572, 352.53682253946624)" style="text-shadow: 0 0 1px #fff;">
0.86
</text>
<rect x="144.2840163934426" y="216.43742549990804" width="17.85" height="7.2" transform="rotate(-60, 152.1639344262295, 223.09742549990804)" fill="#fffa"/>
<text x="144.4590163934426" y="223.09742549990804" fill="#111" font-size="0.5em" text-anchor="start" textLength="17.5" transform="rotate(-60, 152.1639344262295, 223.09742549990804)" style="text-shadow: 0 0 1px #fff;">
1.66
</text>
<rect x="159.69385245901637" y="177.69354441039462" width="17.85" height="7.2" transform="rotate(-60, 167.5737704918033, 184.35354441039462)" fill="#fffa"/>
<text x="159.86885245901638" y="184.35354441039462" fill="#111" font-size="0.5em" text-anchor="start" textLength="17.5" transform="rotate(-60, 167.5737704918033, 184.35354441039462)" style="text-shadow: 0 0 1px #fff;">
1.90
</text>
<rect x="190.51352459016394" y="335.46666948507783" width="17.85" height="7.2" transform="rotate(-60, 198.39344262295083, 342.12666948507785)" fill="#fffa"/>
<text x="190.68852459016395" y="342.12666948507785" fill="#111" font-size="0.5em" text-anchor="start" textLength="17.5" transform="rotate(-60, 198.39344262295083, 342.12666948507785)" style="text-shadow: 0 0 1px #fff;">
0.92
</text>
<rect x="205.92336065573772" y="189.62490781980998" width="17.85" height="7.2" transform="rotate(-60, 213.8032786885246, 196.28490781980997)" fill="#fffa"/>
<text x="206.09836065573774" y="196.28490781980997" fill="#111" font-size="0.5em" text-anchor="start" textLength="17.5" transform="rotate(-60, 213.8032786885246, 196.28490781980997)" style="text-shadow: 0 0 1px #fff;">
1.83
</text>
<rect x="221.33319672131148" y="209.12664011411042" width="17.85" height="7.2" transform="rotate(-60, 229.2131147540984, 215.7866401141104)" fill="#fffa"/>
<text x="221.5081967213115" y="215.7866401141104" fill="#111" font-size="0.5em" text-anchor="start" textLength="17.5" transform="rotate(-60, 229.2131147540984, 215.7866401141104)" style="text-shadow: 0 0 1px #fff;">
1.71
</text>
<rect x="252.15286885245908" y="329.93243870259045" width="17.85" height="7.2" transform="rotate(-60, 260.03278688524597, 336.5924387025904)" fill="#fffa"/>
<text x="252.32786885245906" y="336.5924387025904" fill="#111" font-size="0.5em" text-anchor="start" textLength="17.5" transform="rotate(-60, 260.03278688524597, 336.5924387025904)" style="text-shadow: 0 0 1px #fff;">
0.96
</text>
<rect x="267.56270491803286" y="222.65015312418123" width="17.85" height="7.2" transform="rotate(-60, 275.4426229508197, 229.31015312418123)" fill="#fffa"/>
<text x="267.7377049180328" y="229.31015312418123" fill="#111" font-size="0.5em" text-anchor="start" textLength="17.5" transform="rotate(-60, 275.4426229508197, 229.31015312418123)" style="text-shadow: 0 0 1px #fff;">
1.62
</text>
<rect x="282.9725409836066" y="196.17382662218253" width="17.85" height="7.2" transform="rotate(-60, 290.8524590163935, 202.83382662218253)" fill="#fffa"/>
<text x="283.14754098360663" y="202.83382662218253" fill="#111" font-size="0.5em" text-anchor="start" textLength="17.5" transform="rotate(-60, 290.8524590163935, 202.83382662218253)" style="text-shadow: 0 0 1px #fff;">
1.79
</text>
<rect x="313.7922131147542" y="335.70098878722024" width="17.85" height="7.2" transform="rotate(-60, 321.67213114754105, 342.3609887872202)" fill="#fffa"/>
<text x="313.96721311475414" y="342.3609887872202" fill="#111" font-size="0.5em" text-anchor="start" textLength="17.5" transform="rotate(-60, 321.67213114754105, 342.3609887872202)" style="text-shadow: 0 0 1px #fff;">
0.92
</text>
<rect x="329.20204918032795" y="256.63133596422574" width="17.85" height="7.2" transform="rotate(-60, 337.08196721311486, 263.2913359642257)" fill="#fffa"/>
<text x="329.37704918032796" y="263.2913359642257" fill="#111" font-size="0.5em" text-anchor="start" textLength="17.5" transform="rotate(-60, 337.08196721311486, 263.2913359642257)" style="text-shadow: 0 0 1px #fff;">
1.41
</text>
<rect x="344.61188524590176" y="270.75833668554196" width="17.85" height="7.2" transform="rotate(-60, 352.4918032786886, 277.41833668554193)" fill="#fffa"/>
<text x="344.7868852459017" y="277.41833668554193" fill="#111" font-size="0.5em" text-anchor="start" textLength="17.5" transform="rotate(-60, 352.4918032786886, 277.41833668554193)" style="text-shadow: 0 0 1px #fff;">
1.33
</text>
<rect x="375.43155737704933" y="329.09935486895813" width="17.85" height="7.2" transform="rotate(-60, 383.3114754098362, 335.75935486895816)" fill="#fffa"/>
<text x="375.6065573770493" y="335.75935486895816" fill="#111" font-size="0.5em" text-anchor="start" textLength="17.5" transform="rotate(-60, 383.3114754098362, 335.75935486895816)" style="text-shadow: 0 0 1px #fff;">
0.96
</text>
<rect x="390.8413934426231" y="254.21652370299702" width="17.85" height="7.2" transform="rotate(-60, 398.72131147540995, 260.876523702997)" fill="#fffa"/>
<text x="391.01639344262304" y="260.876523702997" fill="#111" font-size="0.5em" text-anchor="start" textLength="17.5" transform="rotate(-60, 398.72131147540995, 260.876523702997)" style="text-shadow: 0 0 1px #fff;">
1.43
</text>
<rect x="406.25122950819684" y="261.13518473667125" width="17.85" height="7.2" transform="rotate(-60, 414.13114754098376, 267.7951847366712)" fill="#fffa"/>
<text x="406.42622950819685" y="267.7951847366712" fill="#111" font-size="0.5em" text-anchor="start" textLength="17.5" transform="rotate(-60, 414.13114754098376, 267.7951847366712)" style="text-shadow: 0 0 1px #fff;">
1.39
</text>
<rect x="437.0709016393444" y="330.69118317007093" width="17.85" height="7.2" transform="rotate(-60, 444.9508196721313, 337.35118317007095)" fill="#fffa"/>
<text x="437.2459016393444" y="337.35118317007095" fill="#111" font-size="0.5em" text-anchor="start" textLength="17.5" transform="rotate(-60, 444.9508196721313, 337.35118317007095)" style="text-shadow: 0 0 1px #fff;">
0.95
</text>
<rect x="452.4807377049182" y="89.11000265653007" width="17.85" height="7.2" transform="rotate(-60, 460.3606557377051, 95.77000265653007)" fill="#fffa"/>
<text x="452.6557377049182" y="95.77000265653007" fill="#111" font-size="0.5em" text-anchor="start" textLength="17.5" transform="rotate(-60, 460.3606557377051, 95.77000265653007)" style="text-shadow: 0 0 1px #fff;">
2.46
</text>
<rect x="467.890573770492" y="86.03999999999998" width="17.85" height="7.2" transform="rotate(-60, 475.77049180327884, 92.69999999999999)" fill="#fffa"/>
<text x="468.06557377049194" y="92.69999999999999" fill="#111" font-size="0.5em" text-anchor="start" textLength="17.5" transform="rotate(-60, 475.77049180327884, 92.69999999999999)" style="text-shadow: 0 0 1px #fff;">
2.47
</text>
<rect x="498.71024590163955" y="332.81775214912983" width="17.85" height="7.2" transform="rotate(-60, 506.59016393442636, 339.4777521491298)" fill="#fffa"/>
<text x="498.8852459016395" y="339.4777521491298" fill="#111" font-size="0.5em" text-anchor="start" textLength="17.5" transform="rotate(-60, 506.59016393442636, 339.4777521491298)" style="text-shadow: 0 0 1px #fff;">
0.94
</text>
<rect x="514.1200819672133" y="244.20068777079467" width="17.85" height="7.2" transform="rotate(-60, 522.0000000000001, 250.86068777079467)" fill="#fffa"/>
<text x="514.2950819672133" y="250.86068777079467" fill="#111" font-size="0.5em" text-anchor="start" textLength="17.5" transform="rotate(-60, 522.0000000000001, 250.86068777079467)" style="text-shadow: 0 0 1px #fff;">
1.49
</text>
<rect x="529.529918032787" y="249.284304385224" width="17.85" height="7.2" transform="rotate(-60, 537.4098360655739, 255.944304385224)" fill="#fffa"/>
<text x="529.7049180327871" y="255.944304385224" fill="#111" font-size="0.5em" text-anchor="start" textLength="17.5" transform="rotate(-60, 537.4098360655739, 255.944304385224)" style="text-shadow: 0 0 1px #fff;">
1.46
</text>
<rect x="560.3495901639346" y="338.35563509825005" width="17.85" height="7.2" transform="rotate(-60, 568.2295081967214, 345.0156350982501)" fill="#fffa"/>
<text x="560.5245901639346" y="345.0156350982501" fill="#111" font-size="0.5em" text-anchor="start" textLength="17.5" transform="rotate(-60, 568.2295081967214, 345.0156350982501)" style="text-shadow: 0 0 1px #fff;">
0.90
</text>
<rect x="575.7594262295083" y="251.04007536603933" width="17.85" height="7.2" transform="rotate(-60, 583.6393442622953, 257.70007536603936)" fill="#fffa"/>
<text x="575.9344262295084" y="257.70007536603936" fill="#111" font-size="0.5em" text-anchor="start" textLength="17.5" transform="rotate(-60, 583.6393442622953, 257.70007536603936)" style="text-shadow: 0 0 1px #fff;">
1.45
</text>
<rect x="591.1692622950821" y="273.25608009550314" width="17.85" height="7.2" transform="rotate(-60, 599.0491803278691, 279.91608009550316)" fill="#fffa"/>
<text x="591.3442622950822" y="279.91608009550316" fill="#111" font-size="0.5em" text-anchor="start" textLength="17.5" transform="rotate(-60, 599.0491803278691, 279.91608009550316)" style="text-shadow: 0 0 1px #fff;">
1.31
</text>
<rect x="621.9889344262297" y="335.90846473855515" width="17.85" height="7.2" transform="rotate(-60, 629.8688524590166, 342.5684647385551)" fill="#fffa"/>
<text x="622.1639344262297" y="342.5684647385551" fill="#111" font-size="0.5em" text-anchor="start" textLength="17.5" transform="rotate(-60, 629.8688524590166, 342.5684647385551)" style="text-shadow: 0 0 1px #fff;">
0.92
</text>
<rect x="637.3987704918035" y="244.98183885450047" width="17.85" height="7.2" transform="rotate(-60, 645.2786885245904, 251.64183885450046)" fill="#fffa"/>
<text x="637.5737704918035" y="251.64183885450046" fill="#111" font-size="0.5em" text-anchor="start" textLength="17.5" transform="rotate(-60, 645.2786885245904, 251.64183885450046)" style="text-shadow: 0 0 1px #fff;">
1.49
</text>
<rect x="652.8086065573773" y="225.6640775549176" width="17.85" height="7.2" transform="rotate(-60, 660.6885245901641, 232.3240775549176)" fill="#fffa"/>
<text x="652.9836065573774" y="232.3240775549176" fill="#111" font-size="0.5em" text-anchor="start" textLength="17.5" transform="rotate(-60, 660.6885245901641, 232.3240775549176)" style="text-shadow: 0 0 1px #fff;">
1.61
</text>
<rect x="683.6282786885248" y="332.83867471073546" width="17.85" height="7.2" transform="rotate(-60, 691.5081967213117, 339.49867471073543)" fill="#fffa"/>
<text x="683.8032786885249" y="339.49867471073543" fill="#111" font-size="0.5em" text-anchor="start" textLength="17.5" transform="rotate(-60, 691.5081967213117, 339.49867471073543)" style="text-shadow: 0 0 1px #fff;">
0.94
</text>
<rect x="699.0381147540986" y="209.77656090062828" width="17.85" height="7.2" transform="rotate(-60, 706.9180327868854, 216.4365609006283)" fill="#fffa"/>
<text x="699.2131147540987" y="216.4365609006283" fill="#111" font-size="0.5em" text-anchor="start" textLength="17.5" transform="rotate(-60, 706.9180327868854, 216.4365609006283)" style="text-shadow: 0 0 1px #fff;">
1.70
</text>
<rect x="714.4479508196724" y="214.23963495165026" width="17.85" height="7.2" transform="rotate(-60, 722.3278688524592, 220.89963495165026)" fill="#fffa"/>
<text x="714.6229508196724" y="220.89963495165026" fill="#111" font-size="0.5em" text-anchor="start" textLength="17.5" transform="rotate(-60, 722.3278688524592, 220.89963495165026)" style="text-shadow: 0 0 1px #fff;">
1.68
</text>
<rect x="745.2676229508199" y="333.96043247722315" width="17.85" height="7.2" transform="rotate(-60, 753.1475409836069, 340.6204324772232)" fill="#fffa"/>
<text x="745.44262295082" y="340.6204324772232" fill="#111" font-size="0.5em" text-anchor="start" textLength="17.5" transform="rotate(-60, 753.1475409836069, 340.6204324772232)" style="text-shadow: 0 0 1px #fff;">
0.93
</text>
<rect x="760.6774590163938" y="212.96422416998982" width="17.85" height="7.2" transform="rotate(-60, 768.5573770491806, 219.62422416998982)" fill="#fffa"/>
<text x="760.8524590163937" y="219.62422416998982" fill="#111" font-size="0.5em" text-anchor="start" textLength="17.5" transform="rotate(-60, 768.5573770491806, 219.62422416998982)" style="text-shadow: 0 0 1px #fff;">
1.68
</text>
<rect x="776.0872950819675" y="202.4328348320301" width="17.85" height="7.2" transform="rotate(-60, 783.9672131147544, 209.0928348320301)" fill="#fffa"/>
<text x="776.2622950819675" y="209.0928348320301" fill="#111" font-size="0.5em" text-anchor="start" textLength="17.5" transform="rotate(-60, 783.9672131147544, 209.0928348320301)" style="text-shadow: 0 0 1px #fff;">
1.75
</text>
<rect x="806.9069672131151" y="331.49725309116525" width="17.85" height="7.2" transform="rotate(-60, 814.7868852459019, 338.1572530911653)" fill="#fffa"/>
<text x="807.0819672131151" y="338.1572530911653" fill="#111" font-size="0.5em" text-anchor="start" textLength="17.5" transform="rotate(-60, 814.7868852459019, 338.1572530911653)" style="text-shadow: 0 0 1px #fff;">
0.95
</text>
<rect x="822.3168032786888" y="225.8285729411952" width="17.85" height="7.2" transform="rotate(-60, 830.1967213114757, 232.4885729411952)" fill="#fffa"/>
<text x="822.4918032786888" y="232.4885729411952" fill="#111" font-size="0.5em" text-anchor="start" textLength="17.5" transform="rotate(-60, 830.1967213114757, 232.4885729411952)" style="text-shadow: 0 0 1px #fff;">
1.60
</text>
<rect x="837.7266393442626" y="229.11977464394323" width="17.85" height="7.2" transform="rotate(-60, 845.6065573770495, 235.77977464394323)" fill="#fffa"/>
<text x="837.9016393442627" y="235.77977464394323" fill="#111" font-size="0.5em" text-anchor="start" textLength="17.5" transform="rotate(-60, 845.6065573770495, 235.77977464394323)" style="text-shadow: 0 0 1px #fff;">
1.58
</text>
<rect x="868.5463114754102" y="333.1126140680634" width="17.85" height="7.2" transform="rotate(-60, 876.426229508197, 339.77261406806343)" fill="#fffa"/>
<text x="868.7213114754102" y="339.77261406806343" fill="#111" font-size="0.5em" text-anchor="start" textLength="17.5" transform="rotate(-60, 876.426229508197, 339.77261406806343)" style="text-shadow: 0 0 1px #fff;">
0.94
</text>
<rect x="883.9561475409839" y="269.1097935240832" width="17.85" height="7.2" transform="rotate(-60, 891.8360655737708, 275.7697935240832)" fill="#fffa"/>
<text x="884.131147540984" y="275.7697935240832" fill="#111" font-size="0.5em" text-anchor="start" textLength="17.5" transform="rotate(-60, 891.8360655737708, 275.7697935240832)" style="text-shadow: 0 0 1px #fff;">
1.34
</text>
<rect x="899.3659836065577" y="287.3086647075363" width="17.85" height="7.2" transform="rotate(-60, 907.2459016393447, 293.9686647075363)" fill="#fffa"/>
<text x="899.5409836065578" y="293.9686647075363" fill="#111" font-size="0.5em" text-anchor="start" textLength="17.5" transform="rotate(-60, 907.2459016393447, 293.9686647075363)" style="text-shadow: 0 0 1px #fff;">
1.22
</text>
<rect x="930.1856557377052" y="334.38063223327134" width="17.85" height="7.2" transform="rotate(-60, 938.0655737704922, 341.04063223327137)" fill="#fffa"/>
<text x="930.3606557377053" y="341.04063223327137" fill="#111" font-size="0.5em" text-anchor="start" textLength="17.5" transform="rotate(-60, 938.0655737704922, 341.04063223327137)" style="text-shadow: 0 0 1px #fff;">
0.93
</text>
<rect x="945.5954918032791" y="220.3864669212121" width="17.85" height="7.2" transform="rotate(-60, 953.475409836066, 227.0464669212121)" fill="#fffa"/>
<text x="945.7704918032791" y="227.0464669212121" fill="#111" font-size="0.5em" text-anchor="start" textLength="17.5" transform="rotate(-60, 953.475409836066, 227.0464669212121)" style="text-shadow: 0 0 1px #fff;">
1.64
</text>
<rect x="961.0053278688529" y="221.89784452005495" width="17.85" height="7.2" transform="rotate(-60, 968.8852459016397, 228.55784452005494)" fill="#fffa"/>
<text x="961.1803278688528" y="228.55784452005494" fill="#111" font-size="0.5em" text-anchor="start" textLength="17.5" transform="rotate(-60, 968.8852459016397, 228.55784452005494)" style="text-shadow: 0 0 1px #fff;">
1.63
</text>
</svg>