<svg viewBox="0 0 1000 600" xmlns="http://www.w3.org/2000/svg" xmlns:xlink="http://www.w3.org/1999/xlink" width="100%" height="100%">

<rect x="50.0" y="30.0" width="940.0" height="467.99999999999994" stroke="#000" fill="#fff"/>
<line x1="42.0" y1="497.9999999999999" x2="50.0" y2="497.9999999999999" stroke="#000"/>
<text x="26.000000000000004" y="497.9999999999999" text-anchor="end" font-weight="bold" font-size="small" fill="#111">
0.0
</text>
<line x1="42.0" y1="444.8882781712813" x2="50.0" y2="444.8882781712813" stroke="#000"/>
<text x="26.000000000000004" y="444.8882781712813" text-anchor="end" font-weight="bold" font-size="small" fill="#111">
0.2
</text>
<line x1="42.0" y1="391.7765563425627" x2="50.0" y2="391.7765563425627" stroke="#000"/>
<text x="26.000000000000004" y="391.7765563425627" text-anchor="end" font-weight="bold" font-size="small" fill="#111">
0.4
</text>
<line x1="42.0" y1="338.6648345138441" x2="50.0" y2="338.6648345138441" stroke="#000"/>
<text x="26.000000000000004" y="338.6648345138441" text-anchor="end" font-weight="bold" font-size="small" fill="#111">
0.6
</text>
<line x1="42.0" y1="285.5531126851255" x2="50.0" y2="285.5531126851255" stroke="#000"/>
<text x="26.000000000000004" y="285.5531126851255" text-anchor="end" font-weight="bold" font-size="small" fill="#111">
0.8
</text>
<line x1="42.0" y1="232.44139085640688" x2="50.0" y2="232.44139085640688" stroke="#000"/>
<text x="26.000000000000004" y="232.44139085640688" text-anchor="end" font-weight="bold" font-size="small" fill="#111">
1.0
</text>
<line x1="42.0" y1="179.32966902768834" x2="50.0" y2="179.32966902768834" stroke="#000"/>
<text x="26.000000000000004" y="179.32966902768834" text-anchor="end" font-weight="bold" font-size="small" fill="#111">
1.2
</text>
<line x1="42.0" y1="126.21794719896972" x2="50.0" y2="126.21794719896972" stroke="#000"/>
<text x="26.000000000000004" y="126.21794719896972" text-anchor="end" font-weight="bold" font-size="small" fill="#111">
1.4
</text>
<line x1="248.5" y1="54.60000000000001" x2="368.5" y2="54.60000000000001" stroke="#648FFF" stroke-width="2"/>
<text x="308.5" y="49.500000000000014" font-size="small" text-anchor="middle" font-weight="bold" fill="#000">
CRuby 3.3.0dev
</text>
<rect x="671.5" y="35.400000000000006" width="120.0" height="19.2" fill="#785EF0" stroke="none"/>
<text x="731.4999999999999" y="49.500000000000014" font-size="small" text-anchor="middle" font-weight="bold" fill="#fff" style="text-shadow: 0 0 1px #000;">
YJIT 3.3.0dev
</text>
<rect x="84.81481481481481" y="100.19999999999999" width="34.81481481481481" height="397.79999999999995" fill="#785EF0" data-tooltip="1.50x baseline (YJIT 3.3.0dev)"/>
<line x1="102.22222222222221" y1="498.0" x2="102.22222222222221" y2="502.79999999999995" stroke="#000"/>
<text x="102.22222222222221" y="512.4" fill="#111" font-size="small" text-anchor="end" transform="rotate(-60, 102.22222222222221, 512.4)">
30k_ifelse
</text>
<rect x="154.44444444444443" y="180.07266744131636" width="34.81481481481481" height="317.9273325586836" fill="#785EF0" data-tooltip="1.20x baseline (YJIT 3.3.0dev)"/>
<line x1="171.85185185185185" y1="498.0" x2="171.85185185185185" y2="502.79999999999995" stroke="#000"/>
<text x="171.85185185185185" y="512.4" fill="#111" font-size="small" text-anchor="end" transform="rotate(-60, 171.85185185185185, 512.4)">
30k_methods
</text>
<rect x="224.07407407407405" y="228.98730030136406" width="34.81481481481481" height="269.0126996986359" fill="#785EF0" data-tooltip="1.01x baseline (YJIT 3.3.0dev)"/>
<line x1="241.48148148148144" y1="498.0" x2="241.48148148148144" y2="502.79999999999995" stroke="#000"/>
<text x="241.48148148148144" y="512.4" fill="#111" font-size="small" text-anchor="end" transform="rotate(-60, 241.48148148148144, 512.4)">
cfunc_itself
</text>
<rect x="293.70370370370364" y="229.69738685836754" width="34.81481481481481" height="268.30261314163243" fill="#785EF0" data-tooltip="1.01x baseline (YJIT 3.3.0dev)"/>
<line x1="311.11111111111103" y1="498.0" x2="311.11111111111103" y2="502.79999999999995" stroke="#000"/>
<text x="311.11111111111103" y="512.4" fill="#111" font-size="small" text-anchor="end" transform="rotate(-60, 311.11111111111103, 512.4)">
fib
</text>
<rect x="363.33333333333326" y="228.9371751304731" width="34.81481481481481" height="269.0628248695268" fill="#785EF0" data-tooltip="1.01x baseline (YJIT 3.3.0dev)"/>
<line x1="380.7407407407406" y1="498.0" x2="380.7407407407406" y2="502.79999999999995" stroke="#000"/>
<text x="380.7407407407406" y="512.4" fill="#111" font-size="small" text-anchor="end" transform="rotate(-60, 380.7407407407406, 512.4)">
getivar
</text>
<rect x="432.9629629629628" y="228.88570940268627" width="34.81481481481481" height="269.11429059731364" fill="#785EF0" data-tooltip="1.01x baseline (YJIT 3.3.0dev)"/>
<line x1="450.3703703703702" y1="498.0" x2="450.3703703703702" y2="502.79999999999995" stroke="#000"/>
<text x="450.3703703703702" y="512.4" fill="#111" font-size="small" text-anchor="end" transform="rotate(-60, 450.3703703703702, 512.4)">
keyword_args
</text>
<rect x="502.5925925925925" y="228.63100331369225" width="34.81481481481481" height="269.3689966863077" fill="#785EF0" data-tooltip="1.01x baseline (YJIT 3.3.0dev)"/>
<line x1="519.9999999999999" y1="498.0" x2="519.9999999999999" y2="502.79999999999995" stroke="#000"/>
<text x="519.9999999999999" y="512.4" fill="#111" font-size="small" text-anchor="end" transform="rotate(-60, 519.9999999999999, 512.4)">
respond_to
</text>
<rect x="572.2222222222222" y="228.88502914987322" width="34.81481481481481" height="269.1149708501267" fill="#785EF0" data-tooltip="1.01x baseline (YJIT 3.3.0dev)"/>
<line x1="589.6296296296296" y1="498.0" x2="589.6296296296296" y2="502.79999999999995" stroke="#000"/>
<text x="589.6296296296296" y="512.4" fill="#111" font-size="small" text-anchor="end" transform="rotate(-60, 589.6296296296296, 512.4)">
setivar
</text>
<rect x="641.8518518518518" y="228.36606211451408" width="34.81481481481481" height="269.63393788548586" fill="#785EF0" data-tooltip="1.02x baseline (YJIT 3.3.0dev)"/>
<line x1="659.2592592592594" y1="498.0" x2="659.2592592592594" y2="502.79999999999995" stroke="#000"/>
<text x="659.2592592592594" y="512.4" fill="#111" font-size="small" text-anchor="end" transform="rotate(-60, 659.2592592592594, 512.4)">
setivar_object
</text>
<rect x="711.4814814814816" y="228.92641981652434" width="34.81481481481481" height="269.0735801834756" fill="#785EF0" data-tooltip="1.01x baseline (YJIT 3.3.0dev)"/>
<line x1="728.888888888889" y1="498.0" x2="728.888888888889" y2="502.79999999999995" stroke="#000"/>
<text x="728.888888888889" y="512.4" fill="#111" font-size="small" text-anchor="end" transform="rotate(-60, 728.888888888889, 512.4)">
setivar_young
</text>
<rect x="781.1111111111113" y="157.14540077016176" width="34.81481481481481" height="340.85459922983813" fill="#785EF0" data-tooltip="1.28x baseline (YJIT 3.3.0dev)"/>
<line x1="798.5185185185187" y1="498.0" x2="798.5185185185187" y2="502.79999999999995" stroke="#000"/>
<text x="798.5185185185187" y="512.4" fill="#111" font-size="small" text-anchor="end" transform="rotate(-60, 798.5185185185187, 512.4)">
str_concat
</text>
<rect x="850.740740740741" y="228.9371751304731" width="34.81481481481481" height="269.0628248695268" fill="#785EF0" data-tooltip="1.01x baseline (YJIT 3.3.0dev)"/>
<line x1="868.1481481481485" y1="498.0" x2="868.1481481481485" y2="502.79999999999995" stroke="#000"/>
<text x="868.1481481481485" y="512.4" fill="#111" font-size="small" text-anchor="end" transform="rotate(-60, 868.1481481481485, 512.4)">
throw
</text>
<rect x="920.3703703703708" y="210.50659036052107" width="34.81481481481481" height="287.49340963947884" fill="#785EF0" data-tooltip="1.08x baseline (YJIT 3.3.0dev)"/>
<line x1="937.7777777777782" y1="498.0" x2="937.7777777777782" y2="502.79999999999995" stroke="#000"/>
<text x="937.7777777777782" y="512.4" fill="#111" font-size="small" text-anchor="end" transform="rotate(-60, 937.7777777777782, 512.4)" font-style="italic">
geomean*
</text>
<line x1="50.0" y1="232.44139085640688" x2="990.0" y2="232.44139085640688" stroke="#648FFF" stroke-width="2"/>
</svg>