<svg viewBox="0 0 1000 600" xmlns="http://www.w3.org/2000/svg" xmlns:xlink="http://www.w3.org/1999/xlink" width="100%" height="100%">

<rect x="50.0" y="30.0" width="940.0" height="467.99999999999994" stroke="#000" fill="#EEE"/>
<line x1="42.0" y1="497.9999999999999" x2="50.0" y2="497.9999999999999" stroke="#000"/>
<text x="26.000000000000004" y="497.9999999999999" text-anchor="end" font-weight="bold" font-size="small" fill="#111">
0.0
</text>
<line x1="42.0" y1="456.64807495822106" x2="50.0" y2="456.64807495822106" stroke="#000"/>
<text x="26.000000000000004" y="456.64807495822106" text-anchor="end" font-weight="bold" font-size="small" fill="#111">
0.2
</text>
<line x1="42.0" y1="415.2961499164424" x2="50.0" y2="415.2961499164424" stroke="#000"/>
<text x="26.000000000000004" y="415.2961499164424" text-anchor="end" font-weight="bold" font-size="small" fill="#111">
0.4
</text>
<line x1="42.0" y1="373.9442248746635" x2="50.0" y2="373.9442248746635" stroke="#000"/>
<text x="26.000000000000004" y="373.9442248746635" text-anchor="end" font-weight="bold" font-size="small" fill="#111">
0.6
</text>
<line x1="42.0" y1="332.5922998328847" x2="50.0" y2="332.5922998328847" stroke="#000"/>
<text x="26.000000000000004" y="332.5922998328847" text-anchor="end" font-weight="bold" font-size="small" fill="#111">
0.8
</text>
<line x1="42.0" y1="291.24037479110586" x2="50.0" y2="291.24037479110586" stroke="#000"/>
<text x="26.000000000000004" y="291.24037479110586" text-anchor="end" font-weight="bold" font-size="small" fill="#111">
1.0
</text>
<line x1="42.0" y1="249.8884497493271" x2="50.0" y2="249.8884497493271" stroke="#000"/>
<text x="26.000000000000004" y="249.8884497493271" text-anchor="end" font-weight="bold" font-size="small" fill="#111">
1.2
</text>
<line x1="42.0" y1="208.53652470754827" x2="50.0" y2="208.53652470754827" stroke="#000"/>
<text x="26.000000000000004" y="208.53652470754827" text-anchor="end" font-weight="bold" font-size="small" fill="#111">
1.4
</text>
<line x1="42.0" y1="167.18459966576947" x2="50.0" y2="167.18459966576947" stroke="#000"/>
<text x="26.000000000000004" y="167.18459966576947" text-anchor="end" font-weight="bold" font-size="small" fill="#111">
1.6
</text>
<line x1="42.0" y1="125.83267462399067" x2="50.0" y2="125.83267462399067" stroke="#000"/>
<text x="26.000000000000004" y="125.83267462399067" text-anchor="end" font-weight="bold" font-size="small" fill="#111">
1.8
</text>
<rect x="268.5" y="36.00000000000001" width="80.0" height="18.0" fill="#7070f8" stroke="#888"/>
<text x="308.5" y="52.50000000000001" font-size="small" text-anchor="middle" font-weight="bold" fill="#EEE">
No JIT
</text>
<rect x="691.4999999999999" y="36.00000000000001" width="80.0" height="18.0" fill="orange" stroke="#888"/>
<text x="731.4999999999999" y="52.50000000000001" font-size="small" text-anchor="middle" font-weight="bold" fill="#EEE">
YJIT
</text>
<rect x="97.0" y="291.24037479110586" width="20.142857142857142" height="206.75962520889405" fill="#7070f8" data-tooltip="1.00x baseline speed (No JIT)"/>
<line x1="97.0" y1="290.61942499942745" x2="117.14285714285714" y2="290.61942499942745" stroke="#000"/>
<line x1="97.0" y1="291.86132458278433" x2="117.14285714285714" y2="291.86132458278433" stroke="#000"/>
<line x1="107.07142857142857" y1="290.61942499942745" x2="107.07142857142857" y2="291.86132458278433" stroke="#000"/>
<rect x="117.14285714285714" y="165.58370202487484" width="20.142857142857142" height="332.41629797512513" fill="orange" data-tooltip="1.61x baseline speed (YJIT)"/>
<line x1="117.14285714285714" y1="163.70551103001557" x2="137.28571428571428" y2="163.70551103001557" stroke="#000"/>
<line x1="117.14285714285714" y1="167.4618930197341" x2="137.28571428571428" y2="167.4618930197341" stroke="#000"/>
<line x1="127.21428571428572" y1="163.70551103001557" x2="127.21428571428572" y2="167.4618930197341" stroke="#000"/>
<line x1="127.21428571428572" y1="498.0" x2="127.21428571428572" y2="502.79999999999995" stroke="#000"/>
<text x="127.21428571428572" y="512.4" fill="#111" font-size="small" font-family="monospace" font-weight="bold" text-anchor="end" transform="rotate(-60, 127.21428571428572, 512.4)">
activerecord
</text>
<rect x="157.42857142857142" y="291.24037479110586" width="20.142857142857142" height="206.75962520889405" fill="#7070f8" data-tooltip="1.00x baseline speed (No JIT)"/>
<line x1="157.42857142857142" y1="291.0948826440824" x2="177.57142857142856" y2="291.0948826440824" stroke="#000"/>
<line x1="157.42857142857142" y1="291.38586693812937" x2="177.57142857142856" y2="291.38586693812937" stroke="#000"/>
<line x1="167.49999999999997" y1="291.0948826440824" x2="167.49999999999997" y2="291.38586693812937" stroke="#000"/>
<rect x="177.57142857142856" y="101.98357130194829" width="20.142857142857142" height="396.01642869805164" fill="orange" data-tooltip="1.92x baseline speed (YJIT)"/>
<line x1="177.57142857142856" y1="101.53416575289654" x2="197.71428571428567" y2="101.53416575289654" stroke="#000"/>
<line x1="177.57142857142856" y1="102.43297685100005" x2="197.71428571428567" y2="102.43297685100005" stroke="#000"/>
<line x1="187.6428571428571" y1="101.53416575289654" x2="187.6428571428571" y2="102.43297685100005" stroke="#000"/>
<line x1="187.64285714285714" y1="498.0" x2="187.64285714285714" y2="502.79999999999995" stroke="#000"/>
<text x="187.64285714285714" y="512.4" fill="#111" font-size="small" font-family="monospace" font-weight="bold" text-anchor="end" transform="rotate(-60, 187.64285714285714, 512.4)">
chunky-png
</text>
<rect x="217.85714285714286" y="291.24037479110586" width="20.142857142857142" height="206.75962520889405" fill="#7070f8" data-tooltip="1.00x baseline speed (No JIT)"/>
<line x1="217.85714285714286" y1="291.0934743454499" x2="238.0" y2="291.0934743454499" stroke="#000"/>
<line x1="217.85714285714286" y1="291.38727523676187" x2="238.0" y2="291.38727523676187" stroke="#000"/>
<line x1="227.92857142857142" y1="291.0934743454499" x2="227.92857142857142" y2="291.38727523676187" stroke="#000"/>
<rect x="238.0" y="180.25442103110683" width="20.142857142857142" height="317.7455789688931" fill="orange" data-tooltip="1.54x baseline speed (YJIT)"/>
<line x1="238.0" y1="179.89985819922376" x2="258.1428571428571" y2="179.89985819922376" stroke="#000"/>
<line x1="238.0" y1="180.60898386298993" x2="258.1428571428571" y2="180.60898386298993" stroke="#000"/>
<line x1="248.07142857142856" y1="179.89985819922376" x2="248.07142857142856" y2="180.60898386298993" stroke="#000"/>
<line x1="248.07142857142858" y1="498.0" x2="248.07142857142858" y2="502.79999999999995" stroke="#000"/>
<text x="248.07142857142858" y="512.4" fill="#111" font-size="small" font-family="monospace" font-weight="bold" text-anchor="end" transform="rotate(-60, 248.07142857142858, 512.4)">
erubi-rails
</text>
<rect x="278.2857142857142" y="291.24037479110586" width="20.142857142857142" height="206.75962520889405" fill="#7070f8" data-tooltip="1.00x baseline speed (No JIT)"/>
<line x1="278.2857142857142" y1="290.20592850621375" x2="298.4285714285714" y2="290.20592850621375" stroke="#000"/>
<line x1="278.2857142857142" y1="292.27482107599803" x2="298.4285714285714" y2="292.27482107599803" stroke="#000"/>
<line x1="288.35714285714283" y1="290.20592850621375" x2="288.35714285714283" y2="292.27482107599803" stroke="#000"/>
<rect x="298.4285714285714" y="154.1225809014395" width="20.142857142857142" height="343.8774190985604" fill="orange" data-tooltip="1.66x baseline speed (YJIT)"/>
<line x1="298.4285714285714" y1="146.81960155296525" x2="318.5714285714285" y2="146.81960155296525" stroke="#000"/>
<line x1="298.4285714285714" y1="161.42556024991376" x2="318.5714285714285" y2="161.42556024991376" stroke="#000"/>
<line x1="308.49999999999994" y1="146.81960155296525" x2="308.49999999999994" y2="161.42556024991376" stroke="#000"/>
<line x1="308.49999999999994" y1="498.0" x2="308.49999999999994" y2="502.79999999999995" stroke="#000"/>
<text x="308.49999999999994" y="512.4" fill="#111" font-size="small" font-family="monospace" font-weight="bold" text-anchor="end" transform="rotate(-60, 308.49999999999994, 512.4)">
hexapdf
</text>
<rect x="338.7142857142857" y="291.24037479110586" width="20.142857142857142" height="206.75962520889405" fill="#7070f8" data-tooltip="1.00x baseline speed (No JIT)"/>
<line x1="338.7142857142857" y1="290.4673244813004" x2="358.8571428571429" y2="290.4673244813004" stroke="#000"/>
<line x1="338.7142857142857" y1="292.0134251009113" x2="358.8571428571429" y2="292.0134251009113" stroke="#000"/>
<line x1="348.78571428571433" y1="290.4673244813004" x2="348.78571428571433" y2="292.0134251009113" stroke="#000"/>
<rect x="358.8571428571429" y="222.67872716819713" width="20.142857142857142" height="275.3212728318028" fill="orange" data-tooltip="1.33x baseline speed (YJIT)"/>
<line x1="358.8571428571429" y1="221.13767065123562" x2="379.0" y2="221.13767065123562" stroke="#000"/>
<line x1="358.8571428571429" y1="224.21978368515866" x2="379.0" y2="224.21978368515866" stroke="#000"/>
<line x1="368.92857142857144" y1="221.13767065123562" x2="368.92857142857144" y2="224.21978368515866" stroke="#000"/>
<line x1="368.92857142857144" y1="498.0" x2="368.92857142857144" y2="502.79999999999995" stroke="#000"/>
<text x="368.92857142857144" y="512.4" fill="#111" font-size="small" font-family="monospace" font-weight="bold" text-anchor="end" transform="rotate(-60, 368.92857142857144, 512.4)">
liquid-c
</text>
<rect x="399.1428571428571" y="291.24037479110586" width="20.142857142857142" height="206.75962520889405" fill="#7070f8" data-tooltip="1.00x baseline speed (No JIT)"/>
<line x1="399.1428571428571" y1="290.12485116824746" x2="419.2857142857143" y2="290.12485116824746" stroke="#000"/>
<line x1="399.1428571428571" y1="292.3558984139643" x2="419.2857142857143" y2="292.3558984139643" stroke="#000"/>
<line x1="409.2142857142857" y1="290.12485116824746" x2="409.2142857142857" y2="292.3558984139643" stroke="#000"/>
<rect x="419.2857142857143" y="231.8303653298383" width="20.142857142857142" height="266.16963467016166" fill="orange" data-tooltip="1.29x baseline speed (YJIT)"/>
<line x1="419.2857142857143" y1="229.19689882239638" x2="439.4285714285714" y2="229.19689882239638" stroke="#000"/>
<line x1="419.2857142857143" y1="234.4638318372802" x2="439.4285714285714" y2="234.4638318372802" stroke="#000"/>
<line x1="429.35714285714283" y1="229.19689882239638" x2="429.35714285714283" y2="234.4638318372802" stroke="#000"/>
<line x1="429.35714285714283" y1="498.0" x2="429.35714285714283" y2="502.79999999999995" stroke="#000"/>
<text x="429.35714285714283" y="512.4" fill="#111" font-size="small" font-family="monospace" font-weight="bold" text-anchor="end" transform="rotate(-60, 429.35714285714283, 512.4)">
liquid-compile
</text>
<rect x="459.5714285714285" y="291.24037479110586" width="20.142857142857142" height="206.75962520889405" fill="#7070f8" data-tooltip="1.00x baseline speed (No JIT)"/>
<line x1="459.5714285714285" y1="290.8976218782494" x2="479.71428571428567" y2="290.8976218782494" stroke="#000"/>
<line x1="459.5714285714285" y1="291.5831277039623" x2="479.71428571428567" y2="291.5831277039623" stroke="#000"/>
<line x1="469.6428571428571" y1="290.8976218782494" x2="469.6428571428571" y2="291.5831277039623" stroke="#000"/>
<rect x="479.71428571428567" y="100.19999999999999" width="20.142857142857142" height="397.79999999999995" fill="orange" data-tooltip="1.92x baseline speed (YJIT)"/>
<line x1="479.71428571428567" y1="98.9448102006927" x2="499.8571428571428" y2="98.9448102006927" stroke="#000"/>
<line x1="479.71428571428567" y1="101.45518979930728" x2="499.8571428571428" y2="101.45518979930728" stroke="#000"/>
<line x1="489.7857142857142" y1="98.9448102006927" x2="489.7857142857142" y2="101.45518979930728" stroke="#000"/>
<line x1="489.7857142857142" y1="498.0" x2="489.7857142857142" y2="502.79999999999995" stroke="#000"/>
<text x="489.7857142857142" y="512.4" fill="#111" font-size="small" font-family="monospace" font-weight="bold" text-anchor="end" transform="rotate(-60, 489.7857142857142, 512.4)">
liquid-render
</text>
<rect x="520.0" y="291.24037479110586" width="20.142857142857142" height="206.75962520889405" fill="#7070f8" data-tooltip="1.00x baseline speed (No JIT)"/>
<line x1="520.0" y1="290.4012975322995" x2="540.1428571428571" y2="290.4012975322995" stroke="#000"/>
<line x1="520.0" y1="292.0794520499123" x2="540.1428571428571" y2="292.0794520499123" stroke="#000"/>
<line x1="530.0714285714287" y1="290.4012975322995" x2="530.0714285714287" y2="292.0794520499123" stroke="#000"/>
<rect x="540.1428571428571" y="203.28958297064548" width="20.142857142857142" height="294.71041702935446" fill="orange" data-tooltip="1.43x baseline speed (YJIT)"/>
<line x1="540.1428571428571" y1="200.3959114502468" x2="560.2857142857142" y2="200.3959114502468" stroke="#000"/>
<line x1="540.1428571428571" y1="206.18325449104412" x2="560.2857142857142" y2="206.18325449104412" stroke="#000"/>
<line x1="550.2142857142858" y1="200.3959114502468" x2="550.2142857142858" y2="206.18325449104412" stroke="#000"/>
<line x1="550.2142857142858" y1="498.0" x2="550.2142857142858" y2="502.79999999999995" stroke="#000"/>
<text x="550.2142857142858" y="512.4" fill="#111" font-size="small" font-family="monospace" font-weight="bold" text-anchor="end" transform="rotate(-60, 550.2142857142858, 512.4)">
lobsters
</text>
<rect x="580.4285714285714" y="291.24037479110586" width="20.142857142857142" height="206.75962520889405" fill="#7070f8" data-tooltip="1.00x baseline speed (No JIT)"/>
<line x1="580.4285714285714" y1="290.9030950242667" x2="600.5714285714286" y2="290.9030950242667" stroke="#000"/>
<line x1="580.4285714285714" y1="291.5776545579451" x2="600.5714285714286" y2="291.5776545579451" stroke="#000"/>
<line x1="590.5" y1="290.9030950242667" x2="590.5" y2="291.5776545579451" stroke="#000"/>
<rect x="600.5714285714286" y="204.23390901367213" width="20.142857142857142" height="293.7660909863278" fill="orange" data-tooltip="1.42x baseline speed (YJIT)"/>
<line x1="600.5714285714286" y1="203.4984405736166" x2="620.7142857142857" y2="203.4984405736166" stroke="#000"/>
<line x1="600.5714285714286" y1="204.9693774537277" x2="620.7142857142857" y2="204.9693774537277" stroke="#000"/>
<line x1="610.6428571428571" y1="203.4984405736166" x2="610.6428571428571" y2="204.9693774537277" stroke="#000"/>
<line x1="610.6428571428571" y1="498.0" x2="610.6428571428571" y2="502.79999999999995" stroke="#000"/>
<text x="610.6428571428571" y="512.4" fill="#111" font-size="small" font-family="monospace" font-weight="bold" text-anchor="end" transform="rotate(-60, 610.6428571428571, 512.4)">
mail
</text>
<rect x="640.8571428571428" y="291.24037479110586" width="20.142857142857142" height="206.75962520889405" fill="#7070f8" data-tooltip="1.00x baseline speed (No JIT)"/>
<line x1="640.8571428571428" y1="291.13012353485846" x2="660.9999999999999" y2="291.13012353485846" stroke="#000"/>
<line x1="640.8571428571428" y1="291.35062604735333" x2="660.9999999999999" y2="291.35062604735333" stroke="#000"/>
<line x1="650.9285714285714" y1="291.13012353485846" x2="650.9285714285714" y2="291.35062604735333" stroke="#000"/>
<rect x="660.9999999999999" y="113.98557509265962" width="20.142857142857142" height="384.01442490734036" fill="orange" data-tooltip="1.86x baseline speed (YJIT)"/>
<line x1="660.9999999999999" y1="113.6504508763019" x2="681.142857142857" y2="113.6504508763019" stroke="#000"/>
<line x1="660.9999999999999" y1="114.32069930901733" x2="681.142857142857" y2="114.32069930901733" stroke="#000"/>
<line x1="671.0714285714286" y1="113.6504508763019" x2="671.0714285714286" y2="114.32069930901733" stroke="#000"/>
<line x1="671.0714285714286" y1="498.0" x2="671.0714285714286" y2="502.79999999999995" stroke="#000"/>
<text x="671.0714285714286" y="512.4" fill="#111" font-size="small" font-family="monospace" font-weight="bold" text-anchor="end" transform="rotate(-60, 671.0714285714286, 512.4)">
psych-load
</text>
<rect x="701.2857142857143" y="291.24037479110586" width="20.142857142857142" height="206.75962520889405" fill="#7070f8" data-tooltip="1.00x baseline speed (No JIT)"/>
<line x1="701.2857142857143" y1="291.1744984038364" x2="721.4285714285714" y2="291.1744984038364" stroke="#000"/>
<line x1="701.2857142857143" y1="291.3062511783753" x2="721.4285714285714" y2="291.3062511783753" stroke="#000"/>
<line x1="711.3571428571429" y1="291.1744984038364" x2="711.3571428571429" y2="291.3062511783753" stroke="#000"/>
<rect x="721.4285714285714" y="163.4617441894212" width="20.142857142857142" height="334.5382558105787" fill="orange" data-tooltip="1.62x baseline speed (YJIT)"/>
<line x1="721.4285714285714" y1="163.18683397624432" x2="741.5714285714286" y2="163.18683397624432" stroke="#000"/>
<line x1="721.4285714285714" y1="163.7366544025981" x2="741.5714285714286" y2="163.7366544025981" stroke="#000"/>
<line x1="731.5" y1="163.18683397624432" x2="731.5" y2="163.7366544025981" stroke="#000"/>
<line x1="731.5" y1="498.0" x2="731.5" y2="502.79999999999995" stroke="#000"/>
<text x="731.5" y="512.4" fill="#111" font-size="small" font-family="monospace" font-weight="bold" text-anchor="end" transform="rotate(-60, 731.5, 512.4)">
railsbench
</text>
<rect x="761.7142857142857" y="291.24037479110586" width="20.142857142857142" height="206.75962520889405" fill="#7070f8" data-tooltip="1.00x baseline speed (No JIT)"/>
<line x1="761.7142857142857" y1="290.67110494376186" x2="781.8571428571428" y2="290.67110494376186" stroke="#000"/>
<line x1="761.7142857142857" y1="291.8096446384499" x2="781.8571428571428" y2="291.8096446384499" stroke="#000"/>
<line x1="771.7857142857143" y1="290.67110494376186" x2="771.7857142857143" y2="291.8096446384499" stroke="#000"/>
<rect x="781.8571428571428" y="202.1067430400016" width="20.142857142857142" height="295.8932569599983" fill="orange" data-tooltip="1.43x baseline speed (YJIT)"/>
<line x1="781.8571428571428" y1="180.48426654945976" x2="801.9999999999999" y2="180.48426654945976" stroke="#000"/>
<line x1="781.8571428571428" y1="223.72921953054342" x2="801.9999999999999" y2="223.72921953054342" stroke="#000"/>
<line x1="791.9285714285714" y1="180.48426654945976" x2="791.9285714285714" y2="223.72921953054342" stroke="#000"/>
<line x1="791.9285714285714" y1="498.0" x2="791.9285714285714" y2="502.79999999999995" stroke="#000"/>
<text x="791.9285714285714" y="512.4" fill="#111" font-size="small" font-family="monospace" font-weight="bold" text-anchor="end" transform="rotate(-60, 791.9285714285714, 512.4)">
rubocop
</text>
<rect x="822.1428571428571" y="291.24037479110586" width="20.142857142857142" height="206.75962520889405" fill="#7070f8" data-tooltip="1.00x baseline speed (No JIT)"/>
<line x1="822.1428571428571" y1="290.835106690963" x2="842.2857142857142" y2="290.835106690963" stroke="#000"/>
<line x1="822.1428571428571" y1="291.6456428912487" x2="842.2857142857142" y2="291.6456428912487" stroke="#000"/>
<line x1="832.2142857142857" y1="290.835106690963" x2="832.2142857142857" y2="291.6456428912487" stroke="#000"/>
<rect x="842.2857142857142" y="231.12919100871176" width="20.142857142857142" height="266.8708089912882" fill="orange" data-tooltip="1.29x baseline speed (YJIT)"/>
<line x1="842.2857142857142" y1="230.52226615524827" x2="862.4285714285713" y2="230.52226615524827" stroke="#000"/>
<line x1="842.2857142857142" y1="231.73611586217524" x2="862.4285714285713" y2="231.73611586217524" stroke="#000"/>
<line x1="852.3571428571428" y1="230.52226615524827" x2="852.3571428571428" y2="231.73611586217524" stroke="#000"/>
<line x1="852.3571428571428" y1="498.0" x2="852.3571428571428" y2="502.79999999999995" stroke="#000"/>
<text x="852.3571428571428" y="512.4" fill="#111" font-size="small" font-family="monospace" font-weight="bold" text-anchor="end" transform="rotate(-60, 852.3571428571428, 512.4)">
ruby-lsp
</text>
<rect x="882.5714285714286" y="291.24037479110586" width="20.142857142857142" height="206.75962520889405" fill="#7070f8" data-tooltip="1.00x baseline speed (No JIT)"/>
<line x1="882.5714285714286" y1="290.66538062745735" x2="902.7142857142857" y2="290.66538062745735" stroke="#000"/>
<line x1="882.5714285714286" y1="291.81536895475443" x2="902.7142857142857" y2="291.81536895475443" stroke="#000"/>
<line x1="892.6428571428572" y1="290.66538062745735" x2="892.6428571428572" y2="291.81536895475443" stroke="#000"/>
<rect x="902.7142857142857" y="252.40415253722344" width="20.142857142857142" height="245.5958474627765" fill="orange" data-tooltip="1.19x baseline speed (YJIT)"/>
<line x1="902.7142857142857" y1="251.50408290135775" x2="922.8571428571428" y2="251.50408290135775" stroke="#000"/>
<line x1="902.7142857142857" y1="253.3042221730891" x2="922.8571428571428" y2="253.3042221730891" stroke="#000"/>
<line x1="912.7857142857143" y1="251.50408290135775" x2="912.7857142857143" y2="253.3042221730891" stroke="#000"/>
<line x1="912.7857142857143" y1="498.0" x2="912.7857142857143" y2="502.79999999999995" stroke="#000"/>
<text x="912.7857142857143" y="512.4" fill="#111" font-size="small" font-family="monospace" font-weight="bold" text-anchor="end" transform="rotate(-60, 912.7857142857143, 512.4)">
sequel
</text>
</svg>