<svg viewBox="0 0 1000 600" xmlns="http://www.w3.org/2000/svg" xmlns:xlink="http://www.w3.org/1999/xlink" width="100%" height="100%">

<rect x="50.0" y="30.0" width="940.0" height="467.99999999999994" stroke="#000" fill="#EEE"/>
<line x1="42.0" y1="497.9999999999999" x2="50.0" y2="497.9999999999999" stroke="#000"/>
<text x="26.000000000000004" y="497.9999999999999" text-anchor="end" font-weight="bold" font-size="small" fill="#111">
0.0
</text>
<line x1="42.0" y1="435.21895317724193" x2="50.0" y2="435.21895317724193" stroke="#000"/>
<text x="26.000000000000004" y="435.21895317724193" text-anchor="end" font-weight="bold" font-size="small" fill="#111">
0.5
</text>
<line x1="42.0" y1="372.4379063544839" x2="50.0" y2="372.4379063544839" stroke="#000"/>
<text x="26.000000000000004" y="372.4379063544839" text-anchor="end" font-weight="bold" font-size="small" fill="#111">
1.0
</text>
<line x1="42.0" y1="309.6568595317259" x2="50.0" y2="309.6568595317259" stroke="#000"/>
<text x="26.000000000000004" y="309.6568595317259" text-anchor="end" font-weight="bold" font-size="small" fill="#111">
1.5
</text>
<line x1="42.0" y1="246.87581270896794" x2="50.0" y2="246.87581270896794" stroke="#000"/>
<text x="26.000000000000004" y="246.87581270896794" text-anchor="end" font-weight="bold" font-size="small" fill="#111">
2.0
</text>
<line x1="42.0" y1="184.09476588620993" x2="50.0" y2="184.09476588620993" stroke="#000"/>
<text x="26.000000000000004" y="184.09476588620993" text-anchor="end" font-weight="bold" font-size="small" fill="#111">
2.5
</text>
<line x1="42.0" y1="121.31371906345197" x2="50.0" y2="121.31371906345197" stroke="#000"/>
<text x="26.000000000000004" y="121.31371906345197" text-anchor="end" font-weight="bold" font-size="small" fill="#111">
3.0
</text>
<rect x="268.5" y="36.00000000000001" width="80.0" height="18.0" fill="#7070f8" stroke="#888"/>
<text x="308.5" y="52.50000000000001" font-size="small" text-anchor="middle" font-weight="bold" fill="#EEE">
No JIT
</text>
<rect x="691.4999999999999" y="36.00000000000001" width="80.0" height="18.0" fill="orange" stroke="#888"/>
<text x="731.4999999999999" y="52.50000000000001" font-size="small" text-anchor="middle" font-weight="bold" fill="#EEE">
YJIT
</text>
<rect x="97.0" y="372.4379063544839" width="25.636363636363637" height="125.562093645516" fill="#7070f8" data-tooltip="1.00x baseline speed (No JIT)"/>
<line x1="97.0" y1="371.18430192976064" x2="122.63636363636364" y2="371.18430192976064" stroke="#000"/>
<line x1="97.0" y1="373.6915107792072" x2="122.63636363636364" y2="373.6915107792072" stroke="#000"/>
<line x1="109.81818181818181" y1="371.18430192976064" x2="109.81818181818181" y2="373.6915107792072" stroke="#000"/>
<rect x="122.63636363636364" y="228.72780725227247" width="25.636363636363637" height="269.2721927477275" fill="orange" data-tooltip="2.14x baseline speed (YJIT)"/>
<line x1="122.63636363636364" y1="226.03365361148374" x2="148.27272727272728" y2="226.03365361148374" stroke="#000"/>
<line x1="122.63636363636364" y1="231.4219608930612" x2="148.27272727272728" y2="231.4219608930612" stroke="#000"/>
<line x1="135.45454545454547" y1="226.03365361148374" x2="135.45454545454547" y2="231.4219608930612" stroke="#000"/>
<line x1="135.45454545454547" y1="498.0" x2="135.45454545454547" y2="502.79999999999995" stroke="#000"/>
<text x="135.45454545454547" y="512.4" fill="#111" font-size="small" font-family="monospace" font-weight="bold" text-anchor="end" transform="rotate(-60, 135.45454545454547, 512.4)">
binarytrees
</text>
<rect x="173.9090909090909" y="372.4379063544839" width="25.636363636363637" height="125.562093645516" fill="#7070f8" data-tooltip="1.00x baseline speed (No JIT)"/>
<line x1="173.9090909090909" y1="369.94087369895925" x2="199.54545454545453" y2="369.94087369895925" stroke="#000"/>
<line x1="173.9090909090909" y1="374.9349390100086" x2="199.54545454545453" y2="374.9349390100086" stroke="#000"/>
<line x1="186.72727272727272" y1="369.94087369895925" x2="186.72727272727272" y2="374.9349390100086" stroke="#000"/>
<rect x="199.54545454545453" y="336.13236880716335" width="25.636363636363637" height="161.8676311928366" fill="orange" data-tooltip="1.29x baseline speed (YJIT)"/>
<line x1="199.54545454545453" y1="332.9114864290232" x2="225.18181818181816" y2="332.9114864290232" stroke="#000"/>
<line x1="199.54545454545453" y1="339.3532511853035" x2="225.18181818181816" y2="339.3532511853035" stroke="#000"/>
<line x1="212.36363636363635" y1="332.9114864290232" x2="212.36363636363635" y2="339.3532511853035" stroke="#000"/>
<line x1="212.36363636363637" y1="498.0" x2="212.36363636363637" y2="502.79999999999995" stroke="#000"/>
<text x="212.36363636363637" y="512.4" fill="#111" font-size="small" font-family="monospace" font-weight="bold" text-anchor="end" transform="rotate(-60, 212.36363636363637, 512.4)">
erubi
</text>
<rect x="250.81818181818184" y="372.4379063544839" width="25.636363636363637" height="125.562093645516" fill="#7070f8" data-tooltip="1.00x baseline speed (No JIT)"/>
<line x1="250.81818181818184" y1="371.0461258648067" x2="276.45454545454544" y2="371.0461258648067" stroke="#000"/>
<line x1="250.81818181818184" y1="373.82968684416113" x2="276.45454545454544" y2="373.82968684416113" stroke="#000"/>
<line x1="263.6363636363637" y1="371.0461258648067" x2="263.6363636363637" y2="373.82968684416113" stroke="#000"/>
<rect x="276.45454545454544" y="356.0706492472492" width="25.636363636363637" height="141.92935075275074" fill="orange" data-tooltip="1.13x baseline speed (YJIT)"/>
<line x1="276.45454545454544" y1="354.49453382964504" x2="302.09090909090907" y2="354.49453382964504" stroke="#000"/>
<line x1="276.45454545454544" y1="357.6467646648533" x2="302.09090909090907" y2="357.6467646648533" stroke="#000"/>
<line x1="289.2727272727273" y1="354.49453382964504" x2="289.2727272727273" y2="357.6467646648533" stroke="#000"/>
<line x1="289.2727272727273" y1="498.0" x2="289.2727272727273" y2="502.79999999999995" stroke="#000"/>
<text x="289.2727272727273" y="512.4" fill="#111" font-size="small" font-family="monospace" font-weight="bold" text-anchor="end" transform="rotate(-60, 289.2727272727273, 512.4)">
etanni
</text>
<rect x="327.72727272727275" y="372.4379063544839" width="25.636363636363637" height="125.562093645516" fill="#7070f8" data-tooltip="1.00x baseline speed (No JIT)"/>
<line x1="327.72727272727275" y1="372.1306605796419" x2="353.3636363636364" y2="372.1306605796419" stroke="#000"/>
<line x1="327.72727272727275" y1="372.74515212932596" x2="353.3636363636364" y2="372.74515212932596" stroke="#000"/>
<line x1="340.5454545454546" y1="372.1306605796419" x2="340.5454545454546" y2="372.74515212932596" stroke="#000"/>
<rect x="353.3636363636364" y="116.76677171488927" width="25.636363636363637" height="381.23322828511067" fill="orange" data-tooltip="3.04x baseline speed (YJIT)"/>
<line x1="353.3636363636364" y1="115.77679382298396" x2="379.0" y2="115.77679382298396" stroke="#000"/>
<line x1="353.3636363636364" y1="117.7567496067946" x2="379.0" y2="117.7567496067946" stroke="#000"/>
<line x1="366.18181818181824" y1="115.77679382298396" x2="366.18181818181824" y2="117.7567496067946" stroke="#000"/>
<line x1="366.18181818181824" y1="498.0" x2="366.18181818181824" y2="502.79999999999995" stroke="#000"/>
<text x="366.18181818181824" y="512.4" fill="#111" font-size="small" font-family="monospace" font-weight="bold" text-anchor="end" transform="rotate(-60, 366.18181818181824, 512.4)">
fannkuchredux
</text>
<rect x="404.6363636363637" y="372.4379063544839" width="25.636363636363637" height="125.562093645516" fill="#7070f8" data-tooltip="1.00x baseline speed (No JIT)"/>
<line x1="404.6363636363637" y1="371.3827202250063" x2="430.2727272727273" y2="371.3827202250063" stroke="#000"/>
<line x1="404.6363636363637" y1="373.49309248396156" x2="430.2727272727273" y2="373.49309248396156" stroke="#000"/>
<line x1="417.4545454545455" y1="371.3827202250063" x2="417.4545454545455" y2="373.49309248396156" stroke="#000"/>
<rect x="430.2727272727273" y="354.1433615614369" width="25.636363636363637" height="143.85663843856304" fill="orange" data-tooltip="1.15x baseline speed (YJIT)"/>
<line x1="430.2727272727273" y1="352.87163211151636" x2="455.90909090909093" y2="352.87163211151636" stroke="#000"/>
<line x1="430.2727272727273" y1="355.41509101135745" x2="455.90909090909093" y2="355.41509101135745" stroke="#000"/>
<line x1="443.0909090909091" y1="352.87163211151636" x2="443.0909090909091" y2="355.41509101135745" stroke="#000"/>
<line x1="443.0909090909091" y1="498.0" x2="443.0909090909091" y2="502.79999999999995" stroke="#000"/>
<text x="443.0909090909091" y="512.4" fill="#111" font-size="small" font-family="monospace" font-weight="bold" text-anchor="end" transform="rotate(-60, 443.0909090909091, 512.4)">
fluentd
</text>
<rect x="481.5454545454546" y="372.4379063544839" width="25.636363636363637" height="125.562093645516" fill="#7070f8" data-tooltip="1.00x baseline speed (No JIT)"/>
<line x1="481.5454545454546" y1="370.90210668816883" x2="507.1818181818183" y2="370.90210668816883" stroke="#000"/>
<line x1="481.5454545454546" y1="373.973706020799" x2="507.1818181818183" y2="373.973706020799" stroke="#000"/>
<line x1="494.36363636363643" y1="370.90210668816883" x2="494.36363636363643" y2="373.973706020799" stroke="#000"/>
<rect x="507.1818181818183" y="339.70884489581834" width="25.636363636363637" height="158.29115510418166" fill="orange" data-tooltip="1.26x baseline speed (YJIT)"/>
<line x1="507.1818181818183" y1="336.41771335190896" x2="532.818181818182" y2="336.41771335190896" stroke="#000"/>
<line x1="507.1818181818183" y1="342.9999764397277" x2="532.818181818182" y2="342.9999764397277" stroke="#000"/>
<line x1="520.0000000000001" y1="336.41771335190896" x2="520.0000000000001" y2="342.9999764397277" stroke="#000"/>
<line x1="520.0" y1="498.0" x2="520.0" y2="502.79999999999995" stroke="#000"/>
<text x="520.0" y="512.4" fill="#111" font-size="small" font-family="monospace" font-weight="bold" text-anchor="end" transform="rotate(-60, 520.0, 512.4)">
lee
</text>
<rect x="558.4545454545454" y="372.4379063544839" width="25.636363636363637" height="125.562093645516" fill="#7070f8" data-tooltip="1.00x baseline speed (No JIT)"/>
<line x1="558.4545454545454" y1="372.36196361216037" x2="584.0909090909091" y2="372.36196361216037" stroke="#000"/>
<line x1="558.4545454545454" y1="372.5138490968075" x2="584.0909090909091" y2="372.5138490968075" stroke="#000"/>
<line x1="571.2727272727273" y1="372.36196361216037" x2="571.2727272727273" y2="372.5138490968075" stroke="#000"/>
<rect x="584.0909090909091" y="276.8853178302816" width="25.636363636363637" height="221.11468216971832" fill="orange" data-tooltip="1.76x baseline speed (YJIT)"/>
<line x1="584.0909090909091" y1="276.648998991725" x2="609.7272727272727" y2="276.648998991725" stroke="#000"/>
<line x1="584.0909090909091" y1="277.1216366688382" x2="609.7272727272727" y2="277.1216366688382" stroke="#000"/>
<line x1="596.909090909091" y1="276.648998991725" x2="596.909090909091" y2="277.1216366688382" stroke="#000"/>
<line x1="596.9090909090909" y1="498.0" x2="596.9090909090909" y2="502.79999999999995" stroke="#000"/>
<text x="596.9090909090909" y="512.4" fill="#111" font-size="small" font-family="monospace" font-weight="bold" text-anchor="end" transform="rotate(-60, 596.9090909090909, 512.4)">
nbody
</text>
<rect x="635.3636363636364" y="372.4379063544839" width="25.636363636363637" height="125.562093645516" fill="#7070f8" data-tooltip="1.00x baseline speed (No JIT)"/>
<line x1="635.3636363636364" y1="371.64804450362954" x2="661.0" y2="371.64804450362954" stroke="#000"/>
<line x1="635.3636363636364" y1="373.2277682053383" x2="661.0" y2="373.2277682053383" stroke="#000"/>
<line x1="648.1818181818182" y1="371.64804450362954" x2="648.1818181818182" y2="373.2277682053383" stroke="#000"/>
<rect x="661.0" y="100.19999999999999" width="25.636363636363637" height="397.79999999999995" fill="orange" data-tooltip="3.17x baseline speed (YJIT)"/>
<line x1="661.0" y1="96.679202202961" x2="686.6363636363637" y2="96.679202202961" stroke="#000"/>
<line x1="661.0" y1="103.72079779703898" x2="686.6363636363637" y2="103.72079779703898" stroke="#000"/>
<line x1="673.8181818181819" y1="96.679202202961" x2="673.8181818181819" y2="103.72079779703898" stroke="#000"/>
<line x1="673.8181818181818" y1="498.0" x2="673.8181818181818" y2="502.79999999999995" stroke="#000"/>
<text x="673.8181818181818" y="512.4" fill="#111" font-size="small" font-family="monospace" font-weight="bold" text-anchor="end" transform="rotate(-60, 673.8181818181818, 512.4)">
optcarrot
</text>
<rect x="712.2727272727273" y="372.4379063544839" width="25.636363636363637" height="125.562093645516" fill="#7070f8" data-tooltip="1.00x baseline speed (No JIT)"/>
<line x1="712.2727272727273" y1="371.6008904414255" x2="737.909090909091" y2="371.6008904414255" stroke="#000"/>
<line x1="712.2727272727273" y1="373.27492226754237" x2="737.909090909091" y2="373.27492226754237" stroke="#000"/>
<line x1="725.0909090909091" y1="371.6008904414255" x2="725.0909090909091" y2="373.27492226754237" stroke="#000"/>
<rect x="737.909090909091" y="340.2367192284208" width="25.636363636363637" height="157.7632807715792" fill="orange" data-tooltip="1.26x baseline speed (YJIT)"/>
<line x1="737.909090909091" y1="338.5195029986032" x2="763.5454545454546" y2="338.5195029986032" stroke="#000"/>
<line x1="737.909090909091" y1="341.95393545823833" x2="763.5454545454546" y2="341.95393545823833" stroke="#000"/>
<line x1="750.7272727272727" y1="338.5195029986032" x2="750.7272727272727" y2="341.95393545823833" stroke="#000"/>
<line x1="750.7272727272726" y1="498.0" x2="750.7272727272726" y2="502.79999999999995" stroke="#000"/>
<text x="750.7272727272726" y="512.4" fill="#111" font-size="small" font-family="monospace" font-weight="bold" text-anchor="end" transform="rotate(-60, 750.7272727272726, 512.4)">
rack
</text>
<rect x="789.1818181818182" y="372.4379063544839" width="25.636363636363637" height="125.562093645516" fill="#7070f8" data-tooltip="1.00x baseline speed (No JIT)"/>
<line x1="789.1818181818182" y1="371.84630130152533" x2="814.8181818181819" y2="371.84630130152533" stroke="#000"/>
<line x1="789.1818181818182" y1="373.02951140744256" x2="814.8181818181819" y2="373.02951140744256" stroke="#000"/>
<line x1="802.0" y1="371.84630130152533" x2="802.0" y2="373.02951140744256" stroke="#000"/>
<rect x="814.8181818181819" y="349.81153813594347" width="25.636363636363637" height="148.1884618640565" fill="orange" data-tooltip="1.18x baseline speed (YJIT)"/>
<line x1="814.8181818181819" y1="349.09126001418804" x2="840.4545454545456" y2="349.09126001418804" stroke="#000"/>
<line x1="814.8181818181819" y1="350.5318162576989" x2="840.4545454545456" y2="350.5318162576989" stroke="#000"/>
<line x1="827.6363636363637" y1="349.09126001418804" x2="827.6363636363637" y2="350.5318162576989" stroke="#000"/>
<line x1="827.6363636363636" y1="498.0" x2="827.6363636363636" y2="502.79999999999995" stroke="#000"/>
<text x="827.6363636363636" y="512.4" fill="#111" font-size="small" font-family="monospace" font-weight="bold" text-anchor="end" transform="rotate(-60, 827.6363636363636, 512.4)">
ruby-json
</text>
<rect x="866.0909090909091" y="372.4379063544839" width="25.636363636363637" height="125.562093645516" fill="#7070f8" data-tooltip="1.00x baseline speed (No JIT)"/>
<line x1="866.0909090909091" y1="371.64281902257324" x2="891.7272727272729" y2="371.64281902257324" stroke="#000"/>
<line x1="866.0909090909091" y1="373.23299368639465" x2="891.7272727272729" y2="373.23299368639465" stroke="#000"/>
<line x1="878.909090909091" y1="371.64281902257324" x2="878.909090909091" y2="373.23299368639465" stroke="#000"/>
<rect x="891.7272727272729" y="249.8109794032351" width="25.636363636363637" height="248.18902059676486" fill="orange" data-tooltip="1.98x baseline speed (YJIT)"/>
<line x1="891.7272727272729" y1="247.96472624289348" x2="917.3636363636365" y2="247.96472624289348" stroke="#000"/>
<line x1="891.7272727272729" y1="251.65723256357674" x2="917.3636363636365" y2="251.65723256357674" stroke="#000"/>
<line x1="904.5454545454546" y1="247.96472624289348" x2="904.5454545454546" y2="251.65723256357674" stroke="#000"/>
<line x1="904.5454545454545" y1="498.0" x2="904.5454545454545" y2="502.79999999999995" stroke="#000"/>
<text x="904.5454545454545" y="512.4" fill="#111" font-size="small" font-family="monospace" font-weight="bold" text-anchor="end" transform="rotate(-60, 904.5454545454545, 512.4)">
rubykon
</text>
</svg>