<svg viewBox="0 0 1000 600" xmlns="http://www.w3.org/2000/svg" xmlns:xlink="http://www.w3.org/1999/xlink" width="100%" height="100%">

<rect x="50.0" y="30.0" width="940.0" height="467.99999999999994" stroke="#000" fill="#fff"/>
<line x1="42.0" y1="497.9999999999999" x2="50.0" y2="497.9999999999999" stroke="#000"/>
<text x="26.000000000000004" y="497.9999999999999" text-anchor="end" font-weight="bold" font-size="small" fill="#111">
0.0
</text>
<line x1="42.0" y1="412.37928385403484" x2="50.0" y2="412.37928385403484" stroke="#000"/>
<text x="26.000000000000004" y="412.37928385403484" text-anchor="end" font-weight="bold" font-size="small" fill="#111">
5.0
</text>
<line x1="42.0" y1="326.75856770806973" x2="50.0" y2="326.75856770806973" stroke="#000"/>
<text x="26.000000000000004" y="326.75856770806973" text-anchor="end" font-weight="bold" font-size="small" fill="#111">
10.0
</text>
<line x1="42.0" y1="241.1378515621047" x2="50.0" y2="241.1378515621047" stroke="#000"/>
<text x="26.000000000000004" y="241.1378515621047" text-anchor="end" font-weight="bold" font-size="small" fill="#111">
15.0
</text>
<line x1="42.0" y1="155.5171354161396" x2="50.0" y2="155.5171354161396" stroke="#000"/>
<text x="26.000000000000004" y="155.5171354161396" text-anchor="end" font-weight="bold" font-size="small" fill="#111">
20.0
</text>
<line x1="142.75" y1="54.60000000000001" x2="262.75" y2="54.60000000000001" stroke="#648FFF" stroke-width="2"/>
<text x="202.75" y="49.500000000000014" font-size="small" text-anchor="middle" font-weight="bold" fill="#000">
CRuby 3.3.1
</text>
<rect x="354.25" y="35.400000000000006" width="120.0" height="19.2" fill="#785EF0" stroke="none"/>
<text x="414.25" y="49.500000000000014" font-size="small" text-anchor="middle" font-weight="bold" fill="#fff" style="text-shadow: 0 0 1px #000;">
CRuby 3.4.0dev
</text>
<rect x="565.75" y="35.400000000000006" width="120.0" height="19.2" fill="#FFB000" stroke="none"/>
<text x="625.7499999999999" y="49.500000000000014" font-size="small" text-anchor="middle" font-weight="bold" fill="#fff" style="text-shadow: 0 0 1px #000;">
YJIT 3.3.1
</text>
<rect x="777.25" y="35.400000000000006" width="120.0" height="19.2" fill="#DC267F" stroke="none"/>
<text x="837.2499999999999" y="49.500000000000014" font-size="small" text-anchor="middle" font-weight="bold" fill="#fff" style="text-shadow: 0 0 1px #000;">
YJIT 3.4.0dev
</text>
<rect x="54.97354497354498" y="480.1577381967665" width="4.973544973544974" height="17.842261803233466" fill="#785EF0" data-tooltip="1.04x baseline (CRuby 3.4.0dev)"/>
<line x1="54.97354497354498" y1="480.14128662861447" x2="59.94708994708996" y2="480.14128662861447" stroke-dasharray="1,0.5" stroke="#333c"/>
<line x1="54.97354497354498" y1="480.17418976491854" x2="59.94708994708996" y2="480.17418976491854" stroke-dasharray="1,0.5" stroke="#333c"/>
<line x1="57.46031746031747" y1="480.14128662861447" x2="57.46031746031747" y2="480.17418976491854" stroke-dasharray="1,0.5" stroke="#333c"/>
<rect x="59.94708994708996" y="470.4566689631362" width="4.973544973544974" height="27.543331036863666" fill="#FFB000" data-tooltip="1.61x baseline (YJIT 3.3.1)"/>
<line x1="59.94708994708996" y1="470.4343554826069" x2="64.92063492063494" y2="470.4343554826069" stroke-dasharray="1,0.5" stroke="#333c"/>
<line x1="59.94708994708996" y1="470.4789824436655" x2="64.92063492063494" y2="470.4789824436655" stroke-dasharray="1,0.5" stroke="#333c"/>
<line x1="62.433862433862444" y1="470.4343554826069" x2="62.433862433862444" y2="470.4789824436655" stroke-dasharray="1,0.5" stroke="#333c"/>
<rect x="64.92063492063494" y="466.9839911518625" width="4.973544973544974" height="31.01600884813748" fill="#DC267F" data-tooltip="1.81x baseline (YJIT 3.4.0dev)"/>
<line x1="64.92063492063494" y1="466.95275724069495" x2="69.89417989417991" y2="466.95275724069495" stroke-dasharray="1,0.5" stroke="#333c"/>
<line x1="64.92063492063494" y1="467.01522506302996" x2="69.89417989417991" y2="467.01522506302996" stroke-dasharray="1,0.5" stroke="#333c"/>
<line x1="67.40740740740742" y1="466.95275724069495" x2="67.40740740740742" y2="467.01522506302996" stroke-dasharray="1,0.5" stroke="#333c"/>
<line x1="62.43386243386245" y1="498.0" x2="62.43386243386245" y2="502.79999999999995" stroke="#000"/>
<text x="62.43386243386245" y="512.4" fill="#111" font-size="small" text-anchor="end" transform="rotate(-60, 62.43386243386245, 512.4)">
activerecord
</text>
<rect x="74.86772486772489" y="481.83777995813534" width="4.973544973544974" height="16.16222004186464" fill="#785EF0" data-tooltip="0.94x baseline (CRuby 3.4.0dev)"/>
<line x1="74.86772486772489" y1="481.64092330459687" x2="79.84126984126986" y2="481.64092330459687" stroke-dasharray="1,0.5" stroke="#333c"/>
<line x1="74.86772486772489" y1="482.0346366116738" x2="79.84126984126986" y2="482.0346366116738" stroke-dasharray="1,0.5" stroke="#333c"/>
<line x1="77.35449735449737" y1="481.64092330459687" x2="77.35449735449737" y2="482.0346366116738" stroke-dasharray="1,0.5" stroke="#333c"/>
<rect x="79.84126984126986" y="467.19306231896326" width="4.973544973544974" height="30.80693768103666" fill="#FFB000" data-tooltip="1.80x baseline (YJIT 3.3.1)"/>
<line x1="79.84126984126986" y1="467.09184546743205" x2="84.81481481481484" y2="467.09184546743205" stroke-dasharray="1,0.5" stroke="#333c"/>
<line x1="79.84126984126986" y1="467.29427917049446" x2="84.81481481481484" y2="467.29427917049446" stroke-dasharray="1,0.5" stroke="#333c"/>
<line x1="82.32804232804234" y1="467.09184546743205" x2="82.32804232804234" y2="467.29427917049446" stroke-dasharray="1,0.5" stroke="#333c"/>
<rect x="84.81481481481484" y="466.2729915847482" width="4.973544973544974" height="31.727008415251813" fill="#DC267F" data-tooltip="1.85x baseline (YJIT 3.4.0dev)"/>
<line x1="84.81481481481484" y1="466.19107918343894" x2="89.78835978835983" y2="466.19107918343894" stroke-dasharray="1,0.5" stroke="#333c"/>
<line x1="84.81481481481484" y1="466.3549039860574" x2="89.78835978835983" y2="466.3549039860574" stroke-dasharray="1,0.5" stroke="#333c"/>
<line x1="87.30158730158732" y1="466.19107918343894" x2="87.30158730158732" y2="466.3549039860574" stroke-dasharray="1,0.5" stroke="#333c"/>
<line x1="82.32804232804236" y1="498.0" x2="82.32804232804236" y2="502.79999999999995" stroke="#000"/>
<text x="82.32804232804236" y="512.4" fill="#111" font-size="small" text-anchor="end" transform="rotate(-60, 82.32804232804236, 512.4)">
chunky-png
</text>
<rect x="94.7619047619048" y="480.85553085848375" width="4.973544973544974" height="17.144469141516154" fill="#785EF0" data-tooltip="1.00x baseline (CRuby 3.4.0dev)"/>
<line x1="94.7619047619048" y1="480.83571204878405" x2="99.73544973544978" y2="480.83571204878405" stroke-dasharray="1,0.5" stroke="#333c"/>
<line x1="94.7619047619048" y1="480.87534966818345" x2="99.73544973544978" y2="480.87534966818345" stroke-dasharray="1,0.5" stroke="#333c"/>
<line x1="97.24867724867728" y1="480.83571204878405" x2="97.24867724867728" y2="480.87534966818345" stroke-dasharray="1,0.5" stroke="#333c"/>
<rect x="99.73544973544978" y="473.5538625483448" width="4.973544973544974" height="24.446137451655257" fill="#FFB000" data-tooltip="1.43x baseline (YJIT 3.3.1)"/>
<line x1="99.73544973544978" y1="473.5219424088141" x2="104.70899470899475" y2="473.5219424088141" stroke-dasharray="1,0.5" stroke="#333c"/>
<line x1="99.73544973544978" y1="473.58578268787545" x2="104.70899470899475" y2="473.58578268787545" stroke-dasharray="1,0.5" stroke="#333c"/>
<line x1="102.22222222222226" y1="473.5219424088141" x2="102.22222222222226" y2="473.58578268787545" stroke-dasharray="1,0.5" stroke="#333c"/>
<rect x="104.70899470899475" y="472.0539017278884" width="4.973544973544974" height="25.946098272111566" fill="#DC267F" data-tooltip="1.52x baseline (YJIT 3.4.0dev)"/>
<line x1="104.70899470899475" y1="472.02374917457655" x2="109.68253968253973" y2="472.02374917457655" stroke-dasharray="1,0.5" stroke="#333c"/>
<line x1="104.70899470899475" y1="472.0840542812003" x2="109.68253968253973" y2="472.0840542812003" stroke-dasharray="1,0.5" stroke="#333c"/>
<line x1="107.19576719576723" y1="472.02374917457655" x2="107.19576719576723" y2="472.0840542812003" stroke-dasharray="1,0.5" stroke="#333c"/>
<line x1="102.22222222222227" y1="498.0" x2="102.22222222222227" y2="502.79999999999995" stroke="#000"/>
<text x="102.22222222222227" y="512.4" fill="#111" font-size="small" text-anchor="end" transform="rotate(-60, 102.22222222222227, 512.4)">
erubi-rails
</text>
<rect x="114.6560846560847" y="480.0273782914893" width="4.973544973544974" height="17.972621708510665" fill="#785EF0" data-tooltip="1.05x baseline (CRuby 3.4.0dev)"/>
<line x1="114.6560846560847" y1="479.89755486764983" x2="119.62962962962968" y2="479.89755486764983" stroke-dasharray="1,0.5" stroke="#333c"/>
<line x1="114.6560846560847" y1="480.1572017153287" x2="119.62962962962968" y2="480.1572017153287" stroke-dasharray="1,0.5" stroke="#333c"/>
<line x1="117.14285714285718" y1="479.89755486764983" x2="117.14285714285718" y2="480.1572017153287" stroke-dasharray="1,0.5" stroke="#333c"/>
<rect x="119.62962962962968" y="473.70600174835033" width="4.973544973544974" height="24.293998251649583" fill="#FFB000" data-tooltip="1.42x baseline (YJIT 3.3.1)"/>
<line x1="119.62962962962968" y1="473.4749397923395" x2="124.60317460317466" y2="473.4749397923395" stroke-dasharray="1,0.5" stroke="#333c"/>
<line x1="119.62962962962968" y1="473.9370637043612" x2="124.60317460317466" y2="473.9370637043612" stroke-dasharray="1,0.5" stroke="#333c"/>
<line x1="122.11640211640217" y1="473.4749397923395" x2="122.11640211640217" y2="473.9370637043612" stroke-dasharray="1,0.5" stroke="#333c"/>
<rect x="124.60317460317466" y="467.69579415958435" width="4.973544973544974" height="30.304205840415587" fill="#DC267F" data-tooltip="1.77x baseline (YJIT 3.4.0dev)"/>
<line x1="124.60317460317466" y1="466.917244298922" x2="129.57671957671963" y2="466.917244298922" stroke-dasharray="1,0.5" stroke="#333c"/>
<line x1="124.60317460317466" y1="468.47434402024675" x2="129.57671957671963" y2="468.47434402024675" stroke-dasharray="1,0.5" stroke="#333c"/>
<line x1="127.08994708994715" y1="466.917244298922" x2="127.08994708994715" y2="468.47434402024675" stroke-dasharray="1,0.5" stroke="#333c"/>
<line x1="122.11640211640217" y1="498.0" x2="122.11640211640217" y2="502.79999999999995" stroke="#000"/>
<text x="122.11640211640217" y="512.4" fill="#111" font-size="small" text-anchor="end" transform="rotate(-60, 122.11640211640217, 512.4)">
hexapdf
</text>
<rect x="134.5502645502646" y="480.5853094977385" width="4.973544973544974" height="17.414690502261507" fill="#785EF0" data-tooltip="1.02x baseline (CRuby 3.4.0dev)"/>
<line x1="134.5502645502646" y1="480.51532107778587" x2="139.52380952380955" y2="480.51532107778587" stroke-dasharray="1,0.5" stroke="#333c"/>
<line x1="134.5502645502646" y1="480.6552979176911" x2="139.52380952380955" y2="480.6552979176911" stroke-dasharray="1,0.5" stroke="#333c"/>
<line x1="137.03703703703707" y1="480.51532107778587" x2="137.03703703703707" y2="480.6552979176911" stroke-dasharray="1,0.5" stroke="#333c"/>
<rect x="139.52380952380955" y="476.2438952887424" width="4.973544973544974" height="21.756104711257585" fill="#FFB000" data-tooltip="1.27x baseline (YJIT 3.3.1)"/>
<line x1="139.52380952380955" y1="476.1865979276557" x2="144.4973544973545" y2="476.1865979276557" stroke-dasharray="1,0.5" stroke="#333c"/>
<line x1="139.52380952380955" y1="476.3011926498291" x2="144.4973544973545" y2="476.3011926498291" stroke-dasharray="1,0.5" stroke="#333c"/>
<line x1="142.01058201058203" y1="476.1865979276557" x2="142.01058201058203" y2="476.3011926498291" stroke-dasharray="1,0.5" stroke="#333c"/>
<rect x="144.4973544973545" y="474.90440480412326" width="4.973544973544974" height="23.09559519587672" fill="#DC267F" data-tooltip="1.35x baseline (YJIT 3.4.0dev)"/>
<line x1="144.4973544973545" y1="474.7973058930534" x2="149.47089947089947" y2="474.7973058930534" stroke-dasharray="1,0.5" stroke="#333c"/>
<line x1="144.4973544973545" y1="475.0115037151931" x2="149.47089947089947" y2="475.0115037151931" stroke-dasharray="1,0.5" stroke="#333c"/>
<line x1="146.984126984127" y1="474.7973058930534" x2="146.984126984127" y2="475.0115037151931" stroke-dasharray="1,0.5" stroke="#333c"/>
<line x1="142.01058201058203" y1="498.0" x2="142.01058201058203" y2="502.79999999999995" stroke="#000"/>
<text x="142.01058201058203" y="512.4" fill="#111" font-size="small" text-anchor="end" transform="rotate(-60, 142.01058201058203, 512.4)">
liquid-c
</text>
<rect x="154.44444444444443" y="480.1201199663783" width="4.973544973544974" height="17.879880033621593" fill="#785EF0" data-tooltip="1.04x baseline (CRuby 3.4.0dev)"/>
<line x1="154.44444444444443" y1="480.0965927566134" x2="159.4179894179894" y2="480.0965927566134" stroke-dasharray="1,0.5" stroke="#333c"/>
<line x1="154.44444444444443" y1="480.14364717614325" x2="159.4179894179894" y2="480.14364717614325" stroke-dasharray="1,0.5" stroke="#333c"/>
<line x1="156.9312169312169" y1="480.0965927566134" x2="156.9312169312169" y2="480.14364717614325" stroke-dasharray="1,0.5" stroke="#333c"/>
<rect x="159.4179894179894" y="475.9222841276864" width="4.973544973544974" height="22.077715872313508" fill="#FFB000" data-tooltip="1.29x baseline (YJIT 3.3.1)"/>
<line x1="159.4179894179894" y1="475.31961012865787" x2="164.39153439153438" y2="475.31961012865787" stroke-dasharray="1,0.5" stroke="#333c"/>
<line x1="159.4179894179894" y1="476.5249581267149" x2="164.39153439153438" y2="476.5249581267149" stroke-dasharray="1,0.5" stroke="#333c"/>
<line x1="161.9047619047619" y1="475.31961012865787" x2="161.9047619047619" y2="476.5249581267149" stroke-dasharray="1,0.5" stroke="#333c"/>
<rect x="164.39153439153438" y="475.2975850706979" width="4.973544973544974" height="22.70241492930202" fill="#DC267F" data-tooltip="1.33x baseline (YJIT 3.4.0dev)"/>
<line x1="164.39153439153438" y1="475.2290701611839" x2="169.36507936507934" y2="475.2290701611839" stroke-dasharray="1,0.5" stroke="#333c"/>
<line x1="164.39153439153438" y1="475.3660999802118" x2="169.36507936507934" y2="475.3660999802118" stroke-dasharray="1,0.5" stroke="#333c"/>
<line x1="166.87830687830686" y1="475.2290701611839" x2="166.87830687830686" y2="475.3660999802118" stroke-dasharray="1,0.5" stroke="#333c"/>
<line x1="161.9047619047619" y1="498.0" x2="161.9047619047619" y2="502.79999999999995" stroke="#000"/>
<text x="161.9047619047619" y="512.4" fill="#111" font-size="small" text-anchor="end" transform="rotate(-60, 161.9047619047619, 512.4)">
liquid-compile
</text>
<rect x="174.3386243386243" y="480.30942620867813" width="4.973544973544974" height="17.690573791321793" fill="#785EF0" data-tooltip="1.03x baseline (CRuby 3.4.0dev)"/>
<line x1="174.3386243386243" y1="480.2670501568689" x2="179.31216931216926" y2="480.2670501568689" stroke-dasharray="1,0.5" stroke="#333c"/>
<line x1="174.3386243386243" y1="480.3518022604874" x2="179.31216931216926" y2="480.3518022604874" stroke-dasharray="1,0.5" stroke="#333c"/>
<line x1="176.82539682539678" y1="480.2670501568689" x2="176.82539682539678" y2="480.3518022604874" stroke-dasharray="1,0.5" stroke="#333c"/>
<rect x="179.31216931216926" y="466.0255284410668" width="4.973544973544974" height="31.974471558933203" fill="#FFB000" data-tooltip="1.87x baseline (YJIT 3.3.1)"/>
<line x1="179.31216931216926" y1="465.92808518069535" x2="184.28571428571422" y2="465.92808518069535" stroke-dasharray="1,0.5" stroke="#333c"/>
<line x1="179.31216931216926" y1="466.1229717014382" x2="184.28571428571422" y2="466.1229717014382" stroke-dasharray="1,0.5" stroke="#333c"/>
<line x1="181.79894179894174" y1="465.92808518069535" x2="181.79894179894174" y2="466.1229717014382" stroke-dasharray="1,0.5" stroke="#333c"/>
<rect x="184.28571428571422" y="463.3673193103954" width="4.973544973544974" height="34.63268068960457" fill="#DC267F" data-tooltip="2.02x baseline (YJIT 3.4.0dev)"/>
<line x1="184.28571428571422" y1="463.2645867457214" x2="189.25925925925918" y2="463.2645867457214" stroke-dasharray="1,0.5" stroke="#333c"/>
<line x1="184.28571428571422" y1="463.4700518750694" x2="189.25925925925918" y2="463.4700518750694" stroke-dasharray="1,0.5" stroke="#333c"/>
<line x1="186.7724867724867" y1="463.2645867457214" x2="186.7724867724867" y2="463.4700518750694" stroke-dasharray="1,0.5" stroke="#333c"/>
<line x1="181.79894179894174" y1="498.0" x2="181.79894179894174" y2="502.79999999999995" stroke="#000"/>
<text x="181.79894179894174" y="512.4" fill="#111" font-size="small" text-anchor="end" transform="rotate(-60, 181.79894179894174, 512.4)">
liquid-render
</text>
<rect x="194.23280423280414" y="480.78282991745243" width="4.973544973544974" height="17.217170082547444" fill="#785EF0" data-tooltip="1.01x baseline (CRuby 3.4.0dev)"/>
<line x1="194.23280423280414" y1="480.6763922742388" x2="199.2063492063491" y2="480.6763922742388" stroke-dasharray="1,0.5" stroke="#333c"/>
<line x1="194.23280423280414" y1="480.8892675606661" x2="199.2063492063491" y2="480.8892675606661" stroke-dasharray="1,0.5" stroke="#333c"/>
<line x1="196.71957671957662" y1="480.6763922742388" x2="196.71957671957662" y2="480.8892675606661" stroke-dasharray="1,0.5" stroke="#333c"/>
<rect x="199.2063492063491" y="474.4809857020474" width="4.973544973544974" height="23.51901429795246" fill="#FFB000" data-tooltip="1.37x baseline (YJIT 3.3.1)"/>
<line x1="199.2063492063491" y1="474.1221416413424" x2="204.17989417989406" y2="474.1221416413424" stroke-dasharray="1,0.5" stroke="#333c"/>
<line x1="199.2063492063491" y1="474.8398297627524" x2="204.17989417989406" y2="474.8398297627524" stroke-dasharray="1,0.5" stroke="#333c"/>
<line x1="201.69312169312158" y1="474.1221416413424" x2="201.69312169312158" y2="474.8398297627524" stroke-dasharray="1,0.5" stroke="#333c"/>
<rect x="204.17989417989406" y="473.232912579759" width="4.973544973544974" height="24.767087420241005" fill="#DC267F" data-tooltip="1.45x baseline (YJIT 3.4.0dev)"/>
<line x1="204.17989417989406" y1="472.86738711760086" x2="209.15343915343902" y2="472.86738711760086" stroke-dasharray="1,0.5" stroke="#333c"/>
<line x1="204.17989417989406" y1="473.5984380419172" x2="209.15343915343902" y2="473.5984380419172" stroke-dasharray="1,0.5" stroke="#333c"/>
<line x1="206.66666666666654" y1="472.86738711760086" x2="206.66666666666654" y2="473.5984380419172" stroke-dasharray="1,0.5" stroke="#333c"/>
<line x1="201.69312169312158" y1="498.0" x2="201.69312169312158" y2="502.79999999999995" stroke="#000"/>
<text x="201.69312169312158" y="512.4" fill="#111" font-size="small" text-anchor="end" transform="rotate(-60, 201.69312169312158, 512.4)">
lobsters
</text>
<rect x="214.126984126984" y="480.63943645428054" width="4.973544973544974" height="17.360563545719344" fill="#785EF0" data-tooltip="1.01x baseline (CRuby 3.4.0dev)"/>
<line x1="214.126984126984" y1="480.6041611395394" x2="219.10052910052897" y2="480.6041611395394" stroke-dasharray="1,0.5" stroke="#333c"/>
<line x1="214.126984126984" y1="480.67471176902166" x2="219.10052910052897" y2="480.67471176902166" stroke-dasharray="1,0.5" stroke="#333c"/>
<line x1="216.6137566137565" y1="480.6041611395394" x2="216.6137566137565" y2="480.67471176902166" stroke-dasharray="1,0.5" stroke="#333c"/>
<rect x="219.10052910052897" y="475.09991446490926" width="4.973544973544974" height="22.90008553509072" fill="#FFB000" data-tooltip="1.34x baseline (YJIT 3.3.1)"/>
<line x1="219.10052910052897" y1="475.05427653514266" x2="224.07407407407393" y2="475.05427653514266" stroke-dasharray="1,0.5" stroke="#333c"/>
<line x1="219.10052910052897" y1="475.1455523946759" x2="224.07407407407393" y2="475.1455523946759" stroke-dasharray="1,0.5" stroke="#333c"/>
<line x1="221.58730158730145" y1="475.05427653514266" x2="221.58730158730145" y2="475.1455523946759" stroke-dasharray="1,0.5" stroke="#333c"/>
<rect x="224.07407407407393" y="473.7138099010233" width="4.973544973544974" height="24.28619009897663" fill="#DC267F" data-tooltip="1.42x baseline (YJIT 3.4.0dev)"/>
<line x1="224.07407407407393" y1="473.6536598853389" x2="229.0476190476189" y2="473.6536598853389" stroke-dasharray="1,0.5" stroke="#333c"/>
<line x1="224.07407407407393" y1="473.7739599167077" x2="229.0476190476189" y2="473.7739599167077" stroke-dasharray="1,0.5" stroke="#333c"/>
<line x1="226.56084656084641" y1="473.6536598853389" x2="226.56084656084641" y2="473.7739599167077" stroke-dasharray="1,0.5" stroke="#333c"/>
<line x1="221.58730158730145" y1="498.0" x2="221.58730158730145" y2="502.79999999999995" stroke="#000"/>
<text x="221.58730158730145" y="512.4" fill="#111" font-size="small" text-anchor="end" transform="rotate(-60, 221.58730158730145, 512.4)">
mail
</text>
<rect x="234.02116402116386" y="480.97800189121057" width="4.973544973544974" height="17.02199810878937" fill="#785EF0" data-tooltip="0.99x baseline (CRuby 3.4.0dev)"/>
<line x1="234.02116402116386" y1="480.9589233162972" x2="238.99470899470882" y2="480.9589233162972" stroke-dasharray="1,0.5" stroke="#333c"/>
<line x1="234.02116402116386" y1="480.9970804661239" x2="238.99470899470882" y2="480.9970804661239" stroke-dasharray="1,0.5" stroke="#333c"/>
<line x1="236.50793650793634" y1="480.9589233162972" x2="236.50793650793634" y2="480.9970804661239" stroke-dasharray="1,0.5" stroke="#333c"/>
<rect x="238.99470899470882" y="471.6742708387414" width="4.973544973544974" height="26.325729161258586" fill="#FFB000" data-tooltip="1.54x baseline (YJIT 3.3.1)"/>
<line x1="238.99470899470882" y1="471.6525582027852" x2="243.96825396825378" y2="471.6525582027852" stroke-dasharray="1,0.5" stroke="#333c"/>
<line x1="238.99470899470882" y1="471.6959834746976" x2="243.96825396825378" y2="471.6959834746976" stroke-dasharray="1,0.5" stroke="#333c"/>
<line x1="241.4814814814813" y1="471.6525582027852" x2="241.4814814814813" y2="471.6959834746976" stroke-dasharray="1,0.5" stroke="#333c"/>
<rect x="243.96825396825378" y="465.43222459672415" width="4.973544973544974" height="32.567775403275824" fill="#DC267F" data-tooltip="1.90x baseline (YJIT 3.4.0dev)"/>
<line x1="243.96825396825378" y1="465.406278521399" x2="248.94179894179874" y2="465.406278521399" stroke-dasharray="1,0.5" stroke="#333c"/>
<line x1="243.96825396825378" y1="465.45817067204933" x2="248.94179894179874" y2="465.45817067204933" stroke-dasharray="1,0.5" stroke="#333c"/>
<line x1="246.45502645502626" y1="465.406278521399" x2="246.45502645502626" y2="465.45817067204933" stroke-dasharray="1,0.5" stroke="#333c"/>
<line x1="241.4814814814813" y1="498.0" x2="241.4814814814813" y2="502.79999999999995" stroke="#000"/>
<text x="241.4814814814813" y="512.4" fill="#111" font-size="small" text-anchor="end" transform="rotate(-60, 241.4814814814813, 512.4)">
psych-load
</text>
<rect x="253.9153439153437" y="480.89716315902314" width="4.973544973544974" height="17.10283684097687" fill="#785EF0" data-tooltip="1.00x baseline (CRuby 3.4.0dev)"/>
<line x1="253.9153439153437" y1="480.8876941499382" x2="258.8888888888887" y2="480.8876941499382" stroke-dasharray="1,0.5" stroke="#333c"/>
<line x1="253.9153439153437" y1="480.90663216810805" x2="258.8888888888887" y2="480.90663216810805" stroke-dasharray="1,0.5" stroke="#333c"/>
<line x1="256.4021164021162" y1="480.8876941499382" x2="256.4021164021162" y2="480.90663216810805" stroke-dasharray="1,0.5" stroke="#333c"/>
<rect x="258.8888888888887" y="472.0728886310103" width="4.973544973544974" height="25.927111368989703" fill="#FFB000" data-tooltip="1.51x baseline (YJIT 3.3.1)"/>
<line x1="258.8888888888887" y1="471.9435987576112" x2="263.86243386243365" y2="471.9435987576112" stroke-dasharray="1,0.5" stroke="#333c"/>
<line x1="258.8888888888887" y1="472.20217850440935" x2="263.86243386243365" y2="472.20217850440935" stroke-dasharray="1,0.5" stroke="#333c"/>
<line x1="261.37566137566114" y1="471.9435987576112" x2="261.37566137566114" y2="472.20217850440935" stroke-dasharray="1,0.5" stroke="#333c"/>
<rect x="263.86243386243365" y="469.4991368534505" width="4.973544973544974" height="28.50086314654944" fill="#DC267F" data-tooltip="1.66x baseline (YJIT 3.4.0dev)"/>
<line x1="263.86243386243365" y1="469.4754597472174" x2="268.8359788359786" y2="469.4754597472174" stroke-dasharray="1,0.5" stroke="#333c"/>
<line x1="263.86243386243365" y1="469.5228139596837" x2="268.8359788359786" y2="469.5228139596837" stroke-dasharray="1,0.5" stroke="#333c"/>
<line x1="266.3492063492061" y1="469.4754597472174" x2="266.3492063492061" y2="469.5228139596837" stroke-dasharray="1,0.5" stroke="#333c"/>
<line x1="261.37566137566114" y1="498.0" x2="261.37566137566114" y2="502.79999999999995" stroke="#000"/>
<text x="261.37566137566114" y="512.4" fill="#111" font-size="small" text-anchor="end" transform="rotate(-60, 261.37566137566114, 512.4)">
railsbench
</text>
<rect x="273.80952380952357" y="480.57933350198454" width="4.973544973544974" height="17.420666498015493" fill="#785EF0" data-tooltip="1.02x baseline (CRuby 3.4.0dev)"/>
<line x1="273.80952380952357" y1="480.466377826307" x2="278.78306878306853" y2="480.466377826307" stroke-dasharray="1,0.5" stroke="#333c"/>
<line x1="273.80952380952357" y1="480.692289177662" x2="278.78306878306853" y2="480.692289177662" stroke-dasharray="1,0.5" stroke="#333c"/>
<line x1="276.296296296296" y1="480.466377826307" x2="276.296296296296" y2="480.692289177662" stroke-dasharray="1,0.5" stroke="#333c"/>
<rect x="278.78306878306853" y="474.5877318405375" width="4.973544973544974" height="23.412268159462418" fill="#FFB000" data-tooltip="1.37x baseline (YJIT 3.3.1)"/>
<line x1="278.78306878306853" y1="473.546970031515" x2="283.7566137566135" y2="473.546970031515" stroke-dasharray="1,0.5" stroke="#333c"/>
<line x1="278.78306878306853" y1="475.62849364955997" x2="283.7566137566135" y2="475.62849364955997" stroke-dasharray="1,0.5" stroke="#333c"/>
<line x1="281.269841269841" y1="473.546970031515" x2="281.269841269841" y2="475.62849364955997" stroke-dasharray="1,0.5" stroke="#333c"/>
<rect x="283.7566137566135" y="473.26376113959066" width="4.973544973544974" height="24.73623886040924" fill="#DC267F" data-tooltip="1.44x baseline (YJIT 3.4.0dev)"/>
<line x1="283.7566137566135" y1="472.0314275505278" x2="288.73015873015845" y2="472.0314275505278" stroke-dasharray="1,0.5" stroke="#333c"/>
<line x1="283.7566137566135" y1="474.4960947286536" x2="288.73015873015845" y2="474.4960947286536" stroke-dasharray="1,0.5" stroke="#333c"/>
<line x1="286.24338624338594" y1="472.0314275505278" x2="286.24338624338594" y2="474.4960947286536" stroke-dasharray="1,0.5" stroke="#333c"/>
<line x1="281.269841269841" y1="498.0" x2="281.269841269841" y2="502.79999999999995" stroke="#000"/>
<text x="281.269841269841" y="512.4" fill="#111" font-size="small" text-anchor="end" transform="rotate(-60, 281.269841269841, 512.4)">
rubocop
</text>
<rect x="293.7037037037034" y="482.0498721345394" width="4.973544973544974" height="15.95012786546061" fill="#785EF0" data-tooltip="0.93x baseline (CRuby 3.4.0dev)"/>
<line x1="293.7037037037034" y1="481.8378244262444" x2="298.6772486772484" y2="481.8378244262444" stroke-dasharray="1,0.5" stroke="#333c"/>
<line x1="293.7037037037034" y1="482.26191984283435" x2="298.6772486772484" y2="482.26191984283435" stroke-dasharray="1,0.5" stroke="#333c"/>
<line x1="296.1904761904759" y1="481.8378244262444" x2="296.1904761904759" y2="482.26191984283435" stroke-dasharray="1,0.5" stroke="#333c"/>
<rect x="298.6772486772484" y="475.9420988990175" width="4.973544973544974" height="22.057901100982413" fill="#FFB000" data-tooltip="1.29x baseline (YJIT 3.3.1)"/>
<line x1="298.6772486772484" y1="475.6961958285784" x2="303.65079365079333" y2="475.6961958285784" stroke-dasharray="1,0.5" stroke="#333c"/>
<line x1="298.6772486772484" y1="476.1880019694565" x2="303.65079365079333" y2="476.1880019694565" stroke-dasharray="1,0.5" stroke="#333c"/>
<line x1="301.1640211640209" y1="475.6961958285784" x2="301.1640211640209" y2="476.1880019694565" stroke-dasharray="1,0.5" stroke="#333c"/>
<rect x="303.65079365079333" y="477.22860506888645" width="4.973544973544974" height="20.7713949311135" fill="#DC267F" data-tooltip="1.21x baseline (YJIT 3.4.0dev)"/>
<line x1="303.65079365079333" y1="477.0707042695742" x2="308.6243386243383" y2="477.0707042695742" stroke-dasharray="1,0.5" stroke="#333c"/>
<line x1="303.65079365079333" y1="477.3865058681987" x2="308.6243386243383" y2="477.3865058681987" stroke-dasharray="1,0.5" stroke="#333c"/>
<line x1="306.13756613756584" y1="477.0707042695742" x2="306.13756613756584" y2="477.3865058681987" stroke-dasharray="1,0.5" stroke="#333c"/>
<line x1="301.1640211640209" y1="498.0" x2="301.1640211640209" y2="502.79999999999995" stroke="#000"/>
<text x="301.1640211640209" y="512.4" fill="#111" font-size="small" text-anchor="end" transform="rotate(-60, 301.1640211640209, 512.4)">
ruby-lsp
</text>
<rect x="313.59788359788325" y="480.35759309576565" width="4.973544973544974" height="17.6424069042343" fill="#785EF0" data-tooltip="1.03x baseline (CRuby 3.4.0dev)"/>
<line x1="313.59788359788325" y1="480.30338538299526" x2="318.5714285714282" y2="480.30338538299526" stroke-dasharray="1,0.5" stroke="#333c"/>
<line x1="313.59788359788325" y1="480.4118008085361" x2="318.5714285714282" y2="480.4118008085361" stroke-dasharray="1,0.5" stroke="#333c"/>
<line x1="316.08465608465576" y1="480.30338538299526" x2="316.08465608465576" y2="480.4118008085361" stroke-dasharray="1,0.5" stroke="#333c"/>
<rect x="318.5714285714282" y="477.9511461479886" width="4.973544973544974" height="20.0488538520114" fill="#FFB000" data-tooltip="1.17x baseline (YJIT 3.3.1)"/>
<line x1="318.5714285714282" y1="477.913421441071" x2="323.5449735449732" y2="477.913421441071" stroke-dasharray="1,0.5" stroke="#333c"/>
<line x1="318.5714285714282" y1="477.9888708549061" x2="323.5449735449732" y2="477.9888708549061" stroke-dasharray="1,0.5" stroke="#333c"/>
<line x1="321.0582010582007" y1="477.913421441071" x2="321.0582010582007" y2="477.9888708549061" stroke-dasharray="1,0.5" stroke="#333c"/>
<rect x="323.5449735449732" y="476.26479981630405" width="4.973544973544974" height="21.73520018369591" fill="#DC267F" data-tooltip="1.27x baseline (YJIT 3.4.0dev)"/>
<line x1="323.5449735449732" y1="476.1344947869124" x2="328.51851851851814" y2="476.1344947869124" stroke-dasharray="1,0.5" stroke="#333c"/>
<line x1="323.5449735449732" y1="476.3951048456957" x2="328.51851851851814" y2="476.3951048456957" stroke-dasharray="1,0.5" stroke="#333c"/>
<line x1="326.0317460317457" y1="476.1344947869124" x2="326.0317460317457" y2="476.3951048456957" stroke-dasharray="1,0.5" stroke="#333c"/>
<line x1="321.0582010582007" y1="498.0" x2="321.0582010582007" y2="502.79999999999995" stroke="#000"/>
<text x="321.0582010582007" y="512.4" fill="#111" font-size="small" text-anchor="end" transform="rotate(-60, 321.0582010582007, 512.4)">
sequel
</text>
<rect x="333.4920634920631" y="481.3159427205455" width="4.973544973544974" height="16.684057279454503" fill="#785EF0" data-tooltip="0.97x baseline (CRuby 3.4.0dev)"/>
<line x1="333.4920634920631" y1="481.0969301488641" x2="338.46560846560806" y2="481.0969301488641" stroke-dasharray="1,0.5" stroke="#333c"/>
<line x1="333.4920634920631" y1="481.53495529222687" x2="338.46560846560806" y2="481.53495529222687" stroke-dasharray="1,0.5" stroke="#333c"/>
<line x1="335.9788359788356" y1="481.0969301488641" x2="335.9788359788356" y2="481.53495529222687" stroke-dasharray="1,0.5" stroke="#333c"/>
<rect x="338.46560846560806" y="463.7576052327131" width="4.973544973544974" height="34.24239476728691" fill="#FFB000" data-tooltip="2.00x baseline (YJIT 3.3.1)"/>
<line x1="338.46560846560806" y1="462.8826450022318" x2="343.439153439153" y2="462.8826450022318" stroke-dasharray="1,0.5" stroke="#333c"/>
<line x1="338.46560846560806" y1="464.63256546319434" x2="343.439153439153" y2="464.63256546319434" stroke-dasharray="1,0.5" stroke="#333c"/>
<line x1="340.95238095238057" y1="462.8826450022318" x2="340.95238095238057" y2="464.63256546319434" stroke-dasharray="1,0.5" stroke="#333c"/>
<rect x="343.439153439153" y="462.99654790445607" width="4.973544973544974" height="35.00345209554381" fill="#DC267F" data-tooltip="2.04x baseline (YJIT 3.4.0dev)"/>
<line x1="343.439153439153" y1="462.5412990311977" x2="348.41269841269803" y2="462.5412990311977" stroke-dasharray="1,0.5" stroke="#333c"/>
<line x1="343.439153439153" y1="463.4517967777145" x2="348.41269841269803" y2="463.4517967777145" stroke-dasharray="1,0.5" stroke="#333c"/>
<line x1="345.9259259259255" y1="462.5412990311977" x2="345.9259259259255" y2="463.4517967777145" stroke-dasharray="1,0.5" stroke="#333c"/>
<line x1="340.95238095238057" y1="498.0" x2="340.95238095238057" y2="502.79999999999995" stroke="#000"/>
<text x="340.95238095238057" y="512.4" fill="#111" font-size="small" text-anchor="end" transform="rotate(-60, 340.95238095238057, 512.4)">
binarytrees
</text>
<rect x="353.386243386243" y="480.22576281560845" width="4.973544973544974" height="17.77423718439149" fill="#785EF0" data-tooltip="1.04x baseline (CRuby 3.4.0dev)"/>
<line x1="353.386243386243" y1="479.95202947478913" x2="358.35978835978796" y2="479.95202947478913" stroke-dasharray="1,0.5" stroke="#333c"/>
<line x1="353.386243386243" y1="480.49949615642777" x2="358.35978835978796" y2="480.49949615642777" stroke-dasharray="1,0.5" stroke="#333c"/>
<line x1="355.87301587301545" y1="479.95202947478913" x2="355.87301587301545" y2="480.49949615642777" stroke-dasharray="1,0.5" stroke="#333c"/>
<rect x="358.35978835978796" y="457.19213952115456" width="4.973544973544974" height="40.80786047884539" fill="#FFB000" data-tooltip="2.38x baseline (YJIT 3.3.1)"/>
<line x1="358.35978835978796" y1="456.6537781538358" x2="363.3333333333329" y2="456.6537781538358" stroke-dasharray="1,0.5" stroke="#333c"/>
<line x1="358.35978835978796" y1="457.7305008884734" x2="363.3333333333329" y2="457.7305008884734" stroke-dasharray="1,0.5" stroke="#333c"/>
<line x1="360.8465608465604" y1="456.6537781538358" x2="360.8465608465604" y2="457.7305008884734" stroke-dasharray="1,0.5" stroke="#333c"/>
<rect x="363.3333333333329" y="456.2664810432699" width="4.973544973544974" height="41.73351895673005" fill="#DC267F" data-tooltip="2.44x baseline (YJIT 3.4.0dev)"/>
<line x1="363.3333333333329" y1="455.71335847349695" x2="368.3068783068779" y2="455.71335847349695" stroke-dasharray="1,0.5" stroke="#333c"/>
<line x1="363.3333333333329" y1="456.81960361304283" x2="368.3068783068779" y2="456.81960361304283" stroke-dasharray="1,0.5" stroke="#333c"/>
<line x1="365.82010582010537" y1="455.71335847349695" x2="365.82010582010537" y2="456.81960361304283" stroke-dasharray="1,0.5" stroke="#333c"/>
<line x1="360.8465608465604" y1="498.0" x2="360.8465608465604" y2="502.79999999999995" stroke="#000"/>
<text x="360.8465608465604" y="512.4" fill="#111" font-size="small" text-anchor="end" transform="rotate(-60, 360.8465608465604, 512.4)">
blurhash
</text>
<rect x="373.28042328042284" y="480.2728479347104" width="4.973544973544974" height="17.72715206528954" fill="#785EF0" data-tooltip="1.04x baseline (CRuby 3.4.0dev)"/>
<line x1="373.28042328042284" y1="480.2383177448664" x2="378.2539682539678" y2="480.2383177448664" stroke-dasharray="1,0.5" stroke="#333c"/>
<line x1="373.28042328042284" y1="480.30737812455436" x2="378.2539682539678" y2="480.30737812455436" stroke-dasharray="1,0.5" stroke="#333c"/>
<line x1="375.7671957671953" y1="480.2383177448664" x2="375.7671957671953" y2="480.30737812455436" stroke-dasharray="1,0.5" stroke="#333c"/>
<rect x="378.2539682539678" y="477.4043785844604" width="4.973544973544974" height="20.59562141553962" fill="#FFB000" data-tooltip="1.20x baseline (YJIT 3.3.1)"/>
<line x1="378.2539682539678" y1="477.36671259667463" x2="383.22751322751276" y2="477.36671259667463" stroke-dasharray="1,0.5" stroke="#333c"/>
<line x1="378.2539682539678" y1="477.4420445722462" x2="383.22751322751276" y2="477.4420445722462" stroke-dasharray="1,0.5" stroke="#333c"/>
<line x1="380.74074074074025" y1="477.36671259667463" x2="380.74074074074025" y2="477.4420445722462" stroke-dasharray="1,0.5" stroke="#333c"/>
<rect x="383.22751322751276" y="478.13578247419673" width="4.973544973544974" height="19.864217525803276" fill="#DC267F" data-tooltip="1.16x baseline (YJIT 3.4.0dev)"/>
<line x1="383.22751322751276" y1="478.0928365481122" x2="388.2010582010577" y2="478.0928365481122" stroke-dasharray="1,0.5" stroke="#333c"/>
<line x1="383.22751322751276" y1="478.1787284002812" x2="388.2010582010577" y2="478.1787284002812" stroke-dasharray="1,0.5" stroke="#333c"/>
<line x1="385.7142857142852" y1="478.0928365481122" x2="385.7142857142852" y2="478.1787284002812" stroke-dasharray="1,0.5" stroke="#333c"/>
<line x1="380.74074074074025" y1="498.0" x2="380.74074074074025" y2="502.79999999999995" stroke="#000"/>
<text x="380.74074074074025" y="512.4" fill="#111" font-size="small" text-anchor="end" transform="rotate(-60, 380.74074074074025, 512.4)">
erubi
</text>
<rect x="393.1746031746027" y="479.90168552233" width="4.973544973544974" height="18.09831447766999" fill="#785EF0" data-tooltip="1.06x baseline (CRuby 3.4.0dev)"/>
<line x1="393.1746031746027" y1="479.86870948333217" x2="398.14814814814764" y2="479.86870948333217" stroke-dasharray="1,0.5" stroke="#333c"/>
<line x1="393.1746031746027" y1="479.93466156132786" x2="398.14814814814764" y2="479.93466156132786" stroke-dasharray="1,0.5" stroke="#333c"/>
<line x1="395.66137566137513" y1="479.86870948333217" x2="395.66137566137513" y2="479.93466156132786" stroke-dasharray="1,0.5" stroke="#333c"/>
<rect x="398.14814814814764" y="478.9751594171123" width="4.973544973544974" height="19.024840582887613" fill="#FFB000" data-tooltip="1.11x baseline (YJIT 3.3.1)"/>
<line x1="398.14814814814764" y1="478.9439067710708" x2="403.1216931216926" y2="478.9439067710708" stroke-dasharray="1,0.5" stroke="#333c"/>
<line x1="398.14814814814764" y1="479.0064120631538" x2="403.1216931216926" y2="479.0064120631538" stroke-dasharray="1,0.5" stroke="#333c"/>
<line x1="400.63492063492015" y1="478.9439067710708" x2="400.63492063492015" y2="479.0064120631538" stroke-dasharray="1,0.5" stroke="#333c"/>
<rect x="403.1216931216926" y="478.62298361778744" width="4.973544973544974" height="19.377016382212485" fill="#DC267F" data-tooltip="1.13x baseline (YJIT 3.4.0dev)"/>
<line x1="403.1216931216926" y1="478.5923304193944" x2="408.09523809523756" y2="478.5923304193944" stroke-dasharray="1,0.5" stroke="#333c"/>
<line x1="403.1216931216926" y1="478.65363681618044" x2="408.09523809523756" y2="478.65363681618044" stroke-dasharray="1,0.5" stroke="#333c"/>
<line x1="405.6084656084651" y1="478.5923304193944" x2="405.6084656084651" y2="478.65363681618044" stroke-dasharray="1,0.5" stroke="#333c"/>
<line x1="400.63492063492015" y1="498.0" x2="400.63492063492015" y2="502.79999999999995" stroke="#000"/>
<text x="400.63492063492015" y="512.4" fill="#111" font-size="small" text-anchor="end" transform="rotate(-60, 400.63492063492015, 512.4)">
etanni
</text>
<rect x="413.0687830687825" y="479.58473985179364" width="4.973544973544974" height="18.41526014820625" fill="#785EF0" data-tooltip="1.08x baseline (CRuby 3.4.0dev)"/>
<line x1="413.0687830687825" y1="479.2515404911774" x2="418.0423280423275" y2="479.2515404911774" stroke-dasharray="1,0.5" stroke="#333c"/>
<line x1="413.0687830687825" y1="479.9179392124099" x2="418.0423280423275" y2="479.9179392124099" stroke-dasharray="1,0.5" stroke="#333c"/>
<line x1="415.55555555555503" y1="479.2515404911774" x2="415.55555555555503" y2="479.9179392124099" stroke-dasharray="1,0.5" stroke="#333c"/>
<rect x="418.0423280423275" y="435.11104594227874" width="4.973544973544974" height="62.88895405772115" fill="#FFB000" data-tooltip="3.67x baseline (YJIT 3.3.1)"/>
<line x1="418.0423280423275" y1="434.1383892873173" x2="423.01587301587244" y2="434.1383892873173" stroke-dasharray="1,0.5" stroke="#333c"/>
<line x1="418.0423280423275" y1="436.08370259724023" x2="423.01587301587244" y2="436.08370259724023" stroke-dasharray="1,0.5" stroke="#333c"/>
<line x1="420.5291005291" y1="434.1383892873173" x2="420.5291005291" y2="436.08370259724023" stroke-dasharray="1,0.5" stroke="#333c"/>
<rect x="423.01587301587244" y="427.3707422445307" width="4.973544973544974" height="70.62925775546925" fill="#DC267F" data-tooltip="4.12x baseline (YJIT 3.4.0dev)"/>
<line x1="423.01587301587244" y1="426.27756867500267" x2="427.9894179894174" y2="426.27756867500267" stroke-dasharray="1,0.5" stroke="#333c"/>
<line x1="423.01587301587244" y1="428.4639158140586" x2="427.9894179894174" y2="428.4639158140586" stroke-dasharray="1,0.5" stroke="#333c"/>
<line x1="425.50264550264495" y1="426.27756867500267" x2="425.50264550264495" y2="428.4639158140586" stroke-dasharray="1,0.5" stroke="#333c"/>
<line x1="420.5291005291" y1="498.0" x2="420.5291005291" y2="502.79999999999995" stroke="#000"/>
<text x="420.5291005291" y="512.4" fill="#111" font-size="small" text-anchor="end" transform="rotate(-60, 420.5291005291, 512.4)">
fannkuchredux
</text>
<rect x="432.96296296296237" y="477.95992801409807" width="4.973544973544974" height="20.04007198590181" fill="#785EF0" data-tooltip="1.17x baseline (CRuby 3.4.0dev)"/>
<line x1="432.96296296296237" y1="477.89782172974344" x2="437.9365079365073" y2="477.89782172974344" stroke-dasharray="1,0.5" stroke="#333c"/>
<line x1="432.96296296296237" y1="478.02203429845275" x2="437.9365079365073" y2="478.02203429845275" stroke-dasharray="1,0.5" stroke="#333c"/>
<line x1="435.4497354497349" y1="477.89782172974344" x2="435.4497354497349" y2="478.02203429845275" stroke-dasharray="1,0.5" stroke="#333c"/>
<rect x="437.9365079365073" y="477.92144253819646" width="4.973544973544974" height="20.07855746180349" fill="#FFB000" data-tooltip="1.17x baseline (YJIT 3.3.1)"/>
<line x1="437.9365079365073" y1="477.84420249095496" x2="442.9100529100523" y2="477.84420249095496" stroke-dasharray="1,0.5" stroke="#333c"/>
<line x1="437.9365079365073" y1="477.998682585438" x2="442.9100529100523" y2="477.998682585438" stroke-dasharray="1,0.5" stroke="#333c"/>
<line x1="440.42328042327983" y1="477.84420249095496" x2="440.42328042327983" y2="477.998682585438" stroke-dasharray="1,0.5" stroke="#333c"/>
<rect x="442.9100529100523" y="474.0078475622687" width="4.973544973544974" height="23.992152437731214" fill="#DC267F" data-tooltip="1.40x baseline (YJIT 3.4.0dev)"/>
<line x1="442.9100529100523" y1="473.87818021947356" x2="447.88359788359725" y2="473.87818021947356" stroke-dasharray="1,0.5" stroke="#333c"/>
<line x1="442.9100529100523" y1="474.1375149050638" x2="447.88359788359725" y2="474.1375149050638" stroke-dasharray="1,0.5" stroke="#333c"/>
<line x1="445.3968253968248" y1="473.87818021947356" x2="445.3968253968248" y2="474.1375149050638" stroke-dasharray="1,0.5" stroke="#333c"/>
<line x1="440.42328042327983" y1="498.0" x2="440.42328042327983" y2="502.79999999999995" stroke="#000"/>
<text x="440.42328042327983" y="512.4" fill="#111" font-size="small" text-anchor="end" transform="rotate(-60, 440.42328042327983, 512.4)">
fluentd
</text>
<rect x="452.85714285714226" y="479.78692937245387" width="4.973544973544974" height="18.21307062754609" fill="#785EF0" data-tooltip="1.06x baseline (CRuby 3.4.0dev)"/>
<line x1="452.85714285714226" y1="479.7719082042167" x2="457.8306878306872" y2="479.7719082042167" stroke-dasharray="1,0.5" stroke="#333c"/>
<line x1="452.85714285714226" y1="479.80195054069105" x2="457.8306878306872" y2="479.80195054069105" stroke-dasharray="1,0.5" stroke="#333c"/>
<line x1="455.3439153439147" y1="479.7719082042167" x2="455.3439153439147" y2="479.80195054069105" stroke-dasharray="1,0.5" stroke="#333c"/>
<rect x="457.8306878306872" y="476.28178693061216" width="4.973544973544974" height="21.718213069387765" fill="#FFB000" data-tooltip="1.27x baseline (YJIT 3.3.1)"/>
<line x1="457.8306878306872" y1="476.26018103468635" x2="462.8042328042322" y2="476.26018103468635" stroke-dasharray="1,0.5" stroke="#333c"/>
<line x1="457.8306878306872" y1="476.303392826538" x2="462.8042328042322" y2="476.303392826538" stroke-dasharray="1,0.5" stroke="#333c"/>
<line x1="460.3174603174597" y1="476.26018103468635" x2="460.3174603174597" y2="476.303392826538" stroke-dasharray="1,0.5" stroke="#333c"/>
<rect x="462.8042328042322" y="476.2534757519044" width="4.973544973544974" height="21.74652424809559" fill="#DC267F" data-tooltip="1.27x baseline (YJIT 3.4.0dev)"/>
<line x1="462.8042328042322" y1="476.23920622857014" x2="467.77777777777715" y2="476.23920622857014" stroke-dasharray="1,0.5" stroke="#333c"/>
<line x1="462.8042328042322" y1="476.26774527523867" x2="467.77777777777715" y2="476.26774527523867" stroke-dasharray="1,0.5" stroke="#333c"/>
<line x1="465.29100529100464" y1="476.23920622857014" x2="465.29100529100464" y2="476.26774527523867" stroke-dasharray="1,0.5" stroke="#333c"/>
<line x1="460.3174603174597" y1="498.0" x2="460.3174603174597" y2="502.79999999999995" stroke="#000"/>
<text x="460.3174603174597" y="512.4" fill="#111" font-size="small" text-anchor="end" transform="rotate(-60, 460.3174603174597, 512.4)">
graphql
</text>
<rect x="472.7513227513221" y="479.43695691081854" width="4.973544973544974" height="18.56304308918139" fill="#785EF0" data-tooltip="1.08x baseline (CRuby 3.4.0dev)"/>
<line x1="472.7513227513221" y1="479.40109371458834" x2="477.72486772486707" y2="479.40109371458834" stroke-dasharray="1,0.5" stroke="#333c"/>
<line x1="472.7513227513221" y1="479.4728201070487" x2="477.72486772486707" y2="479.4728201070487" stroke-dasharray="1,0.5" stroke="#333c"/>
<line x1="475.23809523809456" y1="479.40109371458834" x2="475.23809523809456" y2="479.4728201070487" stroke-dasharray="1,0.5" stroke="#333c"/>
<rect x="477.72486772486707" y="479.1296316060097" width="4.973544973544974" height="18.870368393990255" fill="#FFB000" data-tooltip="1.10x baseline (YJIT 3.3.1)"/>
<line x1="477.72486772486707" y1="479.1110559431224" x2="482.698412698412" y2="479.1110559431224" stroke-dasharray="1,0.5" stroke="#333c"/>
<line x1="477.72486772486707" y1="479.14820726889695" x2="482.698412698412" y2="479.14820726889695" stroke-dasharray="1,0.5" stroke="#333c"/>
<line x1="480.2116402116395" y1="479.1110559431224" x2="480.2116402116395" y2="479.14820726889695" stroke-dasharray="1,0.5" stroke="#333c"/>
<rect x="482.698412698412" y="476.55384740565586" width="4.973544973544974" height="21.44615259434402" fill="#DC267F" data-tooltip="1.25x baseline (YJIT 3.4.0dev)"/>
<line x1="482.698412698412" y1="476.48030911276544" x2="487.671957671957" y2="476.48030911276544" stroke-dasharray="1,0.5" stroke="#333c"/>
<line x1="482.698412698412" y1="476.6273856985463" x2="487.671957671957" y2="476.6273856985463" stroke-dasharray="1,0.5" stroke="#333c"/>
<line x1="485.1851851851845" y1="476.48030911276544" x2="485.1851851851845" y2="476.6273856985463" stroke-dasharray="1,0.5" stroke="#333c"/>
<line x1="480.2116402116395" y1="498.0" x2="480.2116402116395" y2="502.79999999999995" stroke="#000"/>
<text x="480.2116402116395" y="512.4" fill="#111" font-size="small" text-anchor="end" transform="rotate(-60, 480.2116402116395, 512.4)">
graphql-native
</text>
<rect x="492.64550264550195" y="479.01422106899" width="4.973544973544974" height="18.9857789310099" fill="#785EF0" data-tooltip="1.11x baseline (CRuby 3.4.0dev)"/>
<line x1="492.64550264550195" y1="478.74964310964134" x2="497.6190476190469" y2="478.74964310964134" stroke-dasharray="1,0.5" stroke="#333c"/>
<line x1="492.64550264550195" y1="479.27879902833865" x2="497.6190476190469" y2="479.27879902833865" stroke-dasharray="1,0.5" stroke="#333c"/>
<line x1="495.1322751322744" y1="478.74964310964134" x2="495.1322751322744" y2="479.27879902833865" stroke-dasharray="1,0.5" stroke="#333c"/>
<rect x="497.6190476190469" y="474.32446892233776" width="4.973544973544974" height="23.675531077662196" fill="#FFB000" data-tooltip="1.38x baseline (YJIT 3.3.1)"/>
<line x1="497.6190476190469" y1="473.99702846676587" x2="502.5925925925919" y2="473.99702846676587" stroke-dasharray="1,0.5" stroke="#333c"/>
<line x1="497.6190476190469" y1="474.65190937790965" x2="502.5925925925919" y2="474.65190937790965" stroke-dasharray="1,0.5" stroke="#333c"/>
<line x1="500.10582010581936" y1="473.99702846676587" x2="500.10582010581936" y2="474.65190937790965" stroke-dasharray="1,0.5" stroke="#333c"/>
<rect x="502.5925925925919" y="469.86560347303123" width="4.973544973544974" height="28.134396526968718" fill="#DC267F" data-tooltip="1.64x baseline (YJIT 3.4.0dev)"/>
<line x1="502.5925925925919" y1="469.5193792421409" x2="507.5661375661369" y2="469.5193792421409" stroke-dasharray="1,0.5" stroke="#333c"/>
<line x1="502.5925925925919" y1="470.21182770392164" x2="507.5661375661369" y2="470.21182770392164" stroke-dasharray="1,0.5" stroke="#333c"/>
<line x1="505.07936507936444" y1="469.5193792421409" x2="505.07936507936444" y2="470.21182770392164" stroke-dasharray="1,0.5" stroke="#333c"/>
<line x1="500.10582010581936" y1="498.0" x2="500.10582010581936" y2="502.79999999999995" stroke="#000"/>
<text x="500.10582010581936" y="512.4" fill="#111" font-size="small" text-anchor="end" transform="rotate(-60, 500.10582010581936, 512.4)">
lee
</text>
<rect x="512.5396825396818" y="481.2561359461635" width="4.973544973544974" height="16.74386405383644" fill="#785EF0" data-tooltip="0.98x baseline (CRuby 3.4.0dev)"/>
<line x1="512.5396825396818" y1="480.4351702207453" x2="517.5132275132269" y2="480.4351702207453" stroke-dasharray="1,0.5" stroke="#333c"/>
<line x1="512.5396825396818" y1="482.0771016715817" x2="517.5132275132269" y2="482.0771016715817" stroke-dasharray="1,0.5" stroke="#333c"/>
<line x1="515.0264550264544" y1="480.4351702207453" x2="515.0264550264544" y2="482.0771016715817" stroke-dasharray="1,0.5" stroke="#333c"/>
<rect x="517.5132275132269" y="467.2915022029736" width="4.973544973544974" height="30.708497797026272" fill="#FFB000" data-tooltip="1.79x baseline (YJIT 3.3.1)"/>
<line x1="517.5132275132269" y1="466.661537734042" x2="522.4867724867718" y2="466.661537734042" stroke-dasharray="1,0.5" stroke="#333c"/>
<line x1="517.5132275132269" y1="467.9214666719053" x2="522.4867724867718" y2="467.9214666719053" stroke-dasharray="1,0.5" stroke="#333c"/>
<line x1="519.9999999999993" y1="466.661537734042" x2="519.9999999999993" y2="467.9214666719053" stroke-dasharray="1,0.5" stroke="#333c"/>
<rect x="522.4867724867718" y="466.8469445894359" width="4.973544973544974" height="31.153055410564033" fill="#DC267F" data-tooltip="1.82x baseline (YJIT 3.4.0dev)"/>
<line x1="522.4867724867718" y1="466.2127410569747" x2="527.4603174603168" y2="466.2127410569747" stroke-dasharray="1,0.5" stroke="#333c"/>
<line x1="522.4867724867718" y1="467.4811481218971" x2="527.4603174603168" y2="467.4811481218971" stroke-dasharray="1,0.5" stroke="#333c"/>
<line x1="524.9735449735443" y1="466.2127410569747" x2="524.9735449735443" y2="467.4811481218971" stroke-dasharray="1,0.5" stroke="#333c"/>
<line x1="519.9999999999993" y1="498.0" x2="519.9999999999993" y2="502.79999999999995" stroke="#000"/>
<text x="519.9999999999993" y="512.4" fill="#111" font-size="small" text-anchor="end" transform="rotate(-60, 519.9999999999993, 512.4)">
matmul
</text>
<rect x="532.4338624338617" y="481.0225028803855" width="4.973544973544974" height="16.977497119614352" fill="#785EF0" data-tooltip="0.99x baseline (CRuby 3.4.0dev)"/>
<line x1="532.4338624338617" y1="480.7150448597236" x2="537.4074074074067" y2="480.7150448597236" stroke-dasharray="1,0.5" stroke="#333c"/>
<line x1="532.4338624338617" y1="481.32996090104746" x2="537.4074074074067" y2="481.32996090104746" stroke-dasharray="1,0.5" stroke="#333c"/>
<line x1="534.9206349206343" y1="480.7150448597236" x2="534.9206349206343" y2="481.32996090104746" stroke-dasharray="1,0.5" stroke="#333c"/>
<rect x="537.4074074074067" y="458.0953488150648" width="4.973544973544974" height="39.90465118493508" fill="#FFB000" data-tooltip="2.33x baseline (YJIT 3.3.1)"/>
<line x1="537.4074074074067" y1="457.5027157142895" x2="542.3809523809516" y2="457.5027157142895" stroke-dasharray="1,0.5" stroke="#333c"/>
<line x1="537.4074074074067" y1="458.68798191584017" x2="542.3809523809516" y2="458.68798191584017" stroke-dasharray="1,0.5" stroke="#333c"/>
<line x1="539.8941798941792" y1="457.5027157142895" x2="539.8941798941792" y2="458.68798191584017" stroke-dasharray="1,0.5" stroke="#333c"/>
<rect x="542.3809523809516" y="455.7634162982952" width="4.973544973544974" height="42.236583701704696" fill="#DC267F" data-tooltip="2.47x baseline (YJIT 3.4.0dev)"/>
<line x1="542.3809523809516" y1="455.1461246759508" x2="547.3544973544966" y2="455.1461246759508" stroke-dasharray="1,0.5" stroke="#333c"/>
<line x1="542.3809523809516" y1="456.3807079206397" x2="547.3544973544966" y2="456.3807079206397" stroke-dasharray="1,0.5" stroke="#333c"/>
<line x1="544.8677248677242" y1="455.1461246759508" x2="544.8677248677242" y2="456.3807079206397" stroke-dasharray="1,0.5" stroke="#333c"/>
<line x1="539.8941798941792" y1="498.0" x2="539.8941798941792" y2="502.79999999999995" stroke="#000"/>
<text x="539.8941798941792" y="512.4" fill="#111" font-size="small" text-anchor="end" transform="rotate(-60, 539.8941798941792, 512.4)">
nbody
</text>
<rect x="552.3280423280415" y="478.7690610089673" width="4.973544973544974" height="19.230938991032684" fill="#785EF0" data-tooltip="1.12x baseline (CRuby 3.4.0dev)"/>
<line x1="552.3280423280415" y1="478.1669570883924" x2="557.3015873015866" y2="478.1669570883924" stroke-dasharray="1,0.5" stroke="#333c"/>
<line x1="552.3280423280415" y1="479.3711649295422" x2="557.3015873015866" y2="479.3711649295422" stroke-dasharray="1,0.5" stroke="#333c"/>
<line x1="554.8148148148141" y1="478.1669570883924" x2="554.8148148148141" y2="479.3711649295422" stroke-dasharray="1,0.5" stroke="#333c"/>
<rect x="557.3015873015866" y="479.31300287302577" width="4.973544973544974" height="18.686997126974184" fill="#FFB000" data-tooltip="1.09x baseline (YJIT 3.3.1)"/>
<line x1="557.3015873015866" y1="478.86589465399805" x2="562.2751322751315" y2="478.86589465399805" stroke-dasharray="1,0.5" stroke="#333c"/>
<line x1="557.3015873015866" y1="479.7601110920534" x2="562.2751322751315" y2="479.7601110920534" stroke-dasharray="1,0.5" stroke="#333c"/>
<line x1="559.788359788359" y1="478.86589465399805" x2="559.788359788359" y2="479.7601110920534" stroke-dasharray="1,0.5" stroke="#333c"/>
<rect x="562.2751322751315" y="392.73106170795165" width="4.973544973544974" height="105.26893829204828" fill="#DC267F" data-tooltip="6.15x baseline (YJIT 3.4.0dev)"/>
<line x1="562.2751322751315" y1="391.4386926433424" x2="567.2486772486765" y2="391.4386926433424" stroke-dasharray="1,0.5" stroke="#333c"/>
<line x1="562.2751322751315" y1="394.02343077256097" x2="567.2486772486765" y2="394.02343077256097" stroke-dasharray="1,0.5" stroke="#333c"/>
<line x1="564.761904761904" y1="391.4386926433424" x2="564.761904761904" y2="394.02343077256097" stroke-dasharray="1,0.5" stroke="#333c"/>
<line x1="559.788359788359" y1="498.0" x2="559.788359788359" y2="502.79999999999995" stroke="#000"/>
<text x="559.788359788359" y="512.4" fill="#111" font-size="small" text-anchor="end" transform="rotate(-60, 559.788359788359, 512.4)">
nqueens
</text>
<rect x="572.2222222222214" y="479.82732092245243" width="4.973544973544974" height="18.172679077547564" fill="#785EF0" data-tooltip="1.06x baseline (CRuby 3.4.0dev)"/>
<line x1="572.2222222222214" y1="479.7016592818849" x2="577.1957671957664" y2="479.7016592818849" stroke-dasharray="1,0.5" stroke="#333c"/>
<line x1="572.2222222222214" y1="479.95298256302" x2="577.1957671957664" y2="479.95298256302" stroke-dasharray="1,0.5" stroke="#333c"/>
<line x1="574.7089947089939" y1="479.7016592818849" x2="574.7089947089939" y2="479.95298256302" stroke-dasharray="1,0.5" stroke="#333c"/>
<rect x="577.1957671957664" y="458.3972585601145" width="4.973544973544974" height="39.60274143988548" fill="#FFB000" data-tooltip="2.31x baseline (YJIT 3.3.1)"/>
<line x1="577.1957671957664" y1="458.145751716679" x2="582.1693121693113" y2="458.145751716679" stroke-dasharray="1,0.5" stroke="#333c"/>
<line x1="577.1957671957664" y1="458.64876540355004" x2="582.1693121693113" y2="458.64876540355004" stroke-dasharray="1,0.5" stroke="#333c"/>
<line x1="579.682539682539" y1="458.145751716679" x2="579.682539682539" y2="458.64876540355004" stroke-dasharray="1,0.5" stroke="#333c"/>
<rect x="582.1693121693113" y="454.69250328147075" width="4.973544973544974" height="43.30749671852916" fill="#DC267F" data-tooltip="2.53x baseline (YJIT 3.4.0dev)"/>
<line x1="582.1693121693113" y1="454.43738681166366" x2="587.1428571428563" y2="454.43738681166366" stroke-dasharray="1,0.5" stroke="#333c"/>
<line x1="582.1693121693113" y1="454.9476197512778" x2="587.1428571428563" y2="454.9476197512778" stroke-dasharray="1,0.5" stroke="#333c"/>
<line x1="584.6560846560839" y1="454.43738681166366" x2="584.6560846560839" y2="454.9476197512778" stroke-dasharray="1,0.5" stroke="#333c"/>
<line x1="579.682539682539" y1="498.0" x2="579.682539682539" y2="502.79999999999995" stroke="#000"/>
<text x="579.682539682539" y="512.4" fill="#111" font-size="small" text-anchor="end" transform="rotate(-60, 579.682539682539, 512.4)">
optcarrot
</text>
<rect x="592.1164021164012" y="480.48484842936995" width="4.973544973544974" height="17.515151570629943" fill="#785EF0" data-tooltip="1.02x baseline (CRuby 3.4.0dev)"/>
<line x1="592.1164021164012" y1="480.22193495695467" x2="597.0899470899462" y2="480.22193495695467" stroke-dasharray="1,0.5" stroke="#333c"/>
<line x1="592.1164021164012" y1="480.7477619017852" x2="597.0899470899462" y2="480.7477619017852" stroke-dasharray="1,0.5" stroke="#333c"/>
<line x1="594.6031746031738" y1="480.22193495695467" x2="594.6031746031738" y2="480.7477619017852" stroke-dasharray="1,0.5" stroke="#333c"/>
<rect x="597.0899470899462" y="462.5478392875019" width="4.973544973544974" height="35.452160712497985" fill="#FFB000" data-tooltip="2.07x baseline (YJIT 3.3.1)"/>
<line x1="597.0899470899462" y1="462.1684986066442" x2="602.0634920634911" y2="462.1684986066442" stroke-dasharray="1,0.5" stroke="#333c"/>
<line x1="597.0899470899462" y1="462.92717996835955" x2="602.0634920634911" y2="462.92717996835955" stroke-dasharray="1,0.5" stroke="#333c"/>
<line x1="599.5767195767188" y1="462.1684986066442" x2="599.5767195767188" y2="462.92717996835955" stroke-dasharray="1,0.5" stroke="#333c"/>
<rect x="602.0634920634911" y="443.8671505100554" width="4.973544973544974" height="54.13284948994458" fill="#DC267F" data-tooltip="3.16x baseline (YJIT 3.4.0dev)"/>
<line x1="602.0634920634911" y1="443.29366998251214" x2="607.0370370370362" y2="443.29366998251214" stroke-dasharray="1,0.5" stroke="#333c"/>
<line x1="602.0634920634911" y1="444.4406310375987" x2="607.0370370370362" y2="444.4406310375987" stroke-dasharray="1,0.5" stroke="#333c"/>
<line x1="604.5502645502637" y1="443.29366998251214" x2="604.5502645502637" y2="444.4406310375987" stroke-dasharray="1,0.5" stroke="#333c"/>
<line x1="599.5767195767188" y1="498.0" x2="599.5767195767188" y2="502.79999999999995" stroke="#000"/>
<text x="599.5767195767188" y="512.4" fill="#111" font-size="small" text-anchor="end" transform="rotate(-60, 599.5767195767188, 512.4)">
protoboeuf
</text>
<rect x="612.0105820105811" y="479.52510045334975" width="4.973544973544974" height="18.474899546650203" fill="#785EF0" data-tooltip="1.08x baseline (CRuby 3.4.0dev)"/>
<line x1="612.0105820105811" y1="479.3996943439991" x2="616.9841269841261" y2="479.3996943439991" stroke-dasharray="1,0.5" stroke="#333c"/>
<line x1="612.0105820105811" y1="479.6505065627004" x2="616.9841269841261" y2="479.6505065627004" stroke-dasharray="1,0.5" stroke="#333c"/>
<line x1="614.4973544973536" y1="479.3996943439991" x2="614.4973544973536" y2="479.6505065627004" stroke-dasharray="1,0.5" stroke="#333c"/>
<rect x="616.9841269841261" y="473.61884776946374" width="4.973544973544974" height="24.38115223053617" fill="#FFB000" data-tooltip="1.42x baseline (YJIT 3.3.1)"/>
<line x1="616.9841269841261" y1="473.4373055151866" x2="621.9576719576711" y2="473.4373055151866" stroke-dasharray="1,0.5" stroke="#333c"/>
<line x1="616.9841269841261" y1="473.8003900237409" x2="621.9576719576711" y2="473.8003900237409" stroke-dasharray="1,0.5" stroke="#333c"/>
<line x1="619.4708994708986" y1="473.4373055151866" x2="619.4708994708986" y2="473.8003900237409" stroke-dasharray="1,0.5" stroke="#333c"/>
<rect x="621.9576719576711" y="470.5100029800031" width="4.973544973544974" height="27.48999701999684" fill="#DC267F" data-tooltip="1.61x baseline (YJIT 3.4.0dev)"/>
<line x1="621.9576719576711" y1="470.17174424846206" x2="626.931216931216" y2="470.17174424846206" stroke-dasharray="1,0.5" stroke="#333c"/>
<line x1="621.9576719576711" y1="470.8482617115442" x2="626.931216931216" y2="470.8482617115442" stroke-dasharray="1,0.5" stroke="#333c"/>
<line x1="624.4444444444435" y1="470.17174424846206" x2="624.4444444444435" y2="470.8482617115442" stroke-dasharray="1,0.5" stroke="#333c"/>
<line x1="619.4708994708986" y1="498.0" x2="619.4708994708986" y2="502.79999999999995" stroke="#000"/>
<text x="619.4708994708986" y="512.4" fill="#111" font-size="small" text-anchor="end" transform="rotate(-60, 619.4708994708986, 512.4)">
rack
</text>
<rect x="631.904761904761" y="479.2228275773544" width="4.973544973544974" height="18.777172422645602" fill="#785EF0" data-tooltip="1.10x baseline (CRuby 3.4.0dev)"/>
<line x1="631.904761904761" y1="479.20599216917776" x2="636.8783068783059" y2="479.20599216917776" stroke-dasharray="1,0.5" stroke="#333c"/>
<line x1="631.904761904761" y1="479.23966298553097" x2="636.8783068783059" y2="479.23966298553097" stroke-dasharray="1,0.5" stroke="#333c"/>
<line x1="634.3915343915335" y1="479.20599216917776" x2="634.3915343915335" y2="479.23966298553097" stroke-dasharray="1,0.5" stroke="#333c"/>
<rect x="636.8783068783059" y="477.05471060885554" width="4.973544973544974" height="20.945289391144478" fill="#FFB000" data-tooltip="1.22x baseline (YJIT 3.3.1)"/>
<line x1="636.8783068783059" y1="477.0317075740118" x2="641.8518518518509" y2="477.0317075740118" stroke-dasharray="1,0.5" stroke="#333c"/>
<line x1="636.8783068783059" y1="477.07771364369927" x2="641.8518518518509" y2="477.07771364369927" stroke-dasharray="1,0.5" stroke="#333c"/>
<line x1="639.3650793650785" y1="477.0317075740118" x2="639.3650793650785" y2="477.07771364369927" stroke-dasharray="1,0.5" stroke="#333c"/>
<rect x="641.8518518518509" y="475.88601554302045" width="4.973544973544974" height="22.11398445697942" fill="#DC267F" data-tooltip="1.29x baseline (YJIT 3.4.0dev)"/>
<line x1="641.8518518518509" y1="475.8660968186792" x2="646.8253968253958" y2="475.8660968186792" stroke-dasharray="1,0.5" stroke="#333c"/>
<line x1="641.8518518518509" y1="475.9059342673617" x2="646.8253968253958" y2="475.9059342673617" stroke-dasharray="1,0.5" stroke="#333c"/>
<line x1="644.3386243386234" y1="475.8660968186792" x2="644.3386243386234" y2="475.9059342673617" stroke-dasharray="1,0.5" stroke="#333c"/>
<line x1="639.3650793650785" y1="498.0" x2="639.3650793650785" y2="502.79999999999995" stroke="#000"/>
<text x="639.3650793650785" y="512.4" fill="#111" font-size="small" text-anchor="end" transform="rotate(-60, 639.3650793650785, 512.4)">
ruby-json
</text>
<rect x="651.7989417989409" y="480.9597351620041" width="4.973544973544974" height="17.040264837995785" fill="#785EF0" data-tooltip="1.00x baseline (CRuby 3.4.0dev)"/>
<line x1="651.7989417989409" y1="480.83677119445514" x2="656.7724867724858" y2="480.83677119445514" stroke-dasharray="1,0.5" stroke="#333c"/>
<line x1="651.7989417989409" y1="481.0826991295531" x2="656.7724867724858" y2="481.0826991295531" stroke-dasharray="1,0.5" stroke="#333c"/>
<line x1="654.2857142857133" y1="480.83677119445514" x2="654.2857142857133" y2="481.0826991295531" stroke-dasharray="1,0.5" stroke="#333c"/>
<rect x="656.7724867724858" y="468.2996235547073" width="4.973544973544974" height="29.70037644529263" fill="#FFB000" data-tooltip="1.73x baseline (YJIT 3.3.1)"/>
<line x1="656.7724867724858" y1="468.1372542854585" x2="661.7460317460308" y2="468.1372542854585" stroke-dasharray="1,0.5" stroke="#333c"/>
<line x1="656.7724867724858" y1="468.46199282395617" x2="661.7460317460308" y2="468.46199282395617" stroke-dasharray="1,0.5" stroke="#333c"/>
<line x1="659.2592592592583" y1="468.1372542854585" x2="659.2592592592583" y2="468.46199282395617" stroke-dasharray="1,0.5" stroke="#333c"/>
<rect x="661.7460317460308" y="466.5924051898671" width="4.973544973544974" height="31.40759481013284" fill="#DC267F" data-tooltip="1.83x baseline (YJIT 3.4.0dev)"/>
<line x1="661.7460317460308" y1="466.34077683893616" x2="666.7195767195757" y2="466.34077683893616" stroke-dasharray="1,0.5" stroke="#333c"/>
<line x1="661.7460317460308" y1="466.844033540798" x2="666.7195767195757" y2="466.844033540798" stroke-dasharray="1,0.5" stroke="#333c"/>
<line x1="664.2328042328032" y1="466.34077683893616" x2="664.2328042328032" y2="466.844033540798" stroke-dasharray="1,0.5" stroke="#333c"/>
<line x1="659.2592592592583" y1="498.0" x2="659.2592592592583" y2="502.79999999999995" stroke="#000"/>
<text x="659.2592592592583" y="512.4" fill="#111" font-size="small" text-anchor="end" transform="rotate(-60, 659.2592592592583, 512.4)">
rubykon
</text>
<rect x="671.6931216931207" y="480.3799741950935" width="4.973544973544974" height="17.620025804906376" fill="#785EF0" data-tooltip="1.03x baseline (CRuby 3.4.0dev)"/>
<line x1="671.6931216931207" y1="480.3064676502101" x2="676.6666666666656" y2="480.3064676502101" stroke-dasharray="1,0.5" stroke="#333c"/>
<line x1="671.6931216931207" y1="480.4534807399769" x2="676.6666666666656" y2="480.4534807399769" stroke-dasharray="1,0.5" stroke="#333c"/>
<line x1="674.1798941798933" y1="480.3064676502101" x2="674.1798941798933" y2="480.4534807399769" stroke-dasharray="1,0.5" stroke="#333c"/>
<rect x="676.6666666666656" y="446.6341930217112" width="4.973544973544974" height="51.365806978288745" fill="#FFB000" data-tooltip="3.00x baseline (YJIT 3.3.1)"/>
<line x1="676.6666666666656" y1="446.5216579544791" x2="681.6402116402106" y2="446.5216579544791" stroke-dasharray="1,0.5" stroke="#333c"/>
<line x1="676.6666666666656" y1="446.7467280889433" x2="681.6402116402106" y2="446.7467280889433" stroke-dasharray="1,0.5" stroke="#333c"/>
<line x1="679.1534391534382" y1="446.5216579544791" x2="679.1534391534382" y2="446.7467280889433" stroke-dasharray="1,0.5" stroke="#333c"/>
<rect x="681.6402116402106" y="439.3040701743968" width="4.973544973544974" height="58.69592982560311" fill="#DC267F" data-tooltip="3.43x baseline (YJIT 3.4.0dev)"/>
<line x1="681.6402116402106" y1="439.17725833813944" x2="686.6137566137555" y2="439.17725833813944" stroke-dasharray="1,0.5" stroke="#333c"/>
<line x1="681.6402116402106" y1="439.4308820106542" x2="686.6137566137555" y2="439.4308820106542" stroke-dasharray="1,0.5" stroke="#333c"/>
<line x1="684.1269841269832" y1="439.17725833813944" x2="684.1269841269832" y2="439.4308820106542" stroke-dasharray="1,0.5" stroke="#333c"/>
<line x1="679.1534391534382" y1="498.0" x2="679.1534391534382" y2="502.79999999999995" stroke="#000"/>
<text x="679.1534391534382" y="512.4" fill="#111" font-size="small" text-anchor="end" transform="rotate(-60, 679.1534391534382, 512.4)">
sudoku
</text>
<rect x="691.5873015873005" y="480.09232509433167" width="4.973544973544974" height="17.907674905668266" fill="#785EF0" data-tooltip="1.05x baseline (CRuby 3.4.0dev)"/>
<line x1="691.5873015873005" y1="480.0413782860801" x2="696.5608465608454" y2="480.0413782860801" stroke-dasharray="1,0.5" stroke="#333c"/>
<line x1="691.5873015873005" y1="480.14327190258325" x2="696.5608465608454" y2="480.14327190258325" stroke-dasharray="1,0.5" stroke="#333c"/>
<line x1="694.0740740740731" y1="480.0413782860801" x2="694.0740740740731" y2="480.14327190258325" stroke-dasharray="1,0.5" stroke="#333c"/>
<rect x="696.5608465608454" y="465.9919210281399" width="4.973544973544974" height="32.008078971860016" fill="#FFB000" data-tooltip="1.87x baseline (YJIT 3.3.1)"/>
<line x1="696.5608465608454" y1="465.9417304107133" x2="701.5343915343905" y2="465.9417304107133" stroke-dasharray="1,0.5" stroke="#333c"/>
<line x1="696.5608465608454" y1="466.0421116455666" x2="701.5343915343905" y2="466.0421116455666" stroke-dasharray="1,0.5" stroke="#333c"/>
<line x1="699.047619047618" y1="465.9417304107133" x2="699.047619047618" y2="466.0421116455666" stroke-dasharray="1,0.5" stroke="#333c"/>
<rect x="701.5343915343905" y="464.2068590406251" width="4.973544973544974" height="33.793140959374895" fill="#DC267F" data-tooltip="1.97x baseline (YJIT 3.4.0dev)"/>
<line x1="701.5343915343905" y1="464.14510214428213" x2="706.5079365079354" y2="464.14510214428213" stroke-dasharray="1,0.5" stroke="#333c"/>
<line x1="701.5343915343905" y1="464.2686159369681" x2="706.5079365079354" y2="464.2686159369681" stroke-dasharray="1,0.5" stroke="#333c"/>
<line x1="704.021164021163" y1="464.14510214428213" x2="704.021164021163" y2="464.2686159369681" stroke-dasharray="1,0.5" stroke="#333c"/>
<line x1="699.047619047618" y1="498.0" x2="699.047619047618" y2="502.79999999999995" stroke="#000"/>
<text x="699.047619047618" y="512.4" fill="#111" font-size="small" text-anchor="end" transform="rotate(-60, 699.047619047618, 512.4)">
tinygql
</text>
<rect x="711.4814814814804" y="482.6514983771593" width="4.973544973544974" height="15.348501622840654" fill="#785EF0" data-tooltip="0.90x baseline (CRuby 3.4.0dev)"/>
<line x1="711.4814814814804" y1="482.6236076500096" x2="716.4550264550253" y2="482.6236076500096" stroke-dasharray="1,0.5" stroke="#333c"/>
<line x1="711.4814814814804" y1="482.6793891043091" x2="716.4550264550253" y2="482.6793891043091" stroke-dasharray="1,0.5" stroke="#333c"/>
<line x1="713.968253968253" y1="482.6236076500096" x2="713.968253968253" y2="482.6793891043091" stroke-dasharray="1,0.5" stroke="#333c"/>
<rect x="716.4550264550253" y="426.26060517717355" width="4.973544973544974" height="71.73939482282648" fill="#FFB000" data-tooltip="4.19x baseline (YJIT 3.3.1)"/>
<line x1="716.4550264550253" y1="426.16719464349575" x2="721.4285714285703" y2="426.16719464349575" stroke-dasharray="1,0.5" stroke="#333c"/>
<line x1="716.4550264550253" y1="426.35401571085134" x2="721.4285714285703" y2="426.35401571085134" stroke-dasharray="1,0.5" stroke="#333c"/>
<line x1="718.9417989417979" y1="426.16719464349575" x2="718.9417989417979" y2="426.35401571085134" stroke-dasharray="1,0.5" stroke="#333c"/>
<rect x="721.4285714285703" y="424.1746422242234" width="4.973544973544974" height="73.82535777577655" fill="#DC267F" data-tooltip="4.31x baseline (YJIT 3.4.0dev)"/>
<line x1="721.4285714285703" y1="424.0801445117591" x2="726.4021164021153" y2="424.0801445117591" stroke-dasharray="1,0.5" stroke="#333c"/>
<line x1="721.4285714285703" y1="424.26913993668774" x2="726.4021164021153" y2="424.26913993668774" stroke-dasharray="1,0.5" stroke="#333c"/>
<line x1="723.9153439153429" y1="424.0801445117591" x2="723.9153439153429" y2="424.26913993668774" stroke-dasharray="1,0.5" stroke="#333c"/>
<line x1="718.9417989417979" y1="498.0" x2="718.9417989417979" y2="502.79999999999995" stroke="#000"/>
<text x="718.9417989417979" y="512.4" fill="#111" font-size="small" text-anchor="end" transform="rotate(-60, 718.9417989417979, 512.4)">
30k_ifelse
</text>
<rect x="731.3756613756602" y="480.7227732898067" width="4.973544973544974" height="17.277226710193318" fill="#785EF0" data-tooltip="1.01x baseline (CRuby 3.4.0dev)"/>
<line x1="731.3756613756602" y1="480.7056708365867" x2="736.3492063492052" y2="480.7056708365867" stroke-dasharray="1,0.5" stroke="#333c"/>
<line x1="731.3756613756602" y1="480.73987574302663" x2="736.3492063492052" y2="480.73987574302663" stroke-dasharray="1,0.5" stroke="#333c"/>
<line x1="733.8624338624328" y1="480.7056708365867" x2="733.8624338624328" y2="480.73987574302663" stroke-dasharray="1,0.5" stroke="#333c"/>
<rect x="736.3492063492052" y="402.601748096857" width="4.973544973544974" height="95.39825190314295" fill="#FFB000" data-tooltip="5.57x baseline (YJIT 3.3.1)"/>
<line x1="736.3492063492052" y1="402.54406421011475" x2="741.3227513227502" y2="402.54406421011475" stroke-dasharray="1,0.5" stroke="#333c"/>
<line x1="736.3492063492052" y1="402.6594319835993" x2="741.3227513227502" y2="402.6594319835993" stroke-dasharray="1,0.5" stroke="#333c"/>
<line x1="738.8359788359777" y1="402.54406421011475" x2="738.8359788359777" y2="402.6594319835993" stroke-dasharray="1,0.5" stroke="#333c"/>
<rect x="741.3227513227502" y="401.5231415487198" width="4.973544973544974" height="96.47685845128008" fill="#DC267F" data-tooltip="5.63x baseline (YJIT 3.4.0dev)"/>
<line x1="741.3227513227502" y1="401.453732275874" x2="746.2962962962952" y2="401.453732275874" stroke-dasharray="1,0.5" stroke="#333c"/>
<line x1="741.3227513227502" y1="401.5925508215656" x2="746.2962962962952" y2="401.5925508215656" stroke-dasharray="1,0.5" stroke="#333c"/>
<line x1="743.8095238095227" y1="401.453732275874" x2="743.8095238095227" y2="401.5925508215656" stroke-dasharray="1,0.5" stroke="#333c"/>
<line x1="738.8359788359777" y1="498.0" x2="738.8359788359777" y2="502.79999999999995" stroke="#000"/>
<text x="738.8359788359777" y="512.4" fill="#111" font-size="small" text-anchor="end" transform="rotate(-60, 738.8359788359777, 512.4)">
30k_methods
</text>
<rect x="751.2698412698401" y="481.3012132268229" width="4.973544973544974" height="16.69878677317705" fill="#785EF0" data-tooltip="0.98x baseline (CRuby 3.4.0dev)"/>
<line x1="751.2698412698401" y1="481.07563863675216" x2="756.2433862433851" y2="481.07563863675216" stroke-dasharray="1,0.5" stroke="#333c"/>
<line x1="751.2698412698401" y1="481.5267878168936" x2="756.2433862433851" y2="481.5267878168936" stroke-dasharray="1,0.5" stroke="#333c"/>
<line x1="753.7566137566126" y1="481.07563863675216" x2="753.7566137566126" y2="481.5267878168936" stroke-dasharray="1,0.5" stroke="#333c"/>
<rect x="756.2433862433851" y="398.88800274524107" width="4.973544973544974" height="99.11199725475889" fill="#FFB000" data-tooltip="5.79x baseline (YJIT 3.3.1)"/>
<line x1="756.2433862433851" y1="385.37131824111685" x2="761.21693121693" y2="385.37131824111685" stroke-dasharray="1,0.5" stroke="#333c"/>
<line x1="756.2433862433851" y1="412.4046872493653" x2="761.21693121693" y2="412.4046872493653" stroke-dasharray="1,0.5" stroke="#333c"/>
<line x1="758.7301587301575" y1="385.37131824111685" x2="758.7301587301575" y2="412.4046872493653" stroke-dasharray="1,0.5" stroke="#333c"/>
<rect x="761.21693121693" y="386.591963957066" width="4.973544973544974" height="111.40803604293387" fill="#DC267F" data-tooltip="6.51x baseline (YJIT 3.4.0dev)"/>
<line x1="761.21693121693" y1="371.14598130459433" x2="766.190476190475" y2="371.14598130459433" stroke-dasharray="1,0.5" stroke="#333c"/>
<line x1="761.21693121693" y1="402.03794660953776" x2="766.190476190475" y2="402.03794660953776" stroke-dasharray="1,0.5" stroke="#333c"/>
<line x1="763.7037037037026" y1="371.14598130459433" x2="763.7037037037026" y2="402.03794660953776" stroke-dasharray="1,0.5" stroke="#333c"/>
<line x1="758.7301587301575" y1="498.0" x2="758.7301587301575" y2="502.79999999999995" stroke="#000"/>
<text x="758.7301587301575" y="512.4" fill="#111" font-size="small" text-anchor="end" transform="rotate(-60, 758.7301587301575, 512.4)">
cfunc_itself
</text>
<rect x="771.1640211640199" y="480.41632388305874" width="4.973544973544974" height="17.583676116941263" fill="#785EF0" data-tooltip="1.03x baseline (CRuby 3.4.0dev)"/>
<line x1="771.1640211640199" y1="479.69325051746495" x2="776.1375661375649" y2="479.69325051746495" stroke-dasharray="1,0.5" stroke="#333c"/>
<line x1="771.1640211640199" y1="481.13939724865253" x2="776.1375661375649" y2="481.13939724865253" stroke-dasharray="1,0.5" stroke="#333c"/>
<line x1="773.6507936507925" y1="479.69325051746495" x2="773.6507936507925" y2="481.13939724865253" stroke-dasharray="1,0.5" stroke="#333c"/>
<rect x="776.1375661375649" y="420.66712948108994" width="4.973544973544974" height="77.33287051891004" fill="#FFB000" data-tooltip="4.52x baseline (YJIT 3.3.1)"/>
<line x1="776.1375661375649" y1="419.170260741038" x2="781.1111111111098" y2="419.170260741038" stroke-dasharray="1,0.5" stroke="#333c"/>
<line x1="776.1375661375649" y1="422.1639982211418" x2="781.1111111111098" y2="422.1639982211418" stroke-dasharray="1,0.5" stroke="#333c"/>
<line x1="778.6243386243375" y1="419.170260741038" x2="778.6243386243375" y2="422.1639982211418" stroke-dasharray="1,0.5" stroke="#333c"/>
<rect x="781.1111111111098" y="412.2856371637277" width="4.973544973544974" height="85.7143628362723" fill="#DC267F" data-tooltip="5.01x baseline (YJIT 3.4.0dev)"/>
<line x1="781.1111111111098" y1="409.1219780391968" x2="786.0846560846549" y2="409.1219780391968" stroke-dasharray="1,0.5" stroke="#333c"/>
<line x1="781.1111111111098" y1="415.4492962882586" x2="786.0846560846549" y2="415.4492962882586" stroke-dasharray="1,0.5" stroke="#333c"/>
<line x1="783.5978835978824" y1="409.1219780391968" x2="783.5978835978824" y2="415.4492962882586" stroke-dasharray="1,0.5" stroke="#333c"/>
<line x1="778.6243386243375" y1="498.0" x2="778.6243386243375" y2="502.79999999999995" stroke="#000"/>
<text x="778.6243386243375" y="512.4" fill="#111" font-size="small" text-anchor="end" transform="rotate(-60, 778.6243386243375, 512.4)">
fib
</text>
<rect x="791.0582010581998" y="481.04818067465135" width="4.973544973544974" height="16.951819325348602" fill="#785EF0" data-tooltip="0.99x baseline (CRuby 3.4.0dev)"/>
<line x1="791.0582010581998" y1="481.00026814301526" x2="796.0317460317448" y2="481.00026814301526" stroke-dasharray="1,0.5" stroke="#333c"/>
<line x1="791.0582010581998" y1="481.09609320628743" x2="796.0317460317448" y2="481.09609320628743" stroke-dasharray="1,0.5" stroke="#333c"/>
<line x1="793.5449735449723" y1="481.00026814301526" x2="793.5449735449723" y2="481.09609320628743" stroke-dasharray="1,0.5" stroke="#333c"/>
<rect x="796.0317460317448" y="410.87007257032985" width="4.973544973544974" height="87.12992742967009" fill="#FFB000" data-tooltip="5.09x baseline (YJIT 3.3.1)"/>
<line x1="796.0317460317448" y1="338.4563208158884" x2="801.0052910052897" y2="338.4563208158884" stroke-dasharray="1,0.5" stroke="#333c"/>
<line x1="796.0317460317448" y1="483.28382432477133" x2="801.0052910052897" y2="483.28382432477133" stroke-dasharray="1,0.5" stroke="#333c"/>
<line x1="798.5185185185173" y1="338.4563208158884" x2="798.5185185185173" y2="483.28382432477133" stroke-dasharray="1,0.5" stroke="#333c"/>
<rect x="801.0052910052897" y="403.36312539976865" width="4.973544973544974" height="94.6368746002313" fill="#DC267F" data-tooltip="5.53x baseline (YJIT 3.4.0dev)"/>
<line x1="801.0052910052897" y1="326.37845551298113" x2="805.9788359788347" y2="326.37845551298113" stroke-dasharray="1,0.5" stroke="#333c"/>
<line x1="801.0052910052897" y1="480.34779528655616" x2="805.9788359788347" y2="480.34779528655616" stroke-dasharray="1,0.5" stroke="#333c"/>
<line x1="803.4920634920622" y1="326.37845551298113" x2="803.4920634920622" y2="480.34779528655616" stroke-dasharray="1,0.5" stroke="#333c"/>
<line x1="798.5185185185173" y1="498.0" x2="798.5185185185173" y2="502.79999999999995" stroke="#000"/>
<text x="798.5185185185173" y="512.4" fill="#111" font-size="small" text-anchor="end" transform="rotate(-60, 798.5185185185173, 512.4)">
getivar
</text>
<rect x="810.9523809523796" y="483.3251165738692" width="4.973544973544974" height="14.674883426130712" fill="#785EF0" data-tooltip="0.86x baseline (CRuby 3.4.0dev)"/>
<line x1="810.9523809523796" y1="483.2574622426385" x2="815.9259259259246" y2="483.2574622426385" stroke-dasharray="1,0.5" stroke="#333c"/>
<line x1="810.9523809523796" y1="483.3927709050999" x2="815.9259259259246" y2="483.3927709050999" stroke-dasharray="1,0.5" stroke="#333c"/>
<line x1="813.4391534391522" y1="483.2574622426385" x2="813.4391534391522" y2="483.3927709050999" stroke-dasharray="1,0.5" stroke="#333c"/>
<rect x="815.9259259259246" y="360.5268791259229" width="4.973544973544974" height="137.47312087407707" fill="#FFB000" data-tooltip="8.03x baseline (YJIT 3.3.1)"/>
<line x1="815.9259259259246" y1="348.4630901892886" x2="820.8994708994695" y2="348.4630901892886" stroke-dasharray="1,0.5" stroke="#333c"/>
<line x1="815.9259259259246" y1="372.5906680625572" x2="820.8994708994695" y2="372.5906680625572" stroke-dasharray="1,0.5" stroke="#333c"/>
<line x1="818.4126984126972" y1="348.4630901892886" x2="818.4126984126972" y2="372.5906680625572" stroke-dasharray="1,0.5" stroke="#333c"/>
<rect x="820.8994708994695" y="335.725935826212" width="4.973544973544974" height="162.27406417378802" fill="#DC267F" data-tooltip="9.48x baseline (YJIT 3.4.0dev)"/>
<line x1="820.8994708994695" y1="308.4406190237299" x2="825.8730158730145" y2="308.4406190237299" stroke-dasharray="1,0.5" stroke="#333c"/>
<line x1="820.8994708994695" y1="363.011252628694" x2="825.8730158730145" y2="363.011252628694" stroke-dasharray="1,0.5" stroke="#333c"/>
<line x1="823.3862433862421" y1="308.4406190237299" x2="823.3862433862421" y2="363.011252628694" stroke-dasharray="1,0.5" stroke="#333c"/>
<line x1="818.4126984126972" y1="498.0" x2="818.4126984126972" y2="502.79999999999995" stroke="#000"/>
<text x="818.4126984126972" y="512.4" fill="#111" font-size="small" text-anchor="end" transform="rotate(-60, 818.4126984126972, 512.4)">
keyword_args
</text>
<rect x="830.8465608465596" y="479.03443641259804" width="4.973544973544974" height="18.96556358740195" fill="#785EF0" data-tooltip="1.11x baseline (CRuby 3.4.0dev)"/>
<line x1="830.8465608465596" y1="478.8063933180007" x2="835.8201058201045" y2="478.8063933180007" stroke-dasharray="1,0.5" stroke="#333c"/>
<line x1="830.8465608465596" y1="479.26247950719534" x2="835.8201058201045" y2="479.26247950719534" stroke-dasharray="1,0.5" stroke="#333c"/>
<line x1="833.333333333332" y1="478.8063933180007" x2="833.333333333332" y2="479.26247950719534" stroke-dasharray="1,0.5" stroke="#333c"/>
<rect x="835.8201058201045" y="153.59249380474353" width="4.973544973544974" height="344.4075061952565" fill="#FFB000" data-tooltip="20.11x baseline (YJIT 3.3.1)"/>
<line x1="835.8201058201045" y1="111.46648786223356" x2="840.7936507936495" y2="111.46648786223356" stroke-dasharray="1,0.5" stroke="#333c"/>
<line x1="835.8201058201045" y1="195.71849974725347" x2="840.7936507936495" y2="195.71849974725347" stroke-dasharray="1,0.5" stroke="#333c"/>
<line x1="838.306878306877" y1="111.46648786223356" x2="838.306878306877" y2="195.71849974725347" stroke-dasharray="1,0.5" stroke="#333c"/>
<rect x="840.7936507936495" y="100.19999999999999" width="4.973544973544974" height="397.79999999999995" fill="#DC267F" data-tooltip="23.23x baseline (YJIT 3.4.0dev)"/>
<line x1="840.7936507936495" y1="39.30977341932385" x2="845.7671957671944" y2="39.30977341932385" stroke-dasharray="1,0.5" stroke="#333c"/>
<line x1="840.7936507936495" y1="161.09022658067613" x2="845.7671957671944" y2="161.09022658067613" stroke-dasharray="1,0.5" stroke="#333c"/>
<line x1="843.2804232804219" y1="39.30977341932385" x2="843.2804232804219" y2="161.09022658067613" stroke-dasharray="1,0.5" stroke="#333c"/>
<line x1="838.306878306877" y1="498.0" x2="838.306878306877" y2="502.79999999999995" stroke="#000"/>
<text x="838.306878306877" y="512.4" fill="#111" font-size="small" text-anchor="end" transform="rotate(-60, 838.306878306877, 512.4)">
respond_to
</text>
<rect x="850.7407407407394" y="482.0843271577595" width="4.973544973544974" height="15.915672842240491" fill="#785EF0" data-tooltip="0.93x baseline (CRuby 3.4.0dev)"/>
<line x1="850.7407407407394" y1="481.42002650912394" x2="855.7142857142843" y2="481.42002650912394" stroke-dasharray="1,0.5" stroke="#333c"/>
<line x1="850.7407407407394" y1="482.74862780639506" x2="855.7142857142843" y2="482.74862780639506" stroke-dasharray="1,0.5" stroke="#333c"/>
<line x1="853.2275132275118" y1="481.42002650912394" x2="853.2275132275118" y2="482.74862780639506" stroke-dasharray="1,0.5" stroke="#333c"/>
<rect x="855.7142857142843" y="440.3006381273587" width="4.973544973544974" height="57.69936187264125" fill="#FFB000" data-tooltip="3.37x baseline (YJIT 3.3.1)"/>
<line x1="855.7142857142843" y1="439.35382176413907" x2="860.6878306878293" y2="439.35382176413907" stroke-dasharray="1,0.5" stroke="#333c"/>
<line x1="855.7142857142843" y1="441.2474544905783" x2="860.6878306878293" y2="441.2474544905783" stroke-dasharray="1,0.5" stroke="#333c"/>
<line x1="858.2010582010569" y1="439.35382176413907" x2="858.2010582010569" y2="441.2474544905783" stroke-dasharray="1,0.5" stroke="#333c"/>
<rect x="860.6878306878293" y="403.48128526776026" width="4.973544973544974" height="94.51871473223973" fill="#DC267F" data-tooltip="5.52x baseline (YJIT 3.4.0dev)"/>
<line x1="860.6878306878293" y1="401.9296781929415" x2="865.6613756613742" y2="401.9296781929415" stroke-dasharray="1,0.5" stroke="#333c"/>
<line x1="860.6878306878293" y1="405.0328923425791" x2="865.6613756613742" y2="405.0328923425791" stroke-dasharray="1,0.5" stroke="#333c"/>
<line x1="863.1746031746018" y1="401.9296781929415" x2="863.1746031746018" y2="405.0328923425791" stroke-dasharray="1,0.5" stroke="#333c"/>
<line x1="858.2010582010569" y1="498.0" x2="858.2010582010569" y2="502.79999999999995" stroke="#000"/>
<text x="858.2010582010569" y="512.4" fill="#111" font-size="small" text-anchor="end" transform="rotate(-60, 858.2010582010569, 512.4)">
ruby-xor
</text>
<rect x="870.6349206349192" y="481.03475756487296" width="4.973544973544974" height="16.965242435126957" fill="#785EF0" data-tooltip="0.99x baseline (CRuby 3.4.0dev)"/>
<line x1="870.6349206349192" y1="481.0299189346812" x2="875.6084656084641" y2="481.0299189346812" stroke-dasharray="1,0.5" stroke="#333c"/>
<line x1="870.6349206349192" y1="481.03959619506475" x2="875.6084656084641" y2="481.03959619506475" stroke-dasharray="1,0.5" stroke="#333c"/>
<line x1="873.1216931216917" y1="481.0299189346812" x2="873.1216931216917" y2="481.03959619506475" stroke-dasharray="1,0.5" stroke="#333c"/>
<rect x="875.6084656084641" y="404.5147917764871" width="4.973544973544974" height="93.4852082235129" fill="#FFB000" data-tooltip="5.46x baseline (YJIT 3.3.1)"/>
<line x1="875.6084656084641" y1="339.98851008285465" x2="880.5820105820092" y2="339.98851008285465" stroke-dasharray="1,0.5" stroke="#333c"/>
<line x1="875.6084656084641" y1="469.0410734701195" x2="880.5820105820092" y2="469.0410734701195" stroke-dasharray="1,0.5" stroke="#333c"/>
<line x1="878.0952380952367" y1="339.98851008285465" x2="878.0952380952367" y2="469.0410734701195" stroke-dasharray="1,0.5" stroke="#333c"/>
<rect x="880.5820105820092" y="394.6728549502369" width="4.973544973544974" height="103.32714504976309" fill="#DC267F" data-tooltip="6.03x baseline (YJIT 3.4.0dev)"/>
<line x1="880.5820105820092" y1="317.2964700729789" x2="885.5555555555541" y2="317.2964700729789" stroke-dasharray="1,0.5" stroke="#333c"/>
<line x1="880.5820105820092" y1="472.04923982749494" x2="885.5555555555541" y2="472.04923982749494" stroke-dasharray="1,0.5" stroke="#333c"/>
<line x1="883.0687830687817" y1="317.2964700729789" x2="883.0687830687817" y2="472.04923982749494" stroke-dasharray="1,0.5" stroke="#333c"/>
<line x1="878.0952380952367" y1="498.0" x2="878.0952380952367" y2="502.79999999999995" stroke="#000"/>
<text x="878.0952380952367" y="512.4" fill="#111" font-size="small" text-anchor="end" transform="rotate(-60, 878.0952380952367, 512.4)">
setivar
</text>
<rect x="890.5291005290991" y="481.21079172794106" width="4.973544973544974" height="16.789208272058943" fill="#785EF0" data-tooltip="0.98x baseline (CRuby 3.4.0dev)"/>
<line x1="890.5291005290991" y1="481.20163482512197" x2="895.502645502644" y2="481.20163482512197" stroke-dasharray="1,0.5" stroke="#333c"/>
<line x1="890.5291005290991" y1="481.2199486307601" x2="895.502645502644" y2="481.2199486307601" stroke-dasharray="1,0.5" stroke="#333c"/>
<line x1="893.0158730158716" y1="481.20163482512197" x2="893.0158730158716" y2="481.2199486307601" stroke-dasharray="1,0.5" stroke="#333c"/>
<rect x="895.502645502644" y="458.36961259857037" width="4.973544973544974" height="39.63038740142961" fill="#FFB000" data-tooltip="2.31x baseline (YJIT 3.3.1)"/>
<line x1="895.502645502644" y1="441.7650692876514" x2="900.476190476189" y2="441.7650692876514" stroke-dasharray="1,0.5" stroke="#333c"/>
<line x1="895.502645502644" y1="474.97415590948935" x2="900.476190476189" y2="474.97415590948935" stroke-dasharray="1,0.5" stroke="#333c"/>
<line x1="897.9894179894166" y1="441.7650692876514" x2="897.9894179894166" y2="474.97415590948935" stroke-dasharray="1,0.5" stroke="#333c"/>
<rect x="900.476190476189" y="457.5937774360062" width="4.973544973544974" height="40.406222563993786" fill="#DC267F" data-tooltip="2.36x baseline (YJIT 3.4.0dev)"/>
<line x1="900.476190476189" y1="439.67268169524164" x2="905.4497354497339" y2="439.67268169524164" stroke-dasharray="1,0.5" stroke="#333c"/>
<line x1="900.476190476189" y1="475.5148731767707" x2="905.4497354497339" y2="475.5148731767707" stroke-dasharray="1,0.5" stroke="#333c"/>
<line x1="902.9629629629616" y1="439.67268169524164" x2="902.9629629629616" y2="475.5148731767707" stroke-dasharray="1,0.5" stroke="#333c"/>
<line x1="897.9894179894166" y1="498.0" x2="897.9894179894166" y2="502.79999999999995" stroke="#000"/>
<text x="897.9894179894166" y="512.4" fill="#111" font-size="small" text-anchor="end" transform="rotate(-60, 897.9894179894166, 512.4)">
setivar_object
</text>
<rect x="910.4232804232789" y="481.1654913457059" width="4.973544973544974" height="16.8345086542941" fill="#785EF0" data-tooltip="0.98x baseline (CRuby 3.4.0dev)"/>
<line x1="910.4232804232789" y1="481.1466218746735" x2="915.3968253968238" y2="481.1466218746735" stroke-dasharray="1,0.5" stroke="#333c"/>
<line x1="910.4232804232789" y1="481.1843608167383" x2="915.3968253968238" y2="481.1843608167383" stroke-dasharray="1,0.5" stroke="#333c"/>
<line x1="912.9100529100515" y1="481.1466218746735" x2="912.9100529100515" y2="481.1843608167383" stroke-dasharray="1,0.5" stroke="#333c"/>
<rect x="915.3968253968238" y="458.2313181808334" width="4.973544973544974" height="39.76868181916651" fill="#FFB000" data-tooltip="2.32x baseline (YJIT 3.3.1)"/>
<line x1="915.3968253968238" y1="441.41647502956806" x2="920.3703703703688" y2="441.41647502956806" stroke-dasharray="1,0.5" stroke="#333c"/>
<line x1="915.3968253968238" y1="475.0461613320987" x2="920.3703703703688" y2="475.0461613320987" stroke-dasharray="1,0.5" stroke="#333c"/>
<line x1="917.8835978835964" y1="441.41647502956806" x2="917.8835978835964" y2="475.0461613320987" stroke-dasharray="1,0.5" stroke="#333c"/>
<rect x="920.3703703703688" y="457.44521065451784" width="4.973544973544974" height="40.55478934548208" fill="#DC267F" data-tooltip="2.37x baseline (YJIT 3.4.0dev)"/>
<line x1="920.3703703703688" y1="439.3314615581405" x2="925.3439153439137" y2="439.3314615581405" stroke-dasharray="1,0.5" stroke="#333c"/>
<line x1="920.3703703703688" y1="475.5589597508952" x2="925.3439153439137" y2="475.5589597508952" stroke-dasharray="1,0.5" stroke="#333c"/>
<line x1="922.8571428571414" y1="439.3314615581405" x2="922.8571428571414" y2="475.5589597508952" stroke-dasharray="1,0.5" stroke="#333c"/>
<line x1="917.8835978835964" y1="498.0" x2="917.8835978835964" y2="502.79999999999995" stroke="#000"/>
<text x="917.8835978835964" y="512.4" fill="#111" font-size="small" text-anchor="end" transform="rotate(-60, 917.8835978835964, 512.4)">
setivar_young
</text>
<rect x="930.3174603174588" y="482.3912046983942" width="4.973544973544974" height="15.608795301605742" fill="#785EF0" data-tooltip="0.91x baseline (CRuby 3.4.0dev)"/>
<line x1="930.3174603174588" y1="482.07876632582366" x2="935.2910052910038" y2="482.07876632582366" stroke-dasharray="1,0.5" stroke="#333c"/>
<line x1="930.3174603174588" y1="482.70364307096474" x2="935.2910052910038" y2="482.70364307096474" stroke-dasharray="1,0.5" stroke="#333c"/>
<line x1="932.8042328042313" y1="482.07876632582366" x2="932.8042328042313" y2="482.70364307096474" stroke-dasharray="1,0.5" stroke="#333c"/>
<rect x="935.2910052910038" y="461.53489671758473" width="4.973544973544974" height="36.46510328241514" fill="#FFB000" data-tooltip="2.13x baseline (YJIT 3.3.1)"/>
<line x1="935.2910052910038" y1="460.9937023988097" x2="940.2645502645487" y2="460.9937023988097" stroke-dasharray="1,0.5" stroke="#333c"/>
<line x1="935.2910052910038" y1="462.07609103635974" x2="940.2645502645487" y2="462.07609103635974" stroke-dasharray="1,0.5" stroke="#333c"/>
<line x1="937.7777777777762" y1="460.9937023988097" x2="937.7777777777762" y2="462.07609103635974" stroke-dasharray="1,0.5" stroke="#333c"/>
<rect x="940.2645502645487" y="463.61669797883656" width="4.973544973544974" height="34.38330202116338" fill="#DC267F" data-tooltip="2.01x baseline (YJIT 3.4.0dev)"/>
<line x1="940.2645502645487" y1="463.3147608980455" x2="945.2380952380937" y2="463.3147608980455" stroke-dasharray="1,0.5" stroke="#333c"/>
<line x1="940.2645502645487" y1="463.91863505962755" x2="945.2380952380937" y2="463.91863505962755" stroke-dasharray="1,0.5" stroke="#333c"/>
<line x1="942.7513227513213" y1="463.3147608980455" x2="942.7513227513213" y2="463.91863505962755" stroke-dasharray="1,0.5" stroke="#333c"/>
<line x1="937.7777777777762" y1="498.0" x2="937.7777777777762" y2="502.79999999999995" stroke="#000"/>
<text x="937.7777777777762" y="512.4" fill="#111" font-size="small" text-anchor="end" transform="rotate(-60, 937.7777777777762, 512.4)">
str_concat
</text>
<rect x="950.2116402116386" y="482.29716435355226" width="4.973544973544974" height="15.702835646447678" fill="#785EF0" data-tooltip="0.92x baseline (CRuby 3.4.0dev)"/>
<line x1="950.2116402116386" y1="482.2423663487076" x2="955.1851851851836" y2="482.2423663487076" stroke-dasharray="1,0.5" stroke="#333c"/>
<line x1="950.2116402116386" y1="482.35196235839686" x2="955.1851851851836" y2="482.35196235839686" stroke-dasharray="1,0.5" stroke="#333c"/>
<line x1="952.6984126984112" y1="482.2423663487076" x2="952.6984126984112" y2="482.35196235839686" stroke-dasharray="1,0.5" stroke="#333c"/>
<rect x="955.1851851851836" y="476.9964425733711" width="4.973544973544974" height="21.0035574266288" fill="#FFB000" data-tooltip="1.23x baseline (YJIT 3.3.1)"/>
<line x1="955.1851851851836" y1="476.92621351055095" x2="960.1587301587285" y2="476.92621351055095" stroke-dasharray="1,0.5" stroke="#333c"/>
<line x1="955.1851851851836" y1="477.0666716361912" x2="960.1587301587285" y2="477.0666716361912" stroke-dasharray="1,0.5" stroke="#333c"/>
<line x1="957.6719576719561" y1="476.92621351055095" x2="957.6719576719561" y2="477.0666716361912" stroke-dasharray="1,0.5" stroke="#333c"/>
<rect x="960.1587301587285" y="475.96955923377357" width="4.973544973544974" height="22.030440766226437" fill="#DC267F" data-tooltip="1.29x baseline (YJIT 3.4.0dev)"/>
<line x1="960.1587301587285" y1="475.8920156639484" x2="965.1322751322735" y2="475.8920156639484" stroke-dasharray="1,0.5" stroke="#333c"/>
<line x1="960.1587301587285" y1="476.0471028035987" x2="965.1322751322735" y2="476.0471028035987" stroke-dasharray="1,0.5" stroke="#333c"/>
<line x1="962.6455026455011" y1="475.8920156639484" x2="962.6455026455011" y2="476.0471028035987" stroke-dasharray="1,0.5" stroke="#333c"/>
<line x1="957.6719576719561" y1="498.0" x2="957.6719576719561" y2="502.79999999999995" stroke="#000"/>
<text x="957.6719576719561" y="512.4" fill="#111" font-size="small" text-anchor="end" transform="rotate(-60, 957.6719576719561, 512.4)">
throw
</text>
<rect x="970.1058201058185" y="480.638547167022" width="4.973544973544974" height="17.36145283297786" fill="#785EF0" data-tooltip="1.01x baseline (CRuby 3.4.0dev)"/>
<rect x="975.0793650793635" y="462.4319872508004" width="4.973544973544974" height="35.56801274919958" fill="#FFB000" data-tooltip="2.08x baseline (YJIT 3.3.1)"/>
<rect x="980.0529100529084" y="457.72527515454954" width="4.973544973544974" height="40.2747248454504" fill="#DC267F" data-tooltip="2.35x baseline (YJIT 3.4.0dev)"/>
<line x1="977.5661375661359" y1="498.0" x2="977.5661375661359" y2="502.79999999999995" stroke="#000"/>
<text x="977.5661375661359" y="512.4" fill="#111" font-size="small" text-anchor="end" transform="rotate(-60, 977.5661375661359, 512.4)" font-style="italic">
geomean*
</text>
<line x1="50.0" y1="480.8758567708069" x2="990.0" y2="480.8758567708069" stroke="#648FFF" stroke-width="2"/>
</svg>