<svg viewBox="0 0 1000 600" xmlns="http://www.w3.org/2000/svg" xmlns:xlink="http://www.w3.org/1999/xlink" width="100%" height="100%">

<rect x="50.0" y="30.0" width="940.0" height="467.99999999999994" stroke="#000" fill="#fff"/>
<line x1="42.0" y1="497.9999999999999" x2="50.0" y2="497.9999999999999" stroke="#000"/>
<text x="26.000000000000004" y="497.9999999999999" text-anchor="end" font-weight="bold" font-size="small" fill="#111">
0.0
</text>
<line x1="42.0" y1="428.3921432123322" x2="50.0" y2="428.3921432123322" stroke="#000"/>
<text x="26.000000000000004" y="428.3921432123322" text-anchor="end" font-weight="bold" font-size="small" fill="#111">
2.0
</text>
<line x1="42.0" y1="358.78428642466434" x2="50.0" y2="358.78428642466434" stroke="#000"/>
<text x="26.000000000000004" y="358.78428642466434" text-anchor="end" font-weight="bold" font-size="small" fill="#111">
4.0
</text>
<line x1="42.0" y1="289.1764296369965" x2="50.0" y2="289.1764296369965" stroke="#000"/>
<text x="26.000000000000004" y="289.1764296369965" text-anchor="end" font-weight="bold" font-size="small" fill="#111">
6.0
</text>
<line x1="42.0" y1="219.56857284932863" x2="50.0" y2="219.56857284932863" stroke="#000"/>
<text x="26.000000000000004" y="219.56857284932863" text-anchor="end" font-weight="bold" font-size="small" fill="#111">
8.0
</text>
<line x1="42.0" y1="149.96071606166083" x2="50.0" y2="149.96071606166083" stroke="#000"/>
<text x="26.000000000000004" y="149.96071606166083" text-anchor="end" font-weight="bold" font-size="small" fill="#111">
10.0
</text>
<line x1="178.0" y1="54.60000000000001" x2="298.0" y2="54.60000000000001" stroke="#648FFF" stroke-width="2"/>
<text x="238.0" y="49.500000000000014" font-size="small" text-anchor="middle" font-weight="bold" fill="#000">
CRuby 3.2.0dev
</text>
<rect x="459.9999999999999" y="35.400000000000006" width="120.0" height="19.2" fill="#785EF0" stroke="none"/>
<text x="519.9999999999999" y="49.500000000000014" font-size="small" text-anchor="middle" font-weight="bold" fill="#fff" style="text-shadow: 0 0 1px #000;">
MJIT
</text>
<rect x="742.0" y="35.400000000000006" width="120.0" height="19.2" fill="#FFB000" stroke="none"/>
<text x="801.9999999999999" y="49.500000000000014" font-size="small" text-anchor="middle" font-weight="bold" fill="#fff" style="text-shadow: 0 0 1px #000;">
YJIT 3.2.0dev
</text>
<rect x="80.3225806451613" y="442.5710240574509" width="30.32258064516129" height="55.42897594254904" fill="#785EF0" data-tooltip="1.59x baseline (MJIT)"/>
<rect x="110.64516129032258" y="302.66942621244084" width="30.32258064516129" height="195.3305737875591" fill="#FFB000" data-tooltip="5.61x baseline (YJIT 3.2.0dev)"/>
<line x1="110.64516129032258" y1="498.0" x2="110.64516129032258" y2="502.79999999999995" stroke="#000"/>
<text x="110.64516129032258" y="512.4" fill="#111" font-size="small" text-anchor="end" transform="rotate(-60, 110.64516129032258, 512.4)">
30k_ifelse
</text>
<rect x="171.29032258064512" y="410.6377727372517" width="30.32258064516129" height="87.3622272627482" fill="#785EF0" data-tooltip="2.51x baseline (MJIT)"/>
<rect x="201.61290322580643" y="298.7823607318951" width="30.32258064516129" height="199.21763926810485" fill="#FFB000" data-tooltip="5.72x baseline (YJIT 3.2.0dev)"/>
<line x1="201.61290322580643" y1="498.0" x2="201.61290322580643" y2="502.79999999999995" stroke="#000"/>
<text x="201.61290322580643" y="512.4" fill="#111" font-size="small" text-anchor="end" transform="rotate(-60, 201.61290322580643, 512.4)">
30k_methods
</text>
<rect x="262.258064516129" y="387.1756700851476" width="30.32258064516129" height="110.82432991485234" fill="#785EF0" data-tooltip="3.18x baseline (MJIT)"/>
<rect x="292.58064516129036" y="102.48145143652481" width="30.32258064516129" height="395.5185485634752" fill="#FFB000" data-tooltip="11.36x baseline (YJIT 3.2.0dev)"/>
<line x1="292.58064516129036" y1="498.0" x2="292.58064516129036" y2="502.79999999999995" stroke="#000"/>
<text x="292.58064516129036" y="512.4" fill="#111" font-size="small" text-anchor="end" transform="rotate(-60, 292.58064516129036, 512.4)">
cfunc_itself
</text>
<rect x="353.2258064516129" y="459.57532713337264" width="30.32258064516129" height="38.42467286662724" fill="#785EF0" data-tooltip="1.10x baseline (MJIT)"/>
<rect x="383.54838709677426" y="103.76057018843173" width="30.32258064516129" height="394.2394298115682" fill="#FFB000" data-tooltip="11.33x baseline (YJIT 3.2.0dev)"/>
<line x1="383.54838709677426" y1="498.0" x2="383.54838709677426" y2="502.79999999999995" stroke="#000"/>
<text x="383.54838709677426" y="512.4" fill="#111" font-size="small" text-anchor="end" transform="rotate(-60, 383.54838709677426, 512.4)">
fib
</text>
<rect x="444.1935483870968" y="459.84200090988924" width="30.32258064516129" height="38.15799909011078" fill="#785EF0" data-tooltip="1.10x baseline (MJIT)"/>
<rect x="474.51612903225816" y="104.96087537409234" width="30.32258064516129" height="393.0391246259076" fill="#FFB000" data-tooltip="11.29x baseline (YJIT 3.2.0dev)"/>
<line x1="474.5161290322581" y1="498.0" x2="474.5161290322581" y2="502.79999999999995" stroke="#000"/>
<text x="474.5161290322581" y="512.4" fill="#111" font-size="small" text-anchor="end" transform="rotate(-60, 474.5161290322581, 512.4)">
getivar
</text>
<rect x="535.1612903225806" y="460.0651288741358" width="30.32258064516129" height="37.934871125864184" fill="#785EF0" data-tooltip="1.09x baseline (MJIT)"/>
<rect x="565.4838709677418" y="100.19999999999999" width="30.32258064516129" height="397.79999999999995" fill="#FFB000" data-tooltip="11.43x baseline (YJIT 3.2.0dev)"/>
<line x1="565.4838709677418" y1="498.0" x2="565.4838709677418" y2="502.79999999999995" stroke="#000"/>
<text x="565.4838709677418" y="512.4" fill="#111" font-size="small" text-anchor="end" transform="rotate(-60, 565.4838709677418, 512.4)">
keyword_args
</text>
<rect x="626.1290322580644" y="458.49803580308304" width="30.32258064516129" height="39.50196419691695" fill="#785EF0" data-tooltip="1.13x baseline (MJIT)"/>
<rect x="656.4516129032256" y="102.70340462671875" width="30.32258064516129" height="395.2965953732812" fill="#FFB000" data-tooltip="11.36x baseline (YJIT 3.2.0dev)"/>
<line x1="656.4516129032256" y1="498.0" x2="656.4516129032256" y2="502.79999999999995" stroke="#000"/>
<text x="656.4516129032256" y="512.4" fill="#111" font-size="small" text-anchor="end" transform="rotate(-60, 656.4516129032256, 512.4)">
respond_to
</text>
<rect x="717.0967741935481" y="459.29073438055525" width="30.32258064516129" height="38.709265619444594" fill="#785EF0" data-tooltip="1.11x baseline (MJIT)"/>
<rect x="747.4193548387094" y="105.06641366238607" width="30.32258064516129" height="392.93358633761386" fill="#FFB000" data-tooltip="11.29x baseline (YJIT 3.2.0dev)"/>
<line x1="747.4193548387094" y1="498.0" x2="747.4193548387094" y2="502.79999999999995" stroke="#000"/>
<text x="747.4193548387094" y="512.4" fill="#111" font-size="small" text-anchor="end" transform="rotate(-60, 747.4193548387094, 512.4)">
setivar
</text>
<rect x="808.0645161290319" y="460.20311811288104" width="30.32258064516129" height="37.7968818871189" fill="#785EF0" data-tooltip="1.09x baseline (MJIT)"/>
<rect x="838.3870967741931" y="391.3145793605148" width="30.32258064516129" height="106.6854206394851" fill="#FFB000" data-tooltip="3.07x baseline (YJIT 3.2.0dev)"/>
<line x1="838.3870967741931" y1="498.0" x2="838.3870967741931" y2="502.79999999999995" stroke="#000"/>
<text x="838.3870967741931" y="512.4" fill="#111" font-size="small" text-anchor="end" transform="rotate(-60, 838.3870967741931, 512.4)">
str_concat
</text>
<rect x="899.0322580645156" y="448.6848951367825" width="30.32258064516129" height="49.315104863217414" fill="#785EF0" data-tooltip="1.42x baseline (MJIT)"/>
<rect x="929.3548387096769" y="205.399708423523" width="30.32258064516129" height="292.60029157647693" fill="#FFB000" data-tooltip="8.41x baseline (YJIT 3.2.0dev)"/>
<line x1="929.3548387096769" y1="498.0" x2="929.3548387096769" y2="502.79999999999995" stroke="#000"/>
<text x="929.3548387096769" y="512.4" fill="#111" font-size="small" text-anchor="end" transform="rotate(-60, 929.3548387096769, 512.4)" font-style="italic">
geomean*
</text>
<line x1="50.0" y1="463.1960716061661" x2="990.0" y2="463.1960716061661" stroke="#648FFF" stroke-width="2"/>
</svg>