<svg viewBox="0 0 1000 600" xmlns="http://www.w3.org/2000/svg" xmlns:xlink="http://www.w3.org/1999/xlink" width="100%" height="100%">

<rect x="50.0" y="30.0" width="940.0" height="467.99999999999994" stroke="#000" fill="#fff"/>
<line x1="42.0" y1="497.9999999999999" x2="50.0" y2="497.9999999999999" stroke="#000"/>
<text x="26.000000000000004" y="497.9999999999999" text-anchor="end" font-weight="bold" font-size="small" fill="#111">
0.0
</text>
<line x1="42.0" y1="448.3441035311135" x2="50.0" y2="448.3441035311135" stroke="#000"/>
<text x="26.000000000000004" y="448.3441035311135" text-anchor="end" font-weight="bold" font-size="small" fill="#111">
0.2
</text>
<line x1="42.0" y1="398.6882070622271" x2="50.0" y2="398.6882070622271" stroke="#000"/>
<text x="26.000000000000004" y="398.6882070622271" text-anchor="end" font-weight="bold" font-size="small" fill="#111">
0.4
</text>
<line x1="42.0" y1="349.03231059334064" x2="50.0" y2="349.03231059334064" stroke="#000"/>
<text x="26.000000000000004" y="349.03231059334064" text-anchor="end" font-weight="bold" font-size="small" fill="#111">
0.6
</text>
<line x1="42.0" y1="299.37641412445424" x2="50.0" y2="299.37641412445424" stroke="#000"/>
<text x="26.000000000000004" y="299.37641412445424" text-anchor="end" font-weight="bold" font-size="small" fill="#111">
0.8
</text>
<line x1="42.0" y1="249.72051765556787" x2="50.0" y2="249.72051765556787" stroke="#000"/>
<text x="26.000000000000004" y="249.72051765556787" text-anchor="end" font-weight="bold" font-size="small" fill="#111">
1.0
</text>
<line x1="42.0" y1="200.06462118668142" x2="50.0" y2="200.06462118668142" stroke="#000"/>
<text x="26.000000000000004" y="200.06462118668142" text-anchor="end" font-weight="bold" font-size="small" fill="#111">
1.2
</text>
<line x1="42.0" y1="150.40872471779505" x2="50.0" y2="150.40872471779505" stroke="#000"/>
<text x="26.000000000000004" y="150.40872471779505" text-anchor="end" font-weight="bold" font-size="small" fill="#111">
1.4
</text>
<line x1="42.0" y1="100.75282824890864" x2="50.0" y2="100.75282824890864" stroke="#000"/>
<text x="26.000000000000004" y="100.75282824890864" text-anchor="end" font-weight="bold" font-size="small" fill="#111">
1.6
</text>
<line x1="248.5" y1="54.60000000000001" x2="368.5" y2="54.60000000000001" stroke="#648FFF" stroke-width="2"/>
<text x="308.5" y="49.500000000000014" font-size="small" text-anchor="middle" font-weight="bold" fill="#000">
CRuby 3.2.0dev
</text>
<rect x="671.5" y="35.400000000000006" width="120.0" height="19.2" fill="#785EF0" stroke="none"/>
<text x="731.4999999999999" y="49.500000000000014" font-size="small" text-anchor="middle" font-weight="bold" fill="#fff" style="text-shadow: 0 0 1px #000;">
YJIT 3.2.0dev
</text>
<rect x="105.29411764705881" y="163.89846687048515" width="55.29411764705882" height="334.1015331295148" fill="#785EF0" data-tooltip="1.35x baseline (YJIT 3.2.0dev)"/>
<line x1="132.94117647058823" y1="498.0" x2="132.94117647058823" y2="502.79999999999995" stroke="#000"/>
<text x="132.94117647058823" y="512.4" fill="#111" font-size="small" text-anchor="end" transform="rotate(-60, 132.94117647058823, 512.4)">
activerecord
</text>
<rect x="215.88235294117646" y="143.58920785924025" width="55.29411764705882" height="354.41079214075967" fill="#785EF0" data-tooltip="1.43x baseline (YJIT 3.2.0dev)"/>
<line x1="243.52941176470588" y1="498.0" x2="243.52941176470588" y2="502.79999999999995" stroke="#000"/>
<text x="243.52941176470588" y="512.4" fill="#111" font-size="small" text-anchor="end" transform="rotate(-60, 243.52941176470588, 512.4)">
hexapdf
</text>
<rect x="326.47058823529414" y="193.1608275243195" width="55.29411764705882" height="304.8391724756804" fill="#785EF0" data-tooltip="1.23x baseline (YJIT 3.2.0dev)"/>
<line x1="354.11764705882354" y1="498.0" x2="354.11764705882354" y2="502.79999999999995" stroke="#000"/>
<text x="354.11764705882354" y="512.4" fill="#111" font-size="small" text-anchor="end" transform="rotate(-60, 354.11764705882354, 512.4)">
liquid-render
</text>
<rect x="437.05882352941177" y="190.7850920143654" width="55.29411764705882" height="307.2149079856345" fill="#785EF0" data-tooltip="1.24x baseline (YJIT 3.2.0dev)"/>
<line x1="464.7058823529412" y1="498.0" x2="464.7058823529412" y2="502.79999999999995" stroke="#000"/>
<text x="464.7058823529412" y="512.4" fill="#111" font-size="small" text-anchor="end" transform="rotate(-60, 464.7058823529412, 512.4)">
mail
</text>
<rect x="547.6470588235294" y="188.0690349773027" width="55.29411764705882" height="309.93096502269725" fill="#785EF0" data-tooltip="1.25x baseline (YJIT 3.2.0dev)"/>
<line x1="575.2941176470588" y1="498.0" x2="575.2941176470588" y2="502.79999999999995" stroke="#000"/>
<text x="575.2941176470588" y="512.4" fill="#111" font-size="small" text-anchor="end" transform="rotate(-60, 575.2941176470588, 512.4)">
psych-load
</text>
<rect x="658.2352941176471" y="113.10031003819317" width="55.29411764705882" height="384.8996899618068" fill="#785EF0" data-tooltip="1.55x baseline (YJIT 3.2.0dev)"/>
<line x1="685.8823529411764" y1="498.0" x2="685.8823529411764" y2="502.79999999999995" stroke="#000"/>
<text x="685.8823529411764" y="512.4" fill="#111" font-size="small" text-anchor="end" transform="rotate(-60, 685.8823529411764, 512.4)">
railsbench
</text>
<rect x="768.8235294117646" y="100.19999999999999" width="55.29411764705882" height="397.79999999999995" fill="#785EF0" data-tooltip="1.60x baseline (YJIT 3.2.0dev)"/>
<line x1="796.470588235294" y1="498.0" x2="796.470588235294" y2="502.79999999999995" stroke="#000"/>
<text x="796.470588235294" y="512.4" fill="#111" font-size="small" text-anchor="end" transform="rotate(-60, 796.470588235294, 512.4)">
ruby-lsp
</text>
<rect x="879.4117647058823" y="157.9079034674306" width="55.29411764705882" height="340.0920965325693" fill="#785EF0" data-tooltip="1.37x baseline (YJIT 3.2.0dev)"/>
<line x1="907.0588235294117" y1="498.0" x2="907.0588235294117" y2="502.79999999999995" stroke="#000"/>
<text x="907.0588235294117" y="512.4" fill="#111" font-size="small" text-anchor="end" transform="rotate(-60, 907.0588235294117, 512.4)" font-style="italic">
geomean*
</text>
<line x1="50.0" y1="249.72051765556787" x2="990.0" y2="249.72051765556787" stroke="#648FFF" stroke-width="2"/>
</svg>