<svg viewBox="0 0 1000 600" xmlns="http://www.w3.org/2000/svg" xmlns:xlink="http://www.w3.org/1999/xlink" width="100%" height="100%">

<rect x="50.0" y="30.0" width="940.0" height="467.99999999999994" stroke="#000" fill="#EEE"/>
<line x1="42.0" y1="497.9999999999999" x2="50.0" y2="497.9999999999999" stroke="#000"/>
<text x="26.000000000000004" y="497.9999999999999" text-anchor="end" font-weight="bold" font-size="small" fill="#111">
0.0
</text>
<line x1="42.0" y1="404.06326103233073" x2="50.0" y2="404.06326103233073" stroke="#000"/>
<text x="26.000000000000004" y="404.06326103233073" text-anchor="end" font-weight="bold" font-size="small" fill="#111">
5.0
</text>
<line x1="42.0" y1="310.12652206466163" x2="50.0" y2="310.12652206466163" stroke="#000"/>
<text x="26.000000000000004" y="310.12652206466163" text-anchor="end" font-weight="bold" font-size="small" fill="#111">
10.0
</text>
<line x1="42.0" y1="216.18978309699241" x2="50.0" y2="216.18978309699241" stroke="#000"/>
<text x="26.000000000000004" y="216.18978309699241" text-anchor="end" font-weight="bold" font-size="small" fill="#111">
15.0
</text>
<line x1="42.0" y1="122.25304412932324" x2="50.0" y2="122.25304412932324" stroke="#000"/>
<text x="26.000000000000004" y="122.25304412932324" text-anchor="end" font-weight="bold" font-size="small" fill="#111">
20.0
</text>
<rect x="268.5" y="36.00000000000001" width="80.0" height="18.0" fill="#7070f8" stroke="#888"/>
<text x="308.5" y="52.50000000000001" font-size="small" text-anchor="middle" font-weight="bold" fill="#EEE">
No JIT
</text>
<rect x="691.4999999999999" y="36.00000000000001" width="80.0" height="18.0" fill="orange" stroke="#888"/>
<text x="731.4999999999999" y="52.50000000000001" font-size="small" text-anchor="middle" font-weight="bold" fill="#EEE">
YJIT
</text>
<rect x="97.0" y="479.2126522064661" width="6.266666666666667" height="18.787347793533836" fill="#7070f8" data-tooltip="1.00x baseline speed (No JIT)"/>
<line x1="97.0" y1="479.10257332828195" x2="103.26666666666668" y2="479.10257332828195" stroke="#000"/>
<line x1="97.0" y1="479.3227310846503" x2="103.26666666666668" y2="479.3227310846503" stroke="#000"/>
<line x1="100.13333333333334" y1="479.10257332828195" x2="100.13333333333334" y2="479.3227310846503" stroke="#000"/>
<rect x="103.26666666666668" y="458.87266737330197" width="6.266666666666667" height="39.12733262669793" fill="orange" data-tooltip="2.08x baseline speed (YJIT)"/>
<line x1="103.26666666666668" y1="458.48970830727484" x2="109.53333333333335" y2="458.48970830727484" stroke="#000"/>
<line x1="103.26666666666668" y1="459.25562643932915" x2="109.53333333333335" y2="459.25562643932915" stroke="#000"/>
<line x1="106.4" y1="458.48970830727484" x2="106.4" y2="459.25562643932915" stroke="#000"/>
<line x1="106.4" y1="498.0" x2="106.4" y2="502.79999999999995" stroke="#000"/>
<text x="106.4" y="512.4" fill="#111" font-size="small" font-family="monospace" font-weight="bold" text-anchor="end" transform="rotate(-60, 106.4, 512.4)">
activerecord
</text>
<rect x="115.8" y="479.2126522064661" width="6.266666666666667" height="18.787347793533836" fill="#7070f8" data-tooltip="1.00x baseline speed (No JIT)"/>
<line x1="115.8" y1="479.1871194359449" x2="122.06666666666668" y2="479.1871194359449" stroke="#000"/>
<line x1="115.8" y1="479.23818497698727" x2="122.06666666666668" y2="479.23818497698727" stroke="#000"/>
<line x1="118.93333333333334" y1="479.1871194359449" x2="118.93333333333334" y2="479.23818497698727" stroke="#000"/>
<rect x="122.06666666666668" y="464.4034720450424" width="6.266666666666667" height="33.596527954957516" fill="orange" data-tooltip="1.79x baseline speed (YJIT)"/>
<line x1="122.06666666666668" y1="464.3115766985467" x2="128.33333333333331" y2="464.3115766985467" stroke="#000"/>
<line x1="122.06666666666668" y1="464.49536739153814" x2="128.33333333333331" y2="464.49536739153814" stroke="#000"/>
<line x1="125.2" y1="464.3115766985467" x2="125.2" y2="464.49536739153814" stroke="#000"/>
<line x1="125.2" y1="498.0" x2="125.2" y2="502.79999999999995" stroke="#000"/>
<text x="125.2" y="512.4" fill="#111" font-size="small" font-family="monospace" font-weight="bold" text-anchor="end" transform="rotate(-60, 125.2, 512.4)">
chunky-png
</text>
<rect x="134.6" y="479.2126522064661" width="6.266666666666667" height="18.787347793533836" fill="#7070f8" data-tooltip="1.00x baseline speed (No JIT)"/>
<line x1="134.6" y1="479.18912526566413" x2="140.86666666666667" y2="479.18912526566413" stroke="#000"/>
<line x1="134.6" y1="479.23617914726805" x2="140.86666666666667" y2="479.23617914726805" stroke="#000"/>
<line x1="137.73333333333332" y1="479.18912526566413" x2="137.73333333333332" y2="479.23617914726805" stroke="#000"/>
<rect x="140.86666666666667" y="462.9034847362789" width="6.266666666666667" height="35.0965152637211" fill="orange" data-tooltip="1.87x baseline speed (YJIT)"/>
<line x1="140.86666666666667" y1="462.8101829758483" x2="147.13333333333333" y2="462.8101829758483" stroke="#000"/>
<line x1="140.86666666666667" y1="462.9967864967095" x2="147.13333333333333" y2="462.9967864967095" stroke="#000"/>
<line x1="144.0" y1="462.8101829758483" x2="144.0" y2="462.9967864967095" stroke="#000"/>
<line x1="144.0" y1="498.0" x2="144.0" y2="502.79999999999995" stroke="#000"/>
<text x="144.0" y="512.4" fill="#111" font-size="small" font-family="monospace" font-weight="bold" text-anchor="end" transform="rotate(-60, 144.0, 512.4)">
erubi-rails
</text>
<rect x="153.4" y="479.2126522064661" width="6.266666666666667" height="18.787347793533836" fill="#7070f8" data-tooltip="1.00x baseline speed (No JIT)"/>
<line x1="153.4" y1="479.1031923999936" x2="159.66666666666669" y2="479.1031923999936" stroke="#000"/>
<line x1="153.4" y1="479.3221120129386" x2="159.66666666666669" y2="479.3221120129386" stroke="#000"/>
<line x1="156.53333333333333" y1="479.1031923999936" x2="156.53333333333333" y2="479.3221120129386" stroke="#000"/>
<rect x="159.66666666666669" y="464.6707729074257" width="6.266666666666667" height="33.32922709257429" fill="orange" data-tooltip="1.77x baseline speed (YJIT)"/>
<line x1="159.66666666666669" y1="464.0277978252668" x2="165.93333333333334" y2="464.0277978252668" stroke="#000"/>
<line x1="159.66666666666669" y1="465.3137479895846" x2="165.93333333333334" y2="465.3137479895846" stroke="#000"/>
<line x1="162.8" y1="464.0277978252668" x2="162.8" y2="465.3137479895846" stroke="#000"/>
<line x1="162.8" y1="498.0" x2="162.8" y2="502.79999999999995" stroke="#000"/>
<text x="162.8" y="512.4" fill="#111" font-size="small" font-family="monospace" font-weight="bold" text-anchor="end" transform="rotate(-60, 162.8, 512.4)">
hexapdf
</text>
<rect x="172.20000000000002" y="479.2126522064661" width="6.266666666666667" height="18.787347793533836" fill="#7070f8" data-tooltip="1.00x baseline speed (No JIT)"/>
<line x1="172.20000000000002" y1="479.0938189763293" x2="178.4666666666667" y2="479.0938189763293" stroke="#000"/>
<line x1="172.20000000000002" y1="479.33148543660286" x2="178.4666666666667" y2="479.33148543660286" stroke="#000"/>
<line x1="175.33333333333334" y1="479.0938189763293" x2="175.33333333333334" y2="479.33148543660286" stroke="#000"/>
<rect x="178.4666666666667" y="470.45386908979435" width="6.266666666666667" height="27.546130910205555" fill="orange" data-tooltip="1.47x baseline speed (YJIT)"/>
<line x1="178.4666666666667" y1="470.16617575377506" x2="184.73333333333335" y2="470.16617575377506" stroke="#000"/>
<line x1="178.4666666666667" y1="470.74156242581364" x2="184.73333333333335" y2="470.74156242581364" stroke="#000"/>
<line x1="181.60000000000002" y1="470.16617575377506" x2="181.60000000000002" y2="470.74156242581364" stroke="#000"/>
<line x1="181.60000000000002" y1="498.0" x2="181.60000000000002" y2="502.79999999999995" stroke="#000"/>
<text x="181.60000000000002" y="512.4" fill="#111" font-size="small" font-family="monospace" font-weight="bold" text-anchor="end" transform="rotate(-60, 181.60000000000002, 512.4)">
liquid-c
</text>
<rect x="191.0" y="479.2126522064661" width="6.266666666666667" height="18.787347793533836" fill="#7070f8" data-tooltip="1.00x baseline speed (No JIT)"/>
<line x1="191.0" y1="479.112179608338" x2="197.26666666666668" y2="479.112179608338" stroke="#000"/>
<line x1="191.0" y1="479.31312480459417" x2="197.26666666666668" y2="479.31312480459417" stroke="#000"/>
<line x1="194.13333333333333" y1="479.112179608338" x2="194.13333333333333" y2="479.31312480459417" stroke="#000"/>
<rect x="197.26666666666668" y="470.33235852702643" width="6.266666666666667" height="27.667641472973497" fill="orange" data-tooltip="1.47x baseline speed (YJIT)"/>
<line x1="197.26666666666668" y1="470.05965556491367" x2="203.53333333333333" y2="470.05965556491367" stroke="#000"/>
<line x1="197.26666666666668" y1="470.6050614891392" x2="203.53333333333333" y2="470.6050614891392" stroke="#000"/>
<line x1="200.4" y1="470.05965556491367" x2="200.4" y2="470.6050614891392" stroke="#000"/>
<line x1="200.4" y1="498.0" x2="200.4" y2="502.79999999999995" stroke="#000"/>
<text x="200.4" y="512.4" fill="#111" font-size="small" font-family="monospace" font-weight="bold" text-anchor="end" transform="rotate(-60, 200.4, 512.4)">
liquid-compile
</text>
<rect x="209.8" y="479.2126522064661" width="6.266666666666667" height="18.787347793533836" fill="#7070f8" data-tooltip="1.00x baseline speed (No JIT)"/>
<line x1="209.8" y1="478.45616226477586" x2="216.0666666666667" y2="478.45616226477586" stroke="#000"/>
<line x1="209.8" y1="479.9691421481563" x2="216.0666666666667" y2="479.9691421481563" stroke="#000"/>
<line x1="212.93333333333334" y1="478.45616226477586" x2="212.93333333333334" y2="479.9691421481563" stroke="#000"/>
<rect x="216.0666666666667" y="449.7085421410828" width="6.266666666666667" height="48.29145785891716" fill="orange" data-tooltip="2.57x baseline speed (YJIT)"/>
<line x1="216.0666666666667" y1="447.7415021540651" x2="222.33333333333334" y2="447.7415021540651" stroke="#000"/>
<line x1="216.0666666666667" y1="451.67558212810053" x2="222.33333333333334" y2="451.67558212810053" stroke="#000"/>
<line x1="219.20000000000002" y1="447.7415021540651" x2="219.20000000000002" y2="451.67558212810053" stroke="#000"/>
<line x1="219.20000000000002" y1="498.0" x2="219.20000000000002" y2="502.79999999999995" stroke="#000"/>
<text x="219.20000000000002" y="512.4" fill="#111" font-size="small" font-family="monospace" font-weight="bold" text-anchor="end" transform="rotate(-60, 219.20000000000002, 512.4)">
liquid-render
</text>
<rect x="228.6" y="479.2126522064661" width="6.266666666666667" height="18.787347793533836" fill="#7070f8" data-tooltip="1.00x baseline speed (No JIT)"/>
<line x1="228.6" y1="479.0508070431685" x2="234.86666666666667" y2="479.0508070431685" stroke="#000"/>
<line x1="228.6" y1="479.3744973697637" x2="234.86666666666667" y2="479.3744973697637" stroke="#000"/>
<line x1="231.73333333333332" y1="479.0508070431685" x2="231.73333333333332" y2="479.3744973697637" stroke="#000"/>
<rect x="234.86666666666667" y="469.2610093388508" width="6.266666666666667" height="28.738990661149163" fill="orange" data-tooltip="1.53x baseline speed (YJIT)"/>
<line x1="234.86666666666667" y1="468.79295023570427" x2="241.13333333333333" y2="468.79295023570427" stroke="#000"/>
<line x1="234.86666666666667" y1="469.7290684419973" x2="241.13333333333333" y2="469.7290684419973" stroke="#000"/>
<line x1="238.0" y1="468.79295023570427" x2="238.0" y2="469.7290684419973" stroke="#000"/>
<line x1="238.0" y1="498.0" x2="238.0" y2="502.79999999999995" stroke="#000"/>
<text x="238.0" y="512.4" fill="#111" font-size="small" font-family="monospace" font-weight="bold" text-anchor="end" transform="rotate(-60, 238.0, 512.4)">
lobsters
</text>
<rect x="247.4" y="479.2126522064661" width="6.266666666666667" height="18.787347793533836" fill="#7070f8" data-tooltip="1.00x baseline speed (No JIT)"/>
<line x1="247.4" y1="479.14204761416954" x2="253.66666666666666" y2="479.14204761416954" stroke="#000"/>
<line x1="247.4" y1="479.28325679876264" x2="253.66666666666666" y2="479.28325679876264" stroke="#000"/>
<line x1="250.53333333333333" y1="479.14204761416954" x2="250.53333333333333" y2="479.28325679876264" stroke="#000"/>
<rect x="253.66666666666666" y="471.0882937209265" width="6.266666666666667" height="26.911706279073375" fill="orange" data-tooltip="1.43x baseline speed (YJIT)"/>
<line x1="253.66666666666666" y1="470.9324976263376" x2="259.9333333333333" y2="470.9324976263376" stroke="#000"/>
<line x1="253.66666666666666" y1="471.24408981551545" x2="259.9333333333333" y2="471.24408981551545" stroke="#000"/>
<line x1="256.79999999999995" y1="470.9324976263376" x2="256.79999999999995" y2="471.24408981551545" stroke="#000"/>
<line x1="256.8" y1="498.0" x2="256.8" y2="502.79999999999995" stroke="#000"/>
<text x="256.8" y="512.4" fill="#111" font-size="small" font-family="monospace" font-weight="bold" text-anchor="end" transform="rotate(-60, 256.8, 512.4)">
mail
</text>
<rect x="266.2" y="479.2126522064661" width="6.266666666666667" height="18.787347793533836" fill="#7070f8" data-tooltip="1.00x baseline speed (No JIT)"/>
<line x1="266.2" y1="479.13192832068125" x2="272.46666666666664" y2="479.13192832068125" stroke="#000"/>
<line x1="266.2" y1="479.2933760922509" x2="272.46666666666664" y2="479.2933760922509" stroke="#000"/>
<line x1="269.3333333333333" y1="479.13192832068125" x2="269.3333333333333" y2="479.2933760922509" stroke="#000"/>
<rect x="272.46666666666664" y="468.5063854385428" width="6.266666666666667" height="29.493614561457136" fill="orange" data-tooltip="1.57x baseline speed (YJIT)"/>
<line x1="272.46666666666664" y1="468.37276228339965" x2="278.7333333333333" y2="468.37276228339965" stroke="#000"/>
<line x1="272.46666666666664" y1="468.640008593686" x2="278.7333333333333" y2="468.640008593686" stroke="#000"/>
<line x1="275.59999999999997" y1="468.37276228339965" x2="275.59999999999997" y2="468.640008593686" stroke="#000"/>
<line x1="275.6" y1="498.0" x2="275.6" y2="502.79999999999995" stroke="#000"/>
<text x="275.6" y="512.4" fill="#111" font-size="small" font-family="monospace" font-weight="bold" text-anchor="end" transform="rotate(-60, 275.6, 512.4)">
psych-load
</text>
<rect x="285.00000000000006" y="479.2126522064661" width="6.266666666666667" height="18.787347793533836" fill="#7070f8" data-tooltip="1.00x baseline speed (No JIT)"/>
<line x1="285.00000000000006" y1="479.1526781745779" x2="291.26666666666665" y2="479.1526781745779" stroke="#000"/>
<line x1="285.00000000000006" y1="479.2726262383543" x2="291.26666666666665" y2="479.2726262383543" stroke="#000"/>
<line x1="288.1333333333333" y1="479.1526781745779" x2="288.1333333333333" y2="479.2726262383543" stroke="#000"/>
<rect x="291.26666666666665" y="465.2645815417126" width="6.266666666666667" height="32.73541845828737" fill="orange" data-tooltip="1.74x baseline speed (YJIT)"/>
<line x1="291.26666666666665" y1="464.8810334072125" x2="297.5333333333333" y2="464.8810334072125" stroke="#000"/>
<line x1="291.26666666666665" y1="465.6481296762127" x2="297.5333333333333" y2="465.6481296762127" stroke="#000"/>
<line x1="294.4" y1="464.8810334072125" x2="294.4" y2="465.6481296762127" stroke="#000"/>
<line x1="294.40000000000003" y1="498.0" x2="294.40000000000003" y2="502.79999999999995" stroke="#000"/>
<text x="294.40000000000003" y="512.4" fill="#111" font-size="small" font-family="monospace" font-weight="bold" text-anchor="end" transform="rotate(-60, 294.40000000000003, 512.4)">
railsbench
</text>
<rect x="303.8" y="479.2126522064661" width="6.266666666666667" height="18.787347793533836" fill="#7070f8" data-tooltip="1.00x baseline speed (No JIT)"/>
<line x1="303.8" y1="479.04833330444245" x2="310.06666666666666" y2="479.04833330444245" stroke="#000"/>
<line x1="303.8" y1="479.3769711084898" x2="310.06666666666666" y2="479.3769711084898" stroke="#000"/>
<line x1="306.93333333333334" y1="479.04833330444245" x2="306.93333333333334" y2="479.3769711084898" stroke="#000"/>
<rect x="310.06666666666666" y="463.4175086601785" width="6.266666666666667" height="34.582491339821466" fill="orange" data-tooltip="1.84x baseline speed (YJIT)"/>
<line x1="310.06666666666666" y1="462.7861441563222" x2="316.3333333333333" y2="462.7861441563222" stroke="#000"/>
<line x1="310.06666666666666" y1="464.0488731640347" x2="316.3333333333333" y2="464.0488731640347" stroke="#000"/>
<line x1="313.2" y1="462.7861441563222" x2="313.2" y2="464.0488731640347" stroke="#000"/>
<line x1="313.20000000000005" y1="498.0" x2="313.20000000000005" y2="502.79999999999995" stroke="#000"/>
<text x="313.20000000000005" y="512.4" fill="#111" font-size="small" font-family="monospace" font-weight="bold" text-anchor="end" transform="rotate(-60, 313.20000000000005, 512.4)">
rubocop
</text>
<rect x="322.6" y="479.2126522064661" width="6.266666666666667" height="18.787347793533836" fill="#7070f8" data-tooltip="1.00x baseline speed (No JIT)"/>
<line x1="322.6" y1="478.9944454805901" x2="328.8666666666666" y2="478.9944454805901" stroke="#000"/>
<line x1="322.6" y1="479.43085893234206" x2="328.8666666666666" y2="479.43085893234206" stroke="#000"/>
<line x1="325.7333333333333" y1="478.9944454805901" x2="325.7333333333333" y2="479.43085893234206" stroke="#000"/>
<rect x="328.8666666666666" y="470.10943740456054" width="6.266666666666667" height="27.89056259543938" fill="orange" data-tooltip="1.48x baseline speed (YJIT)"/>
<line x1="328.8666666666666" y1="469.6097900487349" x2="335.13333333333327" y2="469.6097900487349" stroke="#000"/>
<line x1="328.8666666666666" y1="470.60908476038617" x2="335.13333333333327" y2="470.60908476038617" stroke="#000"/>
<line x1="331.99999999999994" y1="469.6097900487349" x2="331.99999999999994" y2="470.60908476038617" stroke="#000"/>
<line x1="332.0" y1="498.0" x2="332.0" y2="502.79999999999995" stroke="#000"/>
<text x="332.0" y="512.4" fill="#111" font-size="small" font-family="monospace" font-weight="bold" text-anchor="end" transform="rotate(-60, 332.0, 512.4)">
ruby-lsp
</text>
<rect x="341.40000000000003" y="479.2126522064661" width="6.266666666666667" height="18.787347793533836" fill="#7070f8" data-tooltip="1.00x baseline speed (No JIT)"/>
<line x1="341.40000000000003" y1="479.08990892976965" x2="347.6666666666667" y2="479.08990892976965" stroke="#000"/>
<line x1="341.40000000000003" y1="479.33539548316253" x2="347.6666666666667" y2="479.33539548316253" stroke="#000"/>
<line x1="344.53333333333336" y1="479.08990892976965" x2="344.53333333333336" y2="479.33539548316253" stroke="#000"/>
<rect x="347.6666666666667" y="473.18727680758525" width="6.266666666666667" height="24.812723192414666" fill="orange" data-tooltip="1.32x baseline speed (YJIT)"/>
<line x1="347.6666666666667" y1="472.97586633609563" x2="353.93333333333334" y2="472.97586633609563" stroke="#000"/>
<line x1="347.6666666666667" y1="473.3986872790749" x2="353.93333333333334" y2="473.3986872790749" stroke="#000"/>
<line x1="350.8" y1="472.97586633609563" x2="350.8" y2="473.3986872790749" stroke="#000"/>
<line x1="350.80000000000007" y1="498.0" x2="350.80000000000007" y2="502.79999999999995" stroke="#000"/>
<text x="350.80000000000007" y="512.4" fill="#111" font-size="small" font-family="monospace" font-weight="bold" text-anchor="end" transform="rotate(-60, 350.80000000000007, 512.4)">
sequel
</text>
<rect x="360.2" y="479.2126522064661" width="6.266666666666667" height="18.787347793533836" fill="#7070f8" data-tooltip="1.00x baseline speed (No JIT)"/>
<line x1="360.2" y1="478.9862646340424" x2="366.4666666666666" y2="478.9862646340424" stroke="#000"/>
<line x1="360.2" y1="479.4390397788898" x2="366.4666666666666" y2="479.4390397788898" stroke="#000"/>
<line x1="363.33333333333326" y1="478.9862646340424" x2="363.33333333333326" y2="479.4390397788898" stroke="#000"/>
<rect x="366.4666666666666" y="458.64323843501575" width="6.266666666666667" height="39.356761564984176" fill="orange" data-tooltip="2.09x baseline speed (YJIT)"/>
<line x1="366.4666666666666" y1="457.5884257717154" x2="372.73333333333323" y2="457.5884257717154" stroke="#000"/>
<line x1="366.4666666666666" y1="459.6980510983161" x2="372.73333333333323" y2="459.6980510983161" stroke="#000"/>
<line x1="369.5999999999999" y1="457.5884257717154" x2="369.5999999999999" y2="459.6980510983161" stroke="#000"/>
<line x1="369.59999999999997" y1="498.0" x2="369.59999999999997" y2="502.79999999999995" stroke="#000"/>
<text x="369.59999999999997" y="512.4" fill="#111" font-size="small" font-family="monospace" font-weight="bold" text-anchor="end" transform="rotate(-60, 369.59999999999997, 512.4)">
binarytrees
</text>
<rect x="379.0" y="479.2126522064661" width="6.266666666666667" height="18.787347793533836" fill="#7070f8" data-tooltip="1.00x baseline speed (No JIT)"/>
<line x1="379.0" y1="479.20034304395267" x2="385.26666666666665" y2="479.20034304395267" stroke="#000"/>
<line x1="379.0" y1="479.2249613689795" x2="385.26666666666665" y2="479.2249613689795" stroke="#000"/>
<line x1="382.1333333333333" y1="479.20034304395267" x2="382.1333333333333" y2="479.2249613689795" stroke="#000"/>
<rect x="385.26666666666665" y="456.8858762293899" width="6.266666666666667" height="41.114123770609964" fill="orange" data-tooltip="2.19x baseline speed (YJIT)"/>
<line x1="385.26666666666665" y1="456.82235583681387" x2="391.5333333333333" y2="456.82235583681387" stroke="#000"/>
<line x1="385.26666666666665" y1="456.94939662196595" x2="391.5333333333333" y2="456.94939662196595" stroke="#000"/>
<line x1="388.4" y1="456.82235583681387" x2="388.4" y2="456.94939662196595" stroke="#000"/>
<line x1="388.40000000000003" y1="498.0" x2="388.40000000000003" y2="502.79999999999995" stroke="#000"/>
<text x="388.40000000000003" y="512.4" fill="#111" font-size="small" font-family="monospace" font-weight="bold" text-anchor="end" transform="rotate(-60, 388.40000000000003, 512.4)">
blurhash
</text>
<rect x="397.80000000000007" y="479.2126522064661" width="6.266666666666667" height="18.787347793533836" fill="#7070f8" data-tooltip="1.00x baseline speed (No JIT)"/>
<line x1="397.80000000000007" y1="479.17308349671424" x2="404.06666666666666" y2="479.17308349671424" stroke="#000"/>
<line x1="397.80000000000007" y1="479.252220916218" x2="404.06666666666666" y2="479.252220916218" stroke="#000"/>
<line x1="400.93333333333334" y1="479.17308349671424" x2="400.93333333333334" y2="479.252220916218" stroke="#000"/>
<rect x="404.06666666666666" y="475.05683467680234" width="6.266666666666667" height="22.94316532319761" fill="orange" data-tooltip="1.22x baseline speed (YJIT)"/>
<line x1="404.06666666666666" y1="474.999363029809" x2="410.3333333333333" y2="474.999363029809" stroke="#000"/>
<line x1="404.06666666666666" y1="475.11430632379574" x2="410.3333333333333" y2="475.11430632379574" stroke="#000"/>
<line x1="407.2" y1="474.999363029809" x2="407.2" y2="475.11430632379574" stroke="#000"/>
<line x1="407.20000000000005" y1="498.0" x2="407.20000000000005" y2="502.79999999999995" stroke="#000"/>
<text x="407.20000000000005" y="512.4" fill="#111" font-size="small" font-family="monospace" font-weight="bold" text-anchor="end" transform="rotate(-60, 407.20000000000005, 512.4)">
erubi
</text>
<rect x="416.59999999999997" y="479.2126522064661" width="6.266666666666667" height="18.787347793533836" fill="#7070f8" data-tooltip="1.00x baseline speed (No JIT)"/>
<line x1="416.59999999999997" y1="479.1941651262556" x2="422.8666666666666" y2="479.1941651262556" stroke="#000"/>
<line x1="416.59999999999997" y1="479.2311392866766" x2="422.8666666666666" y2="479.2311392866766" stroke="#000"/>
<line x1="419.7333333333333" y1="479.1941651262556" x2="419.7333333333333" y2="479.2311392866766" stroke="#000"/>
<rect x="422.8666666666666" y="476.34648699670754" width="6.266666666666667" height="21.653513003292375" fill="orange" data-tooltip="1.15x baseline speed (YJIT)"/>
<line x1="422.8666666666666" y1="476.31691041556985" x2="429.13333333333327" y2="476.31691041556985" stroke="#000"/>
<line x1="422.8666666666666" y1="476.37606357784523" x2="429.13333333333327" y2="476.37606357784523" stroke="#000"/>
<line x1="425.99999999999994" y1="476.31691041556985" x2="425.99999999999994" y2="476.37606357784523" stroke="#000"/>
<line x1="426.0" y1="498.0" x2="426.0" y2="502.79999999999995" stroke="#000"/>
<text x="426.0" y="512.4" fill="#111" font-size="small" font-family="monospace" font-weight="bold" text-anchor="end" transform="rotate(-60, 426.0, 512.4)">
etanni
</text>
<rect x="435.40000000000003" y="479.2126522064661" width="6.266666666666667" height="18.787347793533836" fill="#7070f8" data-tooltip="1.00x baseline speed (No JIT)"/>
<line x1="435.40000000000003" y1="479.12959737546015" x2="441.66666666666663" y2="479.12959737546015" stroke="#000"/>
<line x1="435.40000000000003" y1="479.295707037472" x2="441.66666666666663" y2="479.295707037472" stroke="#000"/>
<line x1="438.5333333333333" y1="479.12959737546015" x2="438.5333333333333" y2="479.295707037472" stroke="#000"/>
<rect x="441.66666666666663" y="449.0972126547158" width="6.266666666666667" height="48.90278734528422" fill="orange" data-tooltip="2.60x baseline speed (YJIT)"/>
<line x1="441.66666666666663" y1="448.86507404390755" x2="447.9333333333333" y2="448.86507404390755" stroke="#000"/>
<line x1="441.66666666666663" y1="449.329351265524" x2="447.9333333333333" y2="449.329351265524" stroke="#000"/>
<line x1="444.79999999999995" y1="448.86507404390755" x2="444.79999999999995" y2="449.329351265524" stroke="#000"/>
<line x1="444.8" y1="498.0" x2="444.8" y2="502.79999999999995" stroke="#000"/>
<text x="444.8" y="512.4" fill="#111" font-size="small" font-family="monospace" font-weight="bold" text-anchor="end" transform="rotate(-60, 444.8, 512.4)">
fannkuchredux
</text>
<rect x="454.20000000000005" y="479.2126522064661" width="6.266666666666667" height="18.787347793533836" fill="#7070f8" data-tooltip="1.00x baseline speed (No JIT)"/>
<line x1="454.20000000000005" y1="479.08040166883217" x2="460.4666666666667" y2="479.08040166883217" stroke="#000"/>
<line x1="454.20000000000005" y1="479.3449027441" x2="460.4666666666667" y2="479.3449027441" stroke="#000"/>
<line x1="457.33333333333337" y1="479.08040166883217" x2="457.33333333333337" y2="479.3449027441" stroke="#000"/>
<rect x="460.4666666666667" y="476.6854317067774" width="6.266666666666667" height="21.31456829322252" fill="orange" data-tooltip="1.13x baseline speed (YJIT)"/>
<line x1="460.4666666666667" y1="476.4698897281673" x2="466.73333333333335" y2="476.4698897281673" stroke="#000"/>
<line x1="460.4666666666667" y1="476.90097368538756" x2="466.73333333333335" y2="476.90097368538756" stroke="#000"/>
<line x1="463.6" y1="476.4698897281673" x2="463.6" y2="476.90097368538756" stroke="#000"/>
<line x1="463.6000000000001" y1="498.0" x2="463.6000000000001" y2="502.79999999999995" stroke="#000"/>
<text x="463.6000000000001" y="512.4" fill="#111" font-size="small" font-family="monospace" font-weight="bold" text-anchor="end" transform="rotate(-60, 463.6000000000001, 512.4)">
fluentd
</text>
<rect x="473.0" y="479.2126522064661" width="6.266666666666667" height="18.787347793533836" fill="#7070f8" data-tooltip="1.00x baseline speed (No JIT)"/>
<line x1="473.0" y1="479.19921497035574" x2="479.2666666666666" y2="479.19921497035574" stroke="#000"/>
<line x1="473.0" y1="479.22608944257644" x2="479.2666666666666" y2="479.22608944257644" stroke="#000"/>
<line x1="476.1333333333333" y1="479.19921497035574" x2="476.1333333333333" y2="479.22608944257644" stroke="#000"/>
<rect x="479.2666666666666" y="475.74092457605315" width="6.266666666666667" height="22.259075423946737" fill="orange" data-tooltip="1.18x baseline speed (YJIT)"/>
<line x1="479.2666666666666" y1="475.7223970176" x2="485.53333333333325" y2="475.7223970176" stroke="#000"/>
<line x1="479.2666666666666" y1="475.7594521345063" x2="485.53333333333325" y2="475.7594521345063" stroke="#000"/>
<line x1="482.3999999999999" y1="475.7223970176" x2="482.3999999999999" y2="475.7594521345063" stroke="#000"/>
<line x1="482.4" y1="498.0" x2="482.4" y2="502.79999999999995" stroke="#000"/>
<text x="482.4" y="512.4" fill="#111" font-size="small" font-family="monospace" font-weight="bold" text-anchor="end" transform="rotate(-60, 482.4, 512.4)">
graphql
</text>
<rect x="491.8" y="479.2126522064661" width="6.266666666666667" height="18.787347793533836" fill="#7070f8" data-tooltip="1.00x baseline speed (No JIT)"/>
<line x1="491.8" y1="479.19561845935635" x2="498.06666666666666" y2="479.19561845935635" stroke="#000"/>
<line x1="491.8" y1="479.2296859535758" x2="498.06666666666666" y2="479.2296859535758" stroke="#000"/>
<line x1="494.93333333333334" y1="479.19561845935635" x2="494.93333333333334" y2="479.2296859535758" stroke="#000"/>
<rect x="498.06666666666666" y="477.6085333391572" width="6.266666666666667" height="20.391466660842706" fill="orange" data-tooltip="1.09x baseline speed (YJIT)"/>
<line x1="498.06666666666666" y1="477.5842573434343" x2="504.3333333333333" y2="477.5842573434343" stroke="#000"/>
<line x1="498.06666666666666" y1="477.6328093348801" x2="504.3333333333333" y2="477.6328093348801" stroke="#000"/>
<line x1="501.2" y1="477.5842573434343" x2="501.2" y2="477.6328093348801" stroke="#000"/>
<line x1="501.2" y1="498.0" x2="501.2" y2="502.79999999999995" stroke="#000"/>
<text x="501.2" y="512.4" fill="#111" font-size="small" font-family="monospace" font-weight="bold" text-anchor="end" transform="rotate(-60, 501.2, 512.4)">
graphql-native
</text>
<rect x="510.6000000000001" y="479.2126522064661" width="6.266666666666667" height="18.787347793533836" fill="#7070f8" data-tooltip="1.00x baseline speed (No JIT)"/>
<line x1="510.6000000000001" y1="479.04168711965207" x2="516.8666666666667" y2="479.04168711965207" stroke="#000"/>
<line x1="510.6000000000001" y1="479.38361729328017" x2="516.8666666666667" y2="479.38361729328017" stroke="#000"/>
<line x1="513.7333333333333" y1="479.04168711965207" x2="513.7333333333333" y2="479.38361729328017" stroke="#000"/>
<rect x="516.8666666666667" y="470.48407734216045" width="6.266666666666667" height="27.51592265783952" fill="orange" data-tooltip="1.46x baseline speed (YJIT)"/>
<line x1="516.8666666666667" y1="470.0268088779899" x2="523.1333333333333" y2="470.0268088779899" stroke="#000"/>
<line x1="516.8666666666667" y1="470.941345806331" x2="523.1333333333333" y2="470.941345806331" stroke="#000"/>
<line x1="520.0" y1="470.0268088779899" x2="520.0" y2="470.941345806331" stroke="#000"/>
<line x1="520.0" y1="498.0" x2="520.0" y2="502.79999999999995" stroke="#000"/>
<text x="520.0" y="512.4" fill="#111" font-size="small" font-family="monospace" font-weight="bold" text-anchor="end" transform="rotate(-60, 520.0, 512.4)">
lee
</text>
<rect x="529.4" y="479.2126522064661" width="6.266666666666667" height="18.787347793533836" fill="#7070f8" data-tooltip="1.00x baseline speed (No JIT)"/>
<line x1="529.4" y1="479.1963889114401" x2="535.6666666666666" y2="479.1963889114401" stroke="#000"/>
<line x1="529.4" y1="479.22891550149205" x2="535.6666666666666" y2="479.22891550149205" stroke="#000"/>
<line x1="532.5333333333333" y1="479.1963889114401" x2="532.5333333333333" y2="479.22891550149205" stroke="#000"/>
<rect x="535.6666666666666" y="466.09309371209173" width="6.266666666666667" height="31.906906287908203" fill="orange" data-tooltip="1.70x baseline speed (YJIT)"/>
<line x1="535.6666666666666" y1="466.0345376295001" x2="541.9333333333333" y2="466.0345376295001" stroke="#000"/>
<line x1="535.6666666666666" y1="466.15164979468335" x2="541.9333333333333" y2="466.15164979468335" stroke="#000"/>
<line x1="538.8" y1="466.0345376295001" x2="538.8" y2="466.15164979468335" stroke="#000"/>
<line x1="538.8" y1="498.0" x2="538.8" y2="502.79999999999995" stroke="#000"/>
<text x="538.8" y="512.4" fill="#111" font-size="small" font-family="monospace" font-weight="bold" text-anchor="end" transform="rotate(-60, 538.8, 512.4)">
matmul
</text>
<rect x="548.2" y="479.2126522064661" width="6.266666666666667" height="18.787347793533836" fill="#7070f8" data-tooltip="1.00x baseline speed (No JIT)"/>
<line x1="548.2" y1="479.1520607248069" x2="554.4666666666667" y2="479.1520607248069" stroke="#000"/>
<line x1="548.2" y1="479.27324368812526" x2="554.4666666666667" y2="479.27324368812526" stroke="#000"/>
<line x1="551.3333333333334" y1="479.1520607248069" x2="551.3333333333334" y2="479.27324368812526" stroke="#000"/>
<rect x="554.4666666666667" y="456.8204467024989" width="6.266666666666667" height="41.17955329750108" fill="orange" data-tooltip="2.19x baseline speed (YJIT)"/>
<line x1="554.4666666666667" y1="456.6846167451025" x2="560.7333333333333" y2="456.6846167451025" stroke="#000"/>
<line x1="554.4666666666667" y1="456.95627665989525" x2="560.7333333333333" y2="456.95627665989525" stroke="#000"/>
<line x1="557.6" y1="456.6846167451025" x2="557.6" y2="456.95627665989525" stroke="#000"/>
<line x1="557.6" y1="498.0" x2="557.6" y2="502.79999999999995" stroke="#000"/>
<text x="557.6" y="512.4" fill="#111" font-size="small" font-family="monospace" font-weight="bold" text-anchor="end" transform="rotate(-60, 557.6, 512.4)">
nbody
</text>
<rect x="567.0000000000001" y="479.2126522064661" width="6.266666666666667" height="18.787347793533836" fill="#7070f8" data-tooltip="1.00x baseline speed (No JIT)"/>
<line x1="567.0000000000001" y1="479.20218807136513" x2="573.2666666666667" y2="479.20218807136513" stroke="#000"/>
<line x1="567.0000000000001" y1="479.22311634156705" x2="573.2666666666667" y2="479.22311634156705" stroke="#000"/>
<line x1="570.1333333333333" y1="479.20218807136513" x2="570.1333333333333" y2="479.22311634156705" stroke="#000"/>
<rect x="573.2666666666667" y="429.9431116047583" width="6.266666666666667" height="68.05688839524159" fill="orange" data-tooltip="3.62x baseline speed (YJIT)"/>
<line x1="573.2666666666667" y1="429.8254241309948" x2="579.5333333333333" y2="429.8254241309948" stroke="#000"/>
<line x1="573.2666666666667" y1="430.0607990785219" x2="579.5333333333333" y2="430.0607990785219" stroke="#000"/>
<line x1="576.4" y1="429.8254241309948" x2="576.4" y2="430.0607990785219" stroke="#000"/>
<line x1="576.4" y1="498.0" x2="576.4" y2="502.79999999999995" stroke="#000"/>
<text x="576.4" y="512.4" fill="#111" font-size="small" font-family="monospace" font-weight="bold" text-anchor="end" transform="rotate(-60, 576.4, 512.4)">
nqueens
</text>
<rect x="585.8" y="479.2126522064661" width="6.266666666666667" height="18.787347793533836" fill="#7070f8" data-tooltip="1.00x baseline speed (No JIT)"/>
<line x1="585.8" y1="479.1064080227682" x2="592.0666666666666" y2="479.1064080227682" stroke="#000"/>
<line x1="585.8" y1="479.31889639016396" x2="592.0666666666666" y2="479.31889639016396" stroke="#000"/>
<line x1="588.9333333333333" y1="479.1064080227682" x2="588.9333333333333" y2="479.31889639016396" stroke="#000"/>
<rect x="592.0666666666666" y="429.74208353802743" width="6.266666666666667" height="68.25791646197251" fill="orange" data-tooltip="3.63x baseline speed (YJIT)"/>
<line x1="592.0666666666666" y1="429.1650615281552" x2="598.3333333333333" y2="429.1650615281552" stroke="#000"/>
<line x1="592.0666666666666" y1="430.3191055478996" x2="598.3333333333333" y2="430.3191055478996" stroke="#000"/>
<line x1="595.1999999999999" y1="429.1650615281552" x2="595.1999999999999" y2="430.3191055478996" stroke="#000"/>
<line x1="595.1999999999999" y1="498.0" x2="595.1999999999999" y2="502.79999999999995" stroke="#000"/>
<text x="595.1999999999999" y="512.4" fill="#111" font-size="small" font-family="monospace" font-weight="bold" text-anchor="end" transform="rotate(-60, 595.1999999999999, 512.4)">
optcarrot
</text>
<rect x="604.6" y="479.2126522064661" width="6.266666666666667" height="18.787347793533836" fill="#7070f8" data-tooltip="1.00x baseline speed (No JIT)"/>
<line x1="604.6" y1="479.1425521712571" x2="610.8666666666667" y2="479.1425521712571" stroke="#000"/>
<line x1="604.6" y1="479.28275224167515" x2="610.8666666666667" y2="479.28275224167515" stroke="#000"/>
<line x1="607.7333333333333" y1="479.1425521712571" x2="607.7333333333333" y2="479.28275224167515" stroke="#000"/>
<rect x="610.8666666666667" y="474.1531378358632" width="6.266666666666667" height="23.84686216413675" fill="orange" data-tooltip="1.27x baseline speed (YJIT)"/>
<line x1="610.8666666666667" y1="474.0228005201856" x2="617.1333333333333" y2="474.0228005201856" stroke="#000"/>
<line x1="610.8666666666667" y1="474.2834751515408" x2="617.1333333333333" y2="474.2834751515408" stroke="#000"/>
<line x1="614.0" y1="474.0228005201856" x2="614.0" y2="474.2834751515408" stroke="#000"/>
<line x1="614.0" y1="498.0" x2="614.0" y2="502.79999999999995" stroke="#000"/>
<text x="614.0" y="512.4" fill="#111" font-size="small" font-family="monospace" font-weight="bold" text-anchor="end" transform="rotate(-60, 614.0, 512.4)">
rack
</text>
<rect x="623.4" y="479.2126522064661" width="6.266666666666667" height="18.787347793533836" fill="#7070f8" data-tooltip="1.00x baseline speed (No JIT)"/>
<line x1="623.4" y1="479.1962087261458" x2="629.6666666666666" y2="479.1962087261458" stroke="#000"/>
<line x1="623.4" y1="479.2290956867864" x2="629.6666666666666" y2="479.2290956867864" stroke="#000"/>
<line x1="626.5333333333333" y1="479.1962087261458" x2="626.5333333333333" y2="479.2290956867864" stroke="#000"/>
<rect x="629.6666666666666" y="476.21837873060866" width="6.266666666666667" height="21.781621269391387" fill="orange" data-tooltip="1.16x baseline speed (YJIT)"/>
<line x1="629.6666666666666" y1="476.1980552707775" x2="635.9333333333333" y2="476.1980552707775" stroke="#000"/>
<line x1="629.6666666666666" y1="476.23870219043977" x2="635.9333333333333" y2="476.23870219043977" stroke="#000"/>
<line x1="632.8" y1="476.1980552707775" x2="632.8" y2="476.23870219043977" stroke="#000"/>
<line x1="632.8" y1="498.0" x2="632.8" y2="502.79999999999995" stroke="#000"/>
<text x="632.8" y="512.4" fill="#111" font-size="small" font-family="monospace" font-weight="bold" text-anchor="end" transform="rotate(-60, 632.8, 512.4)">
ruby-json
</text>
<rect x="642.2" y="479.2126522064661" width="6.266666666666667" height="18.787347793533836" fill="#7070f8" data-tooltip="1.00x baseline speed (No JIT)"/>
<line x1="642.2" y1="479.1078875375869" x2="648.4666666666666" y2="479.1078875375869" stroke="#000"/>
<line x1="642.2" y1="479.31741687534526" x2="648.4666666666666" y2="479.31741687534526" stroke="#000"/>
<line x1="645.3333333333333" y1="479.1078875375869" x2="645.3333333333333" y2="479.31741687534526" stroke="#000"/>
<rect x="648.4666666666666" y="458.6014305726876" width="6.266666666666667" height="39.39856942731238" fill="orange" data-tooltip="2.10x baseline speed (YJIT)"/>
<line x1="648.4666666666666" y1="458.0715864000069" x2="654.7333333333332" y2="458.0715864000069" stroke="#000"/>
<line x1="648.4666666666666" y1="459.1312747453684" x2="654.7333333333332" y2="459.1312747453684" stroke="#000"/>
<line x1="651.5999999999999" y1="458.0715864000069" x2="651.5999999999999" y2="459.1312747453684" stroke="#000"/>
<line x1="651.5999999999999" y1="498.0" x2="651.5999999999999" y2="502.79999999999995" stroke="#000"/>
<text x="651.5999999999999" y="512.4" fill="#111" font-size="small" font-family="monospace" font-weight="bold" text-anchor="end" transform="rotate(-60, 651.5999999999999, 512.4)">
rubykon
</text>
<rect x="661.0" y="479.2126522064661" width="6.266666666666667" height="18.787347793533836" fill="#7070f8" data-tooltip="1.00x baseline speed (No JIT)"/>
<line x1="661.0" y1="479.2085854922916" x2="667.2666666666667" y2="479.2085854922916" stroke="#000"/>
<line x1="661.0" y1="479.2167189206406" x2="667.2666666666667" y2="479.2167189206406" stroke="#000"/>
<line x1="664.1333333333333" y1="479.2085854922916" x2="664.1333333333333" y2="479.2167189206406" stroke="#000"/>
<rect x="667.2666666666667" y="450.29203928205715" width="6.266666666666667" height="47.707960717942754" fill="orange" data-tooltip="2.54x baseline speed (YJIT)"/>
<line x1="667.2666666666667" y1="450.2735506935022" x2="673.5333333333333" y2="450.2735506935022" stroke="#000"/>
<line x1="667.2666666666667" y1="450.3105278706121" x2="673.5333333333333" y2="450.3105278706121" stroke="#000"/>
<line x1="670.4" y1="450.2735506935022" x2="670.4" y2="450.3105278706121" stroke="#000"/>
<line x1="670.4" y1="498.0" x2="670.4" y2="502.79999999999995" stroke="#000"/>
<text x="670.4" y="512.4" fill="#111" font-size="small" font-family="monospace" font-weight="bold" text-anchor="end" transform="rotate(-60, 670.4, 512.4)">
sudoku
</text>
<rect x="679.8" y="479.2126522064661" width="6.266666666666667" height="18.787347793533836" fill="#7070f8" data-tooltip="1.00x baseline speed (No JIT)"/>
<line x1="679.8" y1="479.1829621044647" x2="686.0666666666666" y2="479.1829621044647" stroke="#000"/>
<line x1="679.8" y1="479.24234230846747" x2="686.0666666666666" y2="479.24234230846747" stroke="#000"/>
<line x1="682.9333333333333" y1="479.1829621044647" x2="682.9333333333333" y2="479.24234230846747" stroke="#000"/>
<rect x="686.0666666666666" y="462.7538156147142" width="6.266666666666667" height="35.24618438528582" fill="orange" data-tooltip="1.88x baseline speed (YJIT)"/>
<line x1="686.0666666666666" y1="462.68961750584225" x2="692.3333333333333" y2="462.68961750584225" stroke="#000"/>
<line x1="686.0666666666666" y1="462.8180137235861" x2="692.3333333333333" y2="462.8180137235861" stroke="#000"/>
<line x1="689.1999999999999" y1="462.68961750584225" x2="689.1999999999999" y2="462.8180137235861" stroke="#000"/>
<line x1="689.1999999999999" y1="498.0" x2="689.1999999999999" y2="502.79999999999995" stroke="#000"/>
<text x="689.1999999999999" y="512.4" fill="#111" font-size="small" font-family="monospace" font-weight="bold" text-anchor="end" transform="rotate(-60, 689.1999999999999, 512.4)">
tinygql
</text>
<rect x="698.6" y="479.2126522064661" width="6.266666666666667" height="18.787347793533836" fill="#7070f8" data-tooltip="1.00x baseline speed (No JIT)"/>
<line x1="698.6" y1="479.2016300074627" x2="704.8666666666667" y2="479.2016300074627" stroke="#000"/>
<line x1="698.6" y1="479.22367440546947" x2="704.8666666666667" y2="479.22367440546947" stroke="#000"/>
<line x1="701.7333333333333" y1="479.2016300074627" x2="701.7333333333333" y2="479.22367440546947" stroke="#000"/>
<rect x="704.8666666666667" y="372.0404882171251" width="6.266666666666667" height="125.95951178287493" fill="orange" data-tooltip="6.70x baseline speed (YJIT)"/>
<line x1="704.8666666666667" y1="371.93405199639693" x2="711.1333333333333" y2="371.93405199639693" stroke="#000"/>
<line x1="704.8666666666667" y1="372.14692443785316" x2="711.1333333333333" y2="372.14692443785316" stroke="#000"/>
<line x1="708.0" y1="371.93405199639693" x2="708.0" y2="372.14692443785316" stroke="#000"/>
<line x1="708.0" y1="498.0" x2="708.0" y2="502.79999999999995" stroke="#000"/>
<text x="708.0" y="512.4" fill="#111" font-size="small" font-family="monospace" font-weight="bold" text-anchor="end" transform="rotate(-60, 708.0, 512.4)">
30k_ifelse
</text>
<rect x="717.4000000000001" y="479.2126522064661" width="6.266666666666667" height="18.787347793533836" fill="#7070f8" data-tooltip="1.00x baseline speed (No JIT)"/>
<line x1="717.4000000000001" y1="479.2091019970374" x2="723.6666666666666" y2="479.2091019970374" stroke="#000"/>
<line x1="717.4000000000001" y1="479.2162024158948" x2="723.6666666666666" y2="479.2162024158948" stroke="#000"/>
<line x1="720.5333333333333" y1="479.2091019970374" x2="720.5333333333333" y2="479.2162024158948" stroke="#000"/>
<rect x="723.6666666666666" y="346.0470892453663" width="6.266666666666667" height="151.95291075463368" fill="orange" data-tooltip="8.09x baseline speed (YJIT)"/>
<line x1="723.6666666666666" y1="346.00990576243873" x2="729.9333333333333" y2="346.00990576243873" stroke="#000"/>
<line x1="723.6666666666666" y1="346.08427272829385" x2="729.9333333333333" y2="346.08427272829385" stroke="#000"/>
<line x1="726.8" y1="346.00990576243873" x2="726.8" y2="346.08427272829385" stroke="#000"/>
<line x1="726.8" y1="498.0" x2="726.8" y2="502.79999999999995" stroke="#000"/>
<text x="726.8" y="512.4" fill="#111" font-size="small" font-family="monospace" font-weight="bold" text-anchor="end" transform="rotate(-60, 726.8, 512.4)">
30k_methods
</text>
<rect x="736.1999999999999" y="479.2126522064661" width="6.266666666666667" height="18.787347793533836" fill="#7070f8" data-tooltip="1.00x baseline speed (No JIT)"/>
<line x1="736.1999999999999" y1="479.19968722804543" x2="742.4666666666666" y2="479.19968722804543" stroke="#000"/>
<line x1="736.1999999999999" y1="479.22561718488674" x2="742.4666666666666" y2="479.22561718488674" stroke="#000"/>
<line x1="739.3333333333333" y1="479.19968722804543" x2="739.3333333333333" y2="479.22561718488674" stroke="#000"/>
<rect x="742.4666666666666" y="409.97636801603534" width="6.266666666666667" height="88.02363198396458" fill="orange" data-tooltip="4.69x baseline speed (YJIT)"/>
<line x1="742.4666666666666" y1="409.88209318250796" x2="748.7333333333332" y2="409.88209318250796" stroke="#000"/>
<line x1="742.4666666666666" y1="410.0706428495628" x2="748.7333333333332" y2="410.0706428495628" stroke="#000"/>
<line x1="745.5999999999999" y1="409.88209318250796" x2="745.5999999999999" y2="410.0706428495628" stroke="#000"/>
<line x1="745.5999999999999" y1="498.0" x2="745.5999999999999" y2="502.79999999999995" stroke="#000"/>
<text x="745.5999999999999" y="512.4" fill="#111" font-size="small" font-family="monospace" font-weight="bold" text-anchor="end" transform="rotate(-60, 745.5999999999999, 512.4)">
cfunc_itself
</text>
<rect x="755.0" y="479.2126522064661" width="6.266666666666667" height="18.787347793533836" fill="#7070f8" data-tooltip="1.00x baseline speed (No JIT)"/>
<line x1="755.0" y1="479.20416614441183" x2="761.2666666666667" y2="479.20416614441183" stroke="#000"/>
<line x1="755.0" y1="479.22113826852035" x2="761.2666666666667" y2="479.22113826852035" stroke="#000"/>
<line x1="758.1333333333333" y1="479.20416614441183" x2="758.1333333333333" y2="479.22113826852035" stroke="#000"/>
<rect x="761.2666666666667" y="387.39584114885264" width="6.266666666666667" height="110.60415885114726" fill="orange" data-tooltip="5.89x baseline speed (YJIT)"/>
<line x1="761.2666666666667" y1="387.2108987769416" x2="767.5333333333333" y2="387.2108987769416" stroke="#000"/>
<line x1="761.2666666666667" y1="387.5807835207637" x2="767.5333333333333" y2="387.5807835207637" stroke="#000"/>
<line x1="764.4" y1="387.2108987769416" x2="764.4" y2="387.5807835207637" stroke="#000"/>
<line x1="764.4" y1="498.0" x2="764.4" y2="502.79999999999995" stroke="#000"/>
<text x="764.4" y="512.4" fill="#111" font-size="small" font-family="monospace" font-weight="bold" text-anchor="end" transform="rotate(-60, 764.4, 512.4)">
fib
</text>
<rect x="773.8000000000001" y="479.2126522064661" width="6.266666666666667" height="18.787347793533836" fill="#7070f8" data-tooltip="1.00x baseline speed (No JIT)"/>
<line x1="773.8000000000001" y1="479.1818644906641" x2="780.0666666666667" y2="479.1818644906641" stroke="#000"/>
<line x1="773.8000000000001" y1="479.24343992226807" x2="780.0666666666667" y2="479.24343992226807" stroke="#000"/>
<line x1="776.9333333333334" y1="479.1818644906641" x2="776.9333333333334" y2="479.24343992226807" stroke="#000"/>
<rect x="780.0666666666667" y="374.64618640050793" width="6.266666666666667" height="123.35381359949197" fill="orange" data-tooltip="6.57x baseline speed (YJIT)"/>
<line x1="780.0666666666667" y1="373.5118536877811" x2="786.3333333333334" y2="373.5118536877811" stroke="#000"/>
<line x1="780.0666666666667" y1="375.78051911323473" x2="786.3333333333334" y2="375.78051911323473" stroke="#000"/>
<line x1="783.2" y1="373.5118536877811" x2="783.2" y2="375.78051911323473" stroke="#000"/>
<line x1="783.2" y1="498.0" x2="783.2" y2="502.79999999999995" stroke="#000"/>
<text x="783.2" y="512.4" fill="#111" font-size="small" font-family="monospace" font-weight="bold" text-anchor="end" transform="rotate(-60, 783.2, 512.4)">
getivar
</text>
<rect x="792.6" y="479.2126522064661" width="6.266666666666667" height="18.787347793533836" fill="#7070f8" data-tooltip="1.00x baseline speed (No JIT)"/>
<line x1="792.6" y1="479.2010996134809" x2="798.8666666666666" y2="479.2010996134809" stroke="#000"/>
<line x1="792.6" y1="479.2242047994513" x2="798.8666666666666" y2="479.2242047994513" stroke="#000"/>
<line x1="795.7333333333333" y1="479.2010996134809" x2="795.7333333333333" y2="479.2242047994513" stroke="#000"/>
<rect x="798.8666666666666" y="345.76509884712027" width="6.266666666666667" height="152.23490115287973" fill="orange" data-tooltip="8.10x baseline speed (YJIT)"/>
<line x1="798.8666666666666" y1="345.5650469902914" x2="805.1333333333332" y2="345.5650469902914" stroke="#000"/>
<line x1="798.8666666666666" y1="345.9651507039492" x2="805.1333333333332" y2="345.9651507039492" stroke="#000"/>
<line x1="801.9999999999999" y1="345.5650469902914" x2="801.9999999999999" y2="345.9651507039492" stroke="#000"/>
<line x1="801.9999999999999" y1="498.0" x2="801.9999999999999" y2="502.79999999999995" stroke="#000"/>
<text x="801.9999999999999" y="512.4" fill="#111" font-size="small" font-family="monospace" font-weight="bold" text-anchor="end" transform="rotate(-60, 801.9999999999999, 512.4)">
keyword_args
</text>
<rect x="811.4" y="479.2126522064661" width="6.266666666666667" height="18.787347793533836" fill="#7070f8" data-tooltip="1.00x baseline speed (No JIT)"/>
<line x1="811.4" y1="479.12468551282166" x2="817.6666666666666" y2="479.12468551282166" stroke="#000"/>
<line x1="811.4" y1="479.3006189001105" x2="817.6666666666666" y2="479.3006189001105" stroke="#000"/>
<line x1="814.5333333333333" y1="479.12468551282166" x2="814.5333333333333" y2="479.3006189001105" stroke="#000"/>
<rect x="817.6666666666666" y="100.19999999999999" width="6.266666666666667" height="397.79999999999995" fill="orange" data-tooltip="21.17x baseline speed (YJIT)"/>
<line x1="817.6666666666666" y1="97.084793318484" x2="823.9333333333333" y2="97.084793318484" stroke="#000"/>
<line x1="817.6666666666666" y1="103.31520668151597" x2="823.9333333333333" y2="103.31520668151597" stroke="#000"/>
<line x1="820.8" y1="97.084793318484" x2="820.8" y2="103.31520668151597" stroke="#000"/>
<line x1="820.8" y1="498.0" x2="820.8" y2="502.79999999999995" stroke="#000"/>
<text x="820.8" y="512.4" fill="#111" font-size="small" font-family="monospace" font-weight="bold" text-anchor="end" transform="rotate(-60, 820.8, 512.4)">
respond_to
</text>
<rect x="830.2" y="479.2126522064661" width="6.266666666666667" height="18.787347793533836" fill="#7070f8" data-tooltip="1.00x baseline speed (No JIT)"/>
<line x1="830.2" y1="479.20704159735135" x2="836.4666666666667" y2="479.20704159735135" stroke="#000"/>
<line x1="830.2" y1="479.2182628155809" x2="836.4666666666667" y2="479.2182628155809" stroke="#000"/>
<line x1="833.3333333333334" y1="479.20704159735135" x2="833.3333333333334" y2="479.2182628155809" stroke="#000"/>
<rect x="836.4666666666667" y="431.74112453033035" width="6.266666666666667" height="66.25887546966966" fill="orange" data-tooltip="3.53x baseline speed (YJIT)"/>
<line x1="836.4666666666667" y1="431.5528808551271" x2="842.7333333333333" y2="431.5528808551271" stroke="#000"/>
<line x1="836.4666666666667" y1="431.9293682055336" x2="842.7333333333333" y2="431.9293682055336" stroke="#000"/>
<line x1="839.6" y1="431.5528808551271" x2="839.6" y2="431.9293682055336" stroke="#000"/>
<line x1="839.6" y1="498.0" x2="839.6" y2="502.79999999999995" stroke="#000"/>
<text x="839.6" y="512.4" fill="#111" font-size="small" font-family="monospace" font-weight="bold" text-anchor="end" transform="rotate(-60, 839.6, 512.4)">
ruby-xor
</text>
<rect x="849.0" y="479.2126522064661" width="6.266666666666667" height="18.787347793533836" fill="#7070f8" data-tooltip="1.00x baseline speed (No JIT)"/>
<line x1="849.0" y1="479.16582357479984" x2="855.2666666666667" y2="479.16582357479984" stroke="#000"/>
<line x1="849.0" y1="479.25948083813233" x2="855.2666666666667" y2="479.25948083813233" stroke="#000"/>
<line x1="852.1333333333333" y1="479.16582357479984" x2="852.1333333333333" y2="479.25948083813233" stroke="#000"/>
<rect x="855.2666666666667" y="378.1836853031847" width="6.266666666666667" height="119.8163146968153" fill="orange" data-tooltip="6.38x baseline speed (YJIT)"/>
<line x1="855.2666666666667" y1="377.8502983280512" x2="861.5333333333333" y2="377.8502983280512" stroke="#000"/>
<line x1="855.2666666666667" y1="378.5170722783181" x2="861.5333333333333" y2="378.5170722783181" stroke="#000"/>
<line x1="858.4" y1="377.8502983280512" x2="858.4" y2="378.5170722783181" stroke="#000"/>
<line x1="858.4" y1="498.0" x2="858.4" y2="502.79999999999995" stroke="#000"/>
<text x="858.4" y="512.4" fill="#111" font-size="small" font-family="monospace" font-weight="bold" text-anchor="end" transform="rotate(-60, 858.4, 512.4)">
setivar
</text>
<rect x="867.8000000000001" y="479.2126522064661" width="6.266666666666667" height="18.787347793533836" fill="#7070f8" data-tooltip="1.00x baseline speed (No JIT)"/>
<line x1="867.8000000000001" y1="476.28248703898777" x2="874.0666666666666" y2="476.28248703898777" stroke="#000"/>
<line x1="867.8000000000001" y1="482.1428173739444" x2="874.0666666666666" y2="482.1428173739444" stroke="#000"/>
<line x1="870.9333333333334" y1="476.28248703898777" x2="870.9333333333334" y2="482.1428173739444" stroke="#000"/>
<rect x="874.0666666666666" y="454.54308569945573" width="6.266666666666667" height="43.456914300544256" fill="orange" data-tooltip="2.31x baseline speed (YJIT)"/>
<line x1="874.0666666666666" y1="437.83781162177166" x2="880.3333333333333" y2="437.83781162177166" stroke="#000"/>
<line x1="874.0666666666666" y1="471.2483597771398" x2="880.3333333333333" y2="471.2483597771398" stroke="#000"/>
<line x1="877.1999999999999" y1="437.83781162177166" x2="877.1999999999999" y2="471.2483597771398" stroke="#000"/>
<line x1="877.1999999999999" y1="498.0" x2="877.1999999999999" y2="502.79999999999995" stroke="#000"/>
<text x="877.1999999999999" y="512.4" fill="#111" font-size="small" font-family="monospace" font-weight="bold" text-anchor="end" transform="rotate(-60, 877.1999999999999, 512.4)">
setivar_object
</text>
<rect x="886.6" y="479.2126522064661" width="6.266666666666667" height="18.787347793533836" fill="#7070f8" data-tooltip="1.00x baseline speed (No JIT)"/>
<line x1="886.6" y1="477.2066184593197" x2="892.8666666666667" y2="477.2066184593197" stroke="#000"/>
<line x1="886.6" y1="481.21868595361246" x2="892.8666666666667" y2="481.21868595361246" stroke="#000"/>
<line x1="889.7333333333333" y1="477.2066184593197" x2="889.7333333333333" y2="481.21868595361246" stroke="#000"/>
<rect x="892.8666666666667" y="452.7709467881752" width="6.266666666666667" height="45.22905321182477" fill="orange" data-tooltip="2.41x baseline speed (YJIT)"/>
<line x1="892.8666666666667" y1="439.4639790749915" x2="899.1333333333333" y2="439.4639790749915" stroke="#000"/>
<line x1="892.8666666666667" y1="466.0779145013589" x2="899.1333333333333" y2="466.0779145013589" stroke="#000"/>
<line x1="896.0" y1="439.4639790749915" x2="896.0" y2="466.0779145013589" stroke="#000"/>
<line x1="896.0" y1="498.0" x2="896.0" y2="502.79999999999995" stroke="#000"/>
<text x="896.0" y="512.4" fill="#111" font-size="small" font-family="monospace" font-weight="bold" text-anchor="end" transform="rotate(-60, 896.0, 512.4)">
setivar_young
</text>
<rect x="905.4" y="479.2126522064661" width="6.266666666666667" height="18.787347793533836" fill="#7070f8" data-tooltip="1.00x baseline speed (No JIT)"/>
<line x1="905.4" y1="479.0694630773437" x2="911.6666666666666" y2="479.0694630773437" stroke="#000"/>
<line x1="905.4" y1="479.3558413355885" x2="911.6666666666666" y2="479.3558413355885" stroke="#000"/>
<line x1="908.5333333333333" y1="479.0694630773437" x2="908.5333333333333" y2="479.3558413355885" stroke="#000"/>
<rect x="911.6666666666666" y="463.7170882549789" width="6.266666666666667" height="34.28291174502116" fill="orange" data-tooltip="1.82x baseline speed (YJIT)"/>
<line x1="911.6666666666666" y1="463.13244840897374" x2="917.9333333333333" y2="463.13244840897374" stroke="#000"/>
<line x1="911.6666666666666" y1="464.301728100984" x2="917.9333333333333" y2="464.301728100984" stroke="#000"/>
<line x1="914.8" y1="463.13244840897374" x2="914.8" y2="464.301728100984" stroke="#000"/>
<line x1="914.8" y1="498.0" x2="914.8" y2="502.79999999999995" stroke="#000"/>
<text x="914.8" y="512.4" fill="#111" font-size="small" font-family="monospace" font-weight="bold" text-anchor="end" transform="rotate(-60, 914.8, 512.4)">
str_concat
</text>
<rect x="924.2" y="479.2126522064661" width="6.266666666666667" height="18.787347793533836" fill="#7070f8" data-tooltip="1.00x baseline speed (No JIT)"/>
<line x1="924.2" y1="479.1753889433499" x2="930.4666666666667" y2="479.1753889433499" stroke="#000"/>
<line x1="924.2" y1="479.24991546958233" x2="930.4666666666667" y2="479.24991546958233" stroke="#000"/>
<line x1="927.3333333333334" y1="479.1753889433499" x2="927.3333333333334" y2="479.24991546958233" stroke="#000"/>
<rect x="930.4666666666667" y="473.30977665324815" width="6.266666666666667" height="24.690223346751836" fill="orange" data-tooltip="1.31x baseline speed (YJIT)"/>
<line x1="930.4666666666667" y1="473.22268834500267" x2="936.7333333333333" y2="473.22268834500267" stroke="#000"/>
<line x1="930.4666666666667" y1="473.39686496149363" x2="936.7333333333333" y2="473.39686496149363" stroke="#000"/>
<line x1="933.6" y1="473.22268834500267" x2="933.6" y2="473.39686496149363" stroke="#000"/>
<line x1="933.6" y1="498.0" x2="933.6" y2="502.79999999999995" stroke="#000"/>
<text x="933.6" y="512.4" fill="#111" font-size="small" font-family="monospace" font-weight="bold" text-anchor="end" transform="rotate(-60, 933.6, 512.4)">
throw
</text>
</svg>