<svg viewBox="0 0 1000 600" xmlns="http://www.w3.org/2000/svg" xmlns:xlink="http://www.w3.org/1999/xlink" width="100%" height="100%">

<rect x="50.0" y="30.0" width="940.0" height="467.99999999999994" stroke="#000" fill="#EEE"/>
<line x1="42.0" y1="497.9999999999999" x2="50.0" y2="497.9999999999999" stroke="#000"/>
<text x="26.000000000000004" y="497.9999999999999" text-anchor="end" font-weight="bold" font-size="small" fill="#111">
0.0
</text>
<line x1="42.0" y1="406.5997586879543" x2="50.0" y2="406.5997586879543" stroke="#000"/>
<text x="26.000000000000004" y="406.5997586879543" text-anchor="end" font-weight="bold" font-size="small" fill="#111">
5.0
</text>
<line x1="42.0" y1="315.1995173759087" x2="50.0" y2="315.1995173759087" stroke="#000"/>
<text x="26.000000000000004" y="315.1995173759087" text-anchor="end" font-weight="bold" font-size="small" fill="#111">
10.0
</text>
<line x1="42.0" y1="223.79927606386306" x2="50.0" y2="223.79927606386306" stroke="#000"/>
<text x="26.000000000000004" y="223.79927606386306" text-anchor="end" font-weight="bold" font-size="small" fill="#111">
15.0
</text>
<line x1="42.0" y1="132.39903475181742" x2="50.0" y2="132.39903475181742" stroke="#000"/>
<text x="26.000000000000004" y="132.39903475181742" text-anchor="end" font-weight="bold" font-size="small" fill="#111">
20.0
</text>
<rect x="188.0" y="36.00000000000001" width="100.0" height="18.0" fill="#7070f8" stroke="#888"/>
<text x="238.0" y="52.50000000000001" font-size="small" text-anchor="middle" font-weight="bold" fill="#EEE">
No JIT
</text>
<rect x="469.99999999999994" y="36.00000000000001" width="100.0" height="18.0" fill="orange" stroke="#888"/>
<text x="519.9999999999999" y="52.50000000000001" font-size="small" text-anchor="middle" font-weight="bold" fill="#EEE">
YJIT 3.3.1
</text>
<rect x="751.9999999999999" y="36.00000000000001" width="100.0" height="18.0" fill="green" stroke="#888"/>
<text x="801.9999999999999" y="52.50000000000001" font-size="small" text-anchor="middle" font-weight="bold" fill="#EEE">
YJIT 3.4.0dev
</text>
<rect x="97.0" y="479.7199517375908" width="4.597826086956522" height="18.280048262409128" fill="#7070f8" data-tooltip="1.00x baseline speed (No JIT)"/>
<line x1="97.0" y1="479.70094441072257" x2="101.59782608695653" y2="479.70094441072257" stroke="#000"/>
<line x1="97.0" y1="479.73895906445904" x2="101.59782608695653" y2="479.73895906445904" stroke="#000"/>
<line x1="99.29891304347827" y1="479.70094441072257" x2="99.29891304347827" y2="479.73895906445904" stroke="#000"/>
<rect x="101.59782608695653" y="469.3752251794542" width="4.597826086956522" height="28.624774820545703" fill="orange" data-tooltip="1.57x baseline speed (YJIT 3.3.1)"/>
<line x1="101.59782608695653" y1="469.3443475750795" x2="106.19565217391305" y2="469.3443475750795" stroke="#000"/>
<line x1="101.59782608695653" y1="469.406102783829" x2="106.19565217391305" y2="469.406102783829" stroke="#000"/>
<line x1="103.8967391304348" y1="469.3443475750795" x2="103.8967391304348" y2="469.406102783829" stroke="#000"/>
<rect x="106.19565217391305" y="467.57318214986947" width="4.597826086956522" height="30.42681785013052" fill="green" data-tooltip="1.66x baseline speed (YJIT 3.4.0dev)"/>
<line x1="106.19565217391305" y1="467.536542209175" x2="110.79347826086958" y2="467.536542209175" stroke="#000"/>
<line x1="106.19565217391305" y1="467.60982209056397" x2="110.79347826086958" y2="467.60982209056397" stroke="#000"/>
<line x1="108.49456521739131" y1="467.536542209175" x2="108.49456521739131" y2="467.60982209056397" stroke="#000"/>
<line x1="106.19565217391305" y1="498.0" x2="106.19565217391305" y2="502.79999999999995" stroke="#000"/>
<text x="106.19565217391305" y="512.4" fill="#111" font-size="small" font-family="monospace" font-weight="bold" text-anchor="end" transform="rotate(-60, 106.19565217391305, 512.4)">
activerecord
</text>
<rect x="115.3913043478261" y="479.7199517375908" width="4.597826086956522" height="18.280048262409128" fill="#7070f8" data-tooltip="1.00x baseline speed (No JIT)"/>
<line x1="115.3913043478261" y1="479.6006816152656" x2="119.98913043478261" y2="479.6006816152656" stroke="#000"/>
<line x1="115.3913043478261" y1="479.83922185991594" x2="119.98913043478261" y2="479.83922185991594" stroke="#000"/>
<line x1="117.69021739130434" y1="479.6006816152656" x2="117.69021739130434" y2="479.83922185991594" stroke="#000"/>
<rect x="119.98913043478261" y="465.77211117401515" width="4.597826086956522" height="32.227888825984756" fill="orange" data-tooltip="1.76x baseline speed (YJIT 3.3.1)"/>
<line x1="119.98913043478261" y1="465.55992500120544" x2="124.58695652173914" y2="465.55992500120544" stroke="#000"/>
<line x1="119.98913043478261" y1="465.9842973468248" x2="124.58695652173914" y2="465.9842973468248" stroke="#000"/>
<line x1="122.28804347826087" y1="465.55992500120544" x2="122.28804347826087" y2="465.9842973468248" stroke="#000"/>
<rect x="124.58695652173914" y="462.66631700876724" width="4.597826086956522" height="35.333682991232685" fill="green" data-tooltip="1.93x baseline speed (YJIT 3.4.0dev)"/>
<line x1="124.58695652173914" y1="462.4349920631394" x2="129.18478260869566" y2="462.4349920631394" stroke="#000"/>
<line x1="124.58695652173914" y1="462.897641954395" x2="129.18478260869566" y2="462.897641954395" stroke="#000"/>
<line x1="126.88586956521739" y1="462.4349920631394" x2="126.88586956521739" y2="462.897641954395" stroke="#000"/>
<line x1="124.58695652173914" y1="498.0" x2="124.58695652173914" y2="502.79999999999995" stroke="#000"/>
<text x="124.58695652173914" y="512.4" fill="#111" font-size="small" font-family="monospace" font-weight="bold" text-anchor="end" transform="rotate(-60, 124.58695652173914, 512.4)">
chunky-png
</text>
<rect x="133.7826086956522" y="479.7199517375908" width="4.597826086956522" height="18.280048262409128" fill="#7070f8" data-tooltip="1.00x baseline speed (No JIT)"/>
<line x1="133.7826086956522" y1="479.709828174412" x2="138.3804347826087" y2="479.709828174412" stroke="#000"/>
<line x1="133.7826086956522" y1="479.7300753007696" x2="138.3804347826087" y2="479.7300753007696" stroke="#000"/>
<line x1="136.08152173913044" y1="479.709828174412" x2="136.08152173913044" y2="479.7300753007696" stroke="#000"/>
<rect x="138.3804347826087" y="471.88432097347487" width="4.597826086956522" height="26.115679026525132" fill="orange" data-tooltip="1.43x baseline speed (YJIT 3.3.1)"/>
<line x1="138.3804347826087" y1="471.86375070531716" x2="142.97826086956522" y2="471.86375070531716" stroke="#000"/>
<line x1="138.3804347826087" y1="471.9048912416326" x2="142.97826086956522" y2="471.9048912416326" stroke="#000"/>
<line x1="140.67934782608697" y1="471.86375070531716" x2="140.67934782608697" y2="471.9048912416326" stroke="#000"/>
<rect x="142.97826086956522" y="470.3290620708037" width="4.597826086956522" height="27.670937929196256" fill="green" data-tooltip="1.51x baseline speed (YJIT 3.4.0dev)"/>
<line x1="142.97826086956522" y1="470.30194296733964" x2="147.57608695652175" y2="470.30194296733964" stroke="#000"/>
<line x1="142.97826086956522" y1="470.35618117426765" x2="147.57608695652175" y2="470.35618117426765" stroke="#000"/>
<line x1="145.27717391304347" y1="470.30194296733964" x2="145.27717391304347" y2="470.35618117426765" stroke="#000"/>
<line x1="142.97826086956522" y1="498.0" x2="142.97826086956522" y2="502.79999999999995" stroke="#000"/>
<text x="142.97826086956522" y="512.4" fill="#111" font-size="small" font-family="monospace" font-weight="bold" text-anchor="end" transform="rotate(-60, 142.97826086956522, 512.4)">
erubi-rails
</text>
<rect x="152.17391304347828" y="479.7199517375908" width="4.597826086956522" height="18.280048262409128" fill="#7070f8" data-tooltip="1.00x baseline speed (No JIT)"/>
<line x1="152.17391304347828" y1="479.6546708701409" x2="156.77173913043478" y2="479.6546708701409" stroke="#000"/>
<line x1="152.17391304347828" y1="479.78523260504073" x2="156.77173913043478" y2="479.78523260504073" stroke="#000"/>
<line x1="154.47282608695653" y1="479.6546708701409" x2="154.47282608695653" y2="479.78523260504073" stroke="#000"/>
<rect x="156.77173913043478" y="473.2324493461144" width="4.597826086956522" height="24.767550653885582" fill="orange" data-tooltip="1.35x baseline speed (YJIT 3.3.1)"/>
<line x1="156.77173913043478" y1="473.0213074242449" x2="161.3695652173913" y2="473.0213074242449" stroke="#000"/>
<line x1="156.77173913043478" y1="473.44359126798383" x2="161.3695652173913" y2="473.44359126798383" stroke="#000"/>
<line x1="159.07065217391306" y1="473.0213074242449" x2="159.07065217391306" y2="473.44359126798383" stroke="#000"/>
<rect x="161.3695652173913" y="467.418452722084" width="4.597826086956522" height="30.581547277915845" fill="green" data-tooltip="1.67x baseline speed (YJIT 3.4.0dev)"/>
<line x1="161.3695652173913" y1="466.9692831194421" x2="165.96739130434784" y2="466.9692831194421" stroke="#000"/>
<line x1="161.3695652173913" y1="467.86762232472597" x2="165.96739130434784" y2="467.86762232472597" stroke="#000"/>
<line x1="163.6684782608696" y1="466.9692831194421" x2="163.6684782608696" y2="467.86762232472597" stroke="#000"/>
<line x1="161.3695652173913" y1="498.0" x2="161.3695652173913" y2="502.79999999999995" stroke="#000"/>
<text x="161.3695652173913" y="512.4" fill="#111" font-size="small" font-family="monospace" font-weight="bold" text-anchor="end" transform="rotate(-60, 161.3695652173913, 512.4)">
hexapdf
</text>
<rect x="170.56521739130437" y="479.7199517375908" width="4.597826086956522" height="18.280048262409128" fill="#7070f8" data-tooltip="1.00x baseline speed (No JIT)"/>
<line x1="170.56521739130437" y1="479.63436033707416" x2="175.1630434782609" y2="479.63436033707416" stroke="#000"/>
<line x1="170.56521739130437" y1="479.80554313810745" x2="175.1630434782609" y2="479.80554313810745" stroke="#000"/>
<line x1="172.86413043478262" y1="479.63436033707416" x2="172.86413043478262" y2="479.80554313810745" stroke="#000"/>
<rect x="175.1630434782609" y="476.06350916229655" width="4.597826086956522" height="21.936490837703374" fill="orange" data-tooltip="1.20x baseline speed (YJIT 3.3.1)"/>
<line x1="175.1630434782609" y1="475.9541140327279" x2="179.7608695652174" y2="475.9541140327279" stroke="#000"/>
<line x1="175.1630434782609" y1="476.17290429186517" x2="179.7608695652174" y2="476.17290429186517" stroke="#000"/>
<line x1="177.46195652173915" y1="475.9541140327279" x2="177.46195652173915" y2="476.17290429186517" stroke="#000"/>
<rect x="179.7608695652174" y="473.7863715765644" width="4.597826086956522" height="24.2136284234355" fill="green" data-tooltip="1.32x baseline speed (YJIT 3.4.0dev)"/>
<line x1="179.7608695652174" y1="473.60649487434466" x2="184.35869565217394" y2="473.60649487434466" stroke="#000"/>
<line x1="179.7608695652174" y1="473.9662482787841" x2="184.35869565217394" y2="473.9662482787841" stroke="#000"/>
<line x1="182.05978260869568" y1="473.60649487434466" x2="182.05978260869568" y2="473.9662482787841" stroke="#000"/>
<line x1="179.7608695652174" y1="498.0" x2="179.7608695652174" y2="502.79999999999995" stroke="#000"/>
<text x="179.7608695652174" y="512.4" fill="#111" font-size="small" font-family="monospace" font-weight="bold" text-anchor="end" transform="rotate(-60, 179.7608695652174, 512.4)">
liquid-c
</text>
<rect x="188.95652173913044" y="479.7199517375908" width="4.597826086956522" height="18.280048262409128" fill="#7070f8" data-tooltip="1.00x baseline speed (No JIT)"/>
<line x1="188.95652173913044" y1="479.7018547765258" x2="193.55434782608697" y2="479.7018547765258" stroke="#000"/>
<line x1="188.95652173913044" y1="479.73804869865575" x2="193.55434782608697" y2="479.73804869865575" stroke="#000"/>
<line x1="191.2554347826087" y1="479.7018547765258" x2="191.2554347826087" y2="479.73804869865575" stroke="#000"/>
<rect x="193.55434782608697" y="475.61516223535244" width="4.597826086956522" height="22.38483776464744" fill="orange" data-tooltip="1.22x baseline speed (YJIT 3.3.1)"/>
<line x1="193.55434782608697" y1="474.9884923089038" x2="198.1521739130435" y2="474.9884923089038" stroke="#000"/>
<line x1="193.55434782608697" y1="476.241832161801" x2="198.1521739130435" y2="476.241832161801" stroke="#000"/>
<line x1="195.85326086956522" y1="474.9884923089038" x2="195.85326086956522" y2="476.241832161801" stroke="#000"/>
<rect x="198.1521739130435" y="474.6671604122905" width="4.597826086956522" height="23.33283958770938" fill="green" data-tooltip="1.28x baseline speed (YJIT 3.4.0dev)"/>
<line x1="198.1521739130435" y1="474.591984668686" x2="202.75" y2="474.591984668686" stroke="#000"/>
<line x1="198.1521739130435" y1="474.74233615589503" x2="202.75" y2="474.74233615589503" stroke="#000"/>
<line x1="200.45108695652175" y1="474.591984668686" x2="200.45108695652175" y2="474.74233615589503" stroke="#000"/>
<line x1="198.1521739130435" y1="498.0" x2="198.1521739130435" y2="502.79999999999995" stroke="#000"/>
<text x="198.1521739130435" y="512.4" fill="#111" font-size="small" font-family="monospace" font-weight="bold" text-anchor="end" transform="rotate(-60, 198.1521739130435, 512.4)">
liquid-compile
</text>
<rect x="207.34782608695653" y="479.7199517375908" width="4.597826086956522" height="18.280048262409128" fill="#7070f8" data-tooltip="1.00x baseline speed (No JIT)"/>
<line x1="207.34782608695653" y1="479.71008974845597" x2="211.94565217391306" y2="479.71008974845597" stroke="#000"/>
<line x1="207.34782608695653" y1="479.7298137267256" x2="211.94565217391306" y2="479.7298137267256" stroke="#000"/>
<line x1="209.6467391304348" y1="479.71008974845597" x2="209.6467391304348" y2="479.7298137267256" stroke="#000"/>
<rect x="211.94565217391306" y="464.23373018355363" width="4.597826086956522" height="33.766269816446375" fill="orange" data-tooltip="1.85x baseline speed (YJIT 3.3.1)"/>
<line x1="211.94565217391306" y1="464.19463655471884" x2="216.5434782608696" y2="464.19463655471884" stroke="#000"/>
<line x1="211.94565217391306" y1="464.27282381238837" x2="216.5434782608696" y2="464.27282381238837" stroke="#000"/>
<line x1="214.2445652173913" y1="464.19463655471884" x2="214.2445652173913" y2="464.27282381238837" stroke="#000"/>
<rect x="216.5434782608696" y="461.03553202775436" width="4.597826086956522" height="36.96446797224565" fill="green" data-tooltip="2.02x baseline speed (YJIT 3.4.0dev)"/>
<line x1="216.5434782608696" y1="460.9967176570217" x2="221.14130434782612" y2="460.9967176570217" stroke="#000"/>
<line x1="216.5434782608696" y1="461.07434639848697" x2="221.14130434782612" y2="461.07434639848697" stroke="#000"/>
<line x1="218.84239130434784" y1="460.9967176570217" x2="218.84239130434784" y2="461.07434639848697" stroke="#000"/>
<line x1="216.5434782608696" y1="498.0" x2="216.5434782608696" y2="502.79999999999995" stroke="#000"/>
<text x="216.5434782608696" y="512.4" fill="#111" font-size="small" font-family="monospace" font-weight="bold" text-anchor="end" transform="rotate(-60, 216.5434782608696, 512.4)">
liquid-render
</text>
<rect x="225.7391304347826" y="479.7199517375908" width="4.597826086956522" height="18.280048262409128" fill="#7070f8" data-tooltip="1.00x baseline speed (No JIT)"/>
<line x1="225.7391304347826" y1="479.6407040657487" x2="230.33695652173913" y2="479.6407040657487" stroke="#000"/>
<line x1="225.7391304347826" y1="479.7991994094329" x2="230.33695652173913" y2="479.7991994094329" stroke="#000"/>
<line x1="228.03804347826087" y1="479.6407040657487" x2="228.03804347826087" y2="479.7991994094329" stroke="#000"/>
<rect x="230.33695652173913" y="472.85511036581977" width="4.597826086956522" height="25.14488963418014" fill="orange" data-tooltip="1.38x baseline speed (YJIT 3.3.1)"/>
<line x1="230.33695652173913" y1="472.5098511073204" x2="234.93478260869566" y2="472.5098511073204" stroke="#000"/>
<line x1="230.33695652173913" y1="473.2003696243192" x2="234.93478260869566" y2="473.2003696243192" stroke="#000"/>
<line x1="232.6358695652174" y1="472.5098511073204" x2="232.6358695652174" y2="473.2003696243192" stroke="#000"/>
<rect x="234.93478260869566" y="471.56639791491295" width="4.597826086956522" height="26.43360208508694" fill="green" data-tooltip="1.45x baseline speed (YJIT 3.4.0dev)"/>
<line x1="234.93478260869566" y1="471.3094904061523" x2="239.5326086956522" y2="471.3094904061523" stroke="#000"/>
<line x1="234.93478260869566" y1="471.8233054236736" x2="239.5326086956522" y2="471.8233054236736" stroke="#000"/>
<line x1="237.2336956521739" y1="471.3094904061523" x2="237.2336956521739" y2="471.8233054236736" stroke="#000"/>
<line x1="234.93478260869566" y1="498.0" x2="234.93478260869566" y2="502.79999999999995" stroke="#000"/>
<text x="234.93478260869566" y="512.4" fill="#111" font-size="small" font-family="monospace" font-weight="bold" text-anchor="end" transform="rotate(-60, 234.93478260869566, 512.4)">
lobsters
</text>
<rect x="244.13043478260872" y="479.7199517375908" width="4.597826086956522" height="18.280048262409128" fill="#7070f8" data-tooltip="1.00x baseline speed (No JIT)"/>
<line x1="244.13043478260872" y1="479.68620001228805" x2="248.72826086956522" y2="479.68620001228805" stroke="#000"/>
<line x1="244.13043478260872" y1="479.75370346289355" x2="248.72826086956522" y2="479.75370346289355" stroke="#000"/>
<line x1="246.42934782608697" y1="479.68620001228805" x2="246.42934782608697" y2="479.75370346289355" stroke="#000"/>
<rect x="248.72826086956522" y="474.19722532102315" width="4.597826086956522" height="23.80277467897683" fill="orange" data-tooltip="1.30x baseline speed (YJIT 3.3.1)"/>
<line x1="248.72826086956522" y1="474.13159421675084" x2="253.32608695652175" y2="474.13159421675084" stroke="#000"/>
<line x1="248.72826086956522" y1="474.26285642529547" x2="253.32608695652175" y2="474.26285642529547" stroke="#000"/>
<line x1="251.02717391304347" y1="474.13159421675084" x2="251.02717391304347" y2="474.26285642529547" stroke="#000"/>
<rect x="253.32608695652175" y="472.077905184669" width="4.597826086956522" height="25.92209481533086" fill="green" data-tooltip="1.42x baseline speed (YJIT 3.4.0dev)"/>
<line x1="253.32608695652175" y1="472.01543483153205" x2="257.9239130434783" y2="472.01543483153205" stroke="#000"/>
<line x1="253.32608695652175" y1="472.140375537806" x2="257.9239130434783" y2="472.140375537806" stroke="#000"/>
<line x1="255.625" y1="472.01543483153205" x2="255.625" y2="472.140375537806" stroke="#000"/>
<line x1="253.32608695652175" y1="498.0" x2="253.32608695652175" y2="502.79999999999995" stroke="#000"/>
<text x="253.32608695652175" y="512.4" fill="#111" font-size="small" font-family="monospace" font-weight="bold" text-anchor="end" transform="rotate(-60, 253.32608695652175, 512.4)">
mail
</text>
<rect x="262.5217391304348" y="479.7199517375908" width="4.597826086956522" height="18.280048262409128" fill="#7070f8" data-tooltip="1.00x baseline speed (No JIT)"/>
<line x1="262.5217391304348" y1="479.7058120674036" x2="267.1195652173913" y2="479.7058120674036" stroke="#000"/>
<line x1="262.5217391304348" y1="479.73409140777795" x2="267.1195652173913" y2="479.73409140777795" stroke="#000"/>
<line x1="264.82065217391306" y1="479.7058120674036" x2="264.82065217391306" y2="479.73409140777795" stroke="#000"/>
<rect x="267.1195652173913" y="469.1772738938246" width="4.597826086956522" height="28.82272610617542" fill="orange" data-tooltip="1.58x baseline speed (YJIT 3.3.1)"/>
<line x1="267.1195652173913" y1="469.1515232988585" x2="271.71739130434787" y2="469.1515232988585" stroke="#000"/>
<line x1="267.1195652173913" y1="469.2030244887906" x2="271.71739130434787" y2="469.2030244887906" stroke="#000"/>
<line x1="269.41847826086956" y1="469.1515232988585" x2="269.41847826086956" y2="469.2030244887906" stroke="#000"/>
<rect x="271.71739130434787" y="466.0280399564174" width="4.597826086956522" height="31.971960043582513" fill="green" data-tooltip="1.75x baseline speed (YJIT 3.4.0dev)"/>
<line x1="271.71739130434787" y1="466.00279511685375" x2="276.3152173913044" y2="466.00279511685375" stroke="#000"/>
<line x1="271.71739130434787" y1="466.053284795981" x2="276.3152173913044" y2="466.053284795981" stroke="#000"/>
<line x1="274.01630434782606" y1="466.00279511685375" x2="274.01630434782606" y2="466.053284795981" stroke="#000"/>
<line x1="271.71739130434787" y1="498.0" x2="271.71739130434787" y2="502.79999999999995" stroke="#000"/>
<text x="271.71739130434787" y="512.4" fill="#111" font-size="small" font-family="monospace" font-weight="bold" text-anchor="end" transform="rotate(-60, 271.71739130434787, 512.4)">
psych-load
</text>
<rect x="280.9130434782609" y="479.7199517375908" width="4.597826086956522" height="18.280048262409128" fill="#7070f8" data-tooltip="1.00x baseline speed (No JIT)"/>
<line x1="280.9130434782609" y1="479.71020752031774" x2="285.5108695652174" y2="479.71020752031774" stroke="#000"/>
<line x1="280.9130434782609" y1="479.72969595486387" x2="285.5108695652174" y2="479.72969595486387" stroke="#000"/>
<line x1="283.21195652173907" y1="479.71020752031774" x2="283.21195652173907" y2="479.72969595486387" stroke="#000"/>
<rect x="285.5108695652174" y="470.2866398765694" width="4.597826086956522" height="27.713360123430515" fill="orange" data-tooltip="1.52x baseline speed (YJIT 3.3.1)"/>
<line x1="285.5108695652174" y1="470.1658142189133" x2="290.1086956521739" y2="470.1658142189133" stroke="#000"/>
<line x1="285.5108695652174" y1="470.4074655342255" x2="290.1086956521739" y2="470.4074655342255" stroke="#000"/>
<line x1="287.8097826086956" y1="470.1658142189133" x2="287.8097826086956" y2="470.4074655342255" stroke="#000"/>
<rect x="290.1086956521739" y="467.77317030232757" width="4.597826086956522" height="30.226829697672336" fill="green" data-tooltip="1.65x baseline speed (YJIT 3.4.0dev)"/>
<line x1="290.1086956521739" y1="467.7556607786853" x2="294.70652173913044" y2="467.7556607786853" stroke="#000"/>
<line x1="290.1086956521739" y1="467.79067982596985" x2="294.70652173913044" y2="467.79067982596985" stroke="#000"/>
<line x1="292.40760869565213" y1="467.7556607786853" x2="292.40760869565213" y2="467.79067982596985" stroke="#000"/>
<line x1="290.1086956521739" y1="498.0" x2="290.1086956521739" y2="502.79999999999995" stroke="#000"/>
<text x="290.1086956521739" y="512.4" fill="#111" font-size="small" font-family="monospace" font-weight="bold" text-anchor="end" transform="rotate(-60, 290.1086956521739, 512.4)">
railsbench
</text>
<rect x="299.30434782608694" y="479.7199517375908" width="4.597826086956522" height="18.280048262409128" fill="#7070f8" data-tooltip="1.00x baseline speed (No JIT)"/>
<line x1="299.30434782608694" y1="479.62784736955945" x2="303.9021739130435" y2="479.62784736955945" stroke="#000"/>
<line x1="299.30434782608694" y1="479.81205610562216" x2="303.9021739130435" y2="479.81205610562216" stroke="#000"/>
<line x1="301.6032608695652" y1="479.62784736955945" x2="301.6032608695652" y2="479.81205610562216" stroke="#000"/>
<rect x="303.9021739130435" y="473.3079402267264" width="4.597826086956522" height="24.692059773273538" fill="orange" data-tooltip="1.35x baseline speed (YJIT 3.3.1)"/>
<line x1="303.9021739130435" y1="472.2020579722737" x2="308.5" y2="472.2020579722737" stroke="#000"/>
<line x1="303.9021739130435" y1="474.413822481179" x2="308.5" y2="474.413822481179" stroke="#000"/>
<line x1="306.2010869565217" y1="472.2020579722737" x2="306.2010869565217" y2="474.413822481179" stroke="#000"/>
<rect x="308.5" y="470.6328541899157" width="4.597826086956522" height="27.36714581008424" fill="green" data-tooltip="1.50x baseline speed (YJIT 3.4.0dev)"/>
<line x1="308.5" y1="469.533560376871" x2="313.0978260869565" y2="469.533560376871" stroke="#000"/>
<line x1="308.5" y1="471.73214800296034" x2="313.0978260869565" y2="471.73214800296034" stroke="#000"/>
<line x1="310.79891304347825" y1="469.533560376871" x2="310.79891304347825" y2="471.73214800296034" stroke="#000"/>
<line x1="308.5" y1="498.0" x2="308.5" y2="502.79999999999995" stroke="#000"/>
<text x="308.5" y="512.4" fill="#111" font-size="small" font-family="monospace" font-weight="bold" text-anchor="end" transform="rotate(-60, 308.5, 512.4)">
rubocop
</text>
<rect x="317.69565217391306" y="479.7199517375908" width="4.597826086956522" height="18.280048262409128" fill="#7070f8" data-tooltip="1.00x baseline speed (No JIT)"/>
<line x1="317.69565217391306" y1="479.69415580005676" x2="322.29347826086956" y2="479.69415580005676" stroke="#000"/>
<line x1="317.69565217391306" y1="479.74574767512485" x2="322.29347826086956" y2="479.74574767512485" stroke="#000"/>
<line x1="319.99456521739125" y1="479.69415580005676" x2="319.99456521739125" y2="479.74574767512485" stroke="#000"/>
<rect x="322.29347826086956" y="473.334194098306" width="4.597826086956522" height="24.66580590169395" fill="orange" data-tooltip="1.35x baseline speed (YJIT 3.3.1)"/>
<line x1="322.29347826086956" y1="473.06671536992036" x2="326.8913043478261" y2="473.06671536992036" stroke="#000"/>
<line x1="322.29347826086956" y1="473.6016728266917" x2="326.8913043478261" y2="473.6016728266917" stroke="#000"/>
<line x1="324.5923913043478" y1="473.06671536992036" x2="324.5923913043478" y2="473.6016728266917" stroke="#000"/>
<rect x="326.8913043478261" y="474.656748065909" width="4.597826086956522" height="23.343251934090986" fill="green" data-tooltip="1.28x baseline speed (YJIT 3.4.0dev)"/>
<line x1="326.8913043478261" y1="474.5027928346984" x2="331.4891304347826" y2="474.5027928346984" stroke="#000"/>
<line x1="326.8913043478261" y1="474.81070329711963" x2="331.4891304347826" y2="474.81070329711963" stroke="#000"/>
<line x1="329.1902173913043" y1="474.5027928346984" x2="329.1902173913043" y2="474.81070329711963" stroke="#000"/>
<line x1="326.8913043478261" y1="498.0" x2="326.8913043478261" y2="502.79999999999995" stroke="#000"/>
<text x="326.8913043478261" y="512.4" fill="#111" font-size="small" font-family="monospace" font-weight="bold" text-anchor="end" transform="rotate(-60, 326.8913043478261, 512.4)">
ruby-lsp
</text>
<rect x="336.0869565217391" y="479.7199517375908" width="4.597826086956522" height="18.280048262409128" fill="#7070f8" data-tooltip="1.00x baseline speed (No JIT)"/>
<line x1="336.0869565217391" y1="479.68148342629706" x2="340.6847826086957" y2="479.68148342629706" stroke="#000"/>
<line x1="336.0869565217391" y1="479.7584200488845" x2="340.6847826086957" y2="479.7584200488845" stroke="#000"/>
<line x1="338.3858695652174" y1="479.68148342629706" x2="338.3858695652174" y2="479.7584200488845" stroke="#000"/>
<rect x="340.6847826086957" y="477.8525286621295" width="4.597826086956522" height="20.147471337870464" fill="orange" data-tooltip="1.10x baseline speed (YJIT 3.3.1)"/>
<line x1="340.6847826086957" y1="477.79572678147235" x2="345.2826086956522" y2="477.79572678147235" stroke="#000"/>
<line x1="340.6847826086957" y1="477.9093305427866" x2="345.2826086956522" y2="477.9093305427866" stroke="#000"/>
<line x1="342.9836956521739" y1="477.79572678147235" x2="342.9836956521739" y2="477.9093305427866" stroke="#000"/>
<rect x="345.2826086956522" y="476.1851384765059" width="4.597826086956522" height="21.81486152349404" fill="green" data-tooltip="1.19x baseline speed (YJIT 3.4.0dev)"/>
<line x1="345.2826086956522" y1="476.11162347797506" x2="349.88043478260875" y2="476.11162347797506" stroke="#000"/>
<line x1="345.2826086956522" y1="476.25865347503685" x2="349.88043478260875" y2="476.25865347503685" stroke="#000"/>
<line x1="347.58152173913044" y1="476.11162347797506" x2="347.58152173913044" y2="476.25865347503685" stroke="#000"/>
<line x1="345.2826086956522" y1="498.0" x2="345.2826086956522" y2="502.79999999999995" stroke="#000"/>
<text x="345.2826086956522" y="512.4" fill="#111" font-size="small" font-family="monospace" font-weight="bold" text-anchor="end" transform="rotate(-60, 345.2826086956522, 512.4)">
sequel
</text>
<rect x="354.47826086956525" y="479.7199517375908" width="4.597826086956522" height="18.280048262409128" fill="#7070f8" data-tooltip="1.00x baseline speed (No JIT)"/>
<line x1="354.47826086956525" y1="479.5488766726426" x2="359.07608695652175" y2="479.5488766726426" stroke="#000"/>
<line x1="354.47826086956525" y1="479.891026802539" x2="359.07608695652175" y2="479.891026802539" stroke="#000"/>
<line x1="356.7771739130435" y1="479.5488766726426" x2="356.7771739130435" y2="479.891026802539" stroke="#000"/>
<rect x="359.07608695652175" y="460.0220937418304" width="4.597826086956522" height="37.97790625816953" fill="orange" data-tooltip="2.08x baseline speed (YJIT 3.3.1)"/>
<line x1="359.07608695652175" y1="459.0899457596939" x2="363.6739130434783" y2="459.0899457596939" stroke="#000"/>
<line x1="359.07608695652175" y1="460.9542417239669" x2="363.6739130434783" y2="460.9542417239669" stroke="#000"/>
<line x1="361.375" y1="459.0899457596939" x2="361.375" y2="460.9542417239669" stroke="#000"/>
<rect x="363.6739130434783" y="457.49690123126487" width="4.597826086956522" height="40.503098768735065" fill="green" data-tooltip="2.22x baseline speed (YJIT 3.4.0dev)"/>
<line x1="363.6739130434783" y1="456.5645745291513" x2="368.2717391304348" y2="456.5645745291513" stroke="#000"/>
<line x1="363.6739130434783" y1="458.4292279333785" x2="368.2717391304348" y2="458.4292279333785" stroke="#000"/>
<line x1="365.9728260869565" y1="456.5645745291513" x2="365.9728260869565" y2="458.4292279333785" stroke="#000"/>
<line x1="363.6739130434783" y1="498.0" x2="363.6739130434783" y2="502.79999999999995" stroke="#000"/>
<text x="363.6739130434783" y="512.4" fill="#111" font-size="small" font-family="monospace" font-weight="bold" text-anchor="end" transform="rotate(-60, 363.6739130434783, 512.4)">
binarytrees
</text>
<rect x="372.86956521739137" y="479.7199517375908" width="4.597826086956522" height="18.280048262409128" fill="#7070f8" data-tooltip="1.00x baseline speed (No JIT)"/>
<line x1="372.86956521739137" y1="479.49288932095686" x2="377.46739130434787" y2="479.49288932095686" stroke="#000"/>
<line x1="372.86956521739137" y1="479.94701415422475" x2="377.46739130434787" y2="479.94701415422475" stroke="#000"/>
<line x1="375.16847826086956" y1="479.49288932095686" x2="375.16847826086956" y2="479.94701415422475" stroke="#000"/>
<rect x="377.46739130434787" y="455.73603255362553" width="4.597826086956522" height="42.26396744637437" fill="orange" data-tooltip="2.31x baseline speed (YJIT 3.3.1)"/>
<line x1="377.46739130434787" y1="455.19134062433363" x2="382.0652173913044" y2="455.19134062433363" stroke="#000"/>
<line x1="377.46739130434787" y1="456.28072448291744" x2="382.0652173913044" y2="456.28072448291744" stroke="#000"/>
<line x1="379.7663043478261" y1="455.19134062433363" x2="379.7663043478261" y2="456.28072448291744" stroke="#000"/>
<rect x="382.0652173913044" y="452.8297713527333" width="4.597826086956522" height="45.17022864726663" fill="green" data-tooltip="2.47x baseline speed (YJIT 3.4.0dev)"/>
<line x1="382.0652173913044" y1="452.2469442306784" x2="386.66304347826093" y2="452.2469442306784" stroke="#000"/>
<line x1="382.0652173913044" y1="453.4125984747882" x2="386.66304347826093" y2="453.4125984747882" stroke="#000"/>
<line x1="384.3641304347826" y1="452.2469442306784" x2="384.3641304347826" y2="453.4125984747882" stroke="#000"/>
<line x1="382.0652173913044" y1="498.0" x2="382.0652173913044" y2="502.79999999999995" stroke="#000"/>
<text x="382.0652173913044" y="512.4" fill="#111" font-size="small" font-family="monospace" font-weight="bold" text-anchor="end" transform="rotate(-60, 382.0652173913044, 512.4)">
blurhash
</text>
<rect x="391.26086956521743" y="479.7199517375908" width="4.597826086956522" height="18.280048262409128" fill="#7070f8" data-tooltip="1.00x baseline speed (No JIT)"/>
<line x1="391.26086956521743" y1="479.69171539456624" x2="395.858695652174" y2="479.69171539456624" stroke="#000"/>
<line x1="391.26086956521743" y1="479.7481880806153" x2="395.858695652174" y2="479.7481880806153" stroke="#000"/>
<line x1="393.5597826086957" y1="479.69171539456624" x2="393.5597826086957" y2="479.7481880806153" stroke="#000"/>
<rect x="395.858695652174" y="478.48101978528933" width="4.597826086956522" height="19.518980214710542" fill="orange" data-tooltip="1.07x baseline speed (YJIT 3.3.1)"/>
<line x1="395.858695652174" y1="478.44233497279225" x2="400.4565217391305" y2="478.44233497279225" stroke="#000"/>
<line x1="395.858695652174" y1="478.5197045977864" x2="400.4565217391305" y2="478.5197045977864" stroke="#000"/>
<line x1="398.1576086956522" y1="478.44233497279225" x2="398.1576086956522" y2="478.5197045977864" stroke="#000"/>
<rect x="400.4565217391305" y="477.0784094450082" width="4.597826086956522" height="20.921590554991727" fill="green" data-tooltip="1.14x baseline speed (YJIT 3.4.0dev)"/>
<line x1="400.4565217391305" y1="477.0400937979207" x2="405.054347826087" y2="477.0400937979207" stroke="#000"/>
<line x1="400.4565217391305" y1="477.11672509209575" x2="405.054347826087" y2="477.11672509209575" stroke="#000"/>
<line x1="402.75543478260875" y1="477.0400937979207" x2="402.75543478260875" y2="477.11672509209575" stroke="#000"/>
<line x1="400.4565217391305" y1="498.0" x2="400.4565217391305" y2="502.79999999999995" stroke="#000"/>
<text x="400.4565217391305" y="512.4" fill="#111" font-size="small" font-family="monospace" font-weight="bold" text-anchor="end" transform="rotate(-60, 400.4565217391305, 512.4)">
erubi
</text>
<rect x="409.65217391304355" y="479.7199517375908" width="4.597826086956522" height="18.280048262409128" fill="#7070f8" data-tooltip="1.00x baseline speed (No JIT)"/>
<line x1="409.65217391304355" y1="479.71322277374026" x2="414.25000000000006" y2="479.71322277374026" stroke="#000"/>
<line x1="409.65217391304355" y1="479.7266807014413" x2="414.25000000000006" y2="479.7266807014413" stroke="#000"/>
<line x1="411.95108695652175" y1="479.71322277374026" x2="411.95108695652175" y2="479.7266807014413" stroke="#000"/>
<rect x="414.25000000000006" y="447.25822968517184" width="4.597826086956522" height="50.741770314828074" fill="orange" data-tooltip="2.78x baseline speed (YJIT 3.3.1)"/>
<line x1="414.25000000000006" y1="447.18685266417333" x2="418.8478260869566" y2="447.18685266417333" stroke="#000"/>
<line x1="414.25000000000006" y1="447.32960670617035" x2="418.8478260869566" y2="447.32960670617035" stroke="#000"/>
<line x1="416.5489130434783" y1="447.18685266417333" x2="416.5489130434783" y2="447.32960670617035" stroke="#000"/>
<rect x="418.8478260869566" y="478.4546197469612" width="4.597826086956522" height="19.545380253038765" fill="green" data-tooltip="1.07x baseline speed (YJIT 3.4.0dev)"/>
<line x1="418.8478260869566" y1="478.44521861183694" x2="423.4456521739131" y2="478.44521861183694" stroke="#000"/>
<line x1="418.8478260869566" y1="478.46402088208555" x2="423.4456521739131" y2="478.46402088208555" stroke="#000"/>
<line x1="421.1467391304348" y1="478.44521861183694" x2="421.1467391304348" y2="478.46402088208555" stroke="#000"/>
<line x1="418.8478260869566" y1="498.0" x2="418.8478260869566" y2="502.79999999999995" stroke="#000"/>
<text x="418.8478260869566" y="512.4" fill="#111" font-size="small" font-family="monospace" font-weight="bold" text-anchor="end" transform="rotate(-60, 418.8478260869566, 512.4)">
etanni
</text>
<rect x="428.0434782608696" y="479.7199517375908" width="4.597826086956522" height="18.280048262409128" fill="#7070f8" data-tooltip="1.00x baseline speed (No JIT)"/>
<line x1="428.0434782608696" y1="479.51037087922975" x2="432.6413043478262" y2="479.51037087922975" stroke="#000"/>
<line x1="428.0434782608696" y1="479.92953259595186" x2="432.6413043478262" y2="479.92953259595186" stroke="#000"/>
<line x1="430.34239130434787" y1="479.51037087922975" x2="430.34239130434787" y2="479.92953259595186" stroke="#000"/>
<rect x="432.6413043478262" y="434.9829496154754" width="4.597826086956522" height="63.01705038452459" fill="orange" data-tooltip="3.45x baseline speed (YJIT 3.3.1)"/>
<line x1="432.6413043478262" y1="434.157759535953" x2="437.2391304347827" y2="434.157759535953" stroke="#000"/>
<line x1="432.6413043478262" y1="435.8081396949978" x2="437.2391304347827" y2="435.8081396949978" stroke="#000"/>
<line x1="434.9402173913044" y1="434.157759535953" x2="434.9402173913044" y2="435.8081396949978" stroke="#000"/>
<rect x="437.2391304347827" y="423.47677842445404" width="4.597826086956522" height="74.52322157554593" fill="green" data-tooltip="4.08x baseline speed (YJIT 3.4.0dev)"/>
<line x1="437.2391304347827" y1="422.6114111146456" x2="441.8369565217392" y2="422.6114111146456" stroke="#000"/>
<line x1="437.2391304347827" y1="424.3421457342625" x2="441.8369565217392" y2="424.3421457342625" stroke="#000"/>
<line x1="439.53804347826093" y1="422.6114111146456" x2="439.53804347826093" y2="424.3421457342625" stroke="#000"/>
<line x1="437.2391304347827" y1="498.0" x2="437.2391304347827" y2="502.79999999999995" stroke="#000"/>
<text x="437.2391304347827" y="512.4" fill="#111" font-size="small" font-family="monospace" font-weight="bold" text-anchor="end" transform="rotate(-60, 437.2391304347827, 512.4)">
fannkuchredux
</text>
<rect x="446.4347826086956" y="479.7199517375908" width="4.597826086956522" height="18.280048262409128" fill="#7070f8" data-tooltip="1.00x baseline speed (No JIT)"/>
<line x1="446.4347826086956" y1="479.5888578536652" x2="451.03260869565213" y2="479.5888578536652" stroke="#000"/>
<line x1="446.4347826086956" y1="479.85104562151633" x2="451.03260869565213" y2="479.85104562151633" stroke="#000"/>
<line x1="448.7336956521739" y1="479.5888578536652" x2="448.7336956521739" y2="479.85104562151633" stroke="#000"/>
<rect x="451.03260869565213" y="480.62359488799325" width="4.597826086956522" height="17.376405112006623" fill="orange" data-tooltip="0.95x baseline speed (YJIT 3.3.1)"/>
<line x1="451.03260869565213" y1="480.45885470031453" x2="455.6304347826087" y2="480.45885470031453" stroke="#000"/>
<line x1="451.03260869565213" y1="480.7883350756719" x2="455.6304347826087" y2="480.7883350756719" stroke="#000"/>
<line x1="453.3315217391304" y1="480.45885470031453" x2="453.3315217391304" y2="480.7883350756719" stroke="#000"/>
<rect x="455.6304347826087" y="474.93190074627984" width="4.597826086956522" height="23.068099253720174" fill="green" data-tooltip="1.26x baseline speed (YJIT 3.4.0dev)"/>
<line x1="455.6304347826087" y1="474.71819539380755" x2="460.2282608695652" y2="474.71819539380755" stroke="#000"/>
<line x1="455.6304347826087" y1="475.1456060987521" x2="460.2282608695652" y2="475.1456060987521" stroke="#000"/>
<line x1="457.9293478260869" y1="474.71819539380755" x2="457.9293478260869" y2="475.1456060987521" stroke="#000"/>
<line x1="455.6304347826087" y1="498.0" x2="455.6304347826087" y2="502.79999999999995" stroke="#000"/>
<text x="455.6304347826087" y="512.4" fill="#111" font-size="small" font-family="monospace" font-weight="bold" text-anchor="end" transform="rotate(-60, 455.6304347826087, 512.4)">
fluentd
</text>
<rect x="464.82608695652175" y="479.7199517375908" width="4.597826086956522" height="18.280048262409128" fill="#7070f8" data-tooltip="1.00x baseline speed (No JIT)"/>
<line x1="464.82608695652175" y1="479.70510745906483" x2="469.42391304347825" y2="479.70510745906483" stroke="#000"/>
<line x1="464.82608695652175" y1="479.7347960161168" x2="469.42391304347825" y2="479.7347960161168" stroke="#000"/>
<line x1="467.12499999999994" y1="479.70510745906483" x2="467.12499999999994" y2="479.7347960161168" stroke="#000"/>
<rect x="469.42391304347825" y="475.7362632014928" width="4.597826086956522" height="22.263736798507054" fill="orange" data-tooltip="1.22x baseline speed (YJIT 3.3.1)"/>
<line x1="469.42391304347825" y1="475.7166377794812" x2="474.02173913043475" y2="475.7166377794812" stroke="#000"/>
<line x1="469.42391304347825" y1="475.75588862350446" x2="474.02173913043475" y2="475.75588862350446" stroke="#000"/>
<line x1="471.7228260869565" y1="475.7166377794812" x2="471.7228260869565" y2="475.75588862350446" stroke="#000"/>
<rect x="474.02173913043475" y="474.7831492892737" width="4.597826086956522" height="23.216850710726256" fill="green" data-tooltip="1.27x baseline speed (YJIT 3.4.0dev)"/>
<line x1="474.02173913043475" y1="474.76278062237805" x2="478.6195652173913" y2="474.76278062237805" stroke="#000"/>
<line x1="474.02173913043475" y1="474.8035179561694" x2="478.6195652173913" y2="474.8035179561694" stroke="#000"/>
<line x1="476.320652173913" y1="474.76278062237805" x2="476.320652173913" y2="474.8035179561694" stroke="#000"/>
<line x1="474.02173913043475" y1="498.0" x2="474.02173913043475" y2="502.79999999999995" stroke="#000"/>
<text x="474.02173913043475" y="512.4" fill="#111" font-size="small" font-family="monospace" font-weight="bold" text-anchor="end" transform="rotate(-60, 474.02173913043475, 512.4)">
graphql
</text>
<rect x="483.2173913043478" y="479.7199517375908" width="4.597826086956522" height="18.280048262409128" fill="#7070f8" data-tooltip="1.00x baseline speed (No JIT)"/>
<line x1="483.2173913043478" y1="479.71201201664604" x2="487.8152173913044" y2="479.71201201664604" stroke="#000"/>
<line x1="483.2173913043478" y1="479.72789145853557" x2="487.8152173913044" y2="479.72789145853557" stroke="#000"/>
<line x1="485.51630434782606" y1="479.71201201664604" x2="485.51630434782606" y2="479.72789145853557" stroke="#000"/>
<rect x="487.8152173913044" y="479.22005177117717" width="4.597826086956522" height="18.77994822882272" fill="orange" data-tooltip="1.03x baseline speed (YJIT 3.3.1)"/>
<line x1="487.8152173913044" y1="479.2077726615721" x2="492.4130434782609" y2="479.2077726615721" stroke="#000"/>
<line x1="487.8152173913044" y1="479.2323308807823" x2="492.4130434782609" y2="479.2323308807823" stroke="#000"/>
<line x1="490.11413043478257" y1="479.2077726615721" x2="490.11413043478257" y2="479.2323308807823" stroke="#000"/>
<rect x="492.4130434782609" y="477.71167985092274" width="4.597826086956522" height="20.28832014907723" fill="green" data-tooltip="1.11x baseline speed (YJIT 3.4.0dev)"/>
<line x1="492.4130434782609" y1="477.7014479718415" x2="497.0108695652174" y2="477.7014479718415" stroke="#000"/>
<line x1="492.4130434782609" y1="477.7219117300039" x2="497.0108695652174" y2="477.7219117300039" stroke="#000"/>
<line x1="494.7119565217391" y1="477.7014479718415" x2="494.7119565217391" y2="477.7219117300039" stroke="#000"/>
<line x1="492.4130434782609" y1="498.0" x2="492.4130434782609" y2="502.79999999999995" stroke="#000"/>
<text x="492.4130434782609" y="512.4" fill="#111" font-size="small" font-family="monospace" font-weight="bold" text-anchor="end" transform="rotate(-60, 492.4130434782609, 512.4)">
graphql-native
</text>
<rect x="501.60869565217394" y="479.7199517375908" width="4.597826086956522" height="18.280048262409128" fill="#7070f8" data-tooltip="1.00x baseline speed (No JIT)"/>
<line x1="501.60869565217394" y1="479.5997110624294" x2="506.2065217391304" y2="479.5997110624294" stroke="#000"/>
<line x1="501.60869565217394" y1="479.8401924127522" x2="506.2065217391304" y2="479.8401924127522" stroke="#000"/>
<line x1="503.9076086956522" y1="479.5997110624294" x2="503.9076086956522" y2="479.8401924127522" stroke="#000"/>
<rect x="506.2065217391304" y="474.5578950323499" width="4.597826086956522" height="23.442104967649986" fill="orange" data-tooltip="1.28x baseline speed (YJIT 3.3.1)"/>
<line x1="506.2065217391304" y1="474.25469507834185" x2="510.8043478260869" y2="474.25469507834185" stroke="#000"/>
<line x1="506.2065217391304" y1="474.86109498635795" x2="510.8043478260869" y2="474.86109498635795" stroke="#000"/>
<line x1="508.5054347826087" y1="474.25469507834185" x2="508.5054347826087" y2="474.86109498635795" stroke="#000"/>
<rect x="510.804347826087" y="471.306736110087" width="4.597826086956522" height="26.693263889912927" fill="green" data-tooltip="1.46x baseline speed (YJIT 3.4.0dev)"/>
<line x1="510.804347826087" y1="471.0264815230394" x2="515.4021739130434" y2="471.0264815230394" stroke="#000"/>
<line x1="510.804347826087" y1="471.5869906971345" x2="515.4021739130434" y2="471.5869906971345" stroke="#000"/>
<line x1="513.1032608695652" y1="471.0264815230394" x2="513.1032608695652" y2="471.5869906971345" stroke="#000"/>
<line x1="510.804347826087" y1="498.0" x2="510.804347826087" y2="502.79999999999995" stroke="#000"/>
<text x="510.804347826087" y="512.4" fill="#111" font-size="small" font-family="monospace" font-weight="bold" text-anchor="end" transform="rotate(-60, 510.804347826087, 512.4)">
lee
</text>
<rect x="520.0" y="479.7199517375908" width="4.597826086956522" height="18.280048262409128" fill="#7070f8" data-tooltip="1.00x baseline speed (No JIT)"/>
<line x1="520.0" y1="479.6059315964816" x2="524.5978260869565" y2="479.6059315964816" stroke="#000"/>
<line x1="520.0" y1="479.83397187869997" x2="524.5978260869565" y2="479.83397187869997" stroke="#000"/>
<line x1="522.2989130434783" y1="479.6059315964816" x2="522.2989130434783" y2="479.83397187869997" stroke="#000"/>
<rect x="524.5978260869565" y="462.7033665786534" width="4.597826086956522" height="35.2966334213466" fill="orange" data-tooltip="1.93x baseline speed (YJIT 3.3.1)"/>
<line x1="524.5978260869565" y1="462.43308750875224" x2="529.195652173913" y2="462.43308750875224" stroke="#000"/>
<line x1="524.5978260869565" y1="462.97364564855457" x2="529.195652173913" y2="462.97364564855457" stroke="#000"/>
<line x1="526.8967391304348" y1="462.43308750875224" x2="526.8967391304348" y2="462.97364564855457" stroke="#000"/>
<rect x="529.1956521739131" y="461.881214126143" width="4.597826086956522" height="36.1187858738569" fill="green" data-tooltip="1.98x baseline speed (YJIT 3.4.0dev)"/>
<line x1="529.1956521739131" y1="461.65448604078637" x2="533.7934782608695" y2="461.65448604078637" stroke="#000"/>
<line x1="529.1956521739131" y1="462.1079422114996" x2="533.7934782608695" y2="462.1079422114996" stroke="#000"/>
<line x1="531.4945652173914" y1="461.65448604078637" x2="531.4945652173914" y2="462.1079422114996" stroke="#000"/>
<line x1="529.1956521739131" y1="498.0" x2="529.1956521739131" y2="502.79999999999995" stroke="#000"/>
<text x="529.1956521739131" y="512.4" fill="#111" font-size="small" font-family="monospace" font-weight="bold" text-anchor="end" transform="rotate(-60, 529.1956521739131, 512.4)">
matmul
</text>
<rect x="538.3913043478261" y="479.7199517375908" width="4.597826086956522" height="18.280048262409128" fill="#7070f8" data-tooltip="1.00x baseline speed (No JIT)"/>
<line x1="538.3913043478261" y1="479.56481421026723" x2="542.9891304347826" y2="479.56481421026723" stroke="#000"/>
<line x1="538.3913043478261" y1="479.8750892649143" x2="542.9891304347826" y2="479.8750892649143" stroke="#000"/>
<line x1="540.6902173913044" y1="479.56481421026723" x2="540.6902173913044" y2="479.8750892649143" stroke="#000"/>
<rect x="542.9891304347826" y="455.2064096574562" width="4.597826086956522" height="42.793590342543766" fill="orange" data-tooltip="2.34x baseline speed (YJIT 3.3.1)"/>
<line x1="542.9891304347826" y1="454.7913699709144" x2="547.586956521739" y2="454.7913699709144" stroke="#000"/>
<line x1="542.9891304347826" y1="455.62144934399805" x2="547.586956521739" y2="455.62144934399805" stroke="#000"/>
<line x1="545.2880434782609" y1="454.7913699709144" x2="545.2880434782609" y2="455.62144934399805" stroke="#000"/>
<rect x="547.5869565217391" y="453.51347513560563" width="4.597826086956522" height="44.4865248643943" fill="green" data-tooltip="2.43x baseline speed (YJIT 3.4.0dev)"/>
<line x1="547.5869565217391" y1="453.03521543452183" x2="552.1847826086956" y2="453.03521543452183" stroke="#000"/>
<line x1="547.5869565217391" y1="453.9917348366894" x2="552.1847826086956" y2="453.9917348366894" stroke="#000"/>
<line x1="549.8858695652175" y1="453.03521543452183" x2="549.8858695652175" y2="453.9917348366894" stroke="#000"/>
<line x1="547.5869565217391" y1="498.0" x2="547.5869565217391" y2="502.79999999999995" stroke="#000"/>
<text x="547.5869565217391" y="512.4" fill="#111" font-size="small" font-family="monospace" font-weight="bold" text-anchor="end" transform="rotate(-60, 547.5869565217391, 512.4)">
nbody
</text>
<rect x="556.7826086956522" y="479.7199517375908" width="4.597826086956522" height="18.280048262409128" fill="#7070f8" data-tooltip="1.00x baseline speed (No JIT)"/>
<line x1="556.7826086956522" y1="479.2963146253634" x2="561.3804347826086" y2="479.2963146253634" stroke="#000"/>
<line x1="556.7826086956522" y1="480.14358884981823" x2="561.3804347826086" y2="480.14358884981823" stroke="#000"/>
<line x1="559.0815217391305" y1="479.2963146253634" x2="559.0815217391305" y2="480.14358884981823" stroke="#000"/>
<rect x="561.3804347826086" y="479.43066353754585" width="4.597826086956522" height="18.56933646245412" fill="orange" data-tooltip="1.02x baseline speed (YJIT 3.3.1)"/>
<line x1="561.3804347826086" y1="478.78183005237076" x2="565.9782608695651" y2="478.78183005237076" stroke="#000"/>
<line x1="561.3804347826086" y1="480.079497022721" x2="565.9782608695651" y2="480.079497022721" stroke="#000"/>
<line x1="563.679347826087" y1="478.78183005237076" x2="563.679347826087" y2="480.079497022721" stroke="#000"/>
<rect x="565.9782608695652" y="392.6379056434828" width="4.597826086956522" height="105.36209435651712" fill="green" data-tooltip="5.76x baseline speed (YJIT 3.4.0dev)"/>
<line x1="565.9782608695652" y1="390.17867345567254" x2="570.5760869565217" y2="390.17867345567254" stroke="#000"/>
<line x1="565.9782608695652" y1="395.097137831293" x2="570.5760869565217" y2="395.097137831293" stroke="#000"/>
<line x1="568.2771739130435" y1="390.17867345567254" x2="568.2771739130435" y2="395.097137831293" stroke="#000"/>
<line x1="565.9782608695652" y1="498.0" x2="565.9782608695652" y2="502.79999999999995" stroke="#000"/>
<text x="565.9782608695652" y="512.4" fill="#111" font-size="small" font-family="monospace" font-weight="bold" text-anchor="end" transform="rotate(-60, 565.9782608695652, 512.4)">
nqueens
</text>
<rect x="575.1739130434784" y="479.7199517375908" width="4.597826086956522" height="18.280048262409128" fill="#7070f8" data-tooltip="1.00x baseline speed (No JIT)"/>
<line x1="575.1739130434784" y1="479.64377244493244" x2="579.7717391304348" y2="479.64377244493244" stroke="#000"/>
<line x1="575.1739130434784" y1="479.7961310302491" x2="579.7717391304348" y2="479.7961310302491" stroke="#000"/>
<line x1="577.4728260869566" y1="479.64377244493244" x2="577.4728260869566" y2="479.7961310302491" stroke="#000"/>
<rect x="579.7717391304348" y="459.17397509598715" width="4.597826086956522" height="38.8260249040128" fill="orange" data-tooltip="2.12x baseline speed (YJIT 3.3.1)"/>
<line x1="579.7717391304348" y1="458.9240305410118" x2="584.3695652173913" y2="458.9240305410118" stroke="#000"/>
<line x1="579.7717391304348" y1="459.4239196509625" x2="584.3695652173913" y2="459.4239196509625" stroke="#000"/>
<line x1="582.0706521739131" y1="458.9240305410118" x2="582.0706521739131" y2="459.4239196509625" stroke="#000"/>
<rect x="584.3695652173914" y="457.6421608802022" width="4.597826086956522" height="40.35783911979768" fill="green" data-tooltip="2.21x baseline speed (YJIT 3.4.0dev)"/>
<line x1="584.3695652173914" y1="457.40663123642554" x2="588.9673913043479" y2="457.40663123642554" stroke="#000"/>
<line x1="584.3695652173914" y1="457.87769052397886" x2="588.9673913043479" y2="457.87769052397886" stroke="#000"/>
<line x1="586.6684782608696" y1="457.40663123642554" x2="586.6684782608696" y2="457.87769052397886" stroke="#000"/>
<line x1="584.3695652173914" y1="498.0" x2="584.3695652173914" y2="502.79999999999995" stroke="#000"/>
<text x="584.3695652173914" y="512.4" fill="#111" font-size="small" font-family="monospace" font-weight="bold" text-anchor="end" transform="rotate(-60, 584.3695652173914, 512.4)">
optcarrot
</text>
<rect x="593.5652173913044" y="479.7199517375908" width="4.597826086956522" height="18.280048262409128" fill="#7070f8" data-tooltip="1.00x baseline speed (No JIT)"/>
<line x1="593.5652173913044" y1="479.5981095317052" x2="598.1630434782609" y2="479.5981095317052" stroke="#000"/>
<line x1="593.5652173913044" y1="479.84179394347643" x2="598.1630434782609" y2="479.84179394347643" stroke="#000"/>
<line x1="595.8641304347827" y1="479.5981095317052" x2="595.8641304347827" y2="479.84179394347643" stroke="#000"/>
<rect x="598.1630434782609" y="461.006410274988" width="4.597826086956522" height="36.99358972501193" fill="orange" data-tooltip="2.02x baseline speed (YJIT 3.3.1)"/>
<line x1="598.1630434782609" y1="460.7573891190902" x2="602.7608695652174" y2="460.7573891190902" stroke="#000"/>
<line x1="598.1630434782609" y1="461.25543143088584" x2="602.7608695652174" y2="461.25543143088584" stroke="#000"/>
<line x1="600.4619565217391" y1="460.7573891190902" x2="600.4619565217391" y2="461.25543143088584" stroke="#000"/>
<rect x="602.7608695652175" y="439.61324890128867" width="4.597826086956522" height="58.38675109871126" fill="green" data-tooltip="3.19x baseline speed (YJIT 3.4.0dev)"/>
<line x1="602.7608695652175" y1="439.1180700369007" x2="607.3586956521739" y2="439.1180700369007" stroke="#000"/>
<line x1="602.7608695652175" y1="440.1084277656767" x2="607.3586956521739" y2="440.1084277656767" stroke="#000"/>
<line x1="605.0597826086957" y1="439.1180700369007" x2="605.0597826086957" y2="440.1084277656767" stroke="#000"/>
<line x1="602.7608695652175" y1="498.0" x2="602.7608695652175" y2="502.79999999999995" stroke="#000"/>
<text x="602.7608695652175" y="512.4" fill="#111" font-size="small" font-family="monospace" font-weight="bold" text-anchor="end" transform="rotate(-60, 602.7608695652175, 512.4)">
protoboeuf
</text>
<rect x="611.9565217391304" y="479.7199517375908" width="4.597826086956522" height="18.280048262409128" fill="#7070f8" data-tooltip="1.00x baseline speed (No JIT)"/>
<line x1="611.9565217391304" y1="479.6407041555293" x2="616.5543478260869" y2="479.6407041555293" stroke="#000"/>
<line x1="611.9565217391304" y1="479.7991993196523" x2="616.5543478260869" y2="479.7991993196523" stroke="#000"/>
<line x1="614.2554347826087" y1="479.6407041555293" x2="614.2554347826087" y2="479.7991993196523" stroke="#000"/>
<rect x="616.5543478260869" y="473.97398997312774" width="4.597826086956522" height="24.02601002687225" fill="orange" data-tooltip="1.31x baseline speed (YJIT 3.3.1)"/>
<line x1="616.5543478260869" y1="473.8226674285873" x2="621.1521739130434" y2="473.8226674285873" stroke="#000"/>
<line x1="616.5543478260869" y1="474.12531251766814" x2="621.1521739130434" y2="474.12531251766814" stroke="#000"/>
<line x1="618.8532608695651" y1="473.8226674285873" x2="618.8532608695651" y2="474.12531251766814" stroke="#000"/>
<rect x="621.1521739130435" y="470.76807390691687" width="4.597826086956522" height="27.231926093083025" fill="green" data-tooltip="1.49x baseline speed (YJIT 3.4.0dev)"/>
<line x1="621.1521739130435" y1="470.47144517363006" x2="625.7499999999999" y2="470.47144517363006" stroke="#000"/>
<line x1="621.1521739130435" y1="471.06470264020373" x2="625.7499999999999" y2="471.06470264020373" stroke="#000"/>
<line x1="623.4510869565217" y1="470.47144517363006" x2="623.4510869565217" y2="471.06470264020373" stroke="#000"/>
<line x1="621.1521739130435" y1="498.0" x2="621.1521739130435" y2="502.79999999999995" stroke="#000"/>
<text x="621.1521739130435" y="512.4" fill="#111" font-size="small" font-family="monospace" font-weight="bold" text-anchor="end" transform="rotate(-60, 621.1521739130435, 512.4)">
rack
</text>
<rect x="630.3478260869565" y="479.7199517375908" width="4.597826086956522" height="18.280048262409128" fill="#7070f8" data-tooltip="1.00x baseline speed (No JIT)"/>
<line x1="630.3478260869565" y1="479.6958527576571" x2="634.945652173913" y2="479.6958527576571" stroke="#000"/>
<line x1="630.3478260869565" y1="479.7440507175245" x2="634.945652173913" y2="479.7440507175245" stroke="#000"/>
<line x1="632.6467391304348" y1="479.6958527576571" x2="632.6467391304348" y2="479.7440507175245" stroke="#000"/>
<rect x="634.945652173913" y="476.50313270408094" width="4.597826086956522" height="21.49686729591903" fill="orange" data-tooltip="1.18x baseline speed (YJIT 3.3.1)"/>
<line x1="634.945652173913" y1="476.4633581217419" x2="639.5434782608694" y2="476.4633581217419" stroke="#000"/>
<line x1="634.945652173913" y1="476.54290728642" x2="639.5434782608694" y2="476.54290728642" stroke="#000"/>
<line x1="637.2445652173913" y1="476.4633581217419" x2="637.2445652173913" y2="476.54290728642" stroke="#000"/>
<rect x="639.5434782608695" y="476.9054161142925" width="4.597826086956522" height="21.094583885707515" fill="green" data-tooltip="1.15x baseline speed (YJIT 3.4.0dev)"/>
<line x1="639.5434782608695" y1="476.8628858079065" x2="644.141304347826" y2="476.8628858079065" stroke="#000"/>
<line x1="639.5434782608695" y1="476.9479464206785" x2="644.141304347826" y2="476.9479464206785" stroke="#000"/>
<line x1="641.8423913043479" y1="476.8628858079065" x2="641.8423913043479" y2="476.9479464206785" stroke="#000"/>
<line x1="639.5434782608695" y1="498.0" x2="639.5434782608695" y2="502.79999999999995" stroke="#000"/>
<text x="639.5434782608695" y="512.4" fill="#111" font-size="small" font-family="monospace" font-weight="bold" text-anchor="end" transform="rotate(-60, 639.5434782608695, 512.4)">
ruby-json
</text>
<rect x="648.7391304347826" y="479.7199517375908" width="4.597826086956522" height="18.280048262409128" fill="#7070f8" data-tooltip="1.00x baseline speed (No JIT)"/>
<line x1="648.7391304347826" y1="479.66241246083723" x2="653.336956521739" y2="479.66241246083723" stroke="#000"/>
<line x1="648.7391304347826" y1="479.7774910143443" x2="653.336956521739" y2="479.7774910143443" stroke="#000"/>
<line x1="651.0380434782609" y1="479.66241246083723" x2="651.0380434782609" y2="479.7774910143443" stroke="#000"/>
<rect x="653.336956521739" y="466.3496274465214" width="4.597826086956522" height="31.65037255347849" fill="orange" data-tooltip="1.73x baseline speed (YJIT 3.3.1)"/>
<line x1="653.336956521739" y1="466.01408196859586" x2="657.9347826086955" y2="466.01408196859586" stroke="#000"/>
<line x1="653.336956521739" y1="466.68517292444693" x2="657.9347826086955" y2="466.68517292444693" stroke="#000"/>
<line x1="655.6358695652174" y1="466.01408196859586" x2="655.6358695652174" y2="466.68517292444693" stroke="#000"/>
<rect x="657.9347826086956" y="464.19497795105895" width="4.597826086956522" height="33.805022048941" fill="green" data-tooltip="1.85x baseline speed (YJIT 3.4.0dev)"/>
<line x1="657.9347826086956" y1="463.951347896177" x2="662.5326086956521" y2="463.951347896177" stroke="#000"/>
<line x1="657.9347826086956" y1="464.43860800594086" x2="662.5326086956521" y2="464.43860800594086" stroke="#000"/>
<line x1="660.233695652174" y1="463.951347896177" x2="660.233695652174" y2="464.43860800594086" stroke="#000"/>
<line x1="657.9347826086956" y1="498.0" x2="657.9347826086956" y2="502.79999999999995" stroke="#000"/>
<text x="657.9347826086956" y="512.4" fill="#111" font-size="small" font-family="monospace" font-weight="bold" text-anchor="end" transform="rotate(-60, 657.9347826086956, 512.4)">
rubykon
</text>
<rect x="667.1304347826087" y="479.7199517375908" width="4.597826086956522" height="18.280048262409128" fill="#7070f8" data-tooltip="1.00x baseline speed (No JIT)"/>
<line x1="667.1304347826087" y1="479.5879548711634" x2="671.7282608695651" y2="479.5879548711634" stroke="#000"/>
<line x1="667.1304347826087" y1="479.85194860401816" x2="671.7282608695651" y2="479.85194860401816" stroke="#000"/>
<line x1="669.429347826087" y1="479.5879548711634" x2="669.429347826087" y2="479.85194860401816" stroke="#000"/>
<rect x="671.7282608695651" y="443.2720624343269" width="4.597826086956522" height="54.72793756567308" fill="orange" data-tooltip="2.99x baseline speed (YJIT 3.3.1)"/>
<line x1="671.7282608695651" y1="442.87475352798833" x2="676.3260869565216" y2="442.87475352798833" stroke="#000"/>
<line x1="671.7282608695651" y1="443.6693713406655" x2="676.3260869565216" y2="443.6693713406655" stroke="#000"/>
<line x1="674.0271739130435" y1="442.87475352798833" x2="674.0271739130435" y2="443.6693713406655" stroke="#000"/>
<rect x="676.3260869565217" y="433.9431261648446" width="4.597826086956522" height="64.05687383515537" fill="green" data-tooltip="3.50x baseline speed (YJIT 3.4.0dev)"/>
<line x1="676.3260869565217" y1="433.48018190749195" x2="680.9239130434783" y2="433.48018190749195" stroke="#000"/>
<line x1="676.3260869565217" y1="434.4060704221973" x2="680.9239130434783" y2="434.4060704221973" stroke="#000"/>
<line x1="678.625" y1="433.48018190749195" x2="678.625" y2="434.4060704221973" stroke="#000"/>
<line x1="676.3260869565217" y1="498.0" x2="676.3260869565217" y2="502.79999999999995" stroke="#000"/>
<text x="676.3260869565217" y="512.4" fill="#111" font-size="small" font-family="monospace" font-weight="bold" text-anchor="end" transform="rotate(-60, 676.3260869565217, 512.4)">
sudoku
</text>
<rect x="685.5217391304348" y="479.7199517375908" width="4.597826086956522" height="18.280048262409128" fill="#7070f8" data-tooltip="1.00x baseline speed (No JIT)"/>
<line x1="685.5217391304348" y1="479.6729289870904" x2="690.1195652173913" y2="479.6729289870904" stroke="#000"/>
<line x1="685.5217391304348" y1="479.7669744880912" x2="690.1195652173913" y2="479.7669744880912" stroke="#000"/>
<line x1="687.8206521739131" y1="479.6729289870904" x2="687.8206521739131" y2="479.7669744880912" stroke="#000"/>
<rect x="690.1195652173913" y="462.19735475118904" width="4.597826086956522" height="35.802645248810876" fill="orange" data-tooltip="1.96x baseline speed (YJIT 3.3.1)"/>
<line x1="690.1195652173913" y1="462.0841178789441" x2="694.7173913043478" y2="462.0841178789441" stroke="#000"/>
<line x1="690.1195652173913" y1="462.310591623434" x2="694.7173913043478" y2="462.310591623434" stroke="#000"/>
<line x1="692.4184782608695" y1="462.0841178789441" x2="692.4184782608695" y2="462.310591623434" stroke="#000"/>
<rect x="694.7173913043479" y="461.6463303205358" width="4.597826086956522" height="36.35366967946415" fill="green" data-tooltip="1.99x baseline speed (YJIT 3.4.0dev)"/>
<line x1="694.7173913043479" y1="461.545744101241" x2="699.3152173913043" y2="461.545744101241" stroke="#000"/>
<line x1="694.7173913043479" y1="461.74691653983064" x2="699.3152173913043" y2="461.74691653983064" stroke="#000"/>
<line x1="697.0163043478261" y1="461.545744101241" x2="697.0163043478261" y2="461.74691653983064" stroke="#000"/>
<line x1="694.7173913043479" y1="498.0" x2="694.7173913043479" y2="502.79999999999995" stroke="#000"/>
<text x="694.7173913043479" y="512.4" fill="#111" font-size="small" font-family="monospace" font-weight="bold" text-anchor="end" transform="rotate(-60, 694.7173913043479, 512.4)">
tinygql
</text>
<rect x="703.9130434782609" y="479.7199517375908" width="4.597826086956522" height="18.280048262409128" fill="#7070f8" data-tooltip="1.00x baseline speed (No JIT)"/>
<line x1="703.9130434782609" y1="479.69870859415846" x2="708.5108695652174" y2="479.69870859415846" stroke="#000"/>
<line x1="703.9130434782609" y1="479.7411948810231" x2="708.5108695652174" y2="479.7411948810231" stroke="#000"/>
<line x1="706.2119565217391" y1="479.69870859415846" x2="706.2119565217391" y2="479.7411948810231" stroke="#000"/>
<rect x="708.5108695652174" y="409.17366434307263" width="4.597826086956522" height="88.82633565692736" fill="orange" data-tooltip="4.86x baseline speed (YJIT 3.3.1)"/>
<line x1="708.5108695652174" y1="409.0663505402021" x2="713.1086956521739" y2="409.0663505402021" stroke="#000"/>
<line x1="708.5108695652174" y1="409.28097814594315" x2="713.1086956521739" y2="409.28097814594315" stroke="#000"/>
<line x1="710.8097826086956" y1="409.0663505402021" x2="710.8097826086956" y2="409.28097814594315" stroke="#000"/>
<rect x="713.108695652174" y="406.22764429620753" width="4.597826086956522" height="91.77235570379246" fill="green" data-tooltip="5.02x baseline speed (YJIT 3.4.0dev)"/>
<line x1="713.108695652174" y1="406.1184626731043" x2="717.7065217391304" y2="406.1184626731043" stroke="#000"/>
<line x1="713.108695652174" y1="406.33682591931074" x2="717.7065217391304" y2="406.33682591931074" stroke="#000"/>
<line x1="715.4076086956522" y1="406.1184626731043" x2="715.4076086956522" y2="406.33682591931074" stroke="#000"/>
<line x1="713.108695652174" y1="498.0" x2="713.108695652174" y2="502.79999999999995" stroke="#000"/>
<text x="713.108695652174" y="512.4" fill="#111" font-size="small" font-family="monospace" font-weight="bold" text-anchor="end" transform="rotate(-60, 713.108695652174, 512.4)">
30k_ifelse
</text>
<rect x="722.304347826087" y="479.7199517375908" width="4.597826086956522" height="18.280048262409128" fill="#7070f8" data-tooltip="1.00x baseline speed (No JIT)"/>
<line x1="722.304347826087" y1="479.6793271664829" x2="726.9021739130435" y2="479.6793271664829" stroke="#000"/>
<line x1="722.304347826087" y1="479.76057630869866" x2="726.9021739130435" y2="479.76057630869866" stroke="#000"/>
<line x1="724.6032608695652" y1="479.6793271664829" x2="724.6032608695652" y2="479.76057630869866" stroke="#000"/>
<rect x="726.9021739130435" y="393.60373574048873" width="4.597826086956522" height="104.39626425951121" fill="orange" data-tooltip="5.71x baseline speed (YJIT 3.3.1)"/>
<line x1="726.9021739130435" y1="393.365435815208" x2="731.4999999999999" y2="393.365435815208" stroke="#000"/>
<line x1="726.9021739130435" y1="393.8420356657694" x2="731.4999999999999" y2="393.8420356657694" stroke="#000"/>
<line x1="729.2010869565217" y1="393.365435815208" x2="729.2010869565217" y2="393.8420356657694" stroke="#000"/>
<rect x="731.5" y="393.01605376541124" width="4.597826086956522" height="104.98394623458871" fill="green" data-tooltip="5.74x baseline speed (YJIT 3.4.0dev)"/>
<line x1="731.5" y1="392.76116282921623" x2="736.0978260869565" y2="392.76116282921623" stroke="#000"/>
<line x1="731.5" y1="393.27094470160625" x2="736.0978260869565" y2="393.27094470160625" stroke="#000"/>
<line x1="733.7989130434784" y1="392.76116282921623" x2="733.7989130434784" y2="393.27094470160625" stroke="#000"/>
<line x1="731.5" y1="498.0" x2="731.5" y2="502.79999999999995" stroke="#000"/>
<text x="731.5" y="512.4" fill="#111" font-size="small" font-family="monospace" font-weight="bold" text-anchor="end" transform="rotate(-60, 731.5, 512.4)">
30k_methods
</text>
<rect x="740.6956521739131" y="479.7199517375908" width="4.597826086956522" height="18.280048262409128" fill="#7070f8" data-tooltip="1.00x baseline speed (No JIT)"/>
<line x1="740.6956521739131" y1="479.63152353749837" x2="745.2934782608695" y2="479.63152353749837" stroke="#000"/>
<line x1="740.6956521739131" y1="479.80837993768324" x2="745.2934782608695" y2="479.80837993768324" stroke="#000"/>
<line x1="742.9945652173914" y1="479.63152353749837" x2="742.9945652173914" y2="479.80837993768324" stroke="#000"/>
<rect x="745.2934782608695" y="388.646063887147" width="4.597826086956522" height="109.35393611285288" fill="orange" data-tooltip="5.98x baseline speed (YJIT 3.3.1)"/>
<line x1="745.2934782608695" y1="374.6761218360118" x2="749.891304347826" y2="374.6761218360118" stroke="#000"/>
<line x1="745.2934782608695" y1="402.6160059382823" x2="749.891304347826" y2="402.6160059382823" stroke="#000"/>
<line x1="747.5923913043479" y1="374.6761218360118" x2="747.5923913043479" y2="402.6160059382823" stroke="#000"/>
<rect x="749.8913043478261" y="375.7879714614456" width="4.597826086956522" height="122.21202853855438" fill="green" data-tooltip="6.69x baseline speed (YJIT 3.4.0dev)"/>
<line x1="749.8913043478261" y1="358.8875008964869" x2="754.4891304347826" y2="358.8875008964869" stroke="#000"/>
<line x1="749.8913043478261" y1="392.68844202640423" x2="754.4891304347826" y2="392.68844202640423" stroke="#000"/>
<line x1="752.1902173913044" y1="358.8875008964869" x2="752.1902173913044" y2="392.68844202640423" stroke="#000"/>
<line x1="749.8913043478261" y1="498.0" x2="749.8913043478261" y2="502.79999999999995" stroke="#000"/>
<text x="749.8913043478261" y="512.4" fill="#111" font-size="small" font-family="monospace" font-weight="bold" text-anchor="end" transform="rotate(-60, 749.8913043478261, 512.4)">
cfunc_itself
</text>
<rect x="759.0869565217392" y="479.7199517375908" width="4.597826086956522" height="18.280048262409128" fill="#7070f8" data-tooltip="1.00x baseline speed (No JIT)"/>
<line x1="759.0869565217392" y1="479.4755956754995" x2="763.6847826086956" y2="479.4755956754995" stroke="#000"/>
<line x1="759.0869565217392" y1="479.96430779968205" x2="763.6847826086956" y2="479.96430779968205" stroke="#000"/>
<line x1="761.3858695652175" y1="479.4755956754995" x2="761.3858695652175" y2="479.96430779968205" stroke="#000"/>
<rect x="763.6847826086956" y="415.55263368267555" width="4.597826086956522" height="82.44736631732435" fill="orange" data-tooltip="4.51x baseline speed (YJIT 3.3.1)"/>
<line x1="763.6847826086956" y1="414.4497590531454" x2="768.2826086956521" y2="414.4497590531454" stroke="#000"/>
<line x1="763.6847826086956" y1="416.6555083122057" x2="768.2826086956521" y2="416.6555083122057" stroke="#000"/>
<line x1="765.983695652174" y1="414.4497590531454" x2="765.983695652174" y2="416.6555083122057" stroke="#000"/>
<rect x="768.2826086956522" y="405.21143246388" width="4.597826086956522" height="92.7885675361199" fill="green" data-tooltip="5.08x baseline speed (YJIT 3.4.0dev)"/>
<line x1="768.2826086956522" y1="402.1611923494483" x2="772.8804347826087" y2="402.1611923494483" stroke="#000"/>
<line x1="768.2826086956522" y1="408.2616725783117" x2="772.8804347826087" y2="408.2616725783117" stroke="#000"/>
<line x1="770.5815217391305" y1="402.1611923494483" x2="770.5815217391305" y2="408.2616725783117" stroke="#000"/>
<line x1="768.2826086956522" y1="498.0" x2="768.2826086956522" y2="502.79999999999995" stroke="#000"/>
<text x="768.2826086956522" y="512.4" fill="#111" font-size="small" font-family="monospace" font-weight="bold" text-anchor="end" transform="rotate(-60, 768.2826086956522, 512.4)">
fib
</text>
<rect x="777.4782608695652" y="479.7199517375908" width="4.597826086956522" height="18.280048262409128" fill="#7070f8" data-tooltip="1.00x baseline speed (No JIT)"/>
<line x1="777.4782608695652" y1="479.66663092127726" x2="782.0760869565217" y2="479.66663092127726" stroke="#000"/>
<line x1="777.4782608695652" y1="479.7732725539043" x2="782.0760869565217" y2="479.7732725539043" stroke="#000"/>
<line x1="779.7771739130436" y1="479.66663092127726" x2="779.7771739130436" y2="479.7732725539043" stroke="#000"/>
<rect x="782.0760869565217" y="403.0102047750135" width="4.597826086956522" height="94.98979522498647" fill="orange" data-tooltip="5.20x baseline speed (YJIT 3.3.1)"/>
<line x1="782.0760869565217" y1="330.37281739573746" x2="786.6739130434783" y2="330.37281739573746" stroke="#000"/>
<line x1="782.0760869565217" y1="475.6475921542896" x2="786.6739130434783" y2="475.6475921542896" stroke="#000"/>
<line x1="784.375" y1="330.37281739573746" x2="784.375" y2="475.6475921542896" stroke="#000"/>
<rect x="786.6739130434784" y="396.29688389501825" width="4.597826086956522" height="101.70311610498163" fill="green" data-tooltip="5.56x baseline speed (YJIT 3.4.0dev)"/>
<line x1="786.6739130434784" y1="314.03550698440705" x2="791.2717391304348" y2="314.03550698440705" stroke="#000"/>
<line x1="786.6739130434784" y1="478.55826080562946" x2="791.2717391304348" y2="478.55826080562946" stroke="#000"/>
<line x1="788.9728260869566" y1="314.03550698440705" x2="788.9728260869566" y2="478.55826080562946" stroke="#000"/>
<line x1="786.6739130434784" y1="498.0" x2="786.6739130434784" y2="502.79999999999995" stroke="#000"/>
<text x="786.6739130434784" y="512.4" fill="#111" font-size="small" font-family="monospace" font-weight="bold" text-anchor="end" transform="rotate(-60, 786.6739130434784, 512.4)">
getivar
</text>
<rect x="795.8695652173913" y="479.7199517375908" width="4.597826086956522" height="18.280048262409128" fill="#7070f8" data-tooltip="1.00x baseline speed (No JIT)"/>
<line x1="795.8695652173913" y1="479.7032386770698" x2="800.4673913043478" y2="479.7032386770698" stroke="#000"/>
<line x1="795.8695652173913" y1="479.7366647981118" x2="800.4673913043478" y2="479.7366647981118" stroke="#000"/>
<line x1="798.1684782608695" y1="479.7032386770698" x2="798.1684782608695" y2="479.7366647981118" stroke="#000"/>
<rect x="800.4673913043478" y="342.619180167505" width="4.597826086956522" height="155.38081983249498" fill="orange" data-tooltip="8.50x baseline speed (YJIT 3.3.1)"/>
<line x1="800.4673913043478" y1="328.8812490718431" x2="805.0652173913043" y2="328.8812490718431" stroke="#000"/>
<line x1="800.4673913043478" y1="356.3571112631669" x2="805.0652173913043" y2="356.3571112631669" stroke="#000"/>
<line x1="802.766304347826" y1="328.8812490718431" x2="802.766304347826" y2="356.3571112631669" stroke="#000"/>
<rect x="805.0652173913044" y="314.5825299172615" width="4.597826086956522" height="183.4174700827384" fill="green" data-tooltip="10.03x baseline speed (YJIT 3.4.0dev)"/>
<line x1="805.0652173913044" y1="283.68162928909516" x2="809.6630434782608" y2="283.68162928909516" stroke="#000"/>
<line x1="805.0652173913044" y1="345.4834305454279" x2="809.6630434782608" y2="345.4834305454279" stroke="#000"/>
<line x1="807.3641304347826" y1="283.68162928909516" x2="807.3641304347826" y2="345.4834305454279" stroke="#000"/>
<line x1="805.0652173913044" y1="498.0" x2="805.0652173913044" y2="502.79999999999995" stroke="#000"/>
<text x="805.0652173913044" y="512.4" fill="#111" font-size="small" font-family="monospace" font-weight="bold" text-anchor="end" transform="rotate(-60, 805.0652173913044, 512.4)">
keyword_args
</text>
<rect x="814.2608695652174" y="479.7199517375908" width="4.597826086956522" height="18.280048262409128" fill="#7070f8" data-tooltip="1.00x baseline speed (No JIT)"/>
<line x1="814.2608695652174" y1="479.6659765248447" x2="818.8586956521739" y2="479.6659765248447" stroke="#000"/>
<line x1="814.2608695652174" y1="479.77392695033683" x2="818.8586956521739" y2="479.77392695033683" stroke="#000"/>
<line x1="816.5597826086956" y1="479.6659765248447" x2="816.5597826086956" y2="479.77392695033683" stroke="#000"/>
<rect x="818.8586956521739" y="154.3510068362623" width="4.597826086956522" height="343.6489931637376" fill="orange" data-tooltip="18.80x baseline speed (YJIT 3.3.1)"/>
<line x1="818.8586956521739" y1="104.47786430307097" x2="823.4565217391303" y2="104.47786430307097" stroke="#000"/>
<line x1="818.8586956521739" y1="204.22414936945358" x2="823.4565217391303" y2="204.22414936945358" stroke="#000"/>
<line x1="821.1576086956521" y1="104.47786430307097" x2="821.1576086956521" y2="204.22414936945358" stroke="#000"/>
<rect x="823.4565217391304" y="100.19999999999999" width="4.597826086956522" height="397.79999999999995" fill="green" data-tooltip="21.76x baseline speed (YJIT 3.4.0dev)"/>
<line x1="823.4565217391304" y1="39.619859716495995" x2="828.0543478260869" y2="39.619859716495995" stroke="#000"/>
<line x1="823.4565217391304" y1="160.78014028350398" x2="828.0543478260869" y2="160.78014028350398" stroke="#000"/>
<line x1="825.7554347826087" y1="39.619859716495995" x2="825.7554347826087" y2="160.78014028350398" stroke="#000"/>
<line x1="823.4565217391304" y1="498.0" x2="823.4565217391304" y2="502.79999999999995" stroke="#000"/>
<text x="823.4565217391304" y="512.4" fill="#111" font-size="small" font-family="monospace" font-weight="bold" text-anchor="end" transform="rotate(-60, 823.4565217391304, 512.4)">
respond_to
</text>
<rect x="832.6521739130435" y="479.7199517375908" width="4.597826086956522" height="18.280048262409128" fill="#7070f8" data-tooltip="1.00x baseline speed (No JIT)"/>
<line x1="832.6521739130435" y1="479.17971277891854" x2="837.2499999999999" y2="479.17971277891854" stroke="#000"/>
<line x1="832.6521739130435" y1="480.26019069626307" x2="837.2499999999999" y2="480.26019069626307" stroke="#000"/>
<line x1="834.9510869565217" y1="479.17971277891854" x2="834.9510869565217" y2="480.26019069626307" stroke="#000"/>
<rect x="837.2499999999999" y="432.6048300502125" width="4.597826086956522" height="65.39516994978739" fill="orange" data-tooltip="3.58x baseline speed (YJIT 3.3.1)"/>
<line x1="837.2499999999999" y1="430.6720309230453" x2="841.8478260869564" y2="430.6720309230453" stroke="#000"/>
<line x1="837.2499999999999" y1="434.5376291773797" x2="841.8478260869564" y2="434.5376291773797" stroke="#000"/>
<line x1="839.5489130434783" y1="430.6720309230453" x2="839.5489130434783" y2="434.5376291773797" stroke="#000"/>
<rect x="841.8478260869565" y="386.9868459249022" width="4.597826086956522" height="111.01315407509779" fill="green" data-tooltip="6.07x baseline speed (YJIT 3.4.0dev)"/>
<line x1="841.8478260869565" y1="383.7053744123178" x2="846.445652173913" y2="383.7053744123178" stroke="#000"/>
<line x1="841.8478260869565" y1="390.2683174374866" x2="846.445652173913" y2="390.2683174374866" stroke="#000"/>
<line x1="844.1467391304348" y1="383.7053744123178" x2="844.1467391304348" y2="390.2683174374866" stroke="#000"/>
<line x1="841.8478260869565" y1="498.0" x2="841.8478260869565" y2="502.79999999999995" stroke="#000"/>
<text x="841.8478260869565" y="512.4" fill="#111" font-size="small" font-family="monospace" font-weight="bold" text-anchor="end" transform="rotate(-60, 841.8478260869565, 512.4)">
ruby-xor
</text>
<rect x="851.0434782608696" y="479.7199517375908" width="4.597826086956522" height="18.280048262409128" fill="#7070f8" data-tooltip="1.00x baseline speed (No JIT)"/>
<line x1="851.0434782608696" y1="479.6242281330106" x2="855.641304347826" y2="479.6242281330106" stroke="#000"/>
<line x1="851.0434782608696" y1="479.815675342171" x2="855.641304347826" y2="479.815675342171" stroke="#000"/>
<line x1="853.3423913043479" y1="479.6242281330106" x2="853.3423913043479" y2="479.815675342171" stroke="#000"/>
<rect x="855.641304347826" y="396.65907659974243" width="4.597826086956522" height="101.34092340025754" fill="orange" data-tooltip="5.54x baseline speed (YJIT 3.3.1)"/>
<line x1="855.641304347826" y1="326.6962080861851" x2="860.2391304347825" y2="326.6962080861851" stroke="#000"/>
<line x1="855.641304347826" y1="466.6219451132997" x2="860.2391304347825" y2="466.6219451132997" stroke="#000"/>
<line x1="857.9402173913044" y1="326.6962080861851" x2="857.9402173913044" y2="466.6219451132997" stroke="#000"/>
<rect x="860.2391304347826" y="386.12357282083155" width="4.597826086956522" height="111.87642717916843" fill="green" data-tooltip="6.12x baseline speed (YJIT 3.4.0dev)"/>
<line x1="860.2391304347826" y1="301.59819614391665" x2="864.8369565217391" y2="301.59819614391665" stroke="#000"/>
<line x1="860.2391304347826" y1="470.64894949774646" x2="864.8369565217391" y2="470.64894949774646" stroke="#000"/>
<line x1="862.5380434782609" y1="301.59819614391665" x2="862.5380434782609" y2="470.64894949774646" stroke="#000"/>
<line x1="860.2391304347826" y1="498.0" x2="860.2391304347826" y2="502.79999999999995" stroke="#000"/>
<text x="860.2391304347826" y="512.4" fill="#111" font-size="small" font-family="monospace" font-weight="bold" text-anchor="end" transform="rotate(-60, 860.2391304347826, 512.4)">
setivar
</text>
<rect x="869.4347826086956" y="479.7199517375908" width="4.597826086956522" height="18.280048262409128" fill="#7070f8" data-tooltip="1.00x baseline speed (No JIT)"/>
<line x1="869.4347826086956" y1="479.7115560494169" x2="874.0326086956521" y2="479.7115560494169" stroke="#000"/>
<line x1="869.4347826086956" y1="479.7283474257647" x2="874.0326086956521" y2="479.7283474257647" stroke="#000"/>
<line x1="871.733695652174" y1="479.7115560494169" x2="871.733695652174" y2="479.7283474257647" stroke="#000"/>
<rect x="874.0326086956521" y="454.9538224418631" width="4.597826086956522" height="43.04617755813685" fill="orange" data-tooltip="2.35x baseline speed (YJIT 3.3.1)"/>
<line x1="874.0326086956521" y1="436.9154393159247" x2="878.6304347826086" y2="436.9154393159247" stroke="#000"/>
<line x1="874.0326086956521" y1="472.9922055678015" x2="878.6304347826086" y2="472.9922055678015" stroke="#000"/>
<line x1="876.3315217391304" y1="436.9154393159247" x2="876.3315217391304" y2="472.9922055678015" stroke="#000"/>
<rect x="878.6304347826087" y="454.07446425516235" width="4.597826086956522" height="43.92553574483751" fill="green" data-tooltip="2.40x baseline speed (YJIT 3.4.0dev)"/>
<line x1="878.6304347826087" y1="434.6458156307955" x2="883.2282608695651" y2="434.6458156307955" stroke="#000"/>
<line x1="878.6304347826087" y1="473.5031128795292" x2="883.2282608695651" y2="473.5031128795292" stroke="#000"/>
<line x1="880.929347826087" y1="434.6458156307955" x2="880.929347826087" y2="473.5031128795292" stroke="#000"/>
<line x1="878.6304347826087" y1="498.0" x2="878.6304347826087" y2="502.79999999999995" stroke="#000"/>
<text x="878.6304347826087" y="512.4" fill="#111" font-size="small" font-family="monospace" font-weight="bold" text-anchor="end" transform="rotate(-60, 878.6304347826087, 512.4)">
setivar_object
</text>
<rect x="887.8260869565217" y="479.7199517375908" width="4.597826086956522" height="18.280048262409128" fill="#7070f8" data-tooltip="1.00x baseline speed (No JIT)"/>
<line x1="887.8260869565217" y1="479.5694896915048" x2="892.4239130434783" y2="479.5694896915048" stroke="#000"/>
<line x1="887.8260869565217" y1="479.8704137836768" x2="892.4239130434783" y2="479.8704137836768" stroke="#000"/>
<line x1="890.125" y1="479.5694896915048" x2="890.125" y2="479.8704137836768" stroke="#000"/>
<rect x="892.4239130434783" y="454.62433925419185" width="4.597826086956522" height="43.375660745808105" fill="orange" data-tooltip="2.37x baseline speed (YJIT 3.3.1)"/>
<line x1="892.4239130434783" y1="436.3113666467469" x2="897.0217391304348" y2="436.3113666467469" stroke="#000"/>
<line x1="892.4239130434783" y1="472.93731186163683" x2="897.0217391304348" y2="472.93731186163683" stroke="#000"/>
<line x1="894.7228260869565" y1="436.3113666467469" x2="894.7228260869565" y2="472.93731186163683" stroke="#000"/>
<rect x="897.0217391304349" y="453.76906802234686" width="4.597826086956522" height="44.23093197765311" fill="green" data-tooltip="2.42x baseline speed (YJIT 3.4.0dev)"/>
<line x1="897.0217391304349" y1="433.984569770712" x2="901.6195652173913" y2="433.984569770712" stroke="#000"/>
<line x1="897.0217391304349" y1="473.55356627398174" x2="901.6195652173913" y2="473.55356627398174" stroke="#000"/>
<line x1="899.3206521739131" y1="433.984569770712" x2="899.3206521739131" y2="473.55356627398174" stroke="#000"/>
<line x1="897.0217391304349" y1="498.0" x2="897.0217391304349" y2="502.79999999999995" stroke="#000"/>
<text x="897.0217391304349" y="512.4" fill="#111" font-size="small" font-family="monospace" font-weight="bold" text-anchor="end" transform="rotate(-60, 897.0217391304349, 512.4)">
setivar_young
</text>
<rect x="906.2173913043479" y="479.7199517375908" width="4.597826086956522" height="18.280048262409128" fill="#7070f8" data-tooltip="1.00x baseline speed (No JIT)"/>
<line x1="906.2173913043479" y1="479.68337000801876" x2="910.8152173913044" y2="479.68337000801876" stroke="#000"/>
<line x1="906.2173913043479" y1="479.7565334671628" x2="910.8152173913044" y2="479.7565334671628" stroke="#000"/>
<line x1="908.5163043478261" y1="479.68337000801876" x2="908.5163043478261" y2="479.7565334671628" stroke="#000"/>
<rect x="910.8152173913044" y="460.09924652764454" width="4.597826086956522" height="37.900753472355426" fill="orange" data-tooltip="2.07x baseline speed (YJIT 3.3.1)"/>
<line x1="910.8152173913044" y1="459.6431908650437" x2="915.4130434782608" y2="459.6431908650437" stroke="#000"/>
<line x1="910.8152173913044" y1="460.5553021902453" x2="915.4130434782608" y2="460.5553021902453" stroke="#000"/>
<line x1="913.1141304347826" y1="459.6431908650437" x2="913.1141304347826" y2="460.5553021902453" stroke="#000"/>
<rect x="915.4130434782609" y="456.3947486463612" width="4.597826086956522" height="41.60525135363873" fill="green" data-tooltip="2.28x baseline speed (YJIT 3.4.0dev)"/>
<line x1="915.4130434782609" y1="456.1289686705857" x2="920.0108695652174" y2="456.1289686705857" stroke="#000"/>
<line x1="915.4130434782609" y1="456.6605286221367" x2="920.0108695652174" y2="456.6605286221367" stroke="#000"/>
<line x1="917.7119565217392" y1="456.1289686705857" x2="917.7119565217392" y2="456.6605286221367" stroke="#000"/>
<line x1="915.4130434782609" y1="498.0" x2="915.4130434782609" y2="502.79999999999995" stroke="#000"/>
<text x="915.4130434782609" y="512.4" fill="#111" font-size="small" font-family="monospace" font-weight="bold" text-anchor="end" transform="rotate(-60, 915.4130434782609, 512.4)">
str_concat
</text>
<rect x="924.608695652174" y="479.7199517375908" width="4.597826086956522" height="18.280048262409128" fill="#7070f8" data-tooltip="1.00x baseline speed (No JIT)"/>
<line x1="924.608695652174" y1="479.65144791277675" x2="929.2065217391304" y2="479.65144791277675" stroke="#000"/>
<line x1="924.608695652174" y1="479.78845556240486" x2="929.2065217391304" y2="479.78845556240486" stroke="#000"/>
<line x1="926.9076086956522" y1="479.65144791277675" x2="926.9076086956522" y2="479.78845556240486" stroke="#000"/>
<rect x="929.2065217391304" y="474.36258526283086" width="4.597826086956522" height="23.63741473716912" fill="orange" data-tooltip="1.29x baseline speed (YJIT 3.3.1)"/>
<line x1="929.2065217391304" y1="474.2568534620832" x2="933.8043478260869" y2="474.2568534620832" stroke="#000"/>
<line x1="929.2065217391304" y1="474.4683170635785" x2="933.8043478260869" y2="474.4683170635785" stroke="#000"/>
<line x1="931.5054347826087" y1="474.2568534620832" x2="931.5054347826087" y2="474.4683170635785" stroke="#000"/>
<rect x="933.804347826087" y="472.602235335524" width="4.597826086956522" height="25.39776466447591" fill="green" data-tooltip="1.39x baseline speed (YJIT 3.4.0dev)"/>
<line x1="933.804347826087" y1="472.49084727076036" x2="938.4021739130435" y2="472.49084727076036" stroke="#000"/>
<line x1="933.804347826087" y1="472.71362340028776" x2="938.4021739130435" y2="472.71362340028776" stroke="#000"/>
<line x1="936.1032608695652" y1="472.49084727076036" x2="936.1032608695652" y2="472.71362340028776" stroke="#000"/>
<line x1="933.804347826087" y1="498.0" x2="933.804347826087" y2="502.79999999999995" stroke="#000"/>
<text x="933.804347826087" y="512.4" fill="#111" font-size="small" font-family="monospace" font-weight="bold" text-anchor="end" transform="rotate(-60, 933.804347826087, 512.4)">
throw
</text>
</svg>