<svg viewBox="0 0 1000 600" xmlns="http://www.w3.org/2000/svg" xmlns:xlink="http://www.w3.org/1999/xlink" width="100%" height="100%">

<rect x="50.0" y="30.0" width="940.0" height="467.99999999999994" stroke="#000" fill="#fff"/>
<line x1="42.0" y1="497.9999999999999" x2="50.0" y2="497.9999999999999" stroke="#000"/>
<text x="26.000000000000004" y="497.9999999999999" text-anchor="end" font-weight="bold" font-size="small" fill="#111">
0.0
</text>
<line x1="42.0" y1="444.6628667095943" x2="50.0" y2="444.6628667095943" stroke="#000"/>
<text x="26.000000000000004" y="444.6628667095943" text-anchor="end" font-weight="bold" font-size="small" fill="#111">
0.2
</text>
<line x1="42.0" y1="391.32573341918857" x2="50.0" y2="391.32573341918857" stroke="#000"/>
<text x="26.000000000000004" y="391.32573341918857" text-anchor="end" font-weight="bold" font-size="small" fill="#111">
0.4
</text>
<line x1="42.0" y1="337.98860012878293" x2="50.0" y2="337.98860012878293" stroke="#000"/>
<text x="26.000000000000004" y="337.98860012878293" text-anchor="end" font-weight="bold" font-size="small" fill="#111">
0.6
</text>
<line x1="42.0" y1="284.6514668383773" x2="50.0" y2="284.6514668383773" stroke="#000"/>
<text x="26.000000000000004" y="284.6514668383773" text-anchor="end" font-weight="bold" font-size="small" fill="#111">
0.8
</text>
<line x1="42.0" y1="231.31433354797164" x2="50.0" y2="231.31433354797164" stroke="#000"/>
<text x="26.000000000000004" y="231.31433354797164" text-anchor="end" font-weight="bold" font-size="small" fill="#111">
1.0
</text>
<line x1="42.0" y1="177.97720025756598" x2="50.0" y2="177.97720025756598" stroke="#000"/>
<text x="26.000000000000004" y="177.97720025756598" text-anchor="end" font-weight="bold" font-size="small" fill="#111">
1.2
</text>
<line x1="42.0" y1="124.64006696716031" x2="50.0" y2="124.64006696716031" stroke="#000"/>
<text x="26.000000000000004" y="124.64006696716031" text-anchor="end" font-weight="bold" font-size="small" fill="#111">
1.4
</text>
<line x1="248.5" y1="54.60000000000001" x2="368.5" y2="54.60000000000001" stroke="#648FFF" stroke-width="2"/>
<text x="308.5" y="49.500000000000014" font-size="small" text-anchor="middle" font-weight="bold" fill="#000">
CRuby 3.3.0dev
</text>
<rect x="671.5" y="35.400000000000006" width="120.0" height="19.2" fill="#785EF0" stroke="none"/>
<text x="731.4999999999999" y="49.500000000000014" font-size="small" text-anchor="middle" font-weight="bold" fill="#fff" style="text-shadow: 0 0 1px #000;">
YJIT 3.3.0dev
</text>
<rect x="84.81481481481481" y="100.19999999999999" width="34.81481481481481" height="397.79999999999995" fill="#785EF0" data-tooltip="1.49x baseline (YJIT 3.3.0dev)"/>
<line x1="102.22222222222221" y1="498.0" x2="102.22222222222221" y2="502.79999999999995" stroke="#000"/>
<text x="102.22222222222221" y="512.4" fill="#111" font-size="small" text-anchor="end" transform="rotate(-60, 102.22222222222221, 512.4)">
30k_ifelse
</text>
<rect x="154.44444444444443" y="178.7233520308043" width="34.81481481481481" height="319.2766479691956" fill="#785EF0" data-tooltip="1.20x baseline (YJIT 3.3.0dev)"/>
<line x1="171.85185185185185" y1="498.0" x2="171.85185185185185" y2="502.79999999999995" stroke="#000"/>
<text x="171.85185185185185" y="512.4" fill="#111" font-size="small" text-anchor="end" transform="rotate(-60, 171.85185185185185, 512.4)">
30k_methods
</text>
<rect x="224.07407407407405" y="227.84558348700418" width="34.81481481481481" height="270.1544165129958" fill="#785EF0" data-tooltip="1.01x baseline (YJIT 3.3.0dev)"/>
<line x1="241.48148148148144" y1="498.0" x2="241.48148148148144" y2="502.79999999999995" stroke="#000"/>
<text x="241.48148148148144" y="512.4" fill="#111" font-size="small" text-anchor="end" transform="rotate(-60, 241.48148148148144, 512.4)">
cfunc_itself
</text>
<rect x="293.70370370370364" y="227.7830898355959" width="34.81481481481481" height="270.21691016440406" fill="#785EF0" data-tooltip="1.01x baseline (YJIT 3.3.0dev)"/>
<line x1="311.11111111111103" y1="498.0" x2="311.11111111111103" y2="502.79999999999995" stroke="#000"/>
<text x="311.11111111111103" y="512.4" fill="#111" font-size="small" text-anchor="end" transform="rotate(-60, 311.11111111111103, 512.4)">
fib
</text>
<rect x="363.33333333333326" y="227.79524557987259" width="34.81481481481481" height="270.20475442012736" fill="#785EF0" data-tooltip="1.01x baseline (YJIT 3.3.0dev)"/>
<line x1="380.7407407407406" y1="498.0" x2="380.7407407407406" y2="502.79999999999995" stroke="#000"/>
<text x="380.7407407407406" y="512.4" fill="#111" font-size="small" text-anchor="end" transform="rotate(-60, 380.7407407407406, 512.4)">
getivar
</text>
<rect x="432.9629629629628" y="227.7435614263875" width="34.81481481481481" height="270.25643857361246" fill="#785EF0" data-tooltip="1.01x baseline (YJIT 3.3.0dev)"/>
<line x1="450.3703703703702" y1="498.0" x2="450.3703703703702" y2="502.79999999999995" stroke="#000"/>
<text x="450.3703703703702" y="512.4" fill="#111" font-size="small" text-anchor="end" transform="rotate(-60, 450.3703703703702, 512.4)">
keyword_args
</text>
<rect x="502.5925925925925" y="227.48777433926642" width="34.81481481481481" height="270.5122256607335" fill="#785EF0" data-tooltip="1.01x baseline (YJIT 3.3.0dev)"/>
<line x1="519.9999999999999" y1="498.0" x2="519.9999999999999" y2="502.79999999999995" stroke="#000"/>
<text x="519.9999999999999" y="512.4" fill="#111" font-size="small" text-anchor="end" transform="rotate(-60, 519.9999999999999, 512.4)">
respond_to
</text>
<rect x="572.2222222222222" y="227.74287828651342" width="34.81481481481481" height="270.2571217134865" fill="#785EF0" data-tooltip="1.01x baseline (YJIT 3.3.0dev)"/>
<line x1="589.6296296296296" y1="498.0" x2="589.6296296296296" y2="502.79999999999995" stroke="#000"/>
<text x="589.6296296296296" y="512.4" fill="#111" font-size="small" text-anchor="end" transform="rotate(-60, 589.6296296296296, 512.4)">
setivar
</text>
<rect x="641.8518518518518" y="227.78444461929524" width="34.81481481481481" height="270.2155553807047" fill="#785EF0" data-tooltip="1.01x baseline (YJIT 3.3.0dev)"/>
<line x1="659.2592592592594" y1="498.0" x2="659.2592592592594" y2="502.79999999999995" stroke="#000"/>
<text x="659.2592592592594" y="512.4" fill="#111" font-size="small" text-anchor="end" transform="rotate(-60, 659.2592592592594, 512.4)">
setivar_object
</text>
<rect x="711.4814814814816" y="228.45662261775468" width="34.81481481481481" height="269.54337738224524" fill="#785EF0" data-tooltip="1.01x baseline (YJIT 3.3.0dev)"/>
<line x1="728.888888888889" y1="498.0" x2="728.888888888889" y2="502.79999999999995" stroke="#000"/>
<text x="728.888888888889" y="512.4" fill="#111" font-size="small" text-anchor="end" transform="rotate(-60, 728.888888888889, 512.4)">
setivar_young
</text>
<rect x="781.1111111111113" y="156.1303606741292" width="34.81481481481481" height="341.86963932587076" fill="#785EF0" data-tooltip="1.28x baseline (YJIT 3.3.0dev)"/>
<line x1="798.5185185185187" y1="498.0" x2="798.5185185185187" y2="502.79999999999995" stroke="#000"/>
<text x="798.5185185185187" y="512.4" fill="#111" font-size="small" text-anchor="end" transform="rotate(-60, 798.5185185185187, 512.4)">
str_concat
</text>
<rect x="850.740740740741" y="227.79524557987259" width="34.81481481481481" height="270.20475442012736" fill="#785EF0" data-tooltip="1.01x baseline (YJIT 3.3.0dev)"/>
<line x1="868.1481481481485" y1="498.0" x2="868.1481481481485" y2="502.79999999999995" stroke="#000"/>
<text x="868.1481481481485" y="512.4" fill="#111" font-size="small" text-anchor="end" transform="rotate(-60, 868.1481481481485, 512.4)">
throw
</text>
<rect x="920.3703703703708" y="209.45945670762234" width="34.81481481481481" height="288.5405432923776" fill="#785EF0" data-tooltip="1.08x baseline (YJIT 3.3.0dev)"/>
<line x1="937.7777777777782" y1="498.0" x2="937.7777777777782" y2="502.79999999999995" stroke="#000"/>
<text x="937.7777777777782" y="512.4" fill="#111" font-size="small" text-anchor="end" transform="rotate(-60, 937.7777777777782, 512.4)" font-style="italic">
geomean*
</text>
<line x1="50.0" y1="231.31433354797164" x2="990.0" y2="231.31433354797164" stroke="#648FFF" stroke-width="2"/>
</svg>