<svg viewBox="0 0 1000 600" xmlns="http://www.w3.org/2000/svg" xmlns:xlink="http://www.w3.org/1999/xlink" width="100%" height="100%">

<rect x="50.0" y="30.0" width="940.0" height="467.99999999999994" stroke="#000" fill="#fff"/>
<line x1="42.0" y1="497.9999999999999" x2="50.0" y2="497.9999999999999" stroke="#000"/>
<text x="26.000000000000004" y="497.9999999999999" text-anchor="end" font-weight="bold" font-size="small" fill="#111">
0.0
</text>
<line x1="42.0" y1="450.02021708647095" x2="50.0" y2="450.02021708647095" stroke="#000"/>
<text x="26.000000000000004" y="450.02021708647095" text-anchor="end" font-weight="bold" font-size="small" fill="#111">
0.2
</text>
<line x1="42.0" y1="402.04043417294207" x2="50.0" y2="402.04043417294207" stroke="#000"/>
<text x="26.000000000000004" y="402.04043417294207" text-anchor="end" font-weight="bold" font-size="small" fill="#111">
0.4
</text>
<line x1="42.0" y1="354.06065125941313" x2="50.0" y2="354.06065125941313" stroke="#000"/>
<text x="26.000000000000004" y="354.06065125941313" text-anchor="end" font-weight="bold" font-size="small" fill="#111">
0.6
</text>
<line x1="42.0" y1="306.08086834588414" x2="50.0" y2="306.08086834588414" stroke="#000"/>
<text x="26.000000000000004" y="306.08086834588414" text-anchor="end" font-weight="bold" font-size="small" fill="#111">
0.8
</text>
<line x1="42.0" y1="258.1010854323552" x2="50.0" y2="258.1010854323552" stroke="#000"/>
<text x="26.000000000000004" y="258.1010854323552" text-anchor="end" font-weight="bold" font-size="small" fill="#111">
1.0
</text>
<line x1="42.0" y1="210.12130251882627" x2="50.0" y2="210.12130251882627" stroke="#000"/>
<text x="26.000000000000004" y="210.12130251882627" text-anchor="end" font-weight="bold" font-size="small" fill="#111">
1.2
</text>
<line x1="42.0" y1="162.14151960529736" x2="50.0" y2="162.14151960529736" stroke="#000"/>
<text x="26.000000000000004" y="162.14151960529736" text-anchor="end" font-weight="bold" font-size="small" fill="#111">
1.4
</text>
<line x1="42.0" y1="114.16173669176843" x2="50.0" y2="114.16173669176843" stroke="#000"/>
<text x="26.000000000000004" y="114.16173669176843" text-anchor="end" font-weight="bold" font-size="small" fill="#111">
1.6
</text>
<line x1="142.75" y1="54.60000000000001" x2="262.75" y2="54.60000000000001" stroke="#648FFF" stroke-width="2"/>
<text x="202.75" y="49.500000000000014" font-size="small" text-anchor="middle" font-weight="bold" fill="#000">
CRuby 3.3.4
</text>
<rect x="354.25" y="35.400000000000006" width="120.0" height="19.2" fill="#785EF0" stroke="none"/>
<text x="414.25" y="49.500000000000014" font-size="small" text-anchor="middle" font-weight="bold" fill="#fff" style="text-shadow: 0 0 1px #000;">
CRuby 3.4.0dev
</text>
<rect x="565.75" y="35.400000000000006" width="120.0" height="19.2" fill="#FFB000" stroke="none"/>
<text x="625.7499999999999" y="49.500000000000014" font-size="small" text-anchor="middle" font-weight="bold" fill="#fff" style="text-shadow: 0 0 1px #000;">
YJIT 3.3.4
</text>
<rect x="777.25" y="35.400000000000006" width="120.0" height="19.2" fill="#DC267F" stroke="none"/>
<text x="837.2499999999999" y="49.500000000000014" font-size="small" text-anchor="middle" font-weight="bold" fill="#fff" style="text-shadow: 0 0 1px #000;">
YJIT 3.4.0dev
</text>
<rect x="61.05882352941176" y="244.0133179243549" width="11.058823529411763" height="253.98668207564504" fill="#785EF0" data-tooltip="1.06x baseline (CRuby 3.4.0dev)"/>
<rect x="72.11764705882352" y="245.53906891800116" width="11.058823529411763" height="252.46093108199878" fill="#FFB000" data-tooltip="1.05x baseline (YJIT 3.3.4)"/>
<rect x="83.17647058823528" y="239.58864004278075" width="11.058823529411763" height="258.41135995721913" fill="#DC267F" data-tooltip="1.08x baseline (YJIT 3.4.0dev)"/>
<line x1="77.6470588235294" y1="498.0" x2="77.6470588235294" y2="502.79999999999995" stroke="#000"/>
<text x="77.6470588235294" y="512.4" fill="#111" font-size="small" text-anchor="end" transform="rotate(-60, 77.6470588235294, 512.4)">
binarytrees
</text>
<rect x="105.2941176470588" y="238.44755919518087" width="11.058823529411763" height="259.55244080481907" fill="#785EF0" data-tooltip="1.08x baseline (CRuby 3.4.0dev)"/>
<rect x="116.35294117647057" y="252.71559959512237" width="11.058823529411763" height="245.28440040487757" fill="#FFB000" data-tooltip="1.02x baseline (YJIT 3.3.4)"/>
<rect x="127.41176470588233" y="229.91471150501965" width="11.058823529411763" height="268.08528849498026" fill="#DC267F" data-tooltip="1.12x baseline (YJIT 3.4.0dev)"/>
<line x1="121.88235294117644" y1="498.0" x2="121.88235294117644" y2="502.79999999999995" stroke="#000"/>
<text x="121.88235294117644" y="512.4" fill="#111" font-size="small" text-anchor="end" transform="rotate(-60, 121.88235294117644, 512.4)">
blurhash
</text>
<rect x="149.52941176470586" y="240.8586258594699" width="11.058823529411763" height="257.1413741405301" fill="#785EF0" data-tooltip="1.07x baseline (CRuby 3.4.0dev)"/>
<rect x="160.58823529411762" y="231.92949500922563" width="11.058823529411763" height="266.0705049907743" fill="#FFB000" data-tooltip="1.11x baseline (YJIT 3.3.4)"/>
<rect x="171.64705882352936" y="220.75708497985607" width="11.058823529411763" height="277.24291502014387" fill="#DC267F" data-tooltip="1.16x baseline (YJIT 3.4.0dev)"/>
<line x1="166.11764705882348" y1="498.0" x2="166.11764705882348" y2="502.79999999999995" stroke="#000"/>
<text x="166.11764705882348" y="512.4" fill="#111" font-size="small" text-anchor="end" transform="rotate(-60, 166.11764705882348, 512.4)">
erubi
</text>
<rect x="193.7647058823529" y="238.68335585912715" width="11.058823529411763" height="259.3166441408728" fill="#785EF0" data-tooltip="1.08x baseline (CRuby 3.4.0dev)"/>
<rect x="204.82352941176467" y="252.45567523694382" width="11.058823529411763" height="245.5443247630561" fill="#FFB000" data-tooltip="1.02x baseline (YJIT 3.3.4)"/>
<rect x="215.8823529411764" y="229.1916222338751" width="11.058823529411763" height="268.80837776612486" fill="#DC267F" data-tooltip="1.12x baseline (YJIT 3.4.0dev)"/>
<line x1="210.35294117647052" y1="498.0" x2="210.35294117647052" y2="502.79999999999995" stroke="#000"/>
<text x="210.35294117647052" y="512.4" fill="#111" font-size="small" text-anchor="end" transform="rotate(-60, 210.35294117647052, 512.4)">
etanni
</text>
<rect x="237.99999999999994" y="233.43640556410077" width="11.058823529411763" height="264.5635944358992" fill="#785EF0" data-tooltip="1.10x baseline (CRuby 3.4.0dev)"/>
<rect x="249.05882352941168" y="254.99860997722888" width="11.058823529411763" height="243.00139002277106" fill="#FFB000" data-tooltip="1.01x baseline (YJIT 3.3.4)"/>
<rect x="260.1176470588235" y="225.36996938077226" width="11.058823529411763" height="272.6300306192277" fill="#DC267F" data-tooltip="1.14x baseline (YJIT 3.4.0dev)"/>
<line x1="254.58823529411757" y1="498.0" x2="254.58823529411757" y2="502.79999999999995" stroke="#000"/>
<text x="254.58823529411757" y="512.4" fill="#111" font-size="small" text-anchor="end" transform="rotate(-60, 254.58823529411757, 512.4)">
fannkuchredux
</text>
<rect x="282.235294117647" y="256.5965630457709" width="11.058823529411763" height="241.40343695422908" fill="#785EF0" data-tooltip="1.01x baseline (CRuby 3.4.0dev)"/>
<rect x="293.29411764705884" y="252.48694566559703" width="11.058823529411763" height="245.5130543344029" fill="#FFB000" data-tooltip="1.02x baseline (YJIT 3.3.4)"/>
<rect x="304.3529411764706" y="242.58636521892467" width="11.058823529411763" height="255.41363478107527" fill="#DC267F" data-tooltip="1.06x baseline (YJIT 3.4.0dev)"/>
<line x1="298.8235294117647" y1="498.0" x2="298.8235294117647" y2="502.79999999999995" stroke="#000"/>
<text x="298.8235294117647" y="512.4" fill="#111" font-size="small" text-anchor="end" transform="rotate(-60, 298.8235294117647, 512.4)">
fluentd
</text>
<rect x="326.4705882352942" y="249.03074353401482" width="11.058823529411763" height="248.96925646598513" fill="#785EF0" data-tooltip="1.04x baseline (CRuby 3.4.0dev)"/>
<rect x="337.52941176470597" y="232.8960007340823" width="11.058823529411763" height="265.1039992659176" fill="#FFB000" data-tooltip="1.11x baseline (YJIT 3.3.4)"/>
<rect x="348.58823529411774" y="227.86661243788717" width="11.058823529411763" height="270.1333875621128" fill="#DC267F" data-tooltip="1.13x baseline (YJIT 3.4.0dev)"/>
<line x1="343.0588235294119" y1="498.0" x2="343.0588235294119" y2="502.79999999999995" stroke="#000"/>
<text x="343.0588235294119" y="512.4" fill="#111" font-size="small" text-anchor="end" transform="rotate(-60, 343.0588235294119, 512.4)">
graphql
</text>
<rect x="370.70588235294133" y="240.5129998850423" width="11.058823529411763" height="257.48700011495765" fill="#785EF0" data-tooltip="1.07x baseline (CRuby 3.4.0dev)"/>
<rect x="381.7647058823531" y="217.68385776695789" width="11.058823529411763" height="280.31614223304206" fill="#FFB000" data-tooltip="1.17x baseline (YJIT 3.3.4)"/>
<rect x="392.8235294117649" y="213.66464260532334" width="11.058823529411763" height="284.33535739467663" fill="#DC267F" data-tooltip="1.19x baseline (YJIT 3.4.0dev)"/>
<line x1="387.294117647059" y1="498.0" x2="387.294117647059" y2="502.79999999999995" stroke="#000"/>
<text x="387.294117647059" y="512.4" fill="#111" font-size="small" text-anchor="end" transform="rotate(-60, 387.294117647059, 512.4)">
graphql-native
</text>
<rect x="414.94117647058846" y="255.89266186840663" width="11.058823529411763" height="242.1073381315933" fill="#785EF0" data-tooltip="1.01x baseline (CRuby 3.4.0dev)"/>
<rect x="426.0000000000003" y="232.3836368328245" width="11.058823529411763" height="265.61636316717545" fill="#FFB000" data-tooltip="1.11x baseline (YJIT 3.3.4)"/>
<rect x="437.05882352941205" y="239.00890752467035" width="11.058823529411763" height="258.9910924753296" fill="#DC267F" data-tooltip="1.08x baseline (YJIT 3.4.0dev)"/>
<line x1="431.52941176470614" y1="498.0" x2="431.52941176470614" y2="502.79999999999995" stroke="#000"/>
<text x="431.52941176470614" y="512.4" fill="#111" font-size="small" text-anchor="end" transform="rotate(-60, 431.52941176470614, 512.4)">
lee
</text>
<rect x="459.17647058823565" y="249.20392653782406" width="11.058823529411763" height="248.79607346217588" fill="#785EF0" data-tooltip="1.04x baseline (CRuby 3.4.0dev)"/>
<rect x="470.2352941176474" y="255.1817051700872" width="11.058823529411763" height="242.81829482991273" fill="#FFB000" data-tooltip="1.01x baseline (YJIT 3.3.4)"/>
<rect x="481.2941176470592" y="243.87489907495387" width="11.058823529411763" height="254.12510092504607" fill="#DC267F" data-tooltip="1.06x baseline (YJIT 3.4.0dev)"/>
<line x1="475.7647058823533" y1="498.0" x2="475.7647058823533" y2="502.79999999999995" stroke="#000"/>
<text x="475.7647058823533" y="512.4" fill="#111" font-size="small" text-anchor="end" transform="rotate(-60, 475.7647058823533, 512.4)">
matmul
</text>
<rect x="503.4117647058828" y="233.2732546879677" width="11.058823529411763" height="264.7267453120323" fill="#785EF0" data-tooltip="1.10x baseline (CRuby 3.4.0dev)"/>
<rect x="514.4705882352946" y="253.52345413885877" width="11.058823529411763" height="244.47654586114118" fill="#FFB000" data-tooltip="1.02x baseline (YJIT 3.3.4)"/>
<rect x="525.5294117647063" y="224.81627484066067" width="11.058823529411763" height="273.1837251593393" fill="#DC267F" data-tooltip="1.14x baseline (YJIT 3.4.0dev)"/>
<line x1="520.0000000000005" y1="498.0" x2="520.0000000000005" y2="502.79999999999995" stroke="#000"/>
<text x="520.0000000000005" y="512.4" fill="#111" font-size="small" text-anchor="end" transform="rotate(-60, 520.0000000000005, 512.4)">
nbody
</text>
<rect x="547.64705882353" y="229.39916795049368" width="11.058823529411763" height="268.60083204950627" fill="#785EF0" data-tooltip="1.12x baseline (CRuby 3.4.0dev)"/>
<rect x="558.7058823529417" y="255.26159092211762" width="11.058823529411763" height="242.73840907788232" fill="#FFB000" data-tooltip="1.01x baseline (YJIT 3.3.4)"/>
<rect x="569.7647058823535" y="202.23211236605792" width="11.058823529411763" height="295.76788763394205" fill="#DC267F" data-tooltip="1.23x baseline (YJIT 3.4.0dev)"/>
<line x1="564.2352941176476" y1="498.0" x2="564.2352941176476" y2="502.79999999999995" stroke="#000"/>
<text x="564.2352941176476" y="512.4" fill="#111" font-size="small" text-anchor="end" transform="rotate(-60, 564.2352941176476, 512.4)">
nqueens
</text>
<rect x="591.882352941177" y="244.92236368739395" width="11.058823529411763" height="253.077636312606" fill="#785EF0" data-tooltip="1.05x baseline (CRuby 3.4.0dev)"/>
<rect x="602.9411764705889" y="245.13549665361973" width="11.058823529411763" height="252.86450334638022" fill="#FFB000" data-tooltip="1.05x baseline (YJIT 3.3.4)"/>
<rect x="614.0000000000007" y="226.6639729140513" width="11.058823529411763" height="271.3360270859486" fill="#DC267F" data-tooltip="1.13x baseline (YJIT 3.4.0dev)"/>
<line x1="608.4705882352947" y1="498.0" x2="608.4705882352947" y2="502.79999999999995" stroke="#000"/>
<text x="608.4705882352947" y="512.4" fill="#111" font-size="small" text-anchor="end" transform="rotate(-60, 608.4705882352947, 512.4)">
optcarrot
</text>
<rect x="636.1176470588242" y="203.4434251448734" width="11.058823529411763" height="294.55657485512654" fill="#785EF0" data-tooltip="1.23x baseline (CRuby 3.4.0dev)"/>
<rect x="647.176470588236" y="195.10734340275957" width="11.058823529411763" height="302.8926565972403" fill="#FFB000" data-tooltip="1.26x baseline (YJIT 3.3.4)"/>
<rect x="658.2352941176478" y="190.28593396272615" width="11.058823529411763" height="307.7140660372738" fill="#DC267F" data-tooltip="1.28x baseline (YJIT 3.4.0dev)"/>
<line x1="652.7058823529419" y1="498.0" x2="652.7058823529419" y2="502.79999999999995" stroke="#000"/>
<text x="652.7058823529419" y="512.4" fill="#111" font-size="small" text-anchor="end" transform="rotate(-60, 652.7058823529419, 512.4)">
protoboeuf
</text>
<rect x="680.3529411764714" y="285.2890781615165" width="11.058823529411763" height="212.71092183848347" fill="#785EF0" data-tooltip="0.89x baseline (CRuby 3.4.0dev)"/>
<rect x="691.4117647058831" y="236.98700597247463" width="11.058823529411763" height="261.0129940275253" fill="#FFB000" data-tooltip="1.09x baseline (YJIT 3.3.4)"/>
<rect x="702.4705882352949" y="100.19999999999999" width="11.058823529411763" height="397.79999999999995" fill="#DC267F" data-tooltip="1.66x baseline (YJIT 3.4.0dev)"/>
<line x1="696.9411764705891" y1="498.0" x2="696.9411764705891" y2="502.79999999999995" stroke="#000"/>
<text x="696.9411764705891" y="512.4" fill="#111" font-size="small" text-anchor="end" transform="rotate(-60, 696.9411764705891, 512.4)">
protoboeuf-encode
</text>
<rect x="724.5882352941185" y="245.13017299116495" width="11.058823529411763" height="252.869827008835" fill="#785EF0" data-tooltip="1.05x baseline (CRuby 3.4.0dev)"/>
<rect x="735.6470588235303" y="233.5864806891348" width="11.058823529411763" height="264.4135193108651" fill="#FFB000" data-tooltip="1.10x baseline (YJIT 3.3.4)"/>
<rect x="746.7058823529421" y="225.52688460917196" width="11.058823529411763" height="272.473115390828" fill="#DC267F" data-tooltip="1.14x baseline (YJIT 3.4.0dev)"/>
<line x1="741.1764705882363" y1="498.0" x2="741.1764705882363" y2="502.79999999999995" stroke="#000"/>
<text x="741.1764705882363" y="512.4" fill="#111" font-size="small" text-anchor="end" transform="rotate(-60, 741.1764705882363, 512.4)">
rack
</text>
<rect x="768.8235294117657" y="228.98502467520464" width="11.058823529411763" height="269.01497532479533" fill="#785EF0" data-tooltip="1.12x baseline (CRuby 3.4.0dev)"/>
<rect x="779.8823529411775" y="251.71152596445185" width="11.058823529411763" height="246.2884740355481" fill="#FFB000" data-tooltip="1.03x baseline (YJIT 3.3.4)"/>
<rect x="790.9411764705893" y="220.85285807969126" width="11.058823529411763" height="277.1471419203087" fill="#DC267F" data-tooltip="1.16x baseline (YJIT 3.4.0dev)"/>
<line x1="785.4117647058833" y1="498.0" x2="785.4117647058833" y2="502.79999999999995" stroke="#000"/>
<text x="785.4117647058833" y="512.4" fill="#111" font-size="small" text-anchor="end" transform="rotate(-60, 785.4117647058833, 512.4)">
ruby-json
</text>
<rect x="813.0588235294128" y="246.13889620591155" width="11.058823529411763" height="251.8611037940884" fill="#785EF0" data-tooltip="1.05x baseline (CRuby 3.4.0dev)"/>
<rect x="824.1176470588247" y="251.52552096913772" width="11.058823529411763" height="246.47447903086223" fill="#FFB000" data-tooltip="1.03x baseline (YJIT 3.3.4)"/>
<rect x="835.1764705882364" y="241.11623257533574" width="11.058823529411763" height="256.8837674246642" fill="#DC267F" data-tooltip="1.07x baseline (YJIT 3.4.0dev)"/>
<line x1="829.6470588235305" y1="498.0" x2="829.6470588235305" y2="502.79999999999995" stroke="#000"/>
<text x="829.6470588235305" y="512.4" fill="#111" font-size="small" text-anchor="end" transform="rotate(-60, 829.6470588235305, 512.4)">
rubykon
</text>
<rect x="857.29411764706" y="235.01776656477935" width="11.058823529411763" height="262.98223343522056" fill="#785EF0" data-tooltip="1.10x baseline (CRuby 3.4.0dev)"/>
<rect x="868.3529411764717" y="252.23502750231117" width="11.058823529411763" height="245.76497249768877" fill="#FFB000" data-tooltip="1.02x baseline (YJIT 3.3.4)"/>
<rect x="879.4117647058836" y="225.1902149676926" width="11.058823529411763" height="272.80978503230733" fill="#DC267F" data-tooltip="1.14x baseline (YJIT 3.4.0dev)"/>
<line x1="873.8823529411777" y1="498.0" x2="873.8823529411777" y2="502.79999999999995" stroke="#000"/>
<text x="873.8823529411777" y="512.4" fill="#111" font-size="small" text-anchor="end" transform="rotate(-60, 873.8823529411777, 512.4)">
sudoku
</text>
<rect x="901.5294117647071" y="236.31775586875065" width="11.058823529411763" height="261.68224413124926" fill="#785EF0" data-tooltip="1.09x baseline (CRuby 3.4.0dev)"/>
<rect x="912.5882352941189" y="229.73100394887024" width="11.058823529411763" height="268.26899605112965" fill="#FFB000" data-tooltip="1.12x baseline (YJIT 3.3.4)"/>
<rect x="923.6470588235308" y="212.6995454131795" width="11.058823529411763" height="285.3004545868204" fill="#DC267F" data-tooltip="1.19x baseline (YJIT 3.4.0dev)"/>
<line x1="918.1176470588248" y1="498.0" x2="918.1176470588248" y2="502.79999999999995" stroke="#000"/>
<text x="918.1176470588248" y="512.4" fill="#111" font-size="small" text-anchor="end" transform="rotate(-60, 918.1176470588248, 512.4)">
tinygql
</text>
<rect x="945.7647058823543" y="242.17919745277848" width="11.058823529411763" height="255.82080254722146" fill="#785EF0" data-tooltip="1.07x baseline (CRuby 3.4.0dev)"/>
<rect x="956.8235294117661" y="242.080153771622" width="11.058823529411763" height="255.91984622837793" fill="#FFB000" data-tooltip="1.07x baseline (YJIT 3.3.4)"/>
<rect x="967.8823529411778" y="220.44101870493853" width="11.058823529411763" height="277.5589812950614" fill="#DC267F" data-tooltip="1.16x baseline (YJIT 3.4.0dev)"/>
<line x1="962.352941176472" y1="498.0" x2="962.352941176472" y2="502.79999999999995" stroke="#000"/>
<text x="962.352941176472" y="512.4" fill="#111" font-size="small" text-anchor="end" transform="rotate(-60, 962.352941176472, 512.4)" font-style="italic">
geomean*
</text>
<line x1="50.0" y1="258.1010854323552" x2="990.0" y2="258.1010854323552" stroke="#648FFF" stroke-width="2"/>
<rect x="62.88382352941177" y="229.85331792435488" width="17.85" height="7.2" transform="rotate(-60, 68.58823529411764, 236.51331792435488)" fill="#fffa"/>
<text x="63.05882352941176" y="236.51331792435488" fill="#111" font-size="0.5em" text-anchor="start" textLength="17.5" transform="rotate(-60, 68.58823529411764, 236.51331792435488)" style="text-shadow: 0 0 1px #fff;">
1.06
</text>
<rect x="73.94264705882352" y="231.37906891800117" width="17.85" height="7.2" transform="rotate(-60, 79.6470588235294, 238.03906891800116)" fill="#fffa"/>
<text x="74.11764705882352" y="238.03906891800116" fill="#111" font-size="0.5em" text-anchor="start" textLength="17.5" transform="rotate(-60, 79.6470588235294, 238.03906891800116)" style="text-shadow: 0 0 1px #fff;">
1.05
</text>
<rect x="85.00147058823529" y="225.42864004278076" width="17.85" height="7.2" transform="rotate(-60, 90.70588235294116, 232.08864004278075)" fill="#fffa"/>
<text x="85.17647058823529" y="232.08864004278075" fill="#111" font-size="0.5em" text-anchor="start" textLength="17.5" transform="rotate(-60, 90.70588235294116, 232.08864004278075)" style="text-shadow: 0 0 1px #fff;">
1.08
</text>
<rect x="107.11911764705881" y="224.28755919518085" width="17.85" height="7.2" transform="rotate(-60, 112.82352941176468, 230.94755919518084)" fill="#fffa"/>
<text x="107.2941176470588" y="230.94755919518084" fill="#111" font-size="0.5em" text-anchor="start" textLength="17.5" transform="rotate(-60, 112.82352941176468, 230.94755919518084)" style="text-shadow: 0 0 1px #fff;">
1.08
</text>
<rect x="118.17794117647057" y="238.55559959512235" width="17.85" height="7.2" transform="rotate(-60, 123.88235294117645, 245.21559959512237)" fill="#fffa"/>
<text x="118.35294117647057" y="245.21559959512237" fill="#111" font-size="0.5em" text-anchor="start" textLength="17.5" transform="rotate(-60, 123.88235294117645, 245.21559959512237)" style="text-shadow: 0 0 1px #fff;">
1.02
</text>
<rect x="129.23676470588234" y="215.75471150501966" width="17.85" height="7.2" transform="rotate(-60, 134.94117647058823, 222.41471150501965)" fill="#fffa"/>
<text x="129.41176470588235" y="222.41471150501965" fill="#111" font-size="0.5em" text-anchor="start" textLength="17.5" transform="rotate(-60, 134.94117647058823, 222.41471150501965)" style="text-shadow: 0 0 1px #fff;">
1.12
</text>
<rect x="151.35441176470584" y="226.69862585946987" width="17.85" height="7.2" transform="rotate(-60, 157.05882352941174, 233.35862585946987)" fill="#fffa"/>
<text x="151.52941176470586" y="233.35862585946987" fill="#111" font-size="0.5em" text-anchor="start" textLength="17.5" transform="rotate(-60, 157.05882352941174, 233.35862585946987)" style="text-shadow: 0 0 1px #fff;">
1.07
</text>
<rect x="162.4132352941176" y="217.76949500922564" width="17.85" height="7.2" transform="rotate(-60, 168.1176470588235, 224.42949500922563)" fill="#fffa"/>
<text x="162.58823529411762" y="224.42949500922563" fill="#111" font-size="0.5em" text-anchor="start" textLength="17.5" transform="rotate(-60, 168.1176470588235, 224.42949500922563)" style="text-shadow: 0 0 1px #fff;">
1.11
</text>
<rect x="173.47205882352938" y="206.59708497985605" width="17.85" height="7.2" transform="rotate(-60, 179.17647058823528, 213.25708497985605)" fill="#fffa"/>
<text x="173.64705882352936" y="213.25708497985605" fill="#111" font-size="0.5em" text-anchor="start" textLength="17.5" transform="rotate(-60, 179.17647058823528, 213.25708497985605)" style="text-shadow: 0 0 1px #fff;">
1.16
</text>
<rect x="195.5897058823529" y="224.52335585912715" width="17.85" height="7.2" transform="rotate(-60, 201.29411764705878, 231.18335585912715)" fill="#fffa"/>
<text x="195.7647058823529" y="231.18335585912715" fill="#111" font-size="0.5em" text-anchor="start" textLength="17.5" transform="rotate(-60, 201.29411764705878, 231.18335585912715)" style="text-shadow: 0 0 1px #fff;">
1.08
</text>
<rect x="206.64852941176466" y="238.29567523694382" width="17.85" height="7.2" transform="rotate(-60, 212.35294117647055, 244.95567523694382)" fill="#fffa"/>
<text x="206.82352941176467" y="244.95567523694382" fill="#111" font-size="0.5em" text-anchor="start" textLength="17.5" transform="rotate(-60, 212.35294117647055, 244.95567523694382)" style="text-shadow: 0 0 1px #fff;">
1.02
</text>
<rect x="217.7073529411764" y="215.03162223387508" width="17.85" height="7.2" transform="rotate(-60, 223.41176470588232, 221.6916222338751)" fill="#fffa"/>
<text x="217.8823529411764" y="221.6916222338751" fill="#111" font-size="0.5em" text-anchor="start" textLength="17.5" transform="rotate(-60, 223.41176470588232, 221.6916222338751)" style="text-shadow: 0 0 1px #fff;">
1.12
</text>
<rect x="239.82499999999993" y="219.27640556410077" width="17.85" height="7.2" transform="rotate(-60, 245.52941176470583, 225.93640556410077)" fill="#fffa"/>
<text x="239.99999999999994" y="225.93640556410077" fill="#111" font-size="0.5em" text-anchor="start" textLength="17.5" transform="rotate(-60, 245.52941176470583, 225.93640556410077)" style="text-shadow: 0 0 1px #fff;">
1.10
</text>
<rect x="250.8838235294117" y="240.83860997722886" width="17.85" height="7.2" transform="rotate(-60, 256.58823529411757, 247.49860997722888)" fill="#fffa"/>
<text x="251.05882352941165" y="247.49860997722888" fill="#111" font-size="0.5em" text-anchor="start" textLength="17.5" transform="rotate(-60, 256.58823529411757, 247.49860997722888)" style="text-shadow: 0 0 1px #fff;">
1.01
</text>
<rect x="261.94264705882347" y="211.20996938077226" width="17.85" height="7.2" transform="rotate(-60, 267.64705882352933, 217.86996938077226)" fill="#fffa"/>
<text x="262.1176470588235" y="217.86996938077226" fill="#111" font-size="0.5em" text-anchor="start" textLength="17.5" transform="rotate(-60, 267.64705882352933, 217.86996938077226)" style="text-shadow: 0 0 1px #fff;">
1.14
</text>
<rect x="284.06029411764706" y="242.43656304577087" width="17.85" height="7.2" transform="rotate(-60, 289.7647058823529, 249.09656304577086)" fill="#fffa"/>
<text x="284.235294117647" y="249.09656304577086" fill="#111" font-size="0.5em" text-anchor="start" textLength="17.5" transform="rotate(-60, 289.7647058823529, 249.09656304577086)" style="text-shadow: 0 0 1px #fff;">
1.01
</text>
<rect x="295.11911764705883" y="238.32694566559704" width="17.85" height="7.2" transform="rotate(-60, 300.8235294117647, 244.98694566559703)" fill="#fffa"/>
<text x="295.29411764705884" y="244.98694566559703" fill="#111" font-size="0.5em" text-anchor="start" textLength="17.5" transform="rotate(-60, 300.8235294117647, 244.98694566559703)" style="text-shadow: 0 0 1px #fff;">
1.02
</text>
<rect x="306.1779411764706" y="228.42636521892467" width="17.85" height="7.2" transform="rotate(-60, 311.8823529411765, 235.08636521892467)" fill="#fffa"/>
<text x="306.3529411764706" y="235.08636521892467" fill="#111" font-size="0.5em" text-anchor="start" textLength="17.5" transform="rotate(-60, 311.8823529411765, 235.08636521892467)" style="text-shadow: 0 0 1px #fff;">
1.06
</text>
<rect x="328.2955882352942" y="234.8707435340148" width="17.85" height="7.2" transform="rotate(-60, 334.00000000000006, 241.5307435340148)" fill="#fffa"/>
<text x="328.4705882352942" y="241.5307435340148" fill="#111" font-size="0.5em" text-anchor="start" textLength="17.5" transform="rotate(-60, 334.00000000000006, 241.5307435340148)" style="text-shadow: 0 0 1px #fff;">
1.04
</text>
<rect x="339.354411764706" y="218.7360007340823" width="17.85" height="7.2" transform="rotate(-60, 345.0588235294119, 225.3960007340823)" fill="#fffa"/>
<text x="339.52941176470597" y="225.3960007340823" fill="#111" font-size="0.5em" text-anchor="start" textLength="17.5" transform="rotate(-60, 345.0588235294119, 225.3960007340823)" style="text-shadow: 0 0 1px #fff;">
1.11
</text>
<rect x="350.4132352941178" y="213.70661243788715" width="17.85" height="7.2" transform="rotate(-60, 356.11764705882365, 220.36661243788714)" fill="#fffa"/>
<text x="350.58823529411774" y="220.36661243788714" fill="#111" font-size="0.5em" text-anchor="start" textLength="17.5" transform="rotate(-60, 356.11764705882365, 220.36661243788714)" style="text-shadow: 0 0 1px #fff;">
1.13
</text>
<rect x="372.5308823529414" y="226.3529998850423" width="17.85" height="7.2" transform="rotate(-60, 378.23529411764724, 233.0129998850423)" fill="#fffa"/>
<text x="372.70588235294133" y="233.0129998850423" fill="#111" font-size="0.5em" text-anchor="start" textLength="17.5" transform="rotate(-60, 378.23529411764724, 233.0129998850423)" style="text-shadow: 0 0 1px #fff;">
1.07
</text>
<rect x="383.58970588235314" y="203.5238577669579" width="17.85" height="7.2" transform="rotate(-60, 389.294117647059, 210.18385776695789)" fill="#fffa"/>
<text x="383.7647058823531" y="210.18385776695789" fill="#111" font-size="0.5em" text-anchor="start" textLength="17.5" transform="rotate(-60, 389.294117647059, 210.18385776695789)" style="text-shadow: 0 0 1px #fff;">
1.17
</text>
<rect x="394.6485294117649" y="199.5046426053233" width="17.85" height="7.2" transform="rotate(-60, 400.3529411764708, 206.1646426053233)" fill="#fffa"/>
<text x="394.8235294117649" y="206.1646426053233" fill="#111" font-size="0.5em" text-anchor="start" textLength="17.5" transform="rotate(-60, 400.3529411764708, 206.1646426053233)" style="text-shadow: 0 0 1px #fff;">
1.19
</text>
<rect x="416.7661764705885" y="241.7326618684066" width="17.85" height="7.2" transform="rotate(-60, 422.4705882352944, 248.3926618684066)" fill="#fffa"/>
<text x="416.94117647058846" y="248.3926618684066" fill="#111" font-size="0.5em" text-anchor="start" textLength="17.5" transform="rotate(-60, 422.4705882352944, 248.3926618684066)" style="text-shadow: 0 0 1px #fff;">
1.01
</text>
<rect x="427.8250000000003" y="218.22363683282447" width="17.85" height="7.2" transform="rotate(-60, 433.52941176470614, 224.88363683282446)" fill="#fffa"/>
<text x="428.0000000000003" y="224.88363683282446" fill="#111" font-size="0.5em" text-anchor="start" textLength="17.5" transform="rotate(-60, 433.52941176470614, 224.88363683282446)" style="text-shadow: 0 0 1px #fff;">
1.11
</text>
<rect x="438.8838235294121" y="224.84890752467035" width="17.85" height="7.2" transform="rotate(-60, 444.58823529411796, 231.50890752467035)" fill="#fffa"/>
<text x="439.05882352941205" y="231.50890752467035" fill="#111" font-size="0.5em" text-anchor="start" textLength="17.5" transform="rotate(-60, 444.58823529411796, 231.50890752467035)" style="text-shadow: 0 0 1px #fff;">
1.08
</text>
<rect x="461.00147058823563" y="235.04392653782403" width="17.85" height="7.2" transform="rotate(-60, 466.7058823529415, 241.70392653782403)" fill="#fffa"/>
<text x="461.17647058823565" y="241.70392653782403" fill="#111" font-size="0.5em" text-anchor="start" textLength="17.5" transform="rotate(-60, 466.7058823529415, 241.70392653782403)" style="text-shadow: 0 0 1px #fff;">
1.04
</text>
<rect x="472.06029411764746" y="241.0217051700872" width="17.85" height="7.2" transform="rotate(-60, 477.7647058823533, 247.68170517008718)" fill="#fffa"/>
<text x="472.2352941176474" y="247.68170517008718" fill="#111" font-size="0.5em" text-anchor="start" textLength="17.5" transform="rotate(-60, 477.7647058823533, 247.68170517008718)" style="text-shadow: 0 0 1px #fff;">
1.01
</text>
<rect x="483.1191176470592" y="229.71489907495385" width="17.85" height="7.2" transform="rotate(-60, 488.8235294117651, 236.37489907495387)" fill="#fffa"/>
<text x="483.2941176470592" y="236.37489907495387" fill="#111" font-size="0.5em" text-anchor="start" textLength="17.5" transform="rotate(-60, 488.8235294117651, 236.37489907495387)" style="text-shadow: 0 0 1px #fff;">
1.06
</text>
<rect x="505.23676470588276" y="219.1132546879677" width="17.85" height="7.2" transform="rotate(-60, 510.9411764705887, 225.7732546879677)" fill="#fffa"/>
<text x="505.4117647058828" y="225.7732546879677" fill="#111" font-size="0.5em" text-anchor="start" textLength="17.5" transform="rotate(-60, 510.9411764705887, 225.7732546879677)" style="text-shadow: 0 0 1px #fff;">
1.10
</text>
<rect x="516.2955882352945" y="239.36345413885874" width="17.85" height="7.2" transform="rotate(-60, 522.0000000000005, 246.02345413885877)" fill="#fffa"/>
<text x="516.4705882352946" y="246.02345413885877" fill="#111" font-size="0.5em" text-anchor="start" textLength="17.5" transform="rotate(-60, 522.0000000000005, 246.02345413885877)" style="text-shadow: 0 0 1px #fff;">
1.02
</text>
<rect x="527.3544117647064" y="210.65627484066064" width="17.85" height="7.2" transform="rotate(-60, 533.0588235294123, 217.31627484066064)" fill="#fffa"/>
<text x="527.5294117647063" y="217.31627484066064" fill="#111" font-size="0.5em" text-anchor="start" textLength="17.5" transform="rotate(-60, 533.0588235294123, 217.31627484066064)" style="text-shadow: 0 0 1px #fff;">
1.14
</text>
<rect x="549.4720588235299" y="215.23916795049368" width="17.85" height="7.2" transform="rotate(-60, 555.1764705882358, 221.89916795049368)" fill="#fffa"/>
<text x="549.64705882353" y="221.89916795049368" fill="#111" font-size="0.5em" text-anchor="start" textLength="17.5" transform="rotate(-60, 555.1764705882358, 221.89916795049368)" style="text-shadow: 0 0 1px #fff;">
1.12
</text>
<rect x="560.5308823529417" y="241.1015909221176" width="17.85" height="7.2" transform="rotate(-60, 566.2352941176476, 247.7615909221176)" fill="#fffa"/>
<text x="560.7058823529417" y="247.7615909221176" fill="#111" font-size="0.5em" text-anchor="start" textLength="17.5" transform="rotate(-60, 566.2352941176476, 247.7615909221176)" style="text-shadow: 0 0 1px #fff;">
1.01
</text>
<rect x="571.5897058823534" y="188.07211236605792" width="17.85" height="7.2" transform="rotate(-60, 577.2941176470594, 194.73211236605792)" fill="#fffa"/>
<text x="571.7647058823535" y="194.73211236605792" fill="#111" font-size="0.5em" text-anchor="start" textLength="17.5" transform="rotate(-60, 577.2941176470594, 194.73211236605792)" style="text-shadow: 0 0 1px #fff;">
1.23
</text>
<rect x="593.7073529411771" y="230.76236368739396" width="17.85" height="7.2" transform="rotate(-60, 599.411764705883, 237.42236368739395)" fill="#fffa"/>
<text x="593.882352941177" y="237.42236368739395" fill="#111" font-size="0.5em" text-anchor="start" textLength="17.5" transform="rotate(-60, 599.411764705883, 237.42236368739395)" style="text-shadow: 0 0 1px #fff;">
1.05
</text>
<rect x="604.7661764705888" y="230.9754966536197" width="17.85" height="7.2" transform="rotate(-60, 610.4705882352947, 237.6354966536197)" fill="#fffa"/>
<text x="604.9411764705889" y="237.6354966536197" fill="#111" font-size="0.5em" text-anchor="start" textLength="17.5" transform="rotate(-60, 610.4705882352947, 237.6354966536197)" style="text-shadow: 0 0 1px #fff;">
1.05
</text>
<rect x="615.8250000000006" y="212.50397291405127" width="17.85" height="7.2" transform="rotate(-60, 621.5294117647065, 219.1639729140513)" fill="#fffa"/>
<text x="616.0000000000007" y="219.1639729140513" fill="#111" font-size="0.5em" text-anchor="start" textLength="17.5" transform="rotate(-60, 621.5294117647065, 219.1639729140513)" style="text-shadow: 0 0 1px #fff;">
1.13
</text>
<rect x="637.9426470588242" y="189.2834251448734" width="17.85" height="7.2" transform="rotate(-60, 643.6470588235301, 195.9434251448734)" fill="#fffa"/>
<text x="638.1176470588242" y="195.9434251448734" fill="#111" font-size="0.5em" text-anchor="start" textLength="17.5" transform="rotate(-60, 643.6470588235301, 195.9434251448734)" style="text-shadow: 0 0 1px #fff;">
1.23
</text>
<rect x="649.001470588236" y="180.94734340275957" width="17.85" height="7.2" transform="rotate(-60, 654.7058823529419, 187.60734340275957)" fill="#fffa"/>
<text x="649.176470588236" y="187.60734340275957" fill="#111" font-size="0.5em" text-anchor="start" textLength="17.5" transform="rotate(-60, 654.7058823529419, 187.60734340275957)" style="text-shadow: 0 0 1px #fff;">
1.26
</text>
<rect x="660.0602941176478" y="176.12593396272615" width="17.85" height="7.2" transform="rotate(-60, 665.7647058823537, 182.78593396272615)" fill="#fffa"/>
<text x="660.2352941176478" y="182.78593396272615" fill="#111" font-size="0.5em" text-anchor="start" textLength="17.5" transform="rotate(-60, 665.7647058823537, 182.78593396272615)" style="text-shadow: 0 0 1px #fff;">
1.28
</text>
<rect x="682.1779411764713" y="271.1290781615165" width="17.85" height="7.2" transform="rotate(-60, 687.8823529411773, 277.78907816151644)" fill="#fffa"/>
<text x="682.3529411764714" y="277.78907816151644" fill="#111" font-size="0.5em" text-anchor="start" textLength="17.5" transform="rotate(-60, 687.8823529411773, 277.78907816151644)" style="text-shadow: 0 0 1px #fff;">
0.89
</text>
<rect x="693.2367647058832" y="222.82700597247464" width="17.85" height="7.2" transform="rotate(-60, 698.9411764705891, 229.48700597247463)" fill="#fffa"/>
<text x="693.4117647058831" y="229.48700597247463" fill="#111" font-size="0.5em" text-anchor="start" textLength="17.5" transform="rotate(-60, 698.9411764705891, 229.48700597247463)" style="text-shadow: 0 0 1px #fff;">
1.09
</text>
<rect x="704.2955882352949" y="86.03999999999998" width="17.85" height="7.2" transform="rotate(-60, 710.0000000000009, 92.69999999999999)" fill="#fffa"/>
<text x="704.4705882352949" y="92.69999999999999" fill="#111" font-size="0.5em" text-anchor="start" textLength="17.5" transform="rotate(-60, 710.0000000000009, 92.69999999999999)" style="text-shadow: 0 0 1px #fff;">
1.66
</text>
<rect x="726.4132352941185" y="230.97017299116493" width="17.85" height="7.2" transform="rotate(-60, 732.1176470588244, 237.63017299116493)" fill="#fffa"/>
<text x="726.5882352941186" y="237.63017299116493" fill="#111" font-size="0.5em" text-anchor="start" textLength="17.5" transform="rotate(-60, 732.1176470588244, 237.63017299116493)" style="text-shadow: 0 0 1px #fff;">
1.05
</text>
<rect x="737.4720588235302" y="219.4264806891348" width="17.85" height="7.2" transform="rotate(-60, 743.1764705882363, 226.0864806891348)" fill="#fffa"/>
<text x="737.6470588235303" y="226.0864806891348" fill="#111" font-size="0.5em" text-anchor="start" textLength="17.5" transform="rotate(-60, 743.1764705882363, 226.0864806891348)" style="text-shadow: 0 0 1px #fff;">
1.10
</text>
<rect x="748.5308823529421" y="211.36688460917196" width="17.85" height="7.2" transform="rotate(-60, 754.235294117648, 218.02688460917196)" fill="#fffa"/>
<text x="748.7058823529421" y="218.02688460917196" fill="#111" font-size="0.5em" text-anchor="start" textLength="17.5" transform="rotate(-60, 754.235294117648, 218.02688460917196)" style="text-shadow: 0 0 1px #fff;">
1.14
</text>
<rect x="770.6485294117656" y="214.82502467520465" width="17.85" height="7.2" transform="rotate(-60, 776.3529411764716, 221.48502467520464)" fill="#fffa"/>
<text x="770.8235294117657" y="221.48502467520464" fill="#111" font-size="0.5em" text-anchor="start" textLength="17.5" transform="rotate(-60, 776.3529411764716, 221.48502467520464)" style="text-shadow: 0 0 1px #fff;">
1.12
</text>
<rect x="781.7073529411774" y="237.55152596445186" width="17.85" height="7.2" transform="rotate(-60, 787.4117647058833, 244.21152596445185)" fill="#fffa"/>
<text x="781.8823529411775" y="244.21152596445185" fill="#111" font-size="0.5em" text-anchor="start" textLength="17.5" transform="rotate(-60, 787.4117647058833, 244.21152596445185)" style="text-shadow: 0 0 1px #fff;">
1.03
</text>
<rect x="792.7661764705892" y="206.69285807969126" width="17.85" height="7.2" transform="rotate(-60, 798.4705882352952, 213.35285807969126)" fill="#fffa"/>
<text x="792.9411764705893" y="213.35285807969126" fill="#111" font-size="0.5em" text-anchor="start" textLength="17.5" transform="rotate(-60, 798.4705882352952, 213.35285807969126)" style="text-shadow: 0 0 1px #fff;">
1.16
</text>
<rect x="814.8838235294128" y="231.97889620591152" width="17.85" height="7.2" transform="rotate(-60, 820.5882352941187, 238.63889620591152)" fill="#fffa"/>
<text x="815.0588235294128" y="238.63889620591152" fill="#111" font-size="0.5em" text-anchor="start" textLength="17.5" transform="rotate(-60, 820.5882352941187, 238.63889620591152)" style="text-shadow: 0 0 1px #fff;">
1.05
</text>
<rect x="825.9426470588246" y="237.3655209691377" width="17.85" height="7.2" transform="rotate(-60, 831.6470588235305, 244.0255209691377)" fill="#fffa"/>
<text x="826.1176470588247" y="244.0255209691377" fill="#111" font-size="0.5em" text-anchor="start" textLength="17.5" transform="rotate(-60, 831.6470588235305, 244.0255209691377)" style="text-shadow: 0 0 1px #fff;">
1.03
</text>
<rect x="837.0014705882364" y="226.95623257533575" width="17.85" height="7.2" transform="rotate(-60, 842.7058823529424, 233.61623257533574)" fill="#fffa"/>
<text x="837.1764705882364" y="233.61623257533574" fill="#111" font-size="0.5em" text-anchor="start" textLength="17.5" transform="rotate(-60, 842.7058823529424, 233.61623257533574)" style="text-shadow: 0 0 1px #fff;">
1.07
</text>
<rect x="859.11911764706" y="220.85776656477935" width="17.85" height="7.2" transform="rotate(-60, 864.8235294117659, 227.51776656477935)" fill="#fffa"/>
<text x="859.29411764706" y="227.51776656477935" fill="#111" font-size="0.5em" text-anchor="start" textLength="17.5" transform="rotate(-60, 864.8235294117659, 227.51776656477935)" style="text-shadow: 0 0 1px #fff;">
1.10
</text>
<rect x="870.1779411764718" y="238.07502750231114" width="17.85" height="7.2" transform="rotate(-60, 875.8823529411777, 244.73502750231114)" fill="#fffa"/>
<text x="870.3529411764717" y="244.73502750231114" fill="#111" font-size="0.5em" text-anchor="start" textLength="17.5" transform="rotate(-60, 875.8823529411777, 244.73502750231114)" style="text-shadow: 0 0 1px #fff;">
1.02
</text>
<rect x="881.2367647058835" y="211.03021496769261" width="17.85" height="7.2" transform="rotate(-60, 886.9411764705894, 217.6902149676926)" fill="#fffa"/>
<text x="881.4117647058836" y="217.6902149676926" fill="#111" font-size="0.5em" text-anchor="start" textLength="17.5" transform="rotate(-60, 886.9411764705894, 217.6902149676926)" style="text-shadow: 0 0 1px #fff;">
1.14
</text>
<rect x="903.3544117647072" y="222.15775586875066" width="17.85" height="7.2" transform="rotate(-60, 909.0588235294131, 228.81775586875065)" fill="#fffa"/>
<text x="903.5294117647071" y="228.81775586875065" fill="#111" font-size="0.5em" text-anchor="start" textLength="17.5" transform="rotate(-60, 909.0588235294131, 228.81775586875065)" style="text-shadow: 0 0 1px #fff;">
1.09
</text>
<rect x="914.4132352941189" y="215.57100394887024" width="17.85" height="7.2" transform="rotate(-60, 920.1176470588248, 222.23100394887024)" fill="#fffa"/>
<text x="914.5882352941189" y="222.23100394887024" fill="#111" font-size="0.5em" text-anchor="start" textLength="17.5" transform="rotate(-60, 920.1176470588248, 222.23100394887024)" style="text-shadow: 0 0 1px #fff;">
1.12
</text>
<rect x="925.4720588235307" y="198.5395454131795" width="17.85" height="7.2" transform="rotate(-60, 931.1764705882366, 205.1995454131795)" fill="#fffa"/>
<text x="925.6470588235308" y="205.1995454131795" fill="#111" font-size="0.5em" text-anchor="start" textLength="17.5" transform="rotate(-60, 931.1764705882366, 205.1995454131795)" style="text-shadow: 0 0 1px #fff;">
1.19
</text>
<rect x="947.5897058823542" y="228.01919745277849" width="17.85" height="7.2" transform="rotate(-60, 953.2941176470601, 234.67919745277848)" fill="#fffa"/>
<text x="947.7647058823543" y="234.67919745277848" fill="#111" font-size="0.5em" text-anchor="start" textLength="17.5" transform="rotate(-60, 953.2941176470601, 234.67919745277848)" style="text-shadow: 0 0 1px #fff;">
1.07
</text>
<rect x="958.648529411766" y="227.920153771622" width="17.85" height="7.2" transform="rotate(-60, 964.352941176472, 234.580153771622)" fill="#fffa"/>
<text x="958.8235294117661" y="234.580153771622" fill="#111" font-size="0.5em" text-anchor="start" textLength="17.5" transform="rotate(-60, 964.352941176472, 234.580153771622)" style="text-shadow: 0 0 1px #fff;">
1.07
</text>
<rect x="969.7073529411779" y="206.28101870493853" width="17.85" height="7.2" transform="rotate(-60, 975.4117647058838, 212.94101870493853)" fill="#fffa"/>
<text x="969.8823529411778" y="212.94101870493853" fill="#111" font-size="0.5em" text-anchor="start" textLength="17.5" transform="rotate(-60, 975.4117647058838, 212.94101870493853)" style="text-shadow: 0 0 1px #fff;">
1.16
</text>
</svg>