<svg viewBox="0 0 1000 600" xmlns="http://www.w3.org/2000/svg" xmlns:xlink="http://www.w3.org/1999/xlink" width="100%" height="100%">

<rect x="50.0" y="30.0" width="940.0" height="467.99999999999994" stroke="#000" fill="#fff"/>
<line x1="42.0" y1="497.9999999999999" x2="50.0" y2="497.9999999999999" stroke="#000"/>
<text x="26.000000000000004" y="497.9999999999999" text-anchor="end" font-weight="bold" font-size="small" fill="#111">
0.0
</text>
<line x1="42.0" y1="430.2950071564554" x2="50.0" y2="430.2950071564554" stroke="#000"/>
<text x="26.000000000000004" y="430.2950071564554" text-anchor="end" font-weight="bold" font-size="small" fill="#111">
2.0
</text>
<line x1="42.0" y1="362.59001431291074" x2="50.0" y2="362.59001431291074" stroke="#000"/>
<text x="26.000000000000004" y="362.59001431291074" text-anchor="end" font-weight="bold" font-size="small" fill="#111">
4.0
</text>
<line x1="42.0" y1="294.88502146936617" x2="50.0" y2="294.88502146936617" stroke="#000"/>
<text x="26.000000000000004" y="294.88502146936617" text-anchor="end" font-weight="bold" font-size="small" fill="#111">
6.0
</text>
<line x1="42.0" y1="227.1800286258216" x2="50.0" y2="227.1800286258216" stroke="#000"/>
<text x="26.000000000000004" y="227.1800286258216" text-anchor="end" font-weight="bold" font-size="small" fill="#111">
8.0
</text>
<line x1="42.0" y1="159.475035782277" x2="50.0" y2="159.475035782277" stroke="#000"/>
<text x="26.000000000000004" y="159.475035782277" text-anchor="end" font-weight="bold" font-size="small" fill="#111">
10.0
</text>
<line x1="142.75" y1="54.60000000000001" x2="262.75" y2="54.60000000000001" stroke="#648FFF" stroke-width="2"/>
<text x="202.75" y="49.500000000000014" font-size="small" text-anchor="middle" font-weight="bold" fill="#000">
CRuby 3.2.0dev
</text>
<rect x="354.25" y="35.400000000000006" width="120.0" height="19.2" fill="#785EF0" stroke="none"/>
<text x="414.25" y="49.500000000000014" font-size="small" text-anchor="middle" font-weight="bold" fill="#fff" style="text-shadow: 0 0 1px #000;">
MJIT3.0
</text>
<rect x="565.75" y="35.400000000000006" width="120.0" height="19.2" fill="#FFB000" stroke="none"/>
<text x="625.7499999999999" y="49.500000000000014" font-size="small" text-anchor="middle" font-weight="bold" fill="#fff" style="text-shadow: 0 0 1px #000;">
MJIT
</text>
<rect x="777.25" y="35.400000000000006" width="120.0" height="19.2" fill="#DC267F" stroke="none"/>
<text x="837.2499999999999" y="49.500000000000014" font-size="small" text-anchor="middle" font-weight="bold" fill="#fff" style="text-shadow: 0 0 1px #000;">
YJIT 3.2.0dev
</text>
<rect x="59.89473684210527" y="464.83942150496995" width="9.894736842105264" height="33.16057849503006" fill="#785EF0" data-tooltip="0.98x baseline (MJIT3.0)"/>
<rect x="69.78947368421052" y="460.3316585834261" width="9.894736842105264" height="37.668341416573924" fill="#FFB000" data-tooltip="1.11x baseline (MJIT)"/>
<rect x="79.6842105263158" y="326.63087491775366" width="9.894736842105264" height="171.36912508224626" fill="#DC267F" data-tooltip="5.06x baseline (YJIT 3.2.0dev)"/>
<line x1="74.73684210526315" y1="498.0" x2="74.73684210526315" y2="502.79999999999995" stroke="#000"/>
<text x="74.73684210526315" y="512.4" fill="#111" font-size="small" text-anchor="end" transform="rotate(-60, 74.73684210526315, 512.4)">
activerecord
</text>
<rect x="99.47368421052632" y="458.6665443349899" width="9.894736842105264" height="39.33345566501001" fill="#785EF0" data-tooltip="1.16x baseline (MJIT3.0)"/>
<rect x="109.36842105263158" y="424.09749149207386" width="9.894736842105264" height="73.90250850792606" fill="#DC267F" data-tooltip="2.18x baseline (YJIT 3.2.0dev)"/>
<line x1="109.36842105263158" y1="498.0" x2="109.36842105263158" y2="502.79999999999995" stroke="#000"/>
<text x="109.36842105263158" y="512.4" fill="#111" font-size="small" text-anchor="end" transform="rotate(-60, 109.36842105263158, 512.4)">
hexapdf
</text>
<rect x="129.1578947368421" y="465.39350444130207" width="9.894736842105264" height="32.60649555869786" fill="#785EF0" data-tooltip="0.96x baseline (MJIT3.0)"/>
<rect x="139.05263157894737" y="185.4853037989558" width="9.894736842105264" height="312.5146962010441" fill="#DC267F" data-tooltip="9.23x baseline (YJIT 3.2.0dev)"/>
<line x1="139.05263157894737" y1="498.0" x2="139.05263157894737" y2="502.79999999999995" stroke="#000"/>
<text x="139.05263157894737" y="512.4" fill="#111" font-size="small" text-anchor="end" transform="rotate(-60, 139.05263157894737, 512.4)">
liquid-render
</text>
<rect x="158.8421052631579" y="464.83375803066804" width="9.894736842105264" height="33.16624196933189" fill="#785EF0" data-tooltip="0.98x baseline (MJIT3.0)"/>
<rect x="168.73684210526315" y="459.0245878675466" width="9.894736842105264" height="38.97541213245333" fill="#FFB000" data-tooltip="1.15x baseline (MJIT)"/>
<rect x="178.6315789473684" y="284.01660274043905" width="9.894736842105264" height="213.98339725956092" fill="#DC267F" data-tooltip="6.32x baseline (YJIT 3.2.0dev)"/>
<line x1="173.68421052631578" y1="498.0" x2="173.68421052631578" y2="502.79999999999995" stroke="#000"/>
<text x="173.68421052631578" y="512.4" fill="#111" font-size="small" text-anchor="end" transform="rotate(-60, 173.68421052631578, 512.4)">
mail
</text>
<rect x="198.42105263157893" y="466.5265572894981" width="9.894736842105264" height="31.473442710501878" fill="#785EF0" data-tooltip="0.93x baseline (MJIT3.0)"/>
<rect x="208.3157894736842" y="461.1110999493743" width="9.894736842105264" height="36.88890005062565" fill="#FFB000" data-tooltip="1.09x baseline (MJIT)"/>
<rect x="218.21052631578948" y="252.05225087373248" width="9.894736842105264" height="245.94774912626747" fill="#DC267F" data-tooltip="7.27x baseline (YJIT 3.2.0dev)"/>
<line x1="213.26315789473682" y1="498.0" x2="213.26315789473682" y2="502.79999999999995" stroke="#000"/>
<text x="213.26315789473682" y="512.4" fill="#111" font-size="small" text-anchor="end" transform="rotate(-60, 213.26315789473682, 512.4)">
psych-load
</text>
<rect x="238.0" y="462.6639022716491" width="9.894736842105264" height="35.33609772835081" fill="#785EF0" data-tooltip="1.04x baseline (MJIT3.0)"/>
<rect x="247.89473684210526" y="458.5985568725447" width="9.894736842105264" height="39.40144312745522" fill="#FFB000" data-tooltip="1.16x baseline (MJIT)"/>
<rect x="257.7894736842105" y="374.6412029557983" width="9.894736842105264" height="123.35879704420165" fill="#DC267F" data-tooltip="3.64x baseline (YJIT 3.2.0dev)"/>
<line x1="252.84210526315792" y1="498.0" x2="252.84210526315792" y2="502.79999999999995" stroke="#000"/>
<text x="252.84210526315792" y="512.4" fill="#111" font-size="small" text-anchor="end" transform="rotate(-60, 252.84210526315792, 512.4)">
railsbench
</text>
<rect x="277.5789473684211" y="458.93393345419946" width="9.894736842105264" height="39.066066545800524" fill="#785EF0" data-tooltip="1.15x baseline (MJIT3.0)"/>
<rect x="287.47368421052636" y="453.58638355362996" width="9.894736842105264" height="44.413616446369986" fill="#FFB000" data-tooltip="1.31x baseline (MJIT)"/>
<rect x="297.3684210526317" y="170.56279964193973" width="9.894736842105264" height="327.43720035806024" fill="#DC267F" data-tooltip="9.67x baseline (YJIT 3.2.0dev)"/>
<line x1="292.421052631579" y1="498.0" x2="292.421052631579" y2="502.79999999999995" stroke="#000"/>
<text x="292.421052631579" y="512.4" fill="#111" font-size="small" text-anchor="end" transform="rotate(-60, 292.421052631579, 512.4)">
binarytrees
</text>
<rect x="317.15789473684225" y="463.68429717485657" width="9.894736842105264" height="34.31570282514332" fill="#785EF0" data-tooltip="1.01x baseline (MJIT3.0)"/>
<rect x="327.0526315789475" y="460.88009490460723" width="9.894736842105264" height="37.119905095392724" fill="#FFB000" data-tooltip="1.10x baseline (MJIT)"/>
<rect x="336.94736842105283" y="438.1348613124737" width="9.894736842105264" height="59.86513868752631" fill="#DC267F" data-tooltip="1.77x baseline (YJIT 3.2.0dev)"/>
<line x1="332.00000000000017" y1="498.0" x2="332.00000000000017" y2="502.79999999999995" stroke="#000"/>
<text x="332.00000000000017" y="512.4" fill="#111" font-size="small" text-anchor="end" transform="rotate(-60, 332.00000000000017, 512.4)">
discourse
</text>
<rect x="356.7368421052634" y="463.9321522253923" width="9.894736842105264" height="34.06784777460762" fill="#785EF0" data-tooltip="1.01x baseline (MJIT3.0)"/>
<rect x="366.6315789473687" y="461.1129869623659" width="9.894736842105264" height="36.88701303763406" fill="#FFB000" data-tooltip="1.09x baseline (MJIT)"/>
<rect x="376.526315789474" y="328.63628434920724" width="9.894736842105264" height="169.3637156507926" fill="#DC267F" data-tooltip="5.00x baseline (YJIT 3.2.0dev)"/>
<line x1="371.5789473684213" y1="498.0" x2="371.5789473684213" y2="502.79999999999995" stroke="#000"/>
<text x="371.5789473684213" y="512.4" fill="#111" font-size="small" text-anchor="end" transform="rotate(-60, 371.5789473684213, 512.4)">
erubi
</text>
<rect x="396.31578947368456" y="465.3427124440434" width="9.894736842105264" height="32.65728755595653" fill="#785EF0" data-tooltip="0.96x baseline (MJIT3.0)"/>
<rect x="406.2105263157899" y="444.12903081380864" width="9.894736842105264" height="53.870969186191374" fill="#FFB000" data-tooltip="1.59x baseline (MJIT)"/>
<rect x="416.10526315789514" y="379.1856594392061" width="9.894736842105264" height="118.81434056079381" fill="#DC267F" data-tooltip="3.51x baseline (YJIT 3.2.0dev)"/>
<line x1="411.1578947368425" y1="498.0" x2="411.1578947368425" y2="502.79999999999995" stroke="#000"/>
<text x="411.1578947368425" y="512.4" fill="#111" font-size="small" text-anchor="end" transform="rotate(-60, 411.1578947368425, 512.4)">
erubi_rails
</text>
<rect x="435.8947368421057" y="462.06435758961715" width="9.894736842105264" height="35.935642410382734" fill="#785EF0" data-tooltip="1.06x baseline (MJIT3.0)"/>
<rect x="445.78947368421103" y="463.3238296074758" width="9.894736842105264" height="34.67617039252415" fill="#FFB000" data-tooltip="1.02x baseline (MJIT)"/>
<rect x="455.6842105263163" y="102.54853709088299" width="9.894736842105264" height="395.4514629091169" fill="#DC267F" data-tooltip="11.68x baseline (YJIT 3.2.0dev)"/>
<line x1="450.73684210526363" y1="498.0" x2="450.73684210526363" y2="502.79999999999995" stroke="#000"/>
<text x="450.73684210526363" y="512.4" fill="#111" font-size="small" text-anchor="end" transform="rotate(-60, 450.73684210526363, 512.4)">
fannkuchredux
</text>
<rect x="475.47368421052687" y="464.6092978088436" width="9.894736842105264" height="33.39070219115626" fill="#785EF0" data-tooltip="0.99x baseline (MJIT3.0)"/>
<rect x="485.3684210526322" y="459.87677948020564" width="9.894736842105264" height="38.12322051979422" fill="#FFB000" data-tooltip="1.13x baseline (MJIT)"/>
<rect x="495.26315789473745" y="217.64621225181318" width="9.894736842105264" height="280.3537877481868" fill="#DC267F" data-tooltip="8.28x baseline (YJIT 3.2.0dev)"/>
<line x1="490.3157894736848" y1="498.0" x2="490.3157894736848" y2="502.79999999999995" stroke="#000"/>
<text x="490.3157894736848" y="512.4" fill="#111" font-size="small" text-anchor="end" transform="rotate(-60, 490.3157894736848, 512.4)">
lee
</text>
<rect x="515.052631578948" y="463.50071041472876" width="9.894736842105264" height="34.499289585271185" fill="#785EF0" data-tooltip="1.02x baseline (MJIT3.0)"/>
<rect x="524.9473684210533" y="458.54638645849764" width="9.894736842105264" height="39.45361354150228" fill="#FFB000" data-tooltip="1.17x baseline (MJIT)"/>
<rect x="534.8421052631586" y="103.63705309953828" width="9.894736842105264" height="394.3629469004617" fill="#DC267F" data-tooltip="11.65x baseline (YJIT 3.2.0dev)"/>
<line x1="529.894736842106" y1="498.0" x2="529.894736842106" y2="502.79999999999995" stroke="#000"/>
<text x="529.894736842106" y="512.4" fill="#111" font-size="small" text-anchor="end" transform="rotate(-60, 529.894736842106, 512.4)">
nbody
</text>
<rect x="554.6315789473691" y="462.74504803980625" width="9.894736842105264" height="35.25495196019378" fill="#785EF0" data-tooltip="1.04x baseline (MJIT3.0)"/>
<rect x="564.5263157894744" y="461.52744313625755" width="9.894736842105264" height="36.47255686374236" fill="#FFB000" data-tooltip="1.08x baseline (MJIT)"/>
<rect x="574.4210526315798" y="347.0151912632639" width="9.894736842105264" height="150.98480873673603" fill="#DC267F" data-tooltip="4.46x baseline (YJIT 3.2.0dev)"/>
<line x1="569.4736842105272" y1="498.0" x2="569.4736842105272" y2="502.79999999999995" stroke="#000"/>
<text x="569.4736842105272" y="512.4" fill="#111" font-size="small" text-anchor="end" transform="rotate(-60, 569.4736842105272, 512.4)">
optcarrot
</text>
<rect x="594.2105263157903" y="457.36709141058714" width="9.894736842105264" height="40.63290858941278" fill="#785EF0" data-tooltip="1.20x baseline (MJIT3.0)"/>
<rect x="604.1052631578956" y="460.58945452090234" width="9.894736842105264" height="37.410545479097564" fill="#FFB000" data-tooltip="1.11x baseline (MJIT)"/>
<rect x="614.0000000000009" y="333.41838137879904" width="9.894736842105264" height="164.5816186212009" fill="#DC267F" data-tooltip="4.86x baseline (YJIT 3.2.0dev)"/>
<line x1="609.0526315789483" y1="498.0" x2="609.0526315789483" y2="502.79999999999995" stroke="#000"/>
<text x="609.0526315789483" y="512.4" fill="#111" font-size="small" text-anchor="end" transform="rotate(-60, 609.0526315789483, 512.4)">
rubykon
</text>
<rect x="633.7894736842114" y="440.5931775889687" width="9.894736842105264" height="57.406822411031335" fill="#785EF0" data-tooltip="1.70x baseline (MJIT3.0)"/>
<rect x="643.6842105263167" y="460.2180366436478" width="9.894736842105264" height="37.78196335635225" fill="#FFB000" data-tooltip="1.12x baseline (MJIT)"/>
<rect x="653.5789473684221" y="320.3675155396064" width="9.894736842105264" height="177.63248446039353" fill="#DC267F" data-tooltip="5.25x baseline (YJIT 3.2.0dev)"/>
<line x1="648.6315789473695" y1="498.0" x2="648.6315789473695" y2="502.79999999999995" stroke="#000"/>
<text x="648.6315789473695" y="512.4" fill="#111" font-size="small" text-anchor="end" transform="rotate(-60, 648.6315789473695, 512.4)">
30k_ifelse
</text>
<rect x="673.3684210526326" y="389.89761560045616" width="9.894736842105264" height="108.10238439954378" fill="#785EF0" data-tooltip="3.19x baseline (MJIT3.0)"/>
<rect x="683.2631578947379" y="412.67856241658166" width="9.894736842105264" height="85.32143758341832" fill="#FFB000" data-tooltip="2.52x baseline (MJIT)"/>
<rect x="693.1578947368432" y="303.4009844415496" width="9.894736842105264" height="194.5990155584503" fill="#DC267F" data-tooltip="5.75x baseline (YJIT 3.2.0dev)"/>
<line x1="688.2105263157906" y1="498.0" x2="688.2105263157906" y2="502.79999999999995" stroke="#000"/>
<text x="688.2105263157906" y="512.4" fill="#111" font-size="small" text-anchor="end" transform="rotate(-60, 688.2105263157906, 512.4)">
30k_methods
</text>
<rect x="712.9473684210537" y="462.47875720037473" width="9.894736842105264" height="35.52124279962519" fill="#785EF0" data-tooltip="1.05x baseline (MJIT3.0)"/>
<rect x="722.842105263159" y="386.9505129656319" width="9.894736842105264" height="111.049487034368" fill="#FFB000" data-tooltip="3.28x baseline (MJIT)"/>
<rect x="732.7368421052644" y="103.40735320533805" width="9.894736842105264" height="394.5926467946619" fill="#DC267F" data-tooltip="11.66x baseline (YJIT 3.2.0dev)"/>
<line x1="727.7894736842118" y1="498.0" x2="727.7894736842118" y2="502.79999999999995" stroke="#000"/>
<text x="727.7894736842118" y="512.4" fill="#111" font-size="small" text-anchor="end" transform="rotate(-60, 727.7894736842118, 512.4)">
cfunc_itself
</text>
<rect x="752.5263157894749" y="462.848461014688" width="9.894736842105264" height="35.151538985311895" fill="#785EF0" data-tooltip="1.04x baseline (MJIT3.0)"/>
<rect x="762.4210526315802" y="460.91979676843323" width="9.894736842105264" height="37.080203231566706" fill="#FFB000" data-tooltip="1.10x baseline (MJIT)"/>
<rect x="772.3157894736855" y="100.19999999999999" width="9.894736842105264" height="397.79999999999995" fill="#DC267F" data-tooltip="11.75x baseline (YJIT 3.2.0dev)"/>
<line x1="767.3684210526329" y1="498.0" x2="767.3684210526329" y2="502.79999999999995" stroke="#000"/>
<text x="767.3684210526329" y="512.4" fill="#111" font-size="small" text-anchor="end" transform="rotate(-60, 767.3684210526329, 512.4)">
fib
</text>
<rect x="792.105263157896" y="463.00708259948" width="9.894736842105264" height="34.99291740051994" fill="#785EF0" data-tooltip="1.03x baseline (MJIT3.0)"/>
<rect x="802.0000000000014" y="461.15141392104266" width="9.894736842105264" height="36.84858607895724" fill="#FFB000" data-tooltip="1.09x baseline (MJIT)"/>
<rect x="811.8947368421067" y="105.44418156429035" width="9.894736842105264" height="392.5558184357096" fill="#DC267F" data-tooltip="11.60x baseline (YJIT 3.2.0dev)"/>
<line x1="806.9473684210541" y1="498.0" x2="806.9473684210541" y2="502.79999999999995" stroke="#000"/>
<text x="806.9473684210541" y="512.4" fill="#111" font-size="small" text-anchor="end" transform="rotate(-60, 806.9473684210541, 512.4)">
getivar
</text>
<rect x="831.6842105263172" y="462.08682101609503" width="9.894736842105264" height="35.91317898390491" fill="#785EF0" data-tooltip="1.06x baseline (MJIT3.0)"/>
<rect x="841.5789473684225" y="461.26644005297044" width="9.894736842105264" height="36.73355994702951" fill="#FFB000" data-tooltip="1.09x baseline (MJIT)"/>
<rect x="851.4736842105278" y="101.74837481044948" width="9.894736842105264" height="396.25162518955045" fill="#DC267F" data-tooltip="11.71x baseline (YJIT 3.2.0dev)"/>
<line x1="846.5263157894752" y1="498.0" x2="846.5263157894752" y2="502.79999999999995" stroke="#000"/>
<text x="846.5263157894752" y="512.4" fill="#111" font-size="small" text-anchor="end" transform="rotate(-60, 846.5263157894752, 512.4)">
keyword_args
</text>
<rect x="871.2631578947384" y="462.52969547978057" width="9.894736842105264" height="35.47030452021942" fill="#785EF0" data-tooltip="1.05x baseline (MJIT3.0)"/>
<rect x="881.1578947368437" y="460.0261384539624" width="9.894736842105264" height="37.97386154603755" fill="#FFB000" data-tooltip="1.12x baseline (MJIT)"/>
<rect x="891.052631578949" y="101.17320741537209" width="9.894736842105264" height="396.8267925846278" fill="#DC267F" data-tooltip="11.72x baseline (YJIT 3.2.0dev)"/>
<line x1="886.1052631578964" y1="498.0" x2="886.1052631578964" y2="502.79999999999995" stroke="#000"/>
<text x="886.1052631578964" y="512.4" fill="#111" font-size="small" text-anchor="end" transform="rotate(-60, 886.1052631578964, 512.4)">
respond_to
</text>
<rect x="910.8421052631595" y="463.04146460215867" width="9.894736842105264" height="34.95853539784125" fill="#785EF0" data-tooltip="1.03x baseline (MJIT3.0)"/>
<rect x="920.7368421052648" y="460.2658684478238" width="9.894736842105264" height="37.73413155217614" fill="#FFB000" data-tooltip="1.11x baseline (MJIT)"/>
<rect x="930.6315789473701" y="102.31318064096192" width="9.894736842105264" height="395.68681935903805" fill="#DC267F" data-tooltip="11.69x baseline (YJIT 3.2.0dev)"/>
<line x1="925.6842105263175" y1="498.0" x2="925.6842105263175" y2="502.79999999999995" stroke="#000"/>
<text x="925.6842105263175" y="512.4" fill="#111" font-size="small" text-anchor="end" transform="rotate(-60, 925.6842105263175, 512.4)">
setivar
</text>
<rect x="950.4210526315807" y="460.4196179063159" width="9.894736842105264" height="37.580382093684065" fill="#785EF0" data-tooltip="1.11x baseline (MJIT3.0)"/>
<rect x="960.315789473686" y="455.91119552800706" width="9.894736842105264" height="42.088804471992866" fill="#FFB000" data-tooltip="1.24x baseline (MJIT)"/>
<rect x="970.2105263157913" y="271.5546434615013" width="9.894736842105264" height="226.44535653849863" fill="#DC267F" data-tooltip="6.69x baseline (YJIT 3.2.0dev)"/>
<line x1="965.2631578947387" y1="498.0" x2="965.2631578947387" y2="502.79999999999995" stroke="#000"/>
<text x="965.2631578947387" y="512.4" fill="#111" font-size="small" text-anchor="end" transform="rotate(-60, 965.2631578947387, 512.4)" font-style="italic">
geomean*
</text>
<line x1="50.0" y1="464.1475035782276" x2="990.0" y2="464.1475035782276" stroke="#648FFF" stroke-width="2"/>
</svg>