<svg viewBox="0 0 1000 600" xmlns="http://www.w3.org/2000/svg" xmlns:xlink="http://www.w3.org/1999/xlink" width="100%" height="100%">

<rect x="50.0" y="30.0" width="940.0" height="467.99999999999994" stroke="#000" fill="#EEE"/>
<line x1="42.0" y1="497.9999999999999" x2="50.0" y2="497.9999999999999" stroke="#000"/>
<text x="26.000000000000004" y="497.9999999999999" text-anchor="end" font-weight="bold" font-size="small" fill="#111">
0.0
</text>
<line x1="42.0" y1="427.238046752075" x2="50.0" y2="427.238046752075" stroke="#000"/>
<text x="26.000000000000004" y="427.238046752075" text-anchor="end" font-weight="bold" font-size="small" fill="#111">
0.5
</text>
<line x1="42.0" y1="356.47609350415" x2="50.0" y2="356.47609350415" stroke="#000"/>
<text x="26.000000000000004" y="356.47609350415" text-anchor="end" font-weight="bold" font-size="small" fill="#111">
1.0
</text>
<line x1="42.0" y1="285.71414025622505" x2="50.0" y2="285.71414025622505" stroke="#000"/>
<text x="26.000000000000004" y="285.71414025622505" text-anchor="end" font-weight="bold" font-size="small" fill="#111">
1.5
</text>
<line x1="42.0" y1="214.95218700830014" x2="50.0" y2="214.95218700830014" stroke="#000"/>
<text x="26.000000000000004" y="214.95218700830014" text-anchor="end" font-weight="bold" font-size="small" fill="#111">
2.0
</text>
<line x1="42.0" y1="144.19023376037518" x2="50.0" y2="144.19023376037518" stroke="#000"/>
<text x="26.000000000000004" y="144.19023376037518" text-anchor="end" font-weight="bold" font-size="small" fill="#111">
2.5
</text>
<rect x="268.5" y="36.00000000000001" width="80.0" height="18.0" fill="#7070f8" stroke="#888"/>
<text x="308.5" y="52.50000000000001" font-size="small" text-anchor="middle" font-weight="bold" fill="#EEE">
No JIT
</text>
<rect x="691.4999999999999" y="36.00000000000001" width="80.0" height="18.0" fill="orange" stroke="#888"/>
<text x="731.4999999999999" y="52.50000000000001" font-size="small" text-anchor="middle" font-weight="bold" fill="#EEE">
YJIT
</text>
<rect x="97.0" y="356.47609350415" width="25.636363636363637" height="141.5239064958499" fill="#7070f8" data-tooltip="1.00x baseline speed (No JIT)"/>
<line x1="97.0" y1="356.3782355911186" x2="122.63636363636364" y2="356.3782355911186" stroke="#000"/>
<line x1="97.0" y1="356.5739514171815" x2="122.63636363636364" y2="356.5739514171815" stroke="#000"/>
<line x1="109.81818181818181" y1="356.3782355911186" x2="109.81818181818181" y2="356.5739514171815" stroke="#000"/>
<rect x="122.63636363636364" y="209.7961990932959" width="25.636363636363637" height="288.20380090670403" fill="orange" data-tooltip="2.04x baseline speed (YJIT)"/>
<line x1="122.63636363636364" y1="208.24264101734656" x2="148.27272727272728" y2="208.24264101734656" stroke="#000"/>
<line x1="122.63636363636364" y1="211.34975716924524" x2="148.27272727272728" y2="211.34975716924524" stroke="#000"/>
<line x1="135.45454545454547" y1="208.24264101734656" x2="135.45454545454547" y2="211.34975716924524" stroke="#000"/>
<line x1="135.45454545454547" y1="498.0" x2="135.45454545454547" y2="502.79999999999995" stroke="#000"/>
<text x="135.45454545454547" y="512.4" fill="#111" font-size="small" font-family="monospace" font-weight="bold" text-anchor="end" transform="rotate(-60, 135.45454545454547, 512.4)">
binarytrees
</text>
<rect x="173.9090909090909" y="356.47609350415" width="25.636363636363637" height="141.5239064958499" fill="#7070f8" data-tooltip="1.00x baseline speed (No JIT)"/>
<line x1="173.9090909090909" y1="356.1521528740865" x2="199.54545454545453" y2="356.1521528740865" stroke="#000"/>
<line x1="173.9090909090909" y1="356.8000341342136" x2="199.54545454545453" y2="356.8000341342136" stroke="#000"/>
<line x1="186.72727272727272" y1="356.1521528740865" x2="186.72727272727272" y2="356.8000341342136" stroke="#000"/>
<rect x="199.54545454545453" y="279.60470696823614" width="25.636363636363637" height="218.39529303176377" fill="orange" data-tooltip="1.54x baseline speed (YJIT)"/>
<line x1="199.54545454545453" y1="278.63856809708386" x2="225.18181818181816" y2="278.63856809708386" stroke="#000"/>
<line x1="199.54545454545453" y1="280.5708458393885" x2="225.18181818181816" y2="280.5708458393885" stroke="#000"/>
<line x1="212.36363636363635" y1="278.63856809708386" x2="212.36363636363635" y2="280.5708458393885" stroke="#000"/>
<line x1="212.36363636363637" y1="498.0" x2="212.36363636363637" y2="502.79999999999995" stroke="#000"/>
<text x="212.36363636363637" y="512.4" fill="#111" font-size="small" font-family="monospace" font-weight="bold" text-anchor="end" transform="rotate(-60, 212.36363636363637, 512.4)">
chunky_png
</text>
<rect x="250.81818181818184" y="356.47609350415" width="25.636363636363637" height="141.5239064958499" fill="#7070f8" data-tooltip="1.00x baseline speed (No JIT)"/>
<line x1="250.81818181818184" y1="356.0625430013484" x2="276.45454545454544" y2="356.0625430013484" stroke="#000"/>
<line x1="250.81818181818184" y1="356.8896440069517" x2="276.45454545454544" y2="356.8896440069517" stroke="#000"/>
<line x1="263.6363636363637" y1="356.0625430013484" x2="263.6363636363637" y2="356.8896440069517" stroke="#000"/>
<rect x="276.45454545454544" y="329.868768495465" width="25.636363636363637" height="168.13123150453492" fill="orange" data-tooltip="1.19x baseline speed (YJIT)"/>
<line x1="276.45454545454544" y1="329.37148153087486" x2="302.09090909090907" y2="329.37148153087486" stroke="#000"/>
<line x1="276.45454545454544" y1="330.3660554600552" x2="302.09090909090907" y2="330.3660554600552" stroke="#000"/>
<line x1="289.2727272727273" y1="329.37148153087486" x2="289.2727272727273" y2="330.3660554600552" stroke="#000"/>
<line x1="289.2727272727273" y1="498.0" x2="289.2727272727273" y2="502.79999999999995" stroke="#000"/>
<text x="289.2727272727273" y="512.4" fill="#111" font-size="small" font-family="monospace" font-weight="bold" text-anchor="end" transform="rotate(-60, 289.2727272727273, 512.4)">
erubi
</text>
<rect x="327.72727272727275" y="356.47609350415" width="25.636363636363637" height="141.5239064958499" fill="#7070f8" data-tooltip="1.00x baseline speed (No JIT)"/>
<line x1="327.72727272727275" y1="340.8093072982233" x2="353.3636363636364" y2="340.8093072982233" stroke="#000"/>
<line x1="327.72727272727275" y1="372.1428797100768" x2="353.3636363636364" y2="372.1428797100768" stroke="#000"/>
<line x1="340.5454545454546" y1="340.8093072982233" x2="340.5454545454546" y2="372.1428797100768" stroke="#000"/>
<rect x="353.3636363636364" y="262.49631673334596" width="25.636363636363637" height="235.50368326665398" fill="orange" data-tooltip="1.66x baseline speed (YJIT)"/>
<line x1="353.3636363636364" y1="209.13637054228892" x2="379.0" y2="209.13637054228892" stroke="#000"/>
<line x1="353.3636363636364" y1="315.856262924403" x2="379.0" y2="315.856262924403" stroke="#000"/>
<line x1="366.18181818181824" y1="209.13637054228892" x2="366.18181818181824" y2="315.856262924403" stroke="#000"/>
<line x1="366.18181818181824" y1="498.0" x2="366.18181818181824" y2="502.79999999999995" stroke="#000"/>
<text x="366.18181818181824" y="512.4" fill="#111" font-size="small" font-family="monospace" font-weight="bold" text-anchor="end" transform="rotate(-60, 366.18181818181824, 512.4)">
erubi_rails
</text>
<rect x="404.6363636363637" y="356.47609350415" width="25.636363636363637" height="141.5239064958499" fill="#7070f8" data-tooltip="1.00x baseline speed (No JIT)"/>
<line x1="404.6363636363637" y1="353.9912584474126" x2="430.2727272727273" y2="353.9912584474126" stroke="#000"/>
<line x1="404.6363636363637" y1="358.9609285608875" x2="430.2727272727273" y2="358.9609285608875" stroke="#000"/>
<line x1="417.4545454545455" y1="353.9912584474126" x2="417.4545454545455" y2="358.9609285608875" stroke="#000"/>
<rect x="430.2727272727273" y="357.2027631110209" width="25.636363636363637" height="140.7972368889791" fill="orange" data-tooltip="0.99x baseline speed (YJIT)"/>
<line x1="430.2727272727273" y1="354.7293281391676" x2="455.90909090909093" y2="354.7293281391676" stroke="#000"/>
<line x1="430.2727272727273" y1="359.6761980828742" x2="455.90909090909093" y2="359.6761980828742" stroke="#000"/>
<line x1="443.0909090909091" y1="354.7293281391676" x2="443.0909090909091" y2="359.6761980828742" stroke="#000"/>
<line x1="443.0909090909091" y1="498.0" x2="443.0909090909091" y2="502.79999999999995" stroke="#000"/>
<text x="443.0909090909091" y="512.4" fill="#111" font-size="small" font-family="monospace" font-weight="bold" text-anchor="end" transform="rotate(-60, 443.0909090909091, 512.4)">
etanni
</text>
<rect x="481.5454545454546" y="356.47609350415" width="25.636363636363637" height="141.5239064958499" fill="#7070f8" data-tooltip="1.00x baseline speed (No JIT)"/>
<line x1="481.5454545454546" y1="356.3107724208982" x2="507.1818181818183" y2="356.3107724208982" stroke="#000"/>
<line x1="481.5454545454546" y1="356.6414145874018" x2="507.1818181818183" y2="356.6414145874018" stroke="#000"/>
<line x1="494.36363636363643" y1="356.3107724208982" x2="494.36363636363643" y2="356.6414145874018" stroke="#000"/>
<rect x="507.1818181818183" y="108.84845118792245" width="25.636363636363637" height="389.1515488120775" fill="orange" data-tooltip="2.75x baseline speed (YJIT)"/>
<line x1="507.1818181818183" y1="108.30165358455658" x2="532.818181818182" y2="108.30165358455658" stroke="#000"/>
<line x1="507.1818181818183" y1="109.39524879128831" x2="532.818181818182" y2="109.39524879128831" stroke="#000"/>
<line x1="520.0000000000001" y1="108.30165358455658" x2="520.0000000000001" y2="109.39524879128831" stroke="#000"/>
<line x1="520.0" y1="498.0" x2="520.0" y2="502.79999999999995" stroke="#000"/>
<text x="520.0" y="512.4" fill="#111" font-size="small" font-family="monospace" font-weight="bold" text-anchor="end" transform="rotate(-60, 520.0, 512.4)">
fannkuchredux
</text>
<rect x="558.4545454545454" y="356.47609350415" width="25.636363636363637" height="141.5239064958499" fill="#7070f8" data-tooltip="1.00x baseline speed (No JIT)"/>
<line x1="558.4545454545454" y1="355.9984388860446" x2="584.0909090909091" y2="355.9984388860446" stroke="#000"/>
<line x1="558.4545454545454" y1="356.9537481222555" x2="584.0909090909091" y2="356.9537481222555" stroke="#000"/>
<line x1="571.2727272727273" y1="355.9984388860446" x2="571.2727272727273" y2="356.9537481222555" stroke="#000"/>
<rect x="584.0909090909091" y="299.1767903797032" width="25.636363636363637" height="198.82320962029675" fill="orange" data-tooltip="1.40x baseline speed (YJIT)"/>
<line x1="584.0909090909091" y1="298.126368785865" x2="609.7272727272727" y2="298.126368785865" stroke="#000"/>
<line x1="584.0909090909091" y1="300.2272119735414" x2="609.7272727272727" y2="300.2272119735414" stroke="#000"/>
<line x1="596.909090909091" y1="298.126368785865" x2="596.909090909091" y2="300.2272119735414" stroke="#000"/>
<line x1="596.9090909090909" y1="498.0" x2="596.9090909090909" y2="502.79999999999995" stroke="#000"/>
<text x="596.9090909090909" y="512.4" fill="#111" font-size="small" font-family="monospace" font-weight="bold" text-anchor="end" transform="rotate(-60, 596.9090909090909, 512.4)">
lee
</text>
<rect x="635.3636363636364" y="356.47609350415" width="25.636363636363637" height="141.5239064958499" fill="#7070f8" data-tooltip="1.00x baseline speed (No JIT)"/>
<line x1="635.3636363636364" y1="356.38131864445995" x2="661.0" y2="356.38131864445995" stroke="#000"/>
<line x1="635.3636363636364" y1="356.57086836384013" x2="661.0" y2="356.57086836384013" stroke="#000"/>
<line x1="648.1818181818182" y1="356.38131864445995" x2="648.1818181818182" y2="356.57086836384013" stroke="#000"/>
<rect x="661.0" y="234.46506086458416" width="25.636363636363637" height="263.53493913541575" fill="orange" data-tooltip="1.86x baseline speed (YJIT)"/>
<line x1="661.0" y1="234.21601023984513" x2="686.6363636363637" y2="234.21601023984513" stroke="#000"/>
<line x1="661.0" y1="234.7141114893232" x2="686.6363636363637" y2="234.7141114893232" stroke="#000"/>
<line x1="673.8181818181819" y1="234.21601023984513" x2="673.8181818181819" y2="234.7141114893232" stroke="#000"/>
<line x1="673.8181818181818" y1="498.0" x2="673.8181818181818" y2="502.79999999999995" stroke="#000"/>
<text x="673.8181818181818" y="512.4" fill="#111" font-size="small" font-family="monospace" font-weight="bold" text-anchor="end" transform="rotate(-60, 673.8181818181818, 512.4)">
nbody
</text>
<rect x="712.2727272727273" y="356.47609350415" width="25.636363636363637" height="141.5239064958499" fill="#7070f8" data-tooltip="1.00x baseline speed (No JIT)"/>
<line x1="712.2727272727273" y1="355.5510391573755" x2="737.909090909091" y2="355.5510391573755" stroke="#000"/>
<line x1="712.2727272727273" y1="357.4011478509246" x2="737.909090909091" y2="357.4011478509246" stroke="#000"/>
<line x1="725.0909090909091" y1="355.5510391573755" x2="725.0909090909091" y2="357.4011478509246" stroke="#000"/>
<rect x="737.909090909091" y="100.19999999999999" width="25.636363636363637" height="397.79999999999995" fill="orange" data-tooltip="2.81x baseline speed (YJIT)"/>
<line x1="737.909090909091" y1="96.62508153443605" x2="763.5454545454546" y2="96.62508153443605" stroke="#000"/>
<line x1="737.909090909091" y1="103.77491846556393" x2="763.5454545454546" y2="103.77491846556393" stroke="#000"/>
<line x1="750.7272727272727" y1="96.62508153443605" x2="750.7272727272727" y2="103.77491846556393" stroke="#000"/>
<line x1="750.7272727272726" y1="498.0" x2="750.7272727272726" y2="502.79999999999995" stroke="#000"/>
<text x="750.7272727272726" y="512.4" fill="#111" font-size="small" font-family="monospace" font-weight="bold" text-anchor="end" transform="rotate(-60, 750.7272727272726, 512.4)">
optcarrot
</text>
<rect x="789.1818181818182" y="356.47609350415" width="25.636363636363637" height="141.5239064958499" fill="#7070f8" data-tooltip="1.00x baseline speed (No JIT)"/>
<line x1="789.1818181818182" y1="356.3353415262438" x2="814.8181818181819" y2="356.3353415262438" stroke="#000"/>
<line x1="789.1818181818182" y1="356.6168454820563" x2="814.8181818181819" y2="356.6168454820563" stroke="#000"/>
<line x1="802.0" y1="356.3353415262438" x2="802.0" y2="356.6168454820563" stroke="#000"/>
<rect x="814.8181818181819" y="335.4282639891977" width="25.636363636363637" height="162.5717360108022" fill="orange" data-tooltip="1.15x baseline speed (YJIT)"/>
<line x1="814.8181818181819" y1="335.22228818568465" x2="840.4545454545456" y2="335.22228818568465" stroke="#000"/>
<line x1="814.8181818181819" y1="335.6342397927108" x2="840.4545454545456" y2="335.6342397927108" stroke="#000"/>
<line x1="827.6363636363637" y1="335.22228818568465" x2="827.6363636363637" y2="335.6342397927108" stroke="#000"/>
<line x1="827.6363636363636" y1="498.0" x2="827.6363636363636" y2="502.79999999999995" stroke="#000"/>
<text x="827.6363636363636" y="512.4" fill="#111" font-size="small" font-family="monospace" font-weight="bold" text-anchor="end" transform="rotate(-60, 827.6363636363636, 512.4)">
ruby-json
</text>
<rect x="866.0909090909091" y="356.47609350415" width="25.636363636363637" height="141.5239064958499" fill="#7070f8" data-tooltip="1.00x baseline speed (No JIT)"/>
<line x1="866.0909090909091" y1="355.7866699493125" x2="891.7272727272729" y2="355.7866699493125" stroke="#000"/>
<line x1="866.0909090909091" y1="357.1655170589876" x2="891.7272727272729" y2="357.1655170589876" stroke="#000"/>
<line x1="878.909090909091" y1="355.7866699493125" x2="878.909090909091" y2="357.1655170589876" stroke="#000"/>
<rect x="891.7272727272729" y="229.7795549389067" width="25.636363636363637" height="268.22044506109324" fill="orange" data-tooltip="1.90x baseline speed (YJIT)"/>
<line x1="891.7272727272729" y1="228.00261542137102" x2="917.3636363636365" y2="228.00261542137102" stroke="#000"/>
<line x1="891.7272727272729" y1="231.55649445644238" x2="917.3636363636365" y2="231.55649445644238" stroke="#000"/>
<line x1="904.5454545454546" y1="228.00261542137102" x2="904.5454545454546" y2="231.55649445644238" stroke="#000"/>
<line x1="904.5454545454545" y1="498.0" x2="904.5454545454545" y2="502.79999999999995" stroke="#000"/>
<text x="904.5454545454545" y="512.4" fill="#111" font-size="small" font-family="monospace" font-weight="bold" text-anchor="end" transform="rotate(-60, 904.5454545454545, 512.4)">
rubykon
</text>
</svg>