<svg viewBox="0 0 1000 600" xmlns="http://www.w3.org/2000/svg" xmlns:xlink="http://www.w3.org/1999/xlink" width="100%" height="100%">

<rect x="50.0" y="30.0" width="940.0" height="467.99999999999994" stroke="#000" fill="#fff"/>
<line x1="42.0" y1="497.9999999999999" x2="50.0" y2="497.9999999999999" stroke="#000"/>
<text x="26.000000000000004" y="497.9999999999999" text-anchor="end" font-weight="bold" font-size="small" fill="#111">
0.0
</text>
<line x1="42.0" y1="420.4879814631923" x2="50.0" y2="420.4879814631923" stroke="#000"/>
<text x="26.000000000000004" y="420.4879814631923" text-anchor="end" font-weight="bold" font-size="small" fill="#111">
0.5
</text>
<line x1="42.0" y1="342.9759629263845" x2="50.0" y2="342.9759629263845" stroke="#000"/>
<text x="26.000000000000004" y="342.9759629263845" text-anchor="end" font-weight="bold" font-size="small" fill="#111">
1.0
</text>
<line x1="42.0" y1="265.46394438957685" x2="50.0" y2="265.46394438957685" stroke="#000"/>
<text x="26.000000000000004" y="265.46394438957685" text-anchor="end" font-weight="bold" font-size="small" fill="#111">
1.5
</text>
<line x1="42.0" y1="187.9519258527691" x2="50.0" y2="187.9519258527691" stroke="#000"/>
<text x="26.000000000000004" y="187.9519258527691" text-anchor="end" font-weight="bold" font-size="small" fill="#111">
2.0
</text>
<line x1="42.0" y1="110.43990731596143" x2="50.0" y2="110.43990731596143" stroke="#000"/>
<text x="26.000000000000004" y="110.43990731596143" text-anchor="end" font-weight="bold" font-size="small" fill="#111">
2.5
</text>
<line x1="142.75" y1="54.60000000000001" x2="262.75" y2="54.60000000000001" stroke="#648FFF" stroke-width="2"/>
<text x="202.75" y="49.500000000000014" font-size="small" text-anchor="middle" font-weight="bold" fill="#000">
CRuby 3.3.4
</text>
<rect x="354.25" y="35.400000000000006" width="120.0" height="19.2" fill="#785EF0" stroke="none"/>
<text x="414.25" y="49.500000000000014" font-size="small" text-anchor="middle" font-weight="bold" fill="#fff" style="text-shadow: 0 0 1px #000;">
CRuby 3.4.0dev
</text>
<rect x="565.75" y="35.400000000000006" width="120.0" height="19.2" fill="#FFB000" stroke="none"/>
<text x="625.7499999999999" y="49.500000000000014" font-size="small" text-anchor="middle" font-weight="bold" fill="#fff" style="text-shadow: 0 0 1px #000;">
YJIT 3.3.4
</text>
<rect x="777.25" y="35.400000000000006" width="120.0" height="19.2" fill="#DC267F" stroke="none"/>
<text x="837.2499999999999" y="49.500000000000014" font-size="small" text-anchor="middle" font-weight="bold" fill="#fff" style="text-shadow: 0 0 1px #000;">
YJIT 3.4.0dev
</text>
<rect x="65.40983606557377" y="120.94173060852394" width="15.40983606557377" height="377.058269391476" fill="#785EF0" data-tooltip="2.43x baseline (CRuby 3.4.0dev)"/>
<rect x="80.81967213114753" y="262.56775810985334" width="15.40983606557377" height="235.4322418901466" fill="#FFB000" data-tooltip="1.52x baseline (YJIT 3.3.4)"/>
<rect x="96.2295081967213" y="100.19999999999999" width="15.40983606557377" height="397.79999999999995" fill="#DC267F" data-tooltip="2.57x baseline (YJIT 3.4.0dev)"/>
<line x1="88.5245901639344" y1="498.0" x2="88.5245901639344" y2="502.79999999999995" stroke="#000"/>
<text x="88.5245901639344" y="512.4" fill="#111" font-size="small" text-anchor="end" transform="rotate(-60, 88.5245901639344, 512.4)">
30k_ifelse
</text>
<rect x="127.04918032786883" y="206.08403742508048" width="15.40983606557377" height="291.91596257491943" fill="#785EF0" data-tooltip="1.88x baseline (CRuby 3.4.0dev)"/>
<rect x="142.4590163934426" y="312.7925561035106" width="15.40983606557377" height="185.2074438964894" fill="#FFB000" data-tooltip="1.19x baseline (YJIT 3.3.4)"/>
<rect x="157.86885245901638" y="195.03803842125862" width="15.40983606557377" height="302.9619615787413" fill="#DC267F" data-tooltip="1.95x baseline (YJIT 3.4.0dev)"/>
<line x1="150.1639344262295" y1="498.0" x2="150.1639344262295" y2="502.79999999999995" stroke="#000"/>
<text x="150.1639344262295" y="512.4" fill="#111" font-size="small" text-anchor="end" transform="rotate(-60, 150.1639344262295, 512.4)">
30k_methods
</text>
<rect x="188.68852459016395" y="334.71588102712434" width="15.40983606557377" height="163.28411897287558" fill="#785EF0" data-tooltip="1.05x baseline (CRuby 3.4.0dev)"/>
<rect x="204.0983606557377" y="340.52743864910383" width="15.40983606557377" height="157.4725613508961" fill="#FFB000" data-tooltip="1.02x baseline (YJIT 3.3.4)"/>
<rect x="219.5081967213115" y="331.23484651243615" width="15.40983606557377" height="166.76515348756382" fill="#DC267F" data-tooltip="1.08x baseline (YJIT 3.4.0dev)"/>
<line x1="211.8032786885246" y1="498.0" x2="211.8032786885246" y2="502.79999999999995" stroke="#000"/>
<text x="211.8032786885246" y="512.4" fill="#111" font-size="small" text-anchor="end" transform="rotate(-60, 211.8032786885246, 512.4)">
cfunc_itself
</text>
<rect x="250.32786885245906" y="334.59868538354834" width="15.40983606557377" height="163.40131461645163" fill="#785EF0" data-tooltip="1.05x baseline (CRuby 3.4.0dev)"/>
<rect x="265.7377049180328" y="340.28220937020757" width="15.40983606557377" height="157.71779062979243" fill="#FFB000" data-tooltip="1.02x baseline (YJIT 3.3.4)"/>
<rect x="281.14754098360663" y="330.6320592678591" width="15.40983606557377" height="167.36794073214082" fill="#DC267F" data-tooltip="1.08x baseline (YJIT 3.4.0dev)"/>
<line x1="273.4426229508197" y1="498.0" x2="273.4426229508197" y2="502.79999999999995" stroke="#000"/>
<text x="273.4426229508197" y="512.4" fill="#111" font-size="small" text-anchor="end" transform="rotate(-60, 273.4426229508197, 512.4)">
fib
</text>
<rect x="311.96721311475414" y="334.6537130777724" width="15.40983606557377" height="163.34628692222753" fill="#785EF0" data-tooltip="1.05x baseline (CRuby 3.4.0dev)"/>
<rect x="327.37704918032796" y="340.52650641065827" width="15.40983606557377" height="157.4734935893417" fill="#FFB000" data-tooltip="1.02x baseline (YJIT 3.3.4)"/>
<rect x="342.7868852459017" y="331.171353212041" width="15.40983606557377" height="166.82864678795886" fill="#DC267F" data-tooltip="1.08x baseline (YJIT 3.4.0dev)"/>
<line x1="335.08196721311486" y1="498.0" x2="335.08196721311486" y2="502.79999999999995" stroke="#000"/>
<text x="335.08196721311486" y="512.4" fill="#111" font-size="small" text-anchor="end" transform="rotate(-60, 335.08196721311486, 512.4)">
getivar
</text>
<rect x="373.6065573770493" y="334.6594767832601" width="15.40983606557377" height="163.3405232167399" fill="#785EF0" data-tooltip="1.05x baseline (CRuby 3.4.0dev)"/>
<rect x="389.01639344262304" y="340.01635931673167" width="15.40983606557377" height="157.98364068326825" fill="#FFB000" data-tooltip="1.02x baseline (YJIT 3.3.4)"/>
<rect x="404.42622950819685" y="330.6936079463253" width="15.40983606557377" height="167.3063920536747" fill="#DC267F" data-tooltip="1.08x baseline (YJIT 3.4.0dev)"/>
<line x1="396.72131147540995" y1="498.0" x2="396.72131147540995" y2="502.79999999999995" stroke="#000"/>
<text x="396.72131147540995" y="512.4" fill="#111" font-size="small" text-anchor="end" transform="rotate(-60, 396.72131147540995, 512.4)">
keyword_args
</text>
<rect x="435.2459016393444" y="335.20423197206975" width="15.40983606557377" height="162.79576802793022" fill="#785EF0" data-tooltip="1.05x baseline (CRuby 3.4.0dev)"/>
<rect x="450.6557377049182" y="341.50959859538176" width="15.40983606557377" height="156.49040140461818" fill="#FFB000" data-tooltip="1.01x baseline (YJIT 3.3.4)"/>
<rect x="466.06557377049194" y="332.212848736824" width="15.40983606557377" height="165.7871512631759" fill="#DC267F" data-tooltip="1.07x baseline (YJIT 3.4.0dev)"/>
<line x1="458.3606557377051" y1="498.0" x2="458.3606557377051" y2="502.79999999999995" stroke="#000"/>
<text x="458.3606557377051" y="512.4" fill="#111" font-size="small" text-anchor="end" transform="rotate(-60, 458.3606557377051, 512.4)">
object-new
</text>
<rect x="496.8852459016395" y="334.49854904434744" width="15.40983606557377" height="163.5014509556525" fill="#785EF0" data-tooltip="1.05x baseline (CRuby 3.4.0dev)"/>
<rect x="512.2950819672133" y="339.7450604328809" width="15.40983606557377" height="158.25493956711907" fill="#FFB000" data-tooltip="1.02x baseline (YJIT 3.3.4)"/>
<rect x="527.7049180327871" y="330.52661386884756" width="15.40983606557377" height="167.4733861311524" fill="#DC267F" data-tooltip="1.08x baseline (YJIT 3.4.0dev)"/>
<line x1="520.0000000000002" y1="498.0" x2="520.0000000000002" y2="502.79999999999995" stroke="#000"/>
<text x="520.0000000000002" y="512.4" fill="#111" font-size="small" text-anchor="end" transform="rotate(-60, 520.0000000000002, 512.4)">
respond_to
</text>
<rect x="558.5245901639346" y="334.64405213904035" width="15.40983606557377" height="163.35594786095956" fill="#785EF0" data-tooltip="1.05x baseline (CRuby 3.4.0dev)"/>
<rect x="573.9344262295084" y="341.5732843426565" width="15.40983606557377" height="156.42671565734338" fill="#FFB000" data-tooltip="1.01x baseline (YJIT 3.3.4)"/>
<rect x="589.3442622950822" y="331.75453425656076" width="15.40983606557377" height="166.24546574343918" fill="#DC267F" data-tooltip="1.07x baseline (YJIT 3.4.0dev)"/>
<line x1="581.6393442622954" y1="498.0" x2="581.6393442622954" y2="502.79999999999995" stroke="#000"/>
<text x="581.6393442622954" y="512.4" fill="#111" font-size="small" text-anchor="end" transform="rotate(-60, 581.6393442622954, 512.4)">
ruby-xor
</text>
<rect x="620.1639344262297" y="334.74095431689636" width="15.40983606557377" height="163.2590456831036" fill="#785EF0" data-tooltip="1.05x baseline (CRuby 3.4.0dev)"/>
<rect x="635.5737704918035" y="341.06426449918195" width="15.40983606557377" height="156.93573550081805" fill="#FFB000" data-tooltip="1.01x baseline (YJIT 3.3.4)"/>
<rect x="650.9836065573774" y="331.5351831082027" width="15.40983606557377" height="166.46481689179723" fill="#DC267F" data-tooltip="1.07x baseline (YJIT 3.4.0dev)"/>
<line x1="643.2786885245905" y1="498.0" x2="643.2786885245905" y2="502.79999999999995" stroke="#000"/>
<text x="643.2786885245905" y="512.4" fill="#111" font-size="small" text-anchor="end" transform="rotate(-60, 643.2786885245905, 512.4)">
setivar
</text>
<rect x="681.8032786885249" y="334.62261134758916" width="15.40983606557377" height="163.37738865241076" fill="#785EF0" data-tooltip="1.05x baseline (CRuby 3.4.0dev)"/>
<rect x="697.2131147540987" y="340.43748859501915" width="15.40983606557377" height="157.56251140498077" fill="#FFB000" data-tooltip="1.02x baseline (YJIT 3.3.4)"/>
<rect x="712.6229508196724" y="331.13958842780875" width="15.40983606557377" height="166.86041157219117" fill="#DC267F" data-tooltip="1.08x baseline (YJIT 3.4.0dev)"/>
<line x1="704.9180327868855" y1="498.0" x2="704.9180327868855" y2="502.79999999999995" stroke="#000"/>
<text x="704.9180327868855" y="512.4" fill="#111" font-size="small" text-anchor="end" transform="rotate(-60, 704.9180327868855, 512.4)">
setivar_object
</text>
<rect x="743.44262295082" y="334.6537130777724" width="15.40983606557377" height="163.34628692222753" fill="#785EF0" data-tooltip="1.05x baseline (CRuby 3.4.0dev)"/>
<rect x="758.8524590163937" y="340.52650641065827" width="15.40983606557377" height="157.4734935893417" fill="#FFB000" data-tooltip="1.02x baseline (YJIT 3.3.4)"/>
<rect x="774.2622950819675" y="331.171353212041" width="15.40983606557377" height="166.82864678795886" fill="#DC267F" data-tooltip="1.08x baseline (YJIT 3.4.0dev)"/>
<line x1="766.5573770491807" y1="498.0" x2="766.5573770491807" y2="502.79999999999995" stroke="#000"/>
<text x="766.5573770491807" y="512.4" fill="#111" font-size="small" text-anchor="end" transform="rotate(-60, 766.5573770491807, 512.4)">
setivar_young
</text>
<rect x="805.081967213115" y="339.65188607816896" width="15.40983606557377" height="158.34811392183096" fill="#785EF0" data-tooltip="1.02x baseline (CRuby 3.4.0dev)"/>
<rect x="820.4918032786888" y="299.81490260033564" width="15.40983606557377" height="198.18509739966433" fill="#FFB000" data-tooltip="1.28x baseline (YJIT 3.3.4)"/>
<rect x="835.9016393442627" y="337.1198744164423" width="15.40983606557377" height="160.88012558355766" fill="#DC267F" data-tooltip="1.04x baseline (YJIT 3.4.0dev)"/>
<line x1="828.1967213114758" y1="498.0" x2="828.1967213114758" y2="502.79999999999995" stroke="#000"/>
<text x="828.1967213114758" y="512.4" fill="#111" font-size="small" text-anchor="end" transform="rotate(-60, 828.1967213114758, 512.4)">
str_concat
</text>
<rect x="866.7213114754102" y="335.142613589016" width="15.40983606557377" height="162.85738641098393" fill="#785EF0" data-tooltip="1.05x baseline (CRuby 3.4.0dev)"/>
<rect x="882.131147540984" y="341.45036680075475" width="15.40983606557377" height="156.54963319924525" fill="#FFB000" data-tooltip="1.01x baseline (YJIT 3.3.4)"/>
<rect x="897.5409836065578" y="332.2087748858817" width="15.40983606557377" height="165.79122511411825" fill="#DC267F" data-tooltip="1.07x baseline (YJIT 3.4.0dev)"/>
<line x1="889.836065573771" y1="498.0" x2="889.836065573771" y2="502.79999999999995" stroke="#000"/>
<text x="889.836065573771" y="512.4" fill="#111" font-size="small" text-anchor="end" transform="rotate(-60, 889.836065573771, 512.4)">
throw
</text>
<rect x="928.3606557377053" y="317.7288408837192" width="15.40983606557377" height="180.2711591162807" fill="#785EF0" data-tooltip="1.16x baseline (CRuby 3.4.0dev)"/>
<rect x="943.7704918032791" y="331.475588881593" width="15.40983606557377" height="166.52441111840696" fill="#FFB000" data-tooltip="1.07x baseline (YJIT 3.3.4)"/>
<rect x="959.1803278688528" y="313.35060532789333" width="15.40983606557377" height="184.64939467210658" fill="#DC267F" data-tooltip="1.19x baseline (YJIT 3.4.0dev)"/>
<line x1="951.4754098360661" y1="498.0" x2="951.4754098360661" y2="502.79999999999995" stroke="#000"/>
<text x="951.4754098360661" y="512.4" fill="#111" font-size="small" text-anchor="end" transform="rotate(-60, 951.4754098360661, 512.4)" font-style="italic">
geomean*
</text>
<line x1="50.0" y1="342.9759629263845" x2="990.0" y2="342.9759629263845" stroke="#648FFF" stroke-width="2"/>
<rect x="67.23483606557377" y="106.78173060852393" width="17.85" height="7.2" transform="rotate(-60, 75.11475409836066, 113.44173060852393)" fill="#fffa"/>
<text x="67.40983606557377" y="113.44173060852393" fill="#111" font-size="0.5em" text-anchor="start" textLength="17.5" transform="rotate(-60, 75.11475409836066, 113.44173060852393)" style="text-shadow: 0 0 1px #fff;">
2.43
</text>
<rect x="82.64467213114754" y="248.40775810985332" width="17.85" height="7.2" transform="rotate(-60, 90.52459016393442, 255.06775810985332)" fill="#fffa"/>
<text x="82.81967213114753" y="255.06775810985332" fill="#111" font-size="0.5em" text-anchor="start" textLength="17.5" transform="rotate(-60, 90.52459016393442, 255.06775810985332)" style="text-shadow: 0 0 1px #fff;">
1.52
</text>
<rect x="98.0545081967213" y="86.03999999999998" width="17.85" height="7.2" transform="rotate(-60, 105.93442622950819, 92.69999999999999)" fill="#fffa"/>
<text x="98.2295081967213" y="92.69999999999999" fill="#111" font-size="0.5em" text-anchor="start" textLength="17.5" transform="rotate(-60, 105.93442622950819, 92.69999999999999)" style="text-shadow: 0 0 1px #fff;">
2.57
</text>
<rect x="128.87418032786883" y="191.92403742508048" width="17.85" height="7.2" transform="rotate(-60, 136.75409836065572, 198.58403742508048)" fill="#fffa"/>
<text x="129.04918032786884" y="198.58403742508048" fill="#111" font-size="0.5em" text-anchor="start" textLength="17.5" transform="rotate(-60, 136.75409836065572, 198.58403742508048)" style="text-shadow: 0 0 1px #fff;">
1.88
</text>
<rect x="144.2840163934426" y="298.6325561035106" width="17.85" height="7.2" transform="rotate(-60, 152.1639344262295, 305.2925561035106)" fill="#fffa"/>
<text x="144.4590163934426" y="305.2925561035106" fill="#111" font-size="0.5em" text-anchor="start" textLength="17.5" transform="rotate(-60, 152.1639344262295, 305.2925561035106)" style="text-shadow: 0 0 1px #fff;">
1.19
</text>
<rect x="159.69385245901637" y="180.87803842125862" width="17.85" height="7.2" transform="rotate(-60, 167.5737704918033, 187.53803842125862)" fill="#fffa"/>
<text x="159.86885245901638" y="187.53803842125862" fill="#111" font-size="0.5em" text-anchor="start" textLength="17.5" transform="rotate(-60, 167.5737704918033, 187.53803842125862)" style="text-shadow: 0 0 1px #fff;">
1.95
</text>
<rect x="190.51352459016394" y="320.55588102712437" width="17.85" height="7.2" transform="rotate(-60, 198.39344262295083, 327.21588102712434)" fill="#fffa"/>
<text x="190.68852459016395" y="327.21588102712434" fill="#111" font-size="0.5em" text-anchor="start" textLength="17.5" transform="rotate(-60, 198.39344262295083, 327.21588102712434)" style="text-shadow: 0 0 1px #fff;">
1.05
</text>
<rect x="205.92336065573772" y="326.36743864910386" width="17.85" height="7.2" transform="rotate(-60, 213.8032786885246, 333.02743864910383)" fill="#fffa"/>
<text x="206.09836065573774" y="333.02743864910383" fill="#111" font-size="0.5em" text-anchor="start" textLength="17.5" transform="rotate(-60, 213.8032786885246, 333.02743864910383)" style="text-shadow: 0 0 1px #fff;">
1.02
</text>
<rect x="221.33319672131148" y="317.0748465124362" width="17.85" height="7.2" transform="rotate(-60, 229.2131147540984, 323.73484651243615)" fill="#fffa"/>
<text x="221.5081967213115" y="323.73484651243615" fill="#111" font-size="0.5em" text-anchor="start" textLength="17.5" transform="rotate(-60, 229.2131147540984, 323.73484651243615)" style="text-shadow: 0 0 1px #fff;">
1.08
</text>
<rect x="252.15286885245908" y="320.4386853835484" width="17.85" height="7.2" transform="rotate(-60, 260.03278688524597, 327.0986853835484)" fill="#fffa"/>
<text x="252.32786885245906" y="327.0986853835484" fill="#111" font-size="0.5em" text-anchor="start" textLength="17.5" transform="rotate(-60, 260.03278688524597, 327.0986853835484)" style="text-shadow: 0 0 1px #fff;">
1.05
</text>
<rect x="267.56270491803286" y="326.1222093702076" width="17.85" height="7.2" transform="rotate(-60, 275.4426229508197, 332.78220937020757)" fill="#fffa"/>
<text x="267.7377049180328" y="332.78220937020757" fill="#111" font-size="0.5em" text-anchor="start" textLength="17.5" transform="rotate(-60, 275.4426229508197, 332.78220937020757)" style="text-shadow: 0 0 1px #fff;">
1.02
</text>
<rect x="282.9725409836066" y="316.47205926785915" width="17.85" height="7.2" transform="rotate(-60, 290.8524590163935, 323.1320592678592)" fill="#fffa"/>
<text x="283.14754098360663" y="323.1320592678592" fill="#111" font-size="0.5em" text-anchor="start" textLength="17.5" transform="rotate(-60, 290.8524590163935, 323.1320592678592)" style="text-shadow: 0 0 1px #fff;">
1.08
</text>
<rect x="313.7922131147542" y="320.49371307777244" width="17.85" height="7.2" transform="rotate(-60, 321.67213114754105, 327.15371307777247)" fill="#fffa"/>
<text x="313.96721311475414" y="327.15371307777247" fill="#111" font-size="0.5em" text-anchor="start" textLength="17.5" transform="rotate(-60, 321.67213114754105, 327.15371307777247)" style="text-shadow: 0 0 1px #fff;">
1.05
</text>
<rect x="329.20204918032795" y="326.3665064106583" width="17.85" height="7.2" transform="rotate(-60, 337.08196721311486, 333.02650641065827)" fill="#fffa"/>
<text x="329.37704918032796" y="333.02650641065827" fill="#111" font-size="0.5em" text-anchor="start" textLength="17.5" transform="rotate(-60, 337.08196721311486, 333.02650641065827)" style="text-shadow: 0 0 1px #fff;">
1.02
</text>
<rect x="344.61188524590176" y="317.01135321204106" width="17.85" height="7.2" transform="rotate(-60, 352.4918032786886, 323.6713532120411)" fill="#fffa"/>
<text x="344.7868852459017" y="323.6713532120411" fill="#111" font-size="0.5em" text-anchor="start" textLength="17.5" transform="rotate(-60, 352.4918032786886, 323.6713532120411)" style="text-shadow: 0 0 1px #fff;">
1.08
</text>
<rect x="375.43155737704933" y="320.49947678326015" width="17.85" height="7.2" transform="rotate(-60, 383.3114754098362, 327.1594767832601)" fill="#fffa"/>
<text x="375.6065573770493" y="327.1594767832601" fill="#111" font-size="0.5em" text-anchor="start" textLength="17.5" transform="rotate(-60, 383.3114754098362, 327.1594767832601)" style="text-shadow: 0 0 1px #fff;">
1.05
</text>
<rect x="390.8413934426231" y="325.8563593167317" width="17.85" height="7.2" transform="rotate(-60, 398.72131147540995, 332.51635931673167)" fill="#fffa"/>
<text x="391.01639344262304" y="332.51635931673167" fill="#111" font-size="0.5em" text-anchor="start" textLength="17.5" transform="rotate(-60, 398.72131147540995, 332.51635931673167)" style="text-shadow: 0 0 1px #fff;">
1.02
</text>
<rect x="406.25122950819684" y="316.53360794632533" width="17.85" height="7.2" transform="rotate(-60, 414.13114754098376, 323.19360794632536)" fill="#fffa"/>
<text x="406.42622950819685" y="323.19360794632536" fill="#111" font-size="0.5em" text-anchor="start" textLength="17.5" transform="rotate(-60, 414.13114754098376, 323.19360794632536)" style="text-shadow: 0 0 1px #fff;">
1.08
</text>
<rect x="437.0709016393444" y="321.0442319720698" width="17.85" height="7.2" transform="rotate(-60, 444.9508196721313, 327.7042319720698)" fill="#fffa"/>
<text x="437.2459016393444" y="327.7042319720698" fill="#111" font-size="0.5em" text-anchor="start" textLength="17.5" transform="rotate(-60, 444.9508196721313, 327.7042319720698)" style="text-shadow: 0 0 1px #fff;">
1.05
</text>
<rect x="452.4807377049182" y="327.3495985953818" width="17.85" height="7.2" transform="rotate(-60, 460.3606557377051, 334.00959859538176)" fill="#fffa"/>
<text x="452.6557377049182" y="334.00959859538176" fill="#111" font-size="0.5em" text-anchor="start" textLength="17.5" transform="rotate(-60, 460.3606557377051, 334.00959859538176)" style="text-shadow: 0 0 1px #fff;">
1.01
</text>
<rect x="467.890573770492" y="318.05284873682405" width="17.85" height="7.2" transform="rotate(-60, 475.77049180327884, 324.71284873682407)" fill="#fffa"/>
<text x="468.06557377049194" y="324.71284873682407" fill="#111" font-size="0.5em" text-anchor="start" textLength="17.5" transform="rotate(-60, 475.77049180327884, 324.71284873682407)" style="text-shadow: 0 0 1px #fff;">
1.07
</text>
<rect x="498.71024590163955" y="320.3385490443475" width="17.85" height="7.2" transform="rotate(-60, 506.59016393442636, 326.99854904434744)" fill="#fffa"/>
<text x="498.8852459016395" y="326.99854904434744" fill="#111" font-size="0.5em" text-anchor="start" textLength="17.5" transform="rotate(-60, 506.59016393442636, 326.99854904434744)" style="text-shadow: 0 0 1px #fff;">
1.05
</text>
<rect x="514.1200819672133" y="325.58506043288094" width="17.85" height="7.2" transform="rotate(-60, 522.0000000000001, 332.2450604328809)" fill="#fffa"/>
<text x="514.2950819672133" y="332.2450604328809" fill="#111" font-size="0.5em" text-anchor="start" textLength="17.5" transform="rotate(-60, 522.0000000000001, 332.2450604328809)" style="text-shadow: 0 0 1px #fff;">
1.02
</text>
<rect x="529.529918032787" y="316.3666138688476" width="17.85" height="7.2" transform="rotate(-60, 537.4098360655739, 323.02661386884756)" fill="#fffa"/>
<text x="529.7049180327871" y="323.02661386884756" fill="#111" font-size="0.5em" text-anchor="start" textLength="17.5" transform="rotate(-60, 537.4098360655739, 323.02661386884756)" style="text-shadow: 0 0 1px #fff;">
1.08
</text>
<rect x="560.3495901639346" y="320.4840521390404" width="17.85" height="7.2" transform="rotate(-60, 568.2295081967214, 327.1440521390404)" fill="#fffa"/>
<text x="560.5245901639346" y="327.1440521390404" fill="#111" font-size="0.5em" text-anchor="start" textLength="17.5" transform="rotate(-60, 568.2295081967214, 327.1440521390404)" style="text-shadow: 0 0 1px #fff;">
1.05
</text>
<rect x="575.7594262295083" y="327.41328434265654" width="17.85" height="7.2" transform="rotate(-60, 583.6393442622953, 334.07328434265656)" fill="#fffa"/>
<text x="575.9344262295084" y="334.07328434265656" fill="#111" font-size="0.5em" text-anchor="start" textLength="17.5" transform="rotate(-60, 583.6393442622953, 334.07328434265656)" style="text-shadow: 0 0 1px #fff;">
1.01
</text>
<rect x="591.1692622950821" y="317.5945342565608" width="17.85" height="7.2" transform="rotate(-60, 599.0491803278691, 324.2545342565608)" fill="#fffa"/>
<text x="591.3442622950822" y="324.2545342565608" fill="#111" font-size="0.5em" text-anchor="start" textLength="17.5" transform="rotate(-60, 599.0491803278691, 324.2545342565608)" style="text-shadow: 0 0 1px #fff;">
1.07
</text>
<rect x="621.9889344262297" y="320.5809543168964" width="17.85" height="7.2" transform="rotate(-60, 629.8688524590166, 327.24095431689636)" fill="#fffa"/>
<text x="622.1639344262297" y="327.24095431689636" fill="#111" font-size="0.5em" text-anchor="start" textLength="17.5" transform="rotate(-60, 629.8688524590166, 327.24095431689636)" style="text-shadow: 0 0 1px #fff;">
1.05
</text>
<rect x="637.3987704918035" y="326.904264499182" width="17.85" height="7.2" transform="rotate(-60, 645.2786885245904, 333.56426449918195)" fill="#fffa"/>
<text x="637.5737704918035" y="333.56426449918195" fill="#111" font-size="0.5em" text-anchor="start" textLength="17.5" transform="rotate(-60, 645.2786885245904, 333.56426449918195)" style="text-shadow: 0 0 1px #fff;">
1.01
</text>
<rect x="652.8086065573773" y="317.3751831082027" width="17.85" height="7.2" transform="rotate(-60, 660.6885245901641, 324.0351831082027)" fill="#fffa"/>
<text x="652.9836065573774" y="324.0351831082027" fill="#111" font-size="0.5em" text-anchor="start" textLength="17.5" transform="rotate(-60, 660.6885245901641, 324.0351831082027)" style="text-shadow: 0 0 1px #fff;">
1.07
</text>
<rect x="683.6282786885248" y="320.4626113475892" width="17.85" height="7.2" transform="rotate(-60, 691.5081967213117, 327.12261134758916)" fill="#fffa"/>
<text x="683.8032786885249" y="327.12261134758916" fill="#111" font-size="0.5em" text-anchor="start" textLength="17.5" transform="rotate(-60, 691.5081967213117, 327.12261134758916)" style="text-shadow: 0 0 1px #fff;">
1.05
</text>
<rect x="699.0381147540986" y="326.2774885950192" width="17.85" height="7.2" transform="rotate(-60, 706.9180327868854, 332.9374885950192)" fill="#fffa"/>
<text x="699.2131147540987" y="332.9374885950192" fill="#111" font-size="0.5em" text-anchor="start" textLength="17.5" transform="rotate(-60, 706.9180327868854, 332.9374885950192)" style="text-shadow: 0 0 1px #fff;">
1.02
</text>
<rect x="714.4479508196724" y="316.9795884278088" width="17.85" height="7.2" transform="rotate(-60, 722.3278688524592, 323.6395884278088)" fill="#fffa"/>
<text x="714.6229508196724" y="323.6395884278088" fill="#111" font-size="0.5em" text-anchor="start" textLength="17.5" transform="rotate(-60, 722.3278688524592, 323.6395884278088)" style="text-shadow: 0 0 1px #fff;">
1.08
</text>
<rect x="745.2676229508199" y="320.49371307777244" width="17.85" height="7.2" transform="rotate(-60, 753.1475409836069, 327.15371307777247)" fill="#fffa"/>
<text x="745.44262295082" y="327.15371307777247" fill="#111" font-size="0.5em" text-anchor="start" textLength="17.5" transform="rotate(-60, 753.1475409836069, 327.15371307777247)" style="text-shadow: 0 0 1px #fff;">
1.05
</text>
<rect x="760.6774590163938" y="326.3665064106583" width="17.85" height="7.2" transform="rotate(-60, 768.5573770491806, 333.02650641065827)" fill="#fffa"/>
<text x="760.8524590163937" y="333.02650641065827" fill="#111" font-size="0.5em" text-anchor="start" textLength="17.5" transform="rotate(-60, 768.5573770491806, 333.02650641065827)" style="text-shadow: 0 0 1px #fff;">
1.02
</text>
<rect x="776.0872950819675" y="317.01135321204106" width="17.85" height="7.2" transform="rotate(-60, 783.9672131147544, 323.6713532120411)" fill="#fffa"/>
<text x="776.2622950819675" y="323.6713532120411" fill="#111" font-size="0.5em" text-anchor="start" textLength="17.5" transform="rotate(-60, 783.9672131147544, 323.6713532120411)" style="text-shadow: 0 0 1px #fff;">
1.08
</text>
<rect x="806.9069672131151" y="325.491886078169" width="17.85" height="7.2" transform="rotate(-60, 814.7868852459019, 332.15188607816896)" fill="#fffa"/>
<text x="807.0819672131151" y="332.15188607816896" fill="#111" font-size="0.5em" text-anchor="start" textLength="17.5" transform="rotate(-60, 814.7868852459019, 332.15188607816896)" style="text-shadow: 0 0 1px #fff;">
1.02
</text>
<rect x="822.3168032786888" y="285.6549026003357" width="17.85" height="7.2" transform="rotate(-60, 830.1967213114757, 292.31490260033564)" fill="#fffa"/>
<text x="822.4918032786888" y="292.31490260033564" fill="#111" font-size="0.5em" text-anchor="start" textLength="17.5" transform="rotate(-60, 830.1967213114757, 292.31490260033564)" style="text-shadow: 0 0 1px #fff;">
1.28
</text>
<rect x="837.7266393442626" y="322.9598744164423" width="17.85" height="7.2" transform="rotate(-60, 845.6065573770495, 329.6198744164423)" fill="#fffa"/>
<text x="837.9016393442627" y="329.6198744164423" fill="#111" font-size="0.5em" text-anchor="start" textLength="17.5" transform="rotate(-60, 845.6065573770495, 329.6198744164423)" style="text-shadow: 0 0 1px #fff;">
1.04
</text>
<rect x="868.5463114754102" y="320.982613589016" width="17.85" height="7.2" transform="rotate(-60, 876.426229508197, 327.64261358901604)" fill="#fffa"/>
<text x="868.7213114754102" y="327.64261358901604" fill="#111" font-size="0.5em" text-anchor="start" textLength="17.5" transform="rotate(-60, 876.426229508197, 327.64261358901604)" style="text-shadow: 0 0 1px #fff;">
1.05
</text>
<rect x="883.9561475409839" y="327.2903668007548" width="17.85" height="7.2" transform="rotate(-60, 891.8360655737708, 333.95036680075475)" fill="#fffa"/>
<text x="884.131147540984" y="333.95036680075475" fill="#111" font-size="0.5em" text-anchor="start" textLength="17.5" transform="rotate(-60, 891.8360655737708, 333.95036680075475)" style="text-shadow: 0 0 1px #fff;">
1.01
</text>
<rect x="899.3659836065577" y="318.0487748858817" width="17.85" height="7.2" transform="rotate(-60, 907.2459016393447, 324.7087748858817)" fill="#fffa"/>
<text x="899.5409836065578" y="324.7087748858817" fill="#111" font-size="0.5em" text-anchor="start" textLength="17.5" transform="rotate(-60, 907.2459016393447, 324.7087748858817)" style="text-shadow: 0 0 1px #fff;">
1.07
</text>
<rect x="930.1856557377052" y="303.56884088371925" width="17.85" height="7.2" transform="rotate(-60, 938.0655737704922, 310.2288408837193)" fill="#fffa"/>
<text x="930.3606557377053" y="310.2288408837193" fill="#111" font-size="0.5em" text-anchor="start" textLength="17.5" transform="rotate(-60, 938.0655737704922, 310.2288408837193)" style="text-shadow: 0 0 1px #fff;">
1.16
</text>
<rect x="945.5954918032791" y="317.315588881593" width="17.85" height="7.2" transform="rotate(-60, 953.475409836066, 323.975588881593)" fill="#fffa"/>
<text x="945.7704918032791" y="323.975588881593" fill="#111" font-size="0.5em" text-anchor="start" textLength="17.5" transform="rotate(-60, 953.475409836066, 323.975588881593)" style="text-shadow: 0 0 1px #fff;">
1.07
</text>
<rect x="961.0053278688529" y="299.19060532789337" width="17.85" height="7.2" transform="rotate(-60, 968.8852459016397, 305.8506053278934)" fill="#fffa"/>
<text x="961.1803278688528" y="305.8506053278934" fill="#111" font-size="0.5em" text-anchor="start" textLength="17.5" transform="rotate(-60, 968.8852459016397, 305.8506053278934)" style="text-shadow: 0 0 1px #fff;">
1.19
</text>
</svg>