<svg viewBox="0 0 1000 600" xmlns="http://www.w3.org/2000/svg" xmlns:xlink="http://www.w3.org/1999/xlink" width="100%" height="100%">

<rect x="50.0" y="30.0" width="940.0" height="467.99999999999994" stroke="#000" fill="#EEE"/>
<line x1="42.0" y1="497.9999999999999" x2="50.0" y2="497.9999999999999" stroke="#000"/>
<text x="26.000000000000004" y="497.9999999999999" text-anchor="end" font-weight="bold" font-size="small" fill="#111">
0.0
</text>
<line x1="42.0" y1="455.92213897029745" x2="50.0" y2="455.92213897029745" stroke="#000"/>
<text x="26.000000000000004" y="455.92213897029745" text-anchor="end" font-weight="bold" font-size="small" fill="#111">
0.2
</text>
<line x1="42.0" y1="413.8442779405948" x2="50.0" y2="413.8442779405948" stroke="#000"/>
<text x="26.000000000000004" y="413.8442779405948" text-anchor="end" font-weight="bold" font-size="small" fill="#111">
0.4
</text>
<line x1="42.0" y1="371.76641691089225" x2="50.0" y2="371.76641691089225" stroke="#000"/>
<text x="26.000000000000004" y="371.76641691089225" text-anchor="end" font-weight="bold" font-size="small" fill="#111">
0.6
</text>
<line x1="42.0" y1="329.6885558811898" x2="50.0" y2="329.6885558811898" stroke="#000"/>
<text x="26.000000000000004" y="329.6885558811898" text-anchor="end" font-weight="bold" font-size="small" fill="#111">
0.8
</text>
<line x1="42.0" y1="287.61069485148727" x2="50.0" y2="287.61069485148727" stroke="#000"/>
<text x="26.000000000000004" y="287.61069485148727" text-anchor="end" font-weight="bold" font-size="small" fill="#111">
1.0
</text>
<line x1="42.0" y1="245.5328338217847" x2="50.0" y2="245.5328338217847" stroke="#000"/>
<text x="26.000000000000004" y="245.5328338217847" text-anchor="end" font-weight="bold" font-size="small" fill="#111">
1.2
</text>
<line x1="42.0" y1="203.45497279208215" x2="50.0" y2="203.45497279208215" stroke="#000"/>
<text x="26.000000000000004" y="203.45497279208215" text-anchor="end" font-weight="bold" font-size="small" fill="#111">
1.4
</text>
<line x1="42.0" y1="161.37711176237966" x2="50.0" y2="161.37711176237966" stroke="#000"/>
<text x="26.000000000000004" y="161.37711176237966" text-anchor="end" font-weight="bold" font-size="small" fill="#111">
1.6
</text>
<line x1="42.0" y1="119.2992507326771" x2="50.0" y2="119.2992507326771" stroke="#000"/>
<text x="26.000000000000004" y="119.2992507326771" text-anchor="end" font-weight="bold" font-size="small" fill="#111">
1.8
</text>
<rect x="268.5" y="36.00000000000001" width="80.0" height="18.0" fill="#7070f8" stroke="#888"/>
<text x="308.5" y="52.50000000000001" font-size="small" text-anchor="middle" font-weight="bold" fill="#EEE">
No JIT
</text>
<rect x="691.4999999999999" y="36.00000000000001" width="80.0" height="18.0" fill="orange" stroke="#888"/>
<text x="731.4999999999999" y="52.50000000000001" font-size="small" text-anchor="middle" font-weight="bold" fill="#EEE">
YJIT
</text>
<rect x="97.0" y="287.61069485148727" width="20.142857142857142" height="210.3893051485127" fill="#7070f8" data-tooltip="1.00x baseline speed (No JIT)"/>
<line x1="97.0" y1="287.12069798969435" x2="117.14285714285714" y2="287.12069798969435" stroke="#000"/>
<line x1="97.0" y1="288.1006917132801" x2="117.14285714285714" y2="288.1006917132801" stroke="#000"/>
<line x1="107.07142857142857" y1="287.12069798969435" x2="107.07142857142857" y2="288.1006917132801" stroke="#000"/>
<rect x="117.14285714285714" y="162.91520833181767" width="20.142857142857142" height="335.0847916681822" fill="orange" data-tooltip="1.59x baseline speed (YJIT)"/>
<line x1="117.14285714285714" y1="161.46582928886707" x2="137.28571428571428" y2="161.46582928886707" stroke="#000"/>
<line x1="117.14285714285714" y1="164.36458737476826" x2="137.28571428571428" y2="164.36458737476826" stroke="#000"/>
<line x1="127.21428571428572" y1="161.46582928886707" x2="127.21428571428572" y2="164.36458737476826" stroke="#000"/>
<line x1="127.21428571428572" y1="498.0" x2="127.21428571428572" y2="502.79999999999995" stroke="#000"/>
<text x="127.21428571428572" y="512.4" fill="#111" font-size="small" font-family="monospace" font-weight="bold" text-anchor="end" transform="rotate(-60, 127.21428571428572, 512.4)">
activerecord
</text>
<rect x="157.42857142857142" y="287.61069485148727" width="20.142857142857142" height="210.3893051485127" fill="#7070f8" data-tooltip="1.00x baseline speed (No JIT)"/>
<line x1="157.42857142857142" y1="287.13850519384766" x2="177.57142857142856" y2="287.13850519384766" stroke="#000"/>
<line x1="157.42857142857142" y1="288.0828845091268" x2="177.57142857142856" y2="288.0828845091268" stroke="#000"/>
<line x1="167.49999999999997" y1="287.13850519384766" x2="167.49999999999997" y2="288.0828845091268" stroke="#000"/>
<rect x="177.57142857142856" y="101.5111201700417" width="20.142857142857142" height="396.48887982995825" fill="orange" data-tooltip="1.88x baseline speed (YJIT)"/>
<line x1="177.57142857142856" y1="100.5867564312237" x2="197.71428571428567" y2="100.5867564312237" stroke="#000"/>
<line x1="177.57142857142856" y1="102.4354839088597" x2="197.71428571428567" y2="102.4354839088597" stroke="#000"/>
<line x1="187.6428571428571" y1="100.5867564312237" x2="187.6428571428571" y2="102.4354839088597" stroke="#000"/>
<line x1="187.64285714285714" y1="498.0" x2="187.64285714285714" y2="502.79999999999995" stroke="#000"/>
<text x="187.64285714285714" y="512.4" fill="#111" font-size="small" font-family="monospace" font-weight="bold" text-anchor="end" transform="rotate(-60, 187.64285714285714, 512.4)">
chunky-png
</text>
<rect x="217.85714285714286" y="287.61069485148727" width="20.142857142857142" height="210.3893051485127" fill="#7070f8" data-tooltip="1.00x baseline speed (No JIT)"/>
<line x1="217.85714285714286" y1="287.53509717694214" x2="238.0" y2="287.53509717694214" stroke="#000"/>
<line x1="217.85714285714286" y1="287.6862925260324" x2="238.0" y2="287.6862925260324" stroke="#000"/>
<line x1="227.92857142857142" y1="287.53509717694214" x2="227.92857142857142" y2="287.6862925260324" stroke="#000"/>
<rect x="238.0" y="179.8400180512823" width="20.142857142857142" height="318.15998194871764" fill="orange" data-tooltip="1.51x baseline speed (YJIT)"/>
<line x1="238.0" y1="179.5929532249011" x2="258.1428571428571" y2="179.5929532249011" stroke="#000"/>
<line x1="238.0" y1="180.08708287766353" x2="258.1428571428571" y2="180.08708287766353" stroke="#000"/>
<line x1="248.07142857142856" y1="179.5929532249011" x2="248.07142857142856" y2="180.08708287766353" stroke="#000"/>
<line x1="248.07142857142858" y1="498.0" x2="248.07142857142858" y2="502.79999999999995" stroke="#000"/>
<text x="248.07142857142858" y="512.4" fill="#111" font-size="small" font-family="monospace" font-weight="bold" text-anchor="end" transform="rotate(-60, 248.07142857142858, 512.4)">
erubi-rails
</text>
<rect x="278.2857142857142" y="287.61069485148727" width="20.142857142857142" height="210.3893051485127" fill="#7070f8" data-tooltip="1.00x baseline speed (No JIT)"/>
<line x1="278.2857142857142" y1="286.6975036424408" x2="298.4285714285714" y2="286.6975036424408" stroke="#000"/>
<line x1="278.2857142857142" y1="288.5238860605337" x2="298.4285714285714" y2="288.5238860605337" stroke="#000"/>
<line x1="288.35714285714283" y1="286.6975036424408" x2="288.35714285714283" y2="288.5238860605337" stroke="#000"/>
<rect x="298.4285714285714" y="155.10428442009479" width="20.142857142857142" height="342.8957155799052" fill="orange" data-tooltip="1.63x baseline speed (YJIT)"/>
<line x1="298.4285714285714" y1="150.10405901116513" x2="318.5714285714285" y2="150.10405901116513" stroke="#000"/>
<line x1="298.4285714285714" y1="160.1045098290244" x2="318.5714285714285" y2="160.1045098290244" stroke="#000"/>
<line x1="308.49999999999994" y1="150.10405901116513" x2="308.49999999999994" y2="160.1045098290244" stroke="#000"/>
<line x1="308.49999999999994" y1="498.0" x2="308.49999999999994" y2="502.79999999999995" stroke="#000"/>
<text x="308.49999999999994" y="512.4" fill="#111" font-size="small" font-family="monospace" font-weight="bold" text-anchor="end" transform="rotate(-60, 308.49999999999994, 512.4)">
hexapdf
</text>
<rect x="338.7142857142857" y="287.61069485148727" width="20.142857142857142" height="210.3893051485127" fill="#7070f8" data-tooltip="1.00x baseline speed (No JIT)"/>
<line x1="338.7142857142857" y1="286.77773166950936" x2="358.8571428571429" y2="286.77773166950936" stroke="#000"/>
<line x1="338.7142857142857" y1="288.44365803346517" x2="358.8571428571429" y2="288.44365803346517" stroke="#000"/>
<line x1="348.78571428571433" y1="286.77773166950936" x2="348.78571428571433" y2="288.44365803346517" stroke="#000"/>
<rect x="358.8571428571429" y="224.47584827422816" width="20.142857142857142" height="273.5241517257718" fill="orange" data-tooltip="1.30x baseline speed (YJIT)"/>
<line x1="358.8571428571429" y1="222.86054369712193" x2="379.0" y2="222.86054369712193" stroke="#000"/>
<line x1="358.8571428571429" y1="226.09115285133439" x2="379.0" y2="226.09115285133439" stroke="#000"/>
<line x1="368.92857142857144" y1="222.86054369712193" x2="368.92857142857144" y2="226.09115285133439" stroke="#000"/>
<line x1="368.92857142857144" y1="498.0" x2="368.92857142857144" y2="502.79999999999995" stroke="#000"/>
<text x="368.92857142857144" y="512.4" fill="#111" font-size="small" font-family="monospace" font-weight="bold" text-anchor="end" transform="rotate(-60, 368.92857142857144, 512.4)">
liquid-c
</text>
<rect x="399.1428571428571" y="287.61069485148727" width="20.142857142857142" height="210.3893051485127" fill="#7070f8" data-tooltip="1.00x baseline speed (No JIT)"/>
<line x1="399.1428571428571" y1="286.44434226102453" x2="419.2857142857143" y2="286.44434226102453" stroke="#000"/>
<line x1="399.1428571428571" y1="288.77704744194995" x2="419.2857142857143" y2="288.77704744194995" stroke="#000"/>
<line x1="409.2142857142857" y1="286.44434226102453" x2="409.2142857142857" y2="288.77704744194995" stroke="#000"/>
<rect x="419.2857142857143" y="235.99288388829297" width="20.142857142857142" height="262.00711611170703" fill="orange" data-tooltip="1.25x baseline speed (YJIT)"/>
<line x1="419.2857142857143" y1="233.32624289614137" x2="439.4285714285714" y2="233.32624289614137" stroke="#000"/>
<line x1="419.2857142857143" y1="238.65952488044456" x2="439.4285714285714" y2="238.65952488044456" stroke="#000"/>
<line x1="429.35714285714283" y1="233.32624289614137" x2="429.35714285714283" y2="238.65952488044456" stroke="#000"/>
<line x1="429.35714285714283" y1="498.0" x2="429.35714285714283" y2="502.79999999999995" stroke="#000"/>
<text x="429.35714285714283" y="512.4" fill="#111" font-size="small" font-family="monospace" font-weight="bold" text-anchor="end" transform="rotate(-60, 429.35714285714283, 512.4)">
liquid-compile
</text>
<rect x="459.5714285714285" y="287.61069485148727" width="20.142857142857142" height="210.3893051485127" fill="#7070f8" data-tooltip="1.00x baseline speed (No JIT)"/>
<line x1="459.5714285714285" y1="287.2547606251359" x2="479.71428571428567" y2="287.2547606251359" stroke="#000"/>
<line x1="459.5714285714285" y1="287.9666290778386" x2="479.71428571428567" y2="287.9666290778386" stroke="#000"/>
<line x1="469.6428571428571" y1="287.2547606251359" x2="469.6428571428571" y2="287.9666290778386" stroke="#000"/>
<rect x="479.71428571428567" y="100.19999999999999" width="20.142857142857142" height="397.79999999999995" fill="orange" data-tooltip="1.89x baseline speed (YJIT)"/>
<line x1="479.71428571428567" y1="98.85107272607682" x2="499.8571428571428" y2="98.85107272607682" stroke="#000"/>
<line x1="479.71428571428567" y1="101.54892727392316" x2="499.8571428571428" y2="101.54892727392316" stroke="#000"/>
<line x1="489.7857142857142" y1="98.85107272607682" x2="489.7857142857142" y2="101.54892727392316" stroke="#000"/>
<line x1="489.7857142857142" y1="498.0" x2="489.7857142857142" y2="502.79999999999995" stroke="#000"/>
<text x="489.7857142857142" y="512.4" fill="#111" font-size="small" font-family="monospace" font-weight="bold" text-anchor="end" transform="rotate(-60, 489.7857142857142, 512.4)">
liquid-render
</text>
<rect x="520.0" y="287.61069485148727" width="20.142857142857142" height="210.3893051485127" fill="#7070f8" data-tooltip="1.00x baseline speed (No JIT)"/>
<line x1="520.0" y1="287.12898021579446" x2="540.1428571428571" y2="287.12898021579446" stroke="#000"/>
<line x1="520.0" y1="288.09240948718" x2="540.1428571428571" y2="288.09240948718" stroke="#000"/>
<line x1="530.0714285714287" y1="287.12898021579446" x2="530.0714285714287" y2="288.09240948718" stroke="#000"/>
<rect x="540.1428571428571" y="199.41847037469987" width="20.142857142857142" height="298.5815296253001" fill="orange" data-tooltip="1.42x baseline speed (YJIT)"/>
<line x1="540.1428571428571" y1="196.54499891836934" x2="560.2857142857142" y2="196.54499891836934" stroke="#000"/>
<line x1="540.1428571428571" y1="202.29194183103039" x2="560.2857142857142" y2="202.29194183103039" stroke="#000"/>
<line x1="550.2142857142858" y1="196.54499891836934" x2="550.2142857142858" y2="202.29194183103039" stroke="#000"/>
<line x1="550.2142857142858" y1="498.0" x2="550.2142857142858" y2="502.79999999999995" stroke="#000"/>
<text x="550.2142857142858" y="512.4" fill="#111" font-size="small" font-family="monospace" font-weight="bold" text-anchor="end" transform="rotate(-60, 550.2142857142858, 512.4)">
lobsters
</text>
<rect x="580.4285714285714" y="287.61069485148727" width="20.142857142857142" height="210.3893051485127" fill="#7070f8" data-tooltip="1.00x baseline speed (No JIT)"/>
<line x1="580.4285714285714" y1="287.25529145127774" x2="600.5714285714286" y2="287.25529145127774" stroke="#000"/>
<line x1="580.4285714285714" y1="287.96609825169674" x2="600.5714285714286" y2="287.96609825169674" stroke="#000"/>
<line x1="590.5" y1="287.25529145127774" x2="590.5" y2="287.96609825169674" stroke="#000"/>
<rect x="600.5714285714286" y="207.20768595173723" width="20.142857142857142" height="290.7923140482627" fill="orange" data-tooltip="1.38x baseline speed (YJIT)"/>
<line x1="600.5714285714286" y1="206.49212368782025" x2="620.7142857142857" y2="206.49212368782025" stroke="#000"/>
<line x1="600.5714285714286" y1="207.9232482156542" x2="620.7142857142857" y2="207.9232482156542" stroke="#000"/>
<line x1="610.6428571428571" y1="206.49212368782025" x2="610.6428571428571" y2="207.9232482156542" stroke="#000"/>
<line x1="610.6428571428571" y1="498.0" x2="610.6428571428571" y2="502.79999999999995" stroke="#000"/>
<text x="610.6428571428571" y="512.4" fill="#111" font-size="small" font-family="monospace" font-weight="bold" text-anchor="end" transform="rotate(-60, 610.6428571428571, 512.4)">
mail
</text>
<rect x="640.8571428571428" y="287.61069485148727" width="20.142857142857142" height="210.3893051485127" fill="#7070f8" data-tooltip="1.00x baseline speed (No JIT)"/>
<line x1="640.8571428571428" y1="287.4361538262989" x2="660.9999999999999" y2="287.4361538262989" stroke="#000"/>
<line x1="640.8571428571428" y1="287.7852358766756" x2="660.9999999999999" y2="287.7852358766756" stroke="#000"/>
<line x1="650.9285714285714" y1="287.4361538262989" x2="650.9285714285714" y2="287.7852358766756" stroke="#000"/>
<rect x="660.9999999999999" y="129.53513210485855" width="20.142857142857142" height="368.46486789514137" fill="orange" data-tooltip="1.75x baseline speed (YJIT)"/>
<line x1="660.9999999999999" y1="129.1856573604918" x2="681.142857142857" y2="129.1856573604918" stroke="#000"/>
<line x1="660.9999999999999" y1="129.8846068492253" x2="681.142857142857" y2="129.8846068492253" stroke="#000"/>
<line x1="671.0714285714286" y1="129.1856573604918" x2="671.0714285714286" y2="129.8846068492253" stroke="#000"/>
<line x1="671.0714285714286" y1="498.0" x2="671.0714285714286" y2="502.79999999999995" stroke="#000"/>
<text x="671.0714285714286" y="512.4" fill="#111" font-size="small" font-family="monospace" font-weight="bold" text-anchor="end" transform="rotate(-60, 671.0714285714286, 512.4)">
psych-load
</text>
<rect x="701.2857142857143" y="287.61069485148727" width="20.142857142857142" height="210.3893051485127" fill="#7070f8" data-tooltip="1.00x baseline speed (No JIT)"/>
<line x1="701.2857142857143" y1="287.52683259571893" x2="721.4285714285714" y2="287.52683259571893" stroke="#000"/>
<line x1="701.2857142857143" y1="287.6945571072556" x2="721.4285714285714" y2="287.6945571072556" stroke="#000"/>
<line x1="711.3571428571429" y1="287.52683259571893" x2="711.3571428571429" y2="287.6945571072556" stroke="#000"/>
<rect x="721.4285714285714" y="157.68514244062575" width="20.142857142857142" height="340.31485755937416" fill="orange" data-tooltip="1.62x baseline speed (YJIT)"/>
<line x1="721.4285714285714" y1="157.37696531839413" x2="741.5714285714286" y2="157.37696531839413" stroke="#000"/>
<line x1="721.4285714285714" y1="157.99331956285738" x2="741.5714285714286" y2="157.99331956285738" stroke="#000"/>
<line x1="731.5" y1="157.37696531839413" x2="731.5" y2="157.99331956285738" stroke="#000"/>
<line x1="731.5" y1="498.0" x2="731.5" y2="502.79999999999995" stroke="#000"/>
<text x="731.5" y="512.4" fill="#111" font-size="small" font-family="monospace" font-weight="bold" text-anchor="end" transform="rotate(-60, 731.5, 512.4)">
railsbench
</text>
<rect x="761.7142857142857" y="287.61069485148727" width="20.142857142857142" height="210.3893051485127" fill="#7070f8" data-tooltip="1.00x baseline speed (No JIT)"/>
<line x1="761.7142857142857" y1="286.61762135221664" x2="781.8571428571428" y2="286.61762135221664" stroke="#000"/>
<line x1="761.7142857142857" y1="288.60376835075783" x2="781.8571428571428" y2="288.60376835075783" stroke="#000"/>
<line x1="771.7857142857143" y1="286.61762135221664" x2="771.7857142857143" y2="288.60376835075783" stroke="#000"/>
<rect x="781.8571428571428" y="199.16516067529028" width="20.142857142857142" height="298.83483932470966" fill="orange" data-tooltip="1.42x baseline speed (YJIT)"/>
<line x1="781.8571428571428" y1="178.46308703844795" x2="801.9999999999999" y2="178.46308703844795" stroke="#000"/>
<line x1="781.8571428571428" y1="219.8672343121326" x2="801.9999999999999" y2="219.8672343121326" stroke="#000"/>
<line x1="791.9285714285714" y1="178.46308703844795" x2="791.9285714285714" y2="219.8672343121326" stroke="#000"/>
<line x1="791.9285714285714" y1="498.0" x2="791.9285714285714" y2="502.79999999999995" stroke="#000"/>
<text x="791.9285714285714" y="512.4" fill="#111" font-size="small" font-family="monospace" font-weight="bold" text-anchor="end" transform="rotate(-60, 791.9285714285714, 512.4)">
rubocop
</text>
<rect x="822.1428571428571" y="287.61069485148727" width="20.142857142857142" height="210.3893051485127" fill="#7070f8" data-tooltip="1.00x baseline speed (No JIT)"/>
<line x1="822.1428571428571" y1="287.21324965114" x2="842.2857142857142" y2="287.21324965114" stroke="#000"/>
<line x1="822.1428571428571" y1="288.0081400518345" x2="842.2857142857142" y2="288.0081400518345" stroke="#000"/>
<line x1="832.2142857142857" y1="287.21324965114" x2="832.2142857142857" y2="288.0081400518345" stroke="#000"/>
<rect x="842.2857142857142" y="223.7393261800698" width="20.142857142857142" height="274.2606738199301" fill="orange" data-tooltip="1.30x baseline speed (YJIT)"/>
<line x1="842.2857142857142" y1="223.15293878309984" x2="862.4285714285713" y2="223.15293878309984" stroke="#000"/>
<line x1="842.2857142857142" y1="224.3257135770398" x2="862.4285714285713" y2="224.3257135770398" stroke="#000"/>
<line x1="852.3571428571428" y1="223.15293878309984" x2="852.3571428571428" y2="224.3257135770398" stroke="#000"/>
<line x1="852.3571428571428" y1="498.0" x2="852.3571428571428" y2="502.79999999999995" stroke="#000"/>
<text x="852.3571428571428" y="512.4" fill="#111" font-size="small" font-family="monospace" font-weight="bold" text-anchor="end" transform="rotate(-60, 852.3571428571428, 512.4)">
ruby-lsp
</text>
<rect x="882.5714285714286" y="287.61069485148727" width="20.142857142857142" height="210.3893051485127" fill="#7070f8" data-tooltip="1.00x baseline speed (No JIT)"/>
<line x1="882.5714285714286" y1="287.0462053765472" x2="902.7142857142857" y2="287.0462053765472" stroke="#000"/>
<line x1="882.5714285714286" y1="288.1751843264273" x2="902.7142857142857" y2="288.1751843264273" stroke="#000"/>
<line x1="892.6428571428572" y1="287.0462053765472" x2="892.6428571428572" y2="288.1751843264273" stroke="#000"/>
<rect x="902.7142857142857" y="253.79725203833152" width="20.142857142857142" height="244.20274796166842" fill="orange" data-tooltip="1.16x baseline speed (YJIT)"/>
<line x1="902.7142857142857" y1="252.90461255017013" x2="922.8571428571428" y2="252.90461255017013" stroke="#000"/>
<line x1="902.7142857142857" y1="254.6898915264929" x2="922.8571428571428" y2="254.6898915264929" stroke="#000"/>
<line x1="912.7857142857143" y1="252.90461255017013" x2="912.7857142857143" y2="254.6898915264929" stroke="#000"/>
<line x1="912.7857142857143" y1="498.0" x2="912.7857142857143" y2="502.79999999999995" stroke="#000"/>
<text x="912.7857142857143" y="512.4" fill="#111" font-size="small" font-family="monospace" font-weight="bold" text-anchor="end" transform="rotate(-60, 912.7857142857143, 512.4)">
sequel
</text>
</svg>