<svg viewBox="0 0 1000 600" xmlns="http://www.w3.org/2000/svg" xmlns:xlink="http://www.w3.org/1999/xlink" width="100%" height="100%">

<rect x="50.0" y="30.0" width="940.0" height="467.99999999999994" stroke="#000" fill="#EEE"/>
<line x1="42.0" y1="497.9999999999999" x2="50.0" y2="497.9999999999999" stroke="#000"/>
<text x="26.000000000000004" y="497.9999999999999" text-anchor="end" font-weight="bold" font-size="small" fill="#111">
0.0
</text>
<line x1="42.0" y1="414.79080190802006" x2="50.0" y2="414.79080190802006" stroke="#000"/>
<text x="26.000000000000004" y="414.79080190802006" text-anchor="end" font-weight="bold" font-size="small" fill="#111">
2.0
</text>
<line x1="42.0" y1="331.58160381604023" x2="50.0" y2="331.58160381604023" stroke="#000"/>
<text x="26.000000000000004" y="331.58160381604023" text-anchor="end" font-weight="bold" font-size="small" fill="#111">
4.0
</text>
<line x1="42.0" y1="248.3724057240604" x2="50.0" y2="248.3724057240604" stroke="#000"/>
<text x="26.000000000000004" y="248.3724057240604" text-anchor="end" font-weight="bold" font-size="small" fill="#111">
6.0
</text>
<line x1="42.0" y1="165.16320763208049" x2="50.0" y2="165.16320763208049" stroke="#000"/>
<text x="26.000000000000004" y="165.16320763208049" text-anchor="end" font-weight="bold" font-size="small" fill="#111">
8.0
</text>
<rect x="268.5" y="36.00000000000001" width="80.0" height="18.0" fill="#7070f8" stroke="#888"/>
<text x="308.5" y="52.50000000000001" font-size="small" text-anchor="middle" font-weight="bold" fill="#EEE">
No JIT
</text>
<rect x="691.4999999999999" y="36.00000000000001" width="80.0" height="18.0" fill="orange" stroke="#888"/>
<text x="731.4999999999999" y="52.50000000000001" font-size="small" text-anchor="middle" font-weight="bold" fill="#EEE">
YJIT
</text>
<rect x="97.0" y="456.39540095401003" width="23.499999999999996" height="41.60459904598993" fill="#7070f8" data-tooltip="1.00x baseline speed (No JIT)"/>
<line x1="97.0" y1="456.3468730552676" x2="120.5" y2="456.3468730552676" stroke="#000"/>
<line x1="97.0" y1="456.4439288527525" x2="120.5" y2="456.4439288527525" stroke="#000"/>
<line x1="108.75" y1="456.3468730552676" x2="108.75" y2="456.4439288527525" stroke="#000"/>
<rect x="120.5" y="337.07115853475267" width="23.499999999999996" height="160.92884146524733" fill="orange" data-tooltip="3.87x baseline speed (YJIT)"/>
<line x1="120.5" y1="336.8722220224198" x2="144.0" y2="336.8722220224198" stroke="#000"/>
<line x1="120.5" y1="337.2700950470855" x2="144.0" y2="337.2700950470855" stroke="#000"/>
<line x1="132.25" y1="336.8722220224198" x2="132.25" y2="337.2700950470855" stroke="#000"/>
<line x1="132.25" y1="498.0" x2="132.25" y2="502.79999999999995" stroke="#000"/>
<text x="132.25" y="512.4" fill="#111" font-size="small" font-family="monospace" font-weight="bold" text-anchor="end" transform="rotate(-60, 132.25, 512.4)">
30k_ifelse
</text>
<rect x="167.49999999999997" y="456.39540095401003" width="23.499999999999996" height="41.60459904598993" fill="#7070f8" data-tooltip="1.00x baseline speed (No JIT)"/>
<line x1="167.49999999999997" y1="456.3343293830885" x2="190.99999999999997" y2="456.3343293830885" stroke="#000"/>
<line x1="167.49999999999997" y1="456.4564725249316" x2="190.99999999999997" y2="456.4564725249316" stroke="#000"/>
<line x1="179.25" y1="456.3343293830885" x2="179.25" y2="456.4564725249316" stroke="#000"/>
<rect x="190.99999999999997" y="270.42321753294925" width="23.499999999999996" height="227.57678246705072" fill="orange" data-tooltip="5.47x baseline speed (YJIT)"/>
<line x1="190.99999999999997" y1="270.05010460231955" x2="214.49999999999997" y2="270.05010460231955" stroke="#000"/>
<line x1="190.99999999999997" y1="270.79633046357895" x2="214.49999999999997" y2="270.79633046357895" stroke="#000"/>
<line x1="202.75" y1="270.05010460231955" x2="202.75" y2="270.79633046357895" stroke="#000"/>
<line x1="202.75" y1="498.0" x2="202.75" y2="502.79999999999995" stroke="#000"/>
<text x="202.75" y="512.4" fill="#111" font-size="small" font-family="monospace" font-weight="bold" text-anchor="end" transform="rotate(-60, 202.75, 512.4)">
30k_methods
</text>
<rect x="238.0" y="456.39540095401003" width="23.499999999999996" height="41.60459904598993" fill="#7070f8" data-tooltip="1.00x baseline speed (No JIT)"/>
<line x1="238.0" y1="456.1967654455424" x2="261.5" y2="456.1967654455424" stroke="#000"/>
<line x1="238.0" y1="456.59403646247773" x2="261.5" y2="456.59403646247773" stroke="#000"/>
<line x1="249.75" y1="456.1967654455424" x2="249.75" y2="456.59403646247773" stroke="#000"/>
<rect x="261.5" y="280.1333615296929" width="23.499999999999996" height="217.8666384703071" fill="orange" data-tooltip="5.24x baseline speed (YJIT)"/>
<line x1="261.5" y1="279.09269059454044" x2="285.00000000000006" y2="279.09269059454044" stroke="#000"/>
<line x1="261.5" y1="281.17403246484525" x2="285.00000000000006" y2="281.17403246484525" stroke="#000"/>
<line x1="273.25" y1="279.09269059454044" x2="273.25" y2="281.17403246484525" stroke="#000"/>
<line x1="273.25" y1="498.0" x2="273.25" y2="502.79999999999995" stroke="#000"/>
<text x="273.25" y="512.4" fill="#111" font-size="small" font-family="monospace" font-weight="bold" text-anchor="end" transform="rotate(-60, 273.25, 512.4)">
cfunc_itself
</text>
<rect x="308.5" y="456.39540095401003" width="23.499999999999996" height="41.60459904598993" fill="#7070f8" data-tooltip="1.00x baseline speed (No JIT)"/>
<line x1="308.5" y1="455.87769835709764" x2="332.0" y2="455.87769835709764" stroke="#000"/>
<line x1="308.5" y1="456.9131035509225" x2="332.0" y2="456.9131035509225" stroke="#000"/>
<line x1="320.25" y1="455.87769835709764" x2="320.25" y2="456.9131035509225" stroke="#000"/>
<rect x="332.0" y="341.53377977596904" width="23.499999999999996" height="156.4662202240309" fill="orange" data-tooltip="3.76x baseline speed (YJIT)"/>
<line x1="332.0" y1="339.5867722814694" x2="355.50000000000006" y2="339.5867722814694" stroke="#000"/>
<line x1="332.0" y1="343.4807872704687" x2="355.50000000000006" y2="343.4807872704687" stroke="#000"/>
<line x1="343.75" y1="339.5867722814694" x2="343.75" y2="343.4807872704687" stroke="#000"/>
<line x1="343.75" y1="498.0" x2="343.75" y2="502.79999999999995" stroke="#000"/>
<text x="343.75" y="512.4" fill="#111" font-size="small" font-family="monospace" font-weight="bold" text-anchor="end" transform="rotate(-60, 343.75, 512.4)">
fib
</text>
<rect x="379.0" y="456.39540095401003" width="23.499999999999996" height="41.60459904598993" fill="#7070f8" data-tooltip="1.00x baseline speed (No JIT)"/>
<line x1="379.0" y1="456.13530702076736" x2="402.5" y2="456.13530702076736" stroke="#000"/>
<line x1="379.0" y1="456.65549488725276" x2="402.5" y2="456.65549488725276" stroke="#000"/>
<line x1="390.75" y1="456.13530702076736" x2="390.75" y2="456.65549488725276" stroke="#000"/>
<rect x="402.5" y="345.4505325919459" width="23.499999999999996" height="152.5494674080541" fill="orange" data-tooltip="3.67x baseline speed (YJIT)"/>
<line x1="402.5" y1="344.49669220173615" x2="426.00000000000006" y2="344.49669220173615" stroke="#000"/>
<line x1="402.5" y1="346.4043729821556" x2="426.00000000000006" y2="346.4043729821556" stroke="#000"/>
<line x1="414.25" y1="344.49669220173615" x2="414.25" y2="346.4043729821556" stroke="#000"/>
<line x1="414.25" y1="498.0" x2="414.25" y2="502.79999999999995" stroke="#000"/>
<text x="414.25" y="512.4" fill="#111" font-size="small" font-family="monospace" font-weight="bold" text-anchor="end" transform="rotate(-60, 414.25, 512.4)">
getivar
</text>
<rect x="449.5" y="456.39540095401003" width="23.499999999999996" height="41.60459904598993" fill="#7070f8" data-tooltip="1.00x baseline speed (No JIT)"/>
<line x1="449.5" y1="456.3757320999744" x2="473.00000000000006" y2="456.3757320999744" stroke="#000"/>
<line x1="449.5" y1="456.41506980804564" x2="473.00000000000006" y2="456.41506980804564" stroke="#000"/>
<line x1="461.25" y1="456.3757320999744" x2="461.25" y2="456.41506980804564" stroke="#000"/>
<rect x="473.00000000000006" y="212.3775335194847" width="23.499999999999996" height="285.6224664805152" fill="orange" data-tooltip="6.87x baseline speed (YJIT)"/>
<line x1="473.00000000000006" y1="212.24025955329626" x2="496.50000000000006" y2="212.24025955329626" stroke="#000"/>
<line x1="473.00000000000006" y1="212.51480748567312" x2="496.50000000000006" y2="212.51480748567312" stroke="#000"/>
<line x1="484.75" y1="212.24025955329626" x2="484.75" y2="212.51480748567312" stroke="#000"/>
<line x1="484.75" y1="498.0" x2="484.75" y2="502.79999999999995" stroke="#000"/>
<text x="484.75" y="512.4" fill="#111" font-size="small" font-family="monospace" font-weight="bold" text-anchor="end" transform="rotate(-60, 484.75, 512.4)">
keyword_args
</text>
<rect x="519.9999999999999" y="456.39540095401003" width="23.499999999999996" height="41.60459904598993" fill="#7070f8" data-tooltip="1.00x baseline speed (No JIT)"/>
<line x1="519.9999999999999" y1="456.0968533625572" x2="543.4999999999999" y2="456.0968533625572" stroke="#000"/>
<line x1="519.9999999999999" y1="456.69394854546283" x2="543.4999999999999" y2="456.69394854546283" stroke="#000"/>
<line x1="531.75" y1="456.0968533625572" x2="531.75" y2="456.69394854546283" stroke="#000"/>
<rect x="543.4999999999999" y="100.19999999999999" width="23.499999999999996" height="397.79999999999995" fill="orange" data-tooltip="9.56x baseline speed (YJIT)"/>
<line x1="543.4999999999999" y1="97.26184554003322" x2="566.9999999999999" y2="97.26184554003322" stroke="#000"/>
<line x1="543.4999999999999" y1="103.13815445996676" x2="566.9999999999999" y2="103.13815445996676" stroke="#000"/>
<line x1="555.2499999999999" y1="97.26184554003322" x2="555.2499999999999" y2="103.13815445996676" stroke="#000"/>
<line x1="555.2499999999999" y1="498.0" x2="555.2499999999999" y2="502.79999999999995" stroke="#000"/>
<text x="555.2499999999999" y="512.4" fill="#111" font-size="small" font-family="monospace" font-weight="bold" text-anchor="end" transform="rotate(-60, 555.2499999999999, 512.4)">
respond_to
</text>
<rect x="590.4999999999999" y="456.39540095401003" width="23.499999999999996" height="41.60459904598993" fill="#7070f8" data-tooltip="1.00x baseline speed (No JIT)"/>
<line x1="590.4999999999999" y1="456.3529908353987" x2="613.9999999999999" y2="456.3529908353987" stroke="#000"/>
<line x1="590.4999999999999" y1="456.4378110726214" x2="613.9999999999999" y2="456.4378110726214" stroke="#000"/>
<line x1="602.25" y1="456.3529908353987" x2="602.25" y2="456.4378110726214" stroke="#000"/>
<rect x="613.9999999999999" y="292.06465476880754" width="23.499999999999996" height="205.9353452311924" fill="orange" data-tooltip="4.95x baseline speed (YJIT)"/>
<line x1="613.9999999999999" y1="291.85210683088394" x2="637.4999999999999" y2="291.85210683088394" stroke="#000"/>
<line x1="613.9999999999999" y1="292.27720270673115" x2="637.4999999999999" y2="292.27720270673115" stroke="#000"/>
<line x1="625.7499999999999" y1="291.85210683088394" x2="625.7499999999999" y2="292.27720270673115" stroke="#000"/>
<line x1="625.7499999999999" y1="498.0" x2="625.7499999999999" y2="502.79999999999995" stroke="#000"/>
<text x="625.7499999999999" y="512.4" fill="#111" font-size="small" font-family="monospace" font-weight="bold" text-anchor="end" transform="rotate(-60, 625.7499999999999, 512.4)">
setivar
</text>
<rect x="660.9999999999999" y="456.39540095401003" width="23.499999999999996" height="41.60459904598993" fill="#7070f8" data-tooltip="1.00x baseline speed (No JIT)"/>
<line x1="660.9999999999999" y1="456.3622061994834" x2="684.4999999999999" y2="456.3622061994834" stroke="#000"/>
<line x1="660.9999999999999" y1="456.4285957085367" x2="684.4999999999999" y2="456.4285957085367" stroke="#000"/>
<line x1="672.75" y1="456.3622061994834" x2="672.75" y2="456.4285957085367" stroke="#000"/>
<rect x="684.4999999999999" y="387.3109079177401" width="23.499999999999996" height="110.68909208225989" fill="orange" data-tooltip="2.66x baseline speed (YJIT)"/>
<line x1="684.4999999999999" y1="387.222165186166" x2="707.9999999999999" y2="387.222165186166" stroke="#000"/>
<line x1="684.4999999999999" y1="387.3996506493142" x2="707.9999999999999" y2="387.3996506493142" stroke="#000"/>
<line x1="696.2499999999999" y1="387.222165186166" x2="696.2499999999999" y2="387.3996506493142" stroke="#000"/>
<line x1="696.2499999999999" y1="498.0" x2="696.2499999999999" y2="502.79999999999995" stroke="#000"/>
<text x="696.2499999999999" y="512.4" fill="#111" font-size="small" font-family="monospace" font-weight="bold" text-anchor="end" transform="rotate(-60, 696.2499999999999, 512.4)">
setivar_object
</text>
<rect x="731.4999999999999" y="456.39540095401003" width="23.499999999999996" height="41.60459904598993" fill="#7070f8" data-tooltip="1.00x baseline speed (No JIT)"/>
<line x1="731.4999999999999" y1="456.3799138465073" x2="754.9999999999999" y2="456.3799138465073" stroke="#000"/>
<line x1="731.4999999999999" y1="456.4108880615128" x2="754.9999999999999" y2="456.4108880615128" stroke="#000"/>
<line x1="743.25" y1="456.3799138465073" x2="743.25" y2="456.4108880615128" stroke="#000"/>
<rect x="754.9999999999999" y="387.3123382685836" width="23.499999999999996" height="110.68766173141634" fill="orange" data-tooltip="2.66x baseline speed (YJIT)"/>
<line x1="754.9999999999999" y1="387.25248987790303" x2="778.4999999999999" y2="387.25248987790303" stroke="#000"/>
<line x1="754.9999999999999" y1="387.3721866592642" x2="778.4999999999999" y2="387.3721866592642" stroke="#000"/>
<line x1="766.7499999999999" y1="387.25248987790303" x2="766.7499999999999" y2="387.3721866592642" stroke="#000"/>
<line x1="766.7499999999999" y1="498.0" x2="766.7499999999999" y2="502.79999999999995" stroke="#000"/>
<text x="766.7499999999999" y="512.4" fill="#111" font-size="small" font-family="monospace" font-weight="bold" text-anchor="end" transform="rotate(-60, 766.7499999999999, 512.4)">
setivar_young
</text>
<rect x="801.9999999999999" y="456.39540095401003" width="23.499999999999996" height="41.60459904598993" fill="#7070f8" data-tooltip="1.00x baseline speed (No JIT)"/>
<line x1="801.9999999999999" y1="455.0660211432251" x2="825.4999999999999" y2="455.0660211432251" stroke="#000"/>
<line x1="801.9999999999999" y1="457.724780764795" x2="825.4999999999999" y2="457.724780764795" stroke="#000"/>
<line x1="813.75" y1="455.0660211432251" x2="813.75" y2="457.724780764795" stroke="#000"/>
<rect x="825.4999999999999" y="409.55290150310924" width="23.499999999999996" height="88.44709849689069" fill="orange" data-tooltip="2.13x baseline speed (YJIT)"/>
<line x1="825.4999999999999" y1="406.6979303291691" x2="848.9999999999999" y2="406.6979303291691" stroke="#000"/>
<line x1="825.4999999999999" y1="412.4078726770494" x2="848.9999999999999" y2="412.4078726770494" stroke="#000"/>
<line x1="837.2499999999999" y1="406.6979303291691" x2="837.2499999999999" y2="412.4078726770494" stroke="#000"/>
<line x1="837.2499999999999" y1="498.0" x2="837.2499999999999" y2="502.79999999999995" stroke="#000"/>
<text x="837.2499999999999" y="512.4" fill="#111" font-size="small" font-family="monospace" font-weight="bold" text-anchor="end" transform="rotate(-60, 837.2499999999999, 512.4)">
str_concat
</text>
<rect x="872.4999999999999" y="456.39540095401003" width="23.499999999999996" height="41.60459904598993" fill="#7070f8" data-tooltip="1.00x baseline speed (No JIT)"/>
<line x1="872.4999999999999" y1="456.30558214985354" x2="895.9999999999999" y2="456.30558214985354" stroke="#000"/>
<line x1="872.4999999999999" y1="456.4852197581666" x2="895.9999999999999" y2="456.4852197581666" stroke="#000"/>
<line x1="884.25" y1="456.30558214985354" x2="884.25" y2="456.4852197581666" stroke="#000"/>
<rect x="895.9999999999999" y="438.1528466864293" width="23.499999999999996" height="59.847153313570686" fill="orange" data-tooltip="1.44x baseline speed (YJIT)"/>
<line x1="895.9999999999999" y1="437.96511683659327" x2="919.4999999999999" y2="437.96511683659327" stroke="#000"/>
<line x1="895.9999999999999" y1="438.3405765362653" x2="919.4999999999999" y2="438.3405765362653" stroke="#000"/>
<line x1="907.75" y1="437.96511683659327" x2="907.75" y2="438.3405765362653" stroke="#000"/>
<line x1="907.75" y1="498.0" x2="907.75" y2="502.79999999999995" stroke="#000"/>
<text x="907.75" y="512.4" fill="#111" font-size="small" font-family="monospace" font-weight="bold" text-anchor="end" transform="rotate(-60, 907.75, 512.4)">
throw
</text>
</svg>