<svg viewBox="0 0 1000 600" xmlns="http://www.w3.org/2000/svg" xmlns:xlink="http://www.w3.org/1999/xlink" width="100%" height="100%">

<rect x="50.0" y="30.0" width="940.0" height="467.99999999999994" stroke="#000" fill="#fff"/>
<line x1="42.0" y1="497.9999999999999" x2="50.0" y2="497.9999999999999" stroke="#000"/>
<text x="26.000000000000004" y="497.9999999999999" text-anchor="end" font-weight="bold" font-size="small" fill="#111">
0.0
</text>
<line x1="42.0" y1="413.14451762410044" x2="50.0" y2="413.14451762410044" stroke="#000"/>
<text x="26.000000000000004" y="413.14451762410044" text-anchor="end" font-weight="bold" font-size="small" fill="#111">
0.5
</text>
<line x1="42.0" y1="328.2890352482009" x2="50.0" y2="328.2890352482009" stroke="#000"/>
<text x="26.000000000000004" y="328.2890352482009" text-anchor="end" font-weight="bold" font-size="small" fill="#111">
1.0
</text>
<line x1="42.0" y1="243.43355287230145" x2="50.0" y2="243.43355287230145" stroke="#000"/>
<text x="26.000000000000004" y="243.43355287230145" text-anchor="end" font-weight="bold" font-size="small" fill="#111">
1.5
</text>
<line x1="42.0" y1="158.57807049640195" x2="50.0" y2="158.57807049640195" stroke="#000"/>
<text x="26.000000000000004" y="158.57807049640195" text-anchor="end" font-weight="bold" font-size="small" fill="#111">
2.0
</text>
<line x1="248.5" y1="54.60000000000001" x2="368.5" y2="54.60000000000001" stroke="#648FFF" stroke-width="2"/>
<text x="308.5" y="49.500000000000014" font-size="small" text-anchor="middle" font-weight="bold" fill="#000">
CRuby 3.3.0dev
</text>
<rect x="671.5" y="35.400000000000006" width="120.0" height="19.2" fill="#785EF0" stroke="none"/>
<text x="731.4999999999999" y="49.500000000000014" font-size="small" text-anchor="middle" font-weight="bold" fill="#fff" style="text-shadow: 0 0 1px #000;">
YJIT 3.3.0dev
</text>
<rect x="61.60493827160494" y="307.4768215560687" width="11.604938271604937" height="190.52317844393122" fill="#785EF0" data-tooltip="1.12x baseline (YJIT 3.3.0dev)"/>
<line x1="67.4074074074074" y1="498.0" x2="67.4074074074074" y2="502.79999999999995" stroke="#000"/>
<text x="67.4074074074074" y="512.4" fill="#111" font-size="small" text-anchor="end" transform="rotate(-60, 67.4074074074074, 512.4)">
activerecord
</text>
<rect x="84.81481481481481" y="304.4778420009891" width="11.604938271604937" height="193.5221579990109" fill="#785EF0" data-tooltip="1.14x baseline (YJIT 3.3.0dev)"/>
<line x1="90.61728395061729" y1="498.0" x2="90.61728395061729" y2="502.79999999999995" stroke="#000"/>
<text x="90.61728395061729" y="512.4" fill="#111" font-size="small" text-anchor="end" transform="rotate(-60, 90.61728395061729, 512.4)">
chunky-png
</text>
<rect x="108.0246913580247" y="310.6085705859648" width="11.604938271604937" height="187.39142941403517" fill="#785EF0" data-tooltip="1.10x baseline (YJIT 3.3.0dev)"/>
<line x1="113.82716049382717" y1="498.0" x2="113.82716049382717" y2="502.79999999999995" stroke="#000"/>
<text x="113.82716049382717" y="512.4" fill="#111" font-size="small" text-anchor="end" transform="rotate(-60, 113.82716049382717, 512.4)">
erubi-rails
</text>
<rect x="131.23456790123458" y="100.19999999999999" width="11.604938271604937" height="397.79999999999995" fill="#785EF0" data-tooltip="2.34x baseline (YJIT 3.3.0dev)"/>
<line x1="137.03703703703707" y1="498.0" x2="137.03703703703707" y2="502.79999999999995" stroke="#000"/>
<text x="137.03703703703707" y="512.4" fill="#111" font-size="small" text-anchor="end" transform="rotate(-60, 137.03703703703707, 512.4)">
hexapdf
</text>
<rect x="154.44444444444446" y="307.9700773579922" width="11.604938271604937" height="190.02992264200776" fill="#785EF0" data-tooltip="1.12x baseline (YJIT 3.3.0dev)"/>
<line x1="160.24691358024694" y1="498.0" x2="160.24691358024694" y2="502.79999999999995" stroke="#000"/>
<text x="160.24691358024694" y="512.4" fill="#111" font-size="small" text-anchor="end" transform="rotate(-60, 160.24691358024694, 512.4)">
liquid-c
</text>
<rect x="177.65432098765436" y="324.17047905139674" width="11.604938271604937" height="173.82952094860318" fill="#785EF0" data-tooltip="1.02x baseline (YJIT 3.3.0dev)"/>
<line x1="183.45679012345684" y1="498.0" x2="183.45679012345684" y2="502.79999999999995" stroke="#000"/>
<text x="183.45679012345684" y="512.4" fill="#111" font-size="small" text-anchor="end" transform="rotate(-60, 183.45679012345684, 512.4)">
liquid-compile
</text>
<rect x="200.86419753086423" y="300.65933573729683" width="11.604938271604937" height="197.34066426270311" fill="#785EF0" data-tooltip="1.16x baseline (YJIT 3.3.0dev)"/>
<line x1="206.6666666666667" y1="498.0" x2="206.6666666666667" y2="502.79999999999995" stroke="#000"/>
<text x="206.6666666666667" y="512.4" fill="#111" font-size="small" text-anchor="end" transform="rotate(-60, 206.6666666666667, 512.4)">
liquid-render
</text>
<rect x="224.07407407407413" y="296.52808707450816" width="11.604938271604937" height="201.47191292549178" fill="#785EF0" data-tooltip="1.19x baseline (YJIT 3.3.0dev)"/>
<line x1="229.87654320987662" y1="498.0" x2="229.87654320987662" y2="502.79999999999995" stroke="#000"/>
<text x="229.87654320987662" y="512.4" fill="#111" font-size="small" text-anchor="end" transform="rotate(-60, 229.87654320987662, 512.4)">
lobsters
</text>
<rect x="247.283950617284" y="313.9292204478205" width="11.604938271604937" height="184.07077955217943" fill="#785EF0" data-tooltip="1.08x baseline (YJIT 3.3.0dev)"/>
<line x1="253.0864197530865" y1="498.0" x2="253.0864197530865" y2="502.79999999999995" stroke="#000"/>
<text x="253.0864197530865" y="512.4" fill="#111" font-size="small" text-anchor="end" transform="rotate(-60, 253.0864197530865, 512.4)">
mail
</text>
<rect x="270.4938271604939" y="315.3373539288367" width="11.604938271604937" height="182.66264607116324" fill="#785EF0" data-tooltip="1.08x baseline (YJIT 3.3.0dev)"/>
<line x1="276.2962962962963" y1="498.0" x2="276.2962962962963" y2="502.79999999999995" stroke="#000"/>
<text x="276.2962962962963" y="512.4" fill="#111" font-size="small" text-anchor="end" transform="rotate(-60, 276.2962962962963, 512.4)">
psych-load
</text>
<rect x="293.7037037037037" y="295.0065366945008" width="11.604938271604937" height="202.99346330549912" fill="#785EF0" data-tooltip="1.20x baseline (YJIT 3.3.0dev)"/>
<line x1="299.5061728395061" y1="498.0" x2="299.5061728395061" y2="502.79999999999995" stroke="#000"/>
<text x="299.5061728395061" y="512.4" fill="#111" font-size="small" text-anchor="end" transform="rotate(-60, 299.5061728395061, 512.4)">
railsbench
</text>
<rect x="316.9135802469135" y="235.7627443558388" width="11.604938271604937" height="262.23725564416117" fill="#785EF0" data-tooltip="1.55x baseline (YJIT 3.3.0dev)"/>
<line x1="322.716049382716" y1="498.0" x2="322.716049382716" y2="502.79999999999995" stroke="#000"/>
<text x="322.716049382716" y="512.4" fill="#111" font-size="small" text-anchor="end" transform="rotate(-60, 322.716049382716, 512.4)">
ruby-lsp
</text>
<rect x="340.1234567901233" y="309.2164762169343" width="11.604938271604937" height="188.78352378306562" fill="#785EF0" data-tooltip="1.11x baseline (YJIT 3.3.0dev)"/>
<line x1="345.9259259259258" y1="498.0" x2="345.9259259259258" y2="502.79999999999995" stroke="#000"/>
<text x="345.9259259259258" y="512.4" fill="#111" font-size="small" text-anchor="end" transform="rotate(-60, 345.9259259259258, 512.4)">
sequel
</text>
<rect x="363.3333333333332" y="309.9312174601049" width="11.604938271604937" height="188.06878253989507" fill="#785EF0" data-tooltip="1.11x baseline (YJIT 3.3.0dev)"/>
<line x1="369.1358024691356" y1="498.0" x2="369.1358024691356" y2="502.79999999999995" stroke="#000"/>
<text x="369.1358024691356" y="512.4" fill="#111" font-size="small" text-anchor="end" transform="rotate(-60, 369.1358024691356, 512.4)">
binarytrees
</text>
<rect x="386.543209876543" y="315.6487517666186" width="11.604938271604937" height="182.35124823338137" fill="#785EF0" data-tooltip="1.07x baseline (YJIT 3.3.0dev)"/>
<line x1="392.34567901234544" y1="498.0" x2="392.34567901234544" y2="502.79999999999995" stroke="#000"/>
<text x="392.34567901234544" y="512.4" fill="#111" font-size="small" text-anchor="end" transform="rotate(-60, 392.34567901234544, 512.4)">
erubi
</text>
<rect x="409.75308641975283" y="323.2019204835586" width="11.604938271604937" height="174.79807951644142" fill="#785EF0" data-tooltip="1.03x baseline (YJIT 3.3.0dev)"/>
<line x1="415.5555555555553" y1="498.0" x2="415.5555555555553" y2="502.79999999999995" stroke="#000"/>
<text x="415.5555555555553" y="512.4" fill="#111" font-size="small" text-anchor="end" transform="rotate(-60, 415.5555555555553, 512.4)">
etanni
</text>
<rect x="432.96296296296265" y="322.5103464842508" width="11.604938271604937" height="175.48965351574913" fill="#785EF0" data-tooltip="1.03x baseline (YJIT 3.3.0dev)"/>
<line x1="438.76543209876513" y1="498.0" x2="438.76543209876513" y2="502.79999999999995" stroke="#000"/>
<text x="438.76543209876513" y="512.4" fill="#111" font-size="small" text-anchor="end" transform="rotate(-60, 438.76543209876513, 512.4)">
fannkuchredux
</text>
<rect x="456.17283950617247" y="317.61234880099823" width="11.604938271604937" height="180.3876511990018" fill="#785EF0" data-tooltip="1.06x baseline (YJIT 3.3.0dev)"/>
<line x1="461.97530864197495" y1="498.0" x2="461.97530864197495" y2="502.79999999999995" stroke="#000"/>
<text x="461.97530864197495" y="512.4" fill="#111" font-size="small" text-anchor="end" transform="rotate(-60, 461.97530864197495, 512.4)">
fluentd
</text>
<rect x="479.38271604938234" y="312.71051113194596" width="11.604938271604937" height="185.28948886805404" fill="#785EF0" data-tooltip="1.09x baseline (YJIT 3.3.0dev)"/>
<line x1="485.18518518518476" y1="498.0" x2="485.18518518518476" y2="502.79999999999995" stroke="#000"/>
<text x="485.18518518518476" y="512.4" fill="#111" font-size="small" text-anchor="end" transform="rotate(-60, 485.18518518518476, 512.4)">
graphql
</text>
<rect x="502.59259259259215" y="312.6483400734294" width="11.604938271604937" height="185.3516599265706" fill="#785EF0" data-tooltip="1.09x baseline (YJIT 3.3.0dev)"/>
<line x1="508.3950617283945" y1="498.0" x2="508.3950617283945" y2="502.79999999999995" stroke="#000"/>
<text x="508.3950617283945" y="512.4" fill="#111" font-size="small" text-anchor="end" transform="rotate(-60, 508.3950617283945, 512.4)">
graphql-native
</text>
<rect x="525.802469135802" y="311.24888452695154" width="11.604938271604937" height="186.75111547304832" fill="#785EF0" data-tooltip="1.10x baseline (YJIT 3.3.0dev)"/>
<line x1="531.6049382716044" y1="498.0" x2="531.6049382716044" y2="502.79999999999995" stroke="#000"/>
<text x="531.6049382716044" y="512.4" fill="#111" font-size="small" text-anchor="end" transform="rotate(-60, 531.6049382716044, 512.4)">
lee
</text>
<rect x="549.0123456790118" y="323.4709554468297" width="11.604938271604937" height="174.5290445531703" fill="#785EF0" data-tooltip="1.03x baseline (YJIT 3.3.0dev)"/>
<line x1="554.8148148148142" y1="498.0" x2="554.8148148148142" y2="502.79999999999995" stroke="#000"/>
<text x="554.8148148148142" y="512.4" fill="#111" font-size="small" text-anchor="end" transform="rotate(-60, 554.8148148148142, 512.4)">
nbody
</text>
<rect x="572.2222222222216" y="314.2087226800481" width="11.604938271604937" height="183.79127731995186" fill="#785EF0" data-tooltip="1.08x baseline (YJIT 3.3.0dev)"/>
<line x1="578.024691358024" y1="498.0" x2="578.024691358024" y2="502.79999999999995" stroke="#000"/>
<text x="578.024691358024" y="512.4" fill="#111" font-size="small" text-anchor="end" transform="rotate(-60, 578.024691358024, 512.4)">
optcarrot
</text>
<rect x="595.4320987654314" y="313.3279744255323" width="11.604938271604937" height="184.67202557446768" fill="#785EF0" data-tooltip="1.09x baseline (YJIT 3.3.0dev)"/>
<line x1="601.2345679012338" y1="498.0" x2="601.2345679012338" y2="502.79999999999995" stroke="#000"/>
<text x="601.2345679012338" y="512.4" fill="#111" font-size="small" text-anchor="end" transform="rotate(-60, 601.2345679012338, 512.4)">
rack
</text>
<rect x="618.6419753086412" y="323.10483598760436" width="11.604938271604937" height="174.89516401239555" fill="#785EF0" data-tooltip="1.03x baseline (YJIT 3.3.0dev)"/>
<line x1="624.4444444444437" y1="498.0" x2="624.4444444444437" y2="502.79999999999995" stroke="#000"/>
<text x="624.4444444444437" y="512.4" fill="#111" font-size="small" text-anchor="end" transform="rotate(-60, 624.4444444444437, 512.4)">
ruby-json
</text>
<rect x="641.8518518518512" y="319.85255335495543" width="11.604938271604937" height="178.14744664504454" fill="#785EF0" data-tooltip="1.05x baseline (YJIT 3.3.0dev)"/>
<line x1="647.6543209876535" y1="498.0" x2="647.6543209876535" y2="502.79999999999995" stroke="#000"/>
<text x="647.6543209876535" y="512.4" fill="#111" font-size="small" text-anchor="end" transform="rotate(-60, 647.6543209876535, 512.4)">
rubykon
</text>
<rect x="665.061728395061" y="313.0507744864398" width="11.604938271604937" height="184.9492255135601" fill="#785EF0" data-tooltip="1.09x baseline (YJIT 3.3.0dev)"/>
<line x1="670.8641975308633" y1="498.0" x2="670.8641975308633" y2="502.79999999999995" stroke="#000"/>
<text x="670.8641975308633" y="512.4" fill="#111" font-size="small" text-anchor="end" transform="rotate(-60, 670.8641975308633, 512.4)">
tinygql
</text>
<rect x="688.2716049382708" y="229.40864901516525" width="11.604938271604937" height="268.5913509848347" fill="#785EF0" data-tooltip="1.58x baseline (YJIT 3.3.0dev)"/>
<line x1="694.0740740740732" y1="498.0" x2="694.0740740740732" y2="502.79999999999995" stroke="#000"/>
<text x="694.0740740740732" y="512.4" fill="#111" font-size="small" text-anchor="end" transform="rotate(-60, 694.0740740740732, 512.4)">
30k_ifelse
</text>
<rect x="711.4814814814806" y="289.74130310569194" width="11.604938271604937" height="208.258696894308" fill="#785EF0" data-tooltip="1.23x baseline (YJIT 3.3.0dev)"/>
<line x1="717.283950617283" y1="498.0" x2="717.283950617283" y2="502.79999999999995" stroke="#000"/>
<text x="717.283950617283" y="512.4" fill="#111" font-size="small" text-anchor="end" transform="rotate(-60, 717.283950617283, 512.4)">
30k_methods
</text>
<rect x="734.6913580246904" y="324.4334917976959" width="11.604938271604937" height="173.56650820230408" fill="#785EF0" data-tooltip="1.02x baseline (YJIT 3.3.0dev)"/>
<line x1="740.4938271604929" y1="498.0" x2="740.4938271604929" y2="502.79999999999995" stroke="#000"/>
<text x="740.4938271604929" y="512.4" fill="#111" font-size="small" text-anchor="end" transform="rotate(-60, 740.4938271604929, 512.4)">
cfunc_itself
</text>
<rect x="757.9012345679002" y="324.38686043923985" width="11.604938271604937" height="173.61313956076006" fill="#785EF0" data-tooltip="1.02x baseline (YJIT 3.3.0dev)"/>
<line x1="763.7037037037027" y1="498.0" x2="763.7037037037027" y2="502.79999999999995" stroke="#000"/>
<text x="763.7037037037027" y="512.4" fill="#111" font-size="small" text-anchor="end" transform="rotate(-60, 763.7037037037027, 512.4)">
fib
</text>
<rect x="781.1111111111101" y="324.27774594935994" width="11.604938271604937" height="173.72225405064003" fill="#785EF0" data-tooltip="1.02x baseline (YJIT 3.3.0dev)"/>
<line x1="786.9135802469125" y1="498.0" x2="786.9135802469125" y2="502.79999999999995" stroke="#000"/>
<text x="786.9135802469125" y="512.4" fill="#111" font-size="small" text-anchor="end" transform="rotate(-60, 786.9135802469125, 512.4)">
getivar
</text>
<rect x="804.3209876543199" y="324.2867354452948" width="11.604938271604937" height="173.7132645547051" fill="#785EF0" data-tooltip="1.02x baseline (YJIT 3.3.0dev)"/>
<line x1="810.1234567901223" y1="498.0" x2="810.1234567901223" y2="502.79999999999995" stroke="#000"/>
<text x="810.1234567901223" y="512.4" fill="#111" font-size="small" text-anchor="end" transform="rotate(-60, 810.1234567901223, 512.4)">
keyword_args
</text>
<rect x="827.5308641975297" y="324.2793255080521" width="11.604938271604937" height="173.72067449194782" fill="#785EF0" data-tooltip="1.02x baseline (YJIT 3.3.0dev)"/>
<line x1="833.3333333333321" y1="498.0" x2="833.3333333333321" y2="502.79999999999995" stroke="#000"/>
<text x="833.3333333333321" y="512.4" fill="#111" font-size="small" text-anchor="end" transform="rotate(-60, 833.3333333333321, 512.4)">
respond_to
</text>
<rect x="850.7407407407396" y="324.34615400372127" width="11.604938271604937" height="173.65384599627868" fill="#785EF0" data-tooltip="1.02x baseline (YJIT 3.3.0dev)"/>
<line x1="856.5432098765419" y1="498.0" x2="856.5432098765419" y2="502.79999999999995" stroke="#000"/>
<text x="856.5432098765419" y="512.4" fill="#111" font-size="small" text-anchor="end" transform="rotate(-60, 856.5432098765419, 512.4)">
setivar
</text>
<rect x="873.9506172839494" y="324.3211545585413" width="11.604938271604937" height="173.6788454414586" fill="#785EF0" data-tooltip="1.02x baseline (YJIT 3.3.0dev)"/>
<line x1="879.7530864197518" y1="498.0" x2="879.7530864197518" y2="502.79999999999995" stroke="#000"/>
<text x="879.7530864197518" y="512.4" fill="#111" font-size="small" text-anchor="end" transform="rotate(-60, 879.7530864197518, 512.4)">
setivar_object
</text>
<rect x="897.1604938271593" y="324.38840677362026" width="11.604938271604937" height="173.61159322637965" fill="#785EF0" data-tooltip="1.02x baseline (YJIT 3.3.0dev)"/>
<line x1="902.9629629629617" y1="498.0" x2="902.9629629629617" y2="502.79999999999995" stroke="#000"/>
<text x="902.9629629629617" y="512.4" fill="#111" font-size="small" text-anchor="end" transform="rotate(-60, 902.9629629629617, 512.4)">
setivar_young
</text>
<rect x="920.3703703703691" y="276.40159158792517" width="11.604938271604937" height="221.59840841207475" fill="#785EF0" data-tooltip="1.31x baseline (YJIT 3.3.0dev)"/>
<line x1="926.1728395061715" y1="498.0" x2="926.1728395061715" y2="502.79999999999995" stroke="#000"/>
<text x="926.1728395061715" y="512.4" fill="#111" font-size="small" text-anchor="end" transform="rotate(-60, 926.1728395061715, 512.4)">
str_concat
</text>
<rect x="943.5802469135789" y="324.446396747225" width="11.604938271604937" height="173.55360325277496" fill="#785EF0" data-tooltip="1.02x baseline (YJIT 3.3.0dev)"/>
<line x1="949.3827160493813" y1="498.0" x2="949.3827160493813" y2="502.79999999999995" stroke="#000"/>
<text x="949.3827160493813" y="512.4" fill="#111" font-size="small" text-anchor="end" transform="rotate(-60, 949.3827160493813, 512.4)">
throw
</text>
<rect x="966.7901234567887" y="307.0589464905173" width="11.604938271604937" height="190.94105350948269" fill="#785EF0" data-tooltip="1.13x baseline (YJIT 3.3.0dev)"/>
<line x1="972.5925925925911" y1="498.0" x2="972.5925925925911" y2="502.79999999999995" stroke="#000"/>
<text x="972.5925925925911" y="512.4" fill="#111" font-size="small" text-anchor="end" transform="rotate(-60, 972.5925925925911, 512.4)" font-style="italic">
geomean*
</text>
<line x1="50.0" y1="328.2890352482009" x2="990.0" y2="328.2890352482009" stroke="#648FFF" stroke-width="2"/>
</svg>