<svg viewBox="0 0 1000 600" xmlns="http://www.w3.org/2000/svg" xmlns:xlink="http://www.w3.org/1999/xlink" width="100%" height="100%">

<rect x="50.0" y="30.0" width="940.0" height="467.99999999999994" stroke="#000" fill="#fff"/>
<line x1="42.0" y1="497.9999999999999" x2="50.0" y2="497.9999999999999" stroke="#000"/>
<text x="26.000000000000004" y="497.9999999999999" text-anchor="end" font-weight="bold" font-size="small" fill="#111">
0.0
</text>
<line x1="42.0" y1="407.4995298532244" x2="50.0" y2="407.4995298532244" stroke="#000"/>
<text x="26.000000000000004" y="407.4995298532244" text-anchor="end" font-weight="bold" font-size="small" fill="#111">
5.0
</text>
<line x1="42.0" y1="316.99905970644875" x2="50.0" y2="316.99905970644875" stroke="#000"/>
<text x="26.000000000000004" y="316.99905970644875" text-anchor="end" font-weight="bold" font-size="small" fill="#111">
10.0
</text>
<line x1="42.0" y1="226.49858955967323" x2="50.0" y2="226.49858955967323" stroke="#000"/>
<text x="26.000000000000004" y="226.49858955967323" text-anchor="end" font-weight="bold" font-size="small" fill="#111">
15.0
</text>
<line x1="42.0" y1="135.99811941289767" x2="50.0" y2="135.99811941289767" stroke="#000"/>
<text x="26.000000000000004" y="135.99811941289767" text-anchor="end" font-weight="bold" font-size="small" fill="#111">
20.0
</text>
<line x1="142.75" y1="54.60000000000001" x2="262.75" y2="54.60000000000001" stroke="#648FFF" stroke-width="2"/>
<text x="202.75" y="49.500000000000014" font-size="small" text-anchor="middle" font-weight="bold" fill="#000">
CRuby 3.3.3
</text>
<rect x="354.25" y="35.400000000000006" width="120.0" height="19.2" fill="#785EF0" stroke="none"/>
<text x="414.25" y="49.500000000000014" font-size="small" text-anchor="middle" font-weight="bold" fill="#fff" style="text-shadow: 0 0 1px #000;">
CRuby 3.4.0dev
</text>
<rect x="565.75" y="35.400000000000006" width="120.0" height="19.2" fill="#FFB000" stroke="none"/>
<text x="625.7499999999999" y="49.500000000000014" font-size="small" text-anchor="middle" font-weight="bold" fill="#fff" style="text-shadow: 0 0 1px #000;">
YJIT 3.3.3
</text>
<rect x="777.25" y="35.400000000000006" width="120.0" height="19.2" fill="#DC267F" stroke="none"/>
<text x="837.2499999999999" y="49.500000000000014" font-size="small" text-anchor="middle" font-weight="bold" fill="#fff" style="text-shadow: 0 0 1px #000;">
YJIT 3.4.0dev
</text>
<rect x="66.49122807017544" y="480.5409476783348" width="16.49122807017544" height="17.45905232166509" fill="#785EF0" data-tooltip="0.96x baseline (CRuby 3.4.0dev)"/>
<line x1="66.49122807017544" y1="480.5205575137203" x2="82.98245614035088" y2="480.5205575137203" stroke-dasharray="1,0.5" stroke="#333c"/>
<line x1="66.49122807017544" y1="480.5613378429494" x2="82.98245614035088" y2="480.5613378429494" stroke-dasharray="1,0.5" stroke="#333c"/>
<line x1="74.73684210526315" y1="480.5205575137203" x2="74.73684210526315" y2="480.5613378429494" stroke-dasharray="1,0.5" stroke="#333c"/>
<rect x="82.98245614035088" y="375.8453363567275" width="16.49122807017544" height="122.15466364327244" fill="#FFB000" data-tooltip="6.75x baseline (YJIT 3.3.3)"/>
<line x1="82.98245614035088" y1="375.71766014672806" x2="99.47368421052633" y2="375.71766014672806" stroke-dasharray="1,0.5" stroke="#333c"/>
<line x1="82.98245614035088" y1="375.9730125667269" x2="99.47368421052633" y2="375.9730125667269" stroke-dasharray="1,0.5" stroke="#333c"/>
<line x1="91.2280701754386" y1="375.71766014672806" x2="91.2280701754386" y2="375.9730125667269" stroke-dasharray="1,0.5" stroke="#333c"/>
<rect x="99.47368421052633" y="374.8711416567412" width="16.49122807017544" height="123.12885834325867" fill="#DC267F" data-tooltip="6.80x baseline (YJIT 3.4.0dev)"/>
<line x1="99.47368421052633" y1="374.71996084989803" x2="115.96491228070177" y2="374.71996084989803" stroke-dasharray="1,0.5" stroke="#333c"/>
<line x1="99.47368421052633" y1="375.02232246358443" x2="115.96491228070177" y2="375.02232246358443" stroke-dasharray="1,0.5" stroke="#333c"/>
<line x1="107.71929824561404" y1="374.71996084989803" x2="107.71929824561404" y2="375.02232246358443" stroke-dasharray="1,0.5" stroke="#333c"/>
<line x1="91.22807017543862" y1="498.0" x2="91.22807017543862" y2="502.79999999999995" stroke="#000"/>
<text x="91.22807017543862" y="512.4" fill="#111" font-size="small" text-anchor="end" transform="rotate(-60, 91.22807017543862, 512.4)">
30k_ifelse
</text>
<rect x="132.4561403508772" y="480.4813209799402" width="16.49122807017544" height="17.518679020059775" fill="#785EF0" data-tooltip="0.97x baseline (CRuby 3.4.0dev)"/>
<line x1="132.4561403508772" y1="480.474652538536" x2="148.94736842105266" y2="480.474652538536" stroke-dasharray="1,0.5" stroke="#333c"/>
<line x1="132.4561403508772" y1="480.4879894213444" x2="148.94736842105266" y2="480.4879894213444" stroke-dasharray="1,0.5" stroke="#333c"/>
<line x1="140.70175438596493" y1="480.474652538536" x2="140.70175438596493" y2="480.4879894213444" stroke-dasharray="1,0.5" stroke="#333c"/>
<rect x="148.94736842105266" y="353.8354812012629" width="16.49122807017544" height="144.1645187987371" fill="#FFB000" data-tooltip="7.96x baseline (YJIT 3.3.3)"/>
<line x1="148.94736842105266" y1="353.7483000057497" x2="165.4385964912281" y2="353.7483000057497" stroke-dasharray="1,0.5" stroke="#333c"/>
<line x1="148.94736842105266" y1="353.92266239677605" x2="165.4385964912281" y2="353.92266239677605" stroke-dasharray="1,0.5" stroke="#333c"/>
<line x1="157.19298245614038" y1="353.7483000057497" x2="157.19298245614038" y2="353.92266239677605" stroke-dasharray="1,0.5" stroke="#333c"/>
<rect x="165.4385964912281" y="352.9906405911929" width="16.49122807017544" height="145.009359408807" fill="#DC267F" data-tooltip="8.01x baseline (YJIT 3.4.0dev)"/>
<line x1="165.4385964912281" y1="352.8867890929495" x2="181.92982456140356" y2="352.8867890929495" stroke-dasharray="1,0.5" stroke="#333c"/>
<line x1="165.4385964912281" y1="353.0944920894363" x2="181.92982456140356" y2="353.0944920894363" stroke-dasharray="1,0.5" stroke="#333c"/>
<line x1="173.68421052631584" y1="352.8867890929495" x2="173.68421052631584" y2="353.0944920894363" stroke-dasharray="1,0.5" stroke="#333c"/>
<line x1="157.19298245614038" y1="498.0" x2="157.19298245614038" y2="502.79999999999995" stroke="#000"/>
<text x="157.19298245614038" y="512.4" fill="#111" font-size="small" text-anchor="end" transform="rotate(-60, 157.19298245614038, 512.4)">
30k_methods
</text>
<rect x="198.421052631579" y="481.17668861254793" width="16.49122807017544" height="16.823311387452083" fill="#785EF0" data-tooltip="0.93x baseline (CRuby 3.4.0dev)"/>
<line x1="198.421052631579" y1="481.15908198038227" x2="214.91228070175444" y2="481.15908198038227" stroke-dasharray="1,0.5" stroke="#333c"/>
<line x1="198.421052631579" y1="481.1942952447136" x2="214.91228070175444" y2="481.1942952447136" stroke-dasharray="1,0.5" stroke="#333c"/>
<line x1="206.6666666666667" y1="481.15908198038227" x2="206.6666666666667" y2="481.1942952447136" stroke-dasharray="1,0.5" stroke="#333c"/>
<rect x="214.91228070175444" y="421.95989560913154" width="16.49122807017544" height="76.04010439086841" fill="#FFB000" data-tooltip="4.20x baseline (YJIT 3.3.3)"/>
<line x1="214.91228070175444" y1="416.48140823772735" x2="231.4035087719299" y2="416.48140823772735" stroke-dasharray="1,0.5" stroke="#333c"/>
<line x1="214.91228070175444" y1="427.4383829805358" x2="231.4035087719299" y2="427.4383829805358" stroke-dasharray="1,0.5" stroke="#333c"/>
<line x1="223.15789473684217" y1="416.48140823772735" x2="223.15789473684217" y2="427.4383829805358" stroke-dasharray="1,0.5" stroke="#333c"/>
<rect x="231.4035087719299" y="414.652231035228" width="16.49122807017544" height="83.34776896477192" fill="#DC267F" data-tooltip="4.60x baseline (YJIT 3.4.0dev)"/>
<line x1="231.4035087719299" y1="407.6711080403754" x2="247.89473684210535" y2="407.6711080403754" stroke-dasharray="1,0.5" stroke="#333c"/>
<line x1="231.4035087719299" y1="421.6333540300806" x2="247.89473684210535" y2="421.6333540300806" stroke-dasharray="1,0.5" stroke="#333c"/>
<line x1="239.64912280701762" y1="407.6711080403754" x2="239.64912280701762" y2="421.6333540300806" stroke-dasharray="1,0.5" stroke="#333c"/>
<line x1="223.15789473684217" y1="498.0" x2="223.15789473684217" y2="502.79999999999995" stroke="#000"/>
<text x="223.15789473684217" y="512.4" fill="#111" font-size="small" text-anchor="end" transform="rotate(-60, 223.15789473684217, 512.4)">
cfunc_itself
</text>
<rect x="264.38596491228077" y="481.83137596626773" width="16.49122807017544" height="16.16862403373221" fill="#785EF0" data-tooltip="0.89x baseline (CRuby 3.4.0dev)"/>
<line x1="264.38596491228077" y1="481.80569472237624" x2="280.8771929824562" y2="481.80569472237624" stroke-dasharray="1,0.5" stroke="#333c"/>
<line x1="264.38596491228077" y1="481.85705721015927" x2="280.8771929824562" y2="481.85705721015927" stroke-dasharray="1,0.5" stroke="#333c"/>
<line x1="272.6315789473685" y1="481.80569472237624" x2="272.6315789473685" y2="481.85705721015927" stroke-dasharray="1,0.5" stroke="#333c"/>
<rect x="280.8771929824562" y="397.51959997981146" width="16.49122807017544" height="100.48040002018847" fill="#FFB000" data-tooltip="5.55x baseline (YJIT 3.3.3)"/>
<line x1="280.8771929824562" y1="397.30441986996857" x2="297.3684210526317" y2="397.30441986996857" stroke-dasharray="1,0.5" stroke="#333c"/>
<line x1="280.8771929824562" y1="397.7347800896544" x2="297.3684210526317" y2="397.7347800896544" stroke-dasharray="1,0.5" stroke="#333c"/>
<line x1="289.12280701754395" y1="397.30441986996857" x2="289.12280701754395" y2="397.7347800896544" stroke-dasharray="1,0.5" stroke="#333c"/>
<rect x="297.3684210526317" y="397.2280864888793" width="16.49122807017544" height="100.77191351112064" fill="#DC267F" data-tooltip="5.57x baseline (YJIT 3.4.0dev)"/>
<line x1="297.3684210526317" y1="397.07947923735264" x2="313.8596491228071" y2="397.07947923735264" stroke-dasharray="1,0.5" stroke="#333c"/>
<line x1="297.3684210526317" y1="397.37669374040587" x2="313.8596491228071" y2="397.37669374040587" stroke-dasharray="1,0.5" stroke="#333c"/>
<line x1="305.6140350877194" y1="397.07947923735264" x2="305.6140350877194" y2="397.37669374040587" stroke-dasharray="1,0.5" stroke="#333c"/>
<line x1="289.12280701754395" y1="498.0" x2="289.12280701754395" y2="502.79999999999995" stroke="#000"/>
<text x="289.12280701754395" y="512.4" fill="#111" font-size="small" text-anchor="end" transform="rotate(-60, 289.12280701754395, 512.4)">
fib
</text>
<rect x="330.3508771929826" y="484.09598186300326" width="16.49122807017544" height="13.904018136996712" fill="#785EF0" data-tooltip="0.77x baseline (CRuby 3.4.0dev)"/>
<line x1="330.3508771929826" y1="484.07694658426766" x2="346.84210526315803" y2="484.07694658426766" stroke-dasharray="1,0.5" stroke="#333c"/>
<line x1="330.3508771929826" y1="484.11501714173886" x2="346.84210526315803" y2="484.11501714173886" stroke-dasharray="1,0.5" stroke="#333c"/>
<line x1="338.5964912280703" y1="484.07694658426766" x2="338.5964912280703" y2="484.11501714173886" stroke-dasharray="1,0.5" stroke="#333c"/>
<rect x="346.84210526315803" y="406.8349603088289" width="16.49122807017544" height="91.16503969117107" fill="#FFB000" data-tooltip="5.04x baseline (YJIT 3.3.3)"/>
<line x1="346.84210526315803" y1="361.7266129996515" x2="363.3333333333334" y2="361.7266129996515" stroke-dasharray="1,0.5" stroke="#333c"/>
<line x1="346.84210526315803" y1="451.9433076180063" x2="363.3333333333334" y2="451.9433076180063" stroke-dasharray="1,0.5" stroke="#333c"/>
<line x1="355.0877192982457" y1="361.7266129996515" x2="355.0877192982457" y2="451.9433076180063" stroke-dasharray="1,0.5" stroke="#333c"/>
<rect x="363.3333333333334" y="402.46710484471794" width="16.49122807017544" height="95.53289515528208" fill="#DC267F" data-tooltip="5.28x baseline (YJIT 3.4.0dev)"/>
<line x1="363.3333333333334" y1="334.68372897783917" x2="379.8245614035089" y2="334.68372897783917" stroke-dasharray="1,0.5" stroke="#333c"/>
<line x1="363.3333333333334" y1="470.2504807115967" x2="379.8245614035089" y2="470.2504807115967" stroke-dasharray="1,0.5" stroke="#333c"/>
<line x1="371.57894736842115" y1="334.68372897783917" x2="371.57894736842115" y2="470.2504807115967" stroke-dasharray="1,0.5" stroke="#333c"/>
<line x1="355.0877192982457" y1="498.0" x2="355.0877192982457" y2="502.79999999999995" stroke="#000"/>
<text x="355.0877192982457" y="512.4" fill="#111" font-size="small" text-anchor="end" transform="rotate(-60, 355.0877192982457, 512.4)">
getivar
</text>
<rect x="396.31578947368433" y="481.64658542668246" width="16.49122807017544" height="16.35341457331743" fill="#785EF0" data-tooltip="0.90x baseline (CRuby 3.4.0dev)"/>
<line x1="396.31578947368433" y1="481.6356334265349" x2="412.8070175438598" y2="481.6356334265349" stroke-dasharray="1,0.5" stroke="#333c"/>
<line x1="396.31578947368433" y1="481.65753742683006" x2="412.8070175438598" y2="481.65753742683006" stroke-dasharray="1,0.5" stroke="#333c"/>
<line x1="404.56140350877206" y1="481.6356334265349" x2="404.56140350877206" y2="481.65753742683006" stroke-dasharray="1,0.5" stroke="#333c"/>
<rect x="412.8070175438598" y="363.7920324377106" width="16.49122807017544" height="134.20796756228938" fill="#FFB000" data-tooltip="7.41x baseline (YJIT 3.3.3)"/>
<line x1="412.8070175438598" y1="356.03922098154396" x2="429.29824561403524" y2="356.03922098154396" stroke-dasharray="1,0.5" stroke="#333c"/>
<line x1="412.8070175438598" y1="371.5448438938772" x2="429.29824561403524" y2="371.5448438938772" stroke-dasharray="1,0.5" stroke="#333c"/>
<line x1="421.0526315789475" y1="356.03922098154396" x2="421.0526315789475" y2="371.5448438938772" stroke-dasharray="1,0.5" stroke="#333c"/>
<rect x="429.29824561403524" y="323.7310994635643" width="16.49122807017544" height="174.2689005364356" fill="#DC267F" data-tooltip="9.63x baseline (YJIT 3.4.0dev)"/>
<line x1="429.29824561403524" y1="311.4923190461845" x2="445.7894736842107" y2="311.4923190461845" stroke-dasharray="1,0.5" stroke="#333c"/>
<line x1="429.29824561403524" y1="335.9698798809441" x2="445.7894736842107" y2="335.9698798809441" stroke-dasharray="1,0.5" stroke="#333c"/>
<line x1="437.54385964912296" y1="311.4923190461845" x2="437.54385964912296" y2="335.9698798809441" stroke-dasharray="1,0.5" stroke="#333c"/>
<line x1="421.0526315789475" y1="498.0" x2="421.0526315789475" y2="502.79999999999995" stroke="#000"/>
<text x="421.0526315789475" y="512.4" fill="#111" font-size="small" text-anchor="end" transform="rotate(-60, 421.0526315789475, 512.4)">
keyword_args
</text>
<rect x="462.28070175438614" y="480.9977180898891" width="16.49122807017544" height="17.00228191011085" fill="#785EF0" data-tooltip="0.94x baseline (CRuby 3.4.0dev)"/>
<line x1="462.28070175438614" y1="480.96024424370125" x2="478.7719298245616" y2="480.96024424370125" stroke-dasharray="1,0.5" stroke="#333c"/>
<line x1="462.28070175438614" y1="481.03519193607684" x2="478.7719298245616" y2="481.03519193607684" stroke-dasharray="1,0.5" stroke="#333c"/>
<line x1="470.52631578947387" y1="480.96024424370125" x2="470.52631578947387" y2="481.03519193607684" stroke-dasharray="1,0.5" stroke="#333c"/>
<rect x="478.7719298245616" y="168.11059675099398" width="16.49122807017544" height="329.88940324900597" fill="#FFB000" data-tooltip="18.23x baseline (YJIT 3.3.3)"/>
<line x1="478.7719298245616" y1="140.10503744349865" x2="495.263157894737" y2="140.10503744349865" stroke-dasharray="1,0.5" stroke="#333c"/>
<line x1="478.7719298245616" y1="196.1161560584893" x2="495.263157894737" y2="196.1161560584893" stroke-dasharray="1,0.5" stroke="#333c"/>
<line x1="487.01754385964927" y1="140.10503744349865" x2="487.01754385964927" y2="196.1161560584893" stroke-dasharray="1,0.5" stroke="#333c"/>
<rect x="495.263157894737" y="100.19999999999999" width="16.49122807017544" height="397.79999999999995" fill="#DC267F" data-tooltip="21.98x baseline (YJIT 3.4.0dev)"/>
<line x1="495.263157894737" y1="53.48034159507277" x2="511.7543859649124" y2="53.48034159507277" stroke-dasharray="1,0.5" stroke="#333c"/>
<line x1="495.263157894737" y1="146.91965840492722" x2="511.7543859649124" y2="146.91965840492722" stroke-dasharray="1,0.5" stroke="#333c"/>
<line x1="503.50877192982466" y1="53.48034159507277" x2="503.50877192982466" y2="146.91965840492722" stroke-dasharray="1,0.5" stroke="#333c"/>
<line x1="487.01754385964927" y1="498.0" x2="487.01754385964927" y2="502.79999999999995" stroke="#000"/>
<text x="487.01754385964927" y="512.4" fill="#111" font-size="small" text-anchor="end" transform="rotate(-60, 487.01754385964927, 512.4)">
respond_to
</text>
<rect x="528.2456140350879" y="482.2772916034887" width="16.49122807017544" height="15.722708396511305" fill="#785EF0" data-tooltip="0.87x baseline (CRuby 3.4.0dev)"/>
<line x1="528.2456140350879" y1="482.2297707211068" x2="544.7368421052633" y2="482.2297707211068" stroke-dasharray="1,0.5" stroke="#333c"/>
<line x1="528.2456140350879" y1="482.32481248587067" x2="544.7368421052633" y2="482.32481248587067" stroke-dasharray="1,0.5" stroke="#333c"/>
<line x1="536.4912280701756" y1="482.2297707211068" x2="536.4912280701756" y2="482.32481248587067" stroke-dasharray="1,0.5" stroke="#333c"/>
<rect x="544.7368421052633" y="448.73374113666983" width="16.49122807017544" height="49.2662588633301" fill="#FFB000" data-tooltip="2.72x baseline (YJIT 3.3.3)"/>
<line x1="544.7368421052633" y1="448.58268206797845" x2="561.2280701754387" y2="448.58268206797845" stroke-dasharray="1,0.5" stroke="#333c"/>
<line x1="544.7368421052633" y1="448.8848002053613" x2="561.2280701754387" y2="448.8848002053613" stroke-dasharray="1,0.5" stroke="#333c"/>
<line x1="552.982456140351" y1="448.58268206797845" x2="552.982456140351" y2="448.8848002053613" stroke-dasharray="1,0.5" stroke="#333c"/>
<rect x="561.2280701754387" y="429.4320613875335" width="16.49122807017544" height="68.56793861246636" fill="#DC267F" data-tooltip="3.79x baseline (YJIT 3.4.0dev)"/>
<line x1="561.2280701754387" y1="429.34476856137474" x2="577.7192982456141" y2="429.34476856137474" stroke-dasharray="1,0.5" stroke="#333c"/>
<line x1="561.2280701754387" y1="429.51935421369234" x2="577.7192982456141" y2="429.51935421369234" stroke-dasharray="1,0.5" stroke="#333c"/>
<line x1="569.4736842105265" y1="429.34476856137474" x2="569.4736842105265" y2="429.51935421369234" stroke-dasharray="1,0.5" stroke="#333c"/>
<line x1="552.982456140351" y1="498.0" x2="552.982456140351" y2="502.79999999999995" stroke="#000"/>
<text x="552.982456140351" y="512.4" fill="#111" font-size="small" text-anchor="end" transform="rotate(-60, 552.982456140351, 512.4)">
ruby-xor
</text>
<rect x="594.2105263157896" y="480.1148770212685" width="16.49122807017544" height="17.88512297873138" fill="#785EF0" data-tooltip="0.99x baseline (CRuby 3.4.0dev)"/>
<line x1="594.2105263157896" y1="479.9763259222012" x2="610.701754385965" y2="479.9763259222012" stroke-dasharray="1,0.5" stroke="#333c"/>
<line x1="594.2105263157896" y1="480.2534281203358" x2="610.701754385965" y2="480.2534281203358" stroke-dasharray="1,0.5" stroke="#333c"/>
<line x1="602.4561403508774" y1="479.9763259222012" x2="602.4561403508774" y2="480.2534281203358" stroke-dasharray="1,0.5" stroke="#333c"/>
<rect x="610.701754385965" y="395.3851345391556" width="16.49122807017544" height="102.61486546084436" fill="#FFB000" data-tooltip="5.67x baseline (YJIT 3.3.3)"/>
<line x1="610.701754385965" y1="354.10754102068006" x2="627.1929824561405" y2="354.10754102068006" stroke-dasharray="1,0.5" stroke="#333c"/>
<line x1="610.701754385965" y1="436.6627280576311" x2="627.1929824561405" y2="436.6627280576311" stroke-dasharray="1,0.5" stroke="#333c"/>
<line x1="618.9473684210528" y1="354.10754102068006" x2="618.9473684210528" y2="436.6627280576311" stroke-dasharray="1,0.5" stroke="#333c"/>
<rect x="627.1929824561405" y="342.19089088541926" width="16.49122807017544" height="155.80910911458074" fill="#DC267F" data-tooltip="8.61x baseline (YJIT 3.4.0dev)"/>
<line x1="627.1929824561405" y1="254.34905291555566" x2="643.684210526316" y2="254.34905291555566" stroke-dasharray="1,0.5" stroke="#333c"/>
<line x1="627.1929824561405" y1="430.0327288552828" x2="643.684210526316" y2="430.0327288552828" stroke-dasharray="1,0.5" stroke="#333c"/>
<line x1="635.4385964912283" y1="254.34905291555566" x2="635.4385964912283" y2="430.0327288552828" stroke-dasharray="1,0.5" stroke="#333c"/>
<line x1="618.9473684210528" y1="498.0" x2="618.9473684210528" y2="502.79999999999995" stroke="#000"/>
<text x="618.9473684210528" y="512.4" fill="#111" font-size="small" text-anchor="end" transform="rotate(-60, 618.9473684210528, 512.4)">
setivar
</text>
<rect x="660.1754385964914" y="479.47501355658034" width="16.49122807017544" height="18.524986443419582" fill="#785EF0" data-tooltip="1.02x baseline (CRuby 3.4.0dev)"/>
<line x1="660.1754385964914" y1="479.41750102463857" x2="676.6666666666669" y2="479.41750102463857" stroke-dasharray="1,0.5" stroke="#333c"/>
<line x1="660.1754385964914" y1="479.53252608852205" x2="676.6666666666669" y2="479.53252608852205" stroke-dasharray="1,0.5" stroke="#333c"/>
<line x1="668.4210526315792" y1="479.41750102463857" x2="668.4210526315792" y2="479.53252608852205" stroke-dasharray="1,0.5" stroke="#333c"/>
<rect x="676.6666666666669" y="453.1257479124643" width="16.49122807017544" height="44.87425208753567" fill="#FFB000" data-tooltip="2.48x baseline (YJIT 3.3.3)"/>
<line x1="676.6666666666669" y1="441.57550105752176" x2="693.1578947368423" y2="441.57550105752176" stroke-dasharray="1,0.5" stroke="#333c"/>
<line x1="676.6666666666669" y1="464.67599476740685" x2="693.1578947368423" y2="464.67599476740685" stroke-dasharray="1,0.5" stroke="#333c"/>
<line x1="684.9122807017546" y1="441.57550105752176" x2="684.9122807017546" y2="464.67599476740685" stroke-dasharray="1,0.5" stroke="#333c"/>
<rect x="693.1578947368423" y="452.29712099011283" width="16.49122807017544" height="45.70287900988706" fill="#DC267F" data-tooltip="2.53x baseline (YJIT 3.4.0dev)"/>
<line x1="693.1578947368423" y1="440.78444115190723" x2="709.6491228070178" y2="440.78444115190723" stroke-dasharray="1,0.5" stroke="#333c"/>
<line x1="693.1578947368423" y1="463.8098008283185" x2="709.6491228070178" y2="463.8098008283185" stroke-dasharray="1,0.5" stroke="#333c"/>
<line x1="701.40350877193" y1="440.78444115190723" x2="701.40350877193" y2="463.8098008283185" stroke-dasharray="1,0.5" stroke="#333c"/>
<line x1="684.9122807017546" y1="498.0" x2="684.9122807017546" y2="502.79999999999995" stroke="#000"/>
<text x="684.9122807017546" y="512.4" fill="#111" font-size="small" text-anchor="end" transform="rotate(-60, 684.9122807017546, 512.4)">
setivar_object
</text>
<rect x="726.1403508771932" y="479.32914326389556" width="16.49122807017544" height="18.67085673610435" fill="#785EF0" data-tooltip="1.03x baseline (CRuby 3.4.0dev)"/>
<line x1="726.1403508771932" y1="479.0985061531933" x2="742.6315789473687" y2="479.0985061531933" stroke-dasharray="1,0.5" stroke="#333c"/>
<line x1="726.1403508771932" y1="479.5597803745979" x2="742.6315789473687" y2="479.5597803745979" stroke-dasharray="1,0.5" stroke="#333c"/>
<line x1="734.3859649122809" y1="479.0985061531933" x2="734.3859649122809" y2="479.5597803745979" stroke-dasharray="1,0.5" stroke="#333c"/>
<rect x="742.6315789473687" y="452.9464358741605" width="16.49122807017544" height="45.053564125839515" fill="#FFB000" data-tooltip="2.49x baseline (YJIT 3.3.3)"/>
<line x1="742.6315789473687" y1="441.29948186978004" x2="759.1228070175441" y2="441.29948186978004" stroke-dasharray="1,0.5" stroke="#333c"/>
<line x1="742.6315789473687" y1="464.5933898785409" x2="759.1228070175441" y2="464.5933898785409" stroke-dasharray="1,0.5" stroke="#333c"/>
<line x1="750.8771929824563" y1="441.29948186978004" x2="750.8771929824563" y2="464.5933898785409" stroke-dasharray="1,0.5" stroke="#333c"/>
<rect x="759.1228070175441" y="451.6966229782232" width="16.49122807017544" height="46.30337702177675" fill="#DC267F" data-tooltip="2.56x baseline (YJIT 3.4.0dev)"/>
<line x1="759.1228070175441" y1="439.78686156777917" x2="775.6140350877196" y2="439.78686156777917" stroke-dasharray="1,0.5" stroke="#333c"/>
<line x1="759.1228070175441" y1="463.6063843886672" x2="775.6140350877196" y2="463.6063843886672" stroke-dasharray="1,0.5" stroke="#333c"/>
<line x1="767.3684210526318" y1="439.78686156777917" x2="767.3684210526318" y2="463.6063843886672" stroke-dasharray="1,0.5" stroke="#333c"/>
<line x1="750.8771929824563" y1="498.0" x2="750.8771929824563" y2="502.79999999999995" stroke="#000"/>
<text x="750.8771929824563" y="512.4" fill="#111" font-size="small" text-anchor="end" transform="rotate(-60, 750.8771929824563, 512.4)">
setivar_young
</text>
<rect x="792.105263157895" y="481.2197486275465" width="16.49122807017544" height="16.780251372453456" fill="#785EF0" data-tooltip="0.93x baseline (CRuby 3.4.0dev)"/>
<line x1="792.105263157895" y1="480.9782981000296" x2="808.5964912280705" y2="480.9782981000296" stroke-dasharray="1,0.5" stroke="#333c"/>
<line x1="792.105263157895" y1="481.46119915506347" x2="808.5964912280705" y2="481.46119915506347" stroke-dasharray="1,0.5" stroke="#333c"/>
<line x1="800.3508771929827" y1="480.9782981000296" x2="800.3508771929827" y2="481.46119915506347" stroke-dasharray="1,0.5" stroke="#333c"/>
<rect x="808.5964912280705" y="465.57610545567286" width="16.49122807017544" height="32.423894544327126" fill="#FFB000" data-tooltip="1.79x baseline (YJIT 3.3.3)"/>
<line x1="808.5964912280705" y1="465.1222877959312" x2="825.0877192982458" y2="465.1222877959312" stroke-dasharray="1,0.5" stroke="#333c"/>
<line x1="808.5964912280705" y1="466.02992311541453" x2="825.0877192982458" y2="466.02992311541453" stroke-dasharray="1,0.5" stroke="#333c"/>
<line x1="816.8421052631581" y1="465.1222877959312" x2="816.8421052631581" y2="466.02992311541453" stroke-dasharray="1,0.5" stroke="#333c"/>
<rect x="825.0877192982458" y="470.2315018594706" width="16.49122807017544" height="27.76849814052933" fill="#DC267F" data-tooltip="1.53x baseline (YJIT 3.4.0dev)"/>
<line x1="825.0877192982458" y1="469.68839304123577" x2="841.5789473684213" y2="469.68839304123577" stroke-dasharray="1,0.5" stroke="#333c"/>
<line x1="825.0877192982458" y1="470.7746106777055" x2="841.5789473684213" y2="470.7746106777055" stroke-dasharray="1,0.5" stroke="#333c"/>
<line x1="833.3333333333336" y1="469.68839304123577" x2="833.3333333333336" y2="470.7746106777055" stroke-dasharray="1,0.5" stroke="#333c"/>
<line x1="816.8421052631581" y1="498.0" x2="816.8421052631581" y2="502.79999999999995" stroke="#000"/>
<text x="816.8421052631581" y="512.4" fill="#111" font-size="small" text-anchor="end" transform="rotate(-60, 816.8421052631581, 512.4)">
str_concat
</text>
<rect x="858.0701754385967" y="484.01287158942205" width="16.49122807017544" height="13.98712841057785" fill="#785EF0" data-tooltip="0.77x baseline (CRuby 3.4.0dev)"/>
<line x1="858.0701754385967" y1="483.92914653234453" x2="874.5614035087722" y2="483.92914653234453" stroke-dasharray="1,0.5" stroke="#333c"/>
<line x1="858.0701754385967" y1="484.09659664649956" x2="874.5614035087722" y2="484.09659664649956" stroke-dasharray="1,0.5" stroke="#333c"/>
<line x1="866.3157894736845" y1="483.92914653234453" x2="866.3157894736845" y2="484.09659664649956" stroke-dasharray="1,0.5" stroke="#333c"/>
<rect x="874.5614035087722" y="474.4139268879988" width="16.49122807017544" height="23.5860731120012" fill="#FFB000" data-tooltip="1.30x baseline (YJIT 3.3.3)"/>
<line x1="874.5614035087722" y1="474.32859429993823" x2="891.0526315789476" y2="474.32859429993823" stroke-dasharray="1,0.5" stroke="#333c"/>
<line x1="874.5614035087722" y1="474.4992594760594" x2="891.0526315789476" y2="474.4992594760594" stroke-dasharray="1,0.5" stroke="#333c"/>
<line x1="882.80701754386" y1="474.32859429993823" x2="882.80701754386" y2="474.4992594760594" stroke-dasharray="1,0.5" stroke="#333c"/>
<rect x="891.0526315789476" y="480.8749601812127" width="16.49122807017544" height="17.12503981878718" fill="#DC267F" data-tooltip="0.95x baseline (YJIT 3.4.0dev)"/>
<line x1="891.0526315789476" y1="480.8207212285691" x2="907.5438596491231" y2="480.8207212285691" stroke-dasharray="1,0.5" stroke="#333c"/>
<line x1="891.0526315789476" y1="480.92919913385634" x2="907.5438596491231" y2="480.92919913385634" stroke-dasharray="1,0.5" stroke="#333c"/>
<line x1="899.2982456140354" y1="480.8207212285691" x2="899.2982456140354" y2="480.92919913385634" stroke-dasharray="1,0.5" stroke="#333c"/>
<line x1="882.80701754386" y1="498.0" x2="882.80701754386" y2="502.79999999999995" stroke="#000"/>
<text x="882.80701754386" y="512.4" fill="#111" font-size="small" text-anchor="end" transform="rotate(-60, 882.80701754386, 512.4)">
throw
</text>
<rect x="924.0350877192985" y="481.38698185205516" width="16.49122807017544" height="16.61301814794472" fill="#785EF0" data-tooltip="0.92x baseline (CRuby 3.4.0dev)"/>
<rect x="940.526315789474" y="419.5754765543245" width="16.49122807017544" height="78.42452344567545" fill="#FFB000" data-tooltip="4.33x baseline (YJIT 3.3.3)"/>
<rect x="957.0175438596494" y="413.80859079484964" width="16.49122807017544" height="84.19140920515034" fill="#DC267F" data-tooltip="4.65x baseline (YJIT 3.4.0dev)"/>
<line x1="948.7719298245618" y1="498.0" x2="948.7719298245618" y2="502.79999999999995" stroke="#000"/>
<text x="948.7719298245618" y="512.4" fill="#111" font-size="small" text-anchor="end" transform="rotate(-60, 948.7719298245618, 512.4)" font-style="italic">
geomean*
</text>
<line x1="50.0" y1="479.8999059706448" x2="990.0" y2="479.8999059706448" stroke="#648FFF" stroke-width="2"/>
<rect x="68.31622807017544" y="466.38094767833485" width="17.85" height="7.2" transform="rotate(-60, 76.73684210526316, 473.0409476783349)" fill="#fffa"/>
<text x="68.49122807017544" y="473.0409476783349" fill="#111" font-size="0.5em" text-anchor="start" textLength="17.5" transform="rotate(-60, 76.73684210526316, 473.0409476783349)" style="text-shadow: 0 0 1px #fff;">
0.96
</text>
<rect x="84.8074561403509" y="361.68533635672753" width="17.85" height="7.2" transform="rotate(-60, 93.2280701754386, 368.3453363567275)" fill="#fffa"/>
<text x="84.98245614035088" y="368.3453363567275" fill="#111" font-size="0.5em" text-anchor="start" textLength="17.5" transform="rotate(-60, 93.2280701754386, 368.3453363567275)" style="text-shadow: 0 0 1px #fff;">
6.75
</text>
<rect x="101.29868421052633" y="360.71114165674123" width="17.85" height="7.2" transform="rotate(-60, 109.71929824561406, 367.37114165674126)" fill="#fffa"/>
<text x="101.47368421052633" y="367.37114165674126" fill="#111" font-size="0.5em" text-anchor="start" textLength="17.5" transform="rotate(-60, 109.71929824561406, 367.37114165674126)" style="text-shadow: 0 0 1px #fff;">
6.80
</text>
<rect x="134.28114035087722" y="466.32132097994025" width="17.85" height="7.2" transform="rotate(-60, 142.70175438596493, 472.9813209799402)" fill="#fffa"/>
<text x="134.4561403508772" y="472.9813209799402" fill="#111" font-size="0.5em" text-anchor="start" textLength="17.5" transform="rotate(-60, 142.70175438596493, 472.9813209799402)" style="text-shadow: 0 0 1px #fff;">
0.97
</text>
<rect x="150.77236842105265" y="339.67548120126287" width="17.85" height="7.2" transform="rotate(-60, 159.19298245614038, 346.3354812012629)" fill="#fffa"/>
<text x="150.94736842105266" y="346.3354812012629" fill="#111" font-size="0.5em" text-anchor="start" textLength="17.5" transform="rotate(-60, 159.19298245614038, 346.3354812012629)" style="text-shadow: 0 0 1px #fff;">
7.96
</text>
<rect x="167.2635964912281" y="338.83064059119295" width="17.85" height="7.2" transform="rotate(-60, 175.68421052631584, 345.49064059119297)" fill="#fffa"/>
<text x="167.4385964912281" y="345.49064059119297" fill="#111" font-size="0.5em" text-anchor="start" textLength="17.5" transform="rotate(-60, 175.68421052631584, 345.49064059119297)" style="text-shadow: 0 0 1px #fff;">
8.01
</text>
<rect x="200.246052631579" y="467.01668861254797" width="17.85" height="7.2" transform="rotate(-60, 208.6666666666667, 473.67668861254793)" fill="#fffa"/>
<text x="200.421052631579" y="473.67668861254793" fill="#111" font-size="0.5em" text-anchor="start" textLength="17.5" transform="rotate(-60, 208.6666666666667, 473.67668861254793)" style="text-shadow: 0 0 1px #fff;">
0.93
</text>
<rect x="216.73728070175443" y="407.79989560913157" width="17.85" height="7.2" transform="rotate(-60, 225.15789473684217, 414.4598956091316)" fill="#fffa"/>
<text x="216.91228070175444" y="414.4598956091316" fill="#111" font-size="0.5em" text-anchor="start" textLength="17.5" transform="rotate(-60, 225.15789473684217, 414.4598956091316)" style="text-shadow: 0 0 1px #fff;">
4.20
</text>
<rect x="233.22850877192988" y="400.49223103522803" width="17.85" height="7.2" transform="rotate(-60, 241.64912280701762, 407.152231035228)" fill="#fffa"/>
<text x="233.4035087719299" y="407.152231035228" fill="#111" font-size="0.5em" text-anchor="start" textLength="17.5" transform="rotate(-60, 241.64912280701762, 407.152231035228)" style="text-shadow: 0 0 1px #fff;">
4.60
</text>
<rect x="266.2109649122808" y="467.67137596626776" width="17.85" height="7.2" transform="rotate(-60, 274.6315789473685, 474.3313759662678)" fill="#fffa"/>
<text x="266.38596491228077" y="474.3313759662678" fill="#111" font-size="0.5em" text-anchor="start" textLength="17.5" transform="rotate(-60, 274.6315789473685, 474.3313759662678)" style="text-shadow: 0 0 1px #fff;">
0.89
</text>
<rect x="282.70219298245627" y="383.3595999798115" width="17.85" height="7.2" transform="rotate(-60, 291.12280701754395, 390.0195999798115)" fill="#fffa"/>
<text x="282.8771929824562" y="390.0195999798115" fill="#111" font-size="0.5em" text-anchor="start" textLength="17.5" transform="rotate(-60, 291.12280701754395, 390.0195999798115)" style="text-shadow: 0 0 1px #fff;">
5.55
</text>
<rect x="299.1934210526317" y="383.0680864888793" width="17.85" height="7.2" transform="rotate(-60, 307.6140350877194, 389.7280864888793)" fill="#fffa"/>
<text x="299.3684210526317" y="389.7280864888793" fill="#111" font-size="0.5em" text-anchor="start" textLength="17.5" transform="rotate(-60, 307.6140350877194, 389.7280864888793)" style="text-shadow: 0 0 1px #fff;">
5.57
</text>
<rect x="332.17587719298257" y="469.9359818630033" width="17.85" height="7.2" transform="rotate(-60, 340.5964912280703, 476.59598186300326)" fill="#fffa"/>
<text x="332.3508771929826" y="476.59598186300326" fill="#111" font-size="0.5em" text-anchor="start" textLength="17.5" transform="rotate(-60, 340.5964912280703, 476.59598186300326)" style="text-shadow: 0 0 1px #fff;">
0.77
</text>
<rect x="348.667105263158" y="392.67496030882893" width="17.85" height="7.2" transform="rotate(-60, 357.08771929824576, 399.33496030882895)" fill="#fffa"/>
<text x="348.84210526315803" y="399.33496030882895" fill="#111" font-size="0.5em" text-anchor="start" textLength="17.5" transform="rotate(-60, 357.08771929824576, 399.33496030882895)" style="text-shadow: 0 0 1px #fff;">
5.04
</text>
<rect x="365.1583333333335" y="388.30710484471797" width="17.85" height="7.2" transform="rotate(-60, 373.57894736842115, 394.96710484471794)" fill="#fffa"/>
<text x="365.3333333333334" y="394.96710484471794" fill="#111" font-size="0.5em" text-anchor="start" textLength="17.5" transform="rotate(-60, 373.57894736842115, 394.96710484471794)" style="text-shadow: 0 0 1px #fff;">
5.28
</text>
<rect x="398.1407894736844" y="467.4865854266825" width="17.85" height="7.2" transform="rotate(-60, 406.56140350877206, 474.1465854266825)" fill="#fffa"/>
<text x="398.31578947368433" y="474.1465854266825" fill="#111" font-size="0.5em" text-anchor="start" textLength="17.5" transform="rotate(-60, 406.56140350877206, 474.1465854266825)" style="text-shadow: 0 0 1px #fff;">
0.90
</text>
<rect x="414.63201754385983" y="349.6320324377106" width="17.85" height="7.2" transform="rotate(-60, 423.0526315789475, 356.2920324377106)" fill="#fffa"/>
<text x="414.8070175438598" y="356.2920324377106" fill="#111" font-size="0.5em" text-anchor="start" textLength="17.5" transform="rotate(-60, 423.0526315789475, 356.2920324377106)" style="text-shadow: 0 0 1px #fff;">
7.41
</text>
<rect x="431.1232456140352" y="309.57109946356434" width="17.85" height="7.2" transform="rotate(-60, 439.54385964912296, 316.23109946356436)" fill="#fffa"/>
<text x="431.29824561403524" y="316.23109946356436" fill="#111" font-size="0.5em" text-anchor="start" textLength="17.5" transform="rotate(-60, 439.54385964912296, 316.23109946356436)" style="text-shadow: 0 0 1px #fff;">
9.63
</text>
<rect x="464.10570175438613" y="466.83771808988905" width="17.85" height="7.2" transform="rotate(-60, 472.52631578947387, 473.4977180898891)" fill="#fffa"/>
<text x="464.28070175438614" y="473.4977180898891" fill="#111" font-size="0.5em" text-anchor="start" textLength="17.5" transform="rotate(-60, 472.52631578947387, 473.4977180898891)" style="text-shadow: 0 0 1px #fff;">
0.94
</text>
<rect x="480.5969298245616" y="153.95059675099398" width="17.85" height="7.2" transform="rotate(-60, 489.0175438596493, 160.61059675099398)" fill="#fffa"/>
<text x="480.7719298245616" y="160.61059675099398" fill="#111" font-size="0.5em" text-anchor="start" textLength="17.5" transform="rotate(-60, 489.0175438596493, 160.61059675099398)" style="text-shadow: 0 0 1px #fff;">
18.23
</text>
<rect x="497.08815789473704" y="86.03999999999998" width="17.85" height="7.2" transform="rotate(-60, 505.50877192982466, 92.69999999999999)" fill="#fffa"/>
<text x="497.263157894737" y="92.69999999999999" fill="#111" font-size="0.5em" text-anchor="start" textLength="17.5" transform="rotate(-60, 505.50877192982466, 92.69999999999999)" style="text-shadow: 0 0 1px #fff;">
21.98
</text>
<rect x="530.0706140350878" y="468.11729160348875" width="17.85" height="7.2" transform="rotate(-60, 538.4912280701756, 474.7772916034887)" fill="#fffa"/>
<text x="530.2456140350879" y="474.7772916034887" fill="#111" font-size="0.5em" text-anchor="start" textLength="17.5" transform="rotate(-60, 538.4912280701756, 474.7772916034887)" style="text-shadow: 0 0 1px #fff;">
0.87
</text>
<rect x="546.5618421052633" y="434.57374113666987" width="17.85" height="7.2" transform="rotate(-60, 554.982456140351, 441.2337411366699)" fill="#fffa"/>
<text x="546.7368421052633" y="441.2337411366699" fill="#111" font-size="0.5em" text-anchor="start" textLength="17.5" transform="rotate(-60, 554.982456140351, 441.2337411366699)" style="text-shadow: 0 0 1px #fff;">
2.72
</text>
<rect x="563.0530701754387" y="415.27206138753354" width="17.85" height="7.2" transform="rotate(-60, 571.4736842105265, 421.93206138753357)" fill="#fffa"/>
<text x="563.2280701754387" y="421.93206138753357" fill="#111" font-size="0.5em" text-anchor="start" textLength="17.5" transform="rotate(-60, 571.4736842105265, 421.93206138753357)" style="text-shadow: 0 0 1px #fff;">
3.79
</text>
<rect x="596.0355263157896" y="465.95487702126854" width="17.85" height="7.2" transform="rotate(-60, 604.4561403508774, 472.61487702126857)" fill="#fffa"/>
<text x="596.2105263157896" y="472.61487702126857" fill="#111" font-size="0.5em" text-anchor="start" textLength="17.5" transform="rotate(-60, 604.4561403508774, 472.61487702126857)" style="text-shadow: 0 0 1px #fff;">
0.99
</text>
<rect x="612.5267543859651" y="381.22513453915565" width="17.85" height="7.2" transform="rotate(-60, 620.9473684210528, 387.8851345391556)" fill="#fffa"/>
<text x="612.701754385965" y="387.8851345391556" fill="#111" font-size="0.5em" text-anchor="start" textLength="17.5" transform="rotate(-60, 620.9473684210528, 387.8851345391556)" style="text-shadow: 0 0 1px #fff;">
5.67
</text>
<rect x="629.0179824561405" y="328.0308908854193" width="17.85" height="7.2" transform="rotate(-60, 637.4385964912283, 334.69089088541926)" fill="#fffa"/>
<text x="629.1929824561405" y="334.69089088541926" fill="#111" font-size="0.5em" text-anchor="start" textLength="17.5" transform="rotate(-60, 637.4385964912283, 334.69089088541926)" style="text-shadow: 0 0 1px #fff;">
8.61
</text>
<rect x="662.0004385964913" y="465.3150135565803" width="17.85" height="7.2" transform="rotate(-60, 670.4210526315792, 471.97501355658034)" fill="#fffa"/>
<text x="662.1754385964914" y="471.97501355658034" fill="#111" font-size="0.5em" text-anchor="start" textLength="17.5" transform="rotate(-60, 670.4210526315792, 471.97501355658034)" style="text-shadow: 0 0 1px #fff;">
1.02
</text>
<rect x="678.4916666666668" y="438.96574791246434" width="17.85" height="7.2" transform="rotate(-60, 686.9122807017546, 445.62574791246436)" fill="#fffa"/>
<text x="678.6666666666669" y="445.62574791246436" fill="#111" font-size="0.5em" text-anchor="start" textLength="17.5" transform="rotate(-60, 686.9122807017546, 445.62574791246436)" style="text-shadow: 0 0 1px #fff;">
2.48
</text>
<rect x="694.9828947368422" y="438.13712099011286" width="17.85" height="7.2" transform="rotate(-60, 703.40350877193, 444.7971209901129)" fill="#fffa"/>
<text x="695.1578947368423" y="444.7971209901129" fill="#111" font-size="0.5em" text-anchor="start" textLength="17.5" transform="rotate(-60, 703.40350877193, 444.7971209901129)" style="text-shadow: 0 0 1px #fff;">
2.53
</text>
<rect x="727.9653508771931" y="465.1691432638956" width="17.85" height="7.2" transform="rotate(-60, 736.3859649122809, 471.8291432638956)" fill="#fffa"/>
<text x="728.1403508771932" y="471.8291432638956" fill="#111" font-size="0.5em" text-anchor="start" textLength="17.5" transform="rotate(-60, 736.3859649122809, 471.8291432638956)" style="text-shadow: 0 0 1px #fff;">
1.03
</text>
<rect x="744.4565789473686" y="438.78643587416053" width="17.85" height="7.2" transform="rotate(-60, 752.8771929824563, 445.4464358741605)" fill="#fffa"/>
<text x="744.6315789473687" y="445.4464358741605" fill="#111" font-size="0.5em" text-anchor="start" textLength="17.5" transform="rotate(-60, 752.8771929824563, 445.4464358741605)" style="text-shadow: 0 0 1px #fff;">
2.49
</text>
<rect x="760.947807017544" y="437.53662297822325" width="17.85" height="7.2" transform="rotate(-60, 769.3684210526318, 444.1966229782232)" fill="#fffa"/>
<text x="761.1228070175441" y="444.1966229782232" fill="#111" font-size="0.5em" text-anchor="start" textLength="17.5" transform="rotate(-60, 769.3684210526318, 444.1966229782232)" style="text-shadow: 0 0 1px #fff;">
2.56
</text>
<rect x="793.930263157895" y="467.0597486275465" width="17.85" height="7.2" transform="rotate(-60, 802.3508771929827, 473.71974862754655)" fill="#fffa"/>
<text x="794.105263157895" y="473.71974862754655" fill="#111" font-size="0.5em" text-anchor="start" textLength="17.5" transform="rotate(-60, 802.3508771929827, 473.71974862754655)" style="text-shadow: 0 0 1px #fff;">
0.93
</text>
<rect x="810.4214912280704" y="451.4161054556729" width="17.85" height="7.2" transform="rotate(-60, 818.8421052631581, 458.07610545567286)" fill="#fffa"/>
<text x="810.5964912280705" y="458.07610545567286" fill="#111" font-size="0.5em" text-anchor="start" textLength="17.5" transform="rotate(-60, 818.8421052631581, 458.07610545567286)" style="text-shadow: 0 0 1px #fff;">
1.79
</text>
<rect x="826.9127192982459" y="456.07150185947063" width="17.85" height="7.2" transform="rotate(-60, 835.3333333333336, 462.73150185947065)" fill="#fffa"/>
<text x="827.0877192982458" y="462.73150185947065" fill="#111" font-size="0.5em" text-anchor="start" textLength="17.5" transform="rotate(-60, 835.3333333333336, 462.73150185947065)" style="text-shadow: 0 0 1px #fff;">
1.53
</text>
<rect x="859.8951754385968" y="469.8528715894221" width="17.85" height="7.2" transform="rotate(-60, 868.3157894736845, 476.51287158942205)" fill="#fffa"/>
<text x="860.0701754385967" y="476.51287158942205" fill="#111" font-size="0.5em" text-anchor="start" textLength="17.5" transform="rotate(-60, 868.3157894736845, 476.51287158942205)" style="text-shadow: 0 0 1px #fff;">
0.77
</text>
<rect x="876.3864035087722" y="460.25392688799883" width="17.85" height="7.2" transform="rotate(-60, 884.80701754386, 466.91392688799885)" fill="#fffa"/>
<text x="876.5614035087722" y="466.91392688799885" fill="#111" font-size="0.5em" text-anchor="start" textLength="17.5" transform="rotate(-60, 884.80701754386, 466.91392688799885)" style="text-shadow: 0 0 1px #fff;">
1.30
</text>
<rect x="892.8776315789477" y="466.71496018121275" width="17.85" height="7.2" transform="rotate(-60, 901.2982456140354, 473.3749601812127)" fill="#fffa"/>
<text x="893.0526315789476" y="473.3749601812127" fill="#111" font-size="0.5em" text-anchor="start" textLength="17.5" transform="rotate(-60, 901.2982456140354, 473.3749601812127)" style="text-shadow: 0 0 1px #fff;">
0.95
</text>
<rect x="925.8600877192985" y="467.2269818520552" width="17.85" height="7.2" transform="rotate(-60, 934.2807017543863, 473.8869818520552)" fill="#fffa"/>
<text x="926.0350877192985" y="473.8869818520552" fill="#111" font-size="0.5em" text-anchor="start" textLength="17.5" transform="rotate(-60, 934.2807017543863, 473.8869818520552)" style="text-shadow: 0 0 1px #fff;">
0.92
</text>
<rect x="942.3513157894739" y="405.4154765543245" width="17.85" height="7.2" transform="rotate(-60, 950.7719298245618, 412.07547655432455)" fill="#fffa"/>
<text x="942.526315789474" y="412.07547655432455" fill="#111" font-size="0.5em" text-anchor="start" textLength="17.5" transform="rotate(-60, 950.7719298245618, 412.07547655432455)" style="text-shadow: 0 0 1px #fff;">
4.33
</text>
<rect x="958.8425438596494" y="399.64859079484967" width="17.85" height="7.2" transform="rotate(-60, 967.2631578947371, 406.30859079484964)" fill="#fffa"/>
<text x="959.0175438596494" y="406.30859079484964" fill="#111" font-size="0.5em" text-anchor="start" textLength="17.5" transform="rotate(-60, 967.2631578947371, 406.30859079484964)" style="text-shadow: 0 0 1px #fff;">
4.65
</text>
</svg>