<svg viewBox="0 0 1000 600" xmlns="http://www.w3.org/2000/svg" xmlns:xlink="http://www.w3.org/1999/xlink" width="100%" height="100%">

<rect x="50.0" y="30.0" width="940.0" height="467.99999999999994" stroke="#000" fill="#fff"/>
<line x1="42.0" y1="497.9999999999999" x2="50.0" y2="497.9999999999999" stroke="#000"/>
<text x="26.000000000000004" y="497.9999999999999" text-anchor="end" font-weight="bold" font-size="small" fill="#111">
0.0
</text>
<line x1="42.0" y1="451.71336119539694" x2="50.0" y2="451.71336119539694" stroke="#000"/>
<text x="26.000000000000004" y="451.71336119539694" text-anchor="end" font-weight="bold" font-size="small" fill="#111">
0.2
</text>
<line x1="42.0" y1="405.426722390794" x2="50.0" y2="405.426722390794" stroke="#000"/>
<text x="26.000000000000004" y="405.426722390794" text-anchor="end" font-weight="bold" font-size="small" fill="#111">
0.4
</text>
<line x1="42.0" y1="359.14008358619105" x2="50.0" y2="359.14008358619105" stroke="#000"/>
<text x="26.000000000000004" y="359.14008358619105" text-anchor="end" font-weight="bold" font-size="small" fill="#111">
0.6
</text>
<line x1="42.0" y1="312.8534447815881" x2="50.0" y2="312.8534447815881" stroke="#000"/>
<text x="26.000000000000004" y="312.8534447815881" text-anchor="end" font-weight="bold" font-size="small" fill="#111">
0.8
</text>
<line x1="42.0" y1="266.5668059769851" x2="50.0" y2="266.5668059769851" stroke="#000"/>
<text x="26.000000000000004" y="266.5668059769851" text-anchor="end" font-weight="bold" font-size="small" fill="#111">
1.0
</text>
<line x1="42.0" y1="220.2801671723822" x2="50.0" y2="220.2801671723822" stroke="#000"/>
<text x="26.000000000000004" y="220.2801671723822" text-anchor="end" font-weight="bold" font-size="small" fill="#111">
1.2
</text>
<line x1="42.0" y1="173.9935283677792" x2="50.0" y2="173.9935283677792" stroke="#000"/>
<text x="26.000000000000004" y="173.9935283677792" text-anchor="end" font-weight="bold" font-size="small" fill="#111">
1.4
</text>
<line x1="42.0" y1="127.70688956317629" x2="50.0" y2="127.70688956317629" stroke="#000"/>
<text x="26.000000000000004" y="127.70688956317629" text-anchor="end" font-weight="bold" font-size="small" fill="#111">
1.6
</text>
<line x1="248.5" y1="54.60000000000001" x2="368.5" y2="54.60000000000001" stroke="#648FFF" stroke-width="2"/>
<text x="308.5" y="49.500000000000014" font-size="small" text-anchor="middle" font-weight="bold" fill="#000">
CRuby 3.4.0dev
</text>
<rect x="671.5" y="35.400000000000006" width="120.0" height="19.2" fill="#785EF0" stroke="none"/>
<text x="731.4999999999999" y="49.500000000000014" font-size="small" text-anchor="middle" font-weight="bold" fill="#fff" style="text-shadow: 0 0 1px #000;">
YJIT 3.4.0dev
</text>
<rect x="60.804597701149426" y="243.1964284039504" width="10.804597701149424" height="254.80357159604955" fill="#785EF0" data-tooltip="1.10x baseline (YJIT 3.4.0dev)"/>
<line x1="66.20689655172414" y1="498.0" x2="66.20689655172414" y2="502.79999999999995" stroke="#000"/>
<text x="66.20689655172414" y="512.4" fill="#111" font-size="small" text-anchor="end" transform="rotate(-60, 66.20689655172414, 512.4)">
activerecord
</text>
<rect x="82.41379310344827" y="257.48903229086403" width="10.804597701149424" height="240.5109677091359" fill="#785EF0" data-tooltip="1.04x baseline (YJIT 3.4.0dev)"/>
<line x1="87.81609195402298" y1="498.0" x2="87.81609195402298" y2="502.79999999999995" stroke="#000"/>
<text x="87.81609195402298" y="512.4" fill="#111" font-size="small" text-anchor="end" transform="rotate(-60, 87.81609195402298, 512.4)">
chunky-png
</text>
<rect x="104.02298850574714" y="247.98741124987987" width="10.804597701149424" height="250.01258875012007" fill="#785EF0" data-tooltip="1.08x baseline (YJIT 3.4.0dev)"/>
<line x1="109.42528735632185" y1="498.0" x2="109.42528735632185" y2="502.79999999999995" stroke="#000"/>
<text x="109.42528735632185" y="512.4" fill="#111" font-size="small" text-anchor="end" transform="rotate(-60, 109.42528735632185, 512.4)">
erubi-rails
</text>
<rect x="125.63218390804597" y="100.19999999999999" width="10.804597701149424" height="397.79999999999995" fill="#785EF0" data-tooltip="1.72x baseline (YJIT 3.4.0dev)"/>
<line x1="131.03448275862067" y1="498.0" x2="131.03448275862067" y2="502.79999999999995" stroke="#000"/>
<text x="131.03448275862067" y="512.4" fill="#111" font-size="small" text-anchor="end" transform="rotate(-60, 131.03448275862067, 512.4)">
hexapdf
</text>
<rect x="147.2413793103448" y="242.81667699654463" width="10.804597701149424" height="255.1833230034553" fill="#785EF0" data-tooltip="1.10x baseline (YJIT 3.4.0dev)"/>
<line x1="152.6436781609195" y1="498.0" x2="152.6436781609195" y2="502.79999999999995" stroke="#000"/>
<text x="152.6436781609195" y="512.4" fill="#111" font-size="small" text-anchor="end" transform="rotate(-60, 152.6436781609195, 512.4)">
liquid-c
</text>
<rect x="168.85057471264363" y="249.42653188040006" width="10.804597701149424" height="248.57346811959988" fill="#785EF0" data-tooltip="1.07x baseline (YJIT 3.4.0dev)"/>
<line x1="174.25287356321834" y1="498.0" x2="174.25287356321834" y2="502.79999999999995" stroke="#000"/>
<text x="174.25287356321834" y="512.4" fill="#111" font-size="small" text-anchor="end" transform="rotate(-60, 174.25287356321834, 512.4)">
liquid-compile
</text>
<rect x="190.45977011494247" y="238.77332497411066" width="10.804597701149424" height="259.2266750258893" fill="#785EF0" data-tooltip="1.12x baseline (YJIT 3.4.0dev)"/>
<line x1="195.86206896551715" y1="498.0" x2="195.86206896551715" y2="502.79999999999995" stroke="#000"/>
<text x="195.86206896551715" y="512.4" fill="#111" font-size="small" text-anchor="end" transform="rotate(-60, 195.86206896551715, 512.4)">
liquid-render
</text>
<rect x="212.0689655172413" y="223.0064099915329" width="10.804597701149424" height="274.99359000846704" fill="#785EF0" data-tooltip="1.19x baseline (YJIT 3.4.0dev)"/>
<line x1="217.471264367816" y1="498.0" x2="217.471264367816" y2="502.79999999999995" stroke="#000"/>
<text x="217.471264367816" y="512.4" fill="#111" font-size="small" text-anchor="end" transform="rotate(-60, 217.471264367816, 512.4)">
lobsters
</text>
<rect x="233.67816091954015" y="258.1507597645198" width="10.804597701149424" height="239.84924023548012" fill="#785EF0" data-tooltip="1.04x baseline (YJIT 3.4.0dev)"/>
<line x1="239.08045977011483" y1="498.0" x2="239.08045977011483" y2="502.79999999999995" stroke="#000"/>
<text x="239.08045977011483" y="512.4" fill="#111" font-size="small" text-anchor="end" transform="rotate(-60, 239.08045977011483, 512.4)">
mail
</text>
<rect x="255.28735632183896" y="254.01385657529357" width="10.804597701149424" height="243.98614342470637" fill="#785EF0" data-tooltip="1.05x baseline (YJIT 3.4.0dev)"/>
<line x1="260.6896551724137" y1="498.0" x2="260.6896551724137" y2="502.79999999999995" stroke="#000"/>
<text x="260.6896551724137" y="512.4" fill="#111" font-size="small" text-anchor="end" transform="rotate(-60, 260.6896551724137, 512.4)">
psych-load
</text>
<rect x="276.89655172413785" y="233.39042720147555" width="10.804597701149424" height="264.60957279852437" fill="#785EF0" data-tooltip="1.14x baseline (YJIT 3.4.0dev)"/>
<line x1="282.2988505747126" y1="498.0" x2="282.2988505747126" y2="502.79999999999995" stroke="#000"/>
<text x="282.2988505747126" y="512.4" fill="#111" font-size="small" text-anchor="end" transform="rotate(-60, 282.2988505747126, 512.4)">
railsbench
</text>
<rect x="298.50574712643675" y="181.44806361170583" width="10.804597701149424" height="316.55193638829417" fill="#785EF0" data-tooltip="1.37x baseline (YJIT 3.4.0dev)"/>
<line x1="303.9080459770115" y1="498.0" x2="303.9080459770115" y2="502.79999999999995" stroke="#000"/>
<text x="303.9080459770115" y="512.4" fill="#111" font-size="small" text-anchor="end" transform="rotate(-60, 303.9080459770115, 512.4)">
ruby-lsp
</text>
<rect x="320.11494252873564" y="246.4307020896773" width="10.804597701149424" height="251.56929791032263" fill="#785EF0" data-tooltip="1.09x baseline (YJIT 3.4.0dev)"/>
<line x1="325.51724137931035" y1="498.0" x2="325.51724137931035" y2="502.79999999999995" stroke="#000"/>
<text x="325.51724137931035" y="512.4" fill="#111" font-size="small" text-anchor="end" transform="rotate(-60, 325.51724137931035, 512.4)">
sequel
</text>
<rect x="341.72413793103453" y="281.79267400481507" width="10.804597701149424" height="216.2073259951849" fill="#785EF0" data-tooltip="0.93x baseline (YJIT 3.4.0dev)"/>
<line x1="347.12643678160924" y1="498.0" x2="347.12643678160924" y2="502.79999999999995" stroke="#000"/>
<text x="347.12643678160924" y="512.4" fill="#111" font-size="small" text-anchor="end" transform="rotate(-60, 347.12643678160924, 512.4)">
binarytrees
</text>
<rect x="363.33333333333337" y="252.11571184880063" width="10.804597701149424" height="245.8842881511993" fill="#785EF0" data-tooltip="1.06x baseline (YJIT 3.4.0dev)"/>
<line x1="368.73563218390814" y1="498.0" x2="368.73563218390814" y2="502.79999999999995" stroke="#000"/>
<text x="368.73563218390814" y="512.4" fill="#111" font-size="small" text-anchor="end" transform="rotate(-60, 368.73563218390814, 512.4)">
erubi
</text>
<rect x="384.94252873563227" y="264.60746120686997" width="10.804597701149424" height="233.39253879313" fill="#785EF0" data-tooltip="1.01x baseline (YJIT 3.4.0dev)"/>
<line x1="390.34482758620703" y1="498.0" x2="390.34482758620703" y2="502.79999999999995" stroke="#000"/>
<text x="390.34482758620703" y="512.4" fill="#111" font-size="small" text-anchor="end" transform="rotate(-60, 390.34482758620703, 512.4)">
etanni
</text>
<rect x="406.55172413793116" y="264.2223947989997" width="10.804597701149424" height="233.77760520100026" fill="#785EF0" data-tooltip="1.01x baseline (YJIT 3.4.0dev)"/>
<line x1="411.9540229885059" y1="498.0" x2="411.9540229885059" y2="502.79999999999995" stroke="#000"/>
<text x="411.9540229885059" y="512.4" fill="#111" font-size="small" text-anchor="end" transform="rotate(-60, 411.9540229885059, 512.4)">
fannkuchredux
</text>
<rect x="428.16091954023005" y="247.2163090456829" width="10.804597701149424" height="250.78369095431705" fill="#785EF0" data-tooltip="1.08x baseline (YJIT 3.4.0dev)"/>
<line x1="433.5632183908048" y1="498.0" x2="433.5632183908048" y2="502.79999999999995" stroke="#000"/>
<text x="433.5632183908048" y="512.4" fill="#111" font-size="small" text-anchor="end" transform="rotate(-60, 433.5632183908048, 512.4)">
fluentd
</text>
<rect x="449.77011494252895" y="247.37601236309803" width="10.804597701149424" height="250.62398763690192" fill="#785EF0" data-tooltip="1.08x baseline (YJIT 3.4.0dev)"/>
<line x1="455.1724137931037" y1="498.0" x2="455.1724137931037" y2="502.79999999999995" stroke="#000"/>
<text x="455.1724137931037" y="512.4" fill="#111" font-size="small" text-anchor="end" transform="rotate(-60, 455.1724137931037, 512.4)">
graphql
</text>
<rect x="471.37931034482784" y="252.26515773623254" width="10.804597701149424" height="245.7348422637674" fill="#785EF0" data-tooltip="1.06x baseline (YJIT 3.4.0dev)"/>
<line x1="476.78160919540255" y1="498.0" x2="476.78160919540255" y2="502.79999999999995" stroke="#000"/>
<text x="476.78160919540255" y="512.4" fill="#111" font-size="small" text-anchor="end" transform="rotate(-60, 476.78160919540255, 512.4)">
graphql-native
</text>
<rect x="492.98850574712674" y="254.47162345004136" width="10.804597701149424" height="243.52837654995858" fill="#785EF0" data-tooltip="1.05x baseline (YJIT 3.4.0dev)"/>
<line x1="498.39080459770133" y1="498.0" x2="498.39080459770133" y2="502.79999999999995" stroke="#000"/>
<text x="498.39080459770133" y="512.4" fill="#111" font-size="small" text-anchor="end" transform="rotate(-60, 498.39080459770133, 512.4)">
lee
</text>
<rect x="514.5977011494255" y="265.4928061475114" width="10.804597701149424" height="232.50719385248854" fill="#785EF0" data-tooltip="1.00x baseline (YJIT 3.4.0dev)"/>
<line x1="520.0000000000002" y1="498.0" x2="520.0000000000002" y2="502.79999999999995" stroke="#000"/>
<text x="520.0000000000002" y="512.4" fill="#111" font-size="small" text-anchor="end" transform="rotate(-60, 520.0000000000002, 512.4)">
matmul
</text>
<rect x="536.2068965517243" y="264.6654633436283" width="10.804597701149424" height="233.33453665637165" fill="#785EF0" data-tooltip="1.01x baseline (YJIT 3.4.0dev)"/>
<line x1="541.6091954022991" y1="498.0" x2="541.6091954022991" y2="502.79999999999995" stroke="#000"/>
<text x="541.6091954022991" y="512.4" fill="#111" font-size="small" text-anchor="end" transform="rotate(-60, 541.6091954022991, 512.4)">
nbody
</text>
<rect x="557.816091954023" y="264.6182677953907" width="10.804597701149424" height="233.38173220460922" fill="#785EF0" data-tooltip="1.01x baseline (YJIT 3.4.0dev)"/>
<line x1="563.2183908045978" y1="498.0" x2="563.2183908045978" y2="502.79999999999995" stroke="#000"/>
<text x="563.2183908045978" y="512.4" fill="#111" font-size="small" text-anchor="end" transform="rotate(-60, 563.2183908045978, 512.4)">
nqueens
</text>
<rect x="579.4252873563219" y="250.8466993512028" width="10.804597701149424" height="247.15330064879714" fill="#785EF0" data-tooltip="1.07x baseline (YJIT 3.4.0dev)"/>
<line x1="584.8275862068965" y1="498.0" x2="584.8275862068965" y2="502.79999999999995" stroke="#000"/>
<text x="584.8275862068965" y="512.4" fill="#111" font-size="small" text-anchor="end" transform="rotate(-60, 584.8275862068965, 512.4)">
optcarrot
</text>
<rect x="601.0344827586206" y="253.83600536051628" width="10.804597701149424" height="244.16399463948366" fill="#785EF0" data-tooltip="1.06x baseline (YJIT 3.4.0dev)"/>
<line x1="606.4367816091954" y1="498.0" x2="606.4367816091954" y2="502.79999999999995" stroke="#000"/>
<text x="606.4367816091954" y="512.4" fill="#111" font-size="small" text-anchor="end" transform="rotate(-60, 606.4367816091954, 512.4)">
rack
</text>
<rect x="622.6436781609194" y="263.6538380113543" width="10.804597701149424" height="234.3461619886456" fill="#785EF0" data-tooltip="1.01x baseline (YJIT 3.4.0dev)"/>
<line x1="628.0459770114941" y1="498.0" x2="628.0459770114941" y2="502.79999999999995" stroke="#000"/>
<text x="628.0459770114941" y="512.4" fill="#111" font-size="small" text-anchor="end" transform="rotate(-60, 628.0459770114941, 512.4)">
ruby-json
</text>
<rect x="644.2528735632181" y="262.76033897002765" width="10.804597701149424" height="235.2396610299723" fill="#785EF0" data-tooltip="1.02x baseline (YJIT 3.4.0dev)"/>
<line x1="649.6551724137929" y1="498.0" x2="649.6551724137929" y2="502.79999999999995" stroke="#000"/>
<text x="649.6551724137929" y="512.4" fill="#111" font-size="small" text-anchor="end" transform="rotate(-60, 649.6551724137929, 512.4)">
rubykon
</text>
<rect x="665.8620689655169" y="262.7545011620647" width="10.804597701149424" height="235.24549883793526" fill="#785EF0" data-tooltip="1.02x baseline (YJIT 3.4.0dev)"/>
<line x1="671.2643678160916" y1="498.0" x2="671.2643678160916" y2="502.79999999999995" stroke="#000"/>
<text x="671.2643678160916" y="512.4" fill="#111" font-size="small" text-anchor="end" transform="rotate(-60, 671.2643678160916, 512.4)">
sudoku
</text>
<rect x="687.4712643678157" y="250.08159229484784" width="10.804597701149424" height="247.9184077051521" fill="#785EF0" data-tooltip="1.07x baseline (YJIT 3.4.0dev)"/>
<line x1="692.8735632183905" y1="498.0" x2="692.8735632183905" y2="502.79999999999995" stroke="#000"/>
<text x="692.8735632183905" y="512.4" fill="#111" font-size="small" text-anchor="end" transform="rotate(-60, 692.8735632183905, 512.4)">
tinygql
</text>
<rect x="709.0804597701144" y="149.60369721285426" width="10.804597701149424" height="348.3963027871457" fill="#785EF0" data-tooltip="1.51x baseline (YJIT 3.4.0dev)"/>
<line x1="714.4827586206892" y1="498.0" x2="714.4827586206892" y2="502.79999999999995" stroke="#000"/>
<text x="714.4827586206892" y="512.4" fill="#111" font-size="small" text-anchor="end" transform="rotate(-60, 714.4827586206892, 512.4)">
30k_ifelse
</text>
<rect x="730.6896551724133" y="221.74783705124392" width="10.804597701149424" height="276.252162948756" fill="#785EF0" data-tooltip="1.19x baseline (YJIT 3.4.0dev)"/>
<line x1="736.091954022988" y1="498.0" x2="736.091954022988" y2="502.79999999999995" stroke="#000"/>
<text x="736.091954022988" y="512.4" fill="#111" font-size="small" text-anchor="end" transform="rotate(-60, 736.091954022988, 512.4)">
30k_methods
</text>
<rect x="752.298850574712" y="264.8986608000362" width="10.804597701149424" height="233.10133919996372" fill="#785EF0" data-tooltip="1.01x baseline (YJIT 3.4.0dev)"/>
<line x1="757.7011494252868" y1="498.0" x2="757.7011494252868" y2="502.79999999999995" stroke="#000"/>
<text x="757.7011494252868" y="512.4" fill="#111" font-size="small" text-anchor="end" transform="rotate(-60, 757.7011494252868, 512.4)">
cfunc_itself
</text>
<rect x="773.9080459770108" y="264.9719371054636" width="10.804597701149424" height="233.02806289453633" fill="#785EF0" data-tooltip="1.01x baseline (YJIT 3.4.0dev)"/>
<line x1="779.3103448275856" y1="498.0" x2="779.3103448275856" y2="502.79999999999995" stroke="#000"/>
<text x="779.3103448275856" y="512.4" fill="#111" font-size="small" text-anchor="end" transform="rotate(-60, 779.3103448275856, 512.4)">
fib
</text>
<rect x="795.5172413793096" y="264.9867576202948" width="10.804597701149424" height="233.0132423797052" fill="#785EF0" data-tooltip="1.01x baseline (YJIT 3.4.0dev)"/>
<line x1="800.9195402298843" y1="498.0" x2="800.9195402298843" y2="502.79999999999995" stroke="#000"/>
<text x="800.9195402298843" y="512.4" fill="#111" font-size="small" text-anchor="end" transform="rotate(-60, 800.9195402298843, 512.4)">
getivar
</text>
<rect x="817.1264367816084" y="264.97711031111436" width="10.804597701149424" height="233.02288968888556" fill="#785EF0" data-tooltip="1.01x baseline (YJIT 3.4.0dev)"/>
<line x1="822.528735632183" y1="498.0" x2="822.528735632183" y2="502.79999999999995" stroke="#000"/>
<text x="822.528735632183" y="512.4" fill="#111" font-size="small" text-anchor="end" transform="rotate(-60, 822.528735632183, 512.4)">
keyword_args
</text>
<rect x="838.7356321839071" y="265.0312302820457" width="10.804597701149424" height="232.96876971795422" fill="#785EF0" data-tooltip="1.01x baseline (YJIT 3.4.0dev)"/>
<line x1="844.1379310344819" y1="498.0" x2="844.1379310344819" y2="502.79999999999995" stroke="#000"/>
<text x="844.1379310344819" y="512.4" fill="#111" font-size="small" text-anchor="end" transform="rotate(-60, 844.1379310344819, 512.4)">
respond_to
</text>
<rect x="860.344827586206" y="264.9867576202948" width="10.804597701149424" height="233.0132423797052" fill="#785EF0" data-tooltip="1.01x baseline (YJIT 3.4.0dev)"/>
<line x1="865.7471264367806" y1="498.0" x2="865.7471264367806" y2="502.79999999999995" stroke="#000"/>
<text x="865.7471264367806" y="512.4" fill="#111" font-size="small" text-anchor="end" transform="rotate(-60, 865.7471264367806, 512.4)">
setivar
</text>
<rect x="881.9540229885047" y="264.9722423435251" width="10.804597701149424" height="233.02775765647482" fill="#785EF0" data-tooltip="1.01x baseline (YJIT 3.4.0dev)"/>
<line x1="887.3563218390794" y1="498.0" x2="887.3563218390794" y2="502.79999999999995" stroke="#000"/>
<text x="887.3563218390794" y="512.4" fill="#111" font-size="small" text-anchor="end" transform="rotate(-60, 887.3563218390794, 512.4)">
setivar_object
</text>
<rect x="903.5632183908034" y="264.9722423435251" width="10.804597701149424" height="233.02775765647482" fill="#785EF0" data-tooltip="1.01x baseline (YJIT 3.4.0dev)"/>
<line x1="908.9655172413782" y1="498.0" x2="908.9655172413782" y2="502.79999999999995" stroke="#000"/>
<text x="908.9655172413782" y="512.4" fill="#111" font-size="small" text-anchor="end" transform="rotate(-60, 908.9655172413782, 512.4)">
setivar_young
</text>
<rect x="925.1724137931022" y="196.62798995844904" width="10.804597701149424" height="301.37201004155094" fill="#785EF0" data-tooltip="1.30x baseline (YJIT 3.4.0dev)"/>
<line x1="930.574712643677" y1="498.0" x2="930.574712643677" y2="502.79999999999995" stroke="#000"/>
<text x="930.574712643677" y="512.4" fill="#111" font-size="small" text-anchor="end" transform="rotate(-60, 930.574712643677, 512.4)">
str_concat
</text>
<rect x="946.781609195401" y="264.9867576202948" width="10.804597701149424" height="233.0132423797052" fill="#785EF0" data-tooltip="1.01x baseline (YJIT 3.4.0dev)"/>
<line x1="952.1839080459757" y1="498.0" x2="952.1839080459757" y2="502.79999999999995" stroke="#000"/>
<text x="952.1839080459757" y="512.4" fill="#111" font-size="small" text-anchor="end" transform="rotate(-60, 952.1839080459757, 512.4)">
throw
</text>
<rect x="968.3908045976998" y="247.79358232503304" width="10.804597701149424" height="250.2064176749669" fill="#785EF0" data-tooltip="1.08x baseline (YJIT 3.4.0dev)"/>
<line x1="973.7931034482746" y1="498.0" x2="973.7931034482746" y2="502.79999999999995" stroke="#000"/>
<text x="973.7931034482746" y="512.4" fill="#111" font-size="small" text-anchor="end" transform="rotate(-60, 973.7931034482746, 512.4)" font-style="italic">
geomean*
</text>
<line x1="50.0" y1="266.5668059769851" x2="990.0" y2="266.5668059769851" stroke="#648FFF" stroke-width="2"/>
</svg>