<svg viewBox="0 0 1000 600" xmlns="http://www.w3.org/2000/svg" xmlns:xlink="http://www.w3.org/1999/xlink" width="100%" height="100%">

<rect x="50.0" y="30.0" width="940.0" height="467.99999999999994" stroke="#000" fill="#fff"/>
<line x1="42.0" y1="497.9999999999999" x2="50.0" y2="497.9999999999999" stroke="#000"/>
<text x="26.000000000000004" y="497.9999999999999" text-anchor="end" font-weight="bold" font-size="small" fill="#111">
0.0
</text>
<line x1="42.0" y1="452.3855238505438" x2="50.0" y2="452.3855238505438" stroke="#000"/>
<text x="26.000000000000004" y="452.3855238505438" text-anchor="end" font-weight="bold" font-size="small" fill="#111">
0.2
</text>
<line x1="42.0" y1="406.7710477010875" x2="50.0" y2="406.7710477010875" stroke="#000"/>
<text x="26.000000000000004" y="406.7710477010875" text-anchor="end" font-weight="bold" font-size="small" fill="#111">
0.4
</text>
<line x1="42.0" y1="361.15657155163126" x2="50.0" y2="361.15657155163126" stroke="#000"/>
<text x="26.000000000000004" y="361.15657155163126" text-anchor="end" font-weight="bold" font-size="small" fill="#111">
0.6
</text>
<line x1="42.0" y1="315.54209540217505" x2="50.0" y2="315.54209540217505" stroke="#000"/>
<text x="26.000000000000004" y="315.54209540217505" text-anchor="end" font-weight="bold" font-size="small" fill="#111">
0.8
</text>
<line x1="42.0" y1="269.92761925271884" x2="50.0" y2="269.92761925271884" stroke="#000"/>
<text x="26.000000000000004" y="269.92761925271884" text-anchor="end" font-weight="bold" font-size="small" fill="#111">
1.0
</text>
<line x1="42.0" y1="224.3131431032626" x2="50.0" y2="224.3131431032626" stroke="#000"/>
<text x="26.000000000000004" y="224.3131431032626" text-anchor="end" font-weight="bold" font-size="small" fill="#111">
1.2
</text>
<line x1="42.0" y1="178.69866695380637" x2="50.0" y2="178.69866695380637" stroke="#000"/>
<text x="26.000000000000004" y="178.69866695380637" text-anchor="end" font-weight="bold" font-size="small" fill="#111">
1.4
</text>
<line x1="42.0" y1="133.08419080435016" x2="50.0" y2="133.08419080435016" stroke="#000"/>
<text x="26.000000000000004" y="133.08419080435016" text-anchor="end" font-weight="bold" font-size="small" fill="#111">
1.6
</text>
<line x1="248.5" y1="54.60000000000001" x2="368.5" y2="54.60000000000001" stroke="#648FFF" stroke-width="2"/>
<text x="308.5" y="49.500000000000014" font-size="small" text-anchor="middle" font-weight="bold" fill="#000">
CRuby 3.3.0dev
</text>
<rect x="671.5" y="35.400000000000006" width="120.0" height="19.2" fill="#785EF0" stroke="none"/>
<text x="731.4999999999999" y="49.500000000000014" font-size="small" text-anchor="middle" font-weight="bold" fill="#fff" style="text-shadow: 0 0 1px #000;">
YJIT 3.3.0dev
</text>
<rect x="63.6231884057971" y="249.3513906075288" width="13.6231884057971" height="248.64860939247114" fill="#785EF0" data-tooltip="1.09x baseline (YJIT 3.3.0dev)"/>
<line x1="70.43478260869566" y1="498.0" x2="70.43478260869566" y2="502.79999999999995" stroke="#000"/>
<text x="70.43478260869566" y="512.4" fill="#111" font-size="small" text-anchor="end" transform="rotate(-60, 70.43478260869566, 512.4)">
activerecord
</text>
<rect x="90.8695652173913" y="100.19999999999999" width="13.6231884057971" height="397.79999999999995" fill="#785EF0" data-tooltip="1.74x baseline (YJIT 3.3.0dev)"/>
<line x1="97.68115942028984" y1="498.0" x2="97.68115942028984" y2="502.79999999999995" stroke="#000"/>
<text x="97.68115942028984" y="512.4" fill="#111" font-size="small" text-anchor="end" transform="rotate(-60, 97.68115942028984, 512.4)">
hexapdf
</text>
<rect x="118.1159420289855" y="270.3793697142692" width="13.6231884057971" height="227.62063028573073" fill="#785EF0" data-tooltip="1.00x baseline (YJIT 3.3.0dev)"/>
<line x1="124.92753623188406" y1="498.0" x2="124.92753623188406" y2="502.79999999999995" stroke="#000"/>
<text x="124.92753623188406" y="512.4" fill="#111" font-size="small" text-anchor="end" transform="rotate(-60, 124.92753623188406, 512.4)">
liquid-c
</text>
<rect x="145.36231884057972" y="251.92318035607303" width="13.6231884057971" height="246.0768196439269" fill="#785EF0" data-tooltip="1.08x baseline (YJIT 3.3.0dev)"/>
<line x1="152.17391304347828" y1="498.0" x2="152.17391304347828" y2="502.79999999999995" stroke="#000"/>
<text x="152.17391304347828" y="512.4" fill="#111" font-size="small" text-anchor="end" transform="rotate(-60, 152.17391304347828, 512.4)">
liquid-compile
</text>
<rect x="172.6086956521739" y="246.0275439197291" width="13.6231884057971" height="251.97245608027083" fill="#785EF0" data-tooltip="1.10x baseline (YJIT 3.3.0dev)"/>
<line x1="179.42028985507247" y1="498.0" x2="179.42028985507247" y2="502.79999999999995" stroke="#000"/>
<text x="179.42028985507247" y="512.4" fill="#111" font-size="small" text-anchor="end" transform="rotate(-60, 179.42028985507247, 512.4)">
liquid-render
</text>
<rect x="199.8550724637681" y="255.95393902913483" width="13.6231884057971" height="242.0460609708651" fill="#785EF0" data-tooltip="1.06x baseline (YJIT 3.3.0dev)"/>
<line x1="206.66666666666666" y1="498.0" x2="206.66666666666666" y2="502.79999999999995" stroke="#000"/>
<text x="206.66666666666666" y="512.4" fill="#111" font-size="small" text-anchor="end" transform="rotate(-60, 206.66666666666666, 512.4)">
mail
</text>
<rect x="227.1014492753623" y="257.8902691356627" width="13.6231884057971" height="240.10973086433725" fill="#785EF0" data-tooltip="1.05x baseline (YJIT 3.3.0dev)"/>
<line x1="233.91304347826087" y1="498.0" x2="233.91304347826087" y2="502.79999999999995" stroke="#000"/>
<text x="233.91304347826087" y="512.4" fill="#111" font-size="small" text-anchor="end" transform="rotate(-60, 233.91304347826087, 512.4)">
psych-load
</text>
<rect x="254.3478260869565" y="241.73456975888726" width="13.6231884057971" height="256.2654302411127" fill="#785EF0" data-tooltip="1.12x baseline (YJIT 3.3.0dev)"/>
<line x1="261.15942028985506" y1="498.0" x2="261.15942028985506" y2="502.79999999999995" stroke="#000"/>
<text x="261.15942028985506" y="512.4" fill="#111" font-size="small" text-anchor="end" transform="rotate(-60, 261.15942028985506, 512.4)">
railsbench
</text>
<rect x="281.59420289855075" y="239.81821036041157" width="13.6231884057971" height="258.1817896395884" fill="#785EF0" data-tooltip="1.13x baseline (YJIT 3.3.0dev)"/>
<line x1="288.4057971014493" y1="498.0" x2="288.4057971014493" y2="502.79999999999995" stroke="#000"/>
<text x="288.4057971014493" y="512.4" fill="#111" font-size="small" text-anchor="end" transform="rotate(-60, 288.4057971014493, 512.4)">
ruby-lsp
</text>
<rect x="308.840579710145" y="250.54606071233027" width="13.6231884057971" height="247.45393928766964" fill="#785EF0" data-tooltip="1.08x baseline (YJIT 3.3.0dev)"/>
<line x1="315.65217391304355" y1="498.0" x2="315.65217391304355" y2="502.79999999999995" stroke="#000"/>
<text x="315.65217391304355" y="512.4" fill="#111" font-size="small" text-anchor="end" transform="rotate(-60, 315.65217391304355, 512.4)">
sequel
</text>
<rect x="336.08695652173924" y="266.4887410849022" width="13.6231884057971" height="231.51125891509776" fill="#785EF0" data-tooltip="1.02x baseline (YJIT 3.3.0dev)"/>
<line x1="342.8985507246378" y1="498.0" x2="342.8985507246378" y2="502.79999999999995" stroke="#000"/>
<text x="342.8985507246378" y="512.4" fill="#111" font-size="small" text-anchor="end" transform="rotate(-60, 342.8985507246378, 512.4)">
binarytrees
</text>
<rect x="363.3333333333335" y="249.33503111356495" width="13.6231884057971" height="248.66496888643502" fill="#785EF0" data-tooltip="1.09x baseline (YJIT 3.3.0dev)"/>
<line x1="370.14492753623205" y1="498.0" x2="370.14492753623205" y2="502.79999999999995" stroke="#000"/>
<text x="370.14492753623205" y="512.4" fill="#111" font-size="small" text-anchor="end" transform="rotate(-60, 370.14492753623205, 512.4)">
chunky_png
</text>
<rect x="390.5797101449278" y="257.4174348881153" width="13.6231884057971" height="240.58256511188466" fill="#785EF0" data-tooltip="1.05x baseline (YJIT 3.3.0dev)"/>
<line x1="397.39130434782635" y1="498.0" x2="397.39130434782635" y2="502.79999999999995" stroke="#000"/>
<text x="397.39130434782635" y="512.4" fill="#111" font-size="small" text-anchor="end" transform="rotate(-60, 397.39130434782635, 512.4)">
erubi
</text>
<rect x="417.82608695652203" y="251.2576786170479" width="13.6231884057971" height="246.74232138295204" fill="#785EF0" data-tooltip="1.08x baseline (YJIT 3.3.0dev)"/>
<line x1="424.6376811594206" y1="498.0" x2="424.6376811594206" y2="502.79999999999995" stroke="#000"/>
<text x="424.6376811594206" y="512.4" fill="#111" font-size="small" text-anchor="end" transform="rotate(-60, 424.6376811594206, 512.4)">
erubi_rails
</text>
<rect x="445.0724637681163" y="266.13505692363526" width="13.6231884057971" height="231.86494307636468" fill="#785EF0" data-tooltip="1.02x baseline (YJIT 3.3.0dev)"/>
<line x1="451.88405797101484" y1="498.0" x2="451.88405797101484" y2="502.79999999999995" stroke="#000"/>
<text x="451.88405797101484" y="512.4" fill="#111" font-size="small" text-anchor="end" transform="rotate(-60, 451.88405797101484, 512.4)">
etanni
</text>
<rect x="472.3188405797105" y="264.1859887482802" width="13.6231884057971" height="233.81401125171973" fill="#785EF0" data-tooltip="1.03x baseline (YJIT 3.3.0dev)"/>
<line x1="479.1304347826091" y1="498.0" x2="479.1304347826091" y2="502.79999999999995" stroke="#000"/>
<text x="479.1304347826091" y="512.4" fill="#111" font-size="small" text-anchor="end" transform="rotate(-60, 479.1304347826091, 512.4)">
fannkuchredux
</text>
<rect x="499.56521739130477" y="248.5168478563123" width="13.6231884057971" height="249.48315214368765" fill="#785EF0" data-tooltip="1.09x baseline (YJIT 3.3.0dev)"/>
<line x1="506.37681159420333" y1="498.0" x2="506.37681159420333" y2="502.79999999999995" stroke="#000"/>
<text x="506.37681159420333" y="512.4" fill="#111" font-size="small" text-anchor="end" transform="rotate(-60, 506.37681159420333, 512.4)">
lee
</text>
<rect x="526.8115942028991" y="264.93306147855054" width="13.6231884057971" height="233.0669385214494" fill="#785EF0" data-tooltip="1.02x baseline (YJIT 3.3.0dev)"/>
<line x1="533.6231884057976" y1="498.0" x2="533.6231884057976" y2="502.79999999999995" stroke="#000"/>
<text x="533.6231884057976" y="512.4" fill="#111" font-size="small" text-anchor="end" transform="rotate(-60, 533.6231884057976, 512.4)">
nbody
</text>
<rect x="554.0579710144933" y="248.83702432407705" width="13.6231884057971" height="249.1629756759229" fill="#785EF0" data-tooltip="1.09x baseline (YJIT 3.3.0dev)"/>
<line x1="560.8695652173918" y1="498.0" x2="560.8695652173918" y2="502.79999999999995" stroke="#000"/>
<text x="560.8695652173918" y="512.4" fill="#111" font-size="small" text-anchor="end" transform="rotate(-60, 560.8695652173918, 512.4)">
optcarrot
</text>
<rect x="581.3043478260876" y="265.4966202484586" width="13.6231884057971" height="232.50337975154133" fill="#785EF0" data-tooltip="1.02x baseline (YJIT 3.3.0dev)"/>
<line x1="588.1159420289861" y1="498.0" x2="588.1159420289861" y2="502.79999999999995" stroke="#000"/>
<text x="588.1159420289861" y="512.4" fill="#111" font-size="small" text-anchor="end" transform="rotate(-60, 588.1159420289861, 512.4)">
ruby-json
</text>
<rect x="608.5507246376818" y="268.76428766370384" width="13.6231884057971" height="229.23571233629607" fill="#785EF0" data-tooltip="1.01x baseline (YJIT 3.3.0dev)"/>
<line x1="615.3623188405803" y1="498.0" x2="615.3623188405803" y2="502.79999999999995" stroke="#000"/>
<text x="615.3623188405803" y="512.4" fill="#111" font-size="small" text-anchor="end" transform="rotate(-60, 615.3623188405803, 512.4)">
rubykon
</text>
<rect x="635.797101449276" y="147.80682248352082" width="13.6231884057971" height="350.1931775164791" fill="#785EF0" data-tooltip="1.54x baseline (YJIT 3.3.0dev)"/>
<line x1="642.6086956521746" y1="498.0" x2="642.6086956521746" y2="502.79999999999995" stroke="#000"/>
<text x="642.6086956521746" y="512.4" fill="#111" font-size="small" text-anchor="end" transform="rotate(-60, 642.6086956521746, 512.4)">
30k_ifelse
</text>
<rect x="663.0434782608703" y="224.80695616607272" width="13.6231884057971" height="273.1930438339272" fill="#785EF0" data-tooltip="1.20x baseline (YJIT 3.3.0dev)"/>
<line x1="669.8550724637688" y1="498.0" x2="669.8550724637688" y2="502.79999999999995" stroke="#000"/>
<text x="669.8550724637688" y="512.4" fill="#111" font-size="small" text-anchor="end" transform="rotate(-60, 669.8550724637688, 512.4)">
30k_methods
</text>
<rect x="690.2898550724645" y="266.1226825768564" width="13.6231884057971" height="231.87731742314355" fill="#785EF0" data-tooltip="1.02x baseline (YJIT 3.3.0dev)"/>
<line x1="697.101449275363" y1="498.0" x2="697.101449275363" y2="502.79999999999995" stroke="#000"/>
<text x="697.101449275363" y="512.4" fill="#111" font-size="small" text-anchor="end" transform="rotate(-60, 697.101449275363, 512.4)">
cfunc_itself
</text>
<rect x="717.5362318840588" y="266.19667894931166" width="13.6231884057971" height="231.8033210506883" fill="#785EF0" data-tooltip="1.02x baseline (YJIT 3.3.0dev)"/>
<line x1="724.3478260869574" y1="498.0" x2="724.3478260869574" y2="502.79999999999995" stroke="#000"/>
<text x="724.3478260869574" y="512.4" fill="#111" font-size="small" text-anchor="end" transform="rotate(-60, 724.3478260869574, 512.4)">
fib
</text>
<rect x="744.782608695653" y="266.0209960914685" width="13.6231884057971" height="231.97900390853147" fill="#785EF0" data-tooltip="1.02x baseline (YJIT 3.3.0dev)"/>
<line x1="751.5942028985517" y1="498.0" x2="751.5942028985517" y2="502.79999999999995" stroke="#000"/>
<text x="751.5942028985517" y="512.4" fill="#111" font-size="small" text-anchor="end" transform="rotate(-60, 751.5942028985517, 512.4)">
getivar
</text>
<rect x="772.0289855072473" y="266.0107726746252" width="13.6231884057971" height="231.98922732537477" fill="#785EF0" data-tooltip="1.02x baseline (YJIT 3.3.0dev)"/>
<line x1="778.8405797101459" y1="498.0" x2="778.8405797101459" y2="502.79999999999995" stroke="#000"/>
<text x="778.8405797101459" y="512.4" fill="#111" font-size="small" text-anchor="end" transform="rotate(-60, 778.8405797101459, 512.4)">
keyword_args
</text>
<rect x="799.2753623188415" y="265.89952160419773" width="13.6231884057971" height="232.10047839580218" fill="#785EF0" data-tooltip="1.02x baseline (YJIT 3.3.0dev)"/>
<line x1="806.0869565217401" y1="498.0" x2="806.0869565217401" y2="502.79999999999995" stroke="#000"/>
<text x="806.0869565217401" y="512.4" fill="#111" font-size="small" text-anchor="end" transform="rotate(-60, 806.0869565217401, 512.4)">
respond_to
</text>
<rect x="826.5217391304358" y="266.0209960914685" width="13.6231884057971" height="231.97900390853147" fill="#785EF0" data-tooltip="1.02x baseline (YJIT 3.3.0dev)"/>
<line x1="833.3333333333344" y1="498.0" x2="833.3333333333344" y2="502.79999999999995" stroke="#000"/>
<text x="833.3333333333344" y="512.4" fill="#111" font-size="small" text-anchor="end" transform="rotate(-60, 833.3333333333344, 512.4)">
setivar
</text>
<rect x="853.76811594203" y="266.1599858776002" width="13.6231884057971" height="231.84001412239977" fill="#785EF0" data-tooltip="1.02x baseline (YJIT 3.3.0dev)"/>
<line x1="860.5797101449286" y1="498.0" x2="860.5797101449286" y2="502.79999999999995" stroke="#000"/>
<text x="860.5797101449286" y="512.4" fill="#111" font-size="small" text-anchor="end" transform="rotate(-60, 860.5797101449286, 512.4)">
setivar_object
</text>
<rect x="881.0144927536243" y="266.1226825768564" width="13.6231884057971" height="231.87731742314355" fill="#785EF0" data-tooltip="1.02x baseline (YJIT 3.3.0dev)"/>
<line x1="887.8260869565229" y1="498.0" x2="887.8260869565229" y2="502.79999999999995" stroke="#000"/>
<text x="887.8260869565229" y="512.4" fill="#111" font-size="small" text-anchor="end" transform="rotate(-60, 887.8260869565229, 512.4)">
setivar_young
</text>
<rect x="908.2608695652185" y="127.60647762055287" width="13.6231884057971" height="370.3935223794471" fill="#785EF0" data-tooltip="1.62x baseline (YJIT 3.3.0dev)"/>
<line x1="915.0724637681171" y1="498.0" x2="915.0724637681171" y2="502.79999999999995" stroke="#000"/>
<text x="915.0724637681171" y="512.4" fill="#111" font-size="small" text-anchor="end" transform="rotate(-60, 915.0724637681171, 512.4)">
str_concat
</text>
<rect x="935.5072463768129" y="266.20702576581374" width="13.6231884057971" height="231.79297423418623" fill="#785EF0" data-tooltip="1.02x baseline (YJIT 3.3.0dev)"/>
<line x1="942.3188405797114" y1="498.0" x2="942.3188405797114" y2="502.79999999999995" stroke="#000"/>
<text x="942.3188405797114" y="512.4" fill="#111" font-size="small" text-anchor="end" transform="rotate(-60, 942.3188405797114, 512.4)">
throw
</text>
<rect x="962.7536231884071" y="248.27532875274156" width="13.6231884057971" height="249.72467124725839" fill="#785EF0" data-tooltip="1.09x baseline (YJIT 3.3.0dev)"/>
<line x1="969.5652173913056" y1="498.0" x2="969.5652173913056" y2="502.79999999999995" stroke="#000"/>
<text x="969.5652173913056" y="512.4" fill="#111" font-size="small" text-anchor="end" transform="rotate(-60, 969.5652173913056, 512.4)" font-style="italic">
geomean*
</text>
<line x1="50.0" y1="269.92761925271884" x2="990.0" y2="269.92761925271884" stroke="#648FFF" stroke-width="2"/>
</svg>