<svg viewBox="0 0 1000 600" xmlns="http://www.w3.org/2000/svg" xmlns:xlink="http://www.w3.org/1999/xlink" width="100%" height="100%">

<rect x="50.0" y="30.0" width="940.0" height="467.99999999999994" stroke="#000" fill="#EEE"/>
<line x1="42.0" y1="497.9999999999999" x2="50.0" y2="497.9999999999999" stroke="#000"/>
<text x="26.000000000000004" y="497.9999999999999" text-anchor="end" font-weight="bold" font-size="small" fill="#111">
0.0
</text>
<line x1="42.0" y1="420.42871282107603" x2="50.0" y2="420.42871282107603" stroke="#000"/>
<text x="26.000000000000004" y="420.42871282107603" text-anchor="end" font-weight="bold" font-size="small" fill="#111">
1.0
</text>
<line x1="42.0" y1="342.8574256421521" x2="50.0" y2="342.8574256421521" stroke="#000"/>
<text x="26.000000000000004" y="342.8574256421521" text-anchor="end" font-weight="bold" font-size="small" fill="#111">
2.0
</text>
<line x1="42.0" y1="265.28613846322816" x2="50.0" y2="265.28613846322816" stroke="#000"/>
<text x="26.000000000000004" y="265.28613846322816" text-anchor="end" font-weight="bold" font-size="small" fill="#111">
3.0
</text>
<line x1="42.0" y1="187.71485128430425" x2="50.0" y2="187.71485128430425" stroke="#000"/>
<text x="26.000000000000004" y="187.71485128430425" text-anchor="end" font-weight="bold" font-size="small" fill="#111">
4.0
</text>
<line x1="42.0" y1="110.14356410538034" x2="50.0" y2="110.14356410538034" stroke="#000"/>
<text x="26.000000000000004" y="110.14356410538034" text-anchor="end" font-weight="bold" font-size="small" fill="#111">
5.0
</text>
<rect x="268.5" y="36.00000000000001" width="80.0" height="18.0" fill="#7070f8" stroke="#888"/>
<text x="308.5" y="52.50000000000001" font-size="small" text-anchor="middle" font-weight="bold" fill="#EEE">
No JIT
</text>
<rect x="691.4999999999999" y="36.00000000000001" width="80.0" height="18.0" fill="orange" stroke="#888"/>
<text x="731.4999999999999" y="52.50000000000001" font-size="small" text-anchor="middle" font-weight="bold" fill="#EEE">
YJIT
</text>
<rect x="97.0" y="420.42871282107603" width="14.842105263157894" height="77.57128717892392" fill="#7070f8" data-tooltip="1.00x baseline speed (No JIT)"/>
<line x1="97.0" y1="419.5705269975853" x2="111.84210526315789" y2="419.5705269975853" stroke="#000"/>
<line x1="97.0" y1="421.2868986445667" x2="111.84210526315789" y2="421.2868986445667" stroke="#000"/>
<line x1="104.42105263157896" y1="419.5705269975853" x2="104.42105263157896" y2="421.2868986445667" stroke="#000"/>
<rect x="111.84210526315789" y="335.12935548916334" width="14.842105263157894" height="162.87064451083654" fill="orange" data-tooltip="2.10x baseline speed (YJIT)"/>
<line x1="111.84210526315789" y1="331.5797936644523" x2="126.6842105263158" y2="331.5797936644523" stroke="#000"/>
<line x1="111.84210526315789" y1="338.67891731387436" x2="126.6842105263158" y2="338.67891731387436" stroke="#000"/>
<line x1="119.26315789473685" y1="331.5797936644523" x2="119.26315789473685" y2="338.67891731387436" stroke="#000"/>
<line x1="119.26315789473685" y1="498.0" x2="119.26315789473685" y2="502.79999999999995" stroke="#000"/>
<text x="119.26315789473685" y="512.4" fill="#111" font-size="small" font-family="monospace" font-weight="bold" text-anchor="end" transform="rotate(-60, 119.26315789473685, 512.4)">
binarytrees
</text>
<rect x="141.5263157894737" y="420.42871282107603" width="14.842105263157894" height="77.57128717892392" fill="#7070f8" data-tooltip="1.00x baseline speed (No JIT)"/>
<line x1="141.5263157894737" y1="419.210921449263" x2="156.3684210526316" y2="419.210921449263" stroke="#000"/>
<line x1="141.5263157894737" y1="421.646504192889" x2="156.3684210526316" y2="421.646504192889" stroke="#000"/>
<line x1="148.94736842105263" y1="419.210921449263" x2="148.94736842105263" y2="421.646504192889" stroke="#000"/>
<rect x="156.3684210526316" y="305.46433363610936" width="14.842105263157894" height="192.5356663638906" fill="orange" data-tooltip="2.48x baseline speed (YJIT)"/>
<line x1="156.3684210526316" y1="302.1787589837347" x2="171.2105263157895" y2="302.1787589837347" stroke="#000"/>
<line x1="156.3684210526316" y1="308.749908288484" x2="171.2105263157895" y2="308.749908288484" stroke="#000"/>
<line x1="163.78947368421055" y1="302.1787589837347" x2="163.78947368421055" y2="308.749908288484" stroke="#000"/>
<line x1="163.78947368421055" y1="498.0" x2="163.78947368421055" y2="502.79999999999995" stroke="#000"/>
<text x="163.78947368421055" y="512.4" fill="#111" font-size="small" font-family="monospace" font-weight="bold" text-anchor="end" transform="rotate(-60, 163.78947368421055, 512.4)">
blurhash
</text>
<rect x="186.05263157894737" y="420.42871282107603" width="14.842105263157894" height="77.57128717892392" fill="#7070f8" data-tooltip="1.00x baseline speed (No JIT)"/>
<line x1="186.05263157894737" y1="420.3482770047119" x2="200.89473684210526" y2="420.3482770047119" stroke="#000"/>
<line x1="186.05263157894737" y1="420.50914863744015" x2="200.89473684210526" y2="420.50914863744015" stroke="#000"/>
<line x1="193.4736842105263" y1="420.3482770047119" x2="193.4736842105263" y2="420.50914863744015" stroke="#000"/>
<rect x="200.89473684210526" y="402.73207680005214" width="14.842105263157894" height="95.26792319994784" fill="orange" data-tooltip="1.23x baseline speed (YJIT)"/>
<line x1="200.89473684210526" y1="402.61015085461395" x2="215.73684210526318" y2="402.61015085461395" stroke="#000"/>
<line x1="200.89473684210526" y1="402.85400274549033" x2="215.73684210526318" y2="402.85400274549033" stroke="#000"/>
<line x1="208.3157894736842" y1="402.61015085461395" x2="208.3157894736842" y2="402.85400274549033" stroke="#000"/>
<line x1="208.3157894736842" y1="498.0" x2="208.3157894736842" y2="502.79999999999995" stroke="#000"/>
<text x="208.3157894736842" y="512.4" fill="#111" font-size="small" font-family="monospace" font-weight="bold" text-anchor="end" transform="rotate(-60, 208.3157894736842, 512.4)">
erubi
</text>
<rect x="230.57894736842104" y="420.42871282107603" width="14.842105263157894" height="77.57128717892392" fill="#7070f8" data-tooltip="1.00x baseline speed (No JIT)"/>
<line x1="230.57894736842104" y1="420.3889036428474" x2="245.42105263157896" y2="420.3889036428474" stroke="#000"/>
<line x1="230.57894736842104" y1="420.46852199930464" x2="245.42105263157896" y2="420.46852199930464" stroke="#000"/>
<line x1="238.0" y1="420.3889036428474" x2="238.0" y2="420.46852199930464" stroke="#000"/>
<rect x="245.42105263157896" y="415.83625452072744" width="14.842105263157894" height="82.16374547927249" fill="orange" data-tooltip="1.06x baseline speed (YJIT)"/>
<line x1="245.42105263157896" y1="415.75435837845913" x2="260.2631578947369" y2="415.75435837845913" stroke="#000"/>
<line x1="245.42105263157896" y1="415.91815066299574" x2="260.2631578947369" y2="415.91815066299574" stroke="#000"/>
<line x1="252.84210526315792" y1="415.75435837845913" x2="252.84210526315792" y2="415.91815066299574" stroke="#000"/>
<line x1="252.84210526315786" y1="498.0" x2="252.84210526315786" y2="502.79999999999995" stroke="#000"/>
<text x="252.84210526315786" y="512.4" fill="#111" font-size="small" font-family="monospace" font-weight="bold" text-anchor="end" transform="rotate(-60, 252.84210526315786, 512.4)">
etanni
</text>
<rect x="275.10526315789474" y="420.42871282107603" width="14.842105263157894" height="77.57128717892392" fill="#7070f8" data-tooltip="1.00x baseline speed (No JIT)"/>
<line x1="275.10526315789474" y1="419.46466342276045" x2="289.9473684210526" y2="419.46466342276045" stroke="#000"/>
<line x1="275.10526315789474" y1="421.39276221939156" x2="289.9473684210526" y2="421.39276221939156" stroke="#000"/>
<line x1="282.5263157894737" y1="419.46466342276045" x2="282.5263157894737" y2="421.39276221939156" stroke="#000"/>
<rect x="289.9473684210526" y="207.07591967009284" width="14.842105263157894" height="290.9240803299071" fill="orange" data-tooltip="3.75x baseline speed (YJIT)"/>
<line x1="289.9473684210526" y1="203.37528752229403" x2="304.7894736842105" y2="203.37528752229403" stroke="#000"/>
<line x1="289.9473684210526" y1="210.7765518178917" x2="304.7894736842105" y2="210.7765518178917" stroke="#000"/>
<line x1="297.36842105263156" y1="203.37528752229403" x2="297.36842105263156" y2="210.7765518178917" stroke="#000"/>
<line x1="297.36842105263156" y1="498.0" x2="297.36842105263156" y2="502.79999999999995" stroke="#000"/>
<text x="297.36842105263156" y="512.4" fill="#111" font-size="small" font-family="monospace" font-weight="bold" text-anchor="end" transform="rotate(-60, 297.36842105263156, 512.4)">
fannkuchredux
</text>
<rect x="319.63157894736844" y="420.42871282107603" width="14.842105263157894" height="77.57128717892392" fill="#7070f8" data-tooltip="1.00x baseline speed (No JIT)"/>
<line x1="319.63157894736844" y1="419.8854153867672" x2="334.4736842105263" y2="419.8854153867672" stroke="#000"/>
<line x1="319.63157894736844" y1="420.9720102553848" x2="334.4736842105263" y2="420.9720102553848" stroke="#000"/>
<line x1="327.0526315789474" y1="419.8854153867672" x2="327.0526315789474" y2="420.9720102553848" stroke="#000"/>
<rect x="334.4736842105263" y="409.71719964729897" width="14.842105263157894" height="88.28280035270096" fill="orange" data-tooltip="1.14x baseline speed (YJIT)"/>
<line x1="334.4736842105263" y1="406.12277344165625" x2="349.31578947368416" y2="406.12277344165625" stroke="#000"/>
<line x1="334.4736842105263" y1="413.31162585294175" x2="349.31578947368416" y2="413.31162585294175" stroke="#000"/>
<line x1="341.89473684210526" y1="406.12277344165625" x2="341.89473684210526" y2="413.31162585294175" stroke="#000"/>
<line x1="341.89473684210526" y1="498.0" x2="341.89473684210526" y2="502.79999999999995" stroke="#000"/>
<text x="341.89473684210526" y="512.4" fill="#111" font-size="small" font-family="monospace" font-weight="bold" text-anchor="end" transform="rotate(-60, 341.89473684210526, 512.4)">
fluentd
</text>
<rect x="364.15789473684214" y="420.42871282107603" width="14.842105263157894" height="77.57128717892392" fill="#7070f8" data-tooltip="1.00x baseline speed (No JIT)"/>
<line x1="364.15789473684214" y1="420.3479853459119" x2="379.0" y2="420.3479853459119" stroke="#000"/>
<line x1="364.15789473684214" y1="420.5094402962401" x2="379.0" y2="420.5094402962401" stroke="#000"/>
<line x1="371.57894736842104" y1="420.3479853459119" x2="371.57894736842104" y2="420.5094402962401" stroke="#000"/>
<rect x="379.0" y="399.93634998297557" width="14.842105263157894" height="98.06365001702441" fill="orange" data-tooltip="1.26x baseline speed (YJIT)"/>
<line x1="379.0" y1="399.68886585108817" x2="393.84210526315786" y2="399.68886585108817" stroke="#000"/>
<line x1="379.0" y1="400.183834114863" x2="393.84210526315786" y2="400.183834114863" stroke="#000"/>
<line x1="386.42105263157896" y1="399.68886585108817" x2="386.42105263157896" y2="400.183834114863" stroke="#000"/>
<line x1="386.42105263157896" y1="498.0" x2="386.42105263157896" y2="502.79999999999995" stroke="#000"/>
<text x="386.42105263157896" y="512.4" fill="#111" font-size="small" font-family="monospace" font-weight="bold" text-anchor="end" transform="rotate(-60, 386.42105263157896, 512.4)">
graphql
</text>
<rect x="408.6842105263158" y="420.42871282107603" width="14.842105263157894" height="77.57128717892392" fill="#7070f8" data-tooltip="1.00x baseline speed (No JIT)"/>
<line x1="408.6842105263158" y1="420.376633714141" x2="423.52631578947364" y2="420.376633714141" stroke="#000"/>
<line x1="408.6842105263158" y1="420.480791928011" x2="423.52631578947364" y2="420.480791928011" stroke="#000"/>
<line x1="416.1052631578947" y1="420.376633714141" x2="416.1052631578947" y2="420.480791928011" stroke="#000"/>
<rect x="423.52631578947364" y="404.27759805197803" width="14.842105263157894" height="93.72240194802194" fill="orange" data-tooltip="1.21x baseline speed (YJIT)"/>
<line x1="423.52631578947364" y1="404.1799414839112" x2="438.3684210526315" y2="404.1799414839112" stroke="#000"/>
<line x1="423.52631578947364" y1="404.37525462004487" x2="438.3684210526315" y2="404.37525462004487" stroke="#000"/>
<line x1="430.9473684210526" y1="404.1799414839112" x2="430.9473684210526" y2="404.37525462004487" stroke="#000"/>
<line x1="430.9473684210526" y1="498.0" x2="430.9473684210526" y2="502.79999999999995" stroke="#000"/>
<text x="430.9473684210526" y="512.4" fill="#111" font-size="small" font-family="monospace" font-weight="bold" text-anchor="end" transform="rotate(-60, 430.9473684210526, 512.4)">
graphql-native
</text>
<rect x="453.2105263157895" y="420.42871282107603" width="14.842105263157894" height="77.57128717892392" fill="#7070f8" data-tooltip="1.00x baseline speed (No JIT)"/>
<line x1="453.2105263157895" y1="419.7190861607159" x2="468.0526315789474" y2="419.7190861607159" stroke="#000"/>
<line x1="453.2105263157895" y1="421.1383394814361" x2="468.0526315789474" y2="421.1383394814361" stroke="#000"/>
<line x1="460.63157894736844" y1="419.7190861607159" x2="460.63157894736844" y2="421.1383394814361" stroke="#000"/>
<rect x="468.0526315789474" y="382.84280821348136" width="14.842105263157894" height="115.15719178651855" fill="orange" data-tooltip="1.48x baseline speed (YJIT)"/>
<line x1="468.0526315789474" y1="381.0410339534055" x2="482.89473684210526" y2="381.0410339534055" stroke="#000"/>
<line x1="468.0526315789474" y1="384.6445824735572" x2="482.89473684210526" y2="384.6445824735572" stroke="#000"/>
<line x1="475.4736842105263" y1="381.0410339534055" x2="475.4736842105263" y2="384.6445824735572" stroke="#000"/>
<line x1="475.4736842105263" y1="498.0" x2="475.4736842105263" y2="502.79999999999995" stroke="#000"/>
<text x="475.4736842105263" y="512.4" fill="#111" font-size="small" font-family="monospace" font-weight="bold" text-anchor="end" transform="rotate(-60, 475.4736842105263, 512.4)">
lee
</text>
<rect x="497.7368421052631" y="420.42871282107603" width="14.842105263157894" height="77.57128717892392" fill="#7070f8" data-tooltip="1.00x baseline speed (No JIT)"/>
<line x1="497.7368421052631" y1="416.4111882965822" x2="512.578947368421" y2="416.4111882965822" stroke="#000"/>
<line x1="497.7368421052631" y1="424.4462373455698" x2="512.578947368421" y2="424.4462373455698" stroke="#000"/>
<line x1="505.15789473684214" y1="416.4111882965822" x2="505.15789473684214" y2="424.4462373455698" stroke="#000"/>
<rect x="512.578947368421" y="353.5573559515736" width="14.842105263157894" height="144.4426440484264" fill="orange" data-tooltip="1.86x baseline speed (YJIT)"/>
<line x1="512.578947368421" y1="346.0743055186515" x2="527.4210526315788" y2="346.0743055186515" stroke="#000"/>
<line x1="512.578947368421" y1="361.0404063844956" x2="527.4210526315788" y2="361.0404063844956" stroke="#000"/>
<line x1="520.0" y1="346.0743055186515" x2="520.0" y2="361.0404063844956" stroke="#000"/>
<line x1="520.0" y1="498.0" x2="520.0" y2="502.79999999999995" stroke="#000"/>
<text x="520.0" y="512.4" fill="#111" font-size="small" font-family="monospace" font-weight="bold" text-anchor="end" transform="rotate(-60, 520.0, 512.4)">
matmul
</text>
<rect x="542.2631578947369" y="420.42871282107603" width="14.842105263157894" height="77.57128717892392" fill="#7070f8" data-tooltip="1.00x baseline speed (No JIT)"/>
<line x1="542.2631578947369" y1="419.46930356774715" x2="557.1052631578948" y2="419.46930356774715" stroke="#000"/>
<line x1="542.2631578947369" y1="421.38812207440486" x2="557.1052631578948" y2="421.38812207440486" stroke="#000"/>
<line x1="549.6842105263158" y1="419.46930356774715" x2="549.6842105263158" y2="421.38812207440486" stroke="#000"/>
<rect x="557.1052631578948" y="314.93149037071487" width="14.842105263157894" height="183.0685096292851" fill="orange" data-tooltip="2.36x baseline speed (YJIT)"/>
<line x1="557.1052631578948" y1="312.66722946710325" x2="571.9473684210526" y2="312.66722946710325" stroke="#000"/>
<line x1="557.1052631578948" y1="317.1957512743265" x2="571.9473684210526" y2="317.1957512743265" stroke="#000"/>
<line x1="564.5263157894738" y1="312.66722946710325" x2="564.5263157894738" y2="317.1957512743265" stroke="#000"/>
<line x1="564.5263157894738" y1="498.0" x2="564.5263157894738" y2="502.79999999999995" stroke="#000"/>
<text x="564.5263157894738" y="512.4" fill="#111" font-size="small" font-family="monospace" font-weight="bold" text-anchor="end" transform="rotate(-60, 564.5263157894738, 512.4)">
nbody
</text>
<rect x="586.7894736842105" y="420.42871282107603" width="14.842105263157894" height="77.57128717892392" fill="#7070f8" data-tooltip="1.00x baseline speed (No JIT)"/>
<line x1="586.7894736842105" y1="419.1487693788374" x2="601.6315789473684" y2="419.1487693788374" stroke="#000"/>
<line x1="586.7894736842105" y1="421.7086562633146" x2="601.6315789473684" y2="421.7086562633146" stroke="#000"/>
<line x1="594.2105263157895" y1="419.1487693788374" x2="594.2105263157895" y2="421.7086562633146" stroke="#000"/>
<rect x="601.6315789473684" y="100.19999999999999" width="14.842105263157894" height="397.79999999999995" fill="orange" data-tooltip="5.13x baseline speed (YJIT)"/>
<line x1="601.6315789473684" y1="93.44477720321993" x2="616.4736842105262" y2="93.44477720321993" stroke="#000"/>
<line x1="601.6315789473684" y1="106.95522279678005" x2="616.4736842105262" y2="106.95522279678005" stroke="#000"/>
<line x1="609.0526315789474" y1="93.44477720321993" x2="609.0526315789474" y2="106.95522279678005" stroke="#000"/>
<line x1="609.0526315789474" y1="498.0" x2="609.0526315789474" y2="502.79999999999995" stroke="#000"/>
<text x="609.0526315789474" y="512.4" fill="#111" font-size="small" font-family="monospace" font-weight="bold" text-anchor="end" transform="rotate(-60, 609.0526315789474, 512.4)">
nqueens
</text>
<rect x="631.3157894736842" y="420.42871282107603" width="14.842105263157894" height="77.57128717892392" fill="#7070f8" data-tooltip="1.00x baseline speed (No JIT)"/>
<line x1="631.3157894736842" y1="420.05721989771826" x2="646.1578947368421" y2="420.05721989771826" stroke="#000"/>
<line x1="631.3157894736842" y1="420.80020574443375" x2="646.1578947368421" y2="420.80020574443375" stroke="#000"/>
<line x1="638.7368421052631" y1="420.05721989771826" x2="638.7368421052631" y2="420.80020574443375" stroke="#000"/>
<rect x="646.1578947368421" y="303.6762875261269" width="14.842105263157894" height="194.32371247387303" fill="orange" data-tooltip="2.51x baseline speed (YJIT)"/>
<line x1="646.1578947368421" y1="302.238067344369" x2="660.9999999999999" y2="302.238067344369" stroke="#000"/>
<line x1="646.1578947368421" y1="305.1145077078848" x2="660.9999999999999" y2="305.1145077078848" stroke="#000"/>
<line x1="653.578947368421" y1="302.238067344369" x2="653.578947368421" y2="305.1145077078848" stroke="#000"/>
<line x1="653.578947368421" y1="498.0" x2="653.578947368421" y2="502.79999999999995" stroke="#000"/>
<text x="653.578947368421" y="512.4" fill="#111" font-size="small" font-family="monospace" font-weight="bold" text-anchor="end" transform="rotate(-60, 653.578947368421, 512.4)">
optcarrot
</text>
<rect x="675.8421052631579" y="420.42871282107603" width="14.842105263157894" height="77.57128717892392" fill="#7070f8" data-tooltip="1.00x baseline speed (No JIT)"/>
<line x1="675.8421052631579" y1="420.0105571775598" x2="690.6842105263158" y2="420.0105571775598" stroke="#000"/>
<line x1="675.8421052631579" y1="420.8468684645922" x2="690.6842105263158" y2="420.8468684645922" stroke="#000"/>
<line x1="683.2631578947369" y1="420.0105571775598" x2="683.2631578947369" y2="420.8468684645922" stroke="#000"/>
<rect x="690.6842105263158" y="287.7365896379374" width="14.842105263157894" height="210.2634103620625" fill="orange" data-tooltip="2.71x baseline speed (YJIT)"/>
<line x1="690.6842105263158" y1="286.52634756618943" x2="705.5263157894736" y2="286.52634756618943" stroke="#000"/>
<line x1="690.6842105263158" y1="288.94683170968545" x2="705.5263157894736" y2="288.94683170968545" stroke="#000"/>
<line x1="698.1052631578948" y1="286.52634756618943" x2="698.1052631578948" y2="288.94683170968545" stroke="#000"/>
<line x1="698.1052631578948" y1="498.0" x2="698.1052631578948" y2="502.79999999999995" stroke="#000"/>
<text x="698.1052631578948" y="512.4" fill="#111" font-size="small" font-family="monospace" font-weight="bold" text-anchor="end" transform="rotate(-60, 698.1052631578948, 512.4)">
protoboeuf
</text>
<rect x="720.3684210526316" y="420.42871282107603" width="14.842105263157894" height="77.57128717892392" fill="#7070f8" data-tooltip="1.00x baseline speed (No JIT)"/>
<line x1="720.3684210526316" y1="420.3193120745794" x2="735.2105263157895" y2="420.3193120745794" stroke="#000"/>
<line x1="720.3684210526316" y1="420.5381135675726" x2="735.2105263157895" y2="420.5381135675726" stroke="#000"/>
<line x1="727.7894736842105" y1="420.3193120745794" x2="727.7894736842105" y2="420.5381135675726" stroke="#000"/>
<rect x="735.2105263157895" y="402.86227602492" width="14.842105263157894" height="95.13772397508001" fill="orange" data-tooltip="1.23x baseline speed (YJIT)"/>
<line x1="735.2105263157895" y1="402.4608854987362" x2="750.0526315789473" y2="402.4608854987362" stroke="#000"/>
<line x1="735.2105263157895" y1="403.26366655110377" x2="750.0526315789473" y2="403.26366655110377" stroke="#000"/>
<line x1="742.6315789473684" y1="402.4608854987362" x2="742.6315789473684" y2="403.26366655110377" stroke="#000"/>
<line x1="742.6315789473684" y1="498.0" x2="742.6315789473684" y2="502.79999999999995" stroke="#000"/>
<text x="742.6315789473684" y="512.4" fill="#111" font-size="small" font-family="monospace" font-weight="bold" text-anchor="end" transform="rotate(-60, 742.6315789473684, 512.4)">
rack
</text>
<rect x="764.8947368421053" y="420.42871282107603" width="14.842105263157894" height="77.57128717892392" fill="#7070f8" data-tooltip="1.00x baseline speed (No JIT)"/>
<line x1="764.8947368421053" y1="420.3693917266873" x2="779.7368421052631" y2="420.3693917266873" stroke="#000"/>
<line x1="764.8947368421053" y1="420.48803391546477" x2="779.7368421052631" y2="420.48803391546477" stroke="#000"/>
<line x1="772.3157894736843" y1="420.3693917266873" x2="772.3157894736843" y2="420.48803391546477" stroke="#000"/>
<rect x="779.7368421052631" y="399.21017611888317" width="14.842105263157894" height="98.7898238811168" fill="orange" data-tooltip="1.27x baseline speed (YJIT)"/>
<line x1="779.7368421052631" y1="399.1256859106059" x2="794.578947368421" y2="399.1256859106059" stroke="#000"/>
<line x1="779.7368421052631" y1="399.29466632716037" x2="794.578947368421" y2="399.29466632716037" stroke="#000"/>
<line x1="787.1578947368422" y1="399.1256859106059" x2="787.1578947368422" y2="399.29466632716037" stroke="#000"/>
<line x1="787.1578947368422" y1="498.0" x2="787.1578947368422" y2="502.79999999999995" stroke="#000"/>
<text x="787.1578947368422" y="512.4" fill="#111" font-size="small" font-family="monospace" font-weight="bold" text-anchor="end" transform="rotate(-60, 787.1578947368422, 512.4)">
ruby-json
</text>
<rect x="809.421052631579" y="420.42871282107603" width="14.842105263157894" height="77.57128717892392" fill="#7070f8" data-tooltip="1.00x baseline speed (No JIT)"/>
<line x1="809.421052631579" y1="420.0387096730044" x2="824.2631578947368" y2="420.0387096730044" stroke="#000"/>
<line x1="809.421052631579" y1="420.81871596914766" x2="824.2631578947368" y2="420.81871596914766" stroke="#000"/>
<line x1="816.8421052631579" y1="420.0387096730044" x2="816.8421052631579" y2="420.81871596914766" stroke="#000"/>
<rect x="824.2631578947368" y="355.24769754724304" width="14.842105263157894" height="142.75230245275688" fill="orange" data-tooltip="1.84x baseline speed (YJIT)"/>
<line x1="824.2631578947368" y1="354.07545351383993" x2="839.1052631578947" y2="354.07545351383993" stroke="#000"/>
<line x1="824.2631578947368" y1="356.41994158064614" x2="839.1052631578947" y2="356.41994158064614" stroke="#000"/>
<line x1="831.6842105263158" y1="354.07545351383993" x2="831.6842105263158" y2="356.41994158064614" stroke="#000"/>
<line x1="831.6842105263158" y1="498.0" x2="831.6842105263158" y2="502.79999999999995" stroke="#000"/>
<text x="831.6842105263158" y="512.4" fill="#111" font-size="small" font-family="monospace" font-weight="bold" text-anchor="end" transform="rotate(-60, 831.6842105263158, 512.4)">
rubykon
</text>
<rect x="853.9473684210526" y="420.42871282107603" width="14.842105263157894" height="77.57128717892392" fill="#7070f8" data-tooltip="1.00x baseline speed (No JIT)"/>
<line x1="853.9473684210526" y1="420.30738334051904" x2="868.7894736842104" y2="420.30738334051904" stroke="#000"/>
<line x1="853.9473684210526" y1="420.55004230163297" x2="868.7894736842104" y2="420.55004230163297" stroke="#000"/>
<line x1="861.3684210526316" y1="420.30738334051904" x2="861.3684210526316" y2="420.55004230163297" stroke="#000"/>
<rect x="868.7894736842104" y="252.98915274729572" width="14.842105263157894" height="245.01084725270422" fill="orange" data-tooltip="3.16x baseline speed (YJIT)"/>
<line x1="868.7894736842104" y1="252.4531377478648" x2="883.6315789473683" y2="252.4531377478648" stroke="#000"/>
<line x1="868.7894736842104" y1="253.52516774672665" x2="883.6315789473683" y2="253.52516774672665" stroke="#000"/>
<line x1="876.2105263157895" y1="252.4531377478648" x2="876.2105263157895" y2="253.52516774672665" stroke="#000"/>
<line x1="876.2105263157895" y1="498.0" x2="876.2105263157895" y2="502.79999999999995" stroke="#000"/>
<text x="876.2105263157895" y="512.4" fill="#111" font-size="small" font-family="monospace" font-weight="bold" text-anchor="end" transform="rotate(-60, 876.2105263157895, 512.4)">
sudoku
</text>
<rect x="898.4736842105264" y="420.42871282107603" width="14.842105263157894" height="77.57128717892392" fill="#7070f8" data-tooltip="1.00x baseline speed (No JIT)"/>
<line x1="898.4736842105264" y1="420.28842729012246" x2="913.3157894736842" y2="420.28842729012246" stroke="#000"/>
<line x1="898.4736842105264" y1="420.56899835202955" x2="913.3157894736842" y2="420.56899835202955" stroke="#000"/>
<line x1="905.8947368421053" y1="420.28842729012246" x2="905.8947368421053" y2="420.56899835202955" stroke="#000"/>
<rect x="913.3157894736842" y="332.77232336111274" width="14.842105263157894" height="165.22767663888715" fill="orange" data-tooltip="2.13x baseline speed (YJIT)"/>
<line x1="913.3157894736842" y1="332.34340755757955" x2="928.1578947368421" y2="332.34340755757955" stroke="#000"/>
<line x1="913.3157894736842" y1="333.201239164646" x2="928.1578947368421" y2="333.201239164646" stroke="#000"/>
<line x1="920.7368421052632" y1="332.34340755757955" x2="920.7368421052632" y2="333.201239164646" stroke="#000"/>
<line x1="920.7368421052632" y1="498.0" x2="920.7368421052632" y2="502.79999999999995" stroke="#000"/>
<text x="920.7368421052632" y="512.4" fill="#111" font-size="small" font-family="monospace" font-weight="bold" text-anchor="end" transform="rotate(-60, 920.7368421052632, 512.4)">
tinygql
</text>
</svg>