<svg viewBox="0 0 1000 600" xmlns="http://www.w3.org/2000/svg" xmlns:xlink="http://www.w3.org/1999/xlink" width="100%" height="100%">

<rect x="50.0" y="30.0" width="940.0" height="467.99999999999994" stroke="#000" fill="#fff"/>
<line x1="42.0" y1="497.9999999999999" x2="50.0" y2="497.9999999999999" stroke="#000"/>
<text x="26.000000000000004" y="497.9999999999999" text-anchor="end" font-weight="bold" font-size="small" fill="#111">
0.0
</text>
<line x1="42.0" y1="450.47646481955024" x2="50.0" y2="450.47646481955024" stroke="#000"/>
<text x="26.000000000000004" y="450.47646481955024" text-anchor="end" font-weight="bold" font-size="small" fill="#111">
0.2
</text>
<line x1="42.0" y1="402.95292963910043" x2="50.0" y2="402.95292963910043" stroke="#000"/>
<text x="26.000000000000004" y="402.95292963910043" text-anchor="end" font-weight="bold" font-size="small" fill="#111">
0.4
</text>
<line x1="42.0" y1="355.4293944586507" x2="50.0" y2="355.4293944586507" stroke="#000"/>
<text x="26.000000000000004" y="355.4293944586507" text-anchor="end" font-weight="bold" font-size="small" fill="#111">
0.6
</text>
<line x1="42.0" y1="307.905859278201" x2="50.0" y2="307.905859278201" stroke="#000"/>
<text x="26.000000000000004" y="307.905859278201" text-anchor="end" font-weight="bold" font-size="small" fill="#111">
0.8
</text>
<line x1="42.0" y1="260.3823240977513" x2="50.0" y2="260.3823240977513" stroke="#000"/>
<text x="26.000000000000004" y="260.3823240977513" text-anchor="end" font-weight="bold" font-size="small" fill="#111">
1.0
</text>
<line x1="42.0" y1="212.85878891730152" x2="50.0" y2="212.85878891730152" stroke="#000"/>
<text x="26.000000000000004" y="212.85878891730152" text-anchor="end" font-weight="bold" font-size="small" fill="#111">
1.2
</text>
<line x1="42.0" y1="165.3352537368518" x2="50.0" y2="165.3352537368518" stroke="#000"/>
<text x="26.000000000000004" y="165.3352537368518" text-anchor="end" font-weight="bold" font-size="small" fill="#111">
1.4
</text>
<line x1="42.0" y1="117.81171855640207" x2="50.0" y2="117.81171855640207" stroke="#000"/>
<text x="26.000000000000004" y="117.81171855640207" text-anchor="end" font-weight="bold" font-size="small" fill="#111">
1.6
</text>
<line x1="248.5" y1="54.60000000000001" x2="368.5" y2="54.60000000000001" stroke="#648FFF" stroke-width="2"/>
<text x="308.5" y="49.500000000000014" font-size="small" text-anchor="middle" font-weight="bold" fill="#000">
CRuby 3.3.0dev
</text>
<rect x="671.5" y="35.400000000000006" width="120.0" height="19.2" fill="#785EF0" stroke="none"/>
<text x="731.4999999999999" y="49.500000000000014" font-size="small" text-anchor="middle" font-weight="bold" fill="#fff" style="text-shadow: 0 0 1px #000;">
YJIT 3.3.0dev
</text>
<rect x="82.41379310344827" y="234.62992571282984" width="32.41379310344827" height="263.37007428717004" fill="#785EF0" data-tooltip="1.11x baseline (YJIT 3.3.0dev)"/>
<line x1="98.62068965517241" y1="498.0" x2="98.62068965517241" y2="502.79999999999995" stroke="#000"/>
<text x="98.62068965517241" y="512.4" fill="#111" font-size="small" text-anchor="end" transform="rotate(-60, 98.62068965517241, 512.4)">
activerecord
</text>
<rect x="147.2413793103448" y="253.2005765547174" width="32.41379310344827" height="244.79942344528254" fill="#785EF0" data-tooltip="1.03x baseline (YJIT 3.3.0dev)"/>
<line x1="163.44827586206895" y1="498.0" x2="163.44827586206895" y2="502.79999999999995" stroke="#000"/>
<text x="163.44827586206895" y="512.4" fill="#111" font-size="small" text-anchor="end" transform="rotate(-60, 163.44827586206895, 512.4)">
chunky-png
</text>
<rect x="212.06896551724137" y="234.71343423494739" width="32.41379310344827" height="263.28656576505256" fill="#785EF0" data-tooltip="1.11x baseline (YJIT 3.3.0dev)"/>
<line x1="228.2758620689655" y1="498.0" x2="228.2758620689655" y2="502.79999999999995" stroke="#000"/>
<text x="228.2758620689655" y="512.4" fill="#111" font-size="small" text-anchor="end" transform="rotate(-60, 228.2758620689655, 512.4)">
erubi-rails
</text>
<rect x="276.8965517241379" y="100.19999999999999" width="32.41379310344827" height="397.79999999999995" fill="#785EF0" data-tooltip="1.67x baseline (YJIT 3.3.0dev)"/>
<line x1="293.10344827586204" y1="498.0" x2="293.10344827586204" y2="502.79999999999995" stroke="#000"/>
<text x="293.10344827586204" y="512.4" fill="#111" font-size="small" text-anchor="end" transform="rotate(-60, 293.10344827586204, 512.4)">
hexapdf
</text>
<rect x="341.7241379310345" y="233.61241784450857" width="32.41379310344827" height="264.3875821554914" fill="#785EF0" data-tooltip="1.11x baseline (YJIT 3.3.0dev)"/>
<line x1="357.9310344827586" y1="498.0" x2="357.9310344827586" y2="502.79999999999995" stroke="#000"/>
<text x="357.9310344827586" y="512.4" fill="#111" font-size="small" text-anchor="end" transform="rotate(-60, 357.9310344827586, 512.4)">
liquid-c
</text>
<rect x="406.551724137931" y="243.31942123981776" width="32.41379310344827" height="254.6805787601822" fill="#785EF0" data-tooltip="1.07x baseline (YJIT 3.3.0dev)"/>
<line x1="422.7586206896551" y1="498.0" x2="422.7586206896551" y2="502.79999999999995" stroke="#000"/>
<text x="422.7586206896551" y="512.4" fill="#111" font-size="small" text-anchor="end" transform="rotate(-60, 422.7586206896551, 512.4)">
liquid-compile
</text>
<rect x="471.37931034482756" y="230.24242619085757" width="32.41379310344827" height="267.75757380914234" fill="#785EF0" data-tooltip="1.13x baseline (YJIT 3.3.0dev)"/>
<line x1="487.58620689655174" y1="498.0" x2="487.58620689655174" y2="502.79999999999995" stroke="#000"/>
<text x="487.58620689655174" y="512.4" fill="#111" font-size="small" text-anchor="end" transform="rotate(-60, 487.58620689655174, 512.4)">
liquid-render
</text>
<rect x="536.2068965517242" y="215.65311968699" width="32.41379310344827" height="282.34688031300993" fill="#785EF0" data-tooltip="1.19x baseline (YJIT 3.3.0dev)"/>
<line x1="552.4137931034483" y1="498.0" x2="552.4137931034483" y2="502.79999999999995" stroke="#000"/>
<text x="552.4137931034483" y="512.4" fill="#111" font-size="small" text-anchor="end" transform="rotate(-60, 552.4137931034483, 512.4)">
lobsters
</text>
<rect x="601.0344827586207" y="230.27986546926994" width="32.41379310344827" height="267.72013453073004" fill="#785EF0" data-tooltip="1.13x baseline (YJIT 3.3.0dev)"/>
<line x1="617.2413793103449" y1="498.0" x2="617.2413793103449" y2="502.79999999999995" stroke="#000"/>
<text x="617.2413793103449" y="512.4" fill="#111" font-size="small" text-anchor="end" transform="rotate(-60, 617.2413793103449, 512.4)">
mail
</text>
<rect x="665.8620689655172" y="243.9852494299795" width="32.41379310344827" height="254.01475057002045" fill="#785EF0" data-tooltip="1.07x baseline (YJIT 3.3.0dev)"/>
<line x1="682.0689655172414" y1="498.0" x2="682.0689655172414" y2="502.79999999999995" stroke="#000"/>
<text x="682.0689655172414" y="512.4" fill="#111" font-size="small" text-anchor="end" transform="rotate(-60, 682.0689655172414, 512.4)">
psych-load
</text>
<rect x="730.6896551724138" y="216.265354111925" width="32.41379310344827" height="281.7346458880749" fill="#785EF0" data-tooltip="1.19x baseline (YJIT 3.3.0dev)"/>
<line x1="746.8965517241379" y1="498.0" x2="746.8965517241379" y2="502.79999999999995" stroke="#000"/>
<text x="746.8965517241379" y="512.4" fill="#111" font-size="small" text-anchor="end" transform="rotate(-60, 746.8965517241379, 512.4)">
railsbench
</text>
<rect x="795.5172413793103" y="152.13770056877453" width="32.41379310344827" height="345.8622994312254" fill="#785EF0" data-tooltip="1.46x baseline (YJIT 3.3.0dev)"/>
<line x1="811.7241379310345" y1="498.0" x2="811.7241379310345" y2="502.79999999999995" stroke="#000"/>
<text x="811.7241379310345" y="512.4" fill="#111" font-size="small" text-anchor="end" transform="rotate(-60, 811.7241379310345, 512.4)">
ruby-lsp
</text>
<rect x="860.3448275862069" y="236.18789142164331" width="32.41379310344827" height="261.8121085783567" fill="#785EF0" data-tooltip="1.10x baseline (YJIT 3.3.0dev)"/>
<line x1="876.551724137931" y1="498.0" x2="876.551724137931" y2="502.79999999999995" stroke="#000"/>
<text x="876.551724137931" y="512.4" fill="#111" font-size="small" text-anchor="end" transform="rotate(-60, 876.551724137931, 512.4)">
sequel
</text>
<rect x="925.1724137931035" y="219.85604591566278" width="32.41379310344827" height="278.14395408433717" fill="#785EF0" data-tooltip="1.17x baseline (YJIT 3.3.0dev)"/>
<line x1="941.3793103448276" y1="498.0" x2="941.3793103448276" y2="502.79999999999995" stroke="#000"/>
<text x="941.3793103448276" y="512.4" fill="#111" font-size="small" text-anchor="end" transform="rotate(-60, 941.3793103448276, 512.4)" font-style="italic">
geomean*
</text>
<line x1="50.0" y1="260.3823240977513" x2="990.0" y2="260.3823240977513" stroke="#648FFF" stroke-width="2"/>
</svg>