<svg viewBox="0 0 1000 600" xmlns="http://www.w3.org/2000/svg" xmlns:xlink="http://www.w3.org/1999/xlink" width="100%" height="100%">

<rect x="50.0" y="30.0" width="940.0" height="467.99999999999994" stroke="#000" fill="#fff"/>
<line x1="42.0" y1="497.9999999999999" x2="50.0" y2="497.9999999999999" stroke="#000"/>
<text x="26.000000000000004" y="497.9999999999999" text-anchor="end" font-weight="bold" font-size="small" fill="#111">
0.0
</text>
<line x1="42.0" y1="399.83784172661865" x2="50.0" y2="399.83784172661865" stroke="#000"/>
<text x="26.000000000000004" y="399.83784172661865" text-anchor="end" font-weight="bold" font-size="small" fill="#111">
0.5
</text>
<line x1="42.0" y1="301.6756834532374" x2="50.0" y2="301.6756834532374" stroke="#000"/>
<text x="26.000000000000004" y="301.6756834532374" text-anchor="end" font-weight="bold" font-size="small" fill="#111">
1.0
</text>
<line x1="42.0" y1="203.5135251798561" x2="50.0" y2="203.5135251798561" stroke="#000"/>
<text x="26.000000000000004" y="203.5135251798561" text-anchor="end" font-weight="bold" font-size="small" fill="#111">
1.5
</text>
<line x1="42.0" y1="105.35136690647481" x2="50.0" y2="105.35136690647481" stroke="#000"/>
<text x="26.000000000000004" y="105.35136690647481" text-anchor="end" font-weight="bold" font-size="small" fill="#111">
2.0
</text>
<line x1="248.5" y1="54.60000000000001" x2="368.5" y2="54.60000000000001" stroke="#648FFF" stroke-width="2"/>
<text x="308.5" y="49.500000000000014" font-size="small" text-anchor="middle" font-weight="bold" fill="#000">
CRuby 3.4.0dev
</text>
<rect x="671.5" y="35.400000000000006" width="120.0" height="19.2" fill="#785EF0" stroke="none"/>
<text x="731.4999999999999" y="49.500000000000014" font-size="small" text-anchor="middle" font-weight="bold" fill="#fff" style="text-shadow: 0 0 1px #000;">
YJIT 3.4.0dev
</text>
<rect x="60.10752688172043" y="276.99150436307986" width="10.10752688172043" height="221.0084956369201" fill="#785EF0" data-tooltip="1.13x baseline (YJIT 3.4.0dev)"/>
<line x1="65.16129032258065" y1="498.0" x2="65.16129032258065" y2="502.79999999999995" stroke="#000"/>
<text x="65.16129032258065" y="512.4" fill="#111" font-size="small" text-anchor="end" transform="rotate(-60, 65.16129032258065, 512.4)">
activerecord
</text>
<rect x="80.3225806451613" y="275.85262756397026" width="10.10752688172043" height="222.14737243602968" fill="#785EF0" data-tooltip="1.13x baseline (YJIT 3.4.0dev)"/>
<line x1="85.3763440860215" y1="498.0" x2="85.3763440860215" y2="502.79999999999995" stroke="#000"/>
<text x="85.3763440860215" y="512.4" fill="#111" font-size="small" text-anchor="end" transform="rotate(-60, 85.3763440860215, 512.4)">
chunky-png
</text>
<rect x="100.53763440860214" y="289.0719798690195" width="10.10752688172043" height="208.9280201309804" fill="#785EF0" data-tooltip="1.06x baseline (YJIT 3.4.0dev)"/>
<line x1="105.59139784946235" y1="498.0" x2="105.59139784946235" y2="502.79999999999995" stroke="#000"/>
<text x="105.59139784946235" y="512.4" fill="#111" font-size="small" text-anchor="end" transform="rotate(-60, 105.59139784946235, 512.4)">
erubi-rails
</text>
<rect x="120.752688172043" y="100.19999999999999" width="10.10752688172043" height="397.79999999999995" fill="#785EF0" data-tooltip="2.03x baseline (YJIT 3.4.0dev)"/>
<line x1="125.80645161290322" y1="498.0" x2="125.80645161290322" y2="502.79999999999995" stroke="#000"/>
<text x="125.80645161290322" y="512.4" fill="#111" font-size="small" text-anchor="end" transform="rotate(-60, 125.80645161290322, 512.4)">
hexapdf
</text>
<rect x="140.96774193548384" y="273.0171542983894" width="10.10752688172043" height="224.98284570161056" fill="#785EF0" data-tooltip="1.15x baseline (YJIT 3.4.0dev)"/>
<line x1="146.02150537634407" y1="498.0" x2="146.02150537634407" y2="502.79999999999995" stroke="#000"/>
<text x="146.02150537634407" y="512.4" fill="#111" font-size="small" text-anchor="end" transform="rotate(-60, 146.02150537634407, 512.4)">
liquid-c
</text>
<rect x="161.18279569892468" y="275.66388851508714" width="10.10752688172043" height="222.3361114849128" fill="#785EF0" data-tooltip="1.13x baseline (YJIT 3.4.0dev)"/>
<line x1="166.2365591397849" y1="498.0" x2="166.2365591397849" y2="502.79999999999995" stroke="#000"/>
<text x="166.2365591397849" y="512.4" fill="#111" font-size="small" text-anchor="end" transform="rotate(-60, 166.2365591397849, 512.4)">
liquid-compile
</text>
<rect x="181.39784946236554" y="267.486726618705" width="10.10752688172043" height="230.51327338129494" fill="#785EF0" data-tooltip="1.17x baseline (YJIT 3.4.0dev)"/>
<line x1="186.45161290322577" y1="498.0" x2="186.45161290322577" y2="502.79999999999995" stroke="#000"/>
<text x="186.45161290322577" y="512.4" fill="#111" font-size="small" text-anchor="end" transform="rotate(-60, 186.45161290322577, 512.4)">
liquid-render
</text>
<rect x="201.61290322580638" y="265.8476761189983" width="10.10752688172043" height="232.15232388100162" fill="#785EF0" data-tooltip="1.18x baseline (YJIT 3.4.0dev)"/>
<line x1="206.6666666666666" y1="498.0" x2="206.6666666666666" y2="502.79999999999995" stroke="#000"/>
<text x="206.6666666666666" y="512.4" fill="#111" font-size="small" text-anchor="end" transform="rotate(-60, 206.6666666666666, 512.4)">
lobsters
</text>
<rect x="221.82795698924724" y="295.84255507541593" width="10.10752688172043" height="202.15744492458404" fill="#785EF0" data-tooltip="1.03x baseline (YJIT 3.4.0dev)"/>
<line x1="226.88172043010746" y1="498.0" x2="226.88172043010746" y2="502.79999999999995" stroke="#000"/>
<text x="226.88172043010746" y="512.4" fill="#111" font-size="small" text-anchor="end" transform="rotate(-60, 226.88172043010746, 512.4)">
mail
</text>
<rect x="242.04301075268808" y="287.2637995111641" width="10.10752688172043" height="210.7362004888358" fill="#785EF0" data-tooltip="1.07x baseline (YJIT 3.4.0dev)"/>
<line x1="247.0967741935483" y1="498.0" x2="247.0967741935483" y2="502.79999999999995" stroke="#000"/>
<text x="247.0967741935483" y="512.4" fill="#111" font-size="small" text-anchor="end" transform="rotate(-60, 247.0967741935483, 512.4)">
psych-load
</text>
<rect x="262.25806451612897" y="284.6659883745518" width="10.10752688172043" height="213.33401162544814" fill="#785EF0" data-tooltip="1.09x baseline (YJIT 3.4.0dev)"/>
<line x1="267.3118279569892" y1="498.0" x2="267.3118279569892" y2="502.79999999999995" stroke="#000"/>
<text x="267.3118279569892" y="512.4" fill="#111" font-size="small" text-anchor="end" transform="rotate(-60, 267.3118279569892, 512.4)">
railsbench
</text>
<rect x="282.4731182795699" y="215.7537037534658" width="10.10752688172043" height="282.2462962465341" fill="#785EF0" data-tooltip="1.44x baseline (YJIT 3.4.0dev)"/>
<line x1="287.52688172043014" y1="498.0" x2="287.52688172043014" y2="502.79999999999995" stroke="#000"/>
<text x="287.52688172043014" y="512.4" fill="#111" font-size="small" text-anchor="end" transform="rotate(-60, 287.52688172043014, 512.4)">
rubocop
</text>
<rect x="302.6881720430108" y="287.62869337557476" width="10.10752688172043" height="210.37130662442522" fill="#785EF0" data-tooltip="1.07x baseline (YJIT 3.4.0dev)"/>
<line x1="307.74193548387103" y1="498.0" x2="307.74193548387103" y2="502.79999999999995" stroke="#000"/>
<text x="307.74193548387103" y="512.4" fill="#111" font-size="small" text-anchor="end" transform="rotate(-60, 307.74193548387103, 512.4)">
ruby-lsp
</text>
<rect x="322.9032258064517" y="280.6166737198476" width="10.10752688172043" height="217.38332628015235" fill="#785EF0" data-tooltip="1.11x baseline (YJIT 3.4.0dev)"/>
<line x1="327.9569892473119" y1="498.0" x2="327.9569892473119" y2="502.79999999999995" stroke="#000"/>
<text x="327.9569892473119" y="512.4" fill="#111" font-size="small" text-anchor="end" transform="rotate(-60, 327.9569892473119, 512.4)">
sequel
</text>
<rect x="343.1182795698926" y="299.3132248205107" width="10.10752688172043" height="198.68677517948927" fill="#785EF0" data-tooltip="1.01x baseline (YJIT 3.4.0dev)"/>
<line x1="348.1720430107528" y1="498.0" x2="348.1720430107528" y2="502.79999999999995" stroke="#000"/>
<text x="348.1720430107528" y="512.4" fill="#111" font-size="small" text-anchor="end" transform="rotate(-60, 348.1720430107528, 512.4)">
binarytrees
</text>
<rect x="363.3333333333335" y="295.9797230762028" width="10.10752688172043" height="202.02027692379716" fill="#785EF0" data-tooltip="1.03x baseline (YJIT 3.4.0dev)"/>
<line x1="368.3870967741937" y1="498.0" x2="368.3870967741937" y2="502.79999999999995" stroke="#000"/>
<text x="368.3870967741937" y="512.4" fill="#111" font-size="small" text-anchor="end" transform="rotate(-60, 368.3870967741937, 512.4)">
blurhash
</text>
<rect x="383.54838709677443" y="288.9689386897561" width="10.10752688172043" height="209.0310613102438" fill="#785EF0" data-tooltip="1.06x baseline (YJIT 3.4.0dev)"/>
<line x1="388.60215053763466" y1="498.0" x2="388.60215053763466" y2="502.79999999999995" stroke="#000"/>
<text x="388.60215053763466" y="512.4" fill="#111" font-size="small" text-anchor="end" transform="rotate(-60, 388.60215053763466, 512.4)">
erubi
</text>
<rect x="403.7634408602153" y="299.12294733632785" width="10.10752688172043" height="198.87705266367212" fill="#785EF0" data-tooltip="1.01x baseline (YJIT 3.4.0dev)"/>
<line x1="408.81720430107555" y1="498.0" x2="408.81720430107555" y2="502.79999999999995" stroke="#000"/>
<text x="408.81720430107555" y="512.4" fill="#111" font-size="small" text-anchor="end" transform="rotate(-60, 408.81720430107555, 512.4)">
etanni
</text>
<rect x="423.9784946236562" y="295.9655009329867" width="10.10752688172043" height="202.0344990670133" fill="#785EF0" data-tooltip="1.03x baseline (YJIT 3.4.0dev)"/>
<line x1="429.03225806451644" y1="498.0" x2="429.03225806451644" y2="502.79999999999995" stroke="#000"/>
<text x="429.03225806451644" y="512.4" fill="#111" font-size="small" text-anchor="end" transform="rotate(-60, 429.03225806451644, 512.4)">
fannkuchredux
</text>
<rect x="444.1935483870971" y="284.6489589845644" width="10.10752688172043" height="213.35104101543553" fill="#785EF0" data-tooltip="1.09x baseline (YJIT 3.4.0dev)"/>
<line x1="449.24731182795733" y1="498.0" x2="449.24731182795733" y2="502.79999999999995" stroke="#000"/>
<text x="449.24731182795733" y="512.4" fill="#111" font-size="small" text-anchor="end" transform="rotate(-60, 449.24731182795733, 512.4)">
fluentd
</text>
<rect x="464.40860215053806" y="275.6702587889732" width="10.10752688172043" height="222.32974121102677" fill="#785EF0" data-tooltip="1.13x baseline (YJIT 3.4.0dev)"/>
<line x1="469.4623655913983" y1="498.0" x2="469.4623655913983" y2="502.79999999999995" stroke="#000"/>
<text x="469.4623655913983" y="512.4" fill="#111" font-size="small" text-anchor="end" transform="rotate(-60, 469.4623655913983, 512.4)">
graphql
</text>
<rect x="484.62365591397895" y="260.2849987672217" width="10.10752688172043" height="237.71500123277823" fill="#785EF0" data-tooltip="1.21x baseline (YJIT 3.4.0dev)"/>
<line x1="489.6774193548392" y1="498.0" x2="489.6774193548392" y2="502.79999999999995" stroke="#000"/>
<text x="489.6774193548392" y="512.4" fill="#111" font-size="small" text-anchor="end" transform="rotate(-60, 489.6774193548392, 512.4)">
graphql-native
</text>
<rect x="504.83870967741984" y="291.3428246876183" width="10.10752688172043" height="206.65717531238164" fill="#785EF0" data-tooltip="1.05x baseline (YJIT 3.4.0dev)"/>
<line x1="509.8924731182801" y1="498.0" x2="509.8924731182801" y2="502.79999999999995" stroke="#000"/>
<text x="509.8924731182801" y="512.4" fill="#111" font-size="small" text-anchor="end" transform="rotate(-60, 509.8924731182801, 512.4)">
lee
</text>
<rect x="525.0537634408607" y="299.3039254112228" width="10.10752688172043" height="198.69607458877715" fill="#785EF0" data-tooltip="1.01x baseline (YJIT 3.4.0dev)"/>
<line x1="530.107526881721" y1="498.0" x2="530.107526881721" y2="502.79999999999995" stroke="#000"/>
<text x="530.107526881721" y="512.4" fill="#111" font-size="small" text-anchor="end" transform="rotate(-60, 530.107526881721, 512.4)">
matmul
</text>
<rect x="545.2688172043016" y="297.26324001871325" width="10.10752688172043" height="200.73675998128672" fill="#785EF0" data-tooltip="1.02x baseline (YJIT 3.4.0dev)"/>
<line x1="550.3225806451619" y1="498.0" x2="550.3225806451619" y2="502.79999999999995" stroke="#000"/>
<text x="550.3225806451619" y="512.4" fill="#111" font-size="small" text-anchor="end" transform="rotate(-60, 550.3225806451619, 512.4)">
nbody
</text>
<rect x="565.4838709677425" y="296.36172961452365" width="10.10752688172043" height="201.63827038547626" fill="#785EF0" data-tooltip="1.03x baseline (YJIT 3.4.0dev)"/>
<line x1="570.5376344086028" y1="498.0" x2="570.5376344086028" y2="502.79999999999995" stroke="#000"/>
<text x="570.5376344086028" y="512.4" fill="#111" font-size="small" text-anchor="end" transform="rotate(-60, 570.5376344086028, 512.4)">
nqueens
</text>
<rect x="585.6989247311834" y="291.6188934332646" width="10.10752688172043" height="206.38110656673535" fill="#785EF0" data-tooltip="1.05x baseline (YJIT 3.4.0dev)"/>
<line x1="590.7526881720437" y1="498.0" x2="590.7526881720437" y2="502.79999999999995" stroke="#000"/>
<text x="590.7526881720437" y="512.4" fill="#111" font-size="small" text-anchor="end" transform="rotate(-60, 590.7526881720437, 512.4)">
optcarrot
</text>
<rect x="605.9139784946244" y="282.7632339385554" width="10.10752688172043" height="215.23676606144457" fill="#785EF0" data-tooltip="1.10x baseline (YJIT 3.4.0dev)"/>
<line x1="610.9677419354847" y1="498.0" x2="610.9677419354847" y2="502.79999999999995" stroke="#000"/>
<text x="610.9677419354847" y="512.4" fill="#111" font-size="small" text-anchor="end" transform="rotate(-60, 610.9677419354847, 512.4)">
rack
</text>
<rect x="626.1290322580653" y="296.980496795" width="10.10752688172043" height="201.01950320499995" fill="#785EF0" data-tooltip="1.02x baseline (YJIT 3.4.0dev)"/>
<line x1="631.1827956989256" y1="498.0" x2="631.1827956989256" y2="502.79999999999995" stroke="#000"/>
<text x="631.1827956989256" y="512.4" fill="#111" font-size="small" text-anchor="end" transform="rotate(-60, 631.1827956989256, 512.4)">
ruby-json
</text>
<rect x="646.3440860215062" y="308.14477161907826" width="10.10752688172043" height="189.8552283809217" fill="#785EF0" data-tooltip="0.97x baseline (YJIT 3.4.0dev)"/>
<line x1="651.3978494623665" y1="498.0" x2="651.3978494623665" y2="502.79999999999995" stroke="#000"/>
<text x="651.3978494623665" y="512.4" fill="#111" font-size="small" text-anchor="end" transform="rotate(-60, 651.3978494623665, 512.4)">
rubykon
</text>
<rect x="666.5591397849471" y="296.6878278482088" width="10.10752688172043" height="201.31217215179112" fill="#785EF0" data-tooltip="1.03x baseline (YJIT 3.4.0dev)"/>
<line x1="671.6129032258074" y1="498.0" x2="671.6129032258074" y2="502.79999999999995" stroke="#000"/>
<text x="671.6129032258074" y="512.4" fill="#111" font-size="small" text-anchor="end" transform="rotate(-60, 671.6129032258074, 512.4)">
sudoku
</text>
<rect x="686.774193548388" y="285.7731246755173" width="10.10752688172043" height="212.22687532448265" fill="#785EF0" data-tooltip="1.08x baseline (YJIT 3.4.0dev)"/>
<line x1="691.8279569892483" y1="498.0" x2="691.8279569892483" y2="502.79999999999995" stroke="#000"/>
<text x="691.8279569892483" y="512.4" fill="#111" font-size="small" text-anchor="end" transform="rotate(-60, 691.8279569892483, 512.4)">
tinygql
</text>
<rect x="706.9892473118289" y="284.7786898058155" width="10.10752688172043" height="213.22131019418447" fill="#785EF0" data-tooltip="1.09x baseline (YJIT 3.4.0dev)"/>
<line x1="712.0430107526892" y1="498.0" x2="712.0430107526892" y2="502.79999999999995" stroke="#000"/>
<text x="712.0430107526892" y="512.4" fill="#111" font-size="small" text-anchor="end" transform="rotate(-60, 712.0430107526892, 512.4)">
30k_ifelse
</text>
<rect x="727.2043010752698" y="292.2348216948441" width="10.10752688172043" height="205.76517830515587" fill="#785EF0" data-tooltip="1.05x baseline (YJIT 3.4.0dev)"/>
<line x1="732.25806451613" y1="498.0" x2="732.25806451613" y2="502.79999999999995" stroke="#000"/>
<text x="732.25806451613" y="512.4" fill="#111" font-size="small" text-anchor="end" transform="rotate(-60, 732.25806451613, 512.4)">
30k_methods
</text>
<rect x="747.4193548387107" y="298.2551937086558" width="10.10752688172043" height="199.74480629134416" fill="#785EF0" data-tooltip="1.02x baseline (YJIT 3.4.0dev)"/>
<line x1="752.4731182795709" y1="498.0" x2="752.4731182795709" y2="502.79999999999995" stroke="#000"/>
<text x="752.4731182795709" y="512.4" fill="#111" font-size="small" text-anchor="end" transform="rotate(-60, 752.4731182795709, 512.4)">
cfunc_itself
</text>
<rect x="767.6344086021516" y="298.25416591726616" width="10.10752688172043" height="199.7458340827338" fill="#785EF0" data-tooltip="1.02x baseline (YJIT 3.4.0dev)"/>
<line x1="772.6881720430118" y1="498.0" x2="772.6881720430118" y2="502.79999999999995" stroke="#000"/>
<text x="772.6881720430118" y="512.4" fill="#111" font-size="small" text-anchor="end" transform="rotate(-60, 772.6881720430118, 512.4)">
fib
</text>
<rect x="787.8494623655924" y="298.25929870684905" width="10.10752688172043" height="199.74070129315086" fill="#785EF0" data-tooltip="1.02x baseline (YJIT 3.4.0dev)"/>
<line x1="792.9032258064528" y1="498.0" x2="792.9032258064528" y2="502.79999999999995" stroke="#000"/>
<text x="792.9032258064528" y="512.4" fill="#111" font-size="small" text-anchor="end" transform="rotate(-60, 792.9032258064528, 512.4)">
getivar
</text>
<rect x="808.0645161290334" y="298.197264631538" width="10.10752688172043" height="199.80273536846195" fill="#785EF0" data-tooltip="1.02x baseline (YJIT 3.4.0dev)"/>
<line x1="813.1182795698937" y1="498.0" x2="813.1182795698937" y2="502.79999999999995" stroke="#000"/>
<text x="813.1182795698937" y="512.4" fill="#111" font-size="small" text-anchor="end" transform="rotate(-60, 813.1182795698937, 512.4)">
keyword_args
</text>
<rect x="828.2795698924743" y="298.1287219980113" width="10.10752688172043" height="199.87127800198863" fill="#785EF0" data-tooltip="1.02x baseline (YJIT 3.4.0dev)"/>
<line x1="833.3333333333346" y1="498.0" x2="833.3333333333346" y2="502.79999999999995" stroke="#000"/>
<text x="833.3333333333346" y="512.4" fill="#111" font-size="small" text-anchor="end" transform="rotate(-60, 833.3333333333346, 512.4)">
respond_to
</text>
<rect x="848.4946236559152" y="298.36928276042886" width="10.10752688172043" height="199.6307172395711" fill="#785EF0" data-tooltip="1.02x baseline (YJIT 3.4.0dev)"/>
<line x1="853.5483870967755" y1="498.0" x2="853.5483870967755" y2="502.79999999999995" stroke="#000"/>
<text x="853.5483870967755" y="512.4" fill="#111" font-size="small" text-anchor="end" transform="rotate(-60, 853.5483870967755, 512.4)">
ruby-xor
</text>
<rect x="868.7096774193561" y="298.31820189213164" width="10.10752688172043" height="199.68179810786833" fill="#785EF0" data-tooltip="1.02x baseline (YJIT 3.4.0dev)"/>
<line x1="873.7634408602164" y1="498.0" x2="873.7634408602164" y2="502.79999999999995" stroke="#000"/>
<text x="873.7634408602164" y="512.4" fill="#111" font-size="small" text-anchor="end" transform="rotate(-60, 873.7634408602164, 512.4)">
setivar
</text>
<rect x="888.924731182797" y="298.1993525179856" width="10.10752688172043" height="199.80064748201434" fill="#785EF0" data-tooltip="1.02x baseline (YJIT 3.4.0dev)"/>
<line x1="893.9784946236573" y1="498.0" x2="893.9784946236573" y2="502.79999999999995" stroke="#000"/>
<text x="893.9784946236573" y="512.4" fill="#111" font-size="small" text-anchor="end" transform="rotate(-60, 893.9784946236573, 512.4)">
setivar_object
</text>
<rect x="909.1397849462379" y="298.1993525179856" width="10.10752688172043" height="199.80064748201434" fill="#785EF0" data-tooltip="1.02x baseline (YJIT 3.4.0dev)"/>
<line x1="914.1935483870982" y1="498.0" x2="914.1935483870982" y2="502.79999999999995" stroke="#000"/>
<text x="914.1935483870982" y="512.4" fill="#111" font-size="small" text-anchor="end" transform="rotate(-60, 914.1935483870982, 512.4)">
setivar_young
</text>
<rect x="929.3548387096788" y="298.52274430470584" width="10.10752688172043" height="199.4772556952941" fill="#785EF0" data-tooltip="1.02x baseline (YJIT 3.4.0dev)"/>
<line x1="934.4086021505391" y1="498.0" x2="934.4086021505391" y2="502.79999999999995" stroke="#000"/>
<text x="934.4086021505391" y="512.4" fill="#111" font-size="small" text-anchor="end" transform="rotate(-60, 934.4086021505391, 512.4)">
str_concat
</text>
<rect x="949.5698924731197" y="298.08043178426334" width="10.10752688172043" height="199.91956821573658" fill="#785EF0" data-tooltip="1.02x baseline (YJIT 3.4.0dev)"/>
<line x1="954.62365591398" y1="498.0" x2="954.62365591398" y2="502.79999999999995" stroke="#000"/>
<text x="954.62365591398" y="512.4" fill="#111" font-size="small" text-anchor="end" transform="rotate(-60, 954.62365591398, 512.4)">
throw
</text>
<rect x="969.7849462365606" y="285.6685626087294" width="10.10752688172043" height="212.33143739127053" fill="#785EF0" data-tooltip="1.08x baseline (YJIT 3.4.0dev)"/>
<line x1="974.8387096774209" y1="498.0" x2="974.8387096774209" y2="502.79999999999995" stroke="#000"/>
<text x="974.8387096774209" y="512.4" fill="#111" font-size="small" text-anchor="end" transform="rotate(-60, 974.8387096774209, 512.4)" font-style="italic">
geomean*
</text>
<line x1="50.0" y1="301.6756834532374" x2="990.0" y2="301.6756834532374" stroke="#648FFF" stroke-width="2"/>
</svg>