<svg viewBox="0 0 1000 600" xmlns="http://www.w3.org/2000/svg" xmlns:xlink="http://www.w3.org/1999/xlink" width="100%" height="100%">

<rect x="50.0" y="30.0" width="940.0" height="467.99999999999994" stroke="#000" fill="#EEE"/>
<line x1="42.0" y1="497.9999999999999" x2="50.0" y2="497.9999999999999" stroke="#000"/>
<text x="26.000000000000004" y="497.9999999999999" text-anchor="end" font-weight="bold" font-size="small" fill="#111">
0.0
</text>
<line x1="42.0" y1="404.18087648252146" x2="50.0" y2="404.18087648252146" stroke="#000"/>
<text x="26.000000000000004" y="404.18087648252146" text-anchor="end" font-weight="bold" font-size="small" fill="#111">
5.0
</text>
<line x1="42.0" y1="310.3617529650429" x2="50.0" y2="310.3617529650429" stroke="#000"/>
<text x="26.000000000000004" y="310.3617529650429" text-anchor="end" font-weight="bold" font-size="small" fill="#111">
10.0
</text>
<line x1="42.0" y1="216.5426294475644" x2="50.0" y2="216.5426294475644" stroke="#000"/>
<text x="26.000000000000004" y="216.5426294475644" text-anchor="end" font-weight="bold" font-size="small" fill="#111">
15.0
</text>
<line x1="42.0" y1="122.72350593008584" x2="50.0" y2="122.72350593008584" stroke="#000"/>
<text x="26.000000000000004" y="122.72350593008584" text-anchor="end" font-weight="bold" font-size="small" fill="#111">
20.0
</text>
<rect x="197.99999999999997" y="36.00000000000001" width="80.0" height="18.0" fill="#7070f8" stroke="#888"/>
<text x="238.0" y="52.50000000000001" font-size="small" text-anchor="middle" font-weight="bold" fill="#EEE">
No JIT
</text>
<rect x="479.99999999999994" y="36.00000000000001" width="80.0" height="18.0" fill="orange" stroke="#888"/>
<text x="519.9999999999999" y="52.50000000000001" font-size="small" text-anchor="middle" font-weight="bold" fill="#EEE">
YJIT 3.3
</text>
<rect x="761.9999999999999" y="36.00000000000001" width="80.0" height="18.0" fill="green" stroke="#888"/>
<text x="801.9999999999999" y="52.50000000000001" font-size="small" text-anchor="middle" font-weight="bold" fill="#EEE">
YJIT 3.4dev
</text>
<rect x="97.0" y="479.2361752965042" width="16.26923076923077" height="18.763824703495704" fill="#7070f8" data-tooltip="1.00x baseline speed (No JIT)"/>
<line x1="97.0" y1="479.2157432987948" x2="113.26923076923077" y2="479.2157432987948" stroke="#000"/>
<line x1="97.0" y1="479.2566072942136" x2="113.26923076923077" y2="479.2566072942136" stroke="#000"/>
<line x1="105.13461538461539" y1="479.2157432987948" x2="105.13461538461539" y2="479.2566072942136" stroke="#000"/>
<rect x="113.26923076923077" y="368.31770670214854" width="16.26923076923077" height="129.68229329785143" fill="orange" data-tooltip="6.91x baseline speed (YJIT 3.3)"/>
<line x1="113.26923076923077" y1="368.144563448748" x2="129.53846153846155" y2="368.144563448748" stroke="#000"/>
<line x1="113.26923076923077" y1="368.49084995554904" x2="129.53846153846155" y2="368.49084995554904" stroke="#000"/>
<line x1="121.40384615384616" y1="368.144563448748" x2="121.40384615384616" y2="368.49084995554904" stroke="#000"/>
<rect x="129.53846153846155" y="367.3847976139476" width="16.26923076923077" height="130.61520238605232" fill="green" data-tooltip="6.96x baseline speed (YJIT 3.4dev)"/>
<line x1="129.53846153846155" y1="367.2044233769392" x2="145.8076923076923" y2="367.2044233769392" stroke="#000"/>
<line x1="129.53846153846155" y1="367.56517185095606" x2="145.8076923076923" y2="367.56517185095606" stroke="#000"/>
<line x1="137.67307692307693" y1="367.2044233769392" x2="137.67307692307693" y2="367.56517185095606" stroke="#000"/>
<line x1="129.53846153846155" y1="498.0" x2="129.53846153846155" y2="502.79999999999995" stroke="#000"/>
<text x="129.53846153846155" y="512.4" fill="#111" font-size="small" font-family="monospace" font-weight="bold" text-anchor="end" transform="rotate(-60, 129.53846153846155, 512.4)">
30k_ifelse
</text>
<rect x="162.07692307692307" y="479.2361752965042" width="16.26923076923077" height="18.763824703495704" fill="#7070f8" data-tooltip="1.00x baseline speed (No JIT)"/>
<line x1="162.07692307692307" y1="479.231257009277" x2="178.3461538461538" y2="479.231257009277" stroke="#000"/>
<line x1="162.07692307692307" y1="479.2410935837314" x2="178.3461538461538" y2="479.2410935837314" stroke="#000"/>
<line x1="170.21153846153845" y1="479.231257009277" x2="170.21153846153845" y2="479.2410935837314" stroke="#000"/>
<rect x="178.3461538461538" y="345.8013047908786" width="16.26923076923077" height="152.1986952091214" fill="orange" data-tooltip="8.11x baseline speed (YJIT 3.3)"/>
<line x1="178.3461538461538" y1="345.738022213842" x2="194.61538461538458" y2="345.738022213842" stroke="#000"/>
<line x1="178.3461538461538" y1="345.86458736791514" x2="194.61538461538458" y2="345.86458736791514" stroke="#000"/>
<line x1="186.4807692307692" y1="345.738022213842" x2="186.4807692307692" y2="345.86458736791514" stroke="#000"/>
<rect x="194.6153846153846" y="345.60739870615237" width="16.26923076923077" height="152.3926012938476" fill="green" data-tooltip="8.12x baseline speed (YJIT 3.4dev)"/>
<line x1="194.6153846153846" y1="345.5349865083772" x2="210.88461538461536" y2="345.5349865083772" stroke="#000"/>
<line x1="194.6153846153846" y1="345.67981090392755" x2="210.88461538461536" y2="345.67981090392755" stroke="#000"/>
<line x1="202.75" y1="345.5349865083772" x2="202.75" y2="345.67981090392755" stroke="#000"/>
<line x1="194.6153846153846" y1="498.0" x2="194.6153846153846" y2="502.79999999999995" stroke="#000"/>
<text x="194.6153846153846" y="512.4" fill="#111" font-size="small" font-family="monospace" font-weight="bold" text-anchor="end" transform="rotate(-60, 194.6153846153846, 512.4)">
30k_methods
</text>
<rect x="227.15384615384616" y="479.2361752965042" width="16.26923076923077" height="18.763824703495704" fill="#7070f8" data-tooltip="1.00x baseline speed (No JIT)"/>
<line x1="227.15384615384616" y1="479.2077995634509" x2="243.4230769230769" y2="479.2077995634509" stroke="#000"/>
<line x1="227.15384615384616" y1="479.2645510295574" x2="243.4230769230769" y2="479.2645510295574" stroke="#000"/>
<line x1="235.28846153846152" y1="479.2077995634509" x2="235.28846153846152" y2="479.2645510295574" stroke="#000"/>
<rect x="243.4230769230769" y="416.8620161888603" width="16.26923076923077" height="81.13798381113965" fill="orange" data-tooltip="4.32x baseline speed (YJIT 3.3)"/>
<line x1="243.4230769230769" y1="411.4091078917715" x2="259.6923076923077" y2="411.4091078917715" stroke="#000"/>
<line x1="243.4230769230769" y1="422.3149244859491" x2="259.6923076923077" y2="422.3149244859491" stroke="#000"/>
<line x1="251.55769230769232" y1="411.4091078917715" x2="251.55769230769232" y2="422.3149244859491" stroke="#000"/>
<rect x="259.6923076923077" y="408.98843377039407" width="16.26923076923077" height="89.01156622960592" fill="green" data-tooltip="4.74x baseline speed (YJIT 3.4dev)"/>
<line x1="259.6923076923077" y1="401.822905380813" x2="275.96153846153845" y2="401.822905380813" stroke="#000"/>
<line x1="259.6923076923077" y1="416.1539621599751" x2="275.96153846153845" y2="416.1539621599751" stroke="#000"/>
<line x1="267.8269230769231" y1="401.822905380813" x2="267.8269230769231" y2="416.1539621599751" stroke="#000"/>
<line x1="259.6923076923077" y1="498.0" x2="259.6923076923077" y2="502.79999999999995" stroke="#000"/>
<text x="259.6923076923077" y="512.4" fill="#111" font-size="small" font-family="monospace" font-weight="bold" text-anchor="end" transform="rotate(-60, 259.6923076923077, 512.4)">
cfunc_itself
</text>
<rect x="292.23076923076917" y="479.2361752965042" width="16.26923076923077" height="18.763824703495704" fill="#7070f8" data-tooltip="1.00x baseline speed (No JIT)"/>
<line x1="292.23076923076917" y1="479.2028111103065" x2="308.49999999999994" y2="479.2028111103065" stroke="#000"/>
<line x1="292.23076923076917" y1="479.2695394827019" x2="308.49999999999994" y2="479.2695394827019" stroke="#000"/>
<line x1="300.3653846153846" y1="479.2028111103065" x2="300.3653846153846" y2="479.2695394827019" stroke="#000"/>
<rect x="308.49999999999994" y="398.11961591252975" width="16.26923076923077" height="99.88038408747019" fill="orange" data-tooltip="5.32x baseline speed (YJIT 3.3)"/>
<line x1="308.49999999999994" y1="397.86984814691806" x2="324.7692307692307" y2="397.86984814691806" stroke="#000"/>
<line x1="308.49999999999994" y1="398.3693836781415" x2="324.7692307692307" y2="398.3693836781415" stroke="#000"/>
<line x1="316.63461538461536" y1="397.86984814691806" x2="316.63461538461536" y2="398.3693836781415" stroke="#000"/>
<rect x="324.7692307692307" y="397.91562949515486" width="16.26923076923077" height="100.0843705048451" fill="green" data-tooltip="5.33x baseline speed (YJIT 3.4dev)"/>
<line x1="324.7692307692307" y1="397.73163596464906" x2="341.03846153846143" y2="397.73163596464906" stroke="#000"/>
<line x1="324.7692307692307" y1="398.09962302566066" x2="341.03846153846143" y2="398.09962302566066" stroke="#000"/>
<line x1="332.90384615384613" y1="397.73163596464906" x2="332.90384615384613" y2="398.09962302566066" stroke="#000"/>
<line x1="324.7692307692307" y1="498.0" x2="324.7692307692307" y2="502.79999999999995" stroke="#000"/>
<text x="324.7692307692307" y="512.4" fill="#111" font-size="small" font-family="monospace" font-weight="bold" text-anchor="end" transform="rotate(-60, 324.7692307692307, 512.4)">
fib
</text>
<rect x="357.3076923076923" y="479.2361752965042" width="16.26923076923077" height="18.763824703495704" fill="#7070f8" data-tooltip="1.00x baseline speed (No JIT)"/>
<line x1="357.3076923076923" y1="479.1644775820723" x2="373.5769230769231" y2="479.1644775820723" stroke="#000"/>
<line x1="357.3076923076923" y1="479.3078730109361" x2="373.5769230769231" y2="479.3078730109361" stroke="#000"/>
<line x1="365.44230769230774" y1="479.1644775820723" x2="365.44230769230774" y2="479.3078730109361" stroke="#000"/>
<rect x="373.5769230769231" y="397.47726721520826" width="16.26923076923077" height="100.52273278479171" fill="orange" data-tooltip="5.36x baseline speed (YJIT 3.3)"/>
<line x1="373.5769230769231" y1="347.97410826632006" x2="389.84615384615387" y2="347.97410826632006" stroke="#000"/>
<line x1="373.5769230769231" y1="446.98042616409646" x2="389.84615384615387" y2="446.98042616409646" stroke="#000"/>
<line x1="381.7115384615385" y1="347.97410826632006" x2="381.7115384615385" y2="446.98042616409646" stroke="#000"/>
<rect x="389.84615384615387" y="390.707303106163" width="16.26923076923077" height="107.29269689383695" fill="green" data-tooltip="5.72x baseline speed (YJIT 3.4dev)"/>
<line x1="389.84615384615387" y1="330.61668553840104" x2="406.1153846153846" y2="330.61668553840104" stroke="#000"/>
<line x1="389.84615384615387" y1="450.797920673925" x2="406.1153846153846" y2="450.797920673925" stroke="#000"/>
<line x1="397.9807692307692" y1="330.61668553840104" x2="397.9807692307692" y2="450.797920673925" stroke="#000"/>
<line x1="389.84615384615387" y1="498.0" x2="389.84615384615387" y2="502.79999999999995" stroke="#000"/>
<text x="389.84615384615387" y="512.4" fill="#111" font-size="small" font-family="monospace" font-weight="bold" text-anchor="end" transform="rotate(-60, 389.84615384615387, 512.4)">
getivar
</text>
<rect x="422.38461538461536" y="479.2361752965042" width="16.26923076923077" height="18.763824703495704" fill="#7070f8" data-tooltip="1.00x baseline speed (No JIT)"/>
<line x1="422.38461538461536" y1="479.2244435788948" x2="438.65384615384613" y2="479.2244435788948" stroke="#000"/>
<line x1="422.38461538461536" y1="479.2479070141136" x2="438.65384615384613" y2="479.2479070141136" stroke="#000"/>
<line x1="430.5192307692308" y1="479.2244435788948" x2="430.5192307692308" y2="479.2479070141136" stroke="#000"/>
<rect x="438.65384615384613" y="353.70871500900967" width="16.26923076923077" height="144.2912849909903" fill="orange" data-tooltip="7.69x baseline speed (YJIT 3.3)"/>
<line x1="438.65384615384613" y1="346.2228815076613" x2="454.92307692307685" y2="346.2228815076613" stroke="#000"/>
<line x1="438.65384615384613" y1="361.194548510358" x2="454.92307692307685" y2="361.194548510358" stroke="#000"/>
<line x1="446.78846153846155" y1="346.2228815076613" x2="446.78846153846155" y2="361.194548510358" stroke="#000"/>
<rect x="454.92307692307685" y="309.11451974702493" width="16.26923076923077" height="188.88548025297507" fill="green" data-tooltip="10.07x baseline speed (YJIT 3.4dev)"/>
<line x1="454.92307692307685" y1="295.266238493193" x2="471.1923076923076" y2="295.266238493193" stroke="#000"/>
<line x1="454.92307692307685" y1="322.9628010008568" x2="471.1923076923076" y2="322.9628010008568" stroke="#000"/>
<line x1="463.05769230769226" y1="295.266238493193" x2="463.05769230769226" y2="322.9628010008568" stroke="#000"/>
<line x1="454.92307692307685" y1="498.0" x2="454.92307692307685" y2="502.79999999999995" stroke="#000"/>
<text x="454.92307692307685" y="512.4" fill="#111" font-size="small" font-family="monospace" font-weight="bold" text-anchor="end" transform="rotate(-60, 454.92307692307685, 512.4)">
keyword_args
</text>
<rect x="487.4615384615384" y="479.2361752965042" width="16.26923076923077" height="18.763824703495704" fill="#7070f8" data-tooltip="1.00x baseline speed (No JIT)"/>
<line x1="487.4615384615384" y1="479.20531631458414" x2="503.7307692307692" y2="479.20531631458414" stroke="#000"/>
<line x1="487.4615384615384" y1="479.26703427842426" x2="503.7307692307692" y2="479.26703427842426" stroke="#000"/>
<line x1="495.5961538461538" y1="479.20531631458414" x2="495.5961538461538" y2="479.26703427842426" stroke="#000"/>
<rect x="503.7307692307692" y="178.13624396263984" width="16.26923076923077" height="319.86375603736013" fill="orange" data-tooltip="17.05x baseline speed (YJIT 3.3)"/>
<line x1="503.7307692307692" y1="153.19470931365396" x2="520.0" y2="153.19470931365396" stroke="#000"/>
<line x1="503.7307692307692" y1="203.07777861162572" x2="520.0" y2="203.07777861162572" stroke="#000"/>
<line x1="511.8653846153845" y1="153.19470931365396" x2="511.8653846153845" y2="203.07777861162572" stroke="#000"/>
<rect x="519.9999999999999" y="100.19999999999999" width="16.26923076923077" height="397.79999999999995" fill="green" data-tooltip="21.20x baseline speed (YJIT 3.4dev)"/>
<line x1="519.9999999999999" y1="56.20260056322612" x2="536.2692307692307" y2="56.20260056322612" stroke="#000"/>
<line x1="519.9999999999999" y1="144.19739943677385" x2="536.2692307692307" y2="144.19739943677385" stroke="#000"/>
<line x1="528.1346153846152" y1="56.20260056322612" x2="528.1346153846152" y2="144.19739943677385" stroke="#000"/>
<line x1="519.9999999999999" y1="498.0" x2="519.9999999999999" y2="502.79999999999995" stroke="#000"/>
<text x="519.9999999999999" y="512.4" fill="#111" font-size="small" font-family="monospace" font-weight="bold" text-anchor="end" transform="rotate(-60, 519.9999999999999, 512.4)">
respond_to
</text>
<rect x="552.5384615384615" y="479.2361752965042" width="16.26923076923077" height="18.763824703495704" fill="#7070f8" data-tooltip="1.00x baseline speed (No JIT)"/>
<line x1="552.5384615384615" y1="479.2292155664863" x2="568.8076923076924" y2="479.2292155664863" stroke="#000"/>
<line x1="552.5384615384615" y1="479.2431350265221" x2="568.8076923076924" y2="479.2431350265221" stroke="#000"/>
<line x1="560.6730769230769" y1="479.2292155664863" x2="560.6730769230769" y2="479.2431350265221" stroke="#000"/>
<rect x="568.8076923076924" y="447.61667637950626" width="16.26923076923077" height="50.383323620493776" fill="orange" data-tooltip="2.69x baseline speed (YJIT 3.3)"/>
<line x1="568.8076923076924" y1="447.5028537974724" x2="585.0769230769232" y2="447.5028537974724" stroke="#000"/>
<line x1="568.8076923076924" y1="447.7304989615401" x2="585.0769230769232" y2="447.7304989615401" stroke="#000"/>
<line x1="576.9423076923077" y1="447.5028537974724" x2="576.9423076923077" y2="447.7304989615401" stroke="#000"/>
<rect x="585.0769230769231" y="423.3183535783747" width="16.26923076923077" height="74.68164642162526" fill="green" data-tooltip="3.98x baseline speed (YJIT 3.4dev)"/>
<line x1="585.0769230769231" y1="423.2084525219912" x2="601.3461538461538" y2="423.2084525219912" stroke="#000"/>
<line x1="585.0769230769231" y1="423.4282546347582" x2="601.3461538461538" y2="423.4282546347582" stroke="#000"/>
<line x1="593.2115384615385" y1="423.2084525219912" x2="593.2115384615385" y2="423.4282546347582" stroke="#000"/>
<line x1="585.0769230769231" y1="498.0" x2="585.0769230769231" y2="502.79999999999995" stroke="#000"/>
<text x="585.0769230769231" y="512.4" fill="#111" font-size="small" font-family="monospace" font-weight="bold" text-anchor="end" transform="rotate(-60, 585.0769230769231, 512.4)">
ruby-xor
</text>
<rect x="617.6153846153845" y="479.2361752965042" width="16.26923076923077" height="18.763824703495704" fill="#7070f8" data-tooltip="1.00x baseline speed (No JIT)"/>
<line x1="617.6153846153845" y1="479.2329979559955" x2="633.8846153846154" y2="479.2329979559955" stroke="#000"/>
<line x1="617.6153846153845" y1="479.23935263701287" x2="633.8846153846154" y2="479.23935263701287" stroke="#000"/>
<line x1="625.7499999999999" y1="479.2329979559955" x2="625.7499999999999" y2="479.23935263701287" stroke="#000"/>
<rect x="633.8846153846154" y="384.5068049404299" width="16.26923076923077" height="113.49319505957007" fill="orange" data-tooltip="6.05x baseline speed (YJIT 3.3)"/>
<line x1="633.8846153846154" y1="336.6808244220065" x2="650.1538461538462" y2="336.6808244220065" stroke="#000"/>
<line x1="633.8846153846154" y1="432.3327854588533" x2="650.1538461538462" y2="432.3327854588533" stroke="#000"/>
<line x1="642.0192307692307" y1="336.6808244220065" x2="642.0192307692307" y2="432.3327854588533" stroke="#000"/>
<rect x="650.1538461538461" y="325.82125858455686" width="16.26923076923077" height="172.17874141544306" fill="green" data-tooltip="9.18x baseline speed (YJIT 3.4dev)"/>
<line x1="650.1538461538461" y1="222.67434630224943" x2="666.4230769230769" y2="222.67434630224943" stroke="#000"/>
<line x1="650.1538461538461" y1="428.9681708668643" x2="666.4230769230769" y2="428.9681708668643" stroke="#000"/>
<line x1="658.2884615384614" y1="222.67434630224943" x2="658.2884615384614" y2="428.9681708668643" stroke="#000"/>
<line x1="650.1538461538461" y1="498.0" x2="650.1538461538461" y2="502.79999999999995" stroke="#000"/>
<text x="650.1538461538461" y="512.4" fill="#111" font-size="small" font-family="monospace" font-weight="bold" text-anchor="end" transform="rotate(-60, 650.1538461538461, 512.4)">
setivar
</text>
<rect x="682.6923076923076" y="479.2361752965042" width="16.26923076923077" height="18.763824703495704" fill="#7070f8" data-tooltip="1.00x baseline speed (No JIT)"/>
<line x1="682.6923076923076" y1="479.2296285393903" x2="698.9615384615385" y2="479.2296285393903" stroke="#000"/>
<line x1="682.6923076923076" y1="479.2427220536181" x2="698.9615384615385" y2="479.2427220536181" stroke="#000"/>
<line x1="690.826923076923" y1="479.2296285393903" x2="690.826923076923" y2="479.2427220536181" stroke="#000"/>
<rect x="698.9615384615385" y="465.18711626960766" width="16.26923076923077" height="32.81288373039228" fill="orange" data-tooltip="1.75x baseline speed (YJIT 3.3)"/>
<line x1="698.9615384615385" y1="454.1213808467713" x2="715.2307692307692" y2="454.1213808467713" stroke="#000"/>
<line x1="698.9615384615385" y1="476.25285169244404" x2="715.2307692307692" y2="476.25285169244404" stroke="#000"/>
<line x1="707.0961538461538" y1="454.1213808467713" x2="707.0961538461538" y2="476.25285169244404" stroke="#000"/>
<rect x="715.2307692307692" y="443.9786200955706" width="16.26923076923077" height="54.021379904429374" fill="green" data-tooltip="2.88x baseline speed (YJIT 3.4dev)"/>
<line x1="715.2307692307692" y1="427.4183434083022" x2="731.4999999999999" y2="427.4183434083022" stroke="#000"/>
<line x1="715.2307692307692" y1="460.538896782839" x2="731.4999999999999" y2="460.538896782839" stroke="#000"/>
<line x1="723.3653846153844" y1="427.4183434083022" x2="723.3653846153844" y2="460.538896782839" stroke="#000"/>
<line x1="715.2307692307692" y1="498.0" x2="715.2307692307692" y2="502.79999999999995" stroke="#000"/>
<text x="715.2307692307692" y="512.4" fill="#111" font-size="small" font-family="monospace" font-weight="bold" text-anchor="end" transform="rotate(-60, 715.2307692307692, 512.4)">
setivar_object
</text>
<rect x="747.7692307692307" y="479.2361752965042" width="16.26923076923077" height="18.763824703495704" fill="#7070f8" data-tooltip="1.00x baseline speed (No JIT)"/>
<line x1="747.7692307692307" y1="479.1681641946656" x2="764.0384615384615" y2="479.1681641946656" stroke="#000"/>
<line x1="747.7692307692307" y1="479.3041863983428" x2="764.0384615384615" y2="479.3041863983428" stroke="#000"/>
<line x1="755.9038461538461" y1="479.1681641946656" x2="755.9038461538461" y2="479.3041863983428" stroke="#000"/>
<rect x="764.0384615384615" y="461.1362537271274" width="16.26923076923077" height="36.86374627287259" fill="orange" data-tooltip="1.96x baseline speed (YJIT 3.3)"/>
<line x1="764.0384615384615" y1="450.10822681993943" x2="780.3076923076924" y2="450.10822681993943" stroke="#000"/>
<line x1="764.0384615384615" y1="472.1642806343154" x2="780.3076923076924" y2="472.1642806343154" stroke="#000"/>
<line x1="772.1730769230769" y1="450.10822681993943" x2="772.1730769230769" y2="472.1642806343154" stroke="#000"/>
<rect x="780.3076923076923" y="443.6977114046657" width="16.26923076923077" height="54.30228859533421" fill="green" data-tooltip="2.89x baseline speed (YJIT 3.4dev)"/>
<line x1="780.3076923076923" y1="426.95907975843323" x2="796.5769230769231" y2="426.95907975843323" stroke="#000"/>
<line x1="780.3076923076923" y1="460.4363430508982" x2="796.5769230769231" y2="460.4363430508982" stroke="#000"/>
<line x1="788.4423076923076" y1="426.95907975843323" x2="788.4423076923076" y2="460.4363430508982" stroke="#000"/>
<line x1="780.3076923076923" y1="498.0" x2="780.3076923076923" y2="502.79999999999995" stroke="#000"/>
<text x="780.3076923076923" y="512.4" fill="#111" font-size="small" font-family="monospace" font-weight="bold" text-anchor="end" transform="rotate(-60, 780.3076923076923, 512.4)">
setivar_young
</text>
<rect x="812.8461538461538" y="479.2361752965042" width="16.26923076923077" height="18.763824703495704" fill="#7070f8" data-tooltip="1.00x baseline speed (No JIT)"/>
<line x1="812.8461538461538" y1="479.0674497957073" x2="829.1153846153846" y2="479.0674497957073" stroke="#000"/>
<line x1="812.8461538461538" y1="479.4049007973011" x2="829.1153846153846" y2="479.4049007973011" stroke="#000"/>
<line x1="820.9807692307692" y1="479.0674497957073" x2="820.9807692307692" y2="479.4049007973011" stroke="#000"/>
<rect x="829.1153846153846" y="463.6441864371986" width="16.26923076923077" height="34.35581356280133" fill="orange" data-tooltip="1.83x baseline speed (YJIT 3.3)"/>
<line x1="829.1153846153846" y1="463.0952206329619" x2="845.3846153846154" y2="463.0952206329619" stroke="#000"/>
<line x1="829.1153846153846" y1="464.1931522414353" x2="845.3846153846154" y2="464.1931522414353" stroke="#000"/>
<line x1="837.2499999999999" y1="463.0952206329619" x2="837.2499999999999" y2="464.1931522414353" stroke="#000"/>
<rect x="845.3846153846152" y="465.1463457205382" width="16.26923076923077" height="32.85365427946182" fill="green" data-tooltip="1.75x baseline speed (YJIT 3.4dev)"/>
<line x1="845.3846153846152" y1="464.59934233287237" x2="861.6538461538461" y2="464.59934233287237" stroke="#000"/>
<line x1="845.3846153846152" y1="465.69334910820396" x2="861.6538461538461" y2="465.69334910820396" stroke="#000"/>
<line x1="853.5192307692306" y1="464.59934233287237" x2="853.5192307692306" y2="465.69334910820396" stroke="#000"/>
<line x1="845.3846153846152" y1="498.0" x2="845.3846153846152" y2="502.79999999999995" stroke="#000"/>
<text x="845.3846153846152" y="512.4" fill="#111" font-size="small" font-family="monospace" font-weight="bold" text-anchor="end" transform="rotate(-60, 845.3846153846152, 512.4)">
str_concat
</text>
<rect x="877.9230769230768" y="479.2361752965042" width="16.26923076923077" height="18.763824703495704" fill="#7070f8" data-tooltip="1.00x baseline speed (No JIT)"/>
<line x1="877.9230769230768" y1="479.1863434280728" x2="894.1923076923076" y2="479.1863434280728" stroke="#000"/>
<line x1="877.9230769230768" y1="479.2860071649356" x2="894.1923076923076" y2="479.2860071649356" stroke="#000"/>
<line x1="886.0576923076922" y1="479.1863434280728" x2="886.0576923076922" y2="479.2860071649356" stroke="#000"/>
<rect x="894.1923076923076" y="474.883229957072" width="16.26923076923077" height="23.11677004292792" fill="orange" data-tooltip="1.23x baseline speed (YJIT 3.3)"/>
<line x1="894.1923076923076" y1="474.79850742651286" x2="910.4615384615385" y2="474.79850742651286" stroke="#000"/>
<line x1="894.1923076923076" y1="474.9679524876311" x2="910.4615384615385" y2="474.9679524876311" stroke="#000"/>
<line x1="902.326923076923" y1="474.79850742651286" x2="902.326923076923" y2="474.9679524876311" stroke="#000"/>
<rect x="910.4615384615383" y="474.5625628952379" width="16.26923076923077" height="23.437437104762047" fill="green" data-tooltip="1.25x baseline speed (YJIT 3.4dev)"/>
<line x1="910.4615384615383" y1="474.4484437383641" x2="926.7307692307692" y2="474.4484437383641" stroke="#000"/>
<line x1="910.4615384615383" y1="474.6766820521116" x2="926.7307692307692" y2="474.6766820521116" stroke="#000"/>
<line x1="918.5961538461537" y1="474.4484437383641" x2="918.5961538461537" y2="474.6766820521116" stroke="#000"/>
<line x1="910.4615384615383" y1="498.0" x2="910.4615384615383" y2="502.79999999999995" stroke="#000"/>
<text x="910.4615384615383" y="512.4" fill="#111" font-size="small" font-family="monospace" font-weight="bold" text-anchor="end" transform="rotate(-60, 910.4615384615383, 512.4)">
throw
</text>
</svg>