<svg viewBox="0 0 1000 600" xmlns="http://www.w3.org/2000/svg" xmlns:xlink="http://www.w3.org/1999/xlink" width="100%" height="100%">

<rect x="50.0" y="30.0" width="940.0" height="467.99999999999994" stroke="#000" fill="#EEE"/>
<line x1="42.0" y1="497.9999999999999" x2="50.0" y2="497.9999999999999" stroke="#000"/>
<text x="26.000000000000004" y="497.9999999999999" text-anchor="end" font-weight="bold" font-size="small" fill="#111">
0.0
</text>
<line x1="42.0" y1="449.09800208146817" x2="50.0" y2="449.09800208146817" stroke="#000"/>
<text x="26.000000000000004" y="449.09800208146817" text-anchor="end" font-weight="bold" font-size="small" fill="#111">
0.2
</text>
<line x1="42.0" y1="400.1960041629364" x2="50.0" y2="400.1960041629364" stroke="#000"/>
<text x="26.000000000000004" y="400.1960041629364" text-anchor="end" font-weight="bold" font-size="small" fill="#111">
0.4
</text>
<line x1="42.0" y1="351.2940062444046" x2="50.0" y2="351.2940062444046" stroke="#000"/>
<text x="26.000000000000004" y="351.2940062444046" text-anchor="end" font-weight="bold" font-size="small" fill="#111">
0.6
</text>
<line x1="42.0" y1="302.3920083258729" x2="50.0" y2="302.3920083258729" stroke="#000"/>
<text x="26.000000000000004" y="302.3920083258729" text-anchor="end" font-weight="bold" font-size="small" fill="#111">
0.8
</text>
<line x1="42.0" y1="253.49001040734106" x2="50.0" y2="253.49001040734106" stroke="#000"/>
<text x="26.000000000000004" y="253.49001040734106" text-anchor="end" font-weight="bold" font-size="small" fill="#111">
1.0
</text>
<line x1="42.0" y1="204.58801248880928" x2="50.0" y2="204.58801248880928" stroke="#000"/>
<text x="26.000000000000004" y="204.58801248880928" text-anchor="end" font-weight="bold" font-size="small" fill="#111">
1.2
</text>
<line x1="42.0" y1="155.68601457027754" x2="50.0" y2="155.68601457027754" stroke="#000"/>
<text x="26.000000000000004" y="155.68601457027754" text-anchor="end" font-weight="bold" font-size="small" fill="#111">
1.4
</text>
<line x1="42.0" y1="106.78401665174572" x2="50.0" y2="106.78401665174572" stroke="#000"/>
<text x="26.000000000000004" y="106.78401665174572" text-anchor="end" font-weight="bold" font-size="small" fill="#111">
1.6
</text>
<rect x="268.5" y="36.00000000000001" width="80.0" height="18.0" fill="#7070f8" stroke="#888"/>
<text x="308.5" y="52.50000000000001" font-size="small" text-anchor="middle" font-weight="bold" fill="#EEE">
No JIT
</text>
<rect x="691.4999999999999" y="36.00000000000001" width="80.0" height="18.0" fill="orange" stroke="#888"/>
<text x="731.4999999999999" y="52.50000000000001" font-size="small" text-anchor="middle" font-weight="bold" fill="#EEE">
YJIT
</text>
<rect x="97.0" y="253.49001040734106" width="28.2" height="244.50998959265888" fill="#7070f8" data-tooltip="1.00x baseline speed (No JIT)"/>
<line x1="97.0" y1="253.06929979467014" x2="125.2" y2="253.06929979467014" stroke="#000"/>
<line x1="97.0" y1="253.91072102001195" x2="125.2" y2="253.91072102001195" stroke="#000"/>
<line x1="111.10000000000001" y1="253.06929979467014" x2="111.10000000000001" y2="253.91072102001195" stroke="#000"/>
<rect x="125.2" y="157.14358918397184" width="28.2" height="340.85641081602813" fill="orange" data-tooltip="1.39x baseline speed (YJIT)"/>
<line x1="125.2" y1="156.1685878072254" x2="153.4" y2="156.1685878072254" stroke="#000"/>
<line x1="125.2" y1="158.11859056071827" x2="153.4" y2="158.11859056071827" stroke="#000"/>
<line x1="139.3" y1="156.1685878072254" x2="139.3" y2="158.11859056071827" stroke="#000"/>
<line x1="139.3" y1="498.0" x2="139.3" y2="502.79999999999995" stroke="#000"/>
<text x="139.3" y="512.4" fill="#111" font-size="small" font-family="monospace" font-weight="bold" text-anchor="end" transform="rotate(-60, 139.3, 512.4)">
activerecord
</text>
<rect x="181.6" y="253.49001040734106" width="28.2" height="244.50998959265888" fill="#7070f8" data-tooltip="1.00x baseline speed (No JIT)"/>
<line x1="181.6" y1="252.39358062387348" x2="209.79999999999998" y2="252.39358062387348" stroke="#000"/>
<line x1="181.6" y1="254.58644019080862" x2="209.79999999999998" y2="254.58644019080862" stroke="#000"/>
<line x1="195.7" y1="252.39358062387348" x2="195.7" y2="254.58644019080862" stroke="#000"/>
<rect x="209.79999999999998" y="155.2104141833813" width="28.2" height="342.7895858166186" fill="orange" data-tooltip="1.40x baseline speed (YJIT)"/>
<line x1="209.79999999999998" y1="147.51880933285352" x2="238.0" y2="147.51880933285352" stroke="#000"/>
<line x1="209.79999999999998" y1="162.90201903390903" x2="238.0" y2="162.90201903390903" stroke="#000"/>
<line x1="223.89999999999998" y1="147.51880933285352" x2="223.89999999999998" y2="162.90201903390903" stroke="#000"/>
<line x1="223.89999999999998" y1="498.0" x2="223.89999999999998" y2="502.79999999999995" stroke="#000"/>
<text x="223.89999999999998" y="512.4" fill="#111" font-size="small" font-family="monospace" font-weight="bold" text-anchor="end" transform="rotate(-60, 223.89999999999998, 512.4)">
hexapdf
</text>
<rect x="266.2" y="253.49001040734106" width="28.2" height="244.50998959265888" fill="#7070f8" data-tooltip="1.00x baseline speed (No JIT)"/>
<line x1="266.2" y1="250.39844183892393" x2="294.4" y2="250.39844183892393" stroke="#000"/>
<line x1="266.2" y1="256.58157897575813" x2="294.4" y2="256.58157897575813" stroke="#000"/>
<line x1="280.3" y1="250.39844183892393" x2="280.3" y2="256.58157897575813" stroke="#000"/>
<rect x="294.4" y="197.3684134366261" width="28.2" height="300.6315865633738" fill="orange" data-tooltip="1.23x baseline speed (YJIT)"/>
<line x1="294.4" y1="190.93433057221446" x2="322.6" y2="190.93433057221446" stroke="#000"/>
<line x1="294.4" y1="203.80249630103776" x2="322.6" y2="203.80249630103776" stroke="#000"/>
<line x1="308.5" y1="190.93433057221446" x2="308.5" y2="203.80249630103776" stroke="#000"/>
<line x1="308.5" y1="498.0" x2="308.5" y2="502.79999999999995" stroke="#000"/>
<text x="308.5" y="512.4" fill="#111" font-size="small" font-family="monospace" font-weight="bold" text-anchor="end" transform="rotate(-60, 308.5, 512.4)">
liquid-c
</text>
<rect x="350.8" y="253.49001040734106" width="28.2" height="244.50998959265888" fill="#7070f8" data-tooltip="1.00x baseline speed (No JIT)"/>
<line x1="350.8" y1="252.26742816713045" x2="379.0" y2="252.26742816713045" stroke="#000"/>
<line x1="350.8" y1="254.71259264755165" x2="379.0" y2="254.71259264755165" stroke="#000"/>
<line x1="364.9" y1="252.26742816713045" x2="364.9" y2="254.71259264755165" stroke="#000"/>
<rect x="379.0" y="212.17298538348297" width="28.2" height="285.827014616517" fill="orange" data-tooltip="1.17x baseline speed (YJIT)"/>
<line x1="379.0" y1="209.952500718378" x2="407.2" y2="209.952500718378" stroke="#000"/>
<line x1="379.0" y1="214.39347004858794" x2="407.2" y2="214.39347004858794" stroke="#000"/>
<line x1="393.1" y1="209.952500718378" x2="393.1" y2="214.39347004858794" stroke="#000"/>
<line x1="393.1" y1="498.0" x2="393.1" y2="502.79999999999995" stroke="#000"/>
<text x="393.1" y="512.4" fill="#111" font-size="small" font-family="monospace" font-weight="bold" text-anchor="end" transform="rotate(-60, 393.1, 512.4)">
liquid-compile
</text>
<rect x="435.40000000000003" y="253.49001040734106" width="28.2" height="244.50998959265888" fill="#7070f8" data-tooltip="1.00x baseline speed (No JIT)"/>
<line x1="435.40000000000003" y1="250.3978731476691" x2="463.6" y2="250.3978731476691" stroke="#000"/>
<line x1="435.40000000000003" y1="256.58214766701303" x2="463.6" y2="256.58214766701303" stroke="#000"/>
<line x1="449.5" y1="250.3978731476691" x2="449.5" y2="256.58214766701303" stroke="#000"/>
<rect x="463.6" y="100.19999999999999" width="28.2" height="397.79999999999995" fill="orange" data-tooltip="1.63x baseline speed (YJIT)"/>
<line x1="463.6" y1="89.48612286365687" x2="491.8" y2="89.48612286365687" stroke="#000"/>
<line x1="463.6" y1="110.9138771363431" x2="491.8" y2="110.9138771363431" stroke="#000"/>
<line x1="477.7" y1="89.48612286365687" x2="477.7" y2="110.9138771363431" stroke="#000"/>
<line x1="477.7" y1="498.0" x2="477.7" y2="502.79999999999995" stroke="#000"/>
<text x="477.7" y="512.4" fill="#111" font-size="small" font-family="monospace" font-weight="bold" text-anchor="end" transform="rotate(-60, 477.7, 512.4)">
liquid-render
</text>
<rect x="520.0" y="253.49001040734106" width="28.2" height="244.50998959265888" fill="#7070f8" data-tooltip="1.00x baseline speed (No JIT)"/>
<line x1="520.0" y1="253.22447687482222" x2="548.2" y2="253.22447687482222" stroke="#000"/>
<line x1="520.0" y1="253.75554393985988" x2="548.2" y2="253.75554393985988" stroke="#000"/>
<line x1="534.1" y1="253.22447687482222" x2="534.1" y2="253.75554393985988" stroke="#000"/>
<rect x="548.2" y="192.4715096295703" width="28.2" height="305.52849037042967" fill="orange" data-tooltip="1.25x baseline speed (YJIT)"/>
<line x1="548.2" y1="191.94038961028284" x2="576.4" y2="191.94038961028284" stroke="#000"/>
<line x1="548.2" y1="193.00262964885775" x2="576.4" y2="193.00262964885775" stroke="#000"/>
<line x1="562.3000000000001" y1="191.94038961028284" x2="562.3000000000001" y2="193.00262964885775" stroke="#000"/>
<line x1="562.3000000000001" y1="498.0" x2="562.3000000000001" y2="502.79999999999995" stroke="#000"/>
<text x="562.3000000000001" y="512.4" fill="#111" font-size="small" font-family="monospace" font-weight="bold" text-anchor="end" transform="rotate(-60, 562.3000000000001, 512.4)">
mail
</text>
<rect x="604.5999999999999" y="253.49001040734106" width="28.2" height="244.50998959265888" fill="#7070f8" data-tooltip="1.00x baseline speed (No JIT)"/>
<line x1="604.5999999999999" y1="253.07618668641317" x2="632.8" y2="253.07618668641317" stroke="#000"/>
<line x1="604.5999999999999" y1="253.90383412826893" x2="632.8" y2="253.90383412826893" stroke="#000"/>
<line x1="618.6999999999999" y1="253.07618668641317" x2="618.6999999999999" y2="253.90383412826893" stroke="#000"/>
<rect x="632.8" y="146.48936320263712" width="28.2" height="351.51063679736285" fill="orange" data-tooltip="1.44x baseline speed (YJIT)"/>
<line x1="632.8" y1="145.80027524497063" x2="660.9999999999999" y2="145.80027524497063" stroke="#000"/>
<line x1="632.8" y1="147.1784511603036" x2="660.9999999999999" y2="147.1784511603036" stroke="#000"/>
<line x1="646.8999999999999" y1="145.80027524497063" x2="646.8999999999999" y2="147.1784511603036" stroke="#000"/>
<line x1="646.8999999999999" y1="498.0" x2="646.8999999999999" y2="502.79999999999995" stroke="#000"/>
<text x="646.8999999999999" y="512.4" fill="#111" font-size="small" font-family="monospace" font-weight="bold" text-anchor="end" transform="rotate(-60, 646.8999999999999, 512.4)">
psych-load
</text>
<rect x="689.1999999999999" y="253.49001040734106" width="28.2" height="244.50998959265888" fill="#7070f8" data-tooltip="1.00x baseline speed (No JIT)"/>
<line x1="689.1999999999999" y1="252.25700283911456" x2="717.4" y2="252.25700283911456" stroke="#000"/>
<line x1="689.1999999999999" y1="254.72301797556756" x2="717.4" y2="254.72301797556756" stroke="#000"/>
<line x1="703.3" y1="252.25700283911456" x2="703.3" y2="254.72301797556756" stroke="#000"/>
<rect x="717.4" y="158.19396331933325" width="28.2" height="339.8060366806667" fill="orange" data-tooltip="1.39x baseline speed (YJIT)"/>
<line x1="717.4" y1="155.04470777288847" x2="745.5999999999999" y2="155.04470777288847" stroke="#000"/>
<line x1="717.4" y1="161.34321886577803" x2="745.5999999999999" y2="161.34321886577803" stroke="#000"/>
<line x1="731.4999999999999" y1="155.04470777288847" x2="731.4999999999999" y2="161.34321886577803" stroke="#000"/>
<line x1="731.4999999999999" y1="498.0" x2="731.4999999999999" y2="502.79999999999995" stroke="#000"/>
<text x="731.4999999999999" y="512.4" fill="#111" font-size="small" font-family="monospace" font-weight="bold" text-anchor="end" transform="rotate(-60, 731.4999999999999, 512.4)">
railsbench
</text>
<rect x="773.8" y="253.49001040734106" width="28.2" height="244.50998959265888" fill="#7070f8" data-tooltip="1.00x baseline speed (No JIT)"/>
<line x1="773.8" y1="237.41264076318885" x2="801.9999999999999" y2="237.41264076318885" stroke="#000"/>
<line x1="773.8" y1="269.5673800514932" x2="801.9999999999999" y2="269.5673800514932" stroke="#000"/>
<line x1="787.9" y1="237.41264076318885" x2="787.9" y2="269.5673800514932" stroke="#000"/>
<rect x="801.9999999999999" y="198.93354370545006" width="28.2" height="299.0664562945499" fill="orange" data-tooltip="1.22x baseline speed (YJIT)"/>
<line x1="801.9999999999999" y1="157.3538323181587" x2="830.1999999999999" y2="157.3538323181587" stroke="#000"/>
<line x1="801.9999999999999" y1="240.51325509274142" x2="830.1999999999999" y2="240.51325509274142" stroke="#000"/>
<line x1="816.0999999999999" y1="157.3538323181587" x2="816.0999999999999" y2="240.51325509274142" stroke="#000"/>
<line x1="816.0999999999999" y1="498.0" x2="816.0999999999999" y2="502.79999999999995" stroke="#000"/>
<text x="816.0999999999999" y="512.4" fill="#111" font-size="small" font-family="monospace" font-weight="bold" text-anchor="end" transform="rotate(-60, 816.0999999999999, 512.4)">
ruby-lsp
</text>
<rect x="858.4" y="253.49001040734106" width="28.2" height="244.50998959265888" fill="#7070f8" data-tooltip="1.00x baseline speed (No JIT)"/>
<line x1="858.4" y1="253.28148681268075" x2="886.5999999999999" y2="253.28148681268075" stroke="#000"/>
<line x1="858.4" y1="253.69853400200134" x2="886.5999999999999" y2="253.69853400200134" stroke="#000"/>
<line x1="872.4999999999999" y1="253.28148681268075" x2="872.4999999999999" y2="253.69853400200134" stroke="#000"/>
<rect x="886.5999999999999" y="223.249648173389" width="28.2" height="274.7503518266109" fill="orange" data-tooltip="1.12x baseline speed (YJIT)"/>
<line x1="886.5999999999999" y1="222.65088344669425" x2="914.8" y2="222.65088344669425" stroke="#000"/>
<line x1="886.5999999999999" y1="223.84841290008376" x2="914.8" y2="223.84841290008376" stroke="#000"/>
<line x1="900.6999999999999" y1="222.65088344669425" x2="900.6999999999999" y2="223.84841290008376" stroke="#000"/>
<line x1="900.6999999999999" y1="498.0" x2="900.6999999999999" y2="502.79999999999995" stroke="#000"/>
<text x="900.6999999999999" y="512.4" fill="#111" font-size="small" font-family="monospace" font-weight="bold" text-anchor="end" transform="rotate(-60, 900.6999999999999, 512.4)">
sequel
</text>
</svg>