<svg viewBox="0 0 1000 600" xmlns="http://www.w3.org/2000/svg" xmlns:xlink="http://www.w3.org/1999/xlink" width="100%" height="100%">

<rect x="50.0" y="30.0" width="940.0" height="467.99999999999994" stroke="#000" fill="#fff"/>
<line x1="42.0" y1="497.9999999999999" x2="50.0" y2="497.9999999999999" stroke="#000"/>
<text x="26.000000000000004" y="497.9999999999999" text-anchor="end" font-weight="bold" font-size="small" fill="#111">
0.0
</text>
<line x1="42.0" y1="452.9095593847576" x2="50.0" y2="452.9095593847576" stroke="#000"/>
<text x="26.000000000000004" y="452.9095593847576" text-anchor="end" font-weight="bold" font-size="small" fill="#111">
0.2
</text>
<line x1="42.0" y1="407.8191187695154" x2="50.0" y2="407.8191187695154" stroke="#000"/>
<text x="26.000000000000004" y="407.8191187695154" text-anchor="end" font-weight="bold" font-size="small" fill="#111">
0.4
</text>
<line x1="42.0" y1="362.7286781542731" x2="50.0" y2="362.7286781542731" stroke="#000"/>
<text x="26.000000000000004" y="362.7286781542731" text-anchor="end" font-weight="bold" font-size="small" fill="#111">
0.6
</text>
<line x1="42.0" y1="317.6382375390309" x2="50.0" y2="317.6382375390309" stroke="#000"/>
<text x="26.000000000000004" y="317.6382375390309" text-anchor="end" font-weight="bold" font-size="small" fill="#111">
0.8
</text>
<line x1="42.0" y1="272.54779692378855" x2="50.0" y2="272.54779692378855" stroke="#000"/>
<text x="26.000000000000004" y="272.54779692378855" text-anchor="end" font-weight="bold" font-size="small" fill="#111">
1.0
</text>
<line x1="42.0" y1="227.4573563085463" x2="50.0" y2="227.4573563085463" stroke="#000"/>
<text x="26.000000000000004" y="227.4573563085463" text-anchor="end" font-weight="bold" font-size="small" fill="#111">
1.2
</text>
<line x1="42.0" y1="182.36691569330407" x2="50.0" y2="182.36691569330407" stroke="#000"/>
<text x="26.000000000000004" y="182.36691569330407" text-anchor="end" font-weight="bold" font-size="small" fill="#111">
1.4
</text>
<line x1="42.0" y1="137.27647507806174" x2="50.0" y2="137.27647507806174" stroke="#000"/>
<text x="26.000000000000004" y="137.27647507806174" text-anchor="end" font-weight="bold" font-size="small" fill="#111">
1.6
</text>
<line x1="248.5" y1="54.60000000000001" x2="368.5" y2="54.60000000000001" stroke="#648FFF" stroke-width="2"/>
<text x="308.5" y="49.500000000000014" font-size="small" text-anchor="middle" font-weight="bold" fill="#000">
CRuby 3.3.0dev
</text>
<rect x="671.5" y="35.400000000000006" width="120.0" height="19.2" fill="#785EF0" stroke="none"/>
<text x="731.4999999999999" y="49.500000000000014" font-size="small" text-anchor="middle" font-weight="bold" fill="#fff" style="text-shadow: 0 0 1px #000;">
YJIT 3.3.0dev
</text>
<rect x="65.40983606557377" y="236.06635066256447" width="15.40983606557377" height="261.9336493374355" fill="#785EF0" data-tooltip="1.16x baseline (YJIT 3.3.0dev)"/>
<line x1="73.11475409836066" y1="498.0" x2="73.11475409836066" y2="502.79999999999995" stroke="#000"/>
<text x="73.11475409836066" y="512.4" fill="#111" font-size="small" text-anchor="end" transform="rotate(-60, 73.11475409836066, 512.4)">
activerecord
</text>
<rect x="96.2295081967213" y="170.5150383720687" width="15.40983606557377" height="327.4849616279312" fill="#785EF0" data-tooltip="1.45x baseline (YJIT 3.3.0dev)"/>
<line x1="103.93442622950819" y1="498.0" x2="103.93442622950819" y2="502.79999999999995" stroke="#000"/>
<text x="103.93442622950819" y="512.4" fill="#111" font-size="small" text-anchor="end" transform="rotate(-60, 103.93442622950819, 512.4)">
hexapdf
</text>
<rect x="127.04918032786883" y="242.4312784242874" width="15.40983606557377" height="255.56872157571254" fill="#785EF0" data-tooltip="1.13x baseline (YJIT 3.3.0dev)"/>
<line x1="134.75409836065572" y1="498.0" x2="134.75409836065572" y2="502.79999999999995" stroke="#000"/>
<text x="134.75409836065572" y="512.4" fill="#111" font-size="small" text-anchor="end" transform="rotate(-60, 134.75409836065572, 512.4)">
liquid-c
</text>
<rect x="157.86885245901638" y="236.51874115097834" width="15.40983606557377" height="261.48125884902163" fill="#785EF0" data-tooltip="1.16x baseline (YJIT 3.3.0dev)"/>
<line x1="165.5737704918033" y1="498.0" x2="165.5737704918033" y2="502.79999999999995" stroke="#000"/>
<text x="165.5737704918033" y="512.4" fill="#111" font-size="small" text-anchor="end" transform="rotate(-60, 165.5737704918033, 512.4)">
liquid-render
</text>
<rect x="188.68852459016395" y="255.05014077470707" width="15.40983606557377" height="242.94985922529287" fill="#785EF0" data-tooltip="1.08x baseline (YJIT 3.3.0dev)"/>
<line x1="196.39344262295083" y1="498.0" x2="196.39344262295083" y2="502.79999999999995" stroke="#000"/>
<text x="196.39344262295083" y="512.4" fill="#111" font-size="small" text-anchor="end" transform="rotate(-60, 196.39344262295083, 512.4)">
mail
</text>
<rect x="219.5081967213115" y="268.4165521987166" width="15.40983606557377" height="229.58344780128337" fill="#785EF0" data-tooltip="1.02x baseline (YJIT 3.3.0dev)"/>
<line x1="227.2131147540984" y1="498.0" x2="227.2131147540984" y2="502.79999999999995" stroke="#000"/>
<text x="227.2131147540984" y="512.4" fill="#111" font-size="small" text-anchor="end" transform="rotate(-60, 227.2131147540984, 512.4)">
psych-load
</text>
<rect x="250.32786885245906" y="232.59056219673855" width="15.40983606557377" height="265.40943780326137" fill="#785EF0" data-tooltip="1.18x baseline (YJIT 3.3.0dev)"/>
<line x1="258.03278688524597" y1="498.0" x2="258.03278688524597" y2="502.79999999999995" stroke="#000"/>
<text x="258.03278688524597" y="512.4" fill="#111" font-size="small" text-anchor="end" transform="rotate(-60, 258.03278688524597, 512.4)">
railsbench
</text>
<rect x="281.14754098360663" y="169.55351940384944" width="15.40983606557377" height="328.44648059615054" fill="#785EF0" data-tooltip="1.46x baseline (YJIT 3.3.0dev)"/>
<line x1="288.8524590163935" y1="498.0" x2="288.8524590163935" y2="502.79999999999995" stroke="#000"/>
<text x="288.8524590163935" y="512.4" fill="#111" font-size="small" text-anchor="end" transform="rotate(-60, 288.8524590163935, 512.4)">
ruby-lsp
</text>
<rect x="311.96721311475414" y="239.71470316669402" width="15.40983606557377" height="258.2852968333059" fill="#785EF0" data-tooltip="1.15x baseline (YJIT 3.3.0dev)"/>
<line x1="319.67213114754105" y1="498.0" x2="319.67213114754105" y2="502.79999999999995" stroke="#000"/>
<text x="319.67213114754105" y="512.4" fill="#111" font-size="small" text-anchor="end" transform="rotate(-60, 319.67213114754105, 512.4)">
sequel
</text>
<rect x="342.7868852459017" y="269.1343469319379" width="15.40983606557377" height="228.86565306806207" fill="#785EF0" data-tooltip="1.02x baseline (YJIT 3.3.0dev)"/>
<line x1="350.4918032786886" y1="498.0" x2="350.4918032786886" y2="502.79999999999995" stroke="#000"/>
<text x="350.4918032786886" y="512.4" fill="#111" font-size="small" text-anchor="end" transform="rotate(-60, 350.4918032786886, 512.4)">
binarytrees
</text>
<rect x="373.6065573770493" y="301.20852233509635" width="15.40983606557377" height="196.79147766490354" fill="#785EF0" data-tooltip="0.87x baseline (YJIT 3.3.0dev)"/>
<line x1="381.3114754098362" y1="498.0" x2="381.3114754098362" y2="502.79999999999995" stroke="#000"/>
<text x="381.3114754098362" y="512.4" fill="#111" font-size="small" text-anchor="end" transform="rotate(-60, 381.3114754098362, 512.4)">
chunky_png
</text>
<rect x="404.42622950819685" y="148.46704640678917" width="15.40983606557377" height="349.53295359321083" fill="#785EF0" data-tooltip="1.55x baseline (YJIT 3.3.0dev)"/>
<line x1="412.13114754098376" y1="498.0" x2="412.13114754098376" y2="502.79999999999995" stroke="#000"/>
<text x="412.13114754098376" y="512.4" fill="#111" font-size="small" text-anchor="end" transform="rotate(-60, 412.13114754098376, 512.4)">
erubi
</text>
<rect x="435.2459016393444" y="253.3392501277124" width="15.40983606557377" height="244.66074987228754" fill="#785EF0" data-tooltip="1.09x baseline (YJIT 3.3.0dev)"/>
<line x1="442.9508196721313" y1="498.0" x2="442.9508196721313" y2="502.79999999999995" stroke="#000"/>
<text x="442.9508196721313" y="512.4" fill="#111" font-size="small" text-anchor="end" transform="rotate(-60, 442.9508196721313, 512.4)">
erubi_rails
</text>
<rect x="466.06557377049194" y="121.75858482984502" width="15.40983606557377" height="376.24141517015494" fill="#785EF0" data-tooltip="1.67x baseline (YJIT 3.3.0dev)"/>
<line x1="473.77049180327884" y1="498.0" x2="473.77049180327884" y2="502.79999999999995" stroke="#000"/>
<text x="473.77049180327884" y="512.4" fill="#111" font-size="small" text-anchor="end" transform="rotate(-60, 473.77049180327884, 512.4)">
etanni
</text>
<rect x="496.8852459016395" y="262.671918190788" width="15.40983606557377" height="235.3280818092119" fill="#785EF0" data-tooltip="1.04x baseline (YJIT 3.3.0dev)"/>
<line x1="504.59016393442636" y1="498.0" x2="504.59016393442636" y2="502.79999999999995" stroke="#000"/>
<text x="504.59016393442636" y="512.4" fill="#111" font-size="small" text-anchor="end" transform="rotate(-60, 504.59016393442636, 512.4)">
fannkuchredux
</text>
<rect x="527.7049180327871" y="237.2502360170804" width="15.40983606557377" height="260.74976398291955" fill="#785EF0" data-tooltip="1.16x baseline (YJIT 3.3.0dev)"/>
<line x1="535.4098360655739" y1="498.0" x2="535.4098360655739" y2="502.79999999999995" stroke="#000"/>
<text x="535.4098360655739" y="512.4" fill="#111" font-size="small" text-anchor="end" transform="rotate(-60, 535.4098360655739, 512.4)">
lee
</text>
<rect x="558.5245901639346" y="263.91129540384355" width="15.40983606557377" height="234.08870459615642" fill="#785EF0" data-tooltip="1.04x baseline (YJIT 3.3.0dev)"/>
<line x1="566.2295081967214" y1="498.0" x2="566.2295081967214" y2="502.79999999999995" stroke="#000"/>
<text x="566.2295081967214" y="512.4" fill="#111" font-size="small" text-anchor="end" transform="rotate(-60, 566.2295081967214, 512.4)">
nbody
</text>
<rect x="589.3442622950822" y="263.5409893425249" width="15.40983606557377" height="234.4590106574751" fill="#785EF0" data-tooltip="1.04x baseline (YJIT 3.3.0dev)"/>
<line x1="597.0491803278691" y1="498.0" x2="597.0491803278691" y2="502.79999999999995" stroke="#000"/>
<text x="597.0491803278691" y="512.4" fill="#111" font-size="small" text-anchor="end" transform="rotate(-60, 597.0491803278691, 512.4)">
optcarrot
</text>
<rect x="620.1639344262297" y="270.9878773036546" width="15.40983606557377" height="227.0121226963453" fill="#785EF0" data-tooltip="1.01x baseline (YJIT 3.3.0dev)"/>
<line x1="627.8688524590166" y1="498.0" x2="627.8688524590166" y2="502.79999999999995" stroke="#000"/>
<text x="627.8688524590166" y="512.4" fill="#111" font-size="small" text-anchor="end" transform="rotate(-60, 627.8688524590166, 512.4)">
rubykon
</text>
<rect x="650.9836065573774" y="100.19999999999999" width="15.40983606557377" height="397.79999999999995" fill="#785EF0" data-tooltip="1.76x baseline (YJIT 3.3.0dev)"/>
<line x1="658.6885245901641" y1="498.0" x2="658.6885245901641" y2="502.79999999999995" stroke="#000"/>
<text x="658.6885245901641" y="512.4" fill="#111" font-size="small" text-anchor="end" transform="rotate(-60, 658.6885245901641, 512.4)">
30k_ifelse
</text>
<rect x="681.8032786885249" y="202.53905226520624" width="15.40983606557377" height="295.46094773479376" fill="#785EF0" data-tooltip="1.31x baseline (YJIT 3.3.0dev)"/>
<line x1="689.5081967213117" y1="498.0" x2="689.5081967213117" y2="502.79999999999995" stroke="#000"/>
<text x="689.5081967213117" y="512.4" fill="#111" font-size="small" text-anchor="end" transform="rotate(-60, 689.5081967213117, 512.4)">
30k_methods
</text>
<rect x="712.6229508196724" y="266.05305660470935" width="15.40983606557377" height="231.9469433952906" fill="#785EF0" data-tooltip="1.03x baseline (YJIT 3.3.0dev)"/>
<line x1="720.3278688524592" y1="498.0" x2="720.3278688524592" y2="502.79999999999995" stroke="#000"/>
<text x="720.3278688524592" y="512.4" fill="#111" font-size="small" text-anchor="end" transform="rotate(-60, 720.3278688524592, 512.4)">
cfunc_itself
</text>
<rect x="743.44262295082" y="266.05305660470935" width="15.40983606557377" height="231.9469433952906" fill="#785EF0" data-tooltip="1.03x baseline (YJIT 3.3.0dev)"/>
<line x1="751.1475409836069" y1="498.0" x2="751.1475409836069" y2="502.79999999999995" stroke="#000"/>
<text x="751.1475409836069" y="512.4" fill="#111" font-size="small" text-anchor="end" transform="rotate(-60, 751.1475409836069, 512.4)">
fib
</text>
<rect x="774.2622950819675" y="266.05468313621924" width="15.40983606557377" height="231.9453168637807" fill="#785EF0" data-tooltip="1.03x baseline (YJIT 3.3.0dev)"/>
<line x1="781.9672131147544" y1="498.0" x2="781.9672131147544" y2="502.79999999999995" stroke="#000"/>
<text x="781.9672131147544" y="512.4" fill="#111" font-size="small" text-anchor="end" transform="rotate(-60, 781.9672131147544, 512.4)">
getivar
</text>
<rect x="805.081967213115" y="266.05468313621924" width="15.40983606557377" height="231.9453168637807" fill="#785EF0" data-tooltip="1.03x baseline (YJIT 3.3.0dev)"/>
<line x1="812.7868852459019" y1="498.0" x2="812.7868852459019" y2="502.79999999999995" stroke="#000"/>
<text x="812.7868852459019" y="512.4" fill="#111" font-size="small" text-anchor="end" transform="rotate(-60, 812.7868852459019, 512.4)">
keyword_args
</text>
<rect x="835.9016393442627" y="267.34117788080675" width="15.40983606557377" height="230.6588221191932" fill="#785EF0" data-tooltip="1.02x baseline (YJIT 3.3.0dev)"/>
<line x1="843.6065573770495" y1="498.0" x2="843.6065573770495" y2="502.79999999999995" stroke="#000"/>
<text x="843.6065573770495" y="512.4" fill="#111" font-size="small" text-anchor="end" transform="rotate(-60, 843.6065573770495, 512.4)">
respond_to
</text>
<rect x="866.7213114754102" y="267.6186555894515" width="15.40983606557377" height="230.38134441054842" fill="#785EF0" data-tooltip="1.02x baseline (YJIT 3.3.0dev)"/>
<line x1="874.426229508197" y1="498.0" x2="874.426229508197" y2="502.79999999999995" stroke="#000"/>
<text x="874.426229508197" y="512.4" fill="#111" font-size="small" text-anchor="end" transform="rotate(-60, 874.426229508197, 512.4)">
setivar
</text>
<rect x="897.5409836065578" y="266.05468313621924" width="15.40983606557377" height="231.9453168637807" fill="#785EF0" data-tooltip="1.03x baseline (YJIT 3.3.0dev)"/>
<line x1="905.2459016393447" y1="498.0" x2="905.2459016393447" y2="502.79999999999995" stroke="#000"/>
<text x="905.2459016393447" y="512.4" fill="#111" font-size="small" text-anchor="end" transform="rotate(-60, 905.2459016393447, 512.4)">
setivar_object
</text>
<rect x="928.3606557377053" y="267.7564178823867" width="15.40983606557377" height="230.24358211761322" fill="#785EF0" data-tooltip="1.02x baseline (YJIT 3.3.0dev)"/>
<line x1="936.0655737704922" y1="498.0" x2="936.0655737704922" y2="502.79999999999995" stroke="#000"/>
<text x="936.0655737704922" y="512.4" fill="#111" font-size="small" text-anchor="end" transform="rotate(-60, 936.0655737704922, 512.4)">
str_concat
</text>
<rect x="959.1803278688528" y="241.03239826044413" width="15.40983606557377" height="256.9676017395558" fill="#785EF0" data-tooltip="1.14x baseline (YJIT 3.3.0dev)"/>
<line x1="966.8852459016397" y1="498.0" x2="966.8852459016397" y2="502.79999999999995" stroke="#000"/>
<text x="966.8852459016397" y="512.4" fill="#111" font-size="small" text-anchor="end" transform="rotate(-60, 966.8852459016397, 512.4)" font-style="italic">
geomean*
</text>
<line x1="50.0" y1="272.54779692378855" x2="990.0" y2="272.54779692378855" stroke="#648FFF" stroke-width="2"/>
</svg>